<svg width="2238" height="2081" viewBox="0 0 2238 2081" version="1.1" xmlns="http://www.w3.org/2000/svg" xmlns:xlink="http://www.w3.org/1999/xlink" xmlns:figma="http://www.figma.com/figma/ns">
<title>searching list_linear</title>
<desc>Created using Figma</desc>
<g id="Canvas" transform="translate(333 513)" figma:type="canvas">
<g id="Rectangle" figma:type="rounded-rectangle">
<use xlink:href="#path0_fill" transform="translate(-330 -310)" fill="#C4C4C4"/>
</g>
<g id="Jim Thorpe" figma:type="text">
<use xlink:href="#path1_fill" transform="translate(-50 -231)"/>
</g>
<g id="Rectangle" figma:type="rounded-rectangle">
<use xlink:href="#path0_fill" transform="translate(-330 -41)" fill="#C4C4C4"/>
</g>
<g id="Boris Yeltsin" figma:type="text">
<use xlink:href="#path2_fill" transform="translate(-67 37)"/>
</g>
<g id="Rectangle" figma:type="rounded-rectangle">
<use xlink:href="#path0_fill" transform="translate(-330 228)" fill="#C4C4C4"/>
</g>
<g id="Horatio Alger" figma:type="text">
<use xlink:href="#path3_fill" transform="translate(-80 306)"/>
</g>
<g id="Rectangle" figma:type="rounded-rectangle">
<use xlink:href="#path0_fill" transform="translate(-330 788)" fill="#C4C4C4"/>
</g>
<g id="Ada Lovelace" figma:type="text">
<use xlink:href="#path4_fill" transform="translate(-86 865)"/>
</g>
<g id="Rectangle" figma:type="rounded-rectangle">
<use xlink:href="#path0_fill" transform="translate(-330 1057)" fill="#C4C4C4"/>
</g>
<g id="Dilma Rousseff" figma:type="text">
<use xlink:href="#path5_fill" transform="translate(-114 1134)"/>
</g>
<g id="Rectangle" figma:type="rounded-rectangle">
<use xlink:href="#path0_fill" transform="translate(-330 508)" fill="#C4C4C4"/>
</g>
<g id="Susanne" figma:type="text">
<use xlink:href="#path6_fill" transform="translate(-10 585)"/>
</g>
<g id="Rectangle" figma:type="rounded-rectangle">
<use xlink:href="#path0_fill" transform="translate(-333 1326)" fill="#C4C4C4"/>
</g>
<g id="Susanne" figma:type="text">
<use xlink:href="#path6_fill" transform="translate(-13 1403)"/>
</g>
<g id="Compare Each Element To &#226;&#128;&#156;Susanne&#226;&#128;&#157;" figma:type="text">
<use xlink:href="#path7_fill" transform="translate(719 -525)"/>
</g>
<g id="No Match" figma:type="text">
<use xlink:href="#path8_fill" transform="translate(1157 -231)" fill="#EB5757"/>
</g>
<g id="No Match" figma:type="text">
<use xlink:href="#path8_fill" transform="translate(1157 37)" fill="#EB5757"/>
</g>
<g id="No Match" figma:type="text">
<use xlink:href="#path8_fill" transform="translate(1157 305)" fill="#EB5757"/>
</g>
<g id="No Match" figma:type="text">
<use xlink:href="#path8_fill" transform="translate(1157 865)" fill="#EB5757"/>
</g>
<g id="No Match" figma:type="text">
<use xlink:href="#path8_fill" transform="translate(1157 1134)" fill="#EB5757"/>
</g>
<g id="Match" figma:type="text">
<use xlink:href="#path9_fill" transform="translate(1212 585)" fill="#6FCF97"/>
</g>
<g id="Match" figma:type="text">
<use xlink:href="#path9_fill" transform="translate(1212 1395)" fill="#6FCF97"/>
</g>
</g>
<defs>
<path id="path0_fill" d="M 0 0L 923 0L 923 242L 0 242L 0 0Z"/>
<path id="path1_fill" d="M 27.3867 15.8125L 34.1719 15.8125L 34.1719 52.0586C 34.1719 56.957 32.6953 60.7891 29.7422 63.5547C 26.8125 66.3203 22.8984 67.7031 18 67.7031C 12.9141 67.7031 8.95313 66.4023 6.11719 63.8008C 3.28125 61.1992 1.86328 57.5547 1.86328 52.8672L 8.61328 52.8672C 8.61328 55.7969 9.41016 58.082 11.0039 59.7227C 12.6211 61.3633 14.9531 62.1836 18 62.1836C 20.7891 62.1836 23.0391 61.3047 24.75 59.5469C 26.4844 57.7891 27.3633 55.3281 27.3867 52.1641L 27.3867 15.8125ZM 51.7148 67L 45.2109 67L 45.2109 28.9609L 51.7148 28.9609L 51.7148 67ZM 44.6836 18.8711C 44.6836 17.8164 45 16.9258 45.6328 16.1992C 46.2891 15.4727 47.25 15.1094 48.5156 15.1094C 49.7812 15.1094 50.7422 15.4727 51.3984 16.1992C 52.0547 16.9258 52.3828 17.8164 52.3828 18.8711C 52.3828 19.9258 52.0547 20.8047 51.3984 21.5078C 50.7422 22.2109 49.7812 22.5625 48.5156 22.5625C 47.25 22.5625 46.2891 22.2109 45.6328 21.5078C 45 20.8047 44.6836 19.9258 44.6836 18.8711ZM 68.2734 28.9609L 68.4492 33.1797C 71.2383 29.8984 75 28.2578 79.7344 28.2578C 85.0547 28.2578 88.6758 30.2969 90.5977 34.375C 91.8633 32.5469 93.5039 31.0703 95.5195 29.9453C 97.5586 28.8203 99.9609 28.2578 102.727 28.2578C 111.07 28.2578 115.312 32.6758 115.453 41.5117L 115.453 67L 108.949 67L 108.949 41.8984C 108.949 39.1797 108.328 37.1523 107.086 35.8164C 105.844 34.457 103.758 33.7773 100.828 33.7773C 98.4141 33.7773 96.4102 34.5039 94.8164 35.957C 93.2227 37.3867 92.2969 39.3203 92.0391 41.7578L 92.0391 67L 85.5 67L 85.5 42.0742C 85.5 36.543 82.793 33.7773 77.3789 33.7773C 73.1133 33.7773 70.1953 35.5938 68.625 39.2266L 68.625 67L 62.1211 67L 62.1211 28.9609L 68.2734 28.9609ZM 178.137 21.3672L 161.684 21.3672L 161.684 67L 154.969 67L 154.969 21.3672L 138.551 21.3672L 138.551 15.8125L 178.137 15.8125L 178.137 21.3672ZM 191.215 33.5664C 194.098 30.0273 197.848 28.2578 202.465 28.2578C 210.504 28.2578 214.559 32.793 214.629 41.8633L 214.629 67L 208.125 67L 208.125 41.8281C 208.102 39.0859 207.469 37.0586 206.227 35.7461C 205.008 34.4336 203.098 33.7773 200.496 33.7773C 198.387 33.7773 196.535 34.3398 194.941 35.4648C 193.348 36.5898 192.105 38.0664 191.215 39.8945L 191.215 67L 184.711 67L 184.711 13L 191.215 13L 191.215 33.5664ZM 222.645 47.6289C 222.645 43.9023 223.371 40.5508 224.824 37.5742C 226.301 34.5977 228.34 32.3008 230.941 30.6836C 233.566 29.0664 236.555 28.2578 239.906 28.2578C 245.086 28.2578 249.27 30.0508 252.457 33.6367C 255.668 37.2227 257.273 41.9922 257.273 47.9453L 257.273 48.4023C 257.273 52.1055 256.559 55.4336 255.129 58.3867C 253.723 61.3164 251.695 63.6016 249.047 65.2422C 246.422 66.8828 243.398 67.7031 239.977 67.7031C 234.82 67.7031 230.637 65.9102 227.426 62.3242C 224.238 58.7383 222.645 53.9922 222.645 48.0859L 222.645 47.6289ZM 229.184 48.4023C 229.184 52.6211 230.156 56.0078 232.102 58.5625C 234.07 61.1172 236.695 62.3945 239.977 62.3945C 243.281 62.3945 245.906 61.1055 247.852 58.5273C 249.797 55.9258 250.77 52.293 250.77 47.6289C 250.77 43.457 249.773 40.082 247.781 37.5039C 245.812 34.9023 243.187 33.6016 239.906 33.6016C 236.695 33.6016 234.105 34.8789 232.137 37.4336C 230.168 39.9883 229.184 43.6445 229.184 48.4023ZM 283.816 34.7969C 282.832 34.6328 281.766 34.5508 280.617 34.5508C 276.352 34.5508 273.457 36.3672 271.934 40L 271.934 67L 265.43 67L 265.43 28.9609L 271.758 28.9609L 271.863 33.3555C 273.996 29.957 277.02 28.2578 280.934 28.2578C 282.199 28.2578 283.16 28.4219 283.816 28.75L 283.816 34.7969ZM 321.961 48.4023C 321.961 54.1914 320.637 58.8555 317.988 62.3945C 315.34 65.9336 311.754 67.7031 307.23 67.7031C 302.613 67.7031 298.98 66.2383 296.332 63.3086L 296.332 81.625L 289.828 81.625L 289.828 28.9609L 295.77 28.9609L 296.086 33.1797C 298.734 29.8984 302.414 28.2578 307.125 28.2578C 311.695 28.2578 315.305 29.9805 317.953 33.4258C 320.625 36.8711 321.961 41.6641 321.961 47.8047L 321.961 48.4023ZM 315.457 47.6641C 315.457 43.375 314.543 39.9883 312.715 37.5039C 310.887 35.0195 308.379 33.7773 305.191 33.7773C 301.254 33.7773 298.301 35.5234 296.332 39.0156L 296.332 57.1914C 298.277 60.6602 301.254 62.3945 305.262 62.3945C 308.379 62.3945 310.852 61.1641 312.68 58.7031C 314.531 56.2188 315.457 52.5391 315.457 47.6641ZM 346.043 67.7031C 340.887 67.7031 336.691 66.0156 333.457 62.6406C 330.223 59.2422 328.605 54.707 328.605 49.0352L 328.605 47.8398C 328.605 44.0664 329.32 40.7031 330.75 37.75C 332.203 34.7734 334.219 32.4531 336.797 30.7891C 339.398 29.1016 342.211 28.2578 345.234 28.2578C 350.18 28.2578 354.023 29.8867 356.766 33.1445C 359.508 36.4023 360.879 41.0664 360.879 47.1367L 360.879 49.8438L 335.109 49.8438C 335.203 53.5937 336.293 56.6289 338.379 58.9492C 340.488 61.2461 343.16 62.3945 346.395 62.3945C 348.691 62.3945 350.637 61.9258 352.23 60.9883C 353.824 60.0508 355.219 58.8086 356.414 57.2617L 360.387 60.3555C 357.199 65.2539 352.418 67.7031 346.043 67.7031ZM 345.234 33.6016C 342.609 33.6016 340.406 34.5625 338.625 36.4844C 336.844 38.3828 335.742 41.0547 335.32 44.5L 354.375 44.5L 354.375 44.0078C 354.188 40.7031 353.297 38.1484 351.703 36.3438C 350.109 34.5156 347.953 33.6016 345.234 33.6016Z"/>
<path id="path2_fill" d="M 5.94141 67L 5.94141 15.8125L 22.6758 15.8125C 28.2305 15.8125 32.4023 16.9609 35.1914 19.2578C 38.0039 21.5547 39.4102 24.9531 39.4102 29.4531C 39.4102 31.8438 38.7305 33.9648 37.3711 35.8164C 36.0117 37.6445 34.1602 39.0625 31.8164 40.0703C 34.582 40.8438 36.7617 42.3203 38.3555 44.5C 39.9727 46.6562 40.7812 49.2344 40.7812 52.2344C 40.7812 56.8281 39.293 60.4375 36.3164 63.0625C 33.3398 65.6875 29.1328 67 23.6953 67L 5.94141 67ZM 12.6914 43.0586L 12.6914 61.4805L 23.8359 61.4805C 26.9766 61.4805 29.4492 60.6719 31.2539 59.0547C 33.082 57.4141 33.9961 55.1641 33.9961 52.3047C 33.9961 46.1406 30.6445 43.0586 23.9414 43.0586L 12.6914 43.0586ZM 12.6914 37.6445L 22.8867 37.6445C 25.8398 37.6445 28.1953 36.9062 29.9531 35.4297C 31.7344 33.9531 32.625 31.9492 32.625 29.418C 32.625 26.6055 31.8047 24.5664 30.1641 23.3008C 28.5234 22.0117 26.0273 21.3672 22.6758 21.3672L 12.6914 21.3672L 12.6914 37.6445ZM 48.0586 47.6289C 48.0586 43.9023 48.7852 40.5508 50.2383 37.5742C 51.7148 34.5977 53.7539 32.3008 56.3555 30.6836C 58.9805 29.0664 61.9687 28.2578 65.3203 28.2578C 70.5 28.2578 74.6836 30.0508 77.8711 33.6367C 81.082 37.2227 82.6875 41.9922 82.6875 47.9453L 82.6875 48.4023C 82.6875 52.1055 81.9727 55.4336 80.543 58.3867C 79.1367 61.3164 77.1094 63.6016 74.4609 65.2422C 71.8359 66.8828 68.8125 67.7031 65.3906 67.7031C 60.2344 67.7031 56.0508 65.9102 52.8398 62.3242C 49.6523 58.7383 48.0586 53.9922 48.0586 48.0859L 48.0586 47.6289ZM 54.5977 48.4023C 54.5977 52.6211 55.5703 56.0078 57.5156 58.5625C 59.4844 61.1172 62.1094 62.3945 65.3906 62.3945C 68.6953 62.3945 71.3203 61.1055 73.2656 58.5273C 75.2109 55.9258 76.1836 52.293 76.1836 47.6289C 76.1836 43.457 75.1875 40.082 73.1953 37.5039C 71.2266 34.9023 68.6016 33.6016 65.3203 33.6016C 62.1094 33.6016 59.5195 34.8789 57.5508 37.4336C 55.582 39.9883 54.5977 43.6445 54.5977 48.4023ZM 109.23 34.7969C 108.246 34.6328 107.18 34.5508 106.031 34.5508C 101.766 34.5508 98.8711 36.3672 97.3477 40L 97.3477 67L 90.8438 67L 90.8438 28.9609L 97.1719 28.9609L 97.2773 33.3555C 99.4102 29.957 102.434 28.2578 106.348 28.2578C 107.613 28.2578 108.574 28.4219 109.23 28.75L 109.23 34.7969ZM 122.309 67L 115.805 67L 115.805 28.9609L 122.309 28.9609L 122.309 67ZM 115.277 18.8711C 115.277 17.8164 115.594 16.9258 116.227 16.1992C 116.883 15.4727 117.844 15.1094 119.109 15.1094C 120.375 15.1094 121.336 15.4727 121.992 16.1992C 122.648 16.9258 122.977 17.8164 122.977 18.8711C 122.977 19.9258 122.648 20.8047 121.992 21.5078C 121.336 22.2109 120.375 22.5625 119.109 22.5625C 117.844 22.5625 116.883 22.2109 116.227 21.5078C 115.594 20.8047 115.277 19.9258 115.277 18.8711ZM 154.898 56.9102C 154.898 55.1523 154.23 53.793 152.895 52.832C 151.582 51.8477 149.273 51.0039 145.969 50.3008C 142.687 49.5977 140.074 48.7539 138.129 47.7695C 136.207 46.7852 134.777 45.6133 133.84 44.2539C 132.926 42.8945 132.469 41.2773 132.469 39.4023C 132.469 36.2852 133.781 33.6484 136.406 31.4922C 139.055 29.3359 142.43 28.2578 146.531 28.2578C 150.844 28.2578 154.336 29.3711 157.008 31.5977C 159.703 33.8242 161.051 36.6719 161.051 40.1406L 154.512 40.1406C 154.512 38.3594 153.75 36.8242 152.227 35.5352C 150.727 34.2461 148.828 33.6016 146.531 33.6016C 144.164 33.6016 142.312 34.1172 140.977 35.1484C 139.641 36.1797 138.973 37.5273 138.973 39.1914C 138.973 40.7617 139.594 41.9453 140.836 42.7422C 142.078 43.5391 144.316 44.3008 147.551 45.0273C 150.809 45.7539 153.445 46.6211 155.461 47.6289C 157.477 48.6367 158.965 49.8555 159.926 51.2852C 160.91 52.6914 161.402 54.4141 161.402 56.4531C 161.402 59.8516 160.043 62.582 157.324 64.6445C 154.605 66.6836 151.078 67.7031 146.742 67.7031C 143.695 67.7031 141 67.1641 138.656 66.0859C 136.312 65.0078 134.473 63.5078 133.137 61.5859C 131.824 59.6406 131.168 57.543 131.168 55.293L 137.672 55.293C 137.789 57.4727 138.656 59.207 140.273 60.4961C 141.914 61.7617 144.07 62.3945 146.742 62.3945C 149.203 62.3945 151.172 61.9023 152.648 60.918C 154.148 59.9102 154.898 58.5742 154.898 56.9102ZM 204.363 41.5117L 217.723 15.8125L 225.387 15.8125L 207.738 47.9102L 207.738 67L 200.988 67L 200.988 47.9102L 183.34 15.8125L 191.074 15.8125L 204.363 41.5117ZM 244.441 67.7031C 239.285 67.7031 235.09 66.0156 231.855 62.6406C 228.621 59.2422 227.004 54.707 227.004 49.0352L 227.004 47.8398C 227.004 44.0664 227.719 40.7031 229.148 37.75C 230.602 34.7734 232.617 32.4531 235.195 30.7891C 237.797 29.1016 240.609 28.2578 243.633 28.2578C 248.578 28.2578 252.422 29.8867 255.164 33.1445C 257.906 36.4023 259.277 41.0664 259.277 47.1367L 259.277 49.8438L 233.508 49.8438C 233.602 53.5937 234.691 56.6289 236.777 58.9492C 238.887 61.2461 241.559 62.3945 244.793 62.3945C 247.09 62.3945 249.035 61.9258 250.629 60.9883C 252.223 60.0508 253.617 58.8086 254.812 57.2617L 258.785 60.3555C 255.598 65.2539 250.816 67.7031 244.441 67.7031ZM 243.633 33.6016C 241.008 33.6016 238.805 34.5625 237.023 36.4844C 235.242 38.3828 234.141 41.0547 233.719 44.5L 252.773 44.5L 252.773 44.0078C 252.586 40.7031 251.695 38.1484 250.102 36.3438C 248.508 34.5156 246.352 33.6016 243.633 33.6016ZM 273.902 67L 267.398 67L 267.398 13L 273.902 13L 273.902 67ZM 293.168 19.75L 293.168 28.9609L 300.27 28.9609L 300.27 33.9883L 293.168 33.9883L 293.168 57.5781C 293.168 59.1016 293.484 60.25 294.117 61.0234C 294.75 61.7734 295.828 62.1484 297.352 62.1484C 298.102 62.1484 299.133 62.0078 300.445 61.7266L 300.445 67C 298.734 67.4687 297.07 67.7031 295.453 67.7031C 292.547 67.7031 290.355 66.8242 288.879 65.0664C 287.402 63.3086 286.664 60.8125 286.664 57.5781L 286.664 33.9883L 279.738 33.9883L 279.738 28.9609L 286.664 28.9609L 286.664 19.75L 293.168 19.75ZM 330.047 56.9102C 330.047 55.1523 329.379 53.793 328.043 52.832C 326.73 51.8477 324.422 51.0039 321.117 50.3008C 317.836 49.5977 315.223 48.7539 313.277 47.7695C 311.355 46.7852 309.926 45.6133 308.988 44.2539C 308.074 42.8945 307.617 41.2773 307.617 39.4023C 307.617 36.2852 308.93 33.6484 311.555 31.4922C 314.203 29.3359 317.578 28.2578 321.68 28.2578C 325.992 28.2578 329.484 29.3711 332.156 31.5977C 334.852 33.8242 336.199 36.6719 336.199 40.1406L 329.66 40.1406C 329.66 38.3594 328.898 36.8242 327.375 35.5352C 325.875 34.2461 323.977 33.6016 321.68 33.6016C 319.312 33.6016 317.461 34.1172 316.125 35.1484C 314.789 36.1797 314.121 37.5273 314.121 39.1914C 314.121 40.7617 314.742 41.9453 315.984 42.7422C 317.227 43.5391 319.465 44.3008 322.699 45.0273C 325.957 45.7539 328.594 46.6211 330.609 47.6289C 332.625 48.6367 334.113 49.8555 335.074 51.2852C 336.059 52.6914 336.551 54.4141 336.551 56.4531C 336.551 59.8516 335.191 62.582 332.473 64.6445C 329.754 66.6836 326.227 67.7031 321.891 67.7031C 318.844 67.7031 316.148 67.1641 313.805 66.0859C 311.461 65.0078 309.621 63.5078 308.285 61.5859C 306.973 59.6406 306.316 57.543 306.316 55.293L 312.82 55.293C 312.938 57.4727 313.805 59.207 315.422 60.4961C 317.062 61.7617 319.219 62.3945 321.891 62.3945C 324.352 62.3945 326.32 61.9023 327.797 60.918C 329.297 59.9102 330.047 58.5742 330.047 56.9102ZM 352.09 67L 345.586 67L 345.586 28.9609L 352.09 28.9609L 352.09 67ZM 345.059 18.8711C 345.059 17.8164 345.375 16.9258 346.008 16.1992C 346.664 15.4727 347.625 15.1094 348.891 15.1094C 350.156 15.1094 351.117 15.4727 351.773 16.1992C 352.43 16.9258 352.758 17.8164 352.758 18.8711C 352.758 19.9258 352.43 20.8047 351.773 21.5078C 351.117 22.2109 350.156 22.5625 348.891 22.5625C 347.625 22.5625 346.664 22.2109 346.008 21.5078C 345.375 20.8047 345.059 19.9258 345.059 18.8711ZM 368.684 28.9609L 368.895 33.7422C 371.801 30.0859 375.598 28.2578 380.285 28.2578C 388.324 28.2578 392.379 32.793 392.449 41.8633L 392.449 67L 385.945 67L 385.945 41.8281C 385.922 39.0859 385.289 37.0586 384.047 35.7461C 382.828 34.4336 380.918 33.7773 378.316 33.7773C 376.207 33.7773 374.355 34.3398 372.762 35.4648C 371.168 36.5898 369.926 38.0664 369.035 39.8945L 369.035 67L 362.531 67L 362.531 28.9609L 368.684 28.9609Z"/>
<path id="path3_fill" d="M 45.2812 67L 38.4961 67L 38.4961 43.3398L 12.6914 43.3398L 12.6914 67L 5.94141 67L 5.94141 15.8125L 12.6914 15.8125L 12.6914 37.8203L 38.4961 37.8203L 38.4961 15.8125L 45.2812 15.8125L 45.2812 67ZM 54.5273 47.6289C 54.5273 43.9023 55.2539 40.5508 56.707 37.5742C 58.1836 34.5977 60.2227 32.3008 62.8242 30.6836C 65.4492 29.0664 68.4375 28.2578 71.7891 28.2578C 76.9687 28.2578 81.1523 30.0508 84.3398 33.6367C 87.5508 37.2227 89.1562 41.9922 89.1562 47.9453L 89.1562 48.4023C 89.1562 52.1055 88.4414 55.4336 87.0117 58.3867C 85.6055 61.3164 83.5781 63.6016 80.9297 65.2422C 78.3047 66.8828 75.2812 67.7031 71.8594 67.7031C 66.7031 67.7031 62.5195 65.9102 59.3086 62.3242C 56.1211 58.7383 54.5273 53.9922 54.5273 48.0859L 54.5273 47.6289ZM 61.0664 48.4023C 61.0664 52.6211 62.0391 56.0078 63.9844 58.5625C 65.9531 61.1172 68.5781 62.3945 71.8594 62.3945C 75.1641 62.3945 77.7891 61.1055 79.7344 58.5273C 81.6797 55.9258 82.6523 52.293 82.6523 47.6289C 82.6523 43.457 81.6563 40.082 79.6641 37.5039C 77.6953 34.9023 75.0703 33.6016 71.7891 33.6016C 68.5781 33.6016 65.9883 34.8789 64.0195 37.4336C 62.0508 39.9883 61.0664 43.6445 61.0664 48.4023ZM 115.699 34.7969C 114.715 34.6328 113.648 34.5508 112.5 34.5508C 108.234 34.5508 105.34 36.3672 103.816 40L 103.816 67L 97.3125 67L 97.3125 28.9609L 103.641 28.9609L 103.746 33.3555C 105.879 29.957 108.902 28.2578 112.816 28.2578C 114.082 28.2578 115.043 28.4219 115.699 28.75L 115.699 34.7969ZM 143.789 67C 143.414 66.25 143.109 64.9141 142.875 62.9922C 139.852 66.1328 136.242 67.7031 132.047 67.7031C 128.297 67.7031 125.215 66.6484 122.801 64.5391C 120.41 62.4062 119.215 59.7109 119.215 56.4531C 119.215 52.4922 120.715 49.4219 123.715 47.2422C 126.738 45.0391 130.98 43.9375 136.441 43.9375L 142.77 43.9375L 142.77 40.9492C 142.77 38.6758 142.09 36.8711 140.73 35.5352C 139.371 34.1758 137.367 33.4961 134.719 33.4961C 132.398 33.4961 130.453 34.082 128.883 35.2539C 127.313 36.4258 126.527 37.8438 126.527 39.5078L 119.988 39.5078C 119.988 37.6094 120.656 35.7812 121.992 34.0234C 123.352 32.2422 125.18 30.8359 127.477 29.8047C 129.797 28.7734 132.34 28.2578 135.105 28.2578C 139.488 28.2578 142.922 29.3594 145.406 31.5625C 147.891 33.7422 149.18 36.7539 149.273 40.5977L 149.273 58.1055C 149.273 61.5977 149.719 64.375 150.609 66.4375L 150.609 67L 143.789 67ZM 132.996 62.043C 135.035 62.043 136.969 61.5156 138.797 60.4609C 140.625 59.4062 141.949 58.0352 142.77 56.3477L 142.77 48.543L 137.672 48.543C 129.703 48.543 125.719 50.875 125.719 55.5391C 125.719 57.5781 126.398 59.1719 127.758 60.3203C 129.117 61.4688 130.863 62.043 132.996 62.043ZM 168.293 19.75L 168.293 28.9609L 175.395 28.9609L 175.395 33.9883L 168.293 33.9883L 168.293 57.5781C 168.293 59.1016 168.609 60.25 169.242 61.0234C 169.875 61.7734 170.953 62.1484 172.477 62.1484C 173.227 62.1484 174.258 62.0078 175.57 61.7266L 175.57 67C 173.859 67.4687 172.195 67.7031 170.578 67.7031C 167.672 67.7031 165.48 66.8242 164.004 65.0664C 162.527 63.3086 161.789 60.8125 161.789 57.5781L 161.789 33.9883L 154.863 33.9883L 154.863 28.9609L 161.789 28.9609L 161.789 19.75L 168.293 19.75ZM 190.09 67L 183.586 67L 183.586 28.9609L 190.09 28.9609L 190.09 67ZM 183.059 18.8711C 183.059 17.8164 183.375 16.9258 184.008 16.1992C 184.664 15.4727 185.625 15.1094 186.891 15.1094C 188.156 15.1094 189.117 15.4727 189.773 16.1992C 190.43 16.9258 190.758 17.8164 190.758 18.8711C 190.758 19.9258 190.43 20.8047 189.773 21.5078C 189.117 22.2109 188.156 22.5625 186.891 22.5625C 185.625 22.5625 184.664 22.2109 184.008 21.5078C 183.375 20.8047 183.059 19.9258 183.059 18.8711ZM 198.809 47.6289C 198.809 43.9023 199.535 40.5508 200.988 37.5742C 202.465 34.5977 204.504 32.3008 207.105 30.6836C 209.73 29.0664 212.719 28.2578 216.07 28.2578C 221.25 28.2578 225.434 30.0508 228.621 33.6367C 231.832 37.2227 233.438 41.9922 233.438 47.9453L 233.438 48.4023C 233.438 52.1055 232.723 55.4336 231.293 58.3867C 229.887 61.3164 227.859 63.6016 225.211 65.2422C 222.586 66.8828 219.562 67.7031 216.141 67.7031C 210.984 67.7031 206.801 65.9102 203.59 62.3242C 200.402 58.7383 198.809 53.9922 198.809 48.0859L 198.809 47.6289ZM 205.348 48.4023C 205.348 52.6211 206.32 56.0078 208.266 58.5625C 210.234 61.1172 212.859 62.3945 216.141 62.3945C 219.445 62.3945 222.07 61.1055 224.016 58.5273C 225.961 55.9258 226.934 52.293 226.934 47.6289C 226.934 43.457 225.938 40.082 223.945 37.5039C 221.977 34.9023 219.352 33.6016 216.07 33.6016C 212.859 33.6016 210.27 34.8789 208.301 37.4336C 206.332 39.9883 205.348 43.6445 205.348 48.4023ZM 288.738 53.6406L 267.293 53.6406L 262.477 67L 255.516 67L 275.062 15.8125L 280.969 15.8125L 300.551 67L 293.625 67L 288.738 53.6406ZM 269.332 48.0859L 286.734 48.0859L 278.016 24.1445L 269.332 48.0859ZM 313.488 67L 306.984 67L 306.984 13L 313.488 13L 313.488 67ZM 322.383 47.6641C 322.383 41.7344 323.754 37.0234 326.496 33.5312C 329.238 30.0156 332.871 28.2578 337.395 28.2578C 342.035 28.2578 345.656 29.8984 348.258 33.1797L 348.574 28.9609L 354.516 28.9609L 354.516 66.0859C 354.516 71.0078 353.051 74.8867 350.121 77.7227C 347.215 80.5586 343.301 81.9766 338.379 81.9766C 335.637 81.9766 332.953 81.3906 330.328 80.2188C 327.703 79.0469 325.699 77.4414 324.316 75.4023L 327.691 71.5C 330.48 74.9453 333.891 76.668 337.922 76.668C 341.086 76.668 343.547 75.7773 345.305 73.9961C 347.086 72.2148 347.977 69.707 347.977 66.4727L 347.977 63.2031C 345.375 66.2031 341.824 67.7031 337.324 67.7031C 332.871 67.7031 329.262 65.9102 326.496 62.3242C 323.754 58.7383 322.383 53.8516 322.383 47.6641ZM 328.922 48.4023C 328.922 52.6914 329.801 56.0664 331.559 58.5273C 333.316 60.9648 335.777 62.1836 338.941 62.1836C 343.043 62.1836 346.055 60.3203 347.977 56.5938L 347.977 39.2266C 345.984 35.5938 342.996 33.7773 339.012 33.7773C 335.848 33.7773 333.375 35.0078 331.594 37.4688C 329.813 39.9297 328.922 43.5742 328.922 48.4023ZM 380.145 67.7031C 374.988 67.7031 370.793 66.0156 367.559 62.6406C 364.324 59.2422 362.707 54.707 362.707 49.0352L 362.707 47.8398C 362.707 44.0664 363.422 40.7031 364.852 37.75C 366.305 34.7734 368.32 32.4531 370.898 30.7891C 373.5 29.1016 376.312 28.2578 379.336 28.2578C 384.281 28.2578 388.125 29.8867 390.867 33.1445C 393.609 36.4023 394.98 41.0664 394.98 47.1367L 394.98 49.8438L 369.211 49.8438C 369.305 53.5937 370.395 56.6289 372.48 58.9492C 374.59 61.2461 377.262 62.3945 380.496 62.3945C 382.793 62.3945 384.738 61.9258 386.332 60.9883C 387.926 60.0508 389.32 58.8086 390.516 57.2617L 394.488 60.3555C 391.301 65.2539 386.52 67.7031 380.145 67.7031ZM 379.336 33.6016C 376.711 33.6016 374.508 34.5625 372.727 36.4844C 370.945 38.3828 369.844 41.0547 369.422 44.5L 388.477 44.5L 388.477 44.0078C 388.289 40.7031 387.398 38.1484 385.805 36.3438C 384.211 34.5156 382.055 33.6016 379.336 33.6016ZM 420.926 34.7969C 419.941 34.6328 418.875 34.5508 417.727 34.5508C 413.461 34.5508 410.566 36.3672 409.043 40L 409.043 67L 402.539 67L 402.539 28.9609L 408.867 28.9609L 408.973 33.3555C 411.105 29.957 414.129 28.2578 418.043 28.2578C 419.309 28.2578 420.27 28.4219 420.926 28.75L 420.926 34.7969Z"/>
<path id="path4_fill" d="M 34.207 53.6406L 12.7617 53.6406L 7.94531 67L 0.984375 67L 20.5312 15.8125L 26.4375 15.8125L 46.0195 67L 39.0938 67L 34.207 53.6406ZM 14.8008 48.0859L 32.2031 48.0859L 23.4844 24.1445L 14.8008 48.0859ZM 50.3086 47.6641C 50.3086 41.8281 51.6914 37.1406 54.457 33.6016C 57.2227 30.0391 60.8437 28.2578 65.3203 28.2578C 69.7734 28.2578 73.3008 29.7813 75.9023 32.8281L 75.9023 13L 82.4062 13L 82.4062 67L 76.4297 67L 76.1133 62.9219C 73.5117 66.1094 69.8906 67.7031 65.25 67.7031C 60.8437 67.7031 57.2461 65.8984 54.457 62.2891C 51.6914 58.6797 50.3086 53.9688 50.3086 48.1562L 50.3086 47.6641ZM 56.8125 48.4023C 56.8125 52.7148 57.7031 56.0898 59.4844 58.5273C 61.2656 60.9648 63.7266 62.1836 66.8672 62.1836C 70.9922 62.1836 74.0039 60.332 75.9023 56.6289L 75.9023 39.1562C 73.957 35.5703 70.9688 33.7773 66.9375 33.7773C 63.75 33.7773 61.2656 35.0078 59.4844 37.4688C 57.7031 39.9297 56.8125 43.5742 56.8125 48.4023ZM 116.016 67C 115.641 66.25 115.336 64.9141 115.102 62.9922C 112.078 66.1328 108.469 67.7031 104.273 67.7031C 100.523 67.7031 97.4414 66.6484 95.0273 64.5391C 92.6367 62.4062 91.4414 59.7109 91.4414 56.4531C 91.4414 52.4922 92.9414 49.4219 95.9414 47.2422C 98.9648 45.0391 103.207 43.9375 108.668 43.9375L 114.996 43.9375L 114.996 40.9492C 114.996 38.6758 114.316 36.8711 112.957 35.5352C 111.598 34.1758 109.594 33.4961 106.945 33.4961C 104.625 33.4961 102.68 34.082 101.109 35.2539C 99.5391 36.4258 98.7539 37.8438 98.7539 39.5078L 92.2148 39.5078C 92.2148 37.6094 92.8828 35.7812 94.2188 34.0234C 95.5781 32.2422 97.4062 30.8359 99.7031 29.8047C 102.023 28.7734 104.566 28.2578 107.332 28.2578C 111.715 28.2578 115.148 29.3594 117.633 31.5625C 120.117 33.7422 121.406 36.7539 121.5 40.5977L 121.5 58.1055C 121.5 61.5977 121.945 64.375 122.836 66.4375L 122.836 67L 116.016 67ZM 105.223 62.043C 107.262 62.043 109.195 61.5156 111.023 60.4609C 112.852 59.4062 114.176 58.0352 114.996 56.3477L 114.996 48.543L 109.898 48.543C 101.93 48.543 97.9453 50.875 97.9453 55.5391C 97.9453 57.5781 98.625 59.1719 99.9844 60.3203C 101.344 61.4688 103.09 62.043 105.223 62.043ZM 157.359 61.4805L 181.617 61.4805L 181.617 67L 150.574 67L 150.574 15.8125L 157.359 15.8125L 157.359 61.4805ZM 186.574 47.6289C 186.574 43.9023 187.301 40.5508 188.754 37.5742C 190.23 34.5977 192.27 32.3008 194.871 30.6836C 197.496 29.0664 200.484 28.2578 203.836 28.2578C 209.016 28.2578 213.199 30.0508 216.387 33.6367C 219.598 37.2227 221.203 41.9922 221.203 47.9453L 221.203 48.4023C 221.203 52.1055 220.488 55.4336 219.059 58.3867C 217.652 61.3164 215.625 63.6016 212.977 65.2422C 210.352 66.8828 207.328 67.7031 203.906 67.7031C 198.75 67.7031 194.566 65.9102 191.355 62.3242C 188.168 58.7383 186.574 53.9922 186.574 48.0859L 186.574 47.6289ZM 193.113 48.4023C 193.113 52.6211 194.086 56.0078 196.031 58.5625C 198 61.1172 200.625 62.3945 203.906 62.3945C 207.211 62.3945 209.836 61.1055 211.781 58.5273C 213.727 55.9258 214.699 52.293 214.699 47.6289C 214.699 43.457 213.703 40.082 211.711 37.5039C 209.742 34.9023 207.117 33.6016 203.836 33.6016C 200.625 33.6016 198.035 34.8789 196.066 37.4336C 194.098 39.9883 193.113 43.6445 193.113 48.4023ZM 241.348 58.1758L 250.77 28.9609L 257.414 28.9609L 243.773 67L 238.816 67L 225.035 28.9609L 231.68 28.9609L 241.348 58.1758ZM 278.965 67.7031C 273.809 67.7031 269.613 66.0156 266.379 62.6406C 263.145 59.2422 261.527 54.707 261.527 49.0352L 261.527 47.8398C 261.527 44.0664 262.242 40.7031 263.672 37.75C 265.125 34.7734 267.141 32.4531 269.719 30.7891C 272.32 29.1016 275.133 28.2578 278.156 28.2578C 283.102 28.2578 286.945 29.8867 289.688 33.1445C 292.43 36.4023 293.801 41.0664 293.801 47.1367L 293.801 49.8438L 268.031 49.8438C 268.125 53.5937 269.215 56.6289 271.301 58.9492C 273.41 61.2461 276.082 62.3945 279.316 62.3945C 281.613 62.3945 283.559 61.9258 285.152 60.9883C 286.746 60.0508 288.141 58.8086 289.336 57.2617L 293.309 60.3555C 290.121 65.2539 285.34 67.7031 278.965 67.7031ZM 278.156 33.6016C 275.531 33.6016 273.328 34.5625 271.547 36.4844C 269.766 38.3828 268.664 41.0547 268.242 44.5L 287.297 44.5L 287.297 44.0078C 287.109 40.7031 286.219 38.1484 284.625 36.3438C 283.031 34.5156 280.875 33.6016 278.156 33.6016ZM 308.426 67L 301.922 67L 301.922 13L 308.426 13L 308.426 67ZM 342.352 67C 341.977 66.25 341.672 64.9141 341.438 62.9922C 338.414 66.1328 334.805 67.7031 330.609 67.7031C 326.859 67.7031 323.777 66.6484 321.363 64.5391C 318.973 62.4062 317.777 59.7109 317.777 56.4531C 317.777 52.4922 319.277 49.4219 322.277 47.2422C 325.301 45.0391 329.543 43.9375 335.004 43.9375L 341.332 43.9375L 341.332 40.9492C 341.332 38.6758 340.652 36.8711 339.293 35.5352C 337.934 34.1758 335.93 33.4961 333.281 33.4961C 330.961 33.4961 329.016 34.082 327.445 35.2539C 325.875 36.4258 325.09 37.8438 325.09 39.5078L 318.551 39.5078C 318.551 37.6094 319.219 35.7812 320.555 34.0234C 321.914 32.2422 323.742 30.8359 326.039 29.8047C 328.359 28.7734 330.902 28.2578 333.668 28.2578C 338.051 28.2578 341.484 29.3594 343.969 31.5625C 346.453 33.7422 347.742 36.7539 347.836 40.5977L 347.836 58.1055C 347.836 61.5977 348.281 64.375 349.172 66.4375L 349.172 67L 342.352 67ZM 331.559 62.043C 333.598 62.043 335.531 61.5156 337.359 60.4609C 339.188 59.4062 340.512 58.0352 341.332 56.3477L 341.332 48.543L 336.234 48.543C 328.266 48.543 324.281 50.875 324.281 55.5391C 324.281 57.5781 324.961 59.1719 326.32 60.3203C 327.68 61.4688 329.426 62.043 331.559 62.043ZM 373.289 62.3945C 375.609 62.3945 377.637 61.6914 379.371 60.2852C 381.105 58.8789 382.066 57.1211 382.254 55.0117L 388.406 55.0117C 388.289 57.1914 387.539 59.2656 386.156 61.2344C 384.773 63.2031 382.922 64.7734 380.602 65.9453C 378.305 67.1172 375.867 67.7031 373.289 67.7031C 368.109 67.7031 363.984 65.9805 360.914 62.5352C 357.867 59.0664 356.344 54.332 356.344 48.332L 356.344 47.2422C 356.344 43.5391 357.023 40.2461 358.383 37.3633C 359.742 34.4805 361.688 32.2422 364.219 30.6484C 366.773 29.0547 369.785 28.2578 373.254 28.2578C 377.52 28.2578 381.059 29.5352 383.871 32.0898C 386.707 34.6445 388.219 37.9609 388.406 42.0391L 382.254 42.0391C 382.066 39.5781 381.129 37.5625 379.441 35.9922C 377.777 34.3984 375.715 33.6016 373.254 33.6016C 369.949 33.6016 367.383 34.7969 365.555 37.1875C 363.75 39.5547 362.848 42.9883 362.848 47.4883L 362.848 48.7188C 362.848 53.1016 363.75 56.4766 365.555 58.8438C 367.359 61.2109 369.937 62.3945 373.289 62.3945ZM 411.504 67.7031C 406.348 67.7031 402.152 66.0156 398.918 62.6406C 395.684 59.2422 394.066 54.707 394.066 49.0352L 394.066 47.8398C 394.066 44.0664 394.781 40.7031 396.211 37.75C 397.664 34.7734 399.68 32.4531 402.258 30.7891C 404.859 29.1016 407.672 28.2578 410.695 28.2578C 415.641 28.2578 419.484 29.8867 422.227 33.1445C 424.969 36.4023 426.34 41.0664 426.34 47.1367L 426.34 49.8438L 400.57 49.8438C 400.664 53.5937 401.754 56.6289 403.84 58.9492C 405.949 61.2461 408.621 62.3945 411.855 62.3945C 414.152 62.3945 416.098 61.9258 417.691 60.9883C 419.285 60.0508 420.68 58.8086 421.875 57.2617L 425.848 60.3555C 422.66 65.2539 417.879 67.7031 411.504 67.7031ZM 410.695 33.6016C 408.07 33.6016 405.867 34.5625 404.086 36.4844C 402.305 38.3828 401.203 41.0547 400.781 44.5L 419.836 44.5L 419.836 44.0078C 419.648 40.7031 418.758 38.1484 417.164 36.3438C 415.57 34.5156 413.414 33.6016 410.695 33.6016Z"/>
<path id="path5_fill" d="M 5.94141 67L 5.94141 15.8125L 20.3906 15.8125C 24.8438 15.8125 28.7813 16.7969 32.2031 18.7656C 35.625 20.7344 38.2617 23.5352 40.1133 27.168C 41.9883 30.8008 42.9375 34.9727 42.9609 39.6836L 42.9609 42.9531C 42.9609 47.7812 42.0234 52.0117 40.1484 55.6445C 38.2969 59.2773 35.6367 62.0664 32.168 64.0117C 28.7227 65.957 24.7031 66.9531 20.1094 67L 5.94141 67ZM 12.6914 21.3672L 12.6914 61.4805L 19.793 61.4805C 24.9961 61.4805 29.0391 59.8633 31.9219 56.6289C 34.8281 53.3945 36.2812 48.7891 36.2812 42.8125L 36.2812 39.8242C 36.2812 34.0117 34.9102 29.5 32.168 26.2891C 29.4492 23.0547 25.582 21.4141 20.5664 21.3672L 12.6914 21.3672ZM 59.2383 67L 52.7344 67L 52.7344 28.9609L 59.2383 28.9609L 59.2383 67ZM 52.207 18.8711C 52.207 17.8164 52.5234 16.9258 53.1562 16.1992C 53.8125 15.4727 54.7734 15.1094 56.0391 15.1094C 57.3047 15.1094 58.2656 15.4727 58.9219 16.1992C 59.5781 16.9258 59.9062 17.8164 59.9062 18.8711C 59.9062 19.9258 59.5781 20.8047 58.9219 21.5078C 58.2656 22.2109 57.3047 22.5625 56.0391 22.5625C 54.7734 22.5625 53.8125 22.2109 53.1562 21.5078C 52.5234 20.8047 52.207 19.9258 52.207 18.8711ZM 76.7461 67L 70.2422 67L 70.2422 13L 76.7461 13L 76.7461 67ZM 93.3047 28.9609L 93.4805 33.1797C 96.2695 29.8984 100.031 28.2578 104.766 28.2578C 110.086 28.2578 113.707 30.2969 115.629 34.375C 116.895 32.5469 118.535 31.0703 120.551 29.9453C 122.59 28.8203 124.992 28.2578 127.758 28.2578C 136.102 28.2578 140.344 32.6758 140.484 41.5117L 140.484 67L 133.98 67L 133.98 41.8984C 133.98 39.1797 133.359 37.1523 132.117 35.8164C 130.875 34.457 128.789 33.7773 125.859 33.7773C 123.445 33.7773 121.441 34.5039 119.848 35.957C 118.254 37.3867 117.328 39.3203 117.07 41.7578L 117.07 67L 110.531 67L 110.531 42.0742C 110.531 36.543 107.824 33.7773 102.41 33.7773C 98.1445 33.7773 95.2266 35.5938 93.6562 39.2266L 93.6562 67L 87.1523 67L 87.1523 28.9609L 93.3047 28.9609ZM 173.812 67C 173.437 66.25 173.133 64.9141 172.898 62.9922C 169.875 66.1328 166.266 67.7031 162.07 67.7031C 158.32 67.7031 155.238 66.6484 152.824 64.5391C 150.434 62.4062 149.238 59.7109 149.238 56.4531C 149.238 52.4922 150.738 49.4219 153.738 47.2422C 156.762 45.0391 161.004 43.9375 166.465 43.9375L 172.793 43.9375L 172.793 40.9492C 172.793 38.6758 172.113 36.8711 170.754 35.5352C 169.395 34.1758 167.391 33.4961 164.742 33.4961C 162.422 33.4961 160.477 34.082 158.906 35.2539C 157.336 36.4258 156.551 37.8438 156.551 39.5078L 150.012 39.5078C 150.012 37.6094 150.68 35.7812 152.016 34.0234C 153.375 32.2422 155.203 30.8359 157.5 29.8047C 159.82 28.7734 162.363 28.2578 165.129 28.2578C 169.512 28.2578 172.945 29.3594 175.43 31.5625C 177.914 33.7422 179.203 36.7539 179.297 40.5977L 179.297 58.1055C 179.297 61.5977 179.742 64.375 180.633 66.4375L 180.633 67L 173.812 67ZM 163.02 62.043C 165.059 62.043 166.992 61.5156 168.82 60.4609C 170.648 59.4062 171.973 58.0352 172.793 56.3477L 172.793 48.543L 167.695 48.543C 159.727 48.543 155.742 50.875 155.742 55.5391C 155.742 57.5781 156.422 59.1719 157.781 60.3203C 159.141 61.4688 160.887 62.043 163.02 62.043ZM 227.145 46.293L 215.121 46.293L 215.121 67L 208.336 67L 208.336 15.8125L 225.281 15.8125C 231.047 15.8125 235.477 17.125 238.57 19.75C 241.687 22.375 243.246 26.1953 243.246 31.2109C 243.246 34.3984 242.379 37.1758 240.645 39.543C 238.934 41.9102 236.543 43.6797 233.473 44.8516L 245.496 66.5781L 245.496 67L 238.254 67L 227.145 46.293ZM 215.121 40.7734L 225.492 40.7734C 228.844 40.7734 231.504 39.9062 233.473 38.1719C 235.465 36.4375 236.461 34.1172 236.461 31.2109C 236.461 28.0469 235.512 25.6211 233.613 23.9336C 231.738 22.2461 229.02 21.3906 225.457 21.3672L 215.121 21.3672L 215.121 40.7734ZM 249.996 47.6289C 249.996 43.9023 250.723 40.5508 252.176 37.5742C 253.652 34.5977 255.691 32.3008 258.293 30.6836C 260.918 29.0664 263.906 28.2578 267.258 28.2578C 272.437 28.2578 276.621 30.0508 279.809 33.6367C 283.02 37.2227 284.625 41.9922 284.625 47.9453L 284.625 48.4023C 284.625 52.1055 283.91 55.4336 282.48 58.3867C 281.074 61.3164 279.047 63.6016 276.398 65.2422C 273.773 66.8828 270.75 67.7031 267.328 67.7031C 262.172 67.7031 257.988 65.9102 254.777 62.3242C 251.59 58.7383 249.996 53.9922 249.996 48.0859L 249.996 47.6289ZM 256.535 48.4023C 256.535 52.6211 257.508 56.0078 259.453 58.5625C 261.422 61.1172 264.047 62.3945 267.328 62.3945C 270.633 62.3945 273.258 61.1055 275.203 58.5273C 277.148 55.9258 278.121 52.293 278.121 47.6289C 278.121 43.457 277.125 40.082 275.133 37.5039C 273.164 34.9023 270.539 33.6016 267.258 33.6016C 264.047 33.6016 261.457 34.8789 259.488 37.4336C 257.52 39.9883 256.535 43.6445 256.535 48.4023ZM 316.266 63.2383C 313.734 66.2148 310.02 67.7031 305.121 67.7031C 301.066 67.7031 297.973 66.5313 295.84 64.1875C 293.73 61.8203 292.664 58.3281 292.641 53.7109L 292.641 28.9609L 299.145 28.9609L 299.145 53.5352C 299.145 59.3008 301.488 62.1836 306.176 62.1836C 311.145 62.1836 314.449 60.332 316.09 56.6289L 316.09 28.9609L 322.594 28.9609L 322.594 67L 316.406 67L 316.266 63.2383ZM 354.656 56.9102C 354.656 55.1523 353.988 53.793 352.652 52.832C 351.34 51.8477 349.031 51.0039 345.727 50.3008C 342.445 49.5977 339.832 48.7539 337.887 47.7695C 335.965 46.7852 334.535 45.6133 333.598 44.2539C 332.684 42.8945 332.227 41.2773 332.227 39.4023C 332.227 36.2852 333.539 33.6484 336.164 31.4922C 338.813 29.3359 342.188 28.2578 346.289 28.2578C 350.602 28.2578 354.094 29.3711 356.766 31.5977C 359.461 33.8242 360.809 36.6719 360.809 40.1406L 354.27 40.1406C 354.27 38.3594 353.508 36.8242 351.984 35.5352C 350.484 34.2461 348.586 33.6016 346.289 33.6016C 343.922 33.6016 342.07 34.1172 340.734 35.1484C 339.398 36.1797 338.73 37.5273 338.73 39.1914C 338.73 40.7617 339.352 41.9453 340.594 42.7422C 341.836 43.5391 344.074 44.3008 347.309 45.0273C 350.566 45.7539 353.203 46.6211 355.219 47.6289C 357.234 48.6367 358.723 49.8555 359.684 51.2852C 360.668 52.6914 361.16 54.4141 361.16 56.4531C 361.16 59.8516 359.801 62.582 357.082 64.6445C 354.363 66.6836 350.836 67.7031 346.5 67.7031C 343.453 67.7031 340.758 67.1641 338.414 66.0859C 336.07 65.0078 334.23 63.5078 332.895 61.5859C 331.582 59.6406 330.926 57.543 330.926 55.293L 337.43 55.293C 337.547 57.4727 338.414 59.207 340.031 60.4961C 341.672 61.7617 343.828 62.3945 346.5 62.3945C 348.961 62.3945 350.93 61.9023 352.406 60.918C 353.906 59.9102 354.656 58.5742 354.656 56.9102ZM 391.781 56.9102C 391.781 55.1523 391.113 53.793 389.777 52.832C 388.465 51.8477 386.156 51.0039 382.852 50.3008C 379.57 49.5977 376.957 48.7539 375.012 47.7695C 373.09 46.7852 371.66 45.6133 370.723 44.2539C 369.809 42.8945 369.352 41.2773 369.352 39.4023C 369.352 36.2852 370.664 33.6484 373.289 31.4922C 375.938 29.3359 379.313 28.2578 383.414 28.2578C 387.727 28.2578 391.219 29.3711 393.891 31.5977C 396.586 33.8242 397.934 36.6719 397.934 40.1406L 391.395 40.1406C 391.395 38.3594 390.633 36.8242 389.109 35.5352C 387.609 34.2461 385.711 33.6016 383.414 33.6016C 381.047 33.6016 379.195 34.1172 377.859 35.1484C 376.523 36.1797 375.855 37.5273 375.855 39.1914C 375.855 40.7617 376.477 41.9453 377.719 42.7422C 378.961 43.5391 381.199 44.3008 384.434 45.0273C 387.691 45.7539 390.328 46.6211 392.344 47.6289C 394.359 48.6367 395.848 49.8555 396.809 51.2852C 397.793 52.6914 398.285 54.4141 398.285 56.4531C 398.285 59.8516 396.926 62.582 394.207 64.6445C 391.488 66.6836 387.961 67.7031 383.625 67.7031C 380.578 67.7031 377.883 67.1641 375.539 66.0859C 373.195 65.0078 371.355 63.5078 370.02 61.5859C 368.707 59.6406 368.051 57.543 368.051 55.293L 374.555 55.293C 374.672 57.4727 375.539 59.207 377.156 60.4961C 378.797 61.7617 380.953 62.3945 383.625 62.3945C 386.086 62.3945 388.055 61.9023 389.531 60.918C 391.031 59.9102 391.781 58.5742 391.781 56.9102ZM 422.543 67.7031C 417.387 67.7031 413.191 66.0156 409.957 62.6406C 406.723 59.2422 405.105 54.707 405.105 49.0352L 405.105 47.8398C 405.105 44.0664 405.82 40.7031 407.25 37.75C 408.703 34.7734 410.719 32.4531 413.297 30.7891C 415.898 29.1016 418.711 28.2578 421.734 28.2578C 426.68 28.2578 430.523 29.8867 433.266 33.1445C 436.008 36.4023 437.379 41.0664 437.379 47.1367L 437.379 49.8438L 411.609 49.8438C 411.703 53.5937 412.793 56.6289 414.879 58.9492C 416.988 61.2461 419.66 62.3945 422.895 62.3945C 425.191 62.3945 427.137 61.9258 428.73 60.9883C 430.324 60.0508 431.719 58.8086 432.914 57.2617L 436.887 60.3555C 433.699 65.2539 428.918 67.7031 422.543 67.7031ZM 421.734 33.6016C 419.109 33.6016 416.906 34.5625 415.125 36.4844C 413.344 38.3828 412.242 41.0547 411.82 44.5L 430.875 44.5L 430.875 44.0078C 430.688 40.7031 429.797 38.1484 428.203 36.3438C 426.609 34.5156 424.453 33.6016 421.734 33.6016ZM 448.137 67L 448.137 33.9883L 442.125 33.9883L 442.125 28.9609L 448.137 28.9609L 448.137 25.0586C 448.137 20.9805 449.227 17.8281 451.406 15.6016C 453.586 13.375 456.668 12.2617 460.652 12.2617C 462.152 12.2617 463.641 12.4609 465.117 12.8594L 464.766 18.1328C 463.664 17.9219 462.492 17.8164 461.25 17.8164C 459.141 17.8164 457.512 18.4375 456.363 19.6797C 455.215 20.8984 454.641 22.6562 454.641 24.9531L 454.641 28.9609L 462.762 28.9609L 462.762 33.9883L 454.641 33.9883L 454.641 67L 448.137 67ZM 473.168 67L 473.168 33.9883L 467.156 33.9883L 467.156 28.9609L 473.168 28.9609L 473.168 25.0586C 473.168 20.9805 474.258 17.8281 476.438 15.6016C 478.617 13.375 481.699 12.2617 485.684 12.2617C 487.184 12.2617 488.672 12.4609 490.148 12.8594L 489.797 18.1328C 488.695 17.9219 487.523 17.8164 486.281 17.8164C 484.172 17.8164 482.543 18.4375 481.395 19.6797C 480.246 20.8984 479.672 22.6562 479.672 24.9531L 479.672 28.9609L 487.793 28.9609L 487.793 33.9883L 479.672 33.9883L 479.672 67L 473.168 67Z"/>
<path id="path6_fill" d="M 21.0234 44.1836C 15.2344 42.5195 11.0156 40.4805 8.36719 38.0664C 5.74219 35.6289 4.42969 32.6289 4.42969 29.0664C 4.42969 25.0352 6.03516 21.707 9.24609 19.082C 12.4805 16.4336 16.6758 15.1094 21.832 15.1094C 25.3477 15.1094 28.4766 15.7891 31.2188 17.1484C 33.9844 18.5078 36.1172 20.3828 37.6172 22.7734C 39.1406 25.1641 39.9023 27.7773 39.9023 30.6133L 33.1172 30.6133C 33.1172 27.5195 32.1328 25.0938 30.1641 23.3359C 28.1953 21.5547 25.418 20.6641 21.832 20.6641C 18.5039 20.6641 15.9023 21.4023 14.0273 22.8789C 12.1758 24.332 11.25 26.3594 11.25 28.9609C 11.25 31.0469 12.1289 32.8164 13.8867 34.2695C 15.668 35.6992 18.6797 37.0117 22.9219 38.207C 27.1875 39.4023 30.5156 40.7266 32.9062 42.1797C 35.3203 43.6094 37.1016 45.2852 38.25 47.207C 39.4219 49.1289 40.0078 51.3906 40.0078 53.9922C 40.0078 58.1406 38.3906 61.4688 35.1562 63.9766C 31.9219 66.4609 27.5977 67.7031 22.1836 67.7031C 18.668 67.7031 15.3867 67.0352 12.3398 65.6992C 9.29297 64.3398 6.9375 62.4883 5.27344 60.1445C 3.63281 57.8008 2.8125 55.1406 2.8125 52.1641L 9.59766 52.1641C 9.59766 55.2578 10.7344 57.707 13.0078 59.5117C 15.3047 61.293 18.3633 62.1836 22.1836 62.1836C 25.7461 62.1836 28.4766 61.457 30.375 60.0039C 32.2734 58.5508 33.2227 56.5703 33.2227 54.0625C 33.2227 51.5547 32.3438 49.6211 30.5859 48.2617C 28.8281 46.8789 25.6406 45.5195 21.0234 44.1836ZM 71.1562 63.2383C 68.625 66.2148 64.9102 67.7031 60.0117 67.7031C 55.957 67.7031 52.8633 66.5313 50.7305 64.1875C 48.6211 61.8203 47.5547 58.3281 47.5312 53.7109L 47.5312 28.9609L 54.0352 28.9609L 54.0352 53.5352C 54.0352 59.3008 56.3789 62.1836 61.0664 62.1836C 66.0352 62.1836 69.3398 60.332 70.9805 56.6289L 70.9805 28.9609L 77.4844 28.9609L 77.4844 67L 71.2969 67L 71.1562 63.2383ZM 109.547 56.9102C 109.547 55.1523 108.879 53.793 107.543 52.832C 106.23 51.8477 103.922 51.0039 100.617 50.3008C 97.3359 49.5977 94.7227 48.7539 92.7773 47.7695C 90.8555 46.7852 89.4258 45.6133 88.4883 44.2539C 87.5742 42.8945 87.1172 41.2773 87.1172 39.4023C 87.1172 36.2852 88.4297 33.6484 91.0547 31.4922C 93.7031 29.3359 97.0781 28.2578 101.18 28.2578C 105.492 28.2578 108.984 29.3711 111.656 31.5977C 114.352 33.8242 115.699 36.6719 115.699 40.1406L 109.16 40.1406C 109.16 38.3594 108.398 36.8242 106.875 35.5352C 105.375 34.2461 103.477 33.6016 101.18 33.6016C 98.8125 33.6016 96.9609 34.1172 95.625 35.1484C 94.2891 36.1797 93.6211 37.5273 93.6211 39.1914C 93.6211 40.7617 94.2422 41.9453 95.4844 42.7422C 96.7266 43.5391 98.9648 44.3008 102.199 45.0273C 105.457 45.7539 108.094 46.6211 110.109 47.6289C 112.125 48.6367 113.613 49.8555 114.574 51.2852C 115.559 52.6914 116.051 54.4141 116.051 56.4531C 116.051 59.8516 114.691 62.582 111.973 64.6445C 109.254 66.6836 105.727 67.7031 101.391 67.7031C 98.3438 67.7031 95.6484 67.1641 93.3047 66.0859C 90.9609 65.0078 89.1211 63.5078 87.7852 61.5859C 86.4727 59.6406 85.8164 57.543 85.8164 55.293L 92.3203 55.293C 92.4375 57.4727 93.3047 59.207 94.9219 60.4961C 96.5625 61.7617 98.7188 62.3945 101.391 62.3945C 103.852 62.3945 105.82 61.9023 107.297 60.918C 108.797 59.9102 109.547 58.5742 109.547 56.9102ZM 148.008 67C 147.633 66.25 147.328 64.9141 147.094 62.9922C 144.07 66.1328 140.461 67.7031 136.266 67.7031C 132.516 67.7031 129.434 66.6484 127.02 64.5391C 124.629 62.4062 123.434 59.7109 123.434 56.4531C 123.434 52.4922 124.934 49.4219 127.934 47.2422C 130.957 45.0391 135.199 43.9375 140.66 43.9375L 146.988 43.9375L 146.988 40.9492C 146.988 38.6758 146.309 36.8711 144.949 35.5352C 143.59 34.1758 141.586 33.4961 138.938 33.4961C 136.617 33.4961 134.672 34.082 133.102 35.2539C 131.531 36.4258 130.746 37.8438 130.746 39.5078L 124.207 39.5078C 124.207 37.6094 124.875 35.7812 126.211 34.0234C 127.57 32.2422 129.398 30.8359 131.695 29.8047C 134.016 28.7734 136.559 28.2578 139.324 28.2578C 143.707 28.2578 147.141 29.3594 149.625 31.5625C 152.109 33.7422 153.398 36.7539 153.492 40.5977L 153.492 58.1055C 153.492 61.5977 153.938 64.375 154.828 66.4375L 154.828 67L 148.008 67ZM 137.215 62.043C 139.254 62.043 141.188 61.5156 143.016 60.4609C 144.844 59.4062 146.168 58.0352 146.988 56.3477L 146.988 48.543L 141.891 48.543C 133.922 48.543 129.938 50.875 129.938 55.5391C 129.938 57.5781 130.617 59.1719 131.977 60.3203C 133.336 61.4688 135.082 62.043 137.215 62.043ZM 169.84 28.9609L 170.051 33.7422C 172.957 30.0859 176.754 28.2578 181.441 28.2578C 189.48 28.2578 193.535 32.793 193.605 41.8633L 193.605 67L 187.102 67L 187.102 41.8281C 187.078 39.0859 186.445 37.0586 185.203 35.7461C 183.984 34.4336 182.074 33.7773 179.473 33.7773C 177.363 33.7773 175.512 34.3398 173.918 35.4648C 172.324 36.5898 171.082 38.0664 170.191 39.8945L 170.191 67L 163.688 67L 163.688 28.9609L 169.84 28.9609ZM 209.566 28.9609L 209.777 33.7422C 212.684 30.0859 216.48 28.2578 221.168 28.2578C 229.207 28.2578 233.262 32.793 233.332 41.8633L 233.332 67L 226.828 67L 226.828 41.8281C 226.805 39.0859 226.172 37.0586 224.93 35.7461C 223.711 34.4336 221.801 33.7773 219.199 33.7773C 217.09 33.7773 215.238 34.3398 213.645 35.4648C 212.051 36.5898 210.809 38.0664 209.918 39.8945L 209.918 67L 203.414 67L 203.414 28.9609L 209.566 28.9609ZM 258.926 67.7031C 253.77 67.7031 249.574 66.0156 246.34 62.6406C 243.105 59.2422 241.488 54.707 241.488 49.0352L 241.488 47.8398C 241.488 44.0664 242.203 40.7031 243.633 37.75C 245.086 34.7734 247.102 32.4531 249.68 30.7891C 252.281 29.1016 255.094 28.2578 258.117 28.2578C 263.063 28.2578 266.906 29.8867 269.648 33.1445C 272.391 36.4023 273.762 41.0664 273.762 47.1367L 273.762 49.8438L 247.992 49.8438C 248.086 53.5937 249.176 56.6289 251.262 58.9492C 253.371 61.2461 256.043 62.3945 259.277 62.3945C 261.574 62.3945 263.52 61.9258 265.113 60.9883C 266.707 60.0508 268.102 58.8086 269.297 57.2617L 273.27 60.3555C 270.082 65.2539 265.301 67.7031 258.926 67.7031ZM 258.117 33.6016C 255.492 33.6016 253.289 34.5625 251.508 36.4844C 249.727 38.3828 248.625 41.0547 248.203 44.5L 267.258 44.5L 267.258 44.0078C 267.07 40.7031 266.18 38.1484 264.586 36.3438C 262.992 34.5156 260.836 33.6016 258.117 33.6016Z"/>
<path id="path7_fill" d="M 43.5938 50.7578C 42.9609 56.1719 40.957 60.3555 37.582 63.3086C 34.2305 66.2383 29.7656 67.7031 24.1875 67.7031C 18.1406 67.7031 13.2891 65.5352 9.63281 61.1992C 6 56.8633 4.18359 51.0625 4.18359 43.7969L 4.18359 38.875C 4.18359 34.1172 5.02734 29.9336 6.71484 26.3242C 8.42578 22.7148 10.8398 19.9492 13.957 18.0273C 17.0742 16.082 20.6836 15.1094 24.7852 15.1094C 30.2227 15.1094 34.582 16.6328 37.8633 19.6797C 41.1445 22.7031 43.0547 26.8984 43.5938 32.2656L 36.8086 32.2656C 36.2227 28.1875 34.9453 25.2344 32.9766 23.4062C 31.0313 21.5781 28.3008 20.6641 24.7852 20.6641C 20.4727 20.6641 17.0859 22.2578 14.625 25.4453C 12.1875 28.6328 10.9688 33.168 10.9688 39.0508L 10.9688 44.0078C 10.9688 49.5625 12.1289 53.9805 14.4492 57.2617C 16.7695 60.543 20.0156 62.1836 24.1875 62.1836C 27.9375 62.1836 30.8086 61.3398 32.8008 59.6523C 34.8164 57.9414 36.1523 54.9766 36.8086 50.7578L 43.5938 50.7578ZM 50.0977 47.6289C 50.0977 43.9023 50.8242 40.5508 52.2773 37.5742C 53.7539 34.5977 55.793 32.3008 58.3945 30.6836C 61.0195 29.0664 64.0078 28.2578 67.3594 28.2578C 72.5391 28.2578 76.7227 30.0508 79.9102 33.6367C 83.1211 37.2227 84.7266 41.9922 84.7266 47.9453L 84.7266 48.4023C 84.7266 52.1055 84.0117 55.4336 82.582 58.3867C 81.1758 61.3164 79.1484 63.6016 76.5 65.2422C 73.875 66.8828 70.8516 67.7031 67.4297 67.7031C 62.2734 67.7031 58.0898 65.9102 54.8789 62.3242C 51.6914 58.7383 50.0977 53.9922 50.0977 48.0859L 50.0977 47.6289ZM 56.6367 48.4023C 56.6367 52.6211 57.6094 56.0078 59.5547 58.5625C 61.5234 61.1172 64.1484 62.3945 67.4297 62.3945C 70.7344 62.3945 73.3594 61.1055 75.3047 58.5273C 77.25 55.9258 78.2227 52.293 78.2227 47.6289C 78.2227 43.457 77.2266 40.082 75.2344 37.5039C 73.2656 34.9023 70.6406 33.6016 67.3594 33.6016C 64.1484 33.6016 61.5586 34.8789 59.5898 37.4336C 57.6211 39.9883 56.6367 43.6445 56.6367 48.4023ZM 99 28.9609L 99.1758 33.1797C 101.965 29.8984 105.727 28.2578 110.461 28.2578C 115.781 28.2578 119.402 30.2969 121.324 34.375C 122.59 32.5469 124.23 31.0703 126.246 29.9453C 128.285 28.8203 130.688 28.2578 133.453 28.2578C 141.797 28.2578 146.039 32.6758 146.18 41.5117L 146.18 67L 139.676 67L 139.676 41.8984C 139.676 39.1797 139.055 37.1523 137.812 35.8164C 136.57 34.457 134.484 33.7773 131.555 33.7773C 129.141 33.7773 127.137 34.5039 125.543 35.957C 123.949 37.3867 123.023 39.3203 122.766 41.7578L 122.766 67L 116.227 67L 116.227 42.0742C 116.227 36.543 113.52 33.7773 108.105 33.7773C 103.84 33.7773 100.922 35.5938 99.3516 39.2266L 99.3516 67L 92.8477 67L 92.8477 28.9609L 99 28.9609ZM 188.156 48.4023C 188.156 54.1914 186.832 58.8555 184.184 62.3945C 181.535 65.9336 177.949 67.7031 173.426 67.7031C 168.809 67.7031 165.176 66.2383 162.527 63.3086L 162.527 81.625L 156.023 81.625L 156.023 28.9609L 161.965 28.9609L 162.281 33.1797C 164.93 29.8984 168.609 28.2578 173.32 28.2578C 177.891 28.2578 181.5 29.9805 184.148 33.4258C 186.82 36.8711 188.156 41.6641 188.156 47.8047L 188.156 48.4023ZM 181.652 47.6641C 181.652 43.375 180.738 39.9883 178.91 37.5039C 177.082 35.0195 174.574 33.7773 171.387 33.7773C 167.449 33.7773 164.496 35.5234 162.527 39.0156L 162.527 57.1914C 164.473 60.6602 167.449 62.3945 171.457 62.3945C 174.574 62.3945 177.047 61.1641 178.875 58.7031C 180.727 56.2188 181.652 52.5391 181.652 47.6641ZM 219.938 67C 219.562 66.25 219.258 64.9141 219.023 62.9922C 216 66.1328 212.391 67.7031 208.195 67.7031C 204.445 67.7031 201.363 66.6484 198.949 64.5391C 196.559 62.4062 195.363 59.7109 195.363 56.4531C 195.363 52.4922 196.863 49.4219 199.863 47.2422C 202.887 45.0391 207.129 43.9375 212.59 43.9375L 218.918 43.9375L 218.918 40.9492C 218.918 38.6758 218.238 36.8711 216.879 35.5352C 215.52 34.1758 213.516 33.4961 210.867 33.4961C 208.547 33.4961 206.602 34.082 205.031 35.2539C 203.461 36.4258 202.676 37.8438 202.676 39.5078L 196.137 39.5078C 196.137 37.6094 196.805 35.7812 198.141 34.0234C 199.5 32.2422 201.328 30.8359 203.625 29.8047C 205.945 28.7734 208.488 28.2578 211.254 28.2578C 215.637 28.2578 219.07 29.3594 221.555 31.5625C 224.039 33.7422 225.328 36.7539 225.422 40.5977L 225.422 58.1055C 225.422 61.5977 225.867 64.375 226.758 66.4375L 226.758 67L 219.938 67ZM 209.145 62.043C 211.184 62.043 213.117 61.5156 214.945 60.4609C 216.773 59.4062 218.098 58.0352 218.918 56.3477L 218.918 48.543L 213.82 48.543C 205.852 48.543 201.867 50.875 201.867 55.5391C 201.867 57.5781 202.547 59.1719 203.906 60.3203C 205.266 61.4688 207.012 62.043 209.145 62.043ZM 254.004 34.7969C 253.02 34.6328 251.953 34.5508 250.805 34.5508C 246.539 34.5508 243.645 36.3672 242.121 40L 242.121 67L 235.617 67L 235.617 28.9609L 241.945 28.9609L 242.051 33.3555C 244.184 29.957 247.207 28.2578 251.121 28.2578C 252.387 28.2578 253.348 28.4219 254.004 28.75L 254.004 34.7969ZM 275.098 67.7031C 269.941 67.7031 265.746 66.0156 262.512 62.6406C 259.277 59.2422 257.66 54.707 257.66 49.0352L 257.66 47.8398C 257.66 44.0664 258.375 40.7031 259.805 37.75C 261.258 34.7734 263.273 32.4531 265.852 30.7891C 268.453 29.1016 271.266 28.2578 274.289 28.2578C 279.234 28.2578 283.078 29.8867 285.82 33.1445C 288.562 36.4023 289.934 41.0664 289.934 47.1367L 289.934 49.8438L 264.164 49.8438C 264.258 53.5937 265.348 56.6289 267.434 58.9492C 269.543 61.2461 272.215 62.3945 275.449 62.3945C 277.746 62.3945 279.691 61.9258 281.285 60.9883C 282.879 60.0508 284.273 58.8086 285.469 57.2617L 289.441 60.3555C 286.254 65.2539 281.473 67.7031 275.098 67.7031ZM 274.289 33.6016C 271.664 33.6016 269.461 34.5625 267.68 36.4844C 265.898 38.3828 264.797 41.0547 264.375 44.5L 283.43 44.5L 283.43 44.0078C 283.242 40.7031 282.352 38.1484 280.758 36.3438C 279.164 34.5156 277.008 33.6016 274.289 33.6016ZM 345.305 43.3398L 323.121 43.3398L 323.121 61.4805L 348.891 61.4805L 348.891 67L 316.371 67L 316.371 15.8125L 348.539 15.8125L 348.539 21.3672L 323.121 21.3672L 323.121 37.8203L 345.305 37.8203L 345.305 43.3398ZM 379.758 67C 379.383 66.25 379.078 64.9141 378.844 62.9922C 375.82 66.1328 372.211 67.7031 368.016 67.7031C 364.266 67.7031 361.184 66.6484 358.77 64.5391C 356.379 62.4062 355.184 59.7109 355.184 56.4531C 355.184 52.4922 356.684 49.4219 359.684 47.2422C 362.707 45.0391 366.949 43.9375 372.41 43.9375L 378.738 43.9375L 378.738 40.9492C 378.738 38.6758 378.059 36.8711 376.699 35.5352C 375.34 34.1758 373.336 33.4961 370.688 33.4961C 368.367 33.4961 366.422 34.082 364.852 35.2539C 363.281 36.4258 362.496 37.8438 362.496 39.5078L 355.957 39.5078C 355.957 37.6094 356.625 35.7812 357.961 34.0234C 359.32 32.2422 361.148 30.8359 363.445 29.8047C 365.766 28.7734 368.309 28.2578 371.074 28.2578C 375.457 28.2578 378.891 29.3594 381.375 31.5625C 383.859 33.7422 385.148 36.7539 385.242 40.5977L 385.242 58.1055C 385.242 61.5977 385.688 64.375 386.578 66.4375L 386.578 67L 379.758 67ZM 368.965 62.043C 371.004 62.043 372.938 61.5156 374.766 60.4609C 376.594 59.4062 377.918 58.0352 378.738 56.3477L 378.738 48.543L 373.641 48.543C 365.672 48.543 361.688 50.875 361.688 55.5391C 361.688 57.5781 362.367 59.1719 363.727 60.3203C 365.086 61.4688 366.832 62.043 368.965 62.043ZM 410.695 62.3945C 413.016 62.3945 415.043 61.6914 416.777 60.2852C 418.512 58.8789 419.473 57.1211 419.66 55.0117L 425.812 55.0117C 425.695 57.1914 424.945 59.2656 423.562 61.2344C 422.18 63.2031 420.328 64.7734 418.008 65.9453C 415.711 67.1172 413.273 67.7031 410.695 67.7031C 405.516 67.7031 401.391 65.9805 398.32 62.5352C 395.273 59.0664 393.75 54.332 393.75 48.332L 393.75 47.2422C 393.75 43.5391 394.43 40.2461 395.789 37.3633C 397.148 34.4805 399.094 32.2422 401.625 30.6484C 404.18 29.0547 407.191 28.2578 410.66 28.2578C 414.926 28.2578 418.465 29.5352 421.277 32.0898C 424.113 34.6445 425.625 37.9609 425.812 42.0391L 419.66 42.0391C 419.473 39.5781 418.535 37.5625 416.848 35.9922C 415.184 34.3984 413.121 33.6016 410.66 33.6016C 407.355 33.6016 404.789 34.7969 402.961 37.1875C 401.156 39.5547 400.254 42.9883 400.254 47.4883L 400.254 48.7188C 400.254 53.1016 401.156 56.4766 402.961 58.8438C 404.766 61.2109 407.344 62.3945 410.695 62.3945ZM 439.629 33.5664C 442.512 30.0273 446.262 28.2578 450.879 28.2578C 458.918 28.2578 462.973 32.793 463.043 41.8633L 463.043 67L 456.539 67L 456.539 41.8281C 456.516 39.0859 455.883 37.0586 454.641 35.7461C 453.422 34.4336 451.512 33.7773 448.91 33.7773C 446.801 33.7773 444.949 34.3398 443.355 35.4648C 441.762 36.5898 440.52 38.0664 439.629 39.8945L 439.629 67L 433.125 67L 433.125 13L 439.629 13L 439.629 33.5664ZM 520.594 43.3398L 498.41 43.3398L 498.41 61.4805L 524.18 61.4805L 524.18 67L 491.66 67L 491.66 15.8125L 523.828 15.8125L 523.828 21.3672L 498.41 21.3672L 498.41 37.8203L 520.594 37.8203L 520.594 43.3398ZM 538.629 67L 532.125 67L 532.125 13L 538.629 13L 538.629 67ZM 564.855 67.7031C 559.699 67.7031 555.504 66.0156 552.27 62.6406C 549.035 59.2422 547.418 54.707 547.418 49.0352L 547.418 47.8398C 547.418 44.0664 548.133 40.7031 549.562 37.75C 551.016 34.7734 553.031 32.4531 555.609 30.7891C 558.211 29.1016 561.023 28.2578 564.047 28.2578C 568.992 28.2578 572.836 29.8867 575.578 33.1445C 578.32 36.4023 579.691 41.0664 579.691 47.1367L 579.691 49.8438L 553.922 49.8438C 554.016 53.5937 555.105 56.6289 557.191 58.9492C 559.301 61.2461 561.973 62.3945 565.207 62.3945C 567.504 62.3945 569.449 61.9258 571.043 60.9883C 572.637 60.0508 574.031 58.8086 575.227 57.2617L 579.199 60.3555C 576.012 65.2539 571.23 67.7031 564.855 67.7031ZM 564.047 33.6016C 561.422 33.6016 559.219 34.5625 557.438 36.4844C 555.656 38.3828 554.555 41.0547 554.133 44.5L 573.188 44.5L 573.188 44.0078C 573 40.7031 572.109 38.1484 570.516 36.3438C 568.922 34.5156 566.766 33.6016 564.047 33.6016ZM 593.367 28.9609L 593.543 33.1797C 596.332 29.8984 600.094 28.2578 604.828 28.2578C 610.148 28.2578 613.77 30.2969 615.691 34.375C 616.957 32.5469 618.598 31.0703 620.613 29.9453C 622.652 28.8203 625.055 28.2578 627.82 28.2578C 636.164 28.2578 640.406 32.6758 640.547 41.5117L 640.547 67L 634.043 67L 634.043 41.8984C 634.043 39.1797 633.422 37.1523 632.18 35.8164C 630.937 34.457 628.852 33.7773 625.922 33.7773C 623.508 33.7773 621.504 34.5039 619.91 35.957C 618.316 37.3867 617.391 39.3203 617.133 41.7578L 617.133 67L 610.594 67L 610.594 42.0742C 610.594 36.543 607.887 33.7773 602.473 33.7773C 598.207 33.7773 595.289 35.5938 593.719 39.2266L 593.719 67L 587.215 67L 587.215 28.9609L 593.367 28.9609ZM 666.176 67.7031C 661.02 67.7031 656.824 66.0156 653.59 62.6406C 650.355 59.2422 648.738 54.707 648.738 49.0352L 648.738 47.8398C 648.738 44.0664 649.453 40.7031 650.883 37.75C 652.336 34.7734 654.352 32.4531 656.93 30.7891C 659.531 29.1016 662.344 28.2578 665.367 28.2578C 670.313 28.2578 674.156 29.8867 676.898 33.1445C 679.641 36.4023 681.012 41.0664 681.012 47.1367L 681.012 49.8438L 655.242 49.8438C 655.336 53.5937 656.426 56.6289 658.512 58.9492C 660.621 61.2461 663.293 62.3945 666.527 62.3945C 668.824 62.3945 670.77 61.9258 672.363 60.9883C 673.957 60.0508 675.352 58.8086 676.547 57.2617L 680.52 60.3555C 677.332 65.2539 672.551 67.7031 666.176 67.7031ZM 665.367 33.6016C 662.742 33.6016 660.539 34.5625 658.758 36.4844C 656.977 38.3828 655.875 41.0547 655.453 44.5L 674.508 44.5L 674.508 44.0078C 674.32 40.7031 673.43 38.1484 671.836 36.3438C 670.242 34.5156 668.086 33.6016 665.367 33.6016ZM 694.723 28.9609L 694.934 33.7422C 697.84 30.0859 701.637 28.2578 706.324 28.2578C 714.363 28.2578 718.418 32.793 718.488 41.8633L 718.488 67L 711.984 67L 711.984 41.8281C 711.961 39.0859 711.328 37.0586 710.086 35.7461C 708.867 34.4336 706.957 33.7773 704.355 33.7773C 702.246 33.7773 700.395 34.3398 698.801 35.4648C 697.207 36.5898 695.965 38.0664 695.074 39.8945L 695.074 67L 688.57 67L 688.57 28.9609L 694.723 28.9609ZM 737.121 19.75L 737.121 28.9609L 744.223 28.9609L 744.223 33.9883L 737.121 33.9883L 737.121 57.5781C 737.121 59.1016 737.438 60.25 738.07 61.0234C 738.703 61.7734 739.781 62.1484 741.305 62.1484C 742.055 62.1484 743.086 62.0078 744.398 61.7266L 744.398 67C 742.687 67.4687 741.023 67.7031 739.406 67.7031C 736.5 67.7031 734.309 66.8242 732.832 65.0664C 731.355 63.3086 730.617 60.8125 730.617 57.5781L 730.617 33.9883L 723.691 33.9883L 723.691 28.9609L 730.617 28.9609L 730.617 19.75L 737.121 19.75ZM 804.691 21.3672L 788.238 21.3672L 788.238 67L 781.523 67L 781.523 21.3672L 765.105 21.3672L 765.105 15.8125L 804.691 15.8125L 804.691 21.3672ZM 806.027 47.6289C 806.027 43.9023 806.754 40.5508 808.207 37.5742C 809.684 34.5977 811.723 32.3008 814.324 30.6836C 816.949 29.0664 819.937 28.2578 823.289 28.2578C 828.469 28.2578 832.652 30.0508 835.84 33.6367C 839.051 37.2227 840.656 41.9922 840.656 47.9453L 840.656 48.4023C 840.656 52.1055 839.941 55.4336 838.512 58.3867C 837.105 61.3164 835.078 63.6016 832.43 65.2422C 829.805 66.8828 826.781 67.7031 823.359 67.7031C 818.203 67.7031 814.02 65.9102 810.809 62.3242C 807.621 58.7383 806.027 53.9922 806.027 48.0859L 806.027 47.6289ZM 812.566 48.4023C 812.566 52.6211 813.539 56.0078 815.484 58.5625C 817.453 61.1172 820.078 62.3945 823.359 62.3945C 826.664 62.3945 829.289 61.1055 831.234 58.5273C 833.18 55.9258 834.152 52.293 834.152 47.6289C 834.152 43.457 833.156 40.082 831.164 37.5039C 829.195 34.9023 826.57 33.6016 823.289 33.6016C 820.078 33.6016 817.488 34.8789 815.52 37.4336C 813.551 39.9883 812.566 43.6445 812.566 48.4023ZM 871.523 12.332L 875.25 14.8633C 873.07 17.8398 871.945 21.0508 871.875 24.4961L 871.875 29.2773L 865.406 29.2773L 865.406 25.1992C 865.406 22.8086 865.969 20.4414 867.094 18.0977C 868.242 15.7539 869.719 13.832 871.523 12.332ZM 882.598 12.332L 886.324 14.8633C 884.145 17.8398 883.02 21.0508 882.949 24.4961L 882.949 29.2773L 876.48 29.2773L 876.48 25.1992C 876.48 22.8086 877.043 20.4414 878.168 18.0977C 879.316 15.7539 880.793 13.832 882.598 12.332ZM 908.227 44.1836C 902.438 42.5195 898.219 40.4805 895.57 38.0664C 892.945 35.6289 891.633 32.6289 891.633 29.0664C 891.633 25.0352 893.238 21.707 896.449 19.082C 899.684 16.4336 903.879 15.1094 909.035 15.1094C 912.551 15.1094 915.68 15.7891 918.422 17.1484C 921.188 18.5078 923.32 20.3828 924.82 22.7734C 926.344 25.1641 927.105 27.7773 927.105 30.6133L 920.32 30.6133C 920.32 27.5195 919.336 25.0938 917.367 23.3359C 915.398 21.5547 912.621 20.6641 909.035 20.6641C 905.707 20.6641 903.105 21.4023 901.23 22.8789C 899.379 24.332 898.453 26.3594 898.453 28.9609C 898.453 31.0469 899.332 32.8164 901.09 34.2695C 902.871 35.6992 905.883 37.0117 910.125 38.207C 914.391 39.4023 917.719 40.7266 920.109 42.1797C 922.523 43.6094 924.305 45.2852 925.453 47.207C 926.625 49.1289 927.211 51.3906 927.211 53.9922C 927.211 58.1406 925.594 61.4688 922.359 63.9766C 919.125 66.4609 914.801 67.7031 909.387 67.7031C 905.871 67.7031 902.59 67.0352 899.543 65.6992C 896.496 64.3398 894.141 62.4883 892.477 60.1445C 890.836 57.8008 890.016 55.1406 890.016 52.1641L 896.801 52.1641C 896.801 55.2578 897.938 57.707 900.211 59.5117C 902.508 61.293 905.566 62.1836 909.387 62.1836C 912.949 62.1836 915.68 61.457 917.578 60.0039C 919.477 58.5508 920.426 56.5703 920.426 54.0625C 920.426 51.5547 919.547 49.6211 917.789 48.2617C 916.031 46.8789 912.844 45.5195 908.227 44.1836ZM 958.359 63.2383C 955.828 66.2148 952.113 67.7031 947.215 67.7031C 943.16 67.7031 940.066 66.5313 937.934 64.1875C 935.824 61.8203 934.758 58.3281 934.734 53.7109L 934.734 28.9609L 941.238 28.9609L 941.238 53.5352C 941.238 59.3008 943.582 62.1836 948.27 62.1836C 953.238 62.1836 956.543 60.332 958.184 56.6289L 958.184 28.9609L 964.688 28.9609L 964.688 67L 958.5 67L 958.359 63.2383ZM 996.75 56.9102C 996.75 55.1523 996.082 53.793 994.746 52.832C 993.434 51.8477 991.125 51.0039 987.82 50.3008C 984.539 49.5977 981.926 48.7539 979.98 47.7695C 978.059 46.7852 976.629 45.6133 975.691 44.2539C 974.777 42.8945 974.32 41.2773 974.32 39.4023C 974.32 36.2852 975.633 33.6484 978.258 31.4922C 980.906 29.3359 984.281 28.2578 988.383 28.2578C 992.695 28.2578 996.188 29.3711 998.859 31.5977C 1001.55 33.8242 1002.9 36.6719 1002.9 40.1406L 996.363 40.1406C 996.363 38.3594 995.602 36.8242 994.078 35.5352C 992.578 34.2461 990.68 33.6016 988.383 33.6016C 986.016 33.6016 984.164 34.1172 982.828 35.1484C 981.492 36.1797 980.824 37.5273 980.824 39.1914C 980.824 40.7617 981.445 41.9453 982.688 42.7422C 983.93 43.5391 986.168 44.3008 989.402 45.0273C 992.66 45.7539 995.297 46.6211 997.312 47.6289C 999.328 48.6367 1000.82 49.8555 1001.78 51.2852C 1002.76 52.6914 1003.25 54.4141 1003.25 56.4531C 1003.25 59.8516 1001.89 62.582 999.176 64.6445C 996.457 66.6836 992.93 67.7031 988.594 67.7031C 985.547 67.7031 982.852 67.1641 980.508 66.0859C 978.164 65.0078 976.324 63.5078 974.988 61.5859C 973.676 59.6406 973.02 57.543 973.02 55.293L 979.523 55.293C 979.641 57.4727 980.508 59.207 982.125 60.4961C 983.766 61.7617 985.922 62.3945 988.594 62.3945C 991.055 62.3945 993.023 61.9023 994.5 60.918C 996 59.9102 996.75 58.5742 996.75 56.9102ZM 1035.21 67C 1034.84 66.25 1034.53 64.9141 1034.3 62.9922C 1031.27 66.1328 1027.66 67.7031 1023.47 67.7031C 1019.72 67.7031 1016.64 66.6484 1014.22 64.5391C 1011.83 62.4062 1010.64 59.7109 1010.64 56.4531C 1010.64 52.4922 1012.14 49.4219 1015.14 47.2422C 1018.16 45.0391 1022.4 43.9375 1027.86 43.9375L 1034.19 43.9375L 1034.19 40.9492C 1034.19 38.6758 1033.51 36.8711 1032.15 35.5352C 1030.79 34.1758 1028.79 33.4961 1026.14 33.4961C 1023.82 33.4961 1021.87 34.082 1020.3 35.2539C 1018.73 36.4258 1017.95 37.8438 1017.95 39.5078L 1011.41 39.5078C 1011.41 37.6094 1012.08 35.7812 1013.41 34.0234C 1014.77 32.2422 1016.6 30.8359 1018.9 29.8047C 1021.22 28.7734 1023.76 28.2578 1026.53 28.2578C 1030.91 28.2578 1034.34 29.3594 1036.83 31.5625C 1039.31 33.7422 1040.6 36.7539 1040.7 40.5977L 1040.7 58.1055C 1040.7 61.5977 1041.14 64.375 1042.03 66.4375L 1042.03 67L 1035.21 67ZM 1024.42 62.043C 1026.46 62.043 1028.39 61.5156 1030.22 60.4609C 1032.05 59.4062 1033.37 58.0352 1034.19 56.3477L 1034.19 48.543L 1029.09 48.543C 1021.13 48.543 1017.14 50.875 1017.14 55.5391C 1017.14 57.5781 1017.82 59.1719 1019.18 60.3203C 1020.54 61.4688 1022.29 62.043 1024.42 62.043ZM 1057.04 28.9609L 1057.25 33.7422C 1060.16 30.0859 1063.96 28.2578 1068.64 28.2578C 1076.68 28.2578 1080.74 32.793 1080.81 41.8633L 1080.81 67L 1074.3 67L 1074.3 41.8281C 1074.28 39.0859 1073.65 37.0586 1072.41 35.7461C 1071.19 34.4336 1069.28 33.7773 1066.68 33.7773C 1064.57 33.7773 1062.71 34.3398 1061.12 35.4648C 1059.53 36.5898 1058.29 38.0664 1057.39 39.8945L 1057.39 67L 1050.89 67L 1050.89 28.9609L 1057.04 28.9609ZM 1096.77 28.9609L 1096.98 33.7422C 1099.89 30.0859 1103.68 28.2578 1108.37 28.2578C 1116.41 28.2578 1120.46 32.793 1120.54 41.8633L 1120.54 67L 1114.03 67L 1114.03 41.8281C 1114.01 39.0859 1113.37 37.0586 1112.13 35.7461C 1110.91 34.4336 1109 33.7773 1106.4 33.7773C 1104.29 33.7773 1102.44 34.3398 1100.85 35.4648C 1099.25 36.5898 1098.01 38.0664 1097.12 39.8945L 1097.12 67L 1090.62 67L 1090.62 28.9609L 1096.77 28.9609ZM 1146.13 67.7031C 1140.97 67.7031 1136.78 66.0156 1133.54 62.6406C 1130.31 59.2422 1128.69 54.707 1128.69 49.0352L 1128.69 47.8398C 1128.69 44.0664 1129.41 40.7031 1130.84 37.75C 1132.29 34.7734 1134.3 32.4531 1136.88 30.7891C 1139.48 29.1016 1142.3 28.2578 1145.32 28.2578C 1150.27 28.2578 1154.11 29.8867 1156.85 33.1445C 1159.59 36.4023 1160.96 41.0664 1160.96 47.1367L 1160.96 49.8438L 1135.2 49.8438C 1135.29 53.5937 1136.38 56.6289 1138.46 58.9492C 1140.57 61.2461 1143.25 62.3945 1146.48 62.3945C 1148.78 62.3945 1150.72 61.9258 1152.32 60.9883C 1153.91 60.0508 1155.3 58.8086 1156.5 57.2617L 1160.47 60.3555C 1157.29 65.2539 1152.5 67.7031 1146.13 67.7031ZM 1145.32 33.6016C 1142.7 33.6016 1140.49 34.5625 1138.71 36.4844C 1136.93 38.3828 1135.83 41.0547 1135.41 44.5L 1154.46 44.5L 1154.46 44.0078C 1154.27 40.7031 1153.38 38.1484 1151.79 36.3438C 1150.2 34.5156 1148.04 33.6016 1145.32 33.6016ZM 1168.91 30.2266L 1165.22 27.6953C 1167.4 24.6484 1168.52 21.4375 1168.59 18.0625L 1168.59 13L 1175.03 13L 1175.03 17.5703C 1175 19.9141 1174.42 22.2578 1173.27 24.6016C 1172.14 26.9219 1170.69 28.7969 1168.91 30.2266ZM 1179.7 30.2266L 1176.01 27.6953C 1178.19 24.6484 1179.32 21.4375 1179.39 18.0625L 1179.39 13L 1185.82 13L 1185.82 17.5703C 1185.8 19.9141 1185.21 22.2578 1184.06 24.6016C 1182.94 26.9219 1181.48 28.7969 1179.7 30.2266Z"/>
<path id="path8_fill" d="M 45.2812 67L 38.4961 67L 12.7266 27.5547L 12.7266 67L 5.94141 67L 5.94141 15.8125L 12.7266 15.8125L 38.5664 55.4336L 38.5664 15.8125L 45.2812 15.8125L 45.2812 67ZM 54.5273 47.6289C 54.5273 43.9023 55.2539 40.5508 56.707 37.5742C 58.1836 34.5977 60.2227 32.3008 62.8242 30.6836C 65.4492 29.0664 68.4375 28.2578 71.7891 28.2578C 76.9687 28.2578 81.1523 30.0508 84.3398 33.6367C 87.5508 37.2227 89.1562 41.9922 89.1562 47.9453L 89.1562 48.4023C 89.1562 52.1055 88.4414 55.4336 87.0117 58.3867C 85.6055 61.3164 83.5781 63.6016 80.9297 65.2422C 78.3047 66.8828 75.2812 67.7031 71.8594 67.7031C 66.7031 67.7031 62.5195 65.9102 59.3086 62.3242C 56.1211 58.7383 54.5273 53.9922 54.5273 48.0859L 54.5273 47.6289ZM 61.0664 48.4023C 61.0664 52.6211 62.0391 56.0078 63.9844 58.5625C 65.9531 61.1172 68.5781 62.3945 71.8594 62.3945C 75.1641 62.3945 77.7891 61.1055 79.7344 58.5273C 81.6797 55.9258 82.6523 52.293 82.6523 47.6289C 82.6523 43.457 81.6563 40.082 79.6641 37.5039C 77.6953 34.9023 75.0703 33.6016 71.7891 33.6016C 68.5781 33.6016 65.9883 34.8789 64.0195 37.4336C 62.0508 39.9883 61.0664 43.6445 61.0664 48.4023ZM 124.91 15.8125L 141.645 57.5781L 158.379 15.8125L 167.133 15.8125L 167.133 67L 160.383 67L 160.383 47.0664L 161.016 25.5508L 144.211 67L 139.043 67L 122.273 25.6562L 122.941 47.0664L 122.941 67L 116.191 67L 116.191 15.8125L 124.91 15.8125ZM 201.516 67C 201.141 66.25 200.836 64.9141 200.602 62.9922C 197.578 66.1328 193.969 67.7031 189.773 67.7031C 186.023 67.7031 182.941 66.6484 180.527 64.5391C 178.137 62.4062 176.941 59.7109 176.941 56.4531C 176.941 52.4922 178.441 49.4219 181.441 47.2422C 184.465 45.0391 188.707 43.9375 194.168 43.9375L 200.496 43.9375L 200.496 40.9492C 200.496 38.6758 199.816 36.8711 198.457 35.5352C 197.098 34.1758 195.094 33.4961 192.445 33.4961C 190.125 33.4961 188.18 34.082 186.609 35.2539C 185.039 36.4258 184.254 37.8438 184.254 39.5078L 177.715 39.5078C 177.715 37.6094 178.383 35.7812 179.719 34.0234C 181.078 32.2422 182.906 30.8359 185.203 29.8047C 187.523 28.7734 190.066 28.2578 192.832 28.2578C 197.215 28.2578 200.648 29.3594 203.133 31.5625C 205.617 33.7422 206.906 36.7539 207 40.5977L 207 58.1055C 207 61.5977 207.445 64.375 208.336 66.4375L 208.336 67L 201.516 67ZM 190.723 62.043C 192.762 62.043 194.695 61.5156 196.523 60.4609C 198.352 59.4062 199.676 58.0352 200.496 56.3477L 200.496 48.543L 195.398 48.543C 187.43 48.543 183.445 50.875 183.445 55.5391C 183.445 57.5781 184.125 59.1719 185.484 60.3203C 186.844 61.4688 188.59 62.043 190.723 62.043ZM 226.02 19.75L 226.02 28.9609L 233.121 28.9609L 233.121 33.9883L 226.02 33.9883L 226.02 57.5781C 226.02 59.1016 226.336 60.25 226.969 61.0234C 227.602 61.7734 228.68 62.1484 230.203 62.1484C 230.953 62.1484 231.984 62.0078 233.297 61.7266L 233.297 67C 231.586 67.4687 229.922 67.7031 228.305 67.7031C 225.398 67.7031 223.207 66.8242 221.73 65.0664C 220.254 63.3086 219.516 60.8125 219.516 57.5781L 219.516 33.9883L 212.59 33.9883L 212.59 28.9609L 219.516 28.9609L 219.516 19.75L 226.02 19.75ZM 256.008 62.3945C 258.328 62.3945 260.355 61.6914 262.09 60.2852C 263.824 58.8789 264.785 57.1211 264.973 55.0117L 271.125 55.0117C 271.008 57.1914 270.258 59.2656 268.875 61.2344C 267.492 63.2031 265.641 64.7734 263.32 65.9453C 261.023 67.1172 258.586 67.7031 256.008 67.7031C 250.828 67.7031 246.703 65.9805 243.633 62.5352C 240.586 59.0664 239.062 54.332 239.062 48.332L 239.062 47.2422C 239.062 43.5391 239.742 40.2461 241.102 37.3633C 242.461 34.4805 244.406 32.2422 246.938 30.6484C 249.492 29.0547 252.504 28.2578 255.973 28.2578C 260.238 28.2578 263.777 29.5352 266.59 32.0898C 269.426 34.6445 270.938 37.9609 271.125 42.0391L 264.973 42.0391C 264.785 39.5781 263.848 37.5625 262.16 35.9922C 260.496 34.3984 258.434 33.6016 255.973 33.6016C 252.668 33.6016 250.102 34.7969 248.273 37.1875C 246.469 39.5547 245.566 42.9883 245.566 47.4883L 245.566 48.7188C 245.566 53.1016 246.469 56.4766 248.273 58.8438C 250.078 61.2109 252.656 62.3945 256.008 62.3945ZM 284.941 33.5664C 287.824 30.0273 291.574 28.2578 296.191 28.2578C 304.23 28.2578 308.285 32.793 308.355 41.8633L 308.355 67L 301.852 67L 301.852 41.8281C 301.828 39.0859 301.195 37.0586 299.953 35.7461C 298.734 34.4336 296.824 33.7773 294.223 33.7773C 292.113 33.7773 290.262 34.3398 288.668 35.4648C 287.074 36.5898 285.832 38.0664 284.941 39.8945L 284.941 67L 278.438 67L 278.438 13L 284.941 13L 284.941 33.5664Z"/>
<path id="path9_fill" d="M 14.6602 15.8125L 31.3945 57.5781L 48.1289 15.8125L 56.8828 15.8125L 56.8828 67L 50.1328 67L 50.1328 47.0664L 50.7656 25.5508L 33.9609 67L 28.793 67L 12.0234 25.6562L 12.6914 47.0664L 12.6914 67L 5.94141 67L 5.94141 15.8125L 14.6602 15.8125ZM 91.2656 67C 90.8906 66.25 90.5859 64.9141 90.3516 62.9922C 87.3281 66.1328 83.7187 67.7031 79.5234 67.7031C 75.7734 67.7031 72.6914 66.6484 70.2773 64.5391C 67.8867 62.4062 66.6914 59.7109 66.6914 56.4531C 66.6914 52.4922 68.1914 49.4219 71.1914 47.2422C 74.2148 45.0391 78.457 43.9375 83.918 43.9375L 90.2461 43.9375L 90.2461 40.9492C 90.2461 38.6758 89.5664 36.8711 88.207 35.5352C 86.8477 34.1758 84.8437 33.4961 82.1953 33.4961C 79.875 33.4961 77.9297 34.082 76.3594 35.2539C 74.7891 36.4258 74.0039 37.8438 74.0039 39.5078L 67.4648 39.5078C 67.4648 37.6094 68.1328 35.7812 69.4688 34.0234C 70.8281 32.2422 72.6562 30.8359 74.9531 29.8047C 77.2734 28.7734 79.8164 28.2578 82.582 28.2578C 86.9648 28.2578 90.3984 29.3594 92.8828 31.5625C 95.3672 33.7422 96.6562 36.7539 96.75 40.5977L 96.75 58.1055C 96.75 61.5977 97.1953 64.375 98.0859 66.4375L 98.0859 67L 91.2656 67ZM 80.4727 62.043C 82.5117 62.043 84.4453 61.5156 86.2734 60.4609C 88.1016 59.4062 89.4258 58.0352 90.2461 56.3477L 90.2461 48.543L 85.1484 48.543C 77.1797 48.543 73.1953 50.875 73.1953 55.5391C 73.1953 57.5781 73.875 59.1719 75.2344 60.3203C 76.5937 61.4688 78.3398 62.043 80.4727 62.043ZM 115.77 19.75L 115.77 28.9609L 122.871 28.9609L 122.871 33.9883L 115.77 33.9883L 115.77 57.5781C 115.77 59.1016 116.086 60.25 116.719 61.0234C 117.352 61.7734 118.43 62.1484 119.953 62.1484C 120.703 62.1484 121.734 62.0078 123.047 61.7266L 123.047 67C 121.336 67.4687 119.672 67.7031 118.055 67.7031C 115.148 67.7031 112.957 66.8242 111.48 65.0664C 110.004 63.3086 109.266 60.8125 109.266 57.5781L 109.266 33.9883L 102.34 33.9883L 102.34 28.9609L 109.266 28.9609L 109.266 19.75L 115.77 19.75ZM 145.758 62.3945C 148.078 62.3945 150.105 61.6914 151.84 60.2852C 153.574 58.8789 154.535 57.1211 154.723 55.0117L 160.875 55.0117C 160.758 57.1914 160.008 59.2656 158.625 61.2344C 157.242 63.2031 155.391 64.7734 153.07 65.9453C 150.773 67.1172 148.336 67.7031 145.758 67.7031C 140.578 67.7031 136.453 65.9805 133.383 62.5352C 130.336 59.0664 128.812 54.332 128.812 48.332L 128.812 47.2422C 128.812 43.5391 129.492 40.2461 130.852 37.3633C 132.211 34.4805 134.156 32.2422 136.688 30.6484C 139.242 29.0547 142.254 28.2578 145.723 28.2578C 149.988 28.2578 153.527 29.5352 156.34 32.0898C 159.176 34.6445 160.688 37.9609 160.875 42.0391L 154.723 42.0391C 154.535 39.5781 153.598 37.5625 151.91 35.9922C 150.246 34.3984 148.184 33.6016 145.723 33.6016C 142.418 33.6016 139.852 34.7969 138.023 37.1875C 136.219 39.5547 135.316 42.9883 135.316 47.4883L 135.316 48.7188C 135.316 53.1016 136.219 56.4766 138.023 58.8438C 139.828 61.2109 142.406 62.3945 145.758 62.3945ZM 174.691 33.5664C 177.574 30.0273 181.324 28.2578 185.941 28.2578C 193.98 28.2578 198.035 32.793 198.105 41.8633L 198.105 67L 191.602 67L 191.602 41.8281C 191.578 39.0859 190.945 37.0586 189.703 35.7461C 188.484 34.4336 186.574 33.7773 183.973 33.7773C 181.863 33.7773 180.012 34.3398 178.418 35.4648C 176.824 36.5898 175.582 38.0664 174.691 39.8945L 174.691 67L 168.188 67L 168.188 13L 174.691 13L 174.691 33.5664Z"/>
</defs>
</svg>
