<svg width="908" height="740" viewBox="0 0 908 740" version="1.1" xmlns="http://www.w3.org/2000/svg" xmlns:xlink="http://www.w3.org/1999/xlink" xmlns:figma="http://www.figma.com/figma/ns">
<title>binary_search_alt2</title>
<desc>Created using Figma</desc>
<g id="Canvas" transform="translate(364 157)" figma:type="canvas">
<g id="Rectangle" figma:type="rounded-rectangle">
<use xlink:href="#path0_fill" transform="translate(44 -157)" fill="#EB5757"/>
</g>
<g id="62" figma:type="text">
<use xlink:href="#path1_fill" transform="translate(73 -128)" fill="#F2F2F2"/>
</g>
<g id="Rectangle" figma:type="rounded-rectangle">
<use xlink:href="#path0_fill" transform="translate(-56 -157)" fill="#6FCF97"/>
</g>
<g id="36" figma:type="text">
<use xlink:href="#path2_fill" transform="translate(-26 -128)" fill="#F2F2F2"/>
</g>
<g id="Rectangle" figma:type="rounded-rectangle">
<use xlink:href="#path0_fill" transform="translate(144 -157)" fill="#6FCF97"/>
</g>
<g id="73" figma:type="text">
<use xlink:href="#path3_fill" transform="translate(163 -128)" fill="#F2F2F2"/>
</g>
<g id="Rectangle" figma:type="rounded-rectangle">
<use xlink:href="#path0_fill" transform="translate(244 -157)" fill="#6FCF97"/>
</g>
<g id="81" figma:type="text">
<use xlink:href="#path4_fill" transform="translate(273 -128)" fill="#F2F2F2"/>
</g>
<g id="Rectangle" figma:type="rounded-rectangle">
<use xlink:href="#path0_fill" transform="translate(-155 -157)" fill="#6FCF97"/>
</g>
<g id="25" figma:type="text">
<use xlink:href="#path5_fill" transform="translate(-126 -128)" fill="#F2F2F2"/>
</g>
<g id="Rectangle" figma:type="rounded-rectangle">
<use xlink:href="#path0_fill" transform="translate(344 -157)" fill="#6FCF97"/>
</g>
<g id="91" figma:type="text">
<use xlink:href="#path6_fill" transform="translate(373 -128)" fill="#F2F2F2"/>
</g>
<g id="Rectangle" figma:type="rounded-rectangle">
<use xlink:href="#path0_fill" transform="translate(444 -157)" fill="#6FCF97"/>
</g>
<g id="101" figma:type="text">
<use xlink:href="#path7_fill" transform="translate(463 -128)" fill="#F2F2F2"/>
</g>
<g id="Rectangle" figma:type="rounded-rectangle">
<use xlink:href="#path0_fill" transform="translate(-255 -157)" fill="#6FCF97"/>
</g>
<g id="16" figma:type="text">
<use xlink:href="#path8_fill" transform="translate(-226 -128)" fill="#F2F2F2"/>
</g>
<g id="Rectangle" figma:type="rounded-rectangle">
<use xlink:href="#path0_fill" transform="translate(-354 -157)" fill="#6FCF97"/>
</g>
<g id="1" figma:type="text">
<use xlink:href="#path9_fill" transform="translate(-314 -128)" fill="#F2F2F2"/>
</g>
<g id="Rectangle" figma:type="rounded-rectangle">
<use xlink:href="#path0_fill" transform="translate(34 148)" fill="#C4C4C4"/>
</g>
<g id="62" figma:type="text">
<use xlink:href="#path1_fill" transform="translate(63 177)" fill="#333333"/>
</g>
<g id="Rectangle" figma:type="rounded-rectangle">
<use xlink:href="#path0_fill" transform="translate(-66 148)" fill="#C4C4C4"/>
</g>
<g id="36" figma:type="text">
<use xlink:href="#path2_fill" transform="translate(-36 177)" fill="#333333"/>
</g>
<g id="Rectangle" figma:type="rounded-rectangle">
<use xlink:href="#path0_fill" transform="translate(134 148)" fill="#6FCF97"/>
</g>
<g id="73" figma:type="text">
<use xlink:href="#path3_fill" transform="translate(164 176)" fill="#F2F2F2"/>
</g>
<g id="Rectangle" figma:type="rounded-rectangle">
<use xlink:href="#path0_fill" transform="translate(234 148)" fill="#EB5757"/>
</g>
<g id="81" figma:type="text">
<use xlink:href="#path4_fill" transform="translate(263 177)" fill="#F2F2F2"/>
</g>
<g id="Rectangle" figma:type="rounded-rectangle">
<use xlink:href="#path0_fill" transform="translate(-165 148)" fill="#C4C4C4"/>
</g>
<g id="25" figma:type="text">
<use xlink:href="#path5_fill" transform="translate(-136 177)" fill="#333333"/>
</g>
<g id="Rectangle" figma:type="rounded-rectangle">
<use xlink:href="#path0_fill" transform="translate(334 148)" fill="#6FCF97"/>
</g>
<g id="91" figma:type="text">
<use xlink:href="#path6_fill" transform="translate(363 177)" fill="#F2F2F2"/>
</g>
<g id="Rectangle" figma:type="rounded-rectangle">
<use xlink:href="#path0_fill" transform="translate(434 148)" fill="#6FCF97"/>
</g>
<g id="101" figma:type="text">
<use xlink:href="#path7_fill" transform="translate(453 177)" fill="#F2F2F2"/>
</g>
<g id="Rectangle" figma:type="rounded-rectangle">
<use xlink:href="#path0_fill" transform="translate(-265 148)" fill="#C4C4C4"/>
</g>
<g id="16" figma:type="text">
<use xlink:href="#path8_fill" transform="translate(-236 177)" fill="#333333"/>
</g>
<g id="Rectangle" figma:type="rounded-rectangle">
<use xlink:href="#path0_fill" transform="translate(-364 148)" fill="#C4C4C4"/>
</g>
<g id="1" figma:type="text">
<use xlink:href="#path9_fill" transform="translate(-324 177)" fill="#333333"/>
</g>
<g id="Rectangle" figma:type="rounded-rectangle">
<use xlink:href="#path0_fill" transform="translate(34 422)" fill="#C4C4C4"/>
</g>
<g id="62" figma:type="text">
<use xlink:href="#path1_fill" transform="translate(63 451)" fill="#333333"/>
</g>
<g id="Rectangle" figma:type="rounded-rectangle">
<use xlink:href="#path0_fill" transform="translate(-66 422)" fill="#C4C4C4"/>
</g>
<g id="36" figma:type="text">
<use xlink:href="#path2_fill" transform="translate(-36 451)" fill="#333333"/>
</g>
<g id="Rectangle" figma:type="rounded-rectangle">
<use xlink:href="#path0_fill" transform="translate(134 422)" fill="#EB5757"/>
</g>
<g id="73" figma:type="text">
<use xlink:href="#path3_fill" transform="translate(164 450)" fill="#F2F2F2"/>
</g>
<g id="Rectangle" figma:type="rounded-rectangle">
<use xlink:href="#path0_fill" transform="translate(234 422)" fill="#C4C4C4"/>
</g>
<g id="81" figma:type="text">
<use xlink:href="#path4_fill" transform="translate(263 451)" fill="#333333"/>
</g>
<g id="Rectangle" figma:type="rounded-rectangle">
<use xlink:href="#path0_fill" transform="translate(-165 422)" fill="#C4C4C4"/>
</g>
<g id="25" figma:type="text">
<use xlink:href="#path5_fill" transform="translate(-136 451)" fill="#333333"/>
</g>
<g id="Rectangle" figma:type="rounded-rectangle">
<use xlink:href="#path0_fill" transform="translate(334 422)" fill="#C4C4C4"/>
</g>
<g id="91" figma:type="text">
<use xlink:href="#path6_fill" transform="translate(363 451)" fill="#333333"/>
</g>
<g id="Rectangle" figma:type="rounded-rectangle">
<use xlink:href="#path0_fill" transform="translate(434 422)" fill="#C4C4C4"/>
</g>
<g id="101" figma:type="text">
<use xlink:href="#path7_fill" transform="translate(453 451)" fill="#333333"/>
</g>
<g id="Rectangle" figma:type="rounded-rectangle">
<use xlink:href="#path0_fill" transform="translate(-265 422)" fill="#C4C4C4"/>
</g>
<g id="16" figma:type="text">
<use xlink:href="#path8_fill" transform="translate(-236 451)" fill="#333333"/>
</g>
<g id="Rectangle" figma:type="rounded-rectangle">
<use xlink:href="#path0_fill" transform="translate(-364 422)" fill="#C4C4C4"/>
</g>
<g id="1" figma:type="text">
<use xlink:href="#path9_fill" transform="translate(-324 451)" fill="#333333"/>
</g>
<g id="Arrow" figma:type="vector">
<use xlink:href="#path10_stroke" transform="matrix(6.12323e-17 1 -1 6.12323e-17 94 27)"/>
</g>
<g id="Arrow" figma:type="vector">
<use xlink:href="#path10_stroke" transform="matrix(6.12323e-17 1 -1 6.12323e-17 81 284)"/>
</g>
<g id="i" figma:type="text">
<use xlink:href="#path11_fill" transform="translate(-312 -42)"/>
</g>
<g id="z" figma:type="text">
<use xlink:href="#path12_fill" transform="translate(494 -42)"/>
</g>
<g id="m" figma:type="text">
<use xlink:href="#path13_fill" transform="translate(78 -47)"/>
</g>
<g id="i" figma:type="text">
<use xlink:href="#path11_fill" transform="translate(171 282)"/>
</g>
<g id="m" figma:type="text">
<use xlink:href="#path13_fill" transform="translate(273 280)"/>
</g>
<g id="z" figma:type="text">
<use xlink:href="#path12_fill" transform="translate(475 282)"/>
</g>
<g id="i,m,z" figma:type="text">
<use xlink:href="#path14_fill" transform="translate(150 544)"/>
</g>
</g>
<defs>
<path id="path0_fill" d="M 0 0L 100 0L 100 100L 0 100L 0 0Z"/>
<path id="path1_fill" d="M 14.8887 7.38867L 14.8887 10.1484L 14.291 10.1484C 11.7598 10.1953 9.74414 10.9453 8.24414 12.3984C 6.74414 13.8516 5.87695 15.8965 5.64258 18.5332C 6.99023 16.9863 8.83008 16.2129 11.1621 16.2129C 13.3887 16.2129 15.1641 16.998 16.4883 18.5684C 17.8242 20.1387 18.4922 22.166 18.4922 24.6504C 18.4922 27.2871 17.7715 29.3965 16.3301 30.9785C 14.9004 32.5605 12.9785 33.3516 10.5645 33.3516C 8.11523 33.3516 6.12891 32.4141 4.60547 30.5391C 3.08203 28.6523 2.32031 26.2266 2.32031 23.2617L 2.32031 22.0137C 2.32031 17.3027 3.32227 13.7051 5.32617 11.2207C 7.3418 8.72461 10.3359 7.44727 14.3086 7.38867L 14.8887 7.38867ZM 10.6172 18.9199C 9.50391 18.9199 8.47852 19.2539 7.54102 19.9219C 6.60352 20.5898 5.95312 21.4277 5.58984 22.4355L 5.58984 23.6309C 5.58984 25.7402 6.06445 27.4395 7.01367 28.7285C 7.96289 30.0176 9.14648 30.6621 10.5645 30.6621C 12.0293 30.6621 13.1777 30.123 14.0098 29.0449C 14.8535 27.9668 15.2754 26.5547 15.2754 24.8086C 15.2754 23.0508 14.8477 21.6328 13.9922 20.5547C 13.1484 19.4648 12.0234 18.9199 10.6172 18.9199ZM 39.1113 33L 22.3418 33L 22.3418 30.6621L 31.2012 20.8184C 32.5137 19.3301 33.416 18.123 33.9082 17.1973C 34.4121 16.2598 34.6641 15.293 34.6641 14.2969C 34.6641 12.9609 34.2598 11.8652 33.4512 11.0098C 32.6426 10.1543 31.5645 9.72656 30.2168 9.72656C 28.5996 9.72656 27.3398 10.1895 26.4375 11.1152C 25.5469 12.0293 25.1016 13.3066 25.1016 14.9473L 21.8496 14.9473C 21.8496 12.5918 22.6055 10.6875 24.1172 9.23438C 25.6406 7.78125 27.6738 7.05469 30.2168 7.05469C 32.5957 7.05469 34.4766 7.68164 35.8594 8.93555C 37.2422 10.1777 37.9336 11.8359 37.9336 13.9102C 37.9336 16.4297 36.3281 19.4297 33.1172 22.9102L 26.2617 30.3457L 39.1113 30.3457L 39.1113 33Z"/>
<path id="path2_fill" d="M 6.85547 18.6211L 9.29883 18.6211C 10.834 18.5977 12.041 18.1934 12.9199 17.4082C 13.7988 16.623 14.2383 15.5625 14.2383 14.2266C 14.2383 11.2266 12.7441 9.72656 9.75586 9.72656C 8.34961 9.72656 7.22461 10.1309 6.38086 10.9395C 5.54883 11.7363 5.13281 12.7969 5.13281 14.1211L 1.88086 14.1211C 1.88086 12.0937 2.61914 10.4121 4.0957 9.07617C 5.58398 7.72852 7.4707 7.05469 9.75586 7.05469C 12.1699 7.05469 14.0625 7.69336 15.4336 8.9707C 16.8047 10.248 17.4902 12.0234 17.4902 14.2969C 17.4902 15.4102 17.127 16.4883 16.4004 17.5312C 15.6855 18.5742 14.707 19.3535 13.4648 19.8691C 14.8711 20.3145 15.9551 21.0527 16.7168 22.084C 17.4902 23.1152 17.877 24.375 17.877 25.8633C 17.877 28.1602 17.127 29.9824 15.627 31.3301C 14.127 32.6777 12.1758 33.3516 9.77344 33.3516C 7.37109 33.3516 5.41406 32.7012 3.90234 31.4004C 2.40234 30.0996 1.65234 28.3828 1.65234 26.25L 4.92188 26.25C 4.92188 27.5977 5.36133 28.6758 6.24023 29.4844C 7.11914 30.293 8.29688 30.6973 9.77344 30.6973C 11.3437 30.6973 12.5449 30.2871 13.377 29.4668C 14.209 28.6465 14.625 27.4688 14.625 25.9336C 14.625 24.4453 14.168 23.3027 13.2539 22.5059C 12.3398 21.709 11.0215 21.2988 9.29883 21.2754L 6.85547 21.2754L 6.85547 18.6211ZM 35.1035 7.38867L 35.1035 10.1484L 34.5059 10.1484C 31.9746 10.1953 29.959 10.9453 28.459 12.3984C 26.959 13.8516 26.0918 15.8965 25.8574 18.5332C 27.2051 16.9863 29.0449 16.2129 31.377 16.2129C 33.6035 16.2129 35.3789 16.998 36.7031 18.5684C 38.0391 20.1387 38.707 22.166 38.707 24.6504C 38.707 27.2871 37.9863 29.3965 36.5449 30.9785C 35.1152 32.5605 33.1934 33.3516 30.7793 33.3516C 28.3301 33.3516 26.3437 32.4141 24.8203 30.5391C 23.2969 28.6523 22.5352 26.2266 22.5352 23.2617L 22.5352 22.0137C 22.5352 17.3027 23.5371 13.7051 25.541 11.2207C 27.5566 8.72461 30.5508 7.44727 34.5234 7.38867L 35.1035 7.38867ZM 30.832 18.9199C 29.7188 18.9199 28.6934 19.2539 27.7559 19.9219C 26.8184 20.5898 26.168 21.4277 25.8047 22.4355L 25.8047 23.6309C 25.8047 25.7402 26.2793 27.4395 27.2285 28.7285C 28.1777 30.0176 29.3613 30.6621 30.7793 30.6621C 32.2441 30.6621 33.3926 30.123 34.2246 29.0449C 35.0684 27.9668 35.4902 26.5547 35.4902 24.8086C 35.4902 23.0508 35.0625 21.6328 34.207 20.5547C 33.3633 19.4648 32.2383 18.9199 30.832 18.9199Z"/>
<path id="path3_fill" d="M 18.6504 9.23438L 8.05078 33L 4.64062 33L 15.2051 10.0781L 1.35352 10.0781L 1.35352 7.40625L 18.6504 7.40625L 18.6504 9.23438ZM 27.0703 18.6211L 29.5137 18.6211C 31.0488 18.5977 32.2559 18.1934 33.1348 17.4082C 34.0137 16.623 34.4531 15.5625 34.4531 14.2266C 34.4531 11.2266 32.959 9.72656 29.9707 9.72656C 28.5645 9.72656 27.4395 10.1309 26.5957 10.9395C 25.7637 11.7363 25.3477 12.7969 25.3477 14.1211L 22.0957 14.1211C 22.0957 12.0937 22.834 10.4121 24.3105 9.07617C 25.7988 7.72852 27.6855 7.05469 29.9707 7.05469C 32.3848 7.05469 34.2773 7.69336 35.6484 8.9707C 37.0195 10.248 37.7051 12.0234 37.7051 14.2969C 37.7051 15.4102 37.3418 16.4883 36.6152 17.5312C 35.9004 18.5742 34.9219 19.3535 33.6797 19.8691C 35.0859 20.3145 36.1699 21.0527 36.9316 22.084C 37.7051 23.1152 38.0918 24.375 38.0918 25.8633C 38.0918 28.1602 37.3418 29.9824 35.8418 31.3301C 34.3418 32.6777 32.3906 33.3516 29.9883 33.3516C 27.5859 33.3516 25.6289 32.7012 24.1172 31.4004C 22.6172 30.0996 21.8672 28.3828 21.8672 26.25L 25.1367 26.25C 25.1367 27.5977 25.5762 28.6758 26.4551 29.4844C 27.334 30.293 28.5117 30.6973 29.9883 30.6973C 31.5586 30.6973 32.7598 30.2871 33.5918 29.4668C 34.4238 28.6465 34.8398 27.4688 34.8398 25.9336C 34.8398 24.4453 34.3828 23.3027 33.4688 22.5059C 32.5547 21.709 31.2363 21.2988 29.5137 21.2754L 27.0703 21.2754L 27.0703 18.6211Z"/>
<path id="path4_fill" d="M 17.6484 14.0859C 17.6484 15.3633 17.3086 16.5 16.6289 17.4961C 15.9609 18.4922 15.0527 19.2715 13.9043 19.834C 15.2402 20.4082 16.2949 21.2461 17.0684 22.3477C 17.8535 23.4492 18.2461 24.6973 18.2461 26.0918C 18.2461 28.3066 17.4961 30.0703 15.9961 31.3828C 14.5078 32.6953 12.5449 33.3516 10.1074 33.3516C 7.64648 33.3516 5.67187 32.6953 4.18359 31.3828C 2.70703 30.0586 1.96875 28.2949 1.96875 26.0918C 1.96875 24.709 2.34375 23.4609 3.09375 22.3477C 3.85547 21.2344 4.9043 20.3906 6.24023 19.8164C 5.10352 19.2539 4.20703 18.4746 3.55078 17.4785C 2.89453 16.4824 2.56641 15.3516 2.56641 14.0859C 2.56641 11.9297 3.25781 10.2188 4.64062 8.95312C 6.02344 7.6875 7.8457 7.05469 10.1074 7.05469C 12.3574 7.05469 14.1738 7.6875 15.5566 8.95312C 16.9512 10.2188 17.6484 11.9297 17.6484 14.0859ZM 14.9941 26.0215C 14.9941 24.5918 14.5371 23.4258 13.623 22.5234C 12.7207 21.6211 11.5371 21.1699 10.0723 21.1699C 8.60742 21.1699 7.42969 21.6152 6.53906 22.5059C 5.66016 23.3965 5.2207 24.5684 5.2207 26.0215C 5.2207 27.4746 5.64844 28.6172 6.50391 29.4492C 7.37109 30.2812 8.57227 30.6973 10.1074 30.6973C 11.6309 30.6973 12.8262 30.2812 13.6934 29.4492C 14.5605 28.6055 14.9941 27.4629 14.9941 26.0215ZM 10.1074 9.72656C 8.83008 9.72656 7.79297 10.125 6.99609 10.9219C 6.21094 11.707 5.81836 12.7793 5.81836 14.1387C 5.81836 15.4395 6.20508 16.4941 6.97852 17.3027C 7.76367 18.0996 8.80664 18.498 10.1074 18.498C 11.4082 18.498 12.4453 18.0996 13.2188 17.3027C 14.0039 16.4941 14.3965 15.4395 14.3965 14.1387C 14.3965 12.8379 13.9922 11.7773 13.1836 10.957C 12.375 10.1367 11.3496 9.72656 10.1074 9.72656ZM 33.0293 33L 29.7598 33L 29.7598 11.3262L 23.2031 13.7344L 23.2031 10.7812L 32.5195 7.2832L 33.0293 7.2832L 33.0293 33Z"/>
<path id="path5_fill" d="M 18.8965 33L 2.12695 33L 2.12695 30.6621L 10.9863 20.8184C 12.2988 19.3301 13.2012 18.123 13.6934 17.1973C 14.1973 16.2598 14.4492 15.293 14.4492 14.2969C 14.4492 12.9609 14.0449 11.8652 13.2363 11.0098C 12.4277 10.1543 11.3496 9.72656 10.002 9.72656C 8.38477 9.72656 7.125 10.1895 6.22266 11.1152C 5.33203 12.0293 4.88672 13.3066 4.88672 14.9473L 1.63477 14.9473C 1.63477 12.5918 2.39062 10.6875 3.90234 9.23438C 5.42578 7.78125 7.45898 7.05469 10.002 7.05469C 12.3809 7.05469 14.2617 7.68164 15.6445 8.93555C 17.0273 10.1777 17.7188 11.8359 17.7188 13.9102C 17.7188 16.4297 16.1133 19.4297 12.9023 22.9102L 6.04688 30.3457L 18.8965 30.3457L 18.8965 33ZM 23.8359 20.168L 25.1367 7.40625L 38.25 7.40625L 38.25 10.4121L 27.8965 10.4121L 27.123 17.3906C 28.377 16.6523 29.8008 16.2832 31.3945 16.2832C 33.7266 16.2832 35.5781 17.0566 36.9492 18.6035C 38.3203 20.1387 39.0059 22.2188 39.0059 24.8438C 39.0059 27.4805 38.291 29.5605 36.8613 31.084C 35.4434 32.5957 33.457 33.3516 30.9023 33.3516C 28.6406 33.3516 26.7949 32.7246 25.3652 31.4707C 23.9355 30.2168 23.1211 28.4824 22.9219 26.2676L 25.998 26.2676C 26.1973 27.7324 26.7188 28.8398 27.5625 29.5898C 28.4062 30.3281 29.5195 30.6973 30.9023 30.6973C 32.4141 30.6973 33.5977 30.1816 34.4531 29.1504C 35.3203 28.1191 35.7539 26.6953 35.7539 24.8789C 35.7539 23.168 35.2852 21.7969 34.3477 20.7656C 33.4219 19.7227 32.1855 19.2012 30.6387 19.2012C 29.2207 19.2012 28.1074 19.5117 27.2988 20.1328L 26.4375 20.8359L 23.8359 20.168Z"/>
<path id="path6_fill" d="M 14.5898 21.75C 13.9102 22.5586 13.0957 23.209 12.1465 23.7012C 11.209 24.1934 10.1777 24.4395 9.05273 24.4395C 7.57617 24.4395 6.28711 24.0762 5.18555 23.3496C 4.0957 22.623 3.25195 21.6035 2.6543 20.291C 2.05664 18.9668 1.75781 17.5078 1.75781 15.9141C 1.75781 14.2031 2.08008 12.6621 2.72461 11.291C 3.38086 9.91992 4.30664 8.87109 5.50195 8.14453C 6.69727 7.41797 8.0918 7.05469 9.68555 7.05469C 12.2168 7.05469 14.209 8.00391 15.6621 9.90234C 17.127 11.7891 17.8594 14.3672 17.8594 17.6367L 17.8594 18.5859C 17.8594 23.5664 16.875 27.2051 14.9062 29.502C 12.9375 31.7871 9.9668 32.959 5.99414 33.0176L 5.36133 33.0176L 5.36133 30.2754L 6.04688 30.2754C 8.73047 30.2285 10.793 29.5313 12.2344 28.1836C 13.6758 26.8242 14.4609 24.6797 14.5898 21.75ZM 9.58008 21.75C 10.6699 21.75 11.6719 21.416 12.5859 20.748C 13.5117 20.0801 14.1855 19.2539 14.6074 18.2695L 14.6074 16.9688C 14.6074 14.8359 14.1445 13.1016 13.2188 11.7656C 12.293 10.4297 11.1211 9.76172 9.70312 9.76172C 8.27344 9.76172 7.125 10.3125 6.25781 11.4141C 5.39062 12.5039 4.95703 13.9453 4.95703 15.7383C 4.95703 17.4844 5.37305 18.9258 6.20508 20.0625C 7.04883 21.1875 8.17383 21.75 9.58008 21.75ZM 33.0293 33L 29.7598 33L 29.7598 11.3262L 23.2031 13.7344L 23.2031 10.7812L 32.5195 7.2832L 33.0293 7.2832L 33.0293 33Z"/>
<path id="path7_fill" d="M 12.8145 33L 9.54492 33L 9.54492 11.3262L 2.98828 13.7344L 2.98828 10.7812L 12.3047 7.2832L 12.8145 7.2832L 12.8145 33ZM 38.3906 22.084C 38.3906 25.8926 37.7402 28.7227 36.4395 30.5742C 35.1387 32.4258 33.1055 33.3516 30.3398 33.3516C 27.6094 33.3516 25.5879 32.4492 24.2754 30.6445C 22.9629 28.8281 22.2832 26.1211 22.2363 22.5234L 22.2363 18.1816C 22.2363 14.4199 22.8867 11.625 24.1875 9.79688C 25.4883 7.96875 27.5273 7.05469 30.3047 7.05469C 33.0586 7.05469 35.0859 7.93945 36.3867 9.70898C 37.6875 11.4668 38.3555 14.1855 38.3906 17.8652L 38.3906 22.084ZM 35.1387 17.6367C 35.1387 14.8828 34.752 12.8789 33.9785 11.625C 33.2051 10.3594 31.9805 9.72656 30.3047 9.72656C 28.6406 9.72656 27.4277 10.3535 26.666 11.6074C 25.9043 12.8613 25.5117 14.7891 25.4883 17.3906L 25.4883 22.5938C 25.4883 25.3594 25.8867 27.4043 26.6836 28.7285C 27.4922 30.041 28.7109 30.6973 30.3398 30.6973C 31.9453 30.6973 33.1348 30.0762 33.9082 28.834C 34.6934 27.5918 35.1035 25.6348 35.1387 22.9629L 35.1387 17.6367ZM 53.2441 33L 49.9746 33L 49.9746 11.3262L 43.418 13.7344L 43.418 10.7812L 52.7344 7.2832L 53.2441 7.2832L 53.2441 33Z"/>
<path id="path8_fill" d="M 12.8145 33L 9.54492 33L 9.54492 11.3262L 2.98828 13.7344L 2.98828 10.7812L 12.3047 7.2832L 12.8145 7.2832L 12.8145 33ZM 35.1035 7.38867L 35.1035 10.1484L 34.5059 10.1484C 31.9746 10.1953 29.959 10.9453 28.459 12.3984C 26.959 13.8516 26.0918 15.8965 25.8574 18.5332C 27.2051 16.9863 29.0449 16.2129 31.377 16.2129C 33.6035 16.2129 35.3789 16.998 36.7031 18.5684C 38.0391 20.1387 38.707 22.166 38.707 24.6504C 38.707 27.2871 37.9863 29.3965 36.5449 30.9785C 35.1152 32.5605 33.1934 33.3516 30.7793 33.3516C 28.3301 33.3516 26.3437 32.4141 24.8203 30.5391C 23.2969 28.6523 22.5352 26.2266 22.5352 23.2617L 22.5352 22.0137C 22.5352 17.3027 23.5371 13.7051 25.541 11.2207C 27.5566 8.72461 30.5508 7.44727 34.5234 7.38867L 35.1035 7.38867ZM 30.832 18.9199C 29.7188 18.9199 28.6934 19.2539 27.7559 19.9219C 26.8184 20.5898 26.168 21.4277 25.8047 22.4355L 25.8047 23.6309C 25.8047 25.7402 26.2793 27.4395 27.2285 28.7285C 28.1777 30.0176 29.3613 30.6621 30.7793 30.6621C 32.2441 30.6621 33.3926 30.123 34.2246 29.0449C 35.0684 27.9668 35.4902 26.5547 35.4902 24.8086C 35.4902 23.0508 35.0625 21.6328 34.207 20.5547C 33.3633 19.4648 32.2383 18.9199 30.832 18.9199Z"/>
<path id="path9_fill" d="M 12.8145 33L 9.54492 33L 9.54492 11.3262L 2.98828 13.7344L 2.98828 10.7812L 12.3047 7.2832L 12.8145 7.2832L 12.8145 33Z"/>
<path id="path10_stroke" d="M 78.3536 0.353553C 78.5488 0.158291 78.5488 -0.158291 78.3536 -0.353553L 75.1716 -3.53553C 74.9763 -3.7308 74.6597 -3.7308 74.4645 -3.53553C 74.2692 -3.34027 74.2692 -3.02369 74.4645 -2.82843L 77.2929 0L 74.4645 2.82843C 74.2692 3.02369 74.2692 3.34027 74.4645 3.53553C 74.6597 3.7308 74.9763 3.7308 75.1716 3.53553L 78.3536 0.353553ZM 0 0.5L 78 0.5L 78 -0.5L 0 -0.5L 0 0.5Z"/>
<path id="path11_fill" d="M 5.99414 33L 2.74219 33L 2.74219 13.9805L 5.99414 13.9805L 5.99414 33ZM 2.47852 8.93555C 2.47852 8.4082 2.63672 7.96289 2.95312 7.59961C 3.28125 7.23633 3.76172 7.05469 4.39453 7.05469C 5.02734 7.05469 5.50781 7.23633 5.83594 7.59961C 6.16406 7.96289 6.32812 8.4082 6.32812 8.93555C 6.32812 9.46289 6.16406 9.90234 5.83594 10.2539C 5.50781 10.6055 5.02734 10.7812 4.39453 10.7812C 3.76172 10.7812 3.28125 10.6055 2.95312 10.2539C 2.63672 9.90234 2.47852 9.46289 2.47852 8.93555Z"/>
<path id="path12_fill" d="M 5.51953 30.3457L 16.6465 30.3457L 16.6465 33L 1.54688 33L 1.54688 30.6094L 12.041 16.6699L 1.70508 16.6699L 1.70508 13.9805L 16.1191 13.9805L 16.1191 16.2832L 5.51953 30.3457Z"/>
<path id="path13_fill" d="M 5.51953 13.9805L 5.60742 16.0898C 7.00195 14.4492 8.88281 13.6289 11.25 13.6289C 13.9102 13.6289 15.7207 14.6484 16.6816 16.6875C 17.3145 15.7734 18.1348 15.0352 19.1426 14.4727C 20.1621 13.9102 21.3633 13.6289 22.7461 13.6289C 26.918 13.6289 29.0391 15.8379 29.1094 20.2559L 29.1094 33L 25.8574 33L 25.8574 20.4492C 25.8574 19.0898 25.5469 18.0762 24.9258 17.4082C 24.3047 16.7285 23.2617 16.3887 21.7969 16.3887C 20.5898 16.3887 19.5879 16.752 18.791 17.4785C 17.9941 18.1934 17.5312 19.1602 17.4023 20.3789L 17.4023 33L 14.1328 33L 14.1328 20.5371C 14.1328 17.7715 12.7793 16.3887 10.0723 16.3887C 7.93945 16.3887 6.48047 17.2969 5.69531 19.1133L 5.69531 33L 2.44336 33L 2.44336 13.9805L 5.51953 13.9805Z"/>
<path id="path14_fill" d="M 5.99414 33L 2.74219 33L 2.74219 13.9805L 5.99414 13.9805L 5.99414 33ZM 2.47852 8.93555C 2.47852 8.4082 2.63672 7.96289 2.95312 7.59961C 3.28125 7.23633 3.76172 7.05469 4.39453 7.05469C 5.02734 7.05469 5.50781 7.23633 5.83594 7.59961C 6.16406 7.96289 6.32812 8.4082 6.32812 8.93555C 6.32812 9.46289 6.16406 9.90234 5.83594 10.2539C 5.50781 10.6055 5.02734 10.7812 4.39453 10.7812C 3.76172 10.7812 3.28125 10.6055 2.95312 10.2539C 2.63672 9.90234 2.47852 9.46289 2.47852 8.93555ZM 11.1094 38.0977L 9.26367 36.832C 10.3652 35.2969 10.9395 33.7148 10.9863 32.0859L 10.9863 29.1504L 14.168 29.1504L 14.168 31.6992C 14.168 32.8828 13.875 34.0664 13.2891 35.25C 12.7148 36.4336 11.9883 37.3828 11.1094 38.0977ZM 21.3398 13.9805L 21.4277 16.0898C 22.8223 14.4492 24.7031 13.6289 27.0703 13.6289C 29.7305 13.6289 31.541 14.6484 32.502 16.6875C 33.1348 15.7734 33.9551 15.0352 34.9629 14.4727C 35.9824 13.9102 37.1836 13.6289 38.5664 13.6289C 42.7383 13.6289 44.8594 15.8379 44.9297 20.2559L 44.9297 33L 41.6777 33L 41.6777 20.4492C 41.6777 19.0898 41.3672 18.0762 40.7461 17.4082C 40.125 16.7285 39.082 16.3887 37.6172 16.3887C 36.4102 16.3887 35.4082 16.752 34.6113 17.4785C 33.8145 18.1934 33.3516 19.1602 33.2227 20.3789L 33.2227 33L 29.9531 33L 29.9531 20.5371C 29.9531 17.7715 28.5996 16.3887 25.8926 16.3887C 23.7598 16.3887 22.3008 17.2969 21.5156 19.1133L 21.5156 33L 18.2637 33L 18.2637 13.9805L 21.3398 13.9805ZM 49.7461 38.0977L 47.9004 36.832C 49.002 35.2969 49.5762 33.7148 49.623 32.0859L 49.623 29.1504L 52.8047 29.1504L 52.8047 31.6992C 52.8047 32.8828 52.5117 34.0664 51.9258 35.25C 51.3516 36.4336 50.625 37.3828 49.7461 38.0977ZM 59.9766 30.3457L 71.1035 30.3457L 71.1035 33L 56.0039 33L 56.0039 30.6094L 66.498 16.6699L 56.1621 16.6699L 56.1621 13.9805L 70.5762 13.9805L 70.5762 16.2832L 59.9766 30.3457Z"/>
</defs>
</svg>
