<svg width="1392" height="762" viewBox="0 0 1392 762" version="1.1" xmlns="http://www.w3.org/2000/svg" xmlns:xlink="http://www.w3.org/1999/xlink">
<title>Frame</title>
<desc>Created using Figma</desc>
<g id="Canvas" transform="matrix(2 0 0 2 1234 646)">
<clipPath id="clip-0" clip-rule="evenodd">
<path d="M -617 -323L 79 -323L 79 58L -617 58L -617 -323Z" fill="#FFFFFF"/>
</clipPath>
<g id="Frame" clip-path="url(#clip-0)">
<path d="M -617 -323L 79 -323L 79 58L -617 58L -617 -323Z" fill="#FFFFFF"/>
<g id="Vector">
<use xlink:href="#path0_stroke" transform="translate(-294 -271)"/>
</g>
<g id="Rectangle">
<use xlink:href="#path1_fill" transform="translate(-420 -284)" fill="#F2C94C" fill-opacity="0.39"/>
<use xlink:href="#path2_stroke" transform="translate(-420 -284)"/>
</g>
<g id="customer_id">
<use xlink:href="#path3_fill" transform="translate(-417.136 -279)"/>
</g>
<g id="customer">
<use xlink:href="#path4_fill" transform="translate(-417 -306)"/>
</g>
<g id="Rectangle">
<use xlink:href="#path2_stroke" transform="translate(-420 -259)"/>
</g>
<g id="first_name">
<use xlink:href="#path5_fill" transform="translate(-417.136 -254)"/>
</g>
<g id="Rectangle">
<use xlink:href="#path2_stroke" transform="translate(-420 -234)"/>
</g>
<g id="last_name">
<use xlink:href="#path6_fill" transform="translate(-417.136 -229)"/>
</g>
<g id="Rectangle">
<use xlink:href="#path2_stroke" transform="translate(-420 -209)"/>
</g>
<g id="company">
<use xlink:href="#path7_fill" transform="translate(-417.136 -204)"/>
</g>
<g id="Rectangle">
<use xlink:href="#path2_stroke" transform="translate(-420 -184)"/>
</g>
<g id="address">
<use xlink:href="#path8_fill" transform="translate(-417.136 -179)"/>
</g>
<g id="Rectangle">
<use xlink:href="#path2_stroke" transform="translate(-420 -159)"/>
</g>
<g id="city">
<use xlink:href="#path9_fill" transform="translate(-417.136 -154)"/>
</g>
<g id="Rectangle">
<use xlink:href="#path2_stroke" transform="translate(-420 -134)"/>
</g>
<g id="state">
<use xlink:href="#path10_fill" transform="translate(-417.136 -129)"/>
</g>
<g id="Rectangle">
<use xlink:href="#path1_fill" transform="translate(-243 -284)" fill="#F2C94C" fill-opacity="0.39"/>
<use xlink:href="#path2_stroke" transform="translate(-243 -284)"/>
</g>
<g id="wishlist_id">
<use xlink:href="#path11_fill" transform="translate(-240.136 -279)"/>
</g>
<g id="wishlist">
<use xlink:href="#path12_fill" transform="translate(-240 -306)"/>
</g>
<g id="Rectangle">
<use xlink:href="#path2_stroke" transform="translate(-243 -259)"/>
</g>
<g id="customer_id">
<use xlink:href="#path13_fill" transform="translate(-240.136 -254)"/>
</g>
<g id="Rectangle">
<use xlink:href="#path2_stroke" transform="translate(-243 -234)"/>
</g>
<g id="name">
<use xlink:href="#path14_fill" transform="translate(-240.136 -229)"/>
</g>
<g id="Rectangle">
<use xlink:href="#path2_stroke" transform="translate(-420 -109)"/>
</g>
<g id="country">
<use xlink:href="#path15_fill" transform="translate(-417.136 -104)"/>
</g>
<g id="Rectangle">
<use xlink:href="#path2_stroke" transform="translate(-420 -84)"/>
</g>
<g id="postal_code">
<use xlink:href="#path16_fill" transform="translate(-417.136 -79)"/>
</g>
<g id="Rectangle">
<use xlink:href="#path2_stroke" transform="translate(-420 -59)"/>
</g>
<g id="phone">
<use xlink:href="#path17_fill" transform="translate(-417.136 -54)"/>
</g>
<g id="Rectangle">
<use xlink:href="#path2_stroke" transform="translate(-420 -34)"/>
</g>
<g id="fax">
<use xlink:href="#path18_fill" transform="translate(-417.136 -29)"/>
</g>
<g id="Rectangle">
<use xlink:href="#path2_stroke" transform="translate(-420 -9)"/>
</g>
<g id="email">
<use xlink:href="#path19_fill" transform="translate(-417.136 -4)"/>
</g>
<g id="Rectangle">
<use xlink:href="#path2_stroke" transform="translate(-420 16)"/>
</g>
<g id="support_rep_id">
<use xlink:href="#path20_fill" transform="translate(-417.136 21)"/>
</g>
</g>
</g>
<defs>
<path id="path0_stroke" d="M 10 0L 10.6278 -0.778413L 10.353 -1L 10 -1L 10 0ZM 41 25L 40.3722 25.7784L 40.647 26L 41 26L 41 25ZM 0 1L 10 1L 10 -1L 0 -1L 0 1ZM 9.37225 0.778413L 40.3722 25.7784L 41.6278 24.2216L 10.6278 -0.778413L 9.37225 0.778413ZM 41 26L 51 26L 51 24L 41 24L 41 26Z"/>
<path id="path1_fill" d="M 0 0L 126 0L 126 25L 0 25L 0 0Z"/>
<path id="path2_stroke" d="M 0 0L 0 -0.5L -0.5 -0.5L -0.5 0L 0 0ZM 126 0L 126.5 0L 126.5 -0.5L 126 -0.5L 126 0ZM 126 25L 126 25.5L 126.5 25.5L 126.5 25L 126 25ZM 0 25L -0.5 25L -0.5 25.5L 0 25.5L 0 25ZM 0 0.5L 126 0.5L 126 -0.5L 0 -0.5L 0 0.5ZM 125.5 0L 125.5 25L 126.5 25L 126.5 0L 125.5 0ZM 126 24.5L 0 24.5L 0 25.5L 126 25.5L 126 24.5ZM 0.5 25L 0.5 0L -0.5 0L -0.5 25L 0.5 25Z"/>
<path id="path3_fill" d="M 26.3923 12.1045C 26.8435 12.1045 27.2377 11.9678 27.5749 11.6943C 27.9122 11.4209 28.099 11.0791 28.1355 10.6689L 29.3318 10.6689C 29.309 11.0928 29.1631 11.4961 28.8943 11.8789C 28.6254 12.2617 28.2654 12.5671 27.8142 12.7949C 27.3676 13.0228 26.8936 13.1367 26.3923 13.1367C 25.3851 13.1367 24.5831 12.8018 23.9861 12.1318C 23.3936 11.4574 23.0974 10.5368 23.0974 9.37012L 23.0974 9.1582C 23.0974 8.43815 23.2296 7.79785 23.4939 7.2373C 23.7582 6.67676 24.1365 6.24154 24.6286 5.93164C 25.1254 5.62174 25.711 5.4668 26.3855 5.4668C 27.2149 5.4668 27.9031 5.71517 28.4499 6.21191C 29.0014 6.70866 29.2953 7.35352 29.3318 8.14648L 28.1355 8.14648C 28.099 7.66797 27.9167 7.27604 27.5886 6.9707C 27.265 6.66081 26.864 6.50586 26.3855 6.50586C 25.7429 6.50586 25.2439 6.73828 24.8884 7.20312C 24.5375 7.66341 24.362 8.33105 24.362 9.20605L 24.362 9.44531C 24.362 10.2975 24.5375 10.9538 24.8884 11.4141C 25.2393 11.8743 25.7406 12.1045 26.3923 12.1045ZM 35.32 12.2686C 34.8279 12.8473 34.1055 13.1367 33.1531 13.1367C 32.3646 13.1367 31.7631 12.9089 31.3484 12.4531C 30.9382 11.9928 30.7309 11.3138 30.7263 10.416L 30.7263 5.60352L 31.9909 5.60352L 31.9909 10.3818C 31.9909 11.5029 32.4467 12.0635 33.3581 12.0635C 34.3243 12.0635 34.9669 11.7035 35.2859 10.9834L 35.2859 5.60352L 36.5505 5.60352L 36.5505 13L 35.3474 13L 35.32 12.2686ZM 42.7849 11.0381C 42.7849 10.6963 42.655 10.432 42.3952 10.2451C 42.14 10.0537 41.6911 9.88965 41.0486 9.75293C 40.4105 9.61621 39.9024 9.45215 39.5241 9.26074C 39.1504 9.06934 38.8725 8.84147 38.6902 8.57715C 38.5124 8.31283 38.4236 7.99837 38.4236 7.63379C 38.4236 7.02767 38.6788 6.51497 39.1892 6.0957C 39.7042 5.67643 40.3604 5.4668 41.1579 5.4668C 41.9965 5.4668 42.6755 5.68327 43.195 6.11621C 43.7191 6.54915 43.9812 7.10286 43.9812 7.77734L 42.7097 7.77734C 42.7097 7.43099 42.5616 7.13249 42.2654 6.88184C 41.9737 6.63118 41.6046 6.50586 41.1579 6.50586C 40.6976 6.50586 40.3376 6.60612 40.0779 6.80664C 39.8181 7.00716 39.6882 7.26921 39.6882 7.59277C 39.6882 7.89811 39.809 8.12826 40.0505 8.2832C 40.2921 8.43815 40.7273 8.58626 41.3562 8.72754C 41.9896 8.86882 42.5023 9.03743 42.8943 9.2334C 43.2862 9.42936 43.5756 9.66634 43.7624 9.94434C 43.9538 10.2178 44.0495 10.5527 44.0495 10.9492C 44.0495 11.61 43.7852 12.141 43.2566 12.542C 42.7279 12.9385 42.0421 13.1367 41.199 13.1367C 40.6065 13.1367 40.0824 13.0319 39.6267 12.8223C 39.171 12.6126 38.8132 12.321 38.5534 11.9473C 38.2982 11.569 38.1706 11.1611 38.1706 10.7236L 39.4353 10.7236C 39.4581 11.1475 39.6267 11.4847 39.9411 11.7354C 40.2601 11.9814 40.6794 12.1045 41.199 12.1045C 41.6775 12.1045 42.0603 12.0088 42.3474 11.8174C 42.6391 11.6214 42.7849 11.3617 42.7849 11.0381ZM 47.4128 3.8125L 47.4128 5.60352L 48.7937 5.60352L 48.7937 6.58105L 47.4128 6.58105L 47.4128 11.168C 47.4128 11.4642 47.4743 11.6875 47.5974 11.8379C 47.7204 11.9837 47.9301 12.0566 48.2263 12.0566C 48.3721 12.0566 48.5726 12.0293 48.8279 11.9746L 48.8279 13C 48.4952 13.0911 48.1716 13.1367 47.8572 13.1367C 47.2921 13.1367 46.8659 12.9658 46.5788 12.624C 46.2917 12.2822 46.1482 11.7969 46.1482 11.168L 46.1482 6.58105L 44.8015 6.58105L 44.8015 5.60352L 46.1482 5.60352L 46.1482 3.8125L 47.4128 3.8125ZM 49.8054 9.2334C 49.8054 8.50879 49.9467 7.8571 50.2292 7.27832C 50.5163 6.69954 50.9128 6.25293 51.4187 5.93848C 51.9291 5.62402 52.5101 5.4668 53.1618 5.4668C 54.169 5.4668 54.9825 5.81543 55.6023 6.5127C 56.2266 7.20996 56.5388 8.13737 56.5388 9.29492L 56.5388 9.38379C 56.5388 10.1038 56.3998 10.751 56.1218 11.3252C 55.8484 11.8949 55.4542 12.3392 54.9392 12.6582C 54.4288 12.9772 53.8409 13.1367 53.1755 13.1367C 52.1729 13.1367 51.3594 12.7881 50.7351 12.0908C 50.1153 11.3936 49.8054 10.4707 49.8054 9.32227L 49.8054 9.2334ZM 51.0769 9.38379C 51.0769 10.2041 51.266 10.8626 51.6443 11.3594C 52.0271 11.8561 52.5375 12.1045 53.1755 12.1045C 53.8181 12.1045 54.3285 11.8538 54.7068 11.3525C 55.085 10.8467 55.2741 10.1403 55.2741 9.2334C 55.2741 8.4222 55.0805 7.76595 54.6931 7.26465C 54.3103 6.75879 53.7999 6.50586 53.1618 6.50586C 52.5375 6.50586 52.0339 6.75423 51.6511 7.25098C 51.2683 7.74772 51.0769 8.45866 51.0769 9.38379ZM 59.3142 5.60352L 59.3484 6.42383C 59.8907 5.78581 60.6221 5.4668 61.5427 5.4668C 62.5772 5.4668 63.2813 5.86328 63.655 6.65625C 63.9011 6.30078 64.2201 6.01367 64.612 5.79492C 65.0085 5.57617 65.4756 5.4668 66.0134 5.4668C 67.6358 5.4668 68.4607 6.32585 68.488 8.04395L 68.488 13L 67.2234 13L 67.2234 8.11914C 67.2234 7.59049 67.1026 7.19629 66.8611 6.93652C 66.6195 6.6722 66.2139 6.54004 65.6443 6.54004C 65.1749 6.54004 64.7852 6.68132 64.4753 6.96387C 64.1654 7.24186 63.9854 7.61784 63.9353 8.0918L 63.9353 13L 62.6638 13L 62.6638 8.15332C 62.6638 7.0778 62.1374 6.54004 61.0847 6.54004C 60.2553 6.54004 59.6879 6.89323 59.3825 7.59961L 59.3825 13L 58.1179 13L 58.1179 5.60352L 59.3142 5.60352ZM 73.4714 13.1367C 72.4688 13.1367 71.6531 12.8086 71.0241 12.1523C 70.3952 11.4915 70.0808 10.6097 70.0808 9.50684L 70.0808 9.27441C 70.0808 8.54069 70.2198 7.88672 70.4978 7.3125C 70.7803 6.73372 71.1723 6.28255 71.6736 5.95898C 72.1794 5.63086 72.7263 5.4668 73.3142 5.4668C 74.2758 5.4668 75.0232 5.78353 75.5564 6.41699C 76.0896 7.05046 76.3562 7.95736 76.3562 9.1377L 76.3562 9.66406L 71.3454 9.66406C 71.3637 10.3932 71.5756 10.9834 71.9812 11.4346C 72.3913 11.8812 72.9109 12.1045 73.5398 12.1045C 73.9864 12.1045 74.3646 12.0133 74.6745 11.8311C 74.9844 11.6488 75.2556 11.4072 75.488 11.1064L 76.2605 11.708C 75.6407 12.6605 74.711 13.1367 73.4714 13.1367ZM 73.3142 6.50586C 72.8038 6.50586 72.3754 6.69271 72.029 7.06641C 71.6827 7.43555 71.4685 7.95508 71.3865 8.625L 75.0915 8.625L 75.0915 8.5293C 75.0551 7.88672 74.8819 7.38997 74.572 7.03906C 74.2621 6.68359 73.8428 6.50586 73.3142 6.50586ZM 81.4011 6.73828C 81.2097 6.70638 81.0023 6.69043 80.779 6.69043C 79.9496 6.69043 79.3868 7.04362 79.0906 7.75L 79.0906 13L 77.8259 13L 77.8259 5.60352L 79.0564 5.60352L 79.0769 6.45801C 79.4916 5.7972 80.0795 5.4668 80.8406 5.4668C 81.0866 5.4668 81.2735 5.4987 81.4011 5.5625L 81.4011 6.73828ZM 87.9021 14.0322L 81.6404 14.0322L 81.6404 13L 87.9021 13L 87.9021 14.0322ZM 90.2605 13L 88.9958 13L 88.9958 5.60352L 90.2605 5.60352L 90.2605 13ZM 88.8933 3.6416C 88.8933 3.43652 88.9548 3.26335 89.0779 3.12207C 89.2055 2.98079 89.3923 2.91016 89.6384 2.91016C 89.8845 2.91016 90.0713 2.98079 90.199 3.12207C 90.3266 3.26335 90.3904 3.43652 90.3904 3.6416C 90.3904 3.84668 90.3266 4.01758 90.199 4.1543C 90.0713 4.29102 89.8845 4.35938 89.6384 4.35938C 89.3923 4.35938 89.2055 4.29102 89.0779 4.1543C 88.9548 4.01758 88.8933 3.84668 88.8933 3.6416ZM 91.9831 9.24023C 91.9831 8.10547 92.252 7.19401 92.7898 6.50586C 93.3275 5.81315 94.0316 5.4668 94.9021 5.4668C 95.768 5.4668 96.4538 5.76302 96.9597 6.35547L 96.9597 2.5L 98.2243 2.5L 98.2243 13L 97.0622 13L 97.0007 12.207C 96.4949 12.8268 95.7907 13.1367 94.8884 13.1367C 94.0316 13.1367 93.3321 12.7858 92.7898 12.084C 92.252 11.3822 91.9831 10.4661 91.9831 9.33594L 91.9831 9.24023ZM 93.2478 9.38379C 93.2478 10.2223 93.421 10.8786 93.7673 11.3525C 94.1137 11.8265 94.5922 12.0635 95.2029 12.0635C 96.0049 12.0635 96.5906 11.7035 96.9597 10.9834L 96.9597 7.58594C 96.5814 6.88867 96.0004 6.54004 95.2165 6.54004C 94.5967 6.54004 94.1137 6.7793 93.7673 7.25781C 93.421 7.73633 93.2478 8.44499 93.2478 9.38379Z"/>
<path id="path4_fill" d="M 34.8894 11.5439C 35.254 11.5439 35.5502 11.4437 35.7781 11.2432C 36.0059 11.0426 36.1244 10.776 36.1335 10.4434L 37.9861 10.4434C 37.9815 10.9447 37.8448 11.4049 37.5759 11.8242C 37.307 12.2389 36.9379 12.5625 36.4685 12.7949C 36.0036 13.0228 35.4887 13.1367 34.9236 13.1367C 33.8663 13.1367 33.0323 12.8018 32.4216 12.1318C 31.8109 11.4574 31.5056 10.5277 31.5056 9.34277L 31.5056 9.21289C 31.5056 8.07357 31.8087 7.16439 32.4148 6.48535C 33.0209 5.80631 33.8526 5.4668 34.9099 5.4668C 35.835 5.4668 36.5756 5.73112 37.1316 6.25977C 37.6921 6.78385 37.9769 7.4834 37.9861 8.3584L 36.1335 8.3584C 36.1244 7.97559 36.0059 7.66569 35.7781 7.42871C 35.5502 7.18717 35.2494 7.06641 34.8757 7.06641C 34.4154 7.06641 34.0668 7.23503 33.8298 7.57227C 33.5974 7.90495 33.4812 8.44727 33.4812 9.19922L 33.4812 9.4043C 33.4812 10.1654 33.5974 10.7122 33.8298 11.0449C 34.0622 11.3776 34.4154 11.5439 34.8894 11.5439ZM 43.5437 12.248C 43.056 12.8405 42.3816 13.1367 41.5202 13.1367C 40.7273 13.1367 40.1212 12.9089 39.7019 12.4531C 39.2872 11.9974 39.0753 11.3298 39.0661 10.4502L 39.0661 5.60352L 41.0417 5.60352L 41.0417 10.3818C 41.0417 11.152 41.3926 11.5371 42.0945 11.5371C 42.7644 11.5371 43.2247 11.3047 43.4753 10.8398L 43.4753 5.60352L 45.4577 5.60352L 45.4577 13L 43.5984 13L 43.5437 12.248ZM 50.9538 10.9561C 50.9538 10.7145 50.8331 10.5254 50.5915 10.3887C 50.3546 10.2474 49.9717 10.1221 49.4431 10.0127C 47.684 9.64355 46.8044 8.89616 46.8044 7.77051C 46.8044 7.11426 47.0756 6.56738 47.6179 6.12988C 48.1648 5.68783 48.878 5.4668 49.7575 5.4668C 50.6963 5.4668 51.446 5.68783 52.0066 6.12988C 52.5717 6.57194 52.8542 7.14616 52.8542 7.85254L 50.8786 7.85254C 50.8786 7.56999 50.7875 7.33757 50.6052 7.15527C 50.4229 6.96842 50.1381 6.875 49.7507 6.875C 49.418 6.875 49.1605 6.9502 48.9782 7.10059C 48.796 7.25098 48.7048 7.44238 48.7048 7.6748C 48.7048 7.89355 48.8074 8.07129 49.0124 8.20801C 49.2221 8.34017 49.573 8.45638 50.0652 8.55664C 50.5574 8.65234 50.9721 8.76172 51.3093 8.88477C 52.3529 9.26758 52.8747 9.93066 52.8747 10.874C 52.8747 11.5485 52.5853 12.0954 52.0066 12.5146C 51.4278 12.9294 50.6804 13.1367 49.7644 13.1367C 49.1446 13.1367 48.5932 13.0273 48.1101 12.8086C 47.6316 12.5853 47.2556 12.2822 46.9822 11.8994C 46.7087 11.512 46.572 11.0951 46.572 10.6484L 48.445 10.6484C 48.4633 10.9993 48.5932 11.2682 48.8347 11.4551C 49.0762 11.6419 49.3998 11.7354 49.8054 11.7354C 50.1837 11.7354 50.4685 11.6647 50.6599 11.5234C 50.8559 11.3776 50.9538 11.1885 50.9538 10.9561ZM 56.5183 3.78516L 56.5183 5.60352L 57.7829 5.60352L 57.7829 7.05273L 56.5183 7.05273L 56.5183 10.7441C 56.5183 11.0176 56.5707 11.2135 56.6755 11.332C 56.7803 11.4505 56.9809 11.5098 57.2771 11.5098C 57.4958 11.5098 57.6895 11.4938 57.8581 11.4619L 57.8581 12.959C 57.4708 13.0775 57.072 13.1367 56.6618 13.1367C 55.2764 13.1367 54.57 12.4372 54.5427 11.0381L 54.5427 7.05273L 53.4626 7.05273L 53.4626 5.60352L 54.5427 5.60352L 54.5427 3.78516L 56.5183 3.78516ZM 58.3708 9.2334C 58.3708 8.49967 58.5121 7.8457 58.7947 7.27148C 59.0772 6.69727 59.4828 6.25293 60.0115 5.93848C 60.5447 5.62402 61.1622 5.4668 61.864 5.4668C 62.862 5.4668 63.6755 5.77214 64.3044 6.38281C 64.9379 6.99349 65.2911 7.82292 65.364 8.87109L 65.3777 9.37695C 65.3777 10.5117 65.0609 11.4232 64.4275 12.1113C 63.794 12.7949 62.9441 13.1367 61.8777 13.1367C 60.8113 13.1367 59.959 12.7949 59.321 12.1113C 58.6876 11.4277 58.3708 10.498 58.3708 9.32227L 58.3708 9.2334ZM 60.3464 9.37695C 60.3464 10.0788 60.4786 10.6165 60.7429 10.9902C 61.0072 11.3594 61.3855 11.5439 61.8777 11.5439C 62.3562 11.5439 62.7299 11.3617 62.9988 10.9971C 63.2676 10.6279 63.4021 10.04 63.4021 9.2334C 63.4021 8.54525 63.2676 8.01204 62.9988 7.63379C 62.7299 7.25553 62.3516 7.06641 61.864 7.06641C 61.3809 7.06641 61.0072 7.25553 60.7429 7.63379C 60.4786 8.00749 60.3464 8.58854 60.3464 9.37695ZM 68.447 5.60352L 68.5085 6.43066C 69.0326 5.78809 69.7413 5.4668 70.6345 5.4668C 71.587 5.4668 72.2409 5.84277 72.5964 6.59473C 73.1159 5.84277 73.8565 5.4668 74.8181 5.4668C 75.6202 5.4668 76.2172 5.7015 76.6091 6.1709C 77.001 6.63574 77.197 7.33757 77.197 8.27637L 77.197 13L 75.2146 13L 75.2146 8.2832C 75.2146 7.86393 75.1325 7.55859 74.9685 7.36719C 74.8044 7.17122 74.515 7.07324 74.1003 7.07324C 73.5079 7.07324 73.0977 7.35579 72.8699 7.9209L 72.8767 13L 70.9011 13L 70.9011 8.29004C 70.9011 7.86165 70.8168 7.55176 70.6482 7.36035C 70.4796 7.16895 70.1924 7.07324 69.7868 7.07324C 69.2263 7.07324 68.8207 7.30566 68.57 7.77051L 68.57 13L 66.5945 13L 66.5945 5.60352L 68.447 5.60352ZM 82.1257 13.1367C 81.0411 13.1367 80.157 12.804 79.4734 12.1387C 78.7943 11.4733 78.4548 10.5869 78.4548 9.47949L 78.4548 9.28809C 78.4548 8.54525 78.5984 7.88216 78.8855 7.29883C 79.1726 6.71094 79.5782 6.25977 80.1023 5.94531C 80.6309 5.6263 81.2325 5.4668 81.907 5.4668C 82.9187 5.4668 83.7139 5.78581 84.2927 6.42383C 84.876 7.06185 85.1677 7.96647 85.1677 9.1377L 85.1677 9.94434L 80.4577 9.94434C 80.5215 10.4274 80.7129 10.8148 81.032 11.1064C 81.3555 11.3981 81.7634 11.5439 82.2556 11.5439C 83.0167 11.5439 83.6114 11.2682 84.0398 10.7168L 85.0105 11.8037C 84.7143 12.223 84.3132 12.5511 83.8074 12.7881C 83.3015 13.0205 82.7409 13.1367 82.1257 13.1367ZM 81.9001 7.06641C 81.5082 7.06641 81.1892 7.19857 80.9431 7.46289C 80.7016 7.72721 80.5466 8.10547 80.4782 8.59766L 83.2263 8.59766L 83.2263 8.44043C 83.2172 8.00293 83.0987 7.66569 82.8708 7.42871C 82.643 7.18717 82.3194 7.06641 81.9001 7.06641ZM 90.4519 7.45605C 90.183 7.4196 89.946 7.40137 89.7409 7.40137C 88.9935 7.40137 88.5036 7.6543 88.2712 8.16016L 88.2712 13L 86.2956 13L 86.2956 5.60352L 88.1618 5.60352L 88.2165 6.48535C 88.613 5.80631 89.1622 5.4668 89.864 5.4668C 90.0827 5.4668 90.2878 5.49642 90.4792 5.55566L 90.4519 7.45605Z"/>
<path id="path5_fill" d="M 29.407 13L 29.407 6.58105L 28.238 6.58105L 28.238 5.60352L 29.407 5.60352L 29.407 4.97461C 29.407 4.14974 29.6417 3.50716 30.1111 3.04688C 30.585 2.58659 31.2527 2.35645 32.114 2.35645C 32.6244 2.35645 33.2693 2.49544 34.0486 2.77344L 33.8366 3.83984C 33.267 3.61198 32.7247 3.49805 32.2097 3.49805C 31.6674 3.49805 31.2754 3.62109 31.0339 3.86719C 30.7969 4.10872 30.6784 4.47331 30.6784 4.96094L 30.6784 5.60352L 32.1892 5.60352L 32.1892 6.58105L 30.6784 6.58105L 30.6784 13L 29.407 13ZM 34.6775 13L 33.406 13L 33.406 5.60352L 34.6775 5.60352L 34.6775 13ZM 40.3103 6.73828C 40.1189 6.70638 39.9115 6.69043 39.6882 6.69043C 38.8588 6.69043 38.296 7.04362 37.9997 7.75L 37.9997 13L 36.7351 13L 36.7351 5.60352L 37.9656 5.60352L 37.9861 6.45801C 38.4008 5.7972 38.9887 5.4668 39.7497 5.4668C 39.9958 5.4668 40.1827 5.4987 40.3103 5.5625L 40.3103 6.73828ZM 45.7859 11.0381C 45.7859 10.6963 45.656 10.432 45.3962 10.2451C 45.141 10.0537 44.6921 9.88965 44.0495 9.75293C 43.4115 9.61621 42.9034 9.45215 42.5251 9.26074C 42.1514 9.06934 41.8734 8.84147 41.6911 8.57715C 41.5134 8.31283 41.4245 7.99837 41.4245 7.63379C 41.4245 7.02767 41.6797 6.51497 42.1902 6.0957C 42.7051 5.67643 43.3614 5.4668 44.1589 5.4668C 44.9975 5.4668 45.6765 5.68327 46.196 6.11621C 46.7201 6.54915 46.9822 7.10286 46.9822 7.77734L 45.7107 7.77734C 45.7107 7.43099 45.5626 7.13249 45.2663 6.88184C 44.9747 6.63118 44.6055 6.50586 44.1589 6.50586C 43.6986 6.50586 43.3386 6.60612 43.0788 6.80664C 42.8191 7.00716 42.6892 7.26921 42.6892 7.59277C 42.6892 7.89811 42.81 8.12826 43.0515 8.2832C 43.293 8.43815 43.7282 8.58626 44.3572 8.72754C 44.9906 8.86882 45.5033 9.03743 45.8952 9.2334C 46.2872 9.42936 46.5766 9.66634 46.7634 9.94434C 46.9548 10.2178 47.0505 10.5527 47.0505 10.9492C 47.0505 11.61 46.7862 12.141 46.2575 12.542C 45.7289 12.9385 45.043 13.1367 44.1999 13.1367C 43.6075 13.1367 43.0834 13.0319 42.6277 12.8223C 42.1719 12.6126 41.8142 12.321 41.5544 11.9473C 41.2992 11.569 41.1716 11.1611 41.1716 10.7236L 42.4363 10.7236C 42.459 11.1475 42.6277 11.4847 42.9421 11.7354C 43.2611 11.9814 43.6804 12.1045 44.1999 12.1045C 44.6784 12.1045 45.0613 12.0088 45.3484 11.8174C 45.64 11.6214 45.7859 11.3617 45.7859 11.0381ZM 50.4138 3.8125L 50.4138 5.60352L 51.7947 5.60352L 51.7947 6.58105L 50.4138 6.58105L 50.4138 11.168C 50.4138 11.4642 50.4753 11.6875 50.5984 11.8379C 50.7214 11.9837 50.931 12.0566 51.2273 12.0566C 51.3731 12.0566 51.5736 12.0293 51.8288 11.9746L 51.8288 13C 51.4962 13.0911 51.1726 13.1367 50.8581 13.1367C 50.293 13.1367 49.8669 12.9658 49.5798 12.624C 49.2927 12.2822 49.1491 11.7969 49.1491 11.168L 49.1491 6.58105L 47.8025 6.58105L 47.8025 5.60352L 49.1491 5.60352L 49.1491 3.8125L 50.4138 3.8125ZM 58.6101 14.0322L 52.3484 14.0322L 52.3484 13L 58.6101 13L 58.6101 14.0322ZM 60.7907 5.60352L 60.8318 6.5332C 61.3969 5.82227 62.1351 5.4668 63.0466 5.4668C 64.6098 5.4668 65.3982 6.34863 65.4118 8.1123L 65.4118 13L 64.1472 13L 64.1472 8.10547C 64.1426 7.57227 64.0196 7.17806 63.7781 6.92285C 63.5411 6.66764 63.1697 6.54004 62.6638 6.54004C 62.2536 6.54004 61.8936 6.64941 61.5837 6.86816C 61.2738 7.08691 61.0323 7.37402 60.8591 7.72949L 60.8591 13L 59.5945 13L 59.5945 5.60352L 60.7907 5.60352ZM 71.8855 13C 71.8126 12.8542 71.7533 12.5944 71.7077 12.2207C 71.1199 12.8314 70.418 13.1367 69.6023 13.1367C 68.8731 13.1367 68.2738 12.9316 67.8044 12.5215C 67.3396 12.1068 67.1072 11.5827 67.1072 10.9492C 67.1072 10.179 67.3988 9.58203 67.9822 9.1582C 68.57 8.72982 69.3949 8.51562 70.4568 8.51562L 71.6872 8.51562L 71.6872 7.93457C 71.6872 7.49251 71.5551 7.1416 71.2907 6.88184C 71.0264 6.61751 70.6368 6.48535 70.1218 6.48535C 69.6706 6.48535 69.2924 6.59928 68.987 6.82715C 68.6817 7.05501 68.529 7.33073 68.529 7.6543L 67.2575 7.6543C 67.2575 7.28516 67.3874 6.92969 67.6472 6.58789C 67.9115 6.24154 68.267 5.9681 68.7136 5.76758C 69.1648 5.56706 69.6592 5.4668 70.197 5.4668C 71.0492 5.4668 71.7169 5.68099 72.1999 6.10938C 72.683 6.5332 72.9337 7.11882 72.9519 7.86621L 72.9519 11.2705C 72.9519 11.9495 73.0385 12.4896 73.2116 12.8906L 73.2116 13L 71.8855 13ZM 69.7868 12.0361C 70.1833 12.0361 70.5593 11.9336 70.9148 11.7285C 71.2702 11.5234 71.5277 11.2568 71.6872 10.9287L 71.6872 9.41113L 70.696 9.41113C 69.1465 9.41113 68.3718 9.86458 68.3718 10.7715C 68.3718 11.168 68.504 11.4779 68.7683 11.7012C 69.0326 11.9245 69.3721 12.0361 69.7868 12.0361ZM 76.1238 5.60352L 76.1579 6.42383C 76.7003 5.78581 77.4317 5.4668 78.3523 5.4668C 79.3868 5.4668 80.0909 5.86328 80.4646 6.65625C 80.7107 6.30078 81.0297 6.01367 81.4216 5.79492C 81.8181 5.57617 82.2852 5.4668 82.823 5.4668C 84.4454 5.4668 85.2702 6.32585 85.2976 8.04395L 85.2976 13L 84.0329 13L 84.0329 8.11914C 84.0329 7.59049 83.9122 7.19629 83.6706 6.93652C 83.4291 6.6722 83.0235 6.54004 82.4538 6.54004C 81.9844 6.54004 81.5948 6.68132 81.2849 6.96387C 80.975 7.24186 80.795 7.61784 80.7449 8.0918L 80.7449 13L 79.4734 13L 79.4734 8.15332C 79.4734 7.0778 78.947 6.54004 77.8943 6.54004C 77.0648 6.54004 76.4975 6.89323 76.1921 7.59961L 76.1921 13L 74.9275 13L 74.9275 5.60352L 76.1238 5.60352ZM 90.281 13.1367C 89.2784 13.1367 88.4626 12.8086 87.8337 12.1523C 87.2048 11.4915 86.8904 10.6097 86.8904 9.50684L 86.8904 9.27441C 86.8904 8.54069 87.0294 7.88672 87.3074 7.3125C 87.5899 6.73372 87.9818 6.28255 88.4831 5.95898C 88.989 5.63086 89.5359 5.4668 90.1238 5.4668C 91.0853 5.4668 91.8327 5.78353 92.3659 6.41699C 92.8991 7.05046 93.1657 7.95736 93.1657 9.1377L 93.1657 9.66406L 88.155 9.66406C 88.1732 10.3932 88.3851 10.9834 88.7907 11.4346C 89.2009 11.8812 89.7204 12.1045 90.3493 12.1045C 90.796 12.1045 91.1742 12.0133 91.4841 11.8311C 91.794 11.6488 92.0652 11.4072 92.2976 11.1064L 93.07 11.708C 92.4503 12.6605 91.5206 13.1367 90.281 13.1367ZM 90.1238 6.50586C 89.6133 6.50586 89.185 6.69271 88.8386 7.06641C 88.4922 7.43555 88.2781 7.95508 88.196 8.625L 91.9011 8.625L 91.9011 8.5293C 91.8646 7.88672 91.6915 7.38997 91.3816 7.03906C 91.0717 6.68359 90.6524 6.50586 90.1238 6.50586Z"/>
<path id="path6_fill" d="M 31.0954 13L 29.8308 13L 29.8308 2.5L 31.0954 2.5L 31.0954 13ZM 37.6921 13C 37.6192 12.8542 37.56 12.5944 37.5144 12.2207C 36.9265 12.8314 36.2247 13.1367 35.4089 13.1367C 34.6797 13.1367 34.0805 12.9316 33.6111 12.5215C 33.1462 12.1068 32.9138 11.5827 32.9138 10.9492C 32.9138 10.179 33.2055 9.58203 33.7888 9.1582C 34.3767 8.72982 35.2016 8.51562 36.2634 8.51562L 37.4939 8.51562L 37.4939 7.93457C 37.4939 7.49251 37.3617 7.1416 37.0974 6.88184C 36.8331 6.61751 36.4434 6.48535 35.9284 6.48535C 35.4773 6.48535 35.099 6.59928 34.7937 6.82715C 34.4883 7.05501 34.3357 7.33073 34.3357 7.6543L 33.0642 7.6543C 33.0642 7.28516 33.1941 6.92969 33.4538 6.58789C 33.7182 6.24154 34.0736 5.9681 34.5202 5.76758C 34.9714 5.56706 35.4659 5.4668 36.0036 5.4668C 36.8559 5.4668 37.5235 5.68099 38.0066 6.10938C 38.4896 6.5332 38.7403 7.11882 38.7585 7.86621L 38.7585 11.2705C 38.7585 11.9495 38.8451 12.4896 39.0183 12.8906L 39.0183 13L 37.6921 13ZM 35.5935 12.0361C 35.99 12.0361 36.3659 11.9336 36.7214 11.7285C 37.0769 11.5234 37.3344 11.2568 37.4939 10.9287L 37.4939 9.41113L 36.5027 9.41113C 34.9532 9.41113 34.1784 9.86458 34.1784 10.7715C 34.1784 11.168 34.3106 11.4779 34.5749 11.7012C 34.8393 11.9245 35.1788 12.0361 35.5935 12.0361ZM 45.0476 11.0381C 45.0476 10.6963 44.9177 10.432 44.6579 10.2451C 44.4027 10.0537 43.9538 9.88965 43.3113 9.75293C 42.6732 9.61621 42.1651 9.45215 41.7868 9.26074C 41.4131 9.06934 41.1351 8.84147 40.9529 8.57715C 40.7751 8.31283 40.6863 7.99837 40.6863 7.63379C 40.6863 7.02767 40.9415 6.51497 41.4519 6.0957C 41.9669 5.67643 42.6231 5.4668 43.4206 5.4668C 44.2592 5.4668 44.9382 5.68327 45.4577 6.11621C 45.9818 6.54915 46.2439 7.10286 46.2439 7.77734L 44.9724 7.77734C 44.9724 7.43099 44.8243 7.13249 44.5281 6.88184C 44.2364 6.63118 43.8672 6.50586 43.4206 6.50586C 42.9603 6.50586 42.6003 6.60612 42.3406 6.80664C 42.0808 7.00716 41.9509 7.26921 41.9509 7.59277C 41.9509 7.89811 42.0717 8.12826 42.3132 8.2832C 42.5547 8.43815 42.99 8.58626 43.6189 8.72754C 44.2523 8.86882 44.765 9.03743 45.157 9.2334C 45.5489 9.42936 45.8383 9.66634 46.0251 9.94434C 46.2165 10.2178 46.3122 10.5527 46.3122 10.9492C 46.3122 11.61 46.0479 12.141 45.5193 12.542C 44.9906 12.9385 44.3047 13.1367 43.4616 13.1367C 42.8692 13.1367 42.3451 13.0319 41.8894 12.8223C 41.4337 12.6126 41.0759 12.321 40.8161 11.9473C 40.5609 11.569 40.4333 11.1611 40.4333 10.7236L 41.698 10.7236C 41.7208 11.1475 41.8894 11.4847 42.2038 11.7354C 42.5228 11.9814 42.9421 12.1045 43.4616 12.1045C 43.9402 12.1045 44.323 12.0088 44.6101 11.8174C 44.9018 11.6214 45.0476 11.3617 45.0476 11.0381ZM 49.6755 3.8125L 49.6755 5.60352L 51.0564 5.60352L 51.0564 6.58105L 49.6755 6.58105L 49.6755 11.168C 49.6755 11.4642 49.737 11.6875 49.8601 11.8379C 49.9831 11.9837 50.1928 12.0566 50.489 12.0566C 50.6348 12.0566 50.8353 12.0293 51.0906 11.9746L 51.0906 13C 50.7579 13.0911 50.4343 13.1367 50.1199 13.1367C 49.5547 13.1367 49.1286 12.9658 48.8415 12.624C 48.5544 12.2822 48.4109 11.7969 48.4109 11.168L 48.4109 6.58105L 47.0642 6.58105L 47.0642 5.60352L 48.4109 5.60352L 48.4109 3.8125L 49.6755 3.8125ZM 57.8718 14.0322L 51.6101 14.0322L 51.6101 13L 57.8718 13L 57.8718 14.0322ZM 60.0525 5.60352L 60.0935 6.5332C 60.6586 5.82227 61.3969 5.4668 62.3083 5.4668C 63.8715 5.4668 64.6599 6.34863 64.6736 8.1123L 64.6736 13L 63.4089 13L 63.4089 8.10547C 63.4044 7.57227 63.2813 7.17806 63.0398 6.92285C 62.8028 6.66764 62.4314 6.54004 61.9255 6.54004C 61.5154 6.54004 61.1553 6.64941 60.8454 6.86816C 60.5355 7.08691 60.294 7.37402 60.1208 7.72949L 60.1208 13L 58.8562 13L 58.8562 5.60352L 60.0525 5.60352ZM 71.1472 13C 71.0743 12.8542 71.015 12.5944 70.9695 12.2207C 70.3816 12.8314 69.6797 13.1367 68.864 13.1367C 68.1348 13.1367 67.5355 12.9316 67.0661 12.5215C 66.6013 12.1068 66.3689 11.5827 66.3689 10.9492C 66.3689 10.179 66.6605 9.58203 67.2439 9.1582C 67.8318 8.72982 68.6566 8.51562 69.7185 8.51562L 70.949 8.51562L 70.949 7.93457C 70.949 7.49251 70.8168 7.1416 70.5525 6.88184C 70.2881 6.61751 69.8985 6.48535 69.3835 6.48535C 68.9324 6.48535 68.5541 6.59928 68.2488 6.82715C 67.9434 7.05501 67.7907 7.33073 67.7907 7.6543L 66.5193 7.6543C 66.5193 7.28516 66.6491 6.92969 66.9089 6.58789C 67.1732 6.24154 67.5287 5.9681 67.9753 5.76758C 68.4265 5.56706 68.921 5.4668 69.4587 5.4668C 70.3109 5.4668 70.9786 5.68099 71.4616 6.10938C 71.9447 6.5332 72.1954 7.11882 72.2136 7.86621L 72.2136 11.2705C 72.2136 11.9495 72.3002 12.4896 72.4734 12.8906L 72.4734 13L 71.1472 13ZM 69.0486 12.0361C 69.445 12.0361 69.821 11.9336 70.1765 11.7285C 70.532 11.5234 70.7894 11.2568 70.949 10.9287L 70.949 9.41113L 69.9577 9.41113C 68.4083 9.41113 67.6335 9.86458 67.6335 10.7715C 67.6335 11.168 67.7657 11.4779 68.03 11.7012C 68.2943 11.9245 68.6338 12.0361 69.0486 12.0361ZM 75.3855 5.60352L 75.4197 6.42383C 75.962 5.78581 76.6934 5.4668 77.614 5.4668C 78.6485 5.4668 79.3526 5.86328 79.7263 6.65625C 79.9724 6.30078 80.2914 6.01367 80.6833 5.79492C 81.0798 5.57617 81.5469 5.4668 82.0847 5.4668C 83.7071 5.4668 84.532 6.32585 84.5593 8.04395L 84.5593 13L 83.2947 13L 83.2947 8.11914C 83.2947 7.59049 83.1739 7.19629 82.9324 6.93652C 82.6908 6.6722 82.2852 6.54004 81.7156 6.54004C 81.2462 6.54004 80.8565 6.68132 80.5466 6.96387C 80.2367 7.24186 80.0567 7.61784 80.0066 8.0918L 80.0066 13L 78.7351 13L 78.7351 8.15332C 78.7351 7.0778 78.2087 6.54004 77.156 6.54004C 76.3266 6.54004 75.7592 6.89323 75.4538 7.59961L 75.4538 13L 74.1892 13L 74.1892 5.60352L 75.3855 5.60352ZM 89.5427 13.1367C 88.5401 13.1367 87.7243 12.8086 87.0954 12.1523C 86.4665 11.4915 86.1521 10.6097 86.1521 9.50684L 86.1521 9.27441C 86.1521 8.54069 86.2911 7.88672 86.5691 7.3125C 86.8516 6.73372 87.2435 6.28255 87.7449 5.95898C 88.2507 5.63086 88.7976 5.4668 89.3855 5.4668C 90.3471 5.4668 91.0945 5.78353 91.6277 6.41699C 92.1609 7.05046 92.4275 7.95736 92.4275 9.1377L 92.4275 9.66406L 87.4167 9.66406C 87.435 10.3932 87.6469 10.9834 88.0525 11.4346C 88.4626 11.8812 88.9822 12.1045 89.6111 12.1045C 90.0577 12.1045 90.4359 12.0133 90.7458 11.8311C 91.0557 11.6488 91.3269 11.4072 91.5593 11.1064L 92.3318 11.708C 91.712 12.6605 90.7823 13.1367 89.5427 13.1367ZM 89.3855 6.50586C 88.8751 6.50586 88.4467 6.69271 88.1003 7.06641C 87.754 7.43555 87.5398 7.95508 87.4577 8.625L 91.1628 8.625L 91.1628 8.5293C 91.1264 7.88672 90.9532 7.38997 90.6433 7.03906C 90.3334 6.68359 89.9141 6.50586 89.3855 6.50586Z"/>
<path id="path7_fill" d="M 36.0652 12.1045C 36.5163 12.1045 36.9105 11.9678 37.2478 11.6943C 37.585 11.4209 37.7719 11.0791 37.8083 10.6689L 39.0046 10.6689C 38.9818 11.0928 38.836 11.4961 38.5671 11.8789C 38.2982 12.2617 37.9382 12.5671 37.487 12.7949C 37.0404 13.0228 36.5665 13.1367 36.0652 13.1367C 35.058 13.1367 34.2559 12.8018 33.6589 12.1318C 33.0665 11.4574 32.7702 10.5368 32.7702 9.37012L 32.7702 9.1582C 32.7702 8.43815 32.9024 7.79785 33.1667 7.2373C 33.431 6.67676 33.8093 6.24154 34.3015 5.93164C 34.7982 5.62174 35.3838 5.4668 36.0583 5.4668C 36.8878 5.4668 37.5759 5.71517 38.1228 6.21191C 38.6742 6.70866 38.9682 7.35352 39.0046 8.14648L 37.8083 8.14648C 37.7719 7.66797 37.5896 7.27604 37.2615 6.9707C 36.9379 6.66081 36.5368 6.50586 36.0583 6.50586C 35.4157 6.50586 34.9167 6.73828 34.5613 7.20312C 34.2103 7.66341 34.0349 8.33105 34.0349 9.20605L 34.0349 9.44531C 34.0349 10.2975 34.2103 10.9538 34.5613 11.4141C 34.9122 11.8743 35.4135 12.1045 36.0652 12.1045ZM 40.0915 9.2334C 40.0915 8.50879 40.2328 7.8571 40.5154 7.27832C 40.8025 6.69954 41.199 6.25293 41.7048 5.93848C 42.2152 5.62402 42.7963 5.4668 43.448 5.4668C 44.4551 5.4668 45.2686 5.81543 45.8884 6.5127C 46.5128 7.20996 46.8249 8.13737 46.8249 9.29492L 46.8249 9.38379C 46.8249 10.1038 46.6859 10.751 46.4079 11.3252C 46.1345 11.8949 45.7403 12.3392 45.2253 12.6582C 44.7149 12.9772 44.127 13.1367 43.4616 13.1367C 42.459 13.1367 41.6456 12.7881 41.0212 12.0908C 40.4014 11.3936 40.0915 10.4707 40.0915 9.32227L 40.0915 9.2334ZM 41.363 9.38379C 41.363 10.2041 41.5521 10.8626 41.9304 11.3594C 42.3132 11.8561 42.8236 12.1045 43.4616 12.1045C 44.1042 12.1045 44.6146 11.8538 44.9929 11.3525C 45.3712 10.8467 45.5603 10.1403 45.5603 9.2334C 45.5603 8.4222 45.3666 7.76595 44.9792 7.26465C 44.5964 6.75879 44.086 6.50586 43.448 6.50586C 42.8236 6.50586 42.32 6.75423 41.9372 7.25098C 41.5544 7.74772 41.363 8.45866 41.363 9.38379ZM 49.6003 5.60352L 49.6345 6.42383C 50.1768 5.78581 50.9083 5.4668 51.8288 5.4668C 52.8633 5.4668 53.5674 5.86328 53.9411 6.65625C 54.1872 6.30078 54.5062 6.01367 54.8982 5.79492C 55.2947 5.57617 55.7618 5.4668 56.2995 5.4668C 57.9219 5.4668 58.7468 6.32585 58.7741 8.04395L 58.7741 13L 57.5095 13L 57.5095 8.11914C 57.5095 7.59049 57.3887 7.19629 57.1472 6.93652C 56.9057 6.6722 56.5001 6.54004 55.9304 6.54004C 55.461 6.54004 55.0713 6.68132 54.7615 6.96387C 54.4516 7.24186 54.2715 7.61784 54.2214 8.0918L 54.2214 13L 52.9499 13L 52.9499 8.15332C 52.9499 7.0778 52.4236 6.54004 51.3708 6.54004C 50.5414 6.54004 49.974 6.89323 49.6687 7.59961L 49.6687 13L 48.404 13L 48.404 5.60352L 49.6003 5.60352ZM 66.9363 9.38379C 66.9363 10.5094 66.6788 11.4163 66.1638 12.1045C 65.6488 12.7926 64.9516 13.1367 64.072 13.1367C 63.1742 13.1367 62.4678 12.8519 61.9529 12.2822L 61.9529 15.8438L 60.6882 15.8438L 60.6882 5.60352L 61.8435 5.60352L 61.905 6.42383C 62.42 5.78581 63.1355 5.4668 64.0515 5.4668C 64.9402 5.4668 65.642 5.80176 66.157 6.47168C 66.6765 7.1416 66.9363 8.07357 66.9363 9.26758L 66.9363 9.38379ZM 65.6716 9.24023C 65.6716 8.40625 65.4939 7.74772 65.1384 7.26465C 64.7829 6.78158 64.2953 6.54004 63.6755 6.54004C 62.9099 6.54004 62.3357 6.87956 61.9529 7.55859L 61.9529 11.0928C 62.3311 11.7673 62.9099 12.1045 63.6892 12.1045C 64.2953 12.1045 64.7761 11.8652 65.1316 11.3867C 65.4916 10.9036 65.6716 10.1882 65.6716 9.24023ZM 73.1159 13C 73.043 12.8542 72.9838 12.5944 72.9382 12.2207C 72.3503 12.8314 71.6485 13.1367 70.8327 13.1367C 70.1036 13.1367 69.5043 12.9316 69.0349 12.5215C 68.57 12.1068 68.3376 11.5827 68.3376 10.9492C 68.3376 10.179 68.6293 9.58203 69.2126 9.1582C 69.8005 8.72982 70.6254 8.51562 71.6872 8.51562L 72.9177 8.51562L 72.9177 7.93457C 72.9177 7.49251 72.7855 7.1416 72.5212 6.88184C 72.2569 6.61751 71.8672 6.48535 71.3523 6.48535C 70.9011 6.48535 70.5228 6.59928 70.2175 6.82715C 69.9122 7.05501 69.7595 7.33073 69.7595 7.6543L 68.488 7.6543C 68.488 7.28516 68.6179 6.92969 68.8777 6.58789C 69.142 6.24154 69.4975 5.9681 69.9441 5.76758C 70.3952 5.56706 70.8897 5.4668 71.4275 5.4668C 72.2797 5.4668 72.9473 5.68099 73.4304 6.10938C 73.9135 6.5332 74.1641 7.11882 74.1824 7.86621L 74.1824 11.2705C 74.1824 11.9495 74.2689 12.4896 74.4421 12.8906L 74.4421 13L 73.1159 13ZM 71.0173 12.0361C 71.4138 12.0361 71.7898 11.9336 72.1452 11.7285C 72.5007 11.5234 72.7582 11.2568 72.9177 10.9287L 72.9177 9.41113L 71.9265 9.41113C 70.377 9.41113 69.6023 9.86458 69.6023 10.7715C 69.6023 11.168 69.7344 11.4779 69.9988 11.7012C 70.2631 11.9245 70.6026 12.0361 71.0173 12.0361ZM 77.3611 5.60352L 77.4021 6.5332C 77.9672 5.82227 78.7055 5.4668 79.6169 5.4668C 81.1801 5.4668 81.9685 6.34863 81.9822 8.1123L 81.9822 13L 80.7175 13L 80.7175 8.10547C 80.7129 7.57227 80.5899 7.17806 80.3484 6.92285C 80.1114 6.66764 79.74 6.54004 79.2341 6.54004C 78.824 6.54004 78.4639 6.64941 78.154 6.86816C 77.8441 7.08691 77.6026 7.37402 77.4294 7.72949L 77.4294 13L 76.1648 13L 76.1648 5.60352L 77.3611 5.60352ZM 86.3093 11.1475L 88.032 5.60352L 89.3855 5.60352L 86.4118 14.1416C 85.9516 15.3721 85.2201 15.9873 84.2175 15.9873L 83.9782 15.9668L 83.5066 15.8779L 83.5066 14.8525L 83.8484 14.8799C 84.2768 14.8799 84.6094 14.7933 84.8464 14.6201C 85.0879 14.4469 85.2862 14.1302 85.4411 13.6699L 85.7214 12.918L 83.0827 5.60352L 84.4636 5.60352L 86.3093 11.1475Z"/>
<path id="path8_fill" d="M 41.4314 13C 41.3585 12.8542 41.2992 12.5944 41.2536 12.2207C 40.6657 12.8314 39.9639 13.1367 39.1482 13.1367C 38.419 13.1367 37.8197 12.9316 37.3503 12.5215C 36.8855 12.1068 36.6531 11.5827 36.6531 10.9492C 36.6531 10.179 36.9447 9.58203 37.5281 9.1582C 38.1159 8.72982 38.9408 8.51562 40.0027 8.51562L 41.2331 8.51562L 41.2331 7.93457C 41.2331 7.49251 41.101 7.1416 40.8366 6.88184C 40.5723 6.61751 40.1827 6.48535 39.6677 6.48535C 39.2165 6.48535 38.8383 6.59928 38.5329 6.82715C 38.2276 7.05501 38.0749 7.33073 38.0749 7.6543L 36.8034 7.6543C 36.8034 7.28516 36.9333 6.92969 37.1931 6.58789C 37.4574 6.24154 37.8129 5.9681 38.2595 5.76758C 38.7107 5.56706 39.2051 5.4668 39.7429 5.4668C 40.5951 5.4668 41.2628 5.68099 41.7458 6.10938C 42.2289 6.5332 42.4796 7.11882 42.4978 7.86621L 42.4978 11.2705C 42.4978 11.9495 42.5844 12.4896 42.7575 12.8906L 42.7575 13L 41.4314 13ZM 39.3327 12.0361C 39.7292 12.0361 40.1052 11.9336 40.4607 11.7285C 40.8161 11.5234 41.0736 11.2568 41.2331 10.9287L 41.2331 9.41113L 40.2419 9.41113C 38.6924 9.41113 37.9177 9.86458 37.9177 10.7715C 37.9177 11.168 38.0499 11.4779 38.3142 11.7012C 38.5785 11.9245 38.918 12.0361 39.3327 12.0361ZM 44.1726 9.24023C 44.1726 8.10547 44.4415 7.19401 44.9792 6.50586C 45.517 5.81315 46.2211 5.4668 47.0915 5.4668C 47.9574 5.4668 48.6433 5.76302 49.1491 6.35547L 49.1491 2.5L 50.4138 2.5L 50.4138 13L 49.2517 13L 49.1902 12.207C 48.6843 12.8268 47.9802 13.1367 47.0779 13.1367C 46.2211 13.1367 45.5215 12.7858 44.9792 12.084C 44.4415 11.3822 44.1726 10.4661 44.1726 9.33594L 44.1726 9.24023ZM 45.4372 9.38379C 45.4372 10.2223 45.6104 10.8786 45.9568 11.3525C 46.3031 11.8265 46.7816 12.0635 47.3923 12.0635C 48.1944 12.0635 48.78 11.7035 49.1491 10.9834L 49.1491 7.58594C 48.7709 6.88867 48.1898 6.54004 47.406 6.54004C 46.7862 6.54004 46.3031 6.7793 45.9568 7.25781C 45.6104 7.73633 45.4372 8.44499 45.4372 9.38379ZM 52.0749 9.24023C 52.0749 8.10547 52.3438 7.19401 52.8816 6.50586C 53.4193 5.81315 54.1234 5.4668 54.9939 5.4668C 55.8598 5.4668 56.5456 5.76302 57.0515 6.35547L 57.0515 2.5L 58.3161 2.5L 58.3161 13L 57.154 13L 57.0925 12.207C 56.5866 12.8268 55.8825 13.1367 54.9802 13.1367C 54.1234 13.1367 53.4239 12.7858 52.8816 12.084C 52.3438 11.3822 52.0749 10.4661 52.0749 9.33594L 52.0749 9.24023ZM 53.3396 9.38379C 53.3396 10.2223 53.5128 10.8786 53.8591 11.3525C 54.2055 11.8265 54.684 12.0635 55.2947 12.0635C 56.0967 12.0635 56.6824 11.7035 57.0515 10.9834L 57.0515 7.58594C 56.6732 6.88867 56.0922 6.54004 55.3083 6.54004C 54.6885 6.54004 54.2055 6.7793 53.8591 7.25781C 53.5128 7.73633 53.3396 8.44499 53.3396 9.38379ZM 63.8601 6.73828C 63.6687 6.70638 63.4613 6.69043 63.238 6.69043C 62.4086 6.69043 61.8458 7.04362 61.5495 7.75L 61.5495 13L 60.2849 13L 60.2849 5.60352L 61.5154 5.60352L 61.5359 6.45801C 61.9506 5.7972 62.5385 5.4668 63.2995 5.4668C 63.5456 5.4668 63.7325 5.4987 63.8601 5.5625L 63.8601 6.73828ZM 67.9616 13.1367C 66.959 13.1367 66.1433 12.8086 65.5144 12.1523C 64.8855 11.4915 64.571 10.6097 64.571 9.50684L 64.571 9.27441C 64.571 8.54069 64.71 7.88672 64.988 7.3125C 65.2706 6.73372 65.6625 6.28255 66.1638 5.95898C 66.6697 5.63086 67.2165 5.4668 67.8044 5.4668C 68.766 5.4668 69.5134 5.78353 70.0466 6.41699C 70.5798 7.05046 70.8464 7.95736 70.8464 9.1377L 70.8464 9.66406L 65.8357 9.66406C 65.8539 10.3932 66.0658 10.9834 66.4714 11.4346C 66.8816 11.8812 67.4011 12.1045 68.03 12.1045C 68.4766 12.1045 68.8549 12.0133 69.1648 11.8311C 69.4747 11.6488 69.7458 11.4072 69.9782 11.1064L 70.7507 11.708C 70.1309 12.6605 69.2012 13.1367 67.9616 13.1367ZM 67.8044 6.50586C 67.294 6.50586 66.8656 6.69271 66.5193 7.06641C 66.1729 7.43555 65.9587 7.95508 65.8767 8.625L 69.5818 8.625L 69.5818 8.5293C 69.5453 7.88672 69.3721 7.38997 69.0622 7.03906C 68.7523 6.68359 68.3331 6.50586 67.8044 6.50586ZM 76.6228 11.0381C 76.6228 10.6963 76.4929 10.432 76.2331 10.2451C 75.9779 10.0537 75.529 9.88965 74.8865 9.75293C 74.2484 9.61621 73.7403 9.45215 73.362 9.26074C 72.9883 9.06934 72.7103 8.84147 72.5281 8.57715C 72.3503 8.31283 72.2615 7.99837 72.2615 7.63379C 72.2615 7.02767 72.5167 6.51497 73.0271 6.0957C 73.5421 5.67643 74.1983 5.4668 74.9958 5.4668C 75.8344 5.4668 76.5134 5.68327 77.0329 6.11621C 77.557 6.54915 77.8191 7.10286 77.8191 7.77734L 76.5476 7.77734C 76.5476 7.43099 76.3995 7.13249 76.1032 6.88184C 75.8116 6.63118 75.4424 6.50586 74.9958 6.50586C 74.5355 6.50586 74.1755 6.60612 73.9157 6.80664C 73.656 7.00716 73.5261 7.26921 73.5261 7.59277C 73.5261 7.89811 73.6469 8.12826 73.8884 8.2832C 74.1299 8.43815 74.5652 8.58626 75.1941 8.72754C 75.8275 8.86882 76.3402 9.03743 76.7322 9.2334C 77.1241 9.42936 77.4135 9.66634 77.6003 9.94434C 77.7917 10.2178 77.8874 10.5527 77.8874 10.9492C 77.8874 11.61 77.6231 12.141 77.0945 12.542C 76.5658 12.9385 75.8799 13.1367 75.0368 13.1367C 74.4444 13.1367 73.9203 13.0319 73.4646 12.8223C 73.0088 12.6126 72.6511 12.321 72.3913 11.9473C 72.1361 11.569 72.0085 11.1611 72.0085 10.7236L 73.2732 10.7236C 73.296 11.1475 73.4646 11.4847 73.779 11.7354C 74.098 11.9814 74.5173 12.1045 75.0368 12.1045C 75.5154 12.1045 75.8982 12.0088 76.1853 11.8174C 76.4769 11.6214 76.6228 11.3617 76.6228 11.0381ZM 83.8415 11.0381C 83.8415 10.6963 83.7116 10.432 83.4519 10.2451C 83.1967 10.0537 82.7478 9.88965 82.1052 9.75293C 81.4672 9.61621 80.959 9.45215 80.5808 9.26074C 80.2071 9.06934 79.9291 8.84147 79.7468 8.57715C 79.5691 8.31283 79.4802 7.99837 79.4802 7.63379C 79.4802 7.02767 79.7354 6.51497 80.2458 6.0957C 80.7608 5.67643 81.4171 5.4668 82.2146 5.4668C 83.0531 5.4668 83.7322 5.68327 84.2517 6.11621C 84.7758 6.54915 85.0378 7.10286 85.0378 7.77734L 83.7663 7.77734C 83.7663 7.43099 83.6182 7.13249 83.322 6.88184C 83.0303 6.63118 82.6612 6.50586 82.2146 6.50586C 81.7543 6.50586 81.3943 6.60612 81.1345 6.80664C 80.8747 7.00716 80.7449 7.26921 80.7449 7.59277C 80.7449 7.89811 80.8656 8.12826 81.1072 8.2832C 81.3487 8.43815 81.7839 8.58626 82.4128 8.72754C 83.0463 8.86882 83.559 9.03743 83.9509 9.2334C 84.3428 9.42936 84.6322 9.66634 84.8191 9.94434C 85.0105 10.2178 85.1062 10.5527 85.1062 10.9492C 85.1062 11.61 84.8419 12.141 84.3132 12.542C 83.7846 12.9385 83.0987 13.1367 82.2556 13.1367C 81.6631 13.1367 81.1391 13.0319 80.6833 12.8223C 80.2276 12.6126 79.8699 12.321 79.6101 11.9473C 79.3549 11.569 79.2273 11.1611 79.2273 10.7236L 80.4919 10.7236C 80.5147 11.1475 80.6833 11.4847 80.9978 11.7354C 81.3168 11.9814 81.7361 12.1045 82.2556 12.1045C 82.7341 12.1045 83.1169 12.0088 83.404 11.8174C 83.6957 11.6214 83.8415 11.3617 83.8415 11.0381Z"/>
<path id="path9_fill" d="M 53.8044 12.1045C 54.2556 12.1045 54.6498 11.9678 54.987 11.6943C 55.3243 11.4209 55.5111 11.0791 55.5476 10.6689L 56.7439 10.6689C 56.7211 11.0928 56.5753 11.4961 56.3064 11.8789C 56.0375 12.2617 55.6775 12.5671 55.2263 12.7949C 54.7797 13.0228 54.3057 13.1367 53.8044 13.1367C 52.7973 13.1367 51.9952 12.8018 51.3982 12.1318C 50.8057 11.4574 50.5095 10.5368 50.5095 9.37012L 50.5095 9.1582C 50.5095 8.43815 50.6417 7.79785 50.906 7.2373C 51.1703 6.67676 51.5486 6.24154 52.0407 5.93164C 52.5375 5.62174 53.1231 5.4668 53.7976 5.4668C 54.627 5.4668 55.3152 5.71517 55.862 6.21191C 56.4135 6.70866 56.7074 7.35352 56.7439 8.14648L 55.5476 8.14648C 55.5111 7.66797 55.3288 7.27604 55.0007 6.9707C 54.6771 6.66081 54.2761 6.50586 53.7976 6.50586C 53.155 6.50586 52.656 6.73828 52.3005 7.20312C 51.9496 7.66341 51.7741 8.33105 51.7741 9.20605L 51.7741 9.44531C 51.7741 10.2975 51.9496 10.9538 52.3005 11.4141C 52.6514 11.8743 53.1527 12.1045 53.8044 12.1045ZM 59.5398 13L 58.2751 13L 58.2751 5.60352L 59.5398 5.60352L 59.5398 13ZM 58.1726 3.6416C 58.1726 3.43652 58.2341 3.26335 58.3572 3.12207C 58.4848 2.98079 58.6716 2.91016 58.9177 2.91016C 59.1638 2.91016 59.3506 2.98079 59.4782 3.12207C 59.6059 3.26335 59.6697 3.43652 59.6697 3.6416C 59.6697 3.84668 59.6059 4.01758 59.4782 4.1543C 59.3506 4.29102 59.1638 4.35938 58.9177 4.35938C 58.6716 4.35938 58.4848 4.29102 58.3572 4.1543C 58.2341 4.01758 58.1726 3.84668 58.1726 3.6416ZM 63.2859 3.8125L 63.2859 5.60352L 64.6667 5.60352L 64.6667 6.58105L 63.2859 6.58105L 63.2859 11.168C 63.2859 11.4642 63.3474 11.6875 63.4704 11.8379C 63.5935 11.9837 63.8031 12.0566 64.0993 12.0566C 64.2452 12.0566 64.4457 12.0293 64.7009 11.9746L 64.7009 13C 64.3682 13.0911 64.0447 13.1367 63.7302 13.1367C 63.1651 13.1367 62.739 12.9658 62.4519 12.624C 62.1648 12.2822 62.0212 11.7969 62.0212 11.168L 62.0212 6.58105L 60.6745 6.58105L 60.6745 5.60352L 62.0212 5.60352L 62.0212 3.8125L 63.2859 3.8125ZM 68.57 11.1475L 70.2927 5.60352L 71.6462 5.60352L 68.6726 14.1416C 68.2123 15.3721 67.4809 15.9873 66.4782 15.9873L 66.239 15.9668L 65.7673 15.8779L 65.7673 14.8525L 66.1091 14.8799C 66.5375 14.8799 66.8702 14.7933 67.1072 14.6201C 67.3487 14.4469 67.5469 14.1302 67.7019 13.6699L 67.9822 12.918L 65.3435 5.60352L 66.7243 5.60352L 68.57 11.1475Z"/>
<path id="path10_fill" d="M 50.407 11.0381C 50.407 10.6963 50.2771 10.432 50.0173 10.2451C 49.7621 10.0537 49.3132 9.88965 48.6706 9.75293C 48.0326 9.61621 47.5245 9.45215 47.1462 9.26074C 46.7725 9.06934 46.4945 8.84147 46.3122 8.57715C 46.1345 8.31283 46.0456 7.99837 46.0456 7.63379C 46.0456 7.02767 46.3008 6.51497 46.8113 6.0957C 47.3262 5.67643 47.9825 5.4668 48.78 5.4668C 49.6185 5.4668 50.2976 5.68327 50.8171 6.11621C 51.3412 6.54915 51.6032 7.10286 51.6032 7.77734L 50.3318 7.77734C 50.3318 7.43099 50.1837 7.13249 49.8874 6.88184C 49.5958 6.63118 49.2266 6.50586 48.78 6.50586C 48.3197 6.50586 47.9597 6.60612 47.6999 6.80664C 47.4402 7.00716 47.3103 7.26921 47.3103 7.59277C 47.3103 7.89811 47.431 8.12826 47.6726 8.2832C 47.9141 8.43815 48.3493 8.58626 48.9782 8.72754C 49.6117 8.86882 50.1244 9.03743 50.5163 9.2334C 50.9083 9.42936 51.1976 9.66634 51.3845 9.94434C 51.5759 10.2178 51.6716 10.5527 51.6716 10.9492C 51.6716 11.61 51.4073 12.141 50.8786 12.542C 50.35 12.9385 49.6641 13.1367 48.821 13.1367C 48.2286 13.1367 47.7045 13.0319 47.2488 12.8223C 46.793 12.6126 46.4353 12.321 46.1755 11.9473C 45.9203 11.569 45.7927 11.1611 45.7927 10.7236L 47.0574 10.7236C 47.0801 11.1475 47.2488 11.4847 47.5632 11.7354C 47.8822 11.9814 48.3015 12.1045 48.821 12.1045C 49.2995 12.1045 49.6824 12.0088 49.9695 11.8174C 50.2611 11.6214 50.407 11.3617 50.407 11.0381ZM 55.0349 3.8125L 55.0349 5.60352L 56.4157 5.60352L 56.4157 6.58105L 55.0349 6.58105L 55.0349 11.168C 55.0349 11.4642 55.0964 11.6875 55.2195 11.8379C 55.3425 11.9837 55.5521 12.0566 55.8484 12.0566C 55.9942 12.0566 56.1947 12.0293 56.4499 11.9746L 56.4499 13C 56.1172 13.0911 55.7937 13.1367 55.4792 13.1367C 54.9141 13.1367 54.488 12.9658 54.2009 12.624C 53.9138 12.2822 53.7702 11.7969 53.7702 11.168L 53.7702 6.58105L 52.4236 6.58105L 52.4236 5.60352L 53.7702 5.60352L 53.7702 3.8125L 55.0349 3.8125ZM 62.4656 13C 62.3926 12.8542 62.3334 12.5944 62.2878 12.2207C 61.6999 12.8314 60.9981 13.1367 60.1824 13.1367C 59.4532 13.1367 58.8539 12.9316 58.3845 12.5215C 57.9197 12.1068 57.6872 11.5827 57.6872 10.9492C 57.6872 10.179 57.9789 9.58203 58.5622 9.1582C 59.1501 8.72982 59.975 8.51562 61.0368 8.51562L 62.2673 8.51562L 62.2673 7.93457C 62.2673 7.49251 62.1351 7.1416 61.8708 6.88184C 61.6065 6.61751 61.2169 6.48535 60.7019 6.48535C 60.2507 6.48535 59.8725 6.59928 59.5671 6.82715C 59.2618 7.05501 59.1091 7.33073 59.1091 7.6543L 57.8376 7.6543C 57.8376 7.28516 57.9675 6.92969 58.2273 6.58789C 58.4916 6.24154 58.8471 5.9681 59.2937 5.76758C 59.7449 5.56706 60.2393 5.4668 60.7771 5.4668C 61.6293 5.4668 62.2969 5.68099 62.78 6.10938C 63.2631 6.5332 63.5137 7.11882 63.532 7.86621L 63.532 11.2705C 63.532 11.9495 63.6185 12.4896 63.7917 12.8906L 63.7917 13L 62.4656 13ZM 60.3669 12.0361C 60.7634 12.0361 61.1394 11.9336 61.4949 11.7285C 61.8503 11.5234 62.1078 11.2568 62.2673 10.9287L 62.2673 9.41113L 61.2761 9.41113C 59.7266 9.41113 58.9519 9.86458 58.9519 10.7715C 58.9519 11.168 59.084 11.4779 59.3484 11.7012C 59.6127 11.9245 59.9522 12.0361 60.3669 12.0361ZM 67.2302 3.8125L 67.2302 5.60352L 68.6111 5.60352L 68.6111 6.58105L 67.2302 6.58105L 67.2302 11.168C 67.2302 11.4642 67.2917 11.6875 67.4148 11.8379C 67.5378 11.9837 67.7475 12.0566 68.0437 12.0566C 68.1895 12.0566 68.39 12.0293 68.6452 11.9746L 68.6452 13C 68.3126 13.0911 67.989 13.1367 67.6745 13.1367C 67.1094 13.1367 66.6833 12.9658 66.3962 12.624C 66.1091 12.2822 65.9656 11.7969 65.9656 11.168L 65.9656 6.58105L 64.6189 6.58105L 64.6189 5.60352L 65.9656 5.60352L 65.9656 3.8125L 67.2302 3.8125ZM 73.1638 13.1367C 72.1612 13.1367 71.3454 12.8086 70.7165 12.1523C 70.0876 11.4915 69.7732 10.6097 69.7732 9.50684L 69.7732 9.27441C 69.7732 8.54069 69.9122 7.88672 70.1902 7.3125C 70.4727 6.73372 70.8646 6.28255 71.3659 5.95898C 71.8718 5.63086 72.4187 5.4668 73.0066 5.4668C 73.9682 5.4668 74.7156 5.78353 75.2488 6.41699C 75.782 7.05046 76.0486 7.95736 76.0486 9.1377L 76.0486 9.66406L 71.0378 9.66406C 71.056 10.3932 71.268 10.9834 71.6736 11.4346C 72.0837 11.8812 72.6032 12.1045 73.2322 12.1045C 73.6788 12.1045 74.057 12.0133 74.3669 11.8311C 74.6768 11.6488 74.948 11.4072 75.1804 11.1064L 75.9529 11.708C 75.3331 12.6605 74.4034 13.1367 73.1638 13.1367ZM 73.0066 6.50586C 72.4962 6.50586 72.0678 6.69271 71.7214 7.06641C 71.3751 7.43555 71.1609 7.95508 71.0788 8.625L 74.7839 8.625L 74.7839 8.5293C 74.7475 7.88672 74.5743 7.38997 74.2644 7.03906C 73.9545 6.68359 73.5352 6.50586 73.0066 6.50586Z"/>
<path id="path11_fill" d="M 35.8122 11.2568L 37.2341 5.60352L 38.4988 5.60352L 36.3454 13L 35.32 13L 33.5222 7.39453L 31.7722 13L 30.7468 13L 28.6003 5.60352L 29.8581 5.60352L 31.3142 11.1406L 33.0368 5.60352L 34.0554 5.60352L 35.8122 11.2568ZM 41.1648 13L 39.9001 13L 39.9001 5.60352L 41.1648 5.60352L 41.1648 13ZM 39.7976 3.6416C 39.7976 3.43652 39.8591 3.26335 39.9822 3.12207C 40.1098 2.98079 40.2966 2.91016 40.5427 2.91016C 40.7888 2.91016 40.9756 2.98079 41.1032 3.12207C 41.2309 3.26335 41.2947 3.43652 41.2947 3.6416C 41.2947 3.84668 41.2309 4.01758 41.1032 4.1543C 40.9756 4.29102 40.7888 4.35938 40.5427 4.35938C 40.2966 4.35938 40.1098 4.29102 39.9822 4.1543C 39.8591 4.01758 39.7976 3.84668 39.7976 3.6416ZM 47.5017 11.0381C 47.5017 10.6963 47.3718 10.432 47.112 10.2451C 46.8568 10.0537 46.4079 9.88965 45.7654 9.75293C 45.1273 9.61621 44.6192 9.45215 44.2409 9.26074C 43.8672 9.06934 43.5893 8.84147 43.407 8.57715C 43.2292 8.31283 43.1404 7.99837 43.1404 7.63379C 43.1404 7.02767 43.3956 6.51497 43.906 6.0957C 44.421 5.67643 45.0772 5.4668 45.8747 5.4668C 46.7133 5.4668 47.3923 5.68327 47.9118 6.11621C 48.4359 6.54915 48.698 7.10286 48.698 7.77734L 47.4265 7.77734C 47.4265 7.43099 47.2784 7.13249 46.9822 6.88184C 46.6905 6.63118 46.3213 6.50586 45.8747 6.50586C 45.4144 6.50586 45.0544 6.60612 44.7947 6.80664C 44.5349 7.00716 44.405 7.26921 44.405 7.59277C 44.405 7.89811 44.5258 8.12826 44.7673 8.2832C 45.0088 8.43815 45.4441 8.58626 46.073 8.72754C 46.7064 8.86882 47.2191 9.03743 47.6111 9.2334C 48.003 9.42936 48.2924 9.66634 48.4792 9.94434C 48.6706 10.2178 48.7663 10.5527 48.7663 10.9492C 48.7663 11.61 48.502 12.141 47.9734 12.542C 47.4447 12.9385 46.7588 13.1367 45.9157 13.1367C 45.3233 13.1367 44.7992 13.0319 44.3435 12.8223C 43.8878 12.6126 43.53 12.321 43.2702 11.9473C 43.015 11.569 42.8874 11.1611 42.8874 10.7236L 44.1521 10.7236C 44.1749 11.1475 44.3435 11.4847 44.6579 11.7354C 44.9769 11.9814 45.3962 12.1045 45.9157 12.1045C 46.3943 12.1045 46.7771 12.0088 47.0642 11.8174C 47.3559 11.6214 47.5017 11.3617 47.5017 11.0381ZM 51.6784 6.49902C 52.239 5.81087 52.9682 5.4668 53.8659 5.4668C 55.4291 5.4668 56.2175 6.34863 56.2312 8.1123L 56.2312 13L 54.9665 13L 54.9665 8.10547C 54.962 7.57227 54.8389 7.17806 54.5974 6.92285C 54.3604 6.66764 53.989 6.54004 53.4831 6.54004C 53.073 6.54004 52.7129 6.64941 52.4031 6.86816C 52.0932 7.08691 51.8516 7.37402 51.6784 7.72949L 51.6784 13L 50.4138 13L 50.4138 2.5L 51.6784 2.5L 51.6784 6.49902ZM 59.4988 13L 58.2341 13L 58.2341 2.5L 59.4988 2.5L 59.4988 13ZM 62.9031 13L 61.6384 13L 61.6384 5.60352L 62.9031 5.60352L 62.9031 13ZM 61.5359 3.6416C 61.5359 3.43652 61.5974 3.26335 61.7204 3.12207C 61.848 2.98079 62.0349 2.91016 62.281 2.91016C 62.5271 2.91016 62.7139 2.98079 62.8415 3.12207C 62.9691 3.26335 63.0329 3.43652 63.0329 3.6416C 63.0329 3.84668 62.9691 4.01758 62.8415 4.1543C 62.7139 4.29102 62.5271 4.35938 62.281 4.35938C 62.0349 4.35938 61.848 4.29102 61.7204 4.1543C 61.5974 4.01758 61.5359 3.84668 61.5359 3.6416ZM 69.24 11.0381C 69.24 10.6963 69.1101 10.432 68.8503 10.2451C 68.5951 10.0537 68.1462 9.88965 67.5036 9.75293C 66.8656 9.61621 66.3575 9.45215 65.9792 9.26074C 65.6055 9.06934 65.3275 8.84147 65.1452 8.57715C 64.9675 8.31283 64.8786 7.99837 64.8786 7.63379C 64.8786 7.02767 65.1338 6.51497 65.6443 6.0957C 66.1592 5.67643 66.8155 5.4668 67.613 5.4668C 68.4516 5.4668 69.1306 5.68327 69.6501 6.11621C 70.1742 6.54915 70.4363 7.10286 70.4363 7.77734L 69.1648 7.77734C 69.1648 7.43099 69.0167 7.13249 68.7204 6.88184C 68.4288 6.63118 68.0596 6.50586 67.613 6.50586C 67.1527 6.50586 66.7927 6.60612 66.5329 6.80664C 66.2732 7.00716 66.1433 7.26921 66.1433 7.59277C 66.1433 7.89811 66.2641 8.12826 66.5056 8.2832C 66.7471 8.43815 67.1824 8.58626 67.8113 8.72754C 68.4447 8.86882 68.9574 9.03743 69.3493 9.2334C 69.7413 9.42936 70.0307 9.66634 70.2175 9.94434C 70.4089 10.2178 70.5046 10.5527 70.5046 10.9492C 70.5046 11.61 70.2403 12.141 69.7116 12.542C 69.183 12.9385 68.4971 13.1367 67.654 13.1367C 67.0616 13.1367 66.5375 13.0319 66.0818 12.8223C 65.626 12.6126 65.2683 12.321 65.0085 11.9473C 64.7533 11.569 64.6257 11.1611 64.6257 10.7236L 65.8904 10.7236C 65.9131 11.1475 66.0818 11.4847 66.3962 11.7354C 66.7152 11.9814 67.1345 12.1045 67.654 12.1045C 68.1325 12.1045 68.5154 12.0088 68.8025 11.8174C 69.0941 11.6214 69.24 11.3617 69.24 11.0381ZM 73.8679 3.8125L 73.8679 5.60352L 75.2488 5.60352L 75.2488 6.58105L 73.8679 6.58105L 73.8679 11.168C 73.8679 11.4642 73.9294 11.6875 74.0525 11.8379C 74.1755 11.9837 74.3851 12.0566 74.6814 12.0566C 74.8272 12.0566 75.0277 12.0293 75.2829 11.9746L 75.2829 13C 74.9503 13.0911 74.6267 13.1367 74.3122 13.1367C 73.7471 13.1367 73.321 12.9658 73.0339 12.624C 72.7468 12.2822 72.6032 11.7969 72.6032 11.168L 72.6032 6.58105L 71.2566 6.58105L 71.2566 5.60352L 72.6032 5.60352L 72.6032 3.8125L 73.8679 3.8125ZM 82.0642 14.0322L 75.8025 14.0322L 75.8025 13L 82.0642 13L 82.0642 14.0322ZM 84.4226 13L 83.1579 13L 83.1579 5.60352L 84.4226 5.60352L 84.4226 13ZM 83.0554 3.6416C 83.0554 3.43652 83.1169 3.26335 83.24 3.12207C 83.3676 2.98079 83.5544 2.91016 83.8005 2.91016C 84.0466 2.91016 84.2335 2.98079 84.3611 3.12207C 84.4887 3.26335 84.5525 3.43652 84.5525 3.6416C 84.5525 3.84668 84.4887 4.01758 84.3611 4.1543C 84.2335 4.29102 84.0466 4.35938 83.8005 4.35938C 83.5544 4.35938 83.3676 4.29102 83.24 4.1543C 83.1169 4.01758 83.0554 3.84668 83.0554 3.6416ZM 86.1452 9.24023C 86.1452 8.10547 86.4141 7.19401 86.9519 6.50586C 87.4896 5.81315 88.1937 5.4668 89.0642 5.4668C 89.9301 5.4668 90.6159 5.76302 91.1218 6.35547L 91.1218 2.5L 92.3865 2.5L 92.3865 13L 91.2243 13L 91.1628 12.207C 90.657 12.8268 89.9529 13.1367 89.0505 13.1367C 88.1937 13.1367 87.4942 12.7858 86.9519 12.084C 86.4141 11.3822 86.1452 10.4661 86.1452 9.33594L 86.1452 9.24023ZM 87.4099 9.38379C 87.4099 10.2223 87.5831 10.8786 87.9294 11.3525C 88.2758 11.8265 88.7543 12.0635 89.365 12.0635C 90.1671 12.0635 90.7527 11.7035 91.1218 10.9834L 91.1218 7.58594C 90.7435 6.88867 90.1625 6.54004 89.3786 6.54004C 88.7588 6.54004 88.2758 6.7793 87.9294 7.25781C 87.5831 7.73633 87.4099 8.44499 87.4099 9.38379Z"/>
<path id="path12_fill" d="M 43.8308 10.3135L 44.8015 5.60352L 46.7087 5.60352L 44.822 13L 43.1677 13L 41.7663 8.34473L 40.365 13L 38.7175 13L 36.8308 5.60352L 38.738 5.60352L 39.7019 10.3066L 41.0554 5.60352L 42.4841 5.60352L 43.8308 10.3135ZM 49.7781 13L 47.7956 13L 47.7956 5.60352L 49.7781 5.60352L 49.7781 13ZM 47.6794 3.68945C 47.6794 3.39323 47.7774 3.14941 47.9734 2.95801C 48.1739 2.7666 48.445 2.6709 48.7868 2.6709C 49.1241 2.6709 49.393 2.7666 49.5935 2.95801C 49.794 3.14941 49.8943 3.39323 49.8943 3.68945C 49.8943 3.99023 49.7917 4.23633 49.5866 4.42773C 49.3861 4.61914 49.1195 4.71484 48.7868 4.71484C 48.4542 4.71484 48.1853 4.61914 47.9802 4.42773C 47.7797 4.23633 47.6794 3.99023 47.6794 3.68945ZM 55.4177 10.9561C 55.4177 10.7145 55.2969 10.5254 55.0554 10.3887C 54.8184 10.2474 54.4356 10.1221 53.907 10.0127C 52.1478 9.64355 51.2683 8.89616 51.2683 7.77051C 51.2683 7.11426 51.5394 6.56738 52.0818 6.12988C 52.6286 5.68783 53.3419 5.4668 54.2214 5.4668C 55.1602 5.4668 55.9099 5.68783 56.4704 6.12988C 57.0355 6.57194 57.3181 7.14616 57.3181 7.85254L 55.3425 7.85254C 55.3425 7.56999 55.2514 7.33757 55.0691 7.15527C 54.8868 6.96842 54.6019 6.875 54.2146 6.875C 53.8819 6.875 53.6244 6.9502 53.4421 7.10059C 53.2598 7.25098 53.1687 7.44238 53.1687 7.6748C 53.1687 7.89355 53.2712 8.07129 53.4763 8.20801C 53.6859 8.34017 54.0368 8.45638 54.529 8.55664C 55.0212 8.65234 55.4359 8.76172 55.7732 8.88477C 56.8168 9.26758 57.3386 9.93066 57.3386 10.874C 57.3386 11.5485 57.0492 12.0954 56.4704 12.5146C 55.8917 12.9294 55.1443 13.1367 54.2282 13.1367C 53.6085 13.1367 53.057 13.0273 52.574 12.8086C 52.0954 12.5853 51.7195 12.2822 51.446 11.8994C 51.1726 11.512 51.0359 11.0951 51.0359 10.6484L 52.9089 10.6484C 52.9271 10.9993 53.057 11.2682 53.2986 11.4551C 53.5401 11.6419 53.8637 11.7354 54.2693 11.7354C 54.6475 11.7354 54.9324 11.6647 55.1238 11.5234C 55.3197 11.3776 55.4177 11.1885 55.4177 10.9561ZM 60.5447 6.41016C 61.0687 5.78125 61.7273 5.4668 62.5202 5.4668C 64.1244 5.4668 64.9379 6.39876 64.9607 8.2627L 64.9607 13L 62.9851 13L 62.9851 8.31738C 62.9851 7.89355 62.8939 7.58138 62.7116 7.38086C 62.5294 7.17578 62.2263 7.07324 61.8025 7.07324C 61.2237 7.07324 60.8044 7.29655 60.5447 7.74316L 60.5447 13L 58.5691 13L 58.5691 2.5L 60.5447 2.5L 60.5447 6.41016ZM 68.5359 13L 66.5534 13L 66.5534 2.5L 68.5359 2.5L 68.5359 13ZM 72.2546 13L 70.2722 13L 70.2722 5.60352L 72.2546 5.60352L 72.2546 13ZM 70.156 3.68945C 70.156 3.39323 70.254 3.14941 70.4499 2.95801C 70.6504 2.7666 70.9216 2.6709 71.2634 2.6709C 71.6006 2.6709 71.8695 2.7666 72.07 2.95801C 72.2706 3.14941 72.3708 3.39323 72.3708 3.68945C 72.3708 3.99023 72.2683 4.23633 72.0632 4.42773C 71.8627 4.61914 71.5961 4.71484 71.2634 4.71484C 70.9307 4.71484 70.6618 4.61914 70.4568 4.42773C 70.2562 4.23633 70.156 3.99023 70.156 3.68945ZM 77.8943 10.9561C 77.8943 10.7145 77.7735 10.5254 77.532 10.3887C 77.295 10.2474 76.9122 10.1221 76.3835 10.0127C 74.6244 9.64355 73.7449 8.89616 73.7449 7.77051C 73.7449 7.11426 74.016 6.56738 74.5583 6.12988C 75.1052 5.68783 75.8184 5.4668 76.698 5.4668C 77.6368 5.4668 78.3865 5.68783 78.947 6.12988C 79.5121 6.57194 79.7947 7.14616 79.7947 7.85254L 77.8191 7.85254C 77.8191 7.56999 77.7279 7.33757 77.5456 7.15527C 77.3633 6.96842 77.0785 6.875 76.6911 6.875C 76.3585 6.875 76.101 6.9502 75.9187 7.10059C 75.7364 7.25098 75.6452 7.44238 75.6452 7.6748C 75.6452 7.89355 75.7478 8.07129 75.9529 8.20801C 76.1625 8.34017 76.5134 8.45638 77.0056 8.55664C 77.4978 8.65234 77.9125 8.76172 78.2497 8.88477C 79.2934 9.26758 79.8152 9.93066 79.8152 10.874C 79.8152 11.5485 79.5258 12.0954 78.947 12.5146C 78.3682 12.9294 77.6208 13.1367 76.7048 13.1367C 76.085 13.1367 75.5336 13.0273 75.0505 12.8086C 74.572 12.5853 74.196 12.2822 73.9226 11.8994C 73.6491 11.512 73.5124 11.0951 73.5124 10.6484L 75.3855 10.6484C 75.4037 10.9993 75.5336 11.2682 75.7751 11.4551C 76.0167 11.6419 76.3402 11.7354 76.7458 11.7354C 77.1241 11.7354 77.4089 11.6647 77.6003 11.5234C 77.7963 11.3776 77.8943 11.1885 77.8943 10.9561ZM 83.4587 3.78516L 83.4587 5.60352L 84.7234 5.60352L 84.7234 7.05273L 83.4587 7.05273L 83.4587 10.7441C 83.4587 11.0176 83.5111 11.2135 83.6159 11.332C 83.7208 11.4505 83.9213 11.5098 84.2175 11.5098C 84.4363 11.5098 84.6299 11.4938 84.7986 11.4619L 84.7986 12.959C 84.4112 13.0775 84.0124 13.1367 83.6023 13.1367C 82.2169 13.1367 81.5105 12.4372 81.4831 11.0381L 81.4831 7.05273L 80.4031 7.05273L 80.4031 5.60352L 81.4831 5.60352L 81.4831 3.78516L 83.4587 3.78516Z"/>
<path id="path13_fill" d="M 26.3923 12.1045C 26.8435 12.1045 27.2377 11.9678 27.5749 11.6943C 27.9122 11.4209 28.099 11.0791 28.1355 10.6689L 29.3318 10.6689C 29.309 11.0928 29.1631 11.4961 28.8943 11.8789C 28.6254 12.2617 28.2654 12.5671 27.8142 12.7949C 27.3676 13.0228 26.8936 13.1367 26.3923 13.1367C 25.3851 13.1367 24.5831 12.8018 23.9861 12.1318C 23.3936 11.4574 23.0974 10.5368 23.0974 9.37012L 23.0974 9.1582C 23.0974 8.43815 23.2296 7.79785 23.4939 7.2373C 23.7582 6.67676 24.1365 6.24154 24.6286 5.93164C 25.1254 5.62174 25.711 5.4668 26.3855 5.4668C 27.2149 5.4668 27.9031 5.71517 28.4499 6.21191C 29.0014 6.70866 29.2953 7.35352 29.3318 8.14648L 28.1355 8.14648C 28.099 7.66797 27.9167 7.27604 27.5886 6.9707C 27.265 6.66081 26.864 6.50586 26.3855 6.50586C 25.7429 6.50586 25.2439 6.73828 24.8884 7.20312C 24.5375 7.66341 24.362 8.33105 24.362 9.20605L 24.362 9.44531C 24.362 10.2975 24.5375 10.9538 24.8884 11.4141C 25.2393 11.8743 25.7406 12.1045 26.3923 12.1045ZM 35.32 12.2686C 34.8279 12.8473 34.1055 13.1367 33.1531 13.1367C 32.3646 13.1367 31.7631 12.9089 31.3484 12.4531C 30.9382 11.9928 30.7309 11.3138 30.7263 10.416L 30.7263 5.60352L 31.9909 5.60352L 31.9909 10.3818C 31.9909 11.5029 32.4467 12.0635 33.3581 12.0635C 34.3243 12.0635 34.9669 11.7035 35.2859 10.9834L 35.2859 5.60352L 36.5505 5.60352L 36.5505 13L 35.3474 13L 35.32 12.2686ZM 42.7849 11.0381C 42.7849 10.6963 42.655 10.432 42.3952 10.2451C 42.14 10.0537 41.6911 9.88965 41.0486 9.75293C 40.4105 9.61621 39.9024 9.45215 39.5241 9.26074C 39.1504 9.06934 38.8725 8.84147 38.6902 8.57715C 38.5124 8.31283 38.4236 7.99837 38.4236 7.63379C 38.4236 7.02767 38.6788 6.51497 39.1892 6.0957C 39.7042 5.67643 40.3604 5.4668 41.1579 5.4668C 41.9965 5.4668 42.6755 5.68327 43.195 6.11621C 43.7191 6.54915 43.9812 7.10286 43.9812 7.77734L 42.7097 7.77734C 42.7097 7.43099 42.5616 7.13249 42.2654 6.88184C 41.9737 6.63118 41.6046 6.50586 41.1579 6.50586C 40.6976 6.50586 40.3376 6.60612 40.0779 6.80664C 39.8181 7.00716 39.6882 7.26921 39.6882 7.59277C 39.6882 7.89811 39.809 8.12826 40.0505 8.2832C 40.2921 8.43815 40.7273 8.58626 41.3562 8.72754C 41.9896 8.86882 42.5023 9.03743 42.8943 9.2334C 43.2862 9.42936 43.5756 9.66634 43.7624 9.94434C 43.9538 10.2178 44.0495 10.5527 44.0495 10.9492C 44.0495 11.61 43.7852 12.141 43.2566 12.542C 42.7279 12.9385 42.0421 13.1367 41.199 13.1367C 40.6065 13.1367 40.0824 13.0319 39.6267 12.8223C 39.171 12.6126 38.8132 12.321 38.5534 11.9473C 38.2982 11.569 38.1706 11.1611 38.1706 10.7236L 39.4353 10.7236C 39.4581 11.1475 39.6267 11.4847 39.9411 11.7354C 40.2601 11.9814 40.6794 12.1045 41.199 12.1045C 41.6775 12.1045 42.0603 12.0088 42.3474 11.8174C 42.6391 11.6214 42.7849 11.3617 42.7849 11.0381ZM 47.4128 3.8125L 47.4128 5.60352L 48.7937 5.60352L 48.7937 6.58105L 47.4128 6.58105L 47.4128 11.168C 47.4128 11.4642 47.4743 11.6875 47.5974 11.8379C 47.7204 11.9837 47.9301 12.0566 48.2263 12.0566C 48.3721 12.0566 48.5726 12.0293 48.8279 11.9746L 48.8279 13C 48.4952 13.0911 48.1716 13.1367 47.8572 13.1367C 47.2921 13.1367 46.8659 12.9658 46.5788 12.624C 46.2917 12.2822 46.1482 11.7969 46.1482 11.168L 46.1482 6.58105L 44.8015 6.58105L 44.8015 5.60352L 46.1482 5.60352L 46.1482 3.8125L 47.4128 3.8125ZM 49.8054 9.2334C 49.8054 8.50879 49.9467 7.8571 50.2292 7.27832C 50.5163 6.69954 50.9128 6.25293 51.4187 5.93848C 51.9291 5.62402 52.5101 5.4668 53.1618 5.4668C 54.169 5.4668 54.9825 5.81543 55.6023 6.5127C 56.2266 7.20996 56.5388 8.13737 56.5388 9.29492L 56.5388 9.38379C 56.5388 10.1038 56.3998 10.751 56.1218 11.3252C 55.8484 11.8949 55.4542 12.3392 54.9392 12.6582C 54.4288 12.9772 53.8409 13.1367 53.1755 13.1367C 52.1729 13.1367 51.3594 12.7881 50.7351 12.0908C 50.1153 11.3936 49.8054 10.4707 49.8054 9.32227L 49.8054 9.2334ZM 51.0769 9.38379C 51.0769 10.2041 51.266 10.8626 51.6443 11.3594C 52.0271 11.8561 52.5375 12.1045 53.1755 12.1045C 53.8181 12.1045 54.3285 11.8538 54.7068 11.3525C 55.085 10.8467 55.2741 10.1403 55.2741 9.2334C 55.2741 8.4222 55.0805 7.76595 54.6931 7.26465C 54.3103 6.75879 53.7999 6.50586 53.1618 6.50586C 52.5375 6.50586 52.0339 6.75423 51.6511 7.25098C 51.2683 7.74772 51.0769 8.45866 51.0769 9.38379ZM 59.3142 5.60352L 59.3484 6.42383C 59.8907 5.78581 60.6221 5.4668 61.5427 5.4668C 62.5772 5.4668 63.2813 5.86328 63.655 6.65625C 63.9011 6.30078 64.2201 6.01367 64.612 5.79492C 65.0085 5.57617 65.4756 5.4668 66.0134 5.4668C 67.6358 5.4668 68.4607 6.32585 68.488 8.04395L 68.488 13L 67.2234 13L 67.2234 8.11914C 67.2234 7.59049 67.1026 7.19629 66.8611 6.93652C 66.6195 6.6722 66.2139 6.54004 65.6443 6.54004C 65.1749 6.54004 64.7852 6.68132 64.4753 6.96387C 64.1654 7.24186 63.9854 7.61784 63.9353 8.0918L 63.9353 13L 62.6638 13L 62.6638 8.15332C 62.6638 7.0778 62.1374 6.54004 61.0847 6.54004C 60.2553 6.54004 59.6879 6.89323 59.3825 7.59961L 59.3825 13L 58.1179 13L 58.1179 5.60352L 59.3142 5.60352ZM 73.4714 13.1367C 72.4688 13.1367 71.6531 12.8086 71.0241 12.1523C 70.3952 11.4915 70.0808 10.6097 70.0808 9.50684L 70.0808 9.27441C 70.0808 8.54069 70.2198 7.88672 70.4978 7.3125C 70.7803 6.73372 71.1723 6.28255 71.6736 5.95898C 72.1794 5.63086 72.7263 5.4668 73.3142 5.4668C 74.2758 5.4668 75.0232 5.78353 75.5564 6.41699C 76.0896 7.05046 76.3562 7.95736 76.3562 9.1377L 76.3562 9.66406L 71.3454 9.66406C 71.3637 10.3932 71.5756 10.9834 71.9812 11.4346C 72.3913 11.8812 72.9109 12.1045 73.5398 12.1045C 73.9864 12.1045 74.3646 12.0133 74.6745 11.8311C 74.9844 11.6488 75.2556 11.4072 75.488 11.1064L 76.2605 11.708C 75.6407 12.6605 74.711 13.1367 73.4714 13.1367ZM 73.3142 6.50586C 72.8038 6.50586 72.3754 6.69271 72.029 7.06641C 71.6827 7.43555 71.4685 7.95508 71.3865 8.625L 75.0915 8.625L 75.0915 8.5293C 75.0551 7.88672 74.8819 7.38997 74.572 7.03906C 74.2621 6.68359 73.8428 6.50586 73.3142 6.50586ZM 81.4011 6.73828C 81.2097 6.70638 81.0023 6.69043 80.779 6.69043C 79.9496 6.69043 79.3868 7.04362 79.0906 7.75L 79.0906 13L 77.8259 13L 77.8259 5.60352L 79.0564 5.60352L 79.0769 6.45801C 79.4916 5.7972 80.0795 5.4668 80.8406 5.4668C 81.0866 5.4668 81.2735 5.4987 81.4011 5.5625L 81.4011 6.73828ZM 87.9021 14.0322L 81.6404 14.0322L 81.6404 13L 87.9021 13L 87.9021 14.0322ZM 90.2605 13L 88.9958 13L 88.9958 5.60352L 90.2605 5.60352L 90.2605 13ZM 88.8933 3.6416C 88.8933 3.43652 88.9548 3.26335 89.0779 3.12207C 89.2055 2.98079 89.3923 2.91016 89.6384 2.91016C 89.8845 2.91016 90.0713 2.98079 90.199 3.12207C 90.3266 3.26335 90.3904 3.43652 90.3904 3.6416C 90.3904 3.84668 90.3266 4.01758 90.199 4.1543C 90.0713 4.29102 89.8845 4.35938 89.6384 4.35938C 89.3923 4.35938 89.2055 4.29102 89.0779 4.1543C 88.9548 4.01758 88.8933 3.84668 88.8933 3.6416ZM 91.9831 9.24023C 91.9831 8.10547 92.252 7.19401 92.7898 6.50586C 93.3275 5.81315 94.0316 5.4668 94.9021 5.4668C 95.768 5.4668 96.4538 5.76302 96.9597 6.35547L 96.9597 2.5L 98.2243 2.5L 98.2243 13L 97.0622 13L 97.0007 12.207C 96.4949 12.8268 95.7907 13.1367 94.8884 13.1367C 94.0316 13.1367 93.3321 12.7858 92.7898 12.084C 92.252 11.3822 91.9831 10.4661 91.9831 9.33594L 91.9831 9.24023ZM 93.2478 9.38379C 93.2478 10.2223 93.421 10.8786 93.7673 11.3525C 94.1137 11.8265 94.5922 12.0635 95.2029 12.0635C 96.0049 12.0635 96.5906 11.7035 96.9597 10.9834L 96.9597 7.58594C 96.5814 6.88867 96.0004 6.54004 95.2165 6.54004C 94.5967 6.54004 94.1137 6.7793 93.7673 7.25781C 93.421 7.73633 93.2478 8.44499 93.2478 9.38379Z"/>
<path id="path14_fill" d="M 45.4851 5.60352L 45.5261 6.5332C 46.0912 5.82227 46.8295 5.4668 47.7409 5.4668C 49.3041 5.4668 50.0925 6.34863 50.1062 8.1123L 50.1062 13L 48.8415 13L 48.8415 8.10547C 48.837 7.57227 48.7139 7.17806 48.4724 6.92285C 48.2354 6.66764 47.864 6.54004 47.3581 6.54004C 46.948 6.54004 46.5879 6.64941 46.2781 6.86816C 45.9682 7.08691 45.7266 7.37402 45.5534 7.72949L 45.5534 13L 44.2888 13L 44.2888 5.60352L 45.4851 5.60352ZM 56.5798 13C 56.5069 12.8542 56.4476 12.5944 56.4021 12.2207C 55.8142 12.8314 55.1124 13.1367 54.2966 13.1367C 53.5674 13.1367 52.9682 12.9316 52.4988 12.5215C 52.0339 12.1068 51.8015 11.5827 51.8015 10.9492C 51.8015 10.179 52.0932 9.58203 52.6765 9.1582C 53.2644 8.72982 54.0893 8.51562 55.1511 8.51562L 56.3816 8.51562L 56.3816 7.93457C 56.3816 7.49251 56.2494 7.1416 55.9851 6.88184C 55.7208 6.61751 55.3311 6.48535 54.8161 6.48535C 54.365 6.48535 53.9867 6.59928 53.6814 6.82715C 53.376 7.05501 53.2234 7.33073 53.2234 7.6543L 51.9519 7.6543C 51.9519 7.28516 52.0818 6.92969 52.3415 6.58789C 52.6059 6.24154 52.9613 5.9681 53.4079 5.76758C 53.8591 5.56706 54.3536 5.4668 54.8913 5.4668C 55.7435 5.4668 56.4112 5.68099 56.8943 6.10938C 57.3773 6.5332 57.628 7.11882 57.6462 7.86621L 57.6462 11.2705C 57.6462 11.9495 57.7328 12.4896 57.906 12.8906L 57.906 13L 56.5798 13ZM 54.4812 12.0361C 54.8777 12.0361 55.2536 11.9336 55.6091 11.7285C 55.9646 11.5234 56.2221 11.2568 56.3816 10.9287L 56.3816 9.41113L 55.3904 9.41113C 53.8409 9.41113 53.0661 9.86458 53.0661 10.7715C 53.0661 11.168 53.1983 11.4779 53.4626 11.7012C 53.7269 11.9245 54.0665 12.0361 54.4812 12.0361ZM 60.8181 5.60352L 60.8523 6.42383C 61.3946 5.78581 62.126 5.4668 63.0466 5.4668C 64.0811 5.4668 64.7852 5.86328 65.1589 6.65625C 65.405 6.30078 65.724 6.01367 66.1159 5.79492C 66.5124 5.57617 66.9796 5.4668 67.5173 5.4668C 69.1397 5.4668 69.9646 6.32585 69.9919 8.04395L 69.9919 13L 68.7273 13L 68.7273 8.11914C 68.7273 7.59049 68.6065 7.19629 68.365 6.93652C 68.1234 6.6722 67.7178 6.54004 67.1482 6.54004C 66.6788 6.54004 66.2891 6.68132 65.9792 6.96387C 65.6693 7.24186 65.4893 7.61784 65.4392 8.0918L 65.4392 13L 64.1677 13L 64.1677 8.15332C 64.1677 7.0778 63.6413 6.54004 62.5886 6.54004C 61.7592 6.54004 61.1918 6.89323 60.8865 7.59961L 60.8865 13L 59.6218 13L 59.6218 5.60352L 60.8181 5.60352ZM 74.9753 13.1367C 73.9727 13.1367 73.157 12.8086 72.5281 12.1523C 71.8991 11.4915 71.5847 10.6097 71.5847 9.50684L 71.5847 9.27441C 71.5847 8.54069 71.7237 7.88672 72.0017 7.3125C 72.2842 6.73372 72.6762 6.28255 73.1775 5.95898C 73.6833 5.63086 74.2302 5.4668 74.8181 5.4668C 75.7797 5.4668 76.5271 5.78353 77.0603 6.41699C 77.5935 7.05046 77.8601 7.95736 77.8601 9.1377L 77.8601 9.66406L 72.8493 9.66406C 72.8676 10.3932 73.0795 10.9834 73.4851 11.4346C 73.8952 11.8812 74.4148 12.1045 75.0437 12.1045C 75.4903 12.1045 75.8685 12.0133 76.1784 11.8311C 76.4883 11.6488 76.7595 11.4072 76.9919 11.1064L 77.7644 11.708C 77.1446 12.6605 76.2149 13.1367 74.9753 13.1367ZM 74.8181 6.50586C 74.3077 6.50586 73.8793 6.69271 73.5329 7.06641C 73.1866 7.43555 72.9724 7.95508 72.8904 8.625L 76.5954 8.625L 76.5954 8.5293C 76.559 7.88672 76.3858 7.38997 76.0759 7.03906C 75.766 6.68359 75.3467 6.50586 74.8181 6.50586Z"/>
<path id="path15_fill" d="M 41.3562 12.1045C 41.8074 12.1045 42.2016 11.9678 42.5388 11.6943C 42.876 11.4209 43.0629 11.0791 43.0993 10.6689L 44.2956 10.6689C 44.2728 11.0928 44.127 11.4961 43.8581 11.8789C 43.5893 12.2617 43.2292 12.5671 42.7781 12.7949C 42.3314 13.0228 41.8575 13.1367 41.3562 13.1367C 40.349 13.1367 39.5469 12.8018 38.9499 12.1318C 38.3575 11.4574 38.0613 10.5368 38.0613 9.37012L 38.0613 9.1582C 38.0613 8.43815 38.1934 7.79785 38.4577 7.2373C 38.7221 6.67676 39.1003 6.24154 39.5925 5.93164C 40.0893 5.62174 40.6749 5.4668 41.3493 5.4668C 42.1788 5.4668 42.8669 5.71517 43.4138 6.21191C 43.9652 6.70866 44.2592 7.35352 44.2956 8.14648L 43.0993 8.14648C 43.0629 7.66797 42.8806 7.27604 42.5525 6.9707C 42.2289 6.66081 41.8279 6.50586 41.3493 6.50586C 40.7068 6.50586 40.2077 6.73828 39.8523 7.20312C 39.5014 7.66341 39.3259 8.33105 39.3259 9.20605L 39.3259 9.44531C 39.3259 10.2975 39.5014 10.9538 39.8523 11.4141C 40.2032 11.8743 40.7045 12.1045 41.3562 12.1045ZM 45.3825 9.2334C 45.3825 8.50879 45.5238 7.8571 45.8064 7.27832C 46.0935 6.69954 46.49 6.25293 46.9958 5.93848C 47.5062 5.62402 48.0873 5.4668 48.739 5.4668C 49.7462 5.4668 50.5596 5.81543 51.1794 6.5127C 51.8038 7.20996 52.1159 8.13737 52.1159 9.29492L 52.1159 9.38379C 52.1159 10.1038 51.9769 10.751 51.699 11.3252C 51.4255 11.8949 51.0313 12.3392 50.5163 12.6582C 50.0059 12.9772 49.418 13.1367 48.7527 13.1367C 47.7501 13.1367 46.9366 12.7881 46.3122 12.0908C 45.6924 11.3936 45.3825 10.4707 45.3825 9.32227L 45.3825 9.2334ZM 46.654 9.38379C 46.654 10.2041 46.8432 10.8626 47.2214 11.3594C 47.6042 11.8561 48.1146 12.1045 48.7527 12.1045C 49.3952 12.1045 49.9057 11.8538 50.2839 11.3525C 50.6622 10.8467 50.8513 10.1403 50.8513 9.2334C 50.8513 8.4222 50.6576 7.76595 50.2702 7.26465C 49.8874 6.75879 49.377 6.50586 48.739 6.50586C 48.1146 6.50586 47.6111 6.75423 47.2282 7.25098C 46.8454 7.74772 46.654 8.45866 46.654 9.38379ZM 58.2683 12.2686C 57.7761 12.8473 57.0538 13.1367 56.1013 13.1367C 55.3129 13.1367 54.7113 12.9089 54.2966 12.4531C 53.8865 11.9928 53.6791 11.3138 53.6745 10.416L 53.6745 5.60352L 54.9392 5.60352L 54.9392 10.3818C 54.9392 11.5029 55.3949 12.0635 56.3064 12.0635C 57.2725 12.0635 57.9151 11.7035 58.2341 10.9834L 58.2341 5.60352L 59.4988 5.60352L 59.4988 13L 58.2956 13L 58.2683 12.2686ZM 62.6228 5.60352L 62.6638 6.5332C 63.2289 5.82227 63.9672 5.4668 64.8786 5.4668C 66.4418 5.4668 67.2302 6.34863 67.2439 8.1123L 67.2439 13L 65.9792 13L 65.9792 8.10547C 65.9747 7.57227 65.8516 7.17806 65.6101 6.92285C 65.3731 6.66764 65.0017 6.54004 64.4958 6.54004C 64.0857 6.54004 63.7256 6.64941 63.4157 6.86816C 63.1059 7.08691 62.8643 7.37402 62.6911 7.72949L 62.6911 13L 61.4265 13L 61.4265 5.60352L 62.6228 5.60352ZM 70.8669 3.8125L 70.8669 5.60352L 72.2478 5.60352L 72.2478 6.58105L 70.8669 6.58105L 70.8669 11.168C 70.8669 11.4642 70.9284 11.6875 71.0515 11.8379C 71.1745 11.9837 71.3842 12.0566 71.6804 12.0566C 71.8262 12.0566 72.0268 12.0293 72.282 11.9746L 72.282 13C 71.9493 13.0911 71.6257 13.1367 71.3113 13.1367C 70.7462 13.1367 70.32 12.9658 70.0329 12.624C 69.7458 12.2822 69.6023 11.7969 69.6023 11.168L 69.6023 6.58105L 68.2556 6.58105L 68.2556 5.60352L 69.6023 5.60352L 69.6023 3.8125L 70.8669 3.8125ZM 77.3064 6.73828C 77.115 6.70638 76.9076 6.69043 76.6843 6.69043C 75.8549 6.69043 75.2921 7.04362 74.9958 7.75L 74.9958 13L 73.7312 13L 73.7312 5.60352L 74.9616 5.60352L 74.9822 6.45801C 75.3969 5.7972 75.9848 5.4668 76.7458 5.4668C 76.9919 5.4668 77.1788 5.4987 77.3064 5.5625L 77.3064 6.73828ZM 81.0183 11.1475L 82.7409 5.60352L 84.0945 5.60352L 81.1208 14.1416C 80.6605 15.3721 79.9291 15.9873 78.9265 15.9873L 78.6872 15.9668L 78.2156 15.8779L 78.2156 14.8525L 78.5574 14.8799C 78.9857 14.8799 79.3184 14.7933 79.5554 14.6201C 79.7969 14.4469 79.9952 14.1302 80.1501 13.6699L 80.4304 12.918L 77.7917 5.60352L 79.1726 5.60352L 81.0183 11.1475Z"/>
<path id="path16_fill" d="M 30.2478 9.38379C 30.2478 10.5094 29.9903 11.4163 29.4753 12.1045C 28.9603 12.7926 28.2631 13.1367 27.3835 13.1367C 26.4857 13.1367 25.7794 12.8519 25.2644 12.2822L 25.2644 15.8438L 23.9997 15.8438L 23.9997 5.60352L 25.155 5.60352L 25.2165 6.42383C 25.7315 5.78581 26.447 5.4668 27.363 5.4668C 28.2517 5.4668 28.9535 5.80176 29.4685 6.47168C 29.988 7.1416 30.2478 8.07357 30.2478 9.26758L 30.2478 9.38379ZM 28.9831 9.24023C 28.9831 8.40625 28.8054 7.74772 28.4499 7.26465C 28.0945 6.78158 27.6068 6.54004 26.987 6.54004C 26.2214 6.54004 25.6472 6.87956 25.2644 7.55859L 25.2644 11.0928C 25.6426 11.7673 26.2214 12.1045 27.0007 12.1045C 27.6068 12.1045 28.0876 11.8652 28.4431 11.3867C 28.8031 10.9036 28.9831 10.1882 28.9831 9.24023ZM 31.5261 9.2334C 31.5261 8.50879 31.6674 7.8571 31.9499 7.27832C 32.237 6.69954 32.6335 6.25293 33.1394 5.93848C 33.6498 5.62402 34.2309 5.4668 34.8825 5.4668C 35.8897 5.4668 36.7032 5.81543 37.323 6.5127C 37.9473 7.20996 38.2595 8.13737 38.2595 9.29492L 38.2595 9.38379C 38.2595 10.1038 38.1205 10.751 37.8425 11.3252C 37.5691 11.8949 37.1749 12.3392 36.6599 12.6582C 36.1495 12.9772 35.5616 13.1367 34.8962 13.1367C 33.8936 13.1367 33.0801 12.7881 32.4558 12.0908C 31.836 11.3936 31.5261 10.4707 31.5261 9.32227L 31.5261 9.2334ZM 32.7976 9.38379C 32.7976 10.2041 32.9867 10.8626 33.365 11.3594C 33.7478 11.8561 34.2582 12.1045 34.8962 12.1045C 35.5388 12.1045 36.0492 11.8538 36.4275 11.3525C 36.8057 10.8467 36.9949 10.1403 36.9949 9.2334C 36.9949 8.4222 36.8012 7.76595 36.4138 7.26465C 36.031 6.75879 35.5206 6.50586 34.8825 6.50586C 34.2582 6.50586 33.7546 6.75423 33.3718 7.25098C 32.989 7.74772 32.7976 8.45866 32.7976 9.38379ZM 44.1521 11.0381C 44.1521 10.6963 44.0222 10.432 43.7624 10.2451C 43.5072 10.0537 43.0583 9.88965 42.4157 9.75293C 41.7777 9.61621 41.2696 9.45215 40.8913 9.26074C 40.5176 9.06934 40.2396 8.84147 40.0574 8.57715C 39.8796 8.31283 39.7907 7.99837 39.7907 7.63379C 39.7907 7.02767 40.046 6.51497 40.5564 6.0957C 41.0713 5.67643 41.7276 5.4668 42.5251 5.4668C 43.3637 5.4668 44.0427 5.68327 44.5622 6.11621C 45.0863 6.54915 45.3484 7.10286 45.3484 7.77734L 44.0769 7.77734C 44.0769 7.43099 43.9288 7.13249 43.6325 6.88184C 43.3409 6.63118 42.9717 6.50586 42.5251 6.50586C 42.0648 6.50586 41.7048 6.60612 41.445 6.80664C 41.1853 7.00716 41.0554 7.26921 41.0554 7.59277C 41.0554 7.89811 41.1762 8.12826 41.4177 8.2832C 41.6592 8.43815 42.0945 8.58626 42.7234 8.72754C 43.3568 8.86882 43.8695 9.03743 44.2615 9.2334C 44.6534 9.42936 44.9428 9.66634 45.1296 9.94434C 45.321 10.2178 45.4167 10.5527 45.4167 10.9492C 45.4167 11.61 45.1524 12.141 44.6238 12.542C 44.0951 12.9385 43.4092 13.1367 42.5661 13.1367C 41.9737 13.1367 41.4496 13.0319 40.9939 12.8223C 40.5381 12.6126 40.1804 12.321 39.9206 11.9473C 39.6654 11.569 39.5378 11.1611 39.5378 10.7236L 40.8025 10.7236C 40.8253 11.1475 40.9939 11.4847 41.3083 11.7354C 41.6273 11.9814 42.0466 12.1045 42.5661 12.1045C 43.0447 12.1045 43.4275 12.0088 43.7146 11.8174C 44.0062 11.6214 44.1521 11.3617 44.1521 11.0381ZM 48.78 3.8125L 48.78 5.60352L 50.1609 5.60352L 50.1609 6.58105L 48.78 6.58105L 48.78 11.168C 48.78 11.4642 48.8415 11.6875 48.9646 11.8379C 49.0876 11.9837 49.2973 12.0566 49.5935 12.0566C 49.7393 12.0566 49.9398 12.0293 50.195 11.9746L 50.195 13C 49.8624 13.0911 49.5388 13.1367 49.2243 13.1367C 48.6592 13.1367 48.2331 12.9658 47.946 12.624C 47.6589 12.2822 47.5154 11.7969 47.5154 11.168L 47.5154 6.58105L 46.1687 6.58105L 46.1687 5.60352L 47.5154 5.60352L 47.5154 3.8125L 48.78 3.8125ZM 56.2107 13C 56.1378 12.8542 56.0785 12.5944 56.0329 12.2207C 55.445 12.8314 54.7432 13.1367 53.9275 13.1367C 53.1983 13.1367 52.599 12.9316 52.1296 12.5215C 51.6648 12.1068 51.4324 11.5827 51.4324 10.9492C 51.4324 10.179 51.724 9.58203 52.3074 9.1582C 52.8952 8.72982 53.7201 8.51562 54.782 8.51562L 56.0124 8.51562L 56.0124 7.93457C 56.0124 7.49251 55.8803 7.1416 55.6159 6.88184C 55.3516 6.61751 54.962 6.48535 54.447 6.48535C 53.9958 6.48535 53.6176 6.59928 53.3122 6.82715C 53.0069 7.05501 52.8542 7.33073 52.8542 7.6543L 51.5827 7.6543C 51.5827 7.28516 51.7126 6.92969 51.9724 6.58789C 52.2367 6.24154 52.5922 5.9681 53.0388 5.76758C 53.49 5.56706 53.9844 5.4668 54.5222 5.4668C 55.3744 5.4668 56.0421 5.68099 56.5251 6.10938C 57.0082 6.5332 57.2588 7.11882 57.2771 7.86621L 57.2771 11.2705C 57.2771 11.9495 57.3637 12.4896 57.5368 12.8906L 57.5368 13L 56.2107 13ZM 54.112 12.0361C 54.5085 12.0361 54.8845 11.9336 55.24 11.7285C 55.5954 11.5234 55.8529 11.2568 56.0124 10.9287L 56.0124 9.41113L 55.0212 9.41113C 53.4717 9.41113 52.697 9.86458 52.697 10.7715C 52.697 11.168 52.8292 11.4779 53.0935 11.7012C 53.3578 11.9245 53.6973 12.0361 54.112 12.0361ZM 60.6335 13L 59.3689 13L 59.3689 2.5L 60.6335 2.5L 60.6335 13ZM 67.9958 14.0322L 61.7341 14.0322L 61.7341 13L 67.9958 13L 67.9958 14.0322ZM 71.947 12.1045C 72.3982 12.1045 72.7924 11.9678 73.1296 11.6943C 73.4669 11.4209 73.6537 11.0791 73.6902 10.6689L 74.8865 10.6689C 74.8637 11.0928 74.7178 11.4961 74.449 11.8789C 74.1801 12.2617 73.82 12.5671 73.3689 12.7949C 72.9223 13.0228 72.4483 13.1367 71.947 13.1367C 70.9398 13.1367 70.1378 12.8018 69.5407 12.1318C 68.9483 11.4574 68.6521 10.5368 68.6521 9.37012L 68.6521 9.1582C 68.6521 8.43815 68.7842 7.79785 69.0486 7.2373C 69.3129 6.67676 69.6911 6.24154 70.1833 5.93164C 70.6801 5.62174 71.2657 5.4668 71.9402 5.4668C 72.7696 5.4668 73.4577 5.71517 74.0046 6.21191C 74.556 6.70866 74.85 7.35352 74.8865 8.14648L 73.6902 8.14648C 73.6537 7.66797 73.4714 7.27604 73.1433 6.9707C 72.8197 6.66081 72.4187 6.50586 71.9402 6.50586C 71.2976 6.50586 70.7986 6.73828 70.4431 7.20312C 70.0922 7.66341 69.9167 8.33105 69.9167 9.20605L 69.9167 9.44531C 69.9167 10.2975 70.0922 10.9538 70.4431 11.4141C 70.794 11.8743 71.2953 12.1045 71.947 12.1045ZM 75.9734 9.2334C 75.9734 8.50879 76.1146 7.8571 76.3972 7.27832C 76.6843 6.69954 77.0808 6.25293 77.5866 5.93848C 78.0971 5.62402 78.6781 5.4668 79.3298 5.4668C 80.337 5.4668 81.1504 5.81543 81.7702 6.5127C 82.3946 7.20996 82.7068 8.13737 82.7068 9.29492L 82.7068 9.38379C 82.7068 10.1038 82.5678 10.751 82.2898 11.3252C 82.0163 11.8949 81.6221 12.3392 81.1072 12.6582C 80.5967 12.9772 80.0088 13.1367 79.3435 13.1367C 78.3409 13.1367 77.5274 12.7881 76.9031 12.0908C 76.2833 11.3936 75.9734 10.4707 75.9734 9.32227L 75.9734 9.2334ZM 77.2449 9.38379C 77.2449 10.2041 77.434 10.8626 77.8122 11.3594C 78.195 11.8561 78.7055 12.1045 79.3435 12.1045C 79.9861 12.1045 80.4965 11.8538 80.8747 11.3525C 81.253 10.8467 81.4421 10.1403 81.4421 9.2334C 81.4421 8.4222 81.2484 7.76595 80.8611 7.26465C 80.4782 6.75879 79.9678 6.50586 79.3298 6.50586C 78.7055 6.50586 78.2019 6.75423 77.8191 7.25098C 77.4363 7.74772 77.2449 8.45866 77.2449 9.38379ZM 83.9851 9.24023C 83.9851 8.10547 84.254 7.19401 84.7917 6.50586C 85.3295 5.81315 86.0336 5.4668 86.904 5.4668C 87.7699 5.4668 88.4558 5.76302 88.9616 6.35547L 88.9616 2.5L 90.2263 2.5L 90.2263 13L 89.0642 13L 89.0027 12.207C 88.4968 12.8268 87.7927 13.1367 86.8904 13.1367C 86.0336 13.1367 85.334 12.7858 84.7917 12.084C 84.254 11.3822 83.9851 10.4661 83.9851 9.33594L 83.9851 9.24023ZM 85.2497 9.38379C 85.2497 10.2223 85.4229 10.8786 85.7693 11.3525C 86.1156 11.8265 86.5941 12.0635 87.2048 12.0635C 88.0069 12.0635 88.5925 11.7035 88.9616 10.9834L 88.9616 7.58594C 88.5834 6.88867 88.0023 6.54004 87.2185 6.54004C 86.5987 6.54004 86.1156 6.7793 85.7693 7.25781C 85.4229 7.73633 85.2497 8.44499 85.2497 9.38379ZM 95.2644 13.1367C 94.2618 13.1367 93.446 12.8086 92.8171 12.1523C 92.1882 11.4915 91.8738 10.6097 91.8738 9.50684L 91.8738 9.27441C 91.8738 8.54069 92.0128 7.88672 92.2907 7.3125C 92.5733 6.73372 92.9652 6.28255 93.4665 5.95898C 93.9724 5.63086 94.5193 5.4668 95.1072 5.4668C 96.0687 5.4668 96.8161 5.78353 97.3493 6.41699C 97.8825 7.05046 98.1491 7.95736 98.1491 9.1377L 98.1491 9.66406L 93.1384 9.66406C 93.1566 10.3932 93.3685 10.9834 93.7741 11.4346C 94.1843 11.8812 94.7038 12.1045 95.3327 12.1045C 95.7794 12.1045 96.1576 12.0133 96.4675 11.8311C 96.7774 11.6488 97.0486 11.4072 97.281 11.1064L 98.0534 11.708C 97.4337 12.6605 96.504 13.1367 95.2644 13.1367ZM 95.1072 6.50586C 94.5967 6.50586 94.1684 6.69271 93.822 7.06641C 93.4756 7.43555 93.2615 7.95508 93.1794 8.625L 96.8845 8.625L 96.8845 8.5293C 96.848 7.88672 96.6749 7.38997 96.365 7.03906C 96.0551 6.68359 95.6358 6.50586 95.1072 6.50586Z"/>
<path id="path17_fill" d="M 48.7048 9.38379C 48.7048 10.5094 48.4473 11.4163 47.9324 12.1045C 47.4174 12.7926 46.7201 13.1367 45.8406 13.1367C 44.9428 13.1367 44.2364 12.8519 43.7214 12.2822L 43.7214 15.8438L 42.4568 15.8438L 42.4568 5.60352L 43.612 5.60352L 43.6736 6.42383C 44.1885 5.78581 44.904 5.4668 45.82 5.4668C 46.7087 5.4668 47.4105 5.80176 47.9255 6.47168C 48.445 7.1416 48.7048 8.07357 48.7048 9.26758L 48.7048 9.38379ZM 47.4402 9.24023C 47.4402 8.40625 47.2624 7.74772 46.907 7.26465C 46.5515 6.78158 46.0639 6.54004 45.4441 6.54004C 44.6784 6.54004 44.1042 6.87956 43.7214 7.55859L 43.7214 11.0928C 44.0997 11.7673 44.6784 12.1045 45.4577 12.1045C 46.0639 12.1045 46.5447 11.8652 46.9001 11.3867C 47.2601 10.9036 47.4402 10.1882 47.4402 9.24023ZM 51.5827 6.49902C 52.1433 5.81087 52.8725 5.4668 53.7702 5.4668C 55.3334 5.4668 56.1218 6.34863 56.1355 8.1123L 56.1355 13L 54.8708 13L 54.8708 8.10547C 54.8663 7.57227 54.7432 7.17806 54.5017 6.92285C 54.2647 6.66764 53.8933 6.54004 53.3874 6.54004C 52.9773 6.54004 52.6172 6.64941 52.3074 6.86816C 51.9975 7.08691 51.7559 7.37402 51.5827 7.72949L 51.5827 13L 50.3181 13L 50.3181 2.5L 51.5827 2.5L 51.5827 6.49902ZM 57.6941 9.2334C 57.6941 8.50879 57.8353 7.8571 58.1179 7.27832C 58.405 6.69954 58.8015 6.25293 59.3074 5.93848C 59.8178 5.62402 60.3988 5.4668 61.0505 5.4668C 62.0577 5.4668 62.8712 5.81543 63.4909 6.5127C 64.1153 7.20996 64.4275 8.13737 64.4275 9.29492L 64.4275 9.38379C 64.4275 10.1038 64.2885 10.751 64.0105 11.3252C 63.737 11.8949 63.3428 12.3392 62.8279 12.6582C 62.3174 12.9772 61.7296 13.1367 61.0642 13.1367C 60.0616 13.1367 59.2481 12.7881 58.6238 12.0908C 58.004 11.3936 57.6941 10.4707 57.6941 9.32227L 57.6941 9.2334ZM 58.9656 9.38379C 58.9656 10.2041 59.1547 10.8626 59.5329 11.3594C 59.9157 11.8561 60.4262 12.1045 61.0642 12.1045C 61.7068 12.1045 62.2172 11.8538 62.5954 11.3525C 62.9737 10.8467 63.1628 10.1403 63.1628 9.2334C 63.1628 8.4222 62.9691 7.76595 62.5818 7.26465C 62.199 6.75879 61.6885 6.50586 61.0505 6.50586C 60.4262 6.50586 59.9226 6.75423 59.5398 7.25098C 59.157 7.74772 58.9656 8.45866 58.9656 9.38379ZM 67.2097 5.60352L 67.2507 6.5332C 67.8158 5.82227 68.5541 5.4668 69.4656 5.4668C 71.0287 5.4668 71.8171 6.34863 71.8308 8.1123L 71.8308 13L 70.5661 13L 70.5661 8.10547C 70.5616 7.57227 70.4385 7.17806 70.197 6.92285C 69.96 6.66764 69.5886 6.54004 69.0827 6.54004C 68.6726 6.54004 68.3126 6.64941 68.0027 6.86816C 67.6928 7.08691 67.4512 7.37402 67.2781 7.72949L 67.2781 13L 66.0134 13L 66.0134 5.60352L 67.2097 5.60352ZM 76.8074 13.1367C 75.8047 13.1367 74.989 12.8086 74.3601 12.1523C 73.7312 11.4915 73.4167 10.6097 73.4167 9.50684L 73.4167 9.27441C 73.4167 8.54069 73.5557 7.88672 73.8337 7.3125C 74.1163 6.73372 74.5082 6.28255 75.0095 5.95898C 75.5154 5.63086 76.0622 5.4668 76.6501 5.4668C 77.6117 5.4668 78.3591 5.78353 78.8923 6.41699C 79.4255 7.05046 79.6921 7.95736 79.6921 9.1377L 79.6921 9.66406L 74.6814 9.66406C 74.6996 10.3932 74.9115 10.9834 75.3171 11.4346C 75.7273 11.8812 76.2468 12.1045 76.8757 12.1045C 77.3223 12.1045 77.7006 12.0133 78.0105 11.8311C 78.3204 11.6488 78.5915 11.4072 78.824 11.1064L 79.5964 11.708C 78.9766 12.6605 78.0469 13.1367 76.8074 13.1367ZM 76.6501 6.50586C 76.1397 6.50586 75.7113 6.69271 75.365 7.06641C 75.0186 7.43555 74.8044 7.95508 74.7224 8.625L 78.4275 8.625L 78.4275 8.5293C 78.391 7.88672 78.2178 7.38997 77.9079 7.03906C 77.598 6.68359 77.1788 6.50586 76.6501 6.50586Z"/>
<path id="path18_fill" d="M 52.7175 13L 52.7175 6.58105L 51.5486 6.58105L 51.5486 5.60352L 52.7175 5.60352L 52.7175 4.84473C 52.7175 4.05176 52.9294 3.4388 53.3532 3.00586C 53.7771 2.57292 54.3764 2.35645 55.1511 2.35645C 55.4428 2.35645 55.7322 2.39518 56.0193 2.47266L 55.9509 3.49805C 55.7367 3.45703 55.5088 3.43652 55.2673 3.43652C 54.8572 3.43652 54.5404 3.55729 54.3171 3.79883C 54.0938 4.03581 53.9822 4.3776 53.9822 4.82422L 53.9822 5.60352L 55.5613 5.60352L 55.5613 6.58105L 53.9822 6.58105L 53.9822 13L 52.7175 13ZM 61.529 13C 61.4561 12.8542 61.3969 12.5944 61.3513 12.2207C 60.7634 12.8314 60.0616 13.1367 59.2458 13.1367C 58.5167 13.1367 57.9174 12.9316 57.448 12.5215C 56.9831 12.1068 56.7507 11.5827 56.7507 10.9492C 56.7507 10.179 57.0424 9.58203 57.6257 9.1582C 58.2136 8.72982 59.0385 8.51562 60.1003 8.51562L 61.3308 8.51562L 61.3308 7.93457C 61.3308 7.49251 61.1986 7.1416 60.9343 6.88184C 60.67 6.61751 60.2803 6.48535 59.7654 6.48535C 59.3142 6.48535 58.9359 6.59928 58.6306 6.82715C 58.3253 7.05501 58.1726 7.33073 58.1726 7.6543L 56.9011 7.6543C 56.9011 7.28516 57.031 6.92969 57.2907 6.58789C 57.5551 6.24154 57.9105 5.9681 58.3572 5.76758C 58.8083 5.56706 59.3028 5.4668 59.8406 5.4668C 60.6928 5.4668 61.3604 5.68099 61.8435 6.10938C 62.3266 6.5332 62.5772 7.11882 62.5954 7.86621L 62.5954 11.2705C 62.5954 11.9495 62.682 12.4896 62.8552 12.8906L 62.8552 13L 61.529 13ZM 59.4304 12.0361C 59.8269 12.0361 60.2029 11.9336 60.5583 11.7285C 60.9138 11.5234 61.1713 11.2568 61.3308 10.9287L 61.3308 9.41113L 60.3396 9.41113C 58.7901 9.41113 58.0154 9.86458 58.0154 10.7715C 58.0154 11.168 58.1475 11.4779 58.4118 11.7012C 58.6762 11.9245 59.0157 12.0361 59.4304 12.0361ZM 67.0593 8.30371L 68.6999 5.60352L 70.1765 5.60352L 67.7566 9.26074L 70.2517 13L 68.7888 13L 67.0798 10.2314L 65.3708 13L 63.9011 13L 66.3962 9.26074L 63.9763 5.60352L 65.4392 5.60352L 67.0593 8.30371Z"/>
<path id="path19_fill" d="M 47.8161 13.1367C 46.8135 13.1367 45.9978 12.8086 45.3689 12.1523C 44.74 11.4915 44.4255 10.6097 44.4255 9.50684L 44.4255 9.27441C 44.4255 8.54069 44.5645 7.88672 44.8425 7.3125C 45.1251 6.73372 45.517 6.28255 46.0183 5.95898C 46.5241 5.63086 47.071 5.4668 47.6589 5.4668C 48.6205 5.4668 49.3679 5.78353 49.9011 6.41699C 50.4343 7.05046 50.7009 7.95736 50.7009 9.1377L 50.7009 9.66406L 45.6902 9.66406C 45.7084 10.3932 45.9203 10.9834 46.3259 11.4346C 46.7361 11.8812 47.2556 12.1045 47.8845 12.1045C 48.3311 12.1045 48.7094 12.0133 49.0193 11.8311C 49.3292 11.6488 49.6003 11.4072 49.8327 11.1064L 50.6052 11.708C 49.9854 12.6605 49.0557 13.1367 47.8161 13.1367ZM 47.6589 6.50586C 47.1485 6.50586 46.7201 6.69271 46.3738 7.06641C 46.0274 7.43555 45.8132 7.95508 45.7312 8.625L 49.4363 8.625L 49.4363 8.5293C 49.3998 7.88672 49.2266 7.38997 48.9167 7.03906C 48.6068 6.68359 48.1876 6.50586 47.6589 6.50586ZM 53.3601 5.60352L 53.3943 6.42383C 53.9366 5.78581 54.668 5.4668 55.5886 5.4668C 56.6231 5.4668 57.3272 5.86328 57.7009 6.65625C 57.947 6.30078 58.266 6.01367 58.6579 5.79492C 59.0544 5.57617 59.5215 5.4668 60.0593 5.4668C 61.6817 5.4668 62.5066 6.32585 62.5339 8.04395L 62.5339 13L 61.2693 13L 61.2693 8.11914C 61.2693 7.59049 61.1485 7.19629 60.907 6.93652C 60.6654 6.6722 60.2598 6.54004 59.6902 6.54004C 59.2208 6.54004 58.8311 6.68132 58.5212 6.96387C 58.2113 7.24186 58.0313 7.61784 57.9812 8.0918L 57.9812 13L 56.7097 13L 56.7097 8.15332C 56.7097 7.0778 56.1833 6.54004 55.1306 6.54004C 54.3012 6.54004 53.7338 6.89323 53.4284 7.59961L 53.4284 13L 52.1638 13L 52.1638 5.60352L 53.3601 5.60352ZM 69.0144 13C 68.9415 12.8542 68.8822 12.5944 68.8366 12.2207C 68.2488 12.8314 67.5469 13.1367 66.7312 13.1367C 66.002 13.1367 65.4027 12.9316 64.9333 12.5215C 64.4685 12.1068 64.2361 11.5827 64.2361 10.9492C 64.2361 10.179 64.5277 9.58203 65.1111 9.1582C 65.699 8.72982 66.5238 8.51562 67.5857 8.51562L 68.8161 8.51562L 68.8161 7.93457C 68.8161 7.49251 68.684 7.1416 68.4197 6.88184C 68.1553 6.61751 67.7657 6.48535 67.2507 6.48535C 66.7995 6.48535 66.4213 6.59928 66.1159 6.82715C 65.8106 7.05501 65.6579 7.33073 65.6579 7.6543L 64.3865 7.6543C 64.3865 7.28516 64.5163 6.92969 64.7761 6.58789C 65.0404 6.24154 65.3959 5.9681 65.8425 5.76758C 66.2937 5.56706 66.7881 5.4668 67.3259 5.4668C 68.1781 5.4668 68.8458 5.68099 69.3288 6.10938C 69.8119 6.5332 70.0626 7.11882 70.0808 7.86621L 70.0808 11.2705C 70.0808 11.9495 70.1674 12.4896 70.3406 12.8906L 70.3406 13L 69.0144 13ZM 66.9157 12.0361C 67.3122 12.0361 67.6882 11.9336 68.0437 11.7285C 68.3991 11.5234 68.6566 11.2568 68.8161 10.9287L 68.8161 9.41113L 67.8249 9.41113C 66.2754 9.41113 65.5007 9.86458 65.5007 10.7715C 65.5007 11.168 65.6329 11.4779 65.8972 11.7012C 66.1615 11.9245 66.501 12.0361 66.9157 12.0361ZM 73.4372 13L 72.1726 13L 72.1726 5.60352L 73.4372 5.60352L 73.4372 13ZM 72.07 3.6416C 72.07 3.43652 72.1316 3.26335 72.2546 3.12207C 72.3822 2.98079 72.5691 2.91016 72.8152 2.91016C 73.0613 2.91016 73.2481 2.98079 73.3757 3.12207C 73.5033 3.26335 73.5671 3.43652 73.5671 3.6416C 73.5671 3.84668 73.5033 4.01758 73.3757 4.1543C 73.2481 4.29102 73.0613 4.35938 72.8152 4.35938C 72.5691 4.35938 72.3822 4.29102 72.2546 4.1543C 72.1316 4.01758 72.07 3.84668 72.07 3.6416ZM 76.8415 13L 75.5769 13L 75.5769 2.5L 76.8415 2.5L 76.8415 13Z"/>
<path id="path20_fill" d="M 20.0417 11.0381C 20.0417 10.6963 19.9118 10.432 19.6521 10.2451C 19.3969 10.0537 18.948 9.88965 18.3054 9.75293C 17.6674 9.61621 17.1592 9.45215 16.781 9.26074C 16.4073 9.06934 16.1293 8.84147 15.947 8.57715C 15.7693 8.31283 15.6804 7.99837 15.6804 7.63379C 15.6804 7.02767 15.9356 6.51497 16.446 6.0957C 16.961 5.67643 17.6172 5.4668 18.4148 5.4668C 19.2533 5.4668 19.9324 5.68327 20.4519 6.11621C 20.976 6.54915 21.238 7.10286 21.238 7.77734L 19.9665 7.77734C 19.9665 7.43099 19.8184 7.13249 19.5222 6.88184C 19.2305 6.63118 18.8614 6.50586 18.4148 6.50586C 17.9545 6.50586 17.5945 6.60612 17.3347 6.80664C 17.0749 7.00716 16.945 7.26921 16.945 7.59277C 16.945 7.89811 17.0658 8.12826 17.3074 8.2832C 17.5489 8.43815 17.9841 8.58626 18.613 8.72754C 19.2465 8.86882 19.7592 9.03743 20.1511 9.2334C 20.543 9.42936 20.8324 9.66634 21.0193 9.94434C 21.2107 10.2178 21.3064 10.5527 21.3064 10.9492C 21.3064 11.61 21.0421 12.141 20.5134 12.542C 19.9848 12.9385 19.2989 13.1367 18.4558 13.1367C 17.8633 13.1367 17.3393 13.0319 16.8835 12.8223C 16.4278 12.6126 16.07 12.321 15.8103 11.9473C 15.5551 11.569 15.4275 11.1611 15.4275 10.7236L 16.6921 10.7236C 16.7149 11.1475 16.8835 11.4847 17.198 11.7354C 17.517 11.9814 17.9363 12.1045 18.4558 12.1045C 18.9343 12.1045 19.3171 12.0088 19.6042 11.8174C 19.8959 11.6214 20.0417 11.3617 20.0417 11.0381ZM 27.5202 12.2686C 27.0281 12.8473 26.3057 13.1367 25.3532 13.1367C 24.5648 13.1367 23.9633 12.9089 23.5486 12.4531C 23.1384 11.9928 22.931 11.3138 22.9265 10.416L 22.9265 5.60352L 24.1911 5.60352L 24.1911 10.3818C 24.1911 11.5029 24.6469 12.0635 25.5583 12.0635C 26.5245 12.0635 27.1671 11.7035 27.4861 10.9834L 27.4861 5.60352L 28.7507 5.60352L 28.7507 13L 27.5476 13L 27.5202 12.2686ZM 36.9265 9.38379C 36.9265 10.5094 36.669 11.4163 36.154 12.1045C 35.6391 12.7926 34.9418 13.1367 34.0622 13.1367C 33.1644 13.1367 32.4581 12.8519 31.9431 12.2822L 31.9431 15.8438L 30.6784 15.8438L 30.6784 5.60352L 31.8337 5.60352L 31.8952 6.42383C 32.4102 5.78581 33.1257 5.4668 34.0417 5.4668C 34.9304 5.4668 35.6322 5.80176 36.1472 6.47168C 36.6667 7.1416 36.9265 8.07357 36.9265 9.26758L 36.9265 9.38379ZM 35.6618 9.24023C 35.6618 8.40625 35.4841 7.74772 35.1286 7.26465C 34.7732 6.78158 34.2855 6.54004 33.6657 6.54004C 32.9001 6.54004 32.3259 6.87956 31.9431 7.55859L 31.9431 11.0928C 32.3213 11.7673 32.9001 12.1045 33.6794 12.1045C 34.2855 12.1045 34.7663 11.8652 35.1218 11.3867C 35.4818 10.9036 35.6618 10.1882 35.6618 9.24023ZM 44.7878 9.38379C 44.7878 10.5094 44.5303 11.4163 44.0154 12.1045C 43.5004 12.7926 42.8031 13.1367 41.9236 13.1367C 41.0258 13.1367 40.3194 12.8519 39.8044 12.2822L 39.8044 15.8438L 38.5398 15.8438L 38.5398 5.60352L 39.695 5.60352L 39.7566 6.42383C 40.2715 5.78581 40.987 5.4668 41.9031 5.4668C 42.7917 5.4668 43.4935 5.80176 44.0085 6.47168C 44.5281 7.1416 44.7878 8.07357 44.7878 9.26758L 44.7878 9.38379ZM 43.5232 9.24023C 43.5232 8.40625 43.3454 7.74772 42.99 7.26465C 42.6345 6.78158 42.1469 6.54004 41.5271 6.54004C 40.7615 6.54004 40.1872 6.87956 39.8044 7.55859L 39.8044 11.0928C 40.1827 11.7673 40.7615 12.1045 41.5407 12.1045C 42.1469 12.1045 42.6277 11.8652 42.9831 11.3867C 43.3432 10.9036 43.5232 10.1882 43.5232 9.24023ZM 46.0661 9.2334C 46.0661 8.50879 46.2074 7.8571 46.49 7.27832C 46.7771 6.69954 47.1736 6.25293 47.6794 5.93848C 48.1898 5.62402 48.7709 5.4668 49.4226 5.4668C 50.4297 5.4668 51.2432 5.81543 51.863 6.5127C 52.4874 7.20996 52.7995 8.13737 52.7995 9.29492L 52.7995 9.38379C 52.7995 10.1038 52.6605 10.751 52.3825 11.3252C 52.1091 11.8949 51.7149 12.3392 51.1999 12.6582C 50.6895 12.9772 50.1016 13.1367 49.4363 13.1367C 48.4337 13.1367 47.6202 12.7881 46.9958 12.0908C 46.376 11.3936 46.0661 10.4707 46.0661 9.32227L 46.0661 9.2334ZM 47.3376 9.38379C 47.3376 10.2041 47.5268 10.8626 47.905 11.3594C 48.2878 11.8561 48.7982 12.1045 49.4363 12.1045C 50.0788 12.1045 50.5893 11.8538 50.9675 11.3525C 51.3458 10.8467 51.5349 10.1403 51.5349 9.2334C 51.5349 8.4222 51.3412 7.76595 50.9538 7.26465C 50.571 6.75879 50.0606 6.50586 49.4226 6.50586C 48.7982 6.50586 48.2947 6.75423 47.9118 7.25098C 47.529 7.74772 47.3376 8.45866 47.3376 9.38379ZM 57.9607 6.73828C 57.7693 6.70638 57.5619 6.69043 57.3386 6.69043C 56.5092 6.69043 55.9463 7.04362 55.6501 7.75L 55.6501 13L 54.3855 13L 54.3855 5.60352L 55.6159 5.60352L 55.6365 6.45801C 56.0512 5.7972 56.6391 5.4668 57.4001 5.4668C 57.6462 5.4668 57.8331 5.4987 57.9607 5.5625L 57.9607 6.73828ZM 61.1872 3.8125L 61.1872 5.60352L 62.5681 5.60352L 62.5681 6.58105L 61.1872 6.58105L 61.1872 11.168C 61.1872 11.4642 61.2488 11.6875 61.3718 11.8379C 61.4949 11.9837 61.7045 12.0566 62.0007 12.0566C 62.1465 12.0566 62.3471 12.0293 62.6023 11.9746L 62.6023 13C 62.2696 13.0911 61.946 13.1367 61.6316 13.1367C 61.0665 13.1367 60.6404 12.9658 60.3532 12.624C 60.0661 12.2822 59.9226 11.7969 59.9226 11.168L 59.9226 6.58105L 58.5759 6.58105L 58.5759 5.60352L 59.9226 5.60352L 59.9226 3.8125L 61.1872 3.8125ZM 69.3835 14.0322L 63.1218 14.0322L 63.1218 13L 69.3835 13L 69.3835 14.0322ZM 73.9431 6.73828C 73.7517 6.70638 73.5443 6.69043 73.321 6.69043C 72.4916 6.69043 71.9288 7.04362 71.6325 7.75L 71.6325 13L 70.3679 13L 70.3679 5.60352L 71.5984 5.60352L 71.6189 6.45801C 72.0336 5.7972 72.6215 5.4668 73.3825 5.4668C 73.6286 5.4668 73.8155 5.4987 73.9431 5.5625L 73.9431 6.73828ZM 78.0447 13.1367C 77.0421 13.1367 76.2263 12.8086 75.5974 12.1523C 74.9685 11.4915 74.654 10.6097 74.654 9.50684L 74.654 9.27441C 74.654 8.54069 74.793 7.88672 75.071 7.3125C 75.3536 6.73372 75.7455 6.28255 76.2468 5.95898C 76.7527 5.63086 77.2995 5.4668 77.8874 5.4668C 78.849 5.4668 79.5964 5.78353 80.1296 6.41699C 80.6628 7.05046 80.9294 7.95736 80.9294 9.1377L 80.9294 9.66406L 75.9187 9.66406C 75.9369 10.3932 76.1488 10.9834 76.5544 11.4346C 76.9646 11.8812 77.4841 12.1045 78.113 12.1045C 78.5596 12.1045 78.9379 12.0133 79.2478 11.8311C 79.5577 11.6488 79.8288 11.4072 80.0613 11.1064L 80.8337 11.708C 80.2139 12.6605 79.2842 13.1367 78.0447 13.1367ZM 77.8874 6.50586C 77.377 6.50586 76.9486 6.69271 76.6023 7.06641C 76.2559 7.43555 76.0417 7.95508 75.9597 8.625L 79.6648 8.625L 79.6648 8.5293C 79.6283 7.88672 79.4551 7.38997 79.1452 7.03906C 78.8353 6.68359 78.4161 6.50586 77.8874 6.50586ZM 88.6472 9.38379C 88.6472 10.5094 88.3897 11.4163 87.8747 12.1045C 87.3598 12.7926 86.6625 13.1367 85.7829 13.1367C 84.8851 13.1367 84.1788 12.8519 83.6638 12.2822L 83.6638 15.8438L 82.3991 15.8438L 82.3991 5.60352L 83.5544 5.60352L 83.6159 6.42383C 84.1309 5.78581 84.8464 5.4668 85.7624 5.4668C 86.6511 5.4668 87.3529 5.80176 87.8679 6.47168C 88.3874 7.1416 88.6472 8.07357 88.6472 9.26758L 88.6472 9.38379ZM 87.3825 9.24023C 87.3825 8.40625 87.2048 7.74772 86.8493 7.26465C 86.4939 6.78158 86.0062 6.54004 85.3865 6.54004C 84.6208 6.54004 84.0466 6.87956 83.6638 7.55859L 83.6638 11.0928C 84.0421 11.7673 84.6208 12.1045 85.4001 12.1045C 86.0062 12.1045 86.487 11.8652 86.8425 11.3867C 87.2025 10.9036 87.3825 10.1882 87.3825 9.24023ZM 95.5925 14.0322L 89.3308 14.0322L 89.3308 13L 95.5925 13L 95.5925 14.0322ZM 97.9509 13L 96.6863 13L 96.6863 5.60352L 97.9509 5.60352L 97.9509 13ZM 96.5837 3.6416C 96.5837 3.43652 96.6452 3.26335 96.7683 3.12207C 96.8959 2.98079 97.0827 2.91016 97.3288 2.91016C 97.5749 2.91016 97.7618 2.98079 97.8894 3.12207C 98.017 3.26335 98.0808 3.43652 98.0808 3.6416C 98.0808 3.84668 98.017 4.01758 97.8894 4.1543C 97.7618 4.29102 97.5749 4.35938 97.3288 4.35938C 97.0827 4.35938 96.8959 4.29102 96.7683 4.1543C 96.6452 4.01758 96.5837 3.84668 96.5837 3.6416ZM 99.6736 9.24023C 99.6736 8.10547 99.9424 7.19401 100.48 6.50586C 101.018 5.81315 101.722 5.4668 102.593 5.4668C 103.458 5.4668 104.144 5.76302 104.65 6.35547L 104.65 2.5L 105.915 2.5L 105.915 13L 104.753 13L 104.691 12.207C 104.185 12.8268 103.481 13.1367 102.579 13.1367C 101.722 13.1367 101.023 12.7858 100.48 12.084C 99.9424 11.3822 99.6736 10.4661 99.6736 9.33594L 99.6736 9.24023ZM 100.938 9.38379C 100.938 10.2223 101.111 10.8786 101.458 11.3525C 101.804 11.8265 102.283 12.0635 102.893 12.0635C 103.695 12.0635 104.281 11.7035 104.65 10.9834L 104.65 7.58594C 104.272 6.88867 103.691 6.54004 102.907 6.54004C 102.287 6.54004 101.804 6.7793 101.458 7.25781C 101.111 7.73633 100.938 8.44499 100.938 9.38379Z"/>
</defs>
</svg>
