<svg width="400" height="386" viewBox="0 0 400 386" version="1.1" xmlns="http://www.w3.org/2000/svg" xmlns:xlink="http://www.w3.org/1999/xlink" xmlns:figma="http://www.figma.com/figma/ns">
<title>processing_with_queue</title>
<desc>Created using Figma</desc>
<g id="Canvas" transform="translate(425 233)" figma:type="canvas">
<g id="Tasks" style="mix-blend-mode:normal;" figma:type="text">
<use xlink:href="#path0_fill" transform="translate(-425 -64)" style="mix-blend-mode:normal;"/>
</g>
<g id="Rectangle" style="mix-blend-mode:normal;" figma:type="rounded-rectangle">
<use xlink:href="#path1_fill" transform="translate(-357.5 -22)" fill="#C4C4C4" style="mix-blend-mode:normal;"/>
</g>
<g id="New Applications" style="mix-blend-mode:normal;" figma:type="text">
<use xlink:href="#path2_fill" transform="translate(-165 132)" style="mix-blend-mode:normal;"/>
</g>
<g id="Line" style="mix-blend-mode:normal;" figma:type="line">
<use xlink:href="#path3_stroke" transform="matrix(-1 1.22465e-16 -1.22465e-16 -1 -179 143)" style="mix-blend-mode:normal;"/>
</g>
<g id="Arrow" style="mix-blend-mode:normal;" figma:type="vector">
<use xlink:href="#path4_stroke" transform="matrix(6.12323e-17 -1 1 6.12323e-17 -300 143)" style="mix-blend-mode:normal;"/>
</g>
<g id="3" style="mix-blend-mode:normal;" figma:type="text">
<use xlink:href="#path5_fill" transform="translate(-305.5 -7)" style="mix-blend-mode:normal;"/>
</g>
<g id="Rectangle" style="mix-blend-mode:normal;" figma:type="rounded-rectangle">
<use xlink:href="#path1_fill" transform="translate(-358 -79)" fill="#C4C4C4" style="mix-blend-mode:normal;"/>
</g>
<g id="2" style="mix-blend-mode:normal;" figma:type="text">
<use xlink:href="#path6_fill" transform="translate(-306 -64)" style="mix-blend-mode:normal;"/>
</g>
<g id="Rectangle" style="mix-blend-mode:normal;" figma:type="rounded-rectangle">
<use xlink:href="#path1_fill" transform="translate(-358 -136)" fill="#C4C4C4" style="mix-blend-mode:normal;"/>
</g>
<g id="1" style="mix-blend-mode:normal;" figma:type="text">
<use xlink:href="#path7_fill" transform="translate(-306 -121)" style="mix-blend-mode:normal;"/>
</g>
<g id="Line 2" style="mix-blend-mode:normal;" figma:type="line">
<use xlink:href="#path8_stroke" transform="matrix(6.12323e-17 -1 1 6.12323e-17 -301 -159)" style="mix-blend-mode:normal;"/>
</g>
<g id="Arrow 2" style="mix-blend-mode:normal;" figma:type="vector">
<use xlink:href="#path9_stroke" transform="translate(-300 -226)" style="mix-blend-mode:normal;"/>
</g>
<g id="Processing" style="mix-blend-mode:normal;" figma:type="text">
<use xlink:href="#path10_fill" transform="translate(-157 -237)" style="mix-blend-mode:normal;"/>
</g>
</g>
<defs>
<path id="path0_fill" d="M 10.3271 5.5918L 6.21387 5.5918L 6.21387 17L 4.53516 17L 4.53516 5.5918L 0.430664 5.5918L 0.430664 4.20312L 10.3271 4.20312L 10.3271 5.5918ZM 16.8398 17C 16.7461 16.8125 16.6699 16.4785 16.6113 15.998C 15.8555 16.7832 14.9531 17.1758 13.9043 17.1758C 12.9668 17.1758 12.1963 16.9121 11.5928 16.3848C 10.9951 15.8516 10.6963 15.1777 10.6963 14.3633C 10.6963 13.373 11.0713 12.6055 11.8213 12.0605C 12.5771 11.5098 13.6377 11.2344 15.0029 11.2344L 16.585 11.2344L 16.585 10.4873C 16.585 9.91895 16.415 9.46777 16.0752 9.13379C 15.7354 8.79395 15.2344 8.62402 14.5723 8.62402C 13.9922 8.62402 13.5059 8.77051 13.1133 9.06348C 12.7207 9.35645 12.5244 9.71094 12.5244 10.127L 10.8896 10.127C 10.8896 9.65234 11.0566 9.19531 11.3906 8.75586C 11.7305 8.31055 12.1875 7.95898 12.7617 7.70117C 13.3418 7.44336 13.9775 7.31445 14.6689 7.31445C 15.7646 7.31445 16.623 7.58984 17.2441 8.14062C 17.8652 8.68555 18.1875 9.43848 18.2109 10.3994L 18.2109 14.7764C 18.2109 15.6494 18.3223 16.3438 18.5449 16.8594L 18.5449 17L 16.8398 17ZM 14.1416 15.7607C 14.6514 15.7607 15.1348 15.6289 15.5918 15.3652C 16.0488 15.1016 16.3799 14.7588 16.585 14.3369L 16.585 12.3857L 15.3105 12.3857C 13.3184 12.3857 12.3223 12.9688 12.3223 14.1348C 12.3223 14.6445 12.4922 15.043 12.832 15.3301C 13.1719 15.6172 13.6084 15.7607 14.1416 15.7607ZM 26.2969 14.4775C 26.2969 14.0381 26.1299 13.6982 25.7959 13.458C 25.4678 13.2119 24.8906 13.001 24.0645 12.8252C 23.2441 12.6494 22.5908 12.4385 22.1045 12.1924C 21.624 11.9463 21.2666 11.6533 21.0322 11.3135C 20.8037 10.9736 20.6895 10.5693 20.6895 10.1006C 20.6895 9.32129 21.0176 8.66211 21.6738 8.12305C 22.3359 7.58398 23.1797 7.31445 24.2051 7.31445C 25.2832 7.31445 26.1562 7.59277 26.8242 8.14941C 27.498 8.70605 27.835 9.41797 27.835 10.2852L 26.2002 10.2852C 26.2002 9.83984 26.0098 9.45605 25.6289 9.13379C 25.2539 8.81152 24.7793 8.65039 24.2051 8.65039C 23.6133 8.65039 23.1504 8.7793 22.8164 9.03711C 22.4824 9.29492 22.3154 9.63184 22.3154 10.0479C 22.3154 10.4404 22.4707 10.7363 22.7812 10.9355C 23.0918 11.1348 23.6514 11.3252 24.46 11.5068C 25.2744 11.6885 25.9336 11.9053 26.4375 12.1572C 26.9414 12.4092 27.3135 12.7139 27.5537 13.0713C 27.7998 13.4229 27.9229 13.8535 27.9229 14.3633C 27.9229 15.2129 27.583 15.8955 26.9033 16.4111C 26.2236 16.9209 25.3418 17.1758 24.2578 17.1758C 23.4961 17.1758 22.8223 17.041 22.2363 16.7715C 21.6504 16.502 21.1904 16.127 20.8564 15.6465C 20.5283 15.1602 20.3643 14.6357 20.3643 14.0732L 21.9902 14.0732C 22.0195 14.6182 22.2363 15.0518 22.6406 15.374C 23.0508 15.6904 23.5898 15.8486 24.2578 15.8486C 24.873 15.8486 25.3652 15.7256 25.7344 15.4795C 26.1094 15.2275 26.2969 14.8936 26.2969 14.4775ZM 32.6953 12.5967L 31.6758 13.6602L 31.6758 17L 30.0498 17L 30.0498 3.5L 31.6758 3.5L 31.6758 11.665L 32.5459 10.6191L 35.5078 7.49023L 37.4854 7.49023L 33.7852 11.4629L 37.916 17L 36.0088 17L 32.6953 12.5967ZM 44.7012 14.4775C 44.7012 14.0381 44.5342 13.6982 44.2002 13.458C 43.8721 13.2119 43.2949 13.001 42.4688 12.8252C 41.6484 12.6494 40.9951 12.4385 40.5088 12.1924C 40.0283 11.9463 39.6709 11.6533 39.4365 11.3135C 39.208 10.9736 39.0938 10.5693 39.0938 10.1006C 39.0938 9.32129 39.4219 8.66211 40.0781 8.12305C 40.7402 7.58398 41.584 7.31445 42.6094 7.31445C 43.6875 7.31445 44.5605 7.59277 45.2285 8.14941C 45.9023 8.70605 46.2393 9.41797 46.2393 10.2852L 44.6045 10.2852C 44.6045 9.83984 44.4141 9.45605 44.0332 9.13379C 43.6582 8.81152 43.1836 8.65039 42.6094 8.65039C 42.0176 8.65039 41.5547 8.7793 41.2207 9.03711C 40.8867 9.29492 40.7197 9.63184 40.7197 10.0479C 40.7197 10.4404 40.875 10.7363 41.1855 10.9355C 41.4961 11.1348 42.0557 11.3252 42.8643 11.5068C 43.6787 11.6885 44.3379 11.9053 44.8418 12.1572C 45.3457 12.4092 45.7178 12.7139 45.958 13.0713C 46.2041 13.4229 46.3271 13.8535 46.3271 14.3633C 46.3271 15.2129 45.9873 15.8955 45.3076 16.4111C 44.6279 16.9209 43.7461 17.1758 42.6621 17.1758C 41.9004 17.1758 41.2266 17.041 40.6406 16.7715C 40.0547 16.502 39.5947 16.127 39.2607 15.6465C 38.9326 15.1602 38.7686 14.6357 38.7686 14.0732L 40.3945 14.0732C 40.4238 14.6182 40.6406 15.0518 41.0449 15.374C 41.4551 15.6904 41.9941 15.8486 42.6621 15.8486C 43.2773 15.8486 43.7695 15.7256 44.1387 15.4795C 44.5137 15.2275 44.7012 14.8936 44.7012 14.4775Z"/>
<path id="path1_fill" d="M 0 0L 115 0L 115 52L 0 52L 0 0Z"/>
<path id="path2_fill" d="M 11.3203 17L 9.62402 17L 3.18164 7.13867L 3.18164 17L 1.48535 17L 1.48535 4.20312L 3.18164 4.20312L 9.6416 14.1084L 9.6416 4.20312L 11.3203 4.20312L 11.3203 17ZM 18.0088 17.1758C 16.7197 17.1758 15.6709 16.7539 14.8623 15.9102C 14.0537 15.0605 13.6494 13.9268 13.6494 12.5088L 13.6494 12.21C 13.6494 11.2666 13.8281 10.4258 14.1855 9.6875C 14.5488 8.94336 15.0527 8.36328 15.6973 7.94727C 16.3477 7.52539 17.0508 7.31445 17.8066 7.31445C 19.043 7.31445 20.0039 7.72168 20.6895 8.53613C 21.375 9.35059 21.7178 10.5166 21.7178 12.0342L 21.7178 12.7109L 15.2754 12.7109C 15.2988 13.6484 15.5713 14.4072 16.0928 14.9873C 16.6201 15.5615 17.2881 15.8486 18.0967 15.8486C 18.6709 15.8486 19.1572 15.7314 19.5557 15.4971C 19.9541 15.2627 20.3027 14.9521 20.6016 14.5654L 21.5947 15.3389C 20.7979 16.5635 19.6025 17.1758 18.0088 17.1758ZM 17.8066 8.65039C 17.1504 8.65039 16.5996 8.89062 16.1543 9.37109C 15.709 9.8457 15.4336 10.5137 15.3281 11.375L 20.0918 11.375L 20.0918 11.252C 20.0449 10.4258 19.8223 9.78711 19.4238 9.33594C 19.0254 8.87891 18.4863 8.65039 17.8066 8.65039ZM 32.0273 14.7588L 33.8555 7.49023L 35.4814 7.49023L 32.7129 17L 31.3945 17L 29.083 9.79297L 26.833 17L 25.5146 17L 22.7549 7.49023L 24.3721 7.49023L 26.2441 14.6094L 28.459 7.49023L 29.7686 7.49023L 32.0273 14.7588ZM 48.9287 13.6602L 43.5674 13.6602L 42.3633 17L 40.623 17L 45.5098 4.20312L 46.9863 4.20312L 51.8818 17L 50.1504 17L 48.9287 13.6602ZM 44.0771 12.2715L 48.4277 12.2715L 46.248 6.28613L 44.0771 12.2715ZM 61.3828 12.3506C 61.3828 13.7979 61.0518 14.9639 60.3896 15.8486C 59.7275 16.7334 58.8311 17.1758 57.7002 17.1758C 56.5459 17.1758 55.6377 16.8096 54.9756 16.0771L 54.9756 20.6562L 53.3496 20.6562L 53.3496 7.49023L 54.835 7.49023L 54.9141 8.54492C 55.5762 7.72461 56.4961 7.31445 57.6738 7.31445C 58.8164 7.31445 59.7188 7.74512 60.3809 8.60645C 61.0488 9.46777 61.3828 10.666 61.3828 12.2012L 61.3828 12.3506ZM 59.7568 12.166C 59.7568 11.0938 59.5283 10.2471 59.0713 9.62598C 58.6143 9.00488 57.9873 8.69434 57.1904 8.69434C 56.2061 8.69434 55.4678 9.13086 54.9756 10.0039L 54.9756 14.5479C 55.4619 15.415 56.2061 15.8486 57.208 15.8486C 57.9873 15.8486 58.6055 15.541 59.0625 14.9258C 59.5254 14.3047 59.7568 13.3848 59.7568 12.166ZM 71.4902 12.3506C 71.4902 13.7979 71.1592 14.9639 70.4971 15.8486C 69.835 16.7334 68.9385 17.1758 67.8076 17.1758C 66.6533 17.1758 65.7451 16.8096 65.083 16.0771L 65.083 20.6562L 63.457 20.6562L 63.457 7.49023L 64.9424 7.49023L 65.0215 8.54492C 65.6836 7.72461 66.6035 7.31445 67.7812 7.31445C 68.9238 7.31445 69.8262 7.74512 70.4883 8.60645C 71.1562 9.46777 71.4902 10.666 71.4902 12.2012L 71.4902 12.3506ZM 69.8643 12.166C 69.8643 11.0938 69.6357 10.2471 69.1787 9.62598C 68.7217 9.00488 68.0947 8.69434 67.2979 8.69434C 66.3135 8.69434 65.5752 9.13086 65.083 10.0039L 65.083 14.5479C 65.5693 15.415 66.3135 15.8486 67.3154 15.8486C 68.0947 15.8486 68.7129 15.541 69.1699 14.9258C 69.6328 14.3047 69.8643 13.3848 69.8643 12.166ZM 75.3311 17L 73.7051 17L 73.7051 3.5L 75.3311 3.5L 75.3311 17ZM 79.708 17L 78.082 17L 78.082 7.49023L 79.708 7.49023L 79.708 17ZM 77.9502 4.96777C 77.9502 4.7041 78.0293 4.48145 78.1875 4.2998C 78.3516 4.11816 78.5918 4.02734 78.9082 4.02734C 79.2246 4.02734 79.4648 4.11816 79.6289 4.2998C 79.793 4.48145 79.875 4.7041 79.875 4.96777C 79.875 5.23145 79.793 5.45117 79.6289 5.62695C 79.4648 5.80273 79.2246 5.89062 78.9082 5.89062C 78.5918 5.89062 78.3516 5.80273 78.1875 5.62695C 78.0293 5.45117 77.9502 5.23145 77.9502 4.96777ZM 86.1328 15.8486C 86.7129 15.8486 87.2197 15.6729 87.6533 15.3213C 88.0869 14.9697 88.3271 14.5303 88.374 14.0029L 89.9121 14.0029C 89.8828 14.5479 89.6953 15.0664 89.3496 15.5586C 89.0039 16.0508 88.541 16.4434 87.9609 16.7363C 87.3867 17.0293 86.7773 17.1758 86.1328 17.1758C 84.8379 17.1758 83.8066 16.7451 83.0391 15.8838C 82.2773 15.0166 81.8965 13.833 81.8965 12.333L 81.8965 12.0605C 81.8965 11.1348 82.0664 10.3115 82.4062 9.59082C 82.7461 8.87012 83.2324 8.31055 83.8652 7.91211C 84.5039 7.51367 85.2568 7.31445 86.124 7.31445C 87.1904 7.31445 88.0752 7.63379 88.7783 8.27246C 89.4873 8.91113 89.8652 9.74023 89.9121 10.7598L 88.374 10.7598C 88.3271 10.1445 88.0928 9.64062 87.6709 9.24805C 87.2549 8.84961 86.7393 8.65039 86.124 8.65039C 85.2979 8.65039 84.6562 8.94922 84.1992 9.54688C 83.748 10.1387 83.5225 10.9971 83.5225 12.1221L 83.5225 12.4297C 83.5225 13.5254 83.748 14.3691 84.1992 14.9609C 84.6504 15.5527 85.2949 15.8486 86.1328 15.8486ZM 97.6113 17C 97.5176 16.8125 97.4414 16.4785 97.3828 15.998C 96.627 16.7832 95.7246 17.1758 94.6758 17.1758C 93.7383 17.1758 92.9678 16.9121 92.3643 16.3848C 91.7666 15.8516 91.4678 15.1777 91.4678 14.3633C 91.4678 13.373 91.8428 12.6055 92.5928 12.0605C 93.3486 11.5098 94.4092 11.2344 95.7744 11.2344L 97.3564 11.2344L 97.3564 10.4873C 97.3564 9.91895 97.1865 9.46777 96.8467 9.13379C 96.5068 8.79395 96.0059 8.62402 95.3438 8.62402C 94.7637 8.62402 94.2773 8.77051 93.8848 9.06348C 93.4922 9.35645 93.2959 9.71094 93.2959 10.127L 91.6611 10.127C 91.6611 9.65234 91.8281 9.19531 92.1621 8.75586C 92.502 8.31055 92.959 7.95898 93.5332 7.70117C 94.1133 7.44336 94.749 7.31445 95.4404 7.31445C 96.5361 7.31445 97.3945 7.58984 98.0156 8.14062C 98.6367 8.68555 98.959 9.43848 98.9824 10.3994L 98.9824 14.7764C 98.9824 15.6494 99.0938 16.3438 99.3164 16.8594L 99.3164 17L 97.6113 17ZM 94.9131 15.7607C 95.4229 15.7607 95.9062 15.6289 96.3633 15.3652C 96.8203 15.1016 97.1514 14.7588 97.3564 14.3369L 97.3564 12.3857L 96.082 12.3857C 94.0898 12.3857 93.0938 12.9688 93.0938 14.1348C 93.0938 14.6445 93.2637 15.043 93.6035 15.3301C 93.9434 15.6172 94.3799 15.7607 94.9131 15.7607ZM 103.737 5.1875L 103.737 7.49023L 105.513 7.49023L 105.513 8.74707L 103.737 8.74707L 103.737 14.6445C 103.737 15.0254 103.816 15.3125 103.975 15.5059C 104.133 15.6934 104.402 15.7871 104.783 15.7871C 104.971 15.7871 105.229 15.752 105.557 15.6816L 105.557 17C 105.129 17.1172 104.713 17.1758 104.309 17.1758C 103.582 17.1758 103.034 16.9561 102.665 16.5166C 102.296 16.0771 102.111 15.4531 102.111 14.6445L 102.111 8.74707L 100.38 8.74707L 100.38 7.49023L 102.111 7.49023L 102.111 5.1875L 103.737 5.1875ZM 109.187 17L 107.561 17L 107.561 7.49023L 109.187 7.49023L 109.187 17ZM 107.429 4.96777C 107.429 4.7041 107.508 4.48145 107.666 4.2998C 107.83 4.11816 108.07 4.02734 108.387 4.02734C 108.703 4.02734 108.943 4.11816 109.107 4.2998C 109.271 4.48145 109.354 4.7041 109.354 4.96777C 109.354 5.23145 109.271 5.45117 109.107 5.62695C 108.943 5.80273 108.703 5.89062 108.387 5.89062C 108.07 5.89062 107.83 5.80273 107.666 5.62695C 107.508 5.45117 107.429 5.23145 107.429 4.96777ZM 111.366 12.1572C 111.366 11.2256 111.548 10.3877 111.911 9.64355C 112.28 8.89941 112.79 8.3252 113.44 7.9209C 114.097 7.5166 114.844 7.31445 115.682 7.31445C 116.977 7.31445 118.022 7.7627 118.819 8.65918C 119.622 9.55566 120.023 10.748 120.023 12.2363L 120.023 12.3506C 120.023 13.2764 119.845 14.1084 119.487 14.8467C 119.136 15.5791 118.629 16.1504 117.967 16.5605C 117.311 16.9707 116.555 17.1758 115.699 17.1758C 114.41 17.1758 113.364 16.7275 112.562 15.8311C 111.765 14.9346 111.366 13.748 111.366 12.2715L 111.366 12.1572ZM 113.001 12.3506C 113.001 13.4053 113.244 14.252 113.73 14.8906C 114.223 15.5293 114.879 15.8486 115.699 15.8486C 116.525 15.8486 117.182 15.5264 117.668 14.8818C 118.154 14.2314 118.397 13.3232 118.397 12.1572C 118.397 11.1143 118.148 10.2705 117.65 9.62598C 117.158 8.97559 116.502 8.65039 115.682 8.65039C 114.879 8.65039 114.231 8.96973 113.739 9.6084C 113.247 10.2471 113.001 11.1611 113.001 12.3506ZM 123.601 7.49023L 123.653 8.68555C 124.38 7.77148 125.329 7.31445 126.501 7.31445C 128.511 7.31445 129.524 8.44824 129.542 10.7158L 129.542 17L 127.916 17L 127.916 10.707C 127.91 10.0215 127.752 9.51465 127.441 9.18652C 127.137 8.8584 126.659 8.69434 126.009 8.69434C 125.481 8.69434 125.019 8.83496 124.62 9.11621C 124.222 9.39746 123.911 9.7666 123.688 10.2236L 123.688 17L 122.062 17L 122.062 7.49023L 123.601 7.49023ZM 137.531 14.4775C 137.531 14.0381 137.364 13.6982 137.03 13.458C 136.702 13.2119 136.125 13.001 135.299 12.8252C 134.479 12.6494 133.825 12.4385 133.339 12.1924C 132.858 11.9463 132.501 11.6533 132.267 11.3135C 132.038 10.9736 131.924 10.5693 131.924 10.1006C 131.924 9.32129 132.252 8.66211 132.908 8.12305C 133.57 7.58398 134.414 7.31445 135.439 7.31445C 136.518 7.31445 137.391 7.59277 138.059 8.14941C 138.732 8.70605 139.069 9.41797 139.069 10.2852L 137.435 10.2852C 137.435 9.83984 137.244 9.45605 136.863 9.13379C 136.488 8.81152 136.014 8.65039 135.439 8.65039C 134.848 8.65039 134.385 8.7793 134.051 9.03711C 133.717 9.29492 133.55 9.63184 133.55 10.0479C 133.55 10.4404 133.705 10.7363 134.016 10.9355C 134.326 11.1348 134.886 11.3252 135.694 11.5068C 136.509 11.6885 137.168 11.9053 137.672 12.1572C 138.176 12.4092 138.548 12.7139 138.788 13.0713C 139.034 13.4229 139.157 13.8535 139.157 14.3633C 139.157 15.2129 138.817 15.8955 138.138 16.4111C 137.458 16.9209 136.576 17.1758 135.492 17.1758C 134.73 17.1758 134.057 17.041 133.471 16.7715C 132.885 16.502 132.425 16.127 132.091 15.6465C 131.763 15.1602 131.599 14.6357 131.599 14.0732L 133.225 14.0732C 133.254 14.6182 133.471 15.0518 133.875 15.374C 134.285 15.6904 134.824 15.8486 135.492 15.8486C 136.107 15.8486 136.6 15.7256 136.969 15.4795C 137.344 15.2275 137.531 14.8936 137.531 14.4775Z"/>
<path id="path3_stroke" d="M 0 0L 121 0L 121 -1L 0 -1L 0 0Z"/>
<path id="path4_stroke" d="M 87.3536 0.353553C 87.5488 0.158291 87.5488 -0.158291 87.3536 -0.353553L 84.1716 -3.53553C 83.9763 -3.7308 83.6597 -3.7308 83.4645 -3.53553C 83.2692 -3.34027 83.2692 -3.02369 83.4645 -2.82843L 86.2929 0L 83.4645 2.82843C 83.2692 3.02369 83.2692 3.34027 83.4645 3.53553C 83.6597 3.7308 83.9763 3.7308 84.1716 3.53553L 87.3536 0.353553ZM 0 0.5L 87 0.5L 87 -0.5L 0 -0.5L 0 0.5Z"/>
<path id="path5_fill" d="M 3.42773 9.81055L 4.64941 9.81055C 5.41699 9.79883 6.02051 9.59668 6.45996 9.2041C 6.89941 8.81152 7.11914 8.28125 7.11914 7.61328C 7.11914 6.11328 6.37207 5.36328 4.87793 5.36328C 4.1748 5.36328 3.6123 5.56543 3.19043 5.96973C 2.77441 6.36816 2.56641 6.89844 2.56641 7.56055L 0.94043 7.56055C 0.94043 6.54688 1.30957 5.70605 2.04785 5.03809C 2.79199 4.36426 3.73535 4.02734 4.87793 4.02734C 6.08496 4.02734 7.03125 4.34668 7.7168 4.98535C 8.40234 5.62402 8.74512 6.51172 8.74512 7.64844C 8.74512 8.20508 8.56348 8.74414 8.2002 9.26562C 7.84277 9.78711 7.35352 10.1768 6.73242 10.4346C 7.43555 10.6572 7.97754 11.0264 8.3584 11.542C 8.74512 12.0576 8.93848 12.6875 8.93848 13.4316C 8.93848 14.5801 8.56348 15.4912 7.81348 16.165C 7.06348 16.8389 6.08789 17.1758 4.88672 17.1758C 3.68555 17.1758 2.70703 16.8506 1.95117 16.2002C 1.20117 15.5498 0.826172 14.6914 0.826172 13.625L 2.46094 13.625C 2.46094 14.2988 2.68066 14.8379 3.12012 15.2422C 3.55957 15.6465 4.14844 15.8486 4.88672 15.8486C 5.67188 15.8486 6.27246 15.6436 6.68848 15.2334C 7.10449 14.8232 7.3125 14.2344 7.3125 13.4668C 7.3125 12.7227 7.08398 12.1514 6.62695 11.7529C 6.16992 11.3545 5.51074 11.1494 4.64941 11.1377L 3.42773 11.1377L 3.42773 9.81055Z"/>
<path id="path6_fill" d="M 9.44824 17L 1.06348 17L 1.06348 15.8311L 5.49316 10.9092C 6.14941 10.165 6.60059 9.56152 6.84668 9.09863C 7.09863 8.62988 7.22461 8.14648 7.22461 7.64844C 7.22461 6.98047 7.02246 6.43262 6.61816 6.00488C 6.21387 5.57715 5.6748 5.36328 5.00098 5.36328C 4.19238 5.36328 3.5625 5.59473 3.11133 6.05762C 2.66602 6.51465 2.44336 7.15332 2.44336 7.97363L 0.817383 7.97363C 0.817383 6.7959 1.19531 5.84375 1.95117 5.11719C 2.71289 4.39062 3.72949 4.02734 5.00098 4.02734C 6.19043 4.02734 7.13086 4.34082 7.82227 4.96777C 8.51367 5.58887 8.85938 6.41797 8.85938 7.45508C 8.85938 8.71484 8.05664 10.2148 6.45117 11.9551L 3.02344 15.6729L 9.44824 15.6729L 9.44824 17Z"/>
<path id="path7_fill" d="M 6.40723 17L 4.77246 17L 4.77246 6.16309L 1.49414 7.36719L 1.49414 5.89062L 6.15234 4.1416L 6.40723 4.1416L 6.40723 17Z"/>
<path id="path8_stroke" d="M 0 0L 67 0L 67 -1L 0 -1L 0 0Z"/>
<path id="path9_stroke" d="M 121.354 0.353553C 121.549 0.158291 121.549 -0.158291 121.354 -0.353553L 118.172 -3.53553C 117.976 -3.7308 117.66 -3.7308 117.464 -3.53553C 117.269 -3.34027 117.269 -3.02369 117.464 -2.82843L 120.293 0L 117.464 2.82843C 117.269 3.02369 117.269 3.34027 117.464 3.53553C 117.66 3.7308 117.976 3.7308 118.172 3.53553L 121.354 0.353553ZM 0 0.5L 121 0.5L 121 -0.5L 0 -0.5L 0 0.5Z"/>
<path id="path10_fill" d="M 3.17285 11.9902L 3.17285 17L 1.48535 17L 1.48535 4.20312L 6.20508 4.20312C 7.60547 4.20312 8.70117 4.56055 9.49219 5.27539C 10.2891 5.99023 10.6875 6.93652 10.6875 8.11426C 10.6875 9.35645 10.2979 10.3145 9.51855 10.9883C 8.74512 11.6562 7.63477 11.9902 6.1875 11.9902L 3.17285 11.9902ZM 3.17285 10.6104L 6.20508 10.6104C 7.10742 10.6104 7.79883 10.3994 8.2793 9.97754C 8.75977 9.5498 9 8.93457 9 8.13184C 9 7.37012 8.75977 6.76074 8.2793 6.30371C 7.79883 5.84668 7.13965 5.60938 6.30176 5.5918L 3.17285 5.5918L 3.17285 10.6104ZM 17.1826 8.94922C 16.9365 8.9082 16.6699 8.8877 16.3828 8.8877C 15.3164 8.8877 14.5928 9.3418 14.2119 10.25L 14.2119 17L 12.5859 17L 12.5859 7.49023L 14.168 7.49023L 14.1943 8.58887C 14.7275 7.73926 15.4834 7.31445 16.4619 7.31445C 16.7783 7.31445 17.0186 7.35547 17.1826 7.4375L 17.1826 8.94922ZM 18.0791 12.1572C 18.0791 11.2256 18.2607 10.3877 18.624 9.64355C 18.9932 8.89941 19.5029 8.3252 20.1533 7.9209C 20.8096 7.5166 21.5566 7.31445 22.3945 7.31445C 23.6895 7.31445 24.7354 7.7627 25.5322 8.65918C 26.335 9.55566 26.7363 10.748 26.7363 12.2363L 26.7363 12.3506C 26.7363 13.2764 26.5576 14.1084 26.2002 14.8467C 25.8486 15.5791 25.3418 16.1504 24.6797 16.5605C 24.0234 16.9707 23.2676 17.1758 22.4121 17.1758C 21.123 17.1758 20.0771 16.7275 19.2744 15.8311C 18.4775 14.9346 18.0791 13.748 18.0791 12.2715L 18.0791 12.1572ZM 19.7139 12.3506C 19.7139 13.4053 19.957 14.252 20.4434 14.8906C 20.9355 15.5293 21.5918 15.8486 22.4121 15.8486C 23.2383 15.8486 23.8945 15.5264 24.3809 14.8818C 24.8672 14.2314 25.1104 13.3232 25.1104 12.1572C 25.1104 11.1143 24.8613 10.2705 24.3633 9.62598C 23.8711 8.97559 23.2148 8.65039 22.3945 8.65039C 21.5918 8.65039 20.9443 8.96973 20.4521 9.6084C 19.96 10.2471 19.7139 11.1611 19.7139 12.3506ZM 32.5898 15.8486C 33.1699 15.8486 33.6768 15.6729 34.1104 15.3213C 34.5439 14.9697 34.7842 14.5303 34.8311 14.0029L 36.3691 14.0029C 36.3398 14.5479 36.1523 15.0664 35.8066 15.5586C 35.4609 16.0508 34.998 16.4434 34.418 16.7363C 33.8438 17.0293 33.2344 17.1758 32.5898 17.1758C 31.2949 17.1758 30.2637 16.7451 29.4961 15.8838C 28.7344 15.0166 28.3535 13.833 28.3535 12.333L 28.3535 12.0605C 28.3535 11.1348 28.5234 10.3115 28.8633 9.59082C 29.2031 8.87012 29.6895 8.31055 30.3223 7.91211C 30.9609 7.51367 31.7139 7.31445 32.5811 7.31445C 33.6475 7.31445 34.5322 7.63379 35.2354 8.27246C 35.9443 8.91113 36.3223 9.74023 36.3691 10.7598L 34.8311 10.7598C 34.7842 10.1445 34.5498 9.64062 34.1279 9.24805C 33.7119 8.84961 33.1963 8.65039 32.5811 8.65039C 31.7549 8.65039 31.1133 8.94922 30.6562 9.54688C 30.2051 10.1387 29.9795 10.9971 29.9795 12.1221L 29.9795 12.4297C 29.9795 13.5254 30.2051 14.3691 30.6562 14.9609C 31.1074 15.5527 31.752 15.8486 32.5898 15.8486ZM 42.1436 17.1758C 40.8545 17.1758 39.8057 16.7539 38.9971 15.9102C 38.1885 15.0605 37.7842 13.9268 37.7842 12.5088L 37.7842 12.21C 37.7842 11.2666 37.9629 10.4258 38.3203 9.6875C 38.6836 8.94336 39.1875 8.36328 39.832 7.94727C 40.4824 7.52539 41.1855 7.31445 41.9414 7.31445C 43.1777 7.31445 44.1387 7.72168 44.8242 8.53613C 45.5098 9.35059 45.8525 10.5166 45.8525 12.0342L 45.8525 12.7109L 39.4102 12.7109C 39.4336 13.6484 39.7061 14.4072 40.2275 14.9873C 40.7549 15.5615 41.4229 15.8486 42.2314 15.8486C 42.8057 15.8486 43.292 15.7314 43.6904 15.4971C 44.0889 15.2627 44.4375 14.9521 44.7363 14.5654L 45.7295 15.3389C 44.9326 16.5635 43.7373 17.1758 42.1436 17.1758ZM 41.9414 8.65039C 41.2852 8.65039 40.7344 8.89062 40.2891 9.37109C 39.8438 9.8457 39.5684 10.5137 39.4629 11.375L 44.2266 11.375L 44.2266 11.252C 44.1797 10.4258 43.957 9.78711 43.5586 9.33594C 43.1602 8.87891 42.6211 8.65039 41.9414 8.65039ZM 53.2793 14.4775C 53.2793 14.0381 53.1123 13.6982 52.7783 13.458C 52.4502 13.2119 51.873 13.001 51.0469 12.8252C 50.2266 12.6494 49.5732 12.4385 49.0869 12.1924C 48.6064 11.9463 48.249 11.6533 48.0146 11.3135C 47.7861 10.9736 47.6719 10.5693 47.6719 10.1006C 47.6719 9.32129 48 8.66211 48.6562 8.12305C 49.3184 7.58398 50.1621 7.31445 51.1875 7.31445C 52.2656 7.31445 53.1387 7.59277 53.8066 8.14941C 54.4805 8.70605 54.8174 9.41797 54.8174 10.2852L 53.1826 10.2852C 53.1826 9.83984 52.9922 9.45605 52.6113 9.13379C 52.2363 8.81152 51.7617 8.65039 51.1875 8.65039C 50.5957 8.65039 50.1328 8.7793 49.7988 9.03711C 49.4648 9.29492 49.2979 9.63184 49.2979 10.0479C 49.2979 10.4404 49.4531 10.7363 49.7637 10.9355C 50.0742 11.1348 50.6338 11.3252 51.4424 11.5068C 52.2568 11.6885 52.916 11.9053 53.4199 12.1572C 53.9238 12.4092 54.2959 12.7139 54.5361 13.0713C 54.7822 13.4229 54.9053 13.8535 54.9053 14.3633C 54.9053 15.2129 54.5654 15.8955 53.8857 16.4111C 53.2061 16.9209 52.3242 17.1758 51.2402 17.1758C 50.4785 17.1758 49.8047 17.041 49.2188 16.7715C 48.6328 16.502 48.1729 16.127 47.8389 15.6465C 47.5107 15.1602 47.3467 14.6357 47.3467 14.0732L 48.9727 14.0732C 49.002 14.6182 49.2188 15.0518 49.623 15.374C 50.0332 15.6904 50.5723 15.8486 51.2402 15.8486C 51.8555 15.8486 52.3477 15.7256 52.7168 15.4795C 53.0918 15.2275 53.2793 14.8936 53.2793 14.4775ZM 62.5605 14.4775C 62.5605 14.0381 62.3936 13.6982 62.0596 13.458C 61.7314 13.2119 61.1543 13.001 60.3281 12.8252C 59.5078 12.6494 58.8545 12.4385 58.3682 12.1924C 57.8877 11.9463 57.5303 11.6533 57.2959 11.3135C 57.0674 10.9736 56.9531 10.5693 56.9531 10.1006C 56.9531 9.32129 57.2812 8.66211 57.9375 8.12305C 58.5996 7.58398 59.4434 7.31445 60.4688 7.31445C 61.5469 7.31445 62.4199 7.59277 63.0879 8.14941C 63.7617 8.70605 64.0986 9.41797 64.0986 10.2852L 62.4639 10.2852C 62.4639 9.83984 62.2734 9.45605 61.8926 9.13379C 61.5176 8.81152 61.043 8.65039 60.4688 8.65039C 59.877 8.65039 59.4141 8.7793 59.0801 9.03711C 58.7461 9.29492 58.5791 9.63184 58.5791 10.0479C 58.5791 10.4404 58.7344 10.7363 59.0449 10.9355C 59.3555 11.1348 59.915 11.3252 60.7236 11.5068C 61.5381 11.6885 62.1973 11.9053 62.7012 12.1572C 63.2051 12.4092 63.5771 12.7139 63.8174 13.0713C 64.0635 13.4229 64.1865 13.8535 64.1865 14.3633C 64.1865 15.2129 63.8467 15.8955 63.167 16.4111C 62.4873 16.9209 61.6055 17.1758 60.5215 17.1758C 59.7598 17.1758 59.0859 17.041 58.5 16.7715C 57.9141 16.502 57.4541 16.127 57.1201 15.6465C 56.792 15.1602 56.6279 14.6357 56.6279 14.0732L 58.2539 14.0732C 58.2832 14.6182 58.5 15.0518 58.9043 15.374C 59.3145 15.6904 59.8535 15.8486 60.5215 15.8486C 61.1367 15.8486 61.6289 15.7256 61.998 15.4795C 62.373 15.2275 62.5605 14.8936 62.5605 14.4775ZM 68.0713 17L 66.4453 17L 66.4453 7.49023L 68.0713 7.49023L 68.0713 17ZM 66.3135 4.96777C 66.3135 4.7041 66.3926 4.48145 66.5508 4.2998C 66.7148 4.11816 66.9551 4.02734 67.2715 4.02734C 67.5879 4.02734 67.8281 4.11816 67.9922 4.2998C 68.1562 4.48145 68.2383 4.7041 68.2383 4.96777C 68.2383 5.23145 68.1562 5.45117 67.9922 5.62695C 67.8281 5.80273 67.5879 5.89062 67.2715 5.89062C 66.9551 5.89062 66.7148 5.80273 66.5508 5.62695C 66.3926 5.45117 66.3135 5.23145 66.3135 4.96777ZM 72.2197 7.49023L 72.2725 8.68555C 72.999 7.77148 73.9482 7.31445 75.1201 7.31445C 77.1299 7.31445 78.1436 8.44824 78.1611 10.7158L 78.1611 17L 76.5352 17L 76.5352 10.707C 76.5293 10.0215 76.3711 9.51465 76.0605 9.18652C 75.7559 8.8584 75.2783 8.69434 74.6279 8.69434C 74.1006 8.69434 73.6377 8.83496 73.2393 9.11621C 72.8408 9.39746 72.5303 9.7666 72.3076 10.2236L 72.3076 17L 70.6816 17L 70.6816 7.49023L 72.2197 7.49023ZM 80.2266 12.166C 80.2266 10.6836 80.5693 9.50586 81.2549 8.63281C 81.9404 7.75391 82.8486 7.31445 83.9795 7.31445C 85.1396 7.31445 86.0449 7.72461 86.6953 8.54492L 86.7744 7.49023L 88.2598 7.49023L 88.2598 16.7715C 88.2598 18.002 87.8936 18.9717 87.1611 19.6807C 86.4346 20.3896 85.4561 20.7441 84.2256 20.7441C 83.54 20.7441 82.8691 20.5977 82.2129 20.3047C 81.5566 20.0117 81.0557 19.6104 80.71 19.1006L 81.5537 18.125C 82.251 18.9863 83.1035 19.417 84.1113 19.417C 84.9023 19.417 85.5176 19.1943 85.957 18.749C 86.4023 18.3037 86.625 17.6768 86.625 16.8682L 86.625 16.0508C 85.9746 16.8008 85.0869 17.1758 83.9619 17.1758C 82.8486 17.1758 81.9463 16.7275 81.2549 15.8311C 80.5693 14.9346 80.2266 13.7129 80.2266 12.166ZM 81.8613 12.3506C 81.8613 13.4229 82.0811 14.2666 82.5205 14.8818C 82.96 15.4912 83.5752 15.7959 84.3662 15.7959C 85.3916 15.7959 86.1445 15.3301 86.625 14.3984L 86.625 10.0566C 86.127 9.14844 85.3799 8.69434 84.3838 8.69434C 83.5928 8.69434 82.9746 9.00195 82.5293 9.61719C 82.084 10.2324 81.8613 11.1436 81.8613 12.3506Z"/>
</defs>
</svg>
