<svg width="952" height="725" viewBox="0 0 952 725" version="1.1" xmlns="http://www.w3.org/2000/svg" xmlns:xlink="http://www.w3.org/1999/xlink" xmlns:figma="http://www.figma.com/figma/ns">
<title>queue_length_during_day</title>
<desc>Created using Figma</desc>
<g id="Canvas" transform="translate(461 509)" figma:type="canvas">
<g id="Arrow" figma:type="vector">
<use xlink:href="#path0_stroke" transform="translate(-314 123)"/>
</g>
<g id="9" figma:type="text">
<use xlink:href="#path1_fill" transform="translate(-319 138)"/>
</g>
<g id="10" figma:type="text">
<use xlink:href="#path2_fill" transform="translate(-219 138.5)"/>
</g>
<g id="11" figma:type="text">
<use xlink:href="#path3_fill" transform="translate(-119 138.5)"/>
</g>
<g id="12" figma:type="text">
<use xlink:href="#path4_fill" transform="translate(-19 138.5)"/>
</g>
<g id="1" figma:type="text">
<use xlink:href="#path5_fill" transform="translate(81 138.5)"/>
</g>
<g id="2" figma:type="text">
<use xlink:href="#path6_fill" transform="translate(181 138.5)"/>
</g>
<g id="3" figma:type="text">
<use xlink:href="#path7_fill" transform="translate(281 138.5)"/>
</g>
<g id="4" figma:type="text">
<use xlink:href="#path8_fill" transform="translate(381 138.5)"/>
</g>
<g id="5" figma:type="text">
<use xlink:href="#path9_fill" transform="translate(481 139)"/>
</g>
<g id="0" figma:type="text">
<use xlink:href="#path10_fill" transform="translate(-343 90)"/>
</g>
<g id="100" figma:type="text">
<use xlink:href="#path11_fill" transform="translate(-363 -10)" fill="#333333"/>
</g>
<g id="200" figma:type="text">
<use xlink:href="#path12_fill" transform="translate(-363 -110)" fill="#333333"/>
</g>
<g id="300" figma:type="text">
<use xlink:href="#path13_fill" transform="translate(-363 -210)" fill="#333333"/>
</g>
<g id="400" figma:type="text">
<use xlink:href="#path14_fill" transform="translate(-363 -310)" fill="#333333"/>
</g>
<g id="400" figma:type="text">
<use xlink:href="#path14_fill" transform="translate(-363 -410)" fill="#333333"/>
</g>
<g id="Rectangle" figma:type="rounded-rectangle">
<use xlink:href="#path15_fill" transform="translate(-111 1)" fill="#BDBDBD"/>
</g>
<g id="Rectangle" figma:type="rounded-rectangle">
<use xlink:href="#path15_fill" transform="translate(-13 1)" fill="#BDBDBD"/>
</g>
<g id="Rectangle" figma:type="rounded-rectangle">
<use xlink:href="#path16_fill" transform="translate(87 -110)" fill="#BDBDBD"/>
</g>
<g id="Rectangle" figma:type="rounded-rectangle">
<use xlink:href="#path15_fill" transform="translate(187 1)" fill="#BDBDBD"/>
</g>
<g id="Rectangle" figma:type="rounded-rectangle">
<use xlink:href="#path17_fill" transform="translate(287 -199)" fill="#BDBDBD"/>
</g>
<g id="Rectangle" figma:type="rounded-rectangle">
<use xlink:href="#path18_fill" transform="translate(385 -399)" fill="#BDBDBD"/>
</g>
<g id="Hour" figma:type="text">
<use xlink:href="#path19_fill" transform="translate(65 193)"/>
</g>
<g id="Backlog Length" figma:type="text">
<use xlink:href="#path20_fill" transform="matrix(6.12323e-17 -1 1 6.12323e-17 -465 -145)"/>
</g>
<g id="Backlog length during the day" figma:type="text">
<use xlink:href="#path21_fill" transform="translate(-61 -513)"/>
</g>
</g>
<defs>
<path id="path0_stroke" d="M 800.354 0.353553C 800.549 0.158291 800.549 -0.158291 800.354 -0.353553L 797.172 -3.53553C 796.976 -3.7308 796.66 -3.7308 796.464 -3.53553C 796.269 -3.34027 796.269 -3.02369 796.464 -2.82843L 799.293 0L 796.464 2.82843C 796.269 3.02369 796.269 3.34027 796.464 3.53553C 796.66 3.7308 796.976 3.7308 797.172 3.53553L 800.354 0.353553ZM 0 0.5L 800 0.5L 800 -0.5L 0 -0.5L 0 0.5Z"/>
<path id="path1_fill" d="M 7.29492 11.375C 6.95508 11.7793 6.54785 12.1045 6.07324 12.3506C 5.60449 12.5967 5.08887 12.7197 4.52637 12.7197C 3.78809 12.7197 3.14355 12.5381 2.59277 12.1748C 2.04785 11.8115 1.62598 11.3018 1.32715 10.6455C 1.02832 9.9834 0.878906 9.25391 0.878906 8.45703C 0.878906 7.60156 1.04004 6.83105 1.3623 6.14551C 1.69043 5.45996 2.15332 4.93555 2.75098 4.57227C 3.34863 4.20898 4.0459 4.02734 4.84277 4.02734C 6.1084 4.02734 7.10449 4.50195 7.83105 5.45117C 8.56348 6.39453 8.92969 7.68359 8.92969 9.31836L 8.92969 9.79297C 8.92969 12.2832 8.4375 14.1025 7.45312 15.251C 6.46875 16.3936 4.9834 16.9795 2.99707 17.0088L 2.68066 17.0088L 2.68066 15.6377L 3.02344 15.6377C 4.36523 15.6143 5.39648 15.2656 6.11719 14.5918C 6.83789 13.9121 7.23047 12.8398 7.29492 11.375ZM 4.79004 11.375C 5.33496 11.375 5.83594 11.208 6.29297 10.874C 6.75586 10.54 7.09277 10.127 7.30371 9.63477L 7.30371 8.98438C 7.30371 7.91797 7.07227 7.05078 6.60938 6.38281C 6.14648 5.71484 5.56055 5.38086 4.85156 5.38086C 4.13672 5.38086 3.5625 5.65625 3.12891 6.20703C 2.69531 6.75195 2.47852 7.47266 2.47852 8.36914C 2.47852 9.24219 2.68652 9.96289 3.10254 10.5312C 3.52441 11.0938 4.08691 11.375 4.79004 11.375Z"/>
<path id="path2_fill" d="M 6.40723 17L 4.77246 17L 4.77246 6.16309L 1.49414 7.36719L 1.49414 5.89062L 6.15234 4.1416L 6.40723 4.1416L 6.40723 17ZM 19.1953 11.542C 19.1953 13.4463 18.8701 14.8613 18.2197 15.7871C 17.5693 16.7129 16.5527 17.1758 15.1699 17.1758C 13.8047 17.1758 12.7939 16.7246 12.1377 15.8223C 11.4814 14.9141 11.1416 13.5605 11.1182 11.7617L 11.1182 9.59082C 11.1182 7.70996 11.4434 6.3125 12.0938 5.39844C 12.7441 4.48438 13.7637 4.02734 15.1523 4.02734C 16.5293 4.02734 17.543 4.46973 18.1934 5.35449C 18.8438 6.2334 19.1777 7.59277 19.1953 9.43262L 19.1953 11.542ZM 17.5693 9.31836C 17.5693 7.94141 17.376 6.93945 16.9893 6.3125C 16.6025 5.67969 15.9902 5.36328 15.1523 5.36328C 14.3203 5.36328 13.7139 5.67676 13.333 6.30371C 12.9521 6.93066 12.7559 7.89453 12.7441 9.19531L 12.7441 11.7969C 12.7441 13.1797 12.9434 14.2021 13.3418 14.8643C 13.7461 15.5205 14.3555 15.8486 15.1699 15.8486C 15.9727 15.8486 16.5674 15.5381 16.9541 14.917C 17.3467 14.2959 17.5518 13.3174 17.5693 11.9814L 17.5693 9.31836Z"/>
<path id="path3_fill" d="M 6.40723 17L 4.77246 17L 4.77246 6.16309L 1.49414 7.36719L 1.49414 5.89062L 6.15234 4.1416L 6.40723 4.1416L 6.40723 17ZM 16.5146 17L 14.8799 17L 14.8799 6.16309L 11.6016 7.36719L 11.6016 5.89062L 16.2598 4.1416L 16.5146 4.1416L 16.5146 17Z"/>
<path id="path4_fill" d="M 6.40723 17L 4.77246 17L 4.77246 6.16309L 1.49414 7.36719L 1.49414 5.89062L 6.15234 4.1416L 6.40723 4.1416L 6.40723 17ZM 19.5557 17L 11.1709 17L 11.1709 15.8311L 15.6006 10.9092C 16.2568 10.165 16.708 9.56152 16.9541 9.09863C 17.2061 8.62988 17.332 8.14648 17.332 7.64844C 17.332 6.98047 17.1299 6.43262 16.7256 6.00488C 16.3213 5.57715 15.7822 5.36328 15.1084 5.36328C 14.2998 5.36328 13.6699 5.59473 13.2188 6.05762C 12.7734 6.51465 12.5508 7.15332 12.5508 7.97363L 10.9248 7.97363C 10.9248 6.7959 11.3027 5.84375 12.0586 5.11719C 12.8203 4.39063 13.8369 4.02734 15.1084 4.02734C 16.2979 4.02734 17.2383 4.34082 17.9297 4.96777C 18.6211 5.58887 18.9668 6.41797 18.9668 7.45508C 18.9668 8.71484 18.1641 10.2148 16.5586 11.9551L 13.1309 15.6729L 19.5557 15.6729L 19.5557 17Z"/>
<path id="path5_fill" d="M 6.40723 17L 4.77246 17L 4.77246 6.16309L 1.49414 7.36719L 1.49414 5.89062L 6.15234 4.1416L 6.40723 4.1416L 6.40723 17Z"/>
<path id="path6_fill" d="M 9.44824 17L 1.06348 17L 1.06348 15.8311L 5.49316 10.9092C 6.14941 10.165 6.60059 9.56152 6.84668 9.09863C 7.09863 8.62988 7.22461 8.14648 7.22461 7.64844C 7.22461 6.98047 7.02246 6.43262 6.61816 6.00488C 6.21387 5.57715 5.6748 5.36328 5.00098 5.36328C 4.19238 5.36328 3.5625 5.59473 3.11133 6.05762C 2.66602 6.51465 2.44336 7.15332 2.44336 7.97363L 0.817383 7.97363C 0.817383 6.7959 1.19531 5.84375 1.95117 5.11719C 2.71289 4.39063 3.72949 4.02734 5.00098 4.02734C 6.19043 4.02734 7.13086 4.34082 7.82227 4.96777C 8.51367 5.58887 8.85938 6.41797 8.85938 7.45508C 8.85938 8.71484 8.05664 10.2148 6.45117 11.9551L 3.02344 15.6729L 9.44824 15.6729L 9.44824 17Z"/>
<path id="path7_fill" d="M 3.42773 9.81055L 4.64941 9.81055C 5.41699 9.79883 6.02051 9.59668 6.45996 9.2041C 6.89941 8.81152 7.11914 8.28125 7.11914 7.61328C 7.11914 6.11328 6.37207 5.36328 4.87793 5.36328C 4.1748 5.36328 3.6123 5.56543 3.19043 5.96973C 2.77441 6.36816 2.56641 6.89844 2.56641 7.56055L 0.94043 7.56055C 0.94043 6.54687 1.30957 5.70605 2.04785 5.03809C 2.79199 4.36426 3.73535 4.02734 4.87793 4.02734C 6.08496 4.02734 7.03125 4.34668 7.7168 4.98535C 8.40234 5.62402 8.74512 6.51172 8.74512 7.64844C 8.74512 8.20508 8.56348 8.74414 8.2002 9.26562C 7.84277 9.78711 7.35352 10.1768 6.73242 10.4346C 7.43555 10.6572 7.97754 11.0264 8.3584 11.542C 8.74512 12.0576 8.93848 12.6875 8.93848 13.4316C 8.93848 14.5801 8.56348 15.4912 7.81348 16.165C 7.06348 16.8389 6.08789 17.1758 4.88672 17.1758C 3.68555 17.1758 2.70703 16.8506 1.95117 16.2002C 1.20117 15.5498 0.826172 14.6914 0.826172 13.625L 2.46094 13.625C 2.46094 14.2988 2.68066 14.8379 3.12012 15.2422C 3.55957 15.6465 4.14844 15.8486 4.88672 15.8486C 5.67187 15.8486 6.27246 15.6436 6.68848 15.2334C 7.10449 14.8232 7.3125 14.2344 7.3125 13.4668C 7.3125 12.7227 7.08398 12.1514 6.62695 11.7529C 6.16992 11.3545 5.51074 11.1494 4.64941 11.1377L 3.42773 11.1377L 3.42773 9.81055Z"/>
<path id="path8_fill" d="M 7.92773 12.7021L 9.70312 12.7021L 9.70312 14.0293L 7.92773 14.0293L 7.92773 17L 6.29297 17L 6.29297 14.0293L 0.46582 14.0293L 0.46582 13.0713L 6.19629 4.20312L 7.92773 4.20312L 7.92773 12.7021ZM 2.31152 12.7021L 6.29297 12.7021L 6.29297 6.42676L 6.09961 6.77832L 2.31152 12.7021Z"/>
<path id="path9_fill" d="M 1.81055 10.584L 2.46094 4.20312L 9.01758 4.20312L 9.01758 5.70605L 3.84082 5.70605L 3.4541 9.19531C 4.08105 8.82617 4.79297 8.6416 5.58984 8.6416C 6.75586 8.6416 7.68164 9.02832 8.36719 9.80176C 9.05273 10.5693 9.39551 11.6094 9.39551 12.9219C 9.39551 14.2402 9.03809 15.2803 8.32324 16.042C 7.61426 16.7979 6.62109 17.1758 5.34375 17.1758C 4.21289 17.1758 3.29004 16.8623 2.5752 16.2354C 1.86035 15.6084 1.45312 14.7412 1.35352 13.6338L 2.8916 13.6338C 2.99121 14.3662 3.25195 14.9199 3.67383 15.2949C 4.0957 15.6641 4.65234 15.8486 5.34375 15.8486C 6.09961 15.8486 6.69141 15.5908 7.11914 15.0752C 7.55273 14.5596 7.76953 13.8477 7.76953 12.9395C 7.76953 12.084 7.53516 11.3984 7.06641 10.8828C 6.60352 10.3613 5.98535 10.1006 5.21191 10.1006C 4.50293 10.1006 3.94629 10.2559 3.54199 10.5664L 3.11133 10.918L 1.81055 10.584Z"/>
<path id="path10_fill" d="M 9.08789 11.542C 9.08789 13.4463 8.7627 14.8613 8.1123 15.7871C 7.46191 16.7129 6.44531 17.1758 5.0625 17.1758C 3.69727 17.1758 2.68652 16.7246 2.03027 15.8223C 1.37402 14.9141 1.03418 13.5605 1.01074 11.7617L 1.01074 9.59082C 1.01074 7.70996 1.33594 6.3125 1.98633 5.39844C 2.63672 4.48438 3.65625 4.02734 5.04492 4.02734C 6.42188 4.02734 7.43555 4.46973 8.08594 5.35449C 8.73633 6.2334 9.07031 7.59277 9.08789 9.43262L 9.08789 11.542ZM 7.46191 9.31836C 7.46191 7.94141 7.26855 6.93945 6.88184 6.3125C 6.49512 5.67969 5.88281 5.36328 5.04492 5.36328C 4.21289 5.36328 3.60645 5.67676 3.22559 6.30371C 2.84473 6.93066 2.64844 7.89453 2.63672 9.19531L 2.63672 11.7969C 2.63672 13.1797 2.83594 14.2021 3.23438 14.8643C 3.63867 15.5205 4.24805 15.8486 5.0625 15.8486C 5.86523 15.8486 6.45996 15.5381 6.84668 14.917C 7.23926 14.2959 7.44434 13.3174 7.46191 11.9814L 7.46191 9.31836Z"/>
<path id="path11_fill" d="M 6.40723 17L 4.77246 17L 4.77246 6.16309L 1.49414 7.36719L 1.49414 5.89062L 6.15234 4.1416L 6.40723 4.1416L 6.40723 17ZM 19.1953 11.542C 19.1953 13.4463 18.8701 14.8613 18.2197 15.7871C 17.5693 16.7129 16.5527 17.1758 15.1699 17.1758C 13.8047 17.1758 12.7939 16.7246 12.1377 15.8223C 11.4814 14.9141 11.1416 13.5605 11.1182 11.7617L 11.1182 9.59082C 11.1182 7.70996 11.4434 6.3125 12.0938 5.39844C 12.7441 4.48438 13.7637 4.02734 15.1523 4.02734C 16.5293 4.02734 17.543 4.46973 18.1934 5.35449C 18.8438 6.2334 19.1777 7.59277 19.1953 9.43262L 19.1953 11.542ZM 17.5693 9.31836C 17.5693 7.94141 17.376 6.93945 16.9893 6.3125C 16.6025 5.67969 15.9902 5.36328 15.1523 5.36328C 14.3203 5.36328 13.7139 5.67676 13.333 6.30371C 12.9521 6.93066 12.7559 7.89453 12.7441 9.19531L 12.7441 11.7969C 12.7441 13.1797 12.9434 14.2021 13.3418 14.8643C 13.7461 15.5205 14.3555 15.8486 15.1699 15.8486C 15.9727 15.8486 16.5674 15.5381 16.9541 14.917C 17.3467 14.2959 17.5518 13.3174 17.5693 11.9814L 17.5693 9.31836ZM 29.3027 11.542C 29.3027 13.4463 28.9775 14.8613 28.3271 15.7871C 27.6768 16.7129 26.6602 17.1758 25.2773 17.1758C 23.9121 17.1758 22.9014 16.7246 22.2451 15.8223C 21.5889 14.9141 21.249 13.5605 21.2256 11.7617L 21.2256 9.59082C 21.2256 7.70996 21.5508 6.3125 22.2012 5.39844C 22.8516 4.48438 23.8711 4.02734 25.2598 4.02734C 26.6367 4.02734 27.6504 4.46973 28.3008 5.35449C 28.9512 6.2334 29.2852 7.59277 29.3027 9.43262L 29.3027 11.542ZM 27.6768 9.31836C 27.6768 7.94141 27.4834 6.93945 27.0967 6.3125C 26.71 5.67969 26.0977 5.36328 25.2598 5.36328C 24.4277 5.36328 23.8213 5.67676 23.4404 6.30371C 23.0596 6.93066 22.8633 7.89453 22.8516 9.19531L 22.8516 11.7969C 22.8516 13.1797 23.0508 14.2021 23.4492 14.8643C 23.8535 15.5205 24.4629 15.8486 25.2773 15.8486C 26.0801 15.8486 26.6748 15.5381 27.0615 14.917C 27.4541 14.2959 27.6592 13.3174 27.6768 11.9814L 27.6768 9.31836Z"/>
<path id="path12_fill" d="M 9.44824 17L 1.06348 17L 1.06348 15.8311L 5.49316 10.9092C 6.14941 10.165 6.60059 9.56152 6.84668 9.09863C 7.09863 8.62988 7.22461 8.14648 7.22461 7.64844C 7.22461 6.98047 7.02246 6.43262 6.61816 6.00488C 6.21387 5.57715 5.6748 5.36328 5.00098 5.36328C 4.19238 5.36328 3.5625 5.59473 3.11133 6.05762C 2.66602 6.51465 2.44336 7.15332 2.44336 7.97363L 0.817383 7.97363C 0.817383 6.7959 1.19531 5.84375 1.95117 5.11719C 2.71289 4.39063 3.72949 4.02734 5.00098 4.02734C 6.19043 4.02734 7.13086 4.34082 7.82227 4.96777C 8.51367 5.58887 8.85938 6.41797 8.85938 7.45508C 8.85938 8.71484 8.05664 10.2148 6.45117 11.9551L 3.02344 15.6729L 9.44824 15.6729L 9.44824 17ZM 19.1953 11.542C 19.1953 13.4463 18.8701 14.8613 18.2197 15.7871C 17.5693 16.7129 16.5527 17.1758 15.1699 17.1758C 13.8047 17.1758 12.7939 16.7246 12.1377 15.8223C 11.4814 14.9141 11.1416 13.5605 11.1182 11.7617L 11.1182 9.59082C 11.1182 7.70996 11.4434 6.3125 12.0938 5.39844C 12.7441 4.48438 13.7637 4.02734 15.1523 4.02734C 16.5293 4.02734 17.543 4.46973 18.1934 5.35449C 18.8438 6.2334 19.1777 7.59277 19.1953 9.43262L 19.1953 11.542ZM 17.5693 9.31836C 17.5693 7.94141 17.376 6.93945 16.9893 6.3125C 16.6025 5.67969 15.9902 5.36328 15.1523 5.36328C 14.3203 5.36328 13.7139 5.67676 13.333 6.30371C 12.9521 6.93066 12.7559 7.89453 12.7441 9.19531L 12.7441 11.7969C 12.7441 13.1797 12.9434 14.2021 13.3418 14.8643C 13.7461 15.5205 14.3555 15.8486 15.1699 15.8486C 15.9727 15.8486 16.5674 15.5381 16.9541 14.917C 17.3467 14.2959 17.5518 13.3174 17.5693 11.9814L 17.5693 9.31836ZM 29.3027 11.542C 29.3027 13.4463 28.9775 14.8613 28.3271 15.7871C 27.6768 16.7129 26.6602 17.1758 25.2773 17.1758C 23.9121 17.1758 22.9014 16.7246 22.2451 15.8223C 21.5889 14.9141 21.249 13.5605 21.2256 11.7617L 21.2256 9.59082C 21.2256 7.70996 21.5508 6.3125 22.2012 5.39844C 22.8516 4.48438 23.8711 4.02734 25.2598 4.02734C 26.6367 4.02734 27.6504 4.46973 28.3008 5.35449C 28.9512 6.2334 29.2852 7.59277 29.3027 9.43262L 29.3027 11.542ZM 27.6768 9.31836C 27.6768 7.94141 27.4834 6.93945 27.0967 6.3125C 26.71 5.67969 26.0977 5.36328 25.2598 5.36328C 24.4277 5.36328 23.8213 5.67676 23.4404 6.30371C 23.0596 6.93066 22.8633 7.89453 22.8516 9.19531L 22.8516 11.7969C 22.8516 13.1797 23.0508 14.2021 23.4492 14.8643C 23.8535 15.5205 24.4629 15.8486 25.2773 15.8486C 26.0801 15.8486 26.6748 15.5381 27.0615 14.917C 27.4541 14.2959 27.6592 13.3174 27.6768 11.9814L 27.6768 9.31836Z"/>
<path id="path13_fill" d="M 3.42773 9.81055L 4.64941 9.81055C 5.41699 9.79883 6.02051 9.59668 6.45996 9.2041C 6.89941 8.81152 7.11914 8.28125 7.11914 7.61328C 7.11914 6.11328 6.37207 5.36328 4.87793 5.36328C 4.1748 5.36328 3.6123 5.56543 3.19043 5.96973C 2.77441 6.36816 2.56641 6.89844 2.56641 7.56055L 0.94043 7.56055C 0.94043 6.54687 1.30957 5.70605 2.04785 5.03809C 2.79199 4.36426 3.73535 4.02734 4.87793 4.02734C 6.08496 4.02734 7.03125 4.34668 7.7168 4.98535C 8.40234 5.62402 8.74512 6.51172 8.74512 7.64844C 8.74512 8.20508 8.56348 8.74414 8.2002 9.26562C 7.84277 9.78711 7.35352 10.1768 6.73242 10.4346C 7.43555 10.6572 7.97754 11.0264 8.3584 11.542C 8.74512 12.0576 8.93848 12.6875 8.93848 13.4316C 8.93848 14.5801 8.56348 15.4912 7.81348 16.165C 7.06348 16.8389 6.08789 17.1758 4.88672 17.1758C 3.68555 17.1758 2.70703 16.8506 1.95117 16.2002C 1.20117 15.5498 0.826172 14.6914 0.826172 13.625L 2.46094 13.625C 2.46094 14.2988 2.68066 14.8379 3.12012 15.2422C 3.55957 15.6465 4.14844 15.8486 4.88672 15.8486C 5.67187 15.8486 6.27246 15.6436 6.68848 15.2334C 7.10449 14.8232 7.3125 14.2344 7.3125 13.4668C 7.3125 12.7227 7.08398 12.1514 6.62695 11.7529C 6.16992 11.3545 5.51074 11.1494 4.64941 11.1377L 3.42773 11.1377L 3.42773 9.81055ZM 19.1953 11.542C 19.1953 13.4463 18.8701 14.8613 18.2197 15.7871C 17.5693 16.7129 16.5527 17.1758 15.1699 17.1758C 13.8047 17.1758 12.7939 16.7246 12.1377 15.8223C 11.4814 14.9141 11.1416 13.5605 11.1182 11.7617L 11.1182 9.59082C 11.1182 7.70996 11.4434 6.3125 12.0938 5.39844C 12.7441 4.48438 13.7637 4.02734 15.1523 4.02734C 16.5293 4.02734 17.543 4.46973 18.1934 5.35449C 18.8438 6.2334 19.1777 7.59277 19.1953 9.43262L 19.1953 11.542ZM 17.5693 9.31836C 17.5693 7.94141 17.376 6.93945 16.9893 6.3125C 16.6025 5.67969 15.9902 5.36328 15.1523 5.36328C 14.3203 5.36328 13.7139 5.67676 13.333 6.30371C 12.9521 6.93066 12.7559 7.89453 12.7441 9.19531L 12.7441 11.7969C 12.7441 13.1797 12.9434 14.2021 13.3418 14.8643C 13.7461 15.5205 14.3555 15.8486 15.1699 15.8486C 15.9727 15.8486 16.5674 15.5381 16.9541 14.917C 17.3467 14.2959 17.5518 13.3174 17.5693 11.9814L 17.5693 9.31836ZM 29.3027 11.542C 29.3027 13.4463 28.9775 14.8613 28.3271 15.7871C 27.6768 16.7129 26.6602 17.1758 25.2773 17.1758C 23.9121 17.1758 22.9014 16.7246 22.2451 15.8223C 21.5889 14.9141 21.249 13.5605 21.2256 11.7617L 21.2256 9.59082C 21.2256 7.70996 21.5508 6.3125 22.2012 5.39844C 22.8516 4.48438 23.8711 4.02734 25.2598 4.02734C 26.6367 4.02734 27.6504 4.46973 28.3008 5.35449C 28.9512 6.2334 29.2852 7.59277 29.3027 9.43262L 29.3027 11.542ZM 27.6768 9.31836C 27.6768 7.94141 27.4834 6.93945 27.0967 6.3125C 26.71 5.67969 26.0977 5.36328 25.2598 5.36328C 24.4277 5.36328 23.8213 5.67676 23.4404 6.30371C 23.0596 6.93066 22.8633 7.89453 22.8516 9.19531L 22.8516 11.7969C 22.8516 13.1797 23.0508 14.2021 23.4492 14.8643C 23.8535 15.5205 24.4629 15.8486 25.2773 15.8486C 26.0801 15.8486 26.6748 15.5381 27.0615 14.917C 27.4541 14.2959 27.6592 13.3174 27.6768 11.9814L 27.6768 9.31836Z"/>
<path id="path14_fill" d="M 7.92773 12.7021L 9.70312 12.7021L 9.70312 14.0293L 7.92773 14.0293L 7.92773 17L 6.29297 17L 6.29297 14.0293L 0.46582 14.0293L 0.46582 13.0713L 6.19629 4.20312L 7.92773 4.20312L 7.92773 12.7021ZM 2.31152 12.7021L 6.29297 12.7021L 6.29297 6.42676L 6.09961 6.77832L 2.31152 12.7021ZM 19.1953 11.542C 19.1953 13.4463 18.8701 14.8613 18.2197 15.7871C 17.5693 16.7129 16.5527 17.1758 15.1699 17.1758C 13.8047 17.1758 12.7939 16.7246 12.1377 15.8223C 11.4814 14.9141 11.1416 13.5605 11.1182 11.7617L 11.1182 9.59082C 11.1182 7.70996 11.4434 6.3125 12.0938 5.39844C 12.7441 4.48438 13.7637 4.02734 15.1523 4.02734C 16.5293 4.02734 17.543 4.46973 18.1934 5.35449C 18.8438 6.2334 19.1777 7.59277 19.1953 9.43262L 19.1953 11.542ZM 17.5693 9.31836C 17.5693 7.94141 17.376 6.93945 16.9893 6.3125C 16.6025 5.67969 15.9902 5.36328 15.1523 5.36328C 14.3203 5.36328 13.7139 5.67676 13.333 6.30371C 12.9521 6.93066 12.7559 7.89453 12.7441 9.19531L 12.7441 11.7969C 12.7441 13.1797 12.9434 14.2021 13.3418 14.8643C 13.7461 15.5205 14.3555 15.8486 15.1699 15.8486C 15.9727 15.8486 16.5674 15.5381 16.9541 14.917C 17.3467 14.2959 17.5518 13.3174 17.5693 11.9814L 17.5693 9.31836ZM 29.3027 11.542C 29.3027 13.4463 28.9775 14.8613 28.3271 15.7871C 27.6768 16.7129 26.6602 17.1758 25.2773 17.1758C 23.9121 17.1758 22.9014 16.7246 22.2451 15.8223C 21.5889 14.9141 21.249 13.5605 21.2256 11.7617L 21.2256 9.59082C 21.2256 7.70996 21.5508 6.3125 22.2012 5.39844C 22.8516 4.48438 23.8711 4.02734 25.2598 4.02734C 26.6367 4.02734 27.6504 4.46973 28.3008 5.35449C 28.9512 6.2334 29.2852 7.59277 29.3027 9.43262L 29.3027 11.542ZM 27.6768 9.31836C 27.6768 7.94141 27.4834 6.93945 27.0967 6.3125C 26.71 5.67969 26.0977 5.36328 25.2598 5.36328C 24.4277 5.36328 23.8213 5.67676 23.4404 6.30371C 23.0596 6.93066 22.8633 7.89453 22.8516 9.19531L 22.8516 11.7969C 22.8516 13.1797 23.0508 14.2021 23.4492 14.8643C 23.8535 15.5205 24.4629 15.8486 25.2773 15.8486C 26.0801 15.8486 26.6748 15.5381 27.0615 14.917C 27.4541 14.2959 27.6592 13.3174 27.6768 11.9814L 27.6768 9.31836Z"/>
<path id="path15_fill" d="M 0 0L 100 0L 100 116L 0 116L 0 0Z"/>
<path id="path16_fill" d="M 0 0L 100 0L 100 227L 0 227L 0 0Z"/>
<path id="path17_fill" d="M 0 0L 100 0L 100 316L 0 316L 0 0Z"/>
<path id="path18_fill" d="M 0 0L 105 0L 105 516L 0 516L 0 0Z"/>
<path id="path19_fill" d="M 15.0938 22L 12.832 22L 12.832 14.1133L 4.23047 14.1133L 4.23047 22L 1.98047 22L 1.98047 4.9375L 4.23047 4.9375L 4.23047 12.2734L 12.832 12.2734L 12.832 4.9375L 15.0938 4.9375L 15.0938 22ZM 18.1758 15.543C 18.1758 14.3008 18.418 13.1836 18.9023 12.1914C 19.3945 11.1992 20.0742 10.4336 20.9414 9.89453C 21.8164 9.35547 22.8125 9.08594 23.9297 9.08594C 25.6562 9.08594 27.0508 9.68359 28.1133 10.8789C 29.1836 12.0742 29.7188 13.6641 29.7188 15.6484L 29.7188 15.8008C 29.7188 17.0352 29.4805 18.1445 29.0039 19.1289C 28.5352 20.1055 27.8594 20.8672 26.9766 21.4141C 26.1016 21.9609 25.0938 22.2344 23.9531 22.2344C 22.2344 22.2344 20.8398 21.6367 19.7695 20.4414C 18.707 19.2461 18.1758 17.6641 18.1758 15.6953L 18.1758 15.543ZM 20.3555 15.8008C 20.3555 17.207 20.6797 18.3359 21.3281 19.1875C 21.9844 20.0391 22.8594 20.4648 23.9531 20.4648C 25.0547 20.4648 25.9297 20.0352 26.5781 19.1758C 27.2266 18.3086 27.5508 17.0977 27.5508 15.543C 27.5508 14.1523 27.2188 13.0273 26.5547 12.168C 25.8984 11.3008 25.0234 10.8672 23.9297 10.8672C 22.8594 10.8672 21.9961 11.293 21.3398 12.1445C 20.6836 12.9961 20.3555 14.2148 20.3555 15.8008ZM 40.2656 20.7461C 39.4219 21.7383 38.1836 22.2344 36.5508 22.2344C 35.1992 22.2344 34.168 21.8438 33.457 21.0625C 32.7539 20.2734 32.3984 19.1094 32.3906 17.5703L 32.3906 9.32031L 34.5586 9.32031L 34.5586 17.5117C 34.5586 19.4336 35.3398 20.3945 36.9023 20.3945C 38.5586 20.3945 39.6602 19.7773 40.207 18.543L 40.207 9.32031L 42.375 9.32031L 42.375 22L 40.3125 22L 40.2656 20.7461ZM 51.8086 11.2656C 51.4805 11.2109 51.125 11.1836 50.7422 11.1836C 49.3203 11.1836 48.3555 11.7891 47.8477 13L 47.8477 22L 45.6797 22L 45.6797 9.32031L 47.7891 9.32031L 47.8242 10.7852C 48.5352 9.65234 49.543 9.08594 50.8477 9.08594C 51.2695 9.08594 51.5898 9.14062 51.8086 9.25L 51.8086 11.2656Z"/>
<path id="path20_fill" d="M 1.98047 22L 1.98047 4.9375L 7.55859 4.9375C 9.41016 4.9375 10.8008 5.32031 11.7305 6.08594C 12.668 6.85156 13.1367 7.98438 13.1367 9.48438C 13.1367 10.2812 12.9102 10.9883 12.457 11.6055C 12.0039 12.2148 11.3867 12.6875 10.6055 13.0234C 11.5273 13.2812 12.2539 13.7734 12.7852 14.5C 13.3242 15.2188 13.5938 16.0781 13.5938 17.0781C 13.5938 18.6094 13.0977 19.8125 12.1055 20.6875C 11.1133 21.5625 9.71094 22 7.89844 22L 1.98047 22ZM 4.23047 14.0195L 4.23047 20.1602L 7.94531 20.1602C 8.99219 20.1602 9.81641 19.8906 10.418 19.3516C 11.0273 18.8047 11.332 18.0547 11.332 17.1016C 11.332 15.0469 10.2148 14.0195 7.98047 14.0195L 4.23047 14.0195ZM 4.23047 12.2148L 7.62891 12.2148C 8.61328 12.2148 9.39844 11.9688 9.98438 11.4766C 10.5781 10.9844 10.875 10.3164 10.875 9.47266C 10.875 8.53516 10.6016 7.85547 10.0547 7.43359C 9.50781 7.00391 8.67578 6.78906 7.55859 6.78906L 4.23047 6.78906L 4.23047 12.2148ZM 24.4219 22C 24.2969 21.75 24.1953 21.3047 24.1172 20.6641C 23.1094 21.7109 21.9062 22.2344 20.5078 22.2344C 19.2578 22.2344 18.2305 21.8828 17.4258 21.1797C 16.6289 20.4688 16.2305 19.5703 16.2305 18.4844C 16.2305 17.1641 16.7305 16.1406 17.7305 15.4141C 18.7383 14.6797 20.1523 14.3125 21.9727 14.3125L 24.082 14.3125L 24.082 13.3164C 24.082 12.5586 23.8555 11.957 23.4023 11.5117C 22.9492 11.0586 22.2812 10.832 21.3984 10.832C 20.625 10.832 19.9766 11.0273 19.4531 11.418C 18.9297 11.8086 18.668 12.2812 18.668 12.8359L 16.4883 12.8359C 16.4883 12.2031 16.7109 11.5938 17.1562 11.0078C 17.6094 10.4141 18.2188 9.94531 18.9844 9.60156C 19.7578 9.25781 20.6055 9.08594 21.5273 9.08594C 22.9883 9.08594 24.1328 9.45312 24.9609 10.1875C 25.7891 10.9141 26.2188 11.918 26.25 13.1992L 26.25 19.0352C 26.25 20.1992 26.3984 21.125 26.6953 21.8125L 26.6953 22L 24.4219 22ZM 20.8242 20.3477C 21.5039 20.3477 22.1484 20.1719 22.7578 19.8203C 23.3672 19.4688 23.8086 19.0117 24.082 18.4492L 24.082 15.8477L 22.3828 15.8477C 19.7266 15.8477 18.3984 16.625 18.3984 18.1797C 18.3984 18.8594 18.625 19.3906 19.0781 19.7734C 19.5312 20.1562 20.1133 20.3477 20.8242 20.3477ZM 34.7344 20.4648C 35.5078 20.4648 36.1836 20.2305 36.7617 19.7617C 37.3398 19.293 37.6602 18.707 37.7227 18.0039L 39.7734 18.0039C 39.7344 18.7305 39.4844 19.4219 39.0234 20.0781C 38.5625 20.7344 37.9453 21.2578 37.1719 21.6484C 36.4062 22.0391 35.5938 22.2344 34.7344 22.2344C 33.0078 22.2344 31.6328 21.6602 30.6094 20.5117C 29.5938 19.3555 29.0859 17.7773 29.0859 15.7773L 29.0859 15.4141C 29.0859 14.1797 29.3125 13.082 29.7656 12.1211C 30.2188 11.1602 30.8672 10.4141 31.7109 9.88281C 32.5625 9.35156 33.5664 9.08594 34.7227 9.08594C 36.1445 9.08594 37.3242 9.51172 38.2617 10.3633C 39.207 11.2148 39.7109 12.3203 39.7734 13.6797L 37.7227 13.6797C 37.6602 12.8594 37.3477 12.1875 36.7852 11.6641C 36.2305 11.1328 35.543 10.8672 34.7227 10.8672C 33.6211 10.8672 32.7656 11.2656 32.1562 12.0625C 31.5547 12.8516 31.2539 13.9961 31.2539 15.4961L 31.2539 15.9062C 31.2539 17.3672 31.5547 18.4922 32.1562 19.2812C 32.7578 20.0703 33.6172 20.4648 34.7344 20.4648ZM 45.75 16.1289L 44.3906 17.5469L 44.3906 22L 42.2227 22L 42.2227 4L 44.3906 4L 44.3906 14.8867L 45.5508 13.4922L 49.5 9.32031L 52.1367 9.32031L 47.2031 14.6172L 52.7109 22L 50.168 22L 45.75 16.1289ZM 56.7305 22L 54.5625 22L 54.5625 4L 56.7305 4L 56.7305 22ZM 59.6367 15.543C 59.6367 14.3008 59.8789 13.1836 60.3633 12.1914C 60.8555 11.1992 61.5352 10.4336 62.4023 9.89453C 63.2773 9.35547 64.2734 9.08594 65.3906 9.08594C 67.1172 9.08594 68.5117 9.68359 69.5742 10.8789C 70.6445 12.0742 71.1797 13.6641 71.1797 15.6484L 71.1797 15.8008C 71.1797 17.0352 70.9414 18.1445 70.4648 19.1289C 69.9961 20.1055 69.3203 20.8672 68.4375 21.4141C 67.5625 21.9609 66.5547 22.2344 65.4141 22.2344C 63.6953 22.2344 62.3008 21.6367 61.2305 20.4414C 60.168 19.2461 59.6367 17.6641 59.6367 15.6953L 59.6367 15.543ZM 61.8164 15.8008C 61.8164 17.207 62.1406 18.3359 62.7891 19.1875C 63.4453 20.0391 64.3203 20.4648 65.4141 20.4648C 66.5156 20.4648 67.3906 20.0352 68.0391 19.1758C 68.6875 18.3086 69.0117 17.0977 69.0117 15.543C 69.0117 14.1523 68.6797 13.0273 68.0156 12.168C 67.3594 11.3008 66.4844 10.8672 65.3906 10.8672C 64.3203 10.8672 63.457 11.293 62.8008 12.1445C 62.1445 12.9961 61.8164 14.2148 61.8164 15.8008ZM 73.3828 15.5547C 73.3828 13.5781 73.8398 12.0078 74.7539 10.8438C 75.668 9.67188 76.8789 9.08594 78.3867 9.08594C 79.9336 9.08594 81.1406 9.63281 82.0078 10.7266L 82.1133 9.32031L 84.0938 9.32031L 84.0938 21.6953C 84.0938 23.3359 83.6055 24.6289 82.6289 25.5742C 81.6602 26.5195 80.3555 26.9922 78.7148 26.9922C 77.8008 26.9922 76.9062 26.7969 76.0312 26.4062C 75.1562 26.0156 74.4883 25.4805 74.0273 24.8008L 75.1523 23.5C 76.082 24.6484 77.2188 25.2227 78.5625 25.2227C 79.6172 25.2227 80.4375 24.9258 81.0234 24.332C 81.6172 23.7383 81.9141 22.9023 81.9141 21.8242L 81.9141 20.7344C 81.0469 21.7344 79.8633 22.2344 78.3633 22.2344C 76.8789 22.2344 75.6758 21.6367 74.7539 20.4414C 73.8398 19.2461 73.3828 17.6172 73.3828 15.5547ZM 75.5625 15.8008C 75.5625 17.2305 75.8555 18.3555 76.4414 19.1758C 77.0273 19.9883 77.8477 20.3945 78.9023 20.3945C 80.2695 20.3945 81.2734 19.7734 81.9141 18.5312L 81.9141 12.7422C 81.25 11.5312 80.2539 10.9258 78.9258 10.9258C 77.8711 10.9258 77.0469 11.3359 76.4531 12.1562C 75.8594 12.9766 75.5625 14.1914 75.5625 15.8008ZM 4.24219 48.1602L 12.3281 48.1602L 12.3281 50L 1.98047 50L 1.98047 32.9375L 4.24219 32.9375L 4.24219 48.1602ZM 19.8164 50.2344C 18.0977 50.2344 16.6992 49.6719 15.6211 48.5469C 14.543 47.4141 14.0039 45.9023 14.0039 44.0117L 14.0039 43.6133C 14.0039 42.3555 14.2422 41.2344 14.7188 40.25C 15.2031 39.2578 15.875 38.4844 16.7344 37.9297C 17.6016 37.3672 18.5391 37.0859 19.5469 37.0859C 21.1953 37.0859 22.4766 37.6289 23.3906 38.7148C 24.3047 39.8008 24.7617 41.3555 24.7617 43.3789L 24.7617 44.2812L 16.1719 44.2812C 16.2031 45.5312 16.5664 46.543 17.2617 47.3164C 17.9648 48.082 18.8555 48.4648 19.9336 48.4648C 20.6992 48.4648 21.3477 48.3086 21.8789 47.9961C 22.4102 47.6836 22.875 47.2695 23.2734 46.7539L 24.5977 47.7852C 23.5352 49.418 21.9414 50.2344 19.8164 50.2344ZM 19.5469 38.8672C 18.6719 38.8672 17.9375 39.1875 17.3438 39.8281C 16.75 40.4609 16.3828 41.3516 16.2422 42.5L 22.5938 42.5L 22.5938 42.3359C 22.5312 41.2344 22.2344 40.3828 21.7031 39.7812C 21.1719 39.1719 20.4531 38.8672 19.5469 38.8672ZM 29.332 37.3203L 29.4023 38.9141C 30.3711 37.6953 31.6367 37.0859 33.1992 37.0859C 35.8789 37.0859 37.2305 38.5977 37.2539 41.6211L 37.2539 50L 35.0859 50L 35.0859 41.6094C 35.0781 40.6953 34.8672 40.0195 34.4531 39.582C 34.0469 39.1445 33.4102 38.9258 32.543 38.9258C 31.8398 38.9258 31.2227 39.1133 30.6914 39.4883C 30.1602 39.8633 29.7461 40.3555 29.4492 40.9648L 29.4492 50L 27.2812 50L 27.2812 37.3203L 29.332 37.3203ZM 40.0078 43.5547C 40.0078 41.5781 40.4648 40.0078 41.3789 38.8438C 42.293 37.6719 43.5039 37.0859 45.0117 37.0859C 46.5586 37.0859 47.7656 37.6328 48.6328 38.7266L 48.7383 37.3203L 50.7188 37.3203L 50.7188 49.6953C 50.7188 51.3359 50.2305 52.6289 49.2539 53.5742C 48.2852 54.5195 46.9805 54.9922 45.3398 54.9922C 44.4258 54.9922 43.5312 54.7969 42.6562 54.4062C 41.7812 54.0156 41.1133 53.4805 40.6523 52.8008L 41.7773 51.5C 42.707 52.6484 43.8438 53.2227 45.1875 53.2227C 46.2422 53.2227 47.0625 52.9258 47.6484 52.332C 48.2422 51.7383 48.5391 50.9023 48.5391 49.8242L 48.5391 48.7344C 47.6719 49.7344 46.4883 50.2344 44.9883 50.2344C 43.5039 50.2344 42.3008 49.6367 41.3789 48.4414C 40.4648 47.2461 40.0078 45.6172 40.0078 43.5547ZM 42.1875 43.8008C 42.1875 45.2305 42.4805 46.3555 43.0664 47.1758C 43.6523 47.9883 44.4727 48.3945 45.5273 48.3945C 46.8945 48.3945 47.8984 47.7734 48.5391 46.5312L 48.5391 40.7422C 47.875 39.5312 46.8789 38.9258 45.5508 38.9258C 44.4961 38.9258 43.6719 39.3359 43.0781 40.1562C 42.4844 40.9766 42.1875 42.1914 42.1875 43.8008ZM 56.9414 34.25L 56.9414 37.3203L 59.3086 37.3203L 59.3086 38.9961L 56.9414 38.9961L 56.9414 46.8594C 56.9414 47.3672 57.0469 47.75 57.2578 48.0078C 57.4688 48.2578 57.8281 48.3828 58.3359 48.3828C 58.5859 48.3828 58.9297 48.3359 59.3672 48.2422L 59.3672 50C 58.7969 50.1562 58.2422 50.2344 57.7031 50.2344C 56.7344 50.2344 56.0039 49.9414 55.5117 49.3555C 55.0195 48.7695 54.7734 47.9375 54.7734 46.8594L 54.7734 38.9961L 52.4648 38.9961L 52.4648 37.3203L 54.7734 37.3203L 54.7734 34.25L 56.9414 34.25ZM 64.0195 38.8555C 64.9805 37.6758 66.2305 37.0859 67.7695 37.0859C 70.4492 37.0859 71.8008 38.5977 71.8242 41.6211L 71.8242 50L 69.6562 50L 69.6562 41.6094C 69.6484 40.6953 69.4375 40.0195 69.0234 39.582C 68.6172 39.1445 67.9805 38.9258 67.1133 38.9258C 66.4102 38.9258 65.793 39.1133 65.2617 39.4883C 64.7305 39.8633 64.3164 40.3555 64.0195 40.9648L 64.0195 50L 61.8516 50L 61.8516 32L 64.0195 32L 64.0195 38.8555Z"/>
<path id="path21_fill" d="M 1.98047 22L 1.98047 4.9375L 7.55859 4.9375C 9.41016 4.9375 10.8008 5.32031 11.7305 6.08594C 12.668 6.85156 13.1367 7.98438 13.1367 9.48438C 13.1367 10.2812 12.9102 10.9883 12.457 11.6055C 12.0039 12.2148 11.3867 12.6875 10.6055 13.0234C 11.5273 13.2812 12.2539 13.7734 12.7852 14.5C 13.3242 15.2188 13.5938 16.0781 13.5938 17.0781C 13.5938 18.6094 13.0977 19.8125 12.1055 20.6875C 11.1133 21.5625 9.71094 22 7.89844 22L 1.98047 22ZM 4.23047 14.0195L 4.23047 20.1602L 7.94531 20.1602C 8.99219 20.1602 9.81641 19.8906 10.418 19.3516C 11.0273 18.8047 11.332 18.0547 11.332 17.1016C 11.332 15.0469 10.2148 14.0195 7.98047 14.0195L 4.23047 14.0195ZM 4.23047 12.2148L 7.62891 12.2148C 8.61328 12.2148 9.39844 11.9688 9.98438 11.4766C 10.5781 10.9844 10.875 10.3164 10.875 9.47266C 10.875 8.53516 10.6016 7.85547 10.0547 7.43359C 9.50781 7.00391 8.67578 6.78906 7.55859 6.78906L 4.23047 6.78906L 4.23047 12.2148ZM 24.4219 22C 24.2969 21.75 24.1953 21.3047 24.1172 20.6641C 23.1094 21.7109 21.9062 22.2344 20.5078 22.2344C 19.2578 22.2344 18.2305 21.8828 17.4258 21.1797C 16.6289 20.4688 16.2305 19.5703 16.2305 18.4844C 16.2305 17.1641 16.7305 16.1406 17.7305 15.4141C 18.7383 14.6797 20.1523 14.3125 21.9727 14.3125L 24.082 14.3125L 24.082 13.3164C 24.082 12.5586 23.8555 11.957 23.4023 11.5117C 22.9492 11.0586 22.2812 10.832 21.3984 10.832C 20.625 10.832 19.9766 11.0273 19.4531 11.418C 18.9297 11.8086 18.668 12.2812 18.668 12.8359L 16.4883 12.8359C 16.4883 12.2031 16.7109 11.5938 17.1562 11.0078C 17.6094 10.4141 18.2188 9.94531 18.9844 9.60156C 19.7578 9.25781 20.6055 9.08594 21.5273 9.08594C 22.9883 9.08594 24.1328 9.45312 24.9609 10.1875C 25.7891 10.9141 26.2188 11.918 26.25 13.1992L 26.25 19.0352C 26.25 20.1992 26.3984 21.125 26.6953 21.8125L 26.6953 22L 24.4219 22ZM 20.8242 20.3477C 21.5039 20.3477 22.1484 20.1719 22.7578 19.8203C 23.3672 19.4688 23.8086 19.0117 24.082 18.4492L 24.082 15.8477L 22.3828 15.8477C 19.7266 15.8477 18.3984 16.625 18.3984 18.1797C 18.3984 18.8594 18.625 19.3906 19.0781 19.7734C 19.5312 20.1562 20.1133 20.3477 20.8242 20.3477ZM 34.7344 20.4648C 35.5078 20.4648 36.1836 20.2305 36.7617 19.7617C 37.3398 19.293 37.6602 18.707 37.7227 18.0039L 39.7734 18.0039C 39.7344 18.7305 39.4844 19.4219 39.0234 20.0781C 38.5625 20.7344 37.9453 21.2578 37.1719 21.6484C 36.4062 22.0391 35.5938 22.2344 34.7344 22.2344C 33.0078 22.2344 31.6328 21.6602 30.6094 20.5117C 29.5938 19.3555 29.0859 17.7773 29.0859 15.7773L 29.0859 15.4141C 29.0859 14.1797 29.3125 13.082 29.7656 12.1211C 30.2188 11.1602 30.8672 10.4141 31.7109 9.88281C 32.5625 9.35156 33.5664 9.08594 34.7227 9.08594C 36.1445 9.08594 37.3242 9.51172 38.2617 10.3633C 39.207 11.2148 39.7109 12.3203 39.7734 13.6797L 37.7227 13.6797C 37.6602 12.8594 37.3477 12.1875 36.7852 11.6641C 36.2305 11.1328 35.543 10.8672 34.7227 10.8672C 33.6211 10.8672 32.7656 11.2656 32.1562 12.0625C 31.5547 12.8516 31.2539 13.9961 31.2539 15.4961L 31.2539 15.9062C 31.2539 17.3672 31.5547 18.4922 32.1562 19.2812C 32.7578 20.0703 33.6172 20.4648 34.7344 20.4648ZM 45.75 16.1289L 44.3906 17.5469L 44.3906 22L 42.2227 22L 42.2227 4L 44.3906 4L 44.3906 14.8867L 45.5508 13.4922L 49.5 9.32031L 52.1367 9.32031L 47.2031 14.6172L 52.7109 22L 50.168 22L 45.75 16.1289ZM 56.7305 22L 54.5625 22L 54.5625 4L 56.7305 4L 56.7305 22ZM 59.6367 15.543C 59.6367 14.3008 59.8789 13.1836 60.3633 12.1914C 60.8555 11.1992 61.5352 10.4336 62.4023 9.89453C 63.2773 9.35547 64.2734 9.08594 65.3906 9.08594C 67.1172 9.08594 68.5117 9.68359 69.5742 10.8789C 70.6445 12.0742 71.1797 13.6641 71.1797 15.6484L 71.1797 15.8008C 71.1797 17.0352 70.9414 18.1445 70.4648 19.1289C 69.9961 20.1055 69.3203 20.8672 68.4375 21.4141C 67.5625 21.9609 66.5547 22.2344 65.4141 22.2344C 63.6953 22.2344 62.3008 21.6367 61.2305 20.4414C 60.168 19.2461 59.6367 17.6641 59.6367 15.6953L 59.6367 15.543ZM 61.8164 15.8008C 61.8164 17.207 62.1406 18.3359 62.7891 19.1875C 63.4453 20.0391 64.3203 20.4648 65.4141 20.4648C 66.5156 20.4648 67.3906 20.0352 68.0391 19.1758C 68.6875 18.3086 69.0117 17.0977 69.0117 15.543C 69.0117 14.1523 68.6797 13.0273 68.0156 12.168C 67.3594 11.3008 66.4844 10.8672 65.3906 10.8672C 64.3203 10.8672 63.457 11.293 62.8008 12.1445C 62.1445 12.9961 61.8164 14.2148 61.8164 15.8008ZM 73.3828 15.5547C 73.3828 13.5781 73.8398 12.0078 74.7539 10.8438C 75.668 9.67188 76.8789 9.08594 78.3867 9.08594C 79.9336 9.08594 81.1406 9.63281 82.0078 10.7266L 82.1133 9.32031L 84.0938 9.32031L 84.0938 21.6953C 84.0938 23.3359 83.6055 24.6289 82.6289 25.5742C 81.6602 26.5195 80.3555 26.9922 78.7148 26.9922C 77.8008 26.9922 76.9062 26.7969 76.0312 26.4062C 75.1562 26.0156 74.4883 25.4805 74.0273 24.8008L 75.1523 23.5C 76.082 24.6484 77.2188 25.2227 78.5625 25.2227C 79.6172 25.2227 80.4375 24.9258 81.0234 24.332C 81.6172 23.7383 81.9141 22.9023 81.9141 21.8242L 81.9141 20.7344C 81.0469 21.7344 79.8633 22.2344 78.3633 22.2344C 76.8789 22.2344 75.6758 21.6367 74.7539 20.4414C 73.8398 19.2461 73.3828 17.6172 73.3828 15.5547ZM 75.5625 15.8008C 75.5625 17.2305 75.8555 18.3555 76.4414 19.1758C 77.0273 19.9883 77.8477 20.3945 78.9023 20.3945C 80.2695 20.3945 81.2734 19.7734 81.9141 18.5312L 81.9141 12.7422C 81.25 11.5312 80.2539 10.9258 78.9258 10.9258C 77.8711 10.9258 77.0469 11.3359 76.4531 12.1562C 75.8594 12.9766 75.5625 14.1914 75.5625 15.8008ZM 95.6836 22L 93.5156 22L 93.5156 4L 95.6836 4L 95.6836 22ZM 104.426 22.2344C 102.707 22.2344 101.309 21.6719 100.23 20.5469C 99.1523 19.4141 98.6133 17.9023 98.6133 16.0117L 98.6133 15.6133C 98.6133 14.3555 98.8516 13.2344 99.3281 12.25C 99.8125 11.2578 100.484 10.4844 101.344 9.92969C 102.211 9.36719 103.148 9.08594 104.156 9.08594C 105.805 9.08594 107.086 9.62891 108 10.7148C 108.914 11.8008 109.371 13.3555 109.371 15.3789L 109.371 16.2812L 100.781 16.2812C 100.812 17.5312 101.176 18.543 101.871 19.3164C 102.574 20.082 103.465 20.4648 104.543 20.4648C 105.309 20.4648 105.957 20.3086 106.488 19.9961C 107.02 19.6836 107.484 19.2695 107.883 18.7539L 109.207 19.7852C 108.145 21.418 106.551 22.2344 104.426 22.2344ZM 104.156 10.8672C 103.281 10.8672 102.547 11.1875 101.953 11.8281C 101.359 12.4609 100.992 13.3516 100.852 14.5L 107.203 14.5L 107.203 14.3359C 107.141 13.2344 106.844 12.3828 106.312 11.7812C 105.781 11.1719 105.062 10.8672 104.156 10.8672ZM 113.941 9.32031L 114.012 10.9141C 114.98 9.69531 116.246 9.08594 117.809 9.08594C 120.488 9.08594 121.84 10.5977 121.863 13.6211L 121.863 22L 119.695 22L 119.695 13.6094C 119.688 12.6953 119.477 12.0195 119.062 11.582C 118.656 11.1445 118.02 10.9258 117.152 10.9258C 116.449 10.9258 115.832 11.1133 115.301 11.4883C 114.77 11.8633 114.355 12.3555 114.059 12.9648L 114.059 22L 111.891 22L 111.891 9.32031L 113.941 9.32031ZM 124.617 15.5547C 124.617 13.5781 125.074 12.0078 125.988 10.8438C 126.902 9.67188 128.113 9.08594 129.621 9.08594C 131.168 9.08594 132.375 9.63281 133.242 10.7266L 133.348 9.32031L 135.328 9.32031L 135.328 21.6953C 135.328 23.3359 134.84 24.6289 133.863 25.5742C 132.895 26.5195 131.59 26.9922 129.949 26.9922C 129.035 26.9922 128.141 26.7969 127.266 26.4062C 126.391 26.0156 125.723 25.4805 125.262 24.8008L 126.387 23.5C 127.316 24.6484 128.453 25.2227 129.797 25.2227C 130.852 25.2227 131.672 24.9258 132.258 24.332C 132.852 23.7383 133.148 22.9023 133.148 21.8242L 133.148 20.7344C 132.281 21.7344 131.098 22.2344 129.598 22.2344C 128.113 22.2344 126.91 21.6367 125.988 20.4414C 125.074 19.2461 124.617 17.6172 124.617 15.5547ZM 126.797 15.8008C 126.797 17.2305 127.09 18.3555 127.676 19.1758C 128.262 19.9883 129.082 20.3945 130.137 20.3945C 131.504 20.3945 132.508 19.7734 133.148 18.5312L 133.148 12.7422C 132.484 11.5312 131.488 10.9258 130.16 10.9258C 129.105 10.9258 128.281 11.3359 127.688 12.1562C 127.094 12.9766 126.797 14.1914 126.797 15.8008ZM 141.551 6.25L 141.551 9.32031L 143.918 9.32031L 143.918 10.9961L 141.551 10.9961L 141.551 18.8594C 141.551 19.3672 141.656 19.75 141.867 20.0078C 142.078 20.2578 142.438 20.3828 142.945 20.3828C 143.195 20.3828 143.539 20.3359 143.977 20.2422L 143.977 22C 143.406 22.1562 142.852 22.2344 142.312 22.2344C 141.344 22.2344 140.613 21.9414 140.121 21.3555C 139.629 20.7695 139.383 19.9375 139.383 18.8594L 139.383 10.9961L 137.074 10.9961L 137.074 9.32031L 139.383 9.32031L 139.383 6.25L 141.551 6.25ZM 148.629 10.8555C 149.59 9.67578 150.84 9.08594 152.379 9.08594C 155.059 9.08594 156.41 10.5977 156.434 13.6211L 156.434 22L 154.266 22L 154.266 13.6094C 154.258 12.6953 154.047 12.0195 153.633 11.582C 153.227 11.1445 152.59 10.9258 151.723 10.9258C 151.02 10.9258 150.402 11.1133 149.871 11.4883C 149.34 11.8633 148.926 12.3555 148.629 12.9648L 148.629 22L 146.461 22L 146.461 4L 148.629 4L 148.629 10.8555ZM 165.105 15.5547C 165.105 13.6094 165.566 12.0469 166.488 10.8672C 167.41 9.67969 168.617 9.08594 170.109 9.08594C 171.594 9.08594 172.77 9.59375 173.637 10.6094L 173.637 4L 175.805 4L 175.805 22L 173.812 22L 173.707 20.6406C 172.84 21.7031 171.633 22.2344 170.086 22.2344C 168.617 22.2344 167.418 21.6328 166.488 20.4297C 165.566 19.2266 165.105 17.6562 165.105 15.7188L 165.105 15.5547ZM 167.273 15.8008C 167.273 17.2383 167.57 18.3633 168.164 19.1758C 168.758 19.9883 169.578 20.3945 170.625 20.3945C 172 20.3945 173.004 19.7773 173.637 18.543L 173.637 12.7188C 172.988 11.5234 171.992 10.9258 170.648 10.9258C 169.586 10.9258 168.758 11.3359 168.164 12.1562C 167.57 12.9766 167.273 14.1914 167.273 15.8008ZM 187.008 20.7461C 186.164 21.7383 184.926 22.2344 183.293 22.2344C 181.941 22.2344 180.91 21.8438 180.199 21.0625C 179.496 20.2734 179.141 19.1094 179.133 17.5703L 179.133 9.32031L 181.301 9.32031L 181.301 17.5117C 181.301 19.4336 182.082 20.3945 183.645 20.3945C 185.301 20.3945 186.402 19.7773 186.949 18.543L 186.949 9.32031L 189.117 9.32031L 189.117 22L 187.055 22L 187.008 20.7461ZM 198.551 11.2656C 198.223 11.2109 197.867 11.1836 197.484 11.1836C 196.062 11.1836 195.098 11.7891 194.59 13L 194.59 22L 192.422 22L 192.422 9.32031L 194.531 9.32031L 194.566 10.7852C 195.277 9.65234 196.285 9.08594 197.59 9.08594C 198.012 9.08594 198.332 9.14062 198.551 9.25L 198.551 11.2656ZM 202.91 22L 200.742 22L 200.742 9.32031L 202.91 9.32031L 202.91 22ZM 200.566 5.95703C 200.566 5.60547 200.672 5.30859 200.883 5.06641C 201.102 4.82422 201.422 4.70312 201.844 4.70312C 202.266 4.70312 202.586 4.82422 202.805 5.06641C 203.023 5.30859 203.133 5.60547 203.133 5.95703C 203.133 6.30859 203.023 6.60156 202.805 6.83594C 202.586 7.07031 202.266 7.1875 201.844 7.1875C 201.422 7.1875 201.102 7.07031 200.883 6.83594C 200.672 6.60156 200.566 6.30859 200.566 5.95703ZM 208.441 9.32031L 208.512 10.9141C 209.48 9.69531 210.746 9.08594 212.309 9.08594C 214.988 9.08594 216.34 10.5977 216.363 13.6211L 216.363 22L 214.195 22L 214.195 13.6094C 214.188 12.6953 213.977 12.0195 213.562 11.582C 213.156 11.1445 212.52 10.9258 211.652 10.9258C 210.949 10.9258 210.332 11.1133 209.801 11.4883C 209.27 11.8633 208.855 12.3555 208.559 12.9648L 208.559 22L 206.391 22L 206.391 9.32031L 208.441 9.32031ZM 219.117 15.5547C 219.117 13.5781 219.574 12.0078 220.488 10.8438C 221.402 9.67188 222.613 9.08594 224.121 9.08594C 225.668 9.08594 226.875 9.63281 227.742 10.7266L 227.848 9.32031L 229.828 9.32031L 229.828 21.6953C 229.828 23.3359 229.34 24.6289 228.363 25.5742C 227.395 26.5195 226.09 26.9922 224.449 26.9922C 223.535 26.9922 222.641 26.7969 221.766 26.4062C 220.891 26.0156 220.223 25.4805 219.762 24.8008L 220.887 23.5C 221.816 24.6484 222.953 25.2227 224.297 25.2227C 225.352 25.2227 226.172 24.9258 226.758 24.332C 227.352 23.7383 227.648 22.9023 227.648 21.8242L 227.648 20.7344C 226.781 21.7344 225.598 22.2344 224.098 22.2344C 222.613 22.2344 221.41 21.6367 220.488 20.4414C 219.574 19.2461 219.117 17.6172 219.117 15.5547ZM 221.297 15.8008C 221.297 17.2305 221.59 18.3555 222.176 19.1758C 222.762 19.9883 223.582 20.3945 224.637 20.3945C 226.004 20.3945 227.008 19.7734 227.648 18.5312L 227.648 12.7422C 226.984 11.5312 225.988 10.9258 224.66 10.9258C 223.605 10.9258 222.781 11.3359 222.188 12.1562C 221.594 12.9766 221.297 14.1914 221.297 15.8008ZM 242.004 6.25L 242.004 9.32031L 244.371 9.32031L 244.371 10.9961L 242.004 10.9961L 242.004 18.8594C 242.004 19.3672 242.109 19.75 242.32 20.0078C 242.531 20.2578 242.891 20.3828 243.398 20.3828C 243.648 20.3828 243.992 20.3359 244.43 20.2422L 244.43 22C 243.859 22.1562 243.305 22.2344 242.766 22.2344C 241.797 22.2344 241.066 21.9414 240.574 21.3555C 240.082 20.7695 239.836 19.9375 239.836 18.8594L 239.836 10.9961L 237.527 10.9961L 237.527 9.32031L 239.836 9.32031L 239.836 6.25L 242.004 6.25ZM 249.082 10.8555C 250.043 9.67578 251.293 9.08594 252.832 9.08594C 255.512 9.08594 256.863 10.5977 256.887 13.6211L 256.887 22L 254.719 22L 254.719 13.6094C 254.711 12.6953 254.5 12.0195 254.086 11.582C 253.68 11.1445 253.043 10.9258 252.176 10.9258C 251.473 10.9258 250.855 11.1133 250.324 11.4883C 249.793 11.8633 249.379 12.3555 249.082 12.9648L 249.082 22L 246.914 22L 246.914 4L 249.082 4L 249.082 10.8555ZM 265.395 22.2344C 263.676 22.2344 262.277 21.6719 261.199 20.5469C 260.121 19.4141 259.582 17.9023 259.582 16.0117L 259.582 15.6133C 259.582 14.3555 259.82 13.2344 260.297 12.25C 260.781 11.2578 261.453 10.4844 262.312 9.92969C 263.18 9.36719 264.117 9.08594 265.125 9.08594C 266.773 9.08594 268.055 9.62891 268.969 10.7148C 269.883 11.8008 270.34 13.3555 270.34 15.3789L 270.34 16.2812L 261.75 16.2812C 261.781 17.5312 262.145 18.543 262.84 19.3164C 263.543 20.082 264.434 20.4648 265.512 20.4648C 266.277 20.4648 266.926 20.3086 267.457 19.9961C 267.988 19.6836 268.453 19.2695 268.852 18.7539L 270.176 19.7852C 269.113 21.418 267.52 22.2344 265.395 22.2344ZM 265.125 10.8672C 264.25 10.8672 263.516 11.1875 262.922 11.8281C 262.328 12.4609 261.961 13.3516 261.82 14.5L 268.172 14.5L 268.172 14.3359C 268.109 13.2344 267.812 12.3828 267.281 11.7812C 266.75 11.1719 266.031 10.8672 265.125 10.8672ZM 278.285 15.5547C 278.285 13.6094 278.746 12.0469 279.668 10.8672C 280.59 9.67969 281.797 9.08594 283.289 9.08594C 284.773 9.08594 285.949 9.59375 286.816 10.6094L 286.816 4L 288.984 4L 288.984 22L 286.992 22L 286.887 20.6406C 286.02 21.7031 284.812 22.2344 283.266 22.2344C 281.797 22.2344 280.598 21.6328 279.668 20.4297C 278.746 19.2266 278.285 17.6562 278.285 15.7188L 278.285 15.5547ZM 280.453 15.8008C 280.453 17.2383 280.75 18.3633 281.344 19.1758C 281.938 19.9883 282.758 20.3945 283.805 20.3945C 285.18 20.3945 286.184 19.7773 286.816 18.543L 286.816 12.7188C 286.168 11.5234 285.172 10.9258 283.828 10.9258C 282.766 10.9258 281.938 11.3359 281.344 12.1562C 280.75 12.9766 280.453 14.1914 280.453 15.8008ZM 300.188 22C 300.062 21.75 299.961 21.3047 299.883 20.6641C 298.875 21.7109 297.672 22.2344 296.273 22.2344C 295.023 22.2344 293.996 21.8828 293.191 21.1797C 292.395 20.4688 291.996 19.5703 291.996 18.4844C 291.996 17.1641 292.496 16.1406 293.496 15.4141C 294.504 14.6797 295.918 14.3125 297.738 14.3125L 299.848 14.3125L 299.848 13.3164C 299.848 12.5586 299.621 11.957 299.168 11.5117C 298.715 11.0586 298.047 10.832 297.164 10.832C 296.391 10.832 295.742 11.0273 295.219 11.418C 294.695 11.8086 294.434 12.2812 294.434 12.8359L 292.254 12.8359C 292.254 12.2031 292.477 11.5938 292.922 11.0078C 293.375 10.4141 293.984 9.94531 294.75 9.60156C 295.523 9.25781 296.371 9.08594 297.293 9.08594C 298.754 9.08594 299.898 9.45312 300.727 10.1875C 301.555 10.9141 301.984 11.918 302.016 13.1992L 302.016 19.0352C 302.016 20.1992 302.164 21.125 302.461 21.8125L 302.461 22L 300.188 22ZM 296.59 20.3477C 297.27 20.3477 297.914 20.1719 298.523 19.8203C 299.133 19.4688 299.574 19.0117 299.848 18.4492L 299.848 15.8477L 298.148 15.8477C 295.492 15.8477 294.164 16.625 294.164 18.1797C 294.164 18.8594 294.391 19.3906 294.844 19.7734C 295.297 20.1562 295.879 20.3477 296.59 20.3477ZM 309.375 18.8242L 312.328 9.32031L 314.648 9.32031L 309.551 23.957C 308.762 26.0664 307.508 27.1211 305.789 27.1211L 305.379 27.0859L 304.57 26.9336L 304.57 25.1758L 305.156 25.2227C 305.891 25.2227 306.461 25.0742 306.867 24.7773C 307.281 24.4805 307.621 23.9375 307.887 23.1484L 308.367 21.8594L 303.844 9.32031L 306.211 9.32031L 309.375 18.8242Z"/>
</defs>
</svg>
