<svg width="929" height="610" viewBox="0 0 929 610" version="1.1" xmlns="http://www.w3.org/2000/svg" xmlns:xlink="http://www.w3.org/1999/xlink" xmlns:figma="http://www.figma.com/figma/ns">
<title>visitors_during_day</title>
<desc>Created using Figma</desc>
<g id="Canvas" transform="translate(438 396)" figma:type="canvas">
<g id="Arrow" figma:type="vector">
<use xlink:href="#path0_stroke" transform="translate(-314 123)"/>
</g>
<g id="9" figma:type="text">
<use xlink:href="#path1_fill" transform="translate(-319 138)"/>
</g>
<g id="10" figma:type="text">
<use xlink:href="#path2_fill" transform="translate(-219 138.5)"/>
</g>
<g id="11" figma:type="text">
<use xlink:href="#path3_fill" transform="translate(-119 138.5)"/>
</g>
<g id="12" figma:type="text">
<use xlink:href="#path4_fill" transform="translate(-19 138.5)"/>
</g>
<g id="1" figma:type="text">
<use xlink:href="#path5_fill" transform="translate(81 138.5)"/>
</g>
<g id="2" figma:type="text">
<use xlink:href="#path6_fill" transform="translate(181 138.5)"/>
</g>
<g id="3" figma:type="text">
<use xlink:href="#path7_fill" transform="translate(281 138.5)"/>
</g>
<g id="4" figma:type="text">
<use xlink:href="#path8_fill" transform="translate(381 138.5)"/>
</g>
<g id="5" figma:type="text">
<use xlink:href="#path9_fill" transform="translate(481 139)"/>
</g>
<g id="0" figma:type="text">
<use xlink:href="#path10_fill" transform="translate(-343 90)"/>
</g>
<g id="100" figma:type="text">
<use xlink:href="#path11_fill" transform="translate(-363 -10)" fill="#6FCF97"/>
</g>
<g id="200" figma:type="text">
<use xlink:href="#path12_fill" transform="translate(-363 -110)" fill="#2D9CDB"/>
</g>
<g id="300" figma:type="text">
<use xlink:href="#path13_fill" transform="translate(-363 -210)" fill="#EB5757"/>
</g>
<g id="400" figma:type="text">
<use xlink:href="#path14_fill" transform="translate(-363 -310)" fill="#EB5757"/>
</g>
<g id="Rectangle" figma:type="rounded-rectangle">
<use xlink:href="#path15_fill" transform="translate(-314 1)" fill="#6FCF97"/>
</g>
<g id="Rectangle" figma:type="rounded-rectangle">
<use xlink:href="#path16_fill" transform="translate(-214 -99)" fill="#2D9CDB"/>
</g>
<g id="Rectangle" figma:type="rounded-rectangle">
<use xlink:href="#path17_fill" transform="translate(-114 -199)" fill="#EB5757"/>
</g>
<g id="Rectangle" figma:type="rounded-rectangle">
<use xlink:href="#path16_fill" transform="translate(-14 -99)" fill="#2D9CDB"/>
</g>
<g id="Rectangle" figma:type="rounded-rectangle">
<use xlink:href="#path17_fill" transform="translate(86 -199)" fill="#EB5757"/>
</g>
<g id="Rectangle" figma:type="rounded-rectangle">
<use xlink:href="#path15_fill" transform="translate(187 1)" fill="#6FCF97"/>
</g>
<g id="Rectangle" figma:type="rounded-rectangle">
<use xlink:href="#path18_fill" transform="translate(287 -299)" fill="#EB5757"/>
</g>
<g id="Rectangle" figma:type="rounded-rectangle">
<use xlink:href="#path18_fill" transform="translate(387 -299)" fill="#EB5757"/>
</g>
<g id="Application Count" figma:type="text">
<use xlink:href="#path19_fill" transform="matrix(6.12323e-17 -1 1 6.12323e-17 -442 -67)"/>
</g>
<g id="Hour" figma:type="text">
<use xlink:href="#path20_fill" transform="translate(54 191)"/>
</g>
<g id="Application count during the day" figma:type="text">
<use xlink:href="#path21_fill" transform="translate(-136 -400)"/>
</g>
</g>
<defs>
<path id="path0_stroke" d="M 800.354 0.353553C 800.549 0.158291 800.549 -0.158291 800.354 -0.353553L 797.172 -3.53553C 796.976 -3.7308 796.66 -3.7308 796.464 -3.53553C 796.269 -3.34027 796.269 -3.02369 796.464 -2.82843L 799.293 0L 796.464 2.82843C 796.269 3.02369 796.269 3.34027 796.464 3.53553C 796.66 3.7308 796.976 3.7308 797.172 3.53553L 800.354 0.353553ZM 0 0.5L 800 0.5L 800 -0.5L 0 -0.5L 0 0.5Z"/>
<path id="path1_fill" d="M 7.29492 11.375C 6.95508 11.7793 6.54785 12.1045 6.07324 12.3506C 5.60449 12.5967 5.08887 12.7197 4.52637 12.7197C 3.78809 12.7197 3.14355 12.5381 2.59277 12.1748C 2.04785 11.8115 1.62598 11.3018 1.32715 10.6455C 1.02832 9.9834 0.878906 9.25391 0.878906 8.45703C 0.878906 7.60156 1.04004 6.83105 1.3623 6.14551C 1.69043 5.45996 2.15332 4.93555 2.75098 4.57227C 3.34863 4.20898 4.0459 4.02734 4.84277 4.02734C 6.1084 4.02734 7.10449 4.50195 7.83105 5.45117C 8.56348 6.39453 8.92969 7.68359 8.92969 9.31836L 8.92969 9.79297C 8.92969 12.2832 8.4375 14.1025 7.45312 15.251C 6.46875 16.3936 4.9834 16.9795 2.99707 17.0088L 2.68066 17.0088L 2.68066 15.6377L 3.02344 15.6377C 4.36523 15.6143 5.39648 15.2656 6.11719 14.5918C 6.83789 13.9121 7.23047 12.8398 7.29492 11.375ZM 4.79004 11.375C 5.33496 11.375 5.83594 11.208 6.29297 10.874C 6.75586 10.54 7.09277 10.127 7.30371 9.63477L 7.30371 8.98438C 7.30371 7.91797 7.07227 7.05078 6.60938 6.38281C 6.14648 5.71484 5.56055 5.38086 4.85156 5.38086C 4.13672 5.38086 3.5625 5.65625 3.12891 6.20703C 2.69531 6.75195 2.47852 7.47266 2.47852 8.36914C 2.47852 9.24219 2.68652 9.96289 3.10254 10.5312C 3.52441 11.0938 4.08691 11.375 4.79004 11.375Z"/>
<path id="path2_fill" d="M 6.40723 17L 4.77246 17L 4.77246 6.16309L 1.49414 7.36719L 1.49414 5.89062L 6.15234 4.1416L 6.40723 4.1416L 6.40723 17ZM 19.1953 11.542C 19.1953 13.4463 18.8701 14.8613 18.2197 15.7871C 17.5693 16.7129 16.5527 17.1758 15.1699 17.1758C 13.8047 17.1758 12.7939 16.7246 12.1377 15.8223C 11.4814 14.9141 11.1416 13.5605 11.1182 11.7617L 11.1182 9.59082C 11.1182 7.70996 11.4434 6.3125 12.0938 5.39844C 12.7441 4.48438 13.7637 4.02734 15.1523 4.02734C 16.5293 4.02734 17.543 4.46973 18.1934 5.35449C 18.8438 6.2334 19.1777 7.59277 19.1953 9.43262L 19.1953 11.542ZM 17.5693 9.31836C 17.5693 7.94141 17.376 6.93945 16.9893 6.3125C 16.6025 5.67969 15.9902 5.36328 15.1523 5.36328C 14.3203 5.36328 13.7139 5.67676 13.333 6.30371C 12.9521 6.93066 12.7559 7.89453 12.7441 9.19531L 12.7441 11.7969C 12.7441 13.1797 12.9434 14.2021 13.3418 14.8643C 13.7461 15.5205 14.3555 15.8486 15.1699 15.8486C 15.9727 15.8486 16.5674 15.5381 16.9541 14.917C 17.3467 14.2959 17.5518 13.3174 17.5693 11.9814L 17.5693 9.31836Z"/>
<path id="path3_fill" d="M 6.40723 17L 4.77246 17L 4.77246 6.16309L 1.49414 7.36719L 1.49414 5.89062L 6.15234 4.1416L 6.40723 4.1416L 6.40723 17ZM 16.5146 17L 14.8799 17L 14.8799 6.16309L 11.6016 7.36719L 11.6016 5.89062L 16.2598 4.1416L 16.5146 4.1416L 16.5146 17Z"/>
<path id="path4_fill" d="M 6.40723 17L 4.77246 17L 4.77246 6.16309L 1.49414 7.36719L 1.49414 5.89062L 6.15234 4.1416L 6.40723 4.1416L 6.40723 17ZM 19.5557 17L 11.1709 17L 11.1709 15.8311L 15.6006 10.9092C 16.2568 10.165 16.708 9.56152 16.9541 9.09863C 17.2061 8.62988 17.332 8.14648 17.332 7.64844C 17.332 6.98047 17.1299 6.43262 16.7256 6.00488C 16.3213 5.57715 15.7822 5.36328 15.1084 5.36328C 14.2998 5.36328 13.6699 5.59473 13.2188 6.05762C 12.7734 6.51465 12.5508 7.15332 12.5508 7.97363L 10.9248 7.97363C 10.9248 6.7959 11.3027 5.84375 12.0586 5.11719C 12.8203 4.39063 13.8369 4.02734 15.1084 4.02734C 16.2979 4.02734 17.2383 4.34082 17.9297 4.96777C 18.6211 5.58887 18.9668 6.41797 18.9668 7.45508C 18.9668 8.71484 18.1641 10.2148 16.5586 11.9551L 13.1309 15.6729L 19.5557 15.6729L 19.5557 17Z"/>
<path id="path5_fill" d="M 6.40723 17L 4.77246 17L 4.77246 6.16309L 1.49414 7.36719L 1.49414 5.89062L 6.15234 4.1416L 6.40723 4.1416L 6.40723 17Z"/>
<path id="path6_fill" d="M 9.44824 17L 1.06348 17L 1.06348 15.8311L 5.49316 10.9092C 6.14941 10.165 6.60059 9.56152 6.84668 9.09863C 7.09863 8.62988 7.22461 8.14648 7.22461 7.64844C 7.22461 6.98047 7.02246 6.43262 6.61816 6.00488C 6.21387 5.57715 5.6748 5.36328 5.00098 5.36328C 4.19238 5.36328 3.5625 5.59473 3.11133 6.05762C 2.66602 6.51465 2.44336 7.15332 2.44336 7.97363L 0.817383 7.97363C 0.817383 6.7959 1.19531 5.84375 1.95117 5.11719C 2.71289 4.39063 3.72949 4.02734 5.00098 4.02734C 6.19043 4.02734 7.13086 4.34082 7.82227 4.96777C 8.51367 5.58887 8.85938 6.41797 8.85938 7.45508C 8.85938 8.71484 8.05664 10.2148 6.45117 11.9551L 3.02344 15.6729L 9.44824 15.6729L 9.44824 17Z"/>
<path id="path7_fill" d="M 3.42773 9.81055L 4.64941 9.81055C 5.41699 9.79883 6.02051 9.59668 6.45996 9.2041C 6.89941 8.81152 7.11914 8.28125 7.11914 7.61328C 7.11914 6.11328 6.37207 5.36328 4.87793 5.36328C 4.1748 5.36328 3.6123 5.56543 3.19043 5.96973C 2.77441 6.36816 2.56641 6.89844 2.56641 7.56055L 0.94043 7.56055C 0.94043 6.54687 1.30957 5.70605 2.04785 5.03809C 2.79199 4.36426 3.73535 4.02734 4.87793 4.02734C 6.08496 4.02734 7.03125 4.34668 7.7168 4.98535C 8.40234 5.62402 8.74512 6.51172 8.74512 7.64844C 8.74512 8.20508 8.56348 8.74414 8.2002 9.26562C 7.84277 9.78711 7.35352 10.1768 6.73242 10.4346C 7.43555 10.6572 7.97754 11.0264 8.3584 11.542C 8.74512 12.0576 8.93848 12.6875 8.93848 13.4316C 8.93848 14.5801 8.56348 15.4912 7.81348 16.165C 7.06348 16.8389 6.08789 17.1758 4.88672 17.1758C 3.68555 17.1758 2.70703 16.8506 1.95117 16.2002C 1.20117 15.5498 0.826172 14.6914 0.826172 13.625L 2.46094 13.625C 2.46094 14.2988 2.68066 14.8379 3.12012 15.2422C 3.55957 15.6465 4.14844 15.8486 4.88672 15.8486C 5.67187 15.8486 6.27246 15.6436 6.68848 15.2334C 7.10449 14.8232 7.3125 14.2344 7.3125 13.4668C 7.3125 12.7227 7.08398 12.1514 6.62695 11.7529C 6.16992 11.3545 5.51074 11.1494 4.64941 11.1377L 3.42773 11.1377L 3.42773 9.81055Z"/>
<path id="path8_fill" d="M 7.92773 12.7021L 9.70312 12.7021L 9.70312 14.0293L 7.92773 14.0293L 7.92773 17L 6.29297 17L 6.29297 14.0293L 0.46582 14.0293L 0.46582 13.0713L 6.19629 4.20312L 7.92773 4.20312L 7.92773 12.7021ZM 2.31152 12.7021L 6.29297 12.7021L 6.29297 6.42676L 6.09961 6.77832L 2.31152 12.7021Z"/>
<path id="path9_fill" d="M 1.81055 10.584L 2.46094 4.20312L 9.01758 4.20312L 9.01758 5.70605L 3.84082 5.70605L 3.4541 9.19531C 4.08105 8.82617 4.79297 8.6416 5.58984 8.6416C 6.75586 8.6416 7.68164 9.02832 8.36719 9.80176C 9.05273 10.5693 9.39551 11.6094 9.39551 12.9219C 9.39551 14.2402 9.03809 15.2803 8.32324 16.042C 7.61426 16.7979 6.62109 17.1758 5.34375 17.1758C 4.21289 17.1758 3.29004 16.8623 2.5752 16.2354C 1.86035 15.6084 1.45312 14.7412 1.35352 13.6338L 2.8916 13.6338C 2.99121 14.3662 3.25195 14.9199 3.67383 15.2949C 4.0957 15.6641 4.65234 15.8486 5.34375 15.8486C 6.09961 15.8486 6.69141 15.5908 7.11914 15.0752C 7.55273 14.5596 7.76953 13.8477 7.76953 12.9395C 7.76953 12.084 7.53516 11.3984 7.06641 10.8828C 6.60352 10.3613 5.98535 10.1006 5.21191 10.1006C 4.50293 10.1006 3.94629 10.2559 3.54199 10.5664L 3.11133 10.918L 1.81055 10.584Z"/>
<path id="path10_fill" d="M 9.08789 11.542C 9.08789 13.4463 8.7627 14.8613 8.1123 15.7871C 7.46191 16.7129 6.44531 17.1758 5.0625 17.1758C 3.69727 17.1758 2.68652 16.7246 2.03027 15.8223C 1.37402 14.9141 1.03418 13.5605 1.01074 11.7617L 1.01074 9.59082C 1.01074 7.70996 1.33594 6.3125 1.98633 5.39844C 2.63672 4.48438 3.65625 4.02734 5.04492 4.02734C 6.42188 4.02734 7.43555 4.46973 8.08594 5.35449C 8.73633 6.2334 9.07031 7.59277 9.08789 9.43262L 9.08789 11.542ZM 7.46191 9.31836C 7.46191 7.94141 7.26855 6.93945 6.88184 6.3125C 6.49512 5.67969 5.88281 5.36328 5.04492 5.36328C 4.21289 5.36328 3.60645 5.67676 3.22559 6.30371C 2.84473 6.93066 2.64844 7.89453 2.63672 9.19531L 2.63672 11.7969C 2.63672 13.1797 2.83594 14.2021 3.23438 14.8643C 3.63867 15.5205 4.24805 15.8486 5.0625 15.8486C 5.86523 15.8486 6.45996 15.5381 6.84668 14.917C 7.23926 14.2959 7.44434 13.3174 7.46191 11.9814L 7.46191 9.31836Z"/>
<path id="path11_fill" d="M 6.40723 17L 4.77246 17L 4.77246 6.16309L 1.49414 7.36719L 1.49414 5.89062L 6.15234 4.1416L 6.40723 4.1416L 6.40723 17ZM 19.1953 11.542C 19.1953 13.4463 18.8701 14.8613 18.2197 15.7871C 17.5693 16.7129 16.5527 17.1758 15.1699 17.1758C 13.8047 17.1758 12.7939 16.7246 12.1377 15.8223C 11.4814 14.9141 11.1416 13.5605 11.1182 11.7617L 11.1182 9.59082C 11.1182 7.70996 11.4434 6.3125 12.0938 5.39844C 12.7441 4.48438 13.7637 4.02734 15.1523 4.02734C 16.5293 4.02734 17.543 4.46973 18.1934 5.35449C 18.8438 6.2334 19.1777 7.59277 19.1953 9.43262L 19.1953 11.542ZM 17.5693 9.31836C 17.5693 7.94141 17.376 6.93945 16.9893 6.3125C 16.6025 5.67969 15.9902 5.36328 15.1523 5.36328C 14.3203 5.36328 13.7139 5.67676 13.333 6.30371C 12.9521 6.93066 12.7559 7.89453 12.7441 9.19531L 12.7441 11.7969C 12.7441 13.1797 12.9434 14.2021 13.3418 14.8643C 13.7461 15.5205 14.3555 15.8486 15.1699 15.8486C 15.9727 15.8486 16.5674 15.5381 16.9541 14.917C 17.3467 14.2959 17.5518 13.3174 17.5693 11.9814L 17.5693 9.31836ZM 29.3027 11.542C 29.3027 13.4463 28.9775 14.8613 28.3271 15.7871C 27.6768 16.7129 26.6602 17.1758 25.2773 17.1758C 23.9121 17.1758 22.9014 16.7246 22.2451 15.8223C 21.5889 14.9141 21.249 13.5605 21.2256 11.7617L 21.2256 9.59082C 21.2256 7.70996 21.5508 6.3125 22.2012 5.39844C 22.8516 4.48438 23.8711 4.02734 25.2598 4.02734C 26.6367 4.02734 27.6504 4.46973 28.3008 5.35449C 28.9512 6.2334 29.2852 7.59277 29.3027 9.43262L 29.3027 11.542ZM 27.6768 9.31836C 27.6768 7.94141 27.4834 6.93945 27.0967 6.3125C 26.71 5.67969 26.0977 5.36328 25.2598 5.36328C 24.4277 5.36328 23.8213 5.67676 23.4404 6.30371C 23.0596 6.93066 22.8633 7.89453 22.8516 9.19531L 22.8516 11.7969C 22.8516 13.1797 23.0508 14.2021 23.4492 14.8643C 23.8535 15.5205 24.4629 15.8486 25.2773 15.8486C 26.0801 15.8486 26.6748 15.5381 27.0615 14.917C 27.4541 14.2959 27.6592 13.3174 27.6768 11.9814L 27.6768 9.31836Z"/>
<path id="path12_fill" d="M 9.44824 17L 1.06348 17L 1.06348 15.8311L 5.49316 10.9092C 6.14941 10.165 6.60059 9.56152 6.84668 9.09863C 7.09863 8.62988 7.22461 8.14648 7.22461 7.64844C 7.22461 6.98047 7.02246 6.43262 6.61816 6.00488C 6.21387 5.57715 5.6748 5.36328 5.00098 5.36328C 4.19238 5.36328 3.5625 5.59473 3.11133 6.05762C 2.66602 6.51465 2.44336 7.15332 2.44336 7.97363L 0.817383 7.97363C 0.817383 6.7959 1.19531 5.84375 1.95117 5.11719C 2.71289 4.39063 3.72949 4.02734 5.00098 4.02734C 6.19043 4.02734 7.13086 4.34082 7.82227 4.96777C 8.51367 5.58887 8.85938 6.41797 8.85938 7.45508C 8.85938 8.71484 8.05664 10.2148 6.45117 11.9551L 3.02344 15.6729L 9.44824 15.6729L 9.44824 17ZM 19.1953 11.542C 19.1953 13.4463 18.8701 14.8613 18.2197 15.7871C 17.5693 16.7129 16.5527 17.1758 15.1699 17.1758C 13.8047 17.1758 12.7939 16.7246 12.1377 15.8223C 11.4814 14.9141 11.1416 13.5605 11.1182 11.7617L 11.1182 9.59082C 11.1182 7.70996 11.4434 6.3125 12.0938 5.39844C 12.7441 4.48438 13.7637 4.02734 15.1523 4.02734C 16.5293 4.02734 17.543 4.46973 18.1934 5.35449C 18.8438 6.2334 19.1777 7.59277 19.1953 9.43262L 19.1953 11.542ZM 17.5693 9.31836C 17.5693 7.94141 17.376 6.93945 16.9893 6.3125C 16.6025 5.67969 15.9902 5.36328 15.1523 5.36328C 14.3203 5.36328 13.7139 5.67676 13.333 6.30371C 12.9521 6.93066 12.7559 7.89453 12.7441 9.19531L 12.7441 11.7969C 12.7441 13.1797 12.9434 14.2021 13.3418 14.8643C 13.7461 15.5205 14.3555 15.8486 15.1699 15.8486C 15.9727 15.8486 16.5674 15.5381 16.9541 14.917C 17.3467 14.2959 17.5518 13.3174 17.5693 11.9814L 17.5693 9.31836ZM 29.3027 11.542C 29.3027 13.4463 28.9775 14.8613 28.3271 15.7871C 27.6768 16.7129 26.6602 17.1758 25.2773 17.1758C 23.9121 17.1758 22.9014 16.7246 22.2451 15.8223C 21.5889 14.9141 21.249 13.5605 21.2256 11.7617L 21.2256 9.59082C 21.2256 7.70996 21.5508 6.3125 22.2012 5.39844C 22.8516 4.48438 23.8711 4.02734 25.2598 4.02734C 26.6367 4.02734 27.6504 4.46973 28.3008 5.35449C 28.9512 6.2334 29.2852 7.59277 29.3027 9.43262L 29.3027 11.542ZM 27.6768 9.31836C 27.6768 7.94141 27.4834 6.93945 27.0967 6.3125C 26.71 5.67969 26.0977 5.36328 25.2598 5.36328C 24.4277 5.36328 23.8213 5.67676 23.4404 6.30371C 23.0596 6.93066 22.8633 7.89453 22.8516 9.19531L 22.8516 11.7969C 22.8516 13.1797 23.0508 14.2021 23.4492 14.8643C 23.8535 15.5205 24.4629 15.8486 25.2773 15.8486C 26.0801 15.8486 26.6748 15.5381 27.0615 14.917C 27.4541 14.2959 27.6592 13.3174 27.6768 11.9814L 27.6768 9.31836Z"/>
<path id="path13_fill" d="M 3.42773 9.81055L 4.64941 9.81055C 5.41699 9.79883 6.02051 9.59668 6.45996 9.2041C 6.89941 8.81152 7.11914 8.28125 7.11914 7.61328C 7.11914 6.11328 6.37207 5.36328 4.87793 5.36328C 4.1748 5.36328 3.6123 5.56543 3.19043 5.96973C 2.77441 6.36816 2.56641 6.89844 2.56641 7.56055L 0.94043 7.56055C 0.94043 6.54687 1.30957 5.70605 2.04785 5.03809C 2.79199 4.36426 3.73535 4.02734 4.87793 4.02734C 6.08496 4.02734 7.03125 4.34668 7.7168 4.98535C 8.40234 5.62402 8.74512 6.51172 8.74512 7.64844C 8.74512 8.20508 8.56348 8.74414 8.2002 9.26562C 7.84277 9.78711 7.35352 10.1768 6.73242 10.4346C 7.43555 10.6572 7.97754 11.0264 8.3584 11.542C 8.74512 12.0576 8.93848 12.6875 8.93848 13.4316C 8.93848 14.5801 8.56348 15.4912 7.81348 16.165C 7.06348 16.8389 6.08789 17.1758 4.88672 17.1758C 3.68555 17.1758 2.70703 16.8506 1.95117 16.2002C 1.20117 15.5498 0.826172 14.6914 0.826172 13.625L 2.46094 13.625C 2.46094 14.2988 2.68066 14.8379 3.12012 15.2422C 3.55957 15.6465 4.14844 15.8486 4.88672 15.8486C 5.67187 15.8486 6.27246 15.6436 6.68848 15.2334C 7.10449 14.8232 7.3125 14.2344 7.3125 13.4668C 7.3125 12.7227 7.08398 12.1514 6.62695 11.7529C 6.16992 11.3545 5.51074 11.1494 4.64941 11.1377L 3.42773 11.1377L 3.42773 9.81055ZM 19.1953 11.542C 19.1953 13.4463 18.8701 14.8613 18.2197 15.7871C 17.5693 16.7129 16.5527 17.1758 15.1699 17.1758C 13.8047 17.1758 12.7939 16.7246 12.1377 15.8223C 11.4814 14.9141 11.1416 13.5605 11.1182 11.7617L 11.1182 9.59082C 11.1182 7.70996 11.4434 6.3125 12.0938 5.39844C 12.7441 4.48438 13.7637 4.02734 15.1523 4.02734C 16.5293 4.02734 17.543 4.46973 18.1934 5.35449C 18.8438 6.2334 19.1777 7.59277 19.1953 9.43262L 19.1953 11.542ZM 17.5693 9.31836C 17.5693 7.94141 17.376 6.93945 16.9893 6.3125C 16.6025 5.67969 15.9902 5.36328 15.1523 5.36328C 14.3203 5.36328 13.7139 5.67676 13.333 6.30371C 12.9521 6.93066 12.7559 7.89453 12.7441 9.19531L 12.7441 11.7969C 12.7441 13.1797 12.9434 14.2021 13.3418 14.8643C 13.7461 15.5205 14.3555 15.8486 15.1699 15.8486C 15.9727 15.8486 16.5674 15.5381 16.9541 14.917C 17.3467 14.2959 17.5518 13.3174 17.5693 11.9814L 17.5693 9.31836ZM 29.3027 11.542C 29.3027 13.4463 28.9775 14.8613 28.3271 15.7871C 27.6768 16.7129 26.6602 17.1758 25.2773 17.1758C 23.9121 17.1758 22.9014 16.7246 22.2451 15.8223C 21.5889 14.9141 21.249 13.5605 21.2256 11.7617L 21.2256 9.59082C 21.2256 7.70996 21.5508 6.3125 22.2012 5.39844C 22.8516 4.48438 23.8711 4.02734 25.2598 4.02734C 26.6367 4.02734 27.6504 4.46973 28.3008 5.35449C 28.9512 6.2334 29.2852 7.59277 29.3027 9.43262L 29.3027 11.542ZM 27.6768 9.31836C 27.6768 7.94141 27.4834 6.93945 27.0967 6.3125C 26.71 5.67969 26.0977 5.36328 25.2598 5.36328C 24.4277 5.36328 23.8213 5.67676 23.4404 6.30371C 23.0596 6.93066 22.8633 7.89453 22.8516 9.19531L 22.8516 11.7969C 22.8516 13.1797 23.0508 14.2021 23.4492 14.8643C 23.8535 15.5205 24.4629 15.8486 25.2773 15.8486C 26.0801 15.8486 26.6748 15.5381 27.0615 14.917C 27.4541 14.2959 27.6592 13.3174 27.6768 11.9814L 27.6768 9.31836Z"/>
<path id="path14_fill" d="M 7.92773 12.7021L 9.70312 12.7021L 9.70312 14.0293L 7.92773 14.0293L 7.92773 17L 6.29297 17L 6.29297 14.0293L 0.46582 14.0293L 0.46582 13.0713L 6.19629 4.20312L 7.92773 4.20312L 7.92773 12.7021ZM 2.31152 12.7021L 6.29297 12.7021L 6.29297 6.42676L 6.09961 6.77832L 2.31152 12.7021ZM 19.1953 11.542C 19.1953 13.4463 18.8701 14.8613 18.2197 15.7871C 17.5693 16.7129 16.5527 17.1758 15.1699 17.1758C 13.8047 17.1758 12.7939 16.7246 12.1377 15.8223C 11.4814 14.9141 11.1416 13.5605 11.1182 11.7617L 11.1182 9.59082C 11.1182 7.70996 11.4434 6.3125 12.0938 5.39844C 12.7441 4.48438 13.7637 4.02734 15.1523 4.02734C 16.5293 4.02734 17.543 4.46973 18.1934 5.35449C 18.8438 6.2334 19.1777 7.59277 19.1953 9.43262L 19.1953 11.542ZM 17.5693 9.31836C 17.5693 7.94141 17.376 6.93945 16.9893 6.3125C 16.6025 5.67969 15.9902 5.36328 15.1523 5.36328C 14.3203 5.36328 13.7139 5.67676 13.333 6.30371C 12.9521 6.93066 12.7559 7.89453 12.7441 9.19531L 12.7441 11.7969C 12.7441 13.1797 12.9434 14.2021 13.3418 14.8643C 13.7461 15.5205 14.3555 15.8486 15.1699 15.8486C 15.9727 15.8486 16.5674 15.5381 16.9541 14.917C 17.3467 14.2959 17.5518 13.3174 17.5693 11.9814L 17.5693 9.31836ZM 29.3027 11.542C 29.3027 13.4463 28.9775 14.8613 28.3271 15.7871C 27.6768 16.7129 26.6602 17.1758 25.2773 17.1758C 23.9121 17.1758 22.9014 16.7246 22.2451 15.8223C 21.5889 14.9141 21.249 13.5605 21.2256 11.7617L 21.2256 9.59082C 21.2256 7.70996 21.5508 6.3125 22.2012 5.39844C 22.8516 4.48438 23.8711 4.02734 25.2598 4.02734C 26.6367 4.02734 27.6504 4.46973 28.3008 5.35449C 28.9512 6.2334 29.2852 7.59277 29.3027 9.43262L 29.3027 11.542ZM 27.6768 9.31836C 27.6768 7.94141 27.4834 6.93945 27.0967 6.3125C 26.71 5.67969 26.0977 5.36328 25.2598 5.36328C 24.4277 5.36328 23.8213 5.67676 23.4404 6.30371C 23.0596 6.93066 22.8633 7.89453 22.8516 9.19531L 22.8516 11.7969C 22.8516 13.1797 23.0508 14.2021 23.4492 14.8643C 23.8535 15.5205 24.4629 15.8486 25.2773 15.8486C 26.0801 15.8486 26.6748 15.5381 27.0615 14.917C 27.4541 14.2959 27.6592 13.3174 27.6768 11.9814L 27.6768 9.31836Z"/>
<path id="path15_fill" d="M 0 0L 100 0L 100 116L 0 116L 0 0Z"/>
<path id="path16_fill" d="M 0 0L 100 0L 100 216L 0 216L 0 0Z"/>
<path id="path17_fill" d="M 0 0L 100 0L 100 316L 0 316L 0 0Z"/>
<path id="path18_fill" d="M 0 0L 100 0L 100 416L 0 416L 0 0Z"/>
<path id="path19_fill" d="M 11.4023 17.5469L 4.25391 17.5469L 2.64844 22L 0.328125 22L 6.84375 4.9375L 8.8125 4.9375L 15.3398 22L 13.0312 22L 11.4023 17.5469ZM 4.93359 15.6953L 10.7344 15.6953L 7.82812 7.71484L 4.93359 15.6953ZM 28.0078 15.8008C 28.0078 17.7305 27.5664 19.2852 26.6836 20.4648C 25.8008 21.6445 24.6055 22.2344 23.0977 22.2344C 21.5586 22.2344 20.3477 21.7461 19.4648 20.7695L 19.4648 26.875L 17.2969 26.875L 17.2969 9.32031L 19.2773 9.32031L 19.3828 10.7266C 20.2656 9.63281 21.4922 9.08594 23.0625 9.08594C 24.5859 9.08594 25.7891 9.66016 26.6719 10.8086C 27.5625 11.957 28.0078 13.5547 28.0078 15.6016L 28.0078 15.8008ZM 25.8398 15.5547C 25.8398 14.125 25.5352 12.9961 24.9258 12.168C 24.3164 11.3398 23.4805 10.9258 22.418 10.9258C 21.1055 10.9258 20.1211 11.5078 19.4648 12.6719L 19.4648 18.7305C 20.1133 19.8867 21.1055 20.4648 22.4414 20.4648C 23.4805 20.4648 24.3047 20.0547 24.9141 19.2344C 25.5312 18.4062 25.8398 17.1797 25.8398 15.5547ZM 41.4844 15.8008C 41.4844 17.7305 41.043 19.2852 40.1602 20.4648C 39.2773 21.6445 38.082 22.2344 36.5742 22.2344C 35.0352 22.2344 33.8242 21.7461 32.9414 20.7695L 32.9414 26.875L 30.7734 26.875L 30.7734 9.32031L 32.7539 9.32031L 32.8594 10.7266C 33.7422 9.63281 34.9688 9.08594 36.5391 9.08594C 38.0625 9.08594 39.2656 9.66016 40.1484 10.8086C 41.0391 11.957 41.4844 13.5547 41.4844 15.6016L 41.4844 15.8008ZM 39.3164 15.5547C 39.3164 14.125 39.0117 12.9961 38.4023 12.168C 37.793 11.3398 36.957 10.9258 35.8945 10.9258C 34.582 10.9258 33.5977 11.5078 32.9414 12.6719L 32.9414 18.7305C 33.5898 19.8867 34.582 20.4648 35.918 20.4648C 36.957 20.4648 37.7812 20.0547 38.3906 19.2344C 39.0078 18.4062 39.3164 17.1797 39.3164 15.5547ZM 46.6055 22L 44.4375 22L 44.4375 4L 46.6055 4L 46.6055 22ZM 52.4414 22L 50.2734 22L 50.2734 9.32031L 52.4414 9.32031L 52.4414 22ZM 50.0977 5.95703C 50.0977 5.60547 50.2031 5.30859 50.4141 5.06641C 50.6328 4.82422 50.9531 4.70312 51.375 4.70312C 51.7969 4.70312 52.1172 4.82422 52.3359 5.06641C 52.5547 5.30859 52.6641 5.60547 52.6641 5.95703C 52.6641 6.30859 52.5547 6.60156 52.3359 6.83594C 52.1172 7.07031 51.7969 7.1875 51.375 7.1875C 50.9531 7.1875 50.6328 7.07031 50.4141 6.83594C 50.2031 6.60156 50.0977 6.30859 50.0977 5.95703ZM 61.0078 20.4648C 61.7812 20.4648 62.457 20.2305 63.0352 19.7617C 63.6133 19.293 63.9336 18.707 63.9961 18.0039L 66.0469 18.0039C 66.0078 18.7305 65.7578 19.4219 65.2969 20.0781C 64.8359 20.7344 64.2188 21.2578 63.4453 21.6484C 62.6797 22.0391 61.8672 22.2344 61.0078 22.2344C 59.2812 22.2344 57.9062 21.6602 56.8828 20.5117C 55.8672 19.3555 55.3594 17.7773 55.3594 15.7773L 55.3594 15.4141C 55.3594 14.1797 55.5859 13.082 56.0391 12.1211C 56.4922 11.1602 57.1406 10.4141 57.9844 9.88281C 58.8359 9.35156 59.8398 9.08594 60.9961 9.08594C 62.418 9.08594 63.5977 9.51172 64.5352 10.3633C 65.4805 11.2148 65.9844 12.3203 66.0469 13.6797L 63.9961 13.6797C 63.9336 12.8594 63.6211 12.1875 63.0586 11.6641C 62.5039 11.1328 61.8164 10.8672 60.9961 10.8672C 59.8945 10.8672 59.0391 11.2656 58.4297 12.0625C 57.8281 12.8516 57.5273 13.9961 57.5273 15.4961L 57.5273 15.9062C 57.5273 17.3672 57.8281 18.4922 58.4297 19.2812C 59.0312 20.0703 59.8906 20.4648 61.0078 20.4648ZM 76.3125 22C 76.1875 21.75 76.0859 21.3047 76.0078 20.6641C 75 21.7109 73.7969 22.2344 72.3984 22.2344C 71.1484 22.2344 70.1211 21.8828 69.3164 21.1797C 68.5195 20.4688 68.1211 19.5703 68.1211 18.4844C 68.1211 17.1641 68.6211 16.1406 69.6211 15.4141C 70.6289 14.6797 72.043 14.3125 73.8633 14.3125L 75.9727 14.3125L 75.9727 13.3164C 75.9727 12.5586 75.7461 11.957 75.293 11.5117C 74.8398 11.0586 74.1719 10.832 73.2891 10.832C 72.5156 10.832 71.8672 11.0273 71.3438 11.418C 70.8203 11.8086 70.5586 12.2812 70.5586 12.8359L 68.3789 12.8359C 68.3789 12.2031 68.6016 11.5938 69.0469 11.0078C 69.5 10.4141 70.1094 9.94531 70.875 9.60156C 71.6484 9.25781 72.4961 9.08594 73.418 9.08594C 74.8789 9.08594 76.0234 9.45312 76.8516 10.1875C 77.6797 10.9141 78.1094 11.918 78.1406 13.1992L 78.1406 19.0352C 78.1406 20.1992 78.2891 21.125 78.5859 21.8125L 78.5859 22L 76.3125 22ZM 72.7148 20.3477C 73.3945 20.3477 74.0391 20.1719 74.6484 19.8203C 75.2578 19.4688 75.6992 19.0117 75.9727 18.4492L 75.9727 15.8477L 74.2734 15.8477C 71.6172 15.8477 70.2891 16.625 70.2891 18.1797C 70.2891 18.8594 70.5156 19.3906 70.9688 19.7734C 71.4219 20.1562 72.0039 20.3477 72.7148 20.3477ZM 84.4805 6.25L 84.4805 9.32031L 86.8477 9.32031L 86.8477 10.9961L 84.4805 10.9961L 84.4805 18.8594C 84.4805 19.3672 84.5859 19.75 84.7969 20.0078C 85.0078 20.2578 85.3672 20.3828 85.875 20.3828C 86.125 20.3828 86.4688 20.3359 86.9062 20.2422L 86.9062 22C 86.3359 22.1562 85.7812 22.2344 85.2422 22.2344C 84.2734 22.2344 83.543 21.9414 83.0508 21.3555C 82.5586 20.7695 82.3125 19.9375 82.3125 18.8594L 82.3125 10.9961L 80.0039 10.9961L 80.0039 9.32031L 82.3125 9.32031L 82.3125 6.25L 84.4805 6.25ZM 91.7461 22L 89.5781 22L 89.5781 9.32031L 91.7461 9.32031L 91.7461 22ZM 89.4023 5.95703C 89.4023 5.60547 89.5078 5.30859 89.7188 5.06641C 89.9375 4.82422 90.2578 4.70312 90.6797 4.70312C 91.1016 4.70312 91.4219 4.82422 91.6406 5.06641C 91.8594 5.30859 91.9688 5.60547 91.9688 5.95703C 91.9688 6.30859 91.8594 6.60156 91.6406 6.83594C 91.4219 7.07031 91.1016 7.1875 90.6797 7.1875C 90.2578 7.1875 89.9375 7.07031 89.7188 6.83594C 89.5078 6.60156 89.4023 6.30859 89.4023 5.95703ZM 94.6523 15.543C 94.6523 14.3008 94.8945 13.1836 95.3789 12.1914C 95.8711 11.1992 96.5508 10.4336 97.418 9.89453C 98.293 9.35547 99.2891 9.08594 100.406 9.08594C 102.133 9.08594 103.527 9.68359 104.59 10.8789C 105.66 12.0742 106.195 13.6641 106.195 15.6484L 106.195 15.8008C 106.195 17.0352 105.957 18.1445 105.48 19.1289C 105.012 20.1055 104.336 20.8672 103.453 21.4141C 102.578 21.9609 101.57 22.2344 100.43 22.2344C 98.7109 22.2344 97.3164 21.6367 96.2461 20.4414C 95.1836 19.2461 94.6523 17.6641 94.6523 15.6953L 94.6523 15.543ZM 96.832 15.8008C 96.832 17.207 97.1562 18.3359 97.8047 19.1875C 98.4609 20.0391 99.3359 20.4648 100.43 20.4648C 101.531 20.4648 102.406 20.0352 103.055 19.1758C 103.703 18.3086 104.027 17.0977 104.027 15.543C 104.027 14.1523 103.695 13.0273 103.031 12.168C 102.375 11.3008 101.5 10.8672 100.406 10.8672C 99.3359 10.8672 98.4727 11.293 97.8164 12.1445C 97.1602 12.9961 96.832 14.2148 96.832 15.8008ZM 110.965 9.32031L 111.035 10.9141C 112.004 9.69531 113.27 9.08594 114.832 9.08594C 117.512 9.08594 118.863 10.5977 118.887 13.6211L 118.887 22L 116.719 22L 116.719 13.6094C 116.711 12.6953 116.5 12.0195 116.086 11.582C 115.68 11.1445 115.043 10.9258 114.176 10.9258C 113.473 10.9258 112.855 11.1133 112.324 11.4883C 111.793 11.8633 111.379 12.3555 111.082 12.9648L 111.082 22L 108.914 22L 108.914 9.32031L 110.965 9.32031ZM 14.5312 44.5859C 14.3203 46.3906 13.6523 47.7852 12.5273 48.7695C 11.4102 49.7461 9.92188 50.2344 8.0625 50.2344C 6.04688 50.2344 4.42969 49.5117 3.21094 48.0664C 2 46.6211 1.39453 44.6875 1.39453 42.2656L 1.39453 40.625C 1.39453 39.0391 1.67578 37.6445 2.23828 36.4414C 2.80859 35.2383 3.61328 34.3164 4.65234 33.6758C 5.69141 33.0273 6.89453 32.7031 8.26172 32.7031C 10.0742 32.7031 11.5273 33.2109 12.6211 34.2266C 13.7148 35.2344 14.3516 36.6328 14.5312 38.4219L 12.2695 38.4219C 12.0742 37.0625 11.6484 36.0781 10.9922 35.4688C 10.3438 34.8594 9.43359 34.5547 8.26172 34.5547C 6.82422 34.5547 5.69531 35.0859 4.875 36.1484C 4.0625 37.2109 3.65625 38.7227 3.65625 40.6836L 3.65625 42.3359C 3.65625 44.1875 4.04297 45.6602 4.81641 46.7539C 5.58984 47.8477 6.67188 48.3945 8.0625 48.3945C 9.3125 48.3945 10.2695 48.1133 10.9336 47.5508C 11.6055 46.9805 12.0508 45.9922 12.2695 44.5859L 14.5312 44.5859ZM 16.6992 43.543C 16.6992 42.3008 16.9414 41.1836 17.4258 40.1914C 17.918 39.1992 18.5977 38.4336 19.4648 37.8945C 20.3398 37.3555 21.3359 37.0859 22.4531 37.0859C 24.1797 37.0859 25.5742 37.6836 26.6367 38.8789C 27.707 40.0742 28.2422 41.6641 28.2422 43.6484L 28.2422 43.8008C 28.2422 45.0352 28.0039 46.1445 27.5273 47.1289C 27.0586 48.1055 26.3828 48.8672 25.5 49.4141C 24.625 49.9609 23.6172 50.2344 22.4766 50.2344C 20.7578 50.2344 19.3633 49.6367 18.293 48.4414C 17.2305 47.2461 16.6992 45.6641 16.6992 43.6953L 16.6992 43.543ZM 18.8789 43.8008C 18.8789 45.207 19.2031 46.3359 19.8516 47.1875C 20.5078 48.0391 21.3828 48.4648 22.4766 48.4648C 23.5781 48.4648 24.4531 48.0352 25.1016 47.1758C 25.75 46.3086 26.0742 45.0977 26.0742 43.543C 26.0742 42.1523 25.7422 41.0273 25.0781 40.168C 24.4219 39.3008 23.5469 38.8672 22.4531 38.8672C 21.3828 38.8672 20.5195 39.293 19.8633 40.1445C 19.207 40.9961 18.8789 42.2148 18.8789 43.8008ZM 38.7891 48.7461C 37.9453 49.7383 36.707 50.2344 35.0742 50.2344C 33.7227 50.2344 32.6914 49.8438 31.9805 49.0625C 31.2773 48.2734 30.9219 47.1094 30.9141 45.5703L 30.9141 37.3203L 33.082 37.3203L 33.082 45.5117C 33.082 47.4336 33.8633 48.3945 35.4258 48.3945C 37.082 48.3945 38.1836 47.7773 38.7305 46.543L 38.7305 37.3203L 40.8984 37.3203L 40.8984 50L 38.8359 50L 38.7891 48.7461ZM 46.2539 37.3203L 46.3242 38.9141C 47.293 37.6953 48.5586 37.0859 50.1211 37.0859C 52.8008 37.0859 54.1523 38.5977 54.1758 41.6211L 54.1758 50L 52.0078 50L 52.0078 41.6094C 52 40.6953 51.7891 40.0195 51.375 39.582C 50.9688 39.1445 50.332 38.9258 49.4648 38.9258C 48.7617 38.9258 48.1445 39.1133 47.6133 39.4883C 47.082 39.8633 46.668 40.3555 46.3711 40.9648L 46.3711 50L 44.2031 50L 44.2031 37.3203L 46.2539 37.3203ZM 60.3867 34.25L 60.3867 37.3203L 62.7539 37.3203L 62.7539 38.9961L 60.3867 38.9961L 60.3867 46.8594C 60.3867 47.3672 60.4922 47.75 60.7031 48.0078C 60.9141 48.2578 61.2734 48.3828 61.7812 48.3828C 62.0312 48.3828 62.375 48.3359 62.8125 48.2422L 62.8125 50C 62.2422 50.1562 61.6875 50.2344 61.1484 50.2344C 60.1797 50.2344 59.4492 49.9414 58.957 49.3555C 58.4648 48.7695 58.2188 47.9375 58.2188 46.8594L 58.2188 38.9961L 55.9102 38.9961L 55.9102 37.3203L 58.2188 37.3203L 58.2188 34.25L 60.3867 34.25Z"/>
<path id="path20_fill" d="M 15.0938 22L 12.832 22L 12.832 14.1133L 4.23047 14.1133L 4.23047 22L 1.98047 22L 1.98047 4.9375L 4.23047 4.9375L 4.23047 12.2734L 12.832 12.2734L 12.832 4.9375L 15.0938 4.9375L 15.0938 22ZM 18.1758 15.543C 18.1758 14.3008 18.418 13.1836 18.9023 12.1914C 19.3945 11.1992 20.0742 10.4336 20.9414 9.89453C 21.8164 9.35547 22.8125 9.08594 23.9297 9.08594C 25.6562 9.08594 27.0508 9.68359 28.1133 10.8789C 29.1836 12.0742 29.7188 13.6641 29.7188 15.6484L 29.7188 15.8008C 29.7188 17.0352 29.4805 18.1445 29.0039 19.1289C 28.5352 20.1055 27.8594 20.8672 26.9766 21.4141C 26.1016 21.9609 25.0938 22.2344 23.9531 22.2344C 22.2344 22.2344 20.8398 21.6367 19.7695 20.4414C 18.707 19.2461 18.1758 17.6641 18.1758 15.6953L 18.1758 15.543ZM 20.3555 15.8008C 20.3555 17.207 20.6797 18.3359 21.3281 19.1875C 21.9844 20.0391 22.8594 20.4648 23.9531 20.4648C 25.0547 20.4648 25.9297 20.0352 26.5781 19.1758C 27.2266 18.3086 27.5508 17.0977 27.5508 15.543C 27.5508 14.1523 27.2188 13.0273 26.5547 12.168C 25.8984 11.3008 25.0234 10.8672 23.9297 10.8672C 22.8594 10.8672 21.9961 11.293 21.3398 12.1445C 20.6836 12.9961 20.3555 14.2148 20.3555 15.8008ZM 40.2656 20.7461C 39.4219 21.7383 38.1836 22.2344 36.5508 22.2344C 35.1992 22.2344 34.168 21.8438 33.457 21.0625C 32.7539 20.2734 32.3984 19.1094 32.3906 17.5703L 32.3906 9.32031L 34.5586 9.32031L 34.5586 17.5117C 34.5586 19.4336 35.3398 20.3945 36.9023 20.3945C 38.5586 20.3945 39.6602 19.7773 40.207 18.543L 40.207 9.32031L 42.375 9.32031L 42.375 22L 40.3125 22L 40.2656 20.7461ZM 51.8086 11.2656C 51.4805 11.2109 51.125 11.1836 50.7422 11.1836C 49.3203 11.1836 48.3555 11.7891 47.8477 13L 47.8477 22L 45.6797 22L 45.6797 9.32031L 47.7891 9.32031L 47.8242 10.7852C 48.5352 9.65234 49.543 9.08594 50.8477 9.08594C 51.2695 9.08594 51.5898 9.14062 51.8086 9.25L 51.8086 11.2656Z"/>
<path id="path21_fill" d="M 11.4023 17.5469L 4.25391 17.5469L 2.64844 22L 0.328125 22L 6.84375 4.9375L 8.8125 4.9375L 15.3398 22L 13.0312 22L 11.4023 17.5469ZM 4.93359 15.6953L 10.7344 15.6953L 7.82812 7.71484L 4.93359 15.6953ZM 28.0078 15.8008C 28.0078 17.7305 27.5664 19.2852 26.6836 20.4648C 25.8008 21.6445 24.6055 22.2344 23.0977 22.2344C 21.5586 22.2344 20.3477 21.7461 19.4648 20.7695L 19.4648 26.875L 17.2969 26.875L 17.2969 9.32031L 19.2773 9.32031L 19.3828 10.7266C 20.2656 9.63281 21.4922 9.08594 23.0625 9.08594C 24.5859 9.08594 25.7891 9.66016 26.6719 10.8086C 27.5625 11.957 28.0078 13.5547 28.0078 15.6016L 28.0078 15.8008ZM 25.8398 15.5547C 25.8398 14.125 25.5352 12.9961 24.9258 12.168C 24.3164 11.3398 23.4805 10.9258 22.418 10.9258C 21.1055 10.9258 20.1211 11.5078 19.4648 12.6719L 19.4648 18.7305C 20.1133 19.8867 21.1055 20.4648 22.4414 20.4648C 23.4805 20.4648 24.3047 20.0547 24.9141 19.2344C 25.5312 18.4062 25.8398 17.1797 25.8398 15.5547ZM 41.4844 15.8008C 41.4844 17.7305 41.043 19.2852 40.1602 20.4648C 39.2773 21.6445 38.082 22.2344 36.5742 22.2344C 35.0352 22.2344 33.8242 21.7461 32.9414 20.7695L 32.9414 26.875L 30.7734 26.875L 30.7734 9.32031L 32.7539 9.32031L 32.8594 10.7266C 33.7422 9.63281 34.9688 9.08594 36.5391 9.08594C 38.0625 9.08594 39.2656 9.66016 40.1484 10.8086C 41.0391 11.957 41.4844 13.5547 41.4844 15.6016L 41.4844 15.8008ZM 39.3164 15.5547C 39.3164 14.125 39.0117 12.9961 38.4023 12.168C 37.793 11.3398 36.957 10.9258 35.8945 10.9258C 34.582 10.9258 33.5977 11.5078 32.9414 12.6719L 32.9414 18.7305C 33.5898 19.8867 34.582 20.4648 35.918 20.4648C 36.957 20.4648 37.7812 20.0547 38.3906 19.2344C 39.0078 18.4062 39.3164 17.1797 39.3164 15.5547ZM 46.6055 22L 44.4375 22L 44.4375 4L 46.6055 4L 46.6055 22ZM 52.4414 22L 50.2734 22L 50.2734 9.32031L 52.4414 9.32031L 52.4414 22ZM 50.0977 5.95703C 50.0977 5.60547 50.2031 5.30859 50.4141 5.06641C 50.6328 4.82422 50.9531 4.70312 51.375 4.70312C 51.7969 4.70312 52.1172 4.82422 52.3359 5.06641C 52.5547 5.30859 52.6641 5.60547 52.6641 5.95703C 52.6641 6.30859 52.5547 6.60156 52.3359 6.83594C 52.1172 7.07031 51.7969 7.1875 51.375 7.1875C 50.9531 7.1875 50.6328 7.07031 50.4141 6.83594C 50.2031 6.60156 50.0977 6.30859 50.0977 5.95703ZM 61.0078 20.4648C 61.7812 20.4648 62.457 20.2305 63.0352 19.7617C 63.6133 19.293 63.9336 18.707 63.9961 18.0039L 66.0469 18.0039C 66.0078 18.7305 65.7578 19.4219 65.2969 20.0781C 64.8359 20.7344 64.2188 21.2578 63.4453 21.6484C 62.6797 22.0391 61.8672 22.2344 61.0078 22.2344C 59.2812 22.2344 57.9062 21.6602 56.8828 20.5117C 55.8672 19.3555 55.3594 17.7773 55.3594 15.7773L 55.3594 15.4141C 55.3594 14.1797 55.5859 13.082 56.0391 12.1211C 56.4922 11.1602 57.1406 10.4141 57.9844 9.88281C 58.8359 9.35156 59.8398 9.08594 60.9961 9.08594C 62.418 9.08594 63.5977 9.51172 64.5352 10.3633C 65.4805 11.2148 65.9844 12.3203 66.0469 13.6797L 63.9961 13.6797C 63.9336 12.8594 63.6211 12.1875 63.0586 11.6641C 62.5039 11.1328 61.8164 10.8672 60.9961 10.8672C 59.8945 10.8672 59.0391 11.2656 58.4297 12.0625C 57.8281 12.8516 57.5273 13.9961 57.5273 15.4961L 57.5273 15.9062C 57.5273 17.3672 57.8281 18.4922 58.4297 19.2812C 59.0312 20.0703 59.8906 20.4648 61.0078 20.4648ZM 76.3125 22C 76.1875 21.75 76.0859 21.3047 76.0078 20.6641C 75 21.7109 73.7969 22.2344 72.3984 22.2344C 71.1484 22.2344 70.1211 21.8828 69.3164 21.1797C 68.5195 20.4688 68.1211 19.5703 68.1211 18.4844C 68.1211 17.1641 68.6211 16.1406 69.6211 15.4141C 70.6289 14.6797 72.043 14.3125 73.8633 14.3125L 75.9727 14.3125L 75.9727 13.3164C 75.9727 12.5586 75.7461 11.957 75.293 11.5117C 74.8398 11.0586 74.1719 10.832 73.2891 10.832C 72.5156 10.832 71.8672 11.0273 71.3438 11.418C 70.8203 11.8086 70.5586 12.2812 70.5586 12.8359L 68.3789 12.8359C 68.3789 12.2031 68.6016 11.5938 69.0469 11.0078C 69.5 10.4141 70.1094 9.94531 70.875 9.60156C 71.6484 9.25781 72.4961 9.08594 73.418 9.08594C 74.8789 9.08594 76.0234 9.45312 76.8516 10.1875C 77.6797 10.9141 78.1094 11.918 78.1406 13.1992L 78.1406 19.0352C 78.1406 20.1992 78.2891 21.125 78.5859 21.8125L 78.5859 22L 76.3125 22ZM 72.7148 20.3477C 73.3945 20.3477 74.0391 20.1719 74.6484 19.8203C 75.2578 19.4688 75.6992 19.0117 75.9727 18.4492L 75.9727 15.8477L 74.2734 15.8477C 71.6172 15.8477 70.2891 16.625 70.2891 18.1797C 70.2891 18.8594 70.5156 19.3906 70.9688 19.7734C 71.4219 20.1562 72.0039 20.3477 72.7148 20.3477ZM 84.4805 6.25L 84.4805 9.32031L 86.8477 9.32031L 86.8477 10.9961L 84.4805 10.9961L 84.4805 18.8594C 84.4805 19.3672 84.5859 19.75 84.7969 20.0078C 85.0078 20.2578 85.3672 20.3828 85.875 20.3828C 86.125 20.3828 86.4688 20.3359 86.9062 20.2422L 86.9062 22C 86.3359 22.1562 85.7812 22.2344 85.2422 22.2344C 84.2734 22.2344 83.543 21.9414 83.0508 21.3555C 82.5586 20.7695 82.3125 19.9375 82.3125 18.8594L 82.3125 10.9961L 80.0039 10.9961L 80.0039 9.32031L 82.3125 9.32031L 82.3125 6.25L 84.4805 6.25ZM 91.7461 22L 89.5781 22L 89.5781 9.32031L 91.7461 9.32031L 91.7461 22ZM 89.4023 5.95703C 89.4023 5.60547 89.5078 5.30859 89.7188 5.06641C 89.9375 4.82422 90.2578 4.70312 90.6797 4.70312C 91.1016 4.70312 91.4219 4.82422 91.6406 5.06641C 91.8594 5.30859 91.9688 5.60547 91.9688 5.95703C 91.9688 6.30859 91.8594 6.60156 91.6406 6.83594C 91.4219 7.07031 91.1016 7.1875 90.6797 7.1875C 90.2578 7.1875 89.9375 7.07031 89.7188 6.83594C 89.5078 6.60156 89.4023 6.30859 89.4023 5.95703ZM 94.6523 15.543C 94.6523 14.3008 94.8945 13.1836 95.3789 12.1914C 95.8711 11.1992 96.5508 10.4336 97.418 9.89453C 98.293 9.35547 99.2891 9.08594 100.406 9.08594C 102.133 9.08594 103.527 9.68359 104.59 10.8789C 105.66 12.0742 106.195 13.6641 106.195 15.6484L 106.195 15.8008C 106.195 17.0352 105.957 18.1445 105.48 19.1289C 105.012 20.1055 104.336 20.8672 103.453 21.4141C 102.578 21.9609 101.57 22.2344 100.43 22.2344C 98.7109 22.2344 97.3164 21.6367 96.2461 20.4414C 95.1836 19.2461 94.6523 17.6641 94.6523 15.6953L 94.6523 15.543ZM 96.832 15.8008C 96.832 17.207 97.1562 18.3359 97.8047 19.1875C 98.4609 20.0391 99.3359 20.4648 100.43 20.4648C 101.531 20.4648 102.406 20.0352 103.055 19.1758C 103.703 18.3086 104.027 17.0977 104.027 15.543C 104.027 14.1523 103.695 13.0273 103.031 12.168C 102.375 11.3008 101.5 10.8672 100.406 10.8672C 99.3359 10.8672 98.4727 11.293 97.8164 12.1445C 97.1602 12.9961 96.832 14.2148 96.832 15.8008ZM 110.965 9.32031L 111.035 10.9141C 112.004 9.69531 113.27 9.08594 114.832 9.08594C 117.512 9.08594 118.863 10.5977 118.887 13.6211L 118.887 22L 116.719 22L 116.719 13.6094C 116.711 12.6953 116.5 12.0195 116.086 11.582C 115.68 11.1445 115.043 10.9258 114.176 10.9258C 113.473 10.9258 112.855 11.1133 112.324 11.4883C 111.793 11.8633 111.379 12.3555 111.082 12.9648L 111.082 22L 108.914 22L 108.914 9.32031L 110.965 9.32031ZM 133.195 20.4648C 133.969 20.4648 134.645 20.2305 135.223 19.7617C 135.801 19.293 136.121 18.707 136.184 18.0039L 138.234 18.0039C 138.195 18.7305 137.945 19.4219 137.484 20.0781C 137.023 20.7344 136.406 21.2578 135.633 21.6484C 134.867 22.0391 134.055 22.2344 133.195 22.2344C 131.469 22.2344 130.094 21.6602 129.07 20.5117C 128.055 19.3555 127.547 17.7773 127.547 15.7773L 127.547 15.4141C 127.547 14.1797 127.773 13.082 128.227 12.1211C 128.68 11.1602 129.328 10.4141 130.172 9.88281C 131.023 9.35156 132.027 9.08594 133.184 9.08594C 134.605 9.08594 135.785 9.51172 136.723 10.3633C 137.668 11.2148 138.172 12.3203 138.234 13.6797L 136.184 13.6797C 136.121 12.8594 135.809 12.1875 135.246 11.6641C 134.691 11.1328 134.004 10.8672 133.184 10.8672C 132.082 10.8672 131.227 11.2656 130.617 12.0625C 130.016 12.8516 129.715 13.9961 129.715 15.4961L 129.715 15.9062C 129.715 17.3672 130.016 18.4922 130.617 19.2812C 131.219 20.0703 132.078 20.4648 133.195 20.4648ZM 140.098 15.543C 140.098 14.3008 140.34 13.1836 140.824 12.1914C 141.316 11.1992 141.996 10.4336 142.863 9.89453C 143.738 9.35547 144.734 9.08594 145.852 9.08594C 147.578 9.08594 148.973 9.68359 150.035 10.8789C 151.105 12.0742 151.641 13.6641 151.641 15.6484L 151.641 15.8008C 151.641 17.0352 151.402 18.1445 150.926 19.1289C 150.457 20.1055 149.781 20.8672 148.898 21.4141C 148.023 21.9609 147.016 22.2344 145.875 22.2344C 144.156 22.2344 142.762 21.6367 141.691 20.4414C 140.629 19.2461 140.098 17.6641 140.098 15.6953L 140.098 15.543ZM 142.277 15.8008C 142.277 17.207 142.602 18.3359 143.25 19.1875C 143.906 20.0391 144.781 20.4648 145.875 20.4648C 146.977 20.4648 147.852 20.0352 148.5 19.1758C 149.148 18.3086 149.473 17.0977 149.473 15.543C 149.473 14.1523 149.141 13.0273 148.477 12.168C 147.82 11.3008 146.945 10.8672 145.852 10.8672C 144.781 10.8672 143.918 11.293 143.262 12.1445C 142.605 12.9961 142.277 14.2148 142.277 15.8008ZM 162.188 20.7461C 161.344 21.7383 160.105 22.2344 158.473 22.2344C 157.121 22.2344 156.09 21.8438 155.379 21.0625C 154.676 20.2734 154.32 19.1094 154.312 17.5703L 154.312 9.32031L 156.48 9.32031L 156.48 17.5117C 156.48 19.4336 157.262 20.3945 158.824 20.3945C 160.48 20.3945 161.582 19.7773 162.129 18.543L 162.129 9.32031L 164.297 9.32031L 164.297 22L 162.234 22L 162.188 20.7461ZM 169.652 9.32031L 169.723 10.9141C 170.691 9.69531 171.957 9.08594 173.52 9.08594C 176.199 9.08594 177.551 10.5977 177.574 13.6211L 177.574 22L 175.406 22L 175.406 13.6094C 175.398 12.6953 175.188 12.0195 174.773 11.582C 174.367 11.1445 173.73 10.9258 172.863 10.9258C 172.16 10.9258 171.543 11.1133 171.012 11.4883C 170.48 11.8633 170.066 12.3555 169.77 12.9648L 169.77 22L 167.602 22L 167.602 9.32031L 169.652 9.32031ZM 183.785 6.25L 183.785 9.32031L 186.152 9.32031L 186.152 10.9961L 183.785 10.9961L 183.785 18.8594C 183.785 19.3672 183.891 19.75 184.102 20.0078C 184.312 20.2578 184.672 20.3828 185.18 20.3828C 185.43 20.3828 185.773 20.3359 186.211 20.2422L 186.211 22C 185.641 22.1562 185.086 22.2344 184.547 22.2344C 183.578 22.2344 182.848 21.9414 182.355 21.3555C 181.863 20.7695 181.617 19.9375 181.617 18.8594L 181.617 10.9961L 179.309 10.9961L 179.309 9.32031L 181.617 9.32031L 181.617 6.25L 183.785 6.25ZM 194.121 15.5547C 194.121 13.6094 194.582 12.0469 195.504 10.8672C 196.426 9.67969 197.633 9.08594 199.125 9.08594C 200.609 9.08594 201.785 9.59375 202.652 10.6094L 202.652 4L 204.82 4L 204.82 22L 202.828 22L 202.723 20.6406C 201.855 21.7031 200.648 22.2344 199.102 22.2344C 197.633 22.2344 196.434 21.6328 195.504 20.4297C 194.582 19.2266 194.121 17.6562 194.121 15.7188L 194.121 15.5547ZM 196.289 15.8008C 196.289 17.2383 196.586 18.3633 197.18 19.1758C 197.773 19.9883 198.594 20.3945 199.641 20.3945C 201.016 20.3945 202.02 19.7773 202.652 18.543L 202.652 12.7188C 202.004 11.5234 201.008 10.9258 199.664 10.9258C 198.602 10.9258 197.773 11.3359 197.18 12.1562C 196.586 12.9766 196.289 14.1914 196.289 15.8008ZM 216.023 20.7461C 215.18 21.7383 213.941 22.2344 212.309 22.2344C 210.957 22.2344 209.926 21.8438 209.215 21.0625C 208.512 20.2734 208.156 19.1094 208.148 17.5703L 208.148 9.32031L 210.316 9.32031L 210.316 17.5117C 210.316 19.4336 211.098 20.3945 212.66 20.3945C 214.316 20.3945 215.418 19.7773 215.965 18.543L 215.965 9.32031L 218.133 9.32031L 218.133 22L 216.07 22L 216.023 20.7461ZM 227.566 11.2656C 227.238 11.2109 226.883 11.1836 226.5 11.1836C 225.078 11.1836 224.113 11.7891 223.605 13L 223.605 22L 221.438 22L 221.438 9.32031L 223.547 9.32031L 223.582 10.7852C 224.293 9.65234 225.301 9.08594 226.605 9.08594C 227.027 9.08594 227.348 9.14062 227.566 9.25L 227.566 11.2656ZM 231.926 22L 229.758 22L 229.758 9.32031L 231.926 9.32031L 231.926 22ZM 229.582 5.95703C 229.582 5.60547 229.688 5.30859 229.898 5.06641C 230.117 4.82422 230.438 4.70312 230.859 4.70312C 231.281 4.70312 231.602 4.82422 231.82 5.06641C 232.039 5.30859 232.148 5.60547 232.148 5.95703C 232.148 6.30859 232.039 6.60156 231.82 6.83594C 231.602 7.07031 231.281 7.1875 230.859 7.1875C 230.438 7.1875 230.117 7.07031 229.898 6.83594C 229.688 6.60156 229.582 6.30859 229.582 5.95703ZM 237.457 9.32031L 237.527 10.9141C 238.496 9.69531 239.762 9.08594 241.324 9.08594C 244.004 9.08594 245.355 10.5977 245.379 13.6211L 245.379 22L 243.211 22L 243.211 13.6094C 243.203 12.6953 242.992 12.0195 242.578 11.582C 242.172 11.1445 241.535 10.9258 240.668 10.9258C 239.965 10.9258 239.348 11.1133 238.816 11.4883C 238.285 11.8633 237.871 12.3555 237.574 12.9648L 237.574 22L 235.406 22L 235.406 9.32031L 237.457 9.32031ZM 248.133 15.5547C 248.133 13.5781 248.59 12.0078 249.504 10.8438C 250.418 9.67188 251.629 9.08594 253.137 9.08594C 254.684 9.08594 255.891 9.63281 256.758 10.7266L 256.863 9.32031L 258.844 9.32031L 258.844 21.6953C 258.844 23.3359 258.355 24.6289 257.379 25.5742C 256.41 26.5195 255.105 26.9922 253.465 26.9922C 252.551 26.9922 251.656 26.7969 250.781 26.4062C 249.906 26.0156 249.238 25.4805 248.777 24.8008L 249.902 23.5C 250.832 24.6484 251.969 25.2227 253.312 25.2227C 254.367 25.2227 255.188 24.9258 255.773 24.332C 256.367 23.7383 256.664 22.9023 256.664 21.8242L 256.664 20.7344C 255.797 21.7344 254.613 22.2344 253.113 22.2344C 251.629 22.2344 250.426 21.6367 249.504 20.4414C 248.59 19.2461 248.133 17.6172 248.133 15.5547ZM 250.312 15.8008C 250.312 17.2305 250.605 18.3555 251.191 19.1758C 251.777 19.9883 252.598 20.3945 253.652 20.3945C 255.02 20.3945 256.023 19.7734 256.664 18.5312L 256.664 12.7422C 256 11.5312 255.004 10.9258 253.676 10.9258C 252.621 10.9258 251.797 11.3359 251.203 12.1562C 250.609 12.9766 250.312 14.1914 250.312 15.8008ZM 271.02 6.25L 271.02 9.32031L 273.387 9.32031L 273.387 10.9961L 271.02 10.9961L 271.02 18.8594C 271.02 19.3672 271.125 19.75 271.336 20.0078C 271.547 20.2578 271.906 20.3828 272.414 20.3828C 272.664 20.3828 273.008 20.3359 273.445 20.2422L 273.445 22C 272.875 22.1562 272.32 22.2344 271.781 22.2344C 270.812 22.2344 270.082 21.9414 269.59 21.3555C 269.098 20.7695 268.852 19.9375 268.852 18.8594L 268.852 10.9961L 266.543 10.9961L 266.543 9.32031L 268.852 9.32031L 268.852 6.25L 271.02 6.25ZM 278.098 10.8555C 279.059 9.67578 280.309 9.08594 281.848 9.08594C 284.527 9.08594 285.879 10.5977 285.902 13.6211L 285.902 22L 283.734 22L 283.734 13.6094C 283.727 12.6953 283.516 12.0195 283.102 11.582C 282.695 11.1445 282.059 10.9258 281.191 10.9258C 280.488 10.9258 279.871 11.1133 279.34 11.4883C 278.809 11.8633 278.395 12.3555 278.098 12.9648L 278.098 22L 275.93 22L 275.93 4L 278.098 4L 278.098 10.8555ZM 294.41 22.2344C 292.691 22.2344 291.293 21.6719 290.215 20.5469C 289.137 19.4141 288.598 17.9023 288.598 16.0117L 288.598 15.6133C 288.598 14.3555 288.836 13.2344 289.312 12.25C 289.797 11.2578 290.469 10.4844 291.328 9.92969C 292.195 9.36719 293.133 9.08594 294.141 9.08594C 295.789 9.08594 297.07 9.62891 297.984 10.7148C 298.898 11.8008 299.355 13.3555 299.355 15.3789L 299.355 16.2812L 290.766 16.2812C 290.797 17.5312 291.16 18.543 291.855 19.3164C 292.559 20.082 293.449 20.4648 294.527 20.4648C 295.293 20.4648 295.941 20.3086 296.473 19.9961C 297.004 19.6836 297.469 19.2695 297.867 18.7539L 299.191 19.7852C 298.129 21.418 296.535 22.2344 294.41 22.2344ZM 294.141 10.8672C 293.266 10.8672 292.531 11.1875 291.938 11.8281C 291.344 12.4609 290.977 13.3516 290.836 14.5L 297.188 14.5L 297.188 14.3359C 297.125 13.2344 296.828 12.3828 296.297 11.7812C 295.766 11.1719 295.047 10.8672 294.141 10.8672ZM 307.301 15.5547C 307.301 13.6094 307.762 12.0469 308.684 10.8672C 309.605 9.67969 310.812 9.08594 312.305 9.08594C 313.789 9.08594 314.965 9.59375 315.832 10.6094L 315.832 4L 318 4L 318 22L 316.008 22L 315.902 20.6406C 315.035 21.7031 313.828 22.2344 312.281 22.2344C 310.812 22.2344 309.613 21.6328 308.684 20.4297C 307.762 19.2266 307.301 17.6562 307.301 15.7188L 307.301 15.5547ZM 309.469 15.8008C 309.469 17.2383 309.766 18.3633 310.359 19.1758C 310.953 19.9883 311.773 20.3945 312.82 20.3945C 314.195 20.3945 315.199 19.7773 315.832 18.543L 315.832 12.7188C 315.184 11.5234 314.188 10.9258 312.844 10.9258C 311.781 10.9258 310.953 11.3359 310.359 12.1562C 309.766 12.9766 309.469 14.1914 309.469 15.8008ZM 329.203 22C 329.078 21.75 328.977 21.3047 328.898 20.6641C 327.891 21.7109 326.688 22.2344 325.289 22.2344C 324.039 22.2344 323.012 21.8828 322.207 21.1797C 321.41 20.4688 321.012 19.5703 321.012 18.4844C 321.012 17.1641 321.512 16.1406 322.512 15.4141C 323.52 14.6797 324.934 14.3125 326.754 14.3125L 328.863 14.3125L 328.863 13.3164C 328.863 12.5586 328.637 11.957 328.184 11.5117C 327.73 11.0586 327.062 10.832 326.18 10.832C 325.406 10.832 324.758 11.0273 324.234 11.418C 323.711 11.8086 323.449 12.2812 323.449 12.8359L 321.27 12.8359C 321.27 12.2031 321.492 11.5938 321.938 11.0078C 322.391 10.4141 323 9.94531 323.766 9.60156C 324.539 9.25781 325.387 9.08594 326.309 9.08594C 327.77 9.08594 328.914 9.45312 329.742 10.1875C 330.57 10.9141 331 11.918 331.031 13.1992L 331.031 19.0352C 331.031 20.1992 331.18 21.125 331.477 21.8125L 331.477 22L 329.203 22ZM 325.605 20.3477C 326.285 20.3477 326.93 20.1719 327.539 19.8203C 328.148 19.4688 328.59 19.0117 328.863 18.4492L 328.863 15.8477L 327.164 15.8477C 324.508 15.8477 323.18 16.625 323.18 18.1797C 323.18 18.8594 323.406 19.3906 323.859 19.7734C 324.312 20.1562 324.895 20.3477 325.605 20.3477ZM 338.391 18.8242L 341.344 9.32031L 343.664 9.32031L 338.566 23.957C 337.777 26.0664 336.523 27.1211 334.805 27.1211L 334.395 27.0859L 333.586 26.9336L 333.586 25.1758L 334.172 25.2227C 334.906 25.2227 335.477 25.0742 335.883 24.7773C 336.297 24.4805 336.637 23.9375 336.902 23.1484L 337.383 21.8594L 332.859 9.32031L 335.227 9.32031L 338.391 18.8242Z"/>
</defs>
</svg>
