<svg width="784" height="449" viewBox="0 0 784 449" version="1.1" xmlns="http://www.w3.org/2000/svg" xmlns:xlink="http://www.w3.org/1999/xlink" xmlns:figma="http://www.figma.com/figma/ns">
<title>list_removal</title>
<desc>Created using Figma</desc>
<g id="Canvas" transform="translate(723 232)" figma:type="canvas">
<g id="numbers = [1 , 2 , 3 , 4 , 5]" figma:type="text">
<use xlink:href="#path0_fill" transform="translate(-380 -235)"/>
</g>
<g id="numbers.pop(2)" figma:type="text">
<use xlink:href="#path1_fill" transform="translate(-380 -154)"/>
</g>
<g id="Old Array" figma:type="text">
<use xlink:href="#path2_fill" transform="translate(-707 -15)"/>
</g>
<g id="New Array" figma:type="text">
<use xlink:href="#path3_fill" transform="translate(-725 174)"/>
</g>
<g id="1" figma:type="text">
<use xlink:href="#path4_fill" transform="translate(-457 -15)"/>
</g>
<g id="1" figma:type="text">
<use xlink:href="#path4_fill" transform="translate(-457 174)"/>
</g>
<g id="2" figma:type="text">
<use xlink:href="#path5_fill" transform="translate(-356 -15)"/>
</g>
<g id="4" figma:type="text">
<use xlink:href="#path6_fill" transform="translate(-255 174)"/>
</g>
<g id="3" figma:type="text">
<use xlink:href="#path7_fill" transform="translate(-257 -15)" fill="#EB5757"/>
</g>
<g id="5" figma:type="text">
<use xlink:href="#path8_fill" transform="translate(-154 174)"/>
</g>
<g id="4" figma:type="text">
<use xlink:href="#path6_fill" transform="translate(-156 -15)"/>
</g>
<g id="5" figma:type="text">
<use xlink:href="#path9_fill" transform="translate(-55 -15)"/>
</g>
<g id="Line" figma:type="line">
<use xlink:href="#path10_stroke" transform="translate(-463 36)"/>
</g>
<g id="Line" figma:type="line">
<use xlink:href="#path10_stroke" transform="translate(-362 36)"/>
</g>
<g id="Line" figma:type="line">
<use xlink:href="#path10_stroke" transform="translate(-261 36)"/>
</g>
<g id="Line" figma:type="line">
<use xlink:href="#path10_stroke" transform="translate(-160 36)"/>
</g>
<g id="Line" figma:type="line">
<use xlink:href="#path10_stroke" transform="translate(-59 36)"/>
</g>
<g id="Line" figma:type="line">
<use xlink:href="#path10_stroke" transform="translate(-463 217)"/>
</g>
<g id="Line" figma:type="line">
<use xlink:href="#path10_stroke" transform="translate(-362 217)"/>
</g>
<g id="Line" figma:type="line">
<use xlink:href="#path10_stroke" transform="translate(-261 217)"/>
</g>
<g id="Line" figma:type="line">
<use xlink:href="#path10_stroke" transform="translate(-160 217)"/>
</g>
<g id="Arrow" figma:type="vector">
<use xlink:href="#path11_stroke" transform="matrix(6.12323e-17 1 -1 6.12323e-17 -447 61)"/>
</g>
<g id="Arrow" figma:type="vector">
<use xlink:href="#path11_stroke" transform="matrix(6.12323e-17 1 -1 6.12323e-17 -346 61)"/>
</g>
<g id="Line 4" figma:type="line">
<use xlink:href="#path12_stroke" transform="translate(60 61)"/>
</g>
<g id="2" figma:type="text">
<use xlink:href="#path13_fill" transform="translate(-356 174)"/>
</g>
<g id="Arrow 2" figma:type="vector">
<use xlink:href="#path14_stroke" transform="matrix(-0.639477 0.76881 -0.76881 -0.639477 -149 56)"/>
</g>
<g id="Arrow 2" figma:type="vector">
<use xlink:href="#path14_stroke" transform="matrix(-0.639477 0.76881 -0.76881 -0.639477 -46 61)"/>
</g>
</g>
<defs>
<path id="path0_fill" d="M 5.53711 13.9805L 5.64258 16.3711C 7.0957 14.543 8.99414 13.6289 11.3379 13.6289C 15.3574 13.6289 17.3848 15.8965 17.4199 20.4316L 17.4199 33L 14.168 33L 14.168 20.4141C 14.1562 19.043 13.8398 18.0293 13.2188 17.373C 12.6094 16.7168 11.6543 16.3887 10.3535 16.3887C 9.29883 16.3887 8.37305 16.6699 7.57617 17.2324C 6.7793 17.7949 6.1582 18.5332 5.71289 19.4473L 5.71289 33L 2.46094 33L 2.46094 13.9805L 5.53711 13.9805ZM 34.0664 31.1191C 32.8008 32.6074 30.9434 33.3516 28.4941 33.3516C 26.4668 33.3516 24.9199 32.7656 23.8535 31.5938C 22.7988 30.4102 22.2656 28.6641 22.2539 26.3555L 22.2539 13.9805L 25.5059 13.9805L 25.5059 26.2676C 25.5059 29.1504 26.6777 30.5918 29.0215 30.5918C 31.5059 30.5918 33.1582 29.666 33.9785 27.8145L 33.9785 13.9805L 37.2305 13.9805L 37.2305 33L 34.1367 33L 34.0664 31.1191ZM 45.2461 13.9805L 45.334 16.0898C 46.7285 14.4492 48.6094 13.6289 50.9766 13.6289C 53.6367 13.6289 55.4473 14.6484 56.4082 16.6875C 57.041 15.7734 57.8613 15.0352 58.8691 14.4727C 59.8887 13.9102 61.0898 13.6289 62.4727 13.6289C 66.6445 13.6289 68.7656 15.8379 68.8359 20.2559L 68.8359 33L 65.584 33L 65.584 20.4492C 65.584 19.0898 65.2734 18.0762 64.6523 17.4082C 64.0312 16.7285 62.9883 16.3887 61.5234 16.3887C 60.3164 16.3887 59.3145 16.752 58.5176 17.4785C 57.7207 18.1934 57.2578 19.1602 57.1289 20.3789L 57.1289 33L 53.8594 33L 53.8594 20.5371C 53.8594 17.7715 52.5059 16.3887 49.7988 16.3887C 47.666 16.3887 46.207 17.2969 45.4219 19.1133L 45.4219 33L 42.1699 33L 42.1699 13.9805L 45.2461 13.9805ZM 89.8594 23.7012C 89.8594 26.6074 89.1914 28.9453 87.8555 30.7148C 86.5195 32.4727 84.7266 33.3516 82.4766 33.3516C 80.0742 33.3516 78.2168 32.502 76.9043 30.8027L 76.7461 33L 73.7578 33L 73.7578 6L 77.0098 6L 77.0098 16.0723C 78.3223 14.4434 80.1328 13.6289 82.4414 13.6289C 84.75 13.6289 86.5605 14.502 87.873 16.248C 89.1973 17.9941 89.8594 20.3848 89.8594 23.4199L 89.8594 23.7012ZM 86.6074 23.332C 86.6074 21.1172 86.1797 19.4063 85.3242 18.1992C 84.4687 16.9922 83.2383 16.3887 81.6328 16.3887C 79.4883 16.3887 77.9473 17.3848 77.0098 19.377L 77.0098 27.6035C 78.0059 29.5957 79.5586 30.5918 81.668 30.5918C 83.2266 30.5918 84.4395 29.9883 85.3066 28.7812C 86.1738 27.5742 86.6074 25.7578 86.6074 23.332ZM 101.865 33.3516C 99.2871 33.3516 97.1895 32.5078 95.5723 30.8203C 93.9551 29.1211 93.1465 26.8535 93.1465 24.0176L 93.1465 23.4199C 93.1465 21.5332 93.5039 19.8516 94.2188 18.375C 94.9453 16.8867 95.9531 15.7266 97.2422 14.8945C 98.543 14.0508 99.9492 13.6289 101.461 13.6289C 103.934 13.6289 105.855 14.4434 107.227 16.0723C 108.598 17.7012 109.283 20.0332 109.283 23.0684L 109.283 24.4219L 96.3984 24.4219C 96.4453 26.2969 96.9902 27.8145 98.0332 28.9746C 99.0879 30.123 100.424 30.6973 102.041 30.6973C 103.189 30.6973 104.162 30.4629 104.959 29.9941C 105.756 29.5254 106.453 28.9043 107.051 28.1309L 109.037 29.6777C 107.443 32.127 105.053 33.3516 101.865 33.3516ZM 101.461 16.3008C 100.148 16.3008 99.0469 16.7812 98.1562 17.7422C 97.2656 18.6914 96.7148 20.0273 96.5039 21.75L 106.031 21.75L 106.031 21.5039C 105.938 19.8516 105.492 18.5742 104.695 17.6719C 103.898 16.7578 102.82 16.3008 101.461 16.3008ZM 122.256 16.8984C 121.764 16.8164 121.23 16.7754 120.656 16.7754C 118.523 16.7754 117.076 17.6836 116.314 19.5L 116.314 33L 113.062 33L 113.062 13.9805L 116.227 13.9805L 116.279 16.1777C 117.346 14.4785 118.857 13.6289 120.814 13.6289C 121.447 13.6289 121.928 13.7109 122.256 13.875L 122.256 16.8984ZM 136.336 27.9551C 136.336 27.0762 136.002 26.3965 135.334 25.916C 134.678 25.4238 133.523 25.002 131.871 24.6504C 130.23 24.2988 128.924 23.877 127.951 23.3848C 126.99 22.8926 126.275 22.3066 125.807 21.627C 125.35 20.9473 125.121 20.1387 125.121 19.2012C 125.121 17.6426 125.777 16.3242 127.09 15.2461C 128.414 14.168 130.102 13.6289 132.152 13.6289C 134.309 13.6289 136.055 14.1855 137.391 15.2988C 138.738 16.4121 139.412 17.8359 139.412 19.5703L 136.143 19.5703C 136.143 18.6797 135.762 17.9121 135 17.2676C 134.25 16.623 133.301 16.3008 132.152 16.3008C 130.969 16.3008 130.043 16.5586 129.375 17.0742C 128.707 17.5898 128.373 18.2637 128.373 19.0957C 128.373 19.8809 128.684 20.4727 129.305 20.8711C 129.926 21.2695 131.045 21.6504 132.662 22.0137C 134.291 22.377 135.609 22.8105 136.617 23.3145C 137.625 23.8184 138.369 24.4277 138.85 25.1426C 139.342 25.8457 139.588 26.707 139.588 27.7266C 139.588 29.4258 138.908 30.791 137.549 31.8223C 136.189 32.8418 134.426 33.3516 132.258 33.3516C 130.734 33.3516 129.387 33.082 128.215 32.543C 127.043 32.0039 126.123 31.2539 125.455 30.293C 124.799 29.3203 124.471 28.2715 124.471 27.1465L 127.723 27.1465C 127.781 28.2363 128.215 29.1035 129.023 29.748C 129.844 30.3809 130.922 30.6973 132.258 30.6973C 133.488 30.6973 134.473 30.4512 135.211 29.959C 135.961 29.4551 136.336 28.7871 136.336 27.9551ZM 167.625 18.6914L 152.965 18.6914L 152.965 15.8613L 167.625 15.8613L 167.625 18.6914ZM 167.625 25.9863L 152.965 25.9863L 152.965 23.1738L 167.625 23.1738L 167.625 25.9863ZM 188.174 6.42188L 184.816 6.42188L 184.816 35.8125L 188.174 35.8125L 188.174 38.4844L 181.547 38.4844L 181.547 3.75L 188.174 3.75L 188.174 6.42188ZM 201.357 33L 198.088 33L 198.088 11.3262L 191.531 13.7344L 191.531 10.7812L 200.848 7.2832L 201.357 7.2832L 201.357 33ZM 220.043 38.0977L 218.197 36.832C 219.299 35.2969 219.873 33.7148 219.92 32.0859L 219.92 29.1504L 223.102 29.1504L 223.102 31.6992C 223.102 32.8828 222.809 34.0664 222.223 35.25C 221.648 36.4336 220.922 37.3828 220.043 38.0977ZM 252.58 33L 235.811 33L 235.811 30.6621L 244.67 20.8184C 245.982 19.3301 246.885 18.123 247.377 17.1973C 247.881 16.2598 248.133 15.293 248.133 14.2969C 248.133 12.9609 247.729 11.8652 246.92 11.0098C 246.111 10.1543 245.033 9.72656 243.686 9.72656C 242.068 9.72656 240.809 10.1895 239.906 11.1152C 239.016 12.0293 238.57 13.3066 238.57 14.9473L 235.318 14.9473C 235.318 12.5918 236.074 10.6875 237.586 9.23438C 239.109 7.78125 241.143 7.05469 243.686 7.05469C 246.064 7.05469 247.945 7.68164 249.328 8.93555C 250.711 10.1777 251.402 11.8359 251.402 13.9102C 251.402 16.4297 249.797 19.4297 246.586 22.9102L 239.73 30.3457L 252.58 30.3457L 252.58 33ZM 265.184 38.0977L 263.338 36.832C 264.439 35.2969 265.014 33.7148 265.061 32.0859L 265.061 29.1504L 268.242 29.1504L 268.242 31.6992C 268.242 32.8828 267.949 34.0664 267.363 35.25C 266.789 36.4336 266.062 37.3828 265.184 38.0977ZM 285.68 18.6211L 288.123 18.6211C 289.658 18.5977 290.865 18.1934 291.744 17.4082C 292.623 16.623 293.062 15.5625 293.062 14.2266C 293.062 11.2266 291.568 9.72656 288.58 9.72656C 287.174 9.72656 286.049 10.1309 285.205 10.9395C 284.373 11.7363 283.957 12.7969 283.957 14.1211L 280.705 14.1211C 280.705 12.0937 281.443 10.4121 282.92 9.07617C 284.408 7.72852 286.295 7.05469 288.58 7.05469C 290.994 7.05469 292.887 7.69336 294.258 8.9707C 295.629 10.248 296.314 12.0234 296.314 14.2969C 296.314 15.4102 295.951 16.4883 295.225 17.5312C 294.51 18.5742 293.531 19.3535 292.289 19.8691C 293.695 20.3145 294.779 21.0527 295.541 22.084C 296.314 23.1152 296.701 24.375 296.701 25.8633C 296.701 28.1602 295.951 29.9824 294.451 31.3301C 292.951 32.6777 291 33.3516 288.598 33.3516C 286.195 33.3516 284.238 32.7012 282.727 31.4004C 281.227 30.0996 280.477 28.3828 280.477 26.25L 283.746 26.25C 283.746 27.5977 284.186 28.6758 285.064 29.4844C 285.943 30.293 287.121 30.6973 288.598 30.6973C 290.168 30.6973 291.369 30.2871 292.201 29.4668C 293.033 28.6465 293.449 27.4688 293.449 25.9336C 293.449 24.4453 292.992 23.3027 292.078 22.5059C 291.164 21.709 289.846 21.2988 288.123 21.2754L 285.68 21.2754L 285.68 18.6211ZM 310.324 38.0977L 308.479 36.832C 309.58 35.2969 310.154 33.7148 310.201 32.0859L 310.201 29.1504L 313.383 29.1504L 313.383 31.6992C 313.383 32.8828 313.09 34.0664 312.504 35.25C 311.93 36.4336 311.203 37.3828 310.324 38.0977ZM 339.82 24.4043L 343.371 24.4043L 343.371 27.0586L 339.82 27.0586L 339.82 33L 336.551 33L 336.551 27.0586L 324.896 27.0586L 324.896 25.1426L 336.357 7.40625L 339.82 7.40625L 339.82 24.4043ZM 328.588 24.4043L 336.551 24.4043L 336.551 11.8535L 336.164 12.5566L 328.588 24.4043ZM 355.465 38.0977L 353.619 36.832C 354.721 35.2969 355.295 33.7148 355.342 32.0859L 355.342 29.1504L 358.523 29.1504L 358.523 31.6992C 358.523 32.8828 358.23 34.0664 357.645 35.25C 357.07 36.4336 356.344 37.3828 355.465 38.0977ZM 372.727 20.168L 374.027 7.40625L 387.141 7.40625L 387.141 10.4121L 376.787 10.4121L 376.014 17.3906C 377.268 16.6523 378.691 16.2832 380.285 16.2832C 382.617 16.2832 384.469 17.0566 385.84 18.6035C 387.211 20.1387 387.896 22.2188 387.896 24.8438C 387.896 27.4805 387.182 29.5605 385.752 31.084C 384.334 32.5957 382.348 33.3516 379.793 33.3516C 377.531 33.3516 375.686 32.7246 374.256 31.4707C 372.826 30.2168 372.012 28.4824 371.812 26.2676L 374.889 26.2676C 375.088 27.7324 375.609 28.8398 376.453 29.5898C 377.297 30.3281 378.41 30.6973 379.793 30.6973C 381.305 30.6973 382.488 30.1816 383.344 29.1504C 384.211 28.1191 384.645 26.6953 384.645 24.8789C 384.645 23.168 384.176 21.7969 383.238 20.7656C 382.312 19.7227 381.076 19.2012 379.529 19.2012C 378.111 19.2012 376.998 19.5117 376.189 20.1328L 375.328 20.8359L 372.727 20.168ZM 389.479 3.75L 396.123 3.75L 396.123 38.4844L 389.479 38.4844L 389.479 35.8125L 392.871 35.8125L 392.871 6.42188L 389.479 6.42188L 389.479 3.75Z"/>
<path id="path1_fill" d="M 5.53711 13.9805L 5.64258 16.3711C 7.0957 14.543 8.99414 13.6289 11.3379 13.6289C 15.3574 13.6289 17.3848 15.8965 17.4199 20.4316L 17.4199 33L 14.168 33L 14.168 20.4141C 14.1562 19.043 13.8398 18.0293 13.2188 17.373C 12.6094 16.7168 11.6543 16.3887 10.3535 16.3887C 9.29883 16.3887 8.37305 16.6699 7.57617 17.2324C 6.7793 17.7949 6.1582 18.5332 5.71289 19.4473L 5.71289 33L 2.46094 33L 2.46094 13.9805L 5.53711 13.9805ZM 34.0664 31.1191C 32.8008 32.6074 30.9434 33.3516 28.4941 33.3516C 26.4668 33.3516 24.9199 32.7656 23.8535 31.5938C 22.7988 30.4102 22.2656 28.6641 22.2539 26.3555L 22.2539 13.9805L 25.5059 13.9805L 25.5059 26.2676C 25.5059 29.1504 26.6777 30.5918 29.0215 30.5918C 31.5059 30.5918 33.1582 29.666 33.9785 27.8145L 33.9785 13.9805L 37.2305 13.9805L 37.2305 33L 34.1367 33L 34.0664 31.1191ZM 45.2461 13.9805L 45.334 16.0898C 46.7285 14.4492 48.6094 13.6289 50.9766 13.6289C 53.6367 13.6289 55.4473 14.6484 56.4082 16.6875C 57.041 15.7734 57.8613 15.0352 58.8691 14.4727C 59.8887 13.9102 61.0898 13.6289 62.4727 13.6289C 66.6445 13.6289 68.7656 15.8379 68.8359 20.2559L 68.8359 33L 65.584 33L 65.584 20.4492C 65.584 19.0898 65.2734 18.0762 64.6523 17.4082C 64.0312 16.7285 62.9883 16.3887 61.5234 16.3887C 60.3164 16.3887 59.3145 16.752 58.5176 17.4785C 57.7207 18.1934 57.2578 19.1602 57.1289 20.3789L 57.1289 33L 53.8594 33L 53.8594 20.5371C 53.8594 17.7715 52.5059 16.3887 49.7988 16.3887C 47.666 16.3887 46.207 17.2969 45.4219 19.1133L 45.4219 33L 42.1699 33L 42.1699 13.9805L 45.2461 13.9805ZM 89.8594 23.7012C 89.8594 26.6074 89.1914 28.9453 87.8555 30.7148C 86.5195 32.4727 84.7266 33.3516 82.4766 33.3516C 80.0742 33.3516 78.2168 32.502 76.9043 30.8027L 76.7461 33L 73.7578 33L 73.7578 6L 77.0098 6L 77.0098 16.0723C 78.3223 14.4434 80.1328 13.6289 82.4414 13.6289C 84.75 13.6289 86.5605 14.502 87.873 16.248C 89.1973 17.9941 89.8594 20.3848 89.8594 23.4199L 89.8594 23.7012ZM 86.6074 23.332C 86.6074 21.1172 86.1797 19.4062 85.3242 18.1992C 84.4688 16.9922 83.2383 16.3887 81.6328 16.3887C 79.4883 16.3887 77.9473 17.3848 77.0098 19.377L 77.0098 27.6035C 78.0059 29.5957 79.5586 30.5918 81.668 30.5918C 83.2266 30.5918 84.4395 29.9883 85.3066 28.7812C 86.1738 27.5742 86.6074 25.7578 86.6074 23.332ZM 101.865 33.3516C 99.2871 33.3516 97.1895 32.5078 95.5723 30.8203C 93.9551 29.1211 93.1465 26.8535 93.1465 24.0176L 93.1465 23.4199C 93.1465 21.5332 93.5039 19.8516 94.2188 18.375C 94.9453 16.8867 95.9531 15.7266 97.2422 14.8945C 98.543 14.0508 99.9492 13.6289 101.461 13.6289C 103.934 13.6289 105.855 14.4434 107.227 16.0723C 108.598 17.7012 109.283 20.0332 109.283 23.0684L 109.283 24.4219L 96.3984 24.4219C 96.4453 26.2969 96.9902 27.8145 98.0332 28.9746C 99.0879 30.123 100.424 30.6973 102.041 30.6973C 103.189 30.6973 104.162 30.4629 104.959 29.9941C 105.756 29.5254 106.453 28.9043 107.051 28.1309L 109.037 29.6777C 107.443 32.127 105.053 33.3516 101.865 33.3516ZM 101.461 16.3008C 100.148 16.3008 99.0469 16.7812 98.1562 17.7422C 97.2656 18.6914 96.7148 20.0273 96.5039 21.75L 106.031 21.75L 106.031 21.5039C 105.938 19.8516 105.492 18.5742 104.695 17.6719C 103.898 16.7578 102.82 16.3008 101.461 16.3008ZM 122.256 16.8984C 121.764 16.8164 121.23 16.7754 120.656 16.7754C 118.523 16.7754 117.076 17.6836 116.314 19.5L 116.314 33L 113.062 33L 113.062 13.9805L 116.227 13.9805L 116.279 16.1777C 117.346 14.4785 118.857 13.6289 120.814 13.6289C 121.447 13.6289 121.928 13.7109 122.256 13.875L 122.256 16.8984ZM 136.336 27.9551C 136.336 27.0762 136.002 26.3965 135.334 25.916C 134.678 25.4238 133.523 25.002 131.871 24.6504C 130.23 24.2988 128.924 23.877 127.951 23.3848C 126.99 22.8926 126.275 22.3066 125.807 21.627C 125.35 20.9473 125.121 20.1387 125.121 19.2012C 125.121 17.6426 125.777 16.3242 127.09 15.2461C 128.414 14.168 130.102 13.6289 132.152 13.6289C 134.309 13.6289 136.055 14.1855 137.391 15.2988C 138.738 16.4121 139.412 17.8359 139.412 19.5703L 136.143 19.5703C 136.143 18.6797 135.762 17.9121 135 17.2676C 134.25 16.623 133.301 16.3008 132.152 16.3008C 130.969 16.3008 130.043 16.5586 129.375 17.0742C 128.707 17.5898 128.373 18.2637 128.373 19.0957C 128.373 19.8809 128.684 20.4727 129.305 20.8711C 129.926 21.2695 131.045 21.6504 132.662 22.0137C 134.291 22.377 135.609 22.8105 136.617 23.3145C 137.625 23.8184 138.369 24.4277 138.85 25.1426C 139.342 25.8457 139.588 26.707 139.588 27.7266C 139.588 29.4258 138.908 30.791 137.549 31.8223C 136.189 32.8418 134.426 33.3516 132.258 33.3516C 130.734 33.3516 129.387 33.082 128.215 32.543C 127.043 32.0039 126.123 31.2539 125.455 30.293C 124.799 29.3203 124.471 28.2715 124.471 27.1465L 127.723 27.1465C 127.781 28.2363 128.215 29.1035 129.023 29.748C 129.844 30.3809 130.922 30.6973 132.258 30.6973C 133.488 30.6973 134.473 30.4512 135.211 29.959C 135.961 29.4551 136.336 28.7871 136.336 27.9551ZM 143.895 31.2949C 143.895 30.7324 144.059 30.2637 144.387 29.8887C 144.727 29.5137 145.23 29.3262 145.898 29.3262C 146.566 29.3262 147.07 29.5137 147.41 29.8887C 147.762 30.2637 147.938 30.7324 147.938 31.2949C 147.938 31.834 147.762 32.2852 147.41 32.6484C 147.07 33.0117 146.566 33.1934 145.898 33.1934C 145.23 33.1934 144.727 33.0117 144.387 32.6484C 144.059 32.2852 143.895 31.834 143.895 31.2949ZM 169.383 23.7012C 169.383 26.5957 168.721 28.9277 167.396 30.6973C 166.072 32.4668 164.279 33.3516 162.018 33.3516C 159.709 33.3516 157.893 32.6191 156.568 31.1543L 156.568 40.3125L 153.316 40.3125L 153.316 13.9805L 156.287 13.9805L 156.445 16.0898C 157.77 14.4492 159.609 13.6289 161.965 13.6289C 164.25 13.6289 166.055 14.4902 167.379 16.2129C 168.715 17.9355 169.383 20.332 169.383 23.4023L 169.383 23.7012ZM 166.131 23.332C 166.131 21.1875 165.674 19.4941 164.76 18.252C 163.846 17.0098 162.592 16.3887 160.998 16.3887C 159.029 16.3887 157.553 17.2617 156.568 19.0078L 156.568 28.0957C 157.541 29.8301 159.029 30.6973 161.033 30.6973C 162.592 30.6973 163.828 30.082 164.742 28.8516C 165.668 27.6094 166.131 25.7695 166.131 23.332ZM 172.67 23.3145C 172.67 21.4512 173.033 19.7754 173.76 18.2871C 174.498 16.7988 175.518 15.6504 176.818 14.8418C 178.131 14.0332 179.625 13.6289 181.301 13.6289C 183.891 13.6289 185.982 14.5254 187.576 16.3184C 189.182 18.1113 189.984 20.4961 189.984 23.4727L 189.984 23.7012C 189.984 25.5527 189.627 27.2168 188.912 28.6934C 188.209 30.1582 187.195 31.3008 185.871 32.1211C 184.559 32.9414 183.047 33.3516 181.336 33.3516C 178.758 33.3516 176.666 32.4551 175.061 30.6621C 173.467 28.8691 172.67 26.4961 172.67 23.543L 172.67 23.3145ZM 175.939 23.7012C 175.939 25.8105 176.426 27.5039 177.398 28.7812C 178.383 30.0586 179.695 30.6973 181.336 30.6973C 182.988 30.6973 184.301 30.0527 185.273 28.7637C 186.246 27.4629 186.732 25.6465 186.732 23.3145C 186.732 21.2285 186.234 19.541 185.238 18.252C 184.254 16.9512 182.941 16.3008 181.301 16.3008C 179.695 16.3008 178.4 16.9395 177.416 18.2168C 176.432 19.4941 175.939 21.3223 175.939 23.7012ZM 210.129 23.7012C 210.129 26.5957 209.467 28.9277 208.143 30.6973C 206.818 32.4668 205.025 33.3516 202.764 33.3516C 200.455 33.3516 198.639 32.6191 197.314 31.1543L 197.314 40.3125L 194.062 40.3125L 194.062 13.9805L 197.033 13.9805L 197.191 16.0898C 198.516 14.4492 200.355 13.6289 202.711 13.6289C 204.996 13.6289 206.801 14.4902 208.125 16.2129C 209.461 17.9355 210.129 20.332 210.129 23.4023L 210.129 23.7012ZM 206.877 23.332C 206.877 21.1875 206.42 19.4941 205.506 18.252C 204.592 17.0098 203.338 16.3887 201.744 16.3887C 199.775 16.3887 198.299 17.2617 197.314 19.0078L 197.314 28.0957C 198.287 29.8301 199.775 30.6973 201.779 30.6973C 203.338 30.6973 204.574 30.082 205.488 28.8516C 206.414 27.6094 206.877 25.7695 206.877 23.332ZM 214.154 22.6113C 214.154 19.9629 214.506 17.4199 215.209 14.9824C 215.924 12.5449 216.984 10.3301 218.391 8.33789C 219.797 6.3457 221.256 4.93945 222.768 4.11914L 223.436 6.26367C 221.725 7.57617 220.318 9.58008 219.217 12.2754C 218.127 14.9707 217.529 17.9883 217.424 21.3281L 217.406 22.8223C 217.406 27.3457 218.232 31.2715 219.885 34.5996C 220.881 36.5918 222.064 38.1504 223.436 39.2754L 222.768 41.2617C 221.209 40.3945 219.721 38.9414 218.303 36.9023C 215.537 32.918 214.154 28.1543 214.154 22.6113ZM 243.018 33L 226.248 33L 226.248 30.6621L 235.107 20.8184C 236.42 19.3301 237.322 18.123 237.814 17.1973C 238.318 16.2598 238.57 15.293 238.57 14.2969C 238.57 12.9609 238.166 11.8652 237.357 11.0098C 236.549 10.1543 235.471 9.72656 234.123 9.72656C 232.506 9.72656 231.246 10.1895 230.344 11.1152C 229.453 12.0293 229.008 13.3066 229.008 14.9473L 225.756 14.9473C 225.756 12.5918 226.512 10.6875 228.023 9.23438C 229.547 7.78125 231.58 7.05469 234.123 7.05469C 236.502 7.05469 238.383 7.68164 239.766 8.93555C 241.148 10.1777 241.84 11.8359 241.84 13.9102C 241.84 16.4297 240.234 19.4297 237.023 22.9102L 230.168 30.3457L 243.018 30.3457L 243.018 33ZM 254.303 22.7871C 254.303 25.4004 253.957 27.9082 253.266 30.3105C 252.586 32.7012 251.537 34.9102 250.119 36.9375C 248.713 38.9648 247.236 40.4062 245.689 41.2617L 245.004 39.2754C 246.809 37.8926 248.256 35.748 249.346 32.8418C 250.447 29.9238 251.01 26.6895 251.033 23.1387L 251.033 22.5762C 251.033 20.1152 250.775 17.8301 250.26 15.7207C 249.744 13.5996 249.023 11.7012 248.098 10.0254C 247.184 8.34961 246.152 7.04297 245.004 6.10547L 245.689 4.11914C 247.236 4.97461 248.707 6.4043 250.102 8.4082C 251.508 10.4121 252.557 12.6211 253.248 15.0352C 253.951 17.4492 254.303 20.0332 254.303 22.7871Z"/>
<path id="path2_fill" d="M 22.6582 21.0293C 22.6582 23.5371 22.2363 25.7285 21.3926 27.6035C 20.5488 29.4668 19.3535 30.8906 17.8066 31.875C 16.2598 32.8594 14.4551 33.3516 12.3926 33.3516C 10.377 33.3516 8.58984 32.8594 7.03125 31.875C 5.47266 30.8789 4.25977 29.4668 3.39258 27.6387C 2.53711 25.7988 2.09766 23.6719 2.07422 21.2578L 2.07422 19.4121C 2.07422 16.9512 2.50195 14.7773 3.35742 12.8906C 4.21289 11.0039 5.41992 9.5625 6.97852 8.56641C 8.54883 7.55859 10.3418 7.05469 12.3574 7.05469C 14.4082 7.05469 16.2129 7.55274 17.7715 8.54883C 19.3418 9.5332 20.5488 10.9687 21.3926 12.8555C 22.2363 14.7305 22.6582 16.916 22.6582 19.4121L 22.6582 21.0293ZM 19.3008 19.377C 19.3008 16.3418 18.6914 14.0156 17.4727 12.3984C 16.2539 10.7695 14.5488 9.95508 12.3574 9.95508C 10.2246 9.95508 8.54297 10.7695 7.3125 12.3984C 6.09375 14.0156 5.4668 16.2656 5.43164 19.1484L 5.43164 21.0293C 5.43164 23.9707 6.04688 26.2852 7.27734 27.9727C 8.51953 29.6484 10.2246 30.4863 12.3926 30.4863C 14.5723 30.4863 16.2598 29.6953 17.4551 28.1133C 18.6504 26.5195 19.2656 24.2402 19.3008 21.2754L 19.3008 19.377ZM 30.7441 33L 27.4922 33L 27.4922 6L 30.7441 6L 30.7441 33ZM 35.1738 23.332C 35.1738 20.4141 35.8652 18.0703 37.248 16.3008C 38.6309 14.5195 40.4414 13.6289 42.6797 13.6289C 44.9063 13.6289 46.6699 14.3906 47.9707 15.9141L 47.9707 6L 51.2227 6L 51.2227 33L 48.2344 33L 48.0762 30.9609C 46.7754 32.5547 44.9648 33.3516 42.6445 33.3516C 40.4414 33.3516 38.6426 32.4492 37.248 30.6445C 35.8652 28.8398 35.1738 26.4844 35.1738 23.5781L 35.1738 23.332ZM 38.4258 23.7012C 38.4258 25.8574 38.8711 27.5449 39.7617 28.7637C 40.6523 29.9824 41.8828 30.5918 43.4531 30.5918C 45.5156 30.5918 47.0215 29.666 47.9707 27.8145L 47.9707 19.0781C 46.998 17.2852 45.5039 16.3887 43.4883 16.3887C 41.8945 16.3887 40.6523 17.0039 39.7617 18.2344C 38.8711 19.4648 38.4258 21.2871 38.4258 23.7012ZM 79.8574 26.3203L 69.1348 26.3203L 66.7266 33L 63.2461 33L 73.0195 7.40625L 75.9727 7.40625L 85.7637 33L 82.3008 33L 79.8574 26.3203ZM 70.1543 23.543L 78.8555 23.543L 74.4961 11.5723L 70.1543 23.543ZM 97.8926 16.8984C 97.4004 16.8164 96.8672 16.7754 96.293 16.7754C 94.1602 16.7754 92.7129 17.6836 91.9512 19.5L 91.9512 33L 88.6992 33L 88.6992 13.9805L 91.8633 13.9805L 91.916 16.1777C 92.9824 14.4785 94.4941 13.6289 96.4512 13.6289C 97.084 13.6289 97.5645 13.7109 97.8926 13.875L 97.8926 16.8984ZM 110.092 16.8984C 109.6 16.8164 109.066 16.7754 108.492 16.7754C 106.359 16.7754 104.912 17.6836 104.15 19.5L 104.15 33L 100.898 33L 100.898 13.9805L 104.062 13.9805L 104.115 16.1777C 105.182 14.4785 106.693 13.6289 108.65 13.6289C 109.283 13.6289 109.764 13.7109 110.092 13.875L 110.092 16.8984ZM 124.137 33C 123.949 32.625 123.797 31.957 123.68 30.9961C 122.168 32.5664 120.363 33.3516 118.266 33.3516C 116.391 33.3516 114.85 32.8242 113.643 31.7695C 112.447 30.7031 111.85 29.3555 111.85 27.7266C 111.85 25.7461 112.6 24.2109 114.1 23.1211C 115.611 22.0195 117.732 21.4688 120.463 21.4688L 123.627 21.4688L 123.627 19.9746C 123.627 18.8379 123.287 17.9355 122.607 17.2676C 121.928 16.5879 120.926 16.248 119.602 16.248C 118.441 16.248 117.469 16.541 116.684 17.127C 115.898 17.7129 115.506 18.4219 115.506 19.2539L 112.236 19.2539C 112.236 18.3047 112.57 17.3906 113.238 16.5117C 113.918 15.6211 114.832 14.918 115.98 14.4023C 117.141 13.8867 118.412 13.6289 119.795 13.6289C 121.986 13.6289 123.703 14.1797 124.945 15.2812C 126.188 16.3711 126.832 17.877 126.879 19.7988L 126.879 28.5527C 126.879 30.2988 127.102 31.6875 127.547 32.7188L 127.547 33L 124.137 33ZM 118.74 30.5215C 119.76 30.5215 120.727 30.2578 121.641 29.7305C 122.555 29.2031 123.217 28.5176 123.627 27.6738L 123.627 23.7715L 121.078 23.7715C 117.094 23.7715 115.102 24.9375 115.102 27.2695C 115.102 28.2891 115.441 29.0859 116.121 29.6602C 116.801 30.2344 117.674 30.5215 118.74 30.5215ZM 137.918 28.2363L 142.348 13.9805L 145.828 13.9805L 138.182 35.9355C 136.998 39.0996 135.117 40.6816 132.539 40.6816L 131.924 40.6289L 130.711 40.4004L 130.711 37.7637L 131.59 37.834C 132.691 37.834 133.547 37.6113 134.156 37.166C 134.777 36.7207 135.287 35.9062 135.686 34.7227L 136.406 32.7891L 129.621 13.9805L 133.172 13.9805L 137.918 28.2363Z"/>
<path id="path3_fill" d="M 22.6406 33L 19.248 33L 6.36328 13.2773L 6.36328 33L 2.9707 33L 2.9707 7.40625L 6.36328 7.40625L 19.2832 27.2168L 19.2832 7.40625L 22.6406 7.40625L 22.6406 33ZM 36.0176 33.3516C 33.4395 33.3516 31.3418 32.5078 29.7246 30.8203C 28.1074 29.1211 27.2988 26.8535 27.2988 24.0176L 27.2988 23.4199C 27.2988 21.5332 27.6563 19.8516 28.3711 18.375C 29.0977 16.8867 30.1055 15.7266 31.3945 14.8945C 32.6953 14.0508 34.1016 13.6289 35.6133 13.6289C 38.0859 13.6289 40.0078 14.4434 41.3789 16.0723C 42.75 17.7012 43.4355 20.0332 43.4355 23.0684L 43.4355 24.4219L 30.5508 24.4219C 30.5977 26.2969 31.1426 27.8145 32.1855 28.9746C 33.2402 30.123 34.5762 30.6973 36.1934 30.6973C 37.3418 30.6973 38.3145 30.4629 39.1113 29.9941C 39.9082 29.5254 40.6055 28.9043 41.2031 28.1309L 43.1895 29.6777C 41.5957 32.127 39.2051 33.3516 36.0176 33.3516ZM 35.6133 16.3008C 34.3008 16.3008 33.1992 16.7812 32.3086 17.7422C 31.418 18.6914 30.8672 20.0273 30.6562 21.75L 40.1836 21.75L 40.1836 21.5039C 40.0898 19.8516 39.6445 18.5742 38.8477 17.6719C 38.0508 16.7578 36.9727 16.3008 35.6133 16.3008ZM 64.0547 28.5176L 67.7109 13.9805L 70.9629 13.9805L 65.4258 33L 62.7891 33L 58.166 18.5859L 53.666 33L 51.0293 33L 45.5098 13.9805L 48.7441 13.9805L 52.4883 28.2188L 56.918 13.9805L 59.5371 13.9805L 64.0547 28.5176ZM 97.8574 26.3203L 87.1348 26.3203L 84.7266 33L 81.2461 33L 91.0195 7.40625L 93.9727 7.40625L 103.764 33L 100.301 33L 97.8574 26.3203ZM 88.1543 23.543L 96.8555 23.543L 92.4961 11.5723L 88.1543 23.543ZM 115.893 16.8984C 115.4 16.8164 114.867 16.7754 114.293 16.7754C 112.16 16.7754 110.713 17.6836 109.951 19.5L 109.951 33L 106.699 33L 106.699 13.9805L 109.863 13.9805L 109.916 16.1777C 110.982 14.4785 112.494 13.6289 114.451 13.6289C 115.084 13.6289 115.564 13.7109 115.893 13.875L 115.893 16.8984ZM 128.092 16.8984C 127.6 16.8164 127.066 16.7754 126.492 16.7754C 124.359 16.7754 122.912 17.6836 122.15 19.5L 122.15 33L 118.898 33L 118.898 13.9805L 122.062 13.9805L 122.115 16.1777C 123.182 14.4785 124.693 13.6289 126.65 13.6289C 127.283 13.6289 127.764 13.7109 128.092 13.875L 128.092 16.8984ZM 142.137 33C 141.949 32.625 141.797 31.957 141.68 30.9961C 140.168 32.5664 138.363 33.3516 136.266 33.3516C 134.391 33.3516 132.85 32.8242 131.643 31.7695C 130.447 30.7031 129.85 29.3555 129.85 27.7266C 129.85 25.7461 130.6 24.2109 132.1 23.1211C 133.611 22.0195 135.732 21.4688 138.463 21.4688L 141.627 21.4688L 141.627 19.9746C 141.627 18.8379 141.287 17.9355 140.607 17.2676C 139.928 16.5879 138.926 16.248 137.602 16.248C 136.441 16.248 135.469 16.541 134.684 17.127C 133.898 17.7129 133.506 18.4219 133.506 19.2539L 130.236 19.2539C 130.236 18.3047 130.57 17.3906 131.238 16.5117C 131.918 15.6211 132.832 14.918 133.98 14.4023C 135.141 13.8867 136.412 13.6289 137.795 13.6289C 139.986 13.6289 141.703 14.1797 142.945 15.2812C 144.188 16.3711 144.832 17.877 144.879 19.7988L 144.879 28.5527C 144.879 30.2988 145.102 31.6875 145.547 32.7188L 145.547 33L 142.137 33ZM 136.74 30.5215C 137.76 30.5215 138.727 30.2578 139.641 29.7305C 140.555 29.2031 141.217 28.5176 141.627 27.6738L 141.627 23.7715L 139.078 23.7715C 135.094 23.7715 133.102 24.9375 133.102 27.2695C 133.102 28.2891 133.441 29.0859 134.121 29.6602C 134.801 30.2344 135.674 30.5215 136.74 30.5215ZM 155.918 28.2363L 160.348 13.9805L 163.828 13.9805L 156.182 35.9355C 154.998 39.0996 153.117 40.6816 150.539 40.6816L 149.924 40.6289L 148.711 40.4004L 148.711 37.7637L 149.59 37.834C 150.691 37.834 151.547 37.6113 152.156 37.166C 152.777 36.7207 153.287 35.9062 153.686 34.7227L 154.406 32.7891L 147.621 13.9805L 151.172 13.9805L 155.918 28.2363Z"/>
<path id="path4_fill" d="M 12.8145 33L 9.54492 33L 9.54492 11.3262L 2.98828 13.7344L 2.98828 10.7812L 12.3047 7.2832L 12.8145 7.2832L 12.8145 33Z"/>
<path id="path5_fill" d="M 18.8965 33L 2.12695 33L 2.12695 30.6621L 10.9863 20.8184C 12.2988 19.3301 13.2012 18.123 13.6934 17.1973C 14.1973 16.2598 14.4492 15.293 14.4492 14.2969C 14.4492 12.9609 14.0449 11.8652 13.2363 11.0098C 12.4277 10.1543 11.3496 9.72656 10.002 9.72656C 8.38477 9.72656 7.125 10.1895 6.22266 11.1152C 5.33203 12.0293 4.88672 13.3066 4.88672 14.9473L 1.63477 14.9473C 1.63477 12.5918 2.39062 10.6875 3.90234 9.23438C 5.42578 7.78125 7.45898 7.05469 10.002 7.05469C 12.3809 7.05469 14.2617 7.68164 15.6445 8.93555C 17.0273 10.1777 17.7188 11.8359 17.7188 13.9102C 17.7188 16.4297 16.1133 19.4297 12.9023 22.9102L 6.04688 30.3457L 18.8965 30.3457L 18.8965 33Z"/>
<path id="path6_fill" d="M 15.8555 24.4043L 19.4062 24.4043L 19.4062 27.0586L 15.8555 27.0586L 15.8555 33L 12.5859 33L 12.5859 27.0586L 0.931641 27.0586L 0.931641 25.1426L 12.3926 7.40625L 15.8555 7.40625L 15.8555 24.4043ZM 4.62305 24.4043L 12.5859 24.4043L 12.5859 11.8535L 12.1992 12.5566L 4.62305 24.4043Z"/>
<path id="path7_fill" d="M 6.85547 18.6211L 9.29883 18.6211C 10.834 18.5977 12.041 18.1934 12.9199 17.4082C 13.7988 16.623 14.2383 15.5625 14.2383 14.2266C 14.2383 11.2266 12.7441 9.72656 9.75586 9.72656C 8.34961 9.72656 7.22461 10.1309 6.38086 10.9395C 5.54883 11.7363 5.13281 12.7969 5.13281 14.1211L 1.88086 14.1211C 1.88086 12.0937 2.61914 10.4121 4.0957 9.07617C 5.58398 7.72852 7.4707 7.05469 9.75586 7.05469C 12.1699 7.05469 14.0625 7.69336 15.4336 8.9707C 16.8047 10.248 17.4902 12.0234 17.4902 14.2969C 17.4902 15.4102 17.127 16.4883 16.4004 17.5312C 15.6855 18.5742 14.707 19.3535 13.4648 19.8691C 14.8711 20.3145 15.9551 21.0527 16.7168 22.084C 17.4902 23.1152 17.877 24.375 17.877 25.8633C 17.877 28.1602 17.127 29.9824 15.627 31.3301C 14.127 32.6777 12.1758 33.3516 9.77344 33.3516C 7.37109 33.3516 5.41406 32.7012 3.90234 31.4004C 2.40234 30.0996 1.65234 28.3828 1.65234 26.25L 4.92188 26.25C 4.92188 27.5977 5.36133 28.6758 6.24023 29.4844C 7.11914 30.293 8.29688 30.6973 9.77344 30.6973C 11.3437 30.6973 12.5449 30.2871 13.377 29.4668C 14.209 28.6465 14.625 27.4688 14.625 25.9336C 14.625 24.4453 14.168 23.3027 13.2539 22.5059C 12.3398 21.709 11.0215 21.2988 9.29883 21.2754L 6.85547 21.2754L 6.85547 18.6211Z"/>
<path id="path8_fill" d="M 3.62109 20.168L 4.92188 7.40625L 18.0352 7.40625L 18.0352 10.4121L 7.68164 10.4121L 6.9082 17.3906C 8.16211 16.6523 9.58594 16.2832 11.1797 16.2832C 13.5117 16.2832 15.3633 17.0566 16.7344 18.6035C 18.1055 20.1387 18.791 22.2188 18.791 24.8438C 18.791 27.4805 18.0762 29.5605 16.6465 31.084C 15.2285 32.5957 13.2422 33.3516 10.6875 33.3516C 8.42578 33.3516 6.58008 32.7246 5.15039 31.4707C 3.7207 30.2168 2.90625 28.4824 2.70703 26.2676L 5.7832 26.2676C 5.98242 27.7324 6.50391 28.8398 7.34766 29.5898C 8.19141 30.3281 9.30469 30.6973 10.6875 30.6973C 12.1992 30.6973 13.3828 30.1816 14.2383 29.1504C 15.1055 28.1191 15.5391 26.6953 15.5391 24.8789C 15.5391 23.168 15.0703 21.7969 14.1328 20.7656C 13.207 19.7227 11.9707 19.2012 10.4238 19.2012C 9.00586 19.2012 7.89258 19.5117 7.08398 20.1328L 6.22266 20.8359L 3.62109 20.168Z"/>
<path id="path9_fill" d="M 3.62109 20.168L 4.92188 7.40625L 18.0352 7.40625L 18.0352 10.4121L 7.68164 10.4121L 6.9082 17.3906C 8.16211 16.6523 9.58594 16.2832 11.1797 16.2832C 13.5117 16.2832 15.3633 17.0566 16.7344 18.6035C 18.1055 20.1387 18.791 22.2188 18.791 24.8438C 18.791 27.4805 18.0762 29.5605 16.6465 31.084C 15.2285 32.5957 13.2422 33.3516 10.6875 33.3516C 8.42578 33.3516 6.58008 32.7246 5.15039 31.4707C 3.7207 30.2168 2.90625 28.4824 2.70703 26.2676L 5.7832 26.2676C 5.98242 27.7324 6.50391 28.8398 7.34766 29.5898C 8.19141 30.3281 9.30469 30.6973 10.6875 30.6973C 12.1992 30.6973 13.3828 30.1816 14.2383 29.1504C 15.1055 28.1191 15.5391 26.6953 15.5391 24.8789C 15.5391 23.168 15.0703 21.7969 14.1328 20.7656C 13.207 19.7227 11.9707 19.2012 10.4238 19.2012C 9.00586 19.2012 7.89258 19.5117 7.08398 20.1328L 6.22266 20.8359L 3.62109 20.168Z"/>
<path id="path10_stroke" d="M 0 0L 33 0L 33 -1L 0 -1L 0 0Z"/>
<path id="path11_stroke" d="M 98.3536 0.353553C 98.5488 0.158291 98.5488 -0.158291 98.3536 -0.353553L 95.1716 -3.53553C 94.9763 -3.7308 94.6597 -3.7308 94.4645 -3.53553C 94.2692 -3.34027 94.2692 -3.02369 94.4645 -2.82843L 97.2929 0L 94.4645 2.82843C 94.2692 3.02369 94.2692 3.34027 94.4645 3.53553C 94.6597 3.7308 94.9763 3.7308 95.1716 3.53553L 98.3536 0.353553ZM 0 0.5L 98 0.5L 98 -0.5L 0 -0.5L 0 0.5Z"/>
<path id="path12_stroke" d="M 0 0L 1 0L 1 -1L 0 -1L 0 0Z"/>
<path id="path13_fill" d="M 18.8965 33L 2.12695 33L 2.12695 30.6621L 10.9863 20.8184C 12.2988 19.3301 13.2012 18.123 13.6934 17.1973C 14.1973 16.2598 14.4492 15.293 14.4492 14.2969C 14.4492 12.9609 14.0449 11.8652 13.2363 11.0098C 12.4277 10.1543 11.3496 9.72656 10.002 9.72656C 8.38477 9.72656 7.125 10.1895 6.22266 11.1152C 5.33203 12.0293 4.88672 13.3066 4.88672 14.9473L 1.63477 14.9473C 1.63477 12.5918 2.39062 10.6875 3.90234 9.23438C 5.42578 7.78125 7.45898 7.05469 10.002 7.05469C 12.3809 7.05469 14.2617 7.68164 15.6445 8.93555C 17.0273 10.1777 17.7188 11.8359 17.7188 13.9102C 17.7188 16.4297 16.1133 19.4297 12.9023 22.9102L 6.04688 30.3457L 18.8965 30.3457L 18.8965 33Z"/>
<path id="path14_stroke" d="M 139.53 0.353553C 139.725 0.158291 139.725 -0.158291 139.53 -0.353553L 136.348 -3.53553C 136.152 -3.7308 135.836 -3.7308 135.641 -3.53553C 135.445 -3.34027 135.445 -3.02369 135.641 -2.82843L 138.469 0L 135.641 2.82843C 135.445 3.02369 135.445 3.34027 135.641 3.53553C 135.836 3.7308 136.152 3.7308 136.348 3.53553L 139.53 0.353553ZM 0 0.5L 139.176 0.5L 139.176 -0.5L 0 -0.5L 0 0.5Z"/>
</defs>
</svg>
