<svg width="900" height="190" viewBox="0 0 900 190" version="1.1" xmlns="http://www.w3.org/2000/svg" xmlns:xlink="http://www.w3.org/1999/xlink" xmlns:figma="http://www.figma.com/figma/ns">
<title>pipe</title>
<desc>Created using Figma</desc>
<g id="Canvas" transform="translate(817 491)" figma:type="canvas">
<g id="Rectangle" style="mix-blend-mode:normal;" figma:type="rounded-rectangle">
<use xlink:href="#path0_fill" transform="translate(-817 -455.5)" fill="#C4C4C4" style="mix-blend-mode:normal;"/>
</g>
<g id="Parent" style="mix-blend-mode:normal;" figma:type="text">
<use xlink:href="#path1_fill" transform="translate(-702 -495)" style="mix-blend-mode:normal;"/>
</g>
<g id="Rectangle" style="mix-blend-mode:normal;" figma:type="rounded-rectangle">
<use xlink:href="#path0_fill" transform="translate(-217 -451.5)" fill="#C4C4C4" style="mix-blend-mode:normal;"/>
</g>
<g id="Child" style="mix-blend-mode:normal;" figma:type="text">
<use xlink:href="#path2_fill" transform="translate(-94.5 -495)" style="mix-blend-mode:normal;"/>
</g>
<g id="Arrow" style="mix-blend-mode:normal;" figma:type="vector">
<use xlink:href="#path3_stroke" transform="matrix(-1 5.08901e-10 -5.08901e-10 -1 -364 -381)" style="mix-blend-mode:normal;"/>
</g>
<g id="child_conn.send(email)" style="mix-blend-mode:normal;" figma:type="text">
<use xlink:href="#path4_fill" transform="translate(-191 -395.5)" style="mix-blend-mode:normal;"/>
</g>
<g id="Pipe" style="mix-blend-mode:normal;" figma:type="text">
<use xlink:href="#path5_fill" transform="translate(-390 -466)" style="mix-blend-mode:normal;"/>
</g>
<g id="Line" style="mix-blend-mode:normal;" figma:type="line">
<use xlink:href="#path6_stroke" transform="translate(-364 -381)" style="mix-blend-mode:normal;"/>
</g>
<g id="parent_conn.recv()" style="mix-blend-mode:normal;" figma:type="text">
<use xlink:href="#path7_fill" transform="translate(-767 -395.5)" style="mix-blend-mode:normal;"/>
</g>
</g>
<defs>
<path id="path0_fill" d="M 0 0L 300 0L 300 150L 0 150L 0 0Z"/>
<path id="path1_fill" d="M 4.23047 15.3203L 4.23047 22L 1.98047 22L 1.98047 4.9375L 8.27344 4.9375C 10.1406 4.9375 11.6016 5.41406 12.6562 6.36719C 13.7188 7.32031 14.25 8.58203 14.25 10.1523C 14.25 11.8086 13.7305 13.0859 12.6914 13.9844C 11.6602 14.875 10.1797 15.3203 8.25 15.3203L 4.23047 15.3203ZM 4.23047 13.4805L 8.27344 13.4805C 9.47656 13.4805 10.3984 13.1992 11.0391 12.6367C 11.6797 12.0664 12 11.2461 12 10.1758C 12 9.16016 11.6797 8.34766 11.0391 7.73828C 10.3984 7.12891 9.51953 6.8125 8.40234 6.78906L 4.23047 6.78906L 4.23047 13.4805ZM 24.4922 22C 24.3672 21.75 24.2656 21.3047 24.1875 20.6641C 23.1797 21.7109 21.9766 22.2344 20.5781 22.2344C 19.3281 22.2344 18.3008 21.8828 17.4961 21.1797C 16.6992 20.4688 16.3008 19.5703 16.3008 18.4844C 16.3008 17.1641 16.8008 16.1406 17.8008 15.4141C 18.8086 14.6797 20.2227 14.3125 22.043 14.3125L 24.1523 14.3125L 24.1523 13.3164C 24.1523 12.5586 23.9258 11.957 23.4727 11.5117C 23.0195 11.0586 22.3516 10.832 21.4688 10.832C 20.6953 10.832 20.0469 11.0273 19.5234 11.418C 19 11.8086 18.7383 12.2812 18.7383 12.8359L 16.5586 12.8359C 16.5586 12.2031 16.7812 11.5938 17.2266 11.0078C 17.6797 10.4141 18.2891 9.94531 19.0547 9.60156C 19.8281 9.25781 20.6758 9.08594 21.5977 9.08594C 23.0586 9.08594 24.2031 9.45312 25.0312 10.1875C 25.8594 10.9141 26.2891 11.918 26.3203 13.1992L 26.3203 19.0352C 26.3203 20.1992 26.4688 21.125 26.7656 21.8125L 26.7656 22L 24.4922 22ZM 20.8945 20.3477C 21.5742 20.3477 22.2188 20.1719 22.8281 19.8203C 23.4375 19.4688 23.8789 19.0117 24.1523 18.4492L 24.1523 15.8477L 22.4531 15.8477C 19.7969 15.8477 18.4688 16.625 18.4688 18.1797C 18.4688 18.8594 18.6953 19.3906 19.1484 19.7734C 19.6016 20.1562 20.1836 20.3477 20.8945 20.3477ZM 35.8477 11.2656C 35.5195 11.2109 35.1641 11.1836 34.7812 11.1836C 33.3594 11.1836 32.3945 11.7891 31.8867 13L 31.8867 22L 29.7188 22L 29.7188 9.32031L 31.8281 9.32031L 31.8633 10.7852C 32.5742 9.65234 33.582 9.08594 34.8867 9.08594C 35.3086 9.08594 35.6289 9.14062 35.8477 9.25L 35.8477 11.2656ZM 42.9023 22.2344C 41.1836 22.2344 39.7852 21.6719 38.707 20.5469C 37.6289 19.4141 37.0898 17.9023 37.0898 16.0117L 37.0898 15.6133C 37.0898 14.3555 37.3281 13.2344 37.8047 12.25C 38.2891 11.2578 38.9609 10.4844 39.8203 9.92969C 40.6875 9.36719 41.625 9.08594 42.6328 9.08594C 44.2812 9.08594 45.5625 9.62891 46.4766 10.7148C 47.3906 11.8008 47.8477 13.3555 47.8477 15.3789L 47.8477 16.2812L 39.2578 16.2812C 39.2891 17.5312 39.6523 18.543 40.3477 19.3164C 41.0508 20.082 41.9414 20.4648 43.0195 20.4648C 43.7852 20.4648 44.4336 20.3086 44.9648 19.9961C 45.4961 19.6836 45.9609 19.2695 46.3594 18.7539L 47.6836 19.7852C 46.6211 21.418 45.0273 22.2344 42.9023 22.2344ZM 42.6328 10.8672C 41.7578 10.8672 41.0234 11.1875 40.4297 11.8281C 39.8359 12.4609 39.4688 13.3516 39.3281 14.5L 45.6797 14.5L 45.6797 14.3359C 45.6172 13.2344 45.3203 12.3828 44.7891 11.7812C 44.2578 11.1719 43.5391 10.8672 42.6328 10.8672ZM 52.418 9.32031L 52.4883 10.9141C 53.457 9.69531 54.7227 9.08594 56.2852 9.08594C 58.9648 9.08594 60.3164 10.5977 60.3398 13.6211L 60.3398 22L 58.1719 22L 58.1719 13.6094C 58.1641 12.6953 57.9531 12.0195 57.5391 11.582C 57.1328 11.1445 56.4961 10.9258 55.6289 10.9258C 54.9258 10.9258 54.3086 11.1133 53.7773 11.4883C 53.2461 11.8633 52.832 12.3555 52.5352 12.9648L 52.5352 22L 50.3672 22L 50.3672 9.32031L 52.418 9.32031ZM 66.5508 6.25L 66.5508 9.32031L 68.918 9.32031L 68.918 10.9961L 66.5508 10.9961L 66.5508 18.8594C 66.5508 19.3672 66.6562 19.75 66.8672 20.0078C 67.0781 20.2578 67.4375 20.3828 67.9453 20.3828C 68.1953 20.3828 68.5391 20.3359 68.9766 20.2422L 68.9766 22C 68.4062 22.1562 67.8516 22.2344 67.3125 22.2344C 66.3438 22.2344 65.6133 21.9414 65.1211 21.3555C 64.6289 20.7695 64.3828 19.9375 64.3828 18.8594L 64.3828 10.9961L 62.0742 10.9961L 62.0742 9.32031L 64.3828 9.32031L 64.3828 6.25L 66.5508 6.25Z"/>
<path id="path2_fill" d="M 14.5312 16.5859C 14.3203 18.3906 13.6523 19.7852 12.5273 20.7695C 11.4102 21.7461 9.92188 22.2344 8.0625 22.2344C 6.04688 22.2344 4.42969 21.5117 3.21094 20.0664C 2 18.6211 1.39453 16.6875 1.39453 14.2656L 1.39453 12.625C 1.39453 11.0391 1.67578 9.64453 2.23828 8.44141C 2.80859 7.23828 3.61328 6.31641 4.65234 5.67578C 5.69141 5.02734 6.89453 4.70312 8.26172 4.70312C 10.0742 4.70312 11.5273 5.21094 12.6211 6.22656C 13.7148 7.23438 14.3516 8.63281 14.5312 10.4219L 12.2695 10.4219C 12.0742 9.0625 11.6484 8.07812 10.9922 7.46875C 10.3438 6.85938 9.43359 6.55469 8.26172 6.55469C 6.82422 6.55469 5.69531 7.08594 4.875 8.14844C 4.0625 9.21094 3.65625 10.7227 3.65625 12.6836L 3.65625 14.3359C 3.65625 16.1875 4.04297 17.6602 4.81641 18.7539C 5.58984 19.8477 6.67188 20.3945 8.0625 20.3945C 9.3125 20.3945 10.2695 20.1133 10.9336 19.5508C 11.6055 18.9805 12.0508 17.9922 12.2695 16.5859L 14.5312 16.5859ZM 19.4414 10.8555C 20.4023 9.67578 21.6523 9.08594 23.1914 9.08594C 25.8711 9.08594 27.2227 10.5977 27.2461 13.6211L 27.2461 22L 25.0781 22L 25.0781 13.6094C 25.0703 12.6953 24.8594 12.0195 24.4453 11.582C 24.0391 11.1445 23.4023 10.9258 22.5352 10.9258C 21.832 10.9258 21.2148 11.1133 20.6836 11.4883C 20.1523 11.8633 19.7383 12.3555 19.4414 12.9648L 19.4414 22L 17.2734 22L 17.2734 4L 19.4414 4L 19.4414 10.8555ZM 32.8477 22L 30.6797 22L 30.6797 9.32031L 32.8477 9.32031L 32.8477 22ZM 30.5039 5.95703C 30.5039 5.60547 30.6094 5.30859 30.8203 5.06641C 31.0391 4.82422 31.3594 4.70312 31.7812 4.70312C 32.2031 4.70312 32.5234 4.82422 32.7422 5.06641C 32.9609 5.30859 33.0703 5.60547 33.0703 5.95703C 33.0703 6.30859 32.9609 6.60156 32.7422 6.83594C 32.5234 7.07031 32.2031 7.1875 31.7812 7.1875C 31.3594 7.1875 31.0391 7.07031 30.8203 6.83594C 30.6094 6.60156 30.5039 6.30859 30.5039 5.95703ZM 38.6836 22L 36.5156 22L 36.5156 4L 38.6836 4L 38.6836 22ZM 41.6367 15.5547C 41.6367 13.6094 42.0977 12.0469 43.0195 10.8672C 43.9414 9.67969 45.1484 9.08594 46.6406 9.08594C 48.125 9.08594 49.3008 9.59375 50.168 10.6094L 50.168 4L 52.3359 4L 52.3359 22L 50.3438 22L 50.2383 20.6406C 49.3711 21.7031 48.1641 22.2344 46.6172 22.2344C 45.1484 22.2344 43.9492 21.6328 43.0195 20.4297C 42.0977 19.2266 41.6367 17.6562 41.6367 15.7188L 41.6367 15.5547ZM 43.8047 15.8008C 43.8047 17.2383 44.1016 18.3633 44.6953 19.1758C 45.2891 19.9883 46.1094 20.3945 47.1562 20.3945C 48.5312 20.3945 49.5352 19.7773 50.168 18.543L 50.168 12.7188C 49.5195 11.5234 48.5234 10.9258 47.1797 10.9258C 46.1172 10.9258 45.2891 11.3359 44.6953 12.1562C 44.1016 12.9766 43.8047 14.1914 43.8047 15.8008Z"/>
<path id="path3_stroke" d="M 96.3536 0.353553C 96.5488 0.158291 96.5488 -0.158291 96.3536 -0.353553L 93.1716 -3.53553C 92.9763 -3.7308 92.6597 -3.7308 92.4645 -3.53553C 92.2692 -3.34027 92.2692 -3.02369 92.4645 -2.82843L 95.2929 0L 92.4645 2.82843C 92.2692 3.02369 92.2692 3.34027 92.4645 3.53553C 92.6597 3.7308 92.9763 3.7308 93.1716 3.53553L 96.3536 0.353553ZM 0 0.5L 96 0.5L 96 -0.5L 0 -0.5L 0 0.5Z"/>
<path id="path4_fill" d="M 6.72656 20.4648C 7.5 20.4648 8.17578 20.2305 8.75391 19.7617C 9.33203 19.293 9.65234 18.707 9.71484 18.0039L 11.7656 18.0039C 11.7266 18.7305 11.4766 19.4219 11.0156 20.0781C 10.5547 20.7344 9.9375 21.2578 9.16406 21.6484C 8.39844 22.0391 7.58594 22.2344 6.72656 22.2344C 5 22.2344 3.625 21.6602 2.60156 20.5117C 1.58594 19.3555 1.07812 17.7773 1.07812 15.7773L 1.07812 15.4141C 1.07812 14.1797 1.30469 13.082 1.75781 12.1211C 2.21094 11.1602 2.85938 10.4141 3.70312 9.88281C 4.55469 9.35156 5.55859 9.08594 6.71484 9.08594C 8.13672 9.08594 9.31641 9.51172 10.2539 10.3633C 11.1992 11.2148 11.7031 12.3203 11.7656 13.6797L 9.71484 13.6797C 9.65234 12.8594 9.33984 12.1875 8.77734 11.6641C 8.22266 11.1328 7.53516 10.8672 6.71484 10.8672C 5.61328 10.8672 4.75781 11.2656 4.14844 12.0625C 3.54688 12.8516 3.24609 13.9961 3.24609 15.4961L 3.24609 15.9062C 3.24609 17.3672 3.54688 18.4922 4.14844 19.2812C 4.75 20.0703 5.60938 20.4648 6.72656 20.4648ZM 16.3711 10.8555C 17.332 9.67578 18.582 9.08594 20.1211 9.08594C 22.8008 9.08594 24.1523 10.5977 24.1758 13.6211L 24.1758 22L 22.0078 22L 22.0078 13.6094C 22 12.6953 21.7891 12.0195 21.375 11.582C 20.9688 11.1445 20.332 10.9258 19.4648 10.9258C 18.7617 10.9258 18.1445 11.1133 17.6133 11.4883C 17.082 11.8633 16.668 12.3555 16.3711 12.9648L 16.3711 22L 14.2031 22L 14.2031 4L 16.3711 4L 16.3711 10.8555ZM 29.7773 22L 27.6094 22L 27.6094 9.32031L 29.7773 9.32031L 29.7773 22ZM 27.4336 5.95703C 27.4336 5.60547 27.5391 5.30859 27.75 5.06641C 27.9688 4.82422 28.2891 4.70312 28.7109 4.70312C 29.1328 4.70312 29.4531 4.82422 29.6719 5.06641C 29.8906 5.30859 30 5.60547 30 5.95703C 30 6.30859 29.8906 6.60156 29.6719 6.83594C 29.4531 7.07031 29.1328 7.1875 28.7109 7.1875C 28.2891 7.1875 27.9688 7.07031 27.75 6.83594C 27.5391 6.60156 27.4336 6.30859 27.4336 5.95703ZM 35.6133 22L 33.4453 22L 33.4453 4L 35.6133 4L 35.6133 22ZM 38.5664 15.5547C 38.5664 13.6094 39.0273 12.0469 39.9492 10.8672C 40.8711 9.67969 42.0781 9.08594 43.5703 9.08594C 45.0547 9.08594 46.2305 9.59375 47.0977 10.6094L 47.0977 4L 49.2656 4L 49.2656 22L 47.2734 22L 47.168 20.6406C 46.3008 21.7031 45.0938 22.2344 43.5469 22.2344C 42.0781 22.2344 40.8789 21.6328 39.9492 20.4297C 39.0273 19.2266 38.5664 17.6562 38.5664 15.7188L 38.5664 15.5547ZM 40.7344 15.8008C 40.7344 17.2383 41.0312 18.3633 41.625 19.1758C 42.2188 19.9883 43.0391 20.3945 44.0859 20.3945C 45.4609 20.3945 46.4648 19.7773 47.0977 18.543L 47.0977 12.7188C 46.4492 11.5234 45.4531 10.9258 44.1094 10.9258C 43.0469 10.9258 42.2188 11.3359 41.625 12.1562C 41.0312 12.9766 40.7344 14.1914 40.7344 15.8008ZM 61.7812 23.7695L 51.0469 23.7695L 51.0469 22L 61.7812 22L 61.7812 23.7695ZM 68.5547 20.4648C 69.3281 20.4648 70.0039 20.2305 70.582 19.7617C 71.1602 19.293 71.4805 18.707 71.543 18.0039L 73.5938 18.0039C 73.5547 18.7305 73.3047 19.4219 72.8438 20.0781C 72.3828 20.7344 71.7656 21.2578 70.9922 21.6484C 70.2266 22.0391 69.4141 22.2344 68.5547 22.2344C 66.8281 22.2344 65.4531 21.6602 64.4297 20.5117C 63.4141 19.3555 62.9062 17.7773 62.9062 15.7773L 62.9062 15.4141C 62.9062 14.1797 63.1328 13.082 63.5859 12.1211C 64.0391 11.1602 64.6875 10.4141 65.5312 9.88281C 66.3828 9.35156 67.3867 9.08594 68.543 9.08594C 69.9648 9.08594 71.1445 9.51172 72.082 10.3633C 73.0273 11.2148 73.5312 12.3203 73.5938 13.6797L 71.543 13.6797C 71.4805 12.8594 71.168 12.1875 70.6055 11.6641C 70.0508 11.1328 69.3633 10.8672 68.543 10.8672C 67.4414 10.8672 66.5859 11.2656 65.9766 12.0625C 65.375 12.8516 65.0742 13.9961 65.0742 15.4961L 65.0742 15.9062C 65.0742 17.3672 65.375 18.4922 65.9766 19.2812C 66.5781 20.0703 67.4375 20.4648 68.5547 20.4648ZM 75.457 15.543C 75.457 14.3008 75.6992 13.1836 76.1836 12.1914C 76.6758 11.1992 77.3555 10.4336 78.2227 9.89453C 79.0977 9.35547 80.0938 9.08594 81.2109 9.08594C 82.9375 9.08594 84.332 9.68359 85.3945 10.8789C 86.4648 12.0742 87 13.6641 87 15.6484L 87 15.8008C 87 17.0352 86.7617 18.1445 86.2852 19.1289C 85.8164 20.1055 85.1406 20.8672 84.2578 21.4141C 83.3828 21.9609 82.375 22.2344 81.2344 22.2344C 79.5156 22.2344 78.1211 21.6367 77.0508 20.4414C 75.9883 19.2461 75.457 17.6641 75.457 15.6953L 75.457 15.543ZM 77.6367 15.8008C 77.6367 17.207 77.9609 18.3359 78.6094 19.1875C 79.2656 20.0391 80.1406 20.4648 81.2344 20.4648C 82.3359 20.4648 83.2109 20.0352 83.8594 19.1758C 84.5078 18.3086 84.832 17.0977 84.832 15.543C 84.832 14.1523 84.5 13.0273 83.8359 12.168C 83.1797 11.3008 82.3047 10.8672 81.2109 10.8672C 80.1406 10.8672 79.2773 11.293 78.6211 12.1445C 77.9648 12.9961 77.6367 14.2148 77.6367 15.8008ZM 91.7695 9.32031L 91.8398 10.9141C 92.8086 9.69531 94.0742 9.08594 95.6367 9.08594C 98.3164 9.08594 99.668 10.5977 99.6914 13.6211L 99.6914 22L 97.5234 22L 97.5234 13.6094C 97.5156 12.6953 97.3047 12.0195 96.8906 11.582C 96.4844 11.1445 95.8477 10.9258 94.9805 10.9258C 94.2773 10.9258 93.6602 11.1133 93.1289 11.4883C 92.5977 11.8633 92.1836 12.3555 91.8867 12.9648L 91.8867 22L 89.7188 22L 89.7188 9.32031L 91.7695 9.32031ZM 105.012 9.32031L 105.082 10.9141C 106.051 9.69531 107.316 9.08594 108.879 9.08594C 111.559 9.08594 112.91 10.5977 112.934 13.6211L 112.934 22L 110.766 22L 110.766 13.6094C 110.758 12.6953 110.547 12.0195 110.133 11.582C 109.727 11.1445 109.09 10.9258 108.223 10.9258C 107.52 10.9258 106.902 11.1133 106.371 11.4883C 105.84 11.8633 105.426 12.3555 105.129 12.9648L 105.129 22L 102.961 22L 102.961 9.32031L 105.012 9.32031ZM 116.25 20.8633C 116.25 20.4883 116.359 20.1758 116.578 19.9258C 116.805 19.6758 117.141 19.5508 117.586 19.5508C 118.031 19.5508 118.367 19.6758 118.594 19.9258C 118.828 20.1758 118.945 20.4883 118.945 20.8633C 118.945 21.2227 118.828 21.5234 118.594 21.7656C 118.367 22.0078 118.031 22.1289 117.586 22.1289C 117.141 22.1289 116.805 22.0078 116.578 21.7656C 116.359 21.5234 116.25 21.2227 116.25 20.8633ZM 129.914 18.6367C 129.914 18.0508 129.691 17.5977 129.246 17.2773C 128.809 16.9492 128.039 16.668 126.938 16.4336C 125.844 16.1992 124.973 15.918 124.324 15.5898C 123.684 15.2617 123.207 14.8711 122.895 14.418C 122.59 13.9648 122.438 13.4258 122.438 12.8008C 122.438 11.7617 122.875 10.8828 123.75 10.1641C 124.633 9.44531 125.758 9.08594 127.125 9.08594C 128.562 9.08594 129.727 9.45703 130.617 10.1992C 131.516 10.9414 131.965 11.8906 131.965 13.0469L 129.785 13.0469C 129.785 12.4531 129.531 11.9414 129.023 11.5117C 128.523 11.082 127.891 10.8672 127.125 10.8672C 126.336 10.8672 125.719 11.0391 125.273 11.3828C 124.828 11.7266 124.605 12.1758 124.605 12.7305C 124.605 13.2539 124.812 13.6484 125.227 13.9141C 125.641 14.1797 126.387 14.4336 127.465 14.6758C 128.551 14.918 129.43 15.207 130.102 15.543C 130.773 15.8789 131.27 16.2852 131.59 16.7617C 131.918 17.2305 132.082 17.8047 132.082 18.4844C 132.082 19.6172 131.629 20.5273 130.723 21.2148C 129.816 21.8945 128.641 22.2344 127.195 22.2344C 126.18 22.2344 125.281 22.0547 124.5 21.6953C 123.719 21.3359 123.105 20.8359 122.66 20.1953C 122.223 19.5469 122.004 18.8477 122.004 18.0977L 124.172 18.0977C 124.211 18.8242 124.5 19.4023 125.039 19.832C 125.586 20.2539 126.305 20.4648 127.195 20.4648C 128.016 20.4648 128.672 20.3008 129.164 19.9727C 129.664 19.6367 129.914 19.1914 129.914 18.6367ZM 140.168 22.2344C 138.449 22.2344 137.051 21.6719 135.973 20.5469C 134.895 19.4141 134.355 17.9023 134.355 16.0117L 134.355 15.6133C 134.355 14.3555 134.594 13.2344 135.07 12.25C 135.555 11.2578 136.227 10.4844 137.086 9.92969C 137.953 9.36719 138.891 9.08594 139.898 9.08594C 141.547 9.08594 142.828 9.62891 143.742 10.7148C 144.656 11.8008 145.113 13.3555 145.113 15.3789L 145.113 16.2812L 136.523 16.2812C 136.555 17.5312 136.918 18.543 137.613 19.3164C 138.316 20.082 139.207 20.4648 140.285 20.4648C 141.051 20.4648 141.699 20.3086 142.23 19.9961C 142.762 19.6836 143.227 19.2695 143.625 18.7539L 144.949 19.7852C 143.887 21.418 142.293 22.2344 140.168 22.2344ZM 139.898 10.8672C 139.023 10.8672 138.289 11.1875 137.695 11.8281C 137.102 12.4609 136.734 13.3516 136.594 14.5L 142.945 14.5L 142.945 14.3359C 142.883 13.2344 142.586 12.3828 142.055 11.7812C 141.523 11.1719 140.805 10.8672 139.898 10.8672ZM 149.684 9.32031L 149.754 10.9141C 150.723 9.69531 151.988 9.08594 153.551 9.08594C 156.23 9.08594 157.582 10.5977 157.605 13.6211L 157.605 22L 155.438 22L 155.438 13.6094C 155.43 12.6953 155.219 12.0195 154.805 11.582C 154.398 11.1445 153.762 10.9258 152.895 10.9258C 152.191 10.9258 151.574 11.1133 151.043 11.4883C 150.512 11.8633 150.098 12.3555 149.801 12.9648L 149.801 22L 147.633 22L 147.633 9.32031L 149.684 9.32031ZM 160.348 15.5547C 160.348 13.6094 160.809 12.0469 161.73 10.8672C 162.652 9.67969 163.859 9.08594 165.352 9.08594C 166.836 9.08594 168.012 9.59375 168.879 10.6094L 168.879 4L 171.047 4L 171.047 22L 169.055 22L 168.949 20.6406C 168.082 21.7031 166.875 22.2344 165.328 22.2344C 163.859 22.2344 162.66 21.6328 161.73 20.4297C 160.809 19.2266 160.348 17.6562 160.348 15.7188L 160.348 15.5547ZM 162.516 15.8008C 162.516 17.2383 162.812 18.3633 163.406 19.1758C 164 19.9883 164.82 20.3945 165.867 20.3945C 167.242 20.3945 168.246 19.7773 168.879 18.543L 168.879 12.7188C 168.23 11.5234 167.234 10.9258 165.891 10.9258C 164.828 10.9258 164 11.3359 163.406 12.1562C 162.812 12.9766 162.516 14.1914 162.516 15.8008ZM 174.34 15.0742C 174.34 13.3086 174.574 11.6133 175.043 9.98828C 175.52 8.36328 176.227 6.88672 177.164 5.55859C 178.102 4.23047 179.074 3.29297 180.082 2.74609L 180.527 4.17578C 179.387 5.05078 178.449 6.38672 177.715 8.18359C 176.988 9.98047 176.59 11.9922 176.52 14.2188L 176.508 15.2148C 176.508 18.2305 177.059 20.8477 178.16 23.0664C 178.824 24.3945 179.613 25.4336 180.527 26.1836L 180.082 27.5078C 179.043 26.9297 178.051 25.9609 177.105 24.6016C 175.262 21.9453 174.34 18.7695 174.34 15.0742ZM 187.887 22.2344C 186.168 22.2344 184.77 21.6719 183.691 20.5469C 182.613 19.4141 182.074 17.9023 182.074 16.0117L 182.074 15.6133C 182.074 14.3555 182.312 13.2344 182.789 12.25C 183.273 11.2578 183.945 10.4844 184.805 9.92969C 185.672 9.36719 186.609 9.08594 187.617 9.08594C 189.266 9.08594 190.547 9.62891 191.461 10.7148C 192.375 11.8008 192.832 13.3555 192.832 15.3789L 192.832 16.2812L 184.242 16.2812C 184.273 17.5312 184.637 18.543 185.332 19.3164C 186.035 20.082 186.926 20.4648 188.004 20.4648C 188.77 20.4648 189.418 20.3086 189.949 19.9961C 190.48 19.6836 190.945 19.2695 191.344 18.7539L 192.668 19.7852C 191.605 21.418 190.012 22.2344 187.887 22.2344ZM 187.617 10.8672C 186.742 10.8672 186.008 11.1875 185.414 11.8281C 184.82 12.4609 184.453 13.3516 184.312 14.5L 190.664 14.5L 190.664 14.3359C 190.602 13.2344 190.305 12.3828 189.773 11.7812C 189.242 11.1719 188.523 10.8672 187.617 10.8672ZM 197.391 9.32031L 197.449 10.7266C 198.379 9.63281 199.633 9.08594 201.211 9.08594C 202.984 9.08594 204.191 9.76562 204.832 11.125C 205.254 10.5156 205.801 10.0234 206.473 9.64844C 207.152 9.27344 207.953 9.08594 208.875 9.08594C 211.656 9.08594 213.07 10.5586 213.117 13.5039L 213.117 22L 210.949 22L 210.949 13.6328C 210.949 12.7266 210.742 12.0508 210.328 11.6055C 209.914 11.1523 209.219 10.9258 208.242 10.9258C 207.438 10.9258 206.77 11.168 206.238 11.6523C 205.707 12.1289 205.398 12.7734 205.312 13.5859L 205.312 22L 203.133 22L 203.133 13.6914C 203.133 11.8477 202.23 10.9258 200.426 10.9258C 199.004 10.9258 198.031 11.5312 197.508 12.7422L 197.508 22L 195.34 22L 195.34 9.32031L 197.391 9.32031ZM 224.227 22C 224.102 21.75 224 21.3047 223.922 20.6641C 222.914 21.7109 221.711 22.2344 220.312 22.2344C 219.062 22.2344 218.035 21.8828 217.23 21.1797C 216.434 20.4688 216.035 19.5703 216.035 18.4844C 216.035 17.1641 216.535 16.1406 217.535 15.4141C 218.543 14.6797 219.957 14.3125 221.777 14.3125L 223.887 14.3125L 223.887 13.3164C 223.887 12.5586 223.66 11.957 223.207 11.5117C 222.754 11.0586 222.086 10.832 221.203 10.832C 220.43 10.832 219.781 11.0273 219.258 11.418C 218.734 11.8086 218.473 12.2812 218.473 12.8359L 216.293 12.8359C 216.293 12.2031 216.516 11.5938 216.961 11.0078C 217.414 10.4141 218.023 9.94531 218.789 9.60156C 219.562 9.25781 220.41 9.08594 221.332 9.08594C 222.793 9.08594 223.938 9.45312 224.766 10.1875C 225.594 10.9141 226.023 11.918 226.055 13.1992L 226.055 19.0352C 226.055 20.1992 226.203 21.125 226.5 21.8125L 226.5 22L 224.227 22ZM 220.629 20.3477C 221.309 20.3477 221.953 20.1719 222.562 19.8203C 223.172 19.4688 223.613 19.0117 223.887 18.4492L 223.887 15.8477L 222.188 15.8477C 219.531 15.8477 218.203 16.625 218.203 18.1797C 218.203 18.8594 218.43 19.3906 218.883 19.7734C 219.336 20.1562 219.918 20.3477 220.629 20.3477ZM 231.809 22L 229.641 22L 229.641 9.32031L 231.809 9.32031L 231.809 22ZM 229.465 5.95703C 229.465 5.60547 229.57 5.30859 229.781 5.06641C 230 4.82422 230.32 4.70312 230.742 4.70312C 231.164 4.70312 231.484 4.82422 231.703 5.06641C 231.922 5.30859 232.031 5.60547 232.031 5.95703C 232.031 6.30859 231.922 6.60156 231.703 6.83594C 231.484 7.07031 231.164 7.1875 230.742 7.1875C 230.32 7.1875 230 7.07031 229.781 6.83594C 229.57 6.60156 229.465 6.30859 229.465 5.95703ZM 237.645 22L 235.477 22L 235.477 4L 237.645 4L 237.645 22ZM 246.129 15.1914C 246.129 16.9336 245.898 18.6055 245.438 20.207C 244.984 21.8008 244.285 23.2734 243.34 24.625C 242.402 25.9766 241.418 26.9375 240.387 27.5078L 239.93 26.1836C 241.133 25.2617 242.098 23.832 242.824 21.8945C 243.559 19.9492 243.934 17.793 243.949 15.4258L 243.949 15.0508C 243.949 13.4102 243.777 11.8867 243.434 10.4805C 243.09 9.06641 242.609 7.80078 241.992 6.68359C 241.383 5.56641 240.695 4.69531 239.93 4.07031L 240.387 2.74609C 241.418 3.31641 242.398 4.26953 243.328 5.60547C 244.266 6.94141 244.965 8.41406 245.426 10.0234C 245.895 11.6328 246.129 13.3555 246.129 15.1914Z"/>
<path id="path5_fill" d="M 4.23047 15.3203L 4.23047 22L 1.98047 22L 1.98047 4.9375L 8.27344 4.9375C 10.1406 4.9375 11.6016 5.41406 12.6562 6.36719C 13.7188 7.32031 14.25 8.58203 14.25 10.1523C 14.25 11.8086 13.7305 13.0859 12.6914 13.9844C 11.6602 14.875 10.1797 15.3203 8.25 15.3203L 4.23047 15.3203ZM 4.23047 13.4805L 8.27344 13.4805C 9.47656 13.4805 10.3984 13.1992 11.0391 12.6367C 11.6797 12.0664 12 11.2461 12 10.1758C 12 9.16016 11.6797 8.34766 11.0391 7.73828C 10.3984 7.12891 9.51953 6.8125 8.40234 6.78906L 4.23047 6.78906L 4.23047 13.4805ZM 19.1367 22L 16.9688 22L 16.9688 9.32031L 19.1367 9.32031L 19.1367 22ZM 16.793 5.95703C 16.793 5.60547 16.8984 5.30859 17.1094 5.06641C 17.3281 4.82422 17.6484 4.70312 18.0703 4.70312C 18.4922 4.70312 18.8125 4.82422 19.0312 5.06641C 19.25 5.30859 19.3594 5.60547 19.3594 5.95703C 19.3594 6.30859 19.25 6.60156 19.0312 6.83594C 18.8125 7.07031 18.4922 7.1875 18.0703 7.1875C 17.6484 7.1875 17.3281 7.07031 17.1094 6.83594C 16.8984 6.60156 16.793 6.30859 16.793 5.95703ZM 33.3281 15.8008C 33.3281 17.7305 32.8867 19.2852 32.0039 20.4648C 31.1211 21.6445 29.9258 22.2344 28.418 22.2344C 26.8789 22.2344 25.668 21.7461 24.7852 20.7695L 24.7852 26.875L 22.6172 26.875L 22.6172 9.32031L 24.5977 9.32031L 24.7031 10.7266C 25.5859 9.63281 26.8125 9.08594 28.3828 9.08594C 29.9062 9.08594 31.1094 9.66016 31.9922 10.8086C 32.8828 11.957 33.3281 13.5547 33.3281 15.6016L 33.3281 15.8008ZM 31.1602 15.5547C 31.1602 14.125 30.8555 12.9961 30.2461 12.168C 29.6367 11.3398 28.8008 10.9258 27.7383 10.9258C 26.4258 10.9258 25.4414 11.5078 24.7852 12.6719L 24.7852 18.7305C 25.4336 19.8867 26.4258 20.4648 27.7617 20.4648C 28.8008 20.4648 29.625 20.0547 30.2344 19.2344C 30.8516 18.4062 31.1602 17.1797 31.1602 15.5547ZM 41.3555 22.2344C 39.6367 22.2344 38.2383 21.6719 37.1602 20.5469C 36.082 19.4141 35.543 17.9023 35.543 16.0117L 35.543 15.6133C 35.543 14.3555 35.7812 13.2344 36.2578 12.25C 36.7422 11.2578 37.4141 10.4844 38.2734 9.92969C 39.1406 9.36719 40.0781 9.08594 41.0859 9.08594C 42.7344 9.08594 44.0156 9.62891 44.9297 10.7148C 45.8438 11.8008 46.3008 13.3555 46.3008 15.3789L 46.3008 16.2812L 37.7109 16.2812C 37.7422 17.5312 38.1055 18.543 38.8008 19.3164C 39.5039 20.082 40.3945 20.4648 41.4727 20.4648C 42.2383 20.4648 42.8867 20.3086 43.418 19.9961C 43.9492 19.6836 44.4141 19.2695 44.8125 18.7539L 46.1367 19.7852C 45.0742 21.418 43.4805 22.2344 41.3555 22.2344ZM 41.0859 10.8672C 40.2109 10.8672 39.4766 11.1875 38.8828 11.8281C 38.2891 12.4609 37.9219 13.3516 37.7812 14.5L 44.1328 14.5L 44.1328 14.3359C 44.0703 13.2344 43.7734 12.3828 43.2422 11.7812C 42.7109 11.1719 41.9922 10.8672 41.0859 10.8672Z"/>
<path id="path6_stroke" d="M 0 0L 116 0L 116 -1L 0 -1L 0 0Z"/>
<path id="path7_fill" d="M 12.3516 15.8008C 12.3516 17.7305 11.9102 19.2852 11.0273 20.4648C 10.1445 21.6445 8.94922 22.2344 7.44141 22.2344C 5.90234 22.2344 4.69141 21.7461 3.80859 20.7695L 3.80859 26.875L 1.64062 26.875L 1.64062 9.32031L 3.62109 9.32031L 3.72656 10.7266C 4.60938 9.63281 5.83594 9.08594 7.40625 9.08594C 8.92969 9.08594 10.1328 9.66016 11.0156 10.8086C 11.9062 11.957 12.3516 13.5547 12.3516 15.6016L 12.3516 15.8008ZM 10.1836 15.5547C 10.1836 14.125 9.87891 12.9961 9.26953 12.168C 8.66016 11.3398 7.82422 10.9258 6.76172 10.9258C 5.44922 10.9258 4.46484 11.5078 3.80859 12.6719L 3.80859 18.7305C 4.45703 19.8867 5.44922 20.4648 6.78516 20.4648C 7.82422 20.4648 8.64844 20.0547 9.25781 19.2344C 9.875 18.4062 10.1836 17.1797 10.1836 15.5547ZM 22.9453 22C 22.8203 21.75 22.7188 21.3047 22.6406 20.6641C 21.6328 21.7109 20.4297 22.2344 19.0312 22.2344C 17.7812 22.2344 16.7539 21.8828 15.9492 21.1797C 15.1523 20.4688 14.7539 19.5703 14.7539 18.4844C 14.7539 17.1641 15.2539 16.1406 16.2539 15.4141C 17.2617 14.6797 18.6758 14.3125 20.4961 14.3125L 22.6055 14.3125L 22.6055 13.3164C 22.6055 12.5586 22.3789 11.957 21.9258 11.5117C 21.4727 11.0586 20.8047 10.832 19.9219 10.832C 19.1484 10.832 18.5 11.0273 17.9766 11.418C 17.4531 11.8086 17.1914 12.2812 17.1914 12.8359L 15.0117 12.8359C 15.0117 12.2031 15.2344 11.5938 15.6797 11.0078C 16.1328 10.4141 16.7422 9.94531 17.5078 9.60156C 18.2812 9.25781 19.1289 9.08594 20.0508 9.08594C 21.5117 9.08594 22.6562 9.45312 23.4844 10.1875C 24.3125 10.9141 24.7422 11.918 24.7734 13.1992L 24.7734 19.0352C 24.7734 20.1992 24.9219 21.125 25.2188 21.8125L 25.2188 22L 22.9453 22ZM 19.3477 20.3477C 20.0273 20.3477 20.6719 20.1719 21.2812 19.8203C 21.8906 19.4688 22.332 19.0117 22.6055 18.4492L 22.6055 15.8477L 20.9062 15.8477C 18.25 15.8477 16.9219 16.625 16.9219 18.1797C 16.9219 18.8594 17.1484 19.3906 17.6016 19.7734C 18.0547 20.1562 18.6367 20.3477 19.3477 20.3477ZM 34.3008 11.2656C 33.9727 11.2109 33.6172 11.1836 33.2344 11.1836C 31.8125 11.1836 30.8477 11.7891 30.3398 13L 30.3398 22L 28.1719 22L 28.1719 9.32031L 30.2812 9.32031L 30.3164 10.7852C 31.0273 9.65234 32.0352 9.08594 33.3398 9.08594C 33.7617 9.08594 34.082 9.14062 34.3008 9.25L 34.3008 11.2656ZM 41.3555 22.2344C 39.6367 22.2344 38.2383 21.6719 37.1602 20.5469C 36.082 19.4141 35.543 17.9023 35.543 16.0117L 35.543 15.6133C 35.543 14.3555 35.7812 13.2344 36.2578 12.25C 36.7422 11.2578 37.4141 10.4844 38.2734 9.92969C 39.1406 9.36719 40.0781 9.08594 41.0859 9.08594C 42.7344 9.08594 44.0156 9.62891 44.9297 10.7148C 45.8438 11.8008 46.3008 13.3555 46.3008 15.3789L 46.3008 16.2812L 37.7109 16.2812C 37.7422 17.5312 38.1055 18.543 38.8008 19.3164C 39.5039 20.082 40.3945 20.4648 41.4727 20.4648C 42.2383 20.4648 42.8867 20.3086 43.418 19.9961C 43.9492 19.6836 44.4141 19.2695 44.8125 18.7539L 46.1367 19.7852C 45.0742 21.418 43.4805 22.2344 41.3555 22.2344ZM 41.0859 10.8672C 40.2109 10.8672 39.4766 11.1875 38.8828 11.8281C 38.2891 12.4609 37.9219 13.3516 37.7812 14.5L 44.1328 14.5L 44.1328 14.3359C 44.0703 13.2344 43.7734 12.3828 43.2422 11.7812C 42.7109 11.1719 41.9922 10.8672 41.0859 10.8672ZM 50.8711 9.32031L 50.9414 10.9141C 51.9102 9.69531 53.1758 9.08594 54.7383 9.08594C 57.418 9.08594 58.7695 10.5977 58.793 13.6211L 58.793 22L 56.625 22L 56.625 13.6094C 56.6172 12.6953 56.4062 12.0195 55.9922 11.582C 55.5859 11.1445 54.9492 10.9258 54.082 10.9258C 53.3789 10.9258 52.7617 11.1133 52.2305 11.4883C 51.6992 11.8633 51.2852 12.3555 50.9883 12.9648L 50.9883 22L 48.8203 22L 48.8203 9.32031L 50.8711 9.32031ZM 65.0039 6.25L 65.0039 9.32031L 67.3711 9.32031L 67.3711 10.9961L 65.0039 10.9961L 65.0039 18.8594C 65.0039 19.3672 65.1094 19.75 65.3203 20.0078C 65.5312 20.2578 65.8906 20.3828 66.3984 20.3828C 66.6484 20.3828 66.9922 20.3359 67.4297 20.2422L 67.4297 22C 66.8594 22.1562 66.3047 22.2344 65.7656 22.2344C 64.7969 22.2344 64.0664 21.9414 63.5742 21.3555C 63.082 20.7695 62.8359 19.9375 62.8359 18.8594L 62.8359 10.9961L 60.5273 10.9961L 60.5273 9.32031L 62.8359 9.32031L 62.8359 6.25L 65.0039 6.25ZM 79.0547 23.7695L 68.3203 23.7695L 68.3203 22L 79.0547 22L 79.0547 23.7695ZM 85.8281 20.4648C 86.6016 20.4648 87.2773 20.2305 87.8555 19.7617C 88.4336 19.293 88.7539 18.707 88.8164 18.0039L 90.8672 18.0039C 90.8281 18.7305 90.5781 19.4219 90.1172 20.0781C 89.6562 20.7344 89.0391 21.2578 88.2656 21.6484C 87.5 22.0391 86.6875 22.2344 85.8281 22.2344C 84.1016 22.2344 82.7266 21.6602 81.7031 20.5117C 80.6875 19.3555 80.1797 17.7773 80.1797 15.7773L 80.1797 15.4141C 80.1797 14.1797 80.4062 13.082 80.8594 12.1211C 81.3125 11.1602 81.9609 10.4141 82.8047 9.88281C 83.6562 9.35156 84.6602 9.08594 85.8164 9.08594C 87.2383 9.08594 88.418 9.51172 89.3555 10.3633C 90.3008 11.2148 90.8047 12.3203 90.8672 13.6797L 88.8164 13.6797C 88.7539 12.8594 88.4414 12.1875 87.8789 11.6641C 87.3242 11.1328 86.6367 10.8672 85.8164 10.8672C 84.7148 10.8672 83.8594 11.2656 83.25 12.0625C 82.6484 12.8516 82.3477 13.9961 82.3477 15.4961L 82.3477 15.9062C 82.3477 17.3672 82.6484 18.4922 83.25 19.2812C 83.8516 20.0703 84.7109 20.4648 85.8281 20.4648ZM 92.7305 15.543C 92.7305 14.3008 92.9727 13.1836 93.457 12.1914C 93.9492 11.1992 94.6289 10.4336 95.4961 9.89453C 96.3711 9.35547 97.3672 9.08594 98.4844 9.08594C 100.211 9.08594 101.605 9.68359 102.668 10.8789C 103.738 12.0742 104.273 13.6641 104.273 15.6484L 104.273 15.8008C 104.273 17.0352 104.035 18.1445 103.559 19.1289C 103.09 20.1055 102.414 20.8672 101.531 21.4141C 100.656 21.9609 99.6484 22.2344 98.5078 22.2344C 96.7891 22.2344 95.3945 21.6367 94.3242 20.4414C 93.2617 19.2461 92.7305 17.6641 92.7305 15.6953L 92.7305 15.543ZM 94.9102 15.8008C 94.9102 17.207 95.2344 18.3359 95.8828 19.1875C 96.5391 20.0391 97.4141 20.4648 98.5078 20.4648C 99.6094 20.4648 100.484 20.0352 101.133 19.1758C 101.781 18.3086 102.105 17.0977 102.105 15.543C 102.105 14.1523 101.773 13.0273 101.109 12.168C 100.453 11.3008 99.5781 10.8672 98.4844 10.8672C 97.4141 10.8672 96.5508 11.293 95.8945 12.1445C 95.2383 12.9961 94.9102 14.2148 94.9102 15.8008ZM 109.043 9.32031L 109.113 10.9141C 110.082 9.69531 111.348 9.08594 112.91 9.08594C 115.59 9.08594 116.941 10.5977 116.965 13.6211L 116.965 22L 114.797 22L 114.797 13.6094C 114.789 12.6953 114.578 12.0195 114.164 11.582C 113.758 11.1445 113.121 10.9258 112.254 10.9258C 111.551 10.9258 110.934 11.1133 110.402 11.4883C 109.871 11.8633 109.457 12.3555 109.16 12.9648L 109.16 22L 106.992 22L 106.992 9.32031L 109.043 9.32031ZM 122.285 9.32031L 122.355 10.9141C 123.324 9.69531 124.59 9.08594 126.152 9.08594C 128.832 9.08594 130.184 10.5977 130.207 13.6211L 130.207 22L 128.039 22L 128.039 13.6094C 128.031 12.6953 127.82 12.0195 127.406 11.582C 127 11.1445 126.363 10.9258 125.496 10.9258C 124.793 10.9258 124.176 11.1133 123.645 11.4883C 123.113 11.8633 122.699 12.3555 122.402 12.9648L 122.402 22L 120.234 22L 120.234 9.32031L 122.285 9.32031ZM 133.523 20.8633C 133.523 20.4883 133.633 20.1758 133.852 19.9258C 134.078 19.6758 134.414 19.5508 134.859 19.5508C 135.305 19.5508 135.641 19.6758 135.867 19.9258C 136.102 20.1758 136.219 20.4883 136.219 20.8633C 136.219 21.2227 136.102 21.5234 135.867 21.7656C 135.641 22.0078 135.305 22.1289 134.859 22.1289C 134.414 22.1289 134.078 22.0078 133.852 21.7656C 133.633 21.5234 133.523 21.2227 133.523 20.8633ZM 145.934 11.2656C 145.605 11.2109 145.25 11.1836 144.867 11.1836C 143.445 11.1836 142.48 11.7891 141.973 13L 141.973 22L 139.805 22L 139.805 9.32031L 141.914 9.32031L 141.949 10.7852C 142.66 9.65234 143.668 9.08594 144.973 9.08594C 145.395 9.08594 145.715 9.14062 145.934 9.25L 145.934 11.2656ZM 152.988 22.2344C 151.27 22.2344 149.871 21.6719 148.793 20.5469C 147.715 19.4141 147.176 17.9023 147.176 16.0117L 147.176 15.6133C 147.176 14.3555 147.414 13.2344 147.891 12.25C 148.375 11.2578 149.047 10.4844 149.906 9.92969C 150.773 9.36719 151.711 9.08594 152.719 9.08594C 154.367 9.08594 155.648 9.62891 156.562 10.7148C 157.477 11.8008 157.934 13.3555 157.934 15.3789L 157.934 16.2812L 149.344 16.2812C 149.375 17.5312 149.738 18.543 150.434 19.3164C 151.137 20.082 152.027 20.4648 153.105 20.4648C 153.871 20.4648 154.52 20.3086 155.051 19.9961C 155.582 19.6836 156.047 19.2695 156.445 18.7539L 157.77 19.7852C 156.707 21.418 155.113 22.2344 152.988 22.2344ZM 152.719 10.8672C 151.844 10.8672 151.109 11.1875 150.516 11.8281C 149.922 12.4609 149.555 13.3516 149.414 14.5L 155.766 14.5L 155.766 14.3359C 155.703 13.2344 155.406 12.3828 154.875 11.7812C 154.344 11.1719 153.625 10.8672 152.719 10.8672ZM 165.539 20.4648C 166.312 20.4648 166.988 20.2305 167.566 19.7617C 168.145 19.293 168.465 18.707 168.527 18.0039L 170.578 18.0039C 170.539 18.7305 170.289 19.4219 169.828 20.0781C 169.367 20.7344 168.75 21.2578 167.977 21.6484C 167.211 22.0391 166.398 22.2344 165.539 22.2344C 163.812 22.2344 162.438 21.6602 161.414 20.5117C 160.398 19.3555 159.891 17.7773 159.891 15.7773L 159.891 15.4141C 159.891 14.1797 160.117 13.082 160.57 12.1211C 161.023 11.1602 161.672 10.4141 162.516 9.88281C 163.367 9.35156 164.371 9.08594 165.527 9.08594C 166.949 9.08594 168.129 9.51172 169.066 10.3633C 170.012 11.2148 170.516 12.3203 170.578 13.6797L 168.527 13.6797C 168.465 12.8594 168.152 12.1875 167.59 11.6641C 167.035 11.1328 166.348 10.8672 165.527 10.8672C 164.426 10.8672 163.57 11.2656 162.961 12.0625C 162.359 12.8516 162.059 13.9961 162.059 15.4961L 162.059 15.9062C 162.059 17.3672 162.359 18.4922 162.961 19.2812C 163.562 20.0703 164.422 20.4648 165.539 20.4648ZM 177.199 19.0586L 180.34 9.32031L 182.555 9.32031L 178.008 22L 176.355 22L 171.762 9.32031L 173.977 9.32031L 177.199 19.0586ZM 184.559 15.0742C 184.559 13.3086 184.793 11.6133 185.262 9.98828C 185.738 8.36328 186.445 6.88672 187.383 5.55859C 188.32 4.23047 189.293 3.29297 190.301 2.74609L 190.746 4.17578C 189.605 5.05078 188.668 6.38672 187.934 8.18359C 187.207 9.98047 186.809 11.9922 186.738 14.2188L 186.727 15.2148C 186.727 18.2305 187.277 20.8477 188.379 23.0664C 189.043 24.3945 189.832 25.4336 190.746 26.1836L 190.301 27.5078C 189.262 26.9297 188.27 25.9609 187.324 24.6016C 185.48 21.9453 184.559 18.7695 184.559 15.0742ZM 197.848 15.1914C 197.848 16.9336 197.617 18.6055 197.156 20.207C 196.703 21.8008 196.004 23.2734 195.059 24.625C 194.121 25.9766 193.137 26.9375 192.105 27.5078L 191.648 26.1836C 192.852 25.2617 193.816 23.832 194.543 21.8945C 195.277 19.9492 195.652 17.793 195.668 15.4258L 195.668 15.0508C 195.668 13.4102 195.496 11.8867 195.152 10.4805C 194.809 9.06641 194.328 7.80078 193.711 6.68359C 193.102 5.56641 192.414 4.69531 191.648 4.07031L 192.105 2.74609C 193.137 3.31641 194.117 4.26953 195.047 5.60547C 195.984 6.94141 196.684 8.41406 197.145 10.0234C 197.613 11.6328 197.848 13.3555 197.848 15.1914Z"/>
</defs>
</svg>
