<svg width="362" height="639" viewBox="0 0 362 639" version="1.1" xmlns="http://www.w3.org/2000/svg" xmlns:xlink="http://www.w3.org/1999/xlink" xmlns:figma="http://www.figma.com/figma/ns">
<title>memory_pointers</title>
<desc>Created using Figma</desc>
<g id="Canvas" transform="translate(82 447)" figma:type="canvas">
<g id="list = [1,2,&#226;&#128;&#157;a&#226;&#128;&#157;,1.1]" figma:type="text">
<use xlink:href="#path0_fill" transform="translate(93 -449)"/>
</g>
<g id="Python" figma:type="text">
<use xlink:href="#path1_fill" transform="translate(-75 -372)"/>
</g>
<g id="Rectangle" figma:type="rounded-rectangle">
<use xlink:href="#path2_fill" transform="translate(80 -383)" fill="#C4C4C4"/>
</g>
<g id="1" figma:type="text">
<use xlink:href="#path3_fill" transform="translate(98 -372)"/>
</g>
<g id="Rectangle" figma:type="rounded-rectangle">
<use xlink:href="#path2_fill" transform="translate(80 -383)" fill="#6FCF97"/>
</g>
<g id="1" figma:type="text">
<use xlink:href="#path3_fill" transform="translate(98 -372)" fill="#F2F2F2"/>
</g>
<g id="Rectangle" figma:type="rounded-rectangle">
<use xlink:href="#path2_fill" transform="translate(130 -383)" fill="#6FCF97"/>
</g>
<g id="2" figma:type="text">
<use xlink:href="#path4_fill" transform="translate(148 -372)" fill="#F2F2F2"/>
</g>
<g id="Rectangle" figma:type="rounded-rectangle">
<use xlink:href="#path2_fill" transform="translate(180 -383)" fill="#C4C4C4"/>
</g>
<g id="&#226;&#128;&#156;a&#226;&#128;&#157;" figma:type="text">
<use xlink:href="#path5_fill" transform="translate(190 -372)"/>
</g>
<g id="Rectangle" figma:type="rounded-rectangle">
<use xlink:href="#path2_fill" transform="translate(180 -383)" fill="#6FCF97"/>
</g>
<g id="&#226;&#128;&#156;a&#226;&#128;&#157;" figma:type="text">
<use xlink:href="#path5_fill" transform="translate(190 -372)" fill="#F2F2F2"/>
</g>
<g id="Rectangle" figma:type="rounded-rectangle">
<use xlink:href="#path2_fill" transform="translate(230 -383)" fill="#C4C4C4"/>
</g>
<g id="&#226;&#128;&#156;a&#226;&#128;&#157;" figma:type="text">
<use xlink:href="#path5_fill" transform="translate(240 -372)"/>
</g>
<g id="Rectangle" figma:type="rounded-rectangle">
<use xlink:href="#path2_fill" transform="translate(230 -383)" fill="#6FCF97"/>
</g>
<g id="1.1" figma:type="text">
<use xlink:href="#path6_fill" transform="translate(238 -372)" fill="#F2F2F2"/>
</g>
<g id="Rectangle" figma:type="rounded-rectangle">
<use xlink:href="#path2_fill" transform="translate(80 -307)" fill="#C4C4C4"/>
</g>
<g id="1" figma:type="text">
<use xlink:href="#path3_fill" transform="translate(98 -296)"/>
</g>
<g id="Rectangle" figma:type="rounded-rectangle">
<use xlink:href="#path2_fill" transform="translate(80 -307)" fill="#6FCF97"/>
</g>
<g id="0xb" figma:type="text">
<use xlink:href="#path7_fill" transform="translate(84 -296)" fill="#F2F2F2"/>
</g>
<g id="Rectangle" figma:type="rounded-rectangle">
<use xlink:href="#path2_fill" transform="translate(130 -307)" fill="#6FCF97"/>
</g>
<g id="0xa" figma:type="text">
<use xlink:href="#path8_fill" transform="translate(136 -296)" fill="#F2F2F2"/>
</g>
<g id="Rectangle" figma:type="rounded-rectangle">
<use xlink:href="#path2_fill" transform="translate(180 -307)" fill="#C4C4C4"/>
</g>
<g id="&#226;&#128;&#156;a&#226;&#128;&#157;" figma:type="text">
<use xlink:href="#path5_fill" transform="translate(190 -296)"/>
</g>
<g id="Rectangle" figma:type="rounded-rectangle">
<use xlink:href="#path2_fill" transform="translate(180 -307)" fill="#6FCF97"/>
</g>
<g id="0xg" figma:type="text">
<use xlink:href="#path9_fill" transform="translate(185 -296)" fill="#F2F2F2"/>
</g>
<g id="Rectangle" figma:type="rounded-rectangle">
<use xlink:href="#path2_fill" transform="translate(230 -307)" fill="#C4C4C4"/>
</g>
<g id="&#226;&#128;&#156;a&#226;&#128;&#157;" figma:type="text">
<use xlink:href="#path5_fill" transform="translate(240 -296)"/>
</g>
<g id="Rectangle" figma:type="rounded-rectangle">
<use xlink:href="#path2_fill" transform="translate(230 -307)" fill="#6FCF97"/>
</g>
<g id="0xj" figma:type="text">
<use xlink:href="#path10_fill" transform="translate(238 -296)" fill="#F2F2F2"/>
</g>
<g id="Rectangle" figma:type="rounded-rectangle">
<use xlink:href="#path2_fill" transform="translate(140 -219)" fill="#C4C4C4"/>
</g>
<g id="1" figma:type="text">
<use xlink:href="#path3_fill" transform="translate(158 -208)"/>
</g>
<g id="Rectangle" figma:type="rounded-rectangle">
<use xlink:href="#path2_fill" transform="translate(140 -219)" fill="#C4C4C4"/>
</g>
<g id="1" figma:type="text">
<use xlink:href="#path3_fill" transform="translate(158 -208)"/>
</g>
<g id="Rectangle" figma:type="rounded-rectangle">
<use xlink:href="#path2_fill" transform="translate(137 -154)" fill="#C4C4C4"/>
</g>
<g id="2" figma:type="text">
<use xlink:href="#path4_fill" transform="translate(156 -143)"/>
</g>
<g id="Rectangle" figma:type="rounded-rectangle">
<use xlink:href="#path2_fill" transform="translate(140 -18)" fill="#C4C4C4"/>
</g>
<g id="&#226;&#128;&#156;a&#226;&#128;&#157;" figma:type="text">
<use xlink:href="#path5_fill" transform="translate(150 -7)"/>
</g>
<g id="Rectangle" figma:type="rounded-rectangle">
<use xlink:href="#path2_fill" transform="translate(140 -18)" fill="#C4C4C4"/>
</g>
<g id="11" figma:type="text">
<use xlink:href="#path11_fill" transform="translate(151 -7)"/>
</g>
<g id="Rectangle" figma:type="rounded-rectangle">
<use xlink:href="#path2_fill" transform="translate(140 -65)" fill="#C4C4C4"/>
</g>
<g id="&#226;&#128;&#156;a&#226;&#128;&#157;" figma:type="text">
<use xlink:href="#path5_fill" transform="translate(150 -54)"/>
</g>
<g id="Rectangle" figma:type="rounded-rectangle">
<use xlink:href="#path2_fill" transform="translate(140 -65)" fill="#C4C4C4"/>
</g>
<g id="0" figma:type="text">
<use xlink:href="#path12_fill" transform="translate(155 -54)"/>
</g>
<g id="Rectangle" figma:type="rounded-rectangle">
<use xlink:href="#path2_fill" transform="translate(140 32)" fill="#C4C4C4"/>
</g>
<g id="&#226;&#128;&#156;a&#226;&#128;&#157;" figma:type="text">
<use xlink:href="#path5_fill" transform="translate(150 43)"/>
</g>
<g id="Rectangle" figma:type="rounded-rectangle">
<use xlink:href="#path2_fill" transform="translate(140 32)" fill="#C4C4C4"/>
</g>
<g id="1" figma:type="text">
<use xlink:href="#path3_fill" transform="translate(155 43)"/>
</g>
<g id="Rectangle" figma:type="rounded-rectangle">
<use xlink:href="#path2_fill" transform="translate(140 142)" fill="#C4C4C4"/>
</g>
<g id="&#226;&#128;&#156;a&#226;&#128;&#157;" figma:type="text">
<use xlink:href="#path5_fill" transform="translate(150 153)"/>
</g>
<g id="Rectangle" figma:type="rounded-rectangle">
<use xlink:href="#path2_fill" transform="translate(140 142)" fill="#C4C4C4"/>
</g>
<g id="97" figma:type="text">
<use xlink:href="#path13_fill" transform="translate(150 154)"/>
</g>
<g id="C" figma:type="text">
<use xlink:href="#path14_fill" transform="translate(-75 -296)"/>
</g>
<g id="Arrow" figma:type="vector">
<use xlink:href="#path15_stroke" transform="matrix(6.12323e-17 1 -1 6.12323e-17 104 -333)"/>
</g>
<g id="Arrow" figma:type="vector">
<use xlink:href="#path15_stroke" transform="matrix(6.12323e-17 1 -1 6.12323e-17 155 -333)"/>
</g>
<g id="Arrow" figma:type="vector">
<use xlink:href="#path15_stroke" transform="matrix(6.12323e-17 1 -1 6.12323e-17 206 -333)"/>
</g>
<g id="Arrow" figma:type="vector">
<use xlink:href="#path15_stroke" transform="matrix(6.12323e-17 1 -1 6.12323e-17 257 -333)"/>
</g>
<g id="Address" figma:type="text">
<use xlink:href="#path16_fill" transform="translate(-82 -219)"/>
</g>
<g id="0xa" figma:type="text">
<use xlink:href="#path8_fill" transform="translate(32 -208)"/>
</g>
<g id="0xb" figma:type="text">
<use xlink:href="#path7_fill" transform="translate(32 -143)"/>
</g>
<g id="0xf" figma:type="text">
<use xlink:href="#path17_fill" transform="translate(32 -57)"/>
</g>
<g id="..." figma:type="text">
<use xlink:href="#path18_fill" transform="translate(36 -103)"/>
</g>
<g id="..." figma:type="text">
<use xlink:href="#path18_fill" transform="translate(36 107)"/>
</g>
<g id="0xj" figma:type="text">
<use xlink:href="#path10_fill" transform="translate(32 147)"/>
</g>
</g>
<defs>
<path id="path0_fill" d="M 3.99609 22L 1.82812 22L 1.82812 4L 3.99609 4L 3.99609 22ZM 9.83203 22L 7.66406 22L 7.66406 9.32031L 9.83203 9.32031L 9.83203 22ZM 7.48828 5.95703C 7.48828 5.60547 7.59375 5.30859 7.80469 5.06641C 8.02344 4.82422 8.34375 4.70312 8.76562 4.70312C 9.1875 4.70312 9.50781 4.82422 9.72656 5.06641C 9.94531 5.30859 10.0547 5.60547 10.0547 5.95703C 10.0547 6.30859 9.94531 6.60156 9.72656 6.83594C 9.50781 7.07031 9.1875 7.1875 8.76562 7.1875C 8.34375 7.1875 8.02344 7.07031 7.80469 6.83594C 7.59375 6.60156 7.48828 6.30859 7.48828 5.95703ZM 20.6953 18.6367C 20.6953 18.0508 20.4727 17.5977 20.0273 17.2773C 19.5898 16.9492 18.8203 16.668 17.7188 16.4336C 16.625 16.1992 15.7539 15.918 15.1055 15.5898C 14.4648 15.2617 13.9883 14.8711 13.6758 14.418C 13.3711 13.9648 13.2188 13.4258 13.2188 12.8008C 13.2188 11.7617 13.6562 10.8828 14.5312 10.1641C 15.4141 9.44531 16.5391 9.08594 17.9062 9.08594C 19.3438 9.08594 20.5078 9.45703 21.3984 10.1992C 22.2969 10.9414 22.7461 11.8906 22.7461 13.0469L 20.5664 13.0469C 20.5664 12.4531 20.3125 11.9414 19.8047 11.5117C 19.3047 11.082 18.6719 10.8672 17.9062 10.8672C 17.1172 10.8672 16.5 11.0391 16.0547 11.3828C 15.6094 11.7266 15.3867 12.1758 15.3867 12.7305C 15.3867 13.2539 15.5938 13.6484 16.0078 13.9141C 16.4219 14.1797 17.168 14.4336 18.2461 14.6758C 19.332 14.918 20.2109 15.207 20.8828 15.543C 21.5547 15.8789 22.0508 16.2852 22.3711 16.7617C 22.6992 17.2305 22.8633 17.8047 22.8633 18.4844C 22.8633 19.6172 22.4102 20.5273 21.5039 21.2148C 20.5977 21.8945 19.4219 22.2344 17.9766 22.2344C 16.9609 22.2344 16.0625 22.0547 15.2812 21.6953C 14.5 21.3359 13.8867 20.8359 13.4414 20.1953C 13.0039 19.5469 12.7852 18.8477 12.7852 18.0977L 14.9531 18.0977C 14.9922 18.8242 15.2812 19.4023 15.8203 19.832C 16.3672 20.2539 17.0859 20.4648 17.9766 20.4648C 18.7969 20.4648 19.4531 20.3008 19.9453 19.9727C 20.4453 19.6367 20.6953 19.1914 20.6953 18.6367ZM 28.6289 6.25L 28.6289 9.32031L 30.9961 9.32031L 30.9961 10.9961L 28.6289 10.9961L 28.6289 18.8594C 28.6289 19.3672 28.7344 19.75 28.9453 20.0078C 29.1562 20.2578 29.5156 20.3828 30.0234 20.3828C 30.2734 20.3828 30.6172 20.3359 31.0547 20.2422L 31.0547 22C 30.4844 22.1562 29.9297 22.2344 29.3906 22.2344C 28.4219 22.2344 27.6914 21.9414 27.1992 21.3555C 26.707 20.7695 26.4609 19.9375 26.4609 18.8594L 26.4609 10.9961L 24.1523 10.9961L 24.1523 9.32031L 26.4609 9.32031L 26.4609 6.25L 28.6289 6.25ZM 49.4062 12.4609L 39.6328 12.4609L 39.6328 10.5742L 49.4062 10.5742L 49.4062 12.4609ZM 49.4062 17.3242L 39.6328 17.3242L 39.6328 15.4492L 49.4062 15.4492L 49.4062 17.3242ZM 63.1055 4.28125L 60.8672 4.28125L 60.8672 23.875L 63.1055 23.875L 63.1055 25.6562L 58.6875 25.6562L 58.6875 2.5L 63.1055 2.5L 63.1055 4.28125ZM 71.8945 22L 69.7148 22L 69.7148 7.55078L 65.3438 9.15625L 65.3438 7.1875L 71.5547 4.85547L 71.8945 4.85547L 71.8945 22ZM 78.3984 25.3984L 77.168 24.5547C 77.9023 23.5312 78.2852 22.4766 78.3164 21.3906L 78.3164 19.4336L 80.4375 19.4336L 80.4375 21.1328C 80.4375 21.9219 80.2422 22.7109 79.8516 23.5C 79.4688 24.2891 78.9844 24.9219 78.3984 25.3984ZM 94.1367 22L 82.957 22L 82.957 20.4414L 88.8633 13.8789C 89.7383 12.8867 90.3398 12.082 90.668 11.4648C 91.0039 10.8398 91.1719 10.1953 91.1719 9.53125C 91.1719 8.64062 90.9023 7.91016 90.3633 7.33984C 89.8242 6.76953 89.1055 6.48438 88.207 6.48438C 87.1289 6.48438 86.2891 6.79297 85.6875 7.41016C 85.0938 8.01953 84.7969 8.87109 84.7969 9.96484L 82.6289 9.96484C 82.6289 8.39453 83.1328 7.125 84.1406 6.15625C 85.1562 5.1875 86.5117 4.70312 88.207 4.70312C 89.793 4.70312 91.0469 5.12109 91.9688 5.95703C 92.8906 6.78516 93.3516 7.89062 93.3516 9.27344C 93.3516 10.9531 92.2812 12.9531 90.1406 15.2734L 85.5703 20.2305L 94.1367 20.2305L 94.1367 22ZM 96.5859 25.3984L 95.3555 24.5547C 96.0898 23.5312 96.4727 22.4766 96.5039 21.3906L 96.5039 19.4336L 98.625 19.4336L 98.625 21.1328C 98.625 21.9219 98.4297 22.7109 98.0391 23.5C 97.6562 24.2891 97.1719 24.9219 96.5859 25.3984ZM 99.668 9.74219L 98.4375 8.89844C 99.1641 7.88281 99.5391 6.8125 99.5625 5.6875L 99.5625 4L 101.707 4L 101.707 5.52344C 101.699 6.30469 101.504 7.08594 101.121 7.86719C 100.746 8.64062 100.262 9.26562 99.668 9.74219ZM 103.266 9.74219L 102.035 8.89844C 102.762 7.88281 103.137 6.8125 103.16 5.6875L 103.16 4L 105.305 4L 105.305 5.52344C 105.297 6.30469 105.102 7.08594 104.719 7.86719C 104.344 8.64062 103.859 9.26562 103.266 9.74219ZM 115.195 22C 115.07 21.75 114.969 21.3047 114.891 20.6641C 113.883 21.7109 112.68 22.2344 111.281 22.2344C 110.031 22.2344 109.004 21.8828 108.199 21.1797C 107.402 20.4688 107.004 19.5703 107.004 18.4844C 107.004 17.1641 107.504 16.1406 108.504 15.4141C 109.512 14.6797 110.926 14.3125 112.746 14.3125L 114.855 14.3125L 114.855 13.3164C 114.855 12.5586 114.629 11.957 114.176 11.5117C 113.723 11.0586 113.055 10.832 112.172 10.832C 111.398 10.832 110.75 11.0273 110.227 11.418C 109.703 11.8086 109.441 12.2812 109.441 12.8359L 107.262 12.8359C 107.262 12.2031 107.484 11.5938 107.93 11.0078C 108.383 10.4141 108.992 9.94531 109.758 9.60156C 110.531 9.25781 111.379 9.08594 112.301 9.08594C 113.762 9.08594 114.906 9.45312 115.734 10.1875C 116.562 10.9141 116.992 11.918 117.023 13.1992L 117.023 19.0352C 117.023 20.1992 117.172 21.125 117.469 21.8125L 117.469 22L 115.195 22ZM 111.598 20.3477C 112.277 20.3477 112.922 20.1719 113.531 19.8203C 114.141 19.4688 114.582 19.0117 114.855 18.4492L 114.855 15.8477L 113.156 15.8477C 110.5 15.8477 109.172 16.625 109.172 18.1797C 109.172 18.8594 109.398 19.3906 109.852 19.7734C 110.305 20.1562 110.887 20.3477 111.598 20.3477ZM 119.918 9.74219L 118.688 8.89844C 119.414 7.88281 119.789 6.8125 119.812 5.6875L 119.812 4L 121.957 4L 121.957 5.52344C 121.949 6.30469 121.754 7.08594 121.371 7.86719C 120.996 8.64062 120.512 9.26562 119.918 9.74219ZM 123.516 9.74219L 122.285 8.89844C 123.012 7.88281 123.387 6.8125 123.41 5.6875L 123.41 4L 125.555 4L 125.555 5.52344C 125.547 6.30469 125.352 7.08594 124.969 7.86719C 124.594 8.64062 124.109 9.26562 123.516 9.74219ZM 128.133 25.3984L 126.902 24.5547C 127.637 23.5312 128.02 22.4766 128.051 21.3906L 128.051 19.4336L 130.172 19.4336L 130.172 21.1328C 130.172 21.9219 129.977 22.7109 129.586 23.5C 129.203 24.2891 128.719 24.9219 128.133 25.3984ZM 139.816 22L 137.637 22L 137.637 7.55078L 133.266 9.15625L 133.266 7.1875L 139.477 4.85547L 139.816 4.85547L 139.816 22ZM 146.438 20.8633C 146.438 20.4883 146.547 20.1758 146.766 19.9258C 146.992 19.6758 147.328 19.5508 147.773 19.5508C 148.219 19.5508 148.555 19.6758 148.781 19.9258C 149.016 20.1758 149.133 20.4883 149.133 20.8633C 149.133 21.2227 149.016 21.5234 148.781 21.7656C 148.555 22.0078 148.219 22.1289 147.773 22.1289C 147.328 22.1289 146.992 22.0078 146.766 21.7656C 146.547 21.5234 146.438 21.2227 146.438 20.8633ZM 159.621 22L 157.441 22L 157.441 7.55078L 153.07 9.15625L 153.07 7.1875L 159.281 4.85547L 159.621 4.85547L 159.621 22ZM 164.66 2.5L 169.09 2.5L 169.09 25.6562L 164.66 25.6562L 164.66 23.875L 166.922 23.875L 166.922 4.28125L 164.66 4.28125L 164.66 2.5Z"/>
<path id="path1_fill" d="M 4.23047 15.3203L 4.23047 22L 1.98047 22L 1.98047 4.9375L 8.27344 4.9375C 10.1406 4.9375 11.6016 5.41406 12.6562 6.36719C 13.7188 7.32031 14.25 8.58203 14.25 10.1523C 14.25 11.8086 13.7305 13.0859 12.6914 13.9844C 11.6602 14.875 10.1797 15.3203 8.25 15.3203L 4.23047 15.3203ZM 4.23047 13.4805L 8.27344 13.4805C 9.47656 13.4805 10.3984 13.1992 11.0391 12.6367C 11.6797 12.0664 12 11.2461 12 10.1758C 12 9.16016 11.6797 8.34766 11.0391 7.73828C 10.3984 7.12891 9.51953 6.8125 8.40234 6.78906L 4.23047 6.78906L 4.23047 13.4805ZM 21.1172 18.8242L 24.0703 9.32031L 26.3906 9.32031L 21.293 23.957C 20.5039 26.0664 19.25 27.1211 17.5312 27.1211L 17.1211 27.0859L 16.3125 26.9336L 16.3125 25.1758L 16.8984 25.2227C 17.6328 25.2227 18.2031 25.0742 18.6094 24.7773C 19.0234 24.4805 19.3633 23.9375 19.6289 23.1484L 20.1094 21.8594L 15.5859 9.32031L 17.9531 9.32031L 21.1172 18.8242ZM 31.2773 6.25L 31.2773 9.32031L 33.6445 9.32031L 33.6445 10.9961L 31.2773 10.9961L 31.2773 18.8594C 31.2773 19.3672 31.3828 19.75 31.5938 20.0078C 31.8047 20.2578 32.1641 20.3828 32.6719 20.3828C 32.9219 20.3828 33.2656 20.3359 33.7031 20.2422L 33.7031 22C 33.1328 22.1562 32.5781 22.2344 32.0391 22.2344C 31.0703 22.2344 30.3398 21.9414 29.8477 21.3555C 29.3555 20.7695 29.1094 19.9375 29.1094 18.8594L 29.1094 10.9961L 26.8008 10.9961L 26.8008 9.32031L 29.1094 9.32031L 29.1094 6.25L 31.2773 6.25ZM 38.3555 10.8555C 39.3164 9.67578 40.5664 9.08594 42.1055 9.08594C 44.7852 9.08594 46.1367 10.5977 46.1602 13.6211L 46.1602 22L 43.9922 22L 43.9922 13.6094C 43.9844 12.6953 43.7734 12.0195 43.3594 11.582C 42.9531 11.1445 42.3164 10.9258 41.4492 10.9258C 40.7461 10.9258 40.1289 11.1133 39.5977 11.4883C 39.0664 11.8633 38.6523 12.3555 38.3555 12.9648L 38.3555 22L 36.1875 22L 36.1875 4L 38.3555 4L 38.3555 10.8555ZM 48.832 15.543C 48.832 14.3008 49.0742 13.1836 49.5586 12.1914C 50.0508 11.1992 50.7305 10.4336 51.5977 9.89453C 52.4727 9.35547 53.4688 9.08594 54.5859 9.08594C 56.3125 9.08594 57.707 9.68359 58.7695 10.8789C 59.8398 12.0742 60.375 13.6641 60.375 15.6484L 60.375 15.8008C 60.375 17.0352 60.1367 18.1445 59.6602 19.1289C 59.1914 20.1055 58.5156 20.8672 57.6328 21.4141C 56.7578 21.9609 55.75 22.2344 54.6094 22.2344C 52.8906 22.2344 51.4961 21.6367 50.4258 20.4414C 49.3633 19.2461 48.832 17.6641 48.832 15.6953L 48.832 15.543ZM 51.0117 15.8008C 51.0117 17.207 51.3359 18.3359 51.9844 19.1875C 52.6406 20.0391 53.5156 20.4648 54.6094 20.4648C 55.7109 20.4648 56.5859 20.0352 57.2344 19.1758C 57.8828 18.3086 58.207 17.0977 58.207 15.543C 58.207 14.1523 57.875 13.0273 57.2109 12.168C 56.5547 11.3008 55.6797 10.8672 54.5859 10.8672C 53.5156 10.8672 52.6523 11.293 51.9961 12.1445C 51.3398 12.9961 51.0117 14.2148 51.0117 15.8008ZM 65.1445 9.32031L 65.2148 10.9141C 66.1836 9.69531 67.4492 9.08594 69.0117 9.08594C 71.6914 9.08594 73.043 10.5977 73.0664 13.6211L 73.0664 22L 70.8984 22L 70.8984 13.6094C 70.8906 12.6953 70.6797 12.0195 70.2656 11.582C 69.8594 11.1445 69.2227 10.9258 68.3555 10.9258C 67.6523 10.9258 67.0352 11.1133 66.5039 11.4883C 65.9727 11.8633 65.5586 12.3555 65.2617 12.9648L 65.2617 22L 63.0938 22L 63.0938 9.32031L 65.1445 9.32031Z"/>
<path id="path2_fill" d="M 0 0L 50 0L 50 50L 0 50L 0 0Z"/>
<path id="path3_fill" d="M 8.54297 22L 6.36328 22L 6.36328 7.55078L 1.99219 9.15625L 1.99219 7.1875L 8.20312 4.85547L 8.54297 4.85547L 8.54297 22Z"/>
<path id="path4_fill" d="M 12.5977 22L 1.41797 22L 1.41797 20.4414L 7.32422 13.8789C 8.19922 12.8867 8.80078 12.082 9.12891 11.4648C 9.46484 10.8398 9.63281 10.1953 9.63281 9.53125C 9.63281 8.64062 9.36328 7.91016 8.82422 7.33984C 8.28516 6.76953 7.56641 6.48438 6.66797 6.48438C 5.58984 6.48438 4.75 6.79297 4.14844 7.41016C 3.55469 8.01953 3.25781 8.87109 3.25781 9.96484L 1.08984 9.96484C 1.08984 8.39453 1.59375 7.125 2.60156 6.15625C 3.61719 5.1875 4.97266 4.70312 6.66797 4.70312C 8.25391 4.70312 9.50781 5.12109 10.4297 5.95703C 11.3516 6.78516 11.8125 7.89062 11.8125 9.27344C 11.8125 10.9531 10.7422 12.9531 8.60156 15.2734L 4.03125 20.2305L 12.5977 20.2305L 12.5977 22Z"/>
<path id="path5_fill" d="M 3.25781 3.77734L 4.5 4.62109C 3.77344 5.61328 3.39844 6.68359 3.375 7.83203L 3.375 9.42578L 1.21875 9.42578L 1.21875 8.06641C 1.21875 7.26953 1.40625 6.48047 1.78125 5.69922C 2.16406 4.91797 2.65625 4.27734 3.25781 3.77734ZM 6.94922 3.77734L 8.19141 4.62109C 7.46484 5.61328 7.08984 6.68359 7.06641 7.83203L 7.06641 9.42578L 4.91016 9.42578L 4.91016 8.06641C 4.91016 7.26953 5.09766 6.48047 5.47266 5.69922C 5.85547 4.91797 6.34766 4.27734 6.94922 3.77734ZM 17.3672 22C 17.2422 21.75 17.1406 21.3047 17.0625 20.6641C 16.0547 21.7109 14.8516 22.2344 13.4531 22.2344C 12.2031 22.2344 11.1758 21.8828 10.3711 21.1797C 9.57422 20.4688 9.17578 19.5703 9.17578 18.4844C 9.17578 17.1641 9.67578 16.1406 10.6758 15.4141C 11.6836 14.6797 13.0977 14.3125 14.918 14.3125L 17.0273 14.3125L 17.0273 13.3164C 17.0273 12.5586 16.8008 11.957 16.3477 11.5117C 15.8945 11.0586 15.2266 10.832 14.3438 10.832C 13.5703 10.832 12.9219 11.0273 12.3984 11.418C 11.875 11.8086 11.6133 12.2812 11.6133 12.8359L 9.43359 12.8359C 9.43359 12.2031 9.65625 11.5938 10.1016 11.0078C 10.5547 10.4141 11.1641 9.94531 11.9297 9.60156C 12.7031 9.25781 13.5508 9.08594 14.4727 9.08594C 15.9336 9.08594 17.0781 9.45312 17.9062 10.1875C 18.7344 10.9141 19.1641 11.918 19.1953 13.1992L 19.1953 19.0352C 19.1953 20.1992 19.3438 21.125 19.6406 21.8125L 19.6406 22L 17.3672 22ZM 13.7695 20.3477C 14.4492 20.3477 15.0938 20.1719 15.7031 19.8203C 16.3125 19.4688 16.7539 19.0117 17.0273 18.4492L 17.0273 15.8477L 15.3281 15.8477C 12.6719 15.8477 11.3438 16.625 11.3438 18.1797C 11.3438 18.8594 11.5703 19.3906 12.0234 19.7734C 12.4766 20.1562 13.0586 20.3477 13.7695 20.3477ZM 22.0898 9.74219L 20.8594 8.89844C 21.5859 7.88281 21.9609 6.8125 21.9844 5.6875L 21.9844 4L 24.1289 4L 24.1289 5.52344C 24.1211 6.30469 23.9258 7.08594 23.543 7.86719C 23.168 8.64062 22.6836 9.26562 22.0898 9.74219ZM 25.6875 9.74219L 24.457 8.89844C 25.1836 7.88281 25.5586 6.8125 25.582 5.6875L 25.582 4L 27.7266 4L 27.7266 5.52344C 27.7188 6.30469 27.5234 7.08594 27.1406 7.86719C 26.7656 8.64062 26.2812 9.26562 25.6875 9.74219Z"/>
<path id="path6_fill" d="M 8.54297 22L 6.36328 22L 6.36328 7.55078L 1.99219 9.15625L 1.99219 7.1875L 8.20312 4.85547L 8.54297 4.85547L 8.54297 22ZM 15.1641 20.8633C 15.1641 20.4883 15.2734 20.1758 15.4922 19.9258C 15.7188 19.6758 16.0547 19.5508 16.5 19.5508C 16.9453 19.5508 17.2812 19.6758 17.5078 19.9258C 17.7422 20.1758 17.8594 20.4883 17.8594 20.8633C 17.8594 21.2227 17.7422 21.5234 17.5078 21.7656C 17.2812 22.0078 16.9453 22.1289 16.5 22.1289C 16.0547 22.1289 15.7188 22.0078 15.4922 21.7656C 15.2734 21.5234 15.1641 21.2227 15.1641 20.8633ZM 28.3477 22L 26.168 22L 26.168 7.55078L 21.7969 9.15625L 21.7969 7.1875L 28.0078 4.85547L 28.3477 4.85547L 28.3477 22Z"/>
<path id="path7_fill" d="M 12.1172 14.7227C 12.1172 17.2617 11.6836 19.1484 10.8164 20.3828C 9.94922 21.6172 8.59375 22.2344 6.75 22.2344C 4.92969 22.2344 3.58203 21.6328 2.70703 20.4297C 1.83203 19.2188 1.37891 17.4141 1.34766 15.0156L 1.34766 12.1211C 1.34766 9.61328 1.78125 7.75 2.64844 6.53125C 3.51562 5.3125 4.875 4.70312 6.72656 4.70312C 8.5625 4.70312 9.91406 5.29297 10.7812 6.47266C 11.6484 7.64453 12.0938 9.45703 12.1172 11.9102L 12.1172 14.7227ZM 9.94922 11.7578C 9.94922 9.92188 9.69141 8.58594 9.17578 7.75C 8.66016 6.90625 7.84375 6.48438 6.72656 6.48438C 5.61719 6.48438 4.80859 6.90234 4.30078 7.73828C 3.79297 8.57422 3.53125 9.85938 3.51562 11.5938L 3.51562 15.0625C 3.51562 16.9062 3.78125 18.2695 4.3125 19.1523C 4.85156 20.0273 5.66406 20.4648 6.75 20.4648C 7.82031 20.4648 8.61328 20.0508 9.12891 19.2227C 9.65234 18.3945 9.92578 17.0898 9.94922 15.3086L 9.94922 11.7578ZM 19.3711 13.9492L 22.1836 9.32031L 24.7148 9.32031L 20.5664 15.5898L 24.8438 22L 22.3359 22L 19.4062 17.2539L 16.4766 22L 13.957 22L 18.2344 15.5898L 14.0859 9.32031L 16.5938 9.32031L 19.3711 13.9492ZM 37.7578 15.8008C 37.7578 17.7383 37.3125 19.2969 36.4219 20.4766C 35.5312 21.6484 34.3359 22.2344 32.8359 22.2344C 31.2344 22.2344 29.9961 21.668 29.1211 20.5352L 29.0156 22L 27.0234 22L 27.0234 4L 29.1914 4L 29.1914 10.7148C 30.0664 9.62891 31.2734 9.08594 32.8125 9.08594C 34.3516 9.08594 35.5586 9.66797 36.4336 10.832C 37.3164 11.9961 37.7578 13.5898 37.7578 15.6133L 37.7578 15.8008ZM 35.5898 15.5547C 35.5898 14.0781 35.3047 12.9375 34.7344 12.1328C 34.1641 11.3281 33.3438 10.9258 32.2734 10.9258C 30.8438 10.9258 29.8164 11.5898 29.1914 12.918L 29.1914 18.4023C 29.8555 19.7305 30.8906 20.3945 32.2969 20.3945C 33.3359 20.3945 34.1445 19.9922 34.7227 19.1875C 35.3008 18.3828 35.5898 17.1719 35.5898 15.5547Z"/>
<path id="path8_fill" d="M 12.1172 14.7227C 12.1172 17.2617 11.6836 19.1484 10.8164 20.3828C 9.94922 21.6172 8.59375 22.2344 6.75 22.2344C 4.92969 22.2344 3.58203 21.6328 2.70703 20.4297C 1.83203 19.2188 1.37891 17.4141 1.34766 15.0156L 1.34766 12.1211C 1.34766 9.61328 1.78125 7.75 2.64844 6.53125C 3.51562 5.3125 4.875 4.70312 6.72656 4.70312C 8.5625 4.70312 9.91406 5.29297 10.7812 6.47266C 11.6484 7.64453 12.0938 9.45703 12.1172 11.9102L 12.1172 14.7227ZM 9.94922 11.7578C 9.94922 9.92188 9.69141 8.58594 9.17578 7.75C 8.66016 6.90625 7.84375 6.48438 6.72656 6.48438C 5.61719 6.48438 4.80859 6.90234 4.30078 7.73828C 3.79297 8.57422 3.53125 9.85938 3.51562 11.5938L 3.51562 15.0625C 3.51562 16.9062 3.78125 18.2695 4.3125 19.1523C 4.85156 20.0273 5.66406 20.4648 6.75 20.4648C 7.82031 20.4648 8.61328 20.0508 9.12891 19.2227C 9.65234 18.3945 9.92578 17.0898 9.94922 15.3086L 9.94922 11.7578ZM 19.3711 13.9492L 22.1836 9.32031L 24.7148 9.32031L 20.5664 15.5898L 24.8438 22L 22.3359 22L 19.4062 17.2539L 16.4766 22L 13.957 22L 18.2344 15.5898L 14.0859 9.32031L 16.5938 9.32031L 19.3711 13.9492ZM 34.8516 22C 34.7266 21.75 34.625 21.3047 34.5469 20.6641C 33.5391 21.7109 32.3359 22.2344 30.9375 22.2344C 29.6875 22.2344 28.6602 21.8828 27.8555 21.1797C 27.0586 20.4688 26.6602 19.5703 26.6602 18.4844C 26.6602 17.1641 27.1602 16.1406 28.1602 15.4141C 29.168 14.6797 30.582 14.3125 32.4023 14.3125L 34.5117 14.3125L 34.5117 13.3164C 34.5117 12.5586 34.2852 11.957 33.832 11.5117C 33.3789 11.0586 32.7109 10.832 31.8281 10.832C 31.0547 10.832 30.4062 11.0273 29.8828 11.418C 29.3594 11.8086 29.0977 12.2812 29.0977 12.8359L 26.918 12.8359C 26.918 12.2031 27.1406 11.5938 27.5859 11.0078C 28.0391 10.4141 28.6484 9.94531 29.4141 9.60156C 30.1875 9.25781 31.0352 9.08594 31.957 9.08594C 33.418 9.08594 34.5625 9.45312 35.3906 10.1875C 36.2188 10.9141 36.6484 11.918 36.6797 13.1992L 36.6797 19.0352C 36.6797 20.1992 36.8281 21.125 37.125 21.8125L 37.125 22L 34.8516 22ZM 31.2539 20.3477C 31.9336 20.3477 32.5781 20.1719 33.1875 19.8203C 33.7969 19.4688 34.2383 19.0117 34.5117 18.4492L 34.5117 15.8477L 32.8125 15.8477C 30.1562 15.8477 28.8281 16.625 28.8281 18.1797C 28.8281 18.8594 29.0547 19.3906 29.5078 19.7734C 29.9609 20.1562 30.543 20.3477 31.2539 20.3477Z"/>
<path id="path9_fill" d="M 12.1172 14.7227C 12.1172 17.2617 11.6836 19.1484 10.8164 20.3828C 9.94922 21.6172 8.59375 22.2344 6.75 22.2344C 4.92969 22.2344 3.58203 21.6328 2.70703 20.4297C 1.83203 19.2188 1.37891 17.4141 1.34766 15.0156L 1.34766 12.1211C 1.34766 9.61328 1.78125 7.75 2.64844 6.53125C 3.51562 5.3125 4.875 4.70312 6.72656 4.70312C 8.5625 4.70312 9.91406 5.29297 10.7812 6.47266C 11.6484 7.64453 12.0938 9.45703 12.1172 11.9102L 12.1172 14.7227ZM 9.94922 11.7578C 9.94922 9.92188 9.69141 8.58594 9.17578 7.75C 8.66016 6.90625 7.84375 6.48438 6.72656 6.48438C 5.61719 6.48438 4.80859 6.90234 4.30078 7.73828C 3.79297 8.57422 3.53125 9.85938 3.51562 11.5938L 3.51562 15.0625C 3.51562 16.9062 3.78125 18.2695 4.3125 19.1523C 4.85156 20.0273 5.66406 20.4648 6.75 20.4648C 7.82031 20.4648 8.61328 20.0508 9.12891 19.2227C 9.65234 18.3945 9.92578 17.0898 9.94922 15.3086L 9.94922 11.7578ZM 19.3711 13.9492L 22.1836 9.32031L 24.7148 9.32031L 20.5664 15.5898L 24.8438 22L 22.3359 22L 19.4062 17.2539L 16.4766 22L 13.957 22L 18.2344 15.5898L 14.0859 9.32031L 16.5938 9.32031L 19.3711 13.9492ZM 26.2734 15.5547C 26.2734 13.5781 26.7305 12.0078 27.6445 10.8438C 28.5586 9.67188 29.7695 9.08594 31.2773 9.08594C 32.8242 9.08594 34.0312 9.63281 34.8984 10.7266L 35.0039 9.32031L 36.9844 9.32031L 36.9844 21.6953C 36.9844 23.3359 36.4961 24.6289 35.5195 25.5742C 34.5508 26.5195 33.2461 26.9922 31.6055 26.9922C 30.6914 26.9922 29.7969 26.7969 28.9219 26.4062C 28.0469 26.0156 27.3789 25.4805 26.918 24.8008L 28.043 23.5C 28.9727 24.6484 30.1094 25.2227 31.4531 25.2227C 32.5078 25.2227 33.3281 24.9258 33.9141 24.332C 34.5078 23.7383 34.8047 22.9023 34.8047 21.8242L 34.8047 20.7344C 33.9375 21.7344 32.7539 22.2344 31.2539 22.2344C 29.7695 22.2344 28.5664 21.6367 27.6445 20.4414C 26.7305 19.2461 26.2734 17.6172 26.2734 15.5547ZM 28.4531 15.8008C 28.4531 17.2305 28.7461 18.3555 29.332 19.1758C 29.918 19.9883 30.7383 20.3945 31.793 20.3945C 33.1602 20.3945 34.1641 19.7734 34.8047 18.5312L 34.8047 12.7422C 34.1406 11.5312 33.1445 10.9258 31.8164 10.9258C 30.7617 10.9258 29.9375 11.3359 29.3438 12.1562C 28.75 12.9766 28.4531 14.1914 28.4531 15.8008Z"/>
<path id="path10_fill" d="M 12.1172 14.7227C 12.1172 17.2617 11.6836 19.1484 10.8164 20.3828C 9.94922 21.6172 8.59375 22.2344 6.75 22.2344C 4.92969 22.2344 3.58203 21.6328 2.70703 20.4297C 1.83203 19.2188 1.37891 17.4141 1.34766 15.0156L 1.34766 12.1211C 1.34766 9.61328 1.78125 7.75 2.64844 6.53125C 3.51562 5.3125 4.875 4.70312 6.72656 4.70312C 8.5625 4.70312 9.91406 5.29297 10.7812 6.47266C 11.6484 7.64453 12.0938 9.45703 12.1172 11.9102L 12.1172 14.7227ZM 9.94922 11.7578C 9.94922 9.92188 9.69141 8.58594 9.17578 7.75C 8.66016 6.90625 7.84375 6.48438 6.72656 6.48438C 5.61719 6.48438 4.80859 6.90234 4.30078 7.73828C 3.79297 8.57422 3.53125 9.85938 3.51562 11.5938L 3.51562 15.0625C 3.51562 16.9062 3.78125 18.2695 4.3125 19.1523C 4.85156 20.0273 5.66406 20.4648 6.75 20.4648C 7.82031 20.4648 8.61328 20.0508 9.12891 19.2227C 9.65234 18.3945 9.92578 17.0898 9.94922 15.3086L 9.94922 11.7578ZM 19.3711 13.9492L 22.1836 9.32031L 24.7148 9.32031L 20.5664 15.5898L 24.8438 22L 22.3359 22L 19.4062 17.2539L 16.4766 22L 13.957 22L 18.2344 15.5898L 14.0859 9.32031L 16.5938 9.32031L 19.3711 13.9492ZM 29.2617 9.32031L 29.2617 23.4648C 29.2617 25.9023 28.1562 27.1211 25.9453 27.1211C 25.4688 27.1211 25.0273 27.0508 24.6211 26.9102L 24.6211 25.1758C 24.8711 25.2383 25.1992 25.2695 25.6055 25.2695C 26.0898 25.2695 26.457 25.1367 26.707 24.8711C 26.9648 24.6133 27.0938 24.1602 27.0938 23.5117L 27.0938 9.32031L 29.2617 9.32031ZM 26.8711 5.95703C 26.8711 5.61328 26.9766 5.32031 27.1875 5.07812C 27.4062 4.82813 27.7227 4.70312 28.1367 4.70312C 28.5586 4.70312 28.8789 4.82422 29.0977 5.06641C 29.3164 5.30859 29.4258 5.60547 29.4258 5.95703C 29.4258 6.30859 29.3164 6.60156 29.0977 6.83594C 28.8789 7.07031 28.5586 7.1875 28.1367 7.1875C 27.7148 7.1875 27.3984 7.07031 27.1875 6.83594C 26.9766 6.60156 26.8711 6.30859 26.8711 5.95703Z"/>
<path id="path11_fill" d="M 8.54297 22L 6.36328 22L 6.36328 7.55078L 1.99219 9.15625L 1.99219 7.1875L 8.20312 4.85547L 8.54297 4.85547L 8.54297 22ZM 22.0195 22L 19.8398 22L 19.8398 7.55078L 15.4688 9.15625L 15.4688 7.1875L 21.6797 4.85547L 22.0195 4.85547L 22.0195 22Z"/>
<path id="path12_fill" d="M 12.1172 14.7227C 12.1172 17.2617 11.6836 19.1484 10.8164 20.3828C 9.94922 21.6172 8.59375 22.2344 6.75 22.2344C 4.92969 22.2344 3.58203 21.6328 2.70703 20.4297C 1.83203 19.2188 1.37891 17.4141 1.34766 15.0156L 1.34766 12.1211C 1.34766 9.61328 1.78125 7.75 2.64844 6.53125C 3.51562 5.3125 4.875 4.70312 6.72656 4.70312C 8.5625 4.70312 9.91406 5.29297 10.7812 6.47266C 11.6484 7.64453 12.0938 9.45703 12.1172 11.9102L 12.1172 14.7227ZM 9.94922 11.7578C 9.94922 9.92188 9.69141 8.58594 9.17578 7.75C 8.66016 6.90625 7.84375 6.48438 6.72656 6.48438C 5.61719 6.48438 4.80859 6.90234 4.30078 7.73828C 3.79297 8.57422 3.53125 9.85938 3.51562 11.5938L 3.51562 15.0625C 3.51562 16.9062 3.78125 18.2695 4.3125 19.1523C 4.85156 20.0273 5.66406 20.4648 6.75 20.4648C 7.82031 20.4648 8.61328 20.0508 9.12891 19.2227C 9.65234 18.3945 9.92578 17.0898 9.94922 15.3086L 9.94922 11.7578Z"/>
<path id="path13_fill" d="M 9.72656 14.5C 9.27344 15.0391 8.73047 15.4727 8.09766 15.8008C 7.47266 16.1289 6.78516 16.293 6.03516 16.293C 5.05078 16.293 4.19141 16.0508 3.45703 15.5664C 2.73047 15.082 2.16797 14.4023 1.76953 13.5273C 1.37109 12.6445 1.17188 11.6719 1.17188 10.6094C 1.17188 9.46875 1.38672 8.44141 1.81641 7.52734C 2.25391 6.61328 2.87109 5.91406 3.66797 5.42969C 4.46484 4.94531 5.39453 4.70312 6.45703 4.70312C 8.14453 4.70312 9.47266 5.33594 10.4414 6.60156C 11.418 7.85937 11.9062 9.57812 11.9062 11.7578L 11.9062 12.3906C 11.9062 15.7109 11.25 18.1367 9.9375 19.668C 8.625 21.1914 6.64453 21.9727 3.99609 22.0117L 3.57422 22.0117L 3.57422 20.1836L 4.03125 20.1836C 5.82031 20.1523 7.19531 19.6875 8.15625 18.7891C 9.11719 17.8828 9.64062 16.4531 9.72656 14.5ZM 6.38672 14.5C 7.11328 14.5 7.78125 14.2773 8.39062 13.832C 9.00781 13.3867 9.45703 12.8359 9.73828 12.1797L 9.73828 11.3125C 9.73828 9.89062 9.42969 8.73438 8.8125 7.84375C 8.19531 6.95312 7.41406 6.50781 6.46875 6.50781C 5.51562 6.50781 4.75 6.875 4.17188 7.60938C 3.59375 8.33594 3.30469 9.29688 3.30469 10.4922C 3.30469 11.6562 3.58203 12.6172 4.13672 13.375C 4.69922 14.125 5.44922 14.5 6.38672 14.5ZM 25.9102 6.15625L 18.8438 22L 16.5703 22L 23.6133 6.71875L 14.3789 6.71875L 14.3789 4.9375L 25.9102 4.9375L 25.9102 6.15625Z"/>
<path id="path14_fill" d="M 14.5312 16.5859C 14.3203 18.3906 13.6523 19.7852 12.5273 20.7695C 11.4102 21.7461 9.92188 22.2344 8.0625 22.2344C 6.04688 22.2344 4.42969 21.5117 3.21094 20.0664C 2 18.6211 1.39453 16.6875 1.39453 14.2656L 1.39453 12.625C 1.39453 11.0391 1.67578 9.64453 2.23828 8.44141C 2.80859 7.23828 3.61328 6.31641 4.65234 5.67578C 5.69141 5.02734 6.89453 4.70312 8.26172 4.70312C 10.0742 4.70312 11.5273 5.21094 12.6211 6.22656C 13.7148 7.23438 14.3516 8.63281 14.5312 10.4219L 12.2695 10.4219C 12.0742 9.0625 11.6484 8.07812 10.9922 7.46875C 10.3438 6.85938 9.43359 6.55469 8.26172 6.55469C 6.82422 6.55469 5.69531 7.08594 4.875 8.14844C 4.0625 9.21094 3.65625 10.7227 3.65625 12.6836L 3.65625 14.3359C 3.65625 16.1875 4.04297 17.6602 4.81641 18.7539C 5.58984 19.8477 6.67188 20.3945 8.0625 20.3945C 9.3125 20.3945 10.2695 20.1133 10.9336 19.5508C 11.6055 18.9805 12.0508 17.9922 12.2695 16.5859L 14.5312 16.5859Z"/>
<path id="path15_stroke" d="M 16.3536 0.353553C 16.5488 0.158291 16.5488 -0.158291 16.3536 -0.353553L 13.1716 -3.53553C 12.9763 -3.7308 12.6597 -3.7308 12.4645 -3.53553C 12.2692 -3.34027 12.2692 -3.02369 12.4645 -2.82843L 15.2929 0L 12.4645 2.82843C 12.2692 3.02369 12.2692 3.34027 12.4645 3.53553C 12.6597 3.7308 12.9763 3.7308 13.1716 3.53553L 16.3536 0.353553ZM 0 0.5L 16 0.5L 16 -0.5L 0 -0.5L 0 0.5Z"/>
<path id="path16_fill" d="M 11.4023 17.5469L 4.25391 17.5469L 2.64844 22L 0.328125 22L 6.84375 4.9375L 8.8125 4.9375L 15.3398 22L 13.0312 22L 11.4023 17.5469ZM 4.93359 15.6953L 10.7344 15.6953L 7.82812 7.71484L 4.93359 15.6953ZM 16.7695 15.5547C 16.7695 13.6094 17.2305 12.0469 18.1523 10.8672C 19.0742 9.67969 20.2812 9.08594 21.7734 9.08594C 23.2578 9.08594 24.4336 9.59375 25.3008 10.6094L 25.3008 4L 27.4688 4L 27.4688 22L 25.4766 22L 25.3711 20.6406C 24.5039 21.7031 23.2969 22.2344 21.75 22.2344C 20.2812 22.2344 19.082 21.6328 18.1523 20.4297C 17.2305 19.2266 16.7695 17.6562 16.7695 15.7188L 16.7695 15.5547ZM 18.9375 15.8008C 18.9375 17.2383 19.2344 18.3633 19.8281 19.1758C 20.4219 19.9883 21.2422 20.3945 22.2891 20.3945C 23.6641 20.3945 24.668 19.7773 25.3008 18.543L 25.3008 12.7188C 24.6523 11.5234 23.6562 10.9258 22.3125 10.9258C 21.25 10.9258 20.4219 11.3359 19.8281 12.1562C 19.2344 12.9766 18.9375 14.1914 18.9375 15.8008ZM 30.3164 15.5547C 30.3164 13.6094 30.7773 12.0469 31.6992 10.8672C 32.6211 9.67969 33.8281 9.08594 35.3203 9.08594C 36.8047 9.08594 37.9805 9.59375 38.8477 10.6094L 38.8477 4L 41.0156 4L 41.0156 22L 39.0234 22L 38.918 20.6406C 38.0508 21.7031 36.8438 22.2344 35.2969 22.2344C 33.8281 22.2344 32.6289 21.6328 31.6992 20.4297C 30.7773 19.2266 30.3164 17.6562 30.3164 15.7188L 30.3164 15.5547ZM 32.4844 15.8008C 32.4844 17.2383 32.7812 18.3633 33.375 19.1758C 33.9688 19.9883 34.7891 20.3945 35.8359 20.3945C 37.2109 20.3945 38.2148 19.7773 38.8477 18.543L 38.8477 12.7188C 38.1992 11.5234 37.2031 10.9258 35.8594 10.9258C 34.7969 10.9258 33.9688 11.3359 33.375 12.1562C 32.7812 12.9766 32.4844 14.1914 32.4844 15.8008ZM 50.5195 11.2656C 50.1914 11.2109 49.8359 11.1836 49.4531 11.1836C 48.0312 11.1836 47.0664 11.7891 46.5586 13L 46.5586 22L 44.3906 22L 44.3906 9.32031L 46.5 9.32031L 46.5352 10.7852C 47.2461 9.65234 48.2539 9.08594 49.5586 9.08594C 49.9805 9.08594 50.3008 9.14062 50.5195 9.25L 50.5195 11.2656ZM 57.5508 22.2344C 55.832 22.2344 54.4336 21.6719 53.3555 20.5469C 52.2773 19.4141 51.7383 17.9023 51.7383 16.0117L 51.7383 15.6133C 51.7383 14.3555 51.9766 13.2344 52.4531 12.25C 52.9375 11.2578 53.6094 10.4844 54.4688 9.92969C 55.3359 9.36719 56.2734 9.08594 57.2812 9.08594C 58.9297 9.08594 60.2109 9.62891 61.125 10.7148C 62.0391 11.8008 62.4961 13.3555 62.4961 15.3789L 62.4961 16.2812L 53.9062 16.2812C 53.9375 17.5312 54.3008 18.543 54.9961 19.3164C 55.6992 20.082 56.5898 20.4648 57.668 20.4648C 58.4336 20.4648 59.082 20.3086 59.6133 19.9961C 60.1445 19.6836 60.6094 19.2695 61.0078 18.7539L 62.332 19.7852C 61.2695 21.418 59.6758 22.2344 57.5508 22.2344ZM 57.2812 10.8672C 56.4062 10.8672 55.6719 11.1875 55.0781 11.8281C 54.4844 12.4609 54.1172 13.3516 53.9766 14.5L 60.3281 14.5L 60.3281 14.3359C 60.2656 13.2344 59.9688 12.3828 59.4375 11.7812C 58.9062 11.1719 58.1875 10.8672 57.2812 10.8672ZM 72.3984 18.6367C 72.3984 18.0508 72.1758 17.5977 71.7305 17.2773C 71.293 16.9492 70.5234 16.668 69.4219 16.4336C 68.3281 16.1992 67.457 15.918 66.8086 15.5898C 66.168 15.2617 65.6914 14.8711 65.3789 14.418C 65.0742 13.9648 64.9219 13.4258 64.9219 12.8008C 64.9219 11.7617 65.3594 10.8828 66.2344 10.1641C 67.1172 9.44531 68.2422 9.08594 69.6094 9.08594C 71.0469 9.08594 72.2109 9.45703 73.1016 10.1992C 74 10.9414 74.4492 11.8906 74.4492 13.0469L 72.2695 13.0469C 72.2695 12.4531 72.0156 11.9414 71.5078 11.5117C 71.0078 11.082 70.375 10.8672 69.6094 10.8672C 68.8203 10.8672 68.2031 11.0391 67.7578 11.3828C 67.3125 11.7266 67.0898 12.1758 67.0898 12.7305C 67.0898 13.2539 67.2969 13.6484 67.7109 13.9141C 68.125 14.1797 68.8711 14.4336 69.9492 14.6758C 71.0352 14.918 71.9141 15.207 72.5859 15.543C 73.2578 15.8789 73.7539 16.2852 74.0742 16.7617C 74.4023 17.2305 74.5664 17.8047 74.5664 18.4844C 74.5664 19.6172 74.1133 20.5273 73.207 21.2148C 72.3008 21.8945 71.125 22.2344 69.6797 22.2344C 68.6641 22.2344 67.7656 22.0547 66.9844 21.6953C 66.2031 21.3359 65.5898 20.8359 65.1445 20.1953C 64.707 19.5469 64.4883 18.8477 64.4883 18.0977L 66.6562 18.0977C 66.6953 18.8242 66.9844 19.4023 67.5234 19.832C 68.0703 20.2539 68.7891 20.4648 69.6797 20.4648C 70.5 20.4648 71.1562 20.3008 71.6484 19.9727C 72.1484 19.6367 72.3984 19.1914 72.3984 18.6367ZM 84.7734 18.6367C 84.7734 18.0508 84.5508 17.5977 84.1055 17.2773C 83.668 16.9492 82.8984 16.668 81.7969 16.4336C 80.7031 16.1992 79.832 15.918 79.1836 15.5898C 78.543 15.2617 78.0664 14.8711 77.7539 14.418C 77.4492 13.9648 77.2969 13.4258 77.2969 12.8008C 77.2969 11.7617 77.7344 10.8828 78.6094 10.1641C 79.4922 9.44531 80.6172 9.08594 81.9844 9.08594C 83.4219 9.08594 84.5859 9.45703 85.4766 10.1992C 86.375 10.9414 86.8242 11.8906 86.8242 13.0469L 84.6445 13.0469C 84.6445 12.4531 84.3906 11.9414 83.8828 11.5117C 83.3828 11.082 82.75 10.8672 81.9844 10.8672C 81.1953 10.8672 80.5781 11.0391 80.1328 11.3828C 79.6875 11.7266 79.4648 12.1758 79.4648 12.7305C 79.4648 13.2539 79.6719 13.6484 80.0859 13.9141C 80.5 14.1797 81.2461 14.4336 82.3242 14.6758C 83.4102 14.918 84.2891 15.207 84.9609 15.543C 85.6328 15.8789 86.1289 16.2852 86.4492 16.7617C 86.7773 17.2305 86.9414 17.8047 86.9414 18.4844C 86.9414 19.6172 86.4883 20.5273 85.582 21.2148C 84.6758 21.8945 83.5 22.2344 82.0547 22.2344C 81.0391 22.2344 80.1406 22.0547 79.3594 21.6953C 78.5781 21.3359 77.9648 20.8359 77.5195 20.1953C 77.082 19.5469 76.8633 18.8477 76.8633 18.0977L 79.0312 18.0977C 79.0703 18.8242 79.3594 19.4023 79.8984 19.832C 80.4453 20.2539 81.1641 20.4648 82.0547 20.4648C 82.875 20.4648 83.5312 20.3008 84.0234 19.9727C 84.5234 19.6367 84.7734 19.1914 84.7734 18.6367Z"/>
<path id="path17_fill" d="M 12.1172 14.7227C 12.1172 17.2617 11.6836 19.1484 10.8164 20.3828C 9.94922 21.6172 8.59375 22.2344 6.75 22.2344C 4.92969 22.2344 3.58203 21.6328 2.70703 20.4297C 1.83203 19.2188 1.37891 17.4141 1.34766 15.0156L 1.34766 12.1211C 1.34766 9.61328 1.78125 7.75 2.64844 6.53125C 3.51562 5.3125 4.875 4.70312 6.72656 4.70312C 8.5625 4.70312 9.91406 5.29297 10.7812 6.47266C 11.6484 7.64453 12.0938 9.45703 12.1172 11.9102L 12.1172 14.7227ZM 9.94922 11.7578C 9.94922 9.92188 9.69141 8.58594 9.17578 7.75C 8.66016 6.90625 7.84375 6.48438 6.72656 6.48438C 5.61719 6.48438 4.80859 6.90234 4.30078 7.73828C 3.79297 8.57422 3.53125 9.85938 3.51562 11.5938L 3.51562 15.0625C 3.51562 16.9062 3.78125 18.2695 4.3125 19.1523C 4.85156 20.0273 5.66406 20.4648 6.75 20.4648C 7.82031 20.4648 8.61328 20.0508 9.12891 19.2227C 9.65234 18.3945 9.92578 17.0898 9.94922 15.3086L 9.94922 11.7578ZM 19.3711 13.9492L 22.1836 9.32031L 24.7148 9.32031L 20.5664 15.5898L 24.8438 22L 22.3359 22L 19.4062 17.2539L 16.4766 22L 13.957 22L 18.2344 15.5898L 14.0859 9.32031L 16.5938 9.32031L 19.3711 13.9492ZM 28.0898 22L 28.0898 10.9961L 26.0859 10.9961L 26.0859 9.32031L 28.0898 9.32031L 28.0898 8.01953C 28.0898 6.66016 28.4531 5.60937 29.1797 4.86719C 29.9062 4.125 30.9336 3.75391 32.2617 3.75391C 32.7617 3.75391 33.2578 3.82031 33.75 3.95312L 33.6328 5.71094C 33.2656 5.64062 32.875 5.60547 32.4609 5.60547C 31.7578 5.60547 31.2148 5.8125 30.832 6.22656C 30.4492 6.63281 30.2578 7.21875 30.2578 7.98438L 30.2578 9.32031L 32.9648 9.32031L 32.9648 10.9961L 30.2578 10.9961L 30.2578 22L 28.0898 22Z"/>
<path id="path18_fill" d="M 1.6875 20.8633C 1.6875 20.4883 1.79688 20.1758 2.01562 19.9258C 2.24219 19.6758 2.57812 19.5508 3.02344 19.5508C 3.46875 19.5508 3.80469 19.6758 4.03125 19.9258C 4.26562 20.1758 4.38281 20.4883 4.38281 20.8633C 4.38281 21.2227 4.26562 21.5234 4.03125 21.7656C 3.80469 22.0078 3.46875 22.1289 3.02344 22.1289C 2.57812 22.1289 2.24219 22.0078 2.01562 21.7656C 1.79688 21.5234 1.6875 21.2227 1.6875 20.8633ZM 8.01562 20.8633C 8.01562 20.4883 8.125 20.1758 8.34375 19.9258C 8.57031 19.6758 8.90625 19.5508 9.35156 19.5508C 9.79688 19.5508 10.1328 19.6758 10.3594 19.9258C 10.5938 20.1758 10.7109 20.4883 10.7109 20.8633C 10.7109 21.2227 10.5938 21.5234 10.3594 21.7656C 10.1328 22.0078 9.79688 22.1289 9.35156 22.1289C 8.90625 22.1289 8.57031 22.0078 8.34375 21.7656C 8.125 21.5234 8.01562 21.2227 8.01562 20.8633ZM 14.3438 20.8633C 14.3438 20.4883 14.4531 20.1758 14.6719 19.9258C 14.8984 19.6758 15.2344 19.5508 15.6797 19.5508C 16.125 19.5508 16.4609 19.6758 16.6875 19.9258C 16.9219 20.1758 17.0391 20.4883 17.0391 20.8633C 17.0391 21.2227 16.9219 21.5234 16.6875 21.7656C 16.4609 22.0078 16.125 22.1289 15.6797 22.1289C 15.2344 22.1289 14.8984 22.0078 14.6719 21.7656C 14.4531 21.5234 14.3438 21.2227 14.3438 20.8633Z"/>
</defs>
</svg>
