<svg width="206" height="990" viewBox="0 0 206 990" version="1.1" xmlns="http://www.w3.org/2000/svg" xmlns:xlink="http://www.w3.org/1999/xlink" xmlns:figma="http://www.figma.com/figma/ns">
<title>queue_times</title>
<desc>Created using Figma</desc>
<g id="Canvas" transform="translate(248 222)" figma:type="canvas">
<g id="queue_time" style="mix-blend-mode:normal;" figma:type="text">
<use xlink:href="#path0_fill" transform="translate(-248 -225.5)" style="mix-blend-mode:normal;"/>
</g>
<g id="[ ]" style="mix-blend-mode:normal;" figma:type="text">
<use xlink:href="#path1_fill" transform="translate(-211.5 -195.5)" style="mix-blend-mode:normal;"/>
</g>
<g id="stack" style="mix-blend-mode:normal;" figma:type="text">
<use xlink:href="#path2_fill" transform="translate(-134 -225)" style="mix-blend-mode:normal;"/>
</g>
<g id="[ ]" style="mix-blend-mode:normal;" figma:type="text">
<use xlink:href="#path1_fill" transform="translate(-121.5 -195)" style="mix-blend-mode:normal;"/>
</g>
<g id="stack" style="mix-blend-mode:normal;" figma:type="text">
<use xlink:href="#path2_fill" transform="translate(-131.75 -69.5)" style="mix-blend-mode:normal;"/>
</g>
<g id="[ 1 ]" style="mix-blend-mode:normal;" figma:type="text">
<use xlink:href="#path3_fill" transform="translate(-129.25 -39.5)" style="mix-blend-mode:normal;"/>
</g>
<g id="stack" style="mix-blend-mode:normal;" figma:type="text">
<use xlink:href="#path2_fill" transform="translate(-131.5 99.5)" style="mix-blend-mode:normal;"/>
</g>
<g id="[ 2, 1 ]" style="mix-blend-mode:normal;" figma:type="text">
<use xlink:href="#path4_fill" transform="translate(-129 129.5)" style="mix-blend-mode:normal;"/>
</g>
<g id="stack" style="mix-blend-mode:normal;" figma:type="text">
<use xlink:href="#path2_fill" transform="translate(-129.25 257.5)" style="mix-blend-mode:normal;"/>
</g>
<g id="[ 3, 2, 1 ]" style="mix-blend-mode:normal;" figma:type="text">
<use xlink:href="#path5_fill" transform="translate(-126.75 287.5)" style="mix-blend-mode:normal;"/>
</g>
<g id="stack" style="mix-blend-mode:normal;" figma:type="text">
<use xlink:href="#path2_fill" transform="translate(-120 411)" style="mix-blend-mode:normal;"/>
</g>
<g id="[ 2, 1 ]" style="mix-blend-mode:normal;" figma:type="text">
<use xlink:href="#path4_fill" transform="translate(-117.5 441)" style="mix-blend-mode:normal;"/>
</g>
<g id="queue_time" style="mix-blend-mode:normal;" figma:type="text">
<use xlink:href="#path0_fill" transform="translate(-248.25 -69.5)" style="mix-blend-mode:normal;"/>
</g>
<g id="[ 0 ]" style="mix-blend-mode:normal;" figma:type="text">
<use xlink:href="#path6_fill" transform="translate(-221.25 -39.5)" style="mix-blend-mode:normal;"/>
</g>
<g id="Arrow" style="mix-blend-mode:normal;" figma:type="vector">
<use xlink:href="#path7_stroke" transform="matrix(6.12323e-17 1 -1 6.12323e-17 -151 -143)" style="mix-blend-mode:normal;"/>
</g>
<g id="Add Task" style="mix-blend-mode:normal;" figma:type="text">
<use xlink:href="#path8_fill" transform="translate(-228 -140.5)" style="mix-blend-mode:normal;"/>
</g>
<g id="Arrow" style="mix-blend-mode:normal;" figma:type="vector">
<use xlink:href="#path7_stroke" transform="matrix(6.12323e-17 1 -1 6.12323e-17 -151 26)" style="mix-blend-mode:normal;"/>
</g>
<g id="Add Task" style="mix-blend-mode:normal;" figma:type="text">
<use xlink:href="#path8_fill" transform="translate(-228 28.5)" style="mix-blend-mode:normal;"/>
</g>
<g id="queue_time" style="mix-blend-mode:normal;" figma:type="text">
<use xlink:href="#path0_fill" transform="translate(-248 99.5)" style="mix-blend-mode:normal;"/>
</g>
<g id="[ 0, 0 ]" style="mix-blend-mode:normal;" figma:type="text">
<use xlink:href="#path9_fill" transform="translate(-233 129.5)" style="mix-blend-mode:normal;"/>
</g>
<g id="queue_time" style="mix-blend-mode:normal;" figma:type="text">
<use xlink:href="#path0_fill" transform="translate(-246.25 257)" style="mix-blend-mode:normal;"/>
</g>
<g id="[ 0, 0, 0 ]" style="mix-blend-mode:normal;" figma:type="text">
<use xlink:href="#path10_fill" transform="translate(-240.25 287)" style="mix-blend-mode:normal;"/>
</g>
<g id="queue_time" style="mix-blend-mode:normal;" figma:type="text">
<use xlink:href="#path0_fill" transform="translate(-240 411)" style="mix-blend-mode:normal;"/>
</g>
<g id="[ 1, 1, 1 ]" style="mix-blend-mode:normal;" figma:type="text">
<use xlink:href="#path11_fill" transform="translate(-234 441)" style="mix-blend-mode:normal;"/>
</g>
<g id="Arrow" style="mix-blend-mode:normal;" figma:type="vector">
<use xlink:href="#path7_stroke" transform="matrix(6.12323e-17 1 -1 6.12323e-17 -151 186)" style="mix-blend-mode:normal;"/>
</g>
<g id="Add Task" style="mix-blend-mode:normal;" figma:type="text">
<use xlink:href="#path8_fill" transform="translate(-228 188.5)" style="mix-blend-mode:normal;"/>
</g>
<g id="Arrow" style="mix-blend-mode:normal;" figma:type="vector">
<use xlink:href="#path7_stroke" transform="matrix(6.12323e-17 1 -1 6.12323e-17 -151 342)" style="mix-blend-mode:normal;"/>
</g>
<g id="Process Task" style="mix-blend-mode:normal;" figma:type="text">
<use xlink:href="#path12_fill" transform="translate(-228 344.5)" style="mix-blend-mode:normal;"/>
</g>
<g id="stack" style="mix-blend-mode:normal;" figma:type="text">
<use xlink:href="#path2_fill" transform="translate(-113 563)" style="mix-blend-mode:normal;"/>
</g>
<g id="[ 1 ]" style="mix-blend-mode:normal;" figma:type="text">
<use xlink:href="#path3_fill" transform="translate(-110.5 593)" style="mix-blend-mode:normal;"/>
</g>
<g id="queue_time" style="mix-blend-mode:normal;" figma:type="text">
<use xlink:href="#path0_fill" transform="translate(-233 563)" style="mix-blend-mode:normal;"/>
</g>
<g id="[ 2, 2, 2 ]" style="mix-blend-mode:normal;" figma:type="text">
<use xlink:href="#path13_fill" transform="translate(-227 593)" style="mix-blend-mode:normal;"/>
</g>
<g id="Arrow" style="mix-blend-mode:normal;" figma:type="vector">
<use xlink:href="#path7_stroke" transform="matrix(6.12323e-17 1 -1 6.12323e-17 -151 494)" style="mix-blend-mode:normal;"/>
</g>
<g id="Process Task" style="mix-blend-mode:normal;" figma:type="text">
<use xlink:href="#path12_fill" transform="translate(-221 496.5)" style="mix-blend-mode:normal;"/>
</g>
<g id="stack" style="mix-blend-mode:normal;" figma:type="text">
<use xlink:href="#path2_fill" transform="translate(-113 712)" style="mix-blend-mode:normal;"/>
</g>
<g id="[ ]" style="mix-blend-mode:normal;" figma:type="text">
<use xlink:href="#path14_fill" transform="translate(-110.5 742)" style="mix-blend-mode:normal;"/>
</g>
<g id="queue_time" style="mix-blend-mode:normal;" figma:type="text">
<use xlink:href="#path0_fill" transform="translate(-233 712)" style="mix-blend-mode:normal;"/>
</g>
<g id="[ 3, 3, 3 ]" style="mix-blend-mode:normal;" figma:type="text">
<use xlink:href="#path15_fill" transform="translate(-227 742)" style="mix-blend-mode:normal;"/>
</g>
<g id="Arrow" style="mix-blend-mode:normal;" figma:type="vector">
<use xlink:href="#path7_stroke" transform="matrix(6.12323e-17 1 -1 6.12323e-17 -151 643)" style="mix-blend-mode:normal;"/>
</g>
<g id="Process Task" style="mix-blend-mode:normal;" figma:type="text">
<use xlink:href="#path12_fill" transform="translate(-221 645.5)" style="mix-blend-mode:normal;"/>
</g>
</g>
<defs>
<path id="path0_fill" d="M 0.834961 12.166C 0.834961 10.6719 1.17773 9.49121 1.86328 8.62402C 2.54883 7.75098 3.46875 7.31445 4.62305 7.31445C 5.74805 7.31445 6.63574 7.69238 7.28613 8.44824L 7.35645 7.49023L 8.85059 7.49023L 8.85059 20.6562L 7.22461 20.6562L 7.22461 16.1211C 6.56836 16.8242 5.69531 17.1758 4.60547 17.1758C 3.45703 17.1758 2.54004 16.7305 1.85449 15.8398C 1.1748 14.9434 0.834961 13.7568 0.834961 12.2803L 0.834961 12.166ZM 2.46094 12.3506C 2.46094 13.4404 2.68945 14.2959 3.14648 14.917C 3.60938 15.5381 4.23047 15.8486 5.00977 15.8486C 5.97656 15.8486 6.71484 15.4209 7.22461 14.5654L 7.22461 9.90723C 6.70898 9.06934 5.97656 8.65039 5.02734 8.65039C 4.24219 8.65039 3.61816 8.96387 3.15527 9.59082C 2.69238 10.2119 2.46094 11.1318 2.46094 12.3506ZM 17.332 16.0596C 16.6992 16.8037 15.7705 17.1758 14.5459 17.1758C 13.5322 17.1758 12.7588 16.8828 12.2256 16.2969C 11.6982 15.7051 11.4316 14.832 11.4258 13.6777L 11.4258 7.49023L 13.0518 7.49023L 13.0518 13.6338C 13.0518 15.0752 13.6377 15.7959 14.8096 15.7959C 16.0518 15.7959 16.8779 15.333 17.2881 14.4072L 17.2881 7.49023L 18.9141 7.49023L 18.9141 17L 17.3672 17L 17.332 16.0596ZM 25.3389 17.1758C 24.0498 17.1758 23.001 16.7539 22.1924 15.9102C 21.3838 15.0605 20.9795 13.9268 20.9795 12.5088L 20.9795 12.21C 20.9795 11.2666 21.1582 10.4258 21.5156 9.6875C 21.8789 8.94336 22.3828 8.36328 23.0273 7.94727C 23.6777 7.52539 24.3809 7.31445 25.1367 7.31445C 26.373 7.31445 27.334 7.72168 28.0195 8.53613C 28.7051 9.35059 29.0479 10.5166 29.0479 12.0342L 29.0479 12.7109L 22.6055 12.7109C 22.6289 13.6484 22.9014 14.4072 23.4229 14.9873C 23.9502 15.5615 24.6182 15.8486 25.4268 15.8486C 26.001 15.8486 26.4873 15.7314 26.8857 15.4971C 27.2842 15.2627 27.6328 14.9521 27.9316 14.5654L 28.9248 15.3389C 28.1279 16.5635 26.9326 17.1758 25.3389 17.1758ZM 25.1367 8.65039C 24.4805 8.65039 23.9297 8.89062 23.4844 9.37109C 23.0391 9.8457 22.7637 10.5137 22.6582 11.375L 27.4219 11.375L 27.4219 11.252C 27.375 10.4258 27.1523 9.78711 26.7539 9.33594C 26.3555 8.87891 25.8164 8.65039 25.1367 8.65039ZM 36.8086 16.0596C 36.1758 16.8037 35.2471 17.1758 34.0225 17.1758C 33.0088 17.1758 32.2354 16.8828 31.7021 16.2969C 31.1748 15.7051 30.9082 14.832 30.9023 13.6777L 30.9023 7.49023L 32.5283 7.49023L 32.5283 13.6338C 32.5283 15.0752 33.1143 15.7959 34.2861 15.7959C 35.5283 15.7959 36.3545 15.333 36.7646 14.4072L 36.7646 7.49023L 38.3906 7.49023L 38.3906 17L 36.8438 17L 36.8086 16.0596ZM 44.8154 17.1758C 43.5264 17.1758 42.4775 16.7539 41.6689 15.9102C 40.8604 15.0605 40.4561 13.9268 40.4561 12.5088L 40.4561 12.21C 40.4561 11.2666 40.6348 10.4258 40.9922 9.6875C 41.3555 8.94336 41.8594 8.36328 42.5039 7.94727C 43.1543 7.52539 43.8574 7.31445 44.6133 7.31445C 45.8496 7.31445 46.8105 7.72168 47.4961 8.53613C 48.1816 9.35059 48.5244 10.5166 48.5244 12.0342L 48.5244 12.7109L 42.082 12.7109C 42.1055 13.6484 42.3779 14.4072 42.8994 14.9873C 43.4268 15.5615 44.0947 15.8486 44.9033 15.8486C 45.4775 15.8486 45.9639 15.7314 46.3623 15.4971C 46.7607 15.2627 47.1094 14.9521 47.4082 14.5654L 48.4014 15.3389C 47.6045 16.5635 46.4092 17.1758 44.8154 17.1758ZM 44.6133 8.65039C 43.957 8.65039 43.4062 8.89062 42.9609 9.37109C 42.5156 9.8457 42.2402 10.5137 42.1348 11.375L 46.8984 11.375L 46.8984 11.252C 46.8516 10.4258 46.6289 9.78711 46.2305 9.33594C 45.832 8.87891 45.293 8.65039 44.6133 8.65039ZM 57.2695 18.3271L 49.2188 18.3271L 49.2188 17L 57.2695 17L 57.2695 18.3271ZM 60.7412 5.1875L 60.7412 7.49023L 62.5166 7.49023L 62.5166 8.74707L 60.7412 8.74707L 60.7412 14.6445C 60.7412 15.0254 60.8203 15.3125 60.9785 15.5059C 61.1367 15.6934 61.4062 15.7871 61.7871 15.7871C 61.9746 15.7871 62.2324 15.752 62.5605 15.6816L 62.5605 17C 62.1328 17.1172 61.7168 17.1758 61.3125 17.1758C 60.5859 17.1758 60.0381 16.9561 59.6689 16.5166C 59.2998 16.0771 59.1152 15.4531 59.1152 14.6445L 59.1152 8.74707L 57.3838 8.74707L 57.3838 7.49023L 59.1152 7.49023L 59.1152 5.1875L 60.7412 5.1875ZM 66.1904 17L 64.5645 17L 64.5645 7.49023L 66.1904 7.49023L 66.1904 17ZM 64.4326 4.96777C 64.4326 4.7041 64.5117 4.48145 64.6699 4.2998C 64.834 4.11816 65.0742 4.02734 65.3906 4.02734C 65.707 4.02734 65.9473 4.11816 66.1113 4.2998C 66.2754 4.48145 66.3574 4.7041 66.3574 4.96777C 66.3574 5.23145 66.2754 5.45117 66.1113 5.62695C 65.9473 5.80273 65.707 5.89062 65.3906 5.89062C 65.0742 5.89062 64.834 5.80273 64.6699 5.62695C 64.5117 5.45117 64.4326 5.23145 64.4326 4.96777ZM 70.3301 7.49023L 70.374 8.54492C 71.0713 7.72461 72.0117 7.31445 73.1953 7.31445C 74.5254 7.31445 75.4307 7.82422 75.9111 8.84375C 76.2275 8.38672 76.6377 8.01758 77.1416 7.73633C 77.6514 7.45508 78.252 7.31445 78.9434 7.31445C 81.0293 7.31445 82.0898 8.41895 82.125 10.6279L 82.125 17L 80.499 17L 80.499 10.7246C 80.499 10.0449 80.3438 9.53809 80.0332 9.2041C 79.7227 8.86426 79.2012 8.69434 78.4688 8.69434C 77.8652 8.69434 77.3643 8.87598 76.9658 9.23926C 76.5674 9.59668 76.3359 10.0801 76.2715 10.6895L 76.2715 17L 74.6367 17L 74.6367 10.7686C 74.6367 9.38574 73.96 8.69434 72.6064 8.69434C 71.54 8.69434 70.8105 9.14844 70.418 10.0566L 70.418 17L 68.792 17L 68.792 7.49023L 70.3301 7.49023ZM 88.5322 17.1758C 87.2432 17.1758 86.1943 16.7539 85.3857 15.9102C 84.5771 15.0605 84.1729 13.9268 84.1729 12.5088L 84.1729 12.21C 84.1729 11.2666 84.3516 10.4258 84.709 9.6875C 85.0723 8.94336 85.5762 8.36328 86.2207 7.94727C 86.8711 7.52539 87.5742 7.31445 88.3301 7.31445C 89.5664 7.31445 90.5273 7.72168 91.2129 8.53613C 91.8984 9.35059 92.2412 10.5166 92.2412 12.0342L 92.2412 12.7109L 85.7988 12.7109C 85.8223 13.6484 86.0947 14.4072 86.6162 14.9873C 87.1436 15.5615 87.8115 15.8486 88.6201 15.8486C 89.1943 15.8486 89.6807 15.7314 90.0791 15.4971C 90.4775 15.2627 90.8262 14.9521 91.125 14.5654L 92.1182 15.3389C 91.3213 16.5635 90.126 17.1758 88.5322 17.1758ZM 88.3301 8.65039C 87.6738 8.65039 87.123 8.89062 86.6777 9.37109C 86.2324 9.8457 85.957 10.5137 85.8516 11.375L 90.6152 11.375L 90.6152 11.252C 90.5684 10.4258 90.3457 9.78711 89.9473 9.33594C 89.5488 8.87891 89.0098 8.65039 88.3301 8.65039Z"/>
<path id="path1_fill" d="M 6.12891 4.28125L 3.89062 4.28125L 3.89062 23.875L 6.12891 23.875L 6.12891 25.6562L 1.71094 25.6562L 1.71094 2.5L 6.12891 2.5L 6.12891 4.28125ZM 12.4336 2.5L 16.8633 2.5L 16.8633 25.6562L 12.4336 25.6562L 12.4336 23.875L 14.6953 23.875L 14.6953 4.28125L 12.4336 4.28125L 12.4336 2.5Z"/>
<path id="path2_fill" d="M 6.76758 14.4775C 6.76758 14.0381 6.60059 13.6982 6.2666 13.458C 5.93848 13.2119 5.36133 13.001 4.53516 12.8252C 3.71484 12.6494 3.06152 12.4385 2.5752 12.1924C 2.09473 11.9463 1.7373 11.6533 1.50293 11.3135C 1.27441 10.9736 1.16016 10.5693 1.16016 10.1006C 1.16016 9.32129 1.48828 8.66211 2.14453 8.12305C 2.80664 7.58398 3.65039 7.31445 4.67578 7.31445C 5.75391 7.31445 6.62695 7.59277 7.29492 8.14941C 7.96875 8.70605 8.30566 9.41797 8.30566 10.2852L 6.6709 10.2852C 6.6709 9.83984 6.48047 9.45605 6.09961 9.13379C 5.72461 8.81152 5.25 8.65039 4.67578 8.65039C 4.08398 8.65039 3.62109 8.7793 3.28711 9.03711C 2.95312 9.29492 2.78613 9.63184 2.78613 10.0479C 2.78613 10.4404 2.94141 10.7363 3.25195 10.9355C 3.5625 11.1348 4.12207 11.3252 4.93066 11.5068C 5.74512 11.6885 6.4043 11.9053 6.9082 12.1572C 7.41211 12.4092 7.78418 12.7139 8.02441 13.0713C 8.27051 13.4229 8.39355 13.8535 8.39355 14.3633C 8.39355 15.2129 8.05371 15.8955 7.37402 16.4111C 6.69434 16.9209 5.8125 17.1758 4.72852 17.1758C 3.9668 17.1758 3.29297 17.041 2.70703 16.7715C 2.12109 16.502 1.66113 16.127 1.32715 15.6465C 0.999023 15.1602 0.834961 14.6357 0.834961 14.0732L 2.46094 14.0732C 2.49023 14.6182 2.70703 15.0518 3.11133 15.374C 3.52148 15.6904 4.06055 15.8486 4.72852 15.8486C 5.34375 15.8486 5.83594 15.7256 6.20508 15.4795C 6.58008 15.2275 6.76758 14.8936 6.76758 14.4775ZM 12.7178 5.1875L 12.7178 7.49023L 14.4932 7.49023L 14.4932 8.74707L 12.7178 8.74707L 12.7178 14.6445C 12.7178 15.0254 12.7969 15.3125 12.9551 15.5059C 13.1133 15.6934 13.3828 15.7871 13.7637 15.7871C 13.9512 15.7871 14.209 15.752 14.5371 15.6816L 14.5371 17C 14.1094 17.1172 13.6934 17.1758 13.2891 17.1758C 12.5625 17.1758 12.0146 16.9561 11.6455 16.5166C 11.2764 16.0771 11.0918 15.4531 11.0918 14.6445L 11.0918 8.74707L 9.36035 8.74707L 9.36035 7.49023L 11.0918 7.49023L 11.0918 5.1875L 12.7178 5.1875ZM 22.2715 17C 22.1777 16.8125 22.1016 16.4785 22.043 15.998C 21.2871 16.7832 20.3848 17.1758 19.3359 17.1758C 18.3984 17.1758 17.6279 16.9121 17.0244 16.3848C 16.4268 15.8516 16.1279 15.1777 16.1279 14.3633C 16.1279 13.373 16.5029 12.6055 17.2529 12.0605C 18.0088 11.5098 19.0693 11.2344 20.4346 11.2344L 22.0166 11.2344L 22.0166 10.4873C 22.0166 9.91895 21.8467 9.46777 21.5068 9.13379C 21.167 8.79395 20.666 8.62402 20.0039 8.62402C 19.4238 8.62402 18.9375 8.77051 18.5449 9.06348C 18.1523 9.35645 17.9561 9.71094 17.9561 10.127L 16.3213 10.127C 16.3213 9.65234 16.4883 9.19531 16.8223 8.75586C 17.1621 8.31055 17.6191 7.95898 18.1934 7.70117C 18.7734 7.44336 19.4092 7.31445 20.1006 7.31445C 21.1963 7.31445 22.0547 7.58984 22.6758 8.14062C 23.2969 8.68555 23.6191 9.43848 23.6426 10.3994L 23.6426 14.7764C 23.6426 15.6494 23.7539 16.3438 23.9766 16.8594L 23.9766 17L 22.2715 17ZM 19.5732 15.7607C 20.083 15.7607 20.5664 15.6289 21.0234 15.3652C 21.4805 15.1016 21.8115 14.7588 22.0166 14.3369L 22.0166 12.3857L 20.7422 12.3857C 18.75 12.3857 17.7539 12.9688 17.7539 14.1348C 17.7539 14.6445 17.9238 15.043 18.2637 15.3301C 18.6035 15.6172 19.04 15.7607 19.5732 15.7607ZM 30.0059 15.8486C 30.5859 15.8486 31.0928 15.6729 31.5264 15.3213C 31.96 14.9697 32.2002 14.5303 32.2471 14.0029L 33.7852 14.0029C 33.7559 14.5479 33.5684 15.0664 33.2227 15.5586C 32.877 16.0508 32.4141 16.4434 31.834 16.7363C 31.2598 17.0293 30.6504 17.1758 30.0059 17.1758C 28.7109 17.1758 27.6797 16.7451 26.9121 15.8838C 26.1504 15.0166 25.7695 13.833 25.7695 12.333L 25.7695 12.0605C 25.7695 11.1348 25.9395 10.3115 26.2793 9.59082C 26.6191 8.87012 27.1055 8.31055 27.7383 7.91211C 28.377 7.51367 29.1299 7.31445 29.9971 7.31445C 31.0635 7.31445 31.9482 7.63379 32.6514 8.27246C 33.3604 8.91113 33.7383 9.74023 33.7852 10.7598L 32.2471 10.7598C 32.2002 10.1445 31.9658 9.64062 31.5439 9.24805C 31.1279 8.84961 30.6123 8.65039 29.9971 8.65039C 29.1709 8.65039 28.5293 8.94922 28.0723 9.54688C 27.6211 10.1387 27.3955 10.9971 27.3955 12.1221L 27.3955 12.4297C 27.3955 13.5254 27.6211 14.3691 28.0723 14.9609C 28.5234 15.5527 29.168 15.8486 30.0059 15.8486ZM 38.2676 12.5967L 37.248 13.6602L 37.248 17L 35.6221 17L 35.6221 3.5L 37.248 3.5L 37.248 11.665L 38.1182 10.6191L 41.0801 7.49023L 43.0576 7.49023L 39.3574 11.4629L 43.4883 17L 41.5811 17L 38.2676 12.5967Z"/>
<path id="path3_fill" d="M 6.12891 4.28125L 3.89062 4.28125L 3.89062 23.875L 6.12891 23.875L 6.12891 25.6562L 1.71094 25.6562L 1.71094 2.5L 6.12891 2.5L 6.12891 4.28125ZM 20.8711 22L 18.6914 22L 18.6914 7.55078L 14.3203 9.15625L 14.3203 7.1875L 20.5312 4.85547L 20.8711 4.85547L 20.8711 22ZM 31.8633 2.5L 36.293 2.5L 36.293 25.6562L 31.8633 25.6562L 31.8633 23.875L 34.125 23.875L 34.125 4.28125L 31.8633 4.28125L 31.8633 2.5Z"/>
<path id="path4_fill" d="M 6.12891 4.28125L 3.89062 4.28125L 3.89062 23.875L 6.12891 23.875L 6.12891 25.6562L 1.71094 25.6562L 1.71094 2.5L 6.12891 2.5L 6.12891 4.28125ZM 24.9258 22L 13.7461 22L 13.7461 20.4414L 19.6523 13.8789C 20.5273 12.8867 21.1289 12.082 21.457 11.4648C 21.793 10.8398 21.9609 10.1953 21.9609 9.53125C 21.9609 8.64062 21.6914 7.91016 21.1523 7.33984C 20.6133 6.76953 19.8945 6.48438 18.9961 6.48438C 17.918 6.48438 17.0781 6.79297 16.4766 7.41016C 15.8828 8.01953 15.5859 8.87109 15.5859 9.96484L 13.418 9.96484C 13.418 8.39453 13.9219 7.125 14.9297 6.15625C 15.9453 5.1875 17.3008 4.70312 18.9961 4.70312C 20.582 4.70312 21.8359 5.12109 22.7578 5.95703C 23.6797 6.78516 24.1406 7.89062 24.1406 9.27344C 24.1406 10.9531 23.0703 12.9531 20.9297 15.2734L 16.3594 20.2305L 24.9258 20.2305L 24.9258 22ZM 27.375 25.3984L 26.1445 24.5547C 26.8789 23.5312 27.2617 22.4766 27.293 21.3906L 27.293 19.4336L 29.4141 19.4336L 29.4141 21.1328C 29.4141 21.9219 29.2188 22.7109 28.8281 23.5C 28.4453 24.2891 27.9609 24.9219 27.375 25.3984ZM 45.0117 22L 42.832 22L 42.832 7.55078L 38.4609 9.15625L 38.4609 7.1875L 44.6719 4.85547L 45.0117 4.85547L 45.0117 22ZM 56.0039 2.5L 60.4336 2.5L 60.4336 25.6562L 56.0039 25.6562L 56.0039 23.875L 58.2656 23.875L 58.2656 4.28125L 56.0039 4.28125L 56.0039 2.5Z"/>
<path id="path5_fill" d="M 6.12891 4.28125L 3.89062 4.28125L 3.89062 23.875L 6.12891 23.875L 6.12891 25.6562L 1.71094 25.6562L 1.71094 2.5L 6.12891 2.5L 6.12891 4.28125ZM 16.8984 12.4141L 18.5273 12.4141C 19.5508 12.3984 20.3555 12.1289 20.9414 11.6055C 21.5273 11.082 21.8203 10.375 21.8203 9.48438C 21.8203 7.48437 20.8242 6.48438 18.832 6.48438C 17.8945 6.48438 17.1445 6.75391 16.582 7.29297C 16.0273 7.82422 15.75 8.53125 15.75 9.41406L 13.582 9.41406C 13.582 8.0625 14.0742 6.94141 15.0586 6.05078C 16.0508 5.15234 17.3086 4.70312 18.832 4.70312C 20.4414 4.70312 21.7031 5.12891 22.6172 5.98047C 23.5312 6.83203 23.9883 8.01562 23.9883 9.53125C 23.9883 10.2734 23.7461 10.9922 23.2617 11.6875C 22.7852 12.3828 22.1328 12.9023 21.3047 13.2461C 22.2422 13.543 22.9648 14.0352 23.4727 14.7227C 23.9883 15.4102 24.2461 16.25 24.2461 17.2422C 24.2461 18.7734 23.7461 19.9883 22.7461 20.8867C 21.7461 21.7852 20.4453 22.2344 18.8438 22.2344C 17.2422 22.2344 15.9375 21.8008 14.9297 20.9336C 13.9297 20.0664 13.4297 18.9219 13.4297 17.5L 15.6094 17.5C 15.6094 18.3984 15.9023 19.1172 16.4883 19.6562C 17.0742 20.1953 17.8594 20.4648 18.8438 20.4648C 19.8906 20.4648 20.6914 20.1914 21.2461 19.6445C 21.8008 19.0977 22.0781 18.3125 22.0781 17.2891C 22.0781 16.2969 21.7734 15.5352 21.1641 15.0039C 20.5547 14.4727 19.6758 14.1992 18.5273 14.1836L 16.8984 14.1836L 16.8984 12.4141ZM 27.375 25.3984L 26.1445 24.5547C 26.8789 23.5312 27.2617 22.4766 27.293 21.3906L 27.293 19.4336L 29.4141 19.4336L 29.4141 21.1328C 29.4141 21.9219 29.2188 22.7109 28.8281 23.5C 28.4453 24.2891 27.9609 24.9219 27.375 25.3984ZM 49.0664 22L 37.8867 22L 37.8867 20.4414L 43.793 13.8789C 44.668 12.8867 45.2695 12.082 45.5977 11.4648C 45.9336 10.8398 46.1016 10.1953 46.1016 9.53125C 46.1016 8.64062 45.832 7.91016 45.293 7.33984C 44.7539 6.76953 44.0352 6.48438 43.1367 6.48438C 42.0586 6.48438 41.2188 6.79297 40.6172 7.41016C 40.0234 8.01953 39.7266 8.87109 39.7266 9.96484L 37.5586 9.96484C 37.5586 8.39453 38.0625 7.125 39.0703 6.15625C 40.0859 5.1875 41.4414 4.70312 43.1367 4.70312C 44.7227 4.70312 45.9766 5.12109 46.8984 5.95703C 47.8203 6.78516 48.2812 7.89062 48.2812 9.27344C 48.2812 10.9531 47.2109 12.9531 45.0703 15.2734L 40.5 20.2305L 49.0664 20.2305L 49.0664 22ZM 51.5156 25.3984L 50.2852 24.5547C 51.0195 23.5312 51.4023 22.4766 51.4336 21.3906L 51.4336 19.4336L 53.5547 19.4336L 53.5547 21.1328C 53.5547 21.9219 53.3594 22.7109 52.9688 23.5C 52.5859 24.2891 52.1016 24.9219 51.5156 25.3984ZM 69.1523 22L 66.9727 22L 66.9727 7.55078L 62.6016 9.15625L 62.6016 7.1875L 68.8125 4.85547L 69.1523 4.85547L 69.1523 22ZM 80.1445 2.5L 84.5742 2.5L 84.5742 25.6562L 80.1445 25.6562L 80.1445 23.875L 82.4062 23.875L 82.4062 4.28125L 80.1445 4.28125L 80.1445 2.5Z"/>
<path id="path6_fill" d="M 6.12891 4.28125L 3.89062 4.28125L 3.89062 23.875L 6.12891 23.875L 6.12891 25.6562L 1.71094 25.6562L 1.71094 2.5L 6.12891 2.5L 6.12891 4.28125ZM 24.4453 14.7227C 24.4453 17.2617 24.0117 19.1484 23.1445 20.3828C 22.2773 21.6172 20.9219 22.2344 19.0781 22.2344C 17.2578 22.2344 15.9102 21.6328 15.0352 20.4297C 14.1602 19.2188 13.707 17.4141 13.6758 15.0156L 13.6758 12.1211C 13.6758 9.61328 14.1094 7.75 14.9766 6.53125C 15.8438 5.3125 17.2031 4.70312 19.0547 4.70312C 20.8906 4.70312 22.2422 5.29297 23.1094 6.47266C 23.9766 7.64453 24.4219 9.45703 24.4453 11.9102L 24.4453 14.7227ZM 22.2773 11.7578C 22.2773 9.92188 22.0195 8.58594 21.5039 7.75C 20.9883 6.90625 20.1719 6.48438 19.0547 6.48438C 17.9453 6.48438 17.1367 6.90234 16.6289 7.73828C 16.1211 8.57422 15.8594 9.85938 15.8438 11.5938L 15.8438 15.0625C 15.8438 16.9062 16.1094 18.2695 16.6406 19.1523C 17.1797 20.0273 17.9922 20.4648 19.0781 20.4648C 20.1484 20.4648 20.9414 20.0508 21.457 19.2227C 21.9805 18.3945 22.2539 17.0898 22.2773 15.3086L 22.2773 11.7578ZM 31.8633 2.5L 36.293 2.5L 36.293 25.6562L 31.8633 25.6562L 31.8633 23.875L 34.125 23.875L 34.125 4.28125L 31.8633 4.28125L 31.8633 2.5Z"/>
<path id="path7_stroke" d="M 48.3536 0.353553C 48.5488 0.158291 48.5488 -0.158291 48.3536 -0.353553L 45.1716 -3.53553C 44.9763 -3.7308 44.6597 -3.7308 44.4645 -3.53553C 44.2692 -3.34027 44.2692 -3.02369 44.4645 -2.82843L 47.2929 0L 44.4645 2.82843C 44.2692 3.02369 44.2692 3.34027 44.4645 3.53553C 44.6597 3.7308 44.9763 3.7308 45.1716 3.53553L 48.3536 0.353553ZM 0 0.5L 48 0.5L 48 -0.5L 0 -0.5L 0 0.5Z"/>
<path id="path8_fill" d="M 8.55176 13.6602L 3.19043 13.6602L 1.98633 17L 0.246094 17L 5.13281 4.20312L 6.60938 4.20312L 11.5049 17L 9.77344 17L 8.55176 13.6602ZM 3.7002 12.2715L 8.05078 12.2715L 5.87109 6.28613L 3.7002 12.2715ZM 12.5771 12.166C 12.5771 10.707 12.9229 9.53516 13.6143 8.65039C 14.3057 7.75977 15.2109 7.31445 16.3301 7.31445C 17.4434 7.31445 18.3252 7.69531 18.9756 8.45703L 18.9756 3.5L 20.6016 3.5L 20.6016 17L 19.1074 17L 19.0283 15.9805C 18.3779 16.7773 17.4727 17.1758 16.3125 17.1758C 15.2109 17.1758 14.3115 16.7246 13.6143 15.8223C 12.9229 14.9199 12.5771 13.7422 12.5771 12.2891L 12.5771 12.166ZM 14.2031 12.3506C 14.2031 13.4287 14.4258 14.2725 14.8711 14.8818C 15.3164 15.4912 15.9316 15.7959 16.7168 15.7959C 17.748 15.7959 18.501 15.333 18.9756 14.4072L 18.9756 10.0391C 18.4893 9.14258 17.7422 8.69434 16.7344 8.69434C 15.9375 8.69434 15.3164 9.00195 14.8711 9.61719C 14.4258 10.2324 14.2031 11.1436 14.2031 12.3506ZM 22.7373 12.166C 22.7373 10.707 23.083 9.53516 23.7744 8.65039C 24.4658 7.75977 25.3711 7.31445 26.4902 7.31445C 27.6035 7.31445 28.4854 7.69531 29.1357 8.45703L 29.1357 3.5L 30.7617 3.5L 30.7617 17L 29.2676 17L 29.1885 15.9805C 28.5381 16.7773 27.6328 17.1758 26.4727 17.1758C 25.3711 17.1758 24.4717 16.7246 23.7744 15.8223C 23.083 14.9199 22.7373 13.7422 22.7373 12.2891L 22.7373 12.166ZM 24.3633 12.3506C 24.3633 13.4287 24.5859 14.2725 25.0312 14.8818C 25.4766 15.4912 26.0918 15.7959 26.877 15.7959C 27.9082 15.7959 28.6611 15.333 29.1357 14.4072L 29.1357 10.0391C 28.6494 9.14258 27.9023 8.69434 26.8945 8.69434C 26.0977 8.69434 25.4766 9.00195 25.0312 9.61719C 24.5859 10.2324 24.3633 11.1436 24.3633 12.3506ZM 10.3271 26.5918L 6.21387 26.5918L 6.21387 38L 4.53516 38L 4.53516 26.5918L 0.430664 26.5918L 0.430664 25.2031L 10.3271 25.2031L 10.3271 26.5918ZM 16.8398 38C 16.7461 37.8125 16.6699 37.4785 16.6113 36.998C 15.8555 37.7832 14.9531 38.1758 13.9043 38.1758C 12.9668 38.1758 12.1963 37.9121 11.5928 37.3848C 10.9951 36.8516 10.6963 36.1777 10.6963 35.3633C 10.6963 34.373 11.0713 33.6055 11.8213 33.0605C 12.5771 32.5098 13.6377 32.2344 15.0029 32.2344L 16.585 32.2344L 16.585 31.4873C 16.585 30.9189 16.415 30.4678 16.0752 30.1338C 15.7354 29.7939 15.2344 29.624 14.5723 29.624C 13.9922 29.624 13.5059 29.7705 13.1133 30.0635C 12.7207 30.3564 12.5244 30.7109 12.5244 31.127L 10.8896 31.127C 10.8896 30.6523 11.0566 30.1953 11.3906 29.7559C 11.7305 29.3105 12.1875 28.959 12.7617 28.7012C 13.3418 28.4434 13.9775 28.3145 14.6689 28.3145C 15.7646 28.3145 16.623 28.5898 17.2441 29.1406C 17.8652 29.6855 18.1875 30.4385 18.2109 31.3994L 18.2109 35.7764C 18.2109 36.6494 18.3223 37.3438 18.5449 37.8594L 18.5449 38L 16.8398 38ZM 14.1416 36.7607C 14.6514 36.7607 15.1348 36.6289 15.5918 36.3652C 16.0488 36.1016 16.3799 35.7588 16.585 35.3369L 16.585 33.3857L 15.3105 33.3857C 13.3184 33.3857 12.3223 33.9688 12.3223 35.1348C 12.3223 35.6445 12.4922 36.043 12.832 36.3301C 13.1719 36.6172 13.6084 36.7607 14.1416 36.7607ZM 26.2969 35.4775C 26.2969 35.0381 26.1299 34.6982 25.7959 34.458C 25.4678 34.2119 24.8906 34.001 24.0645 33.8252C 23.2441 33.6494 22.5908 33.4385 22.1045 33.1924C 21.624 32.9463 21.2666 32.6533 21.0322 32.3135C 20.8037 31.9736 20.6895 31.5693 20.6895 31.1006C 20.6895 30.3213 21.0176 29.6621 21.6738 29.123C 22.3359 28.584 23.1797 28.3145 24.2051 28.3145C 25.2832 28.3145 26.1562 28.5928 26.8242 29.1494C 27.498 29.7061 27.835 30.418 27.835 31.2852L 26.2002 31.2852C 26.2002 30.8398 26.0098 30.4561 25.6289 30.1338C 25.2539 29.8115 24.7793 29.6504 24.2051 29.6504C 23.6133 29.6504 23.1504 29.7793 22.8164 30.0371C 22.4824 30.2949 22.3154 30.6318 22.3154 31.0479C 22.3154 31.4404 22.4707 31.7363 22.7812 31.9355C 23.0918 32.1348 23.6514 32.3252 24.46 32.5068C 25.2744 32.6885 25.9336 32.9053 26.4375 33.1572C 26.9414 33.4092 27.3135 33.7139 27.5537 34.0713C 27.7998 34.4229 27.9229 34.8535 27.9229 35.3633C 27.9229 36.2129 27.583 36.8955 26.9033 37.4111C 26.2236 37.9209 25.3418 38.1758 24.2578 38.1758C 23.4961 38.1758 22.8223 38.041 22.2363 37.7715C 21.6504 37.502 21.1904 37.127 20.8564 36.6465C 20.5283 36.1602 20.3643 35.6357 20.3643 35.0732L 21.9902 35.0732C 22.0195 35.6182 22.2363 36.0518 22.6406 36.374C 23.0508 36.6904 23.5898 36.8486 24.2578 36.8486C 24.873 36.8486 25.3652 36.7256 25.7344 36.4795C 26.1094 36.2275 26.2969 35.8936 26.2969 35.4775ZM 32.6953 33.5967L 31.6758 34.6602L 31.6758 38L 30.0498 38L 30.0498 24.5L 31.6758 24.5L 31.6758 32.665L 32.5459 31.6191L 35.5078 28.4902L 37.4854 28.4902L 33.7852 32.4629L 37.916 38L 36.0088 38L 32.6953 33.5967Z"/>
<path id="path9_fill" d="M 6.12891 4.28125L 3.89062 4.28125L 3.89062 23.875L 6.12891 23.875L 6.12891 25.6562L 1.71094 25.6562L 1.71094 2.5L 6.12891 2.5L 6.12891 4.28125ZM 24.4453 14.7227C 24.4453 17.2617 24.0117 19.1484 23.1445 20.3828C 22.2773 21.6172 20.9219 22.2344 19.0781 22.2344C 17.2578 22.2344 15.9102 21.6328 15.0352 20.4297C 14.1602 19.2188 13.707 17.4141 13.6758 15.0156L 13.6758 12.1211C 13.6758 9.61328 14.1094 7.75 14.9766 6.53125C 15.8438 5.3125 17.2031 4.70312 19.0547 4.70312C 20.8906 4.70312 22.2422 5.29297 23.1094 6.47266C 23.9766 7.64453 24.4219 9.45703 24.4453 11.9102L 24.4453 14.7227ZM 22.2773 11.7578C 22.2773 9.92188 22.0195 8.58594 21.5039 7.75C 20.9883 6.90625 20.1719 6.48438 19.0547 6.48438C 17.9453 6.48438 17.1367 6.90234 16.6289 7.73828C 16.1211 8.57422 15.8594 9.85938 15.8438 11.5938L 15.8438 15.0625C 15.8438 16.9062 16.1094 18.2695 16.6406 19.1523C 17.1797 20.0273 17.9922 20.4648 19.0781 20.4648C 20.1484 20.4648 20.9414 20.0508 21.457 19.2227C 21.9805 18.3945 22.2539 17.0898 22.2773 15.3086L 22.2773 11.7578ZM 27.375 25.3984L 26.1445 24.5547C 26.8789 23.5312 27.2617 22.4766 27.293 21.3906L 27.293 19.4336L 29.4141 19.4336L 29.4141 21.1328C 29.4141 21.9219 29.2188 22.7109 28.8281 23.5C 28.4453 24.2891 27.9609 24.9219 27.375 25.3984ZM 48.5859 14.7227C 48.5859 17.2617 48.1523 19.1484 47.2852 20.3828C 46.418 21.6172 45.0625 22.2344 43.2188 22.2344C 41.3984 22.2344 40.0508 21.6328 39.1758 20.4297C 38.3008 19.2188 37.8477 17.4141 37.8164 15.0156L 37.8164 12.1211C 37.8164 9.61328 38.25 7.75 39.1172 6.53125C 39.9844 5.3125 41.3438 4.70312 43.1953 4.70312C 45.0312 4.70312 46.3828 5.29297 47.25 6.47266C 48.1172 7.64453 48.5625 9.45703 48.5859 11.9102L 48.5859 14.7227ZM 46.418 11.7578C 46.418 9.92188 46.1602 8.58594 45.6445 7.75C 45.1289 6.90625 44.3125 6.48438 43.1953 6.48438C 42.0859 6.48438 41.2773 6.90234 40.7695 7.73828C 40.2617 8.57422 40 9.85938 39.9844 11.5938L 39.9844 15.0625C 39.9844 16.9062 40.25 18.2695 40.7812 19.1523C 41.3203 20.0273 42.1328 20.4648 43.2188 20.4648C 44.2891 20.4648 45.082 20.0508 45.5977 19.2227C 46.1211 18.3945 46.3945 17.0898 46.418 15.3086L 46.418 11.7578ZM 56.0039 2.5L 60.4336 2.5L 60.4336 25.6562L 56.0039 25.6562L 56.0039 23.875L 58.2656 23.875L 58.2656 4.28125L 56.0039 4.28125L 56.0039 2.5Z"/>
<path id="path10_fill" d="M 6.12891 4.28125L 3.89062 4.28125L 3.89062 23.875L 6.12891 23.875L 6.12891 25.6562L 1.71094 25.6562L 1.71094 2.5L 6.12891 2.5L 6.12891 4.28125ZM 24.4453 14.7227C 24.4453 17.2617 24.0117 19.1484 23.1445 20.3828C 22.2773 21.6172 20.9219 22.2344 19.0781 22.2344C 17.2578 22.2344 15.9102 21.6328 15.0352 20.4297C 14.1602 19.2188 13.707 17.4141 13.6758 15.0156L 13.6758 12.1211C 13.6758 9.61328 14.1094 7.75 14.9766 6.53125C 15.8438 5.3125 17.2031 4.70312 19.0547 4.70312C 20.8906 4.70312 22.2422 5.29297 23.1094 6.47266C 23.9766 7.64453 24.4219 9.45703 24.4453 11.9102L 24.4453 14.7227ZM 22.2773 11.7578C 22.2773 9.92188 22.0195 8.58594 21.5039 7.75C 20.9883 6.90625 20.1719 6.48438 19.0547 6.48438C 17.9453 6.48438 17.1367 6.90234 16.6289 7.73828C 16.1211 8.57422 15.8594 9.85938 15.8438 11.5938L 15.8438 15.0625C 15.8438 16.9062 16.1094 18.2695 16.6406 19.1523C 17.1797 20.0273 17.9922 20.4648 19.0781 20.4648C 20.1484 20.4648 20.9414 20.0508 21.457 19.2227C 21.9805 18.3945 22.2539 17.0898 22.2773 15.3086L 22.2773 11.7578ZM 27.375 25.3984L 26.1445 24.5547C 26.8789 23.5312 27.2617 22.4766 27.293 21.3906L 27.293 19.4336L 29.4141 19.4336L 29.4141 21.1328C 29.4141 21.9219 29.2188 22.7109 28.8281 23.5C 28.4453 24.2891 27.9609 24.9219 27.375 25.3984ZM 48.5859 14.7227C 48.5859 17.2617 48.1523 19.1484 47.2852 20.3828C 46.418 21.6172 45.0625 22.2344 43.2188 22.2344C 41.3984 22.2344 40.0508 21.6328 39.1758 20.4297C 38.3008 19.2188 37.8477 17.4141 37.8164 15.0156L 37.8164 12.1211C 37.8164 9.61328 38.25 7.75 39.1172 6.53125C 39.9844 5.3125 41.3438 4.70312 43.1953 4.70312C 45.0312 4.70312 46.3828 5.29297 47.25 6.47266C 48.1172 7.64453 48.5625 9.45703 48.5859 11.9102L 48.5859 14.7227ZM 46.418 11.7578C 46.418 9.92188 46.1602 8.58594 45.6445 7.75C 45.1289 6.90625 44.3125 6.48438 43.1953 6.48438C 42.0859 6.48438 41.2773 6.90234 40.7695 7.73828C 40.2617 8.57422 40 9.85938 39.9844 11.5938L 39.9844 15.0625C 39.9844 16.9062 40.25 18.2695 40.7812 19.1523C 41.3203 20.0273 42.1328 20.4648 43.2188 20.4648C 44.2891 20.4648 45.082 20.0508 45.5977 19.2227C 46.1211 18.3945 46.3945 17.0898 46.418 15.3086L 46.418 11.7578ZM 51.5156 25.3984L 50.2852 24.5547C 51.0195 23.5312 51.4023 22.4766 51.4336 21.3906L 51.4336 19.4336L 53.5547 19.4336L 53.5547 21.1328C 53.5547 21.9219 53.3594 22.7109 52.9688 23.5C 52.5859 24.2891 52.1016 24.9219 51.5156 25.3984ZM 72.7266 14.7227C 72.7266 17.2617 72.293 19.1484 71.4258 20.3828C 70.5586 21.6172 69.2031 22.2344 67.3594 22.2344C 65.5391 22.2344 64.1914 21.6328 63.3164 20.4297C 62.4414 19.2188 61.9883 17.4141 61.957 15.0156L 61.957 12.1211C 61.957 9.61328 62.3906 7.75 63.2578 6.53125C 64.125 5.3125 65.4844 4.70312 67.3359 4.70312C 69.1719 4.70312 70.5234 5.29297 71.3906 6.47266C 72.2578 7.64453 72.7031 9.45703 72.7266 11.9102L 72.7266 14.7227ZM 70.5586 11.7578C 70.5586 9.92188 70.3008 8.58594 69.7852 7.75C 69.2695 6.90625 68.4531 6.48438 67.3359 6.48438C 66.2266 6.48438 65.418 6.90234 64.9102 7.73828C 64.4023 8.57422 64.1406 9.85938 64.125 11.5938L 64.125 15.0625C 64.125 16.9062 64.3906 18.2695 64.9219 19.1523C 65.4609 20.0273 66.2734 20.4648 67.3594 20.4648C 68.4297 20.4648 69.2227 20.0508 69.7383 19.2227C 70.2617 18.3945 70.5352 17.0898 70.5586 15.3086L 70.5586 11.7578ZM 80.1445 2.5L 84.5742 2.5L 84.5742 25.6562L 80.1445 25.6562L 80.1445 23.875L 82.4062 23.875L 82.4062 4.28125L 80.1445 4.28125L 80.1445 2.5Z"/>
<path id="path11_fill" d="M 6.12891 4.28125L 3.89062 4.28125L 3.89062 23.875L 6.12891 23.875L 6.12891 25.6562L 1.71094 25.6562L 1.71094 2.5L 6.12891 2.5L 6.12891 4.28125ZM 20.8711 22L 18.6914 22L 18.6914 7.55078L 14.3203 9.15625L 14.3203 7.1875L 20.5312 4.85547L 20.8711 4.85547L 20.8711 22ZM 27.375 25.3984L 26.1445 24.5547C 26.8789 23.5312 27.2617 22.4766 27.293 21.3906L 27.293 19.4336L 29.4141 19.4336L 29.4141 21.1328C 29.4141 21.9219 29.2188 22.7109 28.8281 23.5C 28.4453 24.2891 27.9609 24.9219 27.375 25.3984ZM 45.0117 22L 42.832 22L 42.832 7.55078L 38.4609 9.15625L 38.4609 7.1875L 44.6719 4.85547L 45.0117 4.85547L 45.0117 22ZM 51.5156 25.3984L 50.2852 24.5547C 51.0195 23.5312 51.4023 22.4766 51.4336 21.3906L 51.4336 19.4336L 53.5547 19.4336L 53.5547 21.1328C 53.5547 21.9219 53.3594 22.7109 52.9688 23.5C 52.5859 24.2891 52.1016 24.9219 51.5156 25.3984ZM 69.1523 22L 66.9727 22L 66.9727 7.55078L 62.6016 9.15625L 62.6016 7.1875L 68.8125 4.85547L 69.1523 4.85547L 69.1523 22ZM 80.1445 2.5L 84.5742 2.5L 84.5742 25.6562L 80.1445 25.6562L 80.1445 23.875L 82.4062 23.875L 82.4062 4.28125L 80.1445 4.28125L 80.1445 2.5Z"/>
<path id="path12_fill" d="M 3.17285 11.9902L 3.17285 17L 1.48535 17L 1.48535 4.20312L 6.20508 4.20312C 7.60547 4.20312 8.70117 4.56055 9.49219 5.27539C 10.2891 5.99023 10.6875 6.93652 10.6875 8.11426C 10.6875 9.35645 10.2979 10.3145 9.51855 10.9883C 8.74512 11.6562 7.63477 11.9902 6.1875 11.9902L 3.17285 11.9902ZM 3.17285 10.6104L 6.20508 10.6104C 7.10742 10.6104 7.79883 10.3994 8.2793 9.97754C 8.75977 9.5498 9 8.93457 9 8.13184C 9 7.37012 8.75977 6.76074 8.2793 6.30371C 7.79883 5.84668 7.13965 5.60938 6.30176 5.5918L 3.17285 5.5918L 3.17285 10.6104ZM 17.1826 8.94922C 16.9365 8.9082 16.6699 8.8877 16.3828 8.8877C 15.3164 8.8877 14.5928 9.3418 14.2119 10.25L 14.2119 17L 12.5859 17L 12.5859 7.49023L 14.168 7.49023L 14.1943 8.58887C 14.7275 7.73926 15.4834 7.31445 16.4619 7.31445C 16.7783 7.31445 17.0186 7.35547 17.1826 7.4375L 17.1826 8.94922ZM 18.0791 12.1572C 18.0791 11.2256 18.2607 10.3877 18.624 9.64355C 18.9932 8.89941 19.5029 8.3252 20.1533 7.9209C 20.8096 7.5166 21.5566 7.31445 22.3945 7.31445C 23.6895 7.31445 24.7354 7.7627 25.5322 8.65918C 26.335 9.55566 26.7363 10.748 26.7363 12.2363L 26.7363 12.3506C 26.7363 13.2764 26.5576 14.1084 26.2002 14.8467C 25.8486 15.5791 25.3418 16.1504 24.6797 16.5605C 24.0234 16.9707 23.2676 17.1758 22.4121 17.1758C 21.123 17.1758 20.0771 16.7275 19.2744 15.8311C 18.4775 14.9346 18.0791 13.748 18.0791 12.2715L 18.0791 12.1572ZM 19.7139 12.3506C 19.7139 13.4053 19.957 14.252 20.4434 14.8906C 20.9355 15.5293 21.5918 15.8486 22.4121 15.8486C 23.2383 15.8486 23.8945 15.5264 24.3809 14.8818C 24.8672 14.2314 25.1104 13.3232 25.1104 12.1572C 25.1104 11.1143 24.8613 10.2705 24.3633 9.62598C 23.8711 8.97559 23.2148 8.65039 22.3945 8.65039C 21.5918 8.65039 20.9443 8.96973 20.4521 9.6084C 19.96 10.2471 19.7139 11.1611 19.7139 12.3506ZM 32.5898 15.8486C 33.1699 15.8486 33.6768 15.6729 34.1104 15.3213C 34.5439 14.9697 34.7842 14.5303 34.8311 14.0029L 36.3691 14.0029C 36.3398 14.5479 36.1523 15.0664 35.8066 15.5586C 35.4609 16.0508 34.998 16.4434 34.418 16.7363C 33.8438 17.0293 33.2344 17.1758 32.5898 17.1758C 31.2949 17.1758 30.2637 16.7451 29.4961 15.8838C 28.7344 15.0166 28.3535 13.833 28.3535 12.333L 28.3535 12.0605C 28.3535 11.1348 28.5234 10.3115 28.8633 9.59082C 29.2031 8.87012 29.6895 8.31055 30.3223 7.91211C 30.9609 7.51367 31.7139 7.31445 32.5811 7.31445C 33.6475 7.31445 34.5322 7.63379 35.2354 8.27246C 35.9443 8.91113 36.3223 9.74023 36.3691 10.7598L 34.8311 10.7598C 34.7842 10.1445 34.5498 9.64062 34.1279 9.24805C 33.7119 8.84961 33.1963 8.65039 32.5811 8.65039C 31.7549 8.65039 31.1133 8.94922 30.6562 9.54688C 30.2051 10.1387 29.9795 10.9971 29.9795 12.1221L 29.9795 12.4297C 29.9795 13.5254 30.2051 14.3691 30.6562 14.9609C 31.1074 15.5527 31.752 15.8486 32.5898 15.8486ZM 42.1436 17.1758C 40.8545 17.1758 39.8057 16.7539 38.9971 15.9102C 38.1885 15.0605 37.7842 13.9268 37.7842 12.5088L 37.7842 12.21C 37.7842 11.2666 37.9629 10.4258 38.3203 9.6875C 38.6836 8.94336 39.1875 8.36328 39.832 7.94727C 40.4824 7.52539 41.1855 7.31445 41.9414 7.31445C 43.1777 7.31445 44.1387 7.72168 44.8242 8.53613C 45.5098 9.35059 45.8525 10.5166 45.8525 12.0342L 45.8525 12.7109L 39.4102 12.7109C 39.4336 13.6484 39.7061 14.4072 40.2275 14.9873C 40.7549 15.5615 41.4229 15.8486 42.2314 15.8486C 42.8057 15.8486 43.292 15.7314 43.6904 15.4971C 44.0889 15.2627 44.4375 14.9521 44.7363 14.5654L 45.7295 15.3389C 44.9326 16.5635 43.7373 17.1758 42.1436 17.1758ZM 41.9414 8.65039C 41.2852 8.65039 40.7344 8.89062 40.2891 9.37109C 39.8438 9.8457 39.5684 10.5137 39.4629 11.375L 44.2266 11.375L 44.2266 11.252C 44.1797 10.4258 43.957 9.78711 43.5586 9.33594C 43.1602 8.87891 42.6211 8.65039 41.9414 8.65039ZM 53.2793 14.4775C 53.2793 14.0381 53.1123 13.6982 52.7783 13.458C 52.4502 13.2119 51.873 13.001 51.0469 12.8252C 50.2266 12.6494 49.5732 12.4385 49.0869 12.1924C 48.6064 11.9463 48.249 11.6533 48.0146 11.3135C 47.7861 10.9736 47.6719 10.5693 47.6719 10.1006C 47.6719 9.32129 48 8.66211 48.6562 8.12305C 49.3184 7.58398 50.1621 7.31445 51.1875 7.31445C 52.2656 7.31445 53.1387 7.59277 53.8066 8.14941C 54.4805 8.70605 54.8174 9.41797 54.8174 10.2852L 53.1826 10.2852C 53.1826 9.83984 52.9922 9.45605 52.6113 9.13379C 52.2363 8.81152 51.7617 8.65039 51.1875 8.65039C 50.5957 8.65039 50.1328 8.7793 49.7988 9.03711C 49.4648 9.29492 49.2979 9.63184 49.2979 10.0479C 49.2979 10.4404 49.4531 10.7363 49.7637 10.9355C 50.0742 11.1348 50.6338 11.3252 51.4424 11.5068C 52.2568 11.6885 52.916 11.9053 53.4199 12.1572C 53.9238 12.4092 54.2959 12.7139 54.5361 13.0713C 54.7822 13.4229 54.9053 13.8535 54.9053 14.3633C 54.9053 15.2129 54.5654 15.8955 53.8857 16.4111C 53.2061 16.9209 52.3242 17.1758 51.2402 17.1758C 50.4785 17.1758 49.8047 17.041 49.2188 16.7715C 48.6328 16.502 48.1729 16.127 47.8389 15.6465C 47.5107 15.1602 47.3467 14.6357 47.3467 14.0732L 48.9727 14.0732C 49.002 14.6182 49.2188 15.0518 49.623 15.374C 50.0332 15.6904 50.5723 15.8486 51.2402 15.8486C 51.8555 15.8486 52.3477 15.7256 52.7168 15.4795C 53.0918 15.2275 53.2793 14.8936 53.2793 14.4775ZM 62.5605 14.4775C 62.5605 14.0381 62.3936 13.6982 62.0596 13.458C 61.7314 13.2119 61.1543 13.001 60.3281 12.8252C 59.5078 12.6494 58.8545 12.4385 58.3682 12.1924C 57.8877 11.9463 57.5303 11.6533 57.2959 11.3135C 57.0674 10.9736 56.9531 10.5693 56.9531 10.1006C 56.9531 9.32129 57.2812 8.66211 57.9375 8.12305C 58.5996 7.58398 59.4434 7.31445 60.4688 7.31445C 61.5469 7.31445 62.4199 7.59277 63.0879 8.14941C 63.7617 8.70605 64.0986 9.41797 64.0986 10.2852L 62.4639 10.2852C 62.4639 9.83984 62.2734 9.45605 61.8926 9.13379C 61.5176 8.81152 61.043 8.65039 60.4688 8.65039C 59.877 8.65039 59.4141 8.7793 59.0801 9.03711C 58.7461 9.29492 58.5791 9.63184 58.5791 10.0479C 58.5791 10.4404 58.7344 10.7363 59.0449 10.9355C 59.3555 11.1348 59.915 11.3252 60.7236 11.5068C 61.5381 11.6885 62.1973 11.9053 62.7012 12.1572C 63.2051 12.4092 63.5771 12.7139 63.8174 13.0713C 64.0635 13.4229 64.1865 13.8535 64.1865 14.3633C 64.1865 15.2129 63.8467 15.8955 63.167 16.4111C 62.4873 16.9209 61.6055 17.1758 60.5215 17.1758C 59.7598 17.1758 59.0859 17.041 58.5 16.7715C 57.9141 16.502 57.4541 16.127 57.1201 15.6465C 56.792 15.1602 56.6279 14.6357 56.6279 14.0732L 58.2539 14.0732C 58.2832 14.6182 58.5 15.0518 58.9043 15.374C 59.3145 15.6904 59.8535 15.8486 60.5215 15.8486C 61.1367 15.8486 61.6289 15.7256 61.998 15.4795C 62.373 15.2275 62.5605 14.8936 62.5605 14.4775ZM 10.3271 26.5918L 6.21387 26.5918L 6.21387 38L 4.53516 38L 4.53516 26.5918L 0.430664 26.5918L 0.430664 25.2031L 10.3271 25.2031L 10.3271 26.5918ZM 16.8398 38C 16.7461 37.8125 16.6699 37.4785 16.6113 36.998C 15.8555 37.7832 14.9531 38.1758 13.9043 38.1758C 12.9668 38.1758 12.1963 37.9121 11.5928 37.3848C 10.9951 36.8516 10.6963 36.1777 10.6963 35.3633C 10.6963 34.373 11.0713 33.6055 11.8213 33.0605C 12.5771 32.5098 13.6377 32.2344 15.0029 32.2344L 16.585 32.2344L 16.585 31.4873C 16.585 30.9189 16.415 30.4678 16.0752 30.1338C 15.7354 29.7939 15.2344 29.624 14.5723 29.624C 13.9922 29.624 13.5059 29.7705 13.1133 30.0635C 12.7207 30.3564 12.5244 30.7109 12.5244 31.127L 10.8896 31.127C 10.8896 30.6523 11.0566 30.1953 11.3906 29.7559C 11.7305 29.3105 12.1875 28.959 12.7617 28.7012C 13.3418 28.4434 13.9775 28.3145 14.6689 28.3145C 15.7646 28.3145 16.623 28.5898 17.2441 29.1406C 17.8652 29.6855 18.1875 30.4385 18.2109 31.3994L 18.2109 35.7764C 18.2109 36.6494 18.3223 37.3438 18.5449 37.8594L 18.5449 38L 16.8398 38ZM 14.1416 36.7607C 14.6514 36.7607 15.1348 36.6289 15.5918 36.3652C 16.0488 36.1016 16.3799 35.7588 16.585 35.3369L 16.585 33.3857L 15.3105 33.3857C 13.3184 33.3857 12.3223 33.9688 12.3223 35.1348C 12.3223 35.6445 12.4922 36.043 12.832 36.3301C 13.1719 36.6172 13.6084 36.7607 14.1416 36.7607ZM 26.2969 35.4775C 26.2969 35.0381 26.1299 34.6982 25.7959 34.458C 25.4678 34.2119 24.8906 34.001 24.0645 33.8252C 23.2441 33.6494 22.5908 33.4385 22.1045 33.1924C 21.624 32.9463 21.2666 32.6533 21.0322 32.3135C 20.8037 31.9736 20.6895 31.5693 20.6895 31.1006C 20.6895 30.3213 21.0176 29.6621 21.6738 29.123C 22.3359 28.584 23.1797 28.3145 24.2051 28.3145C 25.2832 28.3145 26.1562 28.5928 26.8242 29.1494C 27.498 29.7061 27.835 30.418 27.835 31.2852L 26.2002 31.2852C 26.2002 30.8398 26.0098 30.4561 25.6289 30.1338C 25.2539 29.8115 24.7793 29.6504 24.2051 29.6504C 23.6133 29.6504 23.1504 29.7793 22.8164 30.0371C 22.4824 30.2949 22.3154 30.6318 22.3154 31.0479C 22.3154 31.4404 22.4707 31.7363 22.7812 31.9355C 23.0918 32.1348 23.6514 32.3252 24.46 32.5068C 25.2744 32.6885 25.9336 32.9053 26.4375 33.1572C 26.9414 33.4092 27.3135 33.7139 27.5537 34.0713C 27.7998 34.4229 27.9229 34.8535 27.9229 35.3633C 27.9229 36.2129 27.583 36.8955 26.9033 37.4111C 26.2236 37.9209 25.3418 38.1758 24.2578 38.1758C 23.4961 38.1758 22.8223 38.041 22.2363 37.7715C 21.6504 37.502 21.1904 37.127 20.8564 36.6465C 20.5283 36.1602 20.3643 35.6357 20.3643 35.0732L 21.9902 35.0732C 22.0195 35.6182 22.2363 36.0518 22.6406 36.374C 23.0508 36.6904 23.5898 36.8486 24.2578 36.8486C 24.873 36.8486 25.3652 36.7256 25.7344 36.4795C 26.1094 36.2275 26.2969 35.8936 26.2969 35.4775ZM 32.6953 33.5967L 31.6758 34.6602L 31.6758 38L 30.0498 38L 30.0498 24.5L 31.6758 24.5L 31.6758 32.665L 32.5459 31.6191L 35.5078 28.4902L 37.4854 28.4902L 33.7852 32.4629L 37.916 38L 36.0088 38L 32.6953 33.5967Z"/>
<path id="path13_fill" d="M 6.12891 4.28125L 3.89062 4.28125L 3.89062 23.875L 6.12891 23.875L 6.12891 25.6562L 1.71094 25.6562L 1.71094 2.5L 6.12891 2.5L 6.12891 4.28125ZM 24.9258 22L 13.7461 22L 13.7461 20.4414L 19.6523 13.8789C 20.5273 12.8867 21.1289 12.082 21.457 11.4648C 21.793 10.8398 21.9609 10.1953 21.9609 9.53125C 21.9609 8.64062 21.6914 7.91016 21.1523 7.33984C 20.6133 6.76953 19.8945 6.48438 18.9961 6.48438C 17.918 6.48438 17.0781 6.79297 16.4766 7.41016C 15.8828 8.01953 15.5859 8.87109 15.5859 9.96484L 13.418 9.96484C 13.418 8.39453 13.9219 7.125 14.9297 6.15625C 15.9453 5.1875 17.3008 4.70312 18.9961 4.70312C 20.582 4.70312 21.8359 5.12109 22.7578 5.95703C 23.6797 6.78516 24.1406 7.89062 24.1406 9.27344C 24.1406 10.9531 23.0703 12.9531 20.9297 15.2734L 16.3594 20.2305L 24.9258 20.2305L 24.9258 22ZM 27.375 25.3984L 26.1445 24.5547C 26.8789 23.5312 27.2617 22.4766 27.293 21.3906L 27.293 19.4336L 29.4141 19.4336L 29.4141 21.1328C 29.4141 21.9219 29.2188 22.7109 28.8281 23.5C 28.4453 24.2891 27.9609 24.9219 27.375 25.3984ZM 49.0664 22L 37.8867 22L 37.8867 20.4414L 43.793 13.8789C 44.668 12.8867 45.2695 12.082 45.5977 11.4648C 45.9336 10.8398 46.1016 10.1953 46.1016 9.53125C 46.1016 8.64062 45.832 7.91016 45.293 7.33984C 44.7539 6.76953 44.0352 6.48438 43.1367 6.48438C 42.0586 6.48438 41.2188 6.79297 40.6172 7.41016C 40.0234 8.01953 39.7266 8.87109 39.7266 9.96484L 37.5586 9.96484C 37.5586 8.39453 38.0625 7.125 39.0703 6.15625C 40.0859 5.1875 41.4414 4.70312 43.1367 4.70312C 44.7227 4.70312 45.9766 5.12109 46.8984 5.95703C 47.8203 6.78516 48.2812 7.89062 48.2812 9.27344C 48.2812 10.9531 47.2109 12.9531 45.0703 15.2734L 40.5 20.2305L 49.0664 20.2305L 49.0664 22ZM 51.5156 25.3984L 50.2852 24.5547C 51.0195 23.5312 51.4023 22.4766 51.4336 21.3906L 51.4336 19.4336L 53.5547 19.4336L 53.5547 21.1328C 53.5547 21.9219 53.3594 22.7109 52.9688 23.5C 52.5859 24.2891 52.1016 24.9219 51.5156 25.3984ZM 73.207 22L 62.0273 22L 62.0273 20.4414L 67.9336 13.8789C 68.8086 12.8867 69.4102 12.082 69.7383 11.4648C 70.0742 10.8398 70.2422 10.1953 70.2422 9.53125C 70.2422 8.64062 69.9727 7.91016 69.4336 7.33984C 68.8945 6.76953 68.1758 6.48438 67.2773 6.48438C 66.1992 6.48438 65.3594 6.79297 64.7578 7.41016C 64.1641 8.01953 63.8672 8.87109 63.8672 9.96484L 61.6992 9.96484C 61.6992 8.39453 62.2031 7.125 63.2109 6.15625C 64.2266 5.1875 65.582 4.70312 67.2773 4.70312C 68.8633 4.70312 70.1172 5.12109 71.0391 5.95703C 71.9609 6.78516 72.4219 7.89062 72.4219 9.27344C 72.4219 10.9531 71.3516 12.9531 69.2109 15.2734L 64.6406 20.2305L 73.207 20.2305L 73.207 22ZM 80.1445 2.5L 84.5742 2.5L 84.5742 25.6562L 80.1445 25.6562L 80.1445 23.875L 82.4062 23.875L 82.4062 4.28125L 80.1445 4.28125L 80.1445 2.5Z"/>
<path id="path14_fill" d="M 6.12891 4.28125L 3.89062 4.28125L 3.89062 23.875L 6.12891 23.875L 6.12891 25.6562L 1.71094 25.6562L 1.71094 2.5L 6.12891 2.5L 6.12891 4.28125ZM 18.3867 2.5L 22.8164 2.5L 22.8164 25.6562L 18.3867 25.6562L 18.3867 23.875L 20.6484 23.875L 20.6484 4.28125L 18.3867 4.28125L 18.3867 2.5Z"/>
<path id="path15_fill" d="M 6.12891 4.28125L 3.89062 4.28125L 3.89062 23.875L 6.12891 23.875L 6.12891 25.6562L 1.71094 25.6562L 1.71094 2.5L 6.12891 2.5L 6.12891 4.28125ZM 16.8984 12.4141L 18.5273 12.4141C 19.5508 12.3984 20.3555 12.1289 20.9414 11.6055C 21.5273 11.082 21.8203 10.375 21.8203 9.48438C 21.8203 7.48437 20.8242 6.48438 18.832 6.48438C 17.8945 6.48438 17.1445 6.75391 16.582 7.29297C 16.0273 7.82422 15.75 8.53125 15.75 9.41406L 13.582 9.41406C 13.582 8.0625 14.0742 6.94141 15.0586 6.05078C 16.0508 5.15234 17.3086 4.70312 18.832 4.70312C 20.4414 4.70312 21.7031 5.12891 22.6172 5.98047C 23.5312 6.83203 23.9883 8.01562 23.9883 9.53125C 23.9883 10.2734 23.7461 10.9922 23.2617 11.6875C 22.7852 12.3828 22.1328 12.9023 21.3047 13.2461C 22.2422 13.543 22.9648 14.0352 23.4727 14.7227C 23.9883 15.4102 24.2461 16.25 24.2461 17.2422C 24.2461 18.7734 23.7461 19.9883 22.7461 20.8867C 21.7461 21.7852 20.4453 22.2344 18.8438 22.2344C 17.2422 22.2344 15.9375 21.8008 14.9297 20.9336C 13.9297 20.0664 13.4297 18.9219 13.4297 17.5L 15.6094 17.5C 15.6094 18.3984 15.9023 19.1172 16.4883 19.6562C 17.0742 20.1953 17.8594 20.4648 18.8438 20.4648C 19.8906 20.4648 20.6914 20.1914 21.2461 19.6445C 21.8008 19.0977 22.0781 18.3125 22.0781 17.2891C 22.0781 16.2969 21.7734 15.5352 21.1641 15.0039C 20.5547 14.4727 19.6758 14.1992 18.5273 14.1836L 16.8984 14.1836L 16.8984 12.4141ZM 27.375 25.3984L 26.1445 24.5547C 26.8789 23.5312 27.2617 22.4766 27.293 21.3906L 27.293 19.4336L 29.4141 19.4336L 29.4141 21.1328C 29.4141 21.9219 29.2188 22.7109 28.8281 23.5C 28.4453 24.2891 27.9609 24.9219 27.375 25.3984ZM 41.0391 12.4141L 42.668 12.4141C 43.6914 12.3984 44.4961 12.1289 45.082 11.6055C 45.668 11.082 45.9609 10.375 45.9609 9.48438C 45.9609 7.48437 44.9648 6.48438 42.9727 6.48438C 42.0352 6.48438 41.2852 6.75391 40.7227 7.29297C 40.168 7.82422 39.8906 8.53125 39.8906 9.41406L 37.7227 9.41406C 37.7227 8.0625 38.2148 6.94141 39.1992 6.05078C 40.1914 5.15234 41.4492 4.70312 42.9727 4.70312C 44.582 4.70312 45.8438 5.12891 46.7578 5.98047C 47.6719 6.83203 48.1289 8.01562 48.1289 9.53125C 48.1289 10.2734 47.8867 10.9922 47.4023 11.6875C 46.9258 12.3828 46.2734 12.9023 45.4453 13.2461C 46.3828 13.543 47.1055 14.0352 47.6133 14.7227C 48.1289 15.4102 48.3867 16.25 48.3867 17.2422C 48.3867 18.7734 47.8867 19.9883 46.8867 20.8867C 45.8867 21.7852 44.5859 22.2344 42.9844 22.2344C 41.3828 22.2344 40.0781 21.8008 39.0703 20.9336C 38.0703 20.0664 37.5703 18.9219 37.5703 17.5L 39.75 17.5C 39.75 18.3984 40.043 19.1172 40.6289 19.6562C 41.2148 20.1953 42 20.4648 42.9844 20.4648C 44.0312 20.4648 44.832 20.1914 45.3867 19.6445C 45.9414 19.0977 46.2188 18.3125 46.2188 17.2891C 46.2188 16.2969 45.9141 15.5352 45.3047 15.0039C 44.6953 14.4727 43.8164 14.1992 42.668 14.1836L 41.0391 14.1836L 41.0391 12.4141ZM 51.5156 25.3984L 50.2852 24.5547C 51.0195 23.5312 51.4023 22.4766 51.4336 21.3906L 51.4336 19.4336L 53.5547 19.4336L 53.5547 21.1328C 53.5547 21.9219 53.3594 22.7109 52.9688 23.5C 52.5859 24.2891 52.1016 24.9219 51.5156 25.3984ZM 65.1797 12.4141L 66.8086 12.4141C 67.832 12.3984 68.6367 12.1289 69.2227 11.6055C 69.8086 11.082 70.1016 10.375 70.1016 9.48438C 70.1016 7.48437 69.1055 6.48438 67.1133 6.48438C 66.1758 6.48438 65.4258 6.75391 64.8633 7.29297C 64.3086 7.82422 64.0312 8.53125 64.0312 9.41406L 61.8633 9.41406C 61.8633 8.0625 62.3555 6.94141 63.3398 6.05078C 64.332 5.15234 65.5898 4.70312 67.1133 4.70312C 68.7227 4.70312 69.9844 5.12891 70.8984 5.98047C 71.8125 6.83203 72.2695 8.01562 72.2695 9.53125C 72.2695 10.2734 72.0273 10.9922 71.543 11.6875C 71.0664 12.3828 70.4141 12.9023 69.5859 13.2461C 70.5234 13.543 71.2461 14.0352 71.7539 14.7227C 72.2695 15.4102 72.5273 16.25 72.5273 17.2422C 72.5273 18.7734 72.0273 19.9883 71.0273 20.8867C 70.0273 21.7852 68.7266 22.2344 67.125 22.2344C 65.5234 22.2344 64.2188 21.8008 63.2109 20.9336C 62.2109 20.0664 61.7109 18.9219 61.7109 17.5L 63.8906 17.5C 63.8906 18.3984 64.1836 19.1172 64.7695 19.6562C 65.3555 20.1953 66.1406 20.4648 67.125 20.4648C 68.1719 20.4648 68.9727 20.1914 69.5273 19.6445C 70.082 19.0977 70.3594 18.3125 70.3594 17.2891C 70.3594 16.2969 70.0547 15.5352 69.4453 15.0039C 68.8359 14.4727 67.957 14.1992 66.8086 14.1836L 65.1797 14.1836L 65.1797 12.4141ZM 80.1445 2.5L 84.5742 2.5L 84.5742 25.6562L 80.1445 25.6562L 80.1445 23.875L 82.4062 23.875L 82.4062 4.28125L 80.1445 4.28125L 80.1445 2.5Z"/>
</defs>
</svg>
