<svg width="1171" height="964" viewBox="0 0 1171 964" version="1.1" xmlns="http://www.w3.org/2000/svg" xmlns:xlink="http://www.w3.org/1999/xlink" xmlns:figma="http://www.figma.com/figma/ns">
<title>linked_list_search</title>
<desc>Created using Figma</desc>
<g id="Canvas" transform="translate(1029 412)" figma:type="canvas">
<g id="Rectangle" figma:type="rounded-rectangle">
<use xlink:href="#path0_fill" transform="translate(-1029 -336)" fill="#C4C4C4"/>
</g>
<g id="price_1" figma:type="text">
<use xlink:href="#path1_fill" transform="translate(-1006 -288)"/>
</g>
<g id="Rectangle" figma:type="rounded-rectangle">
<use xlink:href="#path0_fill" transform="translate(-1029 -147)" fill="#C4C4C4"/>
</g>
<g id="price_2" figma:type="text">
<use xlink:href="#path2_fill" transform="translate(-1006 -99)"/>
</g>
<g id="Rectangle" figma:type="rounded-rectangle">
<use xlink:href="#path0_fill" transform="translate(-1029 46)" fill="#C4C4C4"/>
</g>
<g id="price_3" figma:type="text">
<use xlink:href="#path3_fill" transform="translate(-1006 94)"/>
</g>
<g id="Rectangle" figma:type="rounded-rectangle">
<use xlink:href="#path0_fill" transform="translate(-1029 230)" fill="#C4C4C4"/>
</g>
<g id="price_4" figma:type="text">
<use xlink:href="#path4_fill" transform="translate(-1006 278)"/>
</g>
<g id="Rectangle" figma:type="rounded-rectangle">
<use xlink:href="#path0_fill" transform="translate(-1029 426)" fill="#C4C4C4"/>
</g>
<g id="price_5" figma:type="text">
<use xlink:href="#path5_fill" transform="translate(-1006 474)"/>
</g>
<g id="Arrow 2" figma:type="vector">
<use xlink:href="#path6_stroke" transform="matrix(6.12323e-17 1 -1 6.12323e-17 -967 -191)"/>
</g>
<g id="Arrow 2" figma:type="vector">
<use xlink:href="#path6_stroke" transform="matrix(6.12323e-17 1 -1 6.12323e-17 -967 -1)"/>
</g>
<g id="Arrow 2" figma:type="vector">
<use xlink:href="#path6_stroke" transform="matrix(6.12323e-17 1 -1 6.12323e-17 -967 189)"/>
</g>
<g id="Arrow 2" figma:type="vector">
<use xlink:href="#path6_stroke" transform="matrix(6.12323e-17 1 -1 6.12323e-17 -967 378)"/>
</g>
<g id="Rectangle" figma:type="rounded-rectangle">
<use xlink:href="#path0_fill" transform="translate(-542 -335)" fill="#C4C4C4"/>
</g>
<g id="price_1" figma:type="text">
<use xlink:href="#path1_fill" transform="translate(-519 -287)"/>
</g>
<g id="Rectangle" figma:type="rounded-rectangle">
<use xlink:href="#path0_fill" transform="translate(-542 -146)" fill="#C4C4C4"/>
</g>
<g id="price_2" figma:type="text">
<use xlink:href="#path2_fill" transform="translate(-519 -98)"/>
</g>
<g id="Rectangle" figma:type="rounded-rectangle">
<use xlink:href="#path0_fill" transform="translate(-542 47)" fill="#C4C4C4"/>
</g>
<g id="price_3" figma:type="text">
<use xlink:href="#path3_fill" transform="translate(-519 95)"/>
</g>
<g id="Rectangle" figma:type="rounded-rectangle">
<use xlink:href="#path0_fill" transform="translate(-542 231)" fill="#C4C4C4"/>
</g>
<g id="price_4" figma:type="text">
<use xlink:href="#path4_fill" transform="translate(-519 279)"/>
</g>
<g id="Rectangle" figma:type="rounded-rectangle">
<use xlink:href="#path0_fill" transform="translate(-542 427)" fill="#C4C4C4"/>
</g>
<g id="price_5" figma:type="text">
<use xlink:href="#path5_fill" transform="translate(-519 475)"/>
</g>
<g id="Arrow 2" figma:type="vector">
<use xlink:href="#path6_stroke" transform="matrix(6.12323e-17 1 -1 6.12323e-17 -480 -190)"/>
</g>
<g id="Arrow 2" figma:type="vector">
<use xlink:href="#path6_stroke" transform="matrix(6.12323e-17 1 -1 6.12323e-17 -480 0)"/>
</g>
<g id="Arrow 2" figma:type="vector">
<use xlink:href="#path6_stroke" transform="matrix(6.12323e-17 1 -1 6.12323e-17 -480 190)"/>
</g>
<g id="Arrow 2" figma:type="vector">
<use xlink:href="#path6_stroke" transform="matrix(6.12323e-17 1 -1 6.12323e-17 -480 379)"/>
</g>
<g id="Linked List" figma:type="text">
<use xlink:href="#path7_fill" transform="translate(-1025 -416)"/>
</g>
<g id="Arrow" figma:type="vector">
<use xlink:href="#path8_stroke" transform="translate(-840 109)"/>
</g>
<g id="price_1.get(2)" figma:type="text">
<use xlink:href="#path9_fill" transform="translate(-830 44)"/>
</g>
<g id="Get the second element after price_1" figma:type="text">
<use xlink:href="#path10_fill" transform="translate(-849 -57)"/>
</g>
<g id="Line" figma:type="line">
<use xlink:href="#path11_stroke" transform="matrix(0.580525 0.814243 -0.814243 0.580525 -341 -287)"/>
</g>
<g id="Arrow 3" figma:type="vector">
<use xlink:href="#path12_stroke" transform="matrix(-0.873799 0.486288 -0.486288 -0.873799 -264 -179)"/>
</g>
<g id="Line" figma:type="line">
<use xlink:href="#path11_stroke" transform="matrix(0.580525 0.814243 -0.814243 0.580525 -360 -77)"/>
</g>
<g id="Arrow 3" figma:type="vector">
<use xlink:href="#path12_stroke" transform="matrix(-0.873799 0.486288 -0.486288 -0.873799 -283 31)"/>
</g>
<g id="1" figma:type="text">
<use xlink:href="#path13_fill" transform="translate(-217 -189)" fill="#EB5757"/>
</g>
<g id="2" figma:type="text">
<use xlink:href="#path14_fill" transform="translate(-224 29)" fill="#EB5757"/>
</g>
<g id="Arrow 4" figma:type="vector">
<use xlink:href="#path15_stroke" transform="translate(-264 123)"/>
</g>
<g id="price_3" figma:type="text">
<use xlink:href="#path16_fill" transform="translate(28 101)"/>
</g>
<g id="Search the list" figma:type="text">
<use xlink:href="#path17_fill" transform="translate(-556 -415)"/>
</g>
</g>
<defs>
<path id="path0_fill" d="M 0 0L 125 0L 125 125L 0 125L 0 0Z"/>
<path id="path1_fill" d="M 12.3516 15.8008C 12.3516 17.7305 11.9102 19.2852 11.0273 20.4648C 10.1445 21.6445 8.94922 22.2344 7.44141 22.2344C 5.90234 22.2344 4.69141 21.7461 3.80859 20.7695L 3.80859 26.875L 1.64062 26.875L 1.64062 9.32031L 3.62109 9.32031L 3.72656 10.7266C 4.60938 9.63281 5.83594 9.08594 7.40625 9.08594C 8.92969 9.08594 10.1328 9.66016 11.0156 10.8086C 11.9062 11.957 12.3516 13.5547 12.3516 15.6016L 12.3516 15.8008ZM 10.1836 15.5547C 10.1836 14.125 9.87891 12.9961 9.26953 12.168C 8.66016 11.3398 7.82422 10.9258 6.76172 10.9258C 5.44922 10.9258 4.46484 11.5078 3.80859 12.6719L 3.80859 18.7305C 4.45703 19.8867 5.44922 20.4648 6.78516 20.4648C 7.82422 20.4648 8.64844 20.0547 9.25781 19.2344C 9.875 18.4063 10.1836 17.1797 10.1836 15.5547ZM 21.2461 11.2656C 20.918 11.2109 20.5625 11.1836 20.1797 11.1836C 18.7578 11.1836 17.793 11.7891 17.2852 13L 17.2852 22L 15.1172 22L 15.1172 9.32031L 17.2266 9.32031L 17.2617 10.7852C 17.9727 9.65234 18.9805 9.08594 20.2852 9.08594C 20.707 9.08594 21.0273 9.14062 21.2461 9.25L 21.2461 11.2656ZM 25.6055 22L 23.4375 22L 23.4375 9.32031L 25.6055 9.32031L 25.6055 22ZM 23.2617 5.95703C 23.2617 5.60547 23.3672 5.30859 23.5781 5.06641C 23.7969 4.82422 24.1172 4.70312 24.5391 4.70312C 24.9609 4.70312 25.2813 4.82422 25.5 5.06641C 25.7187 5.30859 25.8281 5.60547 25.8281 5.95703C 25.8281 6.30859 25.7187 6.60156 25.5 6.83594C 25.2813 7.07031 24.9609 7.1875 24.5391 7.1875C 24.1172 7.1875 23.7969 7.07031 23.5781 6.83594C 23.3672 6.60156 23.2617 6.30859 23.2617 5.95703ZM 34.1719 20.4648C 34.9453 20.4648 35.6211 20.2305 36.1992 19.7617C 36.7773 19.293 37.0977 18.707 37.1602 18.0039L 39.2109 18.0039C 39.1719 18.7305 38.9219 19.4219 38.4609 20.0781C 38 20.7344 37.3828 21.2578 36.6094 21.6484C 35.8438 22.0391 35.0312 22.2344 34.1719 22.2344C 32.4453 22.2344 31.0703 21.6602 30.0469 20.5117C 29.0312 19.3555 28.5234 17.7773 28.5234 15.7773L 28.5234 15.4141C 28.5234 14.1797 28.75 13.082 29.2031 12.1211C 29.6563 11.1602 30.3047 10.4141 31.1484 9.88281C 32 9.35156 33.0039 9.08594 34.1602 9.08594C 35.582 9.08594 36.7617 9.51172 37.6992 10.3633C 38.6445 11.2148 39.1484 12.3203 39.2109 13.6797L 37.1602 13.6797C 37.0977 12.8594 36.7852 12.1875 36.2227 11.6641C 35.668 11.1328 34.9805 10.8672 34.1602 10.8672C 33.0586 10.8672 32.2031 11.2656 31.5938 12.0625C 30.9922 12.8516 30.6914 13.9961 30.6914 15.4961L 30.6914 15.9062C 30.6914 17.3672 30.9922 18.4922 31.5938 19.2812C 32.1953 20.0703 33.0547 20.4648 34.1719 20.4648ZM 46.9102 22.2344C 45.1914 22.2344 43.793 21.6719 42.7148 20.5469C 41.6367 19.4141 41.0977 17.9023 41.0977 16.0117L 41.0977 15.6133C 41.0977 14.3555 41.3359 13.2344 41.8125 12.25C 42.2969 11.2578 42.9688 10.4844 43.8281 9.92969C 44.6953 9.36719 45.6328 9.08594 46.6406 9.08594C 48.2891 9.08594 49.5703 9.62891 50.4844 10.7148C 51.3984 11.8008 51.8555 13.3555 51.8555 15.3789L 51.8555 16.2812L 43.2656 16.2812C 43.2969 17.5312 43.6602 18.543 44.3555 19.3164C 45.0586 20.082 45.9492 20.4648 47.0273 20.4648C 47.793 20.4648 48.4414 20.3086 48.9727 19.9961C 49.5039 19.6836 49.9688 19.2695 50.3672 18.7539L 51.6914 19.7852C 50.6289 21.418 49.0352 22.2344 46.9102 22.2344ZM 46.6406 10.8672C 45.7656 10.8672 45.0312 11.1875 44.4375 11.8281C 43.8438 12.4609 43.4766 13.3516 43.3359 14.5L 49.6875 14.5L 49.6875 14.3359C 49.625 13.2344 49.3281 12.3828 48.7969 11.7812C 48.2656 11.1719 47.5469 10.8672 46.6406 10.8672ZM 63.5156 23.7695L 52.7812 23.7695L 52.7812 22L 63.5156 22L 63.5156 23.7695ZM 72.1055 22L 69.9258 22L 69.9258 7.55078L 65.5547 9.15625L 65.5547 7.1875L 71.7656 4.85547L 72.1055 4.85547L 72.1055 22Z"/>
<path id="path2_fill" d="M 12.3516 15.8008C 12.3516 17.7305 11.9102 19.2852 11.0273 20.4648C 10.1445 21.6445 8.94922 22.2344 7.44141 22.2344C 5.90234 22.2344 4.69141 21.7461 3.80859 20.7695L 3.80859 26.875L 1.64062 26.875L 1.64062 9.32031L 3.62109 9.32031L 3.72656 10.7266C 4.60938 9.63281 5.83594 9.08594 7.40625 9.08594C 8.92969 9.08594 10.1328 9.66016 11.0156 10.8086C 11.9062 11.957 12.3516 13.5547 12.3516 15.6016L 12.3516 15.8008ZM 10.1836 15.5547C 10.1836 14.125 9.87891 12.9961 9.26953 12.168C 8.66016 11.3398 7.82422 10.9258 6.76172 10.9258C 5.44922 10.9258 4.46484 11.5078 3.80859 12.6719L 3.80859 18.7305C 4.45703 19.8867 5.44922 20.4648 6.78516 20.4648C 7.82422 20.4648 8.64844 20.0547 9.25781 19.2344C 9.875 18.4063 10.1836 17.1797 10.1836 15.5547ZM 21.2461 11.2656C 20.918 11.2109 20.5625 11.1836 20.1797 11.1836C 18.7578 11.1836 17.793 11.7891 17.2852 13L 17.2852 22L 15.1172 22L 15.1172 9.32031L 17.2266 9.32031L 17.2617 10.7852C 17.9727 9.65234 18.9805 9.08594 20.2852 9.08594C 20.707 9.08594 21.0273 9.14062 21.2461 9.25L 21.2461 11.2656ZM 25.6055 22L 23.4375 22L 23.4375 9.32031L 25.6055 9.32031L 25.6055 22ZM 23.2617 5.95703C 23.2617 5.60547 23.3672 5.30859 23.5781 5.06641C 23.7969 4.82422 24.1172 4.70312 24.5391 4.70312C 24.9609 4.70312 25.2813 4.82422 25.5 5.06641C 25.7187 5.30859 25.8281 5.60547 25.8281 5.95703C 25.8281 6.30859 25.7187 6.60156 25.5 6.83594C 25.2813 7.07031 24.9609 7.1875 24.5391 7.1875C 24.1172 7.1875 23.7969 7.07031 23.5781 6.83594C 23.3672 6.60156 23.2617 6.30859 23.2617 5.95703ZM 34.1719 20.4648C 34.9453 20.4648 35.6211 20.2305 36.1992 19.7617C 36.7773 19.293 37.0977 18.707 37.1602 18.0039L 39.2109 18.0039C 39.1719 18.7305 38.9219 19.4219 38.4609 20.0781C 38 20.7344 37.3828 21.2578 36.6094 21.6484C 35.8438 22.0391 35.0312 22.2344 34.1719 22.2344C 32.4453 22.2344 31.0703 21.6602 30.0469 20.5117C 29.0312 19.3555 28.5234 17.7773 28.5234 15.7773L 28.5234 15.4141C 28.5234 14.1797 28.75 13.082 29.2031 12.1211C 29.6563 11.1602 30.3047 10.4141 31.1484 9.88281C 32 9.35156 33.0039 9.08594 34.1602 9.08594C 35.582 9.08594 36.7617 9.51172 37.6992 10.3633C 38.6445 11.2148 39.1484 12.3203 39.2109 13.6797L 37.1602 13.6797C 37.0977 12.8594 36.7852 12.1875 36.2227 11.6641C 35.668 11.1328 34.9805 10.8672 34.1602 10.8672C 33.0586 10.8672 32.2031 11.2656 31.5938 12.0625C 30.9922 12.8516 30.6914 13.9961 30.6914 15.4961L 30.6914 15.9062C 30.6914 17.3672 30.9922 18.4922 31.5938 19.2812C 32.1953 20.0703 33.0547 20.4648 34.1719 20.4648ZM 46.9102 22.2344C 45.1914 22.2344 43.793 21.6719 42.7148 20.5469C 41.6367 19.4141 41.0977 17.9023 41.0977 16.0117L 41.0977 15.6133C 41.0977 14.3555 41.3359 13.2344 41.8125 12.25C 42.2969 11.2578 42.9688 10.4844 43.8281 9.92969C 44.6953 9.36719 45.6328 9.08594 46.6406 9.08594C 48.2891 9.08594 49.5703 9.62891 50.4844 10.7148C 51.3984 11.8008 51.8555 13.3555 51.8555 15.3789L 51.8555 16.2812L 43.2656 16.2812C 43.2969 17.5312 43.6602 18.543 44.3555 19.3164C 45.0586 20.082 45.9492 20.4648 47.0273 20.4648C 47.793 20.4648 48.4414 20.3086 48.9727 19.9961C 49.5039 19.6836 49.9688 19.2695 50.3672 18.7539L 51.6914 19.7852C 50.6289 21.418 49.0352 22.2344 46.9102 22.2344ZM 46.6406 10.8672C 45.7656 10.8672 45.0312 11.1875 44.4375 11.8281C 43.8438 12.4609 43.4766 13.3516 43.3359 14.5L 49.6875 14.5L 49.6875 14.3359C 49.625 13.2344 49.3281 12.3828 48.7969 11.7812C 48.2656 11.1719 47.5469 10.8672 46.6406 10.8672ZM 63.5156 23.7695L 52.7812 23.7695L 52.7812 22L 63.5156 22L 63.5156 23.7695ZM 76.1602 22L 64.9805 22L 64.9805 20.4414L 70.8867 13.8789C 71.7617 12.8867 72.3633 12.082 72.6914 11.4648C 73.0273 10.8398 73.1953 10.1953 73.1953 9.53125C 73.1953 8.64062 72.9258 7.91016 72.3867 7.33984C 71.8477 6.76953 71.1289 6.48438 70.2305 6.48438C 69.1523 6.48438 68.3125 6.79297 67.7109 7.41016C 67.1172 8.01953 66.8203 8.87109 66.8203 9.96484L 64.6523 9.96484C 64.6523 8.39453 65.1562 7.125 66.1641 6.15625C 67.1797 5.1875 68.5352 4.70312 70.2305 4.70312C 71.8164 4.70312 73.0703 5.12109 73.9922 5.95703C 74.9141 6.78516 75.375 7.89062 75.375 9.27344C 75.375 10.9531 74.3047 12.9531 72.1641 15.2734L 67.5938 20.2305L 76.1602 20.2305L 76.1602 22Z"/>
<path id="path3_fill" d="M 12.3516 15.8008C 12.3516 17.7305 11.9102 19.2852 11.0273 20.4648C 10.1445 21.6445 8.94922 22.2344 7.44141 22.2344C 5.90234 22.2344 4.69141 21.7461 3.80859 20.7695L 3.80859 26.875L 1.64062 26.875L 1.64062 9.32031L 3.62109 9.32031L 3.72656 10.7266C 4.60938 9.63281 5.83594 9.08594 7.40625 9.08594C 8.92969 9.08594 10.1328 9.66016 11.0156 10.8086C 11.9062 11.957 12.3516 13.5547 12.3516 15.6016L 12.3516 15.8008ZM 10.1836 15.5547C 10.1836 14.125 9.87891 12.9961 9.26953 12.168C 8.66016 11.3398 7.82422 10.9258 6.76172 10.9258C 5.44922 10.9258 4.46484 11.5078 3.80859 12.6719L 3.80859 18.7305C 4.45703 19.8867 5.44922 20.4648 6.78516 20.4648C 7.82422 20.4648 8.64844 20.0547 9.25781 19.2344C 9.875 18.4063 10.1836 17.1797 10.1836 15.5547ZM 21.2461 11.2656C 20.918 11.2109 20.5625 11.1836 20.1797 11.1836C 18.7578 11.1836 17.793 11.7891 17.2852 13L 17.2852 22L 15.1172 22L 15.1172 9.32031L 17.2266 9.32031L 17.2617 10.7852C 17.9727 9.65234 18.9805 9.08594 20.2852 9.08594C 20.707 9.08594 21.0273 9.14062 21.2461 9.25L 21.2461 11.2656ZM 25.6055 22L 23.4375 22L 23.4375 9.32031L 25.6055 9.32031L 25.6055 22ZM 23.2617 5.95703C 23.2617 5.60547 23.3672 5.30859 23.5781 5.06641C 23.7969 4.82422 24.1172 4.70312 24.5391 4.70312C 24.9609 4.70312 25.2813 4.82422 25.5 5.06641C 25.7187 5.30859 25.8281 5.60547 25.8281 5.95703C 25.8281 6.30859 25.7187 6.60156 25.5 6.83594C 25.2813 7.07031 24.9609 7.1875 24.5391 7.1875C 24.1172 7.1875 23.7969 7.07031 23.5781 6.83594C 23.3672 6.60156 23.2617 6.30859 23.2617 5.95703ZM 34.1719 20.4648C 34.9453 20.4648 35.6211 20.2305 36.1992 19.7617C 36.7773 19.293 37.0977 18.707 37.1602 18.0039L 39.2109 18.0039C 39.1719 18.7305 38.9219 19.4219 38.4609 20.0781C 38 20.7344 37.3828 21.2578 36.6094 21.6484C 35.8438 22.0391 35.0312 22.2344 34.1719 22.2344C 32.4453 22.2344 31.0703 21.6602 30.0469 20.5117C 29.0312 19.3555 28.5234 17.7773 28.5234 15.7773L 28.5234 15.4141C 28.5234 14.1797 28.75 13.082 29.2031 12.1211C 29.6563 11.1602 30.3047 10.4141 31.1484 9.88281C 32 9.35156 33.0039 9.08594 34.1602 9.08594C 35.582 9.08594 36.7617 9.51172 37.6992 10.3633C 38.6445 11.2148 39.1484 12.3203 39.2109 13.6797L 37.1602 13.6797C 37.0977 12.8594 36.7852 12.1875 36.2227 11.6641C 35.668 11.1328 34.9805 10.8672 34.1602 10.8672C 33.0586 10.8672 32.2031 11.2656 31.5938 12.0625C 30.9922 12.8516 30.6914 13.9961 30.6914 15.4961L 30.6914 15.9062C 30.6914 17.3672 30.9922 18.4922 31.5938 19.2812C 32.1953 20.0703 33.0547 20.4648 34.1719 20.4648ZM 46.9102 22.2344C 45.1914 22.2344 43.793 21.6719 42.7148 20.5469C 41.6367 19.4141 41.0977 17.9023 41.0977 16.0117L 41.0977 15.6133C 41.0977 14.3555 41.3359 13.2344 41.8125 12.25C 42.2969 11.2578 42.9688 10.4844 43.8281 9.92969C 44.6953 9.36719 45.6328 9.08594 46.6406 9.08594C 48.2891 9.08594 49.5703 9.62891 50.4844 10.7148C 51.3984 11.8008 51.8555 13.3555 51.8555 15.3789L 51.8555 16.2812L 43.2656 16.2812C 43.2969 17.5312 43.6602 18.543 44.3555 19.3164C 45.0586 20.082 45.9492 20.4648 47.0273 20.4648C 47.793 20.4648 48.4414 20.3086 48.9727 19.9961C 49.5039 19.6836 49.9688 19.2695 50.3672 18.7539L 51.6914 19.7852C 50.6289 21.418 49.0352 22.2344 46.9102 22.2344ZM 46.6406 10.8672C 45.7656 10.8672 45.0312 11.1875 44.4375 11.8281C 43.8438 12.4609 43.4766 13.3516 43.3359 14.5L 49.6875 14.5L 49.6875 14.3359C 49.625 13.2344 49.3281 12.3828 48.7969 11.7812C 48.2656 11.1719 47.5469 10.8672 46.6406 10.8672ZM 63.5156 23.7695L 52.7812 23.7695L 52.7812 22L 63.5156 22L 63.5156 23.7695ZM 68.1328 12.4141L 69.7617 12.4141C 70.7852 12.3984 71.5898 12.1289 72.1758 11.6055C 72.7617 11.082 73.0547 10.375 73.0547 9.48438C 73.0547 7.48438 72.0586 6.48438 70.0664 6.48438C 69.1289 6.48438 68.3789 6.75391 67.8164 7.29297C 67.2617 7.82422 66.9844 8.53125 66.9844 9.41406L 64.8164 9.41406C 64.8164 8.0625 65.3086 6.94141 66.293 6.05078C 67.2852 5.15234 68.543 4.70312 70.0664 4.70312C 71.6758 4.70312 72.9375 5.12891 73.8516 5.98047C 74.7656 6.83203 75.2227 8.01562 75.2227 9.53125C 75.2227 10.2734 74.9805 10.9922 74.4961 11.6875C 74.0195 12.3828 73.3672 12.9023 72.5391 13.2461C 73.4766 13.543 74.1992 14.0352 74.707 14.7227C 75.2227 15.4102 75.4805 16.25 75.4805 17.2422C 75.4805 18.7734 74.9805 19.9883 73.9805 20.8867C 72.9805 21.7852 71.6797 22.2344 70.0781 22.2344C 68.4766 22.2344 67.1719 21.8008 66.1641 20.9336C 65.1641 20.0664 64.6641 18.9219 64.6641 17.5L 66.8438 17.5C 66.8438 18.3984 67.1367 19.1172 67.7227 19.6562C 68.3086 20.1953 69.0938 20.4648 70.0781 20.4648C 71.125 20.4648 71.9258 20.1914 72.4805 19.6445C 73.0352 19.0977 73.3125 18.3125 73.3125 17.2891C 73.3125 16.2969 73.0078 15.5352 72.3984 15.0039C 71.7891 14.4727 70.9102 14.1992 69.7617 14.1836L 68.1328 14.1836L 68.1328 12.4141Z"/>
<path id="path4_fill" d="M 12.3516 15.8008C 12.3516 17.7305 11.9102 19.2852 11.0273 20.4648C 10.1445 21.6445 8.94922 22.2344 7.44141 22.2344C 5.90234 22.2344 4.69141 21.7461 3.80859 20.7695L 3.80859 26.875L 1.64062 26.875L 1.64062 9.32031L 3.62109 9.32031L 3.72656 10.7266C 4.60938 9.63281 5.83594 9.08594 7.40625 9.08594C 8.92969 9.08594 10.1328 9.66016 11.0156 10.8086C 11.9062 11.957 12.3516 13.5547 12.3516 15.6016L 12.3516 15.8008ZM 10.1836 15.5547C 10.1836 14.125 9.87891 12.9961 9.26953 12.168C 8.66016 11.3398 7.82422 10.9258 6.76172 10.9258C 5.44922 10.9258 4.46484 11.5078 3.80859 12.6719L 3.80859 18.7305C 4.45703 19.8867 5.44922 20.4648 6.78516 20.4648C 7.82422 20.4648 8.64844 20.0547 9.25781 19.2344C 9.875 18.4063 10.1836 17.1797 10.1836 15.5547ZM 21.2461 11.2656C 20.918 11.2109 20.5625 11.1836 20.1797 11.1836C 18.7578 11.1836 17.793 11.7891 17.2852 13L 17.2852 22L 15.1172 22L 15.1172 9.32031L 17.2266 9.32031L 17.2617 10.7852C 17.9727 9.65234 18.9805 9.08594 20.2852 9.08594C 20.707 9.08594 21.0273 9.14062 21.2461 9.25L 21.2461 11.2656ZM 25.6055 22L 23.4375 22L 23.4375 9.32031L 25.6055 9.32031L 25.6055 22ZM 23.2617 5.95703C 23.2617 5.60547 23.3672 5.30859 23.5781 5.06641C 23.7969 4.82422 24.1172 4.70312 24.5391 4.70312C 24.9609 4.70312 25.2813 4.82422 25.5 5.06641C 25.7187 5.30859 25.8281 5.60547 25.8281 5.95703C 25.8281 6.30859 25.7187 6.60156 25.5 6.83594C 25.2813 7.07031 24.9609 7.1875 24.5391 7.1875C 24.1172 7.1875 23.7969 7.07031 23.5781 6.83594C 23.3672 6.60156 23.2617 6.30859 23.2617 5.95703ZM 34.1719 20.4648C 34.9453 20.4648 35.6211 20.2305 36.1992 19.7617C 36.7773 19.293 37.0977 18.707 37.1602 18.0039L 39.2109 18.0039C 39.1719 18.7305 38.9219 19.4219 38.4609 20.0781C 38 20.7344 37.3828 21.2578 36.6094 21.6484C 35.8438 22.0391 35.0312 22.2344 34.1719 22.2344C 32.4453 22.2344 31.0703 21.6602 30.0469 20.5117C 29.0312 19.3555 28.5234 17.7773 28.5234 15.7773L 28.5234 15.4141C 28.5234 14.1797 28.75 13.082 29.2031 12.1211C 29.6563 11.1602 30.3047 10.4141 31.1484 9.88281C 32 9.35156 33.0039 9.08594 34.1602 9.08594C 35.582 9.08594 36.7617 9.51172 37.6992 10.3633C 38.6445 11.2148 39.1484 12.3203 39.2109 13.6797L 37.1602 13.6797C 37.0977 12.8594 36.7852 12.1875 36.2227 11.6641C 35.668 11.1328 34.9805 10.8672 34.1602 10.8672C 33.0586 10.8672 32.2031 11.2656 31.5938 12.0625C 30.9922 12.8516 30.6914 13.9961 30.6914 15.4961L 30.6914 15.9062C 30.6914 17.3672 30.9922 18.4922 31.5938 19.2812C 32.1953 20.0703 33.0547 20.4648 34.1719 20.4648ZM 46.9102 22.2344C 45.1914 22.2344 43.793 21.6719 42.7148 20.5469C 41.6367 19.4141 41.0977 17.9023 41.0977 16.0117L 41.0977 15.6133C 41.0977 14.3555 41.3359 13.2344 41.8125 12.25C 42.2969 11.2578 42.9688 10.4844 43.8281 9.92969C 44.6953 9.36719 45.6328 9.08594 46.6406 9.08594C 48.2891 9.08594 49.5703 9.62891 50.4844 10.7148C 51.3984 11.8008 51.8555 13.3555 51.8555 15.3789L 51.8555 16.2812L 43.2656 16.2812C 43.2969 17.5312 43.6602 18.543 44.3555 19.3164C 45.0586 20.082 45.9492 20.4648 47.0273 20.4648C 47.793 20.4648 48.4414 20.3086 48.9727 19.9961C 49.5039 19.6836 49.9688 19.2695 50.3672 18.7539L 51.6914 19.7852C 50.6289 21.418 49.0352 22.2344 46.9102 22.2344ZM 46.6406 10.8672C 45.7656 10.8672 45.0312 11.1875 44.4375 11.8281C 43.8438 12.4609 43.4766 13.3516 43.3359 14.5L 49.6875 14.5L 49.6875 14.3359C 49.625 13.2344 49.3281 12.3828 48.7969 11.7812C 48.2656 11.1719 47.5469 10.8672 46.6406 10.8672ZM 63.5156 23.7695L 52.7812 23.7695L 52.7812 22L 63.5156 22L 63.5156 23.7695ZM 74.1328 16.2695L 76.5 16.2695L 76.5 18.0391L 74.1328 18.0391L 74.1328 22L 71.9531 22L 71.9531 18.0391L 64.1836 18.0391L 64.1836 16.7617L 71.8242 4.9375L 74.1328 4.9375L 74.1328 16.2695ZM 66.6445 16.2695L 71.9531 16.2695L 71.9531 7.90234L 71.6953 8.37109L 66.6445 16.2695Z"/>
<path id="path5_fill" d="M 12.3516 15.8008C 12.3516 17.7305 11.9102 19.2852 11.0273 20.4648C 10.1445 21.6445 8.94922 22.2344 7.44141 22.2344C 5.90234 22.2344 4.69141 21.7461 3.80859 20.7695L 3.80859 26.875L 1.64062 26.875L 1.64062 9.32031L 3.62109 9.32031L 3.72656 10.7266C 4.60938 9.63281 5.83594 9.08594 7.40625 9.08594C 8.92969 9.08594 10.1328 9.66016 11.0156 10.8086C 11.9062 11.957 12.3516 13.5547 12.3516 15.6016L 12.3516 15.8008ZM 10.1836 15.5547C 10.1836 14.125 9.87891 12.9961 9.26953 12.168C 8.66016 11.3398 7.82422 10.9258 6.76172 10.9258C 5.44922 10.9258 4.46484 11.5078 3.80859 12.6719L 3.80859 18.7305C 4.45703 19.8867 5.44922 20.4648 6.78516 20.4648C 7.82422 20.4648 8.64844 20.0547 9.25781 19.2344C 9.875 18.4063 10.1836 17.1797 10.1836 15.5547ZM 21.2461 11.2656C 20.918 11.2109 20.5625 11.1836 20.1797 11.1836C 18.7578 11.1836 17.793 11.7891 17.2852 13L 17.2852 22L 15.1172 22L 15.1172 9.32031L 17.2266 9.32031L 17.2617 10.7852C 17.9727 9.65234 18.9805 9.08594 20.2852 9.08594C 20.707 9.08594 21.0273 9.14062 21.2461 9.25L 21.2461 11.2656ZM 25.6055 22L 23.4375 22L 23.4375 9.32031L 25.6055 9.32031L 25.6055 22ZM 23.2617 5.95703C 23.2617 5.60547 23.3672 5.30859 23.5781 5.06641C 23.7969 4.82422 24.1172 4.70312 24.5391 4.70312C 24.9609 4.70312 25.2813 4.82422 25.5 5.06641C 25.7187 5.30859 25.8281 5.60547 25.8281 5.95703C 25.8281 6.30859 25.7187 6.60156 25.5 6.83594C 25.2813 7.07031 24.9609 7.1875 24.5391 7.1875C 24.1172 7.1875 23.7969 7.07031 23.5781 6.83594C 23.3672 6.60156 23.2617 6.30859 23.2617 5.95703ZM 34.1719 20.4648C 34.9453 20.4648 35.6211 20.2305 36.1992 19.7617C 36.7773 19.293 37.0977 18.707 37.1602 18.0039L 39.2109 18.0039C 39.1719 18.7305 38.9219 19.4219 38.4609 20.0781C 38 20.7344 37.3828 21.2578 36.6094 21.6484C 35.8438 22.0391 35.0312 22.2344 34.1719 22.2344C 32.4453 22.2344 31.0703 21.6602 30.0469 20.5117C 29.0312 19.3555 28.5234 17.7773 28.5234 15.7773L 28.5234 15.4141C 28.5234 14.1797 28.75 13.082 29.2031 12.1211C 29.6563 11.1602 30.3047 10.4141 31.1484 9.88281C 32 9.35156 33.0039 9.08594 34.1602 9.08594C 35.582 9.08594 36.7617 9.51172 37.6992 10.3633C 38.6445 11.2148 39.1484 12.3203 39.2109 13.6797L 37.1602 13.6797C 37.0977 12.8594 36.7852 12.1875 36.2227 11.6641C 35.668 11.1328 34.9805 10.8672 34.1602 10.8672C 33.0586 10.8672 32.2031 11.2656 31.5938 12.0625C 30.9922 12.8516 30.6914 13.9961 30.6914 15.4961L 30.6914 15.9062C 30.6914 17.3672 30.9922 18.4922 31.5938 19.2812C 32.1953 20.0703 33.0547 20.4648 34.1719 20.4648ZM 46.9102 22.2344C 45.1914 22.2344 43.793 21.6719 42.7148 20.5469C 41.6367 19.4141 41.0977 17.9023 41.0977 16.0117L 41.0977 15.6133C 41.0977 14.3555 41.3359 13.2344 41.8125 12.25C 42.2969 11.2578 42.9688 10.4844 43.8281 9.92969C 44.6953 9.36719 45.6328 9.08594 46.6406 9.08594C 48.2891 9.08594 49.5703 9.62891 50.4844 10.7148C 51.3984 11.8008 51.8555 13.3555 51.8555 15.3789L 51.8555 16.2812L 43.2656 16.2812C 43.2969 17.5312 43.6602 18.543 44.3555 19.3164C 45.0586 20.082 45.9492 20.4648 47.0273 20.4648C 47.793 20.4648 48.4414 20.3086 48.9727 19.9961C 49.5039 19.6836 49.9688 19.2695 50.3672 18.7539L 51.6914 19.7852C 50.6289 21.418 49.0352 22.2344 46.9102 22.2344ZM 46.6406 10.8672C 45.7656 10.8672 45.0312 11.1875 44.4375 11.8281C 43.8438 12.4609 43.4766 13.3516 43.3359 14.5L 49.6875 14.5L 49.6875 14.3359C 49.625 13.2344 49.3281 12.3828 48.7969 11.7812C 48.2656 11.1719 47.5469 10.8672 46.6406 10.8672ZM 63.5156 23.7695L 52.7812 23.7695L 52.7812 22L 63.5156 22L 63.5156 23.7695ZM 65.9766 13.4453L 66.8438 4.9375L 75.5859 4.9375L 75.5859 6.94141L 68.6836 6.94141L 68.168 11.5938C 69.0039 11.1016 69.9531 10.8555 71.0156 10.8555C 72.5703 10.8555 73.8047 11.3711 74.7188 12.4023C 75.6328 13.4258 76.0898 14.8125 76.0898 16.5625C 76.0898 18.3203 75.6133 19.707 74.6602 20.7227C 73.7148 21.7305 72.3906 22.2344 70.6875 22.2344C 69.1797 22.2344 67.9492 21.8164 66.9961 20.9805C 66.043 20.1445 65.5 18.9883 65.3672 17.5117L 67.418 17.5117C 67.5508 18.4883 67.8984 19.2266 68.4609 19.7266C 69.0234 20.2188 69.7656 20.4648 70.6875 20.4648C 71.6953 20.4648 72.4844 20.1211 73.0547 19.4336C 73.6328 18.7461 73.9219 17.7969 73.9219 16.5859C 73.9219 15.4453 73.6094 14.5313 72.9844 13.8438C 72.3672 13.1484 71.543 12.8008 70.5117 12.8008C 69.5664 12.8008 68.8242 13.0078 68.2852 13.4219L 67.7109 13.8906L 65.9766 13.4453Z"/>
<path id="path6_stroke" d="M 25.3536 0.353553C 25.5488 0.158291 25.5488 -0.158291 25.3536 -0.353553L 22.1716 -3.53553C 21.9763 -3.7308 21.6597 -3.7308 21.4645 -3.53553C 21.2692 -3.34027 21.2692 -3.02369 21.4645 -2.82843L 24.2929 0L 21.4645 2.82843C 21.2692 3.02369 21.2692 3.34027 21.4645 3.53553C 21.6597 3.7308 21.9763 3.7308 22.1716 3.53553L 25.3536 0.353553ZM 0 0.5L 25 0.5L 25 -0.5L 0 -0.5L 0 0.5Z"/>
<path id="path7_fill" d="M 4.24219 20.1602L 12.3281 20.1602L 12.3281 22L 1.98047 22L 1.98047 4.9375L 4.24219 4.9375L 4.24219 20.1602ZM 16.9102 22L 14.7422 22L 14.7422 9.32031L 16.9102 9.32031L 16.9102 22ZM 14.5664 5.95703C 14.5664 5.60547 14.6719 5.30859 14.8828 5.06641C 15.1016 4.82422 15.4219 4.70312 15.8438 4.70312C 16.2656 4.70312 16.5859 4.82422 16.8047 5.06641C 17.0234 5.30859 17.1328 5.60547 17.1328 5.95703C 17.1328 6.30859 17.0234 6.60156 16.8047 6.83594C 16.5859 7.07031 16.2656 7.1875 15.8438 7.1875C 15.4219 7.1875 15.1016 7.07031 14.8828 6.83594C 14.6719 6.60156 14.5664 6.30859 14.5664 5.95703ZM 22.4414 9.32031L 22.5117 10.9141C 23.4805 9.69531 24.7461 9.08594 26.3086 9.08594C 28.9883 9.08594 30.3398 10.5977 30.3633 13.6211L 30.3633 22L 28.1953 22L 28.1953 13.6094C 28.1875 12.6953 27.9766 12.0195 27.5625 11.582C 27.1562 11.1445 26.5195 10.9258 25.6523 10.9258C 24.9492 10.9258 24.332 11.1133 23.8008 11.4883C 23.2695 11.8633 22.8555 12.3555 22.5586 12.9648L 22.5586 22L 20.3906 22L 20.3906 9.32031L 22.4414 9.32031ZM 37.1719 16.1289L 35.8125 17.5469L 35.8125 22L 33.6445 22L 33.6445 4L 35.8125 4L 35.8125 14.8867L 36.9727 13.4922L 40.9219 9.32031L 43.5586 9.32031L 38.625 14.6172L 44.1328 22L 41.5898 22L 37.1719 16.1289ZM 50.8242 22.2344C 49.1055 22.2344 47.707 21.6719 46.6289 20.5469C 45.5508 19.4141 45.0117 17.9023 45.0117 16.0117L 45.0117 15.6133C 45.0117 14.3555 45.25 13.2344 45.7266 12.25C 46.2109 11.2578 46.8828 10.4844 47.7422 9.92969C 48.6094 9.36719 49.5469 9.08594 50.5547 9.08594C 52.2031 9.08594 53.4844 9.62891 54.3984 10.7148C 55.3125 11.8008 55.7695 13.3555 55.7695 15.3789L 55.7695 16.2812L 47.1797 16.2812C 47.2109 17.5312 47.5742 18.543 48.2695 19.3164C 48.9727 20.082 49.8633 20.4648 50.9414 20.4648C 51.707 20.4648 52.3555 20.3086 52.8867 19.9961C 53.418 19.6836 53.8828 19.2695 54.2812 18.7539L 55.6055 19.7852C 54.543 21.418 52.9492 22.2344 50.8242 22.2344ZM 50.5547 10.8672C 49.6797 10.8672 48.9453 11.1875 48.3516 11.8281C 47.7578 12.4609 47.3906 13.3516 47.25 14.5L 53.6016 14.5L 53.6016 14.3359C 53.5391 13.2344 53.2422 12.3828 52.7109 11.7812C 52.1797 11.1719 51.4609 10.8672 50.5547 10.8672ZM 57.7617 15.5547C 57.7617 13.6094 58.2227 12.0469 59.1445 10.8672C 60.0664 9.67969 61.2734 9.08594 62.7656 9.08594C 64.25 9.08594 65.4258 9.59375 66.293 10.6094L 66.293 4L 68.4609 4L 68.4609 22L 66.4688 22L 66.3633 20.6406C 65.4961 21.7031 64.2891 22.2344 62.7422 22.2344C 61.2734 22.2344 60.0742 21.6328 59.1445 20.4297C 58.2227 19.2266 57.7617 17.6563 57.7617 15.7188L 57.7617 15.5547ZM 59.9297 15.8008C 59.9297 17.2383 60.2266 18.3633 60.8203 19.1758C 61.4141 19.9883 62.2344 20.3945 63.2812 20.3945C 64.6562 20.3945 65.6602 19.7773 66.293 18.543L 66.293 12.7188C 65.6445 11.5234 64.6484 10.9258 63.3047 10.9258C 62.2422 10.9258 61.4141 11.3359 60.8203 12.1562C 60.2266 12.9766 59.9297 14.1914 59.9297 15.8008ZM 80.3906 20.1602L 88.4766 20.1602L 88.4766 22L 78.1289 22L 78.1289 4.9375L 80.3906 4.9375L 80.3906 20.1602ZM 93.0586 22L 90.8906 22L 90.8906 9.32031L 93.0586 9.32031L 93.0586 22ZM 90.7148 5.95703C 90.7148 5.60547 90.8203 5.30859 91.0312 5.06641C 91.25 4.82422 91.5703 4.70312 91.9922 4.70312C 92.4141 4.70312 92.7344 4.82422 92.9531 5.06641C 93.1719 5.30859 93.2812 5.60547 93.2812 5.95703C 93.2812 6.30859 93.1719 6.60156 92.9531 6.83594C 92.7344 7.07031 92.4141 7.1875 91.9922 7.1875C 91.5703 7.1875 91.25 7.07031 91.0312 6.83594C 90.8203 6.60156 90.7148 6.30859 90.7148 5.95703ZM 103.922 18.6367C 103.922 18.0508 103.699 17.5977 103.254 17.2773C 102.816 16.9492 102.047 16.668 100.945 16.4336C 99.8516 16.1992 98.9805 15.918 98.332 15.5898C 97.6914 15.2617 97.2148 14.8711 96.9023 14.418C 96.5977 13.9648 96.4453 13.4258 96.4453 12.8008C 96.4453 11.7617 96.8828 10.8828 97.7578 10.1641C 98.6406 9.44531 99.7656 9.08594 101.133 9.08594C 102.57 9.08594 103.734 9.45703 104.625 10.1992C 105.523 10.9414 105.973 11.8906 105.973 13.0469L 103.793 13.0469C 103.793 12.4531 103.539 11.9414 103.031 11.5117C 102.531 11.082 101.898 10.8672 101.133 10.8672C 100.344 10.8672 99.7266 11.0391 99.2812 11.3828C 98.8359 11.7266 98.6133 12.1758 98.6133 12.7305C 98.6133 13.2539 98.8203 13.6484 99.2344 13.9141C 99.6484 14.1797 100.395 14.4336 101.473 14.6758C 102.559 14.918 103.438 15.207 104.109 15.543C 104.781 15.8789 105.277 16.2852 105.598 16.7617C 105.926 17.2305 106.09 17.8047 106.09 18.4844C 106.09 19.6172 105.637 20.5273 104.73 21.2148C 103.824 21.8945 102.648 22.2344 101.203 22.2344C 100.188 22.2344 99.2891 22.0547 98.5078 21.6953C 97.7266 21.3359 97.1133 20.8359 96.668 20.1953C 96.2305 19.5469 96.0117 18.8477 96.0117 18.0977L 98.1797 18.0977C 98.2188 18.8242 98.5078 19.4023 99.0469 19.832C 99.5937 20.2539 100.312 20.4648 101.203 20.4648C 102.023 20.4648 102.68 20.3008 103.172 19.9727C 103.672 19.6367 103.922 19.1914 103.922 18.6367ZM 111.855 6.25L 111.855 9.32031L 114.223 9.32031L 114.223 10.9961L 111.855 10.9961L 111.855 18.8594C 111.855 19.3672 111.961 19.75 112.172 20.0078C 112.383 20.2578 112.742 20.3828 113.25 20.3828C 113.5 20.3828 113.844 20.3359 114.281 20.2422L 114.281 22C 113.711 22.1562 113.156 22.2344 112.617 22.2344C 111.648 22.2344 110.918 21.9414 110.426 21.3555C 109.934 20.7695 109.688 19.9375 109.688 18.8594L 109.688 10.9961L 107.379 10.9961L 107.379 9.32031L 109.688 9.32031L 109.688 6.25L 111.855 6.25Z"/>
<path id="path8_stroke" d="M 200.354 0.353553C 200.549 0.158291 200.549 -0.158291 200.354 -0.353553L 197.172 -3.53553C 196.976 -3.7308 196.66 -3.7308 196.464 -3.53553C 196.269 -3.34027 196.269 -3.02369 196.464 -2.82843L 199.293 0L 196.464 2.82843C 196.269 3.02369 196.269 3.34027 196.464 3.53553C 196.66 3.7308 196.976 3.7308 197.172 3.53553L 200.354 0.353553ZM 0 0.5L 200 0.5L 200 -0.5L 0 -0.5L 0 0.5Z"/>
<path id="path9_fill" d="M 12.3516 15.8008C 12.3516 17.7305 11.9102 19.2852 11.0273 20.4648C 10.1445 21.6445 8.94922 22.2344 7.44141 22.2344C 5.90234 22.2344 4.69141 21.7461 3.80859 20.7695L 3.80859 26.875L 1.64062 26.875L 1.64062 9.32031L 3.62109 9.32031L 3.72656 10.7266C 4.60938 9.63281 5.83594 9.08594 7.40625 9.08594C 8.92969 9.08594 10.1328 9.66016 11.0156 10.8086C 11.9062 11.957 12.3516 13.5547 12.3516 15.6016L 12.3516 15.8008ZM 10.1836 15.5547C 10.1836 14.125 9.87891 12.9961 9.26953 12.168C 8.66016 11.3398 7.82422 10.9258 6.76172 10.9258C 5.44922 10.9258 4.46484 11.5078 3.80859 12.6719L 3.80859 18.7305C 4.45703 19.8867 5.44922 20.4648 6.78516 20.4648C 7.82422 20.4648 8.64844 20.0547 9.25781 19.2344C 9.875 18.4062 10.1836 17.1797 10.1836 15.5547ZM 21.2461 11.2656C 20.918 11.2109 20.5625 11.1836 20.1797 11.1836C 18.7578 11.1836 17.793 11.7891 17.2852 13L 17.2852 22L 15.1172 22L 15.1172 9.32031L 17.2266 9.32031L 17.2617 10.7852C 17.9727 9.65234 18.9805 9.08594 20.2852 9.08594C 20.707 9.08594 21.0273 9.14062 21.2461 9.25L 21.2461 11.2656ZM 25.6055 22L 23.4375 22L 23.4375 9.32031L 25.6055 9.32031L 25.6055 22ZM 23.2617 5.95703C 23.2617 5.60547 23.3672 5.30859 23.5781 5.06641C 23.7969 4.82422 24.1172 4.70312 24.5391 4.70312C 24.9609 4.70312 25.2812 4.82422 25.5 5.06641C 25.7188 5.30859 25.8281 5.60547 25.8281 5.95703C 25.8281 6.30859 25.7188 6.60156 25.5 6.83594C 25.2812 7.07031 24.9609 7.1875 24.5391 7.1875C 24.1172 7.1875 23.7969 7.07031 23.5781 6.83594C 23.3672 6.60156 23.2617 6.30859 23.2617 5.95703ZM 34.1719 20.4648C 34.9453 20.4648 35.6211 20.2305 36.1992 19.7617C 36.7773 19.293 37.0977 18.707 37.1602 18.0039L 39.2109 18.0039C 39.1719 18.7305 38.9219 19.4219 38.4609 20.0781C 38 20.7344 37.3828 21.2578 36.6094 21.6484C 35.8438 22.0391 35.0312 22.2344 34.1719 22.2344C 32.4453 22.2344 31.0703 21.6602 30.0469 20.5117C 29.0312 19.3555 28.5234 17.7773 28.5234 15.7773L 28.5234 15.4141C 28.5234 14.1797 28.75 13.082 29.2031 12.1211C 29.6562 11.1602 30.3047 10.4141 31.1484 9.88281C 32 9.35156 33.0039 9.08594 34.1602 9.08594C 35.582 9.08594 36.7617 9.51172 37.6992 10.3633C 38.6445 11.2148 39.1484 12.3203 39.2109 13.6797L 37.1602 13.6797C 37.0977 12.8594 36.7852 12.1875 36.2227 11.6641C 35.668 11.1328 34.9805 10.8672 34.1602 10.8672C 33.0586 10.8672 32.2031 11.2656 31.5938 12.0625C 30.9922 12.8516 30.6914 13.9961 30.6914 15.4961L 30.6914 15.9062C 30.6914 17.3672 30.9922 18.4922 31.5938 19.2812C 32.1953 20.0703 33.0547 20.4648 34.1719 20.4648ZM 46.9102 22.2344C 45.1914 22.2344 43.793 21.6719 42.7148 20.5469C 41.6367 19.4141 41.0977 17.9023 41.0977 16.0117L 41.0977 15.6133C 41.0977 14.3555 41.3359 13.2344 41.8125 12.25C 42.2969 11.2578 42.9688 10.4844 43.8281 9.92969C 44.6953 9.36719 45.6328 9.08594 46.6406 9.08594C 48.2891 9.08594 49.5703 9.62891 50.4844 10.7148C 51.3984 11.8008 51.8555 13.3555 51.8555 15.3789L 51.8555 16.2812L 43.2656 16.2812C 43.2969 17.5312 43.6602 18.543 44.3555 19.3164C 45.0586 20.082 45.9492 20.4648 47.0273 20.4648C 47.793 20.4648 48.4414 20.3086 48.9727 19.9961C 49.5039 19.6836 49.9688 19.2695 50.3672 18.7539L 51.6914 19.7852C 50.6289 21.418 49.0352 22.2344 46.9102 22.2344ZM 46.6406 10.8672C 45.7656 10.8672 45.0312 11.1875 44.4375 11.8281C 43.8438 12.4609 43.4766 13.3516 43.3359 14.5L 49.6875 14.5L 49.6875 14.3359C 49.625 13.2344 49.3281 12.3828 48.7969 11.7812C 48.2656 11.1719 47.5469 10.8672 46.6406 10.8672ZM 63.5156 23.7695L 52.7812 23.7695L 52.7812 22L 63.5156 22L 63.5156 23.7695ZM 72.1055 22L 69.9258 22L 69.9258 7.55078L 65.5547 9.15625L 65.5547 7.1875L 71.7656 4.85547L 72.1055 4.85547L 72.1055 22ZM 78.7266 20.8633C 78.7266 20.4883 78.8359 20.1758 79.0547 19.9258C 79.2812 19.6758 79.6172 19.5508 80.0625 19.5508C 80.5078 19.5508 80.8438 19.6758 81.0703 19.9258C 81.3047 20.1758 81.4219 20.4883 81.4219 20.8633C 81.4219 21.2227 81.3047 21.5234 81.0703 21.7656C 80.8438 22.0078 80.5078 22.1289 80.0625 22.1289C 79.6172 22.1289 79.2812 22.0078 79.0547 21.7656C 78.8359 21.5234 78.7266 21.2227 78.7266 20.8633ZM 84.4922 15.5547C 84.4922 13.5781 84.9492 12.0078 85.8633 10.8438C 86.7773 9.67188 87.9883 9.08594 89.4961 9.08594C 91.043 9.08594 92.25 9.63281 93.1172 10.7266L 93.2227 9.32031L 95.2031 9.32031L 95.2031 21.6953C 95.2031 23.3359 94.7148 24.6289 93.7383 25.5742C 92.7695 26.5195 91.4648 26.9922 89.8242 26.9922C 88.9102 26.9922 88.0156 26.7969 87.1406 26.4062C 86.2656 26.0156 85.5977 25.4805 85.1367 24.8008L 86.2617 23.5C 87.1914 24.6484 88.3281 25.2227 89.6719 25.2227C 90.7266 25.2227 91.5469 24.9258 92.1328 24.332C 92.7266 23.7383 93.0234 22.9023 93.0234 21.8242L 93.0234 20.7344C 92.1562 21.7344 90.9727 22.2344 89.4727 22.2344C 87.9883 22.2344 86.7852 21.6367 85.8633 20.4414C 84.9492 19.2461 84.4922 17.6172 84.4922 15.5547ZM 86.6719 15.8008C 86.6719 17.2305 86.9648 18.3555 87.5508 19.1758C 88.1367 19.9883 88.957 20.3945 90.0117 20.3945C 91.3789 20.3945 92.3828 19.7734 93.0234 18.5312L 93.0234 12.7422C 92.3594 11.5312 91.3633 10.9258 90.0352 10.9258C 88.9805 10.9258 88.1562 11.3359 87.5625 12.1562C 86.9688 12.9766 86.6719 14.1914 86.6719 15.8008ZM 103.746 22.2344C 102.027 22.2344 100.629 21.6719 99.5508 20.5469C 98.4727 19.4141 97.9336 17.9023 97.9336 16.0117L 97.9336 15.6133C 97.9336 14.3555 98.1719 13.2344 98.6484 12.25C 99.1328 11.2578 99.8047 10.4844 100.664 9.92969C 101.531 9.36719 102.469 9.08594 103.477 9.08594C 105.125 9.08594 106.406 9.62891 107.32 10.7148C 108.234 11.8008 108.691 13.3555 108.691 15.3789L 108.691 16.2812L 100.102 16.2812C 100.133 17.5312 100.496 18.543 101.191 19.3164C 101.895 20.082 102.785 20.4648 103.863 20.4648C 104.629 20.4648 105.277 20.3086 105.809 19.9961C 106.34 19.6836 106.805 19.2695 107.203 18.7539L 108.527 19.7852C 107.465 21.418 105.871 22.2344 103.746 22.2344ZM 103.477 10.8672C 102.602 10.8672 101.867 11.1875 101.273 11.8281C 100.68 12.4609 100.312 13.3516 100.172 14.5L 106.523 14.5L 106.523 14.3359C 106.461 13.2344 106.164 12.3828 105.633 11.7812C 105.102 11.1719 104.383 10.8672 103.477 10.8672ZM 114.152 6.25L 114.152 9.32031L 116.52 9.32031L 116.52 10.9961L 114.152 10.9961L 114.152 18.8594C 114.152 19.3672 114.258 19.75 114.469 20.0078C 114.68 20.2578 115.039 20.3828 115.547 20.3828C 115.797 20.3828 116.141 20.3359 116.578 20.2422L 116.578 22C 116.008 22.1562 115.453 22.2344 114.914 22.2344C 113.945 22.2344 113.215 21.9414 112.723 21.3555C 112.23 20.7695 111.984 19.9375 111.984 18.8594L 111.984 10.9961L 109.676 10.9961L 109.676 9.32031L 111.984 9.32031L 111.984 6.25L 114.152 6.25ZM 118.98 15.0742C 118.98 13.3086 119.215 11.6133 119.684 9.98828C 120.16 8.36328 120.867 6.88672 121.805 5.55859C 122.742 4.23047 123.715 3.29297 124.723 2.74609L 125.168 4.17578C 124.027 5.05078 123.09 6.38672 122.355 8.18359C 121.629 9.98047 121.23 11.9922 121.16 14.2188L 121.148 15.2148C 121.148 18.2305 121.699 20.8477 122.801 23.0664C 123.465 24.3945 124.254 25.4336 125.168 26.1836L 124.723 27.5078C 123.684 26.9297 122.691 25.9609 121.746 24.6016C 119.902 21.9453 118.98 18.7695 118.98 15.0742ZM 138.223 22L 127.043 22L 127.043 20.4414L 132.949 13.8789C 133.824 12.8867 134.426 12.082 134.754 11.4648C 135.09 10.8398 135.258 10.1953 135.258 9.53125C 135.258 8.64062 134.988 7.91016 134.449 7.33984C 133.91 6.76953 133.191 6.48438 132.293 6.48438C 131.215 6.48438 130.375 6.79297 129.773 7.41016C 129.18 8.01953 128.883 8.87109 128.883 9.96484L 126.715 9.96484C 126.715 8.39453 127.219 7.125 128.227 6.15625C 129.242 5.1875 130.598 4.70312 132.293 4.70312C 133.879 4.70312 135.133 5.12109 136.055 5.95703C 136.977 6.78516 137.438 7.89062 137.438 9.27344C 137.438 10.9531 136.367 12.9531 134.227 15.2734L 129.656 20.2305L 138.223 20.2305L 138.223 22ZM 145.746 15.1914C 145.746 16.9336 145.516 18.6055 145.055 20.207C 144.602 21.8008 143.902 23.2734 142.957 24.625C 142.02 25.9766 141.035 26.9375 140.004 27.5078L 139.547 26.1836C 140.75 25.2617 141.715 23.832 142.441 21.8945C 143.176 19.9492 143.551 17.793 143.566 15.4258L 143.566 15.0508C 143.566 13.4102 143.395 11.8867 143.051 10.4805C 142.707 9.06641 142.227 7.80078 141.609 6.68359C 141 5.56641 140.312 4.69531 139.547 4.07031L 140.004 2.74609C 141.035 3.31641 142.016 4.26953 142.945 5.60547C 143.883 6.94141 144.582 8.41406 145.043 10.0234C 145.512 11.6328 145.746 13.3555 145.746 15.1914Z"/>
<path id="path10_fill" d="M 14.5781 19.7617C 14 20.5898 13.1914 21.2109 12.1523 21.625C 11.1211 22.0312 9.91797 22.2344 8.54297 22.2344C 7.15234 22.2344 5.91797 21.9102 4.83984 21.2617C 3.76172 20.6055 2.92578 19.6758 2.33203 18.4727C 1.74609 17.2695 1.44531 15.875 1.42969 14.2891L 1.42969 12.8008C 1.42969 10.2305 2.02734 8.23828 3.22266 6.82422C 4.42578 5.41016 6.11328 4.70312 8.28516 4.70312C 10.0664 4.70312 11.5 5.16016 12.5859 6.07422C 13.6719 6.98047 14.3359 8.26953 14.5781 9.94141L 12.3281 9.94141C 11.9062 7.68359 10.5625 6.55469 8.29688 6.55469C 6.78906 6.55469 5.64453 7.08594 4.86328 8.14844C 4.08984 9.20312 3.69922 10.7344 3.69141 12.7422L 3.69141 14.1367C 3.69141 16.0508 4.12891 17.5742 5.00391 18.707C 5.87891 19.832 7.0625 20.3945 8.55469 20.3945C 9.39844 20.3945 10.1367 20.3008 10.7695 20.1133C 11.4023 19.9258 11.9258 19.6094 12.3398 19.1641L 12.3398 15.332L 8.39062 15.332L 8.39062 13.5039L 14.5781 13.5039L 14.5781 19.7617ZM 23.2617 22.2344C 21.543 22.2344 20.1445 21.6719 19.0664 20.5469C 17.9883 19.4141 17.4492 17.9023 17.4492 16.0117L 17.4492 15.6133C 17.4492 14.3555 17.6875 13.2344 18.1641 12.25C 18.6484 11.2578 19.3203 10.4844 20.1797 9.92969C 21.0469 9.36719 21.9844 9.08594 22.9922 9.08594C 24.6406 9.08594 25.9219 9.62891 26.8359 10.7148C 27.75 11.8008 28.207 13.3555 28.207 15.3789L 28.207 16.2812L 19.6172 16.2812C 19.6484 17.5312 20.0117 18.543 20.707 19.3164C 21.4102 20.082 22.3008 20.4648 23.3789 20.4648C 24.1445 20.4648 24.793 20.3086 25.3242 19.9961C 25.8555 19.6836 26.3203 19.2695 26.7188 18.7539L 28.043 19.7852C 26.9805 21.418 25.3867 22.2344 23.2617 22.2344ZM 22.9922 10.8672C 22.1172 10.8672 21.3828 11.1875 20.7891 11.8281C 20.1953 12.4609 19.8281 13.3516 19.6875 14.5L 26.0391 14.5L 26.0391 14.3359C 25.9766 13.2344 25.6797 12.3828 25.1484 11.7812C 24.6172 11.1719 23.8984 10.8672 22.9922 10.8672ZM 33.668 6.25L 33.668 9.32031L 36.0352 9.32031L 36.0352 10.9961L 33.668 10.9961L 33.668 18.8594C 33.668 19.3672 33.7734 19.75 33.9844 20.0078C 34.1953 20.2578 34.5547 20.3828 35.0625 20.3828C 35.3125 20.3828 35.6562 20.3359 36.0938 20.2422L 36.0938 22C 35.5234 22.1562 34.9688 22.2344 34.4297 22.2344C 33.4609 22.2344 32.7305 21.9414 32.2383 21.3555C 31.7461 20.7695 31.5 19.9375 31.5 18.8594L 31.5 10.9961L 29.1914 10.9961L 29.1914 9.32031L 31.5 9.32031L 31.5 6.25L 33.668 6.25ZM 47.4727 6.25L 47.4727 9.32031L 49.8398 9.32031L 49.8398 10.9961L 47.4727 10.9961L 47.4727 18.8594C 47.4727 19.3672 47.5781 19.75 47.7891 20.0078C 48 20.2578 48.3594 20.3828 48.8672 20.3828C 49.1172 20.3828 49.4609 20.3359 49.8984 20.2422L 49.8984 22C 49.3281 22.1562 48.7734 22.2344 48.2344 22.2344C 47.2656 22.2344 46.5352 21.9414 46.043 21.3555C 45.5508 20.7695 45.3047 19.9375 45.3047 18.8594L 45.3047 10.9961L 42.9961 10.9961L 42.9961 9.32031L 45.3047 9.32031L 45.3047 6.25L 47.4727 6.25ZM 54.5508 10.8555C 55.5117 9.67578 56.7617 9.08594 58.3008 9.08594C 60.9805 9.08594 62.332 10.5977 62.3555 13.6211L 62.3555 22L 60.1875 22L 60.1875 13.6094C 60.1797 12.6953 59.9688 12.0195 59.5547 11.582C 59.1484 11.1445 58.5117 10.9258 57.6445 10.9258C 56.9414 10.9258 56.3242 11.1133 55.793 11.4883C 55.2617 11.8633 54.8477 12.3555 54.5508 12.9648L 54.5508 22L 52.3828 22L 52.3828 4L 54.5508 4L 54.5508 10.8555ZM 70.8633 22.2344C 69.1445 22.2344 67.7461 21.6719 66.668 20.5469C 65.5898 19.4141 65.0508 17.9023 65.0508 16.0117L 65.0508 15.6133C 65.0508 14.3555 65.2891 13.2344 65.7656 12.25C 66.25 11.2578 66.9219 10.4844 67.7812 9.92969C 68.6484 9.36719 69.5859 9.08594 70.5938 9.08594C 72.2422 9.08594 73.5234 9.62891 74.4375 10.7148C 75.3516 11.8008 75.8086 13.3555 75.8086 15.3789L 75.8086 16.2812L 67.2188 16.2812C 67.25 17.5312 67.6133 18.543 68.3086 19.3164C 69.0117 20.082 69.9023 20.4648 70.9805 20.4648C 71.7461 20.4648 72.3945 20.3086 72.9258 19.9961C 73.457 19.6836 73.9219 19.2695 74.3203 18.7539L 75.6445 19.7852C 74.582 21.418 72.9883 22.2344 70.8633 22.2344ZM 70.5938 10.8672C 69.7188 10.8672 68.9844 11.1875 68.3906 11.8281C 67.7969 12.4609 67.4297 13.3516 67.2891 14.5L 73.6406 14.5L 73.6406 14.3359C 73.5781 13.2344 73.2812 12.3828 72.75 11.7812C 72.2188 11.1719 71.5 10.8672 70.5938 10.8672ZM 91.6641 18.6367C 91.6641 18.0508 91.4414 17.5977 90.9961 17.2773C 90.5586 16.9492 89.7891 16.668 88.6875 16.4336C 87.5938 16.1992 86.7227 15.918 86.0742 15.5898C 85.4336 15.2617 84.957 14.8711 84.6445 14.418C 84.3398 13.9648 84.1875 13.4258 84.1875 12.8008C 84.1875 11.7617 84.625 10.8828 85.5 10.1641C 86.3828 9.44531 87.5078 9.08594 88.875 9.08594C 90.3125 9.08594 91.4766 9.45703 92.3672 10.1992C 93.2656 10.9414 93.7148 11.8906 93.7148 13.0469L 91.5352 13.0469C 91.5352 12.4531 91.2812 11.9414 90.7734 11.5117C 90.2734 11.082 89.6406 10.8672 88.875 10.8672C 88.0859 10.8672 87.4688 11.0391 87.0234 11.3828C 86.5781 11.7266 86.3555 12.1758 86.3555 12.7305C 86.3555 13.2539 86.5625 13.6484 86.9766 13.9141C 87.3906 14.1797 88.1367 14.4336 89.2148 14.6758C 90.3008 14.918 91.1797 15.207 91.8516 15.543C 92.5234 15.8789 93.0195 16.2852 93.3398 16.7617C 93.668 17.2305 93.832 17.8047 93.832 18.4844C 93.832 19.6172 93.3789 20.5273 92.4727 21.2148C 91.5664 21.8945 90.3906 22.2344 88.9453 22.2344C 87.9297 22.2344 87.0312 22.0547 86.25 21.6953C 85.4688 21.3359 84.8555 20.8359 84.4102 20.1953C 83.9727 19.5469 83.7539 18.8477 83.7539 18.0977L 85.9219 18.0977C 85.9609 18.8242 86.25 19.4023 86.7891 19.832C 87.3359 20.2539 88.0547 20.4648 88.9453 20.4648C 89.7656 20.4648 90.4219 20.3008 90.9141 19.9727C 91.4141 19.6367 91.6641 19.1914 91.6641 18.6367ZM 101.918 22.2344C 100.199 22.2344 98.8008 21.6719 97.7227 20.5469C 96.6445 19.4141 96.1055 17.9023 96.1055 16.0117L 96.1055 15.6133C 96.1055 14.3555 96.3438 13.2344 96.8203 12.25C 97.3047 11.2578 97.9766 10.4844 98.8359 9.92969C 99.7031 9.36719 100.641 9.08594 101.648 9.08594C 103.297 9.08594 104.578 9.62891 105.492 10.7148C 106.406 11.8008 106.863 13.3555 106.863 15.3789L 106.863 16.2812L 98.2734 16.2812C 98.3047 17.5312 98.668 18.543 99.3633 19.3164C 100.066 20.082 100.957 20.4648 102.035 20.4648C 102.801 20.4648 103.449 20.3086 103.98 19.9961C 104.512 19.6836 104.977 19.2695 105.375 18.7539L 106.699 19.7852C 105.637 21.418 104.043 22.2344 101.918 22.2344ZM 101.648 10.8672C 100.773 10.8672 100.039 11.1875 99.4453 11.8281C 98.8516 12.4609 98.4844 13.3516 98.3438 14.5L 104.695 14.5L 104.695 14.3359C 104.633 13.2344 104.336 12.3828 103.805 11.7812C 103.273 11.1719 102.555 10.8672 101.648 10.8672ZM 114.469 20.4648C 115.242 20.4648 115.918 20.2305 116.496 19.7617C 117.074 19.293 117.395 18.707 117.457 18.0039L 119.508 18.0039C 119.469 18.7305 119.219 19.4219 118.758 20.0781C 118.297 20.7344 117.68 21.2578 116.906 21.6484C 116.141 22.0391 115.328 22.2344 114.469 22.2344C 112.742 22.2344 111.367 21.6602 110.344 20.5117C 109.328 19.3555 108.82 17.7773 108.82 15.7773L 108.82 15.4141C 108.82 14.1797 109.047 13.082 109.5 12.1211C 109.953 11.1602 110.602 10.4141 111.445 9.88281C 112.297 9.35156 113.301 9.08594 114.457 9.08594C 115.879 9.08594 117.059 9.51172 117.996 10.3633C 118.941 11.2148 119.445 12.3203 119.508 13.6797L 117.457 13.6797C 117.395 12.8594 117.082 12.1875 116.52 11.6641C 115.965 11.1328 115.277 10.8672 114.457 10.8672C 113.355 10.8672 112.5 11.2656 111.891 12.0625C 111.289 12.8516 110.988 13.9961 110.988 15.4961L 110.988 15.9062C 110.988 17.3672 111.289 18.4922 111.891 19.2812C 112.492 20.0703 113.352 20.4648 114.469 20.4648ZM 121.371 15.543C 121.371 14.3008 121.613 13.1836 122.098 12.1914C 122.59 11.1992 123.27 10.4336 124.137 9.89453C 125.012 9.35547 126.008 9.08594 127.125 9.08594C 128.852 9.08594 130.246 9.68359 131.309 10.8789C 132.379 12.0742 132.914 13.6641 132.914 15.6484L 132.914 15.8008C 132.914 17.0352 132.676 18.1445 132.199 19.1289C 131.73 20.1055 131.055 20.8672 130.172 21.4141C 129.297 21.9609 128.289 22.2344 127.148 22.2344C 125.43 22.2344 124.035 21.6367 122.965 20.4414C 121.902 19.2461 121.371 17.6641 121.371 15.6953L 121.371 15.543ZM 123.551 15.8008C 123.551 17.207 123.875 18.3359 124.523 19.1875C 125.18 20.0391 126.055 20.4648 127.148 20.4648C 128.25 20.4648 129.125 20.0352 129.773 19.1758C 130.422 18.3086 130.746 17.0977 130.746 15.543C 130.746 14.1523 130.414 13.0273 129.75 12.168C 129.094 11.3008 128.219 10.8672 127.125 10.8672C 126.055 10.8672 125.191 11.293 124.535 12.1445C 123.879 12.9961 123.551 14.2148 123.551 15.8008ZM 137.684 9.32031L 137.754 10.9141C 138.723 9.69531 139.988 9.08594 141.551 9.08594C 144.23 9.08594 145.582 10.5977 145.605 13.6211L 145.605 22L 143.438 22L 143.438 13.6094C 143.43 12.6953 143.219 12.0195 142.805 11.582C 142.398 11.1445 141.762 10.9258 140.895 10.9258C 140.191 10.9258 139.574 11.1133 139.043 11.4883C 138.512 11.8633 138.098 12.3555 137.801 12.9648L 137.801 22L 135.633 22L 135.633 9.32031L 137.684 9.32031ZM 148.348 15.5547C 148.348 13.6094 148.809 12.0469 149.73 10.8672C 150.652 9.67969 151.859 9.08594 153.352 9.08594C 154.836 9.08594 156.012 9.59375 156.879 10.6094L 156.879 4L 159.047 4L 159.047 22L 157.055 22L 156.949 20.6406C 156.082 21.7031 154.875 22.2344 153.328 22.2344C 151.859 22.2344 150.66 21.6328 149.73 20.4297C 148.809 19.2266 148.348 17.6562 148.348 15.7188L 148.348 15.5547ZM 150.516 15.8008C 150.516 17.2383 150.812 18.3633 151.406 19.1758C 152 19.9883 152.82 20.3945 153.867 20.3945C 155.242 20.3945 156.246 19.7773 156.879 18.543L 156.879 12.7188C 156.23 11.5234 155.234 10.9258 153.891 10.9258C 152.828 10.9258 152 11.3359 151.406 12.1562C 150.812 12.9766 150.516 14.1914 150.516 15.8008ZM 173.637 22.2344C 171.918 22.2344 170.52 21.6719 169.441 20.5469C 168.363 19.4141 167.824 17.9023 167.824 16.0117L 167.824 15.6133C 167.824 14.3555 168.062 13.2344 168.539 12.25C 169.023 11.2578 169.695 10.4844 170.555 9.92969C 171.422 9.36719 172.359 9.08594 173.367 9.08594C 175.016 9.08594 176.297 9.62891 177.211 10.7148C 178.125 11.8008 178.582 13.3555 178.582 15.3789L 178.582 16.2812L 169.992 16.2812C 170.023 17.5312 170.387 18.543 171.082 19.3164C 171.785 20.082 172.676 20.4648 173.754 20.4648C 174.52 20.4648 175.168 20.3086 175.699 19.9961C 176.23 19.6836 176.695 19.2695 177.094 18.7539L 178.418 19.7852C 177.355 21.418 175.762 22.2344 173.637 22.2344ZM 173.367 10.8672C 172.492 10.8672 171.758 11.1875 171.164 11.8281C 170.57 12.4609 170.203 13.3516 170.062 14.5L 176.414 14.5L 176.414 14.3359C 176.352 13.2344 176.055 12.3828 175.523 11.7812C 174.992 11.1719 174.273 10.8672 173.367 10.8672ZM 183.457 22L 181.289 22L 181.289 4L 183.457 4L 183.457 22ZM 192.199 22.2344C 190.48 22.2344 189.082 21.6719 188.004 20.5469C 186.926 19.4141 186.387 17.9023 186.387 16.0117L 186.387 15.6133C 186.387 14.3555 186.625 13.2344 187.102 12.25C 187.586 11.2578 188.258 10.4844 189.117 9.92969C 189.984 9.36719 190.922 9.08594 191.93 9.08594C 193.578 9.08594 194.859 9.62891 195.773 10.7148C 196.688 11.8008 197.145 13.3555 197.145 15.3789L 197.145 16.2812L 188.555 16.2812C 188.586 17.5312 188.949 18.543 189.645 19.3164C 190.348 20.082 191.238 20.4648 192.316 20.4648C 193.082 20.4648 193.73 20.3086 194.262 19.9961C 194.793 19.6836 195.258 19.2695 195.656 18.7539L 196.98 19.7852C 195.918 21.418 194.324 22.2344 192.199 22.2344ZM 191.93 10.8672C 191.055 10.8672 190.32 11.1875 189.727 11.8281C 189.133 12.4609 188.766 13.3516 188.625 14.5L 194.977 14.5L 194.977 14.3359C 194.914 13.2344 194.617 12.3828 194.086 11.7812C 193.555 11.1719 192.836 10.8672 191.93 10.8672ZM 201.703 9.32031L 201.762 10.7266C 202.691 9.63281 203.945 9.08594 205.523 9.08594C 207.297 9.08594 208.504 9.76562 209.145 11.125C 209.566 10.5156 210.113 10.0234 210.785 9.64844C 211.465 9.27344 212.266 9.08594 213.188 9.08594C 215.969 9.08594 217.383 10.5586 217.43 13.5039L 217.43 22L 215.262 22L 215.262 13.6328C 215.262 12.7266 215.055 12.0508 214.641 11.6055C 214.227 11.1523 213.531 10.9258 212.555 10.9258C 211.75 10.9258 211.082 11.168 210.551 11.6523C 210.02 12.1289 209.711 12.7734 209.625 13.5859L 209.625 22L 207.445 22L 207.445 13.6914C 207.445 11.8477 206.543 10.9258 204.738 10.9258C 203.316 10.9258 202.344 11.5312 201.82 12.7422L 201.82 22L 199.652 22L 199.652 9.32031L 201.703 9.32031ZM 225.973 22.2344C 224.254 22.2344 222.855 21.6719 221.777 20.5469C 220.699 19.4141 220.16 17.9023 220.16 16.0117L 220.16 15.6133C 220.16 14.3555 220.398 13.2344 220.875 12.25C 221.359 11.2578 222.031 10.4844 222.891 9.92969C 223.758 9.36719 224.695 9.08594 225.703 9.08594C 227.352 9.08594 228.633 9.62891 229.547 10.7148C 230.461 11.8008 230.918 13.3555 230.918 15.3789L 230.918 16.2812L 222.328 16.2812C 222.359 17.5312 222.723 18.543 223.418 19.3164C 224.121 20.082 225.012 20.4648 226.09 20.4648C 226.855 20.4648 227.504 20.3086 228.035 19.9961C 228.566 19.6836 229.031 19.2695 229.43 18.7539L 230.754 19.7852C 229.691 21.418 228.098 22.2344 225.973 22.2344ZM 225.703 10.8672C 224.828 10.8672 224.094 11.1875 223.5 11.8281C 222.906 12.4609 222.539 13.3516 222.398 14.5L 228.75 14.5L 228.75 14.3359C 228.688 13.2344 228.391 12.3828 227.859 11.7812C 227.328 11.1719 226.609 10.8672 225.703 10.8672ZM 235.488 9.32031L 235.559 10.9141C 236.527 9.69531 237.793 9.08594 239.355 9.08594C 242.035 9.08594 243.387 10.5977 243.41 13.6211L 243.41 22L 241.242 22L 241.242 13.6094C 241.234 12.6953 241.023 12.0195 240.609 11.582C 240.203 11.1445 239.566 10.9258 238.699 10.9258C 237.996 10.9258 237.379 11.1133 236.848 11.4883C 236.316 11.8633 235.902 12.3555 235.605 12.9648L 235.605 22L 233.438 22L 233.438 9.32031L 235.488 9.32031ZM 249.621 6.25L 249.621 9.32031L 251.988 9.32031L 251.988 10.9961L 249.621 10.9961L 249.621 18.8594C 249.621 19.3672 249.727 19.75 249.938 20.0078C 250.148 20.2578 250.508 20.3828 251.016 20.3828C 251.266 20.3828 251.609 20.3359 252.047 20.2422L 252.047 22C 251.477 22.1562 250.922 22.2344 250.383 22.2344C 249.414 22.2344 248.684 21.9414 248.191 21.3555C 247.699 20.7695 247.453 19.9375 247.453 18.8594L 247.453 10.9961L 245.145 10.9961L 245.145 9.32031L 247.453 9.32031L 247.453 6.25L 249.621 6.25ZM 9.46875 50C 9.34375 49.75 9.24219 49.3047 9.16406 48.6641C 8.15625 49.7109 6.95312 50.2344 5.55469 50.2344C 4.30469 50.2344 3.27734 49.8828 2.47266 49.1797C 1.67578 48.4688 1.27734 47.5703 1.27734 46.4844C 1.27734 45.1641 1.77734 44.1406 2.77734 43.4141C 3.78516 42.6797 5.19922 42.3125 7.01953 42.3125L 9.12891 42.3125L 9.12891 41.3164C 9.12891 40.5586 8.90234 39.957 8.44922 39.5117C 7.99609 39.0586 7.32812 38.832 6.44531 38.832C 5.67188 38.832 5.02344 39.0273 4.5 39.418C 3.97656 39.8086 3.71484 40.2812 3.71484 40.8359L 1.53516 40.8359C 1.53516 40.2031 1.75781 39.5938 2.20312 39.0078C 2.65625 38.4141 3.26562 37.9453 4.03125 37.6016C 4.80469 37.2578 5.65234 37.0859 6.57422 37.0859C 8.03516 37.0859 9.17969 37.4531 10.0078 38.1875C 10.8359 38.9141 11.2656 39.918 11.2969 41.1992L 11.2969 47.0352C 11.2969 48.1992 11.4453 49.125 11.7422 49.8125L 11.7422 50L 9.46875 50ZM 5.87109 48.3477C 6.55078 48.3477 7.19531 48.1719 7.80469 47.8203C 8.41406 47.4688 8.85547 47.0117 9.12891 46.4492L 9.12891 43.8477L 7.42969 43.8477C 4.77344 43.8477 3.44531 44.625 3.44531 46.1797C 3.44531 46.8594 3.67188 47.3906 4.125 47.7734C 4.57812 48.1562 5.16016 48.3477 5.87109 48.3477ZM 15.7617 50L 15.7617 38.9961L 13.7578 38.9961L 13.7578 37.3203L 15.7617 37.3203L 15.7617 36.0195C 15.7617 34.6602 16.125 33.6094 16.8516 32.8672C 17.5781 32.125 18.6055 31.7539 19.9336 31.7539C 20.4336 31.7539 20.9297 31.8203 21.4219 31.9531L 21.3047 33.7109C 20.9375 33.6406 20.5469 33.6055 20.1328 33.6055C 19.4297 33.6055 18.8867 33.8125 18.5039 34.2266C 18.1211 34.6328 17.9297 35.2188 17.9297 35.9844L 17.9297 37.3203L 20.6367 37.3203L 20.6367 38.9961L 17.9297 38.9961L 17.9297 50L 15.7617 50ZM 25.9805 34.25L 25.9805 37.3203L 28.3477 37.3203L 28.3477 38.9961L 25.9805 38.9961L 25.9805 46.8594C 25.9805 47.3672 26.0859 47.75 26.2969 48.0078C 26.5078 48.2578 26.8672 48.3828 27.375 48.3828C 27.625 48.3828 27.9688 48.3359 28.4062 48.2422L 28.4062 50C 27.8359 50.1562 27.2812 50.2344 26.7422 50.2344C 25.7734 50.2344 25.043 49.9414 24.5508 49.3555C 24.0586 48.7695 23.8125 47.9375 23.8125 46.8594L 23.8125 38.9961L 21.5039 38.9961L 21.5039 37.3203L 23.8125 37.3203L 23.8125 34.25L 25.9805 34.25ZM 36.1523 50.2344C 34.4336 50.2344 33.0352 49.6719 31.957 48.5469C 30.8789 47.4141 30.3398 45.9023 30.3398 44.0117L 30.3398 43.6133C 30.3398 42.3555 30.5781 41.2344 31.0547 40.25C 31.5391 39.2578 32.2109 38.4844 33.0703 37.9297C 33.9375 37.3672 34.875 37.0859 35.8828 37.0859C 37.5312 37.0859 38.8125 37.6289 39.7266 38.7148C 40.6406 39.8008 41.0977 41.3555 41.0977 43.3789L 41.0977 44.2812L 32.5078 44.2812C 32.5391 45.5312 32.9023 46.543 33.5977 47.3164C 34.3008 48.082 35.1914 48.4648 36.2695 48.4648C 37.0352 48.4648 37.6836 48.3086 38.2148 47.9961C 38.7461 47.6836 39.2109 47.2695 39.6094 46.7539L 40.9336 47.7852C 39.8711 49.418 38.2773 50.2344 36.1523 50.2344ZM 35.8828 38.8672C 35.0078 38.8672 34.2734 39.1875 33.6797 39.8281C 33.0859 40.4609 32.7188 41.3516 32.5781 42.5L 38.9297 42.5L 38.9297 42.3359C 38.8672 41.2344 38.5703 40.3828 38.0391 39.7812C 37.5078 39.1719 36.7891 38.8672 35.8828 38.8672ZM 49.7461 39.2656C 49.418 39.2109 49.0625 39.1836 48.6797 39.1836C 47.2578 39.1836 46.293 39.7891 45.7852 41L 45.7852 50L 43.6172 50L 43.6172 37.3203L 45.7266 37.3203L 45.7617 38.7852C 46.4727 37.6523 47.4805 37.0859 48.7852 37.0859C 49.207 37.0859 49.5273 37.1406 49.7461 37.25L 49.7461 39.2656ZM 68.4141 43.8008C 68.4141 45.7305 67.9727 47.2852 67.0898 48.4648C 66.207 49.6445 65.0117 50.2344 63.5039 50.2344C 61.9648 50.2344 60.7539 49.7461 59.8711 48.7695L 59.8711 54.875L 57.7031 54.875L 57.7031 37.3203L 59.6836 37.3203L 59.7891 38.7266C 60.6719 37.6328 61.8984 37.0859 63.4688 37.0859C 64.9922 37.0859 66.1953 37.6602 67.0781 38.8086C 67.9688 39.957 68.4141 41.5547 68.4141 43.6016L 68.4141 43.8008ZM 66.2461 43.5547C 66.2461 42.125 65.9414 40.9961 65.332 40.168C 64.7227 39.3398 63.8867 38.9258 62.8242 38.9258C 61.5117 38.9258 60.5273 39.5078 59.8711 40.6719L 59.8711 46.7305C 60.5195 47.8867 61.5117 48.4648 62.8477 48.4648C 63.8867 48.4648 64.7109 48.0547 65.3203 47.2344C 65.9375 46.4062 66.2461 45.1797 66.2461 43.5547ZM 77.3086 39.2656C 76.9805 39.2109 76.625 39.1836 76.2422 39.1836C 74.8203 39.1836 73.8555 39.7891 73.3477 41L 73.3477 50L 71.1797 50L 71.1797 37.3203L 73.2891 37.3203L 73.3242 38.7852C 74.0352 37.6523 75.043 37.0859 76.3477 37.0859C 76.7695 37.0859 77.0898 37.1406 77.3086 37.25L 77.3086 39.2656ZM 81.668 50L 79.5 50L 79.5 37.3203L 81.668 37.3203L 81.668 50ZM 79.3242 33.957C 79.3242 33.6055 79.4297 33.3086 79.6406 33.0664C 79.8594 32.8242 80.1797 32.7031 80.6016 32.7031C 81.0234 32.7031 81.3438 32.8242 81.5625 33.0664C 81.7812 33.3086 81.8906 33.6055 81.8906 33.957C 81.8906 34.3086 81.7812 34.6016 81.5625 34.8359C 81.3438 35.0703 81.0234 35.1875 80.6016 35.1875C 80.1797 35.1875 79.8594 35.0703 79.6406 34.8359C 79.4297 34.6016 79.3242 34.3086 79.3242 33.957ZM 90.2344 48.4648C 91.0078 48.4648 91.6836 48.2305 92.2617 47.7617C 92.8398 47.293 93.1602 46.707 93.2227 46.0039L 95.2734 46.0039C 95.2344 46.7305 94.9844 47.4219 94.5234 48.0781C 94.0625 48.7344 93.4453 49.2578 92.6719 49.6484C 91.9062 50.0391 91.0938 50.2344 90.2344 50.2344C 88.5078 50.2344 87.1328 49.6602 86.1094 48.5117C 85.0938 47.3555 84.5859 45.7773 84.5859 43.7773L 84.5859 43.4141C 84.5859 42.1797 84.8125 41.082 85.2656 40.1211C 85.7188 39.1602 86.3672 38.4141 87.2109 37.8828C 88.0625 37.3516 89.0664 37.0859 90.2227 37.0859C 91.6445 37.0859 92.8242 37.5117 93.7617 38.3633C 94.707 39.2148 95.2109 40.3203 95.2734 41.6797L 93.2227 41.6797C 93.1602 40.8594 92.8477 40.1875 92.2852 39.6641C 91.7305 39.1328 91.043 38.8672 90.2227 38.8672C 89.1211 38.8672 88.2656 39.2656 87.6562 40.0625C 87.0547 40.8516 86.7539 41.9961 86.7539 43.4961L 86.7539 43.9062C 86.7539 45.3672 87.0547 46.4922 87.6562 47.2812C 88.2578 48.0703 89.1172 48.4648 90.2344 48.4648ZM 102.973 50.2344C 101.254 50.2344 99.8555 49.6719 98.7773 48.5469C 97.6992 47.4141 97.1602 45.9023 97.1602 44.0117L 97.1602 43.6133C 97.1602 42.3555 97.3984 41.2344 97.875 40.25C 98.3594 39.2578 99.0312 38.4844 99.8906 37.9297C 100.758 37.3672 101.695 37.0859 102.703 37.0859C 104.352 37.0859 105.633 37.6289 106.547 38.7148C 107.461 39.8008 107.918 41.3555 107.918 43.3789L 107.918 44.2812L 99.3281 44.2812C 99.3594 45.5312 99.7227 46.543 100.418 47.3164C 101.121 48.082 102.012 48.4648 103.09 48.4648C 103.855 48.4648 104.504 48.3086 105.035 47.9961C 105.566 47.6836 106.031 47.2695 106.43 46.7539L 107.754 47.7852C 106.691 49.418 105.098 50.2344 102.973 50.2344ZM 102.703 38.8672C 101.828 38.8672 101.094 39.1875 100.5 39.8281C 99.9062 40.4609 99.5391 41.3516 99.3984 42.5L 105.75 42.5L 105.75 42.3359C 105.688 41.2344 105.391 40.3828 104.859 39.7812C 104.328 39.1719 103.609 38.8672 102.703 38.8672ZM 119.578 51.7695L 108.844 51.7695L 108.844 50L 119.578 50L 119.578 51.7695ZM 128.168 50L 125.988 50L 125.988 35.5508L 121.617 37.1562L 121.617 35.1875L 127.828 32.8555L 128.168 32.8555L 128.168 50Z"/>
<path id="path11_stroke" d="M 0 0L 132.639 0L 132.639 -1L 0 -1L 0 0Z"/>
<path id="path12_stroke" d="M 131.963 0.353553C 132.158 0.158291 132.158 -0.158291 131.963 -0.353553L 128.781 -3.53553C 128.586 -3.7308 128.269 -3.7308 128.074 -3.53553C 127.878 -3.34027 127.878 -3.02369 128.074 -2.82843L 130.902 0L 128.074 2.82843C 127.878 3.02369 127.878 3.34027 128.074 3.53553C 128.269 3.7308 128.586 3.7308 128.781 3.53553L 131.963 0.353553ZM 0 0.5L 131.609 0.5L 131.609 -0.5L 0 -0.5L 0 0.5Z"/>
<path id="path13_fill" d="M 12.8145 33L 9.54492 33L 9.54492 11.3262L 2.98828 13.7344L 2.98828 10.7812L 12.3047 7.2832L 12.8145 7.2832L 12.8145 33Z"/>
<path id="path14_fill" d="M 18.8965 33L 2.12695 33L 2.12695 30.6621L 10.9863 20.8184C 12.2988 19.3301 13.2012 18.123 13.6934 17.1973C 14.1973 16.2598 14.4492 15.293 14.4492 14.2969C 14.4492 12.9609 14.0449 11.8652 13.2363 11.0098C 12.4277 10.1543 11.3496 9.72656 10.002 9.72656C 8.38477 9.72656 7.125 10.1895 6.22266 11.1152C 5.33203 12.0293 4.88672 13.3066 4.88672 14.9473L 1.63477 14.9473C 1.63477 12.5918 2.39062 10.6875 3.90234 9.23438C 5.42578 7.78125 7.45898 7.05469 10.002 7.05469C 12.3809 7.05469 14.2617 7.68164 15.6445 8.93555C 17.0273 10.1777 17.7188 11.8359 17.7188 13.9102C 17.7188 16.4297 16.1133 19.4297 12.9023 22.9102L 6.04688 30.3457L 18.8965 30.3457L 18.8965 33Z"/>
<path id="path15_stroke" d="M 241.354 0.353553C 241.549 0.158291 241.549 -0.158291 241.354 -0.353553L 238.172 -3.53553C 237.976 -3.7308 237.66 -3.7308 237.464 -3.53553C 237.269 -3.34027 237.269 -3.02369 237.464 -2.82843L 240.293 0L 237.464 2.82843C 237.269 3.02369 237.269 3.34027 237.464 3.53553C 237.66 3.7308 237.976 3.7308 238.172 3.53553L 241.354 0.353553ZM 0 0.5L 241 0.5L 241 -0.5L 0 -0.5L 0 0.5Z"/>
<path id="path16_fill" d="M 18.5273 23.7012C 18.5273 26.5957 17.8652 28.9277 16.541 30.6973C 15.2168 32.4668 13.4238 33.3516 11.1621 33.3516C 8.85352 33.3516 7.03711 32.6191 5.71289 31.1543L 5.71289 40.3125L 2.46094 40.3125L 2.46094 13.9805L 5.43164 13.9805L 5.58984 16.0898C 6.91406 14.4492 8.75391 13.6289 11.1094 13.6289C 13.3945 13.6289 15.1992 14.4902 16.5234 16.2129C 17.8594 17.9355 18.5273 20.332 18.5273 23.4023L 18.5273 23.7012ZM 15.2754 23.332C 15.2754 21.1875 14.8184 19.4941 13.9043 18.252C 12.9902 17.0098 11.7363 16.3887 10.1426 16.3887C 8.17383 16.3887 6.69727 17.2617 5.71289 19.0078L 5.71289 28.0957C 6.68555 29.8301 8.17383 30.6973 10.1777 30.6973C 11.7363 30.6973 12.9727 30.082 13.8867 28.8516C 14.8125 27.6094 15.2754 25.7695 15.2754 23.332ZM 31.8691 16.8984C 31.377 16.8164 30.8438 16.7754 30.2695 16.7754C 28.1367 16.7754 26.6895 17.6836 25.9277 19.5L 25.9277 33L 22.6758 33L 22.6758 13.9805L 25.8398 13.9805L 25.8926 16.1777C 26.959 14.4785 28.4707 13.6289 30.4277 13.6289C 31.0605 13.6289 31.541 13.7109 31.8691 13.875L 31.8691 16.8984ZM 38.4082 33L 35.1562 33L 35.1562 13.9805L 38.4082 13.9805L 38.4082 33ZM 34.8926 8.93555C 34.8926 8.4082 35.0508 7.96289 35.3672 7.59961C 35.6953 7.23633 36.1758 7.05469 36.8086 7.05469C 37.4414 7.05469 37.9219 7.23633 38.25 7.59961C 38.5781 7.96289 38.7422 8.4082 38.7422 8.93555C 38.7422 9.46289 38.5781 9.90234 38.25 10.2539C 37.9219 10.6055 37.4414 10.7812 36.8086 10.7812C 36.1758 10.7812 35.6953 10.6055 35.3672 10.2539C 35.0508 9.90234 34.8926 9.46289 34.8926 8.93555ZM 51.2578 30.6973C 52.418 30.6973 53.4316 30.3457 54.2988 29.6426C 55.166 28.9395 55.6465 28.0605 55.7402 27.0059L 58.8164 27.0059C 58.7578 28.0957 58.3828 29.1328 57.6914 30.1172C 57 31.1016 56.0742 31.8867 54.9141 32.4727C 53.7656 33.0586 52.5469 33.3516 51.2578 33.3516C 48.668 33.3516 46.6055 32.4902 45.0703 30.7676C 43.5469 29.0332 42.7852 26.666 42.7852 23.666L 42.7852 23.1211C 42.7852 21.2695 43.125 19.623 43.8047 18.1816C 44.4844 16.7402 45.457 15.6211 46.7227 14.8242C 48 14.0273 49.5059 13.6289 51.2402 13.6289C 53.373 13.6289 55.1426 14.2676 56.5488 15.5449C 57.9668 16.8223 58.7227 18.4805 58.8164 20.5195L 55.7402 20.5195C 55.6465 19.2891 55.1777 18.2812 54.334 17.4961C 53.502 16.6992 52.4707 16.3008 51.2402 16.3008C 49.5879 16.3008 48.3047 16.8984 47.3906 18.0938C 46.4883 19.2773 46.0371 20.9941 46.0371 23.2441L 46.0371 23.8594C 46.0371 26.0508 46.4883 27.7383 47.3906 28.9219C 48.293 30.1055 49.582 30.6973 51.2578 30.6973ZM 70.3652 33.3516C 67.7871 33.3516 65.6895 32.5078 64.0723 30.8203C 62.4551 29.1211 61.6465 26.8535 61.6465 24.0176L 61.6465 23.4199C 61.6465 21.5332 62.0039 19.8516 62.7188 18.375C 63.4453 16.8867 64.4531 15.7266 65.7422 14.8945C 67.043 14.0508 68.4492 13.6289 69.9609 13.6289C 72.4336 13.6289 74.3555 14.4434 75.7266 16.0723C 77.0977 17.7012 77.7832 20.0332 77.7832 23.0684L 77.7832 24.4219L 64.8984 24.4219C 64.9453 26.2969 65.4902 27.8145 66.5332 28.9746C 67.5879 30.123 68.9238 30.6973 70.541 30.6973C 71.6895 30.6973 72.6621 30.4629 73.459 29.9941C 74.2559 29.5254 74.9531 28.9043 75.5508 28.1309L 77.5371 29.6777C 75.9434 32.127 73.5527 33.3516 70.3652 33.3516ZM 69.9609 16.3008C 68.6484 16.3008 67.5469 16.7812 66.6562 17.7422C 65.7656 18.6914 65.2148 20.0273 65.0039 21.75L 74.5312 21.75L 74.5312 21.5039C 74.4375 19.8516 73.9922 18.5742 73.1953 17.6719C 72.3984 16.7578 71.3203 16.3008 69.9609 16.3008ZM 95.2734 35.6543L 79.1719 35.6543L 79.1719 33L 95.2734 33L 95.2734 35.6543ZM 102.199 18.6211L 104.643 18.6211C 106.178 18.5977 107.385 18.1934 108.264 17.4082C 109.143 16.623 109.582 15.5625 109.582 14.2266C 109.582 11.2266 108.088 9.72656 105.1 9.72656C 103.693 9.72656 102.568 10.1309 101.725 10.9395C 100.893 11.7363 100.477 12.7969 100.477 14.1211L 97.2246 14.1211C 97.2246 12.0938 97.9629 10.4121 99.4395 9.07617C 100.928 7.72852 102.814 7.05469 105.1 7.05469C 107.514 7.05469 109.406 7.69336 110.777 8.9707C 112.148 10.248 112.834 12.0234 112.834 14.2969C 112.834 15.4102 112.471 16.4883 111.744 17.5312C 111.029 18.5742 110.051 19.3535 108.809 19.8691C 110.215 20.3145 111.299 21.0527 112.061 22.084C 112.834 23.1152 113.221 24.375 113.221 25.8633C 113.221 28.1602 112.471 29.9824 110.971 31.3301C 109.471 32.6777 107.52 33.3516 105.117 33.3516C 102.715 33.3516 100.758 32.7012 99.2461 31.4004C 97.7461 30.0996 96.9961 28.3828 96.9961 26.25L 100.266 26.25C 100.266 27.5977 100.705 28.6758 101.584 29.4844C 102.463 30.293 103.641 30.6973 105.117 30.6973C 106.688 30.6973 107.889 30.2871 108.721 29.4668C 109.553 28.6465 109.969 27.4688 109.969 25.9336C 109.969 24.4453 109.512 23.3027 108.598 22.5059C 107.684 21.709 106.365 21.2988 104.643 21.2754L 102.199 21.2754L 102.199 18.6211Z"/>
<path id="path17_fill" d="M 7.00781 14.3945C 5.07812 13.8398 3.67188 13.1602 2.78906 12.3555C 1.91406 11.543 1.47656 10.543 1.47656 9.35547C 1.47656 8.01172 2.01172 6.90234 3.08203 6.02734C 4.16016 5.14453 5.55859 4.70312 7.27734 4.70312C 8.44922 4.70312 9.49219 4.92969 10.4062 5.38281C 11.3281 5.83594 12.0391 6.46094 12.5391 7.25781C 13.0469 8.05469 13.3008 8.92578 13.3008 9.87109L 11.0391 9.87109C 11.0391 8.83984 10.7109 8.03125 10.0547 7.44531C 9.39844 6.85156 8.47266 6.55469 7.27734 6.55469C 6.16797 6.55469 5.30078 6.80078 4.67578 7.29297C 4.05859 7.77734 3.75 8.45312 3.75 9.32031C 3.75 10.0156 4.04297 10.6055 4.62891 11.0898C 5.22266 11.5664 6.22656 12.0039 7.64062 12.4023C 9.0625 12.8008 10.1719 13.2422 10.9688 13.7266C 11.7734 14.2031 12.3672 14.7617 12.75 15.4023C 13.1406 16.043 13.3359 16.7969 13.3359 17.6641C 13.3359 19.0469 12.7969 20.1562 11.7188 20.9922C 10.6406 21.8203 9.19922 22.2344 7.39453 22.2344C 6.22266 22.2344 5.12891 22.0117 4.11328 21.5664C 3.09766 21.1133 2.3125 20.4961 1.75781 19.7148C 1.21094 18.9336 0.9375 18.0469 0.9375 17.0547L 3.19922 17.0547C 3.19922 18.0859 3.57812 18.9023 4.33594 19.5039C 5.10156 20.0977 6.12109 20.3945 7.39453 20.3945C 8.58203 20.3945 9.49219 20.1523 10.125 19.668C 10.7578 19.1836 11.0742 18.5234 11.0742 17.6875C 11.0742 16.8516 10.7812 16.207 10.1953 15.7539C 9.60938 15.293 8.54688 14.8398 7.00781 14.3945ZM 21.1523 22.2344C 19.4336 22.2344 18.0352 21.6719 16.957 20.5469C 15.8789 19.4141 15.3398 17.9023 15.3398 16.0117L 15.3398 15.6133C 15.3398 14.3555 15.5781 13.2344 16.0547 12.25C 16.5391 11.2578 17.2109 10.4844 18.0703 9.92969C 18.9375 9.36719 19.875 9.08594 20.8828 9.08594C 22.5312 9.08594 23.8125 9.62891 24.7266 10.7148C 25.6406 11.8008 26.0977 13.3555 26.0977 15.3789L 26.0977 16.2812L 17.5078 16.2812C 17.5391 17.5312 17.9023 18.543 18.5977 19.3164C 19.3008 20.082 20.1914 20.4648 21.2695 20.4648C 22.0352 20.4648 22.6836 20.3086 23.2148 19.9961C 23.7461 19.6836 24.2109 19.2695 24.6094 18.7539L 25.9336 19.7852C 24.8711 21.418 23.2773 22.2344 21.1523 22.2344ZM 20.8828 10.8672C 20.0078 10.8672 19.2734 11.1875 18.6797 11.8281C 18.0859 12.4609 17.7188 13.3516 17.5781 14.5L 23.9297 14.5L 23.9297 14.3359C 23.8672 13.2344 23.5703 12.3828 23.0391 11.7812C 22.5078 11.1719 21.7891 10.8672 20.8828 10.8672ZM 36.4453 22C 36.3203 21.75 36.2188 21.3047 36.1406 20.6641C 35.1328 21.7109 33.9297 22.2344 32.5312 22.2344C 31.2812 22.2344 30.2539 21.8828 29.4492 21.1797C 28.6523 20.4688 28.2539 19.5703 28.2539 18.4844C 28.2539 17.1641 28.7539 16.1406 29.7539 15.4141C 30.7617 14.6797 32.1758 14.3125 33.9961 14.3125L 36.1055 14.3125L 36.1055 13.3164C 36.1055 12.5586 35.8789 11.957 35.4258 11.5117C 34.9727 11.0586 34.3047 10.832 33.4219 10.832C 32.6484 10.832 32 11.0273 31.4766 11.418C 30.9531 11.8086 30.6914 12.2812 30.6914 12.8359L 28.5117 12.8359C 28.5117 12.2031 28.7344 11.5938 29.1797 11.0078C 29.6328 10.4141 30.2422 9.94531 31.0078 9.60156C 31.7812 9.25781 32.6289 9.08594 33.5508 9.08594C 35.0117 9.08594 36.1562 9.45312 36.9844 10.1875C 37.8125 10.9141 38.2422 11.918 38.2734 13.1992L 38.2734 19.0352C 38.2734 20.1992 38.4219 21.125 38.7188 21.8125L 38.7188 22L 36.4453 22ZM 32.8477 20.3477C 33.5273 20.3477 34.1719 20.1719 34.7812 19.8203C 35.3906 19.4688 35.832 19.0117 36.1055 18.4492L 36.1055 15.8477L 34.4062 15.8477C 31.75 15.8477 30.4219 16.625 30.4219 18.1797C 30.4219 18.8594 30.6484 19.3906 31.1016 19.7734C 31.5547 20.1562 32.1367 20.3477 32.8477 20.3477ZM 47.8008 11.2656C 47.4727 11.2109 47.1172 11.1836 46.7344 11.1836C 45.3125 11.1836 44.3477 11.7891 43.8398 13L 43.8398 22L 41.6719 22L 41.6719 9.32031L 43.7812 9.32031L 43.8164 10.7852C 44.5273 9.65234 45.5352 9.08594 46.8398 9.08594C 47.2617 9.08594 47.582 9.14062 47.8008 9.25L 47.8008 11.2656ZM 54.6562 20.4648C 55.4297 20.4648 56.1055 20.2305 56.6836 19.7617C 57.2617 19.293 57.582 18.707 57.6445 18.0039L 59.6953 18.0039C 59.6562 18.7305 59.4062 19.4219 58.9453 20.0781C 58.4844 20.7344 57.8672 21.2578 57.0938 21.6484C 56.3281 22.0391 55.5156 22.2344 54.6562 22.2344C 52.9297 22.2344 51.5547 21.6602 50.5312 20.5117C 49.5156 19.3555 49.0078 17.7773 49.0078 15.7773L 49.0078 15.4141C 49.0078 14.1797 49.2344 13.082 49.6875 12.1211C 50.1406 11.1602 50.7891 10.4141 51.6328 9.88281C 52.4844 9.35156 53.4883 9.08594 54.6445 9.08594C 56.0664 9.08594 57.2461 9.51172 58.1836 10.3633C 59.1289 11.2148 59.6328 12.3203 59.6953 13.6797L 57.6445 13.6797C 57.582 12.8594 57.2695 12.1875 56.707 11.6641C 56.1523 11.1328 55.4648 10.8672 54.6445 10.8672C 53.543 10.8672 52.6875 11.2656 52.0781 12.0625C 51.4766 12.8516 51.1758 13.9961 51.1758 15.4961L 51.1758 15.9062C 51.1758 17.3672 51.4766 18.4922 52.0781 19.2812C 52.6797 20.0703 53.5391 20.4648 54.6562 20.4648ZM 64.3008 10.8555C 65.2617 9.67578 66.5117 9.08594 68.0508 9.08594C 70.7305 9.08594 72.082 10.5977 72.1055 13.6211L 72.1055 22L 69.9375 22L 69.9375 13.6094C 69.9297 12.6953 69.7188 12.0195 69.3047 11.582C 68.8984 11.1445 68.2617 10.9258 67.3945 10.9258C 66.6914 10.9258 66.0742 11.1133 65.543 11.4883C 65.0117 11.8633 64.5977 12.3555 64.3008 12.9648L 64.3008 22L 62.1328 22L 62.1328 4L 64.3008 4L 64.3008 10.8555ZM 84.2461 6.25L 84.2461 9.32031L 86.6133 9.32031L 86.6133 10.9961L 84.2461 10.9961L 84.2461 18.8594C 84.2461 19.3672 84.3516 19.75 84.5625 20.0078C 84.7734 20.2578 85.1328 20.3828 85.6406 20.3828C 85.8906 20.3828 86.2344 20.3359 86.6719 20.2422L 86.6719 22C 86.1016 22.1562 85.5469 22.2344 85.0078 22.2344C 84.0391 22.2344 83.3086 21.9414 82.8164 21.3555C 82.3242 20.7695 82.0781 19.9375 82.0781 18.8594L 82.0781 10.9961L 79.7695 10.9961L 79.7695 9.32031L 82.0781 9.32031L 82.0781 6.25L 84.2461 6.25ZM 91.3242 10.8555C 92.2852 9.67578 93.5352 9.08594 95.0742 9.08594C 97.7539 9.08594 99.1055 10.5977 99.1289 13.6211L 99.1289 22L 96.9609 22L 96.9609 13.6094C 96.9531 12.6953 96.7422 12.0195 96.3281 11.582C 95.9219 11.1445 95.2852 10.9258 94.418 10.9258C 93.7148 10.9258 93.0977 11.1133 92.5664 11.4883C 92.0352 11.8633 91.6211 12.3555 91.3242 12.9648L 91.3242 22L 89.1562 22L 89.1562 4L 91.3242 4L 91.3242 10.8555ZM 107.637 22.2344C 105.918 22.2344 104.52 21.6719 103.441 20.5469C 102.363 19.4141 101.824 17.9023 101.824 16.0117L 101.824 15.6133C 101.824 14.3555 102.062 13.2344 102.539 12.25C 103.023 11.2578 103.695 10.4844 104.555 9.92969C 105.422 9.36719 106.359 9.08594 107.367 9.08594C 109.016 9.08594 110.297 9.62891 111.211 10.7148C 112.125 11.8008 112.582 13.3555 112.582 15.3789L 112.582 16.2812L 103.992 16.2812C 104.023 17.5312 104.387 18.543 105.082 19.3164C 105.785 20.082 106.676 20.4648 107.754 20.4648C 108.52 20.4648 109.168 20.3086 109.699 19.9961C 110.23 19.6836 110.695 19.2695 111.094 18.7539L 112.418 19.7852C 111.355 21.418 109.762 22.2344 107.637 22.2344ZM 107.367 10.8672C 106.492 10.8672 105.758 11.1875 105.164 11.8281C 104.57 12.4609 104.203 13.3516 104.062 14.5L 110.414 14.5L 110.414 14.3359C 110.352 13.2344 110.055 12.3828 109.523 11.7812C 108.992 11.1719 108.273 10.8672 107.367 10.8672ZM 123.41 22L 121.242 22L 121.242 4L 123.41 4L 123.41 22ZM 129.246 22L 127.078 22L 127.078 9.32031L 129.246 9.32031L 129.246 22ZM 126.902 5.95703C 126.902 5.60547 127.008 5.30859 127.219 5.06641C 127.438 4.82422 127.758 4.70312 128.18 4.70312C 128.602 4.70312 128.922 4.82422 129.141 5.06641C 129.359 5.30859 129.469 5.60547 129.469 5.95703C 129.469 6.30859 129.359 6.60156 129.141 6.83594C 128.922 7.07031 128.602 7.1875 128.18 7.1875C 127.758 7.1875 127.438 7.07031 127.219 6.83594C 127.008 6.60156 126.902 6.30859 126.902 5.95703ZM 140.109 18.6367C 140.109 18.0508 139.887 17.5977 139.441 17.2773C 139.004 16.9492 138.234 16.668 137.133 16.4336C 136.039 16.1992 135.168 15.918 134.52 15.5898C 133.879 15.2617 133.402 14.8711 133.09 14.418C 132.785 13.9648 132.633 13.4258 132.633 12.8008C 132.633 11.7617 133.07 10.8828 133.945 10.1641C 134.828 9.44531 135.953 9.08594 137.32 9.08594C 138.758 9.08594 139.922 9.45703 140.812 10.1992C 141.711 10.9414 142.16 11.8906 142.16 13.0469L 139.98 13.0469C 139.98 12.4531 139.727 11.9414 139.219 11.5117C 138.719 11.082 138.086 10.8672 137.32 10.8672C 136.531 10.8672 135.914 11.0391 135.469 11.3828C 135.023 11.7266 134.801 12.1758 134.801 12.7305C 134.801 13.2539 135.008 13.6484 135.422 13.9141C 135.836 14.1797 136.582 14.4336 137.66 14.6758C 138.746 14.918 139.625 15.207 140.297 15.543C 140.969 15.8789 141.465 16.2852 141.785 16.7617C 142.113 17.2305 142.277 17.8047 142.277 18.4844C 142.277 19.6172 141.824 20.5273 140.918 21.2148C 140.012 21.8945 138.836 22.2344 137.391 22.2344C 136.375 22.2344 135.477 22.0547 134.695 21.6953C 133.914 21.3359 133.301 20.8359 132.855 20.1953C 132.418 19.5469 132.199 18.8477 132.199 18.0977L 134.367 18.0977C 134.406 18.8242 134.695 19.4023 135.234 19.832C 135.781 20.2539 136.5 20.4648 137.391 20.4648C 138.211 20.4648 138.867 20.3008 139.359 19.9727C 139.859 19.6367 140.109 19.1914 140.109 18.6367ZM 148.043 6.25L 148.043 9.32031L 150.41 9.32031L 150.41 10.9961L 148.043 10.9961L 148.043 18.8594C 148.043 19.3672 148.148 19.75 148.359 20.0078C 148.57 20.2578 148.93 20.3828 149.438 20.3828C 149.688 20.3828 150.031 20.3359 150.469 20.2422L 150.469 22C 149.898 22.1562 149.344 22.2344 148.805 22.2344C 147.836 22.2344 147.105 21.9414 146.613 21.3555C 146.121 20.7695 145.875 19.9375 145.875 18.8594L 145.875 10.9961L 143.566 10.9961L 143.566 9.32031L 145.875 9.32031L 145.875 6.25L 148.043 6.25Z"/>
</defs>
</svg>
