<svg width="1465" height="507" viewBox="0 0 1465 507" version="1.1" xmlns="http://www.w3.org/2000/svg" xmlns:xlink="http://www.w3.org/1999/xlink" xmlns:figma="http://www.figma.com/figma/ns">
<title>translators_1</title>
<desc>Created using Figma</desc>
<g id="Canvas" transform="translate(846 557)" figma:type="canvas">
<g id="Rectangle" style="mix-blend-mode:normal;" figma:type="rounded-rectangle">
<use xlink:href="#path0_fill" transform="translate(-845 -500)" fill="#6FCF97" style="mix-blend-mode:normal;"/>
</g>
<g id="Rectangle" style="mix-blend-mode:normal;" figma:type="rounded-rectangle">
<use xlink:href="#path0_fill" transform="translate(-844 -350)" fill="#2D9CDB" style="mix-blend-mode:normal;"/>
</g>
<g id="Rectangle" style="mix-blend-mode:normal;" figma:type="rounded-rectangle">
<use xlink:href="#path0_fill" transform="translate(-844 -201)" fill="#EB5757" style="mix-blend-mode:normal;"/>
</g>
<g id="Line" style="mix-blend-mode:normal;" figma:type="line">
<use xlink:href="#path1_stroke" transform="matrix(0.999987 -0.00512814 0.00512814 0.999987 -845 -450)" fill="#F2F2F2" style="mix-blend-mode:normal;"/>
</g>
<g id="Line" style="mix-blend-mode:normal;" figma:type="line">
<use xlink:href="#path1_stroke" transform="matrix(0.999987 -0.00512814 0.00512814 0.999987 -845 -400)" fill="#F2F2F2" style="mix-blend-mode:normal;"/>
</g>
<g id="Line" style="mix-blend-mode:normal;" figma:type="line">
<use xlink:href="#path1_stroke" transform="matrix(0.999987 -0.00512814 0.00512814 0.999987 -845 -350)" fill="#F2F2F2" style="mix-blend-mode:normal;"/>
</g>
<g id="Line" style="mix-blend-mode:normal;" figma:type="line">
<use xlink:href="#path1_stroke" transform="matrix(0.999987 -0.00512814 0.00512814 0.999987 -845 -300)" fill="#F2F2F2" style="mix-blend-mode:normal;"/>
</g>
<g id="Line" style="mix-blend-mode:normal;" figma:type="line">
<use xlink:href="#path1_stroke" transform="matrix(0.999987 -0.00512814 0.00512814 0.999987 -845 -250)" fill="#F2F2F2" style="mix-blend-mode:normal;"/>
</g>
<g id="Line" style="mix-blend-mode:normal;" figma:type="line">
<use xlink:href="#path1_stroke" transform="matrix(0.999987 -0.00512814 0.00512814 0.999987 -845 -200)" fill="#F2F2F2" style="mix-blend-mode:normal;"/>
</g>
<g id="Line" style="mix-blend-mode:normal;" figma:type="line">
<use xlink:href="#path1_stroke" transform="matrix(0.999987 -0.00512814 0.00512814 0.999987 -845 -150)" fill="#F2F2F2" style="mix-blend-mode:normal;"/>
</g>
<g id="Line" style="mix-blend-mode:normal;" figma:type="line">
<use xlink:href="#path1_stroke" transform="matrix(0.999987 -0.00512814 0.00512814 0.999987 -845 -100)" fill="#F2F2F2" style="mix-blend-mode:normal;"/>
</g>
<g id="Line" style="mix-blend-mode:normal;" figma:type="line">
<use xlink:href="#path1_stroke" transform="matrix(0.999987 -0.00512814 0.00512814 0.999987 -845 -50)" fill="#F2F2F2" style="mix-blend-mode:normal;"/>
</g>
<g id="1" style="mix-blend-mode:normal;" figma:type="text">
<use xlink:href="#path2_fill" transform="translate(-752 -490)" fill="#F2F2F2" style="mix-blend-mode:normal;"/>
</g>
<g id="2" style="mix-blend-mode:normal;" figma:type="text">
<use xlink:href="#path3_fill" transform="translate(-752 -440.013)" fill="#F2F2F2" style="mix-blend-mode:normal;"/>
</g>
<g id="3" style="mix-blend-mode:normal;" figma:type="text">
<use xlink:href="#path4_fill" transform="translate(-751 -390.013)" fill="#F2F2F2" style="mix-blend-mode:normal;"/>
</g>
<g id="4" style="mix-blend-mode:normal;" figma:type="text">
<use xlink:href="#path5_fill" transform="translate(-751 -340.013)" fill="#F2F2F2" style="mix-blend-mode:normal;"/>
</g>
<g id="5" style="mix-blend-mode:normal;" figma:type="text">
<use xlink:href="#path6_fill" transform="translate(-751 -290.013)" fill="#F2F2F2" style="mix-blend-mode:normal;"/>
</g>
<g id="6" style="mix-blend-mode:normal;" figma:type="text">
<use xlink:href="#path7_fill" transform="translate(-752 -240.013)" fill="#F2F2F2" style="mix-blend-mode:normal;"/>
</g>
<g id="7" style="mix-blend-mode:normal;" figma:type="text">
<use xlink:href="#path8_fill" transform="translate(-751 -190.026)" fill="#F2F2F2" style="mix-blend-mode:normal;"/>
</g>
<g id="8" style="mix-blend-mode:normal;" figma:type="text">
<use xlink:href="#path9_fill" transform="translate(-752 -140.013)" fill="#F2F2F2" style="mix-blend-mode:normal;"/>
</g>
<g id="9" style="mix-blend-mode:normal;" figma:type="text">
<use xlink:href="#path10_fill" transform="translate(-751 -90.0128)" fill="#F2F2F2" style="mix-blend-mode:normal;"/>
</g>
<g id="Document &#226;&#128;&#156;Stack&#226;&#128;&#157;" style="mix-blend-mode:normal;" figma:type="text">
<use xlink:href="#path11_fill" transform="translate(-839 -560)" style="mix-blend-mode:normal;"/>
</g>
<g id="Translators" style="mix-blend-mode:normal;" figma:type="text">
<use xlink:href="#path12_fill" transform="translate(-438.5 -560.5)" style="mix-blend-mode:normal;"/>
</g>
<g id="Arrow" style="mix-blend-mode:normal;" figma:type="vector">
<use xlink:href="#path13_stroke" transform="matrix(0.999987 -0.00512813 0.00512813 0.999987 -601 -426)" style="mix-blend-mode:normal;"/>
</g>
<g id="Arrow" style="mix-blend-mode:normal;" figma:type="vector">
<use xlink:href="#path13_stroke" transform="matrix(0.999987 -0.00512813 0.00512813 0.999987 -608 -276)" style="mix-blend-mode:normal;"/>
</g>
<g id="Arrow" style="mix-blend-mode:normal;" figma:type="vector">
<use xlink:href="#path13_stroke" transform="matrix(0.999987 -0.00512813 0.00512813 0.999987 -607.999 -125.487)" style="mix-blend-mode:normal;"/>
</g>
<g id="Rectangle 2" style="mix-blend-mode:normal;" figma:type="rounded-rectangle">
<use xlink:href="#path14_fill" transform="translate(-430 -469.013)" fill="#6FCF97" style="mix-blend-mode:normal;"/>
</g>
<g id="1" style="mix-blend-mode:normal;" figma:type="text">
<use xlink:href="#path2_fill" transform="translate(-385 -440.013)" fill="#F2F2F2" style="mix-blend-mode:normal;"/>
</g>
<g id="Rectangle 2" style="mix-blend-mode:normal;" figma:type="rounded-rectangle">
<use xlink:href="#path14_fill" transform="translate(-430 -318.5)" fill="#2D9CDB" style="mix-blend-mode:normal;"/>
</g>
<g id="2" style="mix-blend-mode:normal;" figma:type="text">
<use xlink:href="#path3_fill" transform="translate(-385 -289.5)" fill="#F2F2F2" style="mix-blend-mode:normal;"/>
</g>
<g id="Rectangle 2" style="mix-blend-mode:normal;" figma:type="rounded-rectangle">
<use xlink:href="#path14_fill" transform="translate(-430 -169.013)" fill="#EB5757" style="mix-blend-mode:normal;"/>
</g>
<g id="3" style="mix-blend-mode:normal;" figma:type="text">
<use xlink:href="#path4_fill" transform="translate(-385 -140.013)" fill="#F2F2F2" style="mix-blend-mode:normal;"/>
</g>
<g id="Translation Progress" style="mix-blend-mode:normal;" figma:type="text">
<use xlink:href="#path15_fill" transform="translate(-97 -560.5)" style="mix-blend-mode:normal;"/>
</g>
<g id="Arrow 2" style="mix-blend-mode:normal;" figma:type="vector">
<use xlink:href="#path16_stroke" transform="translate(-271 -427)" style="mix-blend-mode:normal;"/>
</g>
<g id="Arrow 2" style="mix-blend-mode:normal;" figma:type="vector">
<use xlink:href="#path17_stroke" transform="translate(31 -427)" style="mix-blend-mode:normal;"/>
</g>
<g id="Arrow 2" style="mix-blend-mode:normal;" figma:type="vector">
<use xlink:href="#path18_stroke" transform="translate(286 -426)" style="mix-blend-mode:normal;"/>
</g>
<g id="Doc 1" style="mix-blend-mode:normal;" figma:type="text">
<use xlink:href="#path19_fill" transform="translate(-51 -441.5)" style="mix-blend-mode:normal;"/>
</g>
<g id="Doc 2" style="mix-blend-mode:normal;" figma:type="text">
<use xlink:href="#path20_fill" transform="translate(201 -441.5)" style="mix-blend-mode:normal;"/>
</g>
<g id="Doc 3" style="mix-blend-mode:normal;" figma:type="text">
<use xlink:href="#path21_fill" transform="translate(559 -442)" style="mix-blend-mode:normal;"/>
</g>
<g id="20 mins" style="mix-blend-mode:normal;" figma:type="text">
<use xlink:href="#path22_fill" transform="translate(-220 -456)" style="mix-blend-mode:normal;"/>
</g>
<g id="15 mins" style="mix-blend-mode:normal;" figma:type="text">
<use xlink:href="#path23_fill" transform="translate(63 -456)" style="mix-blend-mode:normal;"/>
</g>
<g id="25 mins" style="mix-blend-mode:normal;" figma:type="text">
<use xlink:href="#path24_fill" transform="translate(356 -456)" style="mix-blend-mode:normal;"/>
</g>
<g id="Arrow 2" style="mix-blend-mode:normal;" figma:type="vector">
<use xlink:href="#path13_stroke" transform="translate(-271 -279)" style="mix-blend-mode:normal;"/>
</g>
<g id="Arrow 2" style="mix-blend-mode:normal;" figma:type="vector">
<use xlink:href="#path13_stroke" transform="translate(-64.5 -279)" style="mix-blend-mode:normal;"/>
</g>
<g id="Arrow 2" style="mix-blend-mode:normal;" figma:type="vector">
<use xlink:href="#path13_stroke" transform="translate(135.5 -278)" style="mix-blend-mode:normal;"/>
</g>
<g id="Doc 4" style="mix-blend-mode:normal;" figma:type="text">
<use xlink:href="#path25_fill" transform="translate(-157 -293.5)" style="mix-blend-mode:normal;"/>
</g>
<g id="Doc 5" style="mix-blend-mode:normal;" figma:type="text">
<use xlink:href="#path26_fill" transform="translate(55 -295)" style="mix-blend-mode:normal;"/>
</g>
<g id="Doc 6" style="mix-blend-mode:normal;" figma:type="text">
<use xlink:href="#path27_fill" transform="translate(255 -295)" style="mix-blend-mode:normal;"/>
</g>
<g id="10 mins" style="mix-blend-mode:normal;" figma:type="text">
<use xlink:href="#path28_fill" transform="translate(-264.5 -309)" style="mix-blend-mode:normal;"/>
</g>
<g id="10 mins" style="mix-blend-mode:normal;" figma:type="text">
<use xlink:href="#path28_fill" transform="translate(-63 -309.5)" style="mix-blend-mode:normal;"/>
</g>
<g id="10 mins" style="mix-blend-mode:normal;" figma:type="text">
<use xlink:href="#path28_fill" transform="translate(138 -309)" style="mix-blend-mode:normal;"/>
</g>
<g id="Arrow 2" style="mix-blend-mode:normal;" figma:type="vector">
<use xlink:href="#path13_stroke" transform="translate(-271 -125.513)" style="mix-blend-mode:normal;"/>
</g>
<g id="Arrow 2" style="mix-blend-mode:normal;" figma:type="vector">
<use xlink:href="#path16_stroke" transform="translate(-64.5 -125.513)" style="mix-blend-mode:normal;"/>
</g>
<g id="Arrow 2" style="mix-blend-mode:normal;" figma:type="vector">
<use xlink:href="#path16_stroke" transform="translate(237.5 -124.513)" style="mix-blend-mode:normal;"/>
</g>
<g id="Doc 7" style="mix-blend-mode:normal;" figma:type="text">
<use xlink:href="#path29_fill" transform="translate(-157 -140.013)" style="mix-blend-mode:normal;"/>
</g>
<g id="Doc 8" style="mix-blend-mode:normal;" figma:type="text">
<use xlink:href="#path30_fill" transform="translate(157 -141.513)" style="mix-blend-mode:normal;"/>
</g>
<g id="Doc 9" style="mix-blend-mode:normal;" figma:type="text">
<use xlink:href="#path31_fill" transform="translate(458.5 -139.513)" style="mix-blend-mode:normal;"/>
</g>
<g id="10 mins" style="mix-blend-mode:normal;" figma:type="text">
<use xlink:href="#path28_fill" transform="translate(-264.5 -155.513)" style="mix-blend-mode:normal;"/>
</g>
<g id="20 mins" style="mix-blend-mode:normal;" figma:type="text">
<use xlink:href="#path22_fill" transform="translate(0 -156.013)" style="mix-blend-mode:normal;"/>
</g>
<g id="20 mins" style="mix-blend-mode:normal;" figma:type="text">
<use xlink:href="#path22_fill" transform="translate(300 -156.013)" style="mix-blend-mode:normal;"/>
</g>
</g>
<defs>
<path id="path0_fill" d="M 0 0L 200 0L 200 150L 0 150L 0 0Z"/>
<path id="path1_stroke" d="M 0 -5.55112e-17L 200.003 -5.55112e-17L 200.003 -1L 0 -1L 0 -5.55112e-17Z"/>
<path id="path2_fill" d="M 8.54297 22L 6.36328 22L 6.36328 7.55078L 1.99219 9.15625L 1.99219 7.1875L 8.20312 4.85547L 8.54297 4.85547L 8.54297 22Z"/>
<path id="path3_fill" d="M 12.5977 22L 1.41797 22L 1.41797 20.4414L 7.32422 13.8789C 8.19922 12.8867 8.80078 12.082 9.12891 11.4648C 9.46484 10.8398 9.63281 10.1953 9.63281 9.53125C 9.63281 8.64062 9.36328 7.91016 8.82422 7.33984C 8.28516 6.76953 7.56641 6.48438 6.66797 6.48438C 5.58984 6.48438 4.75 6.79297 4.14844 7.41016C 3.55469 8.01953 3.25781 8.87109 3.25781 9.96484L 1.08984 9.96484C 1.08984 8.39453 1.59375 7.125 2.60156 6.15625C 3.61719 5.1875 4.97266 4.70312 6.66797 4.70312C 8.25391 4.70312 9.50781 5.12109 10.4297 5.95703C 11.3516 6.78516 11.8125 7.89062 11.8125 9.27344C 11.8125 10.9531 10.7422 12.9531 8.60156 15.2734L 4.03125 20.2305L 12.5977 20.2305L 12.5977 22Z"/>
<path id="path4_fill" d="M 4.57031 12.4141L 6.19922 12.4141C 7.22266 12.3984 8.02734 12.1289 8.61328 11.6055C 9.19922 11.082 9.49219 10.375 9.49219 9.48438C 9.49219 7.48437 8.49609 6.48438 6.50391 6.48438C 5.56641 6.48438 4.81641 6.75391 4.25391 7.29297C 3.69922 7.82422 3.42188 8.53125 3.42188 9.41406L 1.25391 9.41406C 1.25391 8.0625 1.74609 6.94141 2.73047 6.05078C 3.72266 5.15234 4.98047 4.70312 6.50391 4.70312C 8.11328 4.70312 9.375 5.12891 10.2891 5.98047C 11.2031 6.83203 11.6602 8.01562 11.6602 9.53125C 11.6602 10.2734 11.418 10.9922 10.9336 11.6875C 10.457 12.3828 9.80469 12.9023 8.97656 13.2461C 9.91406 13.543 10.6367 14.0352 11.1445 14.7227C 11.6602 15.4102 11.918 16.25 11.918 17.2422C 11.918 18.7734 11.418 19.9883 10.418 20.8867C 9.41797 21.7852 8.11719 22.2344 6.51562 22.2344C 4.91406 22.2344 3.60938 21.8008 2.60156 20.9336C 1.60156 20.0664 1.10156 18.9219 1.10156 17.5L 3.28125 17.5C 3.28125 18.3984 3.57422 19.1172 4.16016 19.6562C 4.74609 20.1953 5.53125 20.4648 6.51562 20.4648C 7.5625 20.4648 8.36328 20.1914 8.91797 19.6445C 9.47266 19.0977 9.75 18.3125 9.75 17.2891C 9.75 16.2969 9.44531 15.5352 8.83594 15.0039C 8.22656 14.4727 7.34766 14.1992 6.19922 14.1836L 4.57031 14.1836L 4.57031 12.4141Z"/>
<path id="path5_fill" d="M 10.5703 16.2695L 12.9375 16.2695L 12.9375 18.0391L 10.5703 18.0391L 10.5703 22L 8.39062 22L 8.39062 18.0391L 0.621094 18.0391L 0.621094 16.7617L 8.26172 4.9375L 10.5703 4.9375L 10.5703 16.2695ZM 3.08203 16.2695L 8.39062 16.2695L 8.39062 7.90234L 8.13281 8.37109L 3.08203 16.2695Z"/>
<path id="path6_fill" d="M 2.41406 13.4453L 3.28125 4.9375L 12.0234 4.9375L 12.0234 6.94141L 5.12109 6.94141L 4.60547 11.5938C 5.44141 11.1016 6.39062 10.8555 7.45312 10.8555C 9.00781 10.8555 10.2422 11.3711 11.1562 12.4023C 12.0703 13.4258 12.5273 14.8125 12.5273 16.5625C 12.5273 18.3203 12.0508 19.707 11.0977 20.7227C 10.1523 21.7305 8.82812 22.2344 7.125 22.2344C 5.61719 22.2344 4.38672 21.8164 3.43359 20.9805C 2.48047 20.1445 1.9375 18.9883 1.80469 17.5117L 3.85547 17.5117C 3.98828 18.4883 4.33594 19.2266 4.89844 19.7266C 5.46094 20.2188 6.20312 20.4648 7.125 20.4648C 8.13281 20.4648 8.92188 20.1211 9.49219 19.4336C 10.0703 18.7461 10.3594 17.7969 10.3594 16.5859C 10.3594 15.4453 10.0469 14.5312 9.42188 13.8438C 8.80469 13.1484 7.98047 12.8008 6.94922 12.8008C 6.00391 12.8008 5.26172 13.0078 4.72266 13.4219L 4.14844 13.8906L 2.41406 13.4453Z"/>
<path id="path7_fill" d="M 9.92578 4.92578L 9.92578 6.76562L 9.52734 6.76562C 7.83984 6.79688 6.49609 7.29687 5.49609 8.26562C 4.49609 9.23438 3.91797 10.5977 3.76172 12.3555C 4.66016 11.3242 5.88672 10.8086 7.44141 10.8086C 8.92578 10.8086 10.1094 11.332 10.9922 12.3789C 11.8828 13.4258 12.3281 14.7773 12.3281 16.4336C 12.3281 18.1914 11.8477 19.5977 10.8867 20.6523C 9.93359 21.707 8.65234 22.2344 7.04297 22.2344C 5.41016 22.2344 4.08594 21.6094 3.07031 20.3594C 2.05469 19.1016 1.54688 17.4844 1.54688 15.5078L 1.54688 14.6758C 1.54688 11.5352 2.21484 9.13672 3.55078 7.48047C 4.89453 5.81641 6.89062 4.96484 9.53906 4.92578L 9.92578 4.92578ZM 7.07812 12.6133C 6.33594 12.6133 5.65234 12.8359 5.02734 13.2812C 4.40234 13.7266 3.96875 14.2852 3.72656 14.957L 3.72656 15.7539C 3.72656 17.1602 4.04297 18.293 4.67578 19.1523C 5.30859 20.0117 6.09766 20.4414 7.04297 20.4414C 8.01953 20.4414 8.78516 20.082 9.33984 19.3633C 9.90234 18.6445 10.1836 17.7031 10.1836 16.5391C 10.1836 15.3672 9.89844 14.4219 9.32812 13.7031C 8.76562 12.9766 8.01562 12.6133 7.07812 12.6133Z"/>
<path id="path8_fill" d="M 12.4336 6.15625L 5.36719 22L 3.09375 22L 10.1367 6.71875L 0.902344 6.71875L 0.902344 4.9375L 12.4336 4.9375L 12.4336 6.15625Z"/>
<path id="path9_fill" d="M 11.7656 9.39062C 11.7656 10.2422 11.5391 11 11.0859 11.6641C 10.6406 12.3281 10.0352 12.8477 9.26953 13.2227C 10.1602 13.6055 10.8633 14.1641 11.3789 14.8984C 11.9023 15.6328 12.1641 16.4648 12.1641 17.3945C 12.1641 18.8711 11.6641 20.0469 10.6641 20.9219C 9.67188 21.7969 8.36328 22.2344 6.73828 22.2344C 5.09766 22.2344 3.78125 21.7969 2.78906 20.9219C 1.80469 20.0391 1.3125 18.8633 1.3125 17.3945C 1.3125 16.4727 1.5625 15.6406 2.0625 14.8984C 2.57031 14.1562 3.26953 13.5938 4.16016 13.2109C 3.40234 12.8359 2.80469 12.3164 2.36719 11.6523C 1.92969 10.9883 1.71094 10.2344 1.71094 9.39062C 1.71094 7.95312 2.17188 6.8125 3.09375 5.96875C 4.01562 5.125 5.23047 4.70312 6.73828 4.70312C 8.23828 4.70312 9.44922 5.125 10.3711 5.96875C 11.3008 6.8125 11.7656 7.95312 11.7656 9.39062ZM 9.99609 17.3477C 9.99609 16.3945 9.69141 15.6172 9.08203 15.0156C 8.48047 14.4141 7.69141 14.1133 6.71484 14.1133C 5.73828 14.1133 4.95312 14.4102 4.35938 15.0039C 3.77344 15.5977 3.48047 16.3789 3.48047 17.3477C 3.48047 18.3164 3.76562 19.0781 4.33594 19.6328C 4.91406 20.1875 5.71484 20.4648 6.73828 20.4648C 7.75391 20.4648 8.55078 20.1875 9.12891 19.6328C 9.70703 19.0703 9.99609 18.3086 9.99609 17.3477ZM 6.73828 6.48438C 5.88672 6.48438 5.19531 6.75 4.66406 7.28125C 4.14062 7.80469 3.87891 8.51953 3.87891 9.42578C 3.87891 10.293 4.13672 10.9961 4.65234 11.5352C 5.17578 12.0664 5.87109 12.332 6.73828 12.332C 7.60547 12.332 8.29688 12.0664 8.8125 11.5352C 9.33594 10.9961 9.59766 10.293 9.59766 9.42578C 9.59766 8.55859 9.32812 7.85156 8.78906 7.30469C 8.25 6.75781 7.56641 6.48438 6.73828 6.48438Z"/>
<path id="path10_fill" d="M 9.72656 14.5C 9.27344 15.0391 8.73047 15.4727 8.09766 15.8008C 7.47266 16.1289 6.78516 16.293 6.03516 16.293C 5.05078 16.293 4.19141 16.0508 3.45703 15.5664C 2.73047 15.082 2.16797 14.4023 1.76953 13.5273C 1.37109 12.6445 1.17188 11.6719 1.17188 10.6094C 1.17188 9.46875 1.38672 8.44141 1.81641 7.52734C 2.25391 6.61328 2.87109 5.91406 3.66797 5.42969C 4.46484 4.94531 5.39453 4.70312 6.45703 4.70312C 8.14453 4.70312 9.47266 5.33594 10.4414 6.60156C 11.418 7.85937 11.9062 9.57812 11.9062 11.7578L 11.9062 12.3906C 11.9062 15.7109 11.25 18.1367 9.9375 19.668C 8.625 21.1914 6.64453 21.9727 3.99609 22.0117L 3.57422 22.0117L 3.57422 20.1836L 4.03125 20.1836C 5.82031 20.1523 7.19531 19.6875 8.15625 18.7891C 9.11719 17.8828 9.64062 16.4531 9.72656 14.5ZM 6.38672 14.5C 7.11328 14.5 7.78125 14.2773 8.39062 13.832C 9.00781 13.3867 9.45703 12.8359 9.73828 12.1797L 9.73828 11.3125C 9.73828 9.89062 9.42969 8.73438 8.8125 7.84375C 8.19531 6.95312 7.41406 6.50781 6.46875 6.50781C 5.51562 6.50781 4.75 6.875 4.17188 7.60938C 3.59375 8.33594 3.30469 9.29688 3.30469 10.4922C 3.30469 11.6562 3.58203 12.6172 4.13672 13.375C 4.69922 14.125 5.44922 14.5 6.38672 14.5Z"/>
<path id="path11_fill" d="M 1.98047 22L 1.98047 4.9375L 6.79688 4.9375C 8.28125 4.9375 9.59375 5.26562 10.7344 5.92188C 11.875 6.57812 12.7539 7.51172 13.3711 8.72266C 13.9961 9.93359 14.3125 11.3242 14.3203 12.8945L 14.3203 13.9844C 14.3203 15.5938 14.0078 17.0039 13.3828 18.2148C 12.7656 19.4258 11.8789 20.3555 10.7227 21.0039C 9.57422 21.6523 8.23438 21.9844 6.70312 22L 1.98047 22ZM 4.23047 6.78906L 4.23047 20.1602L 6.59766 20.1602C 8.33203 20.1602 9.67969 19.6211 10.6406 18.543C 11.6094 17.4648 12.0938 15.9297 12.0938 13.9375L 12.0938 12.9414C 12.0938 11.0039 11.6367 9.5 10.7227 8.42969C 9.81641 7.35156 8.52734 6.80469 6.85547 6.78906L 4.23047 6.78906ZM 16.8164 15.543C 16.8164 14.3008 17.0586 13.1836 17.543 12.1914C 18.0352 11.1992 18.7148 10.4336 19.582 9.89453C 20.457 9.35547 21.4531 9.08594 22.5703 9.08594C 24.2969 9.08594 25.6914 9.68359 26.7539 10.8789C 27.8242 12.0742 28.3594 13.6641 28.3594 15.6484L 28.3594 15.8008C 28.3594 17.0352 28.1211 18.1445 27.6445 19.1289C 27.1758 20.1055 26.5 20.8672 25.6172 21.4141C 24.7422 21.9609 23.7344 22.2344 22.5938 22.2344C 20.875 22.2344 19.4805 21.6367 18.4102 20.4414C 17.3477 19.2461 16.8164 17.6641 16.8164 15.6953L 16.8164 15.543ZM 18.9961 15.8008C 18.9961 17.207 19.3203 18.3359 19.9688 19.1875C 20.625 20.0391 21.5 20.4648 22.5938 20.4648C 23.6953 20.4648 24.5703 20.0352 25.2188 19.1758C 25.8672 18.3086 26.1914 17.0977 26.1914 15.543C 26.1914 14.1523 25.8594 13.0273 25.1953 12.168C 24.5391 11.3008 23.6641 10.8672 22.5703 10.8672C 21.5 10.8672 20.6367 11.293 19.9805 12.1445C 19.3242 12.9961 18.9961 14.2148 18.9961 15.8008ZM 36.1641 20.4648C 36.9375 20.4648 37.6133 20.2305 38.1914 19.7617C 38.7695 19.293 39.0898 18.707 39.1523 18.0039L 41.2031 18.0039C 41.1641 18.7305 40.9141 19.4219 40.4531 20.0781C 39.9922 20.7344 39.375 21.2578 38.6016 21.6484C 37.8359 22.0391 37.0234 22.2344 36.1641 22.2344C 34.4375 22.2344 33.0625 21.6602 32.0391 20.5117C 31.0234 19.3555 30.5156 17.7773 30.5156 15.7773L 30.5156 15.4141C 30.5156 14.1797 30.7422 13.082 31.1953 12.1211C 31.6484 11.1602 32.2969 10.4141 33.1406 9.88281C 33.9922 9.35156 34.9961 9.08594 36.1523 9.08594C 37.5742 9.08594 38.7539 9.51172 39.6914 10.3633C 40.6367 11.2148 41.1406 12.3203 41.2031 13.6797L 39.1523 13.6797C 39.0898 12.8594 38.7773 12.1875 38.2148 11.6641C 37.6602 11.1328 36.9727 10.8672 36.1523 10.8672C 35.0508 10.8672 34.1953 11.2656 33.5859 12.0625C 32.9844 12.8516 32.6836 13.9961 32.6836 15.4961L 32.6836 15.9062C 32.6836 17.3672 32.9844 18.4922 33.5859 19.2812C 34.1875 20.0703 35.0469 20.4648 36.1641 20.4648ZM 51.4688 20.7461C 50.625 21.7383 49.3867 22.2344 47.7539 22.2344C 46.4023 22.2344 45.3711 21.8438 44.6602 21.0625C 43.957 20.2734 43.6016 19.1094 43.5938 17.5703L 43.5938 9.32031L 45.7617 9.32031L 45.7617 17.5117C 45.7617 19.4336 46.543 20.3945 48.1055 20.3945C 49.7617 20.3945 50.8633 19.7773 51.4102 18.543L 51.4102 9.32031L 53.5781 9.32031L 53.5781 22L 51.5156 22L 51.4688 20.7461ZM 58.9219 9.32031L 58.9805 10.7266C 59.9102 9.63281 61.1641 9.08594 62.7422 9.08594C 64.5156 9.08594 65.7227 9.76562 66.3633 11.125C 66.7852 10.5156 67.332 10.0234 68.0039 9.64844C 68.6836 9.27344 69.4844 9.08594 70.4062 9.08594C 73.1875 9.08594 74.6016 10.5586 74.6484 13.5039L 74.6484 22L 72.4805 22L 72.4805 13.6328C 72.4805 12.7266 72.2734 12.0508 71.8594 11.6055C 71.4453 11.1523 70.75 10.9258 69.7734 10.9258C 68.9688 10.9258 68.3008 11.168 67.7695 11.6523C 67.2383 12.1289 66.9297 12.7734 66.8438 13.5859L 66.8438 22L 64.6641 22L 64.6641 13.6914C 64.6641 11.8477 63.7617 10.9258 61.957 10.9258C 60.5352 10.9258 59.5625 11.5312 59.0391 12.7422L 59.0391 22L 56.8711 22L 56.8711 9.32031L 58.9219 9.32031ZM 83.1914 22.2344C 81.4727 22.2344 80.0742 21.6719 78.9961 20.5469C 77.918 19.4141 77.3789 17.9023 77.3789 16.0117L 77.3789 15.6133C 77.3789 14.3555 77.6172 13.2344 78.0938 12.25C 78.5781 11.2578 79.25 10.4844 80.1094 9.92969C 80.9766 9.36719 81.9141 9.08594 82.9219 9.08594C 84.5703 9.08594 85.8516 9.62891 86.7656 10.7148C 87.6797 11.8008 88.1367 13.3555 88.1367 15.3789L 88.1367 16.2812L 79.5469 16.2812C 79.5781 17.5312 79.9414 18.543 80.6367 19.3164C 81.3398 20.082 82.2305 20.4648 83.3086 20.4648C 84.0742 20.4648 84.7227 20.3086 85.2539 19.9961C 85.7852 19.6836 86.25 19.2695 86.6484 18.7539L 87.9727 19.7852C 86.9102 21.418 85.3164 22.2344 83.1914 22.2344ZM 82.9219 10.8672C 82.0469 10.8672 81.3125 11.1875 80.7188 11.8281C 80.125 12.4609 79.7578 13.3516 79.6172 14.5L 85.9688 14.5L 85.9688 14.3359C 85.9062 13.2344 85.6094 12.3828 85.0781 11.7812C 84.5469 11.1719 83.8281 10.8672 82.9219 10.8672ZM 92.707 9.32031L 92.7773 10.9141C 93.7461 9.69531 95.0117 9.08594 96.5742 9.08594C 99.2539 9.08594 100.605 10.5977 100.629 13.6211L 100.629 22L 98.4609 22L 98.4609 13.6094C 98.4531 12.6953 98.2422 12.0195 97.8281 11.582C 97.4219 11.1445 96.7852 10.9258 95.918 10.9258C 95.2148 10.9258 94.5977 11.1133 94.0664 11.4883C 93.5352 11.8633 93.1211 12.3555 92.8242 12.9648L 92.8242 22L 90.6562 22L 90.6562 9.32031L 92.707 9.32031ZM 106.84 6.25L 106.84 9.32031L 109.207 9.32031L 109.207 10.9961L 106.84 10.9961L 106.84 18.8594C 106.84 19.3672 106.945 19.75 107.156 20.0078C 107.367 20.2578 107.727 20.3828 108.234 20.3828C 108.484 20.3828 108.828 20.3359 109.266 20.2422L 109.266 22C 108.695 22.1562 108.141 22.2344 107.602 22.2344C 106.633 22.2344 105.902 21.9414 105.41 21.3555C 104.918 20.7695 104.672 19.9375 104.672 18.8594L 104.672 10.9961L 102.363 10.9961L 102.363 9.32031L 104.672 9.32031L 104.672 6.25L 106.84 6.25ZM 119.32 3.77734L 120.562 4.62109C 119.836 5.61328 119.461 6.68359 119.438 7.83203L 119.438 9.42578L 117.281 9.42578L 117.281 8.06641C 117.281 7.26953 117.469 6.48047 117.844 5.69922C 118.227 4.91797 118.719 4.27734 119.32 3.77734ZM 123.012 3.77734L 124.254 4.62109C 123.527 5.61328 123.152 6.68359 123.129 7.83203L 123.129 9.42578L 120.973 9.42578L 120.973 8.06641C 120.973 7.26953 121.16 6.48047 121.535 5.69922C 121.918 4.91797 122.41 4.27734 123.012 3.77734ZM 131.555 14.3945C 129.625 13.8398 128.219 13.1602 127.336 12.3555C 126.461 11.543 126.023 10.543 126.023 9.35547C 126.023 8.01172 126.559 6.90234 127.629 6.02734C 128.707 5.14453 130.105 4.70312 131.824 4.70312C 132.996 4.70312 134.039 4.92969 134.953 5.38281C 135.875 5.83594 136.586 6.46094 137.086 7.25781C 137.594 8.05469 137.848 8.92578 137.848 9.87109L 135.586 9.87109C 135.586 8.83984 135.258 8.03125 134.602 7.44531C 133.945 6.85156 133.02 6.55469 131.824 6.55469C 130.715 6.55469 129.848 6.80078 129.223 7.29297C 128.605 7.77734 128.297 8.45312 128.297 9.32031C 128.297 10.0156 128.59 10.6055 129.176 11.0898C 129.77 11.5664 130.773 12.0039 132.188 12.4023C 133.609 12.8008 134.719 13.2422 135.516 13.7266C 136.32 14.2031 136.914 14.7617 137.297 15.4023C 137.688 16.043 137.883 16.7969 137.883 17.6641C 137.883 19.0469 137.344 20.1562 136.266 20.9922C 135.188 21.8203 133.746 22.2344 131.941 22.2344C 130.77 22.2344 129.676 22.0117 128.66 21.5664C 127.645 21.1133 126.859 20.4961 126.305 19.7148C 125.758 18.9336 125.484 18.0469 125.484 17.0547L 127.746 17.0547C 127.746 18.0859 128.125 18.9023 128.883 19.5039C 129.648 20.0977 130.668 20.3945 131.941 20.3945C 133.129 20.3945 134.039 20.1523 134.672 19.668C 135.305 19.1836 135.621 18.5234 135.621 17.6875C 135.621 16.8516 135.328 16.207 134.742 15.7539C 134.156 15.293 133.094 14.8398 131.555 14.3945ZM 143.379 6.25L 143.379 9.32031L 145.746 9.32031L 145.746 10.9961L 143.379 10.9961L 143.379 18.8594C 143.379 19.3672 143.484 19.75 143.695 20.0078C 143.906 20.2578 144.266 20.3828 144.773 20.3828C 145.023 20.3828 145.367 20.3359 145.805 20.2422L 145.805 22C 145.234 22.1562 144.68 22.2344 144.141 22.2344C 143.172 22.2344 142.441 21.9414 141.949 21.3555C 141.457 20.7695 141.211 19.9375 141.211 18.8594L 141.211 10.9961L 138.902 10.9961L 138.902 9.32031L 141.211 9.32031L 141.211 6.25L 143.379 6.25ZM 156.117 22C 155.992 21.75 155.891 21.3047 155.812 20.6641C 154.805 21.7109 153.602 22.2344 152.203 22.2344C 150.953 22.2344 149.926 21.8828 149.121 21.1797C 148.324 20.4688 147.926 19.5703 147.926 18.4844C 147.926 17.1641 148.426 16.1406 149.426 15.4141C 150.434 14.6797 151.848 14.3125 153.668 14.3125L 155.777 14.3125L 155.777 13.3164C 155.777 12.5586 155.551 11.957 155.098 11.5117C 154.645 11.0586 153.977 10.832 153.094 10.832C 152.32 10.832 151.672 11.0273 151.148 11.418C 150.625 11.8086 150.363 12.2812 150.363 12.8359L 148.184 12.8359C 148.184 12.2031 148.406 11.5938 148.852 11.0078C 149.305 10.4141 149.914 9.94531 150.68 9.60156C 151.453 9.25781 152.301 9.08594 153.223 9.08594C 154.684 9.08594 155.828 9.45312 156.656 10.1875C 157.484 10.9141 157.914 11.918 157.945 13.1992L 157.945 19.0352C 157.945 20.1992 158.094 21.125 158.391 21.8125L 158.391 22L 156.117 22ZM 152.52 20.3477C 153.199 20.3477 153.844 20.1719 154.453 19.8203C 155.062 19.4688 155.504 19.0117 155.777 18.4492L 155.777 15.8477L 154.078 15.8477C 151.422 15.8477 150.094 16.625 150.094 18.1797C 150.094 18.8594 150.32 19.3906 150.773 19.7734C 151.227 20.1562 151.809 20.3477 152.52 20.3477ZM 166.43 20.4648C 167.203 20.4648 167.879 20.2305 168.457 19.7617C 169.035 19.293 169.355 18.707 169.418 18.0039L 171.469 18.0039C 171.43 18.7305 171.18 19.4219 170.719 20.0781C 170.258 20.7344 169.641 21.2578 168.867 21.6484C 168.102 22.0391 167.289 22.2344 166.43 22.2344C 164.703 22.2344 163.328 21.6602 162.305 20.5117C 161.289 19.3555 160.781 17.7773 160.781 15.7773L 160.781 15.4141C 160.781 14.1797 161.008 13.082 161.461 12.1211C 161.914 11.1602 162.562 10.4141 163.406 9.88281C 164.258 9.35156 165.262 9.08594 166.418 9.08594C 167.84 9.08594 169.02 9.51172 169.957 10.3633C 170.902 11.2148 171.406 12.3203 171.469 13.6797L 169.418 13.6797C 169.355 12.8594 169.043 12.1875 168.48 11.6641C 167.926 11.1328 167.238 10.8672 166.418 10.8672C 165.316 10.8672 164.461 11.2656 163.852 12.0625C 163.25 12.8516 162.949 13.9961 162.949 15.4961L 162.949 15.9062C 162.949 17.3672 163.25 18.4922 163.852 19.2812C 164.453 20.0703 165.312 20.4648 166.43 20.4648ZM 177.445 16.1289L 176.086 17.5469L 176.086 22L 173.918 22L 173.918 4L 176.086 4L 176.086 14.8867L 177.246 13.4922L 181.195 9.32031L 183.832 9.32031L 178.898 14.6172L 184.406 22L 181.863 22L 177.445 16.1289ZM 186.363 9.74219L 185.133 8.89844C 185.859 7.88281 186.234 6.8125 186.258 5.6875L 186.258 4L 188.402 4L 188.402 5.52344C 188.395 6.30469 188.199 7.08594 187.816 7.86719C 187.441 8.64062 186.957 9.26562 186.363 9.74219ZM 189.961 9.74219L 188.73 8.89844C 189.457 7.88281 189.832 6.8125 189.855 5.6875L 189.855 4L 192 4L 192 5.52344C 191.992 6.30469 191.797 7.08594 191.414 7.86719C 191.039 8.64062 190.555 9.26562 189.961 9.74219Z"/>
<path id="path12_fill" d="M 13.7695 6.78906L 8.28516 6.78906L 8.28516 22L 6.04688 22L 6.04688 6.78906L 0.574219 6.78906L 0.574219 4.9375L 13.7695 4.9375L 13.7695 6.78906ZM 21.2227 11.2656C 20.8945 11.2109 20.5391 11.1836 20.1562 11.1836C 18.7344 11.1836 17.7695 11.7891 17.2617 13L 17.2617 22L 15.0938 22L 15.0938 9.32031L 17.2031 9.32031L 17.2383 10.7852C 17.9492 9.65234 18.957 9.08594 20.2617 9.08594C 20.6836 9.08594 21.0039 9.14062 21.2227 9.25L 21.2227 11.2656ZM 30.5859 22C 30.4609 21.75 30.3594 21.3047 30.2812 20.6641C 29.2734 21.7109 28.0703 22.2344 26.6719 22.2344C 25.4219 22.2344 24.3945 21.8828 23.5898 21.1797C 22.793 20.4688 22.3945 19.5703 22.3945 18.4844C 22.3945 17.1641 22.8945 16.1406 23.8945 15.4141C 24.9023 14.6797 26.3164 14.3125 28.1367 14.3125L 30.2461 14.3125L 30.2461 13.3164C 30.2461 12.5586 30.0195 11.957 29.5664 11.5117C 29.1133 11.0586 28.4453 10.832 27.5625 10.832C 26.7891 10.832 26.1406 11.0273 25.6172 11.418C 25.0938 11.8086 24.832 12.2812 24.832 12.8359L 22.6523 12.8359C 22.6523 12.2031 22.875 11.5938 23.3203 11.0078C 23.7734 10.4141 24.3828 9.94531 25.1484 9.60156C 25.9219 9.25781 26.7695 9.08594 27.6914 9.08594C 29.1523 9.08594 30.2969 9.45312 31.125 10.1875C 31.9531 10.9141 32.3828 11.918 32.4141 13.1992L 32.4141 19.0352C 32.4141 20.1992 32.5625 21.125 32.8594 21.8125L 32.8594 22L 30.5859 22ZM 26.9883 20.3477C 27.668 20.3477 28.3125 20.1719 28.9219 19.8203C 29.5312 19.4688 29.9727 19.0117 30.2461 18.4492L 30.2461 15.8477L 28.5469 15.8477C 25.8906 15.8477 24.5625 16.625 24.5625 18.1797C 24.5625 18.8594 24.7891 19.3906 25.2422 19.7734C 25.6953 20.1562 26.2773 20.3477 26.9883 20.3477ZM 37.8633 9.32031L 37.9336 10.9141C 38.9023 9.69531 40.168 9.08594 41.7305 9.08594C 44.4102 9.08594 45.7617 10.5977 45.7852 13.6211L 45.7852 22L 43.6172 22L 43.6172 13.6094C 43.6094 12.6953 43.3984 12.0195 42.9844 11.582C 42.5781 11.1445 41.9414 10.9258 41.0742 10.9258C 40.3711 10.9258 39.7539 11.1133 39.2227 11.4883C 38.6914 11.8633 38.2773 12.3555 37.9805 12.9648L 37.9805 22L 35.8125 22L 35.8125 9.32031L 37.8633 9.32031ZM 56.4375 18.6367C 56.4375 18.0508 56.2148 17.5977 55.7695 17.2773C 55.332 16.9492 54.5625 16.668 53.4609 16.4336C 52.3672 16.1992 51.4961 15.918 50.8477 15.5898C 50.207 15.2617 49.7305 14.8711 49.418 14.418C 49.1133 13.9648 48.9609 13.4258 48.9609 12.8008C 48.9609 11.7617 49.3984 10.8828 50.2734 10.1641C 51.1562 9.44531 52.2812 9.08594 53.6484 9.08594C 55.0859 9.08594 56.25 9.45703 57.1406 10.1992C 58.0391 10.9414 58.4883 11.8906 58.4883 13.0469L 56.3086 13.0469C 56.3086 12.4531 56.0547 11.9414 55.5469 11.5117C 55.0469 11.082 54.4141 10.8672 53.6484 10.8672C 52.8594 10.8672 52.2422 11.0391 51.7969 11.3828C 51.3516 11.7266 51.1289 12.1758 51.1289 12.7305C 51.1289 13.2539 51.3359 13.6484 51.75 13.9141C 52.1641 14.1797 52.9102 14.4336 53.9883 14.6758C 55.0742 14.918 55.9531 15.207 56.625 15.543C 57.2969 15.8789 57.793 16.2852 58.1133 16.7617C 58.4414 17.2305 58.6055 17.8047 58.6055 18.4844C 58.6055 19.6172 58.1523 20.5273 57.2461 21.2148C 56.3398 21.8945 55.1641 22.2344 53.7188 22.2344C 52.7031 22.2344 51.8047 22.0547 51.0234 21.6953C 50.2422 21.3359 49.6289 20.8359 49.1836 20.1953C 48.7461 19.5469 48.5273 18.8477 48.5273 18.0977L 50.6953 18.0977C 50.7344 18.8242 51.0234 19.4023 51.5625 19.832C 52.1094 20.2539 52.8281 20.4648 53.7188 20.4648C 54.5391 20.4648 55.1953 20.3008 55.6875 19.9727C 56.1875 19.6367 56.4375 19.1914 56.4375 18.6367ZM 63.7852 22L 61.6172 22L 61.6172 4L 63.7852 4L 63.7852 22ZM 75.0938 22C 74.9688 21.75 74.8672 21.3047 74.7891 20.6641C 73.7812 21.7109 72.5781 22.2344 71.1797 22.2344C 69.9297 22.2344 68.9023 21.8828 68.0977 21.1797C 67.3008 20.4688 66.9023 19.5703 66.9023 18.4844C 66.9023 17.1641 67.4023 16.1406 68.4023 15.4141C 69.4102 14.6797 70.8242 14.3125 72.6445 14.3125L 74.7539 14.3125L 74.7539 13.3164C 74.7539 12.5586 74.5273 11.957 74.0742 11.5117C 73.6211 11.0586 72.9531 10.832 72.0703 10.832C 71.2969 10.832 70.6484 11.0273 70.125 11.418C 69.6016 11.8086 69.3398 12.2812 69.3398 12.8359L 67.1602 12.8359C 67.1602 12.2031 67.3828 11.5938 67.8281 11.0078C 68.2812 10.4141 68.8906 9.94531 69.6562 9.60156C 70.4297 9.25781 71.2773 9.08594 72.1992 9.08594C 73.6602 9.08594 74.8047 9.45312 75.6328 10.1875C 76.4609 10.9141 76.8906 11.918 76.9219 13.1992L 76.9219 19.0352C 76.9219 20.1992 77.0703 21.125 77.3672 21.8125L 77.3672 22L 75.0938 22ZM 71.4961 20.3477C 72.1758 20.3477 72.8203 20.1719 73.4297 19.8203C 74.0391 19.4688 74.4805 19.0117 74.7539 18.4492L 74.7539 15.8477L 73.0547 15.8477C 70.3984 15.8477 69.0703 16.625 69.0703 18.1797C 69.0703 18.8594 69.2969 19.3906 69.75 19.7734C 70.2031 20.1562 70.7852 20.3477 71.4961 20.3477ZM 83.2617 6.25L 83.2617 9.32031L 85.6289 9.32031L 85.6289 10.9961L 83.2617 10.9961L 83.2617 18.8594C 83.2617 19.3672 83.3672 19.75 83.5781 20.0078C 83.7891 20.2578 84.1484 20.3828 84.6562 20.3828C 84.9062 20.3828 85.25 20.3359 85.6875 20.2422L 85.6875 22C 85.1172 22.1562 84.5625 22.2344 84.0234 22.2344C 83.0547 22.2344 82.3242 21.9414 81.832 21.3555C 81.3398 20.7695 81.0938 19.9375 81.0938 18.8594L 81.0938 10.9961L 78.7852 10.9961L 78.7852 9.32031L 81.0938 9.32031L 81.0938 6.25L 83.2617 6.25ZM 87.3633 15.543C 87.3633 14.3008 87.6055 13.1836 88.0898 12.1914C 88.582 11.1992 89.2617 10.4336 90.1289 9.89453C 91.0039 9.35547 92 9.08594 93.1172 9.08594C 94.8438 9.08594 96.2383 9.68359 97.3008 10.8789C 98.3711 12.0742 98.9062 13.6641 98.9062 15.6484L 98.9062 15.8008C 98.9062 17.0352 98.668 18.1445 98.1914 19.1289C 97.7227 20.1055 97.0469 20.8672 96.1641 21.4141C 95.2891 21.9609 94.2812 22.2344 93.1406 22.2344C 91.4219 22.2344 90.0273 21.6367 88.957 20.4414C 87.8945 19.2461 87.3633 17.6641 87.3633 15.6953L 87.3633 15.543ZM 89.543 15.8008C 89.543 17.207 89.8672 18.3359 90.5156 19.1875C 91.1719 20.0391 92.0469 20.4648 93.1406 20.4648C 94.2422 20.4648 95.1172 20.0352 95.7656 19.1758C 96.4141 18.3086 96.7383 17.0977 96.7383 15.543C 96.7383 14.1523 96.4062 13.0273 95.7422 12.168C 95.0859 11.3008 94.2109 10.8672 93.1172 10.8672C 92.0469 10.8672 91.1836 11.293 90.5273 12.1445C 89.8711 12.9961 89.543 14.2148 89.543 15.8008ZM 107.754 11.2656C 107.426 11.2109 107.07 11.1836 106.688 11.1836C 105.266 11.1836 104.301 11.7891 103.793 13L 103.793 22L 101.625 22L 101.625 9.32031L 103.734 9.32031L 103.77 10.7852C 104.48 9.65234 105.488 9.08594 106.793 9.08594C 107.215 9.08594 107.535 9.14062 107.754 9.25L 107.754 11.2656ZM 117.141 18.6367C 117.141 18.0508 116.918 17.5977 116.473 17.2773C 116.035 16.9492 115.266 16.668 114.164 16.4336C 113.07 16.1992 112.199 15.918 111.551 15.5898C 110.91 15.2617 110.434 14.8711 110.121 14.418C 109.816 13.9648 109.664 13.4258 109.664 12.8008C 109.664 11.7617 110.102 10.8828 110.977 10.1641C 111.859 9.44531 112.984 9.08594 114.352 9.08594C 115.789 9.08594 116.953 9.45703 117.844 10.1992C 118.742 10.9414 119.191 11.8906 119.191 13.0469L 117.012 13.0469C 117.012 12.4531 116.758 11.9414 116.25 11.5117C 115.75 11.082 115.117 10.8672 114.352 10.8672C 113.562 10.8672 112.945 11.0391 112.5 11.3828C 112.055 11.7266 111.832 12.1758 111.832 12.7305C 111.832 13.2539 112.039 13.6484 112.453 13.9141C 112.867 14.1797 113.613 14.4336 114.691 14.6758C 115.777 14.918 116.656 15.207 117.328 15.543C 118 15.8789 118.496 16.2852 118.816 16.7617C 119.145 17.2305 119.309 17.8047 119.309 18.4844C 119.309 19.6172 118.855 20.5273 117.949 21.2148C 117.043 21.8945 115.867 22.2344 114.422 22.2344C 113.406 22.2344 112.508 22.0547 111.727 21.6953C 110.945 21.3359 110.332 20.8359 109.887 20.1953C 109.449 19.5469 109.23 18.8477 109.23 18.0977L 111.398 18.0977C 111.438 18.8242 111.727 19.4023 112.266 19.832C 112.812 20.2539 113.531 20.4648 114.422 20.4648C 115.242 20.4648 115.898 20.3008 116.391 19.9727C 116.891 19.6367 117.141 19.1914 117.141 18.6367Z"/>
<path id="path13_stroke" d="M 100.354 0.353553C 100.549 0.158291 100.549 -0.158291 100.354 -0.353553L 97.1716 -3.53553C 96.9763 -3.7308 96.6597 -3.7308 96.4645 -3.53553C 96.2692 -3.34027 96.2692 -3.02369 96.4645 -2.82843L 99.2929 0L 96.4645 2.82843C 96.2692 3.02369 96.2692 3.34027 96.4645 3.53553C 96.6597 3.7308 96.9763 3.7308 97.1716 3.53553L 100.354 0.353553ZM 0 0.5L 100 0.5L 100 -0.5L 0 -0.5L 0 0.5Z"/>
<path id="path14_fill" d="M 0 0L 104 0L 104 85L 0 85L 0 0Z"/>
<path id="path15_fill" d="M 13.7695 6.78906L 8.28516 6.78906L 8.28516 22L 6.04688 22L 6.04688 6.78906L 0.574219 6.78906L 0.574219 4.9375L 13.7695 4.9375L 13.7695 6.78906ZM 21.2227 11.2656C 20.8945 11.2109 20.5391 11.1836 20.1562 11.1836C 18.7344 11.1836 17.7695 11.7891 17.2617 13L 17.2617 22L 15.0938 22L 15.0938 9.32031L 17.2031 9.32031L 17.2383 10.7852C 17.9492 9.65234 18.957 9.08594 20.2617 9.08594C 20.6836 9.08594 21.0039 9.14062 21.2227 9.25L 21.2227 11.2656ZM 30.5859 22C 30.4609 21.75 30.3594 21.3047 30.2812 20.6641C 29.2734 21.7109 28.0703 22.2344 26.6719 22.2344C 25.4219 22.2344 24.3945 21.8828 23.5898 21.1797C 22.793 20.4688 22.3945 19.5703 22.3945 18.4844C 22.3945 17.1641 22.8945 16.1406 23.8945 15.4141C 24.9023 14.6797 26.3164 14.3125 28.1367 14.3125L 30.2461 14.3125L 30.2461 13.3164C 30.2461 12.5586 30.0195 11.957 29.5664 11.5117C 29.1133 11.0586 28.4453 10.832 27.5625 10.832C 26.7891 10.832 26.1406 11.0273 25.6172 11.418C 25.0938 11.8086 24.832 12.2812 24.832 12.8359L 22.6523 12.8359C 22.6523 12.2031 22.875 11.5938 23.3203 11.0078C 23.7734 10.4141 24.3828 9.94531 25.1484 9.60156C 25.9219 9.25781 26.7695 9.08594 27.6914 9.08594C 29.1523 9.08594 30.2969 9.45312 31.125 10.1875C 31.9531 10.9141 32.3828 11.918 32.4141 13.1992L 32.4141 19.0352C 32.4141 20.1992 32.5625 21.125 32.8594 21.8125L 32.8594 22L 30.5859 22ZM 26.9883 20.3477C 27.668 20.3477 28.3125 20.1719 28.9219 19.8203C 29.5312 19.4688 29.9727 19.0117 30.2461 18.4492L 30.2461 15.8477L 28.5469 15.8477C 25.8906 15.8477 24.5625 16.625 24.5625 18.1797C 24.5625 18.8594 24.7891 19.3906 25.2422 19.7734C 25.6953 20.1562 26.2773 20.3477 26.9883 20.3477ZM 37.8633 9.32031L 37.9336 10.9141C 38.9023 9.69531 40.168 9.08594 41.7305 9.08594C 44.4102 9.08594 45.7617 10.5977 45.7852 13.6211L 45.7852 22L 43.6172 22L 43.6172 13.6094C 43.6094 12.6953 43.3984 12.0195 42.9844 11.582C 42.5781 11.1445 41.9414 10.9258 41.0742 10.9258C 40.3711 10.9258 39.7539 11.1133 39.2227 11.4883C 38.6914 11.8633 38.2773 12.3555 37.9805 12.9648L 37.9805 22L 35.8125 22L 35.8125 9.32031L 37.8633 9.32031ZM 56.4375 18.6367C 56.4375 18.0508 56.2148 17.5977 55.7695 17.2773C 55.332 16.9492 54.5625 16.668 53.4609 16.4336C 52.3672 16.1992 51.4961 15.918 50.8477 15.5898C 50.207 15.2617 49.7305 14.8711 49.418 14.418C 49.1133 13.9648 48.9609 13.4258 48.9609 12.8008C 48.9609 11.7617 49.3984 10.8828 50.2734 10.1641C 51.1562 9.44531 52.2812 9.08594 53.6484 9.08594C 55.0859 9.08594 56.25 9.45703 57.1406 10.1992C 58.0391 10.9414 58.4883 11.8906 58.4883 13.0469L 56.3086 13.0469C 56.3086 12.4531 56.0547 11.9414 55.5469 11.5117C 55.0469 11.082 54.4141 10.8672 53.6484 10.8672C 52.8594 10.8672 52.2422 11.0391 51.7969 11.3828C 51.3516 11.7266 51.1289 12.1758 51.1289 12.7305C 51.1289 13.2539 51.3359 13.6484 51.75 13.9141C 52.1641 14.1797 52.9102 14.4336 53.9883 14.6758C 55.0742 14.918 55.9531 15.207 56.625 15.543C 57.2969 15.8789 57.793 16.2852 58.1133 16.7617C 58.4414 17.2305 58.6055 17.8047 58.6055 18.4844C 58.6055 19.6172 58.1523 20.5273 57.2461 21.2148C 56.3398 21.8945 55.1641 22.2344 53.7188 22.2344C 52.7031 22.2344 51.8047 22.0547 51.0234 21.6953C 50.2422 21.3359 49.6289 20.8359 49.1836 20.1953C 48.7461 19.5469 48.5273 18.8477 48.5273 18.0977L 50.6953 18.0977C 50.7344 18.8242 51.0234 19.4023 51.5625 19.832C 52.1094 20.2539 52.8281 20.4648 53.7188 20.4648C 54.5391 20.4648 55.1953 20.3008 55.6875 19.9727C 56.1875 19.6367 56.4375 19.1914 56.4375 18.6367ZM 63.7852 22L 61.6172 22L 61.6172 4L 63.7852 4L 63.7852 22ZM 75.0938 22C 74.9688 21.75 74.8672 21.3047 74.7891 20.6641C 73.7812 21.7109 72.5781 22.2344 71.1797 22.2344C 69.9297 22.2344 68.9023 21.8828 68.0977 21.1797C 67.3008 20.4688 66.9023 19.5703 66.9023 18.4844C 66.9023 17.1641 67.4023 16.1406 68.4023 15.4141C 69.4102 14.6797 70.8242 14.3125 72.6445 14.3125L 74.7539 14.3125L 74.7539 13.3164C 74.7539 12.5586 74.5273 11.957 74.0742 11.5117C 73.6211 11.0586 72.9531 10.832 72.0703 10.832C 71.2969 10.832 70.6484 11.0273 70.125 11.418C 69.6016 11.8086 69.3398 12.2812 69.3398 12.8359L 67.1602 12.8359C 67.1602 12.2031 67.3828 11.5938 67.8281 11.0078C 68.2812 10.4141 68.8906 9.94531 69.6562 9.60156C 70.4297 9.25781 71.2773 9.08594 72.1992 9.08594C 73.6602 9.08594 74.8047 9.45312 75.6328 10.1875C 76.4609 10.9141 76.8906 11.918 76.9219 13.1992L 76.9219 19.0352C 76.9219 20.1992 77.0703 21.125 77.3672 21.8125L 77.3672 22L 75.0938 22ZM 71.4961 20.3477C 72.1758 20.3477 72.8203 20.1719 73.4297 19.8203C 74.0391 19.4688 74.4805 19.0117 74.7539 18.4492L 74.7539 15.8477L 73.0547 15.8477C 70.3984 15.8477 69.0703 16.625 69.0703 18.1797C 69.0703 18.8594 69.2969 19.3906 69.75 19.7734C 70.2031 20.1562 70.7852 20.3477 71.4961 20.3477ZM 83.2617 6.25L 83.2617 9.32031L 85.6289 9.32031L 85.6289 10.9961L 83.2617 10.9961L 83.2617 18.8594C 83.2617 19.3672 83.3672 19.75 83.5781 20.0078C 83.7891 20.2578 84.1484 20.3828 84.6562 20.3828C 84.9062 20.3828 85.25 20.3359 85.6875 20.2422L 85.6875 22C 85.1172 22.1562 84.5625 22.2344 84.0234 22.2344C 83.0547 22.2344 82.3242 21.9414 81.832 21.3555C 81.3398 20.7695 81.0938 19.9375 81.0938 18.8594L 81.0938 10.9961L 78.7852 10.9961L 78.7852 9.32031L 81.0938 9.32031L 81.0938 6.25L 83.2617 6.25ZM 90.5273 22L 88.3594 22L 88.3594 9.32031L 90.5273 9.32031L 90.5273 22ZM 88.1836 5.95703C 88.1836 5.60547 88.2891 5.30859 88.5 5.06641C 88.7188 4.82422 89.0391 4.70312 89.4609 4.70312C 89.8828 4.70312 90.2031 4.82422 90.4219 5.06641C 90.6406 5.30859 90.75 5.60547 90.75 5.95703C 90.75 6.30859 90.6406 6.60156 90.4219 6.83594C 90.2031 7.07031 89.8828 7.1875 89.4609 7.1875C 89.0391 7.1875 88.7188 7.07031 88.5 6.83594C 88.2891 6.60156 88.1836 6.30859 88.1836 5.95703ZM 93.4336 15.543C 93.4336 14.3008 93.6758 13.1836 94.1602 12.1914C 94.6523 11.1992 95.332 10.4336 96.1992 9.89453C 97.0742 9.35547 98.0703 9.08594 99.1875 9.08594C 100.914 9.08594 102.309 9.68359 103.371 10.8789C 104.441 12.0742 104.977 13.6641 104.977 15.6484L 104.977 15.8008C 104.977 17.0352 104.738 18.1445 104.262 19.1289C 103.793 20.1055 103.117 20.8672 102.234 21.4141C 101.359 21.9609 100.352 22.2344 99.2109 22.2344C 97.4922 22.2344 96.0977 21.6367 95.0273 20.4414C 93.9648 19.2461 93.4336 17.6641 93.4336 15.6953L 93.4336 15.543ZM 95.6133 15.8008C 95.6133 17.207 95.9375 18.3359 96.5859 19.1875C 97.2422 20.0391 98.1172 20.4648 99.2109 20.4648C 100.312 20.4648 101.188 20.0352 101.836 19.1758C 102.484 18.3086 102.809 17.0977 102.809 15.543C 102.809 14.1523 102.477 13.0273 101.812 12.168C 101.156 11.3008 100.281 10.8672 99.1875 10.8672C 98.1172 10.8672 97.2539 11.293 96.5977 12.1445C 95.9414 12.9961 95.6133 14.2148 95.6133 15.8008ZM 109.746 9.32031L 109.816 10.9141C 110.785 9.69531 112.051 9.08594 113.613 9.08594C 116.293 9.08594 117.645 10.5977 117.668 13.6211L 117.668 22L 115.5 22L 115.5 13.6094C 115.492 12.6953 115.281 12.0195 114.867 11.582C 114.461 11.1445 113.824 10.9258 112.957 10.9258C 112.254 10.9258 111.637 11.1133 111.105 11.4883C 110.574 11.8633 110.16 12.3555 109.863 12.9648L 109.863 22L 107.695 22L 107.695 9.32031L 109.746 9.32031ZM 129.48 15.3203L 129.48 22L 127.23 22L 127.23 4.9375L 133.523 4.9375C 135.391 4.9375 136.852 5.41406 137.906 6.36719C 138.969 7.32031 139.5 8.58203 139.5 10.1523C 139.5 11.8086 138.98 13.0859 137.941 13.9844C 136.91 14.875 135.43 15.3203 133.5 15.3203L 129.48 15.3203ZM 129.48 13.4805L 133.523 13.4805C 134.727 13.4805 135.648 13.1992 136.289 12.6367C 136.93 12.0664 137.25 11.2461 137.25 10.1758C 137.25 9.16016 136.93 8.34766 136.289 7.73828C 135.648 7.12891 134.77 6.8125 133.652 6.78906L 129.48 6.78906L 129.48 13.4805ZM 148.16 11.2656C 147.832 11.2109 147.477 11.1836 147.094 11.1836C 145.672 11.1836 144.707 11.7891 144.199 13L 144.199 22L 142.031 22L 142.031 9.32031L 144.141 9.32031L 144.176 10.7852C 144.887 9.65234 145.895 9.08594 147.199 9.08594C 147.621 9.08594 147.941 9.14062 148.16 9.25L 148.16 11.2656ZM 149.355 15.543C 149.355 14.3008 149.598 13.1836 150.082 12.1914C 150.574 11.1992 151.254 10.4336 152.121 9.89453C 152.996 9.35547 153.992 9.08594 155.109 9.08594C 156.836 9.08594 158.23 9.68359 159.293 10.8789C 160.363 12.0742 160.898 13.6641 160.898 15.6484L 160.898 15.8008C 160.898 17.0352 160.66 18.1445 160.184 19.1289C 159.715 20.1055 159.039 20.8672 158.156 21.4141C 157.281 21.9609 156.273 22.2344 155.133 22.2344C 153.414 22.2344 152.02 21.6367 150.949 20.4414C 149.887 19.2461 149.355 17.6641 149.355 15.6953L 149.355 15.543ZM 151.535 15.8008C 151.535 17.207 151.859 18.3359 152.508 19.1875C 153.164 20.0391 154.039 20.4648 155.133 20.4648C 156.234 20.4648 157.109 20.0352 157.758 19.1758C 158.406 18.3086 158.73 17.0977 158.73 15.543C 158.73 14.1523 158.398 13.0273 157.734 12.168C 157.078 11.3008 156.203 10.8672 155.109 10.8672C 154.039 10.8672 153.176 11.293 152.52 12.1445C 151.863 12.9961 151.535 14.2148 151.535 15.8008ZM 163.102 15.5547C 163.102 13.5781 163.559 12.0078 164.473 10.8438C 165.387 9.67188 166.598 9.08594 168.105 9.08594C 169.652 9.08594 170.859 9.63281 171.727 10.7266L 171.832 9.32031L 173.812 9.32031L 173.812 21.6953C 173.812 23.3359 173.324 24.6289 172.348 25.5742C 171.379 26.5195 170.074 26.9922 168.434 26.9922C 167.52 26.9922 166.625 26.7969 165.75 26.4062C 164.875 26.0156 164.207 25.4805 163.746 24.8008L 164.871 23.5C 165.801 24.6484 166.938 25.2227 168.281 25.2227C 169.336 25.2227 170.156 24.9258 170.742 24.332C 171.336 23.7383 171.633 22.9023 171.633 21.8242L 171.633 20.7344C 170.766 21.7344 169.582 22.2344 168.082 22.2344C 166.598 22.2344 165.395 21.6367 164.473 20.4414C 163.559 19.2461 163.102 17.6172 163.102 15.5547ZM 165.281 15.8008C 165.281 17.2305 165.574 18.3555 166.16 19.1758C 166.746 19.9883 167.566 20.3945 168.621 20.3945C 169.988 20.3945 170.992 19.7734 171.633 18.5312L 171.633 12.7422C 170.969 11.5312 169.973 10.9258 168.645 10.9258C 167.59 10.9258 166.766 11.3359 166.172 12.1562C 165.578 12.9766 165.281 14.1914 165.281 15.8008ZM 183.223 11.2656C 182.895 11.2109 182.539 11.1836 182.156 11.1836C 180.734 11.1836 179.77 11.7891 179.262 13L 179.262 22L 177.094 22L 177.094 9.32031L 179.203 9.32031L 179.238 10.7852C 179.949 9.65234 180.957 9.08594 182.262 9.08594C 182.684 9.08594 183.004 9.14062 183.223 9.25L 183.223 11.2656ZM 190.277 22.2344C 188.559 22.2344 187.16 21.6719 186.082 20.5469C 185.004 19.4141 184.465 17.9023 184.465 16.0117L 184.465 15.6133C 184.465 14.3555 184.703 13.2344 185.18 12.25C 185.664 11.2578 186.336 10.4844 187.195 9.92969C 188.062 9.36719 189 9.08594 190.008 9.08594C 191.656 9.08594 192.938 9.62891 193.852 10.7148C 194.766 11.8008 195.223 13.3555 195.223 15.3789L 195.223 16.2812L 186.633 16.2812C 186.664 17.5312 187.027 18.543 187.723 19.3164C 188.426 20.082 189.316 20.4648 190.395 20.4648C 191.16 20.4648 191.809 20.3086 192.34 19.9961C 192.871 19.6836 193.336 19.2695 193.734 18.7539L 195.059 19.7852C 193.996 21.418 192.402 22.2344 190.277 22.2344ZM 190.008 10.8672C 189.133 10.8672 188.398 11.1875 187.805 11.8281C 187.211 12.4609 186.844 13.3516 186.703 14.5L 193.055 14.5L 193.055 14.3359C 192.992 13.2344 192.695 12.3828 192.164 11.7812C 191.633 11.1719 190.914 10.8672 190.008 10.8672ZM 205.125 18.6367C 205.125 18.0508 204.902 17.5977 204.457 17.2773C 204.02 16.9492 203.25 16.668 202.148 16.4336C 201.055 16.1992 200.184 15.918 199.535 15.5898C 198.895 15.2617 198.418 14.8711 198.105 14.418C 197.801 13.9648 197.648 13.4258 197.648 12.8008C 197.648 11.7617 198.086 10.8828 198.961 10.1641C 199.844 9.44531 200.969 9.08594 202.336 9.08594C 203.773 9.08594 204.938 9.45703 205.828 10.1992C 206.727 10.9414 207.176 11.8906 207.176 13.0469L 204.996 13.0469C 204.996 12.4531 204.742 11.9414 204.234 11.5117C 203.734 11.082 203.102 10.8672 202.336 10.8672C 201.547 10.8672 200.93 11.0391 200.484 11.3828C 200.039 11.7266 199.816 12.1758 199.816 12.7305C 199.816 13.2539 200.023 13.6484 200.438 13.9141C 200.852 14.1797 201.598 14.4336 202.676 14.6758C 203.762 14.918 204.641 15.207 205.312 15.543C 205.984 15.8789 206.48 16.2852 206.801 16.7617C 207.129 17.2305 207.293 17.8047 207.293 18.4844C 207.293 19.6172 206.84 20.5273 205.934 21.2148C 205.027 21.8945 203.852 22.2344 202.406 22.2344C 201.391 22.2344 200.492 22.0547 199.711 21.6953C 198.93 21.3359 198.316 20.8359 197.871 20.1953C 197.434 19.5469 197.215 18.8477 197.215 18.0977L 199.383 18.0977C 199.422 18.8242 199.711 19.4023 200.25 19.832C 200.797 20.2539 201.516 20.4648 202.406 20.4648C 203.227 20.4648 203.883 20.3008 204.375 19.9727C 204.875 19.6367 205.125 19.1914 205.125 18.6367ZM 217.5 18.6367C 217.5 18.0508 217.277 17.5977 216.832 17.2773C 216.395 16.9492 215.625 16.668 214.523 16.4336C 213.43 16.1992 212.559 15.918 211.91 15.5898C 211.27 15.2617 210.793 14.8711 210.48 14.418C 210.176 13.9648 210.023 13.4258 210.023 12.8008C 210.023 11.7617 210.461 10.8828 211.336 10.1641C 212.219 9.44531 213.344 9.08594 214.711 9.08594C 216.148 9.08594 217.312 9.45703 218.203 10.1992C 219.102 10.9414 219.551 11.8906 219.551 13.0469L 217.371 13.0469C 217.371 12.4531 217.117 11.9414 216.609 11.5117C 216.109 11.082 215.477 10.8672 214.711 10.8672C 213.922 10.8672 213.305 11.0391 212.859 11.3828C 212.414 11.7266 212.191 12.1758 212.191 12.7305C 212.191 13.2539 212.398 13.6484 212.812 13.9141C 213.227 14.1797 213.973 14.4336 215.051 14.6758C 216.137 14.918 217.016 15.207 217.688 15.543C 218.359 15.8789 218.855 16.2852 219.176 16.7617C 219.504 17.2305 219.668 17.8047 219.668 18.4844C 219.668 19.6172 219.215 20.5273 218.309 21.2148C 217.402 21.8945 216.227 22.2344 214.781 22.2344C 213.766 22.2344 212.867 22.0547 212.086 21.6953C 211.305 21.3359 210.691 20.8359 210.246 20.1953C 209.809 19.5469 209.59 18.8477 209.59 18.0977L 211.758 18.0977C 211.797 18.8242 212.086 19.4023 212.625 19.832C 213.172 20.2539 213.891 20.4648 214.781 20.4648C 215.602 20.4648 216.258 20.3008 216.75 19.9727C 217.25 19.6367 217.5 19.1914 217.5 18.6367Z"/>
<path id="path16_stroke" d="M 200.354 0.353553C 200.549 0.158291 200.549 -0.158291 200.354 -0.353553L 197.172 -3.53553C 196.976 -3.7308 196.66 -3.7308 196.464 -3.53553C 196.269 -3.34027 196.269 -3.02369 196.464 -2.82843L 199.293 0L 196.464 2.82843C 196.269 3.02369 196.269 3.34027 196.464 3.53553C 196.66 3.7308 196.976 3.7308 197.172 3.53553L 200.354 0.353553ZM 0 0.5L 200 0.5L 200 -0.5L 0 -0.5L 0 0.5Z"/>
<path id="path17_stroke" d="M 150.354 0.353553C 150.549 0.158291 150.549 -0.158291 150.354 -0.353553L 147.172 -3.53553C 146.976 -3.7308 146.66 -3.7308 146.464 -3.53553C 146.269 -3.34027 146.269 -3.02369 146.464 -2.82843L 149.293 0L 146.464 2.82843C 146.269 3.02369 146.269 3.34027 146.464 3.53553C 146.66 3.7308 146.976 3.7308 147.172 3.53553L 150.354 0.353553ZM 0 0.5L 150 0.5L 150 -0.5L 0 -0.5L 0 0.5Z"/>
<path id="path18_stroke" d="M 250.354 0.353553C 250.549 0.158291 250.549 -0.158291 250.354 -0.353553L 247.172 -3.53553C 246.976 -3.7308 246.66 -3.7308 246.464 -3.53553C 246.269 -3.34027 246.269 -3.02369 246.464 -2.82843L 249.293 0L 246.464 2.82843C 246.269 3.02369 246.269 3.34027 246.464 3.53553C 246.66 3.7308 246.976 3.7308 247.172 3.53553L 250.354 0.353553ZM 0 0.5L 250 0.5L 250 -0.5L 0 -0.5L 0 0.5Z"/>
<path id="path19_fill" d="M 1.98047 22L 1.98047 4.9375L 6.79688 4.9375C 8.28125 4.9375 9.59375 5.26562 10.7344 5.92188C 11.875 6.57812 12.7539 7.51172 13.3711 8.72266C 13.9961 9.93359 14.3125 11.3242 14.3203 12.8945L 14.3203 13.9844C 14.3203 15.5938 14.0078 17.0039 13.3828 18.2148C 12.7656 19.4258 11.8789 20.3555 10.7227 21.0039C 9.57422 21.6523 8.23438 21.9844 6.70312 22L 1.98047 22ZM 4.23047 6.78906L 4.23047 20.1602L 6.59766 20.1602C 8.33203 20.1602 9.67969 19.6211 10.6406 18.543C 11.6094 17.4648 12.0938 15.9297 12.0938 13.9375L 12.0938 12.9414C 12.0938 11.0039 11.6367 9.5 10.7227 8.42969C 9.81641 7.35156 8.52734 6.80469 6.85547 6.78906L 4.23047 6.78906ZM 16.8164 15.543C 16.8164 14.3008 17.0586 13.1836 17.543 12.1914C 18.0352 11.1992 18.7148 10.4336 19.582 9.89453C 20.457 9.35547 21.4531 9.08594 22.5703 9.08594C 24.2969 9.08594 25.6914 9.68359 26.7539 10.8789C 27.8242 12.0742 28.3594 13.6641 28.3594 15.6484L 28.3594 15.8008C 28.3594 17.0352 28.1211 18.1445 27.6445 19.1289C 27.1758 20.1055 26.5 20.8672 25.6172 21.4141C 24.7422 21.9609 23.7344 22.2344 22.5938 22.2344C 20.875 22.2344 19.4805 21.6367 18.4102 20.4414C 17.3477 19.2461 16.8164 17.6641 16.8164 15.6953L 16.8164 15.543ZM 18.9961 15.8008C 18.9961 17.207 19.3203 18.3359 19.9688 19.1875C 20.625 20.0391 21.5 20.4648 22.5938 20.4648C 23.6953 20.4648 24.5703 20.0352 25.2188 19.1758C 25.8672 18.3086 26.1914 17.0977 26.1914 15.543C 26.1914 14.1523 25.8594 13.0273 25.1953 12.168C 24.5391 11.3008 23.6641 10.8672 22.5703 10.8672C 21.5 10.8672 20.6367 11.293 19.9805 12.1445C 19.3242 12.9961 18.9961 14.2148 18.9961 15.8008ZM 36.1641 20.4648C 36.9375 20.4648 37.6133 20.2305 38.1914 19.7617C 38.7695 19.293 39.0898 18.707 39.1523 18.0039L 41.2031 18.0039C 41.1641 18.7305 40.9141 19.4219 40.4531 20.0781C 39.9922 20.7344 39.375 21.2578 38.6016 21.6484C 37.8359 22.0391 37.0234 22.2344 36.1641 22.2344C 34.4375 22.2344 33.0625 21.6602 32.0391 20.5117C 31.0234 19.3555 30.5156 17.7773 30.5156 15.7773L 30.5156 15.4141C 30.5156 14.1797 30.7422 13.082 31.1953 12.1211C 31.6484 11.1602 32.2969 10.4141 33.1406 9.88281C 33.9922 9.35156 34.9961 9.08594 36.1523 9.08594C 37.5742 9.08594 38.7539 9.51172 39.6914 10.3633C 40.6367 11.2148 41.1406 12.3203 41.2031 13.6797L 39.1523 13.6797C 39.0898 12.8594 38.7773 12.1875 38.2148 11.6641C 37.6602 11.1328 36.9727 10.8672 36.1523 10.8672C 35.0508 10.8672 34.1953 11.2656 33.5859 12.0625C 32.9844 12.8516 32.6836 13.9961 32.6836 15.4961L 32.6836 15.9062C 32.6836 17.3672 32.9844 18.4922 33.5859 19.2812C 34.1875 20.0703 35.0469 20.4648 36.1641 20.4648ZM 56.4961 22L 54.3164 22L 54.3164 7.55078L 49.9453 9.15625L 49.9453 7.1875L 56.1562 4.85547L 56.4961 4.85547L 56.4961 22Z"/>
<path id="path20_fill" d="M 1.98047 22L 1.98047 4.9375L 6.79688 4.9375C 8.28125 4.9375 9.59375 5.26562 10.7344 5.92188C 11.875 6.57812 12.7539 7.51172 13.3711 8.72266C 13.9961 9.93359 14.3125 11.3242 14.3203 12.8945L 14.3203 13.9844C 14.3203 15.5938 14.0078 17.0039 13.3828 18.2148C 12.7656 19.4258 11.8789 20.3555 10.7227 21.0039C 9.57422 21.6523 8.23438 21.9844 6.70312 22L 1.98047 22ZM 4.23047 6.78906L 4.23047 20.1602L 6.59766 20.1602C 8.33203 20.1602 9.67969 19.6211 10.6406 18.543C 11.6094 17.4648 12.0938 15.9297 12.0938 13.9375L 12.0938 12.9414C 12.0938 11.0039 11.6367 9.5 10.7227 8.42969C 9.81641 7.35156 8.52734 6.80469 6.85547 6.78906L 4.23047 6.78906ZM 16.8164 15.543C 16.8164 14.3008 17.0586 13.1836 17.543 12.1914C 18.0352 11.1992 18.7148 10.4336 19.582 9.89453C 20.457 9.35547 21.4531 9.08594 22.5703 9.08594C 24.2969 9.08594 25.6914 9.68359 26.7539 10.8789C 27.8242 12.0742 28.3594 13.6641 28.3594 15.6484L 28.3594 15.8008C 28.3594 17.0352 28.1211 18.1445 27.6445 19.1289C 27.1758 20.1055 26.5 20.8672 25.6172 21.4141C 24.7422 21.9609 23.7344 22.2344 22.5938 22.2344C 20.875 22.2344 19.4805 21.6367 18.4102 20.4414C 17.3477 19.2461 16.8164 17.6641 16.8164 15.6953L 16.8164 15.543ZM 18.9961 15.8008C 18.9961 17.207 19.3203 18.3359 19.9688 19.1875C 20.625 20.0391 21.5 20.4648 22.5938 20.4648C 23.6953 20.4648 24.5703 20.0352 25.2188 19.1758C 25.8672 18.3086 26.1914 17.0977 26.1914 15.543C 26.1914 14.1523 25.8594 13.0273 25.1953 12.168C 24.5391 11.3008 23.6641 10.8672 22.5703 10.8672C 21.5 10.8672 20.6367 11.293 19.9805 12.1445C 19.3242 12.9961 18.9961 14.2148 18.9961 15.8008ZM 36.1641 20.4648C 36.9375 20.4648 37.6133 20.2305 38.1914 19.7617C 38.7695 19.293 39.0898 18.707 39.1523 18.0039L 41.2031 18.0039C 41.1641 18.7305 40.9141 19.4219 40.4531 20.0781C 39.9922 20.7344 39.375 21.2578 38.6016 21.6484C 37.8359 22.0391 37.0234 22.2344 36.1641 22.2344C 34.4375 22.2344 33.0625 21.6602 32.0391 20.5117C 31.0234 19.3555 30.5156 17.7773 30.5156 15.7773L 30.5156 15.4141C 30.5156 14.1797 30.7422 13.082 31.1953 12.1211C 31.6484 11.1602 32.2969 10.4141 33.1406 9.88281C 33.9922 9.35156 34.9961 9.08594 36.1523 9.08594C 37.5742 9.08594 38.7539 9.51172 39.6914 10.3633C 40.6367 11.2148 41.1406 12.3203 41.2031 13.6797L 39.1523 13.6797C 39.0898 12.8594 38.7773 12.1875 38.2148 11.6641C 37.6602 11.1328 36.9727 10.8672 36.1523 10.8672C 35.0508 10.8672 34.1953 11.2656 33.5859 12.0625C 32.9844 12.8516 32.6836 13.9961 32.6836 15.4961L 32.6836 15.9062C 32.6836 17.3672 32.9844 18.4922 33.5859 19.2812C 34.1875 20.0703 35.0469 20.4648 36.1641 20.4648ZM 60.5508 22L 49.3711 22L 49.3711 20.4414L 55.2773 13.8789C 56.1523 12.8867 56.7539 12.082 57.082 11.4648C 57.418 10.8398 57.5859 10.1953 57.5859 9.53125C 57.5859 8.64062 57.3164 7.91016 56.7773 7.33984C 56.2383 6.76953 55.5195 6.48438 54.6211 6.48438C 53.543 6.48438 52.7031 6.79297 52.1016 7.41016C 51.5078 8.01953 51.2109 8.87109 51.2109 9.96484L 49.043 9.96484C 49.043 8.39453 49.5469 7.125 50.5547 6.15625C 51.5703 5.1875 52.9258 4.70312 54.6211 4.70312C 56.207 4.70312 57.4609 5.12109 58.3828 5.95703C 59.3047 6.78516 59.7656 7.89062 59.7656 9.27344C 59.7656 10.9531 58.6953 12.9531 56.5547 15.2734L 51.9844 20.2305L 60.5508 20.2305L 60.5508 22Z"/>
<path id="path21_fill" d="M 1.98047 22L 1.98047 4.9375L 6.79688 4.9375C 8.28125 4.9375 9.59375 5.26562 10.7344 5.92188C 11.875 6.57812 12.7539 7.51172 13.3711 8.72266C 13.9961 9.93359 14.3125 11.3242 14.3203 12.8945L 14.3203 13.9844C 14.3203 15.5938 14.0078 17.0039 13.3828 18.2148C 12.7656 19.4258 11.8789 20.3555 10.7227 21.0039C 9.57422 21.6523 8.23438 21.9844 6.70312 22L 1.98047 22ZM 4.23047 6.78906L 4.23047 20.1602L 6.59766 20.1602C 8.33203 20.1602 9.67969 19.6211 10.6406 18.543C 11.6094 17.4648 12.0938 15.9297 12.0938 13.9375L 12.0938 12.9414C 12.0938 11.0039 11.6367 9.5 10.7227 8.42969C 9.81641 7.35156 8.52734 6.80469 6.85547 6.78906L 4.23047 6.78906ZM 16.8164 15.543C 16.8164 14.3008 17.0586 13.1836 17.543 12.1914C 18.0352 11.1992 18.7148 10.4336 19.582 9.89453C 20.457 9.35547 21.4531 9.08594 22.5703 9.08594C 24.2969 9.08594 25.6914 9.68359 26.7539 10.8789C 27.8242 12.0742 28.3594 13.6641 28.3594 15.6484L 28.3594 15.8008C 28.3594 17.0352 28.1211 18.1445 27.6445 19.1289C 27.1758 20.1055 26.5 20.8672 25.6172 21.4141C 24.7422 21.9609 23.7344 22.2344 22.5938 22.2344C 20.875 22.2344 19.4805 21.6367 18.4102 20.4414C 17.3477 19.2461 16.8164 17.6641 16.8164 15.6953L 16.8164 15.543ZM 18.9961 15.8008C 18.9961 17.207 19.3203 18.3359 19.9688 19.1875C 20.625 20.0391 21.5 20.4648 22.5938 20.4648C 23.6953 20.4648 24.5703 20.0352 25.2188 19.1758C 25.8672 18.3086 26.1914 17.0977 26.1914 15.543C 26.1914 14.1523 25.8594 13.0273 25.1953 12.168C 24.5391 11.3008 23.6641 10.8672 22.5703 10.8672C 21.5 10.8672 20.6367 11.293 19.9805 12.1445C 19.3242 12.9961 18.9961 14.2148 18.9961 15.8008ZM 36.1641 20.4648C 36.9375 20.4648 37.6133 20.2305 38.1914 19.7617C 38.7695 19.293 39.0898 18.707 39.1523 18.0039L 41.2031 18.0039C 41.1641 18.7305 40.9141 19.4219 40.4531 20.0781C 39.9922 20.7344 39.375 21.2578 38.6016 21.6484C 37.8359 22.0391 37.0234 22.2344 36.1641 22.2344C 34.4375 22.2344 33.0625 21.6602 32.0391 20.5117C 31.0234 19.3555 30.5156 17.7773 30.5156 15.7773L 30.5156 15.4141C 30.5156 14.1797 30.7422 13.082 31.1953 12.1211C 31.6484 11.1602 32.2969 10.4141 33.1406 9.88281C 33.9922 9.35156 34.9961 9.08594 36.1523 9.08594C 37.5742 9.08594 38.7539 9.51172 39.6914 10.3633C 40.6367 11.2148 41.1406 12.3203 41.2031 13.6797L 39.1523 13.6797C 39.0898 12.8594 38.7773 12.1875 38.2148 11.6641C 37.6602 11.1328 36.9727 10.8672 36.1523 10.8672C 35.0508 10.8672 34.1953 11.2656 33.5859 12.0625C 32.9844 12.8516 32.6836 13.9961 32.6836 15.4961L 32.6836 15.9062C 32.6836 17.3672 32.9844 18.4922 33.5859 19.2812C 34.1875 20.0703 35.0469 20.4648 36.1641 20.4648ZM 52.5234 12.4141L 54.1523 12.4141C 55.1758 12.3984 55.9805 12.1289 56.5664 11.6055C 57.1523 11.082 57.4453 10.375 57.4453 9.48438C 57.4453 7.48437 56.4492 6.48438 54.457 6.48438C 53.5195 6.48438 52.7695 6.75391 52.207 7.29297C 51.6523 7.82422 51.375 8.53125 51.375 9.41406L 49.207 9.41406C 49.207 8.0625 49.6992 6.94141 50.6836 6.05078C 51.6758 5.15234 52.9336 4.70312 54.457 4.70312C 56.0664 4.70312 57.3281 5.12891 58.2422 5.98047C 59.1562 6.83203 59.6133 8.01562 59.6133 9.53125C 59.6133 10.2734 59.3711 10.9922 58.8867 11.6875C 58.4102 12.3828 57.7578 12.9023 56.9297 13.2461C 57.8672 13.543 58.5898 14.0352 59.0977 14.7227C 59.6133 15.4102 59.8711 16.25 59.8711 17.2422C 59.8711 18.7734 59.3711 19.9883 58.3711 20.8867C 57.3711 21.7852 56.0703 22.2344 54.4688 22.2344C 52.8672 22.2344 51.5625 21.8008 50.5547 20.9336C 49.5547 20.0664 49.0547 18.9219 49.0547 17.5L 51.2344 17.5C 51.2344 18.3984 51.5273 19.1172 52.1133 19.6562C 52.6992 20.1953 53.4844 20.4648 54.4688 20.4648C 55.5156 20.4648 56.3164 20.1914 56.8711 19.6445C 57.4258 19.0977 57.7031 18.3125 57.7031 17.2891C 57.7031 16.2969 57.3984 15.5352 56.7891 15.0039C 56.1797 14.4727 55.3008 14.1992 54.1523 14.1836L 52.5234 14.1836L 52.5234 12.4141Z"/>
<path id="path22_fill" d="M 12.5977 22L 1.41797 22L 1.41797 20.4414L 7.32422 13.8789C 8.19922 12.8867 8.80078 12.082 9.12891 11.4648C 9.46484 10.8398 9.63281 10.1953 9.63281 9.53125C 9.63281 8.64062 9.36328 7.91016 8.82422 7.33984C 8.28516 6.76953 7.56641 6.48438 6.66797 6.48438C 5.58984 6.48438 4.75 6.79297 4.14844 7.41016C 3.55469 8.01953 3.25781 8.87109 3.25781 9.96484L 1.08984 9.96484C 1.08984 8.39453 1.59375 7.125 2.60156 6.15625C 3.61719 5.1875 4.97266 4.70312 6.66797 4.70312C 8.25391 4.70312 9.50781 5.12109 10.4297 5.95703C 11.3516 6.78516 11.8125 7.89062 11.8125 9.27344C 11.8125 10.9531 10.7422 12.9531 8.60156 15.2734L 4.03125 20.2305L 12.5977 20.2305L 12.5977 22ZM 25.5938 14.7227C 25.5938 17.2617 25.1602 19.1484 24.293 20.3828C 23.4258 21.6172 22.0703 22.2344 20.2266 22.2344C 18.4062 22.2344 17.0586 21.6328 16.1836 20.4297C 15.3086 19.2188 14.8555 17.4141 14.8242 15.0156L 14.8242 12.1211C 14.8242 9.61328 15.2578 7.75 16.125 6.53125C 16.9922 5.3125 18.3516 4.70312 20.2031 4.70312C 22.0391 4.70312 23.3906 5.29297 24.2578 6.47266C 25.125 7.64453 25.5703 9.45703 25.5938 11.9102L 25.5938 14.7227ZM 23.4258 11.7578C 23.4258 9.92188 23.168 8.58594 22.6523 7.75C 22.1367 6.90625 21.3203 6.48438 20.2031 6.48438C 19.0938 6.48438 18.2852 6.90234 17.7773 7.73828C 17.2695 8.57422 17.0078 9.85938 16.9922 11.5938L 16.9922 15.0625C 16.9922 16.9062 17.2578 18.2695 17.7891 19.1523C 18.3281 20.0273 19.1406 20.4648 20.2266 20.4648C 21.2969 20.4648 22.0898 20.0508 22.6055 19.2227C 23.1289 18.3945 23.4023 17.0898 23.4258 15.3086L 23.4258 11.7578ZM 36.5859 9.32031L 36.6445 10.7266C 37.5742 9.63281 38.8281 9.08594 40.4062 9.08594C 42.1797 9.08594 43.3867 9.76562 44.0273 11.125C 44.4492 10.5156 44.9961 10.0234 45.668 9.64844C 46.3477 9.27344 47.1484 9.08594 48.0703 9.08594C 50.8516 9.08594 52.2656 10.5586 52.3125 13.5039L 52.3125 22L 50.1445 22L 50.1445 13.6328C 50.1445 12.7266 49.9375 12.0508 49.5234 11.6055C 49.1094 11.1523 48.4141 10.9258 47.4375 10.9258C 46.6328 10.9258 45.9648 11.168 45.4336 11.6523C 44.9023 12.1289 44.5938 12.7734 44.5078 13.5859L 44.5078 22L 42.3281 22L 42.3281 13.6914C 42.3281 11.8477 41.4258 10.9258 39.6211 10.9258C 38.1992 10.9258 37.2266 11.5312 36.7031 12.7422L 36.7031 22L 34.5352 22L 34.5352 9.32031L 36.5859 9.32031ZM 57.9492 22L 55.7812 22L 55.7812 9.32031L 57.9492 9.32031L 57.9492 22ZM 55.6055 5.95703C 55.6055 5.60547 55.7109 5.30859 55.9219 5.06641C 56.1406 4.82422 56.4609 4.70312 56.8828 4.70312C 57.3047 4.70312 57.625 4.82422 57.8438 5.06641C 58.0625 5.30859 58.1719 5.60547 58.1719 5.95703C 58.1719 6.30859 58.0625 6.60156 57.8438 6.83594C 57.625 7.07031 57.3047 7.1875 56.8828 7.1875C 56.4609 7.1875 56.1406 7.07031 55.9219 6.83594C 55.7109 6.60156 55.6055 6.30859 55.6055 5.95703ZM 63.4805 9.32031L 63.5508 10.9141C 64.5195 9.69531 65.7852 9.08594 67.3477 9.08594C 70.0273 9.08594 71.3789 10.5977 71.4023 13.6211L 71.4023 22L 69.2344 22L 69.2344 13.6094C 69.2266 12.6953 69.0156 12.0195 68.6016 11.582C 68.1953 11.1445 67.5586 10.9258 66.6914 10.9258C 65.9883 10.9258 65.3711 11.1133 64.8398 11.4883C 64.3086 11.8633 63.8945 12.3555 63.5977 12.9648L 63.5977 22L 61.4297 22L 61.4297 9.32031L 63.4805 9.32031ZM 82.0547 18.6367C 82.0547 18.0508 81.832 17.5977 81.3867 17.2773C 80.9492 16.9492 80.1797 16.668 79.0781 16.4336C 77.9844 16.1992 77.1133 15.918 76.4648 15.5898C 75.8242 15.2617 75.3477 14.8711 75.0352 14.418C 74.7305 13.9648 74.5781 13.4258 74.5781 12.8008C 74.5781 11.7617 75.0156 10.8828 75.8906 10.1641C 76.7734 9.44531 77.8984 9.08594 79.2656 9.08594C 80.7031 9.08594 81.8672 9.45703 82.7578 10.1992C 83.6562 10.9414 84.1055 11.8906 84.1055 13.0469L 81.9258 13.0469C 81.9258 12.4531 81.6719 11.9414 81.1641 11.5117C 80.6641 11.082 80.0312 10.8672 79.2656 10.8672C 78.4766 10.8672 77.8594 11.0391 77.4141 11.3828C 76.9688 11.7266 76.7461 12.1758 76.7461 12.7305C 76.7461 13.2539 76.9531 13.6484 77.3672 13.9141C 77.7812 14.1797 78.5273 14.4336 79.6055 14.6758C 80.6914 14.918 81.5703 15.207 82.2422 15.543C 82.9141 15.8789 83.4102 16.2852 83.7305 16.7617C 84.0586 17.2305 84.2227 17.8047 84.2227 18.4844C 84.2227 19.6172 83.7695 20.5273 82.8633 21.2148C 81.957 21.8945 80.7812 22.2344 79.3359 22.2344C 78.3203 22.2344 77.4219 22.0547 76.6406 21.6953C 75.8594 21.3359 75.2461 20.8359 74.8008 20.1953C 74.3633 19.5469 74.1445 18.8477 74.1445 18.0977L 76.3125 18.0977C 76.3516 18.8242 76.6406 19.4023 77.1797 19.832C 77.7266 20.2539 78.4453 20.4648 79.3359 20.4648C 80.1562 20.4648 80.8125 20.3008 81.3047 19.9727C 81.8047 19.6367 82.0547 19.1914 82.0547 18.6367Z"/>
<path id="path23_fill" d="M 8.54297 22L 6.36328 22L 6.36328 7.55078L 1.99219 9.15625L 1.99219 7.1875L 8.20312 4.85547L 8.54297 4.85547L 8.54297 22ZM 15.8906 13.4453L 16.7578 4.9375L 25.5 4.9375L 25.5 6.94141L 18.5977 6.94141L 18.082 11.5938C 18.918 11.1016 19.8672 10.8555 20.9297 10.8555C 22.4844 10.8555 23.7188 11.3711 24.6328 12.4023C 25.5469 13.4258 26.0039 14.8125 26.0039 16.5625C 26.0039 18.3203 25.5273 19.707 24.5742 20.7227C 23.6289 21.7305 22.3047 22.2344 20.6016 22.2344C 19.0938 22.2344 17.8633 21.8164 16.9102 20.9805C 15.957 20.1445 15.4141 18.9883 15.2812 17.5117L 17.332 17.5117C 17.4648 18.4883 17.8125 19.2266 18.375 19.7266C 18.9375 20.2188 19.6797 20.4648 20.6016 20.4648C 21.6094 20.4648 22.3984 20.1211 22.9688 19.4336C 23.5469 18.7461 23.8359 17.7969 23.8359 16.5859C 23.8359 15.4453 23.5234 14.5312 22.8984 13.8438C 22.2812 13.1484 21.457 12.8008 20.4258 12.8008C 19.4805 12.8008 18.7383 13.0078 18.1992 13.4219L 17.625 13.8906L 15.8906 13.4453ZM 36.5859 9.32031L 36.6445 10.7266C 37.5742 9.63281 38.8281 9.08594 40.4062 9.08594C 42.1797 9.08594 43.3867 9.76562 44.0273 11.125C 44.4492 10.5156 44.9961 10.0234 45.668 9.64844C 46.3477 9.27344 47.1484 9.08594 48.0703 9.08594C 50.8516 9.08594 52.2656 10.5586 52.3125 13.5039L 52.3125 22L 50.1445 22L 50.1445 13.6328C 50.1445 12.7266 49.9375 12.0508 49.5234 11.6055C 49.1094 11.1523 48.4141 10.9258 47.4375 10.9258C 46.6328 10.9258 45.9648 11.168 45.4336 11.6523C 44.9023 12.1289 44.5938 12.7734 44.5078 13.5859L 44.5078 22L 42.3281 22L 42.3281 13.6914C 42.3281 11.8477 41.4258 10.9258 39.6211 10.9258C 38.1992 10.9258 37.2266 11.5312 36.7031 12.7422L 36.7031 22L 34.5352 22L 34.5352 9.32031L 36.5859 9.32031ZM 57.9492 22L 55.7812 22L 55.7812 9.32031L 57.9492 9.32031L 57.9492 22ZM 55.6055 5.95703C 55.6055 5.60547 55.7109 5.30859 55.9219 5.06641C 56.1406 4.82422 56.4609 4.70312 56.8828 4.70312C 57.3047 4.70312 57.625 4.82422 57.8438 5.06641C 58.0625 5.30859 58.1719 5.60547 58.1719 5.95703C 58.1719 6.30859 58.0625 6.60156 57.8438 6.83594C 57.625 7.07031 57.3047 7.1875 56.8828 7.1875C 56.4609 7.1875 56.1406 7.07031 55.9219 6.83594C 55.7109 6.60156 55.6055 6.30859 55.6055 5.95703ZM 63.4805 9.32031L 63.5508 10.9141C 64.5195 9.69531 65.7852 9.08594 67.3477 9.08594C 70.0273 9.08594 71.3789 10.5977 71.4023 13.6211L 71.4023 22L 69.2344 22L 69.2344 13.6094C 69.2266 12.6953 69.0156 12.0195 68.6016 11.582C 68.1953 11.1445 67.5586 10.9258 66.6914 10.9258C 65.9883 10.9258 65.3711 11.1133 64.8398 11.4883C 64.3086 11.8633 63.8945 12.3555 63.5977 12.9648L 63.5977 22L 61.4297 22L 61.4297 9.32031L 63.4805 9.32031ZM 82.0547 18.6367C 82.0547 18.0508 81.832 17.5977 81.3867 17.2773C 80.9492 16.9492 80.1797 16.668 79.0781 16.4336C 77.9844 16.1992 77.1133 15.918 76.4648 15.5898C 75.8242 15.2617 75.3477 14.8711 75.0352 14.418C 74.7305 13.9648 74.5781 13.4258 74.5781 12.8008C 74.5781 11.7617 75.0156 10.8828 75.8906 10.1641C 76.7734 9.44531 77.8984 9.08594 79.2656 9.08594C 80.7031 9.08594 81.8672 9.45703 82.7578 10.1992C 83.6562 10.9414 84.1055 11.8906 84.1055 13.0469L 81.9258 13.0469C 81.9258 12.4531 81.6719 11.9414 81.1641 11.5117C 80.6641 11.082 80.0312 10.8672 79.2656 10.8672C 78.4766 10.8672 77.8594 11.0391 77.4141 11.3828C 76.9688 11.7266 76.7461 12.1758 76.7461 12.7305C 76.7461 13.2539 76.9531 13.6484 77.3672 13.9141C 77.7812 14.1797 78.5273 14.4336 79.6055 14.6758C 80.6914 14.918 81.5703 15.207 82.2422 15.543C 82.9141 15.8789 83.4102 16.2852 83.7305 16.7617C 84.0586 17.2305 84.2227 17.8047 84.2227 18.4844C 84.2227 19.6172 83.7695 20.5273 82.8633 21.2148C 81.957 21.8945 80.7812 22.2344 79.3359 22.2344C 78.3203 22.2344 77.4219 22.0547 76.6406 21.6953C 75.8594 21.3359 75.2461 20.8359 74.8008 20.1953C 74.3633 19.5469 74.1445 18.8477 74.1445 18.0977L 76.3125 18.0977C 76.3516 18.8242 76.6406 19.4023 77.1797 19.832C 77.7266 20.2539 78.4453 20.4648 79.3359 20.4648C 80.1562 20.4648 80.8125 20.3008 81.3047 19.9727C 81.8047 19.6367 82.0547 19.1914 82.0547 18.6367Z"/>
<path id="path24_fill" d="M 12.5977 22L 1.41797 22L 1.41797 20.4414L 7.32422 13.8789C 8.19922 12.8867 8.80078 12.082 9.12891 11.4648C 9.46484 10.8398 9.63281 10.1953 9.63281 9.53125C 9.63281 8.64062 9.36328 7.91016 8.82422 7.33984C 8.28516 6.76953 7.56641 6.48438 6.66797 6.48438C 5.58984 6.48438 4.75 6.79297 4.14844 7.41016C 3.55469 8.01953 3.25781 8.87109 3.25781 9.96484L 1.08984 9.96484C 1.08984 8.39453 1.59375 7.125 2.60156 6.15625C 3.61719 5.1875 4.97266 4.70312 6.66797 4.70312C 8.25391 4.70312 9.50781 5.12109 10.4297 5.95703C 11.3516 6.78516 11.8125 7.89062 11.8125 9.27344C 11.8125 10.9531 10.7422 12.9531 8.60156 15.2734L 4.03125 20.2305L 12.5977 20.2305L 12.5977 22ZM 15.8906 13.4453L 16.7578 4.9375L 25.5 4.9375L 25.5 6.94141L 18.5977 6.94141L 18.082 11.5938C 18.918 11.1016 19.8672 10.8555 20.9297 10.8555C 22.4844 10.8555 23.7188 11.3711 24.6328 12.4023C 25.5469 13.4258 26.0039 14.8125 26.0039 16.5625C 26.0039 18.3203 25.5273 19.707 24.5742 20.7227C 23.6289 21.7305 22.3047 22.2344 20.6016 22.2344C 19.0938 22.2344 17.8633 21.8164 16.9102 20.9805C 15.957 20.1445 15.4141 18.9883 15.2812 17.5117L 17.332 17.5117C 17.4648 18.4883 17.8125 19.2266 18.375 19.7266C 18.9375 20.2188 19.6797 20.4648 20.6016 20.4648C 21.6094 20.4648 22.3984 20.1211 22.9688 19.4336C 23.5469 18.7461 23.8359 17.7969 23.8359 16.5859C 23.8359 15.4453 23.5234 14.5312 22.8984 13.8438C 22.2812 13.1484 21.457 12.8008 20.4258 12.8008C 19.4805 12.8008 18.7383 13.0078 18.1992 13.4219L 17.625 13.8906L 15.8906 13.4453ZM 36.5859 9.32031L 36.6445 10.7266C 37.5742 9.63281 38.8281 9.08594 40.4062 9.08594C 42.1797 9.08594 43.3867 9.76562 44.0273 11.125C 44.4492 10.5156 44.9961 10.0234 45.668 9.64844C 46.3477 9.27344 47.1484 9.08594 48.0703 9.08594C 50.8516 9.08594 52.2656 10.5586 52.3125 13.5039L 52.3125 22L 50.1445 22L 50.1445 13.6328C 50.1445 12.7266 49.9375 12.0508 49.5234 11.6055C 49.1094 11.1523 48.4141 10.9258 47.4375 10.9258C 46.6328 10.9258 45.9648 11.168 45.4336 11.6523C 44.9023 12.1289 44.5938 12.7734 44.5078 13.5859L 44.5078 22L 42.3281 22L 42.3281 13.6914C 42.3281 11.8477 41.4258 10.9258 39.6211 10.9258C 38.1992 10.9258 37.2266 11.5312 36.7031 12.7422L 36.7031 22L 34.5352 22L 34.5352 9.32031L 36.5859 9.32031ZM 57.9492 22L 55.7812 22L 55.7812 9.32031L 57.9492 9.32031L 57.9492 22ZM 55.6055 5.95703C 55.6055 5.60547 55.7109 5.30859 55.9219 5.06641C 56.1406 4.82422 56.4609 4.70312 56.8828 4.70312C 57.3047 4.70312 57.625 4.82422 57.8438 5.06641C 58.0625 5.30859 58.1719 5.60547 58.1719 5.95703C 58.1719 6.30859 58.0625 6.60156 57.8438 6.83594C 57.625 7.07031 57.3047 7.1875 56.8828 7.1875C 56.4609 7.1875 56.1406 7.07031 55.9219 6.83594C 55.7109 6.60156 55.6055 6.30859 55.6055 5.95703ZM 63.4805 9.32031L 63.5508 10.9141C 64.5195 9.69531 65.7852 9.08594 67.3477 9.08594C 70.0273 9.08594 71.3789 10.5977 71.4023 13.6211L 71.4023 22L 69.2344 22L 69.2344 13.6094C 69.2266 12.6953 69.0156 12.0195 68.6016 11.582C 68.1953 11.1445 67.5586 10.9258 66.6914 10.9258C 65.9883 10.9258 65.3711 11.1133 64.8398 11.4883C 64.3086 11.8633 63.8945 12.3555 63.5977 12.9648L 63.5977 22L 61.4297 22L 61.4297 9.32031L 63.4805 9.32031ZM 82.0547 18.6367C 82.0547 18.0508 81.832 17.5977 81.3867 17.2773C 80.9492 16.9492 80.1797 16.668 79.0781 16.4336C 77.9844 16.1992 77.1133 15.918 76.4648 15.5898C 75.8242 15.2617 75.3477 14.8711 75.0352 14.418C 74.7305 13.9648 74.5781 13.4258 74.5781 12.8008C 74.5781 11.7617 75.0156 10.8828 75.8906 10.1641C 76.7734 9.44531 77.8984 9.08594 79.2656 9.08594C 80.7031 9.08594 81.8672 9.45703 82.7578 10.1992C 83.6562 10.9414 84.1055 11.8906 84.1055 13.0469L 81.9258 13.0469C 81.9258 12.4531 81.6719 11.9414 81.1641 11.5117C 80.6641 11.082 80.0312 10.8672 79.2656 10.8672C 78.4766 10.8672 77.8594 11.0391 77.4141 11.3828C 76.9688 11.7266 76.7461 12.1758 76.7461 12.7305C 76.7461 13.2539 76.9531 13.6484 77.3672 13.9141C 77.7812 14.1797 78.5273 14.4336 79.6055 14.6758C 80.6914 14.918 81.5703 15.207 82.2422 15.543C 82.9141 15.8789 83.4102 16.2852 83.7305 16.7617C 84.0586 17.2305 84.2227 17.8047 84.2227 18.4844C 84.2227 19.6172 83.7695 20.5273 82.8633 21.2148C 81.957 21.8945 80.7812 22.2344 79.3359 22.2344C 78.3203 22.2344 77.4219 22.0547 76.6406 21.6953C 75.8594 21.3359 75.2461 20.8359 74.8008 20.1953C 74.3633 19.5469 74.1445 18.8477 74.1445 18.0977L 76.3125 18.0977C 76.3516 18.8242 76.6406 19.4023 77.1797 19.832C 77.7266 20.2539 78.4453 20.4648 79.3359 20.4648C 80.1562 20.4648 80.8125 20.3008 81.3047 19.9727C 81.8047 19.6367 82.0547 19.1914 82.0547 18.6367Z"/>
<path id="path25_fill" d="M 1.98047 22L 1.98047 4.9375L 6.79688 4.9375C 8.28125 4.9375 9.59375 5.26562 10.7344 5.92188C 11.875 6.57812 12.7539 7.51172 13.3711 8.72266C 13.9961 9.93359 14.3125 11.3242 14.3203 12.8945L 14.3203 13.9844C 14.3203 15.5938 14.0078 17.0039 13.3828 18.2148C 12.7656 19.4258 11.8789 20.3555 10.7227 21.0039C 9.57422 21.6523 8.23438 21.9844 6.70312 22L 1.98047 22ZM 4.23047 6.78906L 4.23047 20.1602L 6.59766 20.1602C 8.33203 20.1602 9.67969 19.6211 10.6406 18.543C 11.6094 17.4648 12.0938 15.9297 12.0938 13.9375L 12.0938 12.9414C 12.0938 11.0039 11.6367 9.5 10.7227 8.42969C 9.81641 7.35156 8.52734 6.80469 6.85547 6.78906L 4.23047 6.78906ZM 16.8164 15.543C 16.8164 14.3008 17.0586 13.1836 17.543 12.1914C 18.0352 11.1992 18.7148 10.4336 19.582 9.89453C 20.457 9.35547 21.4531 9.08594 22.5703 9.08594C 24.2969 9.08594 25.6914 9.68359 26.7539 10.8789C 27.8242 12.0742 28.3594 13.6641 28.3594 15.6484L 28.3594 15.8008C 28.3594 17.0352 28.1211 18.1445 27.6445 19.1289C 27.1758 20.1055 26.5 20.8672 25.6172 21.4141C 24.7422 21.9609 23.7344 22.2344 22.5938 22.2344C 20.875 22.2344 19.4805 21.6367 18.4102 20.4414C 17.3477 19.2461 16.8164 17.6641 16.8164 15.6953L 16.8164 15.543ZM 18.9961 15.8008C 18.9961 17.207 19.3203 18.3359 19.9688 19.1875C 20.625 20.0391 21.5 20.4648 22.5938 20.4648C 23.6953 20.4648 24.5703 20.0352 25.2188 19.1758C 25.8672 18.3086 26.1914 17.0977 26.1914 15.543C 26.1914 14.1523 25.8594 13.0273 25.1953 12.168C 24.5391 11.3008 23.6641 10.8672 22.5703 10.8672C 21.5 10.8672 20.6367 11.293 19.9805 12.1445C 19.3242 12.9961 18.9961 14.2148 18.9961 15.8008ZM 36.1641 20.4648C 36.9375 20.4648 37.6133 20.2305 38.1914 19.7617C 38.7695 19.293 39.0898 18.707 39.1523 18.0039L 41.2031 18.0039C 41.1641 18.7305 40.9141 19.4219 40.4531 20.0781C 39.9922 20.7344 39.375 21.2578 38.6016 21.6484C 37.8359 22.0391 37.0234 22.2344 36.1641 22.2344C 34.4375 22.2344 33.0625 21.6602 32.0391 20.5117C 31.0234 19.3555 30.5156 17.7773 30.5156 15.7773L 30.5156 15.4141C 30.5156 14.1797 30.7422 13.082 31.1953 12.1211C 31.6484 11.1602 32.2969 10.4141 33.1406 9.88281C 33.9922 9.35156 34.9961 9.08594 36.1523 9.08594C 37.5742 9.08594 38.7539 9.51172 39.6914 10.3633C 40.6367 11.2148 41.1406 12.3203 41.2031 13.6797L 39.1523 13.6797C 39.0898 12.8594 38.7773 12.1875 38.2148 11.6641C 37.6602 11.1328 36.9727 10.8672 36.1523 10.8672C 35.0508 10.8672 34.1953 11.2656 33.5859 12.0625C 32.9844 12.8516 32.6836 13.9961 32.6836 15.4961L 32.6836 15.9062C 32.6836 17.3672 32.9844 18.4922 33.5859 19.2812C 34.1875 20.0703 35.0469 20.4648 36.1641 20.4648ZM 58.5234 16.2695L 60.8906 16.2695L 60.8906 18.0391L 58.5234 18.0391L 58.5234 22L 56.3438 22L 56.3438 18.0391L 48.5742 18.0391L 48.5742 16.7617L 56.2148 4.9375L 58.5234 4.9375L 58.5234 16.2695ZM 51.0352 16.2695L 56.3438 16.2695L 56.3438 7.90234L 56.0859 8.37109L 51.0352 16.2695Z"/>
<path id="path26_fill" d="M 1.98047 22L 1.98047 4.9375L 6.79688 4.9375C 8.28125 4.9375 9.59375 5.26562 10.7344 5.92188C 11.875 6.57812 12.7539 7.51172 13.3711 8.72266C 13.9961 9.93359 14.3125 11.3242 14.3203 12.8945L 14.3203 13.9844C 14.3203 15.5938 14.0078 17.0039 13.3828 18.2148C 12.7656 19.4258 11.8789 20.3555 10.7227 21.0039C 9.57422 21.6523 8.23438 21.9844 6.70312 22L 1.98047 22ZM 4.23047 6.78906L 4.23047 20.1602L 6.59766 20.1602C 8.33203 20.1602 9.67969 19.6211 10.6406 18.543C 11.6094 17.4648 12.0938 15.9297 12.0938 13.9375L 12.0938 12.9414C 12.0938 11.0039 11.6367 9.5 10.7227 8.42969C 9.81641 7.35156 8.52734 6.80469 6.85547 6.78906L 4.23047 6.78906ZM 16.8164 15.543C 16.8164 14.3008 17.0586 13.1836 17.543 12.1914C 18.0352 11.1992 18.7148 10.4336 19.582 9.89453C 20.457 9.35547 21.4531 9.08594 22.5703 9.08594C 24.2969 9.08594 25.6914 9.68359 26.7539 10.8789C 27.8242 12.0742 28.3594 13.6641 28.3594 15.6484L 28.3594 15.8008C 28.3594 17.0352 28.1211 18.1445 27.6445 19.1289C 27.1758 20.1055 26.5 20.8672 25.6172 21.4141C 24.7422 21.9609 23.7344 22.2344 22.5938 22.2344C 20.875 22.2344 19.4805 21.6367 18.4102 20.4414C 17.3477 19.2461 16.8164 17.6641 16.8164 15.6953L 16.8164 15.543ZM 18.9961 15.8008C 18.9961 17.207 19.3203 18.3359 19.9688 19.1875C 20.625 20.0391 21.5 20.4648 22.5938 20.4648C 23.6953 20.4648 24.5703 20.0352 25.2188 19.1758C 25.8672 18.3086 26.1914 17.0977 26.1914 15.543C 26.1914 14.1523 25.8594 13.0273 25.1953 12.168C 24.5391 11.3008 23.6641 10.8672 22.5703 10.8672C 21.5 10.8672 20.6367 11.293 19.9805 12.1445C 19.3242 12.9961 18.9961 14.2148 18.9961 15.8008ZM 36.1641 20.4648C 36.9375 20.4648 37.6133 20.2305 38.1914 19.7617C 38.7695 19.293 39.0898 18.707 39.1523 18.0039L 41.2031 18.0039C 41.1641 18.7305 40.9141 19.4219 40.4531 20.0781C 39.9922 20.7344 39.375 21.2578 38.6016 21.6484C 37.8359 22.0391 37.0234 22.2344 36.1641 22.2344C 34.4375 22.2344 33.0625 21.6602 32.0391 20.5117C 31.0234 19.3555 30.5156 17.7773 30.5156 15.7773L 30.5156 15.4141C 30.5156 14.1797 30.7422 13.082 31.1953 12.1211C 31.6484 11.1602 32.2969 10.4141 33.1406 9.88281C 33.9922 9.35156 34.9961 9.08594 36.1523 9.08594C 37.5742 9.08594 38.7539 9.51172 39.6914 10.3633C 40.6367 11.2148 41.1406 12.3203 41.2031 13.6797L 39.1523 13.6797C 39.0898 12.8594 38.7773 12.1875 38.2148 11.6641C 37.6602 11.1328 36.9727 10.8672 36.1523 10.8672C 35.0508 10.8672 34.1953 11.2656 33.5859 12.0625C 32.9844 12.8516 32.6836 13.9961 32.6836 15.4961L 32.6836 15.9062C 32.6836 17.3672 32.9844 18.4922 33.5859 19.2812C 34.1875 20.0703 35.0469 20.4648 36.1641 20.4648ZM 50.3672 13.4453L 51.2344 4.9375L 59.9766 4.9375L 59.9766 6.94141L 53.0742 6.94141L 52.5586 11.5938C 53.3945 11.1016 54.3438 10.8555 55.4062 10.8555C 56.9609 10.8555 58.1953 11.3711 59.1094 12.4023C 60.0234 13.4258 60.4805 14.8125 60.4805 16.5625C 60.4805 18.3203 60.0039 19.707 59.0508 20.7227C 58.1055 21.7305 56.7812 22.2344 55.0781 22.2344C 53.5703 22.2344 52.3398 21.8164 51.3867 20.9805C 50.4336 20.1445 49.8906 18.9883 49.7578 17.5117L 51.8086 17.5117C 51.9414 18.4883 52.2891 19.2266 52.8516 19.7266C 53.4141 20.2188 54.1562 20.4648 55.0781 20.4648C 56.0859 20.4648 56.875 20.1211 57.4453 19.4336C 58.0234 18.7461 58.3125 17.7969 58.3125 16.5859C 58.3125 15.4453 58 14.5312 57.375 13.8438C 56.7578 13.1484 55.9336 12.8008 54.9023 12.8008C 53.957 12.8008 53.2148 13.0078 52.6758 13.4219L 52.1016 13.8906L 50.3672 13.4453Z"/>
<path id="path27_fill" d="M 1.98047 22L 1.98047 4.9375L 6.79688 4.9375C 8.28125 4.9375 9.59375 5.26562 10.7344 5.92188C 11.875 6.57812 12.7539 7.51172 13.3711 8.72266C 13.9961 9.93359 14.3125 11.3242 14.3203 12.8945L 14.3203 13.9844C 14.3203 15.5938 14.0078 17.0039 13.3828 18.2148C 12.7656 19.4258 11.8789 20.3555 10.7227 21.0039C 9.57422 21.6523 8.23438 21.9844 6.70312 22L 1.98047 22ZM 4.23047 6.78906L 4.23047 20.1602L 6.59766 20.1602C 8.33203 20.1602 9.67969 19.6211 10.6406 18.543C 11.6094 17.4648 12.0938 15.9297 12.0938 13.9375L 12.0938 12.9414C 12.0938 11.0039 11.6367 9.5 10.7227 8.42969C 9.81641 7.35156 8.52734 6.80469 6.85547 6.78906L 4.23047 6.78906ZM 16.8164 15.543C 16.8164 14.3008 17.0586 13.1836 17.543 12.1914C 18.0352 11.1992 18.7148 10.4336 19.582 9.89453C 20.457 9.35547 21.4531 9.08594 22.5703 9.08594C 24.2969 9.08594 25.6914 9.68359 26.7539 10.8789C 27.8242 12.0742 28.3594 13.6641 28.3594 15.6484L 28.3594 15.8008C 28.3594 17.0352 28.1211 18.1445 27.6445 19.1289C 27.1758 20.1055 26.5 20.8672 25.6172 21.4141C 24.7422 21.9609 23.7344 22.2344 22.5938 22.2344C 20.875 22.2344 19.4805 21.6367 18.4102 20.4414C 17.3477 19.2461 16.8164 17.6641 16.8164 15.6953L 16.8164 15.543ZM 18.9961 15.8008C 18.9961 17.207 19.3203 18.3359 19.9688 19.1875C 20.625 20.0391 21.5 20.4648 22.5938 20.4648C 23.6953 20.4648 24.5703 20.0352 25.2188 19.1758C 25.8672 18.3086 26.1914 17.0977 26.1914 15.543C 26.1914 14.1523 25.8594 13.0273 25.1953 12.168C 24.5391 11.3008 23.6641 10.8672 22.5703 10.8672C 21.5 10.8672 20.6367 11.293 19.9805 12.1445C 19.3242 12.9961 18.9961 14.2148 18.9961 15.8008ZM 36.1641 20.4648C 36.9375 20.4648 37.6133 20.2305 38.1914 19.7617C 38.7695 19.293 39.0898 18.707 39.1523 18.0039L 41.2031 18.0039C 41.1641 18.7305 40.9141 19.4219 40.4531 20.0781C 39.9922 20.7344 39.375 21.2578 38.6016 21.6484C 37.8359 22.0391 37.0234 22.2344 36.1641 22.2344C 34.4375 22.2344 33.0625 21.6602 32.0391 20.5117C 31.0234 19.3555 30.5156 17.7773 30.5156 15.7773L 30.5156 15.4141C 30.5156 14.1797 30.7422 13.082 31.1953 12.1211C 31.6484 11.1602 32.2969 10.4141 33.1406 9.88281C 33.9922 9.35156 34.9961 9.08594 36.1523 9.08594C 37.5742 9.08594 38.7539 9.51172 39.6914 10.3633C 40.6367 11.2148 41.1406 12.3203 41.2031 13.6797L 39.1523 13.6797C 39.0898 12.8594 38.7773 12.1875 38.2148 11.6641C 37.6602 11.1328 36.9727 10.8672 36.1523 10.8672C 35.0508 10.8672 34.1953 11.2656 33.5859 12.0625C 32.9844 12.8516 32.6836 13.9961 32.6836 15.4961L 32.6836 15.9062C 32.6836 17.3672 32.9844 18.4922 33.5859 19.2812C 34.1875 20.0703 35.0469 20.4648 36.1641 20.4648ZM 57.8789 4.92578L 57.8789 6.76562L 57.4805 6.76562C 55.793 6.79688 54.4492 7.29687 53.4492 8.26562C 52.4492 9.23438 51.8711 10.5977 51.7148 12.3555C 52.6133 11.3242 53.8398 10.8086 55.3945 10.8086C 56.8789 10.8086 58.0625 11.332 58.9453 12.3789C 59.8359 13.4258 60.2812 14.7773 60.2812 16.4336C 60.2812 18.1914 59.8008 19.5977 58.8398 20.6523C 57.8867 21.707 56.6055 22.2344 54.9961 22.2344C 53.3633 22.2344 52.0391 21.6094 51.0234 20.3594C 50.0078 19.1016 49.5 17.4844 49.5 15.5078L 49.5 14.6758C 49.5 11.5352 50.168 9.13672 51.5039 7.48047C 52.8477 5.81641 54.8438 4.96484 57.4922 4.92578L 57.8789 4.92578ZM 55.0312 12.6133C 54.2891 12.6133 53.6055 12.8359 52.9805 13.2812C 52.3555 13.7266 51.9219 14.2852 51.6797 14.957L 51.6797 15.7539C 51.6797 17.1602 51.9961 18.293 52.6289 19.1523C 53.2617 20.0117 54.0508 20.4414 54.9961 20.4414C 55.9727 20.4414 56.7383 20.082 57.293 19.3633C 57.8555 18.6445 58.1367 17.7031 58.1367 16.5391C 58.1367 15.3672 57.8516 14.4219 57.2812 13.7031C 56.7188 12.9766 55.9688 12.6133 55.0312 12.6133Z"/>
<path id="path28_fill" d="M 8.54297 22L 6.36328 22L 6.36328 7.55078L 1.99219 9.15625L 1.99219 7.1875L 8.20312 4.85547L 8.54297 4.85547L 8.54297 22ZM 25.5938 14.7227C 25.5938 17.2617 25.1602 19.1484 24.293 20.3828C 23.4258 21.6172 22.0703 22.2344 20.2266 22.2344C 18.4062 22.2344 17.0586 21.6328 16.1836 20.4297C 15.3086 19.2188 14.8555 17.4141 14.8242 15.0156L 14.8242 12.1211C 14.8242 9.61328 15.2578 7.75 16.125 6.53125C 16.9922 5.3125 18.3516 4.70312 20.2031 4.70312C 22.0391 4.70312 23.3906 5.29297 24.2578 6.47266C 25.125 7.64453 25.5703 9.45703 25.5938 11.9102L 25.5938 14.7227ZM 23.4258 11.7578C 23.4258 9.92188 23.168 8.58594 22.6523 7.75C 22.1367 6.90625 21.3203 6.48438 20.2031 6.48438C 19.0938 6.48438 18.2852 6.90234 17.7773 7.73828C 17.2695 8.57422 17.0078 9.85938 16.9922 11.5938L 16.9922 15.0625C 16.9922 16.9062 17.2578 18.2695 17.7891 19.1523C 18.3281 20.0273 19.1406 20.4648 20.2266 20.4648C 21.2969 20.4648 22.0898 20.0508 22.6055 19.2227C 23.1289 18.3945 23.4023 17.0898 23.4258 15.3086L 23.4258 11.7578ZM 36.5859 9.32031L 36.6445 10.7266C 37.5742 9.63281 38.8281 9.08594 40.4062 9.08594C 42.1797 9.08594 43.3867 9.76562 44.0273 11.125C 44.4492 10.5156 44.9961 10.0234 45.668 9.64844C 46.3477 9.27344 47.1484 9.08594 48.0703 9.08594C 50.8516 9.08594 52.2656 10.5586 52.3125 13.5039L 52.3125 22L 50.1445 22L 50.1445 13.6328C 50.1445 12.7266 49.9375 12.0508 49.5234 11.6055C 49.1094 11.1523 48.4141 10.9258 47.4375 10.9258C 46.6328 10.9258 45.9648 11.168 45.4336 11.6523C 44.9023 12.1289 44.5938 12.7734 44.5078 13.5859L 44.5078 22L 42.3281 22L 42.3281 13.6914C 42.3281 11.8477 41.4258 10.9258 39.6211 10.9258C 38.1992 10.9258 37.2266 11.5312 36.7031 12.7422L 36.7031 22L 34.5352 22L 34.5352 9.32031L 36.5859 9.32031ZM 57.9492 22L 55.7812 22L 55.7812 9.32031L 57.9492 9.32031L 57.9492 22ZM 55.6055 5.95703C 55.6055 5.60547 55.7109 5.30859 55.9219 5.06641C 56.1406 4.82422 56.4609 4.70312 56.8828 4.70312C 57.3047 4.70312 57.625 4.82422 57.8438 5.06641C 58.0625 5.30859 58.1719 5.60547 58.1719 5.95703C 58.1719 6.30859 58.0625 6.60156 57.8438 6.83594C 57.625 7.07031 57.3047 7.1875 56.8828 7.1875C 56.4609 7.1875 56.1406 7.07031 55.9219 6.83594C 55.7109 6.60156 55.6055 6.30859 55.6055 5.95703ZM 63.4805 9.32031L 63.5508 10.9141C 64.5195 9.69531 65.7852 9.08594 67.3477 9.08594C 70.0273 9.08594 71.3789 10.5977 71.4023 13.6211L 71.4023 22L 69.2344 22L 69.2344 13.6094C 69.2266 12.6953 69.0156 12.0195 68.6016 11.582C 68.1953 11.1445 67.5586 10.9258 66.6914 10.9258C 65.9883 10.9258 65.3711 11.1133 64.8398 11.4883C 64.3086 11.8633 63.8945 12.3555 63.5977 12.9648L 63.5977 22L 61.4297 22L 61.4297 9.32031L 63.4805 9.32031ZM 82.0547 18.6367C 82.0547 18.0508 81.832 17.5977 81.3867 17.2773C 80.9492 16.9492 80.1797 16.668 79.0781 16.4336C 77.9844 16.1992 77.1133 15.918 76.4648 15.5898C 75.8242 15.2617 75.3477 14.8711 75.0352 14.418C 74.7305 13.9648 74.5781 13.4258 74.5781 12.8008C 74.5781 11.7617 75.0156 10.8828 75.8906 10.1641C 76.7734 9.44531 77.8984 9.08594 79.2656 9.08594C 80.7031 9.08594 81.8672 9.45703 82.7578 10.1992C 83.6562 10.9414 84.1055 11.8906 84.1055 13.0469L 81.9258 13.0469C 81.9258 12.4531 81.6719 11.9414 81.1641 11.5117C 80.6641 11.082 80.0312 10.8672 79.2656 10.8672C 78.4766 10.8672 77.8594 11.0391 77.4141 11.3828C 76.9688 11.7266 76.7461 12.1758 76.7461 12.7305C 76.7461 13.2539 76.9531 13.6484 77.3672 13.9141C 77.7812 14.1797 78.5273 14.4336 79.6055 14.6758C 80.6914 14.918 81.5703 15.207 82.2422 15.543C 82.9141 15.8789 83.4102 16.2852 83.7305 16.7617C 84.0586 17.2305 84.2227 17.8047 84.2227 18.4844C 84.2227 19.6172 83.7695 20.5273 82.8633 21.2148C 81.957 21.8945 80.7812 22.2344 79.3359 22.2344C 78.3203 22.2344 77.4219 22.0547 76.6406 21.6953C 75.8594 21.3359 75.2461 20.8359 74.8008 20.1953C 74.3633 19.5469 74.1445 18.8477 74.1445 18.0977L 76.3125 18.0977C 76.3516 18.8242 76.6406 19.4023 77.1797 19.832C 77.7266 20.2539 78.4453 20.4648 79.3359 20.4648C 80.1562 20.4648 80.8125 20.3008 81.3047 19.9727C 81.8047 19.6367 82.0547 19.1914 82.0547 18.6367Z"/>
<path id="path29_fill" d="M 1.98047 22L 1.98047 4.9375L 6.79688 4.9375C 8.28125 4.9375 9.59375 5.26562 10.7344 5.92188C 11.875 6.57812 12.7539 7.51172 13.3711 8.72266C 13.9961 9.93359 14.3125 11.3242 14.3203 12.8945L 14.3203 13.9844C 14.3203 15.5938 14.0078 17.0039 13.3828 18.2148C 12.7656 19.4258 11.8789 20.3555 10.7227 21.0039C 9.57422 21.6523 8.23438 21.9844 6.70312 22L 1.98047 22ZM 4.23047 6.78906L 4.23047 20.1602L 6.59766 20.1602C 8.33203 20.1602 9.67969 19.6211 10.6406 18.543C 11.6094 17.4648 12.0938 15.9297 12.0938 13.9375L 12.0938 12.9414C 12.0938 11.0039 11.6367 9.5 10.7227 8.42969C 9.81641 7.35156 8.52734 6.80469 6.85547 6.78906L 4.23047 6.78906ZM 16.8164 15.543C 16.8164 14.3008 17.0586 13.1836 17.543 12.1914C 18.0352 11.1992 18.7148 10.4336 19.582 9.89453C 20.457 9.35547 21.4531 9.08594 22.5703 9.08594C 24.2969 9.08594 25.6914 9.68359 26.7539 10.8789C 27.8242 12.0742 28.3594 13.6641 28.3594 15.6484L 28.3594 15.8008C 28.3594 17.0352 28.1211 18.1445 27.6445 19.1289C 27.1758 20.1055 26.5 20.8672 25.6172 21.4141C 24.7422 21.9609 23.7344 22.2344 22.5938 22.2344C 20.875 22.2344 19.4805 21.6367 18.4102 20.4414C 17.3477 19.2461 16.8164 17.6641 16.8164 15.6953L 16.8164 15.543ZM 18.9961 15.8008C 18.9961 17.207 19.3203 18.3359 19.9688 19.1875C 20.625 20.0391 21.5 20.4648 22.5938 20.4648C 23.6953 20.4648 24.5703 20.0352 25.2188 19.1758C 25.8672 18.3086 26.1914 17.0977 26.1914 15.543C 26.1914 14.1523 25.8594 13.0273 25.1953 12.168C 24.5391 11.3008 23.6641 10.8672 22.5703 10.8672C 21.5 10.8672 20.6367 11.293 19.9805 12.1445C 19.3242 12.9961 18.9961 14.2148 18.9961 15.8008ZM 36.1641 20.4648C 36.9375 20.4648 37.6133 20.2305 38.1914 19.7617C 38.7695 19.293 39.0898 18.707 39.1523 18.0039L 41.2031 18.0039C 41.1641 18.7305 40.9141 19.4219 40.4531 20.0781C 39.9922 20.7344 39.375 21.2578 38.6016 21.6484C 37.8359 22.0391 37.0234 22.2344 36.1641 22.2344C 34.4375 22.2344 33.0625 21.6602 32.0391 20.5117C 31.0234 19.3555 30.5156 17.7773 30.5156 15.7773L 30.5156 15.4141C 30.5156 14.1797 30.7422 13.082 31.1953 12.1211C 31.6484 11.1602 32.2969 10.4141 33.1406 9.88281C 33.9922 9.35156 34.9961 9.08594 36.1523 9.08594C 37.5742 9.08594 38.7539 9.51172 39.6914 10.3633C 40.6367 11.2148 41.1406 12.3203 41.2031 13.6797L 39.1523 13.6797C 39.0898 12.8594 38.7773 12.1875 38.2148 11.6641C 37.6602 11.1328 36.9727 10.8672 36.1523 10.8672C 35.0508 10.8672 34.1953 11.2656 33.5859 12.0625C 32.9844 12.8516 32.6836 13.9961 32.6836 15.4961L 32.6836 15.9062C 32.6836 17.3672 32.9844 18.4922 33.5859 19.2812C 34.1875 20.0703 35.0469 20.4648 36.1641 20.4648ZM 60.3867 6.15625L 53.3203 22L 51.0469 22L 58.0898 6.71875L 48.8555 6.71875L 48.8555 4.9375L 60.3867 4.9375L 60.3867 6.15625Z"/>
<path id="path30_fill" d="M 1.98047 22L 1.98047 4.9375L 6.79688 4.9375C 8.28125 4.9375 9.59375 5.26562 10.7344 5.92188C 11.875 6.57812 12.7539 7.51172 13.3711 8.72266C 13.9961 9.93359 14.3125 11.3242 14.3203 12.8945L 14.3203 13.9844C 14.3203 15.5938 14.0078 17.0039 13.3828 18.2148C 12.7656 19.4258 11.8789 20.3555 10.7227 21.0039C 9.57422 21.6523 8.23438 21.9844 6.70312 22L 1.98047 22ZM 4.23047 6.78906L 4.23047 20.1602L 6.59766 20.1602C 8.33203 20.1602 9.67969 19.6211 10.6406 18.543C 11.6094 17.4648 12.0938 15.9297 12.0938 13.9375L 12.0938 12.9414C 12.0938 11.0039 11.6367 9.5 10.7227 8.42969C 9.81641 7.35156 8.52734 6.80469 6.85547 6.78906L 4.23047 6.78906ZM 16.8164 15.543C 16.8164 14.3008 17.0586 13.1836 17.543 12.1914C 18.0352 11.1992 18.7148 10.4336 19.582 9.89453C 20.457 9.35547 21.4531 9.08594 22.5703 9.08594C 24.2969 9.08594 25.6914 9.68359 26.7539 10.8789C 27.8242 12.0742 28.3594 13.6641 28.3594 15.6484L 28.3594 15.8008C 28.3594 17.0352 28.1211 18.1445 27.6445 19.1289C 27.1758 20.1055 26.5 20.8672 25.6172 21.4141C 24.7422 21.9609 23.7344 22.2344 22.5938 22.2344C 20.875 22.2344 19.4805 21.6367 18.4102 20.4414C 17.3477 19.2461 16.8164 17.6641 16.8164 15.6953L 16.8164 15.543ZM 18.9961 15.8008C 18.9961 17.207 19.3203 18.3359 19.9688 19.1875C 20.625 20.0391 21.5 20.4648 22.5938 20.4648C 23.6953 20.4648 24.5703 20.0352 25.2188 19.1758C 25.8672 18.3086 26.1914 17.0977 26.1914 15.543C 26.1914 14.1523 25.8594 13.0273 25.1953 12.168C 24.5391 11.3008 23.6641 10.8672 22.5703 10.8672C 21.5 10.8672 20.6367 11.293 19.9805 12.1445C 19.3242 12.9961 18.9961 14.2148 18.9961 15.8008ZM 36.1641 20.4648C 36.9375 20.4648 37.6133 20.2305 38.1914 19.7617C 38.7695 19.293 39.0898 18.707 39.1523 18.0039L 41.2031 18.0039C 41.1641 18.7305 40.9141 19.4219 40.4531 20.0781C 39.9922 20.7344 39.375 21.2578 38.6016 21.6484C 37.8359 22.0391 37.0234 22.2344 36.1641 22.2344C 34.4375 22.2344 33.0625 21.6602 32.0391 20.5117C 31.0234 19.3555 30.5156 17.7773 30.5156 15.7773L 30.5156 15.4141C 30.5156 14.1797 30.7422 13.082 31.1953 12.1211C 31.6484 11.1602 32.2969 10.4141 33.1406 9.88281C 33.9922 9.35156 34.9961 9.08594 36.1523 9.08594C 37.5742 9.08594 38.7539 9.51172 39.6914 10.3633C 40.6367 11.2148 41.1406 12.3203 41.2031 13.6797L 39.1523 13.6797C 39.0898 12.8594 38.7773 12.1875 38.2148 11.6641C 37.6602 11.1328 36.9727 10.8672 36.1523 10.8672C 35.0508 10.8672 34.1953 11.2656 33.5859 12.0625C 32.9844 12.8516 32.6836 13.9961 32.6836 15.4961L 32.6836 15.9062C 32.6836 17.3672 32.9844 18.4922 33.5859 19.2812C 34.1875 20.0703 35.0469 20.4648 36.1641 20.4648ZM 59.7188 9.39062C 59.7188 10.2422 59.4922 11 59.0391 11.6641C 58.5938 12.3281 57.9883 12.8477 57.2227 13.2227C 58.1133 13.6055 58.8164 14.1641 59.332 14.8984C 59.8555 15.6328 60.1172 16.4648 60.1172 17.3945C 60.1172 18.8711 59.6172 20.0469 58.6172 20.9219C 57.625 21.7969 56.3164 22.2344 54.6914 22.2344C 53.0508 22.2344 51.7344 21.7969 50.7422 20.9219C 49.7578 20.0391 49.2656 18.8633 49.2656 17.3945C 49.2656 16.4727 49.5156 15.6406 50.0156 14.8984C 50.5234 14.1562 51.2227 13.5938 52.1133 13.2109C 51.3555 12.8359 50.7578 12.3164 50.3203 11.6523C 49.8828 10.9883 49.6641 10.2344 49.6641 9.39062C 49.6641 7.95312 50.125 6.8125 51.0469 5.96875C 51.9688 5.125 53.1836 4.70312 54.6914 4.70312C 56.1914 4.70312 57.4023 5.125 58.3242 5.96875C 59.2539 6.8125 59.7188 7.95312 59.7188 9.39062ZM 57.9492 17.3477C 57.9492 16.3945 57.6445 15.6172 57.0352 15.0156C 56.4336 14.4141 55.6445 14.1133 54.668 14.1133C 53.6914 14.1133 52.9062 14.4102 52.3125 15.0039C 51.7266 15.5977 51.4336 16.3789 51.4336 17.3477C 51.4336 18.3164 51.7188 19.0781 52.2891 19.6328C 52.8672 20.1875 53.668 20.4648 54.6914 20.4648C 55.707 20.4648 56.5039 20.1875 57.082 19.6328C 57.6602 19.0703 57.9492 18.3086 57.9492 17.3477ZM 54.6914 6.48438C 53.8398 6.48438 53.1484 6.75 52.6172 7.28125C 52.0938 7.80469 51.832 8.51953 51.832 9.42578C 51.832 10.293 52.0898 10.9961 52.6055 11.5352C 53.1289 12.0664 53.8242 12.332 54.6914 12.332C 55.5586 12.332 56.25 12.0664 56.7656 11.5352C 57.2891 10.9961 57.5508 10.293 57.5508 9.42578C 57.5508 8.55859 57.2812 7.85156 56.7422 7.30469C 56.2031 6.75781 55.5195 6.48438 54.6914 6.48438Z"/>
<path id="path31_fill" d="M 1.98047 22L 1.98047 4.9375L 6.79688 4.9375C 8.28125 4.9375 9.59375 5.26562 10.7344 5.92188C 11.875 6.57812 12.7539 7.51172 13.3711 8.72266C 13.9961 9.93359 14.3125 11.3242 14.3203 12.8945L 14.3203 13.9844C 14.3203 15.5938 14.0078 17.0039 13.3828 18.2148C 12.7656 19.4258 11.8789 20.3555 10.7227 21.0039C 9.57422 21.6523 8.23438 21.9844 6.70312 22L 1.98047 22ZM 4.23047 6.78906L 4.23047 20.1602L 6.59766 20.1602C 8.33203 20.1602 9.67969 19.6211 10.6406 18.543C 11.6094 17.4648 12.0938 15.9297 12.0938 13.9375L 12.0938 12.9414C 12.0938 11.0039 11.6367 9.5 10.7227 8.42969C 9.81641 7.35156 8.52734 6.80469 6.85547 6.78906L 4.23047 6.78906ZM 16.8164 15.543C 16.8164 14.3008 17.0586 13.1836 17.543 12.1914C 18.0352 11.1992 18.7148 10.4336 19.582 9.89453C 20.457 9.35547 21.4531 9.08594 22.5703 9.08594C 24.2969 9.08594 25.6914 9.68359 26.7539 10.8789C 27.8242 12.0742 28.3594 13.6641 28.3594 15.6484L 28.3594 15.8008C 28.3594 17.0352 28.1211 18.1445 27.6445 19.1289C 27.1758 20.1055 26.5 20.8672 25.6172 21.4141C 24.7422 21.9609 23.7344 22.2344 22.5938 22.2344C 20.875 22.2344 19.4805 21.6367 18.4102 20.4414C 17.3477 19.2461 16.8164 17.6641 16.8164 15.6953L 16.8164 15.543ZM 18.9961 15.8008C 18.9961 17.207 19.3203 18.3359 19.9688 19.1875C 20.625 20.0391 21.5 20.4648 22.5938 20.4648C 23.6953 20.4648 24.5703 20.0352 25.2188 19.1758C 25.8672 18.3086 26.1914 17.0977 26.1914 15.543C 26.1914 14.1523 25.8594 13.0273 25.1953 12.168C 24.5391 11.3008 23.6641 10.8672 22.5703 10.8672C 21.5 10.8672 20.6367 11.293 19.9805 12.1445C 19.3242 12.9961 18.9961 14.2148 18.9961 15.8008ZM 36.1641 20.4648C 36.9375 20.4648 37.6133 20.2305 38.1914 19.7617C 38.7695 19.293 39.0898 18.707 39.1523 18.0039L 41.2031 18.0039C 41.1641 18.7305 40.9141 19.4219 40.4531 20.0781C 39.9922 20.7344 39.375 21.2578 38.6016 21.6484C 37.8359 22.0391 37.0234 22.2344 36.1641 22.2344C 34.4375 22.2344 33.0625 21.6602 32.0391 20.5117C 31.0234 19.3555 30.5156 17.7773 30.5156 15.7773L 30.5156 15.4141C 30.5156 14.1797 30.7422 13.082 31.1953 12.1211C 31.6484 11.1602 32.2969 10.4141 33.1406 9.88281C 33.9922 9.35156 34.9961 9.08594 36.1523 9.08594C 37.5742 9.08594 38.7539 9.51172 39.6914 10.3633C 40.6367 11.2148 41.1406 12.3203 41.2031 13.6797L 39.1523 13.6797C 39.0898 12.8594 38.7773 12.1875 38.2148 11.6641C 37.6602 11.1328 36.9727 10.8672 36.1523 10.8672C 35.0508 10.8672 34.1953 11.2656 33.5859 12.0625C 32.9844 12.8516 32.6836 13.9961 32.6836 15.4961L 32.6836 15.9062C 32.6836 17.3672 32.9844 18.4922 33.5859 19.2812C 34.1875 20.0703 35.0469 20.4648 36.1641 20.4648ZM 57.6797 14.5C 57.2266 15.0391 56.6836 15.4727 56.0508 15.8008C 55.4258 16.1289 54.7383 16.293 53.9883 16.293C 53.0039 16.293 52.1445 16.0508 51.4102 15.5664C 50.6836 15.082 50.1211 14.4023 49.7227 13.5273C 49.3242 12.6445 49.125 11.6719 49.125 10.6094C 49.125 9.46875 49.3398 8.44141 49.7695 7.52734C 50.207 6.61328 50.8242 5.91406 51.6211 5.42969C 52.418 4.94531 53.3477 4.70312 54.4102 4.70312C 56.0977 4.70312 57.4258 5.33594 58.3945 6.60156C 59.3711 7.85937 59.8594 9.57812 59.8594 11.7578L 59.8594 12.3906C 59.8594 15.7109 59.2031 18.1367 57.8906 19.668C 56.5781 21.1914 54.5977 21.9727 51.9492 22.0117L 51.5273 22.0117L 51.5273 20.1836L 51.9844 20.1836C 53.7734 20.1523 55.1484 19.6875 56.1094 18.7891C 57.0703 17.8828 57.5938 16.4531 57.6797 14.5ZM 54.3398 14.5C 55.0664 14.5 55.7344 14.2773 56.3438 13.832C 56.9609 13.3867 57.4102 12.8359 57.6914 12.1797L 57.6914 11.3125C 57.6914 9.89062 57.3828 8.73438 56.7656 7.84375C 56.1484 6.95312 55.3672 6.50781 54.4219 6.50781C 53.4688 6.50781 52.7031 6.875 52.125 7.60938C 51.5469 8.33594 51.2578 9.29688 51.2578 10.4922C 51.2578 11.6562 51.5352 12.6172 52.0898 13.375C 52.6523 14.125 53.4023 14.5 54.3398 14.5Z"/>
</defs>
</svg>
