<svg width="833" height="251" viewBox="0 0 833 251" version="1.1" xmlns="http://www.w3.org/2000/svg" xmlns:xlink="http://www.w3.org/1999/xlink" xmlns:figma="http://www.figma.com/figma/ns">
<title>modulo_remainder</title>
<desc>Created using Figma</desc>
<g id="Canvas" transform="translate(534 528)" figma:type="canvas">
<g id="5 % 2" figma:type="text">
<use xlink:href="#path0_fill" transform="translate(-535 -420)"/>
</g>
<g id="Arrow" figma:type="vector">
<use xlink:href="#path1_stroke" transform="translate(-453 -406)"/>
</g>
<g id="Rectangle" figma:type="rounded-rectangle">
<use xlink:href="#path2_fill" transform="translate(-315 -528)" fill="#C4C4C4"/>
</g>
<g id="Rectangle" figma:type="rounded-rectangle">
<use xlink:href="#path2_fill" transform="translate(-315 -478)" fill="#C4C4C4"/>
</g>
<g id="Rectangle" figma:type="rounded-rectangle">
<use xlink:href="#path2_fill" transform="translate(-152 -453)" fill="#6FCF97"/>
</g>
<g id="Rectangle" figma:type="rounded-rectangle">
<use xlink:href="#path2_fill" transform="translate(-152 -403)" fill="#6FCF97"/>
</g>
<g id="2" figma:type="text">
<use xlink:href="#path3_fill" transform="translate(-134 -420)" fill="#F2F2F2"/>
</g>
<g id="Rectangle" figma:type="rounded-rectangle">
<use xlink:href="#path2_fill" transform="translate(-315 -428)" fill="#C4C4C4"/>
</g>
<g id="Rectangle" figma:type="rounded-rectangle">
<use xlink:href="#path2_fill" transform="translate(-315 -378)" fill="#C4C4C4"/>
</g>
<g id="Rectangle" figma:type="rounded-rectangle">
<use xlink:href="#path2_fill" transform="translate(-315 -328)" fill="#C4C4C4"/>
</g>
<g id="%" figma:type="text">
<use xlink:href="#path4_fill" transform="translate(-218 -416)"/>
</g>
<g id="5" figma:type="text">
<use xlink:href="#path5_fill" transform="translate(-298 -420)"/>
</g>
<g id="Rectangle" figma:type="rounded-rectangle">
<use xlink:href="#path2_fill" transform="translate(48 -527)" fill="#C4C4C4"/>
</g>
<g id="Rectangle" figma:type="rounded-rectangle">
<use xlink:href="#path2_fill" transform="translate(48 -477)" fill="#C4C4C4"/>
</g>
<g id="Rectangle" figma:type="rounded-rectangle">
<use xlink:href="#path2_fill" transform="translate(48 -427)" fill="#C4C4C4"/>
</g>
<g id="Rectangle" figma:type="rounded-rectangle">
<use xlink:href="#path2_fill" transform="translate(48 -377)" fill="#C4C4C4"/>
</g>
<g id="Rectangle" figma:type="rounded-rectangle">
<use xlink:href="#path2_fill" transform="translate(48 -327)" fill="#C4C4C4"/>
</g>
<g id="Arrow 2" figma:type="vector">
<use xlink:href="#path6_stroke" transform="translate(-80 -406)"/>
</g>
<g id="Rectangle" figma:type="rounded-rectangle">
<use xlink:href="#path2_fill" transform="translate(48 -378)" fill="#6FCF97"/>
</g>
<g id="Rectangle" figma:type="rounded-rectangle">
<use xlink:href="#path2_fill" transform="translate(48 -328)" fill="#6FCF97"/>
</g>
<g id="2" figma:type="text">
<use xlink:href="#path3_fill" transform="translate(66 -345)" fill="#F2F2F2"/>
</g>
<g id="Rectangle" figma:type="rounded-rectangle">
<use xlink:href="#path2_fill" transform="translate(48 -478)" fill="#6FCF97"/>
</g>
<g id="Rectangle" figma:type="rounded-rectangle">
<use xlink:href="#path2_fill" transform="translate(48 -428)" fill="#6FCF97"/>
</g>
<g id="2" figma:type="text">
<use xlink:href="#path3_fill" transform="translate(66 -445)" fill="#F2F2F2"/>
</g>
<g id="1" figma:type="text">
<use xlink:href="#path7_fill" transform="translate(66 -516)"/>
</g>
<g id="Arrow 3" figma:type="vector">
<use xlink:href="#path8_stroke" transform="translate(125 -406)"/>
</g>
<g id="1" figma:type="text">
<use xlink:href="#path7_fill" transform="translate(290 -419)"/>
</g>
</g>
<defs>
<path id="path0_fill" d="M 2.41406 13.4453L 3.28125 4.9375L 12.0234 4.9375L 12.0234 6.94141L 5.12109 6.94141L 4.60547 11.5938C 5.44141 11.1016 6.39062 10.8555 7.45312 10.8555C 9.00781 10.8555 10.2422 11.3711 11.1562 12.4023C 12.0703 13.4258 12.5273 14.8125 12.5273 16.5625C 12.5273 18.3203 12.0508 19.707 11.0977 20.7227C 10.1523 21.7305 8.82812 22.2344 7.125 22.2344C 5.61719 22.2344 4.38672 21.8164 3.43359 20.9805C 2.48047 20.1445 1.9375 18.9883 1.80469 17.5117L 3.85547 17.5117C 3.98828 18.4883 4.33594 19.2266 4.89844 19.7266C 5.46094 20.2188 6.20312 20.4648 7.125 20.4648C 8.13281 20.4648 8.92188 20.1211 9.49219 19.4336C 10.0703 18.7461 10.3594 17.7969 10.3594 16.5859C 10.3594 15.4453 10.0469 14.5312 9.42188 13.8438C 8.80469 13.1484 7.98047 12.8008 6.94922 12.8008C 6.00391 12.8008 5.26172 13.0078 4.72266 13.4219L 4.14844 13.8906L 2.41406 13.4453ZM 20.6602 8.21875C 20.6602 7.19531 20.9844 6.35156 21.6328 5.6875C 22.2891 5.02344 23.1289 4.69141 24.1523 4.69141C 25.1914 4.69141 26.0312 5.02734 26.6719 5.69922C 27.3203 6.36328 27.6445 7.22656 27.6445 8.28906L 27.6445 9.12109C 27.6445 10.1523 27.3164 10.9961 26.6602 11.6523C 26.0117 12.3008 25.1836 12.625 24.1758 12.625C 23.1602 12.625 22.3203 12.3008 21.6562 11.6523C 20.9922 10.9961 20.6602 10.125 20.6602 9.03906L 20.6602 8.21875ZM 22.2773 9.12109C 22.2773 9.73047 22.4492 10.2344 22.793 10.6328C 23.1367 11.0234 23.5977 11.2188 24.1758 11.2188C 24.7305 11.2188 25.1758 11.0273 25.5117 10.6445C 25.8555 10.2617 26.0273 9.73828 26.0273 9.07422L 26.0273 8.21875C 26.0273 7.60938 25.8594 7.10547 25.5234 6.70703C 25.1875 6.30859 24.7305 6.10938 24.1523 6.10938C 23.5742 6.10938 23.1172 6.30859 22.7812 6.70703C 22.4453 7.10547 22.2773 7.625 22.2773 8.26562L 22.2773 9.12109ZM 28.9688 17.8164C 28.9688 16.793 29.293 15.9531 29.9414 15.2969C 30.5977 14.6328 31.4375 14.3008 32.4609 14.3008C 33.4844 14.3008 34.3242 14.6289 34.9805 15.2852C 35.6367 15.9414 35.9648 16.8125 35.9648 17.8984L 35.9648 18.7305C 35.9648 19.7539 35.6367 20.5977 34.9805 21.2617C 34.332 21.918 33.5 22.2461 32.4844 22.2461C 31.4688 22.2461 30.6289 21.9219 29.9648 21.2734C 29.3008 20.6172 28.9688 19.7461 28.9688 18.6602L 28.9688 17.8164ZM 30.5859 18.7305C 30.5859 19.3477 30.7578 19.8555 31.1016 20.2539C 31.4453 20.6445 31.9062 20.8398 32.4844 20.8398C 33.0469 20.8398 33.4961 20.6484 33.832 20.2656C 34.168 19.875 34.3359 19.3477 34.3359 18.6836L 34.3359 17.8164C 34.3359 17.1992 34.1641 16.6953 33.8203 16.3047C 33.4844 15.9141 33.0312 15.7188 32.4609 15.7188C 31.9062 15.7188 31.4531 15.9141 31.1016 16.3047C 30.7578 16.6875 30.5859 17.207 30.5859 17.8633L 30.5859 18.7305ZM 24.668 20.7109L 23.4375 19.9375L 31.7695 6.60156L 33 7.375L 24.668 20.7109ZM 55.5586 22L 44.3789 22L 44.3789 20.4414L 50.2852 13.8789C 51.1602 12.8867 51.7617 12.082 52.0898 11.4648C 52.4258 10.8398 52.5938 10.1953 52.5938 9.53125C 52.5938 8.64062 52.3242 7.91016 51.7852 7.33984C 51.2461 6.76953 50.5273 6.48438 49.6289 6.48438C 48.5508 6.48438 47.7109 6.79297 47.1094 7.41016C 46.5156 8.01953 46.2188 8.87109 46.2188 9.96484L 44.0508 9.96484C 44.0508 8.39453 44.5547 7.125 45.5625 6.15625C 46.5781 5.1875 47.9336 4.70312 49.6289 4.70312C 51.2148 4.70312 52.4688 5.12109 53.3906 5.95703C 54.3125 6.78516 54.7734 7.89062 54.7734 9.27344C 54.7734 10.9531 53.7031 12.9531 51.5625 15.2734L 46.9922 20.2305L 55.5586 20.2305L 55.5586 22Z"/>
<path id="path1_stroke" d="M 108.354 0.353553C 108.549 0.158291 108.549 -0.158291 108.354 -0.353553L 105.172 -3.53553C 104.976 -3.7308 104.66 -3.7308 104.464 -3.53553C 104.269 -3.34027 104.269 -3.02369 104.464 -2.82843L 107.293 0L 104.464 2.82843C 104.269 3.02369 104.269 3.34027 104.464 3.53553C 104.66 3.7308 104.976 3.7308 105.172 3.53553L 108.354 0.353553ZM 0 0.5L 108 0.5L 108 -0.5L 0 -0.5L 0 0.5Z"/>
<path id="path2_fill" d="M 0 0L 50 0L 50 50L 0 50L 0 0Z"/>
<path id="path3_fill" d="M 12.5977 22L 1.41797 22L 1.41797 20.4414L 7.32422 13.8789C 8.19922 12.8867 8.80078 12.082 9.12891 11.4648C 9.46484 10.8398 9.63281 10.1953 9.63281 9.53125C 9.63281 8.64062 9.36328 7.91016 8.82422 7.33984C 8.28516 6.76953 7.56641 6.48438 6.66797 6.48438C 5.58984 6.48438 4.75 6.79297 4.14844 7.41016C 3.55469 8.01953 3.25781 8.87109 3.25781 9.96484L 1.08984 9.96484C 1.08984 8.39453 1.59375 7.125 2.60156 6.15625C 3.61719 5.1875 4.97266 4.70312 6.66797 4.70312C 8.25391 4.70312 9.50781 5.12109 10.4297 5.95703C 11.3516 6.78516 11.8125 7.89062 11.8125 9.27344C 11.8125 10.9531 10.7422 12.9531 8.60156 15.2734L 4.03125 20.2305L 12.5977 20.2305L 12.5977 22Z"/>
<path id="path4_fill" d="M 1.23047 8.21875C 1.23047 7.19531 1.55469 6.35156 2.20312 5.6875C 2.85938 5.02344 3.69922 4.69141 4.72266 4.69141C 5.76172 4.69141 6.60156 5.02734 7.24219 5.69922C 7.89062 6.36328 8.21484 7.22656 8.21484 8.28906L 8.21484 9.12109C 8.21484 10.1523 7.88672 10.9961 7.23047 11.6523C 6.58203 12.3008 5.75391 12.625 4.74609 12.625C 3.73047 12.625 2.89062 12.3008 2.22656 11.6523C 1.5625 10.9961 1.23047 10.125 1.23047 9.03906L 1.23047 8.21875ZM 2.84766 9.12109C 2.84766 9.73047 3.01953 10.2344 3.36328 10.6328C 3.70703 11.0234 4.16797 11.2188 4.74609 11.2188C 5.30078 11.2188 5.74609 11.0273 6.08203 10.6445C 6.42578 10.2617 6.59766 9.73828 6.59766 9.07422L 6.59766 8.21875C 6.59766 7.60938 6.42969 7.10547 6.09375 6.70703C 5.75781 6.30859 5.30078 6.10938 4.72266 6.10938C 4.14453 6.10938 3.6875 6.30859 3.35156 6.70703C 3.01562 7.10547 2.84766 7.625 2.84766 8.26562L 2.84766 9.12109ZM 9.53906 17.8164C 9.53906 16.793 9.86328 15.9531 10.5117 15.2969C 11.168 14.6328 12.0078 14.3008 13.0312 14.3008C 14.0547 14.3008 14.8945 14.6289 15.5508 15.2852C 16.207 15.9414 16.5352 16.8125 16.5352 17.8984L 16.5352 18.7305C 16.5352 19.7539 16.207 20.5977 15.5508 21.2617C 14.9023 21.918 14.0703 22.2461 13.0547 22.2461C 12.0391 22.2461 11.1992 21.9219 10.5352 21.2734C 9.87109 20.6172 9.53906 19.7461 9.53906 18.6602L 9.53906 17.8164ZM 11.1562 18.7305C 11.1562 19.3477 11.3281 19.8555 11.6719 20.2539C 12.0156 20.6445 12.4766 20.8398 13.0547 20.8398C 13.6172 20.8398 14.0664 20.6484 14.4023 20.2656C 14.7383 19.875 14.9062 19.3477 14.9062 18.6836L 14.9062 17.8164C 14.9062 17.1992 14.7344 16.6953 14.3906 16.3047C 14.0547 15.9141 13.6016 15.7188 13.0312 15.7188C 12.4766 15.7188 12.0234 15.9141 11.6719 16.3047C 11.3281 16.6875 11.1562 17.207 11.1562 17.8633L 11.1562 18.7305ZM 5.23828 20.7109L 4.00781 19.9375L 12.3398 6.60156L 13.5703 7.375L 5.23828 20.7109Z"/>
<path id="path5_fill" d="M 2.41406 13.4453L 3.28125 4.9375L 12.0234 4.9375L 12.0234 6.94141L 5.12109 6.94141L 4.60547 11.5938C 5.44141 11.1016 6.39062 10.8555 7.45312 10.8555C 9.00781 10.8555 10.2422 11.3711 11.1562 12.4023C 12.0703 13.4258 12.5273 14.8125 12.5273 16.5625C 12.5273 18.3203 12.0508 19.707 11.0977 20.7227C 10.1523 21.7305 8.82812 22.2344 7.125 22.2344C 5.61719 22.2344 4.38672 21.8164 3.43359 20.9805C 2.48047 20.1445 1.9375 18.9883 1.80469 17.5117L 3.85547 17.5117C 3.98828 18.4883 4.33594 19.2266 4.89844 19.7266C 5.46094 20.2188 6.20312 20.4648 7.125 20.4648C 8.13281 20.4648 8.92188 20.1211 9.49219 19.4336C 10.0703 18.7461 10.3594 17.7969 10.3594 16.5859C 10.3594 15.4453 10.0469 14.5312 9.42188 13.8438C 8.80469 13.1484 7.98047 12.8008 6.94922 12.8008C 6.00391 12.8008 5.26172 13.0078 4.72266 13.4219L 4.14844 13.8906L 2.41406 13.4453Z"/>
<path id="path6_stroke" d="M 96.3536 0.353553C 96.5488 0.158291 96.5488 -0.158291 96.3536 -0.353553L 93.1716 -3.53553C 92.9763 -3.7308 92.6597 -3.7308 92.4645 -3.53553C 92.2692 -3.34027 92.2692 -3.02369 92.4645 -2.82843L 95.2929 0L 92.4645 2.82843C 92.2692 3.02369 92.2692 3.34027 92.4645 3.53553C 92.6597 3.7308 92.9763 3.7308 93.1716 3.53553L 96.3536 0.353553ZM 0 0.5L 96 0.5L 96 -0.5L 0 -0.5L 0 0.5Z"/>
<path id="path7_fill" d="M 8.54297 22L 6.36328 22L 6.36328 7.55078L 1.99219 9.15625L 1.99219 7.1875L 8.20312 4.85547L 8.54297 4.85547L 8.54297 22Z"/>
<path id="path8_stroke" d="M 123.354 0.353553C 123.549 0.158291 123.549 -0.158291 123.354 -0.353553L 120.172 -3.53553C 119.976 -3.7308 119.66 -3.7308 119.464 -3.53553C 119.269 -3.34027 119.269 -3.02369 119.464 -2.82843L 122.293 0L 119.464 2.82843C 119.269 3.02369 119.269 3.34027 119.464 3.53553C 119.66 3.7308 119.976 3.7308 120.172 3.53553L 123.354 0.353553ZM 0 0.5L 123 0.5L 123 -0.5L 0 -0.5L 0 0.5Z"/>
</defs>
</svg>
