<svg width="474" height="129" viewBox="0 0 474 129" version="1.1" xmlns="http://www.w3.org/2000/svg" xmlns:xlink="http://www.w3.org/1999/xlink" xmlns:figma="http://www.figma.com/figma/ns">
<title>arrays_ll</title>
<desc>Created using Figma</desc>
<g id="Canvas" transform="translate(292 394)" figma:type="canvas">
<g id="Array" figma:type="text">
<use xlink:href="#path0_fill" transform="translate(-233 -383)"/>
</g>
<g id="Rectangle" figma:type="rounded-rectangle">
<use xlink:href="#path1_fill" transform="translate(-122 -394)" fill="#C4C4C4"/>
</g>
<g id="1" figma:type="text">
<use xlink:href="#path2_fill" transform="translate(-104 -383)"/>
</g>
<g id="Rectangle" figma:type="rounded-rectangle">
<use xlink:href="#path1_fill" transform="translate(-72 -394)" fill="#C4C4C4"/>
</g>
<g id="2" figma:type="text">
<use xlink:href="#path3_fill" transform="translate(-54 -383)"/>
</g>
<g id="Rectangle" figma:type="rounded-rectangle">
<use xlink:href="#path1_fill" transform="translate(-22 -394)" fill="#C4C4C4"/>
</g>
<g id="3" figma:type="text">
<use xlink:href="#path4_fill" transform="translate(-4 -383)"/>
</g>
<g id="Rectangle" figma:type="rounded-rectangle">
<use xlink:href="#path1_fill" transform="translate(28 -394)" fill="#C4C4C4"/>
</g>
<g id="4" figma:type="text">
<use xlink:href="#path5_fill" transform="translate(46 -383)"/>
</g>
<g id="Rectangle" figma:type="rounded-rectangle">
<use xlink:href="#path1_fill" transform="translate(-122 -315)" fill="#C4C4C4"/>
</g>
<g id="1" figma:type="text">
<use xlink:href="#path2_fill" transform="translate(-104 -304)"/>
</g>
<g id="Rectangle" figma:type="rounded-rectangle">
<use xlink:href="#path1_fill" transform="translate(-29 -315)" fill="#C4C4C4"/>
</g>
<g id="2" figma:type="text">
<use xlink:href="#path3_fill" transform="translate(-11 -304)"/>
</g>
<g id="Rectangle" figma:type="rounded-rectangle">
<use xlink:href="#path1_fill" transform="translate(53 -315)" fill="#C4C4C4"/>
</g>
<g id="3" figma:type="text">
<use xlink:href="#path4_fill" transform="translate(71 -304)"/>
</g>
<g id="Rectangle" figma:type="rounded-rectangle">
<use xlink:href="#path1_fill" transform="translate(132 -315)" fill="#C4C4C4"/>
</g>
<g id="4" figma:type="text">
<use xlink:href="#path5_fill" transform="translate(150 -304)"/>
</g>
<g id="Arrow" figma:type="vector">
<use xlink:href="#path6_stroke" transform="translate(-60 -290)"/>
</g>
<g id="Arrow" figma:type="vector">
<use xlink:href="#path6_stroke" transform="translate(32 -290)"/>
</g>
<g id="Arrow" figma:type="vector">
<use xlink:href="#path6_stroke" transform="translate(111 -290)"/>
</g>
<g id="Linked List" figma:type="text">
<use xlink:href="#path7_fill" transform="translate(-293 -294)"/>
</g>
</g>
<defs>
<path id="path0_fill" d="M 11.4023 17.5469L 4.25391 17.5469L 2.64844 22L 0.328125 22L 6.84375 4.9375L 8.8125 4.9375L 15.3398 22L 13.0312 22L 11.4023 17.5469ZM 4.93359 15.6953L 10.7344 15.6953L 7.82812 7.71484L 4.93359 15.6953ZM 23.4258 11.2656C 23.0977 11.2109 22.7422 11.1836 22.3594 11.1836C 20.9375 11.1836 19.9727 11.7891 19.4648 13L 19.4648 22L 17.2969 22L 17.2969 9.32031L 19.4062 9.32031L 19.4414 10.7852C 20.1523 9.65234 21.1602 9.08594 22.4648 9.08594C 22.8867 9.08594 23.207 9.14062 23.4258 9.25L 23.4258 11.2656ZM 31.5586 11.2656C 31.2305 11.2109 30.875 11.1836 30.4922 11.1836C 29.0703 11.1836 28.1055 11.7891 27.5977 13L 27.5977 22L 25.4297 22L 25.4297 9.32031L 27.5391 9.32031L 27.5742 10.7852C 28.2852 9.65234 29.293 9.08594 30.5977 9.08594C 31.0195 9.08594 31.3398 9.14062 31.5586 9.25L 31.5586 11.2656ZM 40.9219 22C 40.7969 21.75 40.6953 21.3047 40.6172 20.6641C 39.6094 21.7109 38.4062 22.2344 37.0078 22.2344C 35.7578 22.2344 34.7305 21.8828 33.9258 21.1797C 33.1289 20.4688 32.7305 19.5703 32.7305 18.4844C 32.7305 17.1641 33.2305 16.1406 34.2305 15.4141C 35.2383 14.6797 36.6523 14.3125 38.4727 14.3125L 40.582 14.3125L 40.582 13.3164C 40.582 12.5586 40.3555 11.957 39.9023 11.5117C 39.4492 11.0586 38.7812 10.832 37.8984 10.832C 37.125 10.832 36.4766 11.0273 35.9531 11.418C 35.4297 11.8086 35.168 12.2812 35.168 12.8359L 32.9883 12.8359C 32.9883 12.2031 33.2109 11.5938 33.6562 11.0078C 34.1094 10.4141 34.7188 9.94531 35.4844 9.60156C 36.2578 9.25781 37.1055 9.08594 38.0273 9.08594C 39.4883 9.08594 40.6328 9.45312 41.4609 10.1875C 42.2891 10.9141 42.7188 11.918 42.75 13.1992L 42.75 19.0352C 42.75 20.1992 42.8984 21.125 43.1953 21.8125L 43.1953 22L 40.9219 22ZM 37.3242 20.3477C 38.0039 20.3477 38.6484 20.1719 39.2578 19.8203C 39.8672 19.4688 40.3086 19.0117 40.582 18.4492L 40.582 15.8477L 38.8828 15.8477C 36.2266 15.8477 34.8984 16.625 34.8984 18.1797C 34.8984 18.8594 35.125 19.3906 35.5781 19.7734C 36.0312 20.1562 36.6133 20.3477 37.3242 20.3477ZM 50.1094 18.8242L 53.0625 9.32031L 55.3828 9.32031L 50.2852 23.957C 49.4961 26.0664 48.2422 27.1211 46.5234 27.1211L 46.1133 27.0859L 45.3047 26.9336L 45.3047 25.1758L 45.8906 25.2227C 46.625 25.2227 47.1953 25.0742 47.6016 24.7773C 48.0156 24.4805 48.3555 23.9375 48.6211 23.1484L 49.1016 21.8594L 44.5781 9.32031L 46.9453 9.32031L 50.1094 18.8242Z"/>
<path id="path1_fill" d="M 0 0L 50 0L 50 50L 0 50L 0 0Z"/>
<path id="path2_fill" d="M 8.54297 22L 6.36328 22L 6.36328 7.55078L 1.99219 9.15625L 1.99219 7.1875L 8.20312 4.85547L 8.54297 4.85547L 8.54297 22Z"/>
<path id="path3_fill" d="M 12.5977 22L 1.41797 22L 1.41797 20.4414L 7.32422 13.8789C 8.19922 12.8867 8.80078 12.082 9.12891 11.4648C 9.46484 10.8398 9.63281 10.1953 9.63281 9.53125C 9.63281 8.64062 9.36328 7.91016 8.82422 7.33984C 8.28516 6.76953 7.56641 6.48438 6.66797 6.48438C 5.58984 6.48438 4.75 6.79297 4.14844 7.41016C 3.55469 8.01953 3.25781 8.87109 3.25781 9.96484L 1.08984 9.96484C 1.08984 8.39453 1.59375 7.125 2.60156 6.15625C 3.61719 5.1875 4.97266 4.70312 6.66797 4.70312C 8.25391 4.70312 9.50781 5.12109 10.4297 5.95703C 11.3516 6.78516 11.8125 7.89062 11.8125 9.27344C 11.8125 10.9531 10.7422 12.9531 8.60156 15.2734L 4.03125 20.2305L 12.5977 20.2305L 12.5977 22Z"/>
<path id="path4_fill" d="M 4.57031 12.4141L 6.19922 12.4141C 7.22266 12.3984 8.02734 12.1289 8.61328 11.6055C 9.19922 11.082 9.49219 10.375 9.49219 9.48438C 9.49219 7.48437 8.49609 6.48438 6.50391 6.48438C 5.56641 6.48438 4.81641 6.75391 4.25391 7.29297C 3.69922 7.82422 3.42188 8.53125 3.42188 9.41406L 1.25391 9.41406C 1.25391 8.0625 1.74609 6.94141 2.73047 6.05078C 3.72266 5.15234 4.98047 4.70312 6.50391 4.70312C 8.11328 4.70312 9.375 5.12891 10.2891 5.98047C 11.2031 6.83203 11.6602 8.01562 11.6602 9.53125C 11.6602 10.2734 11.418 10.9922 10.9336 11.6875C 10.457 12.3828 9.80469 12.9023 8.97656 13.2461C 9.91406 13.543 10.6367 14.0352 11.1445 14.7227C 11.6602 15.4102 11.918 16.25 11.918 17.2422C 11.918 18.7734 11.418 19.9883 10.418 20.8867C 9.41797 21.7852 8.11719 22.2344 6.51562 22.2344C 4.91406 22.2344 3.60938 21.8008 2.60156 20.9336C 1.60156 20.0664 1.10156 18.9219 1.10156 17.5L 3.28125 17.5C 3.28125 18.3984 3.57422 19.1172 4.16016 19.6562C 4.74609 20.1953 5.53125 20.4648 6.51562 20.4648C 7.5625 20.4648 8.36328 20.1914 8.91797 19.6445C 9.47266 19.0977 9.75 18.3125 9.75 17.2891C 9.75 16.2969 9.44531 15.5352 8.83594 15.0039C 8.22656 14.4727 7.34766 14.1992 6.19922 14.1836L 4.57031 14.1836L 4.57031 12.4141Z"/>
<path id="path5_fill" d="M 10.5703 16.2695L 12.9375 16.2695L 12.9375 18.0391L 10.5703 18.0391L 10.5703 22L 8.39062 22L 8.39062 18.0391L 0.621094 18.0391L 0.621094 16.7617L 8.26172 4.9375L 10.5703 4.9375L 10.5703 16.2695ZM 3.08203 16.2695L 8.39062 16.2695L 8.39062 7.90234L 8.13281 8.37109L 3.08203 16.2695Z"/>
<path id="path6_stroke" d="M 14.3536 0.353553C 14.5488 0.158291 14.5488 -0.158291 14.3536 -0.353553L 11.1716 -3.53553C 10.9763 -3.7308 10.6597 -3.7308 10.4645 -3.53553C 10.2692 -3.34027 10.2692 -3.02369 10.4645 -2.82843L 13.2929 0L 10.4645 2.82843C 10.2692 3.02369 10.2692 3.34027 10.4645 3.53553C 10.6597 3.7308 10.9763 3.7308 11.1716 3.53553L 14.3536 0.353553ZM 0 0.5L 14 0.5L 14 -0.5L 0 -0.5L 0 0.5Z"/>
<path id="path7_fill" d="M 4.24219 20.1602L 12.3281 20.1602L 12.3281 22L 1.98047 22L 1.98047 4.9375L 4.24219 4.9375L 4.24219 20.1602ZM 16.9102 22L 14.7422 22L 14.7422 9.32031L 16.9102 9.32031L 16.9102 22ZM 14.5664 5.95703C 14.5664 5.60547 14.6719 5.30859 14.8828 5.06641C 15.1016 4.82422 15.4219 4.70312 15.8438 4.70312C 16.2656 4.70312 16.5859 4.82422 16.8047 5.06641C 17.0234 5.30859 17.1328 5.60547 17.1328 5.95703C 17.1328 6.30859 17.0234 6.60156 16.8047 6.83594C 16.5859 7.07031 16.2656 7.1875 15.8438 7.1875C 15.4219 7.1875 15.1016 7.07031 14.8828 6.83594C 14.6719 6.60156 14.5664 6.30859 14.5664 5.95703ZM 22.4414 9.32031L 22.5117 10.9141C 23.4805 9.69531 24.7461 9.08594 26.3086 9.08594C 28.9883 9.08594 30.3398 10.5977 30.3633 13.6211L 30.3633 22L 28.1953 22L 28.1953 13.6094C 28.1875 12.6953 27.9766 12.0195 27.5625 11.582C 27.1562 11.1445 26.5195 10.9258 25.6523 10.9258C 24.9492 10.9258 24.332 11.1133 23.8008 11.4883C 23.2695 11.8633 22.8555 12.3555 22.5586 12.9648L 22.5586 22L 20.3906 22L 20.3906 9.32031L 22.4414 9.32031ZM 37.1719 16.1289L 35.8125 17.5469L 35.8125 22L 33.6445 22L 33.6445 4L 35.8125 4L 35.8125 14.8867L 36.9727 13.4922L 40.9219 9.32031L 43.5586 9.32031L 38.625 14.6172L 44.1328 22L 41.5898 22L 37.1719 16.1289ZM 50.8242 22.2344C 49.1055 22.2344 47.707 21.6719 46.6289 20.5469C 45.5508 19.4141 45.0117 17.9023 45.0117 16.0117L 45.0117 15.6133C 45.0117 14.3555 45.25 13.2344 45.7266 12.25C 46.2109 11.2578 46.8828 10.4844 47.7422 9.92969C 48.6094 9.36719 49.5469 9.08594 50.5547 9.08594C 52.2031 9.08594 53.4844 9.62891 54.3984 10.7148C 55.3125 11.8008 55.7695 13.3555 55.7695 15.3789L 55.7695 16.2812L 47.1797 16.2812C 47.2109 17.5312 47.5742 18.543 48.2695 19.3164C 48.9727 20.082 49.8633 20.4648 50.9414 20.4648C 51.707 20.4648 52.3555 20.3086 52.8867 19.9961C 53.418 19.6836 53.8828 19.2695 54.2812 18.7539L 55.6055 19.7852C 54.543 21.418 52.9492 22.2344 50.8242 22.2344ZM 50.5547 10.8672C 49.6797 10.8672 48.9453 11.1875 48.3516 11.8281C 47.7578 12.4609 47.3906 13.3516 47.25 14.5L 53.6016 14.5L 53.6016 14.3359C 53.5391 13.2344 53.2422 12.3828 52.7109 11.7812C 52.1797 11.1719 51.4609 10.8672 50.5547 10.8672ZM 57.7617 15.5547C 57.7617 13.6094 58.2227 12.0469 59.1445 10.8672C 60.0664 9.67969 61.2734 9.08594 62.7656 9.08594C 64.25 9.08594 65.4258 9.59375 66.293 10.6094L 66.293 4L 68.4609 4L 68.4609 22L 66.4688 22L 66.3633 20.6406C 65.4961 21.7031 64.2891 22.2344 62.7422 22.2344C 61.2734 22.2344 60.0742 21.6328 59.1445 20.4297C 58.2227 19.2266 57.7617 17.6562 57.7617 15.7188L 57.7617 15.5547ZM 59.9297 15.8008C 59.9297 17.2383 60.2266 18.3633 60.8203 19.1758C 61.4141 19.9883 62.2344 20.3945 63.2812 20.3945C 64.6562 20.3945 65.6602 19.7773 66.293 18.543L 66.293 12.7188C 65.6445 11.5234 64.6484 10.9258 63.3047 10.9258C 62.2422 10.9258 61.4141 11.3359 60.8203 12.1562C 60.2266 12.9766 59.9297 14.1914 59.9297 15.8008ZM 80.3906 20.1602L 88.4766 20.1602L 88.4766 22L 78.1289 22L 78.1289 4.9375L 80.3906 4.9375L 80.3906 20.1602ZM 93.0586 22L 90.8906 22L 90.8906 9.32031L 93.0586 9.32031L 93.0586 22ZM 90.7148 5.95703C 90.7148 5.60547 90.8203 5.30859 91.0312 5.06641C 91.25 4.82422 91.5703 4.70312 91.9922 4.70312C 92.4141 4.70312 92.7344 4.82422 92.9531 5.06641C 93.1719 5.30859 93.2812 5.60547 93.2812 5.95703C 93.2812 6.30859 93.1719 6.60156 92.9531 6.83594C 92.7344 7.07031 92.4141 7.1875 91.9922 7.1875C 91.5703 7.1875 91.25 7.07031 91.0312 6.83594C 90.8203 6.60156 90.7148 6.30859 90.7148 5.95703ZM 103.922 18.6367C 103.922 18.0508 103.699 17.5977 103.254 17.2773C 102.816 16.9492 102.047 16.668 100.945 16.4336C 99.8516 16.1992 98.9805 15.918 98.332 15.5898C 97.6914 15.2617 97.2148 14.8711 96.9023 14.418C 96.5977 13.9648 96.4453 13.4258 96.4453 12.8008C 96.4453 11.7617 96.8828 10.8828 97.7578 10.1641C 98.6406 9.44531 99.7656 9.08594 101.133 9.08594C 102.57 9.08594 103.734 9.45703 104.625 10.1992C 105.523 10.9414 105.973 11.8906 105.973 13.0469L 103.793 13.0469C 103.793 12.4531 103.539 11.9414 103.031 11.5117C 102.531 11.082 101.898 10.8672 101.133 10.8672C 100.344 10.8672 99.7266 11.0391 99.2812 11.3828C 98.8359 11.7266 98.6133 12.1758 98.6133 12.7305C 98.6133 13.2539 98.8203 13.6484 99.2344 13.9141C 99.6484 14.1797 100.395 14.4336 101.473 14.6758C 102.559 14.918 103.438 15.207 104.109 15.543C 104.781 15.8789 105.277 16.2852 105.598 16.7617C 105.926 17.2305 106.09 17.8047 106.09 18.4844C 106.09 19.6172 105.637 20.5273 104.73 21.2148C 103.824 21.8945 102.648 22.2344 101.203 22.2344C 100.188 22.2344 99.2891 22.0547 98.5078 21.6953C 97.7266 21.3359 97.1133 20.8359 96.668 20.1953C 96.2305 19.5469 96.0117 18.8477 96.0117 18.0977L 98.1797 18.0977C 98.2188 18.8242 98.5078 19.4023 99.0469 19.832C 99.5938 20.2539 100.312 20.4648 101.203 20.4648C 102.023 20.4648 102.68 20.3008 103.172 19.9727C 103.672 19.6367 103.922 19.1914 103.922 18.6367ZM 111.855 6.25L 111.855 9.32031L 114.223 9.32031L 114.223 10.9961L 111.855 10.9961L 111.855 18.8594C 111.855 19.3672 111.961 19.75 112.172 20.0078C 112.383 20.2578 112.742 20.3828 113.25 20.3828C 113.5 20.3828 113.844 20.3359 114.281 20.2422L 114.281 22C 113.711 22.1562 113.156 22.2344 112.617 22.2344C 111.648 22.2344 110.918 21.9414 110.426 21.3555C 109.934 20.7695 109.688 19.9375 109.688 18.8594L 109.688 10.9961L 107.379 10.9961L 107.379 9.32031L 109.688 9.32031L 109.688 6.25L 111.855 6.25Z"/>
</defs>
</svg>
