<svg width="851" height="125" viewBox="0 0 851 125" version="1.1" xmlns="http://www.w3.org/2000/svg" xmlns:xlink="http://www.w3.org/1999/xlink" xmlns:figma="http://www.figma.com/figma/ns">
<title>linked_list_nodes</title>
<desc>Created using Figma</desc>
<g id="Canvas" transform="translate(1029 336)" figma:type="canvas">
<g id="Rectangle" figma:type="rounded-rectangle">
<use xlink:href="#path0_fill" transform="translate(-1029 -336)" fill="#C4C4C4"/>
</g>
<g id="price_1" figma:type="text">
<use xlink:href="#path1_fill" transform="translate(-1006 -288)"/>
</g>
<g id="Rectangle" figma:type="rounded-rectangle">
<use xlink:href="#path0_fill" transform="translate(-846 -336)" fill="#C4C4C4"/>
</g>
<g id="price_2" figma:type="text">
<use xlink:href="#path2_fill" transform="translate(-823 -288)"/>
</g>
<g id="Rectangle" figma:type="rounded-rectangle">
<use xlink:href="#path0_fill" transform="translate(-664 -336)" fill="#C4C4C4"/>
</g>
<g id="price_3" figma:type="text">
<use xlink:href="#path3_fill" transform="translate(-641 -288)"/>
</g>
<g id="Rectangle" figma:type="rounded-rectangle">
<use xlink:href="#path0_fill" transform="translate(-483 -336)" fill="#C4C4C4"/>
</g>
<g id="price_4" figma:type="text">
<use xlink:href="#path4_fill" transform="translate(-460 -288)"/>
</g>
<g id="Rectangle" figma:type="rounded-rectangle">
<use xlink:href="#path0_fill" transform="translate(-303 -336)" fill="#C4C4C4"/>
</g>
<g id="price_5" figma:type="text">
<use xlink:href="#path5_fill" transform="translate(-280 -288)"/>
</g>
<g id="Arrow" figma:type="vector">
<use xlink:href="#path6_stroke" transform="translate(-888 -274)"/>
</g>
<g id="Arrow" figma:type="vector">
<use xlink:href="#path6_stroke" transform="translate(-888 -274)"/>
</g>
<g id="Arrow" figma:type="vector">
<use xlink:href="#path6_stroke" transform="translate(-709 -274)"/>
</g>
<g id="Arrow" figma:type="vector">
<use xlink:href="#path6_stroke" transform="translate(-527 -274)"/>
</g>
<g id="Arrow" figma:type="vector">
<use xlink:href="#path6_stroke" transform="translate(-347 -274)"/>
</g>
</g>
<defs>
<path id="path0_fill" d="M 0 0L 125 0L 125 125L 0 125L 0 0Z"/>
<path id="path1_fill" d="M 12.3516 15.8008C 12.3516 17.7305 11.9102 19.2852 11.0273 20.4648C 10.1445 21.6445 8.94922 22.2344 7.44141 22.2344C 5.90234 22.2344 4.69141 21.7461 3.80859 20.7695L 3.80859 26.875L 1.64062 26.875L 1.64062 9.32031L 3.62109 9.32031L 3.72656 10.7266C 4.60938 9.63281 5.83594 9.08594 7.40625 9.08594C 8.92969 9.08594 10.1328 9.66016 11.0156 10.8086C 11.9062 11.957 12.3516 13.5547 12.3516 15.6016L 12.3516 15.8008ZM 10.1836 15.5547C 10.1836 14.125 9.87891 12.9961 9.26953 12.168C 8.66016 11.3398 7.82422 10.9258 6.76172 10.9258C 5.44922 10.9258 4.46484 11.5078 3.80859 12.6719L 3.80859 18.7305C 4.45703 19.8867 5.44922 20.4648 6.78516 20.4648C 7.82422 20.4648 8.64844 20.0547 9.25781 19.2344C 9.875 18.4062 10.1836 17.1797 10.1836 15.5547ZM 21.2461 11.2656C 20.918 11.2109 20.5625 11.1836 20.1797 11.1836C 18.7578 11.1836 17.793 11.7891 17.2852 13L 17.2852 22L 15.1172 22L 15.1172 9.32031L 17.2266 9.32031L 17.2617 10.7852C 17.9727 9.65234 18.9805 9.08594 20.2852 9.08594C 20.707 9.08594 21.0273 9.14062 21.2461 9.25L 21.2461 11.2656ZM 25.6055 22L 23.4375 22L 23.4375 9.32031L 25.6055 9.32031L 25.6055 22ZM 23.2617 5.95703C 23.2617 5.60547 23.3672 5.30859 23.5781 5.06641C 23.7969 4.82422 24.1172 4.70312 24.5391 4.70312C 24.9609 4.70312 25.2812 4.82422 25.5 5.06641C 25.7188 5.30859 25.8281 5.60547 25.8281 5.95703C 25.8281 6.30859 25.7188 6.60156 25.5 6.83594C 25.2812 7.07031 24.9609 7.1875 24.5391 7.1875C 24.1172 7.1875 23.7969 7.07031 23.5781 6.83594C 23.3672 6.60156 23.2617 6.30859 23.2617 5.95703ZM 34.1719 20.4648C 34.9453 20.4648 35.6211 20.2305 36.1992 19.7617C 36.7773 19.293 37.0977 18.707 37.1602 18.0039L 39.2109 18.0039C 39.1719 18.7305 38.9219 19.4219 38.4609 20.0781C 38 20.7344 37.3828 21.2578 36.6094 21.6484C 35.8438 22.0391 35.0312 22.2344 34.1719 22.2344C 32.4453 22.2344 31.0703 21.6602 30.0469 20.5117C 29.0312 19.3555 28.5234 17.7773 28.5234 15.7773L 28.5234 15.4141C 28.5234 14.1797 28.75 13.082 29.2031 12.1211C 29.6562 11.1602 30.3047 10.4141 31.1484 9.88281C 32 9.35156 33.0039 9.08594 34.1602 9.08594C 35.582 9.08594 36.7617 9.51172 37.6992 10.3633C 38.6445 11.2148 39.1484 12.3203 39.2109 13.6797L 37.1602 13.6797C 37.0977 12.8594 36.7852 12.1875 36.2227 11.6641C 35.668 11.1328 34.9805 10.8672 34.1602 10.8672C 33.0586 10.8672 32.2031 11.2656 31.5938 12.0625C 30.9922 12.8516 30.6914 13.9961 30.6914 15.4961L 30.6914 15.9062C 30.6914 17.3672 30.9922 18.4922 31.5938 19.2812C 32.1953 20.0703 33.0547 20.4648 34.1719 20.4648ZM 46.9102 22.2344C 45.1914 22.2344 43.793 21.6719 42.7148 20.5469C 41.6367 19.4141 41.0977 17.9023 41.0977 16.0117L 41.0977 15.6133C 41.0977 14.3555 41.3359 13.2344 41.8125 12.25C 42.2969 11.2578 42.9688 10.4844 43.8281 9.92969C 44.6953 9.36719 45.6328 9.08594 46.6406 9.08594C 48.2891 9.08594 49.5703 9.62891 50.4844 10.7148C 51.3984 11.8008 51.8555 13.3555 51.8555 15.3789L 51.8555 16.2812L 43.2656 16.2812C 43.2969 17.5312 43.6602 18.543 44.3555 19.3164C 45.0586 20.082 45.9492 20.4648 47.0273 20.4648C 47.793 20.4648 48.4414 20.3086 48.9727 19.9961C 49.5039 19.6836 49.9688 19.2695 50.3672 18.7539L 51.6914 19.7852C 50.6289 21.418 49.0352 22.2344 46.9102 22.2344ZM 46.6406 10.8672C 45.7656 10.8672 45.0312 11.1875 44.4375 11.8281C 43.8438 12.4609 43.4766 13.3516 43.3359 14.5L 49.6875 14.5L 49.6875 14.3359C 49.625 13.2344 49.3281 12.3828 48.7969 11.7812C 48.2656 11.1719 47.5469 10.8672 46.6406 10.8672ZM 63.5156 23.7695L 52.7812 23.7695L 52.7812 22L 63.5156 22L 63.5156 23.7695ZM 72.1055 22L 69.9258 22L 69.9258 7.55078L 65.5547 9.15625L 65.5547 7.1875L 71.7656 4.85547L 72.1055 4.85547L 72.1055 22Z"/>
<path id="path2_fill" d="M 12.3516 15.8008C 12.3516 17.7305 11.9102 19.2852 11.0273 20.4648C 10.1445 21.6445 8.94922 22.2344 7.44141 22.2344C 5.90234 22.2344 4.69141 21.7461 3.80859 20.7695L 3.80859 26.875L 1.64062 26.875L 1.64062 9.32031L 3.62109 9.32031L 3.72656 10.7266C 4.60938 9.63281 5.83594 9.08594 7.40625 9.08594C 8.92969 9.08594 10.1328 9.66016 11.0156 10.8086C 11.9062 11.957 12.3516 13.5547 12.3516 15.6016L 12.3516 15.8008ZM 10.1836 15.5547C 10.1836 14.125 9.87891 12.9961 9.26953 12.168C 8.66016 11.3398 7.82422 10.9258 6.76172 10.9258C 5.44922 10.9258 4.46484 11.5078 3.80859 12.6719L 3.80859 18.7305C 4.45703 19.8867 5.44922 20.4648 6.78516 20.4648C 7.82422 20.4648 8.64844 20.0547 9.25781 19.2344C 9.875 18.4062 10.1836 17.1797 10.1836 15.5547ZM 21.2461 11.2656C 20.918 11.2109 20.5625 11.1836 20.1797 11.1836C 18.7578 11.1836 17.793 11.7891 17.2852 13L 17.2852 22L 15.1172 22L 15.1172 9.32031L 17.2266 9.32031L 17.2617 10.7852C 17.9727 9.65234 18.9805 9.08594 20.2852 9.08594C 20.707 9.08594 21.0273 9.14062 21.2461 9.25L 21.2461 11.2656ZM 25.6055 22L 23.4375 22L 23.4375 9.32031L 25.6055 9.32031L 25.6055 22ZM 23.2617 5.95703C 23.2617 5.60547 23.3672 5.30859 23.5781 5.06641C 23.7969 4.82422 24.1172 4.70312 24.5391 4.70312C 24.9609 4.70312 25.2812 4.82422 25.5 5.06641C 25.7188 5.30859 25.8281 5.60547 25.8281 5.95703C 25.8281 6.30859 25.7188 6.60156 25.5 6.83594C 25.2812 7.07031 24.9609 7.1875 24.5391 7.1875C 24.1172 7.1875 23.7969 7.07031 23.5781 6.83594C 23.3672 6.60156 23.2617 6.30859 23.2617 5.95703ZM 34.1719 20.4648C 34.9453 20.4648 35.6211 20.2305 36.1992 19.7617C 36.7773 19.293 37.0977 18.707 37.1602 18.0039L 39.2109 18.0039C 39.1719 18.7305 38.9219 19.4219 38.4609 20.0781C 38 20.7344 37.3828 21.2578 36.6094 21.6484C 35.8438 22.0391 35.0312 22.2344 34.1719 22.2344C 32.4453 22.2344 31.0703 21.6602 30.0469 20.5117C 29.0312 19.3555 28.5234 17.7773 28.5234 15.7773L 28.5234 15.4141C 28.5234 14.1797 28.75 13.082 29.2031 12.1211C 29.6562 11.1602 30.3047 10.4141 31.1484 9.88281C 32 9.35156 33.0039 9.08594 34.1602 9.08594C 35.582 9.08594 36.7617 9.51172 37.6992 10.3633C 38.6445 11.2148 39.1484 12.3203 39.2109 13.6797L 37.1602 13.6797C 37.0977 12.8594 36.7852 12.1875 36.2227 11.6641C 35.668 11.1328 34.9805 10.8672 34.1602 10.8672C 33.0586 10.8672 32.2031 11.2656 31.5938 12.0625C 30.9922 12.8516 30.6914 13.9961 30.6914 15.4961L 30.6914 15.9062C 30.6914 17.3672 30.9922 18.4922 31.5938 19.2812C 32.1953 20.0703 33.0547 20.4648 34.1719 20.4648ZM 46.9102 22.2344C 45.1914 22.2344 43.793 21.6719 42.7148 20.5469C 41.6367 19.4141 41.0977 17.9023 41.0977 16.0117L 41.0977 15.6133C 41.0977 14.3555 41.3359 13.2344 41.8125 12.25C 42.2969 11.2578 42.9688 10.4844 43.8281 9.92969C 44.6953 9.36719 45.6328 9.08594 46.6406 9.08594C 48.2891 9.08594 49.5703 9.62891 50.4844 10.7148C 51.3984 11.8008 51.8555 13.3555 51.8555 15.3789L 51.8555 16.2812L 43.2656 16.2812C 43.2969 17.5312 43.6602 18.543 44.3555 19.3164C 45.0586 20.082 45.9492 20.4648 47.0273 20.4648C 47.793 20.4648 48.4414 20.3086 48.9727 19.9961C 49.5039 19.6836 49.9688 19.2695 50.3672 18.7539L 51.6914 19.7852C 50.6289 21.418 49.0352 22.2344 46.9102 22.2344ZM 46.6406 10.8672C 45.7656 10.8672 45.0312 11.1875 44.4375 11.8281C 43.8438 12.4609 43.4766 13.3516 43.3359 14.5L 49.6875 14.5L 49.6875 14.3359C 49.625 13.2344 49.3281 12.3828 48.7969 11.7812C 48.2656 11.1719 47.5469 10.8672 46.6406 10.8672ZM 63.5156 23.7695L 52.7812 23.7695L 52.7812 22L 63.5156 22L 63.5156 23.7695ZM 76.1602 22L 64.9805 22L 64.9805 20.4414L 70.8867 13.8789C 71.7617 12.8867 72.3633 12.082 72.6914 11.4648C 73.0273 10.8398 73.1953 10.1953 73.1953 9.53125C 73.1953 8.64062 72.9258 7.91016 72.3867 7.33984C 71.8477 6.76953 71.1289 6.48438 70.2305 6.48438C 69.1523 6.48438 68.3125 6.79297 67.7109 7.41016C 67.1172 8.01953 66.8203 8.87109 66.8203 9.96484L 64.6523 9.96484C 64.6523 8.39453 65.1562 7.125 66.1641 6.15625C 67.1797 5.1875 68.5352 4.70312 70.2305 4.70312C 71.8164 4.70312 73.0703 5.12109 73.9922 5.95703C 74.9141 6.78516 75.375 7.89062 75.375 9.27344C 75.375 10.9531 74.3047 12.9531 72.1641 15.2734L 67.5938 20.2305L 76.1602 20.2305L 76.1602 22Z"/>
<path id="path3_fill" d="M 12.3516 15.8008C 12.3516 17.7305 11.9102 19.2852 11.0273 20.4648C 10.1445 21.6445 8.94922 22.2344 7.44141 22.2344C 5.90234 22.2344 4.69141 21.7461 3.80859 20.7695L 3.80859 26.875L 1.64062 26.875L 1.64062 9.32031L 3.62109 9.32031L 3.72656 10.7266C 4.60938 9.63281 5.83594 9.08594 7.40625 9.08594C 8.92969 9.08594 10.1328 9.66016 11.0156 10.8086C 11.9062 11.957 12.3516 13.5547 12.3516 15.6016L 12.3516 15.8008ZM 10.1836 15.5547C 10.1836 14.125 9.87891 12.9961 9.26953 12.168C 8.66016 11.3398 7.82422 10.9258 6.76172 10.9258C 5.44922 10.9258 4.46484 11.5078 3.80859 12.6719L 3.80859 18.7305C 4.45703 19.8867 5.44922 20.4648 6.78516 20.4648C 7.82422 20.4648 8.64844 20.0547 9.25781 19.2344C 9.875 18.4062 10.1836 17.1797 10.1836 15.5547ZM 21.2461 11.2656C 20.918 11.2109 20.5625 11.1836 20.1797 11.1836C 18.7578 11.1836 17.793 11.7891 17.2852 13L 17.2852 22L 15.1172 22L 15.1172 9.32031L 17.2266 9.32031L 17.2617 10.7852C 17.9727 9.65234 18.9805 9.08594 20.2852 9.08594C 20.707 9.08594 21.0273 9.14062 21.2461 9.25L 21.2461 11.2656ZM 25.6055 22L 23.4375 22L 23.4375 9.32031L 25.6055 9.32031L 25.6055 22ZM 23.2617 5.95703C 23.2617 5.60547 23.3672 5.30859 23.5781 5.06641C 23.7969 4.82422 24.1172 4.70312 24.5391 4.70312C 24.9609 4.70312 25.2812 4.82422 25.5 5.06641C 25.7188 5.30859 25.8281 5.60547 25.8281 5.95703C 25.8281 6.30859 25.7188 6.60156 25.5 6.83594C 25.2812 7.07031 24.9609 7.1875 24.5391 7.1875C 24.1172 7.1875 23.7969 7.07031 23.5781 6.83594C 23.3672 6.60156 23.2617 6.30859 23.2617 5.95703ZM 34.1719 20.4648C 34.9453 20.4648 35.6211 20.2305 36.1992 19.7617C 36.7773 19.293 37.0977 18.707 37.1602 18.0039L 39.2109 18.0039C 39.1719 18.7305 38.9219 19.4219 38.4609 20.0781C 38 20.7344 37.3828 21.2578 36.6094 21.6484C 35.8438 22.0391 35.0312 22.2344 34.1719 22.2344C 32.4453 22.2344 31.0703 21.6602 30.0469 20.5117C 29.0312 19.3555 28.5234 17.7773 28.5234 15.7773L 28.5234 15.4141C 28.5234 14.1797 28.75 13.082 29.2031 12.1211C 29.6562 11.1602 30.3047 10.4141 31.1484 9.88281C 32 9.35156 33.0039 9.08594 34.1602 9.08594C 35.582 9.08594 36.7617 9.51172 37.6992 10.3633C 38.6445 11.2148 39.1484 12.3203 39.2109 13.6797L 37.1602 13.6797C 37.0977 12.8594 36.7852 12.1875 36.2227 11.6641C 35.668 11.1328 34.9805 10.8672 34.1602 10.8672C 33.0586 10.8672 32.2031 11.2656 31.5938 12.0625C 30.9922 12.8516 30.6914 13.9961 30.6914 15.4961L 30.6914 15.9062C 30.6914 17.3672 30.9922 18.4922 31.5938 19.2812C 32.1953 20.0703 33.0547 20.4648 34.1719 20.4648ZM 46.9102 22.2344C 45.1914 22.2344 43.793 21.6719 42.7148 20.5469C 41.6367 19.4141 41.0977 17.9023 41.0977 16.0117L 41.0977 15.6133C 41.0977 14.3555 41.3359 13.2344 41.8125 12.25C 42.2969 11.2578 42.9688 10.4844 43.8281 9.92969C 44.6953 9.36719 45.6328 9.08594 46.6406 9.08594C 48.2891 9.08594 49.5703 9.62891 50.4844 10.7148C 51.3984 11.8008 51.8555 13.3555 51.8555 15.3789L 51.8555 16.2812L 43.2656 16.2812C 43.2969 17.5312 43.6602 18.543 44.3555 19.3164C 45.0586 20.082 45.9492 20.4648 47.0273 20.4648C 47.793 20.4648 48.4414 20.3086 48.9727 19.9961C 49.5039 19.6836 49.9688 19.2695 50.3672 18.7539L 51.6914 19.7852C 50.6289 21.418 49.0352 22.2344 46.9102 22.2344ZM 46.6406 10.8672C 45.7656 10.8672 45.0312 11.1875 44.4375 11.8281C 43.8438 12.4609 43.4766 13.3516 43.3359 14.5L 49.6875 14.5L 49.6875 14.3359C 49.625 13.2344 49.3281 12.3828 48.7969 11.7812C 48.2656 11.1719 47.5469 10.8672 46.6406 10.8672ZM 63.5156 23.7695L 52.7812 23.7695L 52.7812 22L 63.5156 22L 63.5156 23.7695ZM 68.1328 12.4141L 69.7617 12.4141C 70.7852 12.3984 71.5898 12.1289 72.1758 11.6055C 72.7617 11.082 73.0547 10.375 73.0547 9.48438C 73.0547 7.48437 72.0586 6.48438 70.0664 6.48438C 69.1289 6.48438 68.3789 6.75391 67.8164 7.29297C 67.2617 7.82422 66.9844 8.53125 66.9844 9.41406L 64.8164 9.41406C 64.8164 8.0625 65.3086 6.94141 66.293 6.05078C 67.2852 5.15234 68.543 4.70312 70.0664 4.70312C 71.6758 4.70312 72.9375 5.12891 73.8516 5.98047C 74.7656 6.83203 75.2227 8.01562 75.2227 9.53125C 75.2227 10.2734 74.9805 10.9922 74.4961 11.6875C 74.0195 12.3828 73.3672 12.9023 72.5391 13.2461C 73.4766 13.543 74.1992 14.0352 74.707 14.7227C 75.2227 15.4102 75.4805 16.25 75.4805 17.2422C 75.4805 18.7734 74.9805 19.9883 73.9805 20.8867C 72.9805 21.7852 71.6797 22.2344 70.0781 22.2344C 68.4766 22.2344 67.1719 21.8008 66.1641 20.9336C 65.1641 20.0664 64.6641 18.9219 64.6641 17.5L 66.8438 17.5C 66.8438 18.3984 67.1367 19.1172 67.7227 19.6562C 68.3086 20.1953 69.0938 20.4648 70.0781 20.4648C 71.125 20.4648 71.9258 20.1914 72.4805 19.6445C 73.0352 19.0977 73.3125 18.3125 73.3125 17.2891C 73.3125 16.2969 73.0078 15.5352 72.3984 15.0039C 71.7891 14.4727 70.9102 14.1992 69.7617 14.1836L 68.1328 14.1836L 68.1328 12.4141Z"/>
<path id="path4_fill" d="M 12.3516 15.8008C 12.3516 17.7305 11.9102 19.2852 11.0273 20.4648C 10.1445 21.6445 8.94922 22.2344 7.44141 22.2344C 5.90234 22.2344 4.69141 21.7461 3.80859 20.7695L 3.80859 26.875L 1.64062 26.875L 1.64062 9.32031L 3.62109 9.32031L 3.72656 10.7266C 4.60938 9.63281 5.83594 9.08594 7.40625 9.08594C 8.92969 9.08594 10.1328 9.66016 11.0156 10.8086C 11.9062 11.957 12.3516 13.5547 12.3516 15.6016L 12.3516 15.8008ZM 10.1836 15.5547C 10.1836 14.125 9.87891 12.9961 9.26953 12.168C 8.66016 11.3398 7.82422 10.9258 6.76172 10.9258C 5.44922 10.9258 4.46484 11.5078 3.80859 12.6719L 3.80859 18.7305C 4.45703 19.8867 5.44922 20.4648 6.78516 20.4648C 7.82422 20.4648 8.64844 20.0547 9.25781 19.2344C 9.875 18.4062 10.1836 17.1797 10.1836 15.5547ZM 21.2461 11.2656C 20.918 11.2109 20.5625 11.1836 20.1797 11.1836C 18.7578 11.1836 17.793 11.7891 17.2852 13L 17.2852 22L 15.1172 22L 15.1172 9.32031L 17.2266 9.32031L 17.2617 10.7852C 17.9727 9.65234 18.9805 9.08594 20.2852 9.08594C 20.707 9.08594 21.0273 9.14062 21.2461 9.25L 21.2461 11.2656ZM 25.6055 22L 23.4375 22L 23.4375 9.32031L 25.6055 9.32031L 25.6055 22ZM 23.2617 5.95703C 23.2617 5.60547 23.3672 5.30859 23.5781 5.06641C 23.7969 4.82422 24.1172 4.70312 24.5391 4.70312C 24.9609 4.70312 25.2812 4.82422 25.5 5.06641C 25.7188 5.30859 25.8281 5.60547 25.8281 5.95703C 25.8281 6.30859 25.7188 6.60156 25.5 6.83594C 25.2812 7.07031 24.9609 7.1875 24.5391 7.1875C 24.1172 7.1875 23.7969 7.07031 23.5781 6.83594C 23.3672 6.60156 23.2617 6.30859 23.2617 5.95703ZM 34.1719 20.4648C 34.9453 20.4648 35.6211 20.2305 36.1992 19.7617C 36.7773 19.293 37.0977 18.707 37.1602 18.0039L 39.2109 18.0039C 39.1719 18.7305 38.9219 19.4219 38.4609 20.0781C 38 20.7344 37.3828 21.2578 36.6094 21.6484C 35.8438 22.0391 35.0312 22.2344 34.1719 22.2344C 32.4453 22.2344 31.0703 21.6602 30.0469 20.5117C 29.0312 19.3555 28.5234 17.7773 28.5234 15.7773L 28.5234 15.4141C 28.5234 14.1797 28.75 13.082 29.2031 12.1211C 29.6562 11.1602 30.3047 10.4141 31.1484 9.88281C 32 9.35156 33.0039 9.08594 34.1602 9.08594C 35.582 9.08594 36.7617 9.51172 37.6992 10.3633C 38.6445 11.2148 39.1484 12.3203 39.2109 13.6797L 37.1602 13.6797C 37.0977 12.8594 36.7852 12.1875 36.2227 11.6641C 35.668 11.1328 34.9805 10.8672 34.1602 10.8672C 33.0586 10.8672 32.2031 11.2656 31.5938 12.0625C 30.9922 12.8516 30.6914 13.9961 30.6914 15.4961L 30.6914 15.9062C 30.6914 17.3672 30.9922 18.4922 31.5938 19.2812C 32.1953 20.0703 33.0547 20.4648 34.1719 20.4648ZM 46.9102 22.2344C 45.1914 22.2344 43.793 21.6719 42.7148 20.5469C 41.6367 19.4141 41.0977 17.9023 41.0977 16.0117L 41.0977 15.6133C 41.0977 14.3555 41.3359 13.2344 41.8125 12.25C 42.2969 11.2578 42.9688 10.4844 43.8281 9.92969C 44.6953 9.36719 45.6328 9.08594 46.6406 9.08594C 48.2891 9.08594 49.5703 9.62891 50.4844 10.7148C 51.3984 11.8008 51.8555 13.3555 51.8555 15.3789L 51.8555 16.2812L 43.2656 16.2812C 43.2969 17.5312 43.6602 18.543 44.3555 19.3164C 45.0586 20.082 45.9492 20.4648 47.0273 20.4648C 47.793 20.4648 48.4414 20.3086 48.9727 19.9961C 49.5039 19.6836 49.9688 19.2695 50.3672 18.7539L 51.6914 19.7852C 50.6289 21.418 49.0352 22.2344 46.9102 22.2344ZM 46.6406 10.8672C 45.7656 10.8672 45.0312 11.1875 44.4375 11.8281C 43.8438 12.4609 43.4766 13.3516 43.3359 14.5L 49.6875 14.5L 49.6875 14.3359C 49.625 13.2344 49.3281 12.3828 48.7969 11.7812C 48.2656 11.1719 47.5469 10.8672 46.6406 10.8672ZM 63.5156 23.7695L 52.7812 23.7695L 52.7812 22L 63.5156 22L 63.5156 23.7695ZM 74.1328 16.2695L 76.5 16.2695L 76.5 18.0391L 74.1328 18.0391L 74.1328 22L 71.9531 22L 71.9531 18.0391L 64.1836 18.0391L 64.1836 16.7617L 71.8242 4.9375L 74.1328 4.9375L 74.1328 16.2695ZM 66.6445 16.2695L 71.9531 16.2695L 71.9531 7.90234L 71.6953 8.37109L 66.6445 16.2695Z"/>
<path id="path5_fill" d="M 12.3516 15.8008C 12.3516 17.7305 11.9102 19.2852 11.0273 20.4648C 10.1445 21.6445 8.94922 22.2344 7.44141 22.2344C 5.90234 22.2344 4.69141 21.7461 3.80859 20.7695L 3.80859 26.875L 1.64062 26.875L 1.64062 9.32031L 3.62109 9.32031L 3.72656 10.7266C 4.60938 9.63281 5.83594 9.08594 7.40625 9.08594C 8.92969 9.08594 10.1328 9.66016 11.0156 10.8086C 11.9062 11.957 12.3516 13.5547 12.3516 15.6016L 12.3516 15.8008ZM 10.1836 15.5547C 10.1836 14.125 9.87891 12.9961 9.26953 12.168C 8.66016 11.3398 7.82422 10.9258 6.76172 10.9258C 5.44922 10.9258 4.46484 11.5078 3.80859 12.6719L 3.80859 18.7305C 4.45703 19.8867 5.44922 20.4648 6.78516 20.4648C 7.82422 20.4648 8.64844 20.0547 9.25781 19.2344C 9.875 18.4062 10.1836 17.1797 10.1836 15.5547ZM 21.2461 11.2656C 20.918 11.2109 20.5625 11.1836 20.1797 11.1836C 18.7578 11.1836 17.793 11.7891 17.2852 13L 17.2852 22L 15.1172 22L 15.1172 9.32031L 17.2266 9.32031L 17.2617 10.7852C 17.9727 9.65234 18.9805 9.08594 20.2852 9.08594C 20.707 9.08594 21.0273 9.14062 21.2461 9.25L 21.2461 11.2656ZM 25.6055 22L 23.4375 22L 23.4375 9.32031L 25.6055 9.32031L 25.6055 22ZM 23.2617 5.95703C 23.2617 5.60547 23.3672 5.30859 23.5781 5.06641C 23.7969 4.82422 24.1172 4.70312 24.5391 4.70312C 24.9609 4.70312 25.2812 4.82422 25.5 5.06641C 25.7188 5.30859 25.8281 5.60547 25.8281 5.95703C 25.8281 6.30859 25.7188 6.60156 25.5 6.83594C 25.2812 7.07031 24.9609 7.1875 24.5391 7.1875C 24.1172 7.1875 23.7969 7.07031 23.5781 6.83594C 23.3672 6.60156 23.2617 6.30859 23.2617 5.95703ZM 34.1719 20.4648C 34.9453 20.4648 35.6211 20.2305 36.1992 19.7617C 36.7773 19.293 37.0977 18.707 37.1602 18.0039L 39.2109 18.0039C 39.1719 18.7305 38.9219 19.4219 38.4609 20.0781C 38 20.7344 37.3828 21.2578 36.6094 21.6484C 35.8438 22.0391 35.0312 22.2344 34.1719 22.2344C 32.4453 22.2344 31.0703 21.6602 30.0469 20.5117C 29.0312 19.3555 28.5234 17.7773 28.5234 15.7773L 28.5234 15.4141C 28.5234 14.1797 28.75 13.082 29.2031 12.1211C 29.6562 11.1602 30.3047 10.4141 31.1484 9.88281C 32 9.35156 33.0039 9.08594 34.1602 9.08594C 35.582 9.08594 36.7617 9.51172 37.6992 10.3633C 38.6445 11.2148 39.1484 12.3203 39.2109 13.6797L 37.1602 13.6797C 37.0977 12.8594 36.7852 12.1875 36.2227 11.6641C 35.668 11.1328 34.9805 10.8672 34.1602 10.8672C 33.0586 10.8672 32.2031 11.2656 31.5938 12.0625C 30.9922 12.8516 30.6914 13.9961 30.6914 15.4961L 30.6914 15.9062C 30.6914 17.3672 30.9922 18.4922 31.5938 19.2812C 32.1953 20.0703 33.0547 20.4648 34.1719 20.4648ZM 46.9102 22.2344C 45.1914 22.2344 43.793 21.6719 42.7148 20.5469C 41.6367 19.4141 41.0977 17.9023 41.0977 16.0117L 41.0977 15.6133C 41.0977 14.3555 41.3359 13.2344 41.8125 12.25C 42.2969 11.2578 42.9688 10.4844 43.8281 9.92969C 44.6953 9.36719 45.6328 9.08594 46.6406 9.08594C 48.2891 9.08594 49.5703 9.62891 50.4844 10.7148C 51.3984 11.8008 51.8555 13.3555 51.8555 15.3789L 51.8555 16.2812L 43.2656 16.2812C 43.2969 17.5312 43.6602 18.543 44.3555 19.3164C 45.0586 20.082 45.9492 20.4648 47.0273 20.4648C 47.793 20.4648 48.4414 20.3086 48.9727 19.9961C 49.5039 19.6836 49.9688 19.2695 50.3672 18.7539L 51.6914 19.7852C 50.6289 21.418 49.0352 22.2344 46.9102 22.2344ZM 46.6406 10.8672C 45.7656 10.8672 45.0312 11.1875 44.4375 11.8281C 43.8438 12.4609 43.4766 13.3516 43.3359 14.5L 49.6875 14.5L 49.6875 14.3359C 49.625 13.2344 49.3281 12.3828 48.7969 11.7812C 48.2656 11.1719 47.5469 10.8672 46.6406 10.8672ZM 63.5156 23.7695L 52.7812 23.7695L 52.7812 22L 63.5156 22L 63.5156 23.7695ZM 65.9766 13.4453L 66.8438 4.9375L 75.5859 4.9375L 75.5859 6.94141L 68.6836 6.94141L 68.168 11.5938C 69.0039 11.1016 69.9531 10.8555 71.0156 10.8555C 72.5703 10.8555 73.8047 11.3711 74.7188 12.4023C 75.6328 13.4258 76.0898 14.8125 76.0898 16.5625C 76.0898 18.3203 75.6133 19.707 74.6602 20.7227C 73.7148 21.7305 72.3906 22.2344 70.6875 22.2344C 69.1797 22.2344 67.9492 21.8164 66.9961 20.9805C 66.043 20.1445 65.5 18.9883 65.3672 17.5117L 67.418 17.5117C 67.5508 18.4883 67.8984 19.2266 68.4609 19.7266C 69.0234 20.2188 69.7656 20.4648 70.6875 20.4648C 71.6953 20.4648 72.4844 20.1211 73.0547 19.4336C 73.6328 18.7461 73.9219 17.7969 73.9219 16.5859C 73.9219 15.4453 73.6094 14.5312 72.9844 13.8438C 72.3672 13.1484 71.543 12.8008 70.5117 12.8008C 69.5664 12.8008 68.8242 13.0078 68.2852 13.4219L 67.7109 13.8906L 65.9766 13.4453Z"/>
<path id="path6_stroke" d="M 32.3536 0.353553C 32.5488 0.158291 32.5488 -0.158291 32.3536 -0.353553L 29.1716 -3.53553C 28.9763 -3.7308 28.6597 -3.7308 28.4645 -3.53553C 28.2692 -3.34027 28.2692 -3.02369 28.4645 -2.82843L 31.2929 0L 28.4645 2.82843C 28.2692 3.02369 28.2692 3.34027 28.4645 3.53553C 28.6597 3.7308 28.9763 3.7308 29.1716 3.53553L 32.3536 0.353553ZM 0 0.5L 32 0.5L 32 -0.5L 0 -0.5L 0 0.5Z"/>
</defs>
</svg>
