<svg width="1210" height="263" viewBox="0 0 1210 263" version="1.1" xmlns="http://www.w3.org/2000/svg" xmlns:xlink="http://www.w3.org/1999/xlink" xmlns:figma="http://www.figma.com/figma/ns">
<title>hash_table_scan</title>
<desc>Created using Figma</desc>
<g id="Canvas" transform="translate(781 862)" figma:type="canvas">
<g id="Array" figma:type="text">
<use xlink:href="#path0_fill" transform="translate(-271 -866)"/>
</g>
<g id="Rectangle" figma:type="rounded-rectangle">
<use xlink:href="#path1_fill" transform="translate(-271 -749)" fill="#C4C4C4"/>
</g>
<g id="Rectangle" figma:type="rounded-rectangle">
<use xlink:href="#path1_fill" transform="translate(-271 -699)" fill="#C4C4C4"/>
</g>
<g id="Rectangle" figma:type="rounded-rectangle">
<use xlink:href="#path1_fill" transform="translate(-271 -649)" fill="#C4C4C4"/>
</g>
<g id="[(&#226;&#128;&#156;xmen&#226;&#128;&#157;, &#226;&#128;&#156;Wolverine&#226;&#128;&#157;), (&#226;&#128;&#156;xmenoriginswolverine&#226;&#128;&#157;, &#226;&#128;&#156;Superman&#226;&#128;&#157;)]" figma:type="text">
<use xlink:href="#path2_fill" transform="translate(-246 -738)"/>
</g>
<g id="hash_table[&#226;&#128;&#156;xmenoriginswolverine&#226;&#128;&#157;]" figma:type="text">
<use xlink:href="#path3_fill" transform="translate(-782 -738)"/>
</g>
<g id="Operations" figma:type="text">
<use xlink:href="#path4_fill" transform="translate(-651 -866)"/>
</g>
<g id="[]" figma:type="text">
<use xlink:href="#path5_fill" transform="translate(72 -638)"/>
</g>
<g id="[]" figma:type="text">
<use xlink:href="#path5_fill" transform="translate(72 -688)"/>
</g>
<g id="Arrow" figma:type="vector">
<use xlink:href="#path6_stroke" transform="translate(-366 -724)"/>
</g>
</g>
<defs>
<path id="path0_fill" d="M 11.4023 17.5469L 4.25391 17.5469L 2.64844 22L 0.328125 22L 6.84375 4.9375L 8.8125 4.9375L 15.3398 22L 13.0312 22L 11.4023 17.5469ZM 4.93359 15.6953L 10.7344 15.6953L 7.82812 7.71484L 4.93359 15.6953ZM 23.4258 11.2656C 23.0977 11.2109 22.7422 11.1836 22.3594 11.1836C 20.9375 11.1836 19.9727 11.7891 19.4648 13L 19.4648 22L 17.2969 22L 17.2969 9.32031L 19.4062 9.32031L 19.4414 10.7852C 20.1523 9.65234 21.1602 9.08594 22.4648 9.08594C 22.8867 9.08594 23.207 9.14062 23.4258 9.25L 23.4258 11.2656ZM 31.5586 11.2656C 31.2305 11.2109 30.875 11.1836 30.4922 11.1836C 29.0703 11.1836 28.1055 11.7891 27.5977 13L 27.5977 22L 25.4297 22L 25.4297 9.32031L 27.5391 9.32031L 27.5742 10.7852C 28.2852 9.65234 29.293 9.08594 30.5977 9.08594C 31.0195 9.08594 31.3398 9.14062 31.5586 9.25L 31.5586 11.2656ZM 40.9219 22C 40.7969 21.75 40.6953 21.3047 40.6172 20.6641C 39.6094 21.7109 38.4062 22.2344 37.0078 22.2344C 35.7578 22.2344 34.7305 21.8828 33.9258 21.1797C 33.1289 20.4687 32.7305 19.5703 32.7305 18.4844C 32.7305 17.1641 33.2305 16.1406 34.2305 15.4141C 35.2383 14.6797 36.6523 14.3125 38.4727 14.3125L 40.582 14.3125L 40.582 13.3164C 40.582 12.5586 40.3555 11.957 39.9023 11.5117C 39.4492 11.0586 38.7812 10.832 37.8984 10.832C 37.125 10.832 36.4766 11.0273 35.9531 11.418C 35.4297 11.8086 35.168 12.2813 35.168 12.8359L 32.9883 12.8359C 32.9883 12.2031 33.2109 11.5938 33.6562 11.0078C 34.1094 10.4141 34.7187 9.94531 35.4844 9.60156C 36.2578 9.25781 37.1055 9.08594 38.0273 9.08594C 39.4883 9.08594 40.6328 9.45313 41.4609 10.1875C 42.2891 10.9141 42.7187 11.918 42.75 13.1992L 42.75 19.0352C 42.75 20.1992 42.8984 21.125 43.1953 21.8125L 43.1953 22L 40.9219 22ZM 37.3242 20.3477C 38.0039 20.3477 38.6484 20.1719 39.2578 19.8203C 39.8672 19.4688 40.3086 19.0117 40.582 18.4492L 40.582 15.8477L 38.8828 15.8477C 36.2266 15.8477 34.8984 16.625 34.8984 18.1797C 34.8984 18.8594 35.125 19.3906 35.5781 19.7734C 36.0312 20.1563 36.6133 20.3477 37.3242 20.3477ZM 50.1094 18.8242L 53.0625 9.32031L 55.3828 9.32031L 50.2852 23.957C 49.4961 26.0664 48.2422 27.1211 46.5234 27.1211L 46.1133 27.0859L 45.3047 26.9336L 45.3047 25.1758L 45.8906 25.2227C 46.625 25.2227 47.1953 25.0742 47.6016 24.7773C 48.0156 24.4805 48.3555 23.9375 48.6211 23.1484L 49.1016 21.8594L 44.5781 9.32031L 46.9453 9.32031L 50.1094 18.8242Z"/>
<path id="path1_fill" d="M 0 0L 700 0L 700 50L 0 50L 0 0Z"/>
<path id="path2_fill" d="M 6.12891 4.28125L 3.89062 4.28125L 3.89062 23.875L 6.12891 23.875L 6.12891 25.6562L 1.71094 25.6562L 1.71094 2.5L 6.12891 2.5L 6.12891 4.28125ZM 7.93359 15.0742C 7.93359 13.3086 8.16797 11.6133 8.63672 9.98828C 9.11328 8.36328 9.82031 6.88672 10.7578 5.55859C 11.6953 4.23047 12.668 3.29297 13.6758 2.74609L 14.1211 4.17578C 12.9805 5.05078 12.043 6.38672 11.3086 8.18359C 10.582 9.98047 10.1836 11.9922 10.1133 14.2188L 10.1016 15.2148C 10.1016 18.2305 10.6523 20.8477 11.7539 23.0664C 12.418 24.3945 13.207 25.4336 14.1211 26.1836L 13.6758 27.5078C 12.6367 26.9297 11.6445 25.9609 10.6992 24.6016C 8.85547 21.9453 7.93359 18.7695 7.93359 15.0742ZM 17.8359 3.77734L 19.0781 4.62109C 18.3516 5.61328 17.9766 6.68359 17.9531 7.83203L 17.9531 9.42578L 15.7969 9.42578L 15.7969 8.06641C 15.7969 7.26953 15.9844 6.48047 16.3594 5.69922C 16.7422 4.91797 17.2344 4.27734 17.8359 3.77734ZM 21.5273 3.77734L 22.7695 4.62109C 22.043 5.61328 21.668 6.68359 21.6445 7.83203L 21.6445 9.42578L 19.4883 9.42578L 19.4883 8.06641C 19.4883 7.26953 19.6758 6.48047 20.0508 5.69922C 20.4336 4.91797 20.9258 4.27734 21.5273 3.77734ZM 28.957 13.9492L 31.7695 9.32031L 34.3008 9.32031L 30.1523 15.5898L 34.4297 22L 31.9219 22L 28.9922 17.2539L 26.0625 22L 23.543 22L 27.8203 15.5898L 23.6719 9.32031L 26.1797 9.32031L 28.957 13.9492ZM 38.6484 9.32031L 38.707 10.7266C 39.6367 9.63281 40.8906 9.08594 42.4688 9.08594C 44.2422 9.08594 45.4492 9.76562 46.0898 11.125C 46.5117 10.5156 47.0586 10.0234 47.7305 9.64844C 48.4102 9.27344 49.2109 9.08594 50.1328 9.08594C 52.9141 9.08594 54.3281 10.5586 54.375 13.5039L 54.375 22L 52.207 22L 52.207 13.6328C 52.207 12.7266 52 12.0508 51.5859 11.6055C 51.1719 11.1523 50.4766 10.9258 49.5 10.9258C 48.6953 10.9258 48.0273 11.168 47.4961 11.6523C 46.9648 12.1289 46.6562 12.7734 46.5703 13.5859L 46.5703 22L 44.3906 22L 44.3906 13.6914C 44.3906 11.8477 43.4883 10.9258 41.6836 10.9258C 40.2617 10.9258 39.2891 11.5313 38.7656 12.7422L 38.7656 22L 36.5977 22L 36.5977 9.32031L 38.6484 9.32031ZM 62.918 22.2344C 61.1992 22.2344 59.8008 21.6719 58.7227 20.5469C 57.6445 19.4141 57.1055 17.9023 57.1055 16.0117L 57.1055 15.6133C 57.1055 14.3555 57.3438 13.2344 57.8203 12.25C 58.3047 11.2578 58.9766 10.4844 59.8359 9.92969C 60.7031 9.36719 61.6406 9.08594 62.6484 9.08594C 64.2969 9.08594 65.5781 9.62891 66.4922 10.7148C 67.4062 11.8008 67.8633 13.3555 67.8633 15.3789L 67.8633 16.2812L 59.2734 16.2812C 59.3047 17.5312 59.668 18.543 60.3633 19.3164C 61.0664 20.082 61.957 20.4648 63.0352 20.4648C 63.8008 20.4648 64.4492 20.3086 64.9805 19.9961C 65.5117 19.6836 65.9766 19.2695 66.375 18.7539L 67.6992 19.7852C 66.6367 21.418 65.043 22.2344 62.918 22.2344ZM 62.6484 10.8672C 61.7734 10.8672 61.0391 11.1875 60.4453 11.8281C 59.8516 12.4609 59.4844 13.3516 59.3438 14.5L 65.6953 14.5L 65.6953 14.3359C 65.6328 13.2344 65.3359 12.3828 64.8047 11.7812C 64.2734 11.1719 63.5547 10.8672 62.6484 10.8672ZM 72.4336 9.32031L 72.5039 10.9141C 73.4727 9.69531 74.7383 9.08594 76.3008 9.08594C 78.9805 9.08594 80.332 10.5977 80.3555 13.6211L 80.3555 22L 78.1875 22L 78.1875 13.6094C 78.1797 12.6953 77.9687 12.0195 77.5547 11.582C 77.1484 11.1445 76.5117 10.9258 75.6445 10.9258C 74.9414 10.9258 74.3242 11.1133 73.793 11.4883C 73.2617 11.8633 72.8477 12.3555 72.5508 12.9648L 72.5508 22L 70.3828 22L 70.3828 9.32031L 72.4336 9.32031ZM 82.6992 9.74219L 81.4688 8.89844C 82.1953 7.88281 82.5703 6.8125 82.5938 5.6875L 82.5938 4L 84.7383 4L 84.7383 5.52344C 84.7305 6.30469 84.5352 7.08594 84.1523 7.86719C 83.7773 8.64062 83.293 9.26563 82.6992 9.74219ZM 86.2969 9.74219L 85.0664 8.89844C 85.793 7.88281 86.168 6.8125 86.1914 5.6875L 86.1914 4L 88.3359 4L 88.3359 5.52344C 88.3281 6.30469 88.1328 7.08594 87.75 7.86719C 87.375 8.64062 86.8906 9.26563 86.2969 9.74219ZM 90.9141 25.3984L 89.6836 24.5547C 90.418 23.5313 90.8008 22.4766 90.832 21.3906L 90.832 19.4336L 92.9531 19.4336L 92.9531 21.1328C 92.9531 21.9219 92.7578 22.7109 92.3672 23.5C 91.9844 24.2891 91.5 24.9219 90.9141 25.3984ZM 103.266 3.77734L 104.508 4.62109C 103.781 5.61328 103.406 6.68359 103.383 7.83203L 103.383 9.42578L 101.227 9.42578L 101.227 8.06641C 101.227 7.26953 101.414 6.48047 101.789 5.69922C 102.172 4.91797 102.664 4.27734 103.266 3.77734ZM 106.957 3.77734L 108.199 4.62109C 107.473 5.61328 107.098 6.68359 107.074 7.83203L 107.074 9.42578L 104.918 9.42578L 104.918 8.06641C 104.918 7.26953 105.105 6.48047 105.48 5.69922C 105.863 4.91797 106.355 4.27734 106.957 3.77734ZM 114.152 16.6211L 114.48 18.8711L 114.961 16.8438L 118.336 4.9375L 120.234 4.9375L 123.527 16.8438L 123.996 18.9062L 124.359 16.6094L 127.008 4.9375L 129.27 4.9375L 125.133 22L 123.082 22L 119.566 9.56641L 119.297 8.26562L 119.027 9.56641L 115.383 22L 113.332 22L 109.207 4.9375L 111.457 4.9375L 114.152 16.6211ZM 130.488 15.543C 130.488 14.3008 130.73 13.1836 131.215 12.1914C 131.707 11.1992 132.387 10.4336 133.254 9.89453C 134.129 9.35547 135.125 9.08594 136.242 9.08594C 137.969 9.08594 139.363 9.68359 140.426 10.8789C 141.496 12.0742 142.031 13.6641 142.031 15.6484L 142.031 15.8008C 142.031 17.0352 141.793 18.1445 141.316 19.1289C 140.848 20.1055 140.172 20.8672 139.289 21.4141C 138.414 21.9609 137.406 22.2344 136.266 22.2344C 134.547 22.2344 133.152 21.6367 132.082 20.4414C 131.02 19.2461 130.488 17.6641 130.488 15.6953L 130.488 15.543ZM 132.668 15.8008C 132.668 17.207 132.992 18.3359 133.641 19.1875C 134.297 20.0391 135.172 20.4648 136.266 20.4648C 137.367 20.4648 138.242 20.0352 138.891 19.1758C 139.539 18.3086 139.863 17.0977 139.863 15.543C 139.863 14.1523 139.531 13.0273 138.867 12.168C 138.211 11.3008 137.336 10.8672 136.242 10.8672C 135.172 10.8672 134.309 11.293 133.652 12.1445C 132.996 12.9961 132.668 14.2148 132.668 15.8008ZM 147.105 22L 144.938 22L 144.938 4L 147.105 4L 147.105 22ZM 154.77 19.0586L 157.91 9.32031L 160.125 9.32031L 155.578 22L 153.926 22L 149.332 9.32031L 151.547 9.32031L 154.77 19.0586ZM 167.309 22.2344C 165.59 22.2344 164.191 21.6719 163.113 20.5469C 162.035 19.4141 161.496 17.9023 161.496 16.0117L 161.496 15.6133C 161.496 14.3555 161.734 13.2344 162.211 12.25C 162.695 11.2578 163.367 10.4844 164.227 9.92969C 165.094 9.36719 166.031 9.08594 167.039 9.08594C 168.688 9.08594 169.969 9.62891 170.883 10.7148C 171.797 11.8008 172.254 13.3555 172.254 15.3789L 172.254 16.2812L 163.664 16.2812C 163.695 17.5312 164.059 18.543 164.754 19.3164C 165.457 20.082 166.348 20.4648 167.426 20.4648C 168.191 20.4648 168.84 20.3086 169.371 19.9961C 169.902 19.6836 170.367 19.2695 170.766 18.7539L 172.09 19.7852C 171.027 21.418 169.434 22.2344 167.309 22.2344ZM 167.039 10.8672C 166.164 10.8672 165.43 11.1875 164.836 11.8281C 164.242 12.4609 163.875 13.3516 163.734 14.5L 170.086 14.5L 170.086 14.3359C 170.023 13.2344 169.727 12.3828 169.195 11.7812C 168.664 11.1719 167.945 10.8672 167.039 10.8672ZM 180.902 11.2656C 180.574 11.2109 180.219 11.1836 179.836 11.1836C 178.414 11.1836 177.449 11.7891 176.941 13L 176.941 22L 174.773 22L 174.773 9.32031L 176.883 9.32031L 176.918 10.7852C 177.629 9.65234 178.637 9.08594 179.941 9.08594C 180.363 9.08594 180.684 9.14062 180.902 9.25L 180.902 11.2656ZM 185.262 22L 183.094 22L 183.094 9.32031L 185.262 9.32031L 185.262 22ZM 182.918 5.95703C 182.918 5.60547 183.023 5.30859 183.234 5.06641C 183.453 4.82422 183.773 4.70312 184.195 4.70312C 184.617 4.70312 184.938 4.82422 185.156 5.06641C 185.375 5.30859 185.484 5.60547 185.484 5.95703C 185.484 6.30859 185.375 6.60156 185.156 6.83594C 184.938 7.07031 184.617 7.1875 184.195 7.1875C 183.773 7.1875 183.453 7.07031 183.234 6.83594C 183.023 6.60156 182.918 6.30859 182.918 5.95703ZM 190.793 9.32031L 190.863 10.9141C 191.832 9.69531 193.098 9.08594 194.66 9.08594C 197.34 9.08594 198.691 10.5977 198.715 13.6211L 198.715 22L 196.547 22L 196.547 13.6094C 196.539 12.6953 196.328 12.0195 195.914 11.582C 195.508 11.1445 194.871 10.9258 194.004 10.9258C 193.301 10.9258 192.684 11.1133 192.152 11.4883C 191.621 11.8633 191.207 12.3555 190.91 12.9648L 190.91 22L 188.742 22L 188.742 9.32031L 190.793 9.32031ZM 207.246 22.2344C 205.527 22.2344 204.129 21.6719 203.051 20.5469C 201.973 19.4141 201.434 17.9023 201.434 16.0117L 201.434 15.6133C 201.434 14.3555 201.672 13.2344 202.148 12.25C 202.633 11.2578 203.305 10.4844 204.164 9.92969C 205.031 9.36719 205.969 9.08594 206.977 9.08594C 208.625 9.08594 209.906 9.62891 210.82 10.7148C 211.734 11.8008 212.191 13.3555 212.191 15.3789L 212.191 16.2812L 203.602 16.2812C 203.633 17.5312 203.996 18.543 204.691 19.3164C 205.395 20.082 206.285 20.4648 207.363 20.4648C 208.129 20.4648 208.777 20.3086 209.309 19.9961C 209.84 19.6836 210.305 19.2695 210.703 18.7539L 212.027 19.7852C 210.965 21.418 209.371 22.2344 207.246 22.2344ZM 206.977 10.8672C 206.102 10.8672 205.367 11.1875 204.773 11.8281C 204.18 12.4609 203.812 13.3516 203.672 14.5L 210.023 14.5L 210.023 14.3359C 209.961 13.2344 209.664 12.3828 209.133 11.7812C 208.602 11.1719 207.883 10.8672 206.977 10.8672ZM 214.84 9.74219L 213.609 8.89844C 214.336 7.88281 214.711 6.8125 214.734 5.6875L 214.734 4L 216.879 4L 216.879 5.52344C 216.871 6.30469 216.676 7.08594 216.293 7.86719C 215.918 8.64062 215.434 9.26563 214.84 9.74219ZM 218.438 9.74219L 217.207 8.89844C 217.934 7.88281 218.309 6.8125 218.332 5.6875L 218.332 4L 220.477 4L 220.477 5.52344C 220.469 6.30469 220.273 7.08594 219.891 7.86719C 219.516 8.64062 219.031 9.26563 218.438 9.74219ZM 228.129 15.1914C 228.129 16.9336 227.898 18.6055 227.438 20.207C 226.984 21.8008 226.285 23.2734 225.34 24.625C 224.402 25.9766 223.418 26.9375 222.387 27.5078L 221.93 26.1836C 223.133 25.2617 224.098 23.832 224.824 21.8945C 225.559 19.9492 225.934 17.793 225.949 15.4258L 225.949 15.0508C 225.949 13.4102 225.777 11.8867 225.434 10.4805C 225.09 9.06641 224.609 7.80078 223.992 6.68359C 223.383 5.56641 222.695 4.69531 221.93 4.07031L 222.387 2.74609C 223.418 3.31641 224.398 4.26953 225.328 5.60547C 226.266 6.94141 226.965 8.41406 227.426 10.0234C 227.895 11.6328 228.129 13.3555 228.129 15.1914ZM 231.398 25.3984L 230.168 24.5547C 230.902 23.5313 231.285 22.4766 231.316 21.3906L 231.316 19.4336L 233.438 19.4336L 233.438 21.1328C 233.438 21.9219 233.242 22.7109 232.852 23.5C 232.469 24.2891 231.984 24.9219 231.398 25.3984ZM 242.051 15.0742C 242.051 13.3086 242.285 11.6133 242.754 9.98828C 243.23 8.36328 243.938 6.88672 244.875 5.55859C 245.812 4.23047 246.785 3.29297 247.793 2.74609L 248.238 4.17578C 247.098 5.05078 246.16 6.38672 245.426 8.18359C 244.699 9.98047 244.301 11.9922 244.23 14.2188L 244.219 15.2148C 244.219 18.2305 244.77 20.8477 245.871 23.0664C 246.535 24.3945 247.324 25.4336 248.238 26.1836L 247.793 27.5078C 246.754 26.9297 245.762 25.9609 244.816 24.6016C 242.973 21.9453 242.051 18.7695 242.051 15.0742ZM 251.953 3.77734L 253.195 4.62109C 252.469 5.61328 252.094 6.68359 252.07 7.83203L 252.07 9.42578L 249.914 9.42578L 249.914 8.06641C 249.914 7.26953 250.102 6.48047 250.477 5.69922C 250.859 4.91797 251.352 4.27734 251.953 3.77734ZM 255.645 3.77734L 256.887 4.62109C 256.16 5.61328 255.785 6.68359 255.762 7.83203L 255.762 9.42578L 253.605 9.42578L 253.605 8.06641C 253.605 7.26953 253.793 6.48047 254.168 5.69922C 254.551 4.91797 255.043 4.27734 255.645 3.77734ZM 263.074 13.9492L 265.887 9.32031L 268.418 9.32031L 264.27 15.5898L 268.547 22L 266.039 22L 263.109 17.2539L 260.18 22L 257.66 22L 261.938 15.5898L 257.789 9.32031L 260.297 9.32031L 263.074 13.9492ZM 272.766 9.32031L 272.824 10.7266C 273.754 9.63281 275.008 9.08594 276.586 9.08594C 278.359 9.08594 279.566 9.76562 280.207 11.125C 280.629 10.5156 281.176 10.0234 281.848 9.64844C 282.527 9.27344 283.328 9.08594 284.25 9.08594C 287.031 9.08594 288.445 10.5586 288.492 13.5039L 288.492 22L 286.324 22L 286.324 13.6328C 286.324 12.7266 286.117 12.0508 285.703 11.6055C 285.289 11.1523 284.594 10.9258 283.617 10.9258C 282.813 10.9258 282.145 11.168 281.613 11.6523C 281.082 12.1289 280.773 12.7734 280.688 13.5859L 280.688 22L 278.508 22L 278.508 13.6914C 278.508 11.8477 277.605 10.9258 275.801 10.9258C 274.379 10.9258 273.406 11.5313 272.883 12.7422L 272.883 22L 270.715 22L 270.715 9.32031L 272.766 9.32031ZM 297.035 22.2344C 295.316 22.2344 293.918 21.6719 292.84 20.5469C 291.762 19.4141 291.223 17.9023 291.223 16.0117L 291.223 15.6133C 291.223 14.3555 291.461 13.2344 291.938 12.25C 292.422 11.2578 293.094 10.4844 293.953 9.92969C 294.82 9.36719 295.758 9.08594 296.766 9.08594C 298.414 9.08594 299.695 9.62891 300.609 10.7148C 301.523 11.8008 301.98 13.3555 301.98 15.3789L 301.98 16.2812L 293.391 16.2812C 293.422 17.5312 293.785 18.543 294.48 19.3164C 295.184 20.082 296.074 20.4648 297.152 20.4648C 297.918 20.4648 298.566 20.3086 299.098 19.9961C 299.629 19.6836 300.094 19.2695 300.492 18.7539L 301.816 19.7852C 300.754 21.418 299.16 22.2344 297.035 22.2344ZM 296.766 10.8672C 295.891 10.8672 295.156 11.1875 294.562 11.8281C 293.969 12.4609 293.602 13.3516 293.461 14.5L 299.812 14.5L 299.812 14.3359C 299.75 13.2344 299.453 12.3828 298.922 11.7812C 298.391 11.1719 297.672 10.8672 296.766 10.8672ZM 306.551 9.32031L 306.621 10.9141C 307.59 9.69531 308.855 9.08594 310.418 9.08594C 313.098 9.08594 314.449 10.5977 314.473 13.6211L 314.473 22L 312.305 22L 312.305 13.6094C 312.297 12.6953 312.086 12.0195 311.672 11.582C 311.266 11.1445 310.629 10.9258 309.762 10.9258C 309.059 10.9258 308.441 11.1133 307.91 11.4883C 307.379 11.8633 306.965 12.3555 306.668 12.9648L 306.668 22L 304.5 22L 304.5 9.32031L 306.551 9.32031ZM 317.168 15.543C 317.168 14.3008 317.41 13.1836 317.895 12.1914C 318.387 11.1992 319.066 10.4336 319.934 9.89453C 320.809 9.35547 321.805 9.08594 322.922 9.08594C 324.648 9.08594 326.043 9.68359 327.105 10.8789C 328.176 12.0742 328.711 13.6641 328.711 15.6484L 328.711 15.8008C 328.711 17.0352 328.473 18.1445 327.996 19.1289C 327.527 20.1055 326.852 20.8672 325.969 21.4141C 325.094 21.9609 324.086 22.2344 322.945 22.2344C 321.227 22.2344 319.832 21.6367 318.762 20.4414C 317.699 19.2461 317.168 17.6641 317.168 15.6953L 317.168 15.543ZM 319.348 15.8008C 319.348 17.207 319.672 18.3359 320.32 19.1875C 320.977 20.0391 321.852 20.4648 322.945 20.4648C 324.047 20.4648 324.922 20.0352 325.57 19.1758C 326.219 18.3086 326.543 17.0977 326.543 15.543C 326.543 14.1523 326.211 13.0273 325.547 12.168C 324.891 11.3008 324.016 10.8672 322.922 10.8672C 321.852 10.8672 320.988 11.293 320.332 12.1445C 319.676 12.9961 319.348 14.2148 319.348 15.8008ZM 337.559 11.2656C 337.23 11.2109 336.875 11.1836 336.492 11.1836C 335.07 11.1836 334.105 11.7891 333.598 13L 333.598 22L 331.43 22L 331.43 9.32031L 333.539 9.32031L 333.574 10.7852C 334.285 9.65234 335.293 9.08594 336.598 9.08594C 337.02 9.08594 337.34 9.14062 337.559 9.25L 337.559 11.2656ZM 341.918 22L 339.75 22L 339.75 9.32031L 341.918 9.32031L 341.918 22ZM 339.574 5.95703C 339.574 5.60547 339.68 5.30859 339.891 5.06641C 340.109 4.82422 340.43 4.70312 340.852 4.70312C 341.273 4.70312 341.594 4.82422 341.812 5.06641C 342.031 5.30859 342.141 5.60547 342.141 5.95703C 342.141 6.30859 342.031 6.60156 341.812 6.83594C 341.594 7.07031 341.273 7.1875 340.852 7.1875C 340.43 7.1875 340.109 7.07031 339.891 6.83594C 339.68 6.60156 339.574 6.30859 339.574 5.95703ZM 344.883 15.5547C 344.883 13.5781 345.34 12.0078 346.254 10.8438C 347.168 9.67188 348.379 9.08594 349.887 9.08594C 351.434 9.08594 352.641 9.63281 353.508 10.7266L 353.613 9.32031L 355.594 9.32031L 355.594 21.6953C 355.594 23.3359 355.105 24.6289 354.129 25.5742C 353.16 26.5195 351.855 26.9922 350.215 26.9922C 349.301 26.9922 348.406 26.7969 347.531 26.4062C 346.656 26.0156 345.988 25.4805 345.527 24.8008L 346.652 23.5C 347.582 24.6484 348.719 25.2227 350.062 25.2227C 351.117 25.2227 351.938 24.9258 352.523 24.332C 353.117 23.7383 353.414 22.9023 353.414 21.8242L 353.414 20.7344C 352.547 21.7344 351.363 22.2344 349.863 22.2344C 348.379 22.2344 347.176 21.6367 346.254 20.4414C 345.34 19.2461 344.883 17.6172 344.883 15.5547ZM 347.062 15.8008C 347.062 17.2305 347.355 18.3555 347.941 19.1758C 348.527 19.9883 349.348 20.3945 350.402 20.3945C 351.77 20.3945 352.773 19.7734 353.414 18.5312L 353.414 12.7422C 352.75 11.5313 351.754 10.9258 350.426 10.9258C 349.371 10.9258 348.547 11.3359 347.953 12.1562C 347.359 12.9766 347.062 14.1914 347.062 15.8008ZM 361.23 22L 359.062 22L 359.062 9.32031L 361.23 9.32031L 361.23 22ZM 358.887 5.95703C 358.887 5.60547 358.992 5.30859 359.203 5.06641C 359.422 4.82422 359.742 4.70312 360.164 4.70312C 360.586 4.70312 360.906 4.82422 361.125 5.06641C 361.344 5.30859 361.453 5.60547 361.453 5.95703C 361.453 6.30859 361.344 6.60156 361.125 6.83594C 360.906 7.07031 360.586 7.1875 360.164 7.1875C 359.742 7.1875 359.422 7.07031 359.203 6.83594C 358.992 6.60156 358.887 6.30859 358.887 5.95703ZM 366.762 9.32031L 366.832 10.9141C 367.801 9.69531 369.066 9.08594 370.629 9.08594C 373.309 9.08594 374.66 10.5977 374.684 13.6211L 374.684 22L 372.516 22L 372.516 13.6094C 372.508 12.6953 372.297 12.0195 371.883 11.582C 371.477 11.1445 370.84 10.9258 369.973 10.9258C 369.27 10.9258 368.652 11.1133 368.121 11.4883C 367.59 11.8633 367.176 12.3555 366.879 12.9648L 366.879 22L 364.711 22L 364.711 9.32031L 366.762 9.32031ZM 385.336 18.6367C 385.336 18.0508 385.113 17.5977 384.668 17.2773C 384.23 16.9492 383.461 16.668 382.359 16.4336C 381.266 16.1992 380.395 15.918 379.746 15.5898C 379.105 15.2617 378.629 14.8711 378.316 14.418C 378.012 13.9648 377.859 13.4258 377.859 12.8008C 377.859 11.7617 378.297 10.8828 379.172 10.1641C 380.055 9.44531 381.18 9.08594 382.547 9.08594C 383.984 9.08594 385.148 9.45703 386.039 10.1992C 386.938 10.9414 387.387 11.8906 387.387 13.0469L 385.207 13.0469C 385.207 12.4531 384.953 11.9414 384.445 11.5117C 383.945 11.082 383.312 10.8672 382.547 10.8672C 381.758 10.8672 381.141 11.0391 380.695 11.3828C 380.25 11.7266 380.027 12.1758 380.027 12.7305C 380.027 13.2539 380.234 13.6484 380.648 13.9141C 381.063 14.1797 381.809 14.4336 382.887 14.6758C 383.973 14.918 384.852 15.207 385.523 15.543C 386.195 15.8789 386.691 16.2852 387.012 16.7617C 387.34 17.2305 387.504 17.8047 387.504 18.4844C 387.504 19.6172 387.051 20.5273 386.145 21.2148C 385.238 21.8945 384.062 22.2344 382.617 22.2344C 381.602 22.2344 380.703 22.0547 379.922 21.6953C 379.141 21.3359 378.527 20.8359 378.082 20.1953C 377.645 19.5469 377.426 18.8477 377.426 18.0977L 379.594 18.0977C 379.633 18.8242 379.922 19.4023 380.461 19.832C 381.008 20.2539 381.727 20.4648 382.617 20.4648C 383.438 20.4648 384.094 20.3008 384.586 19.9727C 385.086 19.6367 385.336 19.1914 385.336 18.6367ZM 401.555 19.0117L 403.992 9.32031L 406.16 9.32031L 402.469 22L 400.711 22L 397.629 12.3906L 394.629 22L 392.871 22L 389.191 9.32031L 391.348 9.32031L 393.844 18.8125L 396.797 9.32031L 398.543 9.32031L 401.555 19.0117ZM 407.801 15.543C 407.801 14.3008 408.043 13.1836 408.527 12.1914C 409.02 11.1992 409.699 10.4336 410.566 9.89453C 411.441 9.35547 412.437 9.08594 413.555 9.08594C 415.281 9.08594 416.676 9.68359 417.738 10.8789C 418.809 12.0742 419.344 13.6641 419.344 15.6484L 419.344 15.8008C 419.344 17.0352 419.105 18.1445 418.629 19.1289C 418.16 20.1055 417.484 20.8672 416.602 21.4141C 415.727 21.9609 414.719 22.2344 413.578 22.2344C 411.859 22.2344 410.465 21.6367 409.395 20.4414C 408.332 19.2461 407.801 17.6641 407.801 15.6953L 407.801 15.543ZM 409.98 15.8008C 409.98 17.207 410.305 18.3359 410.953 19.1875C 411.609 20.0391 412.484 20.4648 413.578 20.4648C 414.68 20.4648 415.555 20.0352 416.203 19.1758C 416.852 18.3086 417.176 17.0977 417.176 15.543C 417.176 14.1523 416.844 13.0273 416.18 12.168C 415.523 11.3008 414.648 10.8672 413.555 10.8672C 412.484 10.8672 411.621 11.293 410.965 12.1445C 410.309 12.9961 409.98 14.2148 409.98 15.8008ZM 424.418 22L 422.25 22L 422.25 4L 424.418 4L 424.418 22ZM 432.082 19.0586L 435.223 9.32031L 437.438 9.32031L 432.891 22L 431.238 22L 426.645 9.32031L 428.859 9.32031L 432.082 19.0586ZM 444.621 22.2344C 442.902 22.2344 441.504 21.6719 440.426 20.5469C 439.348 19.4141 438.809 17.9023 438.809 16.0117L 438.809 15.6133C 438.809 14.3555 439.047 13.2344 439.523 12.25C 440.008 11.2578 440.68 10.4844 441.539 9.92969C 442.406 9.36719 443.344 9.08594 444.352 9.08594C 446 9.08594 447.281 9.62891 448.195 10.7148C 449.109 11.8008 449.566 13.3555 449.566 15.3789L 449.566 16.2812L 440.977 16.2812C 441.008 17.5312 441.371 18.543 442.066 19.3164C 442.77 20.082 443.66 20.4648 444.738 20.4648C 445.504 20.4648 446.152 20.3086 446.684 19.9961C 447.215 19.6836 447.68 19.2695 448.078 18.7539L 449.402 19.7852C 448.34 21.418 446.746 22.2344 444.621 22.2344ZM 444.352 10.8672C 443.477 10.8672 442.742 11.1875 442.148 11.8281C 441.555 12.4609 441.188 13.3516 441.047 14.5L 447.398 14.5L 447.398 14.3359C 447.336 13.2344 447.039 12.3828 446.508 11.7812C 445.977 11.1719 445.258 10.8672 444.352 10.8672ZM 458.215 11.2656C 457.887 11.2109 457.531 11.1836 457.148 11.1836C 455.727 11.1836 454.762 11.7891 454.254 13L 454.254 22L 452.086 22L 452.086 9.32031L 454.195 9.32031L 454.23 10.7852C 454.941 9.65234 455.949 9.08594 457.254 9.08594C 457.676 9.08594 457.996 9.14062 458.215 9.25L 458.215 11.2656ZM 462.574 22L 460.406 22L 460.406 9.32031L 462.574 9.32031L 462.574 22ZM 460.23 5.95703C 460.23 5.60547 460.336 5.30859 460.547 5.06641C 460.766 4.82422 461.086 4.70312 461.508 4.70312C 461.93 4.70312 462.25 4.82422 462.469 5.06641C 462.687 5.30859 462.797 5.60547 462.797 5.95703C 462.797 6.30859 462.687 6.60156 462.469 6.83594C 462.25 7.07031 461.93 7.1875 461.508 7.1875C 461.086 7.1875 460.766 7.07031 460.547 6.83594C 460.336 6.60156 460.23 6.30859 460.23 5.95703ZM 468.105 9.32031L 468.176 10.9141C 469.145 9.69531 470.41 9.08594 471.973 9.08594C 474.652 9.08594 476.004 10.5977 476.027 13.6211L 476.027 22L 473.859 22L 473.859 13.6094C 473.852 12.6953 473.641 12.0195 473.227 11.582C 472.82 11.1445 472.184 10.9258 471.316 10.9258C 470.613 10.9258 469.996 11.1133 469.465 11.4883C 468.934 11.8633 468.52 12.3555 468.223 12.9648L 468.223 22L 466.055 22L 466.055 9.32031L 468.105 9.32031ZM 484.559 22.2344C 482.84 22.2344 481.441 21.6719 480.363 20.5469C 479.285 19.4141 478.746 17.9023 478.746 16.0117L 478.746 15.6133C 478.746 14.3555 478.984 13.2344 479.461 12.25C 479.945 11.2578 480.617 10.4844 481.477 9.92969C 482.344 9.36719 483.281 9.08594 484.289 9.08594C 485.938 9.08594 487.219 9.62891 488.133 10.7148C 489.047 11.8008 489.504 13.3555 489.504 15.3789L 489.504 16.2812L 480.914 16.2812C 480.945 17.5312 481.309 18.543 482.004 19.3164C 482.707 20.082 483.598 20.4648 484.676 20.4648C 485.441 20.4648 486.09 20.3086 486.621 19.9961C 487.152 19.6836 487.617 19.2695 488.016 18.7539L 489.34 19.7852C 488.277 21.418 486.684 22.2344 484.559 22.2344ZM 484.289 10.8672C 483.414 10.8672 482.68 11.1875 482.086 11.8281C 481.492 12.4609 481.125 13.3516 480.984 14.5L 487.336 14.5L 487.336 14.3359C 487.273 13.2344 486.977 12.3828 486.445 11.7812C 485.914 11.1719 485.195 10.8672 484.289 10.8672ZM 492.152 9.74219L 490.922 8.89844C 491.648 7.88281 492.023 6.8125 492.047 5.6875L 492.047 4L 494.191 4L 494.191 5.52344C 494.184 6.30469 493.988 7.08594 493.605 7.86719C 493.23 8.64062 492.746 9.26563 492.152 9.74219ZM 495.75 9.74219L 494.52 8.89844C 495.246 7.88281 495.621 6.8125 495.645 5.6875L 495.645 4L 497.789 4L 497.789 5.52344C 497.781 6.30469 497.586 7.08594 497.203 7.86719C 496.828 8.64062 496.344 9.26563 495.75 9.74219ZM 500.367 25.3984L 499.137 24.5547C 499.871 23.5313 500.254 22.4766 500.285 21.3906L 500.285 19.4336L 502.406 19.4336L 502.406 21.1328C 502.406 21.9219 502.211 22.7109 501.82 23.5C 501.437 24.2891 500.953 24.9219 500.367 25.3984ZM 512.719 3.77734L 513.961 4.62109C 513.234 5.61328 512.859 6.68359 512.836 7.83203L 512.836 9.42578L 510.68 9.42578L 510.68 8.06641C 510.68 7.26953 510.867 6.48047 511.242 5.69922C 511.625 4.91797 512.117 4.27734 512.719 3.77734ZM 516.41 3.77734L 517.652 4.62109C 516.926 5.61328 516.551 6.68359 516.527 7.83203L 516.527 9.42578L 514.371 9.42578L 514.371 8.06641C 514.371 7.26953 514.559 6.48047 514.934 5.69922C 515.316 4.91797 515.809 4.27734 516.41 3.77734ZM 524.953 14.3945C 523.023 13.8398 521.617 13.1602 520.734 12.3555C 519.859 11.543 519.422 10.543 519.422 9.35547C 519.422 8.01172 519.957 6.90234 521.027 6.02734C 522.105 5.14453 523.504 4.70312 525.223 4.70312C 526.395 4.70312 527.438 4.92969 528.352 5.38281C 529.273 5.83594 529.984 6.46094 530.484 7.25781C 530.992 8.05469 531.246 8.92578 531.246 9.87109L 528.984 9.87109C 528.984 8.83984 528.656 8.03125 528 7.44531C 527.344 6.85156 526.418 6.55469 525.223 6.55469C 524.113 6.55469 523.246 6.80078 522.621 7.29297C 522.004 7.77734 521.695 8.45312 521.695 9.32031C 521.695 10.0156 521.988 10.6055 522.574 11.0898C 523.168 11.5664 524.172 12.0039 525.586 12.4023C 527.008 12.8008 528.117 13.2422 528.914 13.7266C 529.719 14.2031 530.313 14.7617 530.695 15.4023C 531.086 16.043 531.281 16.7969 531.281 17.6641C 531.281 19.0469 530.742 20.1563 529.664 20.9922C 528.586 21.8203 527.145 22.2344 525.34 22.2344C 524.168 22.2344 523.074 22.0117 522.059 21.5664C 521.043 21.1133 520.258 20.4961 519.703 19.7148C 519.156 18.9336 518.883 18.0469 518.883 17.0547L 521.145 17.0547C 521.145 18.0859 521.523 18.9023 522.281 19.5039C 523.047 20.0977 524.066 20.3945 525.34 20.3945C 526.527 20.3945 527.438 20.1523 528.07 19.668C 528.703 19.1836 529.02 18.5234 529.02 17.6875C 529.02 16.8516 528.727 16.207 528.141 15.7539C 527.555 15.293 526.492 14.8398 524.953 14.3945ZM 541.664 20.7461C 540.82 21.7383 539.582 22.2344 537.949 22.2344C 536.598 22.2344 535.566 21.8438 534.855 21.0625C 534.152 20.2734 533.797 19.1094 533.789 17.5703L 533.789 9.32031L 535.957 9.32031L 535.957 17.5117C 535.957 19.4336 536.738 20.3945 538.301 20.3945C 539.957 20.3945 541.059 19.7773 541.605 18.543L 541.605 9.32031L 543.773 9.32031L 543.773 22L 541.711 22L 541.664 20.7461ZM 557.789 15.8008C 557.789 17.7305 557.348 19.2852 556.465 20.4648C 555.582 21.6445 554.387 22.2344 552.879 22.2344C 551.34 22.2344 550.129 21.7461 549.246 20.7695L 549.246 26.875L 547.078 26.875L 547.078 9.32031L 549.059 9.32031L 549.164 10.7266C 550.047 9.63281 551.273 9.08594 552.844 9.08594C 554.367 9.08594 555.57 9.66016 556.453 10.8086C 557.344 11.957 557.789 13.5547 557.789 15.6016L 557.789 15.8008ZM 555.621 15.5547C 555.621 14.125 555.316 12.9961 554.707 12.168C 554.098 11.3398 553.262 10.9258 552.199 10.9258C 550.887 10.9258 549.902 11.5078 549.246 12.6719L 549.246 18.7305C 549.895 19.8867 550.887 20.4648 552.223 20.4648C 553.262 20.4648 554.086 20.0547 554.695 19.2344C 555.313 18.4063 555.621 17.1797 555.621 15.5547ZM 565.816 22.2344C 564.098 22.2344 562.699 21.6719 561.621 20.5469C 560.543 19.4141 560.004 17.9023 560.004 16.0117L 560.004 15.6133C 560.004 14.3555 560.242 13.2344 560.719 12.25C 561.203 11.2578 561.875 10.4844 562.734 9.92969C 563.602 9.36719 564.539 9.08594 565.547 9.08594C 567.195 9.08594 568.477 9.62891 569.391 10.7148C 570.305 11.8008 570.762 13.3555 570.762 15.3789L 570.762 16.2812L 562.172 16.2812C 562.203 17.5312 562.566 18.543 563.262 19.3164C 563.965 20.082 564.855 20.4648 565.934 20.4648C 566.699 20.4648 567.348 20.3086 567.879 19.9961C 568.41 19.6836 568.875 19.2695 569.273 18.7539L 570.598 19.7852C 569.535 21.418 567.941 22.2344 565.816 22.2344ZM 565.547 10.8672C 564.672 10.8672 563.937 11.1875 563.344 11.8281C 562.75 12.4609 562.383 13.3516 562.242 14.5L 568.594 14.5L 568.594 14.3359C 568.531 13.2344 568.234 12.3828 567.703 11.7812C 567.172 11.1719 566.453 10.8672 565.547 10.8672ZM 579.41 11.2656C 579.082 11.2109 578.727 11.1836 578.344 11.1836C 576.922 11.1836 575.957 11.7891 575.449 13L 575.449 22L 573.281 22L 573.281 9.32031L 575.391 9.32031L 575.426 10.7852C 576.137 9.65234 577.145 9.08594 578.449 9.08594C 578.871 9.08594 579.191 9.14062 579.41 9.25L 579.41 11.2656ZM 583.453 9.32031L 583.512 10.7266C 584.441 9.63281 585.695 9.08594 587.273 9.08594C 589.047 9.08594 590.254 9.76562 590.895 11.125C 591.316 10.5156 591.863 10.0234 592.535 9.64844C 593.215 9.27344 594.016 9.08594 594.938 9.08594C 597.719 9.08594 599.133 10.5586 599.18 13.5039L 599.18 22L 597.012 22L 597.012 13.6328C 597.012 12.7266 596.805 12.0508 596.391 11.6055C 595.977 11.1523 595.281 10.9258 594.305 10.9258C 593.5 10.9258 592.832 11.168 592.301 11.6523C 591.77 12.1289 591.461 12.7734 591.375 13.5859L 591.375 22L 589.195 22L 589.195 13.6914C 589.195 11.8477 588.293 10.9258 586.488 10.9258C 585.066 10.9258 584.094 11.5313 583.57 12.7422L 583.57 22L 581.402 22L 581.402 9.32031L 583.453 9.32031ZM 610.289 22C 610.164 21.75 610.063 21.3047 609.984 20.6641C 608.977 21.7109 607.773 22.2344 606.375 22.2344C 605.125 22.2344 604.098 21.8828 603.293 21.1797C 602.496 20.4687 602.098 19.5703 602.098 18.4844C 602.098 17.1641 602.598 16.1406 603.598 15.4141C 604.605 14.6797 606.02 14.3125 607.84 14.3125L 609.949 14.3125L 609.949 13.3164C 609.949 12.5586 609.723 11.957 609.27 11.5117C 608.816 11.0586 608.148 10.832 607.266 10.832C 606.492 10.832 605.844 11.0273 605.32 11.418C 604.797 11.8086 604.535 12.2813 604.535 12.8359L 602.355 12.8359C 602.355 12.2031 602.578 11.5938 603.023 11.0078C 603.477 10.4141 604.086 9.94531 604.852 9.60156C 605.625 9.25781 606.473 9.08594 607.395 9.08594C 608.855 9.08594 610 9.45313 610.828 10.1875C 611.656 10.9141 612.086 11.918 612.117 13.1992L 612.117 19.0352C 612.117 20.1992 612.266 21.125 612.562 21.8125L 612.562 22L 610.289 22ZM 606.691 20.3477C 607.371 20.3477 608.016 20.1719 608.625 19.8203C 609.234 19.4688 609.676 19.0117 609.949 18.4492L 609.949 15.8477L 608.25 15.8477C 605.594 15.8477 604.266 16.625 604.266 18.1797C 604.266 18.8594 604.492 19.3906 604.945 19.7734C 605.398 20.1563 605.98 20.3477 606.691 20.3477ZM 617.566 9.32031L 617.637 10.9141C 618.605 9.69531 619.871 9.08594 621.434 9.08594C 624.113 9.08594 625.465 10.5977 625.488 13.6211L 625.488 22L 623.32 22L 623.32 13.6094C 623.312 12.6953 623.102 12.0195 622.688 11.582C 622.281 11.1445 621.645 10.9258 620.777 10.9258C 620.074 10.9258 619.457 11.1133 618.926 11.4883C 618.395 11.8633 617.98 12.3555 617.684 12.9648L 617.684 22L 615.516 22L 615.516 9.32031L 617.566 9.32031ZM 627.832 9.74219L 626.602 8.89844C 627.328 7.88281 627.703 6.8125 627.727 5.6875L 627.727 4L 629.871 4L 629.871 5.52344C 629.863 6.30469 629.668 7.08594 629.285 7.86719C 628.91 8.64062 628.426 9.26563 627.832 9.74219ZM 631.43 9.74219L 630.199 8.89844C 630.926 7.88281 631.301 6.8125 631.324 5.6875L 631.324 4L 633.469 4L 633.469 5.52344C 633.461 6.30469 633.266 7.08594 632.883 7.86719C 632.508 8.64062 632.023 9.26563 631.43 9.74219ZM 641.121 15.1914C 641.121 16.9336 640.891 18.6055 640.43 20.207C 639.977 21.8008 639.277 23.2734 638.332 24.625C 637.395 25.9766 636.41 26.9375 635.379 27.5078L 634.922 26.1836C 636.125 25.2617 637.09 23.832 637.816 21.8945C 638.551 19.9492 638.926 17.793 638.941 15.4258L 638.941 15.0508C 638.941 13.4102 638.77 11.8867 638.426 10.4805C 638.082 9.06641 637.602 7.80078 636.984 6.68359C 636.375 5.56641 635.688 4.69531 634.922 4.07031L 635.379 2.74609C 636.41 3.31641 637.391 4.26953 638.32 5.60547C 639.258 6.94141 639.957 8.41406 640.418 10.0234C 640.887 11.6328 641.121 13.3555 641.121 15.1914ZM 642.926 2.5L 647.355 2.5L 647.355 25.6562L 642.926 25.6562L 642.926 23.875L 645.188 23.875L 645.188 4.28125L 642.926 4.28125L 642.926 2.5Z"/>
<path id="path3_fill" d="M 3.80859 10.8555C 4.76953 9.67578 6.01953 9.08594 7.55859 9.08594C 10.2383 9.08594 11.5898 10.5977 11.6133 13.6211L 11.6133 22L 9.44531 22L 9.44531 13.6094C 9.4375 12.6953 9.22656 12.0195 8.8125 11.582C 8.40625 11.1445 7.76953 10.9258 6.90234 10.9258C 6.19922 10.9258 5.58203 11.1133 5.05078 11.4883C 4.51953 11.8633 4.10547 12.3555 3.80859 12.9648L 3.80859 22L 1.64062 22L 1.64062 4L 3.80859 4L 3.80859 10.8555ZM 22.6875 22C 22.5625 21.75 22.4609 21.3047 22.3828 20.6641C 21.375 21.7109 20.1719 22.2344 18.7734 22.2344C 17.5234 22.2344 16.4961 21.8828 15.6914 21.1797C 14.8945 20.4687 14.4961 19.5703 14.4961 18.4844C 14.4961 17.1641 14.9961 16.1406 15.9961 15.4141C 17.0039 14.6797 18.418 14.3125 20.2383 14.3125L 22.3477 14.3125L 22.3477 13.3164C 22.3477 12.5586 22.1211 11.957 21.668 11.5117C 21.2148 11.0586 20.5469 10.832 19.6641 10.832C 18.8906 10.832 18.2422 11.0273 17.7188 11.418C 17.1953 11.8086 16.9336 12.2813 16.9336 12.8359L 14.7539 12.8359C 14.7539 12.2031 14.9766 11.5938 15.4219 11.0078C 15.875 10.4141 16.4844 9.94531 17.25 9.60156C 18.0234 9.25781 18.8711 9.08594 19.793 9.08594C 21.2539 9.08594 22.3984 9.45313 23.2266 10.1875C 24.0547 10.9141 24.4844 11.918 24.5156 13.1992L 24.5156 19.0352C 24.5156 20.1992 24.6641 21.125 24.9609 21.8125L 24.9609 22L 22.6875 22ZM 19.0898 20.3477C 19.7695 20.3477 20.4141 20.1719 21.0234 19.8203C 21.6328 19.4688 22.0742 19.0117 22.3477 18.4492L 22.3477 15.8477L 20.6484 15.8477C 17.9922 15.8477 16.6641 16.625 16.6641 18.1797C 16.6641 18.8594 16.8906 19.3906 17.3438 19.7734C 17.7969 20.1563 18.3789 20.3477 19.0898 20.3477ZM 35.2969 18.6367C 35.2969 18.0508 35.0742 17.5977 34.6289 17.2773C 34.1914 16.9492 33.4219 16.668 32.3203 16.4336C 31.2266 16.1992 30.3555 15.918 29.707 15.5898C 29.0664 15.2617 28.5898 14.8711 28.2773 14.418C 27.9727 13.9648 27.8203 13.4258 27.8203 12.8008C 27.8203 11.7617 28.2578 10.8828 29.1328 10.1641C 30.0156 9.44531 31.1406 9.08594 32.5078 9.08594C 33.9453 9.08594 35.1094 9.45703 36 10.1992C 36.8984 10.9414 37.3477 11.8906 37.3477 13.0469L 35.168 13.0469C 35.168 12.4531 34.9141 11.9414 34.4062 11.5117C 33.9062 11.082 33.2734 10.8672 32.5078 10.8672C 31.7187 10.8672 31.1016 11.0391 30.6562 11.3828C 30.2109 11.7266 29.9883 12.1758 29.9883 12.7305C 29.9883 13.2539 30.1953 13.6484 30.6094 13.9141C 31.0234 14.1797 31.7695 14.4336 32.8477 14.6758C 33.9336 14.918 34.8125 15.207 35.4844 15.543C 36.1562 15.8789 36.6523 16.2852 36.9727 16.7617C 37.3008 17.2305 37.4648 17.8047 37.4648 18.4844C 37.4648 19.6172 37.0117 20.5273 36.1055 21.2148C 35.1992 21.8945 34.0234 22.2344 32.5781 22.2344C 31.5625 22.2344 30.6641 22.0547 29.8828 21.6953C 29.1016 21.3359 28.4883 20.8359 28.043 20.1953C 27.6055 19.5469 27.3867 18.8477 27.3867 18.0977L 29.5547 18.0977C 29.5938 18.8242 29.8828 19.4023 30.4219 19.832C 30.9687 20.2539 31.6875 20.4648 32.5781 20.4648C 33.3984 20.4648 34.0547 20.3008 34.5469 19.9727C 35.0469 19.6367 35.2969 19.1914 35.2969 18.6367ZM 42.457 10.8555C 43.418 9.67578 44.668 9.08594 46.207 9.08594C 48.8867 9.08594 50.2383 10.5977 50.2617 13.6211L 50.2617 22L 48.0938 22L 48.0938 13.6094C 48.0859 12.6953 47.875 12.0195 47.4609 11.582C 47.0547 11.1445 46.418 10.9258 45.5508 10.9258C 44.8477 10.9258 44.2305 11.1133 43.6992 11.4883C 43.168 11.8633 42.7539 12.3555 42.457 12.9648L 42.457 22L 40.2891 22L 40.2891 4L 42.457 4L 42.457 10.8555ZM 62.6484 23.7695L 51.9141 23.7695L 51.9141 22L 62.6484 22L 62.6484 23.7695ZM 67.2773 6.25L 67.2773 9.32031L 69.6445 9.32031L 69.6445 10.9961L 67.2773 10.9961L 67.2773 18.8594C 67.2773 19.3672 67.3828 19.75 67.5938 20.0078C 67.8047 20.2578 68.1641 20.3828 68.6719 20.3828C 68.9219 20.3828 69.2656 20.3359 69.7031 20.2422L 69.7031 22C 69.1328 22.1562 68.5781 22.2344 68.0391 22.2344C 67.0703 22.2344 66.3398 21.9414 65.8477 21.3555C 65.3555 20.7695 65.1094 19.9375 65.1094 18.8594L 65.1094 10.9961L 62.8008 10.9961L 62.8008 9.32031L 65.1094 9.32031L 65.1094 6.25L 67.2773 6.25ZM 80.0156 22C 79.8906 21.75 79.7891 21.3047 79.7109 20.6641C 78.7031 21.7109 77.5 22.2344 76.1016 22.2344C 74.8516 22.2344 73.8242 21.8828 73.0195 21.1797C 72.2227 20.4687 71.8242 19.5703 71.8242 18.4844C 71.8242 17.1641 72.3242 16.1406 73.3242 15.4141C 74.332 14.6797 75.7461 14.3125 77.5664 14.3125L 79.6758 14.3125L 79.6758 13.3164C 79.6758 12.5586 79.4492 11.957 78.9961 11.5117C 78.543 11.0586 77.875 10.832 76.9922 10.832C 76.2188 10.832 75.5703 11.0273 75.0469 11.418C 74.5234 11.8086 74.2617 12.2813 74.2617 12.8359L 72.082 12.8359C 72.082 12.2031 72.3047 11.5938 72.75 11.0078C 73.2031 10.4141 73.8125 9.94531 74.5781 9.60156C 75.3516 9.25781 76.1992 9.08594 77.1211 9.08594C 78.582 9.08594 79.7266 9.45313 80.5547 10.1875C 81.3828 10.9141 81.8125 11.918 81.8438 13.1992L 81.8438 19.0352C 81.8438 20.1992 81.9922 21.125 82.2891 21.8125L 82.2891 22L 80.0156 22ZM 76.418 20.3477C 77.0977 20.3477 77.7422 20.1719 78.3516 19.8203C 78.9609 19.4688 79.4023 19.0117 79.6758 18.4492L 79.6758 15.8477L 77.9766 15.8477C 75.3203 15.8477 73.9922 16.625 73.9922 18.1797C 73.9922 18.8594 74.2188 19.3906 74.6719 19.7734C 75.125 20.1563 75.707 20.3477 76.418 20.3477ZM 95.9766 15.8008C 95.9766 17.7383 95.5312 19.2969 94.6406 20.4766C 93.75 21.6484 92.5547 22.2344 91.0547 22.2344C 89.4531 22.2344 88.2148 21.668 87.3398 20.5352L 87.2344 22L 85.2422 22L 85.2422 4L 87.4102 4L 87.4102 10.7148C 88.2852 9.62891 89.4922 9.08594 91.0312 9.08594C 92.5703 9.08594 93.7773 9.66797 94.6523 10.832C 95.5352 11.9961 95.9766 13.5898 95.9766 15.6133L 95.9766 15.8008ZM 93.8086 15.5547C 93.8086 14.0781 93.5234 12.9375 92.9531 12.1328C 92.3828 11.3281 91.5625 10.9258 90.4922 10.9258C 89.0625 10.9258 88.0352 11.5898 87.4102 12.918L 87.4102 18.4023C 88.0742 19.7305 89.1094 20.3945 90.5156 20.3945C 91.5547 20.3945 92.3633 19.9922 92.9414 19.1875C 93.5195 18.3828 93.8086 17.1719 93.8086 15.5547ZM 101.074 22L 98.9062 22L 98.9062 4L 101.074 4L 101.074 22ZM 109.816 22.2344C 108.098 22.2344 106.699 21.6719 105.621 20.5469C 104.543 19.4141 104.004 17.9023 104.004 16.0117L 104.004 15.6133C 104.004 14.3555 104.242 13.2344 104.719 12.25C 105.203 11.2578 105.875 10.4844 106.734 9.92969C 107.602 9.36719 108.539 9.08594 109.547 9.08594C 111.195 9.08594 112.477 9.62891 113.391 10.7148C 114.305 11.8008 114.762 13.3555 114.762 15.3789L 114.762 16.2812L 106.172 16.2812C 106.203 17.5312 106.566 18.543 107.262 19.3164C 107.965 20.082 108.855 20.4648 109.934 20.4648C 110.699 20.4648 111.348 20.3086 111.879 19.9961C 112.41 19.6836 112.875 19.2695 113.273 18.7539L 114.598 19.7852C 113.535 21.418 111.941 22.2344 109.816 22.2344ZM 109.547 10.8672C 108.672 10.8672 107.937 11.1875 107.344 11.8281C 106.75 12.4609 106.383 13.3516 106.242 14.5L 112.594 14.5L 112.594 14.3359C 112.531 13.2344 112.234 12.3828 111.703 11.7812C 111.172 11.1719 110.453 10.8672 109.547 10.8672ZM 121.77 4.28125L 119.531 4.28125L 119.531 23.875L 121.77 23.875L 121.77 25.6562L 117.352 25.6562L 117.352 2.5L 121.77 2.5L 121.77 4.28125ZM 125.273 3.77734L 126.516 4.62109C 125.789 5.61328 125.414 6.68359 125.391 7.83203L 125.391 9.42578L 123.234 9.42578L 123.234 8.06641C 123.234 7.26953 123.422 6.48047 123.797 5.69922C 124.18 4.91797 124.672 4.27734 125.273 3.77734ZM 128.965 3.77734L 130.207 4.62109C 129.48 5.61328 129.105 6.68359 129.082 7.83203L 129.082 9.42578L 126.926 9.42578L 126.926 8.06641C 126.926 7.26953 127.113 6.48047 127.488 5.69922C 127.871 4.91797 128.363 4.27734 128.965 3.77734ZM 136.395 13.9492L 139.207 9.32031L 141.738 9.32031L 137.59 15.5898L 141.867 22L 139.359 22L 136.43 17.2539L 133.5 22L 130.98 22L 135.258 15.5898L 131.109 9.32031L 133.617 9.32031L 136.395 13.9492ZM 146.086 9.32031L 146.145 10.7266C 147.074 9.63281 148.328 9.08594 149.906 9.08594C 151.68 9.08594 152.887 9.76562 153.527 11.125C 153.949 10.5156 154.496 10.0234 155.168 9.64844C 155.848 9.27344 156.648 9.08594 157.57 9.08594C 160.352 9.08594 161.766 10.5586 161.812 13.5039L 161.812 22L 159.645 22L 159.645 13.6328C 159.645 12.7266 159.438 12.0508 159.023 11.6055C 158.609 11.1523 157.914 10.9258 156.938 10.9258C 156.133 10.9258 155.465 11.168 154.934 11.6523C 154.402 12.1289 154.094 12.7734 154.008 13.5859L 154.008 22L 151.828 22L 151.828 13.6914C 151.828 11.8477 150.926 10.9258 149.121 10.9258C 147.699 10.9258 146.727 11.5313 146.203 12.7422L 146.203 22L 144.035 22L 144.035 9.32031L 146.086 9.32031ZM 170.355 22.2344C 168.637 22.2344 167.238 21.6719 166.16 20.5469C 165.082 19.4141 164.543 17.9023 164.543 16.0117L 164.543 15.6133C 164.543 14.3555 164.781 13.2344 165.258 12.25C 165.742 11.2578 166.414 10.4844 167.273 9.92969C 168.141 9.36719 169.078 9.08594 170.086 9.08594C 171.734 9.08594 173.016 9.62891 173.93 10.7148C 174.844 11.8008 175.301 13.3555 175.301 15.3789L 175.301 16.2812L 166.711 16.2812C 166.742 17.5312 167.105 18.543 167.801 19.3164C 168.504 20.082 169.395 20.4648 170.473 20.4648C 171.238 20.4648 171.887 20.3086 172.418 19.9961C 172.949 19.6836 173.414 19.2695 173.812 18.7539L 175.137 19.7852C 174.074 21.418 172.48 22.2344 170.355 22.2344ZM 170.086 10.8672C 169.211 10.8672 168.477 11.1875 167.883 11.8281C 167.289 12.4609 166.922 13.3516 166.781 14.5L 173.133 14.5L 173.133 14.3359C 173.07 13.2344 172.773 12.3828 172.242 11.7812C 171.711 11.1719 170.992 10.8672 170.086 10.8672ZM 179.871 9.32031L 179.941 10.9141C 180.91 9.69531 182.176 9.08594 183.738 9.08594C 186.418 9.08594 187.77 10.5977 187.793 13.6211L 187.793 22L 185.625 22L 185.625 13.6094C 185.617 12.6953 185.406 12.0195 184.992 11.582C 184.586 11.1445 183.949 10.9258 183.082 10.9258C 182.379 10.9258 181.762 11.1133 181.23 11.4883C 180.699 11.8633 180.285 12.3555 179.988 12.9648L 179.988 22L 177.82 22L 177.82 9.32031L 179.871 9.32031ZM 190.488 15.543C 190.488 14.3008 190.73 13.1836 191.215 12.1914C 191.707 11.1992 192.387 10.4336 193.254 9.89453C 194.129 9.35547 195.125 9.08594 196.242 9.08594C 197.969 9.08594 199.363 9.68359 200.426 10.8789C 201.496 12.0742 202.031 13.6641 202.031 15.6484L 202.031 15.8008C 202.031 17.0352 201.793 18.1445 201.316 19.1289C 200.848 20.1055 200.172 20.8672 199.289 21.4141C 198.414 21.9609 197.406 22.2344 196.266 22.2344C 194.547 22.2344 193.152 21.6367 192.082 20.4414C 191.02 19.2461 190.488 17.6641 190.488 15.6953L 190.488 15.543ZM 192.668 15.8008C 192.668 17.207 192.992 18.3359 193.641 19.1875C 194.297 20.0391 195.172 20.4648 196.266 20.4648C 197.367 20.4648 198.242 20.0352 198.891 19.1758C 199.539 18.3086 199.863 17.0977 199.863 15.543C 199.863 14.1523 199.531 13.0273 198.867 12.168C 198.211 11.3008 197.336 10.8672 196.242 10.8672C 195.172 10.8672 194.309 11.293 193.652 12.1445C 192.996 12.9961 192.668 14.2148 192.668 15.8008ZM 210.879 11.2656C 210.551 11.2109 210.195 11.1836 209.812 11.1836C 208.391 11.1836 207.426 11.7891 206.918 13L 206.918 22L 204.75 22L 204.75 9.32031L 206.859 9.32031L 206.895 10.7852C 207.605 9.65234 208.613 9.08594 209.918 9.08594C 210.34 9.08594 210.66 9.14062 210.879 9.25L 210.879 11.2656ZM 215.238 22L 213.07 22L 213.07 9.32031L 215.238 9.32031L 215.238 22ZM 212.895 5.95703C 212.895 5.60547 213 5.30859 213.211 5.06641C 213.43 4.82422 213.75 4.70312 214.172 4.70312C 214.594 4.70312 214.914 4.82422 215.133 5.06641C 215.352 5.30859 215.461 5.60547 215.461 5.95703C 215.461 6.30859 215.352 6.60156 215.133 6.83594C 214.914 7.07031 214.594 7.1875 214.172 7.1875C 213.75 7.1875 213.43 7.07031 213.211 6.83594C 213 6.60156 212.895 6.30859 212.895 5.95703ZM 218.203 15.5547C 218.203 13.5781 218.66 12.0078 219.574 10.8438C 220.488 9.67188 221.699 9.08594 223.207 9.08594C 224.754 9.08594 225.961 9.63281 226.828 10.7266L 226.934 9.32031L 228.914 9.32031L 228.914 21.6953C 228.914 23.3359 228.426 24.6289 227.449 25.5742C 226.48 26.5195 225.176 26.9922 223.535 26.9922C 222.621 26.9922 221.727 26.7969 220.852 26.4062C 219.977 26.0156 219.309 25.4805 218.848 24.8008L 219.973 23.5C 220.902 24.6484 222.039 25.2227 223.383 25.2227C 224.438 25.2227 225.258 24.9258 225.844 24.332C 226.438 23.7383 226.734 22.9023 226.734 21.8242L 226.734 20.7344C 225.867 21.7344 224.684 22.2344 223.184 22.2344C 221.699 22.2344 220.496 21.6367 219.574 20.4414C 218.66 19.2461 218.203 17.6172 218.203 15.5547ZM 220.383 15.8008C 220.383 17.2305 220.676 18.3555 221.262 19.1758C 221.848 19.9883 222.668 20.3945 223.723 20.3945C 225.09 20.3945 226.094 19.7734 226.734 18.5312L 226.734 12.7422C 226.07 11.5313 225.074 10.9258 223.746 10.9258C 222.691 10.9258 221.867 11.3359 221.273 12.1562C 220.68 12.9766 220.383 14.1914 220.383 15.8008ZM 234.551 22L 232.383 22L 232.383 9.32031L 234.551 9.32031L 234.551 22ZM 232.207 5.95703C 232.207 5.60547 232.312 5.30859 232.523 5.06641C 232.742 4.82422 233.062 4.70312 233.484 4.70312C 233.906 4.70312 234.227 4.82422 234.445 5.06641C 234.664 5.30859 234.773 5.60547 234.773 5.95703C 234.773 6.30859 234.664 6.60156 234.445 6.83594C 234.227 7.07031 233.906 7.1875 233.484 7.1875C 233.062 7.1875 232.742 7.07031 232.523 6.83594C 232.312 6.60156 232.207 6.30859 232.207 5.95703ZM 240.082 9.32031L 240.152 10.9141C 241.121 9.69531 242.387 9.08594 243.949 9.08594C 246.629 9.08594 247.98 10.5977 248.004 13.6211L 248.004 22L 245.836 22L 245.836 13.6094C 245.828 12.6953 245.617 12.0195 245.203 11.582C 244.797 11.1445 244.16 10.9258 243.293 10.9258C 242.59 10.9258 241.973 11.1133 241.441 11.4883C 240.91 11.8633 240.496 12.3555 240.199 12.9648L 240.199 22L 238.031 22L 238.031 9.32031L 240.082 9.32031ZM 258.656 18.6367C 258.656 18.0508 258.434 17.5977 257.988 17.2773C 257.551 16.9492 256.781 16.668 255.68 16.4336C 254.586 16.1992 253.715 15.918 253.066 15.5898C 252.426 15.2617 251.949 14.8711 251.637 14.418C 251.332 13.9648 251.18 13.4258 251.18 12.8008C 251.18 11.7617 251.617 10.8828 252.492 10.1641C 253.375 9.44531 254.5 9.08594 255.867 9.08594C 257.305 9.08594 258.469 9.45703 259.359 10.1992C 260.258 10.9414 260.707 11.8906 260.707 13.0469L 258.527 13.0469C 258.527 12.4531 258.273 11.9414 257.766 11.5117C 257.266 11.082 256.633 10.8672 255.867 10.8672C 255.078 10.8672 254.461 11.0391 254.016 11.3828C 253.57 11.7266 253.348 12.1758 253.348 12.7305C 253.348 13.2539 253.555 13.6484 253.969 13.9141C 254.383 14.1797 255.129 14.4336 256.207 14.6758C 257.293 14.918 258.172 15.207 258.844 15.543C 259.516 15.8789 260.012 16.2852 260.332 16.7617C 260.66 17.2305 260.824 17.8047 260.824 18.4844C 260.824 19.6172 260.371 20.5273 259.465 21.2148C 258.559 21.8945 257.383 22.2344 255.938 22.2344C 254.922 22.2344 254.023 22.0547 253.242 21.6953C 252.461 21.3359 251.848 20.8359 251.402 20.1953C 250.965 19.5469 250.746 18.8477 250.746 18.0977L 252.914 18.0977C 252.953 18.8242 253.242 19.4023 253.781 19.832C 254.328 20.2539 255.047 20.4648 255.938 20.4648C 256.758 20.4648 257.414 20.3008 257.906 19.9727C 258.406 19.6367 258.656 19.1914 258.656 18.6367ZM 274.875 19.0117L 277.312 9.32031L 279.48 9.32031L 275.789 22L 274.031 22L 270.949 12.3906L 267.949 22L 266.191 22L 262.512 9.32031L 264.668 9.32031L 267.164 18.8125L 270.117 9.32031L 271.863 9.32031L 274.875 19.0117ZM 281.121 15.543C 281.121 14.3008 281.363 13.1836 281.848 12.1914C 282.34 11.1992 283.02 10.4336 283.887 9.89453C 284.762 9.35547 285.758 9.08594 286.875 9.08594C 288.602 9.08594 289.996 9.68359 291.059 10.8789C 292.129 12.0742 292.664 13.6641 292.664 15.6484L 292.664 15.8008C 292.664 17.0352 292.426 18.1445 291.949 19.1289C 291.48 20.1055 290.805 20.8672 289.922 21.4141C 289.047 21.9609 288.039 22.2344 286.898 22.2344C 285.18 22.2344 283.785 21.6367 282.715 20.4414C 281.652 19.2461 281.121 17.6641 281.121 15.6953L 281.121 15.543ZM 283.301 15.8008C 283.301 17.207 283.625 18.3359 284.273 19.1875C 284.93 20.0391 285.805 20.4648 286.898 20.4648C 288 20.4648 288.875 20.0352 289.523 19.1758C 290.172 18.3086 290.496 17.0977 290.496 15.543C 290.496 14.1523 290.164 13.0273 289.5 12.168C 288.844 11.3008 287.969 10.8672 286.875 10.8672C 285.805 10.8672 284.941 11.293 284.285 12.1445C 283.629 12.9961 283.301 14.2148 283.301 15.8008ZM 297.738 22L 295.57 22L 295.57 4L 297.738 4L 297.738 22ZM 305.402 19.0586L 308.543 9.32031L 310.758 9.32031L 306.211 22L 304.559 22L 299.965 9.32031L 302.18 9.32031L 305.402 19.0586ZM 317.941 22.2344C 316.223 22.2344 314.824 21.6719 313.746 20.5469C 312.668 19.4141 312.129 17.9023 312.129 16.0117L 312.129 15.6133C 312.129 14.3555 312.367 13.2344 312.844 12.25C 313.328 11.2578 314 10.4844 314.859 9.92969C 315.727 9.36719 316.664 9.08594 317.672 9.08594C 319.32 9.08594 320.602 9.62891 321.516 10.7148C 322.43 11.8008 322.887 13.3555 322.887 15.3789L 322.887 16.2812L 314.297 16.2812C 314.328 17.5312 314.691 18.543 315.387 19.3164C 316.09 20.082 316.98 20.4648 318.059 20.4648C 318.824 20.4648 319.473 20.3086 320.004 19.9961C 320.535 19.6836 321 19.2695 321.398 18.7539L 322.723 19.7852C 321.66 21.418 320.066 22.2344 317.941 22.2344ZM 317.672 10.8672C 316.797 10.8672 316.062 11.1875 315.469 11.8281C 314.875 12.4609 314.508 13.3516 314.367 14.5L 320.719 14.5L 320.719 14.3359C 320.656 13.2344 320.359 12.3828 319.828 11.7812C 319.297 11.1719 318.578 10.8672 317.672 10.8672ZM 331.535 11.2656C 331.207 11.2109 330.852 11.1836 330.469 11.1836C 329.047 11.1836 328.082 11.7891 327.574 13L 327.574 22L 325.406 22L 325.406 9.32031L 327.516 9.32031L 327.551 10.7852C 328.262 9.65234 329.27 9.08594 330.574 9.08594C 330.996 9.08594 331.316 9.14062 331.535 9.25L 331.535 11.2656ZM 335.895 22L 333.727 22L 333.727 9.32031L 335.895 9.32031L 335.895 22ZM 333.551 5.95703C 333.551 5.60547 333.656 5.30859 333.867 5.06641C 334.086 4.82422 334.406 4.70312 334.828 4.70312C 335.25 4.70312 335.57 4.82422 335.789 5.06641C 336.008 5.30859 336.117 5.60547 336.117 5.95703C 336.117 6.30859 336.008 6.60156 335.789 6.83594C 335.57 7.07031 335.25 7.1875 334.828 7.1875C 334.406 7.1875 334.086 7.07031 333.867 6.83594C 333.656 6.60156 333.551 6.30859 333.551 5.95703ZM 341.426 9.32031L 341.496 10.9141C 342.465 9.69531 343.73 9.08594 345.293 9.08594C 347.973 9.08594 349.324 10.5977 349.348 13.6211L 349.348 22L 347.18 22L 347.18 13.6094C 347.172 12.6953 346.961 12.0195 346.547 11.582C 346.141 11.1445 345.504 10.9258 344.637 10.9258C 343.934 10.9258 343.316 11.1133 342.785 11.4883C 342.254 11.8633 341.84 12.3555 341.543 12.9648L 341.543 22L 339.375 22L 339.375 9.32031L 341.426 9.32031ZM 357.879 22.2344C 356.16 22.2344 354.762 21.6719 353.684 20.5469C 352.605 19.4141 352.066 17.9023 352.066 16.0117L 352.066 15.6133C 352.066 14.3555 352.305 13.2344 352.781 12.25C 353.266 11.2578 353.938 10.4844 354.797 9.92969C 355.664 9.36719 356.602 9.08594 357.609 9.08594C 359.258 9.08594 360.539 9.62891 361.453 10.7148C 362.367 11.8008 362.824 13.3555 362.824 15.3789L 362.824 16.2812L 354.234 16.2812C 354.266 17.5312 354.629 18.543 355.324 19.3164C 356.027 20.082 356.918 20.4648 357.996 20.4648C 358.762 20.4648 359.41 20.3086 359.941 19.9961C 360.473 19.6836 360.938 19.2695 361.336 18.7539L 362.66 19.7852C 361.598 21.418 360.004 22.2344 357.879 22.2344ZM 357.609 10.8672C 356.734 10.8672 356 11.1875 355.406 11.8281C 354.813 12.4609 354.445 13.3516 354.305 14.5L 360.656 14.5L 360.656 14.3359C 360.594 13.2344 360.297 12.3828 359.766 11.7812C 359.234 11.1719 358.516 10.8672 357.609 10.8672ZM 365.473 9.74219L 364.242 8.89844C 364.969 7.88281 365.344 6.8125 365.367 5.6875L 365.367 4L 367.512 4L 367.512 5.52344C 367.504 6.30469 367.309 7.08594 366.926 7.86719C 366.551 8.64062 366.066 9.26563 365.473 9.74219ZM 369.07 9.74219L 367.84 8.89844C 368.566 7.88281 368.941 6.8125 368.965 5.6875L 368.965 4L 371.109 4L 371.109 5.52344C 371.102 6.30469 370.906 7.08594 370.523 7.86719C 370.148 8.64062 369.664 9.26563 369.07 9.74219ZM 372.223 2.5L 376.652 2.5L 376.652 25.6562L 372.223 25.6562L 372.223 23.875L 374.484 23.875L 374.484 4.28125L 372.223 4.28125L 372.223 2.5Z"/>
<path id="path4_fill" d="M 15.1055 14.0195C 15.1055 15.6914 14.8242 17.1523 14.2617 18.4023C 13.6992 19.6445 12.9023 20.5938 11.8711 21.25C 10.8398 21.9062 9.63672 22.2344 8.26172 22.2344C 6.91797 22.2344 5.72656 21.9062 4.6875 21.25C 3.64844 20.5859 2.83984 19.6445 2.26172 18.4258C 1.69141 17.1992 1.39844 15.7812 1.38281 14.1719L 1.38281 12.9414C 1.38281 11.3008 1.66797 9.85156 2.23828 8.59375C 2.80859 7.33594 3.61328 6.375 4.65234 5.71094C 5.69922 5.03906 6.89453 4.70312 8.23828 4.70312C 9.60547 4.70312 10.8086 5.03516 11.8477 5.69922C 12.8945 6.35547 13.6992 7.3125 14.2617 8.57031C 14.8242 9.82031 15.1055 11.2773 15.1055 12.9414L 15.1055 14.0195ZM 12.8672 12.918C 12.8672 10.8945 12.4609 9.34375 11.6484 8.26562C 10.8359 7.17969 9.69922 6.63672 8.23828 6.63672C 6.81641 6.63672 5.69531 7.17969 4.875 8.26562C 4.0625 9.34375 3.64453 10.8438 3.62109 12.7656L 3.62109 14.0195C 3.62109 15.9805 4.03125 17.5234 4.85156 18.6484C 5.67969 19.7656 6.81641 20.3242 8.26172 20.3242C 9.71484 20.3242 10.8398 19.7969 11.6367 18.7422C 12.4336 17.6797 12.8438 16.1602 12.8672 14.1836L 12.8672 12.918ZM 28.8516 15.8008C 28.8516 17.7305 28.4102 19.2852 27.5273 20.4648C 26.6445 21.6445 25.4492 22.2344 23.9414 22.2344C 22.4023 22.2344 21.1914 21.7461 20.3086 20.7695L 20.3086 26.875L 18.1406 26.875L 18.1406 9.32031L 20.1211 9.32031L 20.2266 10.7266C 21.1094 9.63281 22.3359 9.08594 23.9062 9.08594C 25.4297 9.08594 26.6328 9.66016 27.5156 10.8086C 28.4062 11.957 28.8516 13.5547 28.8516 15.6016L 28.8516 15.8008ZM 26.6836 15.5547C 26.6836 14.125 26.3789 12.9961 25.7695 12.168C 25.1602 11.3398 24.3242 10.9258 23.2617 10.9258C 21.9492 10.9258 20.9648 11.5078 20.3086 12.6719L 20.3086 18.7305C 20.957 19.8867 21.9492 20.4648 23.2852 20.4648C 24.3242 20.4648 25.1484 20.0547 25.7578 19.2344C 26.375 18.4063 26.6836 17.1797 26.6836 15.5547ZM 36.8789 22.2344C 35.1602 22.2344 33.7617 21.6719 32.6836 20.5469C 31.6055 19.4141 31.0664 17.9023 31.0664 16.0117L 31.0664 15.6133C 31.0664 14.3555 31.3047 13.2344 31.7812 12.25C 32.2656 11.2578 32.9375 10.4844 33.7969 9.92969C 34.6641 9.36719 35.6016 9.08594 36.6094 9.08594C 38.2578 9.08594 39.5391 9.62891 40.4531 10.7148C 41.3672 11.8008 41.8242 13.3555 41.8242 15.3789L 41.8242 16.2812L 33.2344 16.2812C 33.2656 17.5312 33.6289 18.543 34.3242 19.3164C 35.0273 20.082 35.918 20.4648 36.9961 20.4648C 37.7617 20.4648 38.4102 20.3086 38.9414 19.9961C 39.4727 19.6836 39.9375 19.2695 40.3359 18.7539L 41.6602 19.7852C 40.5977 21.418 39.0039 22.2344 36.8789 22.2344ZM 36.6094 10.8672C 35.7344 10.8672 35 11.1875 34.4062 11.8281C 33.8125 12.4609 33.4453 13.3516 33.3047 14.5L 39.6562 14.5L 39.6562 14.3359C 39.5938 13.2344 39.2969 12.3828 38.7656 11.7812C 38.2344 11.1719 37.5156 10.8672 36.6094 10.8672ZM 50.4727 11.2656C 50.1445 11.2109 49.7891 11.1836 49.4062 11.1836C 47.9844 11.1836 47.0195 11.7891 46.5117 13L 46.5117 22L 44.3438 22L 44.3438 9.32031L 46.4531 9.32031L 46.4883 10.7852C 47.1992 9.65234 48.207 9.08594 49.5117 9.08594C 49.9336 9.08594 50.2539 9.14062 50.4727 9.25L 50.4727 11.2656ZM 59.8359 22C 59.7109 21.75 59.6094 21.3047 59.5312 20.6641C 58.5234 21.7109 57.3203 22.2344 55.9219 22.2344C 54.6719 22.2344 53.6445 21.8828 52.8398 21.1797C 52.043 20.4687 51.6445 19.5703 51.6445 18.4844C 51.6445 17.1641 52.1445 16.1406 53.1445 15.4141C 54.1523 14.6797 55.5664 14.3125 57.3867 14.3125L 59.4961 14.3125L 59.4961 13.3164C 59.4961 12.5586 59.2695 11.957 58.8164 11.5117C 58.3633 11.0586 57.6953 10.832 56.8125 10.832C 56.0391 10.832 55.3906 11.0273 54.8672 11.418C 54.3438 11.8086 54.082 12.2813 54.082 12.8359L 51.9023 12.8359C 51.9023 12.2031 52.125 11.5938 52.5703 11.0078C 53.0234 10.4141 53.6328 9.94531 54.3984 9.60156C 55.1719 9.25781 56.0195 9.08594 56.9414 9.08594C 58.4023 9.08594 59.5469 9.45313 60.375 10.1875C 61.2031 10.9141 61.6328 11.918 61.6641 13.1992L 61.6641 19.0352C 61.6641 20.1992 61.8125 21.125 62.1094 21.8125L 62.1094 22L 59.8359 22ZM 56.2383 20.3477C 56.918 20.3477 57.5625 20.1719 58.1719 19.8203C 58.7812 19.4688 59.2227 19.0117 59.4961 18.4492L 59.4961 15.8477L 57.7969 15.8477C 55.1406 15.8477 53.8125 16.625 53.8125 18.1797C 53.8125 18.8594 54.0391 19.3906 54.4922 19.7734C 54.9453 20.1563 55.5273 20.3477 56.2383 20.3477ZM 68.0039 6.25L 68.0039 9.32031L 70.3711 9.32031L 70.3711 10.9961L 68.0039 10.9961L 68.0039 18.8594C 68.0039 19.3672 68.1094 19.75 68.3203 20.0078C 68.5312 20.2578 68.8906 20.3828 69.3984 20.3828C 69.6484 20.3828 69.9922 20.3359 70.4297 20.2422L 70.4297 22C 69.8594 22.1562 69.3047 22.2344 68.7656 22.2344C 67.7969 22.2344 67.0664 21.9414 66.5742 21.3555C 66.082 20.7695 65.8359 19.9375 65.8359 18.8594L 65.8359 10.9961L 63.5273 10.9961L 63.5273 9.32031L 65.8359 9.32031L 65.8359 6.25L 68.0039 6.25ZM 75.2695 22L 73.1016 22L 73.1016 9.32031L 75.2695 9.32031L 75.2695 22ZM 72.9258 5.95703C 72.9258 5.60547 73.0312 5.30859 73.2422 5.06641C 73.4609 4.82422 73.7812 4.70312 74.2031 4.70312C 74.625 4.70312 74.9453 4.82422 75.1641 5.06641C 75.3828 5.30859 75.4922 5.60547 75.4922 5.95703C 75.4922 6.30859 75.3828 6.60156 75.1641 6.83594C 74.9453 7.07031 74.625 7.1875 74.2031 7.1875C 73.7812 7.1875 73.4609 7.07031 73.2422 6.83594C 73.0312 6.60156 72.9258 6.30859 72.9258 5.95703ZM 78.1758 15.543C 78.1758 14.3008 78.418 13.1836 78.9023 12.1914C 79.3945 11.1992 80.0742 10.4336 80.9414 9.89453C 81.8164 9.35547 82.8125 9.08594 83.9297 9.08594C 85.6562 9.08594 87.0508 9.68359 88.1133 10.8789C 89.1836 12.0742 89.7188 13.6641 89.7188 15.6484L 89.7188 15.8008C 89.7188 17.0352 89.4805 18.1445 89.0039 19.1289C 88.5352 20.1055 87.8594 20.8672 86.9766 21.4141C 86.1016 21.9609 85.0937 22.2344 83.9531 22.2344C 82.2344 22.2344 80.8398 21.6367 79.7695 20.4414C 78.707 19.2461 78.1758 17.6641 78.1758 15.6953L 78.1758 15.543ZM 80.3555 15.8008C 80.3555 17.207 80.6797 18.3359 81.3281 19.1875C 81.9844 20.0391 82.8594 20.4648 83.9531 20.4648C 85.0547 20.4648 85.9297 20.0352 86.5781 19.1758C 87.2266 18.3086 87.5508 17.0977 87.5508 15.543C 87.5508 14.1523 87.2188 13.0273 86.5547 12.168C 85.8984 11.3008 85.0234 10.8672 83.9297 10.8672C 82.8594 10.8672 81.9961 11.293 81.3398 12.1445C 80.6836 12.9961 80.3555 14.2148 80.3555 15.8008ZM 94.4883 9.32031L 94.5586 10.9141C 95.5273 9.69531 96.793 9.08594 98.3555 9.08594C 101.035 9.08594 102.387 10.5977 102.41 13.6211L 102.41 22L 100.242 22L 100.242 13.6094C 100.234 12.6953 100.023 12.0195 99.6094 11.582C 99.2031 11.1445 98.5664 10.9258 97.6992 10.9258C 96.9961 10.9258 96.3789 11.1133 95.8477 11.4883C 95.3164 11.8633 94.9023 12.3555 94.6055 12.9648L 94.6055 22L 92.4375 22L 92.4375 9.32031L 94.4883 9.32031ZM 113.062 18.6367C 113.062 18.0508 112.84 17.5977 112.395 17.2773C 111.957 16.9492 111.188 16.668 110.086 16.4336C 108.992 16.1992 108.121 15.918 107.473 15.5898C 106.832 15.2617 106.355 14.8711 106.043 14.418C 105.738 13.9648 105.586 13.4258 105.586 12.8008C 105.586 11.7617 106.023 10.8828 106.898 10.1641C 107.781 9.44531 108.906 9.08594 110.273 9.08594C 111.711 9.08594 112.875 9.45703 113.766 10.1992C 114.664 10.9414 115.113 11.8906 115.113 13.0469L 112.934 13.0469C 112.934 12.4531 112.68 11.9414 112.172 11.5117C 111.672 11.082 111.039 10.8672 110.273 10.8672C 109.484 10.8672 108.867 11.0391 108.422 11.3828C 107.977 11.7266 107.754 12.1758 107.754 12.7305C 107.754 13.2539 107.961 13.6484 108.375 13.9141C 108.789 14.1797 109.535 14.4336 110.613 14.6758C 111.699 14.918 112.578 15.207 113.25 15.543C 113.922 15.8789 114.418 16.2852 114.738 16.7617C 115.066 17.2305 115.23 17.8047 115.23 18.4844C 115.23 19.6172 114.777 20.5273 113.871 21.2148C 112.965 21.8945 111.789 22.2344 110.344 22.2344C 109.328 22.2344 108.43 22.0547 107.648 21.6953C 106.867 21.3359 106.254 20.8359 105.809 20.1953C 105.371 19.5469 105.152 18.8477 105.152 18.0977L 107.32 18.0977C 107.359 18.8242 107.648 19.4023 108.188 19.832C 108.734 20.2539 109.453 20.4648 110.344 20.4648C 111.164 20.4648 111.82 20.3008 112.312 19.9727C 112.813 19.6367 113.062 19.1914 113.062 18.6367Z"/>
<path id="path5_fill" d="M 6.12891 4.28125L 3.89062 4.28125L 3.89062 23.875L 6.12891 23.875L 6.12891 25.6562L 1.71094 25.6562L 1.71094 2.5L 6.12891 2.5L 6.12891 4.28125ZM 6.48047 2.5L 10.9102 2.5L 10.9102 25.6562L 6.48047 25.6562L 6.48047 23.875L 8.74219 23.875L 8.74219 4.28125L 6.48047 4.28125L 6.48047 2.5Z"/>
<path id="path6_stroke" d="M 71.3536 0.353553C 71.5488 0.158291 71.5488 -0.158291 71.3536 -0.353553L 68.1716 -3.53553C 67.9763 -3.7308 67.6597 -3.7308 67.4645 -3.53553C 67.2692 -3.34027 67.2692 -3.02369 67.4645 -2.82843L 70.2929 0L 67.4645 2.82843C 67.2692 3.02369 67.2692 3.34027 67.4645 3.53553C 67.6597 3.7308 67.9763 3.7308 68.1716 3.53553L 71.3536 0.353553ZM 0 0.5L 71 0.5L 71 -0.5L 0 -0.5L 0 0.5Z"/>
</defs>
</svg>
