<svg width="381" height="292" viewBox="0 0 381 292" fill="none" xmlns="http://www.w3.org/2000/svg">
<path d="M69.96 282.012H71.1C71.036 281.556 70.9 281.156 70.692 280.812C70.484 280.46 70.224 280.168 69.912 279.936C69.6 279.704 69.244 279.528 68.844 279.408C68.444 279.288 68.02 279.228 67.572 279.228C66.916 279.228 66.332 279.348 65.82 279.588C65.316 279.82 64.892 280.14 64.548 280.548C64.212 280.956 63.956 281.436 63.78 281.988C63.604 282.532 63.516 283.116 63.516 283.74C63.516 284.364 63.596 284.948 63.756 285.492C63.924 286.036 64.172 286.508 64.5 286.908C64.828 287.308 65.24 287.624 65.736 287.856C66.232 288.08 66.812 288.192 67.476 288.192C68.572 288.192 69.436 287.892 70.068 287.292C70.7 286.692 71.072 285.852 71.184 284.772H70.044C70.02 285.124 69.948 285.452 69.828 285.756C69.708 286.06 69.54 286.324 69.324 286.548C69.116 286.764 68.864 286.936 68.568 287.064C68.28 287.184 67.948 287.244 67.572 287.244C67.06 287.244 66.62 287.148 66.252 286.956C65.884 286.764 65.58 286.508 65.34 286.188C65.108 285.86 64.936 285.48 64.824 285.048C64.712 284.608 64.656 284.144 64.656 283.656C64.656 283.208 64.712 282.776 64.824 282.36C64.936 281.944 65.108 281.576 65.34 281.256C65.58 280.928 65.88 280.668 66.24 280.476C66.608 280.284 67.048 280.188 67.56 280.188C68.16 280.188 68.676 280.34 69.108 280.644C69.548 280.948 69.832 281.404 69.96 282.012ZM73.1722 284.904C73.1722 284.528 73.2202 284.196 73.3162 283.908C73.4202 283.612 73.5602 283.364 73.7362 283.164C73.9122 282.964 74.1162 282.812 74.3482 282.708C74.5882 282.604 74.8402 282.552 75.1042 282.552C75.3682 282.552 75.6162 282.604 75.8482 282.708C76.0882 282.812 76.2962 282.964 76.4722 283.164C76.6482 283.364 76.7842 283.612 76.8802 283.908C76.9842 284.196 77.0362 284.528 77.0362 284.904C77.0362 285.28 76.9842 285.616 76.8802 285.912C76.7842 286.2 76.6482 286.444 76.4722 286.644C76.2962 286.836 76.0882 286.984 75.8482 287.088C75.6162 287.192 75.3682 287.244 75.1042 287.244C74.8402 287.244 74.5882 287.192 74.3482 287.088C74.1162 286.984 73.9122 286.836 73.7362 286.644C73.5602 286.444 73.4202 286.2 73.3162 285.912C73.2202 285.616 73.1722 285.28 73.1722 284.904ZM72.0922 284.904C72.0922 285.36 72.1562 285.784 72.2842 286.176C72.4122 286.568 72.6042 286.912 72.8602 287.208C73.1162 287.496 73.4322 287.724 73.8082 287.892C74.1842 288.052 74.6162 288.132 75.1042 288.132C75.6002 288.132 76.0322 288.052 76.4002 287.892C76.7762 287.724 77.0922 287.496 77.3482 287.208C77.6042 286.912 77.7962 286.568 77.9242 286.176C78.0522 285.784 78.1162 285.36 78.1162 284.904C78.1162 284.448 78.0522 284.024 77.9242 283.632C77.7962 283.232 77.6042 282.888 77.3482 282.6C77.0922 282.304 76.7762 282.072 76.4002 281.904C76.0322 281.736 75.6002 281.652 75.1042 281.652C74.6162 281.652 74.1842 281.736 73.8082 281.904C73.4322 282.072 73.1162 282.304 72.8602 282.6C72.6042 282.888 72.4122 283.232 72.2842 283.632C72.1562 284.024 72.0922 284.448 72.0922 284.904ZM79.3188 281.796V288H80.3388V284.136C80.3388 284.016 80.3668 283.868 80.4228 283.692C80.4868 283.508 80.5828 283.332 80.7108 283.164C80.8468 282.996 81.0188 282.852 81.2268 282.732C81.4428 282.612 81.6988 282.552 81.9948 282.552C82.2268 282.552 82.4148 282.588 82.5588 282.66C82.7108 282.724 82.8308 282.82 82.9188 282.948C83.0068 283.068 83.0668 283.212 83.0988 283.38C83.1388 283.548 83.1588 283.732 83.1588 283.932V288H84.1788V284.136C84.1788 283.656 84.3228 283.272 84.6108 282.984C84.8988 282.696 85.2948 282.552 85.7988 282.552C86.0468 282.552 86.2468 282.588 86.3988 282.66C86.5588 282.732 86.6828 282.832 86.7708 282.96C86.8588 283.08 86.9188 283.224 86.9508 283.392C86.9828 283.56 86.9988 283.74 86.9988 283.932V288H88.0188V283.452C88.0188 283.132 87.9668 282.86 87.8628 282.636C87.7668 282.404 87.6268 282.216 87.4428 282.072C87.2668 281.928 87.0508 281.824 86.7948 281.76C86.5468 281.688 86.2668 281.652 85.9548 281.652C85.5468 281.652 85.1708 281.744 84.8268 281.928C84.4908 282.112 84.2188 282.372 84.0108 282.708C83.8828 282.324 83.6628 282.052 83.3508 281.892C83.0388 281.732 82.6908 281.652 82.3068 281.652C81.4348 281.652 80.7668 282.004 80.3028 282.708H80.2788V281.796H79.3188ZM89.5853 281.796V290.364H90.6053V287.172H90.6293C90.7413 287.356 90.8773 287.512 91.0373 287.64C91.2053 287.76 91.3813 287.856 91.5653 287.928C91.7493 288 91.9333 288.052 92.1173 288.084C92.3093 288.116 92.4813 288.132 92.6333 288.132C93.1053 288.132 93.5173 288.048 93.8693 287.88C94.2293 287.712 94.5253 287.484 94.7573 287.196C94.9973 286.9 95.1733 286.556 95.2853 286.164C95.4053 285.772 95.4653 285.356 95.4653 284.916C95.4653 284.476 95.4053 284.06 95.2853 283.668C95.1653 283.276 94.9853 282.932 94.7453 282.636C94.5133 282.332 94.2173 282.092 93.8573 281.916C93.5053 281.74 93.0893 281.652 92.6093 281.652C92.1773 281.652 91.7813 281.732 91.4213 281.892C91.0613 282.044 90.7973 282.292 90.6293 282.636H90.6053V281.796H89.5853ZM94.3853 284.844C94.3853 285.148 94.3533 285.444 94.2893 285.732C94.2253 286.02 94.1213 286.276 93.9773 286.5C93.8333 286.724 93.6413 286.904 93.4013 287.04C93.1693 287.176 92.8773 287.244 92.5253 287.244C92.1733 287.244 91.8733 287.18 91.6253 287.052C91.3773 286.916 91.1733 286.74 91.0133 286.524C90.8613 286.308 90.7493 286.06 90.6773 285.78C90.6053 285.492 90.5693 285.196 90.5693 284.892C90.5693 284.604 90.6013 284.32 90.6653 284.04C90.7373 283.76 90.8493 283.512 91.0013 283.296C91.1533 283.072 91.3493 282.892 91.5893 282.756C91.8293 282.62 92.1213 282.552 92.4653 282.552C92.7933 282.552 93.0773 282.616 93.3173 282.744C93.5653 282.872 93.7653 283.044 93.9173 283.26C94.0773 283.476 94.1933 283.724 94.2653 284.004C94.3453 284.276 94.3853 284.556 94.3853 284.844ZM96.7225 279.432V288H97.7425V279.432H96.7225ZM103.631 284.304H100.067C100.083 284.064 100.135 283.84 100.223 283.632C100.311 283.416 100.431 283.228 100.583 283.068C100.735 282.908 100.915 282.784 101.123 282.696C101.339 282.6 101.579 282.552 101.843 282.552C102.099 282.552 102.331 282.6 102.539 282.696C102.755 282.784 102.939 282.908 103.091 283.068C103.251 283.22 103.375 283.404 103.463 283.62C103.559 283.836 103.615 284.064 103.631 284.304ZM104.615 286.032H103.607C103.519 286.44 103.335 286.744 103.055 286.944C102.783 287.144 102.431 287.244 101.999 287.244C101.663 287.244 101.371 287.188 101.123 287.076C100.875 286.964 100.671 286.816 100.511 286.632C100.351 286.44 100.235 286.224 100.163 285.984C100.091 285.736 100.059 285.476 100.067 285.204H104.711C104.727 284.828 104.691 284.432 104.603 284.016C104.523 283.6 104.371 283.216 104.147 282.864C103.931 282.512 103.639 282.224 103.271 282C102.911 281.768 102.455 281.652 101.903 281.652C101.479 281.652 101.087 281.732 100.727 281.892C100.375 282.052 100.067 282.276 99.8027 282.564C99.5467 282.852 99.3467 283.192 99.2027 283.584C99.0587 283.976 98.9867 284.408 98.9867 284.88C99.0027 285.352 99.0707 285.788 99.1907 286.188C99.3187 286.588 99.5067 286.932 99.7547 287.22C100.003 287.508 100.307 287.732 100.667 287.892C101.035 288.052 101.467 288.132 101.963 288.132C102.667 288.132 103.251 287.956 103.715 287.604C104.179 287.252 104.479 286.728 104.615 286.032ZM107.184 281.796V279.936H106.164V281.796H105.108V282.696H106.164V286.644C106.164 286.932 106.192 287.164 106.248 287.34C106.304 287.516 106.388 287.652 106.5 287.748C106.62 287.844 106.772 287.912 106.956 287.952C107.148 287.984 107.376 288 107.64 288H108.42V287.1H107.952C107.792 287.1 107.66 287.096 107.556 287.088C107.46 287.072 107.384 287.044 107.328 287.004C107.272 286.964 107.232 286.908 107.208 286.836C107.192 286.764 107.184 286.668 107.184 286.548V282.696H108.42V281.796H107.184ZM113.861 284.304H110.297C110.313 284.064 110.365 283.84 110.453 283.632C110.541 283.416 110.661 283.228 110.813 283.068C110.965 282.908 111.145 282.784 111.353 282.696C111.569 282.6 111.809 282.552 112.073 282.552C112.329 282.552 112.561 282.6 112.769 282.696C112.985 282.784 113.169 282.908 113.321 283.068C113.481 283.22 113.605 283.404 113.693 283.62C113.789 283.836 113.845 284.064 113.861 284.304ZM114.845 286.032H113.837C113.749 286.44 113.565 286.744 113.285 286.944C113.013 287.144 112.661 287.244 112.229 287.244C111.893 287.244 111.601 287.188 111.353 287.076C111.105 286.964 110.901 286.816 110.741 286.632C110.581 286.44 110.465 286.224 110.393 285.984C110.321 285.736 110.289 285.476 110.297 285.204H114.941C114.957 284.828 114.921 284.432 114.833 284.016C114.753 283.6 114.601 283.216 114.377 282.864C114.161 282.512 113.869 282.224 113.501 282C113.141 281.768 112.685 281.652 112.133 281.652C111.709 281.652 111.317 281.732 110.957 281.892C110.605 282.052 110.297 282.276 110.033 282.564C109.777 282.852 109.577 283.192 109.433 283.584C109.289 283.976 109.217 284.408 109.217 284.88C109.233 285.352 109.301 285.788 109.421 286.188C109.549 286.588 109.737 286.932 109.985 287.22C110.233 287.508 110.537 287.732 110.897 287.892C111.265 288.052 111.697 288.132 112.193 288.132C112.897 288.132 113.481 287.956 113.945 287.604C114.409 287.252 114.709 286.728 114.845 286.032ZM120.754 281.796V279.936H119.734V281.796H118.678V282.696H119.734V286.644C119.734 286.932 119.762 287.164 119.818 287.34C119.874 287.516 119.958 287.652 120.07 287.748C120.19 287.844 120.342 287.912 120.526 287.952C120.718 287.984 120.946 288 121.21 288H121.99V287.1H121.522C121.362 287.1 121.23 287.096 121.126 287.088C121.03 287.072 120.954 287.044 120.898 287.004C120.842 286.964 120.802 286.908 120.778 286.836C120.762 286.764 120.754 286.668 120.754 286.548V282.696H121.99V281.796H120.754ZM123.087 281.796V288H124.107V285.24C124.107 284.84 124.147 284.488 124.227 284.184C124.307 283.872 124.435 283.608 124.611 283.392C124.787 283.176 125.019 283.012 125.307 282.9C125.595 282.788 125.943 282.732 126.351 282.732V281.652C125.799 281.636 125.343 281.748 124.983 281.988C124.623 282.228 124.319 282.6 124.071 283.104H124.047V281.796H123.087ZM131.217 284.304H127.653C127.669 284.064 127.721 283.84 127.809 283.632C127.897 283.416 128.017 283.228 128.169 283.068C128.321 282.908 128.501 282.784 128.709 282.696C128.925 282.6 129.165 282.552 129.429 282.552C129.685 282.552 129.917 282.6 130.125 282.696C130.341 282.784 130.525 282.908 130.677 283.068C130.837 283.22 130.961 283.404 131.049 283.62C131.145 283.836 131.201 284.064 131.217 284.304ZM132.201 286.032H131.193C131.105 286.44 130.921 286.744 130.641 286.944C130.369 287.144 130.017 287.244 129.585 287.244C129.249 287.244 128.957 287.188 128.709 287.076C128.461 286.964 128.257 286.816 128.097 286.632C127.937 286.44 127.821 286.224 127.749 285.984C127.677 285.736 127.645 285.476 127.653 285.204H132.297C132.313 284.828 132.277 284.432 132.189 284.016C132.109 283.6 131.957 283.216 131.733 282.864C131.517 282.512 131.225 282.224 130.857 282C130.497 281.768 130.041 281.652 129.489 281.652C129.065 281.652 128.673 281.732 128.313 281.892C127.961 282.052 127.653 282.276 127.389 282.564C127.133 282.852 126.933 283.192 126.789 283.584C126.645 283.976 126.573 284.408 126.573 284.88C126.589 285.352 126.657 285.788 126.777 286.188C126.905 286.588 127.093 286.932 127.341 287.22C127.589 287.508 127.893 287.732 128.253 287.892C128.621 288.052 129.053 288.132 129.549 288.132C130.253 288.132 130.837 287.956 131.301 287.604C131.765 287.252 132.065 286.728 132.201 286.032ZM137.662 284.304H134.098C134.114 284.064 134.166 283.84 134.254 283.632C134.342 283.416 134.462 283.228 134.614 283.068C134.766 282.908 134.946 282.784 135.154 282.696C135.37 282.6 135.61 282.552 135.874 282.552C136.13 282.552 136.362 282.6 136.57 282.696C136.786 282.784 136.97 282.908 137.122 283.068C137.282 283.22 137.406 283.404 137.494 283.62C137.59 283.836 137.646 284.064 137.662 284.304ZM138.646 286.032H137.638C137.55 286.44 137.366 286.744 137.086 286.944C136.814 287.144 136.462 287.244 136.03 287.244C135.694 287.244 135.402 287.188 135.154 287.076C134.906 286.964 134.702 286.816 134.542 286.632C134.382 286.44 134.266 286.224 134.194 285.984C134.122 285.736 134.09 285.476 134.098 285.204H138.742C138.758 284.828 138.722 284.432 138.634 284.016C138.554 283.6 138.402 283.216 138.178 282.864C137.962 282.512 137.67 282.224 137.302 282C136.942 281.768 136.486 281.652 135.934 281.652C135.51 281.652 135.118 281.732 134.758 281.892C134.406 282.052 134.098 282.276 133.834 282.564C133.578 282.852 133.378 283.192 133.234 283.584C133.09 283.976 133.018 284.408 133.018 284.88C133.034 285.352 133.102 285.788 133.222 286.188C133.35 286.588 133.538 286.932 133.786 287.22C134.034 287.508 134.338 287.732 134.698 287.892C135.066 288.052 135.498 288.132 135.994 288.132C136.698 288.132 137.282 287.956 137.746 287.604C138.21 287.252 138.51 286.728 138.646 286.032ZM148.635 287.976C148.459 288.08 148.215 288.132 147.903 288.132C147.639 288.132 147.427 288.06 147.267 287.916C147.115 287.764 147.039 287.52 147.039 287.184C146.759 287.52 146.431 287.764 146.055 287.916C145.687 288.06 145.287 288.132 144.855 288.132C144.575 288.132 144.307 288.1 144.051 288.036C143.803 287.972 143.587 287.872 143.403 287.736C143.219 287.6 143.071 287.424 142.959 287.208C142.855 286.984 142.803 286.716 142.803 286.404C142.803 286.052 142.863 285.764 142.983 285.54C143.103 285.316 143.259 285.136 143.451 285C143.651 284.856 143.875 284.748 144.123 284.676C144.379 284.604 144.639 284.544 144.903 284.496C145.183 284.44 145.447 284.4 145.695 284.376C145.951 284.344 146.175 284.304 146.367 284.256C146.559 284.2 146.711 284.124 146.823 284.028C146.935 283.924 146.991 283.776 146.991 283.584C146.991 283.36 146.947 283.18 146.859 283.044C146.779 282.908 146.671 282.804 146.535 282.732C146.407 282.66 146.259 282.612 146.091 282.588C145.931 282.564 145.771 282.552 145.611 282.552C145.179 282.552 144.819 282.636 144.531 282.804C144.243 282.964 144.087 283.272 144.063 283.728H143.043C143.059 283.344 143.139 283.02 143.283 282.756C143.427 282.492 143.619 282.28 143.859 282.12C144.099 281.952 144.371 281.832 144.675 281.76C144.987 281.688 145.319 281.652 145.671 281.652C145.951 281.652 146.227 281.672 146.499 281.712C146.779 281.752 147.031 281.836 147.255 281.964C147.479 282.084 147.659 282.256 147.795 282.48C147.931 282.704 147.999 282.996 147.999 283.356V286.548C147.999 286.788 148.011 286.964 148.035 287.076C148.067 287.188 148.163 287.244 148.323 287.244C148.411 287.244 148.515 287.224 148.635 287.184V287.976ZM146.979 284.796C146.851 284.892 146.683 284.964 146.475 285.012C146.267 285.052 146.047 285.088 145.815 285.12C145.591 285.144 145.363 285.176 145.131 285.216C144.899 285.248 144.691 285.304 144.507 285.384C144.323 285.464 144.171 285.58 144.051 285.732C143.939 285.876 143.883 286.076 143.883 286.332C143.883 286.5 143.915 286.644 143.979 286.764C144.051 286.876 144.139 286.968 144.243 287.04C144.355 287.112 144.483 287.164 144.627 287.196C144.771 287.228 144.923 287.244 145.083 287.244C145.419 287.244 145.707 287.2 145.947 287.112C146.187 287.016 146.383 286.9 146.535 286.764C146.687 286.62 146.799 286.468 146.871 286.308C146.943 286.14 146.979 285.984 146.979 285.84V284.796ZM149.584 281.796V288H150.604V284.496C150.604 284.216 150.64 283.96 150.712 283.728C150.792 283.488 150.908 283.28 151.06 283.104C151.212 282.928 151.4 282.792 151.624 282.696C151.856 282.6 152.128 282.552 152.44 282.552C152.832 282.552 153.14 282.664 153.364 282.888C153.588 283.112 153.7 283.416 153.7 283.8V288H154.72V283.92C154.72 283.584 154.684 283.28 154.612 283.008C154.548 282.728 154.432 282.488 154.264 282.288C154.096 282.088 153.876 281.932 153.604 281.82C153.332 281.708 152.992 281.652 152.584 281.652C151.664 281.652 150.992 282.028 150.568 282.78H150.544V281.796H149.584ZM156.996 284.952C156.996 284.648 157.028 284.352 157.092 284.064C157.156 283.776 157.26 283.52 157.404 283.296C157.548 283.072 157.74 282.892 157.98 282.756C158.22 282.62 158.512 282.552 158.856 282.552C159.208 282.552 159.508 282.62 159.756 282.756C160.004 282.884 160.204 283.056 160.356 283.272C160.516 283.488 160.632 283.74 160.704 284.028C160.776 284.308 160.812 284.6 160.812 284.904C160.812 285.192 160.776 285.476 160.704 285.756C160.64 286.036 160.532 286.288 160.38 286.512C160.228 286.728 160.032 286.904 159.792 287.04C159.552 287.176 159.26 287.244 158.916 287.244C158.588 287.244 158.3 287.18 158.052 287.052C157.812 286.924 157.612 286.752 157.452 286.536C157.3 286.32 157.184 286.076 157.104 285.804C157.032 285.524 156.996 285.24 156.996 284.952ZM161.796 288V279.432H160.776V282.624H160.752C160.64 282.44 160.5 282.288 160.332 282.168C160.172 282.04 160 281.94 159.816 281.868C159.632 281.788 159.448 281.732 159.264 281.7C159.08 281.668 158.908 281.652 158.748 281.652C158.276 281.652 157.86 281.74 157.5 281.916C157.148 282.084 156.852 282.316 156.612 282.612C156.38 282.9 156.204 283.24 156.084 283.632C155.972 284.024 155.916 284.44 155.916 284.88C155.916 285.32 155.976 285.736 156.096 286.128C156.216 286.52 156.392 286.864 156.624 287.16C156.864 287.456 157.16 287.692 157.512 287.868C157.872 288.044 158.292 288.132 158.772 288.132C159.204 288.132 159.6 288.056 159.96 287.904C160.32 287.752 160.584 287.504 160.752 287.16H160.776V288H161.796ZM167.33 286.044H166.31C166.326 286.428 166.406 286.756 166.55 287.028C166.694 287.292 166.886 287.508 167.126 287.676C167.366 287.836 167.642 287.952 167.954 288.024C168.266 288.096 168.594 288.132 168.938 288.132C169.25 288.132 169.562 288.1 169.874 288.036C170.194 287.98 170.478 287.876 170.726 287.724C170.982 287.572 171.186 287.372 171.338 287.124C171.498 286.876 171.578 286.564 171.578 286.188C171.578 285.892 171.518 285.644 171.398 285.444C171.286 285.244 171.134 285.08 170.942 284.952C170.758 284.816 170.542 284.708 170.294 284.628C170.054 284.548 169.806 284.48 169.55 284.424C169.31 284.368 169.07 284.316 168.83 284.268C168.59 284.212 168.374 284.148 168.182 284.076C167.99 283.996 167.83 283.9 167.701 283.788C167.581 283.668 167.521 283.52 167.521 283.344C167.521 283.184 167.562 283.056 167.642 282.96C167.722 282.856 167.826 282.776 167.954 282.72C168.082 282.656 168.222 282.612 168.374 282.588C168.534 282.564 168.69 282.552 168.842 282.552C169.01 282.552 169.174 282.572 169.334 282.612C169.502 282.644 169.654 282.7 169.79 282.78C169.926 282.86 170.038 282.968 170.126 283.104C170.214 283.232 170.266 283.396 170.282 283.596H171.302C171.278 283.22 171.198 282.908 171.062 282.66C170.926 282.404 170.742 282.204 170.51 282.06C170.286 281.908 170.026 281.804 169.73 281.748C169.434 281.684 169.11 281.652 168.758 281.652C168.486 281.652 168.21 281.688 167.93 281.76C167.658 281.824 167.41 281.928 167.186 282.072C166.97 282.208 166.79 282.388 166.646 282.612C166.51 282.836 166.442 283.104 166.442 283.416C166.442 283.816 166.542 284.128 166.742 284.352C166.942 284.576 167.19 284.752 167.486 284.88C167.79 285 168.118 285.096 168.47 285.168C168.822 285.232 169.146 285.308 169.442 285.396C169.746 285.476 169.998 285.584 170.198 285.72C170.398 285.856 170.498 286.056 170.498 286.32C170.498 286.512 170.45 286.672 170.354 286.8C170.258 286.92 170.134 287.012 169.982 287.076C169.838 287.14 169.678 287.184 169.502 287.208C169.326 287.232 169.158 287.244 168.998 287.244C168.79 287.244 168.586 287.224 168.386 287.184C168.194 287.144 168.018 287.08 167.858 286.992C167.706 286.896 167.582 286.772 167.486 286.62C167.39 286.46 167.338 286.268 167.33 286.044ZM178.202 287.976C178.026 288.08 177.782 288.132 177.47 288.132C177.206 288.132 176.994 288.06 176.834 287.916C176.682 287.764 176.606 287.52 176.606 287.184C176.326 287.52 175.998 287.764 175.622 287.916C175.254 288.06 174.854 288.132 174.422 288.132C174.142 288.132 173.874 288.1 173.618 288.036C173.37 287.972 173.154 287.872 172.97 287.736C172.786 287.6 172.638 287.424 172.526 287.208C172.422 286.984 172.37 286.716 172.37 286.404C172.37 286.052 172.43 285.764 172.55 285.54C172.67 285.316 172.826 285.136 173.018 285C173.218 284.856 173.442 284.748 173.69 284.676C173.946 284.604 174.206 284.544 174.47 284.496C174.75 284.44 175.014 284.4 175.262 284.376C175.518 284.344 175.742 284.304 175.934 284.256C176.126 284.2 176.278 284.124 176.39 284.028C176.502 283.924 176.558 283.776 176.558 283.584C176.558 283.36 176.514 283.18 176.426 283.044C176.346 282.908 176.238 282.804 176.102 282.732C175.974 282.66 175.826 282.612 175.658 282.588C175.498 282.564 175.338 282.552 175.178 282.552C174.746 282.552 174.386 282.636 174.098 282.804C173.81 282.964 173.654 283.272 173.63 283.728H172.61C172.626 283.344 172.706 283.02 172.85 282.756C172.994 282.492 173.186 282.28 173.426 282.12C173.666 281.952 173.938 281.832 174.242 281.76C174.554 281.688 174.886 281.652 175.238 281.652C175.518 281.652 175.794 281.672 176.066 281.712C176.346 281.752 176.598 281.836 176.822 281.964C177.046 282.084 177.226 282.256 177.362 282.48C177.498 282.704 177.566 282.996 177.566 283.356V286.548C177.566 286.788 177.578 286.964 177.602 287.076C177.634 287.188 177.73 287.244 177.89 287.244C177.978 287.244 178.082 287.224 178.202 287.184V287.976ZM176.546 284.796C176.418 284.892 176.25 284.964 176.042 285.012C175.834 285.052 175.614 285.088 175.382 285.12C175.158 285.144 174.93 285.176 174.698 285.216C174.466 285.248 174.258 285.304 174.074 285.384C173.89 285.464 173.738 285.58 173.618 285.732C173.506 285.876 173.45 286.076 173.45 286.332C173.45 286.5 173.482 286.644 173.546 286.764C173.618 286.876 173.706 286.968 173.81 287.04C173.922 287.112 174.05 287.164 174.194 287.196C174.338 287.228 174.49 287.244 174.65 287.244C174.986 287.244 175.274 287.2 175.514 287.112C175.754 287.016 175.95 286.9 176.102 286.764C176.254 286.62 176.366 286.468 176.438 286.308C176.51 286.14 176.546 285.984 176.546 285.84V284.796ZM180.567 281.796V279.936H179.547V281.796H178.491V282.696H179.547V286.644C179.547 286.932 179.575 287.164 179.631 287.34C179.687 287.516 179.771 287.652 179.883 287.748C180.003 287.844 180.155 287.912 180.339 287.952C180.531 287.984 180.759 288 181.023 288H181.803V287.1H181.335C181.175 287.1 181.043 287.096 180.939 287.088C180.843 287.072 180.767 287.044 180.711 287.004C180.655 286.964 180.615 286.908 180.591 286.836C180.575 286.764 180.567 286.668 180.567 286.548V282.696H181.803V281.796H180.567ZM184.016 280.68V279.432H182.996V280.68H184.016ZM182.996 281.796V288H184.016V281.796H182.996ZM186.22 286.044H185.2C185.216 286.428 185.296 286.756 185.44 287.028C185.584 287.292 185.776 287.508 186.016 287.676C186.256 287.836 186.532 287.952 186.844 288.024C187.156 288.096 187.484 288.132 187.828 288.132C188.14 288.132 188.452 288.1 188.764 288.036C189.084 287.98 189.368 287.876 189.616 287.724C189.872 287.572 190.076 287.372 190.228 287.124C190.388 286.876 190.468 286.564 190.468 286.188C190.468 285.892 190.408 285.644 190.288 285.444C190.176 285.244 190.024 285.08 189.832 284.952C189.648 284.816 189.432 284.708 189.184 284.628C188.944 284.548 188.696 284.48 188.44 284.424C188.2 284.368 187.96 284.316 187.72 284.268C187.48 284.212 187.264 284.148 187.072 284.076C186.88 283.996 186.72 283.9 186.592 283.788C186.472 283.668 186.412 283.52 186.412 283.344C186.412 283.184 186.452 283.056 186.532 282.96C186.612 282.856 186.716 282.776 186.844 282.72C186.972 282.656 187.112 282.612 187.264 282.588C187.424 282.564 187.58 282.552 187.732 282.552C187.9 282.552 188.064 282.572 188.224 282.612C188.392 282.644 188.544 282.7 188.68 282.78C188.816 282.86 188.928 282.968 189.016 283.104C189.104 283.232 189.156 283.396 189.172 283.596H190.192C190.168 283.22 190.088 282.908 189.952 282.66C189.816 282.404 189.632 282.204 189.4 282.06C189.176 281.908 188.916 281.804 188.62 281.748C188.324 281.684 188 281.652 187.648 281.652C187.376 281.652 187.1 281.688 186.82 281.76C186.548 281.824 186.3 281.928 186.076 282.072C185.86 282.208 185.68 282.388 185.536 282.612C185.4 282.836 185.332 283.104 185.332 283.416C185.332 283.816 185.432 284.128 185.632 284.352C185.832 284.576 186.08 284.752 186.376 284.88C186.68 285 187.008 285.096 187.36 285.168C187.712 285.232 188.036 285.308 188.332 285.396C188.636 285.476 188.888 285.584 189.088 285.72C189.288 285.856 189.388 286.056 189.388 286.32C189.388 286.512 189.34 286.672 189.244 286.8C189.148 286.92 189.024 287.012 188.872 287.076C188.728 287.14 188.568 287.184 188.392 287.208C188.216 287.232 188.048 287.244 187.888 287.244C187.68 287.244 187.476 287.224 187.276 287.184C187.084 287.144 186.908 287.08 186.748 286.992C186.596 286.896 186.472 286.772 186.376 286.62C186.28 286.46 186.228 286.268 186.22 286.044ZM192.676 280.68V279.432H191.656V280.68H192.676ZM191.656 281.796V288H192.676V281.796H191.656ZM194.676 282.696V288H195.696V282.696H196.896V281.796H195.696V280.932C195.696 280.66 195.764 280.476 195.9 280.38C196.036 280.284 196.228 280.236 196.476 280.236C196.564 280.236 196.66 280.244 196.764 280.26C196.868 280.268 196.964 280.288 197.052 280.32V279.432C196.956 279.4 196.844 279.376 196.716 279.36C196.596 279.344 196.488 279.336 196.392 279.336C195.832 279.336 195.404 279.468 195.108 279.732C194.82 279.988 194.676 280.368 194.676 280.872V281.796H193.632V282.696H194.676ZM198.887 280.68V279.432H197.867V280.68H198.887ZM197.867 281.796V288H198.887V281.796H197.867ZM204.775 284.304H201.211C201.227 284.064 201.279 283.84 201.367 283.632C201.455 283.416 201.575 283.228 201.727 283.068C201.879 282.908 202.059 282.784 202.267 282.696C202.483 282.6 202.723 282.552 202.987 282.552C203.243 282.552 203.475 282.6 203.683 282.696C203.899 282.784 204.083 282.908 204.235 283.068C204.395 283.22 204.519 283.404 204.607 283.62C204.703 283.836 204.759 284.064 204.775 284.304ZM205.759 286.032H204.751C204.663 286.44 204.479 286.744 204.199 286.944C203.927 287.144 203.575 287.244 203.143 287.244C202.807 287.244 202.515 287.188 202.267 287.076C202.019 286.964 201.815 286.816 201.655 286.632C201.495 286.44 201.379 286.224 201.307 285.984C201.235 285.736 201.203 285.476 201.211 285.204H205.855C205.871 284.828 205.835 284.432 205.747 284.016C205.667 283.6 205.515 283.216 205.291 282.864C205.075 282.512 204.783 282.224 204.415 282C204.055 281.768 203.599 281.652 203.047 281.652C202.623 281.652 202.231 281.732 201.871 281.892C201.519 282.052 201.211 282.276 200.947 282.564C200.691 282.852 200.491 283.192 200.347 283.584C200.203 283.976 200.131 284.408 200.131 284.88C200.147 285.352 200.215 285.788 200.335 286.188C200.463 286.588 200.651 286.932 200.899 287.22C201.147 287.508 201.451 287.732 201.811 287.892C202.179 288.052 202.611 288.132 203.107 288.132C203.811 288.132 204.395 287.956 204.859 287.604C205.323 287.252 205.623 286.728 205.759 286.032ZM207.537 286.044H206.517C206.533 286.428 206.613 286.756 206.757 287.028C206.901 287.292 207.093 287.508 207.333 287.676C207.573 287.836 207.849 287.952 208.161 288.024C208.473 288.096 208.801 288.132 209.145 288.132C209.457 288.132 209.769 288.1 210.081 288.036C210.401 287.98 210.685 287.876 210.933 287.724C211.189 287.572 211.393 287.372 211.545 287.124C211.705 286.876 211.785 286.564 211.785 286.188C211.785 285.892 211.725 285.644 211.605 285.444C211.493 285.244 211.341 285.08 211.149 284.952C210.965 284.816 210.749 284.708 210.501 284.628C210.261 284.548 210.013 284.48 209.757 284.424C209.517 284.368 209.277 284.316 209.037 284.268C208.797 284.212 208.581 284.148 208.389 284.076C208.197 283.996 208.037 283.9 207.909 283.788C207.789 283.668 207.729 283.52 207.729 283.344C207.729 283.184 207.769 283.056 207.849 282.96C207.929 282.856 208.033 282.776 208.161 282.72C208.289 282.656 208.429 282.612 208.581 282.588C208.741 282.564 208.897 282.552 209.049 282.552C209.217 282.552 209.381 282.572 209.541 282.612C209.709 282.644 209.861 282.7 209.997 282.78C210.133 282.86 210.245 282.968 210.333 283.104C210.421 283.232 210.473 283.396 210.489 283.596H211.509C211.485 283.22 211.405 282.908 211.269 282.66C211.133 282.404 210.949 282.204 210.717 282.06C210.493 281.908 210.233 281.804 209.937 281.748C209.641 281.684 209.317 281.652 208.965 281.652C208.693 281.652 208.417 281.688 208.137 281.76C207.865 281.824 207.617 281.928 207.393 282.072C207.177 282.208 206.997 282.388 206.853 282.612C206.717 282.836 206.649 283.104 206.649 283.416C206.649 283.816 206.749 284.128 206.949 284.352C207.149 284.576 207.397 284.752 207.693 284.88C207.997 285 208.325 285.096 208.677 285.168C209.029 285.232 209.353 285.308 209.649 285.396C209.953 285.476 210.205 285.584 210.405 285.72C210.605 285.856 210.705 286.056 210.705 286.32C210.705 286.512 210.657 286.672 210.561 286.8C210.465 286.92 210.341 287.012 210.189 287.076C210.045 287.14 209.885 287.184 209.709 287.208C209.533 287.232 209.365 287.244 209.205 287.244C208.997 287.244 208.793 287.224 208.593 287.184C208.401 287.144 208.225 287.08 208.065 286.992C207.913 286.896 207.789 286.772 207.693 286.62C207.597 286.46 207.545 286.268 207.537 286.044ZM217.668 281.796V279.936H216.648V281.796H215.592V282.696H216.648V286.644C216.648 286.932 216.676 287.164 216.732 287.34C216.788 287.516 216.872 287.652 216.984 287.748C217.104 287.844 217.256 287.912 217.44 287.952C217.632 287.984 217.86 288 218.124 288H218.904V287.1H218.436C218.276 287.1 218.144 287.096 218.04 287.088C217.944 287.072 217.868 287.044 217.812 287.004C217.756 286.964 217.716 286.908 217.692 286.836C217.676 286.764 217.668 286.668 217.668 286.548V282.696H218.904V281.796H217.668ZM220.038 279.432V288H221.058V284.496C221.058 284.216 221.094 283.96 221.166 283.728C221.246 283.488 221.362 283.28 221.514 283.104C221.666 282.928 221.854 282.792 222.078 282.696C222.31 282.6 222.582 282.552 222.894 282.552C223.286 282.552 223.594 282.664 223.818 282.888C224.042 283.112 224.154 283.416 224.154 283.8V288H225.174V283.92C225.174 283.584 225.138 283.28 225.066 283.008C225.002 282.728 224.886 282.488 224.718 282.288C224.55 282.088 224.33 281.932 224.058 281.82C223.786 281.708 223.446 281.652 223.038 281.652C222.854 281.652 222.662 281.672 222.462 281.712C222.27 281.752 222.082 281.816 221.898 281.904C221.722 281.984 221.562 282.092 221.418 282.228C221.274 282.356 221.162 282.516 221.082 282.708H221.058V279.432H220.038ZM232.202 287.976C232.026 288.08 231.782 288.132 231.47 288.132C231.206 288.132 230.994 288.06 230.834 287.916C230.682 287.764 230.606 287.52 230.606 287.184C230.326 287.52 229.998 287.764 229.622 287.916C229.254 288.06 228.854 288.132 228.422 288.132C228.142 288.132 227.874 288.1 227.618 288.036C227.37 287.972 227.154 287.872 226.97 287.736C226.786 287.6 226.638 287.424 226.526 287.208C226.422 286.984 226.37 286.716 226.37 286.404C226.37 286.052 226.43 285.764 226.55 285.54C226.67 285.316 226.826 285.136 227.018 285C227.218 284.856 227.442 284.748 227.69 284.676C227.946 284.604 228.206 284.544 228.47 284.496C228.75 284.44 229.014 284.4 229.262 284.376C229.518 284.344 229.742 284.304 229.934 284.256C230.126 284.2 230.278 284.124 230.39 284.028C230.502 283.924 230.558 283.776 230.558 283.584C230.558 283.36 230.514 283.18 230.426 283.044C230.346 282.908 230.238 282.804 230.102 282.732C229.974 282.66 229.826 282.612 229.658 282.588C229.498 282.564 229.338 282.552 229.178 282.552C228.746 282.552 228.386 282.636 228.098 282.804C227.81 282.964 227.654 283.272 227.63 283.728H226.61C226.626 283.344 226.706 283.02 226.85 282.756C226.994 282.492 227.186 282.28 227.426 282.12C227.666 281.952 227.938 281.832 228.242 281.76C228.554 281.688 228.886 281.652 229.238 281.652C229.518 281.652 229.794 281.672 230.066 281.712C230.346 281.752 230.598 281.836 230.822 281.964C231.046 282.084 231.226 282.256 231.362 282.48C231.498 282.704 231.566 282.996 231.566 283.356V286.548C231.566 286.788 231.578 286.964 231.602 287.076C231.634 287.188 231.73 287.244 231.89 287.244C231.978 287.244 232.082 287.224 232.202 287.184V287.976ZM230.546 284.796C230.418 284.892 230.25 284.964 230.042 285.012C229.834 285.052 229.614 285.088 229.382 285.12C229.158 285.144 228.93 285.176 228.698 285.216C228.466 285.248 228.258 285.304 228.074 285.384C227.89 285.464 227.738 285.58 227.618 285.732C227.506 285.876 227.45 286.076 227.45 286.332C227.45 286.5 227.482 286.644 227.546 286.764C227.618 286.876 227.706 286.968 227.81 287.04C227.922 287.112 228.05 287.164 228.194 287.196C228.338 287.228 228.49 287.244 228.65 287.244C228.986 287.244 229.274 287.2 229.514 287.112C229.754 287.016 229.95 286.9 230.102 286.764C230.254 286.62 230.366 286.468 230.438 286.308C230.51 286.14 230.546 285.984 230.546 285.84V284.796ZM234.567 281.796V279.936H233.547V281.796H232.491V282.696H233.547V286.644C233.547 286.932 233.575 287.164 233.631 287.34C233.687 287.516 233.771 287.652 233.883 287.748C234.003 287.844 234.155 287.912 234.339 287.952C234.531 287.984 234.759 288 235.023 288H235.803V287.1H235.335C235.175 287.1 235.043 287.096 234.939 287.088C234.843 287.072 234.767 287.044 234.711 287.004C234.655 286.964 234.615 286.908 234.591 286.836C234.575 286.764 234.567 286.668 234.567 286.548V282.696H235.803V281.796H234.567ZM240.312 281.796V290.364H241.332V287.172H241.356C241.468 287.356 241.604 287.512 241.764 287.64C241.932 287.76 242.108 287.856 242.292 287.928C242.476 288 242.66 288.052 242.844 288.084C243.036 288.116 243.208 288.132 243.36 288.132C243.832 288.132 244.244 288.048 244.596 287.88C244.956 287.712 245.252 287.484 245.484 287.196C245.724 286.9 245.9 286.556 246.012 286.164C246.132 285.772 246.192 285.356 246.192 284.916C246.192 284.476 246.132 284.06 246.012 283.668C245.892 283.276 245.712 282.932 245.472 282.636C245.24 282.332 244.944 282.092 244.584 281.916C244.232 281.74 243.816 281.652 243.336 281.652C242.904 281.652 242.508 281.732 242.148 281.892C241.788 282.044 241.524 282.292 241.356 282.636H241.332V281.796H240.312ZM245.112 284.844C245.112 285.148 245.08 285.444 245.016 285.732C244.952 286.02 244.848 286.276 244.704 286.5C244.56 286.724 244.368 286.904 244.128 287.04C243.896 287.176 243.604 287.244 243.252 287.244C242.9 287.244 242.6 287.18 242.352 287.052C242.104 286.916 241.9 286.74 241.74 286.524C241.588 286.308 241.476 286.06 241.404 285.78C241.332 285.492 241.296 285.196 241.296 284.892C241.296 284.604 241.328 284.32 241.392 284.04C241.464 283.76 241.576 283.512 241.728 283.296C241.88 283.072 242.076 282.892 242.316 282.756C242.556 282.62 242.848 282.552 243.192 282.552C243.52 282.552 243.804 282.616 244.044 282.744C244.292 282.872 244.492 283.044 244.644 283.26C244.804 283.476 244.92 283.724 244.992 284.004C245.072 284.276 245.112 284.556 245.112 284.844ZM252.885 287.976C252.709 288.08 252.465 288.132 252.153 288.132C251.889 288.132 251.677 288.06 251.517 287.916C251.365 287.764 251.289 287.52 251.289 287.184C251.009 287.52 250.681 287.764 250.305 287.916C249.937 288.06 249.537 288.132 249.105 288.132C248.825 288.132 248.557 288.1 248.301 288.036C248.053 287.972 247.837 287.872 247.653 287.736C247.469 287.6 247.321 287.424 247.209 287.208C247.105 286.984 247.053 286.716 247.053 286.404C247.053 286.052 247.113 285.764 247.233 285.54C247.353 285.316 247.509 285.136 247.701 285C247.901 284.856 248.125 284.748 248.373 284.676C248.629 284.604 248.889 284.544 249.153 284.496C249.433 284.44 249.697 284.4 249.945 284.376C250.201 284.344 250.425 284.304 250.617 284.256C250.809 284.2 250.961 284.124 251.073 284.028C251.185 283.924 251.241 283.776 251.241 283.584C251.241 283.36 251.197 283.18 251.109 283.044C251.029 282.908 250.921 282.804 250.785 282.732C250.657 282.66 250.509 282.612 250.341 282.588C250.181 282.564 250.021 282.552 249.861 282.552C249.429 282.552 249.069 282.636 248.781 282.804C248.493 282.964 248.337 283.272 248.313 283.728H247.293C247.309 283.344 247.389 283.02 247.533 282.756C247.677 282.492 247.869 282.28 248.109 282.12C248.349 281.952 248.621 281.832 248.925 281.76C249.237 281.688 249.569 281.652 249.921 281.652C250.201 281.652 250.477 281.672 250.749 281.712C251.029 281.752 251.281 281.836 251.505 281.964C251.729 282.084 251.909 282.256 252.045 282.48C252.181 282.704 252.249 282.996 252.249 283.356V286.548C252.249 286.788 252.261 286.964 252.285 287.076C252.317 287.188 252.413 287.244 252.573 287.244C252.661 287.244 252.765 287.224 252.885 287.184V287.976ZM251.229 284.796C251.101 284.892 250.933 284.964 250.725 285.012C250.517 285.052 250.297 285.088 250.065 285.12C249.841 285.144 249.613 285.176 249.381 285.216C249.149 285.248 248.941 285.304 248.757 285.384C248.573 285.464 248.421 285.58 248.301 285.732C248.189 285.876 248.133 286.076 248.133 286.332C248.133 286.5 248.165 286.644 248.229 286.764C248.301 286.876 248.389 286.968 248.493 287.04C248.605 287.112 248.733 287.164 248.877 287.196C249.021 287.228 249.173 287.244 249.333 287.244C249.669 287.244 249.957 287.2 250.197 287.112C250.437 287.016 250.633 286.9 250.785 286.764C250.937 286.62 251.049 286.468 251.121 286.308C251.193 286.14 251.229 285.984 251.229 285.84V284.796ZM253.798 281.796V288H254.818V285.24C254.818 284.84 254.858 284.488 254.938 284.184C255.018 283.872 255.146 283.608 255.322 283.392C255.498 283.176 255.73 283.012 256.018 282.9C256.306 282.788 256.654 282.732 257.062 282.732V281.652C256.51 281.636 256.054 281.748 255.694 281.988C255.334 282.228 255.03 282.6 254.782 283.104H254.758V281.796H253.798ZM261.928 284.304H258.364C258.38 284.064 258.432 283.84 258.52 283.632C258.608 283.416 258.728 283.228 258.88 283.068C259.032 282.908 259.212 282.784 259.42 282.696C259.636 282.6 259.876 282.552 260.14 282.552C260.396 282.552 260.628 282.6 260.836 282.696C261.052 282.784 261.236 282.908 261.388 283.068C261.548 283.22 261.672 283.404 261.76 283.62C261.856 283.836 261.912 284.064 261.928 284.304ZM262.912 286.032H261.904C261.816 286.44 261.632 286.744 261.352 286.944C261.08 287.144 260.728 287.244 260.296 287.244C259.96 287.244 259.668 287.188 259.42 287.076C259.172 286.964 258.968 286.816 258.808 286.632C258.648 286.44 258.532 286.224 258.46 285.984C258.388 285.736 258.356 285.476 258.364 285.204H263.008C263.024 284.828 262.988 284.432 262.9 284.016C262.82 283.6 262.668 283.216 262.444 282.864C262.228 282.512 261.936 282.224 261.568 282C261.208 281.768 260.752 281.652 260.2 281.652C259.776 281.652 259.384 281.732 259.024 281.892C258.672 282.052 258.364 282.276 258.1 282.564C257.844 282.852 257.644 283.192 257.5 283.584C257.356 283.976 257.284 284.408 257.284 284.88C257.3 285.352 257.368 285.788 257.488 286.188C257.616 286.588 257.804 286.932 258.052 287.22C258.3 287.508 258.604 287.732 258.964 287.892C259.332 288.052 259.764 288.132 260.26 288.132C260.964 288.132 261.548 287.956 262.012 287.604C262.476 287.252 262.776 286.728 262.912 286.032ZM264.065 281.796V288H265.085V284.496C265.085 284.216 265.121 283.96 265.193 283.728C265.273 283.488 265.389 283.28 265.541 283.104C265.693 282.928 265.881 282.792 266.105 282.696C266.337 282.6 266.609 282.552 266.921 282.552C267.313 282.552 267.621 282.664 267.845 282.888C268.069 283.112 268.181 283.416 268.181 283.8V288H269.201V283.92C269.201 283.584 269.165 283.28 269.093 283.008C269.029 282.728 268.913 282.488 268.745 282.288C268.577 282.088 268.357 281.932 268.085 281.82C267.813 281.708 267.473 281.652 267.065 281.652C266.145 281.652 265.473 282.028 265.049 282.78H265.025V281.796H264.065ZM272.149 281.796V279.936H271.129V281.796H270.073V282.696H271.129V286.644C271.129 286.932 271.157 287.164 271.213 287.34C271.269 287.516 271.353 287.652 271.465 287.748C271.585 287.844 271.737 287.912 271.921 287.952C272.113 287.984 272.341 288 272.605 288H273.385V287.1H272.917C272.757 287.1 272.625 287.096 272.521 287.088C272.425 287.072 272.349 287.044 272.293 287.004C272.237 286.964 272.197 286.908 272.173 286.836C272.157 286.764 272.149 286.668 272.149 286.548V282.696H273.385V281.796H272.149ZM277.642 287.28V288.084L283.738 285.336V284.592L277.642 281.832V282.648L282.742 284.964L277.642 287.28ZM284.861 285.768V286.584H290.909V285.768H284.861ZM290.909 284.16V283.344H284.861V284.16H290.909ZM299.8 283.788H300.856C300.816 283.42 300.72 283.104 300.568 282.84C300.416 282.568 300.22 282.344 299.98 282.168C299.748 281.992 299.476 281.864 299.164 281.784C298.86 281.696 298.532 281.652 298.18 281.652C297.692 281.652 297.264 281.74 296.896 281.916C296.528 282.084 296.22 282.32 295.972 282.624C295.732 282.92 295.552 283.272 295.432 283.68C295.312 284.08 295.252 284.512 295.252 284.976C295.252 285.44 295.312 285.868 295.432 286.26C295.56 286.644 295.744 286.976 295.984 287.256C296.232 287.536 296.536 287.752 296.896 287.904C297.264 288.056 297.684 288.132 298.156 288.132C298.948 288.132 299.572 287.924 300.028 287.508C300.492 287.092 300.78 286.5 300.892 285.732H299.848C299.784 286.212 299.608 286.584 299.32 286.848C299.04 287.112 298.648 287.244 298.144 287.244C297.824 287.244 297.548 287.18 297.316 287.052C297.084 286.924 296.896 286.756 296.752 286.548C296.608 286.332 296.5 286.088 296.428 285.816C296.364 285.544 296.332 285.264 296.332 284.976C296.332 284.664 296.364 284.364 296.428 284.076C296.492 283.78 296.596 283.52 296.74 283.296C296.892 283.072 297.092 282.892 297.34 282.756C297.588 282.62 297.896 282.552 298.264 282.552C298.696 282.552 299.04 282.66 299.296 282.876C299.552 283.092 299.72 283.396 299.8 283.788ZM302.034 279.432V288H303.054V284.496C303.054 284.216 303.09 283.96 303.162 283.728C303.242 283.488 303.358 283.28 303.51 283.104C303.662 282.928 303.85 282.792 304.074 282.696C304.306 282.6 304.578 282.552 304.89 282.552C305.282 282.552 305.59 282.664 305.814 282.888C306.038 283.112 306.15 283.416 306.15 283.8V288H307.17V283.92C307.17 283.584 307.134 283.28 307.062 283.008C306.998 282.728 306.882 282.488 306.714 282.288C306.546 282.088 306.326 281.932 306.054 281.82C305.782 281.708 305.442 281.652 305.034 281.652C304.85 281.652 304.658 281.672 304.458 281.712C304.266 281.752 304.078 281.816 303.894 281.904C303.718 281.984 303.558 282.092 303.414 282.228C303.27 282.356 303.158 282.516 303.078 282.708H303.054V279.432H302.034ZM309.782 280.68V279.432H308.762V280.68H309.782ZM308.762 281.796V288H309.782V281.796H308.762ZM311.422 279.432V288H312.442V279.432H311.422ZM314.766 284.952C314.766 284.648 314.798 284.352 314.862 284.064C314.926 283.776 315.03 283.52 315.174 283.296C315.318 283.072 315.51 282.892 315.75 282.756C315.99 282.62 316.282 282.552 316.626 282.552C316.978 282.552 317.278 282.62 317.526 282.756C317.774 282.884 317.974 283.056 318.126 283.272C318.286 283.488 318.402 283.74 318.474 284.028C318.546 284.308 318.582 284.6 318.582 284.904C318.582 285.192 318.546 285.476 318.474 285.756C318.41 286.036 318.302 286.288 318.15 286.512C317.998 286.728 317.802 286.904 317.562 287.04C317.322 287.176 317.03 287.244 316.686 287.244C316.358 287.244 316.07 287.18 315.822 287.052C315.582 286.924 315.382 286.752 315.222 286.536C315.07 286.32 314.954 286.076 314.874 285.804C314.802 285.524 314.766 285.24 314.766 284.952ZM319.566 288V279.432H318.546V282.624H318.522C318.41 282.44 318.27 282.288 318.102 282.168C317.942 282.04 317.77 281.94 317.586 281.868C317.402 281.788 317.218 281.732 317.034 281.7C316.85 281.668 316.678 281.652 316.518 281.652C316.046 281.652 315.63 281.74 315.27 281.916C314.918 282.084 314.622 282.316 314.382 282.612C314.15 282.9 313.974 283.24 313.854 283.632C313.742 284.024 313.686 284.44 313.686 284.88C313.686 285.32 313.746 285.736 313.866 286.128C313.986 286.52 314.162 286.864 314.394 287.16C314.634 287.456 314.93 287.692 315.282 287.868C315.642 288.044 316.062 288.132 316.542 288.132C316.974 288.132 317.37 288.056 317.73 287.904C318.09 287.752 318.354 287.504 318.522 287.16H318.546V288H319.566Z" fill="black"/>
<path d="M380.382 0H352.438V27.973H380.382V0Z" fill="white"/>
<path d="M379.882 0.5H352.938V27.473H379.882V0.5Z" stroke="#979797"/>
<path d="M364.555 8.54825V10.7558C364.82 10.6448 365.074 10.5624 365.318 10.5087C365.561 10.4514 365.792 10.4228 366.011 10.4228C366.576 10.4228 367.049 10.6215 367.429 11.019C367.812 11.4164 368.003 11.9392 368.003 12.5873C368.003 13.3035 367.788 13.8835 367.359 14.3275C366.929 14.7716 366.392 14.9936 365.747 14.9936C365.321 14.9936 364.911 14.8987 364.517 14.7089C364.238 14.5764 363.984 14.4117 363.755 14.2148C363.619 14.0966 363.551 13.9981 363.551 13.9193C363.551 13.8549 363.572 13.8012 363.615 13.7582C363.658 13.7117 363.708 13.6884 363.766 13.6884C363.826 13.6884 363.891 13.7206 363.959 13.7851C364.5 14.2899 365.089 14.5424 365.726 14.5424C366.252 14.5424 366.687 14.3634 367.031 14.0053C367.375 13.6436 367.547 13.1638 367.547 12.5658C367.547 12.0574 367.398 11.6492 367.101 11.3412C366.804 11.0297 366.426 10.8739 365.968 10.8739C365.499 10.8739 365.03 10.9975 364.56 11.2445C364.446 11.3018 364.365 11.3305 364.319 11.3305C364.254 11.3305 364.202 11.309 364.163 11.266C364.124 11.2231 364.104 11.1622 364.104 11.0834V8.09171H367.251C367.359 8.09171 367.436 8.11319 367.482 8.15616C367.529 8.19913 367.552 8.25463 367.552 8.32266C367.552 8.38712 367.529 8.44083 367.482 8.4838C367.436 8.52676 367.359 8.54825 367.251 8.54825H364.555Z" fill="black"/>
<path d="M353.556 0H325.612V27.973H353.556V0Z" fill="white"/>
<path d="M353.056 0.5H326.112V27.473H353.056V0.5Z" stroke="#979797"/>
<path d="M337.03 14.3813H340.495V14.204C340.495 14.0966 340.516 14.0196 340.559 13.9731C340.602 13.9265 340.658 13.9032 340.726 13.9032C340.79 13.9032 340.844 13.9265 340.887 13.9731C340.93 14.0196 340.951 14.0966 340.951 14.204V14.8324H336.59V14.1664C337.507 13.3428 338.398 12.505 339.265 11.6527C339.669 11.2553 339.947 10.9635 340.097 10.7773C340.248 10.5911 340.35 10.4281 340.403 10.2885C340.461 10.1453 340.489 10.002 340.489 9.8588C340.489 9.47208 340.334 9.13012 340.022 8.83292C339.711 8.53572 339.335 8.38712 338.894 8.38712C338.5 8.38712 338.151 8.49991 337.847 8.72549C337.542 8.95108 337.345 9.23038 337.256 9.56339C337.234 9.64932 337.208 9.70482 337.175 9.72989C337.132 9.7657 337.082 9.7836 337.025 9.7836C336.964 9.7836 336.912 9.76391 336.869 9.72452C336.83 9.68155 336.81 9.63142 336.81 9.57413C336.81 9.40225 336.903 9.1695 337.089 8.87589C337.279 8.58227 337.539 8.35131 337.868 8.18301C338.201 8.01472 338.541 7.93057 338.889 7.93057C339.451 7.93057 339.934 8.12572 340.339 8.51602C340.744 8.90632 340.946 9.34854 340.946 9.84268C340.946 10.0504 340.912 10.2419 340.844 10.4174C340.776 10.5893 340.659 10.779 340.495 10.9867C340.334 11.1908 340.042 11.5006 339.619 11.9159C338.559 12.9615 337.696 13.7725 337.03 14.349V14.3813Z" fill="black"/>
<path d="M326.729 0H298.785V27.973H326.729V0Z" fill="white"/>
<path d="M326.229 0.5H299.285V27.473H326.229V0.5Z" stroke="#979797"/>
<path d="M312.368 8.0004V14.3813H313.915C314.023 14.3813 314.1 14.4027 314.146 14.4457C314.193 14.4851 314.216 14.5388 314.216 14.6068C314.216 14.6713 314.193 14.725 314.146 14.768C314.1 14.8109 314.023 14.8324 313.915 14.8324H310.37C310.263 14.8324 310.186 14.8109 310.139 14.768C310.093 14.725 310.07 14.6713 310.07 14.6068C310.07 14.5388 310.093 14.4851 310.139 14.4457C310.186 14.4027 310.263 14.3813 310.37 14.3813H311.917V8.62344L310.446 9.08536C310.374 9.10684 310.322 9.11758 310.29 9.11758C310.236 9.11758 310.186 9.0961 310.139 9.05313C310.097 9.00658 310.075 8.95287 310.075 8.892C310.075 8.83829 310.093 8.78816 310.129 8.74161C310.157 8.71296 310.216 8.68253 310.306 8.6503L312.368 8.0004Z" fill="black"/>
<path d="M299.903 0H271.959V27.973H299.903V0Z" fill="white"/>
<path d="M299.403 0.5H272.459V27.473H299.403V0.5Z" stroke="#979797"/>
<path d="M287.483 8.75235V8.54825H284.25V8.94571C284.25 9.05313 284.228 9.13012 284.185 9.17667C284.146 9.22322 284.092 9.24649 284.024 9.24649C283.96 9.24649 283.906 9.22322 283.863 9.17667C283.82 9.13012 283.799 9.05313 283.799 8.94571V8.09171H287.94V8.81143L286.124 14.6122C286.096 14.7053 286.062 14.768 286.022 14.8002C285.983 14.8288 285.938 14.8432 285.888 14.8432C285.823 14.8432 285.77 14.8217 285.727 14.7787C285.684 14.7357 285.662 14.6856 285.662 14.6283C285.662 14.5925 285.673 14.5424 285.695 14.4779L287.483 8.75235Z" fill="black"/>
<path d="M273.076 0H245.132V27.973H273.076V0Z" fill="white"/>
<path d="M272.576 0.5H245.632V27.473H272.576V0.5Z" stroke="#979797"/>
<path d="M256.029 11.9804C256.309 11.5686 256.595 11.2642 256.889 11.0673C257.186 10.8704 257.515 10.7719 257.877 10.7719C258.357 10.7719 258.783 10.9724 259.155 11.3734C259.528 11.7709 259.714 12.2633 259.714 12.8505C259.714 13.3876 259.544 13.88 259.204 14.3275C258.864 14.7716 258.395 14.9936 257.797 14.9936C257.406 14.9936 257.041 14.8736 256.701 14.6337C256.364 14.3938 256.099 14.025 255.906 13.5273C255.666 12.9078 255.546 12.2221 255.546 11.4701C255.546 10.9044 255.659 10.378 255.884 9.89102C256.056 9.51505 256.285 9.18562 256.572 8.90274C256.858 8.61628 257.191 8.38353 257.571 8.2045C257.954 8.02188 258.368 7.93057 258.812 7.93057C259.112 7.93057 259.363 7.99144 259.564 8.11319C259.65 8.1669 259.693 8.23852 259.693 8.32803C259.693 8.39249 259.673 8.4462 259.633 8.48917C259.594 8.52855 259.544 8.54825 259.483 8.54825C259.437 8.54825 259.381 8.53034 259.317 8.49454C259.17 8.42292 258.987 8.38712 258.769 8.38712C258.07 8.38712 257.433 8.6879 256.857 9.28946C256.284 9.88744 255.997 10.6 255.997 11.4272C255.997 11.5453 256.008 11.7297 256.029 11.9804ZM256.132 12.727C256.268 13.3787 256.481 13.8441 256.771 14.1234C257.064 14.4027 257.41 14.5424 257.807 14.5424C258.208 14.5424 258.55 14.3866 258.833 14.0751C259.12 13.76 259.263 13.3518 259.263 12.8505C259.263 12.3814 259.12 11.9929 258.833 11.685C258.547 11.377 258.223 11.2231 257.861 11.2231C257.514 11.2231 257.179 11.3717 256.857 11.6689C256.642 11.8658 256.4 12.2185 256.132 12.727Z" fill="black"/>
<path d="M246.25 0H218.306V27.973H246.25V0Z" fill="white"/>
<path d="M245.75 0.5H218.806V27.473H245.75V0.5Z" stroke="#979797"/>
<path d="M232.593 11.164C233.008 11.3502 233.325 11.6062 233.543 11.932C233.762 12.2543 233.871 12.5909 233.871 12.9418C233.871 13.4825 233.651 13.9605 233.21 14.3759C232.774 14.7877 232.226 14.9936 231.567 14.9936C231.18 14.9936 230.779 14.9112 230.364 14.7465C229.948 14.5818 229.658 14.4135 229.494 14.2416C229.44 14.1843 229.413 14.1234 229.413 14.059C229.413 14.0017 229.433 13.9516 229.472 13.9086C229.515 13.8656 229.565 13.8441 229.623 13.8441C229.68 13.8441 229.744 13.871 229.816 13.9247C230.371 14.3365 230.958 14.5424 231.578 14.5424C232.1 14.5424 232.537 14.3795 232.888 14.0536C233.243 13.7242 233.42 13.359 233.42 12.9579C233.42 12.6894 233.332 12.4262 233.157 12.1684C232.985 11.9106 232.736 11.7082 232.41 11.5614C232.084 11.411 231.755 11.3358 231.422 11.3358C231.314 11.3358 231.237 11.3162 231.191 11.2768C231.144 11.2338 231.121 11.1783 231.121 11.1103C231.121 11.0458 231.143 10.9921 231.186 10.9491C231.232 10.9062 231.3 10.8847 231.39 10.8847L231.776 10.89C232.181 10.89 232.514 10.7665 232.775 10.5194C233.04 10.2724 233.173 9.98591 233.173 9.66006C233.173 9.32348 233.035 9.02628 232.759 8.76846C232.484 8.51065 232.124 8.38174 231.68 8.38174C231.368 8.38174 231.082 8.43546 230.82 8.54288C230.559 8.6503 230.349 8.79711 230.192 8.98331C230.135 9.05492 230.09 9.09968 230.058 9.11758C230.029 9.13191 229.995 9.13907 229.956 9.13907C229.895 9.13907 229.843 9.11937 229.8 9.07999C229.757 9.03702 229.735 8.98689 229.735 8.9296C229.735 8.78637 229.891 8.60554 230.203 8.38712C230.636 8.08275 231.128 7.93057 231.68 7.93057C232.249 7.93057 232.716 8.10245 233.082 8.4462C233.447 8.78637 233.629 9.19278 233.629 9.66544C233.629 9.96622 233.542 10.2509 233.366 10.5194C233.191 10.788 232.933 11.0028 232.593 11.164Z" fill="black"/>
<path d="M219.424 0H191.479V27.973H219.424V0Z" fill="white"/>
<path d="M218.924 0.5H191.979V27.473H218.924V0.5Z" stroke="#979797"/>
<path d="M205.68 12.9472H202.689V12.4262L205.197 8.09171H206.137V12.496H206.513C206.624 12.496 206.703 12.5175 206.749 12.5605C206.796 12.5998 206.819 12.6536 206.819 12.7216C206.819 12.786 206.796 12.8398 206.749 12.8827C206.703 12.9257 206.624 12.9472 206.513 12.9472H206.137V14.3813H206.513C206.624 14.3813 206.703 14.4027 206.749 14.4457C206.796 14.4851 206.819 14.5388 206.819 14.6068C206.819 14.6713 206.796 14.725 206.749 14.768C206.703 14.8109 206.624 14.8324 206.513 14.8324H204.837C204.726 14.8324 204.647 14.8109 204.601 14.768C204.554 14.725 204.531 14.6713 204.531 14.6068C204.531 14.5388 204.554 14.4851 204.601 14.4457C204.647 14.4027 204.726 14.3813 204.837 14.3813H205.68V12.9472ZM205.68 12.496V8.54825H205.444L203.161 12.496H205.68Z" fill="black"/>
<path d="M192.597 0H164.653V27.973H192.597V0Z" fill="white"/>
<path d="M192.097 0.5H165.153V27.473H192.097V0.5Z" stroke="#979797"/>
<path d="M178.94 11.3358C179.316 11.5185 179.599 11.7602 179.788 12.0609C179.982 12.3581 180.079 12.6786 180.079 13.0224C180.079 13.5559 179.878 14.0178 179.477 14.4081C179.076 14.7984 178.589 14.9936 178.016 14.9936C177.443 14.9936 176.956 14.7984 176.555 14.4081C176.154 14.0178 175.954 13.5559 175.954 13.0224C175.954 12.6822 176.048 12.3635 176.238 12.0663C176.432 11.7655 176.718 11.522 177.098 11.3358C176.768 11.1461 176.528 10.9491 176.378 10.745C176.17 10.455 176.066 10.1345 176.066 9.7836C176.066 9.28946 176.256 8.85798 176.636 8.48917C177.019 8.11677 177.479 7.93057 178.016 7.93057C178.557 7.93057 179.017 8.11677 179.396 8.48917C179.776 8.85798 179.966 9.28946 179.966 9.7836C179.966 10.1345 179.862 10.4532 179.654 10.7397C179.507 10.9473 179.269 11.1461 178.94 11.3358ZM179.504 9.79971C179.504 9.41299 179.359 9.08178 179.069 8.80606C178.782 8.52676 178.43 8.38712 178.011 8.38712C177.595 8.38712 177.243 8.52676 176.953 8.80606C176.666 9.08536 176.523 9.41478 176.523 9.79434C176.523 10.1453 176.664 10.4532 176.947 10.7182C177.234 10.9796 177.588 11.1103 178.011 11.1103C178.437 11.1103 178.791 10.9796 179.074 10.7182C179.361 10.4532 179.504 10.147 179.504 9.79971ZM179.627 13.0331C179.627 12.6357 179.473 12.2901 179.165 11.9965C178.858 11.7029 178.474 11.5561 178.016 11.5561C177.558 11.5561 177.175 11.7029 176.867 11.9965C176.559 12.2901 176.405 12.6339 176.405 13.0277C176.405 13.4359 176.559 13.7904 176.867 14.0912C177.178 14.392 177.561 14.5424 178.016 14.5424C178.471 14.5424 178.852 14.392 179.16 14.0912C179.472 13.7904 179.627 13.4377 179.627 13.0331Z" fill="black"/>
<path d="M165.771 0H137.826V27.973H165.771V0Z" fill="white"/>
<path d="M165.271 0.5H138.326V27.473H165.271V0.5Z" stroke="#979797"/>
<path d="M153.037 11.019C152.804 11.4307 152.527 11.7405 152.205 11.9482C151.886 12.1558 151.558 12.2597 151.222 12.2597C150.91 12.2597 150.608 12.1702 150.314 11.9911C150.024 11.8121 149.793 11.5507 149.621 11.2069C149.449 10.8596 149.363 10.4962 149.363 10.1166C149.363 9.56518 149.534 9.06387 149.874 8.6127C150.217 8.15795 150.676 7.93057 151.249 7.93057C151.657 7.93057 152.029 8.05769 152.366 8.31192C152.702 8.56615 152.964 8.93497 153.15 9.41837C153.39 10.0378 153.51 10.7576 153.51 11.5775C153.51 12.2149 153.408 12.7449 153.204 13.1674C153.068 13.4538 152.867 13.7314 152.602 13.9999C152.341 14.2685 152.045 14.4869 151.716 14.6552C151.265 14.8808 150.796 14.9936 150.309 14.9936C149.986 14.9936 149.723 14.9327 149.519 14.8109C149.426 14.7537 149.38 14.682 149.38 14.5961C149.38 14.5352 149.401 14.4851 149.444 14.4457C149.487 14.4027 149.539 14.3813 149.6 14.3813C149.643 14.3813 149.705 14.401 149.788 14.4403C149.927 14.5084 150.089 14.5424 150.271 14.5424C151.034 14.5424 151.689 14.2685 152.237 13.7206C152.785 13.1692 153.059 12.4799 153.059 11.6527C153.059 11.5023 153.052 11.2911 153.037 11.019ZM152.951 10.267C152.762 9.54011 152.525 9.04597 152.242 8.78458C151.963 8.5196 151.635 8.38712 151.259 8.38712C150.876 8.38712 150.54 8.54825 150.25 8.87051C149.96 9.19278 149.815 9.60635 149.815 10.1112C149.815 10.6018 149.96 11.0082 150.25 11.3305C150.54 11.6492 150.867 11.8085 151.233 11.8085C151.444 11.8085 151.652 11.7512 151.856 11.6366C152.063 11.522 152.258 11.3502 152.441 11.121C152.559 10.967 152.729 10.6824 152.951 10.267Z" fill="black"/>
<path d="M138.944 0H111V27.973H138.944V0Z" fill="white"/>
<path d="M138.444 0.5H111.5V27.473H138.444V0.5Z" stroke="#979797"/>
<path d="M121.583 8.0004V14.3813H123.13C123.238 14.3813 123.315 14.4027 123.361 14.4457C123.408 14.4851 123.431 14.5388 123.431 14.6068C123.431 14.6713 123.408 14.725 123.361 14.768C123.315 14.8109 123.238 14.8324 123.13 14.8324H119.585C119.478 14.8324 119.401 14.8109 119.354 14.768C119.308 14.725 119.285 14.6713 119.285 14.6068C119.285 14.5388 119.308 14.4851 119.354 14.4457C119.401 14.4027 119.478 14.3813 119.585 14.3813H121.132V8.62344L119.661 9.08536C119.589 9.10684 119.537 9.11758 119.505 9.11758C119.451 9.11758 119.401 9.0961 119.354 9.05313C119.311 9.00658 119.29 8.95287 119.29 8.892C119.29 8.83829 119.308 8.78816 119.344 8.74161C119.372 8.71296 119.431 8.68253 119.521 8.6503L121.583 8.0004ZM130.037 10.9062V12.0233C130.037 12.9937 129.807 13.7618 129.345 14.3275C128.983 14.7716 128.526 14.9936 127.975 14.9936C127.71 14.9936 127.459 14.9398 127.223 14.8324C126.99 14.7286 126.792 14.5818 126.627 14.392C126.523 14.2738 126.408 14.0841 126.283 13.8227C126.161 13.5613 126.074 13.3214 126.02 13.1029C125.938 12.795 125.896 12.4351 125.896 12.0233V10.9062C125.896 9.9322 126.127 9.16234 126.589 8.59659C126.951 8.15258 127.407 7.93057 127.959 7.93057C128.227 7.93057 128.478 7.98428 128.711 8.09171C128.944 8.19555 129.142 8.34236 129.307 8.53214C129.414 8.65388 129.529 8.84545 129.651 9.10684C129.772 9.36824 129.862 9.60635 129.919 9.8212C129.998 10.1291 130.037 10.4908 130.037 10.9062ZM129.586 10.9652C129.586 10.5391 129.525 10.1435 129.404 9.77823C129.286 9.40941 129.151 9.11579 129.001 8.89737C128.911 8.77204 128.795 8.66462 128.652 8.5751C128.448 8.44978 128.218 8.38712 127.964 8.38712C127.459 8.38712 127.064 8.64493 126.777 9.16055C126.491 9.67618 126.348 10.2777 126.348 10.9652V11.9589C126.348 12.385 126.407 12.7825 126.525 13.1513C126.647 13.5201 126.784 13.8137 126.938 14.0321C127.024 14.1539 127.139 14.2595 127.282 14.349C127.486 14.4779 127.717 14.5424 127.975 14.5424C128.476 14.5424 128.87 14.2846 129.157 13.769C129.443 13.2497 129.586 12.6464 129.586 11.9589V10.9652Z" fill="black"/>
<path d="M13.959 16H12.8926V11.4336C12.8926 10.8001 12.79 10.3421 12.585 10.0596C12.3844 9.77246 12.0677 9.62891 11.6348 9.62891C10.9831 9.62891 10.2835 10.0345 9.53613 10.8457V16H8.46973V6.35449H9.53613V9.92285C10.3018 9.11165 11.1084 8.70605 11.9561 8.70605C13.2913 8.70605 13.959 9.5127 13.959 11.126V16ZM22.5791 12.4727H17.6914C17.6914 13.2793 17.9238 13.9447 18.3887 14.4688C18.8581 14.9928 19.4323 15.2549 20.1113 15.2549C20.7585 15.2549 21.4261 15.1387 22.1143 14.9062L22.2988 15.7607C21.6699 16.0433 20.9362 16.1846 20.0977 16.1846C19.0404 16.1846 18.1882 15.8451 17.541 15.166C16.8939 14.487 16.5703 13.571 16.5703 12.418C16.5703 11.2878 16.8597 10.3877 17.4385 9.71777C18.0218 9.04329 18.7738 8.70605 19.6943 8.70605C20.5146 8.70605 21.2005 9.01823 21.752 9.64258C22.3034 10.2669 22.5791 11.0986 22.5791 12.1377V12.4727ZM21.417 11.6045C21.417 11.0485 21.2438 10.5814 20.8975 10.2031C20.5511 9.82031 20.1637 9.62891 19.7354 9.62891C19.1839 9.62891 18.7259 9.8112 18.3613 10.1758C18.0013 10.5404 17.8008 11.0166 17.7598 11.6045H21.417ZM30.9531 16H29.8936C29.807 15.7129 29.7637 15.3301 29.7637 14.8516C29.1576 15.7402 28.3327 16.1846 27.2891 16.1846C26.7604 16.1846 26.2933 15.9977 25.8877 15.624C25.4867 15.2458 25.2861 14.7604 25.2861 14.168C25.2861 13.8171 25.3568 13.5072 25.498 13.2383C25.6393 12.9694 25.8467 12.7438 26.1201 12.5615C26.3936 12.3747 26.7262 12.2288 27.1182 12.124C27.5101 12.0146 27.9749 11.9395 28.5127 11.8984L29.709 11.8027V11.4609C29.709 10.2396 29.1393 9.62891 28 9.62891C27.7311 9.62891 27.3893 9.68815 26.9746 9.80664C26.5645 9.92057 26.2113 10.0573 25.915 10.2168L25.6348 9.45117C26.6055 8.95443 27.5078 8.70605 28.3418 8.70605C29.9642 8.70605 30.7754 9.5651 30.7754 11.2832V14.3457C30.7754 14.9655 30.8346 15.5169 30.9531 16ZM29.709 13.8877V12.5957C28.7474 12.6823 28.0866 12.7643 27.7266 12.8418C27.3711 12.9147 27.0612 13.0537 26.7969 13.2588C26.5371 13.4639 26.4072 13.7419 26.4072 14.0928C26.4072 14.4118 26.5189 14.6693 26.7422 14.8652C26.9655 15.0612 27.2503 15.1592 27.5967 15.1592C27.9749 15.1592 28.3509 15.0475 28.7246 14.8242C29.0983 14.5964 29.4264 14.2842 29.709 13.8877ZM34.7607 9.7998C34.9977 9.47168 35.3167 9.20736 35.7178 9.00684C36.1234 8.80632 36.5495 8.70605 36.9961 8.70605C37.8164 8.70605 38.459 9.04557 38.9238 9.72461C39.3932 10.3991 39.6279 11.2786 39.6279 12.3633C39.6279 13.457 39.3818 14.3685 38.8896 15.0977C38.402 15.8223 37.7435 16.1846 36.9141 16.1846C36.472 16.1846 36.0573 16.0752 35.6699 15.8564C35.2871 15.6331 34.984 15.3392 34.7607 14.9746V18.8164H33.6943V8.87695H34.7607V9.7998ZM34.7607 10.8594V13.8193C34.9613 14.2204 35.2324 14.5553 35.5742 14.8242C35.916 15.0931 36.2692 15.2275 36.6338 15.2275C37.208 15.2275 37.6637 14.9587 38.001 14.4209C38.3428 13.8831 38.5137 13.2155 38.5137 12.418C38.5137 11.5977 38.3519 10.9277 38.0283 10.4082C37.7048 9.88867 37.2536 9.62891 36.6748 9.62891C35.9229 9.62891 35.2848 10.0391 34.7607 10.8594ZM49.0342 19.0488H40.6328V18.1533H49.0342V19.0488ZM55.4805 16H52.5684V7.27734H50.709V6.35449H53.6348V15.0771H55.4805V16ZM62.1113 6.18359C62.3118 6.18359 62.4827 6.25651 62.624 6.40234C62.7653 6.54362 62.8359 6.71452 62.8359 6.91504C62.8359 7.12467 62.7653 7.30013 62.624 7.44141C62.4873 7.58268 62.3164 7.65332 62.1113 7.65332C61.9245 7.65332 61.7581 7.5804 61.6123 7.43457C61.471 7.28418 61.4004 7.111 61.4004 6.91504C61.4004 6.71908 61.471 6.54818 61.6123 6.40234C61.7581 6.25651 61.9245 6.18359 62.1113 6.18359ZM62.6309 16H61.5645V9.7998H59.4658V8.87695H62.6309V16ZM72.0713 9.89551C71.4743 9.69954 70.9115 9.60156 70.3828 9.60156C69.804 9.60156 69.346 9.69954 69.0088 9.89551C68.6715 10.0869 68.5029 10.3444 68.5029 10.668C68.5029 10.873 68.5804 11.0531 68.7354 11.208C68.8903 11.3584 69.2002 11.4997 69.665 11.6318L70.6836 11.9258C71.153 12.0579 71.5358 12.2174 71.832 12.4043C72.1283 12.5866 72.3493 12.8099 72.4951 13.0742C72.6455 13.334 72.7207 13.637 72.7207 13.9834C72.7207 14.6624 72.4359 15.2002 71.8662 15.5967C71.2965 15.9886 70.5719 16.1846 69.6924 16.1846C68.8174 16.1846 68.0951 16.0524 67.5254 15.7881L67.7305 14.8652C68.3275 15.1478 68.9678 15.2891 69.6514 15.2891C70.2438 15.2891 70.7246 15.1797 71.0938 14.9609C71.4674 14.7376 71.6543 14.4437 71.6543 14.0791C71.6543 13.833 71.5609 13.6143 71.374 13.4229C71.1917 13.2269 70.7588 13.0241 70.0752 12.8145C69.5238 12.6458 69.1182 12.5205 68.8584 12.4385C68.5986 12.3519 68.3571 12.2266 68.1338 12.0625C67.9105 11.8984 67.7396 11.7025 67.6211 11.4746C67.5072 11.2467 67.4502 10.9915 67.4502 10.709C67.4502 10.0938 67.7191 9.60612 68.2568 9.24609C68.7946 8.88607 69.5078 8.70605 70.3965 8.70605C70.9707 8.70605 71.6087 8.80404 72.3105 9L72.0713 9.89551ZM81.293 15.6787C80.5775 16.0068 79.8734 16.1709 79.1807 16.1709C77.9092 16.1709 77.2734 15.4987 77.2734 14.1543V9.7998H75.9062V8.87695H77.2734V6.92871H78.3125V8.87695H80.7324V9.7998H78.3125V13.874C78.3125 14.307 78.4082 14.6442 78.5996 14.8857C78.791 15.1227 79.0508 15.2412 79.3789 15.2412C79.9622 15.2412 80.5387 15.1113 81.1084 14.8516L81.293 15.6787ZM98.5127 10.1348H92.0459V9.23926H98.5127V10.1348ZM98.5127 12.876H92.0459V11.9805H98.5127V12.876Z" fill="black"/>
<path d="M75.8751 262.107C85.2624 262.107 92.8723 254.472 92.8723 245.054C92.8723 235.635 85.2624 228 75.8751 228C66.4878 228 58.8779 235.635 58.8779 245.054C58.8779 254.472 66.4878 262.107 75.8751 262.107Z" stroke="black"/>
<path d="M77.8765 245.452H76.942V247.203H76.0611V245.452H72.7632V244.781L75.7549 239.625H76.942V244.684H77.8765V245.452ZM76.0611 244.684V240.495L73.6548 244.684H76.0611Z" fill="black"/>
<path d="M17.9972 262.107C27.3846 262.107 34.9945 254.472 34.9945 245.054C34.9945 235.635 27.3846 228 17.9972 228C8.60992 228 1 235.635 1 245.054C1 254.472 8.60992 262.107 17.9972 262.107Z" stroke="black"/>
<path d="M19.5045 247.203H15.3365V246.564C16.3929 245.386 17.0786 244.597 17.3937 244.195C17.7088 243.794 17.9648 243.374 18.1617 242.933C18.3587 242.493 18.4572 242.054 18.4572 241.617C18.4572 241.195 18.3282 240.862 18.0704 240.618C17.8162 240.375 17.4581 240.253 16.9962 240.253C16.6417 240.253 16.1655 240.362 15.5675 240.581L15.444 239.823C15.9847 239.594 16.5504 239.48 17.1412 239.48C17.818 239.48 18.3623 239.671 18.774 240.054C19.1894 240.434 19.3971 240.942 19.3971 241.58C19.3971 242.035 19.2897 242.486 19.0748 242.933C18.8636 243.381 18.5914 243.811 18.2584 244.222C17.9254 244.634 17.2773 245.372 16.3141 246.435H19.5045V247.203Z" fill="black"/>
<path d="M332.196 192.107C341.583 192.107 349.193 184.472 349.193 175.054C349.193 165.635 341.583 158 332.196 158C322.808 158 315.198 165.635 315.198 175.054C315.198 184.472 322.808 192.107 332.196 192.107Z" stroke="black"/>
<path d="M333.998 170.253L330.996 177.203H330.094L333.053 170.393H329.503V169.625H333.998V170.253Z" fill="black"/>
<path d="M242.425 192.107C251.812 192.107 259.422 184.472 259.422 175.054C259.422 165.635 251.812 158 242.425 158C233.037 158 225.427 165.635 225.427 175.054C225.427 184.472 233.037 192.107 242.425 192.107Z" stroke="black"/>
<path d="M240.607 173.256C241.08 172.872 241.594 172.681 242.149 172.681C242.79 172.681 243.323 172.887 243.749 173.299C244.179 173.707 244.394 174.235 244.394 174.883C244.394 175.596 244.204 176.185 243.825 176.65C243.445 177.116 242.938 177.348 242.305 177.348C241.495 177.348 240.854 176.978 240.382 176.236C239.909 175.492 239.673 174.582 239.673 173.508C239.673 172.362 239.918 171.404 240.409 170.634C240.903 169.865 241.578 169.48 242.433 169.48C243.024 169.48 243.535 169.567 243.964 169.743L243.825 170.527C243.327 170.344 242.872 170.253 242.46 170.253C241.877 170.253 241.422 170.532 241.096 171.091C240.77 171.65 240.607 172.371 240.607 173.256ZM240.634 174.013C240.634 174.661 240.786 175.25 241.091 175.78C241.395 176.31 241.778 176.575 242.24 176.575C242.63 176.575 242.931 176.432 243.142 176.145C243.354 175.859 243.459 175.463 243.459 174.958C243.459 174.493 243.343 174.126 243.11 173.857C242.877 173.589 242.55 173.454 242.127 173.454C241.579 173.454 241.082 173.64 240.634 174.013Z" fill="black"/>
<path d="M142.679 192.107C152.066 192.107 159.676 184.472 159.676 175.054C159.676 165.635 152.066 158 142.679 158C133.292 158 125.682 165.635 125.682 175.054C125.682 184.472 133.292 192.107 142.679 192.107Z" stroke="black"/>
<path d="M141.688 173.132C142.15 173.261 142.52 173.497 142.8 173.841C143.079 174.181 143.219 174.564 143.219 174.99C143.219 175.656 142.959 176.217 142.44 176.672C141.921 177.123 141.308 177.348 140.603 177.348C140.001 177.348 139.462 177.216 138.986 176.951L139.158 176.226C139.656 176.459 140.148 176.575 140.635 176.575C141.094 176.575 141.484 176.433 141.806 176.151C142.132 175.864 142.295 175.497 142.295 175.049C142.295 174.609 142.121 174.251 141.774 173.975C141.427 173.7 140.966 173.562 140.393 173.562H140.163V172.837H140.227C140.778 172.837 141.233 172.708 141.591 172.45C141.949 172.188 142.128 171.838 142.128 171.397C142.128 171.039 141.999 170.76 141.742 170.559C141.484 170.355 141.129 170.253 140.678 170.253C140.288 170.253 139.851 170.359 139.368 170.57L139.249 169.813C139.736 169.591 140.227 169.48 140.721 169.48C141.398 169.48 141.955 169.659 142.392 170.017C142.832 170.371 143.052 170.828 143.052 171.386C143.052 171.773 142.918 172.135 142.649 172.471C142.384 172.804 142.064 173.014 141.688 173.1V173.132Z" fill="black"/>
<path d="M42.3944 188.5L22.5 228.5" stroke="black" stroke-linecap="square"/>
<path d="M59.5 191.5L70.5 228.5" stroke="black" stroke-linecap="square"/>
<path d="M52.9082 192.107C62.2955 192.107 69.9054 184.472 69.9054 175.054C69.9054 165.635 62.2955 158 52.9082 158C43.5209 158 35.9109 165.635 35.9109 175.054C35.9109 184.472 43.5209 192.107 52.9082 192.107Z" stroke="black"/>
<path d="M51.4775 172.681C51.721 172.616 51.9591 172.584 52.1918 172.584C52.908 172.584 53.4737 172.804 53.8891 173.245C54.3045 173.682 54.5121 174.228 54.5121 174.883C54.5121 175.57 54.2704 176.154 53.787 176.634C53.3036 177.11 52.7146 177.348 52.02 177.348C51.3575 177.348 50.8025 177.237 50.3549 177.015L50.5322 176.269C51.0191 176.473 51.5222 176.575 52.0414 176.575C52.5034 176.575 52.8758 176.426 53.1586 176.129C53.4451 175.832 53.5883 175.417 53.5883 174.883C53.5883 174.378 53.454 173.99 53.1855 173.717C52.9169 173.445 52.5714 173.309 52.1489 173.309C51.8409 173.309 51.5366 173.368 51.2358 173.486L50.7094 173.245V169.625H54.1738V170.393H51.4775V172.681Z" fill="black"/>
<path d="M267.819 129.5L249.865 159.5" stroke="black" stroke-linecap="square"/>
<path d="M290.761 126.5L320.684 161.5" stroke="black" stroke-linecap="square"/>
<path d="M277.336 132.107C286.723 132.107 294.333 124.472 294.333 115.054C294.333 105.635 286.723 98 277.336 98C267.948 98 260.338 105.635 260.338 115.054C260.338 124.472 267.948 132.107 277.336 132.107Z" stroke="black"/>
<path d="M277.634 113.046C278.15 113.196 278.549 113.452 278.832 113.814C279.119 114.176 279.262 114.598 279.262 115.082C279.262 115.776 279.031 116.328 278.569 116.736C278.111 117.144 277.545 117.348 276.872 117.348C276.166 117.348 275.586 117.142 275.131 116.731C274.68 116.319 274.455 115.773 274.455 115.092C274.455 114.613 274.602 114.19 274.895 113.825C275.189 113.46 275.599 113.2 276.125 113.046C275.706 112.939 275.37 112.733 275.115 112.428C274.865 112.12 274.739 111.777 274.739 111.397C274.739 110.91 274.933 110.47 275.319 110.076C275.706 109.678 276.216 109.48 276.85 109.48C277.477 109.48 277.994 109.677 278.402 110.07C278.814 110.464 279.02 110.907 279.02 111.397C279.02 111.766 278.891 112.106 278.633 112.418C278.376 112.726 278.043 112.935 277.634 113.046ZM276.85 112.681C276.868 112.681 276.954 112.659 277.108 112.616C277.262 112.573 277.393 112.521 277.5 112.461C277.611 112.396 277.713 112.316 277.806 112.219C277.899 112.122 277.975 112.009 278.032 111.881C278.089 111.748 278.118 111.601 278.118 111.44C278.118 111.096 277.994 110.812 277.747 110.586C277.5 110.357 277.201 110.242 276.85 110.242C276.51 110.242 276.218 110.359 275.975 110.591C275.731 110.824 275.61 111.107 275.61 111.44C275.61 111.651 275.652 111.836 275.738 111.993C275.828 112.151 275.937 112.278 276.066 112.375C276.199 112.471 276.349 112.547 276.517 112.6C276.689 112.654 276.8 112.681 276.85 112.681ZM276.85 113.433C275.869 113.719 275.379 114.258 275.379 115.049C275.379 115.511 275.527 115.882 275.824 116.161C276.122 116.437 276.471 116.575 276.872 116.575C277.287 116.575 277.636 116.439 277.919 116.167C278.206 115.891 278.349 115.519 278.349 115.049C278.349 114.695 278.25 114.378 278.053 114.099C277.856 113.816 277.455 113.594 276.85 113.433Z" fill="black"/>
<path d="M95.2595 127.5L63.5 161.5" stroke="black" stroke-linecap="square"/>
<path d="M118.201 128.5L135.158 159.5" stroke="black" stroke-linecap="square"/>
<path d="M107.768 132.107C117.156 132.107 124.765 124.472 124.765 115.054C124.765 105.635 117.156 98 107.768 98C98.3809 98 90.771 105.635 90.771 115.054C90.771 124.472 98.3809 132.107 107.768 132.107Z" stroke="black"/>
<path d="M108.749 113.562C108.312 113.945 107.798 114.136 107.208 114.136C106.567 114.136 106.031 113.932 105.602 113.524C105.176 113.112 104.963 112.582 104.963 111.934C104.963 111.24 105.167 110.656 105.575 110.183C105.987 109.707 106.517 109.469 107.165 109.469C107.956 109.469 108.574 109.831 109.018 110.554C109.462 111.277 109.684 112.196 109.684 113.309C109.684 114.423 109.422 115.374 108.9 116.161C108.38 116.945 107.684 117.338 106.81 117.338C106.223 117.338 105.714 117.248 105.285 117.069L105.424 116.29C105.919 116.473 106.373 116.564 106.789 116.564C107.383 116.564 107.858 116.276 108.212 115.699C108.57 115.123 108.749 114.41 108.749 113.562ZM108.728 112.804C108.728 112.124 108.59 111.528 108.314 111.016C108.038 110.5 107.677 110.242 107.229 110.242C106.825 110.242 106.5 110.393 106.257 110.694C106.017 110.991 105.897 111.379 105.897 111.859C105.897 112.299 106.019 112.661 106.262 112.944C106.509 113.223 106.832 113.363 107.229 113.363C107.777 113.363 108.253 113.195 108.658 112.858L108.728 112.804Z" fill="black"/>
<path d="M178.048 74.5L123.188 107.5" stroke="black" stroke-linecap="square"/>
<path d="M208.969 71.5L262.832 105.5" stroke="black" stroke-linecap="square"/>
<path d="M192.552 82.1071C201.939 82.1071 209.549 74.472 209.549 65.0536C209.549 55.6351 201.939 48 192.552 48C183.165 48 175.555 55.6351 175.555 65.0536C175.555 74.472 183.165 82.1071 192.552 82.1071Z" stroke="black"/>
<path d="M191.258 67.2033H187.273V66.4352H188.879V60.5485L187.364 61.3058V60.425L189.002 59.5817H189.759V66.4352H191.258V67.2033ZM195.684 59.4797C196.486 59.4797 197.102 59.8252 197.531 60.5163C197.965 61.2038 198.181 62.1706 198.181 63.4167C198.181 64.6234 197.972 65.5812 197.553 66.2902C197.134 66.9956 196.511 67.3483 195.684 67.3483C194.885 67.3483 194.269 67.0046 193.836 66.3171C193.403 65.6296 193.186 64.6628 193.186 63.4167C193.186 62.2064 193.396 61.2485 193.815 60.5431C194.237 59.8342 194.86 59.4797 195.684 59.4797ZM195.684 66.5749C196.214 66.5749 196.606 66.3242 196.86 65.8229C197.118 65.318 197.247 64.516 197.247 63.4167C197.247 62.3138 197.118 61.5135 196.86 61.0158C196.606 60.5145 196.214 60.2638 195.684 60.2638C195.161 60.2638 194.771 60.5199 194.513 61.0319C194.255 61.544 194.126 62.3389 194.126 63.4167C194.126 64.5088 194.253 65.3091 194.507 65.8176C194.765 66.3224 195.157 66.5749 195.684 66.5749ZM195.662 62.611C195.888 62.611 196.078 62.6898 196.232 62.8473C196.389 63.0013 196.468 63.1911 196.468 63.4167C196.468 63.6494 196.389 63.8499 196.232 64.0182C196.074 64.1829 195.884 64.2653 195.662 64.2653C195.444 64.2653 195.256 64.1829 195.098 64.0182C194.944 63.8499 194.867 63.6494 194.867 63.4167C194.867 63.1875 194.943 62.9959 195.093 62.842C195.247 62.688 195.437 62.611 195.662 62.611Z" fill="black"/>
</svg>
