<svg width="400" height="292" viewBox="0 0 400 292" fill="none" xmlns="http://www.w3.org/2000/svg">
<g clip-path="url(#clip0)">
<path d="M49.96 282.012H51.1C51.036 281.556 50.9 281.156 50.692 280.812C50.484 280.46 50.224 280.168 49.912 279.936C49.6 279.704 49.244 279.528 48.844 279.408C48.444 279.288 48.02 279.228 47.572 279.228C46.916 279.228 46.332 279.348 45.82 279.588C45.316 279.82 44.892 280.14 44.548 280.548C44.212 280.956 43.956 281.436 43.78 281.988C43.604 282.532 43.516 283.116 43.516 283.74C43.516 284.364 43.596 284.948 43.756 285.492C43.924 286.036 44.172 286.508 44.5 286.908C44.828 287.308 45.24 287.624 45.736 287.856C46.232 288.08 46.812 288.192 47.476 288.192C48.572 288.192 49.436 287.892 50.068 287.292C50.7 286.692 51.072 285.852 51.184 284.772H50.044C50.02 285.124 49.948 285.452 49.828 285.756C49.708 286.06 49.54 286.324 49.324 286.548C49.116 286.764 48.864 286.936 48.568 287.064C48.28 287.184 47.948 287.244 47.572 287.244C47.06 287.244 46.62 287.148 46.252 286.956C45.884 286.764 45.58 286.508 45.34 286.188C45.108 285.86 44.936 285.48 44.824 285.048C44.712 284.608 44.656 284.144 44.656 283.656C44.656 283.208 44.712 282.776 44.824 282.36C44.936 281.944 45.108 281.576 45.34 281.256C45.58 280.928 45.88 280.668 46.24 280.476C46.608 280.284 47.048 280.188 47.56 280.188C48.16 280.188 48.676 280.34 49.108 280.644C49.548 280.948 49.832 281.404 49.96 282.012ZM53.1722 284.904C53.1722 284.528 53.2202 284.196 53.3162 283.908C53.4202 283.612 53.5602 283.364 53.7362 283.164C53.9122 282.964 54.1162 282.812 54.3482 282.708C54.5882 282.604 54.8402 282.552 55.1042 282.552C55.3682 282.552 55.6162 282.604 55.8482 282.708C56.0882 282.812 56.2962 282.964 56.4722 283.164C56.6482 283.364 56.7842 283.612 56.8802 283.908C56.9842 284.196 57.0362 284.528 57.0362 284.904C57.0362 285.28 56.9842 285.616 56.8802 285.912C56.7842 286.2 56.6482 286.444 56.4722 286.644C56.2962 286.836 56.0882 286.984 55.8482 287.088C55.6162 287.192 55.3682 287.244 55.1042 287.244C54.8402 287.244 54.5882 287.192 54.3482 287.088C54.1162 286.984 53.9122 286.836 53.7362 286.644C53.5602 286.444 53.4202 286.2 53.3162 285.912C53.2202 285.616 53.1722 285.28 53.1722 284.904ZM52.0922 284.904C52.0922 285.36 52.1562 285.784 52.2842 286.176C52.4122 286.568 52.6042 286.912 52.8602 287.208C53.1162 287.496 53.4322 287.724 53.8082 287.892C54.1842 288.052 54.6162 288.132 55.1042 288.132C55.6002 288.132 56.0322 288.052 56.4002 287.892C56.7762 287.724 57.0922 287.496 57.3482 287.208C57.6042 286.912 57.7962 286.568 57.9242 286.176C58.0522 285.784 58.1162 285.36 58.1162 284.904C58.1162 284.448 58.0522 284.024 57.9242 283.632C57.7962 283.232 57.6042 282.888 57.3482 282.6C57.0922 282.304 56.7762 282.072 56.4002 281.904C56.0322 281.736 55.6002 281.652 55.1042 281.652C54.6162 281.652 54.1842 281.736 53.8082 281.904C53.4322 282.072 53.1162 282.304 52.8602 282.6C52.6042 282.888 52.4122 283.232 52.2842 283.632C52.1562 284.024 52.0922 284.448 52.0922 284.904ZM59.3188 281.796V288H60.3388V284.136C60.3388 284.016 60.3668 283.868 60.4228 283.692C60.4868 283.508 60.5828 283.332 60.7108 283.164C60.8468 282.996 61.0188 282.852 61.2268 282.732C61.4428 282.612 61.6988 282.552 61.9948 282.552C62.2268 282.552 62.4148 282.588 62.5588 282.66C62.7108 282.724 62.8308 282.82 62.9188 282.948C63.0068 283.068 63.0668 283.212 63.0988 283.38C63.1388 283.548 63.1588 283.732 63.1588 283.932V288H64.1788V284.136C64.1788 283.656 64.3228 283.272 64.6108 282.984C64.8988 282.696 65.2948 282.552 65.7988 282.552C66.0468 282.552 66.2468 282.588 66.3988 282.66C66.5588 282.732 66.6828 282.832 66.7708 282.96C66.8588 283.08 66.9188 283.224 66.9508 283.392C66.9828 283.56 66.9988 283.74 66.9988 283.932V288H68.0188V283.452C68.0188 283.132 67.9668 282.86 67.8628 282.636C67.7668 282.404 67.6268 282.216 67.4428 282.072C67.2668 281.928 67.0508 281.824 66.7948 281.76C66.5468 281.688 66.2668 281.652 65.9548 281.652C65.5468 281.652 65.1708 281.744 64.8268 281.928C64.4908 282.112 64.2188 282.372 64.0108 282.708C63.8828 282.324 63.6628 282.052 63.3508 281.892C63.0388 281.732 62.6908 281.652 62.3068 281.652C61.4348 281.652 60.7668 282.004 60.3028 282.708H60.2788V281.796H59.3188ZM69.5853 281.796V290.364H70.6053V287.172H70.6293C70.7413 287.356 70.8773 287.512 71.0373 287.64C71.2053 287.76 71.3813 287.856 71.5653 287.928C71.7493 288 71.9333 288.052 72.1173 288.084C72.3093 288.116 72.4813 288.132 72.6333 288.132C73.1053 288.132 73.5173 288.048 73.8693 287.88C74.2293 287.712 74.5253 287.484 74.7573 287.196C74.9973 286.9 75.1733 286.556 75.2853 286.164C75.4053 285.772 75.4653 285.356 75.4653 284.916C75.4653 284.476 75.4053 284.06 75.2853 283.668C75.1653 283.276 74.9853 282.932 74.7453 282.636C74.5133 282.332 74.2173 282.092 73.8573 281.916C73.5053 281.74 73.0893 281.652 72.6093 281.652C72.1773 281.652 71.7813 281.732 71.4213 281.892C71.0613 282.044 70.7973 282.292 70.6293 282.636H70.6053V281.796H69.5853ZM74.3853 284.844C74.3853 285.148 74.3533 285.444 74.2893 285.732C74.2253 286.02 74.1213 286.276 73.9773 286.5C73.8333 286.724 73.6413 286.904 73.4013 287.04C73.1693 287.176 72.8773 287.244 72.5253 287.244C72.1733 287.244 71.8733 287.18 71.6253 287.052C71.3773 286.916 71.1733 286.74 71.0133 286.524C70.8613 286.308 70.7493 286.06 70.6773 285.78C70.6053 285.492 70.5693 285.196 70.5693 284.892C70.5693 284.604 70.6013 284.32 70.6653 284.04C70.7373 283.76 70.8493 283.512 71.0013 283.296C71.1533 283.072 71.3493 282.892 71.5893 282.756C71.8293 282.62 72.1213 282.552 72.4653 282.552C72.7933 282.552 73.0773 282.616 73.3173 282.744C73.5653 282.872 73.7653 283.044 73.9173 283.26C74.0773 283.476 74.1933 283.724 74.2653 284.004C74.3453 284.276 74.3853 284.556 74.3853 284.844ZM76.7225 279.432V288H77.7425V279.432H76.7225ZM83.6307 284.304H80.0667C80.0827 284.064 80.1347 283.84 80.2227 283.632C80.3107 283.416 80.4307 283.228 80.5827 283.068C80.7347 282.908 80.9147 282.784 81.1227 282.696C81.3387 282.6 81.5787 282.552 81.8427 282.552C82.0987 282.552 82.3307 282.6 82.5387 282.696C82.7547 282.784 82.9387 282.908 83.0907 283.068C83.2507 283.22 83.3747 283.404 83.4627 283.62C83.5587 283.836 83.6147 284.064 83.6307 284.304ZM84.6147 286.032H83.6067C83.5187 286.44 83.3347 286.744 83.0547 286.944C82.7827 287.144 82.4307 287.244 81.9987 287.244C81.6627 287.244 81.3707 287.188 81.1227 287.076C80.8747 286.964 80.6707 286.816 80.5107 286.632C80.3507 286.44 80.2347 286.224 80.1627 285.984C80.0907 285.736 80.0587 285.476 80.0667 285.204H84.7107C84.7267 284.828 84.6907 284.432 84.6027 284.016C84.5227 283.6 84.3707 283.216 84.1467 282.864C83.9307 282.512 83.6387 282.224 83.2707 282C82.9107 281.768 82.4547 281.652 81.9027 281.652C81.4787 281.652 81.0867 281.732 80.7267 281.892C80.3747 282.052 80.0667 282.276 79.8027 282.564C79.5467 282.852 79.3467 283.192 79.2027 283.584C79.0587 283.976 78.9867 284.408 78.9867 284.88C79.0027 285.352 79.0707 285.788 79.1907 286.188C79.3187 286.588 79.5067 286.932 79.7547 287.22C80.0027 287.508 80.3067 287.732 80.6667 287.892C81.0347 288.052 81.4667 288.132 81.9627 288.132C82.6667 288.132 83.2507 287.956 83.7147 287.604C84.1787 287.252 84.4787 286.728 84.6147 286.032ZM87.184 281.796V279.936H86.164V281.796H85.108V282.696H86.164V286.644C86.164 286.932 86.192 287.164 86.248 287.34C86.304 287.516 86.388 287.652 86.5 287.748C86.62 287.844 86.772 287.912 86.956 287.952C87.148 287.984 87.376 288 87.64 288H88.42V287.1H87.952C87.792 287.1 87.66 287.096 87.556 287.088C87.46 287.072 87.384 287.044 87.328 287.004C87.272 286.964 87.232 286.908 87.208 286.836C87.192 286.764 87.184 286.668 87.184 286.548V282.696H88.42V281.796H87.184ZM93.8612 284.304H90.2972C90.3132 284.064 90.3652 283.84 90.4532 283.632C90.5412 283.416 90.6612 283.228 90.8132 283.068C90.9652 282.908 91.1452 282.784 91.3532 282.696C91.5692 282.6 91.8092 282.552 92.0732 282.552C92.3292 282.552 92.5612 282.6 92.7692 282.696C92.9852 282.784 93.1692 282.908 93.3212 283.068C93.4812 283.22 93.6052 283.404 93.6932 283.62C93.7892 283.836 93.8452 284.064 93.8612 284.304ZM94.8452 286.032H93.8372C93.7492 286.44 93.5652 286.744 93.2852 286.944C93.0132 287.144 92.6612 287.244 92.2292 287.244C91.8932 287.244 91.6012 287.188 91.3532 287.076C91.1052 286.964 90.9012 286.816 90.7412 286.632C90.5812 286.44 90.4652 286.224 90.3932 285.984C90.3212 285.736 90.2892 285.476 90.2972 285.204H94.9412C94.9572 284.828 94.9212 284.432 94.8332 284.016C94.7532 283.6 94.6012 283.216 94.3772 282.864C94.1612 282.512 93.8692 282.224 93.5012 282C93.1412 281.768 92.6852 281.652 92.1332 281.652C91.7092 281.652 91.3172 281.732 90.9572 281.892C90.6052 282.052 90.2972 282.276 90.0332 282.564C89.7772 282.852 89.5772 283.192 89.4332 283.584C89.2892 283.976 89.2172 284.408 89.2172 284.88C89.2332 285.352 89.3012 285.788 89.4212 286.188C89.5492 286.588 89.7372 286.932 89.9852 287.22C90.2332 287.508 90.5372 287.732 90.8972 287.892C91.2652 288.052 91.6972 288.132 92.1932 288.132C92.8972 288.132 93.4812 287.956 93.9452 287.604C94.4092 287.252 94.7092 286.728 94.8452 286.032ZM100.754 281.796V279.936H99.7343V281.796H98.6783V282.696H99.7343V286.644C99.7343 286.932 99.7623 287.164 99.8183 287.34C99.8743 287.516 99.9583 287.652 100.07 287.748C100.19 287.844 100.342 287.912 100.526 287.952C100.718 287.984 100.946 288 101.21 288H101.99V287.1H101.522C101.362 287.1 101.23 287.096 101.126 287.088C101.03 287.072 100.954 287.044 100.898 287.004C100.842 286.964 100.802 286.908 100.778 286.836C100.762 286.764 100.754 286.668 100.754 286.548V282.696H101.99V281.796H100.754ZM103.087 281.796V288H104.107V285.24C104.107 284.84 104.147 284.488 104.227 284.184C104.307 283.872 104.435 283.608 104.611 283.392C104.787 283.176 105.019 283.012 105.307 282.9C105.595 282.788 105.943 282.732 106.351 282.732V281.652C105.799 281.636 105.343 281.748 104.983 281.988C104.623 282.228 104.319 282.6 104.071 283.104H104.047V281.796H103.087ZM111.217 284.304H107.653C107.669 284.064 107.721 283.84 107.809 283.632C107.897 283.416 108.017 283.228 108.169 283.068C108.321 282.908 108.501 282.784 108.709 282.696C108.925 282.6 109.165 282.552 109.429 282.552C109.685 282.552 109.917 282.6 110.125 282.696C110.341 282.784 110.525 282.908 110.677 283.068C110.837 283.22 110.961 283.404 111.049 283.62C111.145 283.836 111.201 284.064 111.217 284.304ZM112.201 286.032H111.193C111.105 286.44 110.921 286.744 110.641 286.944C110.369 287.144 110.017 287.244 109.585 287.244C109.249 287.244 108.957 287.188 108.709 287.076C108.461 286.964 108.257 286.816 108.097 286.632C107.937 286.44 107.821 286.224 107.749 285.984C107.677 285.736 107.645 285.476 107.653 285.204H112.297C112.313 284.828 112.277 284.432 112.189 284.016C112.109 283.6 111.957 283.216 111.733 282.864C111.517 282.512 111.225 282.224 110.857 282C110.497 281.768 110.041 281.652 109.489 281.652C109.065 281.652 108.673 281.732 108.313 281.892C107.961 282.052 107.653 282.276 107.389 282.564C107.133 282.852 106.933 283.192 106.789 283.584C106.645 283.976 106.573 284.408 106.573 284.88C106.589 285.352 106.657 285.788 106.777 286.188C106.905 286.588 107.093 286.932 107.341 287.22C107.589 287.508 107.893 287.732 108.253 287.892C108.621 288.052 109.053 288.132 109.549 288.132C110.253 288.132 110.837 287.956 111.301 287.604C111.765 287.252 112.065 286.728 112.201 286.032ZM117.662 284.304H114.098C114.114 284.064 114.166 283.84 114.254 283.632C114.342 283.416 114.462 283.228 114.614 283.068C114.766 282.908 114.946 282.784 115.154 282.696C115.37 282.6 115.61 282.552 115.874 282.552C116.13 282.552 116.362 282.6 116.57 282.696C116.786 282.784 116.97 282.908 117.122 283.068C117.282 283.22 117.406 283.404 117.494 283.62C117.59 283.836 117.646 284.064 117.662 284.304ZM118.646 286.032H117.638C117.55 286.44 117.366 286.744 117.086 286.944C116.814 287.144 116.462 287.244 116.03 287.244C115.694 287.244 115.402 287.188 115.154 287.076C114.906 286.964 114.702 286.816 114.542 286.632C114.382 286.44 114.266 286.224 114.194 285.984C114.122 285.736 114.09 285.476 114.098 285.204H118.742C118.758 284.828 118.722 284.432 118.634 284.016C118.554 283.6 118.402 283.216 118.178 282.864C117.962 282.512 117.67 282.224 117.302 282C116.942 281.768 116.486 281.652 115.934 281.652C115.51 281.652 115.118 281.732 114.758 281.892C114.406 282.052 114.098 282.276 113.834 282.564C113.578 282.852 113.378 283.192 113.234 283.584C113.09 283.976 113.018 284.408 113.018 284.88C113.034 285.352 113.102 285.788 113.222 286.188C113.35 286.588 113.538 286.932 113.786 287.22C114.034 287.508 114.338 287.732 114.698 287.892C115.066 288.052 115.498 288.132 115.994 288.132C116.698 288.132 117.282 287.956 117.746 287.604C118.21 287.252 118.51 286.728 118.646 286.032ZM123.175 279.432V288H124.195V287.172H124.219C124.331 287.356 124.467 287.512 124.627 287.64C124.795 287.76 124.971 287.856 125.155 287.928C125.339 288 125.523 288.052 125.707 288.084C125.899 288.116 126.071 288.132 126.223 288.132C126.695 288.132 127.107 288.048 127.459 287.88C127.819 287.712 128.115 287.484 128.347 287.196C128.587 286.9 128.763 286.556 128.875 286.164C128.995 285.772 129.055 285.356 129.055 284.916C129.055 284.476 128.995 284.06 128.875 283.668C128.755 283.276 128.575 282.932 128.335 282.636C128.103 282.332 127.807 282.092 127.447 281.916C127.095 281.74 126.679 281.652 126.199 281.652C125.767 281.652 125.371 281.732 125.011 281.892C124.651 282.044 124.387 282.292 124.219 282.636H124.195V279.432H123.175ZM127.975 284.844C127.975 285.148 127.943 285.444 127.879 285.732C127.815 286.02 127.711 286.276 127.567 286.5C127.423 286.724 127.231 286.904 126.991 287.04C126.759 287.176 126.467 287.244 126.115 287.244C125.763 287.244 125.463 287.18 125.215 287.052C124.967 286.916 124.763 286.74 124.603 286.524C124.451 286.308 124.339 286.06 124.267 285.78C124.195 285.492 124.159 285.196 124.159 284.892C124.159 284.604 124.191 284.32 124.255 284.04C124.327 283.76 124.439 283.512 124.591 283.296C124.743 283.072 124.939 282.892 125.179 282.756C125.419 282.62 125.711 282.552 126.055 282.552C126.383 282.552 126.667 282.616 126.907 282.744C127.155 282.872 127.355 283.044 127.507 283.26C127.667 283.476 127.783 283.724 127.855 284.004C127.935 284.276 127.975 284.556 127.975 284.844ZM135.388 288V281.796H134.368V285.3C134.368 285.58 134.328 285.84 134.248 286.08C134.176 286.312 134.064 286.516 133.912 286.692C133.76 286.868 133.568 287.004 133.336 287.1C133.112 287.196 132.844 287.244 132.532 287.244C132.14 287.244 131.832 287.132 131.608 286.908C131.384 286.684 131.272 286.38 131.272 285.996V281.796H130.252V285.876C130.252 286.212 130.284 286.52 130.348 286.8C130.42 287.072 130.54 287.308 130.708 287.508C130.876 287.708 131.096 287.864 131.368 287.976C131.64 288.08 131.98 288.132 132.388 288.132C132.844 288.132 133.24 288.044 133.576 287.868C133.912 287.684 134.188 287.4 134.404 287.016H134.428V288H135.388ZM138.336 281.796V279.936H137.316V281.796H136.26V282.696H137.316V286.644C137.316 286.932 137.344 287.164 137.4 287.34C137.456 287.516 137.54 287.652 137.652 287.748C137.772 287.844 137.924 287.912 138.108 287.952C138.3 287.984 138.528 288 138.792 288H139.572V287.1H139.104C138.944 287.1 138.812 287.096 138.708 287.088C138.612 287.072 138.536 287.044 138.48 287.004C138.424 286.964 138.384 286.908 138.36 286.836C138.344 286.764 138.336 286.668 138.336 286.548V282.696H139.572V281.796H138.336ZM144.045 281.796V288H145.065V284.496C145.065 284.216 145.101 283.96 145.173 283.728C145.253 283.488 145.369 283.28 145.521 283.104C145.673 282.928 145.861 282.792 146.085 282.696C146.317 282.6 146.589 282.552 146.901 282.552C147.293 282.552 147.601 282.664 147.825 282.888C148.049 283.112 148.161 283.416 148.161 283.8V288H149.181V283.92C149.181 283.584 149.145 283.28 149.073 283.008C149.009 282.728 148.893 282.488 148.725 282.288C148.557 282.088 148.337 281.932 148.065 281.82C147.793 281.708 147.453 281.652 147.045 281.652C146.125 281.652 145.453 282.028 145.029 282.78H145.005V281.796H144.045ZM151.457 284.904C151.457 284.528 151.505 284.196 151.601 283.908C151.705 283.612 151.845 283.364 152.021 283.164C152.197 282.964 152.401 282.812 152.633 282.708C152.873 282.604 153.125 282.552 153.389 282.552C153.653 282.552 153.901 282.604 154.133 282.708C154.373 282.812 154.581 282.964 154.757 283.164C154.933 283.364 155.069 283.612 155.165 283.908C155.269 284.196 155.321 284.528 155.321 284.904C155.321 285.28 155.269 285.616 155.165 285.912C155.069 286.2 154.933 286.444 154.757 286.644C154.581 286.836 154.373 286.984 154.133 287.088C153.901 287.192 153.653 287.244 153.389 287.244C153.125 287.244 152.873 287.192 152.633 287.088C152.401 286.984 152.197 286.836 152.021 286.644C151.845 286.444 151.705 286.2 151.601 285.912C151.505 285.616 151.457 285.28 151.457 284.904ZM150.377 284.904C150.377 285.36 150.441 285.784 150.569 286.176C150.697 286.568 150.889 286.912 151.145 287.208C151.401 287.496 151.717 287.724 152.093 287.892C152.469 288.052 152.901 288.132 153.389 288.132C153.885 288.132 154.317 288.052 154.685 287.892C155.061 287.724 155.377 287.496 155.633 287.208C155.889 286.912 156.081 286.568 156.209 286.176C156.337 285.784 156.401 285.36 156.401 284.904C156.401 284.448 156.337 284.024 156.209 283.632C156.081 283.232 155.889 282.888 155.633 282.6C155.377 282.304 155.061 282.072 154.685 281.904C154.317 281.736 153.885 281.652 153.389 281.652C152.901 281.652 152.469 281.736 152.093 281.904C151.717 282.072 151.401 282.304 151.145 282.6C150.889 282.888 150.697 283.232 150.569 283.632C150.441 284.024 150.377 284.448 150.377 284.904ZM159.02 281.796V279.936H158V281.796H156.944V282.696H158V286.644C158 286.932 158.028 287.164 158.084 287.34C158.14 287.516 158.224 287.652 158.336 287.748C158.456 287.844 158.608 287.912 158.792 287.952C158.984 287.984 159.212 288 159.476 288H160.256V287.1H159.788C159.628 287.1 159.496 287.096 159.392 287.088C159.296 287.072 159.22 287.044 159.164 287.004C159.108 286.964 159.068 286.908 159.044 286.836C159.028 286.764 159.02 286.668 159.02 286.548V282.696H160.256V281.796H159.02ZM164.729 281.796V288H165.749V284.136C165.749 284.016 165.777 283.868 165.833 283.692C165.897 283.508 165.993 283.332 166.121 283.164C166.257 282.996 166.429 282.852 166.637 282.732C166.853 282.612 167.109 282.552 167.405 282.552C167.637 282.552 167.825 282.588 167.969 282.66C168.121 282.724 168.241 282.82 168.329 282.948C168.417 283.068 168.477 283.212 168.509 283.38C168.549 283.548 168.569 283.732 168.569 283.932V288H169.589V284.136C169.589 283.656 169.733 283.272 170.021 282.984C170.309 282.696 170.705 282.552 171.209 282.552C171.457 282.552 171.657 282.588 171.809 282.66C171.969 282.732 172.093 282.832 172.181 282.96C172.269 283.08 172.329 283.224 172.361 283.392C172.393 283.56 172.409 283.74 172.409 283.932V288H173.429V283.452C173.429 283.132 173.377 282.86 173.273 282.636C173.177 282.404 173.037 282.216 172.853 282.072C172.677 281.928 172.461 281.824 172.205 281.76C171.957 281.688 171.677 281.652 171.365 281.652C170.957 281.652 170.581 281.744 170.237 281.928C169.901 282.112 169.629 282.372 169.421 282.708C169.293 282.324 169.073 282.052 168.761 281.892C168.449 281.732 168.101 281.652 167.717 281.652C166.845 281.652 166.177 282.004 165.713 282.708H165.689V281.796H164.729ZM180.455 287.976C180.279 288.08 180.035 288.132 179.723 288.132C179.459 288.132 179.247 288.06 179.087 287.916C178.935 287.764 178.859 287.52 178.859 287.184C178.579 287.52 178.251 287.764 177.875 287.916C177.507 288.06 177.107 288.132 176.675 288.132C176.395 288.132 176.127 288.1 175.871 288.036C175.623 287.972 175.407 287.872 175.223 287.736C175.039 287.6 174.891 287.424 174.779 287.208C174.675 286.984 174.623 286.716 174.623 286.404C174.623 286.052 174.683 285.764 174.803 285.54C174.923 285.316 175.079 285.136 175.271 285C175.471 284.856 175.695 284.748 175.943 284.676C176.199 284.604 176.459 284.544 176.723 284.496C177.003 284.44 177.267 284.4 177.515 284.376C177.771 284.344 177.995 284.304 178.187 284.256C178.379 284.2 178.531 284.124 178.643 284.028C178.755 283.924 178.811 283.776 178.811 283.584C178.811 283.36 178.767 283.18 178.679 283.044C178.599 282.908 178.491 282.804 178.355 282.732C178.227 282.66 178.079 282.612 177.911 282.588C177.751 282.564 177.591 282.552 177.431 282.552C176.999 282.552 176.639 282.636 176.351 282.804C176.063 282.964 175.907 283.272 175.883 283.728H174.863C174.879 283.344 174.959 283.02 175.103 282.756C175.247 282.492 175.439 282.28 175.679 282.12C175.919 281.952 176.191 281.832 176.495 281.76C176.807 281.688 177.139 281.652 177.491 281.652C177.771 281.652 178.047 281.672 178.319 281.712C178.599 281.752 178.851 281.836 179.075 281.964C179.299 282.084 179.479 282.256 179.615 282.48C179.751 282.704 179.819 282.996 179.819 283.356V286.548C179.819 286.788 179.831 286.964 179.855 287.076C179.887 287.188 179.983 287.244 180.143 287.244C180.231 287.244 180.335 287.224 180.455 287.184V287.976ZM178.799 284.796C178.671 284.892 178.503 284.964 178.295 285.012C178.087 285.052 177.867 285.088 177.635 285.12C177.411 285.144 177.183 285.176 176.951 285.216C176.719 285.248 176.511 285.304 176.327 285.384C176.143 285.464 175.991 285.58 175.871 285.732C175.759 285.876 175.703 286.076 175.703 286.332C175.703 286.5 175.735 286.644 175.799 286.764C175.871 286.876 175.959 286.968 176.063 287.04C176.175 287.112 176.303 287.164 176.447 287.196C176.591 287.228 176.743 287.244 176.903 287.244C177.239 287.244 177.527 287.2 177.767 287.112C178.007 287.016 178.203 286.9 178.355 286.764C178.507 286.62 178.619 286.468 178.691 286.308C178.763 286.14 178.799 285.984 178.799 285.84V284.796ZM183.073 284.736L180.745 288H181.981L183.709 285.432L185.437 288H186.745L184.345 284.652L186.481 281.796H185.257L183.709 283.968L182.221 281.796H180.913L183.073 284.736ZM187.448 284.184V285.144H190.916V284.184H187.448ZM192.28 279.432V288H193.3V284.496C193.3 284.216 193.336 283.96 193.408 283.728C193.488 283.488 193.604 283.28 193.756 283.104C193.908 282.928 194.096 282.792 194.32 282.696C194.552 282.6 194.824 282.552 195.136 282.552C195.528 282.552 195.836 282.664 196.06 282.888C196.284 283.112 196.396 283.416 196.396 283.8V288H197.416V283.92C197.416 283.584 197.38 283.28 197.308 283.008C197.244 282.728 197.128 282.488 196.96 282.288C196.792 282.088 196.572 281.932 196.3 281.82C196.028 281.708 195.688 281.652 195.28 281.652C195.096 281.652 194.904 281.672 194.704 281.712C194.512 281.752 194.324 281.816 194.14 281.904C193.964 281.984 193.804 282.092 193.66 282.228C193.516 282.356 193.404 282.516 193.324 282.708H193.3V279.432H192.28ZM203.256 284.304H199.692C199.708 284.064 199.76 283.84 199.848 283.632C199.936 283.416 200.056 283.228 200.208 283.068C200.36 282.908 200.54 282.784 200.748 282.696C200.964 282.6 201.204 282.552 201.468 282.552C201.724 282.552 201.956 282.6 202.164 282.696C202.38 282.784 202.564 282.908 202.716 283.068C202.876 283.22 203 283.404 203.088 283.62C203.184 283.836 203.24 284.064 203.256 284.304ZM204.24 286.032H203.232C203.144 286.44 202.96 286.744 202.68 286.944C202.408 287.144 202.056 287.244 201.624 287.244C201.288 287.244 200.996 287.188 200.748 287.076C200.5 286.964 200.296 286.816 200.136 286.632C199.976 286.44 199.86 286.224 199.788 285.984C199.716 285.736 199.684 285.476 199.692 285.204H204.336C204.352 284.828 204.316 284.432 204.228 284.016C204.148 283.6 203.996 283.216 203.772 282.864C203.556 282.512 203.264 282.224 202.896 282C202.536 281.768 202.08 281.652 201.528 281.652C201.104 281.652 200.712 281.732 200.352 281.892C200 282.052 199.692 282.276 199.428 282.564C199.172 282.852 198.972 283.192 198.828 283.584C198.684 283.976 198.612 284.408 198.612 284.88C198.628 285.352 198.696 285.788 198.816 286.188C198.944 286.588 199.132 286.932 199.38 287.22C199.628 287.508 199.932 287.732 200.292 287.892C200.66 288.052 201.092 288.132 201.588 288.132C202.292 288.132 202.876 287.956 203.34 287.604C203.804 287.252 204.104 286.728 204.24 286.032ZM210.889 287.976C210.713 288.08 210.469 288.132 210.157 288.132C209.893 288.132 209.681 288.06 209.521 287.916C209.369 287.764 209.293 287.52 209.293 287.184C209.013 287.52 208.685 287.764 208.309 287.916C207.941 288.06 207.541 288.132 207.109 288.132C206.829 288.132 206.561 288.1 206.305 288.036C206.057 287.972 205.841 287.872 205.657 287.736C205.473 287.6 205.325 287.424 205.213 287.208C205.109 286.984 205.057 286.716 205.057 286.404C205.057 286.052 205.117 285.764 205.237 285.54C205.357 285.316 205.513 285.136 205.705 285C205.905 284.856 206.129 284.748 206.377 284.676C206.633 284.604 206.893 284.544 207.157 284.496C207.437 284.44 207.701 284.4 207.949 284.376C208.205 284.344 208.429 284.304 208.621 284.256C208.813 284.2 208.965 284.124 209.077 284.028C209.189 283.924 209.245 283.776 209.245 283.584C209.245 283.36 209.201 283.18 209.113 283.044C209.033 282.908 208.925 282.804 208.789 282.732C208.661 282.66 208.513 282.612 208.345 282.588C208.185 282.564 208.025 282.552 207.865 282.552C207.433 282.552 207.073 282.636 206.785 282.804C206.497 282.964 206.341 283.272 206.317 283.728H205.297C205.313 283.344 205.393 283.02 205.537 282.756C205.681 282.492 205.873 282.28 206.113 282.12C206.353 281.952 206.625 281.832 206.929 281.76C207.241 281.688 207.573 281.652 207.925 281.652C208.205 281.652 208.481 281.672 208.753 281.712C209.033 281.752 209.285 281.836 209.509 281.964C209.733 282.084 209.913 282.256 210.049 282.48C210.185 282.704 210.253 282.996 210.253 283.356V286.548C210.253 286.788 210.265 286.964 210.289 287.076C210.321 287.188 210.417 287.244 210.577 287.244C210.665 287.244 210.769 287.224 210.889 287.184V287.976ZM209.233 284.796C209.105 284.892 208.937 284.964 208.729 285.012C208.521 285.052 208.301 285.088 208.069 285.12C207.845 285.144 207.617 285.176 207.385 285.216C207.153 285.248 206.945 285.304 206.761 285.384C206.577 285.464 206.425 285.58 206.305 285.732C206.193 285.876 206.137 286.076 206.137 286.332C206.137 286.5 206.169 286.644 206.233 286.764C206.305 286.876 206.393 286.968 206.497 287.04C206.609 287.112 206.737 287.164 206.881 287.196C207.025 287.228 207.177 287.244 207.337 287.244C207.673 287.244 207.961 287.2 208.201 287.112C208.441 287.016 208.637 286.9 208.789 286.764C208.941 286.62 209.053 286.468 209.125 286.308C209.197 286.14 209.233 285.984 209.233 285.84V284.796ZM211.874 281.796V290.364H212.894V287.172H212.918C213.03 287.356 213.166 287.512 213.326 287.64C213.494 287.76 213.67 287.856 213.854 287.928C214.038 288 214.222 288.052 214.406 288.084C214.598 288.116 214.77 288.132 214.922 288.132C215.394 288.132 215.806 288.048 216.158 287.88C216.518 287.712 216.814 287.484 217.046 287.196C217.286 286.9 217.462 286.556 217.574 286.164C217.694 285.772 217.754 285.356 217.754 284.916C217.754 284.476 217.694 284.06 217.574 283.668C217.454 283.276 217.274 282.932 217.034 282.636C216.802 282.332 216.506 282.092 216.146 281.916C215.794 281.74 215.378 281.652 214.898 281.652C214.466 281.652 214.07 281.732 213.71 281.892C213.35 282.044 213.086 282.292 212.918 282.636H212.894V281.796H211.874ZM216.674 284.844C216.674 285.148 216.642 285.444 216.578 285.732C216.514 286.02 216.41 286.276 216.266 286.5C216.122 286.724 215.93 286.904 215.69 287.04C215.458 287.176 215.166 287.244 214.814 287.244C214.462 287.244 214.162 287.18 213.914 287.052C213.666 286.916 213.462 286.74 213.302 286.524C213.15 286.308 213.038 286.06 212.966 285.78C212.894 285.492 212.858 285.196 212.858 284.892C212.858 284.604 212.89 284.32 212.954 284.04C213.026 283.76 213.138 283.512 213.29 283.296C213.442 283.072 213.638 282.892 213.878 282.756C214.118 282.62 214.41 282.552 214.754 282.552C215.082 282.552 215.366 282.616 215.606 282.744C215.854 282.872 216.054 283.044 216.206 283.26C216.366 283.476 216.482 283.724 216.554 284.004C216.634 284.276 216.674 284.556 216.674 284.844ZM222.915 286.044H221.895C221.911 286.428 221.991 286.756 222.135 287.028C222.279 287.292 222.471 287.508 222.711 287.676C222.951 287.836 223.227 287.952 223.539 288.024C223.851 288.096 224.179 288.132 224.523 288.132C224.835 288.132 225.147 288.1 225.459 288.036C225.779 287.98 226.063 287.876 226.311 287.724C226.567 287.572 226.771 287.372 226.923 287.124C227.083 286.876 227.163 286.564 227.163 286.188C227.163 285.892 227.103 285.644 226.983 285.444C226.871 285.244 226.719 285.08 226.527 284.952C226.343 284.816 226.127 284.708 225.879 284.628C225.639 284.548 225.391 284.48 225.135 284.424C224.895 284.368 224.655 284.316 224.415 284.268C224.175 284.212 223.959 284.148 223.767 284.076C223.575 283.996 223.415 283.9 223.287 283.788C223.167 283.668 223.107 283.52 223.107 283.344C223.107 283.184 223.147 283.056 223.227 282.96C223.307 282.856 223.411 282.776 223.539 282.72C223.667 282.656 223.807 282.612 223.959 282.588C224.119 282.564 224.275 282.552 224.427 282.552C224.595 282.552 224.759 282.572 224.919 282.612C225.087 282.644 225.239 282.7 225.375 282.78C225.511 282.86 225.623 282.968 225.711 283.104C225.799 283.232 225.851 283.396 225.867 283.596H226.887C226.863 283.22 226.783 282.908 226.647 282.66C226.511 282.404 226.327 282.204 226.095 282.06C225.871 281.908 225.611 281.804 225.315 281.748C225.019 281.684 224.695 281.652 224.343 281.652C224.071 281.652 223.795 281.688 223.515 281.76C223.243 281.824 222.995 281.928 222.771 282.072C222.555 282.208 222.375 282.388 222.231 282.612C222.095 282.836 222.027 283.104 222.027 283.416C222.027 283.816 222.127 284.128 222.327 284.352C222.527 284.576 222.775 284.752 223.071 284.88C223.375 285 223.703 285.096 224.055 285.168C224.407 285.232 224.731 285.308 225.027 285.396C225.331 285.476 225.583 285.584 225.783 285.72C225.983 285.856 226.083 286.056 226.083 286.32C226.083 286.512 226.035 286.672 225.939 286.8C225.843 286.92 225.719 287.012 225.567 287.076C225.423 287.14 225.263 287.184 225.087 287.208C224.911 287.232 224.743 287.244 224.583 287.244C224.375 287.244 224.171 287.224 223.971 287.184C223.779 287.144 223.603 287.08 223.443 286.992C223.291 286.896 223.167 286.772 223.071 286.62C222.975 286.46 222.923 286.268 222.915 286.044ZM229.371 280.68V279.432H228.351V280.68H229.371ZM228.351 281.796V288H229.371V281.796H228.351ZM230.952 281.796V288H231.972V284.496C231.972 284.216 232.008 283.96 232.08 283.728C232.16 283.488 232.276 283.28 232.428 283.104C232.58 282.928 232.768 282.792 232.992 282.696C233.224 282.6 233.496 282.552 233.808 282.552C234.2 282.552 234.508 282.664 234.732 282.888C234.956 283.112 235.068 283.416 235.068 283.8V288H236.088V283.92C236.088 283.584 236.052 283.28 235.98 283.008C235.916 282.728 235.8 282.488 235.632 282.288C235.464 282.088 235.244 281.932 234.972 281.82C234.7 281.708 234.36 281.652 233.952 281.652C233.032 281.652 232.36 282.028 231.936 282.78H231.912V281.796H230.952ZM241.832 283.788H242.888C242.848 283.42 242.752 283.104 242.6 282.84C242.448 282.568 242.252 282.344 242.012 282.168C241.78 281.992 241.508 281.864 241.196 281.784C240.892 281.696 240.564 281.652 240.212 281.652C239.724 281.652 239.296 281.74 238.928 281.916C238.56 282.084 238.252 282.32 238.004 282.624C237.764 282.92 237.584 283.272 237.464 283.68C237.344 284.08 237.284 284.512 237.284 284.976C237.284 285.44 237.344 285.868 237.464 286.26C237.592 286.644 237.776 286.976 238.016 287.256C238.264 287.536 238.568 287.752 238.928 287.904C239.296 288.056 239.716 288.132 240.188 288.132C240.98 288.132 241.604 287.924 242.06 287.508C242.524 287.092 242.812 286.5 242.924 285.732H241.88C241.816 286.212 241.64 286.584 241.352 286.848C241.072 287.112 240.68 287.244 240.176 287.244C239.856 287.244 239.58 287.18 239.348 287.052C239.116 286.924 238.928 286.756 238.784 286.548C238.64 286.332 238.532 286.088 238.46 285.816C238.396 285.544 238.364 285.264 238.364 284.976C238.364 284.664 238.396 284.364 238.46 284.076C238.524 283.78 238.628 283.52 238.772 283.296C238.924 283.072 239.124 282.892 239.372 282.756C239.62 282.62 239.928 282.552 240.296 282.552C240.728 282.552 241.072 282.66 241.328 282.876C241.584 283.092 241.752 283.396 241.832 283.788ZM248.373 284.304H244.809C244.825 284.064 244.877 283.84 244.965 283.632C245.053 283.416 245.173 283.228 245.325 283.068C245.477 282.908 245.657 282.784 245.865 282.696C246.081 282.6 246.321 282.552 246.585 282.552C246.841 282.552 247.073 282.6 247.281 282.696C247.497 282.784 247.681 282.908 247.833 283.068C247.993 283.22 248.117 283.404 248.205 283.62C248.301 283.836 248.357 284.064 248.373 284.304ZM249.357 286.032H248.349C248.261 286.44 248.077 286.744 247.797 286.944C247.525 287.144 247.173 287.244 246.741 287.244C246.405 287.244 246.113 287.188 245.865 287.076C245.617 286.964 245.413 286.816 245.253 286.632C245.093 286.44 244.977 286.224 244.905 285.984C244.833 285.736 244.801 285.476 244.809 285.204H249.453C249.469 284.828 249.433 284.432 249.345 284.016C249.265 283.6 249.113 283.216 248.889 282.864C248.673 282.512 248.381 282.224 248.013 282C247.653 281.768 247.197 281.652 246.645 281.652C246.221 281.652 245.829 281.732 245.469 281.892C245.117 282.052 244.809 282.276 244.545 282.564C244.289 282.852 244.089 283.192 243.945 283.584C243.801 283.976 243.729 284.408 243.729 284.88C243.745 285.352 243.813 285.788 243.933 286.188C244.061 286.588 244.249 286.932 244.497 287.22C244.745 287.508 245.049 287.732 245.409 287.892C245.777 288.052 246.209 288.132 246.705 288.132C247.409 288.132 247.993 287.956 248.457 287.604C248.921 287.252 249.221 286.728 249.357 286.032ZM258.062 283.788H259.118C259.078 283.42 258.982 283.104 258.83 282.84C258.678 282.568 258.482 282.344 258.242 282.168C258.01 281.992 257.738 281.864 257.426 281.784C257.122 281.696 256.794 281.652 256.442 281.652C255.954 281.652 255.526 281.74 255.158 281.916C254.79 282.084 254.482 282.32 254.234 282.624C253.994 282.92 253.814 283.272 253.694 283.68C253.574 284.08 253.514 284.512 253.514 284.976C253.514 285.44 253.574 285.868 253.694 286.26C253.822 286.644 254.006 286.976 254.246 287.256C254.494 287.536 254.798 287.752 255.158 287.904C255.526 288.056 255.946 288.132 256.418 288.132C257.21 288.132 257.834 287.924 258.29 287.508C258.754 287.092 259.042 286.5 259.154 285.732H258.11C258.046 286.212 257.87 286.584 257.582 286.848C257.302 287.112 256.91 287.244 256.406 287.244C256.086 287.244 255.81 287.18 255.578 287.052C255.346 286.924 255.158 286.756 255.014 286.548C254.87 286.332 254.762 286.088 254.69 285.816C254.626 285.544 254.594 285.264 254.594 284.976C254.594 284.664 254.626 284.364 254.69 284.076C254.754 283.78 254.858 283.52 255.002 283.296C255.154 283.072 255.354 282.892 255.602 282.756C255.85 282.62 256.158 282.552 256.526 282.552C256.958 282.552 257.302 282.66 257.558 282.876C257.814 283.092 257.982 283.396 258.062 283.788ZM260.295 279.432V288H261.315V284.496C261.315 284.216 261.351 283.96 261.423 283.728C261.503 283.488 261.619 283.28 261.771 283.104C261.923 282.928 262.111 282.792 262.335 282.696C262.567 282.6 262.839 282.552 263.151 282.552C263.543 282.552 263.851 282.664 264.075 282.888C264.299 283.112 264.411 283.416 264.411 283.8V288H265.431V283.92C265.431 283.584 265.395 283.28 265.323 283.008C265.259 282.728 265.143 282.488 264.975 282.288C264.807 282.088 264.587 281.932 264.315 281.82C264.043 281.708 263.703 281.652 263.295 281.652C263.111 281.652 262.919 281.672 262.719 281.712C262.527 281.752 262.339 281.816 262.155 281.904C261.979 281.984 261.819 282.092 261.675 282.228C261.531 282.356 261.419 282.516 261.339 282.708H261.315V279.432H260.295ZM268.043 280.68V279.432H267.023V280.68H268.043ZM267.023 281.796V288H268.043V281.796H267.023ZM269.683 279.432V288H270.703V279.432H269.683ZM273.028 284.952C273.028 284.648 273.06 284.352 273.124 284.064C273.188 283.776 273.292 283.52 273.436 283.296C273.58 283.072 273.772 282.892 274.012 282.756C274.252 282.62 274.544 282.552 274.888 282.552C275.24 282.552 275.54 282.62 275.788 282.756C276.036 282.884 276.236 283.056 276.388 283.272C276.548 283.488 276.664 283.74 276.736 284.028C276.808 284.308 276.844 284.6 276.844 284.904C276.844 285.192 276.808 285.476 276.736 285.756C276.672 286.036 276.564 286.288 276.412 286.512C276.26 286.728 276.064 286.904 275.824 287.04C275.584 287.176 275.292 287.244 274.948 287.244C274.62 287.244 274.332 287.18 274.084 287.052C273.844 286.924 273.644 286.752 273.484 286.536C273.332 286.32 273.216 286.076 273.136 285.804C273.064 285.524 273.028 285.24 273.028 284.952ZM277.828 288V279.432H276.808V282.624H276.784C276.672 282.44 276.532 282.288 276.364 282.168C276.204 282.04 276.032 281.94 275.848 281.868C275.664 281.788 275.48 281.732 275.296 281.7C275.112 281.668 274.94 281.652 274.78 281.652C274.308 281.652 273.892 281.74 273.532 281.916C273.18 282.084 272.884 282.316 272.644 282.612C272.412 282.9 272.236 283.24 272.116 283.632C272.004 284.024 271.948 284.44 271.948 284.88C271.948 285.32 272.008 285.736 272.128 286.128C272.248 286.52 272.424 286.864 272.656 287.16C272.896 287.456 273.192 287.692 273.544 287.868C273.904 288.044 274.324 288.132 274.804 288.132C275.236 288.132 275.632 288.056 275.992 287.904C276.352 287.752 276.616 287.504 276.784 287.16H276.808V288H277.828ZM286.241 288V279.492H285.461C285.405 279.812 285.301 280.076 285.149 280.284C284.997 280.492 284.809 280.656 284.585 280.776C284.369 280.896 284.125 280.98 283.853 281.028C283.581 281.068 283.301 281.088 283.013 281.088V281.904H285.221V288H286.241ZM292.909 288V279.492H292.129C292.073 279.812 291.969 280.076 291.817 280.284C291.665 280.492 291.477 280.656 291.253 280.776C291.037 280.896 290.793 280.98 290.521 281.028C290.249 281.068 289.969 281.088 289.681 281.088V281.904H291.889V288H292.909ZM299.197 287.28V288.084L305.293 285.336V284.592L299.197 281.832V282.648L304.297 284.964L299.197 287.28ZM309.984 281.796V290.364H311.004V287.172H311.028C311.14 287.356 311.276 287.512 311.436 287.64C311.604 287.76 311.78 287.856 311.964 287.928C312.148 288 312.332 288.052 312.516 288.084C312.708 288.116 312.88 288.132 313.032 288.132C313.504 288.132 313.916 288.048 314.268 287.88C314.628 287.712 314.924 287.484 315.156 287.196C315.396 286.9 315.572 286.556 315.684 286.164C315.804 285.772 315.864 285.356 315.864 284.916C315.864 284.476 315.804 284.06 315.684 283.668C315.564 283.276 315.384 282.932 315.144 282.636C314.912 282.332 314.616 282.092 314.256 281.916C313.904 281.74 313.488 281.652 313.008 281.652C312.576 281.652 312.18 281.732 311.82 281.892C311.46 282.044 311.196 282.292 311.028 282.636H311.004V281.796H309.984ZM314.784 284.844C314.784 285.148 314.752 285.444 314.688 285.732C314.624 286.02 314.52 286.276 314.376 286.5C314.232 286.724 314.04 286.904 313.8 287.04C313.568 287.176 313.276 287.244 312.924 287.244C312.572 287.244 312.272 287.18 312.024 287.052C311.776 286.916 311.572 286.74 311.412 286.524C311.26 286.308 311.148 286.06 311.076 285.78C311.004 285.492 310.968 285.196 310.968 284.892C310.968 284.604 311 284.32 311.064 284.04C311.136 283.76 311.248 283.512 311.4 283.296C311.552 283.072 311.748 282.892 311.988 282.756C312.228 282.62 312.52 282.552 312.864 282.552C313.192 282.552 313.476 282.616 313.716 282.744C313.964 282.872 314.164 283.044 314.316 283.26C314.476 283.476 314.592 283.724 314.664 284.004C314.744 284.276 314.784 284.556 314.784 284.844ZM322.557 287.976C322.381 288.08 322.137 288.132 321.825 288.132C321.561 288.132 321.349 288.06 321.189 287.916C321.037 287.764 320.961 287.52 320.961 287.184C320.681 287.52 320.353 287.764 319.977 287.916C319.609 288.06 319.209 288.132 318.777 288.132C318.497 288.132 318.229 288.1 317.973 288.036C317.725 287.972 317.509 287.872 317.325 287.736C317.141 287.6 316.993 287.424 316.881 287.208C316.777 286.984 316.725 286.716 316.725 286.404C316.725 286.052 316.785 285.764 316.905 285.54C317.025 285.316 317.181 285.136 317.373 285C317.573 284.856 317.797 284.748 318.045 284.676C318.301 284.604 318.561 284.544 318.825 284.496C319.105 284.44 319.369 284.4 319.617 284.376C319.873 284.344 320.097 284.304 320.289 284.256C320.481 284.2 320.633 284.124 320.745 284.028C320.857 283.924 320.913 283.776 320.913 283.584C320.913 283.36 320.869 283.18 320.781 283.044C320.701 282.908 320.593 282.804 320.457 282.732C320.329 282.66 320.181 282.612 320.013 282.588C319.853 282.564 319.693 282.552 319.533 282.552C319.101 282.552 318.741 282.636 318.453 282.804C318.165 282.964 318.009 283.272 317.985 283.728H316.965C316.981 283.344 317.061 283.02 317.205 282.756C317.349 282.492 317.541 282.28 317.781 282.12C318.021 281.952 318.293 281.832 318.597 281.76C318.909 281.688 319.241 281.652 319.593 281.652C319.873 281.652 320.149 281.672 320.421 281.712C320.701 281.752 320.953 281.836 321.177 281.964C321.401 282.084 321.581 282.256 321.717 282.48C321.853 282.704 321.921 282.996 321.921 283.356V286.548C321.921 286.788 321.933 286.964 321.957 287.076C321.989 287.188 322.085 287.244 322.245 287.244C322.333 287.244 322.437 287.224 322.557 287.184V287.976ZM320.901 284.796C320.773 284.892 320.605 284.964 320.397 285.012C320.189 285.052 319.969 285.088 319.737 285.12C319.513 285.144 319.285 285.176 319.053 285.216C318.821 285.248 318.613 285.304 318.429 285.384C318.245 285.464 318.093 285.58 317.973 285.732C317.861 285.876 317.805 286.076 317.805 286.332C317.805 286.5 317.837 286.644 317.901 286.764C317.973 286.876 318.061 286.968 318.165 287.04C318.277 287.112 318.405 287.164 318.549 287.196C318.693 287.228 318.845 287.244 319.005 287.244C319.341 287.244 319.629 287.2 319.869 287.112C320.109 287.016 320.305 286.9 320.457 286.764C320.609 286.62 320.721 286.468 320.793 286.308C320.865 286.14 320.901 285.984 320.901 285.84V284.796ZM323.47 281.796V288H324.49V285.24C324.49 284.84 324.53 284.488 324.61 284.184C324.69 283.872 324.818 283.608 324.994 283.392C325.17 283.176 325.402 283.012 325.69 282.9C325.978 282.788 326.326 282.732 326.734 282.732V281.652C326.182 281.636 325.726 281.748 325.366 281.988C325.006 282.228 324.702 282.6 324.454 283.104H324.43V281.796H323.47ZM331.599 284.304H328.035C328.051 284.064 328.103 283.84 328.191 283.632C328.279 283.416 328.399 283.228 328.551 283.068C328.703 282.908 328.883 282.784 329.091 282.696C329.307 282.6 329.547 282.552 329.811 282.552C330.067 282.552 330.299 282.6 330.507 282.696C330.723 282.784 330.907 282.908 331.059 283.068C331.219 283.22 331.343 283.404 331.431 283.62C331.527 283.836 331.583 284.064 331.599 284.304ZM332.583 286.032H331.575C331.487 286.44 331.303 286.744 331.023 286.944C330.751 287.144 330.399 287.244 329.967 287.244C329.631 287.244 329.339 287.188 329.091 287.076C328.843 286.964 328.639 286.816 328.479 286.632C328.319 286.44 328.203 286.224 328.131 285.984C328.059 285.736 328.027 285.476 328.035 285.204H332.679C332.695 284.828 332.659 284.432 332.571 284.016C332.491 283.6 332.339 283.216 332.115 282.864C331.899 282.512 331.607 282.224 331.239 282C330.879 281.768 330.423 281.652 329.871 281.652C329.447 281.652 329.055 281.732 328.695 281.892C328.343 282.052 328.035 282.276 327.771 282.564C327.515 282.852 327.315 283.192 327.171 283.584C327.027 283.976 326.955 284.408 326.955 284.88C326.971 285.352 327.039 285.788 327.159 286.188C327.287 286.588 327.475 286.932 327.723 287.22C327.971 287.508 328.275 287.732 328.635 287.892C329.003 288.052 329.435 288.132 329.931 288.132C330.635 288.132 331.219 287.956 331.683 287.604C332.147 287.252 332.447 286.728 332.583 286.032ZM333.737 281.796V288H334.757V284.496C334.757 284.216 334.793 283.96 334.865 283.728C334.945 283.488 335.061 283.28 335.213 283.104C335.365 282.928 335.553 282.792 335.777 282.696C336.009 282.6 336.281 282.552 336.593 282.552C336.985 282.552 337.293 282.664 337.517 282.888C337.741 283.112 337.853 283.416 337.853 283.8V288H338.873V283.92C338.873 283.584 338.837 283.28 338.765 283.008C338.701 282.728 338.585 282.488 338.417 282.288C338.249 282.088 338.029 281.932 337.757 281.82C337.485 281.708 337.145 281.652 336.737 281.652C335.817 281.652 335.145 282.028 334.721 282.78H334.697V281.796H333.737ZM341.821 281.796V279.936H340.801V281.796H339.745V282.696H340.801V286.644C340.801 286.932 340.829 287.164 340.885 287.34C340.941 287.516 341.025 287.652 341.137 287.748C341.257 287.844 341.409 287.912 341.593 287.952C341.785 287.984 342.013 288 342.277 288H343.057V287.1H342.589C342.429 287.1 342.297 287.096 342.193 287.088C342.097 287.072 342.021 287.044 341.965 287.004C341.909 286.964 341.869 286.908 341.845 286.836C341.829 286.764 341.821 286.668 341.821 286.548V282.696H343.057V281.796H341.821ZM349.378 283.14V284.004C349.57 283.98 349.774 283.968 349.99 283.968C350.246 283.968 350.482 284.004 350.698 284.076C350.922 284.14 351.114 284.244 351.274 284.388C351.434 284.524 351.562 284.696 351.658 284.904C351.754 285.104 351.802 285.336 351.802 285.6C351.802 285.856 351.75 286.088 351.646 286.296C351.55 286.496 351.418 286.668 351.25 286.812C351.082 286.948 350.886 287.056 350.662 287.136C350.438 287.208 350.202 287.244 349.954 287.244C349.37 287.244 348.926 287.072 348.622 286.728C348.318 286.376 348.158 285.924 348.142 285.372H347.122C347.114 285.812 347.174 286.204 347.302 286.548C347.438 286.892 347.63 287.184 347.878 287.424C348.126 287.656 348.426 287.832 348.778 287.952C349.13 288.072 349.522 288.132 349.954 288.132C350.354 288.132 350.73 288.08 351.082 287.976C351.442 287.864 351.754 287.7 352.018 287.484C352.282 287.268 352.49 287 352.642 286.68C352.802 286.352 352.882 285.976 352.882 285.552C352.882 285.04 352.754 284.596 352.498 284.22C352.25 283.844 351.866 283.6 351.346 283.488V283.464C351.682 283.312 351.962 283.088 352.186 282.792C352.41 282.496 352.522 282.156 352.522 281.772C352.522 281.38 352.454 281.04 352.318 280.752C352.19 280.464 352.01 280.228 351.778 280.044C351.546 279.86 351.27 279.724 350.95 279.636C350.638 279.54 350.298 279.492 349.93 279.492C349.506 279.492 349.13 279.56 348.802 279.696C348.482 279.832 348.214 280.02 347.998 280.26C347.782 280.5 347.614 280.788 347.494 281.124C347.382 281.46 347.318 281.832 347.302 282.24H348.322C348.322 281.992 348.354 281.756 348.418 281.532C348.482 281.308 348.578 281.112 348.706 280.944C348.842 280.776 349.01 280.644 349.21 280.548C349.418 280.444 349.658 280.392 349.93 280.392C350.362 280.392 350.722 280.508 351.01 280.74C351.298 280.964 351.442 281.304 351.442 281.76C351.442 281.984 351.398 282.184 351.31 282.36C351.222 282.536 351.102 282.684 350.95 282.804C350.806 282.916 350.634 283.004 350.434 283.068C350.242 283.124 350.038 283.152 349.822 283.152H349.606C349.566 283.152 349.526 283.152 349.486 283.152C349.454 283.152 349.418 283.148 349.378 283.14Z" fill="black"/>
<path d="M372.382 0H344.438V27.973H372.382V0Z" fill="white"/>
<path d="M371.882 0.5H344.938V27.473H371.882V0.5Z" stroke="#979797"/>
<path d="M356.555 8.54825V10.7558C356.82 10.6448 357.074 10.5624 357.318 10.5087C357.561 10.4514 357.792 10.4228 358.011 10.4228C358.576 10.4228 359.049 10.6215 359.429 11.019C359.812 11.4164 360.003 11.9392 360.003 12.5873C360.003 13.3035 359.788 13.8835 359.359 14.3275C358.929 14.7716 358.392 14.9936 357.747 14.9936C357.321 14.9936 356.911 14.8987 356.517 14.7089C356.238 14.5764 355.984 14.4117 355.755 14.2148C355.619 14.0966 355.551 13.9981 355.551 13.9193C355.551 13.8549 355.572 13.8012 355.615 13.7582C355.658 13.7117 355.708 13.6884 355.766 13.6884C355.826 13.6884 355.891 13.7206 355.959 13.7851C356.5 14.2899 357.089 14.5424 357.726 14.5424C358.252 14.5424 358.687 14.3634 359.031 14.0053C359.375 13.6436 359.547 13.1638 359.547 12.5658C359.547 12.0574 359.398 11.6492 359.101 11.3412C358.804 11.0297 358.426 10.8739 357.968 10.8739C357.499 10.8739 357.03 10.9975 356.56 11.2445C356.446 11.3018 356.365 11.3305 356.319 11.3305C356.254 11.3305 356.202 11.309 356.163 11.266C356.124 11.2231 356.104 11.1622 356.104 11.0834V8.09171H359.251C359.359 8.09171 359.436 8.11319 359.482 8.15616C359.529 8.19913 359.552 8.25463 359.552 8.32266C359.552 8.38712 359.529 8.44083 359.482 8.4838C359.436 8.52676 359.359 8.54825 359.251 8.54825H356.555Z" fill="black"/>
<path d="M399.382 0H371.438V27.973H399.382V0Z" fill="white"/>
<path d="M398.882 0.5H371.938V27.473H398.882V0.5Z" stroke="#00E914"/>
<path d="M383.021 8.0004V14.3813H384.568C384.676 14.3813 384.753 14.4027 384.799 14.4457C384.846 14.4851 384.869 14.5388 384.869 14.6068C384.869 14.6713 384.846 14.725 384.799 14.768C384.753 14.8109 384.676 14.8324 384.568 14.8324H381.023C380.916 14.8324 380.839 14.8109 380.792 14.768C380.746 14.725 380.723 14.6713 380.723 14.6068C380.723 14.5388 380.746 14.4851 380.792 14.4457C380.839 14.4027 380.916 14.3813 381.023 14.3813H382.57V8.62344L381.099 9.08536C381.027 9.10684 380.975 9.11758 380.943 9.11758C380.889 9.11758 380.839 9.0961 380.792 9.05313C380.749 9.00658 380.728 8.95287 380.728 8.892C380.728 8.83829 380.746 8.78816 380.782 8.74161C380.81 8.71296 380.869 8.68253 380.959 8.6503L383.021 8.0004ZM389.628 8.0004V14.3813H391.175C391.282 14.3813 391.359 14.4027 391.406 14.4457C391.452 14.4851 391.475 14.5388 391.475 14.6068C391.475 14.6713 391.452 14.725 391.406 14.768C391.359 14.8109 391.282 14.8324 391.175 14.8324H387.63C387.522 14.8324 387.445 14.8109 387.399 14.768C387.352 14.725 387.329 14.6713 387.329 14.6068C387.329 14.5388 387.352 14.4851 387.399 14.4457C387.445 14.4027 387.522 14.3813 387.63 14.3813H389.177V8.62344L387.705 9.08536C387.633 9.10684 387.581 9.11758 387.549 9.11758C387.495 9.11758 387.445 9.0961 387.399 9.05313C387.356 9.00658 387.334 8.95287 387.334 8.892C387.334 8.83829 387.352 8.78816 387.388 8.74161C387.417 8.71296 387.476 8.68253 387.565 8.6503L389.628 8.0004Z" fill="black"/>
<path d="M345.556 0H317.612V27.973H345.556V0Z" fill="white"/>
<path d="M345.056 0.5H318.112V27.473H345.056V0.5Z" stroke="#979797"/>
<path d="M329.03 14.3813H332.495V14.204C332.495 14.0966 332.516 14.0196 332.559 13.9731C332.602 13.9265 332.658 13.9032 332.726 13.9032C332.79 13.9032 332.844 13.9265 332.887 13.9731C332.93 14.0196 332.951 14.0966 332.951 14.204V14.8324H328.59V14.1664C329.507 13.3428 330.398 12.505 331.265 11.6527C331.669 11.2553 331.947 10.9635 332.097 10.7773C332.248 10.5911 332.35 10.4281 332.403 10.2885C332.461 10.1453 332.489 10.002 332.489 9.8588C332.489 9.47208 332.334 9.13012 332.022 8.83292C331.711 8.53572 331.335 8.38712 330.894 8.38712C330.5 8.38712 330.151 8.49991 329.847 8.72549C329.542 8.95108 329.345 9.23038 329.256 9.56339C329.234 9.64932 329.208 9.70482 329.175 9.72989C329.132 9.7657 329.082 9.7836 329.025 9.7836C328.964 9.7836 328.912 9.76391 328.869 9.72452C328.83 9.68155 328.81 9.63142 328.81 9.57413C328.81 9.40225 328.903 9.1695 329.089 8.87589C329.279 8.58227 329.539 8.35131 329.868 8.18301C330.201 8.01472 330.541 7.93057 330.889 7.93057C331.451 7.93057 331.934 8.12572 332.339 8.51602C332.744 8.90632 332.946 9.34854 332.946 9.84268C332.946 10.0504 332.912 10.2419 332.844 10.4174C332.776 10.5893 332.659 10.779 332.495 10.9867C332.334 11.1908 332.042 11.5006 331.619 11.9159C330.559 12.9615 329.696 13.7725 329.03 14.349V14.3813Z" fill="black"/>
<path d="M318.729 0H290.785V27.973H318.729V0Z" fill="white"/>
<path d="M318.229 0.5H291.285V27.473H318.229V0.5Z" stroke="#979797"/>
<path d="M304.368 8.0004V14.3813H305.915C306.023 14.3813 306.1 14.4027 306.146 14.4457C306.193 14.4851 306.216 14.5388 306.216 14.6068C306.216 14.6713 306.193 14.725 306.146 14.768C306.1 14.8109 306.023 14.8324 305.915 14.8324H302.37C302.263 14.8324 302.186 14.8109 302.139 14.768C302.093 14.725 302.07 14.6713 302.07 14.6068C302.07 14.5388 302.093 14.4851 302.139 14.4457C302.186 14.4027 302.263 14.3813 302.37 14.3813H303.917V8.62344L302.446 9.08536C302.374 9.10684 302.322 9.11758 302.29 9.11758C302.236 9.11758 302.186 9.0961 302.139 9.05313C302.097 9.00658 302.075 8.95287 302.075 8.892C302.075 8.83829 302.093 8.78816 302.129 8.74161C302.157 8.71296 302.216 8.68253 302.306 8.6503L304.368 8.0004Z" fill="black"/>
<path d="M291.903 0H263.959V27.973H291.903V0Z" fill="white"/>
<path d="M291.403 0.5H264.459V27.473H291.403V0.5Z" stroke="#979797"/>
<path d="M279.483 8.75235V8.54825H276.25V8.94571C276.25 9.05313 276.228 9.13012 276.185 9.17667C276.146 9.22322 276.092 9.24649 276.024 9.24649C275.96 9.24649 275.906 9.22322 275.863 9.17667C275.82 9.13012 275.799 9.05313 275.799 8.94571V8.09171H279.94V8.81143L278.124 14.6122C278.096 14.7053 278.062 14.768 278.022 14.8002C277.983 14.8288 277.938 14.8432 277.888 14.8432C277.823 14.8432 277.77 14.8217 277.727 14.7787C277.684 14.7357 277.662 14.6856 277.662 14.6283C277.662 14.5925 277.673 14.5424 277.695 14.4779L279.483 8.75235Z" fill="black"/>
<path d="M265.076 0H237.132V27.973H265.076V0Z" fill="white"/>
<path d="M264.576 0.5H237.632V27.473H264.576V0.5Z" stroke="#979797"/>
<path d="M248.029 11.9804C248.309 11.5686 248.595 11.2642 248.889 11.0673C249.186 10.8704 249.515 10.7719 249.877 10.7719C250.357 10.7719 250.783 10.9724 251.155 11.3734C251.528 11.7709 251.714 12.2633 251.714 12.8505C251.714 13.3876 251.544 13.88 251.204 14.3275C250.864 14.7716 250.395 14.9936 249.797 14.9936C249.406 14.9936 249.041 14.8736 248.701 14.6337C248.364 14.3938 248.099 14.025 247.906 13.5273C247.666 12.9078 247.546 12.2221 247.546 11.4701C247.546 10.9044 247.659 10.378 247.884 9.89102C248.056 9.51505 248.285 9.18562 248.572 8.90274C248.858 8.61628 249.191 8.38353 249.571 8.2045C249.954 8.02188 250.368 7.93057 250.812 7.93057C251.112 7.93057 251.363 7.99144 251.564 8.11319C251.65 8.1669 251.693 8.23852 251.693 8.32803C251.693 8.39249 251.673 8.4462 251.633 8.48917C251.594 8.52855 251.544 8.54825 251.483 8.54825C251.437 8.54825 251.381 8.53034 251.317 8.49454C251.17 8.42292 250.987 8.38712 250.769 8.38712C250.07 8.38712 249.433 8.6879 248.857 9.28946C248.284 9.88744 247.997 10.6 247.997 11.4272C247.997 11.5453 248.008 11.7297 248.029 11.9804ZM248.132 12.727C248.268 13.3787 248.481 13.8441 248.771 14.1234C249.064 14.4027 249.41 14.5424 249.807 14.5424C250.208 14.5424 250.55 14.3866 250.833 14.0751C251.12 13.76 251.263 13.3518 251.263 12.8505C251.263 12.3814 251.12 11.9929 250.833 11.685C250.547 11.377 250.223 11.2231 249.861 11.2231C249.514 11.2231 249.179 11.3717 248.857 11.6689C248.642 11.8658 248.4 12.2185 248.132 12.727Z" fill="black"/>
<path d="M238.25 0H210.306V27.973H238.25V0Z" fill="white"/>
<path d="M237.75 0.5H210.806V27.473H237.75V0.5Z" stroke="#979797"/>
<path d="M224.593 11.164C225.008 11.3502 225.325 11.6062 225.543 11.932C225.762 12.2543 225.871 12.5909 225.871 12.9418C225.871 13.4825 225.651 13.9605 225.21 14.3759C224.774 14.7877 224.226 14.9936 223.567 14.9936C223.18 14.9936 222.779 14.9112 222.364 14.7465C221.948 14.5818 221.658 14.4135 221.494 14.2416C221.44 14.1843 221.413 14.1234 221.413 14.059C221.413 14.0017 221.433 13.9516 221.472 13.9086C221.515 13.8656 221.565 13.8441 221.623 13.8441C221.68 13.8441 221.744 13.871 221.816 13.9247C222.371 14.3365 222.958 14.5424 223.578 14.5424C224.1 14.5424 224.537 14.3795 224.888 14.0536C225.243 13.7242 225.42 13.359 225.42 12.9579C225.42 12.6894 225.332 12.4262 225.157 12.1684C224.985 11.9106 224.736 11.7082 224.41 11.5614C224.084 11.411 223.755 11.3358 223.422 11.3358C223.314 11.3358 223.237 11.3162 223.191 11.2768C223.144 11.2338 223.121 11.1783 223.121 11.1103C223.121 11.0458 223.143 10.9921 223.186 10.9491C223.232 10.9062 223.3 10.8847 223.39 10.8847L223.776 10.89C224.181 10.89 224.514 10.7665 224.775 10.5194C225.04 10.2724 225.173 9.98591 225.173 9.66006C225.173 9.32348 225.035 9.02628 224.759 8.76846C224.484 8.51065 224.124 8.38174 223.68 8.38174C223.368 8.38174 223.082 8.43546 222.82 8.54288C222.559 8.6503 222.349 8.79711 222.192 8.98331C222.135 9.05492 222.09 9.09968 222.058 9.11758C222.029 9.13191 221.995 9.13907 221.956 9.13907C221.895 9.13907 221.843 9.11937 221.8 9.07999C221.757 9.03702 221.735 8.98689 221.735 8.9296C221.735 8.78637 221.891 8.60554 222.203 8.38712C222.636 8.08275 223.128 7.93057 223.68 7.93057C224.249 7.93057 224.716 8.10245 225.082 8.4462C225.447 8.78637 225.629 9.19278 225.629 9.66544C225.629 9.96622 225.542 10.2509 225.366 10.5194C225.191 10.788 224.933 11.0028 224.593 11.164Z" fill="black"/>
<path d="M211.424 0H183.479V27.973H211.424V0Z" fill="white"/>
<path d="M210.924 0.5H183.979V27.473H210.924V0.5Z" stroke="#979797"/>
<path d="M197.68 12.9472H194.689V12.4262L197.197 8.09171H198.137V12.496H198.513C198.624 12.496 198.703 12.5175 198.749 12.5605C198.796 12.5998 198.819 12.6536 198.819 12.7216C198.819 12.786 198.796 12.8398 198.749 12.8827C198.703 12.9257 198.624 12.9472 198.513 12.9472H198.137V14.3813H198.513C198.624 14.3813 198.703 14.4027 198.749 14.4457C198.796 14.4851 198.819 14.5388 198.819 14.6068C198.819 14.6713 198.796 14.725 198.749 14.768C198.703 14.8109 198.624 14.8324 198.513 14.8324H196.837C196.726 14.8324 196.647 14.8109 196.601 14.768C196.554 14.725 196.531 14.6713 196.531 14.6068C196.531 14.5388 196.554 14.4851 196.601 14.4457C196.647 14.4027 196.726 14.3813 196.837 14.3813H197.68V12.9472ZM197.68 12.496V8.54825H197.444L195.161 12.496H197.68Z" fill="black"/>
<path d="M184.597 0H156.653V27.973H184.597V0Z" fill="white"/>
<path d="M184.097 0.5H157.153V27.473H184.097V0.5Z" stroke="#979797"/>
<path d="M170.94 11.3358C171.316 11.5185 171.599 11.7602 171.788 12.0609C171.982 12.3581 172.079 12.6786 172.079 13.0224C172.079 13.5559 171.878 14.0178 171.477 14.4081C171.076 14.7984 170.589 14.9936 170.016 14.9936C169.443 14.9936 168.956 14.7984 168.555 14.4081C168.154 14.0178 167.954 13.5559 167.954 13.0224C167.954 12.6822 168.048 12.3635 168.238 12.0663C168.432 11.7655 168.718 11.522 169.098 11.3358C168.768 11.1461 168.528 10.9491 168.378 10.745C168.17 10.455 168.066 10.1345 168.066 9.7836C168.066 9.28946 168.256 8.85798 168.636 8.48917C169.019 8.11677 169.479 7.93057 170.016 7.93057C170.557 7.93057 171.017 8.11677 171.396 8.48917C171.776 8.85798 171.966 9.28946 171.966 9.7836C171.966 10.1345 171.862 10.4532 171.654 10.7397C171.507 10.9473 171.269 11.1461 170.94 11.3358ZM171.504 9.79971C171.504 9.41299 171.359 9.08178 171.069 8.80606C170.782 8.52676 170.43 8.38712 170.011 8.38712C169.595 8.38712 169.243 8.52676 168.953 8.80606C168.666 9.08536 168.523 9.41478 168.523 9.79434C168.523 10.1453 168.664 10.4532 168.947 10.7182C169.234 10.9796 169.588 11.1103 170.011 11.1103C170.437 11.1103 170.791 10.9796 171.074 10.7182C171.361 10.4532 171.504 10.147 171.504 9.79971ZM171.627 13.0331C171.627 12.6357 171.473 12.2901 171.165 11.9965C170.858 11.7029 170.474 11.5561 170.016 11.5561C169.558 11.5561 169.175 11.7029 168.867 11.9965C168.559 12.2901 168.405 12.6339 168.405 13.0277C168.405 13.4359 168.559 13.7904 168.867 14.0912C169.178 14.392 169.561 14.5424 170.016 14.5424C170.471 14.5424 170.852 14.392 171.16 14.0912C171.472 13.7904 171.627 13.4377 171.627 13.0331Z" fill="black"/>
<path d="M157.771 0H129.826V27.973H157.771V0Z" fill="white"/>
<path d="M157.271 0.5H130.326V27.473H157.271V0.5Z" stroke="#979797"/>
<path d="M145.037 11.019C144.804 11.4307 144.527 11.7405 144.205 11.9482C143.886 12.1558 143.558 12.2597 143.222 12.2597C142.91 12.2597 142.608 12.1702 142.314 11.9911C142.024 11.8121 141.793 11.5507 141.621 11.2069C141.449 10.8596 141.363 10.4962 141.363 10.1166C141.363 9.56518 141.534 9.06387 141.874 8.6127C142.217 8.15795 142.676 7.93057 143.249 7.93057C143.657 7.93057 144.029 8.05769 144.366 8.31192C144.702 8.56615 144.964 8.93497 145.15 9.41837C145.39 10.0378 145.51 10.7576 145.51 11.5775C145.51 12.2149 145.408 12.7449 145.204 13.1674C145.068 13.4538 144.867 13.7314 144.602 13.9999C144.341 14.2685 144.045 14.4869 143.716 14.6552C143.265 14.8808 142.796 14.9936 142.309 14.9936C141.986 14.9936 141.723 14.9327 141.519 14.8109C141.426 14.7537 141.38 14.682 141.38 14.5961C141.38 14.5352 141.401 14.4851 141.444 14.4457C141.487 14.4027 141.539 14.3813 141.6 14.3813C141.643 14.3813 141.705 14.401 141.788 14.4403C141.927 14.5084 142.089 14.5424 142.271 14.5424C143.034 14.5424 143.689 14.2685 144.237 13.7206C144.785 13.1692 145.059 12.4799 145.059 11.6527C145.059 11.5023 145.052 11.2911 145.037 11.019ZM144.951 10.267C144.762 9.54011 144.525 9.04597 144.242 8.78458C143.963 8.5196 143.635 8.38712 143.259 8.38712C142.876 8.38712 142.54 8.54825 142.25 8.87051C141.96 9.19278 141.815 9.60635 141.815 10.1112C141.815 10.6018 141.96 11.0082 142.25 11.3305C142.54 11.6492 142.867 11.8085 143.233 11.8085C143.444 11.8085 143.652 11.7512 143.856 11.6366C144.063 11.522 144.258 11.3502 144.441 11.121C144.559 10.967 144.729 10.6824 144.951 10.267Z" fill="black"/>
<path d="M130.944 0H103V27.973H130.944V0Z" fill="white"/>
<path d="M130.444 0.5H103.5V27.473H130.444V0.5Z" stroke="#979797"/>
<path d="M113.583 8.0004V14.3813H115.13C115.238 14.3813 115.315 14.4027 115.361 14.4457C115.408 14.4851 115.431 14.5388 115.431 14.6068C115.431 14.6713 115.408 14.725 115.361 14.768C115.315 14.8109 115.238 14.8324 115.13 14.8324H111.585C111.478 14.8324 111.401 14.8109 111.354 14.768C111.308 14.725 111.285 14.6713 111.285 14.6068C111.285 14.5388 111.308 14.4851 111.354 14.4457C111.401 14.4027 111.478 14.3813 111.585 14.3813H113.132V8.62344L111.661 9.08536C111.589 9.10684 111.537 9.11758 111.505 9.11758C111.451 9.11758 111.401 9.0961 111.354 9.05313C111.311 9.00658 111.29 8.95287 111.29 8.892C111.29 8.83829 111.308 8.78816 111.344 8.74161C111.372 8.71296 111.431 8.68253 111.521 8.6503L113.583 8.0004ZM122.037 10.9062V12.0233C122.037 12.9937 121.807 13.7618 121.345 14.3275C120.983 14.7716 120.526 14.9936 119.975 14.9936C119.71 14.9936 119.459 14.9398 119.223 14.8324C118.99 14.7286 118.792 14.5818 118.627 14.392C118.523 14.2738 118.408 14.0841 118.283 13.8227C118.161 13.5613 118.074 13.3214 118.02 13.1029C117.938 12.795 117.896 12.4351 117.896 12.0233V10.9062C117.896 9.9322 118.127 9.16234 118.589 8.59659C118.951 8.15258 119.407 7.93057 119.959 7.93057C120.227 7.93057 120.478 7.98428 120.711 8.09171C120.944 8.19555 121.142 8.34236 121.307 8.53214C121.414 8.65388 121.529 8.84545 121.651 9.10684C121.772 9.36824 121.862 9.60635 121.919 9.8212C121.998 10.1291 122.037 10.4908 122.037 10.9062ZM121.586 10.9652C121.586 10.5391 121.525 10.1435 121.404 9.77823C121.286 9.40941 121.151 9.11579 121.001 8.89737C120.911 8.77204 120.795 8.66462 120.652 8.5751C120.448 8.44978 120.218 8.38712 119.964 8.38712C119.459 8.38712 119.064 8.64493 118.777 9.16055C118.491 9.67618 118.348 10.2777 118.348 10.9652V11.9589C118.348 12.385 118.407 12.7825 118.525 13.1513C118.647 13.5201 118.784 13.8137 118.938 14.0321C119.024 14.1539 119.139 14.2595 119.282 14.349C119.486 14.4779 119.717 14.5424 119.975 14.5424C120.476 14.5424 120.87 14.2846 121.157 13.769C121.443 13.2497 121.586 12.6464 121.586 11.9589V10.9652Z" fill="black"/>
<path d="M5.95898 16H4.89258V11.4336C4.89258 10.8001 4.79004 10.3421 4.58496 10.0596C4.38444 9.77246 4.06771 9.62891 3.63477 9.62891C2.98307 9.62891 2.28353 10.0345 1.53613 10.8457V16H0.469727V6.35449H1.53613V9.92285C2.30176 9.11165 3.1084 8.70605 3.95605 8.70605C5.29134 8.70605 5.95898 9.5127 5.95898 11.126V16ZM14.5791 12.4727H9.69141C9.69141 13.2793 9.92383 13.9447 10.3887 14.4688C10.8581 14.9928 11.4323 15.2549 12.1113 15.2549C12.7585 15.2549 13.4261 15.1387 14.1143 14.9062L14.2988 15.7607C13.6699 16.0433 12.9362 16.1846 12.0977 16.1846C11.0404 16.1846 10.1882 15.8451 9.54102 15.166C8.89388 14.487 8.57031 13.571 8.57031 12.418C8.57031 11.2878 8.8597 10.3877 9.43848 9.71777C10.0218 9.04329 10.7738 8.70605 11.6943 8.70605C12.5146 8.70605 13.2005 9.01823 13.752 9.64258C14.3034 10.2669 14.5791 11.0986 14.5791 12.1377V12.4727ZM13.417 11.6045C13.417 11.0485 13.2438 10.5814 12.8975 10.2031C12.5511 9.82031 12.1637 9.62891 11.7354 9.62891C11.1839 9.62891 10.7259 9.8112 10.3613 10.1758C10.0013 10.5404 9.80078 11.0166 9.75977 11.6045H13.417ZM22.9531 16H21.8936C21.807 15.7129 21.7637 15.3301 21.7637 14.8516C21.1576 15.7402 20.3327 16.1846 19.2891 16.1846C18.7604 16.1846 18.2933 15.9977 17.8877 15.624C17.4867 15.2458 17.2861 14.7604 17.2861 14.168C17.2861 13.8171 17.3568 13.5072 17.498 13.2383C17.6393 12.9694 17.8467 12.7438 18.1201 12.5615C18.3936 12.3747 18.7262 12.2288 19.1182 12.124C19.5101 12.0146 19.9749 11.9395 20.5127 11.8984L21.709 11.8027V11.4609C21.709 10.2396 21.1393 9.62891 20 9.62891C19.7311 9.62891 19.3893 9.68815 18.9746 9.80664C18.5645 9.92057 18.2113 10.0573 17.915 10.2168L17.6348 9.45117C18.6055 8.95443 19.5078 8.70605 20.3418 8.70605C21.9642 8.70605 22.7754 9.5651 22.7754 11.2832V14.3457C22.7754 14.9655 22.8346 15.5169 22.9531 16ZM21.709 13.8877V12.5957C20.7474 12.6823 20.0866 12.7643 19.7266 12.8418C19.3711 12.9147 19.0612 13.0537 18.7969 13.2588C18.5371 13.4639 18.4072 13.7419 18.4072 14.0928C18.4072 14.4118 18.5189 14.6693 18.7422 14.8652C18.9655 15.0612 19.2503 15.1592 19.5967 15.1592C19.9749 15.1592 20.3509 15.0475 20.7246 14.8242C21.0983 14.5964 21.4264 14.2842 21.709 13.8877ZM26.7607 9.7998C26.9977 9.47168 27.3167 9.20736 27.7178 9.00684C28.1234 8.80632 28.5495 8.70605 28.9961 8.70605C29.8164 8.70605 30.459 9.04557 30.9238 9.72461C31.3932 10.3991 31.6279 11.2786 31.6279 12.3633C31.6279 13.457 31.3818 14.3685 30.8896 15.0977C30.402 15.8223 29.7435 16.1846 28.9141 16.1846C28.472 16.1846 28.0573 16.0752 27.6699 15.8564C27.2871 15.6331 26.984 15.3392 26.7607 14.9746V18.8164H25.6943V8.87695H26.7607V9.7998ZM26.7607 10.8594V13.8193C26.9613 14.2204 27.2324 14.5553 27.5742 14.8242C27.916 15.0931 28.2692 15.2275 28.6338 15.2275C29.208 15.2275 29.6637 14.9587 30.001 14.4209C30.3428 13.8831 30.5137 13.2155 30.5137 12.418C30.5137 11.5977 30.3519 10.9277 30.0283 10.4082C29.7048 9.88867 29.2536 9.62891 28.6748 9.62891C27.9229 9.62891 27.2848 10.0391 26.7607 10.8594ZM41.0342 19.0488H32.6328V18.1533H41.0342V19.0488ZM47.4805 16H44.5684V7.27734H42.709V6.35449H45.6348V15.0771H47.4805V16ZM54.1113 6.18359C54.3118 6.18359 54.4827 6.25651 54.624 6.40234C54.7653 6.54362 54.8359 6.71452 54.8359 6.91504C54.8359 7.12467 54.7653 7.30013 54.624 7.44141C54.4873 7.58268 54.3164 7.65332 54.1113 7.65332C53.9245 7.65332 53.7581 7.5804 53.6123 7.43457C53.471 7.28418 53.4004 7.111 53.4004 6.91504C53.4004 6.71908 53.471 6.54818 53.6123 6.40234C53.7581 6.25651 53.9245 6.18359 54.1113 6.18359ZM54.6309 16H53.5645V9.7998H51.4658V8.87695H54.6309V16ZM64.0713 9.89551C63.4743 9.69954 62.9115 9.60156 62.3828 9.60156C61.804 9.60156 61.346 9.69954 61.0088 9.89551C60.6715 10.0869 60.5029 10.3444 60.5029 10.668C60.5029 10.873 60.5804 11.0531 60.7354 11.208C60.8903 11.3584 61.2002 11.4997 61.665 11.6318L62.6836 11.9258C63.153 12.0579 63.5358 12.2174 63.832 12.4043C64.1283 12.5866 64.3493 12.8099 64.4951 13.0742C64.6455 13.334 64.7207 13.637 64.7207 13.9834C64.7207 14.6624 64.4359 15.2002 63.8662 15.5967C63.2965 15.9886 62.5719 16.1846 61.6924 16.1846C60.8174 16.1846 60.0951 16.0524 59.5254 15.7881L59.7305 14.8652C60.3275 15.1478 60.9678 15.2891 61.6514 15.2891C62.2438 15.2891 62.7246 15.1797 63.0938 14.9609C63.4674 14.7376 63.6543 14.4437 63.6543 14.0791C63.6543 13.833 63.5609 13.6143 63.374 13.4229C63.1917 13.2269 62.7588 13.0241 62.0752 12.8145C61.5238 12.6458 61.1182 12.5205 60.8584 12.4385C60.5986 12.3519 60.3571 12.2266 60.1338 12.0625C59.9105 11.8984 59.7396 11.7025 59.6211 11.4746C59.5072 11.2467 59.4502 10.9915 59.4502 10.709C59.4502 10.0938 59.7191 9.60612 60.2568 9.24609C60.7946 8.88607 61.5078 8.70605 62.3965 8.70605C62.9707 8.70605 63.6087 8.80404 64.3105 9L64.0713 9.89551ZM73.293 15.6787C72.5775 16.0068 71.8734 16.1709 71.1807 16.1709C69.9092 16.1709 69.2734 15.4987 69.2734 14.1543V9.7998H67.9062V8.87695H69.2734V6.92871H70.3125V8.87695H72.7324V9.7998H70.3125V13.874C70.3125 14.307 70.4082 14.6442 70.5996 14.8857C70.791 15.1227 71.0508 15.2412 71.3789 15.2412C71.9622 15.2412 72.5387 15.1113 73.1084 14.8516L73.293 15.6787ZM90.5127 10.1348H84.0459V9.23926H90.5127V10.1348ZM90.5127 12.876H84.0459V11.9805H90.5127V12.876Z" fill="black"/>
<path d="M131.875 262.107C141.262 262.107 148.872 254.472 148.872 245.054C148.872 235.635 141.262 228 131.875 228C122.488 228 114.878 235.635 114.878 245.054C114.878 254.472 122.488 262.107 131.875 262.107Z" stroke="#00E914"/>
<path d="M130.581 247.203H126.596V246.435H128.202V240.549L126.687 241.306V240.425L128.325 239.582H129.083V246.435H130.581V247.203ZM137.188 247.203H133.202V246.435H134.808V240.549L133.294 241.306V240.425L134.932 239.582H135.689V246.435H137.188V247.203Z" fill="black"/>
<path d="M82.8751 262.107C92.2624 262.107 99.8723 254.472 99.8723 245.054C99.8723 235.635 92.2624 228 82.8751 228C73.4878 228 65.8779 235.635 65.8779 245.054C65.8779 254.472 73.4878 262.107 82.8751 262.107Z" stroke="black"/>
<path d="M84.8765 245.452H83.942V247.203H83.0611V245.452H79.7632V244.781L82.7549 239.625H83.942V244.684H84.8765V245.452ZM83.0611 244.684V240.495L80.6548 244.684H83.0611Z" fill="black"/>
<path d="M24.9972 262.107C34.3846 262.107 41.9945 254.472 41.9945 245.054C41.9945 235.635 34.3846 228 24.9972 228C15.6099 228 8 235.635 8 245.054C8 254.472 15.6099 262.107 24.9972 262.107Z" stroke="black"/>
<path d="M26.5045 247.203H22.3365V246.564C23.3929 245.386 24.0786 244.597 24.3937 244.195C24.7088 243.794 24.9648 243.374 25.1617 242.933C25.3587 242.493 25.4572 242.054 25.4572 241.617C25.4572 241.195 25.3282 240.862 25.0704 240.618C24.8162 240.375 24.4581 240.253 23.9962 240.253C23.6417 240.253 23.1655 240.362 22.5675 240.581L22.444 239.823C22.9847 239.594 23.5504 239.48 24.1412 239.48C24.818 239.48 25.3623 239.671 25.774 240.054C26.1894 240.434 26.3971 240.942 26.3971 241.58C26.3971 242.035 26.2897 242.486 26.0748 242.933C25.8636 243.381 25.5914 243.811 25.2584 244.222C24.9254 244.634 24.2773 245.372 23.3141 246.435H26.5045V247.203Z" fill="black"/>
<path d="M339.196 192.107C348.583 192.107 356.193 184.472 356.193 175.054C356.193 165.635 348.583 158 339.196 158C329.808 158 322.198 165.635 322.198 175.054C322.198 184.472 329.808 192.107 339.196 192.107Z" stroke="black"/>
<path d="M340.998 170.253L337.996 177.203H337.094L340.053 170.393H336.503V169.625H340.998V170.253Z" fill="black"/>
<path d="M249.425 192.107C258.812 192.107 266.422 184.472 266.422 175.054C266.422 165.635 258.812 158 249.425 158C240.037 158 232.427 165.635 232.427 175.054C232.427 184.472 240.037 192.107 249.425 192.107Z" stroke="black"/>
<path d="M247.607 173.256C248.08 172.872 248.594 172.681 249.149 172.681C249.79 172.681 250.323 172.887 250.749 173.299C251.179 173.707 251.394 174.235 251.394 174.883C251.394 175.596 251.204 176.185 250.825 176.65C250.445 177.116 249.938 177.348 249.305 177.348C248.495 177.348 247.854 176.978 247.382 176.236C246.909 175.492 246.673 174.582 246.673 173.508C246.673 172.362 246.918 171.404 247.409 170.634C247.903 169.865 248.578 169.48 249.433 169.48C250.024 169.48 250.535 169.567 250.964 169.743L250.825 170.527C250.327 170.344 249.872 170.253 249.46 170.253C248.877 170.253 248.422 170.532 248.096 171.091C247.77 171.65 247.607 172.371 247.607 173.256ZM247.634 174.013C247.634 174.661 247.786 175.25 248.091 175.78C248.395 176.31 248.778 176.575 249.24 176.575C249.63 176.575 249.931 176.432 250.142 176.145C250.354 175.859 250.459 175.463 250.459 174.958C250.459 174.493 250.343 174.126 250.11 173.857C249.877 173.589 249.55 173.454 249.127 173.454C248.579 173.454 248.082 173.64 247.634 174.013Z" fill="black"/>
<path d="M135.5 227.5L144.5 191.5" stroke="black" stroke-linecap="square"/>
<path d="M149.679 192.107C159.066 192.107 166.676 184.472 166.676 175.054C166.676 165.635 159.066 158 149.679 158C140.292 158 132.682 165.635 132.682 175.054C132.682 184.472 140.292 192.107 149.679 192.107Z" stroke="black"/>
<path d="M148.688 173.132C149.15 173.261 149.52 173.497 149.8 173.841C150.079 174.181 150.219 174.564 150.219 174.99C150.219 175.656 149.959 176.217 149.44 176.672C148.921 177.123 148.308 177.348 147.603 177.348C147.001 177.348 146.462 177.216 145.986 176.951L146.158 176.226C146.656 176.459 147.148 176.575 147.635 176.575C148.094 176.575 148.484 176.433 148.806 176.151C149.132 175.864 149.295 175.497 149.295 175.049C149.295 174.609 149.121 174.251 148.774 173.975C148.427 173.7 147.966 173.562 147.393 173.562H147.163V172.837H147.227C147.778 172.837 148.233 172.708 148.591 172.45C148.949 172.188 149.128 171.838 149.128 171.397C149.128 171.039 148.999 170.76 148.742 170.559C148.484 170.355 148.129 170.253 147.678 170.253C147.288 170.253 146.851 170.359 146.368 170.57L146.249 169.813C146.736 169.591 147.227 169.48 147.721 169.48C148.398 169.48 148.955 169.659 149.392 170.017C149.832 170.371 150.052 170.828 150.052 171.386C150.052 171.773 149.918 172.135 149.649 172.471C149.384 172.804 149.064 173.014 148.688 173.1V173.132Z" fill="black"/>
<path d="M49.3944 188.5L29.5 228.5" stroke="black" stroke-linecap="square"/>
<path d="M66.5 191.5L77.5 228.5" stroke="black" stroke-linecap="square"/>
<path d="M59.9082 192.107C69.2955 192.107 76.9054 184.472 76.9054 175.054C76.9054 165.635 69.2955 158 59.9082 158C50.5209 158 42.9109 165.635 42.9109 175.054C42.9109 184.472 50.5209 192.107 59.9082 192.107Z" stroke="black"/>
<path d="M58.4775 172.681C58.721 172.616 58.9591 172.584 59.1918 172.584C59.908 172.584 60.4737 172.804 60.8891 173.245C61.3045 173.682 61.5121 174.228 61.5121 174.883C61.5121 175.57 61.2704 176.154 60.787 176.634C60.3036 177.11 59.7146 177.348 59.02 177.348C58.3575 177.348 57.8025 177.237 57.3549 177.015L57.5322 176.269C58.0191 176.473 58.5222 176.575 59.0414 176.575C59.5034 176.575 59.8758 176.426 60.1586 176.129C60.4451 175.832 60.5883 175.417 60.5883 174.883C60.5883 174.378 60.454 173.99 60.1855 173.717C59.9169 173.445 59.5714 173.309 59.1489 173.309C58.8409 173.309 58.5366 173.368 58.2358 173.486L57.7094 173.245V169.625H61.1738V170.393H58.4775V172.681Z" fill="black"/>
<path d="M274.819 129.5L256.865 159.5" stroke="black" stroke-linecap="square"/>
<path d="M297.761 126.5L327.684 161.5" stroke="black" stroke-linecap="square"/>
<path d="M284.336 132.107C293.723 132.107 301.333 124.472 301.333 115.054C301.333 105.635 293.723 98 284.336 98C274.948 98 267.338 105.635 267.338 115.054C267.338 124.472 274.948 132.107 284.336 132.107Z" stroke="black"/>
<path d="M284.634 113.046C285.15 113.196 285.549 113.452 285.832 113.814C286.119 114.176 286.262 114.598 286.262 115.082C286.262 115.776 286.031 116.328 285.569 116.736C285.111 117.144 284.545 117.348 283.872 117.348C283.166 117.348 282.586 117.142 282.131 116.731C281.68 116.319 281.455 115.773 281.455 115.092C281.455 114.613 281.602 114.19 281.895 113.825C282.189 113.46 282.599 113.2 283.125 113.046C282.706 112.939 282.37 112.733 282.115 112.428C281.865 112.12 281.739 111.777 281.739 111.397C281.739 110.91 281.933 110.47 282.319 110.076C282.706 109.678 283.216 109.48 283.85 109.48C284.477 109.48 284.994 109.677 285.402 110.07C285.814 110.464 286.02 110.907 286.02 111.397C286.02 111.766 285.891 112.106 285.633 112.418C285.376 112.726 285.043 112.935 284.634 113.046ZM283.85 112.681C283.868 112.681 283.954 112.659 284.108 112.616C284.262 112.573 284.393 112.521 284.5 112.461C284.611 112.396 284.713 112.316 284.806 112.219C284.899 112.122 284.975 112.009 285.032 111.881C285.089 111.748 285.118 111.601 285.118 111.44C285.118 111.096 284.994 110.812 284.747 110.586C284.5 110.357 284.201 110.242 283.85 110.242C283.51 110.242 283.218 110.359 282.975 110.591C282.731 110.824 282.61 111.107 282.61 111.44C282.61 111.651 282.652 111.836 282.738 111.993C282.828 112.151 282.937 112.278 283.066 112.375C283.199 112.471 283.349 112.547 283.517 112.6C283.689 112.654 283.8 112.681 283.85 112.681ZM283.85 113.433C282.869 113.719 282.379 114.258 282.379 115.049C282.379 115.511 282.527 115.882 282.824 116.161C283.122 116.437 283.471 116.575 283.872 116.575C284.287 116.575 284.636 116.439 284.919 116.167C285.206 115.891 285.349 115.519 285.349 115.049C285.349 114.695 285.25 114.378 285.053 114.099C284.856 113.816 284.455 113.594 283.85 113.433Z" fill="black"/>
<path d="M102.26 127.5L70.5 161.5" stroke="black" stroke-linecap="square"/>
<path d="M125.201 128.5L142.158 159.5" stroke="black" stroke-linecap="square"/>
<path d="M114.768 132.107C124.156 132.107 131.765 124.472 131.765 115.054C131.765 105.635 124.156 98 114.768 98C105.381 98 97.771 105.635 97.771 115.054C97.771 124.472 105.381 132.107 114.768 132.107Z" stroke="black"/>
<path d="M115.749 113.562C115.312 113.945 114.798 114.136 114.208 114.136C113.567 114.136 113.031 113.932 112.602 113.524C112.176 113.112 111.963 112.582 111.963 111.934C111.963 111.24 112.167 110.656 112.575 110.183C112.987 109.707 113.517 109.469 114.165 109.469C114.956 109.469 115.574 109.831 116.018 110.554C116.462 111.277 116.684 112.196 116.684 113.309C116.684 114.423 116.422 115.374 115.9 116.161C115.38 116.945 114.684 117.338 113.81 117.338C113.223 117.338 112.714 117.248 112.285 117.069L112.424 116.29C112.919 116.473 113.373 116.564 113.789 116.564C114.383 116.564 114.858 116.276 115.212 115.699C115.57 115.123 115.749 114.41 115.749 113.562ZM115.728 112.804C115.728 112.124 115.59 111.528 115.314 111.016C115.038 110.5 114.677 110.242 114.229 110.242C113.825 110.242 113.5 110.393 113.257 110.694C113.017 110.991 112.897 111.379 112.897 111.859C112.897 112.299 113.019 112.661 113.262 112.944C113.509 113.223 113.832 113.363 114.229 113.363C114.777 113.363 115.253 113.195 115.658 112.858L115.728 112.804Z" fill="black"/>
<path d="M185.048 74.5L130.188 107.5" stroke="black" stroke-linecap="square"/>
<path d="M215.969 71.5L269.832 105.5" stroke="black" stroke-linecap="square"/>
<path d="M199.552 82.1071C208.939 82.1071 216.549 74.472 216.549 65.0536C216.549 55.6351 208.939 48 199.552 48C190.165 48 182.555 55.6351 182.555 65.0536C182.555 74.472 190.165 82.1071 199.552 82.1071Z" stroke="black"/>
<path d="M198.258 67.2033H194.273V66.4352H195.879V60.5485L194.364 61.3058V60.425L196.002 59.5817H196.759V66.4352H198.258V67.2033ZM202.684 59.4797C203.486 59.4797 204.102 59.8252 204.531 60.5163C204.965 61.2038 205.181 62.1706 205.181 63.4167C205.181 64.6234 204.972 65.5812 204.553 66.2902C204.134 66.9956 203.511 67.3483 202.684 67.3483C201.885 67.3483 201.269 67.0046 200.836 66.3171C200.403 65.6296 200.186 64.6628 200.186 63.4167C200.186 62.2064 200.396 61.2485 200.815 60.5431C201.237 59.8342 201.86 59.4797 202.684 59.4797ZM202.684 66.5749C203.214 66.5749 203.606 66.3242 203.86 65.8229C204.118 65.318 204.247 64.516 204.247 63.4167C204.247 62.3138 204.118 61.5135 203.86 61.0158C203.606 60.5145 203.214 60.2638 202.684 60.2638C202.161 60.2638 201.771 60.5199 201.513 61.0319C201.255 61.544 201.126 62.3389 201.126 63.4167C201.126 64.5088 201.253 65.3091 201.507 65.8176C201.765 66.3224 202.157 66.5749 202.684 66.5749ZM202.662 62.611C202.888 62.611 203.078 62.6898 203.232 62.8473C203.389 63.0013 203.468 63.1911 203.468 63.4167C203.468 63.6494 203.389 63.8499 203.232 64.0182C203.074 64.1829 202.884 64.2653 202.662 64.2653C202.444 64.2653 202.256 64.1829 202.098 64.0182C201.944 63.8499 201.867 63.6494 201.867 63.4167C201.867 63.1875 201.943 62.9959 202.093 62.842C202.247 62.688 202.437 62.611 202.662 62.611Z" fill="black"/>
</g>
<defs>
<clipPath id="clip0">
<rect width="400" height="292" fill="white"/>
</clipPath>
</defs>
</svg>
