<svg width="400" height="291" viewBox="0 0 400 291" fill="none" xmlns="http://www.w3.org/2000/svg">
<g clip-path="url(#clip0)">
<path d="M372.382 28H344.438V55.973H372.382V28Z" fill="white"/>
<path d="M371.882 28.5H344.938V55.473H371.882V28.5Z" stroke="#979797"/>
<path d="M356.555 36.5482V38.7558C356.82 38.6448 357.074 38.5624 357.318 38.5087C357.561 38.4514 357.792 38.4228 358.011 38.4228C358.576 38.4228 359.049 38.6215 359.429 39.019C359.812 39.4164 360.003 39.9392 360.003 40.5873C360.003 41.3035 359.788 41.8835 359.359 42.3275C358.929 42.7716 358.392 42.9936 357.747 42.9936C357.321 42.9936 356.911 42.8987 356.517 42.7089C356.238 42.5764 355.984 42.4117 355.755 42.2148C355.619 42.0966 355.551 41.9981 355.551 41.9193C355.551 41.8549 355.572 41.8012 355.615 41.7582C355.658 41.7117 355.708 41.6884 355.766 41.6884C355.826 41.6884 355.891 41.7206 355.959 41.7851C356.5 42.2899 357.089 42.5424 357.726 42.5424C358.252 42.5424 358.687 42.3634 359.031 42.0053C359.375 41.6436 359.547 41.1638 359.547 40.5658C359.547 40.0574 359.398 39.6492 359.101 39.3412C358.804 39.0297 358.426 38.8739 357.968 38.8739C357.499 38.8739 357.03 38.9975 356.56 39.2445C356.446 39.3018 356.365 39.3305 356.319 39.3305C356.254 39.3305 356.202 39.309 356.163 39.266C356.124 39.2231 356.104 39.1622 356.104 39.0834V36.0917H359.251C359.359 36.0917 359.436 36.1132 359.482 36.1562C359.529 36.1991 359.552 36.2546 359.552 36.3227C359.552 36.3871 359.529 36.4408 359.482 36.4838C359.436 36.5268 359.359 36.5482 359.251 36.5482H356.555Z" fill="black"/>
<path d="M399.382 28H371.438V55.973H399.382V28Z" fill="white"/>
<path d="M398.882 28.5H371.938V55.473H398.882V28.5Z" stroke="#CA00C4"/>
<path d="M385.725 39.164C386.14 39.3502 386.457 39.6062 386.676 39.932C386.894 40.2543 387.003 40.5909 387.003 40.9418C387.003 41.4825 386.783 41.9605 386.343 42.3759C385.906 42.7877 385.358 42.9936 384.699 42.9936C384.312 42.9936 383.911 42.9112 383.496 42.7465C383.081 42.5818 382.791 42.4135 382.626 42.2416C382.572 42.1843 382.545 42.1234 382.545 42.059C382.545 42.0017 382.565 41.9516 382.604 41.9086C382.647 41.8656 382.697 41.8441 382.755 41.8441C382.812 41.8441 382.877 41.871 382.948 41.9247C383.503 42.3365 384.09 42.5424 384.71 42.5424C385.233 42.5424 385.669 42.3795 386.02 42.0536C386.375 41.7242 386.552 41.359 386.552 40.9579C386.552 40.6894 386.464 40.4262 386.289 40.1684C386.117 39.9106 385.868 39.7082 385.542 39.5614C385.217 39.411 384.887 39.3358 384.554 39.3358C384.447 39.3358 384.37 39.3162 384.323 39.2768C384.277 39.2338 384.253 39.1783 384.253 39.1103C384.253 39.0458 384.275 38.9921 384.318 38.9491C384.364 38.9062 384.432 38.8847 384.522 38.8847L384.909 38.89C385.313 38.89 385.646 38.7665 385.908 38.5194C386.173 38.2724 386.305 37.9859 386.305 37.6601C386.305 37.3235 386.167 37.0263 385.891 36.7685C385.616 36.5107 385.256 36.3817 384.812 36.3817C384.5 36.3817 384.214 36.4355 383.953 36.5429C383.691 36.6503 383.482 36.7971 383.324 36.9833C383.267 37.0549 383.222 37.0997 383.19 37.1176C383.161 37.1319 383.127 37.1391 383.088 37.1391C383.027 37.1391 382.975 37.1194 382.932 37.08C382.889 37.037 382.868 36.9869 382.868 36.9296C382.868 36.7864 383.023 36.6055 383.335 36.3871C383.768 36.0828 384.26 35.9306 384.812 35.9306C385.381 35.9306 385.849 36.1024 386.214 36.4462C386.579 36.7864 386.762 37.1928 386.762 37.6654C386.762 37.9662 386.674 38.2509 386.498 38.5194C386.323 38.788 386.065 39.0028 385.725 39.164Z" fill="black"/>
<path d="M345.556 28H317.612V55.973H345.556V28Z" fill="white"/>
<path d="M345.056 28.5H318.112V55.473H345.056V28.5Z" stroke="#979797"/>
<path d="M329.03 42.3813H332.495V42.204C332.495 42.0966 332.516 42.0196 332.559 41.9731C332.602 41.9265 332.658 41.9032 332.726 41.9032C332.79 41.9032 332.844 41.9265 332.887 41.9731C332.93 42.0196 332.951 42.0966 332.951 42.204V42.8324H328.59V42.1664C329.507 41.3428 330.398 40.505 331.265 39.6527C331.669 39.2553 331.947 38.9635 332.097 38.7773C332.248 38.5911 332.35 38.4281 332.403 38.2885C332.461 38.1453 332.489 38.002 332.489 37.8588C332.489 37.4721 332.334 37.1301 332.022 36.8329C331.711 36.5357 331.335 36.3871 330.894 36.3871C330.5 36.3871 330.151 36.4999 329.847 36.7255C329.542 36.9511 329.345 37.2304 329.256 37.5634C329.234 37.6493 329.208 37.7048 329.175 37.7299C329.132 37.7657 329.082 37.7836 329.025 37.7836C328.964 37.7836 328.912 37.7639 328.869 37.7245C328.83 37.6815 328.81 37.6314 328.81 37.5741C328.81 37.4023 328.903 37.1695 329.089 36.8759C329.279 36.5823 329.539 36.3513 329.868 36.183C330.201 36.0147 330.541 35.9306 330.889 35.9306C331.451 35.9306 331.934 36.1257 332.339 36.516C332.744 36.9063 332.946 37.3485 332.946 37.8427C332.946 38.0504 332.912 38.2419 332.844 38.4174C332.776 38.5893 332.659 38.779 332.495 38.9867C332.334 39.1908 332.042 39.5006 331.619 39.9159C330.559 40.9615 329.696 41.7725 329.03 42.349V42.3813Z" fill="black"/>
<path d="M318.729 28H290.785V55.973H318.729V28Z" fill="white"/>
<path d="M318.229 28.5H291.285V55.473H318.229V28.5Z" stroke="#979797"/>
<path d="M304.368 36.0004V42.3813H305.915C306.023 42.3813 306.1 42.4027 306.146 42.4457C306.193 42.4851 306.216 42.5388 306.216 42.6068C306.216 42.6713 306.193 42.725 306.146 42.768C306.1 42.8109 306.023 42.8324 305.915 42.8324H302.37C302.263 42.8324 302.186 42.8109 302.139 42.768C302.093 42.725 302.07 42.6713 302.07 42.6068C302.07 42.5388 302.093 42.4851 302.139 42.4457C302.186 42.4027 302.263 42.3813 302.37 42.3813H303.917V36.6234L302.446 37.0854C302.374 37.1068 302.322 37.1176 302.29 37.1176C302.236 37.1176 302.186 37.0961 302.139 37.0531C302.097 37.0066 302.075 36.9529 302.075 36.892C302.075 36.8383 302.093 36.7882 302.129 36.7416C302.157 36.713 302.216 36.6825 302.306 36.6503L304.368 36.0004Z" fill="black"/>
<path d="M291.903 28H263.959V55.973H291.903V28Z" fill="white"/>
<path d="M291.403 28.5H264.459V55.473H291.403V28.5Z" stroke="#979797"/>
<path d="M279.483 36.7523V36.5482H276.25V36.9457C276.25 37.0531 276.228 37.1301 276.185 37.1767C276.146 37.2232 276.092 37.2465 276.024 37.2465C275.96 37.2465 275.906 37.2232 275.863 37.1767C275.82 37.1301 275.799 37.0531 275.799 36.9457V36.0917H279.94V36.8114L278.124 42.6122C278.096 42.7053 278.062 42.768 278.022 42.8002C277.983 42.8288 277.938 42.8432 277.888 42.8432C277.823 42.8432 277.77 42.8217 277.727 42.7787C277.684 42.7357 277.662 42.6856 277.662 42.6283C277.662 42.5925 277.673 42.5424 277.695 42.4779L279.483 36.7523Z" fill="black"/>
<path d="M265.076 28H237.132V55.973H265.076V28Z" fill="white"/>
<path d="M264.576 28.5H237.632V55.473H264.576V28.5Z" stroke="#979797"/>
<path d="M248.029 39.9804C248.309 39.5686 248.595 39.2642 248.889 39.0673C249.186 38.8704 249.515 38.7719 249.877 38.7719C250.357 38.7719 250.783 38.9724 251.155 39.3734C251.528 39.7709 251.714 40.2633 251.714 40.8505C251.714 41.3876 251.544 41.88 251.204 42.3275C250.864 42.7716 250.395 42.9936 249.797 42.9936C249.406 42.9936 249.041 42.8736 248.701 42.6337C248.364 42.3938 248.099 42.025 247.906 41.5273C247.666 40.9078 247.546 40.2221 247.546 39.4701C247.546 38.9044 247.659 38.378 247.884 37.891C248.056 37.515 248.285 37.1856 248.572 36.9027C248.858 36.6163 249.191 36.3835 249.571 36.2045C249.954 36.0219 250.368 35.9306 250.812 35.9306C251.112 35.9306 251.363 35.9914 251.564 36.1132C251.65 36.1669 251.693 36.2385 251.693 36.328C251.693 36.3925 251.673 36.4462 251.633 36.4892C251.594 36.5286 251.544 36.5482 251.483 36.5482C251.437 36.5482 251.381 36.5303 251.317 36.4945C251.17 36.4229 250.987 36.3871 250.769 36.3871C250.07 36.3871 249.433 36.6879 248.857 37.2895C248.284 37.8874 247.997 38.6 247.997 39.4272C247.997 39.5453 248.008 39.7297 248.029 39.9804ZM248.132 40.727C248.268 41.3787 248.481 41.8441 248.771 42.1234C249.064 42.4027 249.41 42.5424 249.807 42.5424C250.208 42.5424 250.55 42.3866 250.833 42.0751C251.12 41.76 251.263 41.3518 251.263 40.8505C251.263 40.3814 251.12 39.9929 250.833 39.685C250.547 39.377 250.223 39.2231 249.861 39.2231C249.514 39.2231 249.179 39.3717 248.857 39.6689C248.642 39.8658 248.4 40.2185 248.132 40.727Z" fill="black"/>
<path d="M211.424 28H183.479V55.973H211.424V28Z" fill="white"/>
<path d="M210.924 28.5H183.979V55.473H210.924V28.5Z" stroke="#979797"/>
<path d="M197.68 40.9472H194.689V40.4262L197.197 36.0917H198.137V40.496H198.513C198.624 40.496 198.703 40.5175 198.749 40.5605C198.796 40.5998 198.819 40.6536 198.819 40.7216C198.819 40.786 198.796 40.8398 198.749 40.8827C198.703 40.9257 198.624 40.9472 198.513 40.9472H198.137V42.3813H198.513C198.624 42.3813 198.703 42.4027 198.749 42.4457C198.796 42.4851 198.819 42.5388 198.819 42.6068C198.819 42.6713 198.796 42.725 198.749 42.768C198.703 42.8109 198.624 42.8324 198.513 42.8324H196.837C196.726 42.8324 196.647 42.8109 196.601 42.768C196.554 42.725 196.531 42.6713 196.531 42.6068C196.531 42.5388 196.554 42.4851 196.601 42.4457C196.647 42.4027 196.726 42.3813 196.837 42.3813H197.68V40.9472ZM197.68 40.496V36.5482H197.444L195.161 40.496H197.68Z" fill="black"/>
<path d="M184.597 28H156.653V55.973H184.597V28Z" fill="white"/>
<path d="M184.097 28.5H157.153V55.473H184.097V28.5Z" stroke="#979797"/>
<path d="M170.94 39.3358C171.316 39.5185 171.599 39.7602 171.788 40.0609C171.982 40.3581 172.079 40.6786 172.079 41.0224C172.079 41.5559 171.878 42.0178 171.477 42.4081C171.076 42.7984 170.589 42.9936 170.016 42.9936C169.443 42.9936 168.956 42.7984 168.555 42.4081C168.154 42.0178 167.954 41.5559 167.954 41.0224C167.954 40.6822 168.048 40.3635 168.238 40.0663C168.432 39.7655 168.718 39.522 169.098 39.3358C168.768 39.1461 168.528 38.9491 168.378 38.745C168.17 38.455 168.066 38.1345 168.066 37.7836C168.066 37.2895 168.256 36.858 168.636 36.4892C169.019 36.1168 169.479 35.9306 170.016 35.9306C170.557 35.9306 171.017 36.1168 171.396 36.4892C171.776 36.858 171.966 37.2895 171.966 37.7836C171.966 38.1345 171.862 38.4532 171.654 38.7397C171.507 38.9473 171.269 39.1461 170.94 39.3358ZM171.504 37.7997C171.504 37.413 171.359 37.0818 171.069 36.8061C170.782 36.5268 170.43 36.3871 170.011 36.3871C169.595 36.3871 169.243 36.5268 168.953 36.8061C168.666 37.0854 168.523 37.4148 168.523 37.7943C168.523 38.1453 168.664 38.4532 168.947 38.7182C169.234 38.9796 169.588 39.1103 170.011 39.1103C170.437 39.1103 170.791 38.9796 171.074 38.7182C171.361 38.4532 171.504 38.147 171.504 37.7997ZM171.627 41.0331C171.627 40.6357 171.473 40.2901 171.165 39.9965C170.858 39.7029 170.474 39.5561 170.016 39.5561C169.558 39.5561 169.175 39.7029 168.867 39.9965C168.559 40.2901 168.405 40.6339 168.405 41.0277C168.405 41.4359 168.559 41.7904 168.867 42.0912C169.178 42.392 169.561 42.5424 170.016 42.5424C170.471 42.5424 170.852 42.392 171.16 42.0912C171.472 41.7904 171.627 41.4377 171.627 41.0331Z" fill="black"/>
<path d="M157.771 28H129.826V55.973H157.771V28Z" fill="white"/>
<path d="M157.271 28.5H130.326V55.473H157.271V28.5Z" stroke="#979797"/>
<path d="M145.037 39.019C144.804 39.4307 144.527 39.7405 144.205 39.9482C143.886 40.1558 143.558 40.2597 143.222 40.2597C142.91 40.2597 142.608 40.1702 142.314 39.9911C142.024 39.8121 141.793 39.5507 141.621 39.2069C141.449 38.8596 141.363 38.4962 141.363 38.1166C141.363 37.5652 141.533 37.0639 141.874 36.6127C142.217 36.1579 142.676 35.9306 143.249 35.9306C143.657 35.9306 144.029 36.0577 144.366 36.3119C144.702 36.5662 144.964 36.935 145.15 37.4184C145.39 38.0378 145.51 38.7576 145.51 39.5775C145.51 40.2149 145.408 40.7449 145.204 41.1674C145.068 41.4538 144.867 41.7314 144.602 41.9999C144.341 42.2685 144.045 42.4869 143.716 42.6552C143.265 42.8808 142.796 42.9936 142.309 42.9936C141.986 42.9936 141.723 42.9327 141.519 42.8109C141.426 42.7537 141.38 42.682 141.38 42.5961C141.38 42.5352 141.401 42.4851 141.444 42.4457C141.487 42.4027 141.539 42.3813 141.6 42.3813C141.643 42.3813 141.705 42.401 141.788 42.4403C141.927 42.5084 142.089 42.5424 142.271 42.5424C143.034 42.5424 143.689 42.2685 144.237 41.7206C144.785 41.1692 145.059 40.4799 145.059 39.6527C145.059 39.5023 145.052 39.2911 145.037 39.019ZM144.951 38.267C144.762 37.5401 144.525 37.046 144.242 36.7846C143.963 36.5196 143.635 36.3871 143.259 36.3871C142.876 36.3871 142.54 36.5482 142.25 36.8705C141.96 37.1928 141.815 37.6064 141.815 38.1112C141.815 38.6018 141.96 39.0082 142.25 39.3305C142.54 39.6492 142.867 39.8085 143.233 39.8085C143.444 39.8085 143.652 39.7512 143.856 39.6366C144.063 39.522 144.258 39.3502 144.441 39.121C144.559 38.967 144.729 38.6824 144.951 38.267Z" fill="black"/>
<path d="M130.944 28H103V55.973H130.944V28Z" fill="white"/>
<path d="M130.444 28.5H103.5V55.473H130.444V28.5Z" stroke="#979797"/>
<path d="M113.583 36.0004V42.3813H115.13C115.238 42.3813 115.315 42.4027 115.361 42.4457C115.408 42.4851 115.431 42.5388 115.431 42.6068C115.431 42.6713 115.408 42.725 115.361 42.768C115.315 42.8109 115.238 42.8324 115.13 42.8324H111.585C111.478 42.8324 111.401 42.8109 111.354 42.768C111.308 42.725 111.285 42.6713 111.285 42.6068C111.285 42.5388 111.308 42.4851 111.354 42.4457C111.401 42.4027 111.478 42.3813 111.585 42.3813H113.132V36.6234L111.661 37.0854C111.589 37.1068 111.537 37.1176 111.505 37.1176C111.451 37.1176 111.401 37.0961 111.354 37.0531C111.311 37.0066 111.29 36.9529 111.29 36.892C111.29 36.8383 111.308 36.7882 111.344 36.7416C111.372 36.713 111.431 36.6825 111.521 36.6503L113.583 36.0004ZM122.037 38.9062V40.0233C122.037 40.9937 121.806 41.7618 121.345 42.3275C120.983 42.7716 120.526 42.9936 119.975 42.9936C119.71 42.9936 119.459 42.9398 119.223 42.8324C118.99 42.7286 118.792 42.5818 118.627 42.392C118.523 42.2738 118.408 42.0841 118.283 41.8227C118.161 41.5613 118.074 41.3214 118.02 41.1029C117.938 40.795 117.896 40.4351 117.896 40.0233V38.9062C117.896 37.9322 118.127 37.1623 118.589 36.5966C118.951 36.1526 119.407 35.9306 119.959 35.9306C120.227 35.9306 120.478 35.9843 120.711 36.0917C120.944 36.1955 121.142 36.3424 121.307 36.5321C121.414 36.6539 121.529 36.8454 121.651 37.1068C121.772 37.3682 121.862 37.6064 121.919 37.8212C121.998 38.1291 122.037 38.4908 122.037 38.9062ZM121.586 38.9652C121.586 38.5391 121.525 38.1435 121.404 37.7782C121.286 37.4094 121.151 37.1158 121.001 36.8974C120.911 36.772 120.795 36.6646 120.652 36.5751C120.448 36.4498 120.218 36.3871 119.964 36.3871C119.459 36.3871 119.064 36.6449 118.777 37.1606C118.491 37.6762 118.348 38.2777 118.348 38.9652V39.9589C118.348 40.385 118.407 40.7825 118.525 41.1513C118.647 41.5201 118.784 41.8137 118.938 42.0321C119.024 42.1539 119.139 42.2595 119.282 42.349C119.486 42.4779 119.717 42.5424 119.975 42.5424C120.476 42.5424 120.87 42.2846 121.157 41.769C121.443 41.2497 121.586 40.6464 121.586 39.9589V38.9652Z" fill="black"/>
<path d="M238.25 28H210.306V55.973H238.25V28Z" fill="white"/>
<path d="M237.75 28.5H210.806V55.473H237.75V28.5Z" stroke="#00E914"/>
<path d="M220.889 36.0004V42.3813H222.436C222.543 42.3813 222.62 42.4027 222.667 42.4457C222.714 42.4851 222.737 42.5388 222.737 42.6068C222.737 42.6713 222.714 42.725 222.667 42.768C222.62 42.8109 222.543 42.8324 222.436 42.8324H218.891C218.784 42.8324 218.707 42.8109 218.66 42.768C218.614 42.725 218.59 42.6713 218.59 42.6068C218.59 42.5388 218.614 42.4851 218.66 42.4457C218.707 42.4027 218.784 42.3813 218.891 42.3813H220.438V36.6234L218.966 37.0854C218.895 37.1068 218.843 37.1176 218.811 37.1176C218.757 37.1176 218.707 37.0961 218.66 37.0531C218.617 37.0066 218.596 36.9529 218.596 36.892C218.596 36.8383 218.614 36.7882 218.649 36.7416C218.678 36.713 218.737 36.6825 218.827 36.6503L220.889 36.0004ZM227.496 36.0004V42.3813H229.042C229.15 42.3813 229.227 42.4027 229.273 42.4457C229.32 42.4851 229.343 42.5388 229.343 42.6068C229.343 42.6713 229.32 42.725 229.273 42.768C229.227 42.8109 229.15 42.8324 229.042 42.8324H225.498C225.39 42.8324 225.313 42.8109 225.267 42.768C225.22 42.725 225.197 42.6713 225.197 42.6068C225.197 42.5388 225.22 42.4851 225.267 42.4457C225.313 42.4027 225.39 42.3813 225.498 42.3813H227.044V36.6234L225.573 37.0854C225.501 37.1068 225.449 37.1176 225.417 37.1176C225.363 37.1176 225.313 37.0961 225.267 37.0531C225.224 37.0066 225.202 36.9529 225.202 36.892C225.202 36.8383 225.22 36.7882 225.256 36.7416C225.284 36.713 225.344 36.6825 225.433 36.6503L227.496 36.0004Z" fill="black"/>
<path d="M5.95898 44H4.89258V39.4336C4.89258 38.8001 4.79004 38.3421 4.58496 38.0596C4.38444 37.7725 4.06771 37.6289 3.63477 37.6289C2.98307 37.6289 2.28353 38.0345 1.53613 38.8457V44H0.469727V34.3545H1.53613V37.9229C2.30176 37.1117 3.1084 36.7061 3.95605 36.7061C5.29134 36.7061 5.95898 37.5127 5.95898 39.126V44ZM14.5791 40.4727H9.69141C9.69141 41.2793 9.92383 41.9447 10.3887 42.4688C10.8581 42.9928 11.4323 43.2549 12.1113 43.2549C12.7585 43.2549 13.4261 43.1387 14.1143 42.9062L14.2988 43.7607C13.6699 44.0433 12.9362 44.1846 12.0977 44.1846C11.0404 44.1846 10.1882 43.8451 9.54102 43.166C8.89388 42.487 8.57031 41.571 8.57031 40.418C8.57031 39.2878 8.8597 38.3877 9.43848 37.7178C10.0218 37.0433 10.7738 36.7061 11.6943 36.7061C12.5146 36.7061 13.2005 37.0182 13.752 37.6426C14.3034 38.2669 14.5791 39.0986 14.5791 40.1377V40.4727ZM13.417 39.6045C13.417 39.0485 13.2438 38.5814 12.8975 38.2031C12.5511 37.8203 12.1637 37.6289 11.7354 37.6289C11.1839 37.6289 10.7259 37.8112 10.3613 38.1758C10.0013 38.5404 9.80078 39.0166 9.75977 39.6045H13.417ZM22.9531 44H21.8936C21.807 43.7129 21.7637 43.3301 21.7637 42.8516C21.1576 43.7402 20.3327 44.1846 19.2891 44.1846C18.7604 44.1846 18.2933 43.9977 17.8877 43.624C17.4867 43.2458 17.2861 42.7604 17.2861 42.168C17.2861 41.8171 17.3568 41.5072 17.498 41.2383C17.6393 40.9694 17.8467 40.7438 18.1201 40.5615C18.3936 40.3747 18.7262 40.2288 19.1182 40.124C19.5101 40.0146 19.9749 39.9395 20.5127 39.8984L21.709 39.8027V39.4609C21.709 38.2396 21.1393 37.6289 20 37.6289C19.7311 37.6289 19.3893 37.6882 18.9746 37.8066C18.5645 37.9206 18.2113 38.0573 17.915 38.2168L17.6348 37.4512C18.6055 36.9544 19.5078 36.7061 20.3418 36.7061C21.9642 36.7061 22.7754 37.5651 22.7754 39.2832V42.3457C22.7754 42.9655 22.8346 43.5169 22.9531 44ZM21.709 41.8877V40.5957C20.7474 40.6823 20.0866 40.7643 19.7266 40.8418C19.3711 40.9147 19.0612 41.0537 18.7969 41.2588C18.5371 41.4639 18.4072 41.7419 18.4072 42.0928C18.4072 42.4118 18.5189 42.6693 18.7422 42.8652C18.9655 43.0612 19.2503 43.1592 19.5967 43.1592C19.9749 43.1592 20.3509 43.0475 20.7246 42.8242C21.0983 42.5964 21.4264 42.2842 21.709 41.8877ZM26.7607 37.7998C26.9977 37.4717 27.3167 37.2074 27.7178 37.0068C28.1234 36.8063 28.5495 36.7061 28.9961 36.7061C29.8164 36.7061 30.459 37.0456 30.9238 37.7246C31.3932 38.3991 31.6279 39.2786 31.6279 40.3633C31.6279 41.457 31.3818 42.3685 30.8896 43.0977C30.402 43.8223 29.7435 44.1846 28.9141 44.1846C28.472 44.1846 28.0573 44.0752 27.6699 43.8564C27.2871 43.6331 26.984 43.3392 26.7607 42.9746V46.8164H25.6943V36.877H26.7607V37.7998ZM26.7607 38.8594V41.8193C26.9613 42.2204 27.2324 42.5553 27.5742 42.8242C27.916 43.0931 28.2692 43.2275 28.6338 43.2275C29.208 43.2275 29.6637 42.9587 30.001 42.4209C30.3428 41.8831 30.5137 41.2155 30.5137 40.418C30.5137 39.5977 30.3519 38.9277 30.0283 38.4082C29.7048 37.8887 29.2536 37.6289 28.6748 37.6289C27.9229 37.6289 27.2848 38.0391 26.7607 38.8594ZM41.0342 47.0488H32.6328V46.1533H41.0342V47.0488ZM47.4805 44H44.5684V35.2773H42.709V34.3545H45.6348V43.0771H47.4805V44ZM54.1113 34.1836C54.3118 34.1836 54.4827 34.2565 54.624 34.4023C54.7653 34.5436 54.8359 34.7145 54.8359 34.915C54.8359 35.1247 54.7653 35.3001 54.624 35.4414C54.4873 35.5827 54.3164 35.6533 54.1113 35.6533C53.9245 35.6533 53.7581 35.5804 53.6123 35.4346C53.471 35.2842 53.4004 35.111 53.4004 34.915C53.4004 34.7191 53.471 34.5482 53.6123 34.4023C53.7581 34.2565 53.9245 34.1836 54.1113 34.1836ZM54.6309 44H53.5645V37.7998H51.4658V36.877H54.6309V44ZM64.0713 37.8955C63.4743 37.6995 62.9115 37.6016 62.3828 37.6016C61.804 37.6016 61.346 37.6995 61.0088 37.8955C60.6715 38.0869 60.5029 38.3444 60.5029 38.668C60.5029 38.873 60.5804 39.0531 60.7354 39.208C60.8903 39.3584 61.2002 39.4997 61.665 39.6318L62.6836 39.9258C63.153 40.0579 63.5358 40.2174 63.832 40.4043C64.1283 40.5866 64.3493 40.8099 64.4951 41.0742C64.6455 41.334 64.7207 41.637 64.7207 41.9834C64.7207 42.6624 64.4359 43.2002 63.8662 43.5967C63.2965 43.9886 62.5719 44.1846 61.6924 44.1846C60.8174 44.1846 60.0951 44.0524 59.5254 43.7881L59.7305 42.8652C60.3275 43.1478 60.9678 43.2891 61.6514 43.2891C62.2438 43.2891 62.7246 43.1797 63.0938 42.9609C63.4674 42.7376 63.6543 42.4437 63.6543 42.0791C63.6543 41.833 63.5609 41.6143 63.374 41.4229C63.1917 41.2269 62.7588 41.0241 62.0752 40.8145C61.5238 40.6458 61.1182 40.5205 60.8584 40.4385C60.5986 40.3519 60.3571 40.2266 60.1338 40.0625C59.9105 39.8984 59.7396 39.7025 59.6211 39.4746C59.5072 39.2467 59.4502 38.9915 59.4502 38.709C59.4502 38.0938 59.7191 37.6061 60.2568 37.2461C60.7946 36.8861 61.5078 36.7061 62.3965 36.7061C62.9707 36.7061 63.6087 36.804 64.3105 37L64.0713 37.8955ZM73.293 43.6787C72.5775 44.0068 71.8734 44.1709 71.1807 44.1709C69.9092 44.1709 69.2734 43.4987 69.2734 42.1543V37.7998H67.9062V36.877H69.2734V34.9287H70.3125V36.877H72.7324V37.7998H70.3125V41.874C70.3125 42.307 70.4082 42.6442 70.5996 42.8857C70.791 43.1227 71.0508 43.2412 71.3789 43.2412C71.9622 43.2412 72.5387 43.1113 73.1084 42.8516L73.293 43.6787ZM90.5127 38.1348H84.0459V37.2393H90.5127V38.1348ZM90.5127 40.876H84.0459V39.9805H90.5127V40.876Z" fill="black"/>
<path d="M117.859 3.7168V4.93555C117.859 5.99414 117.607 6.83203 117.104 7.44922C116.709 7.93359 116.211 8.17578 115.609 8.17578C115.32 8.17578 115.047 8.11719 114.789 8C114.535 7.88672 114.318 7.72656 114.139 7.51953C114.025 7.39062 113.9 7.18359 113.764 6.89844C113.631 6.61328 113.535 6.35156 113.477 6.11328C113.387 5.77734 113.342 5.38477 113.342 4.93555V3.7168C113.342 2.6543 113.594 1.81445 114.098 1.19727C114.492 0.712891 114.99 0.470703 115.592 0.470703C115.885 0.470703 116.158 0.529297 116.412 0.646484C116.666 0.759766 116.883 0.919922 117.062 1.12695C117.18 1.25977 117.305 1.46875 117.438 1.75391C117.57 2.03906 117.668 2.29883 117.73 2.5332C117.816 2.86914 117.859 3.26367 117.859 3.7168ZM117.367 3.78125C117.367 3.31641 117.301 2.88477 117.168 2.48633C117.039 2.08398 116.893 1.76367 116.729 1.52539C116.631 1.38867 116.504 1.27148 116.348 1.17383C116.125 1.03711 115.875 0.96875 115.598 0.96875C115.047 0.96875 114.615 1.25 114.303 1.8125C113.99 2.375 113.834 3.03125 113.834 3.78125V4.86523C113.834 5.33008 113.898 5.76367 114.027 6.16602C114.16 6.56836 114.311 6.88867 114.479 7.12695C114.572 7.25977 114.697 7.375 114.854 7.47266C115.076 7.61328 115.328 7.68359 115.609 7.68359C116.156 7.68359 116.586 7.40234 116.898 6.83984C117.211 6.27344 117.367 5.61523 117.367 4.86523V3.78125Z" fill="black"/>
<path d="M143.844 0.546875V7.50781H145.531C145.648 7.50781 145.732 7.53125 145.783 7.57812C145.834 7.62109 145.859 7.67969 145.859 7.75391C145.859 7.82422 145.834 7.88281 145.783 7.92969C145.732 7.97656 145.648 8 145.531 8H141.664C141.547 8 141.463 7.97656 141.412 7.92969C141.361 7.88281 141.336 7.82422 141.336 7.75391C141.336 7.67969 141.361 7.62109 141.412 7.57812C141.463 7.53125 141.547 7.50781 141.664 7.50781H143.352V1.22656L141.746 1.73047C141.668 1.75391 141.611 1.76562 141.576 1.76562C141.518 1.76562 141.463 1.74219 141.412 1.69531C141.365 1.64453 141.342 1.58594 141.342 1.51953C141.342 1.46094 141.361 1.40625 141.4 1.35547C141.432 1.32422 141.496 1.29102 141.594 1.25586L143.844 0.546875Z" fill="black"/>
<path d="M168.482 7.50781H172.262V7.31445C172.262 7.19727 172.285 7.11328 172.332 7.0625C172.379 7.01172 172.439 6.98633 172.514 6.98633C172.584 6.98633 172.643 7.01172 172.689 7.0625C172.736 7.11328 172.76 7.19727 172.76 7.31445V8H168.002V7.27344C169.002 6.375 169.975 5.46094 170.92 4.53125C171.361 4.09766 171.664 3.7793 171.828 3.57617C171.992 3.37305 172.104 3.19531 172.162 3.04297C172.225 2.88672 172.256 2.73047 172.256 2.57422C172.256 2.15234 172.086 1.7793 171.746 1.45508C171.406 1.13086 170.996 0.96875 170.516 0.96875C170.086 0.96875 169.705 1.0918 169.373 1.33789C169.041 1.58398 168.826 1.88867 168.729 2.25195C168.705 2.3457 168.676 2.40625 168.641 2.43359C168.594 2.47266 168.539 2.49219 168.477 2.49219C168.41 2.49219 168.354 2.4707 168.307 2.42773C168.264 2.38086 168.242 2.32617 168.242 2.26367C168.242 2.07617 168.344 1.82227 168.547 1.50195C168.754 1.18164 169.037 0.929687 169.396 0.746094C169.76 0.5625 170.131 0.470703 170.51 0.470703C171.123 0.470703 171.65 0.683594 172.092 1.10938C172.533 1.53516 172.754 2.01758 172.754 2.55664C172.754 2.7832 172.717 2.99219 172.643 3.18359C172.568 3.37109 172.441 3.57812 172.262 3.80469C172.086 4.02734 171.768 4.36523 171.307 4.81836C170.15 5.95898 169.209 6.84375 168.482 7.47266V7.50781Z" fill="black"/>
<path d="M198.611 3.99805C199.064 4.20117 199.41 4.48047 199.648 4.83594C199.887 5.1875 200.006 5.55469 200.006 5.9375C200.006 6.52734 199.766 7.04883 199.285 7.50195C198.809 7.95117 198.211 8.17578 197.492 8.17578C197.07 8.17578 196.633 8.08594 196.18 7.90625C195.727 7.72656 195.41 7.54297 195.23 7.35547C195.172 7.29297 195.143 7.22656 195.143 7.15625C195.143 7.09375 195.164 7.03906 195.207 6.99219C195.254 6.94531 195.309 6.92188 195.371 6.92188C195.434 6.92188 195.504 6.95117 195.582 7.00977C196.188 7.45898 196.828 7.68359 197.504 7.68359C198.074 7.68359 198.551 7.50586 198.934 7.15039C199.32 6.79102 199.514 6.39258 199.514 5.95508C199.514 5.66211 199.418 5.375 199.227 5.09375C199.039 4.8125 198.768 4.5918 198.412 4.43164C198.057 4.26758 197.697 4.18555 197.334 4.18555C197.217 4.18555 197.133 4.16406 197.082 4.12109C197.031 4.07422 197.006 4.01367 197.006 3.93945C197.006 3.86914 197.029 3.81055 197.076 3.76367C197.127 3.7168 197.201 3.69336 197.299 3.69336L197.721 3.69922C198.162 3.69922 198.525 3.56445 198.811 3.29492C199.1 3.02539 199.244 2.71289 199.244 2.35742C199.244 1.99023 199.094 1.66602 198.793 1.38477C198.492 1.10352 198.1 0.962891 197.615 0.962891C197.275 0.962891 196.963 1.02148 196.678 1.13867C196.393 1.25586 196.164 1.41602 195.992 1.61914C195.93 1.69727 195.881 1.74609 195.846 1.76562C195.814 1.78125 195.777 1.78906 195.734 1.78906C195.668 1.78906 195.611 1.76758 195.564 1.72461C195.518 1.67773 195.494 1.62305 195.494 1.56055C195.494 1.4043 195.664 1.20703 196.004 0.96875C196.477 0.636719 197.014 0.470703 197.615 0.470703C198.236 0.470703 198.746 0.658203 199.145 1.0332C199.543 1.4043 199.742 1.84766 199.742 2.36328C199.742 2.69141 199.646 3.00195 199.455 3.29492C199.264 3.58789 198.982 3.82227 198.611 3.99805Z" fill="black"/>
<path d="M224.518 5.94336H221.254V5.375L223.99 0.646484H225.016V5.45117H225.426C225.547 5.45117 225.633 5.47461 225.684 5.52148C225.734 5.56445 225.76 5.62305 225.76 5.69727C225.76 5.76758 225.734 5.82617 225.684 5.87305C225.633 5.91992 225.547 5.94336 225.426 5.94336H225.016V7.50781H225.426C225.547 7.50781 225.633 7.53125 225.684 7.57812C225.734 7.62109 225.76 7.67969 225.76 7.75391C225.76 7.82422 225.734 7.88281 225.684 7.92969C225.633 7.97656 225.547 8 225.426 8H223.598C223.477 8 223.391 7.97656 223.34 7.92969C223.289 7.88281 223.264 7.82422 223.264 7.75391C223.264 7.67969 223.289 7.62109 223.34 7.57812C223.391 7.53125 223.477 7.50781 223.598 7.50781H224.518V5.94336ZM224.518 5.45117V1.14453H224.26L221.77 5.45117H224.518Z" fill="#00E914"/>
<path d="M249.244 1.14453V3.55273C249.533 3.43164 249.811 3.3418 250.076 3.2832C250.342 3.2207 250.594 3.18945 250.832 3.18945C251.449 3.18945 251.965 3.40625 252.379 3.83984C252.797 4.27344 253.006 4.84375 253.006 5.55078C253.006 6.33203 252.771 6.96484 252.303 7.44922C251.834 7.93359 251.248 8.17578 250.545 8.17578C250.08 8.17578 249.633 8.07227 249.203 7.86523C248.898 7.7207 248.621 7.54102 248.371 7.32617C248.223 7.19727 248.148 7.08984 248.148 7.00391C248.148 6.93359 248.172 6.875 248.219 6.82812C248.266 6.77734 248.32 6.75195 248.383 6.75195C248.449 6.75195 248.52 6.78711 248.594 6.85742C249.184 7.4082 249.826 7.68359 250.521 7.68359C251.096 7.68359 251.57 7.48828 251.945 7.09766C252.32 6.70312 252.508 6.17969 252.508 5.52734C252.508 4.97266 252.346 4.52734 252.021 4.19141C251.697 3.85156 251.285 3.68164 250.785 3.68164C250.273 3.68164 249.762 3.81641 249.25 4.08594C249.125 4.14844 249.037 4.17969 248.986 4.17969C248.916 4.17969 248.859 4.15625 248.816 4.10938C248.773 4.0625 248.752 3.99609 248.752 3.91016V0.646484H252.186C252.303 0.646484 252.387 0.669922 252.438 0.716797C252.488 0.763672 252.514 0.824219 252.514 0.898438C252.514 0.96875 252.488 1.02734 252.438 1.07422C252.387 1.12109 252.303 1.14453 252.186 1.14453H249.244Z" fill="black"/>
<path d="M277.133 4.88867C277.438 4.43945 277.75 4.10742 278.07 3.89258C278.395 3.67773 278.754 3.57031 279.148 3.57031C279.672 3.57031 280.137 3.78906 280.543 4.22656C280.949 4.66016 281.152 5.19727 281.152 5.83789C281.152 6.42383 280.967 6.96094 280.596 7.44922C280.225 7.93359 279.713 8.17578 279.061 8.17578C278.635 8.17578 278.236 8.04492 277.865 7.7832C277.498 7.52148 277.209 7.11914 276.998 6.57617C276.736 5.90039 276.605 5.15234 276.605 4.33203C276.605 3.71484 276.729 3.14062 276.975 2.60938C277.162 2.19922 277.412 1.83984 277.725 1.53125C278.037 1.21875 278.4 0.964844 278.814 0.769531C279.232 0.570312 279.684 0.470703 280.168 0.470703C280.496 0.470703 280.77 0.537109 280.988 0.669922C281.082 0.728516 281.129 0.806641 281.129 0.904297C281.129 0.974609 281.107 1.0332 281.064 1.08008C281.021 1.12305 280.967 1.14453 280.9 1.14453C280.85 1.14453 280.789 1.125 280.719 1.08594C280.559 1.00781 280.359 0.96875 280.121 0.96875C279.359 0.96875 278.664 1.29688 278.035 1.95312C277.41 2.60547 277.098 3.38281 277.098 4.28516C277.098 4.41406 277.109 4.61523 277.133 4.88867ZM277.244 5.70312C277.393 6.41406 277.625 6.92188 277.941 7.22656C278.262 7.53125 278.639 7.68359 279.072 7.68359C279.51 7.68359 279.883 7.51367 280.191 7.17383C280.504 6.83008 280.66 6.38477 280.66 5.83789C280.66 5.32617 280.504 4.90234 280.191 4.56641C279.879 4.23047 279.525 4.0625 279.131 4.0625C278.752 4.0625 278.387 4.22461 278.035 4.54883C277.801 4.76367 277.537 5.14844 277.244 5.70312Z" fill="black"/>
<path d="M306.256 1.36719V1.14453H302.729V1.57812C302.729 1.69531 302.705 1.7793 302.658 1.83008C302.615 1.88086 302.557 1.90625 302.482 1.90625C302.412 1.90625 302.354 1.88086 302.307 1.83008C302.26 1.7793 302.236 1.69531 302.236 1.57812V0.646484H306.754V1.43164L304.773 7.75977C304.742 7.86133 304.705 7.92969 304.662 7.96484C304.619 7.99609 304.57 8.01172 304.516 8.01172C304.445 8.01172 304.387 7.98828 304.34 7.94141C304.293 7.89453 304.27 7.83984 304.27 7.77734C304.27 7.73828 304.281 7.68359 304.305 7.61328L306.256 1.36719Z" fill="black"/>
<path d="M331.611 4.18555C332.021 4.38477 332.33 4.64844 332.537 4.97656C332.748 5.30078 332.854 5.65039 332.854 6.02539C332.854 6.60742 332.635 7.11133 332.197 7.53711C331.76 7.96289 331.229 8.17578 330.604 8.17578C329.979 8.17578 329.447 7.96289 329.01 7.53711C328.572 7.11133 328.354 6.60742 328.354 6.02539C328.354 5.6543 328.457 5.30664 328.664 4.98242C328.875 4.6543 329.188 4.38867 329.602 4.18555C329.242 3.97852 328.98 3.76367 328.816 3.54102C328.59 3.22461 328.477 2.875 328.477 2.49219C328.477 1.95312 328.684 1.48242 329.098 1.08008C329.516 0.673828 330.018 0.470703 330.604 0.470703C331.193 0.470703 331.695 0.673828 332.109 1.08008C332.523 1.48242 332.73 1.95312 332.73 2.49219C332.73 2.875 332.617 3.22266 332.391 3.53516C332.23 3.76172 331.971 3.97852 331.611 4.18555ZM332.227 2.50977C332.227 2.08789 332.068 1.72656 331.752 1.42578C331.439 1.12109 331.055 0.96875 330.598 0.96875C330.145 0.96875 329.76 1.12109 329.443 1.42578C329.131 1.73047 328.975 2.08984 328.975 2.50391C328.975 2.88672 329.129 3.22266 329.438 3.51172C329.75 3.79688 330.137 3.93945 330.598 3.93945C331.062 3.93945 331.449 3.79688 331.758 3.51172C332.07 3.22266 332.227 2.88867 332.227 2.50977ZM332.361 6.03711C332.361 5.60352 332.193 5.22656 331.857 4.90625C331.521 4.58594 331.104 4.42578 330.604 4.42578C330.104 4.42578 329.686 4.58594 329.35 4.90625C329.014 5.22656 328.846 5.60156 328.846 6.03125C328.846 6.47656 329.014 6.86328 329.35 7.19141C329.689 7.51953 330.107 7.68359 330.604 7.68359C331.1 7.68359 331.516 7.51953 331.852 7.19141C332.191 6.86328 332.361 6.47852 332.361 6.03711Z" fill="black"/>
<path d="M360.619 3.83984C360.365 4.28906 360.062 4.62695 359.711 4.85352C359.363 5.08008 359.006 5.19336 358.639 5.19336C358.299 5.19336 357.969 5.0957 357.648 4.90039C357.332 4.70508 357.08 4.41992 356.893 4.04492C356.705 3.66602 356.611 3.26953 356.611 2.85547C356.611 2.25391 356.797 1.70703 357.168 1.21484C357.543 0.71875 358.043 0.470703 358.668 0.470703C359.113 0.470703 359.52 0.609375 359.887 0.886719C360.254 1.16406 360.539 1.56641 360.742 2.09375C361.004 2.76953 361.135 3.55469 361.135 4.44922C361.135 5.14453 361.023 5.72266 360.801 6.18359C360.652 6.49609 360.434 6.79883 360.145 7.0918C359.859 7.38477 359.537 7.62305 359.178 7.80664C358.686 8.05273 358.174 8.17578 357.643 8.17578C357.291 8.17578 357.004 8.10938 356.781 7.97656C356.68 7.91406 356.629 7.83594 356.629 7.74219C356.629 7.67578 356.652 7.62109 356.699 7.57812C356.746 7.53125 356.803 7.50781 356.869 7.50781C356.916 7.50781 356.984 7.5293 357.074 7.57227C357.227 7.64648 357.402 7.68359 357.602 7.68359C358.434 7.68359 359.148 7.38477 359.746 6.78711C360.344 6.18555 360.643 5.43359 360.643 4.53125C360.643 4.36719 360.635 4.13672 360.619 3.83984ZM360.525 3.01953C360.318 2.22656 360.061 1.6875 359.752 1.40234C359.447 1.11328 359.09 0.96875 358.68 0.96875C358.262 0.96875 357.895 1.14453 357.578 1.49609C357.262 1.84766 357.104 2.29883 357.104 2.84961C357.104 3.38477 357.262 3.82812 357.578 4.17969C357.895 4.52734 358.252 4.70117 358.65 4.70117C358.881 4.70117 359.107 4.63867 359.33 4.51367C359.557 4.38867 359.77 4.20117 359.969 3.95117C360.098 3.7832 360.283 3.47266 360.525 3.01953Z" fill="black"/>
<path d="M381.844 0.546875V7.50781H383.531C383.648 7.50781 383.732 7.53125 383.783 7.57812C383.834 7.62109 383.859 7.67969 383.859 7.75391C383.859 7.82422 383.834 7.88281 383.783 7.92969C383.732 7.97656 383.648 8 383.531 8H379.664C379.547 8 379.463 7.97656 379.412 7.92969C379.361 7.88281 379.336 7.82422 379.336 7.75391C379.336 7.67969 379.361 7.62109 379.412 7.57812C379.463 7.53125 379.547 7.50781 379.664 7.50781H381.352V1.22656L379.746 1.73047C379.668 1.75391 379.611 1.76562 379.576 1.76562C379.518 1.76562 379.463 1.74219 379.412 1.69531C379.365 1.64453 379.342 1.58594 379.342 1.51953C379.342 1.46094 379.361 1.40625 379.4 1.35547C379.432 1.32422 379.496 1.29102 379.594 1.25586L381.844 0.546875ZM391.066 3.7168V4.93555C391.066 5.99414 390.814 6.83203 390.311 7.44922C389.916 7.93359 389.418 8.17578 388.816 8.17578C388.527 8.17578 388.254 8.11719 387.996 8C387.742 7.88672 387.525 7.72656 387.346 7.51953C387.232 7.39062 387.107 7.18359 386.971 6.89844C386.838 6.61328 386.742 6.35156 386.684 6.11328C386.594 5.77734 386.549 5.38477 386.549 4.93555V3.7168C386.549 2.6543 386.801 1.81445 387.305 1.19727C387.699 0.712891 388.197 0.470703 388.799 0.470703C389.092 0.470703 389.365 0.529297 389.619 0.646484C389.873 0.759766 390.09 0.919922 390.27 1.12695C390.387 1.25977 390.512 1.46875 390.645 1.75391C390.777 2.03906 390.875 2.29883 390.938 2.5332C391.023 2.86914 391.066 3.26367 391.066 3.7168ZM390.574 3.78125C390.574 3.31641 390.508 2.88477 390.375 2.48633C390.246 2.08398 390.1 1.76367 389.936 1.52539C389.838 1.38867 389.711 1.27148 389.555 1.17383C389.332 1.03711 389.082 0.96875 388.805 0.96875C388.254 0.96875 387.822 1.25 387.51 1.8125C387.197 2.375 387.041 3.03125 387.041 3.78125V4.86523C387.041 5.33008 387.105 5.76367 387.234 6.16602C387.367 6.56836 387.518 6.88867 387.686 7.12695C387.779 7.25977 387.904 7.375 388.061 7.47266C388.283 7.61328 388.535 7.68359 388.816 7.68359C389.363 7.68359 389.793 7.40234 390.105 6.83984C390.418 6.27344 390.574 5.61523 390.574 4.86523V3.78125Z" fill="#CA00C4"/>
<path d="M49.3438 9H44.9619V8.02246H46.623V0.332031H44.9619V-0.645508H49.3438V0.332031H47.7441V8.02246H49.3438V9ZM58.3672 9H57.3008V4.43359C57.3008 3.80013 57.1982 3.34212 56.9932 3.05957C56.7926 2.77246 56.4759 2.62891 56.043 2.62891C55.3913 2.62891 54.6917 3.03451 53.9443 3.8457V9H52.8779V1.87695H53.9443V2.92285C54.71 2.11165 55.5166 1.70605 56.3643 1.70605C57.6995 1.70605 58.3672 2.5127 58.3672 4.12598V9ZM66.748 9H65.6816V7.97461C65.4629 8.32552 65.1484 8.61491 64.7383 8.84277C64.3327 9.07064 63.9043 9.18457 63.4531 9.18457C62.6374 9.18457 61.9925 8.82227 61.5186 8.09766C61.0446 7.36849 60.8076 6.44564 60.8076 5.3291C60.8076 4.28548 61.0537 3.42188 61.5459 2.73828C62.0426 2.05013 62.6989 1.70605 63.5146 1.70605C64.4124 1.70605 65.1348 2.07064 65.6816 2.7998V-0.645508H66.748V9ZM65.6816 6.81934V3.85938C65.1712 3.03906 64.556 2.62891 63.8359 2.62891C63.248 2.62891 62.7832 2.89095 62.4414 3.41504C62.0996 3.93457 61.9287 4.5931 61.9287 5.39062C61.9287 6.21094 62.0882 6.88997 62.4072 7.42773C62.7308 7.96094 63.1729 8.22754 63.7334 8.22754C64.0023 8.22754 64.2734 8.15462 64.5469 8.00879C64.8203 7.86296 65.0778 7.64421 65.3193 7.35254C65.5609 7.06087 65.6816 6.88314 65.6816 6.81934ZM75.3955 5.47266H70.5078C70.5078 6.2793 70.7402 6.94466 71.2051 7.46875C71.6745 7.99284 72.2487 8.25488 72.9277 8.25488C73.5749 8.25488 74.2425 8.13867 74.9307 7.90625L75.1152 8.76074C74.4863 9.04329 73.7526 9.18457 72.9141 9.18457C71.8568 9.18457 71.0046 8.84505 70.3574 8.16602C69.7103 7.48698 69.3867 6.57096 69.3867 5.41797C69.3867 4.28776 69.6761 3.3877 70.2549 2.71777C70.8382 2.04329 71.5902 1.70605 72.5107 1.70605C73.3311 1.70605 74.0169 2.01823 74.5684 2.64258C75.1198 3.26693 75.3955 4.09863 75.3955 5.1377V5.47266ZM74.2334 4.60449C74.2334 4.0485 74.0602 3.58138 73.7139 3.20312C73.3675 2.82031 72.9801 2.62891 72.5518 2.62891C72.0003 2.62891 71.5423 2.8112 71.1777 3.17578C70.8177 3.54036 70.6172 4.0166 70.5762 4.60449H74.2334ZM83.8447 9H82.6416L80.7344 6.21094L78.7588 9H77.624L80.1602 5.43164L77.624 1.87695H78.8477L80.7617 4.64551L82.71 1.87695H83.8447L81.3223 5.39062L83.8447 9ZM89.1836 1.77441C89.416 1.77441 89.612 1.85417 89.7715 2.01367C89.931 2.16862 90.0107 2.36003 90.0107 2.58789C90.0107 2.81576 89.931 3.00944 89.7715 3.16895C89.612 3.32389 89.416 3.40137 89.1836 3.40137C88.9557 3.40137 88.762 3.32389 88.6025 3.16895C88.4476 3.00944 88.3701 2.81576 88.3701 2.58789C88.3701 2.36003 88.4476 2.16862 88.6025 2.01367C88.762 1.85417 88.9557 1.77441 89.1836 1.77441ZM89.1836 7.48926C89.416 7.48926 89.612 7.56673 89.7715 7.72168C89.931 7.87663 90.0107 8.07031 90.0107 8.30273C90.0107 8.5306 89.931 8.72201 89.7715 8.87695C89.612 9.0319 89.416 9.10938 89.1836 9.10938C88.9557 9.10938 88.762 9.0319 88.6025 8.87695C88.4476 8.72201 88.3701 8.5306 88.3701 8.30273C88.3701 8.07031 88.4476 7.87663 88.6025 7.72168C88.762 7.56673 88.9557 7.48926 89.1836 7.48926Z" fill="black"/>
<path d="M131.875 290.107C141.262 290.107 148.872 282.472 148.872 273.054C148.872 263.635 141.262 256 131.875 256C122.488 256 114.878 263.635 114.878 273.054C114.878 282.472 122.488 290.107 131.875 290.107Z" stroke="#CA00C4"/>
<path d="M131.884 271.132C132.346 271.261 132.716 271.497 132.996 271.841C133.275 272.181 133.415 272.564 133.415 272.99C133.415 273.656 133.155 274.217 132.636 274.672C132.117 275.123 131.504 275.348 130.799 275.348C130.197 275.348 129.658 275.216 129.182 274.951L129.354 274.226C129.852 274.459 130.344 274.575 130.831 274.575C131.289 274.575 131.68 274.433 132.002 274.151C132.328 273.864 132.491 273.497 132.491 273.049C132.491 272.609 132.317 272.251 131.97 271.975C131.622 271.7 131.162 271.562 130.589 271.562H130.358V270.837H130.423C130.974 270.837 131.429 270.708 131.787 270.45C132.145 270.188 132.324 269.838 132.324 269.397C132.324 269.039 132.195 268.76 131.938 268.559C131.68 268.355 131.325 268.253 130.874 268.253C130.484 268.253 130.047 268.359 129.564 268.57L129.445 267.813C129.932 267.591 130.423 267.48 130.917 267.48C131.594 267.48 132.151 267.659 132.587 268.017C133.028 268.371 133.248 268.828 133.248 269.386C133.248 269.773 133.114 270.135 132.845 270.471C132.58 270.804 132.26 271.014 131.884 271.1V271.132Z" fill="black"/>
<path d="M82.8751 290.107C92.2624 290.107 99.8723 282.472 99.8723 273.054C99.8723 263.635 92.2624 256 82.8751 256C73.4878 256 65.8779 263.635 65.8779 273.054C65.8779 282.472 73.4878 290.107 82.8751 290.107Z" stroke="black"/>
<path d="M84.8765 273.452H83.9419V275.203H83.0611V273.452H79.7632V272.781L82.7549 267.625H83.9419V272.684H84.8765V273.452ZM83.0611 272.684V268.495L80.6548 272.684H83.0611Z" fill="black"/>
<path d="M24.9972 290.107C34.3846 290.107 41.9945 282.472 41.9945 273.054C41.9945 263.635 34.3846 256 24.9972 256C15.6099 256 8 263.635 8 273.054C8 282.472 15.6099 290.107 24.9972 290.107Z" stroke="black"/>
<path d="M26.5045 275.203H22.3365V274.564C23.3929 273.386 24.0786 272.597 24.3937 272.195C24.7088 271.794 24.9648 271.374 25.1617 270.933C25.3587 270.493 25.4571 270.054 25.4571 269.617C25.4571 269.195 25.3282 268.862 25.0704 268.618C24.8162 268.375 24.4581 268.253 23.9962 268.253C23.6417 268.253 23.1655 268.362 22.5675 268.581L22.444 267.823C22.9847 267.594 23.5504 267.48 24.1412 267.48C24.818 267.48 25.3623 267.671 25.774 268.054C26.1894 268.434 26.3971 268.942 26.3971 269.58C26.3971 270.035 26.2897 270.486 26.0748 270.933C25.8636 271.381 25.5914 271.811 25.2584 272.222C24.9254 272.634 24.2773 273.372 23.3141 274.435H26.5045V275.203Z" fill="black"/>
<path d="M339.196 220.107C348.583 220.107 356.193 212.472 356.193 203.054C356.193 193.635 348.583 186 339.196 186C329.808 186 322.198 193.635 322.198 203.054C322.198 212.472 329.808 220.107 339.196 220.107Z" stroke="black"/>
<path d="M340.998 198.253L337.996 205.203H337.094L340.053 198.393H336.503V197.625H340.998V198.253Z" fill="black"/>
<path d="M249.425 220.107C258.812 220.107 266.422 212.472 266.422 203.054C266.422 193.635 258.812 186 249.425 186C240.037 186 232.427 193.635 232.427 203.054C232.427 212.472 240.037 220.107 249.425 220.107Z" stroke="black"/>
<path d="M247.607 201.256C248.08 200.872 248.594 200.681 249.149 200.681C249.79 200.681 250.323 200.887 250.749 201.299C251.179 201.707 251.394 202.235 251.394 202.883C251.394 203.596 251.204 204.185 250.825 204.65C250.445 205.116 249.938 205.348 249.305 205.348C248.495 205.348 247.854 204.978 247.382 204.236C246.909 203.492 246.673 202.582 246.673 201.508C246.673 200.362 246.918 199.404 247.409 198.634C247.903 197.865 248.578 197.48 249.433 197.48C250.024 197.48 250.535 197.567 250.964 197.743L250.825 198.527C250.327 198.344 249.872 198.253 249.46 198.253C248.877 198.253 248.422 198.532 248.096 199.091C247.77 199.65 247.607 200.371 247.607 201.256ZM247.634 202.013C247.634 202.661 247.786 203.25 248.091 203.78C248.395 204.31 248.778 204.575 249.24 204.575C249.63 204.575 249.931 204.432 250.142 204.145C250.354 203.859 250.459 203.463 250.459 202.958C250.459 202.493 250.343 202.126 250.11 201.857C249.877 201.589 249.55 201.454 249.127 201.454C248.579 201.454 248.082 201.64 247.634 202.013Z" fill="black"/>
<path d="M135.5 255.5L144.5 219.5" stroke="black" stroke-linecap="square"/>
<path d="M149.679 220.107C159.066 220.107 166.676 212.472 166.676 203.054C166.676 193.635 159.066 186 149.679 186C140.292 186 132.682 193.635 132.682 203.054C132.682 212.472 140.292 220.107 149.679 220.107Z" stroke="#00E914"/>
<path d="M148.385 205.203H144.4V204.435H146.006V198.549L144.491 199.306V198.425L146.129 197.582H146.887V204.435H148.385V205.203ZM154.992 205.203H151.006V204.435H152.612V198.549L151.098 199.306V198.425L152.736 197.582H153.493V204.435H154.992V205.203Z" fill="black"/>
<path d="M49.3944 216.5L29.5 256.5" stroke="black" stroke-linecap="square"/>
<path d="M66.5 219.5L77.5 256.5" stroke="black" stroke-linecap="square"/>
<path d="M59.9082 220.107C69.2955 220.107 76.9054 212.472 76.9054 203.054C76.9054 193.635 69.2955 186 59.9082 186C50.5209 186 42.9109 193.635 42.9109 203.054C42.9109 212.472 50.5209 220.107 59.9082 220.107Z" stroke="black"/>
<path d="M58.4775 200.681C58.721 200.616 58.9591 200.584 59.1918 200.584C59.908 200.584 60.4737 200.804 60.8891 201.245C61.3044 201.682 61.5121 202.228 61.5121 202.883C61.5121 203.57 61.2704 204.154 60.787 204.634C60.3036 205.11 59.7146 205.348 59.0199 205.348C58.3575 205.348 57.8025 205.237 57.3549 205.015L57.5322 204.269C58.0191 204.473 58.5222 204.575 59.0414 204.575C59.5033 204.575 59.8757 204.426 60.1586 204.129C60.4451 203.832 60.5883 203.417 60.5883 202.883C60.5883 202.378 60.454 201.99 60.1855 201.717C59.9169 201.445 59.5714 201.309 59.1488 201.309C58.8409 201.309 58.5365 201.368 58.2358 201.486L57.7094 201.245V197.625H61.1738V198.393H58.4775V200.681Z" fill="black"/>
<path d="M274.819 157.5L256.865 187.5" stroke="black" stroke-linecap="square"/>
<path d="M297.761 154.5L327.684 189.5" stroke="black" stroke-linecap="square"/>
<path d="M284.336 160.107C293.723 160.107 301.333 152.472 301.333 143.054C301.333 133.635 293.723 126 284.336 126C274.948 126 267.338 133.635 267.338 143.054C267.338 152.472 274.948 160.107 284.336 160.107Z" stroke="black"/>
<path d="M284.634 141.046C285.15 141.196 285.549 141.452 285.832 141.814C286.119 142.176 286.262 142.598 286.262 143.082C286.262 143.776 286.031 144.328 285.569 144.736C285.111 145.144 284.545 145.348 283.872 145.348C283.166 145.348 282.586 145.142 282.132 144.731C281.68 144.319 281.455 143.773 281.455 143.092C281.455 142.613 281.602 142.19 281.895 141.825C282.189 141.46 282.599 141.2 283.125 141.046C282.706 140.939 282.37 140.733 282.115 140.428C281.865 140.12 281.739 139.777 281.739 139.397C281.739 138.91 281.933 138.47 282.319 138.076C282.706 137.678 283.216 137.48 283.85 137.48C284.477 137.48 284.994 137.677 285.402 138.07C285.814 138.464 286.02 138.907 286.02 139.397C286.02 139.766 285.891 140.106 285.633 140.418C285.376 140.726 285.043 140.935 284.634 141.046ZM283.85 140.681C283.868 140.681 283.954 140.659 284.108 140.616C284.262 140.573 284.393 140.522 284.5 140.461C284.611 140.396 284.713 140.316 284.806 140.219C284.899 140.122 284.975 140.009 285.032 139.881C285.089 139.748 285.118 139.601 285.118 139.44C285.118 139.096 284.994 138.812 284.747 138.586C284.5 138.357 284.201 138.242 283.85 138.242C283.51 138.242 283.218 138.359 282.975 138.591C282.731 138.824 282.61 139.107 282.61 139.44C282.61 139.651 282.652 139.836 282.738 139.993C282.828 140.151 282.937 140.278 283.066 140.375C283.199 140.471 283.349 140.547 283.517 140.6C283.689 140.654 283.8 140.681 283.85 140.681ZM283.85 141.433C282.869 141.719 282.379 142.258 282.379 143.049C282.379 143.511 282.527 143.882 282.824 144.161C283.122 144.437 283.471 144.575 283.872 144.575C284.287 144.575 284.636 144.439 284.919 144.167C285.206 143.891 285.349 143.519 285.349 143.049C285.349 142.695 285.25 142.378 285.053 142.099C284.856 141.816 284.455 141.594 283.85 141.433Z" fill="black"/>
<path d="M102.26 155.5L70.5 189.5" stroke="black" stroke-linecap="square"/>
<path d="M125.201 156.5L142.158 187.5" stroke="black" stroke-linecap="square"/>
<path d="M114.768 160.107C124.156 160.107 131.765 152.472 131.765 143.054C131.765 133.635 124.156 126 114.768 126C105.381 126 97.771 133.635 97.771 143.054C97.771 152.472 105.381 160.107 114.768 160.107Z" stroke="black"/>
<path d="M115.749 141.562C115.312 141.945 114.798 142.136 114.208 142.136C113.567 142.136 113.031 141.932 112.602 141.524C112.176 141.112 111.963 140.582 111.963 139.934C111.963 139.24 112.167 138.656 112.575 138.183C112.987 137.707 113.517 137.469 114.165 137.469C114.956 137.469 115.574 137.831 116.018 138.554C116.462 139.277 116.684 140.196 116.684 141.309C116.684 142.423 116.422 143.374 115.9 144.161C115.38 144.945 114.684 145.338 113.81 145.338C113.223 145.338 112.714 145.248 112.285 145.069L112.424 144.29C112.919 144.473 113.373 144.564 113.789 144.564C114.383 144.564 114.858 144.276 115.212 143.699C115.57 143.123 115.749 142.41 115.749 141.562ZM115.728 140.804C115.728 140.124 115.59 139.528 115.314 139.016C115.038 138.5 114.677 138.242 114.229 138.242C113.824 138.242 113.5 138.393 113.257 138.694C113.017 138.991 112.897 139.379 112.897 139.859C112.897 140.299 113.019 140.661 113.262 140.944C113.509 141.223 113.832 141.363 114.229 141.363C114.777 141.363 115.253 141.195 115.658 140.858L115.728 140.804Z" fill="black"/>
<path d="M185.048 102.5L130.188 135.5" stroke="black" stroke-linecap="square"/>
<path d="M215.969 99.5L269.832 133.5" stroke="black" stroke-linecap="square"/>
<path d="M199.552 110.107C208.939 110.107 216.549 102.472 216.549 93.0536C216.549 83.6351 208.939 76 199.552 76C190.165 76 182.555 83.6351 182.555 93.0536C182.555 102.472 190.165 110.107 199.552 110.107Z" stroke="black"/>
<path d="M198.258 95.2033H194.273V94.4352H195.879V88.5485L194.364 89.3058V88.425L196.002 87.5817H196.759V94.4352H198.258V95.2033ZM202.684 87.4797C203.486 87.4797 204.102 87.8252 204.531 88.5163C204.965 89.2038 205.181 90.1706 205.181 91.4167C205.181 92.6234 204.972 93.5812 204.553 94.2902C204.134 94.9956 203.511 95.3483 202.684 95.3483C201.885 95.3483 201.269 95.0046 200.836 94.3171C200.403 93.6296 200.186 92.6628 200.186 91.4167C200.186 90.2064 200.396 89.2486 200.815 88.5432C201.237 87.8342 201.86 87.4797 202.684 87.4797ZM202.684 94.5749C203.214 94.5749 203.606 94.3242 203.86 93.8229C204.118 93.3181 204.247 92.516 204.247 91.4167C204.247 90.3138 204.118 89.5135 203.86 89.0158C203.606 88.5145 203.214 88.2639 202.684 88.2639C202.161 88.2639 201.771 88.5199 201.513 89.0319C201.255 89.544 201.126 90.3389 201.126 91.4167C201.126 92.5088 201.253 93.3091 201.507 93.8176C201.765 94.3224 202.157 94.5749 202.684 94.5749ZM202.662 90.611C202.888 90.611 203.078 90.6898 203.232 90.8474C203.389 91.0013 203.468 91.1911 203.468 91.4167C203.468 91.6494 203.389 91.85 203.232 92.0182C203.074 92.183 202.884 92.2653 202.662 92.2653C202.444 92.2653 202.256 92.183 202.098 92.0182C201.944 91.85 201.867 91.6494 201.867 91.4167C201.867 91.1875 201.943 90.996 202.093 90.842C202.247 90.688 202.437 90.611 202.662 90.611Z" fill="black"/>
<path d="M155.236 266.817C166.058 258.619 172.18 251.479 173.601 245.395C175.023 239.311 172.624 230.517 166.405 219.014" stroke="#CE0202"/>
<path d="M174.18 227.088L166.405 219.014L168.902 229.942" stroke="#CE0202"/>
<path d="M130.695 213.309C121.992 220.097 117.019 225.909 115.775 230.744C114.531 235.579 116.053 243.186 120.34 253.564" stroke="#CE0202"/>
<path d="M113.444 244.728L120.34 253.564L118.989 242.437" stroke="#CE0202"/>
</g>
<defs>
<clipPath id="clip0">
<rect width="400" height="291" fill="white"/>
</clipPath>
</defs>
</svg>
