<svg width="400" height="610" viewBox="0 0 400 610" fill="none" xmlns="http://www.w3.org/2000/svg">
<g clip-path="url(#clip0)">
<path d="M372.382 347H344.438V374.973H372.382V347Z" fill="white"/>
<path d="M371.882 347.5H344.938V374.473H371.882V347.5Z" stroke="#979797"/>
<path d="M356.555 355.548V357.756C356.82 357.645 357.074 357.562 357.318 357.509C357.561 357.451 357.792 357.423 358.011 357.423C358.576 357.423 359.049 357.621 359.429 358.019C359.812 358.416 360.003 358.939 360.003 359.587C360.003 360.303 359.788 360.884 359.359 361.328C358.929 361.772 358.392 361.994 357.747 361.994C357.321 361.994 356.911 361.899 356.517 361.709C356.238 361.576 355.984 361.412 355.755 361.215C355.619 361.097 355.551 360.998 355.551 360.919C355.551 360.855 355.572 360.801 355.615 360.758C355.658 360.712 355.708 360.688 355.766 360.688C355.826 360.688 355.891 360.721 355.959 360.785C356.5 361.29 357.089 361.542 357.726 361.542C358.252 361.542 358.687 361.363 359.031 361.005C359.375 360.644 359.547 360.164 359.547 359.566C359.547 359.057 359.398 358.649 359.101 358.341C358.804 358.03 358.426 357.874 357.968 357.874C357.499 357.874 357.03 357.997 356.56 358.245C356.446 358.302 356.365 358.33 356.319 358.33C356.254 358.33 356.202 358.309 356.163 358.266C356.124 358.223 356.104 358.162 356.104 358.083V355.092H359.251C359.359 355.092 359.436 355.113 359.482 355.156C359.529 355.199 359.552 355.255 359.552 355.323C359.552 355.387 359.529 355.441 359.482 355.484C359.436 355.527 359.359 355.548 359.251 355.548H356.555Z" fill="black"/>
<path d="M399.382 347H371.438V374.973H399.382V347Z" fill="white"/>
<path d="M398.882 347.5H371.938V374.473H398.882V347.5Z" stroke="#9B9B9B"/>
<path d="M385.725 358.164C386.14 358.35 386.457 358.606 386.676 358.932C386.894 359.254 387.003 359.591 387.003 359.942C387.003 360.482 386.783 360.961 386.343 361.376C385.906 361.788 385.358 361.994 384.699 361.994C384.312 361.994 383.911 361.911 383.496 361.746C383.081 361.582 382.791 361.413 382.626 361.242C382.572 361.184 382.545 361.123 382.545 361.059C382.545 361.002 382.565 360.952 382.604 360.909C382.647 360.866 382.697 360.844 382.755 360.844C382.812 360.844 382.877 360.871 382.948 360.925C383.503 361.337 384.09 361.542 384.71 361.542C385.233 361.542 385.669 361.379 386.02 361.054C386.375 360.724 386.552 360.359 386.552 359.958C386.552 359.689 386.464 359.426 386.289 359.168C386.117 358.911 385.868 358.708 385.542 358.561C385.217 358.411 384.887 358.336 384.554 358.336C384.447 358.336 384.37 358.316 384.323 358.277C384.277 358.234 384.253 358.178 384.253 358.11C384.253 358.046 384.275 357.992 384.318 357.949C384.364 357.906 384.432 357.885 384.522 357.885L384.909 357.89C385.313 357.89 385.646 357.767 385.908 357.519C386.173 357.272 386.305 356.986 386.305 356.66C386.305 356.323 386.167 356.026 385.891 355.768C385.616 355.511 385.256 355.382 384.812 355.382C384.5 355.382 384.214 355.435 383.953 355.543C383.691 355.65 383.482 355.797 383.324 355.983C383.267 356.055 383.222 356.1 383.19 356.118C383.161 356.132 383.127 356.139 383.088 356.139C383.027 356.139 382.975 356.119 382.932 356.08C382.889 356.037 382.868 355.987 382.868 355.93C382.868 355.786 383.023 355.606 383.335 355.387C383.768 355.083 384.26 354.931 384.812 354.931C385.381 354.931 385.849 355.102 386.214 355.446C386.579 355.786 386.762 356.193 386.762 356.665C386.762 356.966 386.674 357.251 386.498 357.519C386.323 357.788 386.065 358.003 385.725 358.164Z" fill="black"/>
<path d="M345.556 347H317.612V374.973H345.556V347Z" fill="white"/>
<path d="M345.056 347.5H318.112V374.473H345.056V347.5Z" stroke="#979797"/>
<path d="M329.03 361.381H332.495V361.204C332.495 361.097 332.516 361.02 332.559 360.973C332.602 360.927 332.658 360.903 332.726 360.903C332.79 360.903 332.844 360.927 332.887 360.973C332.93 361.02 332.951 361.097 332.951 361.204V361.832H328.59V361.166C329.507 360.343 330.398 359.505 331.265 358.653C331.669 358.255 331.947 357.963 332.097 357.777C332.248 357.591 332.35 357.428 332.403 357.288C332.461 357.145 332.489 357.002 332.489 356.859C332.489 356.472 332.334 356.13 332.022 355.833C331.711 355.536 331.335 355.387 330.894 355.387C330.5 355.387 330.151 355.5 329.847 355.725C329.542 355.951 329.345 356.23 329.256 356.563C329.234 356.649 329.208 356.705 329.175 356.73C329.132 356.766 329.082 356.784 329.025 356.784C328.964 356.784 328.912 356.764 328.869 356.725C328.83 356.682 328.81 356.631 328.81 356.574C328.81 356.402 328.903 356.17 329.089 355.876C329.279 355.582 329.539 355.351 329.868 355.183C330.201 355.015 330.541 354.931 330.889 354.931C331.451 354.931 331.934 355.126 332.339 355.516C332.744 355.906 332.946 356.349 332.946 356.843C332.946 357.05 332.912 357.242 332.844 357.417C332.776 357.589 332.659 357.779 332.495 357.987C332.334 358.191 332.042 358.501 331.619 358.916C330.559 359.962 329.696 360.773 329.03 361.349V361.381Z" fill="black"/>
<path d="M318.729 347H290.785V374.973H318.729V347Z" fill="white"/>
<path d="M318.229 347.5H291.285V374.473H318.229V347.5Z" stroke="#979797"/>
<path d="M304.368 355V361.381H305.915C306.023 361.381 306.1 361.403 306.146 361.446C306.193 361.485 306.216 361.539 306.216 361.607C306.216 361.671 306.193 361.725 306.146 361.768C306.1 361.811 306.023 361.832 305.915 361.832H302.37C302.263 361.832 302.186 361.811 302.139 361.768C302.093 361.725 302.07 361.671 302.07 361.607C302.07 361.539 302.093 361.485 302.139 361.446C302.186 361.403 302.263 361.381 302.37 361.381H303.917V355.623L302.446 356.085C302.374 356.107 302.322 356.118 302.29 356.118C302.236 356.118 302.186 356.096 302.139 356.053C302.097 356.007 302.075 355.953 302.075 355.892C302.075 355.838 302.093 355.788 302.129 355.742C302.157 355.713 302.216 355.683 302.306 355.65L304.368 355Z" fill="black"/>
<path d="M291.903 347H263.959V374.973H291.903V347Z" fill="white"/>
<path d="M291.403 347.5H264.459V374.473H291.403V347.5Z" stroke="#979797"/>
<path d="M279.483 355.752V355.548H276.25V355.946C276.25 356.053 276.228 356.13 276.185 356.177C276.146 356.223 276.092 356.246 276.024 356.246C275.96 356.246 275.906 356.223 275.863 356.177C275.82 356.13 275.799 356.053 275.799 355.946V355.092H279.94V355.811L278.124 361.612C278.096 361.705 278.062 361.768 278.022 361.8C277.983 361.829 277.938 361.843 277.888 361.843C277.823 361.843 277.77 361.822 277.727 361.779C277.684 361.736 277.662 361.686 277.662 361.628C277.662 361.593 277.673 361.542 277.695 361.478L279.483 355.752Z" fill="black"/>
<path d="M265.076 347H237.132V374.973H265.076V347Z" fill="white"/>
<path d="M264.576 347.5H237.632V374.473H264.576V347.5Z" stroke="#979797"/>
<path d="M248.029 358.98C248.309 358.569 248.595 358.264 248.889 358.067C249.186 357.87 249.515 357.772 249.877 357.772C250.357 357.772 250.783 357.972 251.155 358.373C251.528 358.771 251.714 359.263 251.714 359.85C251.714 360.388 251.544 360.88 251.204 361.328C250.864 361.772 250.395 361.994 249.797 361.994C249.406 361.994 249.041 361.874 248.701 361.634C248.364 361.394 248.099 361.025 247.906 360.527C247.666 359.908 247.546 359.222 247.546 358.47C247.546 357.904 247.659 357.378 247.884 356.891C248.056 356.515 248.285 356.186 248.572 355.903C248.858 355.616 249.191 355.384 249.571 355.205C249.954 355.022 250.368 354.931 250.812 354.931C251.112 354.931 251.363 354.991 251.564 355.113C251.65 355.167 251.693 355.239 251.693 355.328C251.693 355.392 251.673 355.446 251.633 355.489C251.594 355.529 251.544 355.548 251.483 355.548C251.437 355.548 251.381 355.53 251.317 355.495C251.17 355.423 250.987 355.387 250.769 355.387C250.07 355.387 249.433 355.688 248.857 356.289C248.284 356.887 247.997 357.6 247.997 358.427C247.997 358.545 248.008 358.73 248.029 358.98ZM248.132 359.727C248.268 360.379 248.481 360.844 248.771 361.123C249.064 361.403 249.41 361.542 249.807 361.542C250.208 361.542 250.55 361.387 250.833 361.075C251.12 360.76 251.263 360.352 251.263 359.85C251.263 359.381 251.12 358.993 250.833 358.685C250.547 358.377 250.223 358.223 249.861 358.223C249.514 358.223 249.179 358.372 248.857 358.669C248.642 358.866 248.4 359.218 248.132 359.727Z" fill="black"/>
<path d="M211.424 347H183.479V374.973H211.424V347Z" fill="white"/>
<path d="M210.924 347.5H183.979V374.473H210.924V347.5Z" stroke="#979797"/>
<path d="M197.68 359.947H194.689V359.426L197.197 355.092H198.137V359.496H198.513C198.624 359.496 198.703 359.517 198.749 359.56C198.796 359.6 198.819 359.654 198.819 359.722C198.819 359.786 198.796 359.84 198.749 359.883C198.703 359.926 198.624 359.947 198.513 359.947H198.137V361.381H198.513C198.624 361.381 198.703 361.403 198.749 361.446C198.796 361.485 198.819 361.539 198.819 361.607C198.819 361.671 198.796 361.725 198.749 361.768C198.703 361.811 198.624 361.832 198.513 361.832H196.837C196.726 361.832 196.647 361.811 196.601 361.768C196.554 361.725 196.531 361.671 196.531 361.607C196.531 361.539 196.554 361.485 196.601 361.446C196.647 361.403 196.726 361.381 196.837 361.381H197.68V359.947ZM197.68 359.496V355.548H197.444L195.161 359.496H197.68Z" fill="black"/>
<path d="M184.597 347H156.653V374.973H184.597V347Z" fill="white"/>
<path d="M184.097 347.5H157.153V374.473H184.097V347.5Z" stroke="#979797"/>
<path d="M170.94 358.336C171.316 358.518 171.599 358.76 171.788 359.061C171.982 359.358 172.079 359.679 172.079 360.022C172.079 360.556 171.878 361.018 171.477 361.408C171.076 361.798 170.589 361.994 170.016 361.994C169.443 361.994 168.956 361.798 168.555 361.408C168.154 361.018 167.954 360.556 167.954 360.022C167.954 359.682 168.048 359.364 168.238 359.066C168.432 358.766 168.718 358.522 169.098 358.336C168.768 358.146 168.528 357.949 168.378 357.745C168.17 357.455 168.066 357.135 168.066 356.784C168.066 356.289 168.256 355.858 168.636 355.489C169.019 355.117 169.479 354.931 170.016 354.931C170.557 354.931 171.017 355.117 171.396 355.489C171.776 355.858 171.966 356.289 171.966 356.784C171.966 357.135 171.862 357.453 171.654 357.74C171.507 357.947 171.269 358.146 170.94 358.336ZM171.504 356.8C171.504 356.413 171.359 356.082 171.069 355.806C170.782 355.527 170.43 355.387 170.011 355.387C169.595 355.387 169.243 355.527 168.953 355.806C168.666 356.085 168.523 356.415 168.523 356.794C168.523 357.145 168.664 357.453 168.947 357.718C169.234 357.98 169.588 358.11 170.011 358.11C170.437 358.11 170.791 357.98 171.074 357.718C171.361 357.453 171.504 357.147 171.504 356.8ZM171.627 360.033C171.627 359.636 171.473 359.29 171.165 358.996C170.857 358.703 170.474 358.556 170.016 358.556C169.558 358.556 169.175 358.703 168.867 358.996C168.559 359.29 168.405 359.634 168.405 360.028C168.405 360.436 168.559 360.79 168.867 361.091C169.178 361.392 169.561 361.542 170.016 361.542C170.471 361.542 170.852 361.392 171.16 361.091C171.472 360.79 171.627 360.438 171.627 360.033Z" fill="black"/>
<path d="M130.944 347H103V374.973H130.944V347Z" fill="white"/>
<path d="M130.444 347.5H103.5V374.473H130.444V347.5Z" stroke="#00E914"/>
<path d="M113.583 355V361.381H115.13C115.238 361.381 115.315 361.403 115.361 361.446C115.408 361.485 115.431 361.539 115.431 361.607C115.431 361.671 115.408 361.725 115.361 361.768C115.315 361.811 115.238 361.832 115.13 361.832H111.585C111.478 361.832 111.401 361.811 111.354 361.768C111.308 361.725 111.285 361.671 111.285 361.607C111.285 361.539 111.308 361.485 111.354 361.446C111.401 361.403 111.478 361.381 111.585 361.381H113.132V355.623L111.66 356.085C111.589 356.107 111.537 356.118 111.505 356.118C111.451 356.118 111.401 356.096 111.354 356.053C111.311 356.007 111.29 355.953 111.29 355.892C111.29 355.838 111.308 355.788 111.344 355.742C111.372 355.713 111.431 355.683 111.521 355.65L113.583 355ZM120.19 355V361.381H121.737C121.844 361.381 121.921 361.403 121.968 361.446C122.014 361.485 122.037 361.539 122.037 361.607C122.037 361.671 122.014 361.725 121.968 361.768C121.921 361.811 121.844 361.832 121.737 361.832H118.192C118.084 361.832 118.007 361.811 117.961 361.768C117.914 361.725 117.891 361.671 117.891 361.607C117.891 361.539 117.914 361.485 117.961 361.446C118.007 361.403 118.084 361.381 118.192 361.381H119.739V355.623L118.267 356.085C118.195 356.107 118.143 356.118 118.111 356.118C118.057 356.118 118.007 356.096 117.961 356.053C117.918 356.007 117.896 355.953 117.896 355.892C117.896 355.838 117.914 355.788 117.95 355.742C117.979 355.713 118.038 355.683 118.127 355.65L120.19 355Z" fill="black"/>
<path d="M238.25 347H210.306V374.973H238.25V347Z" fill="white"/>
<path d="M237.75 347.5H210.806V374.473H237.75V347.5Z" stroke="#9B9B9B"/>
<path d="M225.517 358.019C225.284 358.431 225.006 358.74 224.684 358.948C224.365 359.156 224.038 359.26 223.701 359.26C223.39 359.26 223.087 359.17 222.793 358.991C222.503 358.812 222.272 358.551 222.101 358.207C221.929 357.86 221.843 357.496 221.843 357.117C221.843 356.565 222.013 356.064 222.353 355.613C222.697 355.158 223.155 354.931 223.728 354.931C224.136 354.931 224.509 355.058 224.845 355.312C225.182 355.566 225.443 355.935 225.629 356.418C225.869 357.038 225.989 357.758 225.989 358.578C225.989 359.215 225.887 359.745 225.683 360.167C225.547 360.454 225.346 360.731 225.082 361C224.82 361.268 224.525 361.487 224.195 361.655C223.744 361.881 223.275 361.994 222.788 361.994C222.466 361.994 222.203 361.933 221.999 361.811C221.905 361.754 221.859 361.682 221.859 361.596C221.859 361.535 221.88 361.485 221.923 361.446C221.966 361.403 222.018 361.381 222.079 361.381C222.122 361.381 222.185 361.401 222.267 361.44C222.407 361.508 222.568 361.542 222.75 361.542C223.513 361.542 224.168 361.268 224.716 360.721C225.264 360.169 225.538 359.48 225.538 358.653C225.538 358.502 225.531 358.291 225.517 358.019ZM225.431 357.267C225.241 356.54 225.005 356.046 224.722 355.785C224.442 355.52 224.115 355.387 223.739 355.387C223.356 355.387 223.019 355.548 222.729 355.871C222.439 356.193 222.294 356.606 222.294 357.111C222.294 357.602 222.439 358.008 222.729 358.33C223.019 358.649 223.347 358.809 223.712 358.809C223.923 358.809 224.131 358.751 224.335 358.637C224.543 358.522 224.738 358.35 224.92 358.121C225.039 357.967 225.209 357.682 225.431 357.267Z" fill="black"/>
<path d="M157.771 347H129.826V374.973H157.771V347Z" fill="white"/>
<path d="M157.271 347.5H130.326V374.473H157.271V347.5Z" stroke="#3900E9"/>
<path d="M141.41 355V361.381H142.957C143.064 361.381 143.141 361.403 143.188 361.446C143.234 361.485 143.257 361.539 143.257 361.607C143.257 361.671 143.234 361.725 143.188 361.768C143.141 361.811 143.064 361.832 142.957 361.832H139.412C139.304 361.832 139.227 361.811 139.181 361.768C139.134 361.725 139.111 361.671 139.111 361.607C139.111 361.539 139.134 361.485 139.181 361.446C139.227 361.403 139.304 361.381 139.412 361.381H140.959V355.623L139.487 356.085C139.415 356.107 139.363 356.118 139.331 356.118C139.277 356.118 139.227 356.096 139.181 356.053C139.138 356.007 139.116 355.953 139.116 355.892C139.116 355.838 139.134 355.788 139.17 355.742C139.199 355.713 139.258 355.683 139.347 355.65L141.41 355ZM149.864 357.906V359.023C149.864 359.994 149.633 360.762 149.171 361.328C148.809 361.772 148.353 361.994 147.801 361.994C147.536 361.994 147.286 361.94 147.049 361.832C146.817 361.729 146.618 361.582 146.453 361.392C146.349 361.274 146.235 361.084 146.109 360.823C145.988 360.561 145.9 360.321 145.846 360.103C145.764 359.795 145.723 359.435 145.723 359.023V357.906C145.723 356.932 145.954 356.162 146.416 355.597C146.777 355.153 147.234 354.931 147.785 354.931C148.054 354.931 148.304 354.984 148.537 355.092C148.77 355.196 148.969 355.342 149.133 355.532C149.241 355.654 149.355 355.845 149.477 356.107C149.599 356.368 149.688 356.606 149.746 356.821C149.825 357.129 149.864 357.491 149.864 357.906ZM149.413 357.965C149.413 357.539 149.352 357.143 149.23 356.778C149.112 356.409 148.978 356.116 148.827 355.897C148.738 355.772 148.621 355.665 148.478 355.575C148.274 355.45 148.045 355.387 147.791 355.387C147.286 355.387 146.89 355.645 146.604 356.161C146.317 356.676 146.174 357.278 146.174 357.965V358.959C146.174 359.385 146.233 359.782 146.351 360.151C146.473 360.52 146.611 360.814 146.765 361.032C146.851 361.154 146.965 361.26 147.109 361.349C147.313 361.478 147.544 361.542 147.801 361.542C148.303 361.542 148.697 361.285 148.983 360.769C149.269 360.25 149.413 359.646 149.413 358.959V357.965Z" fill="black"/>
<path d="M5.95898 363H4.89258V358.434C4.89258 357.8 4.79004 357.342 4.58496 357.06C4.38444 356.772 4.06771 356.629 3.63477 356.629C2.98307 356.629 2.28353 357.035 1.53613 357.846V363H0.469727V353.354H1.53613V356.923C2.30176 356.112 3.1084 355.706 3.95605 355.706C5.29134 355.706 5.95898 356.513 5.95898 358.126V363ZM14.5791 359.473H9.69141C9.69141 360.279 9.92383 360.945 10.3887 361.469C10.8581 361.993 11.4323 362.255 12.1113 362.255C12.7585 362.255 13.4261 362.139 14.1143 361.906L14.2988 362.761C13.6699 363.043 12.9362 363.185 12.0977 363.185C11.0404 363.185 10.1882 362.845 9.54102 362.166C8.89388 361.487 8.57031 360.571 8.57031 359.418C8.57031 358.288 8.8597 357.388 9.43848 356.718C10.0218 356.043 10.7738 355.706 11.6943 355.706C12.5146 355.706 13.2005 356.018 13.752 356.643C14.3034 357.267 14.5791 358.099 14.5791 359.138V359.473ZM13.417 358.604C13.417 358.049 13.2438 357.581 12.8975 357.203C12.5511 356.82 12.1637 356.629 11.7354 356.629C11.1839 356.629 10.7259 356.811 10.3613 357.176C10.0013 357.54 9.80078 358.017 9.75977 358.604H13.417ZM22.9531 363H21.8936C21.807 362.713 21.7637 362.33 21.7637 361.852C21.1576 362.74 20.3327 363.185 19.2891 363.185C18.7604 363.185 18.2933 362.998 17.8877 362.624C17.4867 362.246 17.2861 361.76 17.2861 361.168C17.2861 360.817 17.3568 360.507 17.498 360.238C17.6393 359.969 17.8467 359.744 18.1201 359.562C18.3936 359.375 18.7262 359.229 19.1182 359.124C19.5101 359.015 19.9749 358.939 20.5127 358.898L21.709 358.803V358.461C21.709 357.24 21.1393 356.629 20 356.629C19.7311 356.629 19.3893 356.688 18.9746 356.807C18.5645 356.921 18.2113 357.057 17.915 357.217L17.6348 356.451C18.6055 355.954 19.5078 355.706 20.3418 355.706C21.9642 355.706 22.7754 356.565 22.7754 358.283V361.346C22.7754 361.965 22.8346 362.517 22.9531 363ZM21.709 360.888V359.596C20.7474 359.682 20.0866 359.764 19.7266 359.842C19.3711 359.915 19.0612 360.054 18.7969 360.259C18.5371 360.464 18.4072 360.742 18.4072 361.093C18.4072 361.412 18.5189 361.669 18.7422 361.865C18.9655 362.061 19.2503 362.159 19.5967 362.159C19.9749 362.159 20.3509 362.048 20.7246 361.824C21.0983 361.596 21.4264 361.284 21.709 360.888ZM26.7607 356.8C26.9977 356.472 27.3167 356.207 27.7178 356.007C28.1234 355.806 28.5495 355.706 28.9961 355.706C29.8164 355.706 30.459 356.046 30.9238 356.725C31.3932 357.399 31.6279 358.279 31.6279 359.363C31.6279 360.457 31.3818 361.368 30.8896 362.098C30.402 362.822 29.7435 363.185 28.9141 363.185C28.472 363.185 28.0573 363.075 27.6699 362.856C27.2871 362.633 26.984 362.339 26.7607 361.975V365.816H25.6943V355.877H26.7607V356.8ZM26.7607 357.859V360.819C26.9613 361.22 27.2324 361.555 27.5742 361.824C27.916 362.093 28.2692 362.228 28.6338 362.228C29.208 362.228 29.6637 361.959 30.001 361.421C30.3428 360.883 30.5137 360.215 30.5137 359.418C30.5137 358.598 30.3519 357.928 30.0283 357.408C29.7048 356.889 29.2536 356.629 28.6748 356.629C27.9229 356.629 27.2848 357.039 26.7607 357.859ZM41.0342 366.049H32.6328V365.153H41.0342V366.049ZM47.4805 363H44.5684V354.277H42.709V353.354H45.6348V362.077H47.4805V363ZM54.1113 353.184C54.3118 353.184 54.4827 353.257 54.624 353.402C54.7653 353.544 54.8359 353.715 54.8359 353.915C54.8359 354.125 54.7653 354.3 54.624 354.441C54.4873 354.583 54.3164 354.653 54.1113 354.653C53.9245 354.653 53.7581 354.58 53.6123 354.435C53.471 354.284 53.4004 354.111 53.4004 353.915C53.4004 353.719 53.471 353.548 53.6123 353.402C53.7581 353.257 53.9245 353.184 54.1113 353.184ZM54.6309 363H53.5645V356.8H51.4658V355.877H54.6309V363ZM64.0713 356.896C63.4743 356.7 62.9115 356.602 62.3828 356.602C61.804 356.602 61.346 356.7 61.0088 356.896C60.6715 357.087 60.5029 357.344 60.5029 357.668C60.5029 357.873 60.5804 358.053 60.7354 358.208C60.8903 358.358 61.2002 358.5 61.665 358.632L62.6836 358.926C63.153 359.058 63.5358 359.217 63.832 359.404C64.1283 359.587 64.3493 359.81 64.4951 360.074C64.6455 360.334 64.7207 360.637 64.7207 360.983C64.7207 361.662 64.4359 362.2 63.8662 362.597C63.2965 362.989 62.5719 363.185 61.6924 363.185C60.8174 363.185 60.0951 363.052 59.5254 362.788L59.7305 361.865C60.3275 362.148 60.9678 362.289 61.6514 362.289C62.2438 362.289 62.7246 362.18 63.0938 361.961C63.4674 361.738 63.6543 361.444 63.6543 361.079C63.6543 360.833 63.5609 360.614 63.374 360.423C63.1917 360.227 62.7588 360.024 62.0752 359.814C61.5238 359.646 61.1182 359.521 60.8584 359.438C60.5986 359.352 60.3571 359.227 60.1338 359.062C59.9105 358.898 59.7396 358.702 59.6211 358.475C59.5072 358.247 59.4502 357.992 59.4502 357.709C59.4502 357.094 59.7191 356.606 60.2568 356.246C60.7946 355.886 61.5078 355.706 62.3965 355.706C62.9707 355.706 63.6087 355.804 64.3105 356L64.0713 356.896ZM73.293 362.679C72.5775 363.007 71.8734 363.171 71.1807 363.171C69.9092 363.171 69.2734 362.499 69.2734 361.154V356.8H67.9062V355.877H69.2734V353.929H70.3125V355.877H72.7324V356.8H70.3125V360.874C70.3125 361.307 70.4082 361.644 70.5996 361.886C70.791 362.123 71.0508 362.241 71.3789 362.241C71.9622 362.241 72.5387 362.111 73.1084 361.852L73.293 362.679ZM90.5127 357.135H84.0459V356.239H90.5127V357.135ZM90.5127 359.876H84.0459V358.98H90.5127V359.876Z" fill="black"/>
<path d="M117.859 322.717V323.936C117.859 324.994 117.607 325.832 117.104 326.449C116.709 326.934 116.211 327.176 115.609 327.176C115.32 327.176 115.047 327.117 114.789 327C114.535 326.887 114.318 326.727 114.139 326.52C114.025 326.391 113.9 326.184 113.764 325.898C113.631 325.613 113.535 325.352 113.477 325.113C113.387 324.777 113.342 324.385 113.342 323.936V322.717C113.342 321.654 113.594 320.814 114.098 320.197C114.492 319.713 114.99 319.471 115.592 319.471C115.885 319.471 116.158 319.529 116.412 319.646C116.666 319.76 116.883 319.92 117.062 320.127C117.18 320.26 117.305 320.469 117.438 320.754C117.57 321.039 117.668 321.299 117.73 321.533C117.816 321.869 117.859 322.264 117.859 322.717ZM117.367 322.781C117.367 322.316 117.301 321.885 117.168 321.486C117.039 321.084 116.893 320.764 116.729 320.525C116.631 320.389 116.504 320.271 116.348 320.174C116.125 320.037 115.875 319.969 115.598 319.969C115.047 319.969 114.615 320.25 114.303 320.812C113.99 321.375 113.834 322.031 113.834 322.781V323.865C113.834 324.33 113.898 324.764 114.027 325.166C114.16 325.568 114.311 325.889 114.479 326.127C114.572 326.26 114.697 326.375 114.854 326.473C115.076 326.613 115.328 326.684 115.609 326.684C116.156 326.684 116.586 326.402 116.898 325.84C117.211 325.273 117.367 324.615 117.367 323.865V322.781Z" fill="#00E914"/>
<path d="M143.844 319.547V326.508H145.531C145.648 326.508 145.732 326.531 145.783 326.578C145.834 326.621 145.859 326.68 145.859 326.754C145.859 326.824 145.834 326.883 145.783 326.93C145.732 326.977 145.648 327 145.531 327H141.664C141.547 327 141.463 326.977 141.412 326.93C141.361 326.883 141.336 326.824 141.336 326.754C141.336 326.68 141.361 326.621 141.412 326.578C141.463 326.531 141.547 326.508 141.664 326.508H143.352V320.227L141.746 320.73C141.668 320.754 141.611 320.766 141.576 320.766C141.518 320.766 141.463 320.742 141.412 320.695C141.365 320.645 141.342 320.586 141.342 320.52C141.342 320.461 141.361 320.406 141.4 320.355C141.432 320.324 141.496 320.291 141.594 320.256L143.844 319.547Z" fill="#3900E9"/>
<path d="M168.482 326.508H172.262V326.314C172.262 326.197 172.285 326.113 172.332 326.062C172.379 326.012 172.439 325.986 172.514 325.986C172.584 325.986 172.643 326.012 172.689 326.062C172.736 326.113 172.76 326.197 172.76 326.314V327H168.002V326.273C169.002 325.375 169.975 324.461 170.92 323.531C171.361 323.098 171.664 322.779 171.828 322.576C171.992 322.373 172.104 322.195 172.162 322.043C172.225 321.887 172.256 321.73 172.256 321.574C172.256 321.152 172.086 320.779 171.746 320.455C171.406 320.131 170.996 319.969 170.516 319.969C170.086 319.969 169.705 320.092 169.373 320.338C169.041 320.584 168.826 320.889 168.729 321.252C168.705 321.346 168.676 321.406 168.641 321.434C168.594 321.473 168.539 321.492 168.477 321.492C168.41 321.492 168.354 321.471 168.307 321.428C168.264 321.381 168.242 321.326 168.242 321.264C168.242 321.076 168.344 320.822 168.547 320.502C168.754 320.182 169.037 319.93 169.396 319.746C169.76 319.562 170.131 319.471 170.51 319.471C171.123 319.471 171.65 319.684 172.092 320.109C172.533 320.535 172.754 321.018 172.754 321.557C172.754 321.783 172.717 321.992 172.643 322.184C172.568 322.371 172.441 322.578 172.262 322.805C172.086 323.027 171.768 323.365 171.307 323.818C170.15 324.959 169.209 325.844 168.482 326.473V326.508Z" fill="black"/>
<path d="M198.611 322.998C199.064 323.201 199.41 323.48 199.648 323.836C199.887 324.188 200.006 324.555 200.006 324.938C200.006 325.527 199.766 326.049 199.285 326.502C198.809 326.951 198.211 327.176 197.492 327.176C197.07 327.176 196.633 327.086 196.18 326.906C195.727 326.727 195.41 326.543 195.23 326.355C195.172 326.293 195.143 326.227 195.143 326.156C195.143 326.094 195.164 326.039 195.207 325.992C195.254 325.945 195.309 325.922 195.371 325.922C195.434 325.922 195.504 325.951 195.582 326.01C196.188 326.459 196.828 326.684 197.504 326.684C198.074 326.684 198.551 326.506 198.934 326.15C199.32 325.791 199.514 325.393 199.514 324.955C199.514 324.662 199.418 324.375 199.227 324.094C199.039 323.812 198.768 323.592 198.412 323.432C198.057 323.268 197.697 323.186 197.334 323.186C197.217 323.186 197.133 323.164 197.082 323.121C197.031 323.074 197.006 323.014 197.006 322.939C197.006 322.869 197.029 322.811 197.076 322.764C197.127 322.717 197.201 322.693 197.299 322.693L197.721 322.699C198.162 322.699 198.525 322.564 198.811 322.295C199.1 322.025 199.244 321.713 199.244 321.357C199.244 320.99 199.094 320.666 198.793 320.385C198.492 320.104 198.1 319.963 197.615 319.963C197.275 319.963 196.963 320.021 196.678 320.139C196.393 320.256 196.164 320.416 195.992 320.619C195.93 320.697 195.881 320.746 195.846 320.766C195.814 320.781 195.777 320.789 195.734 320.789C195.668 320.789 195.611 320.768 195.564 320.725C195.518 320.678 195.494 320.623 195.494 320.561C195.494 320.404 195.664 320.207 196.004 319.969C196.477 319.637 197.014 319.471 197.615 319.471C198.236 319.471 198.746 319.658 199.145 320.033C199.543 320.404 199.742 320.848 199.742 321.363C199.742 321.691 199.646 322.002 199.455 322.295C199.264 322.588 198.982 322.822 198.611 322.998Z" fill="black"/>
<path d="M224.518 324.943H221.254V324.375L223.99 319.646H225.016V324.451H225.426C225.547 324.451 225.633 324.475 225.684 324.521C225.734 324.564 225.76 324.623 225.76 324.697C225.76 324.768 225.734 324.826 225.684 324.873C225.633 324.92 225.547 324.943 225.426 324.943H225.016V326.508H225.426C225.547 326.508 225.633 326.531 225.684 326.578C225.734 326.621 225.76 326.68 225.76 326.754C225.76 326.824 225.734 326.883 225.684 326.93C225.633 326.977 225.547 327 225.426 327H223.598C223.477 327 223.391 326.977 223.34 326.93C223.289 326.883 223.264 326.824 223.264 326.754C223.264 326.68 223.289 326.621 223.34 326.578C223.391 326.531 223.477 326.508 223.598 326.508H224.518V324.943ZM224.518 324.451V320.145H224.26L221.77 324.451H224.518Z" fill="black"/>
<path d="M249.244 320.145V322.553C249.533 322.432 249.811 322.342 250.076 322.283C250.342 322.221 250.594 322.189 250.832 322.189C251.449 322.189 251.965 322.406 252.379 322.84C252.797 323.273 253.006 323.844 253.006 324.551C253.006 325.332 252.771 325.965 252.303 326.449C251.834 326.934 251.248 327.176 250.545 327.176C250.08 327.176 249.633 327.072 249.203 326.865C248.898 326.721 248.621 326.541 248.371 326.326C248.223 326.197 248.148 326.09 248.148 326.004C248.148 325.934 248.172 325.875 248.219 325.828C248.266 325.777 248.32 325.752 248.383 325.752C248.449 325.752 248.52 325.787 248.594 325.857C249.184 326.408 249.826 326.684 250.521 326.684C251.096 326.684 251.57 326.488 251.945 326.098C252.32 325.703 252.508 325.18 252.508 324.527C252.508 323.973 252.346 323.527 252.021 323.191C251.697 322.852 251.285 322.682 250.785 322.682C250.273 322.682 249.762 322.816 249.25 323.086C249.125 323.148 249.037 323.18 248.986 323.18C248.916 323.18 248.859 323.156 248.816 323.109C248.773 323.062 248.752 322.996 248.752 322.91V319.646H252.186C252.303 319.646 252.387 319.67 252.438 319.717C252.488 319.764 252.514 319.824 252.514 319.898C252.514 319.969 252.488 320.027 252.438 320.074C252.387 320.121 252.303 320.145 252.186 320.145H249.244Z" fill="black"/>
<path d="M277.133 323.889C277.438 323.439 277.75 323.107 278.07 322.893C278.395 322.678 278.754 322.57 279.148 322.57C279.672 322.57 280.137 322.789 280.543 323.227C280.949 323.66 281.152 324.197 281.152 324.838C281.152 325.424 280.967 325.961 280.596 326.449C280.225 326.934 279.713 327.176 279.061 327.176C278.635 327.176 278.236 327.045 277.865 326.783C277.498 326.521 277.209 326.119 276.998 325.576C276.736 324.9 276.605 324.152 276.605 323.332C276.605 322.715 276.729 322.141 276.975 321.609C277.162 321.199 277.412 320.84 277.725 320.531C278.037 320.219 278.4 319.965 278.814 319.77C279.232 319.57 279.684 319.471 280.168 319.471C280.496 319.471 280.77 319.537 280.988 319.67C281.082 319.729 281.129 319.807 281.129 319.904C281.129 319.975 281.107 320.033 281.064 320.08C281.021 320.123 280.967 320.145 280.9 320.145C280.85 320.145 280.789 320.125 280.719 320.086C280.559 320.008 280.359 319.969 280.121 319.969C279.359 319.969 278.664 320.297 278.035 320.953C277.41 321.605 277.098 322.383 277.098 323.285C277.098 323.414 277.109 323.615 277.133 323.889ZM277.244 324.703C277.393 325.414 277.625 325.922 277.941 326.227C278.262 326.531 278.639 326.684 279.072 326.684C279.51 326.684 279.883 326.514 280.191 326.174C280.504 325.83 280.66 325.385 280.66 324.838C280.66 324.326 280.504 323.902 280.191 323.566C279.879 323.23 279.525 323.062 279.131 323.062C278.752 323.062 278.387 323.225 278.035 323.549C277.801 323.764 277.537 324.148 277.244 324.703Z" fill="black"/>
<path d="M306.256 320.367V320.145H302.729V320.578C302.729 320.695 302.705 320.779 302.658 320.83C302.615 320.881 302.557 320.906 302.482 320.906C302.412 320.906 302.354 320.881 302.307 320.83C302.26 320.779 302.236 320.695 302.236 320.578V319.646H306.754V320.432L304.773 326.76C304.742 326.861 304.705 326.93 304.662 326.965C304.619 326.996 304.57 327.012 304.516 327.012C304.445 327.012 304.387 326.988 304.34 326.941C304.293 326.895 304.27 326.84 304.27 326.777C304.27 326.738 304.281 326.684 304.305 326.613L306.256 320.367Z" fill="black"/>
<path d="M331.611 323.186C332.021 323.385 332.33 323.648 332.537 323.977C332.748 324.301 332.854 324.65 332.854 325.025C332.854 325.607 332.635 326.111 332.197 326.537C331.76 326.963 331.229 327.176 330.604 327.176C329.979 327.176 329.447 326.963 329.01 326.537C328.572 326.111 328.354 325.607 328.354 325.025C328.354 324.654 328.457 324.307 328.664 323.982C328.875 323.654 329.188 323.389 329.602 323.186C329.242 322.979 328.98 322.764 328.816 322.541C328.59 322.225 328.477 321.875 328.477 321.492C328.477 320.953 328.684 320.482 329.098 320.08C329.516 319.674 330.018 319.471 330.604 319.471C331.193 319.471 331.695 319.674 332.109 320.08C332.523 320.482 332.73 320.953 332.73 321.492C332.73 321.875 332.617 322.223 332.391 322.535C332.23 322.762 331.971 322.979 331.611 323.186ZM332.227 321.51C332.227 321.088 332.068 320.727 331.752 320.426C331.439 320.121 331.055 319.969 330.598 319.969C330.145 319.969 329.76 320.121 329.443 320.426C329.131 320.73 328.975 321.09 328.975 321.504C328.975 321.887 329.129 322.223 329.438 322.512C329.75 322.797 330.137 322.939 330.598 322.939C331.062 322.939 331.449 322.797 331.758 322.512C332.07 322.223 332.227 321.889 332.227 321.51ZM332.361 325.037C332.361 324.604 332.193 324.227 331.857 323.906C331.521 323.586 331.104 323.426 330.604 323.426C330.104 323.426 329.686 323.586 329.35 323.906C329.014 324.227 328.846 324.602 328.846 325.031C328.846 325.477 329.014 325.863 329.35 326.191C329.689 326.52 330.107 326.684 330.604 326.684C331.1 326.684 331.516 326.52 331.852 326.191C332.191 325.863 332.361 325.479 332.361 325.037Z" fill="black"/>
<path d="M360.619 322.84C360.365 323.289 360.062 323.627 359.711 323.854C359.363 324.08 359.006 324.193 358.639 324.193C358.299 324.193 357.969 324.096 357.648 323.9C357.332 323.705 357.08 323.42 356.893 323.045C356.705 322.666 356.611 322.27 356.611 321.855C356.611 321.254 356.797 320.707 357.168 320.215C357.543 319.719 358.043 319.471 358.668 319.471C359.113 319.471 359.52 319.609 359.887 319.887C360.254 320.164 360.539 320.566 360.742 321.094C361.004 321.77 361.135 322.555 361.135 323.449C361.135 324.145 361.023 324.723 360.801 325.184C360.652 325.496 360.434 325.799 360.145 326.092C359.859 326.385 359.537 326.623 359.178 326.807C358.686 327.053 358.174 327.176 357.643 327.176C357.291 327.176 357.004 327.109 356.781 326.977C356.68 326.914 356.629 326.836 356.629 326.742C356.629 326.676 356.652 326.621 356.699 326.578C356.746 326.531 356.803 326.508 356.869 326.508C356.916 326.508 356.984 326.529 357.074 326.572C357.227 326.646 357.402 326.684 357.602 326.684C358.434 326.684 359.148 326.385 359.746 325.787C360.344 325.186 360.643 324.434 360.643 323.531C360.643 323.367 360.635 323.137 360.619 322.84ZM360.525 322.02C360.318 321.227 360.061 320.688 359.752 320.402C359.447 320.113 359.09 319.969 358.68 319.969C358.262 319.969 357.895 320.145 357.578 320.496C357.262 320.848 357.104 321.299 357.104 321.85C357.104 322.385 357.262 322.828 357.578 323.18C357.895 323.527 358.252 323.701 358.65 323.701C358.881 323.701 359.107 323.639 359.33 323.514C359.557 323.389 359.77 323.201 359.969 322.951C360.098 322.783 360.283 322.473 360.525 322.02Z" fill="black"/>
<path d="M381.844 319.547V326.508H383.531C383.648 326.508 383.732 326.531 383.783 326.578C383.834 326.621 383.859 326.68 383.859 326.754C383.859 326.824 383.834 326.883 383.783 326.93C383.732 326.977 383.648 327 383.531 327H379.664C379.547 327 379.463 326.977 379.412 326.93C379.361 326.883 379.336 326.824 379.336 326.754C379.336 326.68 379.361 326.621 379.412 326.578C379.463 326.531 379.547 326.508 379.664 326.508H381.352V320.227L379.746 320.73C379.668 320.754 379.611 320.766 379.576 320.766C379.518 320.766 379.463 320.742 379.412 320.695C379.365 320.645 379.342 320.586 379.342 320.52C379.342 320.461 379.361 320.406 379.4 320.355C379.432 320.324 379.496 320.291 379.594 320.256L381.844 319.547ZM391.066 322.717V323.936C391.066 324.994 390.814 325.832 390.311 326.449C389.916 326.934 389.418 327.176 388.816 327.176C388.527 327.176 388.254 327.117 387.996 327C387.742 326.887 387.525 326.727 387.346 326.52C387.232 326.391 387.107 326.184 386.971 325.898C386.838 325.613 386.742 325.352 386.684 325.113C386.594 324.777 386.549 324.385 386.549 323.936V322.717C386.549 321.654 386.801 320.814 387.305 320.197C387.699 319.713 388.197 319.471 388.799 319.471C389.092 319.471 389.365 319.529 389.619 319.646C389.873 319.76 390.09 319.92 390.27 320.127C390.387 320.26 390.512 320.469 390.645 320.754C390.777 321.039 390.875 321.299 390.938 321.533C391.023 321.869 391.066 322.264 391.066 322.717ZM390.574 322.781C390.574 322.316 390.508 321.885 390.375 321.486C390.246 321.084 390.1 320.764 389.936 320.525C389.838 320.389 389.711 320.271 389.555 320.174C389.332 320.037 389.082 319.969 388.805 319.969C388.254 319.969 387.822 320.25 387.51 320.812C387.197 321.375 387.041 322.031 387.041 322.781V323.865C387.041 324.33 387.105 324.764 387.234 325.166C387.367 325.568 387.518 325.889 387.686 326.127C387.779 326.26 387.904 326.375 388.061 326.473C388.283 326.613 388.535 326.684 388.816 326.684C389.363 326.684 389.793 326.402 390.105 325.84C390.418 325.273 390.574 324.615 390.574 323.865V322.781Z" fill="black"/>
<path d="M49.3438 328H44.9619V327.022H46.623V319.332H44.9619V318.354H49.3438V319.332H47.7441V327.022H49.3438V328ZM58.3672 328H57.3008V323.434C57.3008 322.8 57.1982 322.342 56.9932 322.06C56.7926 321.772 56.4759 321.629 56.043 321.629C55.3913 321.629 54.6917 322.035 53.9443 322.846V328H52.8779V320.877H53.9443V321.923C54.71 321.112 55.5166 320.706 56.3643 320.706C57.6995 320.706 58.3672 321.513 58.3672 323.126V328ZM66.748 328H65.6816V326.975C65.4629 327.326 65.1484 327.615 64.7383 327.843C64.3327 328.071 63.9043 328.185 63.4531 328.185C62.6374 328.185 61.9925 327.822 61.5186 327.098C61.0446 326.368 60.8076 325.446 60.8076 324.329C60.8076 323.285 61.0537 322.422 61.5459 321.738C62.0426 321.05 62.6989 320.706 63.5146 320.706C64.4124 320.706 65.1348 321.071 65.6816 321.8V318.354H66.748V328ZM65.6816 325.819V322.859C65.1712 322.039 64.556 321.629 63.8359 321.629C63.248 321.629 62.7832 321.891 62.4414 322.415C62.0996 322.935 61.9287 323.593 61.9287 324.391C61.9287 325.211 62.0882 325.89 62.4072 326.428C62.7308 326.961 63.1729 327.228 63.7334 327.228C64.0023 327.228 64.2734 327.155 64.5469 327.009C64.8203 326.863 65.0778 326.644 65.3193 326.353C65.5609 326.061 65.6816 325.883 65.6816 325.819ZM75.3955 324.473H70.5078C70.5078 325.279 70.7402 325.945 71.2051 326.469C71.6745 326.993 72.2487 327.255 72.9277 327.255C73.5749 327.255 74.2425 327.139 74.9307 326.906L75.1152 327.761C74.4863 328.043 73.7526 328.185 72.9141 328.185C71.8568 328.185 71.0046 327.845 70.3574 327.166C69.7103 326.487 69.3867 325.571 69.3867 324.418C69.3867 323.288 69.6761 322.388 70.2549 321.718C70.8382 321.043 71.5902 320.706 72.5107 320.706C73.3311 320.706 74.0169 321.018 74.5684 321.643C75.1198 322.267 75.3955 323.099 75.3955 324.138V324.473ZM74.2334 323.604C74.2334 323.049 74.0602 322.581 73.7139 322.203C73.3675 321.82 72.9801 321.629 72.5518 321.629C72.0003 321.629 71.5423 321.811 71.1777 322.176C70.8177 322.54 70.6172 323.017 70.5762 323.604H74.2334ZM83.8447 328H82.6416L80.7344 325.211L78.7588 328H77.624L80.1602 324.432L77.624 320.877H78.8477L80.7617 323.646L82.71 320.877H83.8447L81.3223 324.391L83.8447 328ZM89.1836 320.774C89.416 320.774 89.612 320.854 89.7715 321.014C89.931 321.169 90.0107 321.36 90.0107 321.588C90.0107 321.816 89.931 322.009 89.7715 322.169C89.612 322.324 89.416 322.401 89.1836 322.401C88.9557 322.401 88.762 322.324 88.6025 322.169C88.4476 322.009 88.3701 321.816 88.3701 321.588C88.3701 321.36 88.4476 321.169 88.6025 321.014C88.762 320.854 88.9557 320.774 89.1836 320.774ZM89.1836 326.489C89.416 326.489 89.612 326.567 89.7715 326.722C89.931 326.877 90.0107 327.07 90.0107 327.303C90.0107 327.531 89.931 327.722 89.7715 327.877C89.612 328.032 89.416 328.109 89.1836 328.109C88.9557 328.109 88.762 328.032 88.6025 327.877C88.4476 327.722 88.3701 327.531 88.3701 327.303C88.3701 327.07 88.4476 326.877 88.6025 326.722C88.762 326.567 88.9557 326.489 89.1836 326.489Z" fill="black"/>
<path d="M131.875 609.107C141.262 609.107 148.872 601.472 148.872 592.054C148.872 582.635 141.262 575 131.875 575C122.488 575 114.878 582.635 114.878 592.054C114.878 601.472 122.488 609.107 131.875 609.107Z" stroke="black"/>
<path d="M131.884 590.132C132.346 590.261 132.716 590.497 132.996 590.841C133.275 591.181 133.415 591.564 133.415 591.99C133.415 592.656 133.155 593.217 132.636 593.672C132.117 594.123 131.504 594.348 130.799 594.348C130.197 594.348 129.658 594.216 129.182 593.951L129.354 593.226C129.852 593.459 130.344 593.575 130.831 593.575C131.289 593.575 131.68 593.433 132.002 593.151C132.328 592.864 132.491 592.497 132.491 592.049C132.491 591.609 132.317 591.251 131.97 590.975C131.622 590.7 131.162 590.562 130.589 590.562H130.358V589.837H130.423C130.974 589.837 131.429 589.708 131.787 589.45C132.145 589.188 132.324 588.838 132.324 588.397C132.324 588.039 132.195 587.76 131.938 587.559C131.68 587.355 131.325 587.253 130.874 587.253C130.484 587.253 130.047 587.359 129.564 587.57L129.445 586.813C129.932 586.591 130.423 586.48 130.917 586.48C131.594 586.48 132.151 586.659 132.587 587.017C133.028 587.371 133.248 587.828 133.248 588.386C133.248 588.773 133.114 589.135 132.845 589.471C132.58 589.804 132.26 590.014 131.884 590.1V590.132Z" fill="black"/>
<path d="M82.8751 609.107C92.2624 609.107 99.8723 601.472 99.8723 592.054C99.8723 582.635 92.2624 575 82.8751 575C73.4878 575 65.8779 582.635 65.8779 592.054C65.8779 601.472 73.4878 609.107 82.8751 609.107Z" stroke="black"/>
<path d="M84.8765 592.452H83.942V594.203H83.0611V592.452H79.7632V591.781L82.7549 586.625H83.942V591.684H84.8765V592.452ZM83.0611 591.684V587.495L80.6548 591.684H83.0611Z" fill="black"/>
<path d="M24.9972 609.107C34.3846 609.107 41.9945 601.472 41.9945 592.054C41.9945 582.635 34.3846 575 24.9972 575C15.6099 575 8 582.635 8 592.054C8 601.472 15.6099 609.107 24.9972 609.107Z" stroke="black"/>
<path d="M26.5045 594.203H22.3365V593.564C23.3929 592.386 24.0786 591.597 24.3937 591.195C24.7088 590.794 24.9648 590.374 25.1617 589.933C25.3587 589.493 25.4572 589.054 25.4572 588.617C25.4572 588.195 25.3282 587.862 25.0704 587.618C24.8162 587.375 24.4581 587.253 23.9962 587.253C23.6417 587.253 23.1655 587.362 22.5675 587.581L22.444 586.823C22.9847 586.594 23.5504 586.48 24.1412 586.48C24.818 586.48 25.3623 586.671 25.774 587.054C26.1894 587.434 26.3971 587.942 26.3971 588.58C26.3971 589.035 26.2897 589.486 26.0748 589.933C25.8636 590.381 25.5914 590.811 25.2584 591.222C24.9254 591.634 24.2773 592.372 23.3141 593.435H26.5045V594.203Z" fill="black"/>
<path d="M339.196 539.107C348.583 539.107 356.193 531.472 356.193 522.054C356.193 512.635 348.583 505 339.196 505C329.808 505 322.198 512.635 322.198 522.054C322.198 531.472 329.808 539.107 339.196 539.107Z" stroke="black"/>
<path d="M340.998 517.253L337.996 524.203H337.094L340.053 517.393H336.503V516.625H340.998V517.253Z" fill="black"/>
<path d="M249.425 539.107C258.812 539.107 266.422 531.472 266.422 522.054C266.422 512.635 258.812 505 249.425 505C240.037 505 232.427 512.635 232.427 522.054C232.427 531.472 240.037 539.107 249.425 539.107Z" stroke="black"/>
<path d="M247.607 520.256C248.08 519.872 248.594 519.681 249.149 519.681C249.79 519.681 250.323 519.887 250.749 520.299C251.179 520.707 251.394 521.235 251.394 521.883C251.394 522.596 251.204 523.185 250.825 523.65C250.445 524.116 249.938 524.348 249.305 524.348C248.495 524.348 247.854 523.978 247.382 523.236C246.909 522.492 246.673 521.582 246.673 520.508C246.673 519.362 246.918 518.404 247.409 517.634C247.903 516.865 248.578 516.48 249.433 516.48C250.024 516.48 250.535 516.567 250.964 516.743L250.825 517.527C250.327 517.344 249.872 517.253 249.46 517.253C248.877 517.253 248.422 517.532 248.096 518.091C247.77 518.65 247.607 519.371 247.607 520.256ZM247.634 521.013C247.634 521.661 247.786 522.25 248.091 522.78C248.395 523.31 248.778 523.575 249.24 523.575C249.63 523.575 249.931 523.432 250.142 523.145C250.354 522.859 250.459 522.463 250.459 521.958C250.459 521.493 250.343 521.126 250.11 520.857C249.877 520.589 249.55 520.454 249.127 520.454C248.579 520.454 248.082 520.64 247.634 521.013Z" fill="black"/>
<path d="M135.5 574.5L144.5 538.5" stroke="black" stroke-linecap="square"/>
<path d="M149.679 539.107C159.066 539.107 166.676 531.472 166.676 522.054C166.676 512.635 159.066 505 149.679 505C140.292 505 132.682 512.635 132.682 522.054C132.682 531.472 140.292 539.107 149.679 539.107Z" stroke="black"/>
<path d="M150.66 520.562C150.223 520.945 149.709 521.136 149.119 521.136C148.478 521.136 147.942 520.932 147.513 520.524C147.087 520.112 146.873 519.582 146.873 518.934C146.873 518.24 147.078 517.656 147.486 517.183C147.898 516.707 148.428 516.469 149.076 516.469C149.867 516.469 150.485 516.831 150.929 517.554C151.373 518.277 151.595 519.196 151.595 520.309C151.595 521.423 151.333 522.374 150.81 523.161C150.291 523.945 149.595 524.338 148.721 524.338C148.134 524.338 147.625 524.248 147.196 524.069L147.335 523.29C147.83 523.473 148.284 523.564 148.7 523.564C149.294 523.564 149.768 523.276 150.123 522.699C150.481 522.123 150.66 521.41 150.66 520.562ZM150.639 519.804C150.639 519.124 150.501 518.528 150.225 518.016C149.949 517.5 149.588 517.242 149.14 517.242C148.735 517.242 148.411 517.393 148.168 517.694C147.928 517.991 147.808 518.379 147.808 518.859C147.808 519.299 147.93 519.661 148.173 519.944C148.42 520.223 148.743 520.363 149.14 520.363C149.688 520.363 150.164 520.195 150.569 519.858L150.639 519.804Z" fill="black"/>
<path d="M49.3944 535.5L29.5 575.5" stroke="black" stroke-linecap="square"/>
<path d="M66.5 538.5L77.5 575.5" stroke="black" stroke-linecap="square"/>
<path d="M59.9082 539.107C69.2955 539.107 76.9054 531.472 76.9054 522.054C76.9054 512.635 69.2955 505 59.9082 505C50.5209 505 42.9109 512.635 42.9109 522.054C42.9109 531.472 50.5209 539.107 59.9082 539.107Z" stroke="black"/>
<path d="M58.4775 519.681C58.721 519.616 58.9591 519.584 59.1918 519.584C59.908 519.584 60.4737 519.804 60.8891 520.245C61.3045 520.682 61.5121 521.228 61.5121 521.883C61.5121 522.57 61.2704 523.154 60.787 523.634C60.3036 524.11 59.7146 524.348 59.02 524.348C58.3575 524.348 57.8025 524.237 57.3549 524.015L57.5322 523.269C58.0191 523.473 58.5222 523.575 59.0414 523.575C59.5034 523.575 59.8758 523.426 60.1586 523.129C60.4451 522.832 60.5883 522.417 60.5883 521.883C60.5883 521.378 60.454 520.99 60.1855 520.717C59.9169 520.445 59.5714 520.309 59.1489 520.309C58.8409 520.309 58.5366 520.368 58.2358 520.486L57.7094 520.245V516.625H61.1738V517.393H58.4775V519.681Z" fill="black"/>
<path d="M274.819 476.5L256.865 506.5" stroke="black" stroke-linecap="square"/>
<path d="M297.761 473.5L327.684 508.5" stroke="black" stroke-linecap="square"/>
<path d="M284.336 479.107C293.723 479.107 301.333 471.472 301.333 462.054C301.333 452.635 293.723 445 284.336 445C274.948 445 267.338 452.635 267.338 462.054C267.338 471.472 274.948 479.107 284.336 479.107Z" stroke="black"/>
<path d="M284.634 460.046C285.15 460.196 285.549 460.452 285.832 460.814C286.119 461.176 286.262 461.598 286.262 462.082C286.262 462.776 286.031 463.328 285.569 463.736C285.111 464.144 284.545 464.348 283.872 464.348C283.166 464.348 282.586 464.142 282.132 463.731C281.68 463.319 281.455 462.773 281.455 462.092C281.455 461.613 281.602 461.19 281.895 460.825C282.189 460.46 282.599 460.2 283.125 460.046C282.706 459.939 282.37 459.733 282.115 459.428C281.865 459.12 281.739 458.777 281.739 458.397C281.739 457.91 281.933 457.47 282.319 457.076C282.706 456.678 283.216 456.48 283.85 456.48C284.477 456.48 284.994 456.677 285.402 457.07C285.814 457.464 286.02 457.907 286.02 458.397C286.02 458.766 285.891 459.106 285.633 459.418C285.376 459.726 285.043 459.935 284.634 460.046ZM283.85 459.681C283.868 459.681 283.954 459.659 284.108 459.616C284.262 459.573 284.393 459.521 284.5 459.461C284.611 459.396 284.713 459.316 284.806 459.219C284.899 459.122 284.975 459.009 285.032 458.881C285.089 458.748 285.118 458.601 285.118 458.44C285.118 458.096 284.994 457.812 284.747 457.586C284.5 457.357 284.201 457.242 283.85 457.242C283.51 457.242 283.218 457.359 282.975 457.591C282.731 457.824 282.61 458.107 282.61 458.44C282.61 458.651 282.652 458.836 282.738 458.993C282.828 459.151 282.937 459.278 283.066 459.375C283.199 459.471 283.349 459.547 283.517 459.6C283.689 459.654 283.8 459.681 283.85 459.681ZM283.85 460.433C282.869 460.719 282.379 461.258 282.379 462.049C282.379 462.511 282.527 462.882 282.824 463.161C283.122 463.437 283.471 463.575 283.872 463.575C284.287 463.575 284.636 463.439 284.919 463.167C285.206 462.891 285.349 462.519 285.349 462.049C285.349 461.695 285.25 461.378 285.053 461.099C284.856 460.816 284.455 460.594 283.85 460.433Z" fill="black"/>
<path d="M102.26 474.5L70.5 508.5" stroke="black" stroke-linecap="square"/>
<path d="M125.201 475.5L142.158 506.5" stroke="black" stroke-linecap="square"/>
<path d="M114.768 479.107C124.156 479.107 131.765 471.472 131.765 462.054C131.765 452.635 124.156 445 114.768 445C105.381 445 97.771 452.635 97.771 462.054C97.771 471.472 105.381 479.107 114.768 479.107Z" stroke="#3900E9"/>
<path d="M113.474 464.203H109.489V463.435H111.095V457.549L109.58 458.306V457.425L111.218 456.582H111.976V463.435H113.474V464.203ZM117.9 456.48C118.702 456.48 119.318 456.825 119.748 457.516C120.181 458.204 120.398 459.171 120.398 460.417C120.398 461.623 120.188 462.581 119.769 463.29C119.35 463.996 118.727 464.348 117.9 464.348C117.102 464.348 116.486 464.005 116.052 463.317C115.619 462.63 115.402 461.663 115.402 460.417C115.402 459.206 115.612 458.249 116.031 457.543C116.453 456.834 117.076 456.48 117.9 456.48ZM117.9 463.575C118.43 463.575 118.822 463.324 119.076 462.823C119.334 462.318 119.463 461.516 119.463 460.417C119.463 459.314 119.334 458.514 119.076 458.016C118.822 457.514 118.43 457.264 117.9 457.264C117.377 457.264 116.987 457.52 116.729 458.032C116.471 458.544 116.342 459.339 116.342 460.417C116.342 461.509 116.47 462.309 116.724 462.818C116.982 463.322 117.374 463.575 117.9 463.575ZM117.879 459.611C118.104 459.611 118.294 459.69 118.448 459.847C118.605 460.001 118.684 460.191 118.684 460.417C118.684 460.649 118.605 460.85 118.448 461.018C118.29 461.183 118.101 461.265 117.879 461.265C117.66 461.265 117.472 461.183 117.315 461.018C117.161 460.85 117.084 460.649 117.084 460.417C117.084 460.188 117.159 459.996 117.309 459.842C117.463 459.688 117.653 459.611 117.879 459.611Z" fill="black"/>
<path d="M185.048 421.5L130.188 454.5" stroke="black" stroke-linecap="square"/>
<path d="M215.969 418.5L269.832 452.5" stroke="black" stroke-linecap="square"/>
<path d="M199.552 429.107C208.939 429.107 216.549 421.472 216.549 412.054C216.549 402.635 208.939 395 199.552 395C190.165 395 182.555 402.635 182.555 412.054C182.555 421.472 190.165 429.107 199.552 429.107Z" stroke="#00E914"/>
<path d="M198.258 414.203H194.273V413.435H195.879V407.549L194.364 408.306V407.425L196.002 406.582H196.759V413.435H198.258V414.203ZM204.864 414.203H200.879V413.435H202.485V407.549L200.97 408.306V407.425L202.609 406.582H203.366V413.435H204.864V414.203Z" fill="black"/>
<path d="M140.469 465.04C151.916 465.745 161.96 463.163 170.599 457.296C179.238 451.429 184.883 443.355 187.535 433.075" stroke="#CE0202"/>
<path d="M187.742 444.282L187.535 433.075L181.932 442.783" stroke="#CE0202"/>
<path d="M172.716 409.497C161.168 408.887 151.59 411.109 143.983 416.164C136.377 421.219 131.784 428.412 130.207 437.744" stroke="#CE0202"/>
<path d="M129.049 426.595L130.207 437.744L134.965 427.595" stroke="#CE0202"/>
<path d="M372.382 28H344.438V55.973H372.382V28Z" fill="white"/>
<path d="M371.882 28.5H344.938V55.473H371.882V28.5Z" stroke="#979797"/>
<path d="M356.555 36.5482V38.7558C356.82 38.6448 357.074 38.5624 357.318 38.5087C357.561 38.4514 357.792 38.4228 358.011 38.4228C358.576 38.4228 359.049 38.6215 359.429 39.019C359.812 39.4164 360.003 39.9392 360.003 40.5873C360.003 41.3035 359.788 41.8835 359.359 42.3275C358.929 42.7716 358.392 42.9936 357.747 42.9936C357.321 42.9936 356.911 42.8987 356.517 42.7089C356.238 42.5764 355.984 42.4117 355.755 42.2148C355.619 42.0966 355.551 41.9981 355.551 41.9193C355.551 41.8549 355.572 41.8012 355.615 41.7582C355.658 41.7117 355.708 41.6884 355.766 41.6884C355.826 41.6884 355.891 41.7206 355.959 41.7851C356.5 42.2899 357.089 42.5424 357.726 42.5424C358.252 42.5424 358.687 42.3634 359.031 42.0053C359.375 41.6436 359.547 41.1638 359.547 40.5658C359.547 40.0574 359.398 39.6492 359.101 39.3412C358.804 39.0297 358.426 38.8739 357.968 38.8739C357.499 38.8739 357.03 38.9975 356.56 39.2445C356.446 39.3018 356.365 39.3305 356.319 39.3305C356.254 39.3305 356.202 39.309 356.163 39.266C356.124 39.2231 356.104 39.1622 356.104 39.0834V36.0917H359.251C359.359 36.0917 359.436 36.1132 359.482 36.1562C359.529 36.1991 359.552 36.2546 359.552 36.3227C359.552 36.3871 359.529 36.4408 359.482 36.4838C359.436 36.5268 359.359 36.5482 359.251 36.5482H356.555Z" fill="black"/>
<path d="M399.382 28H371.438V55.973H399.382V28Z" fill="white"/>
<path d="M398.882 28.5H371.938V55.473H398.882V28.5Z" stroke="#9B9B9B"/>
<path d="M385.725 39.164C386.14 39.3502 386.457 39.6062 386.676 39.932C386.894 40.2543 387.003 40.5909 387.003 40.9418C387.003 41.4825 386.783 41.9605 386.343 42.3759C385.906 42.7877 385.358 42.9936 384.699 42.9936C384.312 42.9936 383.911 42.9112 383.496 42.7465C383.081 42.5818 382.791 42.4135 382.626 42.2416C382.572 42.1843 382.545 42.1234 382.545 42.059C382.545 42.0017 382.565 41.9516 382.604 41.9086C382.647 41.8656 382.697 41.8441 382.755 41.8441C382.812 41.8441 382.877 41.871 382.948 41.9247C383.503 42.3365 384.09 42.5424 384.71 42.5424C385.233 42.5424 385.669 42.3795 386.02 42.0536C386.375 41.7242 386.552 41.359 386.552 40.9579C386.552 40.6894 386.464 40.4262 386.289 40.1684C386.117 39.9106 385.868 39.7082 385.542 39.5614C385.217 39.411 384.887 39.3358 384.554 39.3358C384.447 39.3358 384.37 39.3162 384.323 39.2768C384.277 39.2338 384.253 39.1783 384.253 39.1103C384.253 39.0458 384.275 38.9921 384.318 38.9491C384.364 38.9062 384.432 38.8847 384.522 38.8847L384.909 38.89C385.313 38.89 385.646 38.7665 385.908 38.5194C386.173 38.2724 386.305 37.9859 386.305 37.6601C386.305 37.3235 386.167 37.0263 385.891 36.7685C385.616 36.5107 385.256 36.3817 384.812 36.3817C384.5 36.3817 384.214 36.4355 383.953 36.5429C383.691 36.6503 383.482 36.7971 383.324 36.9833C383.267 37.0549 383.222 37.0997 383.19 37.1176C383.161 37.1319 383.127 37.1391 383.088 37.1391C383.027 37.1391 382.975 37.1194 382.932 37.08C382.889 37.037 382.868 36.9869 382.868 36.9296C382.868 36.7864 383.023 36.6055 383.335 36.3871C383.768 36.0828 384.26 35.9306 384.812 35.9306C385.381 35.9306 385.849 36.1024 386.214 36.4462C386.579 36.7864 386.762 37.1928 386.762 37.6654C386.762 37.9662 386.674 38.2509 386.498 38.5194C386.323 38.788 386.065 39.0028 385.725 39.164Z" fill="black"/>
<path d="M345.556 28H317.612V55.973H345.556V28Z" fill="white"/>
<path d="M345.056 28.5H318.112V55.473H345.056V28.5Z" stroke="#979797"/>
<path d="M329.03 42.3813H332.495V42.204C332.495 42.0966 332.516 42.0196 332.559 41.9731C332.602 41.9265 332.658 41.9032 332.726 41.9032C332.79 41.9032 332.844 41.9265 332.887 41.9731C332.93 42.0196 332.951 42.0966 332.951 42.204V42.8324H328.59V42.1664C329.507 41.3428 330.398 40.505 331.265 39.6527C331.669 39.2553 331.947 38.9635 332.097 38.7773C332.248 38.5911 332.35 38.4281 332.403 38.2885C332.461 38.1453 332.489 38.002 332.489 37.8588C332.489 37.4721 332.334 37.1301 332.022 36.8329C331.711 36.5357 331.335 36.3871 330.894 36.3871C330.5 36.3871 330.151 36.4999 329.847 36.7255C329.542 36.9511 329.345 37.2304 329.256 37.5634C329.234 37.6493 329.208 37.7048 329.175 37.7299C329.132 37.7657 329.082 37.7836 329.025 37.7836C328.964 37.7836 328.912 37.7639 328.869 37.7245C328.83 37.6815 328.81 37.6314 328.81 37.5741C328.81 37.4023 328.903 37.1695 329.089 36.8759C329.279 36.5823 329.539 36.3513 329.868 36.183C330.201 36.0147 330.541 35.9306 330.889 35.9306C331.451 35.9306 331.934 36.1257 332.339 36.516C332.744 36.9063 332.946 37.3485 332.946 37.8427C332.946 38.0504 332.912 38.2419 332.844 38.4174C332.776 38.5893 332.659 38.779 332.495 38.9867C332.334 39.1908 332.042 39.5006 331.619 39.9159C330.559 40.9615 329.696 41.7725 329.03 42.349V42.3813Z" fill="black"/>
<path d="M318.729 28H290.785V55.973H318.729V28Z" fill="white"/>
<path d="M318.229 28.5H291.285V55.473H318.229V28.5Z" stroke="#979797"/>
<path d="M304.368 36.0004V42.3813H305.915C306.023 42.3813 306.1 42.4027 306.146 42.4457C306.193 42.4851 306.216 42.5388 306.216 42.6068C306.216 42.6713 306.193 42.725 306.146 42.768C306.1 42.8109 306.023 42.8324 305.915 42.8324H302.37C302.263 42.8324 302.186 42.8109 302.139 42.768C302.093 42.725 302.07 42.6713 302.07 42.6068C302.07 42.5388 302.093 42.4851 302.139 42.4457C302.186 42.4027 302.263 42.3813 302.37 42.3813H303.917V36.6234L302.446 37.0854C302.374 37.1068 302.322 37.1176 302.29 37.1176C302.236 37.1176 302.186 37.0961 302.139 37.0531C302.097 37.0066 302.075 36.9529 302.075 36.892C302.075 36.8383 302.093 36.7882 302.129 36.7416C302.157 36.713 302.216 36.6825 302.306 36.6503L304.368 36.0004Z" fill="black"/>
<path d="M291.903 28H263.959V55.973H291.903V28Z" fill="white"/>
<path d="M291.403 28.5H264.459V55.473H291.403V28.5Z" stroke="#979797"/>
<path d="M279.483 36.7523V36.5482H276.25V36.9457C276.25 37.0531 276.228 37.1301 276.185 37.1767C276.146 37.2232 276.092 37.2465 276.024 37.2465C275.96 37.2465 275.906 37.2232 275.863 37.1767C275.82 37.1301 275.799 37.0531 275.799 36.9457V36.0917H279.94V36.8114L278.124 42.6122C278.096 42.7053 278.062 42.768 278.022 42.8002C277.983 42.8288 277.938 42.8432 277.888 42.8432C277.823 42.8432 277.77 42.8217 277.727 42.7787C277.684 42.7357 277.662 42.6856 277.662 42.6283C277.662 42.5925 277.673 42.5424 277.695 42.4779L279.483 36.7523Z" fill="black"/>
<path d="M265.076 28H237.132V55.973H265.076V28Z" fill="white"/>
<path d="M264.576 28.5H237.632V55.473H264.576V28.5Z" stroke="#979797"/>
<path d="M248.029 39.9804C248.309 39.5686 248.595 39.2642 248.889 39.0673C249.186 38.8704 249.515 38.7719 249.877 38.7719C250.357 38.7719 250.783 38.9724 251.155 39.3734C251.528 39.7709 251.714 40.2633 251.714 40.8505C251.714 41.3876 251.544 41.88 251.204 42.3275C250.864 42.7716 250.395 42.9936 249.797 42.9936C249.406 42.9936 249.041 42.8736 248.701 42.6337C248.364 42.3938 248.099 42.025 247.906 41.5273C247.666 40.9078 247.546 40.2221 247.546 39.4701C247.546 38.9044 247.659 38.378 247.884 37.891C248.056 37.515 248.285 37.1856 248.572 36.9027C248.858 36.6163 249.191 36.3835 249.571 36.2045C249.954 36.0219 250.368 35.9306 250.812 35.9306C251.112 35.9306 251.363 35.9914 251.564 36.1132C251.65 36.1669 251.693 36.2385 251.693 36.328C251.693 36.3925 251.673 36.4462 251.633 36.4892C251.594 36.5286 251.544 36.5482 251.483 36.5482C251.437 36.5482 251.381 36.5303 251.317 36.4945C251.17 36.4229 250.987 36.3871 250.769 36.3871C250.07 36.3871 249.433 36.6879 248.857 37.2895C248.284 37.8874 247.997 38.6 247.997 39.4272C247.997 39.5453 248.008 39.7297 248.029 39.9804ZM248.132 40.727C248.268 41.3787 248.481 41.8441 248.771 42.1234C249.064 42.4027 249.41 42.5424 249.807 42.5424C250.208 42.5424 250.55 42.3866 250.833 42.0751C251.12 41.76 251.263 41.3518 251.263 40.8505C251.263 40.3814 251.12 39.9929 250.833 39.685C250.547 39.377 250.223 39.2231 249.861 39.2231C249.514 39.2231 249.179 39.3717 248.857 39.6689C248.642 39.8658 248.4 40.2185 248.132 40.727Z" fill="black"/>
<path d="M211.424 28H183.479V55.973H211.424V28Z" fill="white"/>
<path d="M210.924 28.5H183.979V55.473H210.924V28.5Z" stroke="#979797"/>
<path d="M197.68 40.9472H194.689V40.4262L197.197 36.0917H198.137V40.496H198.513C198.624 40.496 198.703 40.5175 198.749 40.5605C198.796 40.5998 198.819 40.6536 198.819 40.7216C198.819 40.786 198.796 40.8398 198.749 40.8827C198.703 40.9257 198.624 40.9472 198.513 40.9472H198.137V42.3813H198.513C198.624 42.3813 198.703 42.4027 198.749 42.4457C198.796 42.4851 198.819 42.5388 198.819 42.6068C198.819 42.6713 198.796 42.725 198.749 42.768C198.703 42.8109 198.624 42.8324 198.513 42.8324H196.837C196.726 42.8324 196.647 42.8109 196.601 42.768C196.554 42.725 196.531 42.6713 196.531 42.6068C196.531 42.5388 196.554 42.4851 196.601 42.4457C196.647 42.4027 196.726 42.3813 196.837 42.3813H197.68V40.9472ZM197.68 40.496V36.5482H197.444L195.161 40.496H197.68Z" fill="black"/>
<path d="M184.597 28H156.653V55.973H184.597V28Z" fill="white"/>
<path d="M184.097 28.5H157.153V55.473H184.097V28.5Z" stroke="#979797"/>
<path d="M170.94 39.3358C171.316 39.5185 171.599 39.7602 171.788 40.0609C171.982 40.3581 172.079 40.6786 172.079 41.0224C172.079 41.5559 171.878 42.0178 171.477 42.4081C171.076 42.7984 170.589 42.9936 170.016 42.9936C169.443 42.9936 168.956 42.7984 168.555 42.4081C168.154 42.0178 167.954 41.5559 167.954 41.0224C167.954 40.6822 168.048 40.3635 168.238 40.0663C168.432 39.7655 168.718 39.522 169.098 39.3358C168.768 39.1461 168.528 38.9491 168.378 38.745C168.17 38.455 168.066 38.1345 168.066 37.7836C168.066 37.2895 168.256 36.858 168.636 36.4892C169.019 36.1168 169.479 35.9306 170.016 35.9306C170.557 35.9306 171.017 36.1168 171.396 36.4892C171.776 36.858 171.966 37.2895 171.966 37.7836C171.966 38.1345 171.862 38.4532 171.654 38.7397C171.507 38.9473 171.269 39.1461 170.94 39.3358ZM171.504 37.7997C171.504 37.413 171.359 37.0818 171.069 36.8061C170.782 36.5268 170.43 36.3871 170.011 36.3871C169.595 36.3871 169.243 36.5268 168.953 36.8061C168.666 37.0854 168.523 37.4148 168.523 37.7943C168.523 38.1453 168.664 38.4532 168.947 38.7182C169.234 38.9796 169.588 39.1103 170.011 39.1103C170.437 39.1103 170.791 38.9796 171.074 38.7182C171.361 38.4532 171.504 38.147 171.504 37.7997ZM171.627 41.0331C171.627 40.6357 171.473 40.2901 171.165 39.9965C170.857 39.7029 170.474 39.5561 170.016 39.5561C169.558 39.5561 169.175 39.7029 168.867 39.9965C168.559 40.2901 168.405 40.6339 168.405 41.0277C168.405 41.4359 168.559 41.7904 168.867 42.0912C169.178 42.392 169.561 42.5424 170.016 42.5424C170.471 42.5424 170.852 42.392 171.16 42.0912C171.472 41.7904 171.627 41.4377 171.627 41.0331Z" fill="black"/>
<path d="M130.944 28H103V55.973H130.944V28Z" fill="white"/>
<path d="M130.444 28.5H103.5V55.473H130.444V28.5Z" stroke="#979797"/>
<path d="M113.583 36.0004V42.3813H115.13C115.238 42.3813 115.315 42.4027 115.361 42.4457C115.408 42.4851 115.431 42.5388 115.431 42.6068C115.431 42.6713 115.408 42.725 115.361 42.768C115.315 42.8109 115.238 42.8324 115.13 42.8324H111.585C111.478 42.8324 111.401 42.8109 111.354 42.768C111.308 42.725 111.285 42.6713 111.285 42.6068C111.285 42.5388 111.308 42.4851 111.354 42.4457C111.401 42.4027 111.478 42.3813 111.585 42.3813H113.132V36.6234L111.66 37.0854C111.589 37.1068 111.537 37.1176 111.505 37.1176C111.451 37.1176 111.401 37.0961 111.354 37.0531C111.311 37.0066 111.29 36.9529 111.29 36.892C111.29 36.8383 111.308 36.7882 111.344 36.7416C111.372 36.713 111.431 36.6825 111.521 36.6503L113.583 36.0004ZM122.037 38.9062V40.0233C122.037 40.9937 121.806 41.7618 121.345 42.3275C120.983 42.7716 120.526 42.9936 119.975 42.9936C119.71 42.9936 119.459 42.9398 119.223 42.8324C118.99 42.7286 118.792 42.5818 118.627 42.392C118.523 42.2738 118.408 42.0841 118.283 41.8227C118.161 41.5613 118.074 41.3214 118.02 41.1029C117.938 40.795 117.896 40.4351 117.896 40.0233V38.9062C117.896 37.9322 118.127 37.1623 118.589 36.5966C118.951 36.1526 119.407 35.9306 119.959 35.9306C120.227 35.9306 120.478 35.9843 120.711 36.0917C120.944 36.1955 121.142 36.3424 121.307 36.5321C121.414 36.6539 121.529 36.8454 121.651 37.1068C121.772 37.3682 121.862 37.6064 121.919 37.8212C121.998 38.1291 122.037 38.4908 122.037 38.9062ZM121.586 38.9652C121.586 38.5391 121.525 38.1435 121.404 37.7782C121.285 37.4094 121.151 37.1158 121.001 36.8974C120.911 36.772 120.795 36.6646 120.652 36.5751C120.448 36.4498 120.218 36.3871 119.964 36.3871C119.459 36.3871 119.064 36.6449 118.777 37.1606C118.491 37.6762 118.348 38.2777 118.348 38.9652V39.9589C118.348 40.385 118.407 40.7825 118.525 41.1513C118.646 41.5201 118.784 41.8137 118.938 42.0321C119.024 42.1539 119.139 42.2595 119.282 42.349C119.486 42.4779 119.717 42.5424 119.975 42.5424C120.476 42.5424 120.87 42.2846 121.157 41.769C121.443 41.2497 121.586 40.6464 121.586 39.9589V38.9652Z" fill="black"/>
<path d="M238.25 28H210.306V55.973H238.25V28Z" fill="white"/>
<path d="M237.75 28.5H210.806V55.473H237.75V28.5Z" stroke="#4990E2"/>
<path d="M225.517 39.019C225.284 39.4307 225.006 39.7405 224.684 39.9482C224.365 40.1558 224.038 40.2597 223.701 40.2597C223.39 40.2597 223.087 40.1702 222.793 39.9911C222.503 39.8121 222.272 39.5507 222.101 39.2069C221.929 38.8596 221.843 38.4962 221.843 38.1166C221.843 37.5652 222.013 37.0639 222.353 36.6127C222.697 36.1579 223.155 35.9306 223.728 35.9306C224.136 35.9306 224.509 36.0577 224.845 36.3119C225.182 36.5662 225.443 36.935 225.629 37.4184C225.869 38.0378 225.989 38.7576 225.989 39.5775C225.989 40.2149 225.887 40.7449 225.683 41.1674C225.547 41.4538 225.346 41.7314 225.082 41.9999C224.82 42.2685 224.525 42.4869 224.195 42.6552C223.744 42.8808 223.275 42.9936 222.788 42.9936C222.466 42.9936 222.203 42.9327 221.999 42.8109C221.905 42.7537 221.859 42.682 221.859 42.5961C221.859 42.5352 221.88 42.4851 221.923 42.4457C221.966 42.4027 222.018 42.3813 222.079 42.3813C222.122 42.3813 222.185 42.401 222.267 42.4403C222.407 42.5084 222.568 42.5424 222.75 42.5424C223.513 42.5424 224.168 42.2685 224.716 41.7206C225.264 41.1692 225.538 40.4799 225.538 39.6527C225.538 39.5023 225.531 39.2911 225.517 39.019ZM225.431 38.267C225.241 37.5401 225.005 37.046 224.722 36.7846C224.442 36.5196 224.115 36.3871 223.739 36.3871C223.356 36.3871 223.019 36.5482 222.729 36.8705C222.439 37.1928 222.294 37.6064 222.294 38.1112C222.294 38.6018 222.439 39.0082 222.729 39.3305C223.019 39.6492 223.347 39.8085 223.712 39.8085C223.923 39.8085 224.131 39.7512 224.335 39.6366C224.543 39.522 224.738 39.3502 224.92 39.121C225.039 38.967 225.209 38.6824 225.431 38.267Z" fill="black"/>
<path d="M157.771 28H129.826V55.973H157.771V28Z" fill="white"/>
<path d="M157.271 28.5H130.326V55.473H157.271V28.5Z" stroke="#00E914"/>
<path d="M141.41 36.0004V42.3813H142.957C143.064 42.3813 143.141 42.4027 143.188 42.4457C143.234 42.4851 143.257 42.5388 143.257 42.6068C143.257 42.6713 143.234 42.725 143.188 42.768C143.141 42.8109 143.064 42.8324 142.957 42.8324H139.412C139.304 42.8324 139.227 42.8109 139.181 42.768C139.134 42.725 139.111 42.6713 139.111 42.6068C139.111 42.5388 139.134 42.4851 139.181 42.4457C139.227 42.4027 139.304 42.3813 139.412 42.3813H140.959V36.6234L139.487 37.0854C139.415 37.1068 139.363 37.1176 139.331 37.1176C139.277 37.1176 139.227 37.0961 139.181 37.0531C139.138 37.0066 139.116 36.9529 139.116 36.892C139.116 36.8383 139.134 36.7882 139.17 36.7416C139.199 36.713 139.258 36.6825 139.347 36.6503L141.41 36.0004ZM148.016 36.0004V42.3813H149.563C149.671 42.3813 149.748 42.4027 149.794 42.4457C149.841 42.4851 149.864 42.5388 149.864 42.6068C149.864 42.6713 149.841 42.725 149.794 42.768C149.748 42.8109 149.671 42.8324 149.563 42.8324H146.018C145.911 42.8324 145.834 42.8109 145.787 42.768C145.741 42.725 145.717 42.6713 145.717 42.6068C145.717 42.5388 145.741 42.4851 145.787 42.4457C145.834 42.4027 145.911 42.3813 146.018 42.3813H147.565V36.6234L146.093 37.0854C146.022 37.1068 145.97 37.1176 145.938 37.1176C145.884 37.1176 145.834 37.0961 145.787 37.0531C145.744 37.0066 145.723 36.9529 145.723 36.892C145.723 36.8383 145.741 36.7882 145.776 36.7416C145.805 36.713 145.864 36.6825 145.954 36.6503L148.016 36.0004Z" fill="black"/>
<path d="M5.95898 44H4.89258V39.4336C4.89258 38.8001 4.79004 38.3421 4.58496 38.0596C4.38444 37.7725 4.06771 37.6289 3.63477 37.6289C2.98307 37.6289 2.28353 38.0345 1.53613 38.8457V44H0.469727V34.3545H1.53613V37.9229C2.30176 37.1117 3.1084 36.7061 3.95605 36.7061C5.29134 36.7061 5.95898 37.5127 5.95898 39.126V44ZM14.5791 40.4727H9.69141C9.69141 41.2793 9.92383 41.9447 10.3887 42.4688C10.8581 42.9928 11.4323 43.2549 12.1113 43.2549C12.7585 43.2549 13.4261 43.1387 14.1143 42.9062L14.2988 43.7607C13.6699 44.0433 12.9362 44.1846 12.0977 44.1846C11.0404 44.1846 10.1882 43.8451 9.54102 43.166C8.89388 42.487 8.57031 41.571 8.57031 40.418C8.57031 39.2878 8.8597 38.3877 9.43848 37.7178C10.0218 37.0433 10.7738 36.7061 11.6943 36.7061C12.5146 36.7061 13.2005 37.0182 13.752 37.6426C14.3034 38.2669 14.5791 39.0986 14.5791 40.1377V40.4727ZM13.417 39.6045C13.417 39.0485 13.2438 38.5814 12.8975 38.2031C12.5511 37.8203 12.1637 37.6289 11.7354 37.6289C11.1839 37.6289 10.7259 37.8112 10.3613 38.1758C10.0013 38.5404 9.80078 39.0166 9.75977 39.6045H13.417ZM22.9531 44H21.8936C21.807 43.7129 21.7637 43.3301 21.7637 42.8516C21.1576 43.7402 20.3327 44.1846 19.2891 44.1846C18.7604 44.1846 18.2933 43.9977 17.8877 43.624C17.4867 43.2458 17.2861 42.7604 17.2861 42.168C17.2861 41.8171 17.3568 41.5072 17.498 41.2383C17.6393 40.9694 17.8467 40.7438 18.1201 40.5615C18.3936 40.3747 18.7262 40.2288 19.1182 40.124C19.5101 40.0146 19.9749 39.9395 20.5127 39.8984L21.709 39.8027V39.4609C21.709 38.2396 21.1393 37.6289 20 37.6289C19.7311 37.6289 19.3893 37.6882 18.9746 37.8066C18.5645 37.9206 18.2113 38.0573 17.915 38.2168L17.6348 37.4512C18.6055 36.9544 19.5078 36.7061 20.3418 36.7061C21.9642 36.7061 22.7754 37.5651 22.7754 39.2832V42.3457C22.7754 42.9655 22.8346 43.5169 22.9531 44ZM21.709 41.8877V40.5957C20.7474 40.6823 20.0866 40.7643 19.7266 40.8418C19.3711 40.9147 19.0612 41.0537 18.7969 41.2588C18.5371 41.4639 18.4072 41.7419 18.4072 42.0928C18.4072 42.4118 18.5189 42.6693 18.7422 42.8652C18.9655 43.0612 19.2503 43.1592 19.5967 43.1592C19.9749 43.1592 20.3509 43.0475 20.7246 42.8242C21.0983 42.5964 21.4264 42.2842 21.709 41.8877ZM26.7607 37.7998C26.9977 37.4717 27.3167 37.2074 27.7178 37.0068C28.1234 36.8063 28.5495 36.7061 28.9961 36.7061C29.8164 36.7061 30.459 37.0456 30.9238 37.7246C31.3932 38.3991 31.6279 39.2786 31.6279 40.3633C31.6279 41.457 31.3818 42.3685 30.8896 43.0977C30.402 43.8223 29.7435 44.1846 28.9141 44.1846C28.472 44.1846 28.0573 44.0752 27.6699 43.8564C27.2871 43.6331 26.984 43.3392 26.7607 42.9746V46.8164H25.6943V36.877H26.7607V37.7998ZM26.7607 38.8594V41.8193C26.9613 42.2204 27.2324 42.5553 27.5742 42.8242C27.916 43.0931 28.2692 43.2275 28.6338 43.2275C29.208 43.2275 29.6637 42.9587 30.001 42.4209C30.3428 41.8831 30.5137 41.2155 30.5137 40.418C30.5137 39.5977 30.3519 38.9277 30.0283 38.4082C29.7048 37.8887 29.2536 37.6289 28.6748 37.6289C27.9229 37.6289 27.2848 38.0391 26.7607 38.8594ZM41.0342 47.0488H32.6328V46.1533H41.0342V47.0488ZM47.4805 44H44.5684V35.2773H42.709V34.3545H45.6348V43.0771H47.4805V44ZM54.1113 34.1836C54.3118 34.1836 54.4827 34.2565 54.624 34.4023C54.7653 34.5436 54.8359 34.7145 54.8359 34.915C54.8359 35.1247 54.7653 35.3001 54.624 35.4414C54.4873 35.5827 54.3164 35.6533 54.1113 35.6533C53.9245 35.6533 53.7581 35.5804 53.6123 35.4346C53.471 35.2842 53.4004 35.111 53.4004 34.915C53.4004 34.7191 53.471 34.5482 53.6123 34.4023C53.7581 34.2565 53.9245 34.1836 54.1113 34.1836ZM54.6309 44H53.5645V37.7998H51.4658V36.877H54.6309V44ZM64.0713 37.8955C63.4743 37.6995 62.9115 37.6016 62.3828 37.6016C61.804 37.6016 61.346 37.6995 61.0088 37.8955C60.6715 38.0869 60.5029 38.3444 60.5029 38.668C60.5029 38.873 60.5804 39.0531 60.7354 39.208C60.8903 39.3584 61.2002 39.4997 61.665 39.6318L62.6836 39.9258C63.153 40.0579 63.5358 40.2174 63.832 40.4043C64.1283 40.5866 64.3493 40.8099 64.4951 41.0742C64.6455 41.334 64.7207 41.637 64.7207 41.9834C64.7207 42.6624 64.4359 43.2002 63.8662 43.5967C63.2965 43.9886 62.5719 44.1846 61.6924 44.1846C60.8174 44.1846 60.0951 44.0524 59.5254 43.7881L59.7305 42.8652C60.3275 43.1478 60.9678 43.2891 61.6514 43.2891C62.2438 43.2891 62.7246 43.1797 63.0938 42.9609C63.4674 42.7376 63.6543 42.4437 63.6543 42.0791C63.6543 41.833 63.5609 41.6143 63.374 41.4229C63.1917 41.2269 62.7588 41.0241 62.0752 40.8145C61.5238 40.6458 61.1182 40.5205 60.8584 40.4385C60.5986 40.3519 60.3571 40.2266 60.1338 40.0625C59.9105 39.8984 59.7396 39.7025 59.6211 39.4746C59.5072 39.2467 59.4502 38.9915 59.4502 38.709C59.4502 38.0938 59.7191 37.6061 60.2568 37.2461C60.7946 36.8861 61.5078 36.7061 62.3965 36.7061C62.9707 36.7061 63.6087 36.804 64.3105 37L64.0713 37.8955ZM73.293 43.6787C72.5775 44.0068 71.8734 44.1709 71.1807 44.1709C69.9092 44.1709 69.2734 43.4987 69.2734 42.1543V37.7998H67.9062V36.877H69.2734V34.9287H70.3125V36.877H72.7324V37.7998H70.3125V41.874C70.3125 42.307 70.4082 42.6442 70.5996 42.8857C70.791 43.1227 71.0508 43.2412 71.3789 43.2412C71.9622 43.2412 72.5387 43.1113 73.1084 42.8516L73.293 43.6787ZM90.5127 38.1348H84.0459V37.2393H90.5127V38.1348ZM90.5127 40.876H84.0459V39.9805H90.5127V40.876Z" fill="black"/>
<path d="M117.859 3.7168V4.93555C117.859 5.99414 117.607 6.83203 117.104 7.44922C116.709 7.93359 116.211 8.17578 115.609 8.17578C115.32 8.17578 115.047 8.11719 114.789 8C114.535 7.88672 114.318 7.72656 114.139 7.51953C114.025 7.39062 113.9 7.18359 113.764 6.89844C113.631 6.61328 113.535 6.35156 113.477 6.11328C113.387 5.77734 113.342 5.38477 113.342 4.93555V3.7168C113.342 2.6543 113.594 1.81445 114.098 1.19727C114.492 0.712891 114.99 0.470703 115.592 0.470703C115.885 0.470703 116.158 0.529297 116.412 0.646484C116.666 0.759766 116.883 0.919922 117.062 1.12695C117.18 1.25977 117.305 1.46875 117.438 1.75391C117.57 2.03906 117.668 2.29883 117.73 2.5332C117.816 2.86914 117.859 3.26367 117.859 3.7168ZM117.367 3.78125C117.367 3.31641 117.301 2.88477 117.168 2.48633C117.039 2.08398 116.893 1.76367 116.729 1.52539C116.631 1.38867 116.504 1.27148 116.348 1.17383C116.125 1.03711 115.875 0.96875 115.598 0.96875C115.047 0.96875 114.615 1.25 114.303 1.8125C113.99 2.375 113.834 3.03125 113.834 3.78125V4.86523C113.834 5.33008 113.898 5.76367 114.027 6.16602C114.16 6.56836 114.311 6.88867 114.479 7.12695C114.572 7.25977 114.697 7.375 114.854 7.47266C115.076 7.61328 115.328 7.68359 115.609 7.68359C116.156 7.68359 116.586 7.40234 116.898 6.83984C117.211 6.27344 117.367 5.61523 117.367 4.86523V3.78125Z" fill="black"/>
<path d="M143.844 0.546875V7.50781H145.531C145.648 7.50781 145.732 7.53125 145.783 7.57812C145.834 7.62109 145.859 7.67969 145.859 7.75391C145.859 7.82422 145.834 7.88281 145.783 7.92969C145.732 7.97656 145.648 8 145.531 8H141.664C141.547 8 141.463 7.97656 141.412 7.92969C141.361 7.88281 141.336 7.82422 141.336 7.75391C141.336 7.67969 141.361 7.62109 141.412 7.57812C141.463 7.53125 141.547 7.50781 141.664 7.50781H143.352V1.22656L141.746 1.73047C141.668 1.75391 141.611 1.76562 141.576 1.76562C141.518 1.76562 141.463 1.74219 141.412 1.69531C141.365 1.64453 141.342 1.58594 141.342 1.51953C141.342 1.46094 141.361 1.40625 141.4 1.35547C141.432 1.32422 141.496 1.29102 141.594 1.25586L143.844 0.546875Z" fill="#00E914"/>
<path d="M168.482 7.50781H172.262V7.31445C172.262 7.19727 172.285 7.11328 172.332 7.0625C172.379 7.01172 172.439 6.98633 172.514 6.98633C172.584 6.98633 172.643 7.01172 172.689 7.0625C172.736 7.11328 172.76 7.19727 172.76 7.31445V8H168.002V7.27344C169.002 6.375 169.975 5.46094 170.92 4.53125C171.361 4.09766 171.664 3.7793 171.828 3.57617C171.992 3.37305 172.104 3.19531 172.162 3.04297C172.225 2.88672 172.256 2.73047 172.256 2.57422C172.256 2.15234 172.086 1.7793 171.746 1.45508C171.406 1.13086 170.996 0.96875 170.516 0.96875C170.086 0.96875 169.705 1.0918 169.373 1.33789C169.041 1.58398 168.826 1.88867 168.729 2.25195C168.705 2.3457 168.676 2.40625 168.641 2.43359C168.594 2.47266 168.539 2.49219 168.477 2.49219C168.41 2.49219 168.354 2.4707 168.307 2.42773C168.264 2.38086 168.242 2.32617 168.242 2.26367C168.242 2.07617 168.344 1.82227 168.547 1.50195C168.754 1.18164 169.037 0.929687 169.396 0.746094C169.76 0.5625 170.131 0.470703 170.51 0.470703C171.123 0.470703 171.65 0.683594 172.092 1.10938C172.533 1.53516 172.754 2.01758 172.754 2.55664C172.754 2.7832 172.717 2.99219 172.643 3.18359C172.568 3.37109 172.441 3.57812 172.262 3.80469C172.086 4.02734 171.768 4.36523 171.307 4.81836C170.15 5.95898 169.209 6.84375 168.482 7.47266V7.50781Z" fill="black"/>
<path d="M198.611 3.99805C199.064 4.20117 199.41 4.48047 199.648 4.83594C199.887 5.1875 200.006 5.55469 200.006 5.9375C200.006 6.52734 199.766 7.04883 199.285 7.50195C198.809 7.95117 198.211 8.17578 197.492 8.17578C197.07 8.17578 196.633 8.08594 196.18 7.90625C195.727 7.72656 195.41 7.54297 195.23 7.35547C195.172 7.29297 195.143 7.22656 195.143 7.15625C195.143 7.09375 195.164 7.03906 195.207 6.99219C195.254 6.94531 195.309 6.92188 195.371 6.92188C195.434 6.92188 195.504 6.95117 195.582 7.00977C196.188 7.45898 196.828 7.68359 197.504 7.68359C198.074 7.68359 198.551 7.50586 198.934 7.15039C199.32 6.79102 199.514 6.39258 199.514 5.95508C199.514 5.66211 199.418 5.375 199.227 5.09375C199.039 4.8125 198.768 4.5918 198.412 4.43164C198.057 4.26758 197.697 4.18555 197.334 4.18555C197.217 4.18555 197.133 4.16406 197.082 4.12109C197.031 4.07422 197.006 4.01367 197.006 3.93945C197.006 3.86914 197.029 3.81055 197.076 3.76367C197.127 3.7168 197.201 3.69336 197.299 3.69336L197.721 3.69922C198.162 3.69922 198.525 3.56445 198.811 3.29492C199.1 3.02539 199.244 2.71289 199.244 2.35742C199.244 1.99023 199.094 1.66602 198.793 1.38477C198.492 1.10352 198.1 0.962891 197.615 0.962891C197.275 0.962891 196.963 1.02148 196.678 1.13867C196.393 1.25586 196.164 1.41602 195.992 1.61914C195.93 1.69727 195.881 1.74609 195.846 1.76562C195.814 1.78125 195.777 1.78906 195.734 1.78906C195.668 1.78906 195.611 1.76758 195.564 1.72461C195.518 1.67773 195.494 1.62305 195.494 1.56055C195.494 1.4043 195.664 1.20703 196.004 0.96875C196.477 0.636719 197.014 0.470703 197.615 0.470703C198.236 0.470703 198.746 0.658203 199.145 1.0332C199.543 1.4043 199.742 1.84766 199.742 2.36328C199.742 2.69141 199.646 3.00195 199.455 3.29492C199.264 3.58789 198.982 3.82227 198.611 3.99805Z" fill="black"/>
<path d="M224.518 5.94336H221.254V5.375L223.99 0.646484H225.016V5.45117H225.426C225.547 5.45117 225.633 5.47461 225.684 5.52148C225.734 5.56445 225.76 5.62305 225.76 5.69727C225.76 5.76758 225.734 5.82617 225.684 5.87305C225.633 5.91992 225.547 5.94336 225.426 5.94336H225.016V7.50781H225.426C225.547 7.50781 225.633 7.53125 225.684 7.57812C225.734 7.62109 225.76 7.67969 225.76 7.75391C225.76 7.82422 225.734 7.88281 225.684 7.92969C225.633 7.97656 225.547 8 225.426 8H223.598C223.477 8 223.391 7.97656 223.34 7.92969C223.289 7.88281 223.264 7.82422 223.264 7.75391C223.264 7.67969 223.289 7.62109 223.34 7.57812C223.391 7.53125 223.477 7.50781 223.598 7.50781H224.518V5.94336ZM224.518 5.45117V1.14453H224.26L221.77 5.45117H224.518Z" fill="#4990E2"/>
<path d="M249.244 1.14453V3.55273C249.533 3.43164 249.811 3.3418 250.076 3.2832C250.342 3.2207 250.594 3.18945 250.832 3.18945C251.449 3.18945 251.965 3.40625 252.379 3.83984C252.797 4.27344 253.006 4.84375 253.006 5.55078C253.006 6.33203 252.771 6.96484 252.303 7.44922C251.834 7.93359 251.248 8.17578 250.545 8.17578C250.08 8.17578 249.633 8.07227 249.203 7.86523C248.898 7.7207 248.621 7.54102 248.371 7.32617C248.223 7.19727 248.148 7.08984 248.148 7.00391C248.148 6.93359 248.172 6.875 248.219 6.82812C248.266 6.77734 248.32 6.75195 248.383 6.75195C248.449 6.75195 248.52 6.78711 248.594 6.85742C249.184 7.4082 249.826 7.68359 250.521 7.68359C251.096 7.68359 251.57 7.48828 251.945 7.09766C252.32 6.70312 252.508 6.17969 252.508 5.52734C252.508 4.97266 252.346 4.52734 252.021 4.19141C251.697 3.85156 251.285 3.68164 250.785 3.68164C250.273 3.68164 249.762 3.81641 249.25 4.08594C249.125 4.14844 249.037 4.17969 248.986 4.17969C248.916 4.17969 248.859 4.15625 248.816 4.10938C248.773 4.0625 248.752 3.99609 248.752 3.91016V0.646484H252.186C252.303 0.646484 252.387 0.669922 252.438 0.716797C252.488 0.763672 252.514 0.824219 252.514 0.898438C252.514 0.96875 252.488 1.02734 252.438 1.07422C252.387 1.12109 252.303 1.14453 252.186 1.14453H249.244Z" fill="black"/>
<path d="M277.133 4.88867C277.438 4.43945 277.75 4.10742 278.07 3.89258C278.395 3.67773 278.754 3.57031 279.148 3.57031C279.672 3.57031 280.137 3.78906 280.543 4.22656C280.949 4.66016 281.152 5.19727 281.152 5.83789C281.152 6.42383 280.967 6.96094 280.596 7.44922C280.225 7.93359 279.713 8.17578 279.061 8.17578C278.635 8.17578 278.236 8.04492 277.865 7.7832C277.498 7.52148 277.209 7.11914 276.998 6.57617C276.736 5.90039 276.605 5.15234 276.605 4.33203C276.605 3.71484 276.729 3.14062 276.975 2.60938C277.162 2.19922 277.412 1.83984 277.725 1.53125C278.037 1.21875 278.4 0.964844 278.814 0.769531C279.232 0.570312 279.684 0.470703 280.168 0.470703C280.496 0.470703 280.77 0.537109 280.988 0.669922C281.082 0.728516 281.129 0.806641 281.129 0.904297C281.129 0.974609 281.107 1.0332 281.064 1.08008C281.021 1.12305 280.967 1.14453 280.9 1.14453C280.85 1.14453 280.789 1.125 280.719 1.08594C280.559 1.00781 280.359 0.96875 280.121 0.96875C279.359 0.96875 278.664 1.29688 278.035 1.95312C277.41 2.60547 277.098 3.38281 277.098 4.28516C277.098 4.41406 277.109 4.61523 277.133 4.88867ZM277.244 5.70312C277.393 6.41406 277.625 6.92188 277.941 7.22656C278.262 7.53125 278.639 7.68359 279.072 7.68359C279.51 7.68359 279.883 7.51367 280.191 7.17383C280.504 6.83008 280.66 6.38477 280.66 5.83789C280.66 5.32617 280.504 4.90234 280.191 4.56641C279.879 4.23047 279.525 4.0625 279.131 4.0625C278.752 4.0625 278.387 4.22461 278.035 4.54883C277.801 4.76367 277.537 5.14844 277.244 5.70312Z" fill="black"/>
<path d="M306.256 1.36719V1.14453H302.729V1.57812C302.729 1.69531 302.705 1.7793 302.658 1.83008C302.615 1.88086 302.557 1.90625 302.482 1.90625C302.412 1.90625 302.354 1.88086 302.307 1.83008C302.26 1.7793 302.236 1.69531 302.236 1.57812V0.646484H306.754V1.43164L304.773 7.75977C304.742 7.86133 304.705 7.92969 304.662 7.96484C304.619 7.99609 304.57 8.01172 304.516 8.01172C304.445 8.01172 304.387 7.98828 304.34 7.94141C304.293 7.89453 304.27 7.83984 304.27 7.77734C304.27 7.73828 304.281 7.68359 304.305 7.61328L306.256 1.36719Z" fill="black"/>
<path d="M331.611 4.18555C332.021 4.38477 332.33 4.64844 332.537 4.97656C332.748 5.30078 332.854 5.65039 332.854 6.02539C332.854 6.60742 332.635 7.11133 332.197 7.53711C331.76 7.96289 331.229 8.17578 330.604 8.17578C329.979 8.17578 329.447 7.96289 329.01 7.53711C328.572 7.11133 328.354 6.60742 328.354 6.02539C328.354 5.6543 328.457 5.30664 328.664 4.98242C328.875 4.6543 329.188 4.38867 329.602 4.18555C329.242 3.97852 328.98 3.76367 328.816 3.54102C328.59 3.22461 328.477 2.875 328.477 2.49219C328.477 1.95312 328.684 1.48242 329.098 1.08008C329.516 0.673828 330.018 0.470703 330.604 0.470703C331.193 0.470703 331.695 0.673828 332.109 1.08008C332.523 1.48242 332.73 1.95312 332.73 2.49219C332.73 2.875 332.617 3.22266 332.391 3.53516C332.23 3.76172 331.971 3.97852 331.611 4.18555ZM332.227 2.50977C332.227 2.08789 332.068 1.72656 331.752 1.42578C331.439 1.12109 331.055 0.96875 330.598 0.96875C330.145 0.96875 329.76 1.12109 329.443 1.42578C329.131 1.73047 328.975 2.08984 328.975 2.50391C328.975 2.88672 329.129 3.22266 329.438 3.51172C329.75 3.79688 330.137 3.93945 330.598 3.93945C331.062 3.93945 331.449 3.79688 331.758 3.51172C332.07 3.22266 332.227 2.88867 332.227 2.50977ZM332.361 6.03711C332.361 5.60352 332.193 5.22656 331.857 4.90625C331.521 4.58594 331.104 4.42578 330.604 4.42578C330.104 4.42578 329.686 4.58594 329.35 4.90625C329.014 5.22656 328.846 5.60156 328.846 6.03125C328.846 6.47656 329.014 6.86328 329.35 7.19141C329.689 7.51953 330.107 7.68359 330.604 7.68359C331.1 7.68359 331.516 7.51953 331.852 7.19141C332.191 6.86328 332.361 6.47852 332.361 6.03711Z" fill="black"/>
<path d="M360.619 3.83984C360.365 4.28906 360.062 4.62695 359.711 4.85352C359.363 5.08008 359.006 5.19336 358.639 5.19336C358.299 5.19336 357.969 5.0957 357.648 4.90039C357.332 4.70508 357.08 4.41992 356.893 4.04492C356.705 3.66602 356.611 3.26953 356.611 2.85547C356.611 2.25391 356.797 1.70703 357.168 1.21484C357.543 0.71875 358.043 0.470703 358.668 0.470703C359.113 0.470703 359.52 0.609375 359.887 0.886719C360.254 1.16406 360.539 1.56641 360.742 2.09375C361.004 2.76953 361.135 3.55469 361.135 4.44922C361.135 5.14453 361.023 5.72266 360.801 6.18359C360.652 6.49609 360.434 6.79883 360.145 7.0918C359.859 7.38477 359.537 7.62305 359.178 7.80664C358.686 8.05273 358.174 8.17578 357.643 8.17578C357.291 8.17578 357.004 8.10938 356.781 7.97656C356.68 7.91406 356.629 7.83594 356.629 7.74219C356.629 7.67578 356.652 7.62109 356.699 7.57812C356.746 7.53125 356.803 7.50781 356.869 7.50781C356.916 7.50781 356.984 7.5293 357.074 7.57227C357.227 7.64648 357.402 7.68359 357.602 7.68359C358.434 7.68359 359.148 7.38477 359.746 6.78711C360.344 6.18555 360.643 5.43359 360.643 4.53125C360.643 4.36719 360.635 4.13672 360.619 3.83984ZM360.525 3.01953C360.318 2.22656 360.061 1.6875 359.752 1.40234C359.447 1.11328 359.09 0.96875 358.68 0.96875C358.262 0.96875 357.895 1.14453 357.578 1.49609C357.262 1.84766 357.104 2.29883 357.104 2.84961C357.104 3.38477 357.262 3.82812 357.578 4.17969C357.895 4.52734 358.252 4.70117 358.65 4.70117C358.881 4.70117 359.107 4.63867 359.33 4.51367C359.557 4.38867 359.77 4.20117 359.969 3.95117C360.098 3.7832 360.283 3.47266 360.525 3.01953Z" fill="black"/>
<path d="M381.844 0.546875V7.50781H383.531C383.648 7.50781 383.732 7.53125 383.783 7.57812C383.834 7.62109 383.859 7.67969 383.859 7.75391C383.859 7.82422 383.834 7.88281 383.783 7.92969C383.732 7.97656 383.648 8 383.531 8H379.664C379.547 8 379.463 7.97656 379.412 7.92969C379.361 7.88281 379.336 7.82422 379.336 7.75391C379.336 7.67969 379.361 7.62109 379.412 7.57812C379.463 7.53125 379.547 7.50781 379.664 7.50781H381.352V1.22656L379.746 1.73047C379.668 1.75391 379.611 1.76562 379.576 1.76562C379.518 1.76562 379.463 1.74219 379.412 1.69531C379.365 1.64453 379.342 1.58594 379.342 1.51953C379.342 1.46094 379.361 1.40625 379.4 1.35547C379.432 1.32422 379.496 1.29102 379.594 1.25586L381.844 0.546875ZM391.066 3.7168V4.93555C391.066 5.99414 390.814 6.83203 390.311 7.44922C389.916 7.93359 389.418 8.17578 388.816 8.17578C388.527 8.17578 388.254 8.11719 387.996 8C387.742 7.88672 387.525 7.72656 387.346 7.51953C387.232 7.39062 387.107 7.18359 386.971 6.89844C386.838 6.61328 386.742 6.35156 386.684 6.11328C386.594 5.77734 386.549 5.38477 386.549 4.93555V3.7168C386.549 2.6543 386.801 1.81445 387.305 1.19727C387.699 0.712891 388.197 0.470703 388.799 0.470703C389.092 0.470703 389.365 0.529297 389.619 0.646484C389.873 0.759766 390.09 0.919922 390.27 1.12695C390.387 1.25977 390.512 1.46875 390.645 1.75391C390.777 2.03906 390.875 2.29883 390.938 2.5332C391.023 2.86914 391.066 3.26367 391.066 3.7168ZM390.574 3.78125C390.574 3.31641 390.508 2.88477 390.375 2.48633C390.246 2.08398 390.1 1.76367 389.936 1.52539C389.838 1.38867 389.711 1.27148 389.555 1.17383C389.332 1.03711 389.082 0.96875 388.805 0.96875C388.254 0.96875 387.822 1.25 387.51 1.8125C387.197 2.375 387.041 3.03125 387.041 3.78125V4.86523C387.041 5.33008 387.105 5.76367 387.234 6.16602C387.367 6.56836 387.518 6.88867 387.686 7.12695C387.779 7.25977 387.904 7.375 388.061 7.47266C388.283 7.61328 388.535 7.68359 388.816 7.68359C389.363 7.68359 389.793 7.40234 390.105 6.83984C390.418 6.27344 390.574 5.61523 390.574 4.86523V3.78125Z" fill="black"/>
<path d="M49.3438 9H44.9619V8.02246H46.623V0.332031H44.9619V-0.645508H49.3438V0.332031H47.7441V8.02246H49.3438V9ZM58.3672 9H57.3008V4.43359C57.3008 3.80013 57.1982 3.34212 56.9932 3.05957C56.7926 2.77246 56.4759 2.62891 56.043 2.62891C55.3913 2.62891 54.6917 3.03451 53.9443 3.8457V9H52.8779V1.87695H53.9443V2.92285C54.71 2.11165 55.5166 1.70605 56.3643 1.70605C57.6995 1.70605 58.3672 2.5127 58.3672 4.12598V9ZM66.748 9H65.6816V7.97461C65.4629 8.32552 65.1484 8.61491 64.7383 8.84277C64.3327 9.07064 63.9043 9.18457 63.4531 9.18457C62.6374 9.18457 61.9925 8.82227 61.5186 8.09766C61.0446 7.36849 60.8076 6.44564 60.8076 5.3291C60.8076 4.28548 61.0537 3.42188 61.5459 2.73828C62.0426 2.05013 62.6989 1.70605 63.5146 1.70605C64.4124 1.70605 65.1348 2.07064 65.6816 2.7998V-0.645508H66.748V9ZM65.6816 6.81934V3.85938C65.1712 3.03906 64.556 2.62891 63.8359 2.62891C63.248 2.62891 62.7832 2.89095 62.4414 3.41504C62.0996 3.93457 61.9287 4.5931 61.9287 5.39062C61.9287 6.21094 62.0882 6.88997 62.4072 7.42773C62.7308 7.96094 63.1729 8.22754 63.7334 8.22754C64.0023 8.22754 64.2734 8.15462 64.5469 8.00879C64.8203 7.86296 65.0778 7.64421 65.3193 7.35254C65.5609 7.06087 65.6816 6.88314 65.6816 6.81934ZM75.3955 5.47266H70.5078C70.5078 6.2793 70.7402 6.94466 71.2051 7.46875C71.6745 7.99284 72.2487 8.25488 72.9277 8.25488C73.5749 8.25488 74.2425 8.13867 74.9307 7.90625L75.1152 8.76074C74.4863 9.04329 73.7526 9.18457 72.9141 9.18457C71.8568 9.18457 71.0046 8.84505 70.3574 8.16602C69.7103 7.48698 69.3867 6.57096 69.3867 5.41797C69.3867 4.28776 69.6761 3.3877 70.2549 2.71777C70.8382 2.04329 71.5902 1.70605 72.5107 1.70605C73.3311 1.70605 74.0169 2.01823 74.5684 2.64258C75.1198 3.26693 75.3955 4.09863 75.3955 5.1377V5.47266ZM74.2334 4.60449C74.2334 4.0485 74.0602 3.58138 73.7139 3.20312C73.3675 2.82031 72.9801 2.62891 72.5518 2.62891C72.0003 2.62891 71.5423 2.8112 71.1777 3.17578C70.8177 3.54036 70.6172 4.0166 70.5762 4.60449H74.2334ZM83.8447 9H82.6416L80.7344 6.21094L78.7588 9H77.624L80.1602 5.43164L77.624 1.87695H78.8477L80.7617 4.64551L82.71 1.87695H83.8447L81.3223 5.39062L83.8447 9ZM89.1836 1.77441C89.416 1.77441 89.612 1.85417 89.7715 2.01367C89.931 2.16862 90.0107 2.36003 90.0107 2.58789C90.0107 2.81576 89.931 3.00944 89.7715 3.16895C89.612 3.32389 89.416 3.40137 89.1836 3.40137C88.9557 3.40137 88.762 3.32389 88.6025 3.16895C88.4476 3.00944 88.3701 2.81576 88.3701 2.58789C88.3701 2.36003 88.4476 2.16862 88.6025 2.01367C88.762 1.85417 88.9557 1.77441 89.1836 1.77441ZM89.1836 7.48926C89.416 7.48926 89.612 7.56673 89.7715 7.72168C89.931 7.87663 90.0107 8.07031 90.0107 8.30273C90.0107 8.5306 89.931 8.72201 89.7715 8.87695C89.612 9.0319 89.416 9.10938 89.1836 9.10938C88.9557 9.10938 88.762 9.0319 88.6025 8.87695C88.4476 8.72201 88.3701 8.5306 88.3701 8.30273C88.3701 8.07031 88.4476 7.87663 88.6025 7.72168C88.762 7.56673 88.9557 7.48926 89.1836 7.48926Z" fill="black"/>
<path d="M131.875 290.107C141.262 290.107 148.872 282.472 148.872 273.054C148.872 263.635 141.262 256 131.875 256C122.488 256 114.878 263.635 114.878 273.054C114.878 282.472 122.488 290.107 131.875 290.107Z" stroke="black"/>
<path d="M131.884 271.132C132.346 271.261 132.716 271.497 132.996 271.841C133.275 272.181 133.415 272.564 133.415 272.99C133.415 273.656 133.155 274.217 132.636 274.672C132.117 275.123 131.504 275.348 130.799 275.348C130.197 275.348 129.658 275.216 129.182 274.951L129.354 274.226C129.852 274.459 130.344 274.575 130.831 274.575C131.289 274.575 131.68 274.433 132.002 274.151C132.328 273.864 132.491 273.497 132.491 273.049C132.491 272.609 132.317 272.251 131.97 271.975C131.622 271.7 131.162 271.562 130.589 271.562H130.358V270.837H130.423C130.974 270.837 131.429 270.708 131.787 270.45C132.145 270.188 132.324 269.838 132.324 269.397C132.324 269.039 132.195 268.76 131.938 268.559C131.68 268.355 131.325 268.253 130.874 268.253C130.484 268.253 130.047 268.359 129.564 268.57L129.445 267.813C129.932 267.591 130.423 267.48 130.917 267.48C131.594 267.48 132.151 267.659 132.587 268.017C133.028 268.371 133.248 268.828 133.248 269.386C133.248 269.773 133.114 270.135 132.845 270.471C132.58 270.804 132.26 271.014 131.884 271.1V271.132Z" fill="black"/>
<path d="M82.8751 290.107C92.2624 290.107 99.8723 282.472 99.8723 273.054C99.8723 263.635 92.2624 256 82.8751 256C73.4878 256 65.8779 263.635 65.8779 273.054C65.8779 282.472 73.4878 290.107 82.8751 290.107Z" stroke="black"/>
<path d="M84.8765 273.452H83.942V275.203H83.0611V273.452H79.7632V272.781L82.7549 267.625H83.942V272.684H84.8765V273.452ZM83.0611 272.684V268.495L80.6548 272.684H83.0611Z" fill="black"/>
<path d="M24.9972 290.107C34.3846 290.107 41.9945 282.472 41.9945 273.054C41.9945 263.635 34.3846 256 24.9972 256C15.6099 256 8 263.635 8 273.054C8 282.472 15.6099 290.107 24.9972 290.107Z" stroke="black"/>
<path d="M26.5045 275.203H22.3365V274.564C23.3929 273.386 24.0786 272.597 24.3937 272.195C24.7088 271.794 24.9648 271.374 25.1617 270.933C25.3587 270.493 25.4572 270.054 25.4572 269.617C25.4572 269.195 25.3282 268.862 25.0704 268.618C24.8162 268.375 24.4581 268.253 23.9962 268.253C23.6417 268.253 23.1655 268.362 22.5675 268.581L22.444 267.823C22.9847 267.594 23.5504 267.48 24.1412 267.48C24.818 267.48 25.3623 267.671 25.774 268.054C26.1894 268.434 26.3971 268.942 26.3971 269.58C26.3971 270.035 26.2897 270.486 26.0748 270.933C25.8636 271.381 25.5914 271.811 25.2584 272.222C24.9254 272.634 24.2773 273.372 23.3141 274.435H26.5045V275.203Z" fill="black"/>
<path d="M339.196 220.107C348.583 220.107 356.193 212.472 356.193 203.054C356.193 193.635 348.583 186 339.196 186C329.808 186 322.198 193.635 322.198 203.054C322.198 212.472 329.808 220.107 339.196 220.107Z" stroke="black"/>
<path d="M340.998 198.253L337.996 205.203H337.094L340.053 198.393H336.503V197.625H340.998V198.253Z" fill="black"/>
<path d="M249.425 220.107C258.812 220.107 266.422 212.472 266.422 203.054C266.422 193.635 258.812 186 249.425 186C240.037 186 232.427 193.635 232.427 203.054C232.427 212.472 240.037 220.107 249.425 220.107Z" stroke="black"/>
<path d="M247.607 201.256C248.08 200.872 248.594 200.681 249.149 200.681C249.79 200.681 250.323 200.887 250.749 201.299C251.179 201.707 251.394 202.235 251.394 202.883C251.394 203.596 251.204 204.185 250.825 204.65C250.445 205.116 249.938 205.348 249.305 205.348C248.495 205.348 247.854 204.978 247.382 204.236C246.909 203.492 246.673 202.582 246.673 201.508C246.673 200.362 246.918 199.404 247.409 198.634C247.903 197.865 248.578 197.48 249.433 197.48C250.024 197.48 250.535 197.567 250.964 197.743L250.825 198.527C250.327 198.344 249.872 198.253 249.46 198.253C248.877 198.253 248.422 198.532 248.096 199.091C247.77 199.65 247.607 200.371 247.607 201.256ZM247.634 202.013C247.634 202.661 247.786 203.25 248.091 203.78C248.395 204.31 248.778 204.575 249.24 204.575C249.63 204.575 249.931 204.432 250.142 204.145C250.354 203.859 250.459 203.463 250.459 202.958C250.459 202.493 250.343 202.126 250.11 201.857C249.877 201.589 249.55 201.454 249.127 201.454C248.579 201.454 248.082 201.64 247.634 202.013Z" fill="black"/>
<path d="M135.5 255.5L144.5 219.5" stroke="black" stroke-linecap="square"/>
<path d="M149.679 220.107C159.066 220.107 166.676 212.472 166.676 203.054C166.676 193.635 159.066 186 149.679 186C140.292 186 132.682 193.635 132.682 203.054C132.682 212.472 140.292 220.107 149.679 220.107Z" stroke="#4990E2"/>
<path d="M150.66 201.562C150.223 201.945 149.709 202.136 149.119 202.136C148.478 202.136 147.942 201.932 147.513 201.524C147.087 201.112 146.873 200.582 146.873 199.934C146.873 199.24 147.078 198.656 147.486 198.183C147.898 197.707 148.428 197.469 149.076 197.469C149.867 197.469 150.485 197.831 150.929 198.554C151.373 199.277 151.595 200.196 151.595 201.309C151.595 202.423 151.333 203.374 150.81 204.161C150.291 204.945 149.595 205.338 148.721 205.338C148.134 205.338 147.625 205.248 147.196 205.069L147.335 204.29C147.83 204.473 148.284 204.564 148.7 204.564C149.294 204.564 149.768 204.276 150.123 203.699C150.481 203.123 150.66 202.41 150.66 201.562ZM150.639 200.804C150.639 200.124 150.501 199.528 150.225 199.016C149.949 198.5 149.588 198.242 149.14 198.242C148.735 198.242 148.411 198.393 148.168 198.694C147.928 198.991 147.808 199.379 147.808 199.859C147.808 200.299 147.93 200.661 148.173 200.944C148.42 201.223 148.743 201.363 149.14 201.363C149.688 201.363 150.164 201.195 150.569 200.858L150.639 200.804Z" fill="black"/>
<path d="M49.3944 216.5L29.5 256.5" stroke="black" stroke-linecap="square"/>
<path d="M66.5 219.5L77.5 256.5" stroke="black" stroke-linecap="square"/>
<path d="M59.9082 220.107C69.2955 220.107 76.9054 212.472 76.9054 203.054C76.9054 193.635 69.2955 186 59.9082 186C50.5209 186 42.9109 193.635 42.9109 203.054C42.9109 212.472 50.5209 220.107 59.9082 220.107Z" stroke="black"/>
<path d="M58.4775 200.681C58.721 200.616 58.9591 200.584 59.1918 200.584C59.908 200.584 60.4737 200.804 60.8891 201.245C61.3045 201.682 61.5121 202.228 61.5121 202.883C61.5121 203.57 61.2704 204.154 60.787 204.634C60.3036 205.11 59.7146 205.348 59.02 205.348C58.3575 205.348 57.8025 205.237 57.3549 205.015L57.5322 204.269C58.0191 204.473 58.5222 204.575 59.0414 204.575C59.5034 204.575 59.8758 204.426 60.1586 204.129C60.4451 203.832 60.5883 203.417 60.5883 202.883C60.5883 202.378 60.454 201.99 60.1855 201.717C59.9169 201.445 59.5714 201.309 59.1489 201.309C58.8409 201.309 58.5366 201.368 58.2358 201.486L57.7094 201.245V197.625H61.1738V198.393H58.4775V200.681Z" fill="black"/>
<path d="M274.819 157.5L256.865 187.5" stroke="black" stroke-linecap="square"/>
<path d="M297.761 154.5L327.684 189.5" stroke="black" stroke-linecap="square"/>
<path d="M284.336 160.107C293.723 160.107 301.333 152.472 301.333 143.054C301.333 133.635 293.723 126 284.336 126C274.948 126 267.338 133.635 267.338 143.054C267.338 152.472 274.948 160.107 284.336 160.107Z" stroke="black"/>
<path d="M284.634 141.046C285.15 141.196 285.549 141.452 285.832 141.814C286.119 142.176 286.262 142.598 286.262 143.082C286.262 143.776 286.031 144.328 285.569 144.736C285.111 145.144 284.545 145.348 283.872 145.348C283.166 145.348 282.586 145.142 282.132 144.731C281.68 144.319 281.455 143.773 281.455 143.092C281.455 142.613 281.602 142.19 281.895 141.825C282.189 141.46 282.599 141.2 283.125 141.046C282.706 140.939 282.37 140.733 282.115 140.428C281.865 140.12 281.739 139.777 281.739 139.397C281.739 138.91 281.933 138.47 282.319 138.076C282.706 137.678 283.216 137.48 283.85 137.48C284.477 137.48 284.994 137.677 285.402 138.07C285.814 138.464 286.02 138.907 286.02 139.397C286.02 139.766 285.891 140.106 285.633 140.418C285.376 140.726 285.043 140.935 284.634 141.046ZM283.85 140.681C283.868 140.681 283.954 140.659 284.108 140.616C284.262 140.573 284.393 140.521 284.5 140.461C284.611 140.396 284.713 140.316 284.806 140.219C284.899 140.122 284.975 140.009 285.032 139.881C285.089 139.748 285.118 139.601 285.118 139.44C285.118 139.096 284.994 138.812 284.747 138.586C284.5 138.357 284.201 138.242 283.85 138.242C283.51 138.242 283.218 138.359 282.975 138.591C282.731 138.824 282.61 139.107 282.61 139.44C282.61 139.651 282.652 139.836 282.738 139.993C282.828 140.151 282.937 140.278 283.066 140.375C283.199 140.471 283.349 140.547 283.517 140.6C283.689 140.654 283.8 140.681 283.85 140.681ZM283.85 141.433C282.869 141.719 282.379 142.258 282.379 143.049C282.379 143.511 282.527 143.882 282.824 144.161C283.122 144.437 283.471 144.575 283.872 144.575C284.287 144.575 284.636 144.439 284.919 144.167C285.206 143.891 285.349 143.519 285.349 143.049C285.349 142.695 285.25 142.378 285.053 142.099C284.856 141.816 284.455 141.594 283.85 141.433Z" fill="black"/>
<path d="M102.26 155.5L70.5 189.5" stroke="black" stroke-linecap="square"/>
<path d="M125.201 156.5L142.158 187.5" stroke="black" stroke-linecap="square"/>
<path d="M114.768 160.107C124.156 160.107 131.765 152.472 131.765 143.054C131.765 133.635 124.156 126 114.768 126C105.381 126 97.771 133.635 97.771 143.054C97.771 152.472 105.381 160.107 114.768 160.107Z" stroke="#00E914"/>
<path d="M113.474 145.203H109.489V144.435H111.095V138.549L109.58 139.306V138.425L111.218 137.582H111.976V144.435H113.474V145.203ZM120.081 145.203H116.095V144.435H117.701V138.549L116.187 139.306V138.425L117.825 137.582H118.582V144.435H120.081V145.203Z" fill="black"/>
<path d="M185.048 102.5L130.188 135.5" stroke="black" stroke-linecap="square"/>
<path d="M215.969 99.5L269.832 133.5" stroke="black" stroke-linecap="square"/>
<path d="M199.552 110.107C208.939 110.107 216.549 102.472 216.549 93.0536C216.549 83.6351 208.939 76 199.552 76C190.165 76 182.555 83.6351 182.555 93.0536C182.555 102.472 190.165 110.107 199.552 110.107Z" stroke="black"/>
<path d="M198.258 95.2033H194.273V94.4352H195.879V88.5485L194.364 89.3058V88.425L196.002 87.5817H196.759V94.4352H198.258V95.2033ZM202.684 87.4797C203.486 87.4797 204.102 87.8252 204.531 88.5163C204.965 89.2038 205.181 90.1706 205.181 91.4167C205.181 92.6234 204.972 93.5812 204.553 94.2902C204.134 94.9956 203.511 95.3483 202.684 95.3483C201.885 95.3483 201.269 95.0046 200.836 94.3171C200.403 93.6296 200.186 92.6628 200.186 91.4167C200.186 90.2064 200.396 89.2486 200.815 88.5432C201.237 87.8342 201.86 87.4797 202.684 87.4797ZM202.684 94.5749C203.214 94.5749 203.606 94.3242 203.86 93.8229C204.118 93.3181 204.247 92.516 204.247 91.4167C204.247 90.3138 204.118 89.5135 203.86 89.0158C203.606 88.5145 203.214 88.2639 202.684 88.2639C202.161 88.2639 201.771 88.5199 201.513 89.0319C201.255 89.544 201.126 90.3389 201.126 91.4167C201.126 92.5088 201.253 93.3091 201.507 93.8176C201.765 94.3224 202.157 94.5749 202.684 94.5749ZM202.662 90.611C202.888 90.611 203.078 90.6898 203.232 90.8474C203.389 91.0013 203.468 91.1911 203.468 91.4167C203.468 91.6494 203.389 91.85 203.232 92.0182C203.074 92.183 202.884 92.2653 202.662 92.2653C202.444 92.2653 202.256 92.183 202.098 92.0182C201.944 91.85 201.867 91.6494 201.867 91.4167C201.867 91.1875 201.943 90.996 202.093 90.842C202.247 90.688 202.437 90.611 202.662 90.611Z" fill="black"/>
<path d="M161.255 183.751C162.478 173.523 161.003 165.232 156.829 158.878C152.654 152.524 146.411 149.064 138.098 148.499" stroke="#CE0202"/>
<path d="M149.077 146.238L138.098 148.499L148.67 152.225" stroke="#CE0202"/>
<path d="M108.636 166.132C104.87 173.189 104.87 180.308 108.636 187.491C112.403 194.674 118.375 198.943 126.552 200.297" stroke="#CE0202"/>
<path d="M115.407 201.492L126.552 200.297L116.387 195.573" stroke="#CE0202"/>
</g>
<defs>
<clipPath id="clip0">
<rect width="400" height="610" fill="white"/>
</clipPath>
</defs>
</svg>
