<svg width="1277" height="366" viewBox="0 0 1277 366" version="1.1" xmlns="http://www.w3.org/2000/svg" xmlns:xlink="http://www.w3.org/1999/xlink" xmlns:figma="http://www.figma.com/figma/ns">
<title>hash_table_overwrite_1</title>
<desc>Created using Figma</desc>
<g id="Canvas" transform="translate(364 196)" figma:type="canvas">
<g id="Operations" figma:type="text">
<use xlink:href="#path0_fill" transform="translate(-248 -200)"/>
</g>
<g id="hash_table[&#226;&#128;&#156;xmen&#226;&#128;&#157;] = &#226;&#128;&#156;Wolverine&#226;&#128;&#157;" figma:type="text">
<use xlink:href="#path1_fill" transform="translate(-365 -95)"/>
</g>
<g id="hash_table[&#226;&#128;&#156;xmen&#226;&#128;&#157;] = &#226;&#128;&#156;Superman&#226;&#128;&#157;" figma:type="text">
<use xlink:href="#path2_fill" transform="translate(-365 88)"/>
</g>
<g id="Array" figma:type="text">
<use xlink:href="#path3_fill" transform="translate(248 -200)"/>
</g>
<g id="Rectangle" figma:type="rounded-rectangle">
<use xlink:href="#path4_fill" transform="translate(248 -149)" fill="#C4C4C4"/>
</g>
<g id="Rectangle" figma:type="rounded-rectangle">
<use xlink:href="#path4_fill" transform="translate(248 -106)" fill="#C4C4C4"/>
</g>
<g id="Rectangle" figma:type="rounded-rectangle">
<use xlink:href="#path4_fill" transform="translate(248 -63)" fill="#C4C4C4"/>
</g>
<g id="0" figma:type="text">
<use xlink:href="#path5_fill" transform="translate(266 -138)"/>
</g>
<g id="1" figma:type="text">
<use xlink:href="#path6_fill" transform="translate(266 -95)"/>
</g>
<g id="2" figma:type="text">
<use xlink:href="#path7_fill" transform="translate(266 -52)"/>
</g>
<g id="Rectangle" figma:type="rounded-rectangle">
<use xlink:href="#path4_fill" transform="translate(248 34)" fill="#C4C4C4"/>
</g>
<g id="Rectangle" figma:type="rounded-rectangle">
<use xlink:href="#path4_fill" transform="translate(248 77)" fill="#C4C4C4"/>
</g>
<g id="Rectangle" figma:type="rounded-rectangle">
<use xlink:href="#path4_fill" transform="translate(248 120)" fill="#C4C4C4"/>
</g>
<g id="0" figma:type="text">
<use xlink:href="#path5_fill" transform="translate(266 45)"/>
</g>
<g id="1" figma:type="text">
<use xlink:href="#path6_fill" transform="translate(266 88)"/>
</g>
<g id="2" figma:type="text">
<use xlink:href="#path7_fill" transform="translate(266 131)"/>
</g>
<g id="Arrow" figma:type="vector">
<use xlink:href="#path8_stroke" transform="matrix(0.977874 -0.209197 0.209197 0.977874 18 -81)"/>
</g>
<g id="Arrow" figma:type="vector">
<use xlink:href="#path8_stroke" transform="matrix(0.977874 -0.209197 0.209197 0.977874 18 102)"/>
</g>
<g id="Arrow 2" figma:type="vector">
<use xlink:href="#path9_stroke" transform="translate(320 -124)"/>
</g>
<g id="[(&#226;&#128;&#156;xmen&#226;&#128;&#157;, &#226;&#128;&#156;Wolverine&#226;&#128;&#157;)]" figma:type="text">
<use xlink:href="#path10_fill" transform="translate(440 -138)"/>
</g>
<g id="Arrow 2" figma:type="vector">
<use xlink:href="#path9_stroke" transform="translate(320 54)"/>
</g>
<g id="[(&#226;&#128;&#156;xmen&#226;&#128;&#157;, &#226;&#128;&#156;Wolverine&#226;&#128;&#157;), (&#226;&#128;&#156;xmen&#226;&#128;&#157;, &#226;&#128;&#156;Superman&#226;&#128;&#157;)]" figma:type="text">
<use xlink:href="#path11_fill" transform="translate(440 39)"/>
</g>
</g>
<defs>
<path id="path0_fill" d="M 15.1055 14.0195C 15.1055 15.6914 14.8242 17.1523 14.2617 18.4023C 13.6992 19.6445 12.9023 20.5938 11.8711 21.25C 10.8398 21.9062 9.63672 22.2344 8.26172 22.2344C 6.91797 22.2344 5.72656 21.9062 4.6875 21.25C 3.64844 20.5859 2.83984 19.6445 2.26172 18.4258C 1.69141 17.1992 1.39844 15.7812 1.38281 14.1719L 1.38281 12.9414C 1.38281 11.3008 1.66797 9.85156 2.23828 8.59375C 2.80859 7.33594 3.61328 6.375 4.65234 5.71094C 5.69922 5.03906 6.89453 4.70312 8.23828 4.70312C 9.60547 4.70312 10.8086 5.03516 11.8477 5.69922C 12.8945 6.35547 13.6992 7.3125 14.2617 8.57031C 14.8242 9.82031 15.1055 11.2773 15.1055 12.9414L 15.1055 14.0195ZM 12.8672 12.918C 12.8672 10.8945 12.4609 9.34375 11.6484 8.26562C 10.8359 7.17969 9.69922 6.63672 8.23828 6.63672C 6.81641 6.63672 5.69531 7.17969 4.875 8.26562C 4.0625 9.34375 3.64453 10.8438 3.62109 12.7656L 3.62109 14.0195C 3.62109 15.9805 4.03125 17.5234 4.85156 18.6484C 5.67969 19.7656 6.81641 20.3242 8.26172 20.3242C 9.71484 20.3242 10.8398 19.7969 11.6367 18.7422C 12.4336 17.6797 12.8438 16.1602 12.8672 14.1836L 12.8672 12.918ZM 28.8516 15.8008C 28.8516 17.7305 28.4102 19.2852 27.5273 20.4648C 26.6445 21.6445 25.4492 22.2344 23.9414 22.2344C 22.4023 22.2344 21.1914 21.7461 20.3086 20.7695L 20.3086 26.875L 18.1406 26.875L 18.1406 9.32031L 20.1211 9.32031L 20.2266 10.7266C 21.1094 9.63281 22.3359 9.08594 23.9062 9.08594C 25.4297 9.08594 26.6328 9.66016 27.5156 10.8086C 28.4062 11.957 28.8516 13.5547 28.8516 15.6016L 28.8516 15.8008ZM 26.6836 15.5547C 26.6836 14.125 26.3789 12.9961 25.7695 12.168C 25.1602 11.3398 24.3242 10.9258 23.2617 10.9258C 21.9492 10.9258 20.9648 11.5078 20.3086 12.6719L 20.3086 18.7305C 20.957 19.8867 21.9492 20.4648 23.2852 20.4648C 24.3242 20.4648 25.1484 20.0547 25.7578 19.2344C 26.375 18.4062 26.6836 17.1797 26.6836 15.5547ZM 36.8789 22.2344C 35.1602 22.2344 33.7617 21.6719 32.6836 20.5469C 31.6055 19.4141 31.0664 17.9023 31.0664 16.0117L 31.0664 15.6133C 31.0664 14.3555 31.3047 13.2344 31.7812 12.25C 32.2656 11.2578 32.9375 10.4844 33.7969 9.92969C 34.6641 9.36719 35.6016 9.08594 36.6094 9.08594C 38.2578 9.08594 39.5391 9.62891 40.4531 10.7148C 41.3672 11.8008 41.8242 13.3555 41.8242 15.3789L 41.8242 16.2812L 33.2344 16.2812C 33.2656 17.5312 33.6289 18.543 34.3242 19.3164C 35.0273 20.082 35.918 20.4648 36.9961 20.4648C 37.7617 20.4648 38.4102 20.3086 38.9414 19.9961C 39.4727 19.6836 39.9375 19.2695 40.3359 18.7539L 41.6602 19.7852C 40.5977 21.418 39.0039 22.2344 36.8789 22.2344ZM 36.6094 10.8672C 35.7344 10.8672 35 11.1875 34.4062 11.8281C 33.8125 12.4609 33.4453 13.3516 33.3047 14.5L 39.6562 14.5L 39.6562 14.3359C 39.5938 13.2344 39.2969 12.3828 38.7656 11.7812C 38.2344 11.1719 37.5156 10.8672 36.6094 10.8672ZM 50.4727 11.2656C 50.1445 11.2109 49.7891 11.1836 49.4062 11.1836C 47.9844 11.1836 47.0195 11.7891 46.5117 13L 46.5117 22L 44.3438 22L 44.3438 9.32031L 46.4531 9.32031L 46.4883 10.7852C 47.1992 9.65234 48.207 9.08594 49.5117 9.08594C 49.9336 9.08594 50.2539 9.14062 50.4727 9.25L 50.4727 11.2656ZM 59.8359 22C 59.7109 21.75 59.6094 21.3047 59.5312 20.6641C 58.5234 21.7109 57.3203 22.2344 55.9219 22.2344C 54.6719 22.2344 53.6445 21.8828 52.8398 21.1797C 52.043 20.4688 51.6445 19.5703 51.6445 18.4844C 51.6445 17.1641 52.1445 16.1406 53.1445 15.4141C 54.1523 14.6797 55.5664 14.3125 57.3867 14.3125L 59.4961 14.3125L 59.4961 13.3164C 59.4961 12.5586 59.2695 11.957 58.8164 11.5117C 58.3633 11.0586 57.6953 10.832 56.8125 10.832C 56.0391 10.832 55.3906 11.0273 54.8672 11.418C 54.3438 11.8086 54.082 12.2812 54.082 12.8359L 51.9023 12.8359C 51.9023 12.2031 52.125 11.5938 52.5703 11.0078C 53.0234 10.4141 53.6328 9.94531 54.3984 9.60156C 55.1719 9.25781 56.0195 9.08594 56.9414 9.08594C 58.4023 9.08594 59.5469 9.45312 60.375 10.1875C 61.2031 10.9141 61.6328 11.918 61.6641 13.1992L 61.6641 19.0352C 61.6641 20.1992 61.8125 21.125 62.1094 21.8125L 62.1094 22L 59.8359 22ZM 56.2383 20.3477C 56.918 20.3477 57.5625 20.1719 58.1719 19.8203C 58.7812 19.4688 59.2227 19.0117 59.4961 18.4492L 59.4961 15.8477L 57.7969 15.8477C 55.1406 15.8477 53.8125 16.625 53.8125 18.1797C 53.8125 18.8594 54.0391 19.3906 54.4922 19.7734C 54.9453 20.1562 55.5273 20.3477 56.2383 20.3477ZM 68.0039 6.25L 68.0039 9.32031L 70.3711 9.32031L 70.3711 10.9961L 68.0039 10.9961L 68.0039 18.8594C 68.0039 19.3672 68.1094 19.75 68.3203 20.0078C 68.5312 20.2578 68.8906 20.3828 69.3984 20.3828C 69.6484 20.3828 69.9922 20.3359 70.4297 20.2422L 70.4297 22C 69.8594 22.1562 69.3047 22.2344 68.7656 22.2344C 67.7969 22.2344 67.0664 21.9414 66.5742 21.3555C 66.082 20.7695 65.8359 19.9375 65.8359 18.8594L 65.8359 10.9961L 63.5273 10.9961L 63.5273 9.32031L 65.8359 9.32031L 65.8359 6.25L 68.0039 6.25ZM 75.2695 22L 73.1016 22L 73.1016 9.32031L 75.2695 9.32031L 75.2695 22ZM 72.9258 5.95703C 72.9258 5.60547 73.0312 5.30859 73.2422 5.06641C 73.4609 4.82422 73.7812 4.70312 74.2031 4.70312C 74.625 4.70312 74.9453 4.82422 75.1641 5.06641C 75.3828 5.30859 75.4922 5.60547 75.4922 5.95703C 75.4922 6.30859 75.3828 6.60156 75.1641 6.83594C 74.9453 7.07031 74.625 7.1875 74.2031 7.1875C 73.7812 7.1875 73.4609 7.07031 73.2422 6.83594C 73.0312 6.60156 72.9258 6.30859 72.9258 5.95703ZM 78.1758 15.543C 78.1758 14.3008 78.418 13.1836 78.9023 12.1914C 79.3945 11.1992 80.0742 10.4336 80.9414 9.89453C 81.8164 9.35547 82.8125 9.08594 83.9297 9.08594C 85.6562 9.08594 87.0508 9.68359 88.1133 10.8789C 89.1836 12.0742 89.7188 13.6641 89.7188 15.6484L 89.7188 15.8008C 89.7188 17.0352 89.4805 18.1445 89.0039 19.1289C 88.5352 20.1055 87.8594 20.8672 86.9766 21.4141C 86.1016 21.9609 85.0938 22.2344 83.9531 22.2344C 82.2344 22.2344 80.8398 21.6367 79.7695 20.4414C 78.707 19.2461 78.1758 17.6641 78.1758 15.6953L 78.1758 15.543ZM 80.3555 15.8008C 80.3555 17.207 80.6797 18.3359 81.3281 19.1875C 81.9844 20.0391 82.8594 20.4648 83.9531 20.4648C 85.0547 20.4648 85.9297 20.0352 86.5781 19.1758C 87.2266 18.3086 87.5508 17.0977 87.5508 15.543C 87.5508 14.1523 87.2188 13.0273 86.5547 12.168C 85.8984 11.3008 85.0234 10.8672 83.9297 10.8672C 82.8594 10.8672 81.9961 11.293 81.3398 12.1445C 80.6836 12.9961 80.3555 14.2148 80.3555 15.8008ZM 94.4883 9.32031L 94.5586 10.9141C 95.5273 9.69531 96.793 9.08594 98.3555 9.08594C 101.035 9.08594 102.387 10.5977 102.41 13.6211L 102.41 22L 100.242 22L 100.242 13.6094C 100.234 12.6953 100.023 12.0195 99.6094 11.582C 99.2031 11.1445 98.5664 10.9258 97.6992 10.9258C 96.9961 10.9258 96.3789 11.1133 95.8477 11.4883C 95.3164 11.8633 94.9023 12.3555 94.6055 12.9648L 94.6055 22L 92.4375 22L 92.4375 9.32031L 94.4883 9.32031ZM 113.062 18.6367C 113.062 18.0508 112.84 17.5977 112.395 17.2773C 111.957 16.9492 111.188 16.668 110.086 16.4336C 108.992 16.1992 108.121 15.918 107.473 15.5898C 106.832 15.2617 106.355 14.8711 106.043 14.418C 105.738 13.9648 105.586 13.4258 105.586 12.8008C 105.586 11.7617 106.023 10.8828 106.898 10.1641C 107.781 9.44531 108.906 9.08594 110.273 9.08594C 111.711 9.08594 112.875 9.45703 113.766 10.1992C 114.664 10.9414 115.113 11.8906 115.113 13.0469L 112.934 13.0469C 112.934 12.4531 112.68 11.9414 112.172 11.5117C 111.672 11.082 111.039 10.8672 110.273 10.8672C 109.484 10.8672 108.867 11.0391 108.422 11.3828C 107.977 11.7266 107.754 12.1758 107.754 12.7305C 107.754 13.2539 107.961 13.6484 108.375 13.9141C 108.789 14.1797 109.535 14.4336 110.613 14.6758C 111.699 14.918 112.578 15.207 113.25 15.543C 113.922 15.8789 114.418 16.2852 114.738 16.7617C 115.066 17.2305 115.23 17.8047 115.23 18.4844C 115.23 19.6172 114.777 20.5273 113.871 21.2148C 112.965 21.8945 111.789 22.2344 110.344 22.2344C 109.328 22.2344 108.43 22.0547 107.648 21.6953C 106.867 21.3359 106.254 20.8359 105.809 20.1953C 105.371 19.5469 105.152 18.8477 105.152 18.0977L 107.32 18.0977C 107.359 18.8242 107.648 19.4023 108.188 19.832C 108.734 20.2539 109.453 20.4648 110.344 20.4648C 111.164 20.4648 111.82 20.3008 112.312 19.9727C 112.812 19.6367 113.062 19.1914 113.062 18.6367Z"/>
<path id="path1_fill" d="M 3.80859 10.8555C 4.76953 9.67578 6.01953 9.08594 7.55859 9.08594C 10.2383 9.08594 11.5898 10.5977 11.6133 13.6211L 11.6133 22L 9.44531 22L 9.44531 13.6094C 9.4375 12.6953 9.22656 12.0195 8.8125 11.582C 8.40625 11.1445 7.76953 10.9258 6.90234 10.9258C 6.19922 10.9258 5.58203 11.1133 5.05078 11.4883C 4.51953 11.8633 4.10547 12.3555 3.80859 12.9648L 3.80859 22L 1.64062 22L 1.64062 4L 3.80859 4L 3.80859 10.8555ZM 22.6875 22C 22.5625 21.75 22.4609 21.3047 22.3828 20.6641C 21.375 21.7109 20.1719 22.2344 18.7734 22.2344C 17.5234 22.2344 16.4961 21.8828 15.6914 21.1797C 14.8945 20.4688 14.4961 19.5703 14.4961 18.4844C 14.4961 17.1641 14.9961 16.1406 15.9961 15.4141C 17.0039 14.6797 18.418 14.3125 20.2383 14.3125L 22.3477 14.3125L 22.3477 13.3164C 22.3477 12.5586 22.1211 11.957 21.668 11.5117C 21.2148 11.0586 20.5469 10.832 19.6641 10.832C 18.8906 10.832 18.2422 11.0273 17.7188 11.418C 17.1953 11.8086 16.9336 12.2812 16.9336 12.8359L 14.7539 12.8359C 14.7539 12.2031 14.9766 11.5938 15.4219 11.0078C 15.875 10.4141 16.4844 9.94531 17.25 9.60156C 18.0234 9.25781 18.8711 9.08594 19.793 9.08594C 21.2539 9.08594 22.3984 9.45312 23.2266 10.1875C 24.0547 10.9141 24.4844 11.918 24.5156 13.1992L 24.5156 19.0352C 24.5156 20.1992 24.6641 21.125 24.9609 21.8125L 24.9609 22L 22.6875 22ZM 19.0898 20.3477C 19.7695 20.3477 20.4141 20.1719 21.0234 19.8203C 21.6328 19.4688 22.0742 19.0117 22.3477 18.4492L 22.3477 15.8477L 20.6484 15.8477C 17.9922 15.8477 16.6641 16.625 16.6641 18.1797C 16.6641 18.8594 16.8906 19.3906 17.3438 19.7734C 17.7969 20.1562 18.3789 20.3477 19.0898 20.3477ZM 35.2969 18.6367C 35.2969 18.0508 35.0742 17.5977 34.6289 17.2773C 34.1914 16.9492 33.4219 16.668 32.3203 16.4336C 31.2266 16.1992 30.3555 15.918 29.707 15.5898C 29.0664 15.2617 28.5898 14.8711 28.2773 14.418C 27.9727 13.9648 27.8203 13.4258 27.8203 12.8008C 27.8203 11.7617 28.2578 10.8828 29.1328 10.1641C 30.0156 9.44531 31.1406 9.08594 32.5078 9.08594C 33.9453 9.08594 35.1094 9.45703 36 10.1992C 36.8984 10.9414 37.3477 11.8906 37.3477 13.0469L 35.168 13.0469C 35.168 12.4531 34.9141 11.9414 34.4062 11.5117C 33.9062 11.082 33.2734 10.8672 32.5078 10.8672C 31.7188 10.8672 31.1016 11.0391 30.6562 11.3828C 30.2109 11.7266 29.9883 12.1758 29.9883 12.7305C 29.9883 13.2539 30.1953 13.6484 30.6094 13.9141C 31.0234 14.1797 31.7695 14.4336 32.8477 14.6758C 33.9336 14.918 34.8125 15.207 35.4844 15.543C 36.1562 15.8789 36.6523 16.2852 36.9727 16.7617C 37.3008 17.2305 37.4648 17.8047 37.4648 18.4844C 37.4648 19.6172 37.0117 20.5273 36.1055 21.2148C 35.1992 21.8945 34.0234 22.2344 32.5781 22.2344C 31.5625 22.2344 30.6641 22.0547 29.8828 21.6953C 29.1016 21.3359 28.4883 20.8359 28.043 20.1953C 27.6055 19.5469 27.3867 18.8477 27.3867 18.0977L 29.5547 18.0977C 29.5938 18.8242 29.8828 19.4023 30.4219 19.832C 30.9688 20.2539 31.6875 20.4648 32.5781 20.4648C 33.3984 20.4648 34.0547 20.3008 34.5469 19.9727C 35.0469 19.6367 35.2969 19.1914 35.2969 18.6367ZM 42.457 10.8555C 43.418 9.67578 44.668 9.08594 46.207 9.08594C 48.8867 9.08594 50.2383 10.5977 50.2617 13.6211L 50.2617 22L 48.0938 22L 48.0938 13.6094C 48.0859 12.6953 47.875 12.0195 47.4609 11.582C 47.0547 11.1445 46.418 10.9258 45.5508 10.9258C 44.8477 10.9258 44.2305 11.1133 43.6992 11.4883C 43.168 11.8633 42.7539 12.3555 42.457 12.9648L 42.457 22L 40.2891 22L 40.2891 4L 42.457 4L 42.457 10.8555ZM 62.6484 23.7695L 51.9141 23.7695L 51.9141 22L 62.6484 22L 62.6484 23.7695ZM 67.2773 6.25L 67.2773 9.32031L 69.6445 9.32031L 69.6445 10.9961L 67.2773 10.9961L 67.2773 18.8594C 67.2773 19.3672 67.3828 19.75 67.5938 20.0078C 67.8047 20.2578 68.1641 20.3828 68.6719 20.3828C 68.9219 20.3828 69.2656 20.3359 69.7031 20.2422L 69.7031 22C 69.1328 22.1562 68.5781 22.2344 68.0391 22.2344C 67.0703 22.2344 66.3398 21.9414 65.8477 21.3555C 65.3555 20.7695 65.1094 19.9375 65.1094 18.8594L 65.1094 10.9961L 62.8008 10.9961L 62.8008 9.32031L 65.1094 9.32031L 65.1094 6.25L 67.2773 6.25ZM 80.0156 22C 79.8906 21.75 79.7891 21.3047 79.7109 20.6641C 78.7031 21.7109 77.5 22.2344 76.1016 22.2344C 74.8516 22.2344 73.8242 21.8828 73.0195 21.1797C 72.2227 20.4688 71.8242 19.5703 71.8242 18.4844C 71.8242 17.1641 72.3242 16.1406 73.3242 15.4141C 74.332 14.6797 75.7461 14.3125 77.5664 14.3125L 79.6758 14.3125L 79.6758 13.3164C 79.6758 12.5586 79.4492 11.957 78.9961 11.5117C 78.543 11.0586 77.875 10.832 76.9922 10.832C 76.2188 10.832 75.5703 11.0273 75.0469 11.418C 74.5234 11.8086 74.2617 12.2812 74.2617 12.8359L 72.082 12.8359C 72.082 12.2031 72.3047 11.5938 72.75 11.0078C 73.2031 10.4141 73.8125 9.94531 74.5781 9.60156C 75.3516 9.25781 76.1992 9.08594 77.1211 9.08594C 78.582 9.08594 79.7266 9.45312 80.5547 10.1875C 81.3828 10.9141 81.8125 11.918 81.8438 13.1992L 81.8438 19.0352C 81.8438 20.1992 81.9922 21.125 82.2891 21.8125L 82.2891 22L 80.0156 22ZM 76.418 20.3477C 77.0977 20.3477 77.7422 20.1719 78.3516 19.8203C 78.9609 19.4688 79.4023 19.0117 79.6758 18.4492L 79.6758 15.8477L 77.9766 15.8477C 75.3203 15.8477 73.9922 16.625 73.9922 18.1797C 73.9922 18.8594 74.2188 19.3906 74.6719 19.7734C 75.125 20.1562 75.707 20.3477 76.418 20.3477ZM 95.9766 15.8008C 95.9766 17.7383 95.5312 19.2969 94.6406 20.4766C 93.75 21.6484 92.5547 22.2344 91.0547 22.2344C 89.4531 22.2344 88.2148 21.668 87.3398 20.5352L 87.2344 22L 85.2422 22L 85.2422 4L 87.4102 4L 87.4102 10.7148C 88.2852 9.62891 89.4922 9.08594 91.0312 9.08594C 92.5703 9.08594 93.7773 9.66797 94.6523 10.832C 95.5352 11.9961 95.9766 13.5898 95.9766 15.6133L 95.9766 15.8008ZM 93.8086 15.5547C 93.8086 14.0781 93.5234 12.9375 92.9531 12.1328C 92.3828 11.3281 91.5625 10.9258 90.4922 10.9258C 89.0625 10.9258 88.0352 11.5898 87.4102 12.918L 87.4102 18.4023C 88.0742 19.7305 89.1094 20.3945 90.5156 20.3945C 91.5547 20.3945 92.3633 19.9922 92.9414 19.1875C 93.5195 18.3828 93.8086 17.1719 93.8086 15.5547ZM 101.074 22L 98.9062 22L 98.9062 4L 101.074 4L 101.074 22ZM 109.816 22.2344C 108.098 22.2344 106.699 21.6719 105.621 20.5469C 104.543 19.4141 104.004 17.9023 104.004 16.0117L 104.004 15.6133C 104.004 14.3555 104.242 13.2344 104.719 12.25C 105.203 11.2578 105.875 10.4844 106.734 9.92969C 107.602 9.36719 108.539 9.08594 109.547 9.08594C 111.195 9.08594 112.477 9.62891 113.391 10.7148C 114.305 11.8008 114.762 13.3555 114.762 15.3789L 114.762 16.2812L 106.172 16.2812C 106.203 17.5312 106.566 18.543 107.262 19.3164C 107.965 20.082 108.855 20.4648 109.934 20.4648C 110.699 20.4648 111.348 20.3086 111.879 19.9961C 112.41 19.6836 112.875 19.2695 113.273 18.7539L 114.598 19.7852C 113.535 21.418 111.941 22.2344 109.816 22.2344ZM 109.547 10.8672C 108.672 10.8672 107.938 11.1875 107.344 11.8281C 106.75 12.4609 106.383 13.3516 106.242 14.5L 112.594 14.5L 112.594 14.3359C 112.531 13.2344 112.234 12.3828 111.703 11.7812C 111.172 11.1719 110.453 10.8672 109.547 10.8672ZM 121.77 4.28125L 119.531 4.28125L 119.531 23.875L 121.77 23.875L 121.77 25.6562L 117.352 25.6562L 117.352 2.5L 121.77 2.5L 121.77 4.28125ZM 125.273 3.77734L 126.516 4.62109C 125.789 5.61328 125.414 6.68359 125.391 7.83203L 125.391 9.42578L 123.234 9.42578L 123.234 8.06641C 123.234 7.26953 123.422 6.48047 123.797 5.69922C 124.18 4.91797 124.672 4.27734 125.273 3.77734ZM 128.965 3.77734L 130.207 4.62109C 129.48 5.61328 129.105 6.68359 129.082 7.83203L 129.082 9.42578L 126.926 9.42578L 126.926 8.06641C 126.926 7.26953 127.113 6.48047 127.488 5.69922C 127.871 4.91797 128.363 4.27734 128.965 3.77734ZM 136.395 13.9492L 139.207 9.32031L 141.738 9.32031L 137.59 15.5898L 141.867 22L 139.359 22L 136.43 17.2539L 133.5 22L 130.98 22L 135.258 15.5898L 131.109 9.32031L 133.617 9.32031L 136.395 13.9492ZM 146.086 9.32031L 146.145 10.7266C 147.074 9.63281 148.328 9.08594 149.906 9.08594C 151.68 9.08594 152.887 9.76562 153.527 11.125C 153.949 10.5156 154.496 10.0234 155.168 9.64844C 155.848 9.27344 156.648 9.08594 157.57 9.08594C 160.352 9.08594 161.766 10.5586 161.812 13.5039L 161.812 22L 159.645 22L 159.645 13.6328C 159.645 12.7266 159.438 12.0508 159.023 11.6055C 158.609 11.1523 157.914 10.9258 156.938 10.9258C 156.133 10.9258 155.465 11.168 154.934 11.6523C 154.402 12.1289 154.094 12.7734 154.008 13.5859L 154.008 22L 151.828 22L 151.828 13.6914C 151.828 11.8477 150.926 10.9258 149.121 10.9258C 147.699 10.9258 146.727 11.5312 146.203 12.7422L 146.203 22L 144.035 22L 144.035 9.32031L 146.086 9.32031ZM 170.355 22.2344C 168.637 22.2344 167.238 21.6719 166.16 20.5469C 165.082 19.4141 164.543 17.9023 164.543 16.0117L 164.543 15.6133C 164.543 14.3555 164.781 13.2344 165.258 12.25C 165.742 11.2578 166.414 10.4844 167.273 9.92969C 168.141 9.36719 169.078 9.08594 170.086 9.08594C 171.734 9.08594 173.016 9.62891 173.93 10.7148C 174.844 11.8008 175.301 13.3555 175.301 15.3789L 175.301 16.2812L 166.711 16.2812C 166.742 17.5312 167.105 18.543 167.801 19.3164C 168.504 20.082 169.395 20.4648 170.473 20.4648C 171.238 20.4648 171.887 20.3086 172.418 19.9961C 172.949 19.6836 173.414 19.2695 173.812 18.7539L 175.137 19.7852C 174.074 21.418 172.48 22.2344 170.355 22.2344ZM 170.086 10.8672C 169.211 10.8672 168.477 11.1875 167.883 11.8281C 167.289 12.4609 166.922 13.3516 166.781 14.5L 173.133 14.5L 173.133 14.3359C 173.07 13.2344 172.773 12.3828 172.242 11.7812C 171.711 11.1719 170.992 10.8672 170.086 10.8672ZM 179.871 9.32031L 179.941 10.9141C 180.91 9.69531 182.176 9.08594 183.738 9.08594C 186.418 9.08594 187.77 10.5977 187.793 13.6211L 187.793 22L 185.625 22L 185.625 13.6094C 185.617 12.6953 185.406 12.0195 184.992 11.582C 184.586 11.1445 183.949 10.9258 183.082 10.9258C 182.379 10.9258 181.762 11.1133 181.23 11.4883C 180.699 11.8633 180.285 12.3555 179.988 12.9648L 179.988 22L 177.82 22L 177.82 9.32031L 179.871 9.32031ZM 190.137 9.74219L 188.906 8.89844C 189.633 7.88281 190.008 6.8125 190.031 5.6875L 190.031 4L 192.176 4L 192.176 5.52344C 192.168 6.30469 191.973 7.08594 191.59 7.86719C 191.215 8.64062 190.73 9.26562 190.137 9.74219ZM 193.734 9.74219L 192.504 8.89844C 193.23 7.88281 193.605 6.8125 193.629 5.6875L 193.629 4L 195.773 4L 195.773 5.52344C 195.766 6.30469 195.57 7.08594 195.188 7.86719C 194.812 8.64062 194.328 9.26562 193.734 9.74219ZM 196.887 2.5L 201.316 2.5L 201.316 25.6562L 196.887 25.6562L 196.887 23.875L 199.148 23.875L 199.148 4.28125L 196.887 4.28125L 196.887 2.5ZM 220.664 12.4609L 210.891 12.4609L 210.891 10.5742L 220.664 10.5742L 220.664 12.4609ZM 220.664 17.3242L 210.891 17.3242L 210.891 15.4492L 220.664 15.4492L 220.664 17.3242ZM 231.492 3.77734L 232.734 4.62109C 232.008 5.61328 231.633 6.68359 231.609 7.83203L 231.609 9.42578L 229.453 9.42578L 229.453 8.06641C 229.453 7.26953 229.641 6.48047 230.016 5.69922C 230.398 4.91797 230.891 4.27734 231.492 3.77734ZM 235.184 3.77734L 236.426 4.62109C 235.699 5.61328 235.324 6.68359 235.301 7.83203L 235.301 9.42578L 233.145 9.42578L 233.145 8.06641C 233.145 7.26953 233.332 6.48047 233.707 5.69922C 234.09 4.91797 234.582 4.27734 235.184 3.77734ZM 242.379 16.6211L 242.707 18.8711L 243.188 16.8438L 246.562 4.9375L 248.461 4.9375L 251.754 16.8438L 252.223 18.9062L 252.586 16.6094L 255.234 4.9375L 257.496 4.9375L 253.359 22L 251.309 22L 247.793 9.56641L 247.523 8.26562L 247.254 9.56641L 243.609 22L 241.559 22L 237.434 4.9375L 239.684 4.9375L 242.379 16.6211ZM 258.715 15.543C 258.715 14.3008 258.957 13.1836 259.441 12.1914C 259.934 11.1992 260.613 10.4336 261.48 9.89453C 262.355 9.35547 263.352 9.08594 264.469 9.08594C 266.195 9.08594 267.59 9.68359 268.652 10.8789C 269.723 12.0742 270.258 13.6641 270.258 15.6484L 270.258 15.8008C 270.258 17.0352 270.02 18.1445 269.543 19.1289C 269.074 20.1055 268.398 20.8672 267.516 21.4141C 266.641 21.9609 265.633 22.2344 264.492 22.2344C 262.773 22.2344 261.379 21.6367 260.309 20.4414C 259.246 19.2461 258.715 17.6641 258.715 15.6953L 258.715 15.543ZM 260.895 15.8008C 260.895 17.207 261.219 18.3359 261.867 19.1875C 262.523 20.0391 263.398 20.4648 264.492 20.4648C 265.594 20.4648 266.469 20.0352 267.117 19.1758C 267.766 18.3086 268.09 17.0977 268.09 15.543C 268.09 14.1523 267.758 13.0273 267.094 12.168C 266.438 11.3008 265.562 10.8672 264.469 10.8672C 263.398 10.8672 262.535 11.293 261.879 12.1445C 261.223 12.9961 260.895 14.2148 260.895 15.8008ZM 275.332 22L 273.164 22L 273.164 4L 275.332 4L 275.332 22ZM 282.996 19.0586L 286.137 9.32031L 288.352 9.32031L 283.805 22L 282.152 22L 277.559 9.32031L 279.773 9.32031L 282.996 19.0586ZM 295.535 22.2344C 293.816 22.2344 292.418 21.6719 291.34 20.5469C 290.262 19.4141 289.723 17.9023 289.723 16.0117L 289.723 15.6133C 289.723 14.3555 289.961 13.2344 290.438 12.25C 290.922 11.2578 291.594 10.4844 292.453 9.92969C 293.32 9.36719 294.258 9.08594 295.266 9.08594C 296.914 9.08594 298.195 9.62891 299.109 10.7148C 300.023 11.8008 300.48 13.3555 300.48 15.3789L 300.48 16.2812L 291.891 16.2812C 291.922 17.5312 292.285 18.543 292.98 19.3164C 293.684 20.082 294.574 20.4648 295.652 20.4648C 296.418 20.4648 297.066 20.3086 297.598 19.9961C 298.129 19.6836 298.594 19.2695 298.992 18.7539L 300.316 19.7852C 299.254 21.418 297.66 22.2344 295.535 22.2344ZM 295.266 10.8672C 294.391 10.8672 293.656 11.1875 293.062 11.8281C 292.469 12.4609 292.102 13.3516 291.961 14.5L 298.312 14.5L 298.312 14.3359C 298.25 13.2344 297.953 12.3828 297.422 11.7812C 296.891 11.1719 296.172 10.8672 295.266 10.8672ZM 309.129 11.2656C 308.801 11.2109 308.445 11.1836 308.062 11.1836C 306.641 11.1836 305.676 11.7891 305.168 13L 305.168 22L 303 22L 303 9.32031L 305.109 9.32031L 305.145 10.7852C 305.855 9.65234 306.863 9.08594 308.168 9.08594C 308.59 9.08594 308.91 9.14062 309.129 9.25L 309.129 11.2656ZM 313.488 22L 311.32 22L 311.32 9.32031L 313.488 9.32031L 313.488 22ZM 311.145 5.95703C 311.145 5.60547 311.25 5.30859 311.461 5.06641C 311.68 4.82422 312 4.70312 312.422 4.70312C 312.844 4.70312 313.164 4.82422 313.383 5.06641C 313.602 5.30859 313.711 5.60547 313.711 5.95703C 313.711 6.30859 313.602 6.60156 313.383 6.83594C 313.164 7.07031 312.844 7.1875 312.422 7.1875C 312 7.1875 311.68 7.07031 311.461 6.83594C 311.25 6.60156 311.145 6.30859 311.145 5.95703ZM 319.02 9.32031L 319.09 10.9141C 320.059 9.69531 321.324 9.08594 322.887 9.08594C 325.566 9.08594 326.918 10.5977 326.941 13.6211L 326.941 22L 324.773 22L 324.773 13.6094C 324.766 12.6953 324.555 12.0195 324.141 11.582C 323.734 11.1445 323.098 10.9258 322.23 10.9258C 321.527 10.9258 320.91 11.1133 320.379 11.4883C 319.848 11.8633 319.434 12.3555 319.137 12.9648L 319.137 22L 316.969 22L 316.969 9.32031L 319.02 9.32031ZM 335.473 22.2344C 333.754 22.2344 332.355 21.6719 331.277 20.5469C 330.199 19.4141 329.66 17.9023 329.66 16.0117L 329.66 15.6133C 329.66 14.3555 329.898 13.2344 330.375 12.25C 330.859 11.2578 331.531 10.4844 332.391 9.92969C 333.258 9.36719 334.195 9.08594 335.203 9.08594C 336.852 9.08594 338.133 9.62891 339.047 10.7148C 339.961 11.8008 340.418 13.3555 340.418 15.3789L 340.418 16.2812L 331.828 16.2812C 331.859 17.5312 332.223 18.543 332.918 19.3164C 333.621 20.082 334.512 20.4648 335.59 20.4648C 336.355 20.4648 337.004 20.3086 337.535 19.9961C 338.066 19.6836 338.531 19.2695 338.93 18.7539L 340.254 19.7852C 339.191 21.418 337.598 22.2344 335.473 22.2344ZM 335.203 10.8672C 334.328 10.8672 333.594 11.1875 333 11.8281C 332.406 12.4609 332.039 13.3516 331.898 14.5L 338.25 14.5L 338.25 14.3359C 338.188 13.2344 337.891 12.3828 337.359 11.7812C 336.828 11.1719 336.109 10.8672 335.203 10.8672ZM 343.066 9.74219L 341.836 8.89844C 342.562 7.88281 342.938 6.8125 342.961 5.6875L 342.961 4L 345.105 4L 345.105 5.52344C 345.098 6.30469 344.902 7.08594 344.52 7.86719C 344.145 8.64062 343.66 9.26562 343.066 9.74219ZM 346.664 9.74219L 345.434 8.89844C 346.16 7.88281 346.535 6.8125 346.559 5.6875L 346.559 4L 348.703 4L 348.703 5.52344C 348.695 6.30469 348.5 7.08594 348.117 7.86719C 347.742 8.64062 347.258 9.26562 346.664 9.74219Z"/>
<path id="path2_fill" d="M 3.80859 10.8555C 4.76953 9.67578 6.01953 9.08594 7.55859 9.08594C 10.2383 9.08594 11.5898 10.5977 11.6133 13.6211L 11.6133 22L 9.44531 22L 9.44531 13.6094C 9.4375 12.6953 9.22656 12.0195 8.8125 11.582C 8.40625 11.1445 7.76953 10.9258 6.90234 10.9258C 6.19922 10.9258 5.58203 11.1133 5.05078 11.4883C 4.51953 11.8633 4.10547 12.3555 3.80859 12.9648L 3.80859 22L 1.64062 22L 1.64062 4L 3.80859 4L 3.80859 10.8555ZM 22.6875 22C 22.5625 21.75 22.4609 21.3047 22.3828 20.6641C 21.375 21.7109 20.1719 22.2344 18.7734 22.2344C 17.5234 22.2344 16.4961 21.8828 15.6914 21.1797C 14.8945 20.4688 14.4961 19.5703 14.4961 18.4844C 14.4961 17.1641 14.9961 16.1406 15.9961 15.4141C 17.0039 14.6797 18.418 14.3125 20.2383 14.3125L 22.3477 14.3125L 22.3477 13.3164C 22.3477 12.5586 22.1211 11.957 21.668 11.5117C 21.2148 11.0586 20.5469 10.832 19.6641 10.832C 18.8906 10.832 18.2422 11.0273 17.7188 11.418C 17.1953 11.8086 16.9336 12.2812 16.9336 12.8359L 14.7539 12.8359C 14.7539 12.2031 14.9766 11.5938 15.4219 11.0078C 15.875 10.4141 16.4844 9.94531 17.25 9.60156C 18.0234 9.25781 18.8711 9.08594 19.793 9.08594C 21.2539 9.08594 22.3984 9.45312 23.2266 10.1875C 24.0547 10.9141 24.4844 11.918 24.5156 13.1992L 24.5156 19.0352C 24.5156 20.1992 24.6641 21.125 24.9609 21.8125L 24.9609 22L 22.6875 22ZM 19.0898 20.3477C 19.7695 20.3477 20.4141 20.1719 21.0234 19.8203C 21.6328 19.4688 22.0742 19.0117 22.3477 18.4492L 22.3477 15.8477L 20.6484 15.8477C 17.9922 15.8477 16.6641 16.625 16.6641 18.1797C 16.6641 18.8594 16.8906 19.3906 17.3438 19.7734C 17.7969 20.1562 18.3789 20.3477 19.0898 20.3477ZM 35.2969 18.6367C 35.2969 18.0508 35.0742 17.5977 34.6289 17.2773C 34.1914 16.9492 33.4219 16.668 32.3203 16.4336C 31.2266 16.1992 30.3555 15.918 29.707 15.5898C 29.0664 15.2617 28.5898 14.8711 28.2773 14.418C 27.9727 13.9648 27.8203 13.4258 27.8203 12.8008C 27.8203 11.7617 28.2578 10.8828 29.1328 10.1641C 30.0156 9.44531 31.1406 9.08594 32.5078 9.08594C 33.9453 9.08594 35.1094 9.45703 36 10.1992C 36.8984 10.9414 37.3477 11.8906 37.3477 13.0469L 35.168 13.0469C 35.168 12.4531 34.9141 11.9414 34.4062 11.5117C 33.9062 11.082 33.2734 10.8672 32.5078 10.8672C 31.7188 10.8672 31.1016 11.0391 30.6562 11.3828C 30.2109 11.7266 29.9883 12.1758 29.9883 12.7305C 29.9883 13.2539 30.1953 13.6484 30.6094 13.9141C 31.0234 14.1797 31.7695 14.4336 32.8477 14.6758C 33.9336 14.918 34.8125 15.207 35.4844 15.543C 36.1562 15.8789 36.6523 16.2852 36.9727 16.7617C 37.3008 17.2305 37.4648 17.8047 37.4648 18.4844C 37.4648 19.6172 37.0117 20.5273 36.1055 21.2148C 35.1992 21.8945 34.0234 22.2344 32.5781 22.2344C 31.5625 22.2344 30.6641 22.0547 29.8828 21.6953C 29.1016 21.3359 28.4883 20.8359 28.043 20.1953C 27.6055 19.5469 27.3867 18.8477 27.3867 18.0977L 29.5547 18.0977C 29.5938 18.8242 29.8828 19.4023 30.4219 19.832C 30.9688 20.2539 31.6875 20.4648 32.5781 20.4648C 33.3984 20.4648 34.0547 20.3008 34.5469 19.9727C 35.0469 19.6367 35.2969 19.1914 35.2969 18.6367ZM 42.457 10.8555C 43.418 9.67578 44.668 9.08594 46.207 9.08594C 48.8867 9.08594 50.2383 10.5977 50.2617 13.6211L 50.2617 22L 48.0938 22L 48.0938 13.6094C 48.0859 12.6953 47.875 12.0195 47.4609 11.582C 47.0547 11.1445 46.418 10.9258 45.5508 10.9258C 44.8477 10.9258 44.2305 11.1133 43.6992 11.4883C 43.168 11.8633 42.7539 12.3555 42.457 12.9648L 42.457 22L 40.2891 22L 40.2891 4L 42.457 4L 42.457 10.8555ZM 62.6484 23.7695L 51.9141 23.7695L 51.9141 22L 62.6484 22L 62.6484 23.7695ZM 67.2773 6.25L 67.2773 9.32031L 69.6445 9.32031L 69.6445 10.9961L 67.2773 10.9961L 67.2773 18.8594C 67.2773 19.3672 67.3828 19.75 67.5938 20.0078C 67.8047 20.2578 68.1641 20.3828 68.6719 20.3828C 68.9219 20.3828 69.2656 20.3359 69.7031 20.2422L 69.7031 22C 69.1328 22.1562 68.5781 22.2344 68.0391 22.2344C 67.0703 22.2344 66.3398 21.9414 65.8477 21.3555C 65.3555 20.7695 65.1094 19.9375 65.1094 18.8594L 65.1094 10.9961L 62.8008 10.9961L 62.8008 9.32031L 65.1094 9.32031L 65.1094 6.25L 67.2773 6.25ZM 80.0156 22C 79.8906 21.75 79.7891 21.3047 79.7109 20.6641C 78.7031 21.7109 77.5 22.2344 76.1016 22.2344C 74.8516 22.2344 73.8242 21.8828 73.0195 21.1797C 72.2227 20.4688 71.8242 19.5703 71.8242 18.4844C 71.8242 17.1641 72.3242 16.1406 73.3242 15.4141C 74.332 14.6797 75.7461 14.3125 77.5664 14.3125L 79.6758 14.3125L 79.6758 13.3164C 79.6758 12.5586 79.4492 11.957 78.9961 11.5117C 78.543 11.0586 77.875 10.832 76.9922 10.832C 76.2188 10.832 75.5703 11.0273 75.0469 11.418C 74.5234 11.8086 74.2617 12.2812 74.2617 12.8359L 72.082 12.8359C 72.082 12.2031 72.3047 11.5938 72.75 11.0078C 73.2031 10.4141 73.8125 9.94531 74.5781 9.60156C 75.3516 9.25781 76.1992 9.08594 77.1211 9.08594C 78.582 9.08594 79.7266 9.45312 80.5547 10.1875C 81.3828 10.9141 81.8125 11.918 81.8438 13.1992L 81.8438 19.0352C 81.8438 20.1992 81.9922 21.125 82.2891 21.8125L 82.2891 22L 80.0156 22ZM 76.418 20.3477C 77.0977 20.3477 77.7422 20.1719 78.3516 19.8203C 78.9609 19.4688 79.4023 19.0117 79.6758 18.4492L 79.6758 15.8477L 77.9766 15.8477C 75.3203 15.8477 73.9922 16.625 73.9922 18.1797C 73.9922 18.8594 74.2188 19.3906 74.6719 19.7734C 75.125 20.1562 75.707 20.3477 76.418 20.3477ZM 95.9766 15.8008C 95.9766 17.7383 95.5312 19.2969 94.6406 20.4766C 93.75 21.6484 92.5547 22.2344 91.0547 22.2344C 89.4531 22.2344 88.2148 21.668 87.3398 20.5352L 87.2344 22L 85.2422 22L 85.2422 4L 87.4102 4L 87.4102 10.7148C 88.2852 9.62891 89.4922 9.08594 91.0312 9.08594C 92.5703 9.08594 93.7773 9.66797 94.6523 10.832C 95.5352 11.9961 95.9766 13.5898 95.9766 15.6133L 95.9766 15.8008ZM 93.8086 15.5547C 93.8086 14.0781 93.5234 12.9375 92.9531 12.1328C 92.3828 11.3281 91.5625 10.9258 90.4922 10.9258C 89.0625 10.9258 88.0352 11.5898 87.4102 12.918L 87.4102 18.4023C 88.0742 19.7305 89.1094 20.3945 90.5156 20.3945C 91.5547 20.3945 92.3633 19.9922 92.9414 19.1875C 93.5195 18.3828 93.8086 17.1719 93.8086 15.5547ZM 101.074 22L 98.9062 22L 98.9062 4L 101.074 4L 101.074 22ZM 109.816 22.2344C 108.098 22.2344 106.699 21.6719 105.621 20.5469C 104.543 19.4141 104.004 17.9023 104.004 16.0117L 104.004 15.6133C 104.004 14.3555 104.242 13.2344 104.719 12.25C 105.203 11.2578 105.875 10.4844 106.734 9.92969C 107.602 9.36719 108.539 9.08594 109.547 9.08594C 111.195 9.08594 112.477 9.62891 113.391 10.7148C 114.305 11.8008 114.762 13.3555 114.762 15.3789L 114.762 16.2812L 106.172 16.2812C 106.203 17.5312 106.566 18.543 107.262 19.3164C 107.965 20.082 108.855 20.4648 109.934 20.4648C 110.699 20.4648 111.348 20.3086 111.879 19.9961C 112.41 19.6836 112.875 19.2695 113.273 18.7539L 114.598 19.7852C 113.535 21.418 111.941 22.2344 109.816 22.2344ZM 109.547 10.8672C 108.672 10.8672 107.938 11.1875 107.344 11.8281C 106.75 12.4609 106.383 13.3516 106.242 14.5L 112.594 14.5L 112.594 14.3359C 112.531 13.2344 112.234 12.3828 111.703 11.7812C 111.172 11.1719 110.453 10.8672 109.547 10.8672ZM 121.77 4.28125L 119.531 4.28125L 119.531 23.875L 121.77 23.875L 121.77 25.6562L 117.352 25.6562L 117.352 2.5L 121.77 2.5L 121.77 4.28125ZM 125.273 3.77734L 126.516 4.62109C 125.789 5.61328 125.414 6.68359 125.391 7.83203L 125.391 9.42578L 123.234 9.42578L 123.234 8.06641C 123.234 7.26953 123.422 6.48047 123.797 5.69922C 124.18 4.91797 124.672 4.27734 125.273 3.77734ZM 128.965 3.77734L 130.207 4.62109C 129.48 5.61328 129.105 6.68359 129.082 7.83203L 129.082 9.42578L 126.926 9.42578L 126.926 8.06641C 126.926 7.26953 127.113 6.48047 127.488 5.69922C 127.871 4.91797 128.363 4.27734 128.965 3.77734ZM 136.395 13.9492L 139.207 9.32031L 141.738 9.32031L 137.59 15.5898L 141.867 22L 139.359 22L 136.43 17.2539L 133.5 22L 130.98 22L 135.258 15.5898L 131.109 9.32031L 133.617 9.32031L 136.395 13.9492ZM 146.086 9.32031L 146.145 10.7266C 147.074 9.63281 148.328 9.08594 149.906 9.08594C 151.68 9.08594 152.887 9.76562 153.527 11.125C 153.949 10.5156 154.496 10.0234 155.168 9.64844C 155.848 9.27344 156.648 9.08594 157.57 9.08594C 160.352 9.08594 161.766 10.5586 161.812 13.5039L 161.812 22L 159.645 22L 159.645 13.6328C 159.645 12.7266 159.438 12.0508 159.023 11.6055C 158.609 11.1523 157.914 10.9258 156.938 10.9258C 156.133 10.9258 155.465 11.168 154.934 11.6523C 154.402 12.1289 154.094 12.7734 154.008 13.5859L 154.008 22L 151.828 22L 151.828 13.6914C 151.828 11.8477 150.926 10.9258 149.121 10.9258C 147.699 10.9258 146.727 11.5312 146.203 12.7422L 146.203 22L 144.035 22L 144.035 9.32031L 146.086 9.32031ZM 170.355 22.2344C 168.637 22.2344 167.238 21.6719 166.16 20.5469C 165.082 19.4141 164.543 17.9023 164.543 16.0117L 164.543 15.6133C 164.543 14.3555 164.781 13.2344 165.258 12.25C 165.742 11.2578 166.414 10.4844 167.273 9.92969C 168.141 9.36719 169.078 9.08594 170.086 9.08594C 171.734 9.08594 173.016 9.62891 173.93 10.7148C 174.844 11.8008 175.301 13.3555 175.301 15.3789L 175.301 16.2812L 166.711 16.2812C 166.742 17.5312 167.105 18.543 167.801 19.3164C 168.504 20.082 169.395 20.4648 170.473 20.4648C 171.238 20.4648 171.887 20.3086 172.418 19.9961C 172.949 19.6836 173.414 19.2695 173.812 18.7539L 175.137 19.7852C 174.074 21.418 172.48 22.2344 170.355 22.2344ZM 170.086 10.8672C 169.211 10.8672 168.477 11.1875 167.883 11.8281C 167.289 12.4609 166.922 13.3516 166.781 14.5L 173.133 14.5L 173.133 14.3359C 173.07 13.2344 172.773 12.3828 172.242 11.7812C 171.711 11.1719 170.992 10.8672 170.086 10.8672ZM 179.871 9.32031L 179.941 10.9141C 180.91 9.69531 182.176 9.08594 183.738 9.08594C 186.418 9.08594 187.77 10.5977 187.793 13.6211L 187.793 22L 185.625 22L 185.625 13.6094C 185.617 12.6953 185.406 12.0195 184.992 11.582C 184.586 11.1445 183.949 10.9258 183.082 10.9258C 182.379 10.9258 181.762 11.1133 181.23 11.4883C 180.699 11.8633 180.285 12.3555 179.988 12.9648L 179.988 22L 177.82 22L 177.82 9.32031L 179.871 9.32031ZM 190.137 9.74219L 188.906 8.89844C 189.633 7.88281 190.008 6.8125 190.031 5.6875L 190.031 4L 192.176 4L 192.176 5.52344C 192.168 6.30469 191.973 7.08594 191.59 7.86719C 191.215 8.64062 190.73 9.26562 190.137 9.74219ZM 193.734 9.74219L 192.504 8.89844C 193.23 7.88281 193.605 6.8125 193.629 5.6875L 193.629 4L 195.773 4L 195.773 5.52344C 195.766 6.30469 195.57 7.08594 195.188 7.86719C 194.812 8.64062 194.328 9.26562 193.734 9.74219ZM 196.887 2.5L 201.316 2.5L 201.316 25.6562L 196.887 25.6562L 196.887 23.875L 199.148 23.875L 199.148 4.28125L 196.887 4.28125L 196.887 2.5ZM 220.664 12.4609L 210.891 12.4609L 210.891 10.5742L 220.664 10.5742L 220.664 12.4609ZM 220.664 17.3242L 210.891 17.3242L 210.891 15.4492L 220.664 15.4492L 220.664 17.3242ZM 231.492 3.77734L 232.734 4.62109C 232.008 5.61328 231.633 6.68359 231.609 7.83203L 231.609 9.42578L 229.453 9.42578L 229.453 8.06641C 229.453 7.26953 229.641 6.48047 230.016 5.69922C 230.398 4.91797 230.891 4.27734 231.492 3.77734ZM 235.184 3.77734L 236.426 4.62109C 235.699 5.61328 235.324 6.68359 235.301 7.83203L 235.301 9.42578L 233.145 9.42578L 233.145 8.06641C 233.145 7.26953 233.332 6.48047 233.707 5.69922C 234.09 4.91797 234.582 4.27734 235.184 3.77734ZM 243.727 14.3945C 241.797 13.8398 240.391 13.1602 239.508 12.3555C 238.633 11.543 238.195 10.543 238.195 9.35547C 238.195 8.01172 238.73 6.90234 239.801 6.02734C 240.879 5.14453 242.277 4.70312 243.996 4.70312C 245.168 4.70312 246.211 4.92969 247.125 5.38281C 248.047 5.83594 248.758 6.46094 249.258 7.25781C 249.766 8.05469 250.02 8.92578 250.02 9.87109L 247.758 9.87109C 247.758 8.83984 247.43 8.03125 246.773 7.44531C 246.117 6.85156 245.191 6.55469 243.996 6.55469C 242.887 6.55469 242.02 6.80078 241.395 7.29297C 240.777 7.77734 240.469 8.45312 240.469 9.32031C 240.469 10.0156 240.762 10.6055 241.348 11.0898C 241.941 11.5664 242.945 12.0039 244.359 12.4023C 245.781 12.8008 246.891 13.2422 247.688 13.7266C 248.492 14.2031 249.086 14.7617 249.469 15.4023C 249.859 16.043 250.055 16.7969 250.055 17.6641C 250.055 19.0469 249.516 20.1562 248.438 20.9922C 247.359 21.8203 245.918 22.2344 244.113 22.2344C 242.941 22.2344 241.848 22.0117 240.832 21.5664C 239.816 21.1133 239.031 20.4961 238.477 19.7148C 237.93 18.9336 237.656 18.0469 237.656 17.0547L 239.918 17.0547C 239.918 18.0859 240.297 18.9023 241.055 19.5039C 241.82 20.0977 242.84 20.3945 244.113 20.3945C 245.301 20.3945 246.211 20.1523 246.844 19.668C 247.477 19.1836 247.793 18.5234 247.793 17.6875C 247.793 16.8516 247.5 16.207 246.914 15.7539C 246.328 15.293 245.266 14.8398 243.727 14.3945ZM 260.438 20.7461C 259.594 21.7383 258.355 22.2344 256.723 22.2344C 255.371 22.2344 254.34 21.8438 253.629 21.0625C 252.926 20.2734 252.57 19.1094 252.562 17.5703L 252.562 9.32031L 254.73 9.32031L 254.73 17.5117C 254.73 19.4336 255.512 20.3945 257.074 20.3945C 258.73 20.3945 259.832 19.7773 260.379 18.543L 260.379 9.32031L 262.547 9.32031L 262.547 22L 260.484 22L 260.438 20.7461ZM 276.562 15.8008C 276.562 17.7305 276.121 19.2852 275.238 20.4648C 274.355 21.6445 273.16 22.2344 271.652 22.2344C 270.113 22.2344 268.902 21.7461 268.02 20.7695L 268.02 26.875L 265.852 26.875L 265.852 9.32031L 267.832 9.32031L 267.938 10.7266C 268.82 9.63281 270.047 9.08594 271.617 9.08594C 273.141 9.08594 274.344 9.66016 275.227 10.8086C 276.117 11.957 276.562 13.5547 276.562 15.6016L 276.562 15.8008ZM 274.395 15.5547C 274.395 14.125 274.09 12.9961 273.48 12.168C 272.871 11.3398 272.035 10.9258 270.973 10.9258C 269.66 10.9258 268.676 11.5078 268.02 12.6719L 268.02 18.7305C 268.668 19.8867 269.66 20.4648 270.996 20.4648C 272.035 20.4648 272.859 20.0547 273.469 19.2344C 274.086 18.4062 274.395 17.1797 274.395 15.5547ZM 284.59 22.2344C 282.871 22.2344 281.473 21.6719 280.395 20.5469C 279.316 19.4141 278.777 17.9023 278.777 16.0117L 278.777 15.6133C 278.777 14.3555 279.016 13.2344 279.492 12.25C 279.977 11.2578 280.648 10.4844 281.508 9.92969C 282.375 9.36719 283.312 9.08594 284.32 9.08594C 285.969 9.08594 287.25 9.62891 288.164 10.7148C 289.078 11.8008 289.535 13.3555 289.535 15.3789L 289.535 16.2812L 280.945 16.2812C 280.977 17.5312 281.34 18.543 282.035 19.3164C 282.738 20.082 283.629 20.4648 284.707 20.4648C 285.473 20.4648 286.121 20.3086 286.652 19.9961C 287.184 19.6836 287.648 19.2695 288.047 18.7539L 289.371 19.7852C 288.309 21.418 286.715 22.2344 284.59 22.2344ZM 284.32 10.8672C 283.445 10.8672 282.711 11.1875 282.117 11.8281C 281.523 12.4609 281.156 13.3516 281.016 14.5L 287.367 14.5L 287.367 14.3359C 287.305 13.2344 287.008 12.3828 286.477 11.7812C 285.945 11.1719 285.227 10.8672 284.32 10.8672ZM 298.184 11.2656C 297.855 11.2109 297.5 11.1836 297.117 11.1836C 295.695 11.1836 294.73 11.7891 294.223 13L 294.223 22L 292.055 22L 292.055 9.32031L 294.164 9.32031L 294.199 10.7852C 294.91 9.65234 295.918 9.08594 297.223 9.08594C 297.645 9.08594 297.965 9.14062 298.184 9.25L 298.184 11.2656ZM 302.227 9.32031L 302.285 10.7266C 303.215 9.63281 304.469 9.08594 306.047 9.08594C 307.82 9.08594 309.027 9.76562 309.668 11.125C 310.09 10.5156 310.637 10.0234 311.309 9.64844C 311.988 9.27344 312.789 9.08594 313.711 9.08594C 316.492 9.08594 317.906 10.5586 317.953 13.5039L 317.953 22L 315.785 22L 315.785 13.6328C 315.785 12.7266 315.578 12.0508 315.164 11.6055C 314.75 11.1523 314.055 10.9258 313.078 10.9258C 312.273 10.9258 311.605 11.168 311.074 11.6523C 310.543 12.1289 310.234 12.7734 310.148 13.5859L 310.148 22L 307.969 22L 307.969 13.6914C 307.969 11.8477 307.066 10.9258 305.262 10.9258C 303.84 10.9258 302.867 11.5312 302.344 12.7422L 302.344 22L 300.176 22L 300.176 9.32031L 302.227 9.32031ZM 329.062 22C 328.938 21.75 328.836 21.3047 328.758 20.6641C 327.75 21.7109 326.547 22.2344 325.148 22.2344C 323.898 22.2344 322.871 21.8828 322.066 21.1797C 321.27 20.4688 320.871 19.5703 320.871 18.4844C 320.871 17.1641 321.371 16.1406 322.371 15.4141C 323.379 14.6797 324.793 14.3125 326.613 14.3125L 328.723 14.3125L 328.723 13.3164C 328.723 12.5586 328.496 11.957 328.043 11.5117C 327.59 11.0586 326.922 10.832 326.039 10.832C 325.266 10.832 324.617 11.0273 324.094 11.418C 323.57 11.8086 323.309 12.2812 323.309 12.8359L 321.129 12.8359C 321.129 12.2031 321.352 11.5938 321.797 11.0078C 322.25 10.4141 322.859 9.94531 323.625 9.60156C 324.398 9.25781 325.246 9.08594 326.168 9.08594C 327.629 9.08594 328.773 9.45312 329.602 10.1875C 330.43 10.9141 330.859 11.918 330.891 13.1992L 330.891 19.0352C 330.891 20.1992 331.039 21.125 331.336 21.8125L 331.336 22L 329.062 22ZM 325.465 20.3477C 326.145 20.3477 326.789 20.1719 327.398 19.8203C 328.008 19.4688 328.449 19.0117 328.723 18.4492L 328.723 15.8477L 327.023 15.8477C 324.367 15.8477 323.039 16.625 323.039 18.1797C 323.039 18.8594 323.266 19.3906 323.719 19.7734C 324.172 20.1562 324.754 20.3477 325.465 20.3477ZM 336.34 9.32031L 336.41 10.9141C 337.379 9.69531 338.645 9.08594 340.207 9.08594C 342.887 9.08594 344.238 10.5977 344.262 13.6211L 344.262 22L 342.094 22L 342.094 13.6094C 342.086 12.6953 341.875 12.0195 341.461 11.582C 341.055 11.1445 340.418 10.9258 339.551 10.9258C 338.848 10.9258 338.23 11.1133 337.699 11.4883C 337.168 11.8633 336.754 12.3555 336.457 12.9648L 336.457 22L 334.289 22L 334.289 9.32031L 336.34 9.32031ZM 346.605 9.74219L 345.375 8.89844C 346.102 7.88281 346.477 6.8125 346.5 5.6875L 346.5 4L 348.645 4L 348.645 5.52344C 348.637 6.30469 348.441 7.08594 348.059 7.86719C 347.684 8.64062 347.199 9.26562 346.605 9.74219ZM 350.203 9.74219L 348.973 8.89844C 349.699 7.88281 350.074 6.8125 350.098 5.6875L 350.098 4L 352.242 4L 352.242 5.52344C 352.234 6.30469 352.039 7.08594 351.656 7.86719C 351.281 8.64062 350.797 9.26562 350.203 9.74219Z"/>
<path id="path3_fill" d="M 11.4023 17.5469L 4.25391 17.5469L 2.64844 22L 0.328125 22L 6.84375 4.9375L 8.8125 4.9375L 15.3398 22L 13.0312 22L 11.4023 17.5469ZM 4.93359 15.6953L 10.7344 15.6953L 7.82812 7.71484L 4.93359 15.6953ZM 23.4258 11.2656C 23.0977 11.2109 22.7422 11.1836 22.3594 11.1836C 20.9375 11.1836 19.9727 11.7891 19.4648 13L 19.4648 22L 17.2969 22L 17.2969 9.32031L 19.4062 9.32031L 19.4414 10.7852C 20.1523 9.65234 21.1602 9.08594 22.4648 9.08594C 22.8867 9.08594 23.207 9.14062 23.4258 9.25L 23.4258 11.2656ZM 31.5586 11.2656C 31.2305 11.2109 30.875 11.1836 30.4922 11.1836C 29.0703 11.1836 28.1055 11.7891 27.5977 13L 27.5977 22L 25.4297 22L 25.4297 9.32031L 27.5391 9.32031L 27.5742 10.7852C 28.2852 9.65234 29.293 9.08594 30.5977 9.08594C 31.0195 9.08594 31.3398 9.14062 31.5586 9.25L 31.5586 11.2656ZM 40.9219 22C 40.7969 21.75 40.6953 21.3047 40.6172 20.6641C 39.6094 21.7109 38.4062 22.2344 37.0078 22.2344C 35.7578 22.2344 34.7305 21.8828 33.9258 21.1797C 33.1289 20.4688 32.7305 19.5703 32.7305 18.4844C 32.7305 17.1641 33.2305 16.1406 34.2305 15.4141C 35.2383 14.6797 36.6523 14.3125 38.4727 14.3125L 40.582 14.3125L 40.582 13.3164C 40.582 12.5586 40.3555 11.957 39.9023 11.5117C 39.4492 11.0586 38.7812 10.832 37.8984 10.832C 37.125 10.832 36.4766 11.0273 35.9531 11.418C 35.4297 11.8086 35.168 12.2812 35.168 12.8359L 32.9883 12.8359C 32.9883 12.2031 33.2109 11.5938 33.6562 11.0078C 34.1094 10.4141 34.7188 9.94531 35.4844 9.60156C 36.2578 9.25781 37.1055 9.08594 38.0273 9.08594C 39.4883 9.08594 40.6328 9.45312 41.4609 10.1875C 42.2891 10.9141 42.7188 11.918 42.75 13.1992L 42.75 19.0352C 42.75 20.1992 42.8984 21.125 43.1953 21.8125L 43.1953 22L 40.9219 22ZM 37.3242 20.3477C 38.0039 20.3477 38.6484 20.1719 39.2578 19.8203C 39.8672 19.4688 40.3086 19.0117 40.582 18.4492L 40.582 15.8477L 38.8828 15.8477C 36.2266 15.8477 34.8984 16.625 34.8984 18.1797C 34.8984 18.8594 35.125 19.3906 35.5781 19.7734C 36.0312 20.1562 36.6133 20.3477 37.3242 20.3477ZM 50.1094 18.8242L 53.0625 9.32031L 55.3828 9.32031L 50.2852 23.957C 49.4961 26.0664 48.2422 27.1211 46.5234 27.1211L 46.1133 27.0859L 45.3047 26.9336L 45.3047 25.1758L 45.8906 25.2227C 46.625 25.2227 47.1953 25.0742 47.6016 24.7773C 48.0156 24.4805 48.3555 23.9375 48.6211 23.1484L 49.1016 21.8594L 44.5781 9.32031L 46.9453 9.32031L 50.1094 18.8242Z"/>
<path id="path4_fill" d="M 0 0L 50 0L 50 50L 0 50L 0 0Z"/>
<path id="path5_fill" d="M 12.1172 14.7227C 12.1172 17.2617 11.6836 19.1484 10.8164 20.3828C 9.94922 21.6172 8.59375 22.2344 6.75 22.2344C 4.92969 22.2344 3.58203 21.6328 2.70703 20.4297C 1.83203 19.2188 1.37891 17.4141 1.34766 15.0156L 1.34766 12.1211C 1.34766 9.61328 1.78125 7.75 2.64844 6.53125C 3.51562 5.3125 4.875 4.70312 6.72656 4.70312C 8.5625 4.70312 9.91406 5.29297 10.7812 6.47266C 11.6484 7.64453 12.0938 9.45703 12.1172 11.9102L 12.1172 14.7227ZM 9.94922 11.7578C 9.94922 9.92188 9.69141 8.58594 9.17578 7.75C 8.66016 6.90625 7.84375 6.48438 6.72656 6.48438C 5.61719 6.48438 4.80859 6.90234 4.30078 7.73828C 3.79297 8.57422 3.53125 9.85938 3.51562 11.5938L 3.51562 15.0625C 3.51562 16.9062 3.78125 18.2695 4.3125 19.1523C 4.85156 20.0273 5.66406 20.4648 6.75 20.4648C 7.82031 20.4648 8.61328 20.0508 9.12891 19.2227C 9.65234 18.3945 9.92578 17.0898 9.94922 15.3086L 9.94922 11.7578Z"/>
<path id="path6_fill" d="M 8.54297 22L 6.36328 22L 6.36328 7.55078L 1.99219 9.15625L 1.99219 7.1875L 8.20312 4.85547L 8.54297 4.85547L 8.54297 22Z"/>
<path id="path7_fill" d="M 12.5977 22L 1.41797 22L 1.41797 20.4414L 7.32422 13.8789C 8.19922 12.8867 8.80078 12.082 9.12891 11.4648C 9.46484 10.8398 9.63281 10.1953 9.63281 9.53125C 9.63281 8.64062 9.36328 7.91016 8.82422 7.33984C 8.28516 6.76953 7.56641 6.48438 6.66797 6.48438C 5.58984 6.48438 4.75 6.79297 4.14844 7.41016C 3.55469 8.01953 3.25781 8.87109 3.25781 9.96484L 1.08984 9.96484C 1.08984 8.39453 1.59375 7.125 2.60156 6.15625C 3.61719 5.1875 4.97266 4.70312 6.66797 4.70312C 8.25391 4.70312 9.50781 5.12109 10.4297 5.95703C 11.3516 6.78516 11.8125 7.89062 11.8125 9.27344C 11.8125 10.9531 10.7422 12.9531 8.60156 15.2734L 4.03125 20.2305L 12.5977 20.2305L 12.5977 22Z"/>
<path id="path8_stroke" d="M 205.902 0.353553C 206.097 0.158291 206.097 -0.158291 205.902 -0.353553L 202.72 -3.53553C 202.524 -3.7308 202.208 -3.7308 202.013 -3.53553C 201.817 -3.34027 201.817 -3.02369 202.013 -2.82843L 204.841 0L 202.013 2.82843C 201.817 3.02369 201.817 3.34027 202.013 3.53553C 202.208 3.7308 202.524 3.7308 202.72 3.53553L 205.902 0.353553ZM 0 0.5L 205.548 0.5L 205.548 -0.5L 0 -0.5L 0 0.5Z"/>
<path id="path9_stroke" d="M 93.3536 0.353553C 93.5488 0.158291 93.5488 -0.158291 93.3536 -0.353553L 90.1716 -3.53553C 89.9763 -3.7308 89.6597 -3.7308 89.4645 -3.53553C 89.2692 -3.34027 89.2692 -3.02369 89.4645 -2.82843L 92.2929 0L 89.4645 2.82843C 89.2692 3.02369 89.2692 3.34027 89.4645 3.53553C 89.6597 3.7308 89.9763 3.7308 90.1716 3.53553L 93.3536 0.353553ZM 0 0.5L 93 0.5L 93 -0.5L 0 -0.5L 0 0.5Z"/>
<path id="path10_fill" d="M 6.12891 4.28125L 3.89062 4.28125L 3.89062 23.875L 6.12891 23.875L 6.12891 25.6562L 1.71094 25.6562L 1.71094 2.5L 6.12891 2.5L 6.12891 4.28125ZM 7.93359 15.0742C 7.93359 13.3086 8.16797 11.6133 8.63672 9.98828C 9.11328 8.36328 9.82031 6.88672 10.7578 5.55859C 11.6953 4.23047 12.668 3.29297 13.6758 2.74609L 14.1211 4.17578C 12.9805 5.05078 12.043 6.38672 11.3086 8.18359C 10.582 9.98047 10.1836 11.9922 10.1133 14.2188L 10.1016 15.2148C 10.1016 18.2305 10.6523 20.8477 11.7539 23.0664C 12.418 24.3945 13.207 25.4336 14.1211 26.1836L 13.6758 27.5078C 12.6367 26.9297 11.6445 25.9609 10.6992 24.6016C 8.85547 21.9453 7.93359 18.7695 7.93359 15.0742ZM 17.8359 3.77734L 19.0781 4.62109C 18.3516 5.61328 17.9766 6.68359 17.9531 7.83203L 17.9531 9.42578L 15.7969 9.42578L 15.7969 8.06641C 15.7969 7.26953 15.9844 6.48047 16.3594 5.69922C 16.7422 4.91797 17.2344 4.27734 17.8359 3.77734ZM 21.5273 3.77734L 22.7695 4.62109C 22.043 5.61328 21.668 6.68359 21.6445 7.83203L 21.6445 9.42578L 19.4883 9.42578L 19.4883 8.06641C 19.4883 7.26953 19.6758 6.48047 20.0508 5.69922C 20.4336 4.91797 20.9258 4.27734 21.5273 3.77734ZM 28.957 13.9492L 31.7695 9.32031L 34.3008 9.32031L 30.1523 15.5898L 34.4297 22L 31.9219 22L 28.9922 17.2539L 26.0625 22L 23.543 22L 27.8203 15.5898L 23.6719 9.32031L 26.1797 9.32031L 28.957 13.9492ZM 38.6484 9.32031L 38.707 10.7266C 39.6367 9.63281 40.8906 9.08594 42.4688 9.08594C 44.2422 9.08594 45.4492 9.76562 46.0898 11.125C 46.5117 10.5156 47.0586 10.0234 47.7305 9.64844C 48.4102 9.27344 49.2109 9.08594 50.1328 9.08594C 52.9141 9.08594 54.3281 10.5586 54.375 13.5039L 54.375 22L 52.207 22L 52.207 13.6328C 52.207 12.7266 52 12.0508 51.5859 11.6055C 51.1719 11.1523 50.4766 10.9258 49.5 10.9258C 48.6953 10.9258 48.0273 11.168 47.4961 11.6523C 46.9648 12.1289 46.6562 12.7734 46.5703 13.5859L 46.5703 22L 44.3906 22L 44.3906 13.6914C 44.3906 11.8477 43.4883 10.9258 41.6836 10.9258C 40.2617 10.9258 39.2891 11.5312 38.7656 12.7422L 38.7656 22L 36.5977 22L 36.5977 9.32031L 38.6484 9.32031ZM 62.918 22.2344C 61.1992 22.2344 59.8008 21.6719 58.7227 20.5469C 57.6445 19.4141 57.1055 17.9023 57.1055 16.0117L 57.1055 15.6133C 57.1055 14.3555 57.3438 13.2344 57.8203 12.25C 58.3047 11.2578 58.9766 10.4844 59.8359 9.92969C 60.7031 9.36719 61.6406 9.08594 62.6484 9.08594C 64.2969 9.08594 65.5781 9.62891 66.4922 10.7148C 67.4062 11.8008 67.8633 13.3555 67.8633 15.3789L 67.8633 16.2812L 59.2734 16.2812C 59.3047 17.5312 59.668 18.543 60.3633 19.3164C 61.0664 20.082 61.957 20.4648 63.0352 20.4648C 63.8008 20.4648 64.4492 20.3086 64.9805 19.9961C 65.5117 19.6836 65.9766 19.2695 66.375 18.7539L 67.6992 19.7852C 66.6367 21.418 65.043 22.2344 62.918 22.2344ZM 62.6484 10.8672C 61.7734 10.8672 61.0391 11.1875 60.4453 11.8281C 59.8516 12.4609 59.4844 13.3516 59.3438 14.5L 65.6953 14.5L 65.6953 14.3359C 65.6328 13.2344 65.3359 12.3828 64.8047 11.7812C 64.2734 11.1719 63.5547 10.8672 62.6484 10.8672ZM 72.4336 9.32031L 72.5039 10.9141C 73.4727 9.69531 74.7383 9.08594 76.3008 9.08594C 78.9805 9.08594 80.332 10.5977 80.3555 13.6211L 80.3555 22L 78.1875 22L 78.1875 13.6094C 78.1797 12.6953 77.9688 12.0195 77.5547 11.582C 77.1484 11.1445 76.5117 10.9258 75.6445 10.9258C 74.9414 10.9258 74.3242 11.1133 73.793 11.4883C 73.2617 11.8633 72.8477 12.3555 72.5508 12.9648L 72.5508 22L 70.3828 22L 70.3828 9.32031L 72.4336 9.32031ZM 82.6992 9.74219L 81.4688 8.89844C 82.1953 7.88281 82.5703 6.8125 82.5938 5.6875L 82.5938 4L 84.7383 4L 84.7383 5.52344C 84.7305 6.30469 84.5352 7.08594 84.1523 7.86719C 83.7773 8.64062 83.293 9.26562 82.6992 9.74219ZM 86.2969 9.74219L 85.0664 8.89844C 85.793 7.88281 86.168 6.8125 86.1914 5.6875L 86.1914 4L 88.3359 4L 88.3359 5.52344C 88.3281 6.30469 88.1328 7.08594 87.75 7.86719C 87.375 8.64062 86.8906 9.26562 86.2969 9.74219ZM 90.9141 25.3984L 89.6836 24.5547C 90.418 23.5312 90.8008 22.4766 90.832 21.3906L 90.832 19.4336L 92.9531 19.4336L 92.9531 21.1328C 92.9531 21.9219 92.7578 22.7109 92.3672 23.5C 91.9844 24.2891 91.5 24.9219 90.9141 25.3984ZM 103.266 3.77734L 104.508 4.62109C 103.781 5.61328 103.406 6.68359 103.383 7.83203L 103.383 9.42578L 101.227 9.42578L 101.227 8.06641C 101.227 7.26953 101.414 6.48047 101.789 5.69922C 102.172 4.91797 102.664 4.27734 103.266 3.77734ZM 106.957 3.77734L 108.199 4.62109C 107.473 5.61328 107.098 6.68359 107.074 7.83203L 107.074 9.42578L 104.918 9.42578L 104.918 8.06641C 104.918 7.26953 105.105 6.48047 105.48 5.69922C 105.863 4.91797 106.355 4.27734 106.957 3.77734ZM 114.152 16.6211L 114.48 18.8711L 114.961 16.8438L 118.336 4.9375L 120.234 4.9375L 123.527 16.8438L 123.996 18.9062L 124.359 16.6094L 127.008 4.9375L 129.27 4.9375L 125.133 22L 123.082 22L 119.566 9.56641L 119.297 8.26562L 119.027 9.56641L 115.383 22L 113.332 22L 109.207 4.9375L 111.457 4.9375L 114.152 16.6211ZM 130.488 15.543C 130.488 14.3008 130.73 13.1836 131.215 12.1914C 131.707 11.1992 132.387 10.4336 133.254 9.89453C 134.129 9.35547 135.125 9.08594 136.242 9.08594C 137.969 9.08594 139.363 9.68359 140.426 10.8789C 141.496 12.0742 142.031 13.6641 142.031 15.6484L 142.031 15.8008C 142.031 17.0352 141.793 18.1445 141.316 19.1289C 140.848 20.1055 140.172 20.8672 139.289 21.4141C 138.414 21.9609 137.406 22.2344 136.266 22.2344C 134.547 22.2344 133.152 21.6367 132.082 20.4414C 131.02 19.2461 130.488 17.6641 130.488 15.6953L 130.488 15.543ZM 132.668 15.8008C 132.668 17.207 132.992 18.3359 133.641 19.1875C 134.297 20.0391 135.172 20.4648 136.266 20.4648C 137.367 20.4648 138.242 20.0352 138.891 19.1758C 139.539 18.3086 139.863 17.0977 139.863 15.543C 139.863 14.1523 139.531 13.0273 138.867 12.168C 138.211 11.3008 137.336 10.8672 136.242 10.8672C 135.172 10.8672 134.309 11.293 133.652 12.1445C 132.996 12.9961 132.668 14.2148 132.668 15.8008ZM 147.105 22L 144.938 22L 144.938 4L 147.105 4L 147.105 22ZM 154.77 19.0586L 157.91 9.32031L 160.125 9.32031L 155.578 22L 153.926 22L 149.332 9.32031L 151.547 9.32031L 154.77 19.0586ZM 167.309 22.2344C 165.59 22.2344 164.191 21.6719 163.113 20.5469C 162.035 19.4141 161.496 17.9023 161.496 16.0117L 161.496 15.6133C 161.496 14.3555 161.734 13.2344 162.211 12.25C 162.695 11.2578 163.367 10.4844 164.227 9.92969C 165.094 9.36719 166.031 9.08594 167.039 9.08594C 168.688 9.08594 169.969 9.62891 170.883 10.7148C 171.797 11.8008 172.254 13.3555 172.254 15.3789L 172.254 16.2812L 163.664 16.2812C 163.695 17.5312 164.059 18.543 164.754 19.3164C 165.457 20.082 166.348 20.4648 167.426 20.4648C 168.191 20.4648 168.84 20.3086 169.371 19.9961C 169.902 19.6836 170.367 19.2695 170.766 18.7539L 172.09 19.7852C 171.027 21.418 169.434 22.2344 167.309 22.2344ZM 167.039 10.8672C 166.164 10.8672 165.43 11.1875 164.836 11.8281C 164.242 12.4609 163.875 13.3516 163.734 14.5L 170.086 14.5L 170.086 14.3359C 170.023 13.2344 169.727 12.3828 169.195 11.7812C 168.664 11.1719 167.945 10.8672 167.039 10.8672ZM 180.902 11.2656C 180.574 11.2109 180.219 11.1836 179.836 11.1836C 178.414 11.1836 177.449 11.7891 176.941 13L 176.941 22L 174.773 22L 174.773 9.32031L 176.883 9.32031L 176.918 10.7852C 177.629 9.65234 178.637 9.08594 179.941 9.08594C 180.363 9.08594 180.684 9.14062 180.902 9.25L 180.902 11.2656ZM 185.262 22L 183.094 22L 183.094 9.32031L 185.262 9.32031L 185.262 22ZM 182.918 5.95703C 182.918 5.60547 183.023 5.30859 183.234 5.06641C 183.453 4.82422 183.773 4.70312 184.195 4.70312C 184.617 4.70312 184.938 4.82422 185.156 5.06641C 185.375 5.30859 185.484 5.60547 185.484 5.95703C 185.484 6.30859 185.375 6.60156 185.156 6.83594C 184.938 7.07031 184.617 7.1875 184.195 7.1875C 183.773 7.1875 183.453 7.07031 183.234 6.83594C 183.023 6.60156 182.918 6.30859 182.918 5.95703ZM 190.793 9.32031L 190.863 10.9141C 191.832 9.69531 193.098 9.08594 194.66 9.08594C 197.34 9.08594 198.691 10.5977 198.715 13.6211L 198.715 22L 196.547 22L 196.547 13.6094C 196.539 12.6953 196.328 12.0195 195.914 11.582C 195.508 11.1445 194.871 10.9258 194.004 10.9258C 193.301 10.9258 192.684 11.1133 192.152 11.4883C 191.621 11.8633 191.207 12.3555 190.91 12.9648L 190.91 22L 188.742 22L 188.742 9.32031L 190.793 9.32031ZM 207.246 22.2344C 205.527 22.2344 204.129 21.6719 203.051 20.5469C 201.973 19.4141 201.434 17.9023 201.434 16.0117L 201.434 15.6133C 201.434 14.3555 201.672 13.2344 202.148 12.25C 202.633 11.2578 203.305 10.4844 204.164 9.92969C 205.031 9.36719 205.969 9.08594 206.977 9.08594C 208.625 9.08594 209.906 9.62891 210.82 10.7148C 211.734 11.8008 212.191 13.3555 212.191 15.3789L 212.191 16.2812L 203.602 16.2812C 203.633 17.5312 203.996 18.543 204.691 19.3164C 205.395 20.082 206.285 20.4648 207.363 20.4648C 208.129 20.4648 208.777 20.3086 209.309 19.9961C 209.84 19.6836 210.305 19.2695 210.703 18.7539L 212.027 19.7852C 210.965 21.418 209.371 22.2344 207.246 22.2344ZM 206.977 10.8672C 206.102 10.8672 205.367 11.1875 204.773 11.8281C 204.18 12.4609 203.812 13.3516 203.672 14.5L 210.023 14.5L 210.023 14.3359C 209.961 13.2344 209.664 12.3828 209.133 11.7812C 208.602 11.1719 207.883 10.8672 206.977 10.8672ZM 214.84 9.74219L 213.609 8.89844C 214.336 7.88281 214.711 6.8125 214.734 5.6875L 214.734 4L 216.879 4L 216.879 5.52344C 216.871 6.30469 216.676 7.08594 216.293 7.86719C 215.918 8.64062 215.434 9.26562 214.84 9.74219ZM 218.438 9.74219L 217.207 8.89844C 217.934 7.88281 218.309 6.8125 218.332 5.6875L 218.332 4L 220.477 4L 220.477 5.52344C 220.469 6.30469 220.273 7.08594 219.891 7.86719C 219.516 8.64062 219.031 9.26562 218.438 9.74219ZM 228.129 15.1914C 228.129 16.9336 227.898 18.6055 227.438 20.207C 226.984 21.8008 226.285 23.2734 225.34 24.625C 224.402 25.9766 223.418 26.9375 222.387 27.5078L 221.93 26.1836C 223.133 25.2617 224.098 23.832 224.824 21.8945C 225.559 19.9492 225.934 17.793 225.949 15.4258L 225.949 15.0508C 225.949 13.4102 225.777 11.8867 225.434 10.4805C 225.09 9.06641 224.609 7.80078 223.992 6.68359C 223.383 5.56641 222.695 4.69531 221.93 4.07031L 222.387 2.74609C 223.418 3.31641 224.398 4.26953 225.328 5.60547C 226.266 6.94141 226.965 8.41406 227.426 10.0234C 227.895 11.6328 228.129 13.3555 228.129 15.1914ZM 229.934 2.5L 234.363 2.5L 234.363 25.6562L 229.934 25.6562L 229.934 23.875L 232.195 23.875L 232.195 4.28125L 229.934 4.28125L 229.934 2.5Z"/>
<path id="path11_fill" d="M 6.12891 4.28125L 3.89062 4.28125L 3.89062 23.875L 6.12891 23.875L 6.12891 25.6562L 1.71094 25.6562L 1.71094 2.5L 6.12891 2.5L 6.12891 4.28125ZM 7.93359 15.0742C 7.93359 13.3086 8.16797 11.6133 8.63672 9.98828C 9.11328 8.36328 9.82031 6.88672 10.7578 5.55859C 11.6953 4.23047 12.668 3.29297 13.6758 2.74609L 14.1211 4.17578C 12.9805 5.05078 12.043 6.38672 11.3086 8.18359C 10.582 9.98047 10.1836 11.9922 10.1133 14.2188L 10.1016 15.2148C 10.1016 18.2305 10.6523 20.8477 11.7539 23.0664C 12.418 24.3945 13.207 25.4336 14.1211 26.1836L 13.6758 27.5078C 12.6367 26.9297 11.6445 25.9609 10.6992 24.6016C 8.85547 21.9453 7.93359 18.7695 7.93359 15.0742ZM 17.8359 3.77734L 19.0781 4.62109C 18.3516 5.61328 17.9766 6.68359 17.9531 7.83203L 17.9531 9.42578L 15.7969 9.42578L 15.7969 8.06641C 15.7969 7.26953 15.9844 6.48047 16.3594 5.69922C 16.7422 4.91797 17.2344 4.27734 17.8359 3.77734ZM 21.5273 3.77734L 22.7695 4.62109C 22.043 5.61328 21.668 6.68359 21.6445 7.83203L 21.6445 9.42578L 19.4883 9.42578L 19.4883 8.06641C 19.4883 7.26953 19.6758 6.48047 20.0508 5.69922C 20.4336 4.91797 20.9258 4.27734 21.5273 3.77734ZM 28.957 13.9492L 31.7695 9.32031L 34.3008 9.32031L 30.1523 15.5898L 34.4297 22L 31.9219 22L 28.9922 17.2539L 26.0625 22L 23.543 22L 27.8203 15.5898L 23.6719 9.32031L 26.1797 9.32031L 28.957 13.9492ZM 38.6484 9.32031L 38.707 10.7266C 39.6367 9.63281 40.8906 9.08594 42.4688 9.08594C 44.2422 9.08594 45.4492 9.76562 46.0898 11.125C 46.5117 10.5156 47.0586 10.0234 47.7305 9.64844C 48.4102 9.27344 49.2109 9.08594 50.1328 9.08594C 52.9141 9.08594 54.3281 10.5586 54.375 13.5039L 54.375 22L 52.207 22L 52.207 13.6328C 52.207 12.7266 52 12.0508 51.5859 11.6055C 51.1719 11.1523 50.4766 10.9258 49.5 10.9258C 48.6953 10.9258 48.0273 11.168 47.4961 11.6523C 46.9648 12.1289 46.6562 12.7734 46.5703 13.5859L 46.5703 22L 44.3906 22L 44.3906 13.6914C 44.3906 11.8477 43.4883 10.9258 41.6836 10.9258C 40.2617 10.9258 39.2891 11.5312 38.7656 12.7422L 38.7656 22L 36.5977 22L 36.5977 9.32031L 38.6484 9.32031ZM 62.918 22.2344C 61.1992 22.2344 59.8008 21.6719 58.7227 20.5469C 57.6445 19.4141 57.1055 17.9023 57.1055 16.0117L 57.1055 15.6133C 57.1055 14.3555 57.3438 13.2344 57.8203 12.25C 58.3047 11.2578 58.9766 10.4844 59.8359 9.92969C 60.7031 9.36719 61.6406 9.08594 62.6484 9.08594C 64.2969 9.08594 65.5781 9.62891 66.4922 10.7148C 67.4062 11.8008 67.8633 13.3555 67.8633 15.3789L 67.8633 16.2812L 59.2734 16.2812C 59.3047 17.5312 59.668 18.543 60.3633 19.3164C 61.0664 20.082 61.957 20.4648 63.0352 20.4648C 63.8008 20.4648 64.4492 20.3086 64.9805 19.9961C 65.5117 19.6836 65.9766 19.2695 66.375 18.7539L 67.6992 19.7852C 66.6367 21.418 65.043 22.2344 62.918 22.2344ZM 62.6484 10.8672C 61.7734 10.8672 61.0391 11.1875 60.4453 11.8281C 59.8516 12.4609 59.4844 13.3516 59.3438 14.5L 65.6953 14.5L 65.6953 14.3359C 65.6328 13.2344 65.3359 12.3828 64.8047 11.7812C 64.2734 11.1719 63.5547 10.8672 62.6484 10.8672ZM 72.4336 9.32031L 72.5039 10.9141C 73.4727 9.69531 74.7383 9.08594 76.3008 9.08594C 78.9805 9.08594 80.332 10.5977 80.3555 13.6211L 80.3555 22L 78.1875 22L 78.1875 13.6094C 78.1797 12.6953 77.9688 12.0195 77.5547 11.582C 77.1484 11.1445 76.5117 10.9258 75.6445 10.9258C 74.9414 10.9258 74.3242 11.1133 73.793 11.4883C 73.2617 11.8633 72.8477 12.3555 72.5508 12.9648L 72.5508 22L 70.3828 22L 70.3828 9.32031L 72.4336 9.32031ZM 82.6992 9.74219L 81.4688 8.89844C 82.1953 7.88281 82.5703 6.8125 82.5938 5.6875L 82.5938 4L 84.7383 4L 84.7383 5.52344C 84.7305 6.30469 84.5352 7.08594 84.1523 7.86719C 83.7773 8.64062 83.293 9.26562 82.6992 9.74219ZM 86.2969 9.74219L 85.0664 8.89844C 85.793 7.88281 86.168 6.8125 86.1914 5.6875L 86.1914 4L 88.3359 4L 88.3359 5.52344C 88.3281 6.30469 88.1328 7.08594 87.75 7.86719C 87.375 8.64062 86.8906 9.26562 86.2969 9.74219ZM 90.9141 25.3984L 89.6836 24.5547C 90.418 23.5312 90.8008 22.4766 90.832 21.3906L 90.832 19.4336L 92.9531 19.4336L 92.9531 21.1328C 92.9531 21.9219 92.7578 22.7109 92.3672 23.5C 91.9844 24.2891 91.5 24.9219 90.9141 25.3984ZM 103.266 3.77734L 104.508 4.62109C 103.781 5.61328 103.406 6.68359 103.383 7.83203L 103.383 9.42578L 101.227 9.42578L 101.227 8.06641C 101.227 7.26953 101.414 6.48047 101.789 5.69922C 102.172 4.91797 102.664 4.27734 103.266 3.77734ZM 106.957 3.77734L 108.199 4.62109C 107.473 5.61328 107.098 6.68359 107.074 7.83203L 107.074 9.42578L 104.918 9.42578L 104.918 8.06641C 104.918 7.26953 105.105 6.48047 105.48 5.69922C 105.863 4.91797 106.355 4.27734 106.957 3.77734ZM 114.152 16.6211L 114.48 18.8711L 114.961 16.8438L 118.336 4.9375L 120.234 4.9375L 123.527 16.8438L 123.996 18.9062L 124.359 16.6094L 127.008 4.9375L 129.27 4.9375L 125.133 22L 123.082 22L 119.566 9.56641L 119.297 8.26562L 119.027 9.56641L 115.383 22L 113.332 22L 109.207 4.9375L 111.457 4.9375L 114.152 16.6211ZM 130.488 15.543C 130.488 14.3008 130.73 13.1836 131.215 12.1914C 131.707 11.1992 132.387 10.4336 133.254 9.89453C 134.129 9.35547 135.125 9.08594 136.242 9.08594C 137.969 9.08594 139.363 9.68359 140.426 10.8789C 141.496 12.0742 142.031 13.6641 142.031 15.6484L 142.031 15.8008C 142.031 17.0352 141.793 18.1445 141.316 19.1289C 140.848 20.1055 140.172 20.8672 139.289 21.4141C 138.414 21.9609 137.406 22.2344 136.266 22.2344C 134.547 22.2344 133.152 21.6367 132.082 20.4414C 131.02 19.2461 130.488 17.6641 130.488 15.6953L 130.488 15.543ZM 132.668 15.8008C 132.668 17.207 132.992 18.3359 133.641 19.1875C 134.297 20.0391 135.172 20.4648 136.266 20.4648C 137.367 20.4648 138.242 20.0352 138.891 19.1758C 139.539 18.3086 139.863 17.0977 139.863 15.543C 139.863 14.1523 139.531 13.0273 138.867 12.168C 138.211 11.3008 137.336 10.8672 136.242 10.8672C 135.172 10.8672 134.309 11.293 133.652 12.1445C 132.996 12.9961 132.668 14.2148 132.668 15.8008ZM 147.105 22L 144.938 22L 144.938 4L 147.105 4L 147.105 22ZM 154.77 19.0586L 157.91 9.32031L 160.125 9.32031L 155.578 22L 153.926 22L 149.332 9.32031L 151.547 9.32031L 154.77 19.0586ZM 167.309 22.2344C 165.59 22.2344 164.191 21.6719 163.113 20.5469C 162.035 19.4141 161.496 17.9023 161.496 16.0117L 161.496 15.6133C 161.496 14.3555 161.734 13.2344 162.211 12.25C 162.695 11.2578 163.367 10.4844 164.227 9.92969C 165.094 9.36719 166.031 9.08594 167.039 9.08594C 168.688 9.08594 169.969 9.62891 170.883 10.7148C 171.797 11.8008 172.254 13.3555 172.254 15.3789L 172.254 16.2812L 163.664 16.2812C 163.695 17.5312 164.059 18.543 164.754 19.3164C 165.457 20.082 166.348 20.4648 167.426 20.4648C 168.191 20.4648 168.84 20.3086 169.371 19.9961C 169.902 19.6836 170.367 19.2695 170.766 18.7539L 172.09 19.7852C 171.027 21.418 169.434 22.2344 167.309 22.2344ZM 167.039 10.8672C 166.164 10.8672 165.43 11.1875 164.836 11.8281C 164.242 12.4609 163.875 13.3516 163.734 14.5L 170.086 14.5L 170.086 14.3359C 170.023 13.2344 169.727 12.3828 169.195 11.7812C 168.664 11.1719 167.945 10.8672 167.039 10.8672ZM 180.902 11.2656C 180.574 11.2109 180.219 11.1836 179.836 11.1836C 178.414 11.1836 177.449 11.7891 176.941 13L 176.941 22L 174.773 22L 174.773 9.32031L 176.883 9.32031L 176.918 10.7852C 177.629 9.65234 178.637 9.08594 179.941 9.08594C 180.363 9.08594 180.684 9.14062 180.902 9.25L 180.902 11.2656ZM 185.262 22L 183.094 22L 183.094 9.32031L 185.262 9.32031L 185.262 22ZM 182.918 5.95703C 182.918 5.60547 183.023 5.30859 183.234 5.06641C 183.453 4.82422 183.773 4.70312 184.195 4.70312C 184.617 4.70312 184.938 4.82422 185.156 5.06641C 185.375 5.30859 185.484 5.60547 185.484 5.95703C 185.484 6.30859 185.375 6.60156 185.156 6.83594C 184.938 7.07031 184.617 7.1875 184.195 7.1875C 183.773 7.1875 183.453 7.07031 183.234 6.83594C 183.023 6.60156 182.918 6.30859 182.918 5.95703ZM 190.793 9.32031L 190.863 10.9141C 191.832 9.69531 193.098 9.08594 194.66 9.08594C 197.34 9.08594 198.691 10.5977 198.715 13.6211L 198.715 22L 196.547 22L 196.547 13.6094C 196.539 12.6953 196.328 12.0195 195.914 11.582C 195.508 11.1445 194.871 10.9258 194.004 10.9258C 193.301 10.9258 192.684 11.1133 192.152 11.4883C 191.621 11.8633 191.207 12.3555 190.91 12.9648L 190.91 22L 188.742 22L 188.742 9.32031L 190.793 9.32031ZM 207.246 22.2344C 205.527 22.2344 204.129 21.6719 203.051 20.5469C 201.973 19.4141 201.434 17.9023 201.434 16.0117L 201.434 15.6133C 201.434 14.3555 201.672 13.2344 202.148 12.25C 202.633 11.2578 203.305 10.4844 204.164 9.92969C 205.031 9.36719 205.969 9.08594 206.977 9.08594C 208.625 9.08594 209.906 9.62891 210.82 10.7148C 211.734 11.8008 212.191 13.3555 212.191 15.3789L 212.191 16.2812L 203.602 16.2812C 203.633 17.5312 203.996 18.543 204.691 19.3164C 205.395 20.082 206.285 20.4648 207.363 20.4648C 208.129 20.4648 208.777 20.3086 209.309 19.9961C 209.84 19.6836 210.305 19.2695 210.703 18.7539L 212.027 19.7852C 210.965 21.418 209.371 22.2344 207.246 22.2344ZM 206.977 10.8672C 206.102 10.8672 205.367 11.1875 204.773 11.8281C 204.18 12.4609 203.812 13.3516 203.672 14.5L 210.023 14.5L 210.023 14.3359C 209.961 13.2344 209.664 12.3828 209.133 11.7812C 208.602 11.1719 207.883 10.8672 206.977 10.8672ZM 214.84 9.74219L 213.609 8.89844C 214.336 7.88281 214.711 6.8125 214.734 5.6875L 214.734 4L 216.879 4L 216.879 5.52344C 216.871 6.30469 216.676 7.08594 216.293 7.86719C 215.918 8.64062 215.434 9.26562 214.84 9.74219ZM 218.438 9.74219L 217.207 8.89844C 217.934 7.88281 218.309 6.8125 218.332 5.6875L 218.332 4L 220.477 4L 220.477 5.52344C 220.469 6.30469 220.273 7.08594 219.891 7.86719C 219.516 8.64062 219.031 9.26562 218.438 9.74219ZM 228.129 15.1914C 228.129 16.9336 227.898 18.6055 227.438 20.207C 226.984 21.8008 226.285 23.2734 225.34 24.625C 224.402 25.9766 223.418 26.9375 222.387 27.5078L 221.93 26.1836C 223.133 25.2617 224.098 23.832 224.824 21.8945C 225.559 19.9492 225.934 17.793 225.949 15.4258L 225.949 15.0508C 225.949 13.4102 225.777 11.8867 225.434 10.4805C 225.09 9.06641 224.609 7.80078 223.992 6.68359C 223.383 5.56641 222.695 4.69531 221.93 4.07031L 222.387 2.74609C 223.418 3.31641 224.398 4.26953 225.328 5.60547C 226.266 6.94141 226.965 8.41406 227.426 10.0234C 227.895 11.6328 228.129 13.3555 228.129 15.1914ZM 231.398 25.3984L 230.168 24.5547C 230.902 23.5312 231.285 22.4766 231.316 21.3906L 231.316 19.4336L 233.438 19.4336L 233.438 21.1328C 233.438 21.9219 233.242 22.7109 232.852 23.5C 232.469 24.2891 231.984 24.9219 231.398 25.3984ZM 242.051 15.0742C 242.051 13.3086 242.285 11.6133 242.754 9.98828C 243.23 8.36328 243.938 6.88672 244.875 5.55859C 245.812 4.23047 246.785 3.29297 247.793 2.74609L 248.238 4.17578C 247.098 5.05078 246.16 6.38672 245.426 8.18359C 244.699 9.98047 244.301 11.9922 244.23 14.2188L 244.219 15.2148C 244.219 18.2305 244.77 20.8477 245.871 23.0664C 246.535 24.3945 247.324 25.4336 248.238 26.1836L 247.793 27.5078C 246.754 26.9297 245.762 25.9609 244.816 24.6016C 242.973 21.9453 242.051 18.7695 242.051 15.0742ZM 251.953 3.77734L 253.195 4.62109C 252.469 5.61328 252.094 6.68359 252.07 7.83203L 252.07 9.42578L 249.914 9.42578L 249.914 8.06641C 249.914 7.26953 250.102 6.48047 250.477 5.69922C 250.859 4.91797 251.352 4.27734 251.953 3.77734ZM 255.645 3.77734L 256.887 4.62109C 256.16 5.61328 255.785 6.68359 255.762 7.83203L 255.762 9.42578L 253.605 9.42578L 253.605 8.06641C 253.605 7.26953 253.793 6.48047 254.168 5.69922C 254.551 4.91797 255.043 4.27734 255.645 3.77734ZM 263.074 13.9492L 265.887 9.32031L 268.418 9.32031L 264.27 15.5898L 268.547 22L 266.039 22L 263.109 17.2539L 260.18 22L 257.66 22L 261.938 15.5898L 257.789 9.32031L 260.297 9.32031L 263.074 13.9492ZM 272.766 9.32031L 272.824 10.7266C 273.754 9.63281 275.008 9.08594 276.586 9.08594C 278.359 9.08594 279.566 9.76562 280.207 11.125C 280.629 10.5156 281.176 10.0234 281.848 9.64844C 282.527 9.27344 283.328 9.08594 284.25 9.08594C 287.031 9.08594 288.445 10.5586 288.492 13.5039L 288.492 22L 286.324 22L 286.324 13.6328C 286.324 12.7266 286.117 12.0508 285.703 11.6055C 285.289 11.1523 284.594 10.9258 283.617 10.9258C 282.812 10.9258 282.145 11.168 281.613 11.6523C 281.082 12.1289 280.773 12.7734 280.688 13.5859L 280.688 22L 278.508 22L 278.508 13.6914C 278.508 11.8477 277.605 10.9258 275.801 10.9258C 274.379 10.9258 273.406 11.5312 272.883 12.7422L 272.883 22L 270.715 22L 270.715 9.32031L 272.766 9.32031ZM 297.035 22.2344C 295.316 22.2344 293.918 21.6719 292.84 20.5469C 291.762 19.4141 291.223 17.9023 291.223 16.0117L 291.223 15.6133C 291.223 14.3555 291.461 13.2344 291.938 12.25C 292.422 11.2578 293.094 10.4844 293.953 9.92969C 294.82 9.36719 295.758 9.08594 296.766 9.08594C 298.414 9.08594 299.695 9.62891 300.609 10.7148C 301.523 11.8008 301.98 13.3555 301.98 15.3789L 301.98 16.2812L 293.391 16.2812C 293.422 17.5312 293.785 18.543 294.48 19.3164C 295.184 20.082 296.074 20.4648 297.152 20.4648C 297.918 20.4648 298.566 20.3086 299.098 19.9961C 299.629 19.6836 300.094 19.2695 300.492 18.7539L 301.816 19.7852C 300.754 21.418 299.16 22.2344 297.035 22.2344ZM 296.766 10.8672C 295.891 10.8672 295.156 11.1875 294.562 11.8281C 293.969 12.4609 293.602 13.3516 293.461 14.5L 299.812 14.5L 299.812 14.3359C 299.75 13.2344 299.453 12.3828 298.922 11.7812C 298.391 11.1719 297.672 10.8672 296.766 10.8672ZM 306.551 9.32031L 306.621 10.9141C 307.59 9.69531 308.855 9.08594 310.418 9.08594C 313.098 9.08594 314.449 10.5977 314.473 13.6211L 314.473 22L 312.305 22L 312.305 13.6094C 312.297 12.6953 312.086 12.0195 311.672 11.582C 311.266 11.1445 310.629 10.9258 309.762 10.9258C 309.059 10.9258 308.441 11.1133 307.91 11.4883C 307.379 11.8633 306.965 12.3555 306.668 12.9648L 306.668 22L 304.5 22L 304.5 9.32031L 306.551 9.32031ZM 316.816 9.74219L 315.586 8.89844C 316.312 7.88281 316.688 6.8125 316.711 5.6875L 316.711 4L 318.855 4L 318.855 5.52344C 318.848 6.30469 318.652 7.08594 318.27 7.86719C 317.895 8.64062 317.41 9.26562 316.816 9.74219ZM 320.414 9.74219L 319.184 8.89844C 319.91 7.88281 320.285 6.8125 320.309 5.6875L 320.309 4L 322.453 4L 322.453 5.52344C 322.445 6.30469 322.25 7.08594 321.867 7.86719C 321.492 8.64062 321.008 9.26562 320.414 9.74219ZM 325.031 25.3984L 323.801 24.5547C 324.535 23.5312 324.918 22.4766 324.949 21.3906L 324.949 19.4336L 327.07 19.4336L 327.07 21.1328C 327.07 21.9219 326.875 22.7109 326.484 23.5C 326.102 24.2891 325.617 24.9219 325.031 25.3984ZM 337.383 3.77734L 338.625 4.62109C 337.898 5.61328 337.523 6.68359 337.5 7.83203L 337.5 9.42578L 335.344 9.42578L 335.344 8.06641C 335.344 7.26953 335.531 6.48047 335.906 5.69922C 336.289 4.91797 336.781 4.27734 337.383 3.77734ZM 341.074 3.77734L 342.316 4.62109C 341.59 5.61328 341.215 6.68359 341.191 7.83203L 341.191 9.42578L 339.035 9.42578L 339.035 8.06641C 339.035 7.26953 339.223 6.48047 339.598 5.69922C 339.98 4.91797 340.473 4.27734 341.074 3.77734ZM 349.617 14.3945C 347.688 13.8398 346.281 13.1602 345.398 12.3555C 344.523 11.543 344.086 10.543 344.086 9.35547C 344.086 8.01172 344.621 6.90234 345.691 6.02734C 346.77 5.14453 348.168 4.70312 349.887 4.70312C 351.059 4.70312 352.102 4.92969 353.016 5.38281C 353.938 5.83594 354.648 6.46094 355.148 7.25781C 355.656 8.05469 355.91 8.92578 355.91 9.87109L 353.648 9.87109C 353.648 8.83984 353.32 8.03125 352.664 7.44531C 352.008 6.85156 351.082 6.55469 349.887 6.55469C 348.777 6.55469 347.91 6.80078 347.285 7.29297C 346.668 7.77734 346.359 8.45312 346.359 9.32031C 346.359 10.0156 346.652 10.6055 347.238 11.0898C 347.832 11.5664 348.836 12.0039 350.25 12.4023C 351.672 12.8008 352.781 13.2422 353.578 13.7266C 354.383 14.2031 354.977 14.7617 355.359 15.4023C 355.75 16.043 355.945 16.7969 355.945 17.6641C 355.945 19.0469 355.406 20.1562 354.328 20.9922C 353.25 21.8203 351.809 22.2344 350.004 22.2344C 348.832 22.2344 347.738 22.0117 346.723 21.5664C 345.707 21.1133 344.922 20.4961 344.367 19.7148C 343.82 18.9336 343.547 18.0469 343.547 17.0547L 345.809 17.0547C 345.809 18.0859 346.188 18.9023 346.945 19.5039C 347.711 20.0977 348.73 20.3945 350.004 20.3945C 351.191 20.3945 352.102 20.1523 352.734 19.668C 353.367 19.1836 353.684 18.5234 353.684 17.6875C 353.684 16.8516 353.391 16.207 352.805 15.7539C 352.219 15.293 351.156 14.8398 349.617 14.3945ZM 366.328 20.7461C 365.484 21.7383 364.246 22.2344 362.613 22.2344C 361.262 22.2344 360.23 21.8438 359.52 21.0625C 358.816 20.2734 358.461 19.1094 358.453 17.5703L 358.453 9.32031L 360.621 9.32031L 360.621 17.5117C 360.621 19.4336 361.402 20.3945 362.965 20.3945C 364.621 20.3945 365.723 19.7773 366.27 18.543L 366.27 9.32031L 368.438 9.32031L 368.438 22L 366.375 22L 366.328 20.7461ZM 382.453 15.8008C 382.453 17.7305 382.012 19.2852 381.129 20.4648C 380.246 21.6445 379.051 22.2344 377.543 22.2344C 376.004 22.2344 374.793 21.7461 373.91 20.7695L 373.91 26.875L 371.742 26.875L 371.742 9.32031L 373.723 9.32031L 373.828 10.7266C 374.711 9.63281 375.938 9.08594 377.508 9.08594C 379.031 9.08594 380.234 9.66016 381.117 10.8086C 382.008 11.957 382.453 13.5547 382.453 15.6016L 382.453 15.8008ZM 380.285 15.5547C 380.285 14.125 379.98 12.9961 379.371 12.168C 378.762 11.3398 377.926 10.9258 376.863 10.9258C 375.551 10.9258 374.566 11.5078 373.91 12.6719L 373.91 18.7305C 374.559 19.8867 375.551 20.4648 376.887 20.4648C 377.926 20.4648 378.75 20.0547 379.359 19.2344C 379.977 18.4062 380.285 17.1797 380.285 15.5547ZM 390.48 22.2344C 388.762 22.2344 387.363 21.6719 386.285 20.5469C 385.207 19.4141 384.668 17.9023 384.668 16.0117L 384.668 15.6133C 384.668 14.3555 384.906 13.2344 385.383 12.25C 385.867 11.2578 386.539 10.4844 387.398 9.92969C 388.266 9.36719 389.203 9.08594 390.211 9.08594C 391.859 9.08594 393.141 9.62891 394.055 10.7148C 394.969 11.8008 395.426 13.3555 395.426 15.3789L 395.426 16.2812L 386.836 16.2812C 386.867 17.5312 387.23 18.543 387.926 19.3164C 388.629 20.082 389.52 20.4648 390.598 20.4648C 391.363 20.4648 392.012 20.3086 392.543 19.9961C 393.074 19.6836 393.539 19.2695 393.938 18.7539L 395.262 19.7852C 394.199 21.418 392.605 22.2344 390.48 22.2344ZM 390.211 10.8672C 389.336 10.8672 388.602 11.1875 388.008 11.8281C 387.414 12.4609 387.047 13.3516 386.906 14.5L 393.258 14.5L 393.258 14.3359C 393.195 13.2344 392.898 12.3828 392.367 11.7812C 391.836 11.1719 391.117 10.8672 390.211 10.8672ZM 404.074 11.2656C 403.746 11.2109 403.391 11.1836 403.008 11.1836C 401.586 11.1836 400.621 11.7891 400.113 13L 400.113 22L 397.945 22L 397.945 9.32031L 400.055 9.32031L 400.09 10.7852C 400.801 9.65234 401.809 9.08594 403.113 9.08594C 403.535 9.08594 403.855 9.14062 404.074 9.25L 404.074 11.2656ZM 408.117 9.32031L 408.176 10.7266C 409.105 9.63281 410.359 9.08594 411.938 9.08594C 413.711 9.08594 414.918 9.76562 415.559 11.125C 415.98 10.5156 416.527 10.0234 417.199 9.64844C 417.879 9.27344 418.68 9.08594 419.602 9.08594C 422.383 9.08594 423.797 10.5586 423.844 13.5039L 423.844 22L 421.676 22L 421.676 13.6328C 421.676 12.7266 421.469 12.0508 421.055 11.6055C 420.641 11.1523 419.945 10.9258 418.969 10.9258C 418.164 10.9258 417.496 11.168 416.965 11.6523C 416.434 12.1289 416.125 12.7734 416.039 13.5859L 416.039 22L 413.859 22L 413.859 13.6914C 413.859 11.8477 412.957 10.9258 411.152 10.9258C 409.73 10.9258 408.758 11.5312 408.234 12.7422L 408.234 22L 406.066 22L 406.066 9.32031L 408.117 9.32031ZM 434.953 22C 434.828 21.75 434.727 21.3047 434.648 20.6641C 433.641 21.7109 432.438 22.2344 431.039 22.2344C 429.789 22.2344 428.762 21.8828 427.957 21.1797C 427.16 20.4688 426.762 19.5703 426.762 18.4844C 426.762 17.1641 427.262 16.1406 428.262 15.4141C 429.27 14.6797 430.684 14.3125 432.504 14.3125L 434.613 14.3125L 434.613 13.3164C 434.613 12.5586 434.387 11.957 433.934 11.5117C 433.48 11.0586 432.812 10.832 431.93 10.832C 431.156 10.832 430.508 11.0273 429.984 11.418C 429.461 11.8086 429.199 12.2812 429.199 12.8359L 427.02 12.8359C 427.02 12.2031 427.242 11.5938 427.688 11.0078C 428.141 10.4141 428.75 9.94531 429.516 9.60156C 430.289 9.25781 431.137 9.08594 432.059 9.08594C 433.52 9.08594 434.664 9.45312 435.492 10.1875C 436.32 10.9141 436.75 11.918 436.781 13.1992L 436.781 19.0352C 436.781 20.1992 436.93 21.125 437.227 21.8125L 437.227 22L 434.953 22ZM 431.355 20.3477C 432.035 20.3477 432.68 20.1719 433.289 19.8203C 433.898 19.4688 434.34 19.0117 434.613 18.4492L 434.613 15.8477L 432.914 15.8477C 430.258 15.8477 428.93 16.625 428.93 18.1797C 428.93 18.8594 429.156 19.3906 429.609 19.7734C 430.062 20.1562 430.645 20.3477 431.355 20.3477ZM 442.23 9.32031L 442.301 10.9141C 443.27 9.69531 444.535 9.08594 446.098 9.08594C 448.777 9.08594 450.129 10.5977 450.152 13.6211L 450.152 22L 447.984 22L 447.984 13.6094C 447.977 12.6953 447.766 12.0195 447.352 11.582C 446.945 11.1445 446.309 10.9258 445.441 10.9258C 444.738 10.9258 444.121 11.1133 443.59 11.4883C 443.059 11.8633 442.645 12.3555 442.348 12.9648L 442.348 22L 440.18 22L 440.18 9.32031L 442.23 9.32031ZM 452.496 9.74219L 451.266 8.89844C 451.992 7.88281 452.367 6.8125 452.391 5.6875L 452.391 4L 454.535 4L 454.535 5.52344C 454.527 6.30469 454.332 7.08594 453.949 7.86719C 453.574 8.64062 453.09 9.26562 452.496 9.74219ZM 456.094 9.74219L 454.863 8.89844C 455.59 7.88281 455.965 6.8125 455.988 5.6875L 455.988 4L 458.133 4L 458.133 5.52344C 458.125 6.30469 457.93 7.08594 457.547 7.86719C 457.172 8.64062 456.688 9.26562 456.094 9.74219ZM 465.785 15.1914C 465.785 16.9336 465.555 18.6055 465.094 20.207C 464.641 21.8008 463.941 23.2734 462.996 24.625C 462.059 25.9766 461.074 26.9375 460.043 27.5078L 459.586 26.1836C 460.789 25.2617 461.754 23.832 462.48 21.8945C 463.215 19.9492 463.59 17.793 463.605 15.4258L 463.605 15.0508C 463.605 13.4102 463.434 11.8867 463.09 10.4805C 462.746 9.06641 462.266 7.80078 461.648 6.68359C 461.039 5.56641 460.352 4.69531 459.586 4.07031L 460.043 2.74609C 461.074 3.31641 462.055 4.26953 462.984 5.60547C 463.922 6.94141 464.621 8.41406 465.082 10.0234C 465.551 11.6328 465.785 13.3555 465.785 15.1914ZM 467.59 2.5L 472.02 2.5L 472.02 25.6562L 467.59 25.6562L 467.59 23.875L 469.852 23.875L 469.852 4.28125L 467.59 4.28125L 467.59 2.5Z"/>
</defs>
</svg>
