<svg width="716" height="334" viewBox="0 0 716 334" version="1.1" xmlns="http://www.w3.org/2000/svg" xmlns:xlink="http://www.w3.org/1999/xlink" xmlns:figma="http://www.figma.com/figma/ns">
<title>binary_multi_search</title>
<desc>Created using Figma</desc>
<g id="Canvas" transform="translate(385 722)" figma:type="canvas">
<g id="Time" figma:type="text">
<use xlink:href="#path0_fill" transform="translate(-385 -728)"/>
</g>
<g id="Amount" figma:type="text">
<use xlink:href="#path1_fill" transform="translate(-120 -728)"/>
</g>
<g id="Combined" figma:type="text">
<use xlink:href="#path2_fill" transform="translate(169 -728)"/>
</g>
<g id="1" figma:type="text">
<use xlink:href="#path3_fill" transform="translate(-365 -652)"/>
</g>
<g id="2" figma:type="text">
<use xlink:href="#path4_fill" transform="translate(-365 -576)"/>
</g>
<g id="3" figma:type="text">
<use xlink:href="#path5_fill" transform="translate(-365 -500)"/>
</g>
<g id="4" figma:type="text">
<use xlink:href="#path6_fill" transform="translate(-365 -424)"/>
</g>
<g id="10.00" figma:type="text">
<use xlink:href="#path7_fill" transform="translate(-120 -652)"/>
</g>
<g id="5.00" figma:type="text">
<use xlink:href="#path8_fill" transform="translate(-120 -576)"/>
</g>
<g id="2.30" figma:type="text">
<use xlink:href="#path9_fill" transform="translate(-120 -500)"/>
</g>
<g id="81.20" figma:type="text">
<use xlink:href="#path10_fill" transform="translate(-120 -424)"/>
</g>
<g id="&#226;&#128;&#156;1_10.00&#226;&#128;&#157;" figma:type="text">
<use xlink:href="#path11_fill" transform="translate(169 -652)"/>
</g>
<g id="&#226;&#128;&#156;2_5.00&#226;&#128;&#157;" figma:type="text">
<use xlink:href="#path12_fill" transform="translate(169 -576)"/>
</g>
<g id="&#226;&#128;&#156;3_2.30&#226;&#128;&#157;" figma:type="text">
<use xlink:href="#path13_fill" transform="translate(169 -500)"/>
</g>
<g id="&#226;&#128;&#156;4_81.20&#226;&#128;&#157;" figma:type="text">
<use xlink:href="#path14_fill" transform="translate(169 -424)"/>
</g>
</g>
<defs>
<path id="path0_fill" d="M 20.6543 10.1836L 12.4277 10.1836L 12.4277 33L 9.07031 33L 9.07031 10.1836L 0.861328 10.1836L 0.861328 7.40625L 20.6543 7.40625L 20.6543 10.1836ZM 27.4746 33L 24.2227 33L 24.2227 13.9805L 27.4746 13.9805L 27.4746 33ZM 23.959 8.93555C 23.959 8.4082 24.1172 7.96289 24.4336 7.59961C 24.7617 7.23633 25.2422 7.05469 25.875 7.05469C 26.5078 7.05469 26.9883 7.23633 27.3164 7.59961C 27.6445 7.96289 27.8086 8.4082 27.8086 8.93555C 27.8086 9.46289 27.6445 9.90234 27.3164 10.2539C 26.9883 10.6055 26.5078 10.7812 25.875 10.7812C 25.2422 10.7812 24.7617 10.6055 24.4336 10.2539C 24.1172 9.90234 23.959 9.46289 23.959 8.93555ZM 35.7539 13.9805L 35.8418 16.0898C 37.2363 14.4492 39.1172 13.6289 41.4844 13.6289C 44.1445 13.6289 45.9551 14.6484 46.916 16.6875C 47.5488 15.7734 48.3691 15.0352 49.377 14.4727C 50.3965 13.9102 51.5977 13.6289 52.9805 13.6289C 57.1523 13.6289 59.2734 15.8379 59.3438 20.2559L 59.3438 33L 56.0918 33L 56.0918 20.4492C 56.0918 19.0898 55.7812 18.0762 55.1602 17.4082C 54.5391 16.7285 53.4961 16.3887 52.0312 16.3887C 50.8242 16.3887 49.8223 16.752 49.0254 17.4785C 48.2285 18.1934 47.7656 19.1602 47.6367 20.3789L 47.6367 33L 44.3672 33L 44.3672 20.5371C 44.3672 17.7715 43.0137 16.3887 40.3066 16.3887C 38.1738 16.3887 36.7148 17.2969 35.9297 19.1133L 35.9297 33L 32.6777 33L 32.6777 13.9805L 35.7539 13.9805ZM 72.1582 33.3516C 69.5801 33.3516 67.4824 32.5078 65.8652 30.8203C 64.248 29.1211 63.4395 26.8535 63.4395 24.0176L 63.4395 23.4199C 63.4395 21.5332 63.7969 19.8516 64.5117 18.375C 65.2383 16.8867 66.2461 15.7266 67.5352 14.8945C 68.8359 14.0508 70.2422 13.6289 71.7539 13.6289C 74.2266 13.6289 76.1484 14.4434 77.5195 16.0723C 78.8906 17.7012 79.5762 20.0332 79.5762 23.0684L 79.5762 24.4219L 66.6914 24.4219C 66.7383 26.2969 67.2832 27.8145 68.3262 28.9746C 69.3809 30.123 70.7168 30.6973 72.334 30.6973C 73.4824 30.6973 74.4551 30.4629 75.252 29.9941C 76.0488 29.5254 76.7461 28.9043 77.3438 28.1309L 79.3301 29.6777C 77.7363 32.127 75.3457 33.3516 72.1582 33.3516ZM 71.7539 16.3008C 70.4414 16.3008 69.3398 16.7812 68.4492 17.7422C 67.5586 18.6914 67.0078 20.0273 66.7969 21.75L 76.3242 21.75L 76.3242 21.5039C 76.2305 19.8516 75.7852 18.5742 74.9883 17.6719C 74.1914 16.7578 73.1133 16.3008 71.7539 16.3008Z"/>
<path id="path1_fill" d="M 17.1035 26.3203L 6.38086 26.3203L 3.97266 33L 0.492188 33L 10.2656 7.40625L 13.2188 7.40625L 23.0098 33L 19.5469 33L 17.1035 26.3203ZM 7.40039 23.543L 16.1016 23.543L 11.7422 11.5723L 7.40039 23.543ZM 29.0039 13.9805L 29.0918 16.0898C 30.4863 14.4492 32.3672 13.6289 34.7344 13.6289C 37.3945 13.6289 39.2051 14.6484 40.166 16.6875C 40.7988 15.7734 41.6191 15.0352 42.627 14.4727C 43.6465 13.9102 44.8477 13.6289 46.2305 13.6289C 50.4023 13.6289 52.5234 15.8379 52.5938 20.2559L 52.5938 33L 49.3418 33L 49.3418 20.4492C 49.3418 19.0898 49.0312 18.0762 48.4102 17.4082C 47.7891 16.7285 46.7461 16.3887 45.2812 16.3887C 44.0742 16.3887 43.0723 16.752 42.2754 17.4785C 41.4785 18.1934 41.0156 19.1602 40.8867 20.3789L 40.8867 33L 37.6172 33L 37.6172 20.5371C 37.6172 17.7715 36.2637 16.3887 33.5566 16.3887C 31.4238 16.3887 29.9648 17.2969 29.1797 19.1133L 29.1797 33L 25.9277 33L 25.9277 13.9805L 29.0039 13.9805ZM 56.6543 23.3145C 56.6543 21.4512 57.0176 19.7754 57.7441 18.2871C 58.4824 16.7988 59.502 15.6504 60.8027 14.8418C 62.1152 14.0332 63.6094 13.6289 65.2852 13.6289C 67.875 13.6289 69.9668 14.5254 71.5605 16.3184C 73.166 18.1113 73.9688 20.4961 73.9688 23.4727L 73.9688 23.7012C 73.9688 25.5527 73.6113 27.2168 72.8965 28.6934C 72.1934 30.1582 71.1797 31.3008 69.8555 32.1211C 68.543 32.9414 67.0312 33.3516 65.3203 33.3516C 62.7422 33.3516 60.6504 32.4551 59.0449 30.6621C 57.4512 28.8691 56.6543 26.4961 56.6543 23.543L 56.6543 23.3145ZM 59.9238 23.7012C 59.9238 25.8105 60.4102 27.5039 61.3828 28.7812C 62.3672 30.0586 63.6797 30.6973 65.3203 30.6973C 66.9727 30.6973 68.2852 30.0527 69.2578 28.7637C 70.2305 27.4629 70.7168 25.6465 70.7168 23.3145C 70.7168 21.2285 70.2188 19.541 69.2227 18.252C 68.2383 16.9512 66.9258 16.3008 65.2852 16.3008C 63.6797 16.3008 62.3848 16.9395 61.4004 18.2168C 60.416 19.4941 59.9238 21.3223 59.9238 23.7012ZM 89.7891 31.1191C 88.5234 32.6074 86.666 33.3516 84.2168 33.3516C 82.1895 33.3516 80.6426 32.7656 79.5762 31.5938C 78.5215 30.4102 77.9883 28.6641 77.9766 26.3555L 77.9766 13.9805L 81.2285 13.9805L 81.2285 26.2676C 81.2285 29.1504 82.4004 30.5918 84.7441 30.5918C 87.2285 30.5918 88.8809 29.666 89.7012 27.8145L 89.7012 13.9805L 92.9531 13.9805L 92.9531 33L 89.8594 33L 89.7891 31.1191ZM 100.986 13.9805L 101.092 16.3711C 102.545 14.543 104.443 13.6289 106.787 13.6289C 110.807 13.6289 112.834 15.8965 112.869 20.4316L 112.869 33L 109.617 33L 109.617 20.4141C 109.605 19.043 109.289 18.0293 108.668 17.373C 108.059 16.7168 107.104 16.3887 105.803 16.3887C 104.748 16.3887 103.822 16.6699 103.025 17.2324C 102.229 17.7949 101.607 18.5332 101.162 19.4473L 101.162 33L 97.9102 33L 97.9102 13.9805L 100.986 13.9805ZM 122.186 9.375L 122.186 13.9805L 125.736 13.9805L 125.736 16.4941L 122.186 16.4941L 122.186 28.2891C 122.186 29.0508 122.344 29.625 122.66 30.0117C 122.977 30.3867 123.516 30.5742 124.277 30.5742C 124.652 30.5742 125.168 30.5039 125.824 30.3633L 125.824 33C 124.969 33.2344 124.137 33.3516 123.328 33.3516C 121.875 33.3516 120.779 32.9121 120.041 32.0332C 119.303 31.1543 118.934 29.9062 118.934 28.2891L 118.934 16.4941L 115.471 16.4941L 115.471 13.9805L 118.934 13.9805L 118.934 9.375L 122.186 9.375Z"/>
<path id="path2_fill" d="M 21.7969 24.8789C 21.4805 27.5859 20.4785 29.6777 18.791 31.1543C 17.1152 32.6191 14.8828 33.3516 12.0938 33.3516C 9.07031 33.3516 6.64453 32.2676 4.81641 30.0996C 3 27.9316 2.0918 25.0312 2.0918 21.3984L 2.0918 18.9375C 2.0918 16.5586 2.51367 14.4668 3.35742 12.6621C 4.21289 10.8574 5.41992 9.47461 6.97852 8.51367C 8.53711 7.54102 10.3418 7.05469 12.3926 7.05469C 15.1113 7.05469 17.291 7.81641 18.9316 9.33984C 20.5723 10.8516 21.5273 12.9492 21.7969 15.6328L 18.4043 15.6328C 18.1113 13.5938 17.4727 12.1172 16.4883 11.2031C 15.5156 10.2891 14.1504 9.83203 12.3926 9.83203C 10.2363 9.83203 8.54297 10.6289 7.3125 12.2227C 6.09375 13.8164 5.48438 16.084 5.48438 19.0254L 5.48438 21.5039C 5.48438 24.2812 6.06445 26.4902 7.22461 28.1309C 8.38477 29.7715 10.0078 30.5918 12.0938 30.5918C 13.9688 30.5918 15.4043 30.1699 16.4004 29.3262C 17.4082 28.4707 18.0762 26.9883 18.4043 24.8789L 21.7969 24.8789ZM 25.0488 23.3145C 25.0488 21.4512 25.4121 19.7754 26.1387 18.2871C 26.877 16.7988 27.8965 15.6504 29.1973 14.8418C 30.5098 14.0332 32.0039 13.6289 33.6797 13.6289C 36.2695 13.6289 38.3613 14.5254 39.9551 16.3184C 41.5605 18.1113 42.3633 20.4961 42.3633 23.4727L 42.3633 23.7012C 42.3633 25.5527 42.0059 27.2168 41.291 28.6934C 40.5879 30.1582 39.5742 31.3008 38.25 32.1211C 36.9375 32.9414 35.4258 33.3516 33.7148 33.3516C 31.1367 33.3516 29.0449 32.4551 27.4395 30.6621C 25.8457 28.8691 25.0488 26.4961 25.0488 23.543L 25.0488 23.3145ZM 28.3184 23.7012C 28.3184 25.8105 28.8047 27.5039 29.7773 28.7812C 30.7617 30.0586 32.0742 30.6973 33.7148 30.6973C 35.3672 30.6973 36.6797 30.0527 37.6523 28.7637C 38.625 27.4629 39.1113 25.6465 39.1113 23.3145C 39.1113 21.2285 38.6133 19.541 37.6172 18.252C 36.6328 16.9512 35.3203 16.3008 33.6797 16.3008C 32.0742 16.3008 30.7793 16.9395 29.7949 18.2168C 28.8105 19.4941 28.3184 21.3223 28.3184 23.7012ZM 49.5 13.9805L 49.5879 16.0898C 50.9824 14.4492 52.8633 13.6289 55.2305 13.6289C 57.8906 13.6289 59.7012 14.6484 60.6621 16.6875C 61.2949 15.7734 62.1152 15.0352 63.123 14.4727C 64.1426 13.9102 65.3438 13.6289 66.7266 13.6289C 70.8984 13.6289 73.0195 15.8379 73.0898 20.2559L 73.0898 33L 69.8379 33L 69.8379 20.4492C 69.8379 19.0898 69.5273 18.0762 68.9062 17.4082C 68.2852 16.7285 67.2422 16.3887 65.7773 16.3887C 64.5703 16.3887 63.5684 16.752 62.7715 17.4785C 61.9746 18.1934 61.5117 19.1602 61.3828 20.3789L 61.3828 33L 58.1133 33L 58.1133 20.5371C 58.1133 17.7715 56.7598 16.3887 54.0527 16.3887C 51.9199 16.3887 50.4609 17.2969 49.6758 19.1133L 49.6758 33L 46.4238 33L 46.4238 13.9805L 49.5 13.9805ZM 94.1133 23.7012C 94.1133 26.6074 93.4453 28.9453 92.1094 30.7148C 90.7734 32.4727 88.9805 33.3516 86.7305 33.3516C 84.3281 33.3516 82.4707 32.502 81.1582 30.8027L 81 33L 78.0117 33L 78.0117 6L 81.2637 6L 81.2637 16.0723C 82.5762 14.4434 84.3867 13.6289 86.6953 13.6289C 89.0039 13.6289 90.8145 14.502 92.127 16.248C 93.4512 17.9941 94.1133 20.3848 94.1133 23.4199L 94.1133 23.7012ZM 90.8613 23.332C 90.8613 21.1172 90.4336 19.4062 89.5781 18.1992C 88.7227 16.9922 87.4922 16.3887 85.8867 16.3887C 83.7422 16.3887 82.2012 17.3848 81.2637 19.377L 81.2637 27.6035C 82.2598 29.5957 83.8125 30.5918 85.9219 30.5918C 87.4805 30.5918 88.6934 29.9883 89.5605 28.7812C 90.4277 27.5742 90.8613 25.7578 90.8613 23.332ZM 101.76 33L 98.5078 33L 98.5078 13.9805L 101.76 13.9805L 101.76 33ZM 98.2441 8.93555C 98.2441 8.4082 98.4023 7.96289 98.7188 7.59961C 99.0469 7.23633 99.5273 7.05469 100.16 7.05469C 100.793 7.05469 101.273 7.23633 101.602 7.59961C 101.93 7.96289 102.094 8.4082 102.094 8.93555C 102.094 9.46289 101.93 9.90234 101.602 10.2539C 101.273 10.6055 100.793 10.7812 100.16 10.7812C 99.5273 10.7812 99.0469 10.6055 98.7188 10.2539C 98.4023 9.90234 98.2441 9.46289 98.2441 8.93555ZM 110.057 13.9805L 110.162 16.3711C 111.615 14.543 113.514 13.6289 115.857 13.6289C 119.877 13.6289 121.904 15.8965 121.939 20.4316L 121.939 33L 118.688 33L 118.688 20.4141C 118.676 19.043 118.359 18.0293 117.738 17.373C 117.129 16.7168 116.174 16.3887 114.873 16.3887C 113.818 16.3887 112.893 16.6699 112.096 17.2324C 111.299 17.7949 110.678 18.5332 110.232 19.4473L 110.232 33L 106.98 33L 106.98 13.9805L 110.057 13.9805ZM 134.736 33.3516C 132.158 33.3516 130.061 32.5078 128.443 30.8203C 126.826 29.1211 126.018 26.8535 126.018 24.0176L 126.018 23.4199C 126.018 21.5332 126.375 19.8516 127.09 18.375C 127.816 16.8867 128.824 15.7266 130.113 14.8945C 131.414 14.0508 132.82 13.6289 134.332 13.6289C 136.805 13.6289 138.727 14.4434 140.098 16.0723C 141.469 17.7012 142.154 20.0332 142.154 23.0684L 142.154 24.4219L 129.27 24.4219C 129.316 26.2969 129.861 27.8145 130.904 28.9746C 131.959 30.123 133.295 30.6973 134.912 30.6973C 136.061 30.6973 137.033 30.4629 137.83 29.9941C 138.627 29.5254 139.324 28.9043 139.922 28.1309L 141.908 29.6777C 140.314 32.127 137.924 33.3516 134.736 33.3516ZM 134.332 16.3008C 133.02 16.3008 131.918 16.7812 131.027 17.7422C 130.137 18.6914 129.586 20.0273 129.375 21.75L 138.902 21.75L 138.902 21.5039C 138.809 19.8516 138.363 18.5742 137.566 17.6719C 136.77 16.7578 135.691 16.3008 134.332 16.3008ZM 145.143 23.332C 145.143 20.4141 145.834 18.0703 147.217 16.3008C 148.6 14.5195 150.41 13.6289 152.648 13.6289C 154.875 13.6289 156.639 14.3906 157.939 15.9141L 157.939 6L 161.191 6L 161.191 33L 158.203 33L 158.045 30.9609C 156.744 32.5547 154.934 33.3516 152.613 33.3516C 150.41 33.3516 148.611 32.4492 147.217 30.6445C 145.834 28.8398 145.143 26.4844 145.143 23.5781L 145.143 23.332ZM 148.395 23.7012C 148.395 25.8574 148.84 27.5449 149.73 28.7637C 150.621 29.9824 151.852 30.5918 153.422 30.5918C 155.484 30.5918 156.99 29.666 157.939 27.8145L 157.939 19.0781C 156.967 17.2852 155.473 16.3887 153.457 16.3887C 151.863 16.3887 150.621 17.0039 149.73 18.2344C 148.84 19.4648 148.395 21.2871 148.395 23.7012Z"/>
<path id="path3_fill" d="M 12.8145 33L 9.54492 33L 9.54492 11.3262L 2.98828 13.7344L 2.98828 10.7812L 12.3047 7.2832L 12.8145 7.2832L 12.8145 33Z"/>
<path id="path4_fill" d="M 18.8965 33L 2.12695 33L 2.12695 30.6621L 10.9863 20.8184C 12.2988 19.3301 13.2012 18.123 13.6934 17.1973C 14.1973 16.2598 14.4492 15.293 14.4492 14.2969C 14.4492 12.9609 14.0449 11.8652 13.2363 11.0098C 12.4277 10.1543 11.3496 9.72656 10.002 9.72656C 8.38477 9.72656 7.125 10.1895 6.22266 11.1152C 5.33203 12.0293 4.88672 13.3066 4.88672 14.9473L 1.63477 14.9473C 1.63477 12.5918 2.39062 10.6875 3.90234 9.23438C 5.42578 7.78125 7.45898 7.05469 10.002 7.05469C 12.3809 7.05469 14.2617 7.68164 15.6445 8.93555C 17.0273 10.1777 17.7188 11.8359 17.7188 13.9102C 17.7188 16.4297 16.1133 19.4297 12.9023 22.9102L 6.04688 30.3457L 18.8965 30.3457L 18.8965 33Z"/>
<path id="path5_fill" d="M 6.85547 18.6211L 9.29883 18.6211C 10.834 18.5977 12.041 18.1934 12.9199 17.4082C 13.7988 16.623 14.2383 15.5625 14.2383 14.2266C 14.2383 11.2266 12.7441 9.72656 9.75586 9.72656C 8.34961 9.72656 7.22461 10.1309 6.38086 10.9395C 5.54883 11.7363 5.13281 12.7969 5.13281 14.1211L 1.88086 14.1211C 1.88086 12.0938 2.61914 10.4121 4.0957 9.07617C 5.58398 7.72852 7.4707 7.05469 9.75586 7.05469C 12.1699 7.05469 14.0625 7.69336 15.4336 8.9707C 16.8047 10.248 17.4902 12.0234 17.4902 14.2969C 17.4902 15.4102 17.127 16.4883 16.4004 17.5312C 15.6855 18.5742 14.707 19.3535 13.4648 19.8691C 14.8711 20.3145 15.9551 21.0527 16.7168 22.084C 17.4902 23.1152 17.877 24.375 17.877 25.8633C 17.877 28.1602 17.127 29.9824 15.627 31.3301C 14.127 32.6777 12.1758 33.3516 9.77344 33.3516C 7.37109 33.3516 5.41406 32.7012 3.90234 31.4004C 2.40234 30.0996 1.65234 28.3828 1.65234 26.25L 4.92188 26.25C 4.92188 27.5977 5.36133 28.6758 6.24023 29.4844C 7.11914 30.293 8.29688 30.6973 9.77344 30.6973C 11.3438 30.6973 12.5449 30.2871 13.377 29.4668C 14.209 28.6465 14.625 27.4688 14.625 25.9336C 14.625 24.4453 14.168 23.3027 13.2539 22.5059C 12.3398 21.709 11.0215 21.2988 9.29883 21.2754L 6.85547 21.2754L 6.85547 18.6211Z"/>
<path id="path6_fill" d="M 15.8555 24.4043L 19.4062 24.4043L 19.4062 27.0586L 15.8555 27.0586L 15.8555 33L 12.5859 33L 12.5859 27.0586L 0.931641 27.0586L 0.931641 25.1426L 12.3926 7.40625L 15.8555 7.40625L 15.8555 24.4043ZM 4.62305 24.4043L 12.5859 24.4043L 12.5859 11.8535L 12.1992 12.5566L 4.62305 24.4043Z"/>
<path id="path7_fill" d="M 12.8145 33L 9.54492 33L 9.54492 11.3262L 2.98828 13.7344L 2.98828 10.7812L 12.3047 7.2832L 12.8145 7.2832L 12.8145 33ZM 38.3906 22.084C 38.3906 25.8926 37.7402 28.7227 36.4395 30.5742C 35.1387 32.4258 33.1055 33.3516 30.3398 33.3516C 27.6094 33.3516 25.5879 32.4492 24.2754 30.6445C 22.9629 28.8281 22.2832 26.1211 22.2363 22.5234L 22.2363 18.1816C 22.2363 14.4199 22.8867 11.625 24.1875 9.79688C 25.4883 7.96875 27.5273 7.05469 30.3047 7.05469C 33.0586 7.05469 35.0859 7.93945 36.3867 9.70898C 37.6875 11.4668 38.3555 14.1855 38.3906 17.8652L 38.3906 22.084ZM 35.1387 17.6367C 35.1387 14.8828 34.752 12.8789 33.9785 11.625C 33.2051 10.3594 31.9805 9.72656 30.3047 9.72656C 28.6406 9.72656 27.4277 10.3535 26.666 11.6074C 25.9043 12.8613 25.5117 14.7891 25.4883 17.3906L 25.4883 22.5938C 25.4883 25.3594 25.8867 27.4043 26.6836 28.7285C 27.4922 30.041 28.7109 30.6973 30.3398 30.6973C 31.9453 30.6973 33.1348 30.0762 33.9082 28.834C 34.6934 27.5918 35.1035 25.6348 35.1387 22.9629L 35.1387 17.6367ZM 42.9609 31.2949C 42.9609 30.7324 43.125 30.2637 43.4531 29.8887C 43.793 29.5137 44.2969 29.3262 44.9648 29.3262C 45.6328 29.3262 46.1367 29.5137 46.4766 29.8887C 46.8281 30.2637 47.0039 30.7324 47.0039 31.2949C 47.0039 31.834 46.8281 32.2852 46.4766 32.6484C 46.1367 33.0117 45.6328 33.1934 44.9648 33.1934C 44.2969 33.1934 43.793 33.0117 43.4531 32.6484C 43.125 32.2852 42.9609 31.834 42.9609 31.2949ZM 68.0977 22.084C 68.0977 25.8926 67.4473 28.7227 66.1465 30.5742C 64.8457 32.4258 62.8125 33.3516 60.0469 33.3516C 57.3164 33.3516 55.2949 32.4492 53.9824 30.6445C 52.6699 28.8281 51.9902 26.1211 51.9434 22.5234L 51.9434 18.1816C 51.9434 14.4199 52.5938 11.625 53.8945 9.79688C 55.1953 7.96875 57.2344 7.05469 60.0117 7.05469C 62.7656 7.05469 64.793 7.93945 66.0938 9.70898C 67.3945 11.4668 68.0625 14.1855 68.0977 17.8652L 68.0977 22.084ZM 64.8457 17.6367C 64.8457 14.8828 64.459 12.8789 63.6855 11.625C 62.9121 10.3594 61.6875 9.72656 60.0117 9.72656C 58.3477 9.72656 57.1348 10.3535 56.373 11.6074C 55.6113 12.8613 55.2188 14.7891 55.1953 17.3906L 55.1953 22.5938C 55.1953 25.3594 55.5938 27.4043 56.3906 28.7285C 57.1992 30.041 58.418 30.6973 60.0469 30.6973C 61.6523 30.6973 62.8418 30.0762 63.6152 28.834C 64.4004 27.5918 64.8105 25.6348 64.8457 22.9629L 64.8457 17.6367ZM 88.3125 22.084C 88.3125 25.8926 87.6621 28.7227 86.3613 30.5742C 85.0605 32.4258 83.0273 33.3516 80.2617 33.3516C 77.5312 33.3516 75.5098 32.4492 74.1973 30.6445C 72.8848 28.8281 72.2051 26.1211 72.1582 22.5234L 72.1582 18.1816C 72.1582 14.4199 72.8086 11.625 74.1094 9.79688C 75.4102 7.96875 77.4492 7.05469 80.2266 7.05469C 82.9805 7.05469 85.0078 7.93945 86.3086 9.70898C 87.6094 11.4668 88.2773 14.1855 88.3125 17.8652L 88.3125 22.084ZM 85.0605 17.6367C 85.0605 14.8828 84.6738 12.8789 83.9004 11.625C 83.127 10.3594 81.9023 9.72656 80.2266 9.72656C 78.5625 9.72656 77.3496 10.3535 76.5879 11.6074C 75.8262 12.8613 75.4336 14.7891 75.4102 17.3906L 75.4102 22.5938C 75.4102 25.3594 75.8086 27.4043 76.6055 28.7285C 77.4141 30.041 78.6328 30.6973 80.2617 30.6973C 81.8672 30.6973 83.0566 30.0762 83.8301 28.834C 84.6152 27.5918 85.0254 25.6348 85.0605 22.9629L 85.0605 17.6367Z"/>
<path id="path8_fill" d="M 3.62109 20.168L 4.92188 7.40625L 18.0352 7.40625L 18.0352 10.4121L 7.68164 10.4121L 6.9082 17.3906C 8.16211 16.6523 9.58594 16.2832 11.1797 16.2832C 13.5117 16.2832 15.3633 17.0566 16.7344 18.6035C 18.1055 20.1387 18.791 22.2188 18.791 24.8438C 18.791 27.4805 18.0762 29.5605 16.6465 31.084C 15.2285 32.5957 13.2422 33.3516 10.6875 33.3516C 8.42578 33.3516 6.58008 32.7246 5.15039 31.4707C 3.7207 30.2168 2.90625 28.4824 2.70703 26.2676L 5.7832 26.2676C 5.98242 27.7324 6.50391 28.8398 7.34766 29.5898C 8.19141 30.3281 9.30469 30.6973 10.6875 30.6973C 12.1992 30.6973 13.3828 30.1816 14.2383 29.1504C 15.1055 28.1191 15.5391 26.6953 15.5391 24.8789C 15.5391 23.168 15.0703 21.7969 14.1328 20.7656C 13.207 19.7227 11.9707 19.2012 10.4238 19.2012C 9.00586 19.2012 7.89258 19.5117 7.08398 20.1328L 6.22266 20.8359L 3.62109 20.168ZM 22.7461 31.2949C 22.7461 30.7324 22.9102 30.2637 23.2383 29.8887C 23.5781 29.5137 24.082 29.3262 24.75 29.3262C 25.418 29.3262 25.9219 29.5137 26.2617 29.8887C 26.6133 30.2637 26.7891 30.7324 26.7891 31.2949C 26.7891 31.834 26.6133 32.2852 26.2617 32.6484C 25.9219 33.0117 25.418 33.1934 24.75 33.1934C 24.082 33.1934 23.5781 33.0117 23.2383 32.6484C 22.9102 32.2852 22.7461 31.834 22.7461 31.2949ZM 47.8828 22.084C 47.8828 25.8926 47.2324 28.7227 45.9316 30.5742C 44.6309 32.4258 42.5977 33.3516 39.832 33.3516C 37.1016 33.3516 35.0801 32.4492 33.7676 30.6445C 32.4551 28.8281 31.7754 26.1211 31.7285 22.5234L 31.7285 18.1816C 31.7285 14.4199 32.3789 11.625 33.6797 9.79688C 34.9805 7.96875 37.0195 7.05469 39.7969 7.05469C 42.5508 7.05469 44.5781 7.93945 45.8789 9.70898C 47.1797 11.4668 47.8477 14.1855 47.8828 17.8652L 47.8828 22.084ZM 44.6309 17.6367C 44.6309 14.8828 44.2441 12.8789 43.4707 11.625C 42.6973 10.3594 41.4727 9.72656 39.7969 9.72656C 38.1328 9.72656 36.9199 10.3535 36.1582 11.6074C 35.3965 12.8613 35.0039 14.7891 34.9805 17.3906L 34.9805 22.5938C 34.9805 25.3594 35.3789 27.4043 36.1758 28.7285C 36.9844 30.041 38.2031 30.6973 39.832 30.6973C 41.4375 30.6973 42.627 30.0762 43.4004 28.834C 44.1855 27.5918 44.5957 25.6348 44.6309 22.9629L 44.6309 17.6367ZM 68.0977 22.084C 68.0977 25.8926 67.4473 28.7227 66.1465 30.5742C 64.8457 32.4258 62.8125 33.3516 60.0469 33.3516C 57.3164 33.3516 55.2949 32.4492 53.9824 30.6445C 52.6699 28.8281 51.9902 26.1211 51.9434 22.5234L 51.9434 18.1816C 51.9434 14.4199 52.5938 11.625 53.8945 9.79688C 55.1953 7.96875 57.2344 7.05469 60.0117 7.05469C 62.7656 7.05469 64.793 7.93945 66.0938 9.70898C 67.3945 11.4668 68.0625 14.1855 68.0977 17.8652L 68.0977 22.084ZM 64.8457 17.6367C 64.8457 14.8828 64.459 12.8789 63.6855 11.625C 62.9121 10.3594 61.6875 9.72656 60.0117 9.72656C 58.3477 9.72656 57.1348 10.3535 56.373 11.6074C 55.6113 12.8613 55.2188 14.7891 55.1953 17.3906L 55.1953 22.5938C 55.1953 25.3594 55.5938 27.4043 56.3906 28.7285C 57.1992 30.041 58.418 30.6973 60.0469 30.6973C 61.6523 30.6973 62.8418 30.0762 63.6152 28.834C 64.4004 27.5918 64.8105 25.6348 64.8457 22.9629L 64.8457 17.6367Z"/>
<path id="path9_fill" d="M 18.8965 33L 2.12695 33L 2.12695 30.6621L 10.9863 20.8184C 12.2988 19.3301 13.2012 18.123 13.6934 17.1973C 14.1973 16.2598 14.4492 15.293 14.4492 14.2969C 14.4492 12.9609 14.0449 11.8652 13.2363 11.0098C 12.4277 10.1543 11.3496 9.72656 10.002 9.72656C 8.38477 9.72656 7.125 10.1895 6.22266 11.1152C 5.33203 12.0293 4.88672 13.3066 4.88672 14.9473L 1.63477 14.9473C 1.63477 12.5918 2.39062 10.6875 3.90234 9.23438C 5.42578 7.78125 7.45898 7.05469 10.002 7.05469C 12.3809 7.05469 14.2617 7.68164 15.6445 8.93555C 17.0273 10.1777 17.7188 11.8359 17.7188 13.9102C 17.7188 16.4297 16.1133 19.4297 12.9023 22.9102L 6.04688 30.3457L 18.8965 30.3457L 18.8965 33ZM 22.7461 31.2949C 22.7461 30.7324 22.9102 30.2637 23.2383 29.8887C 23.5781 29.5137 24.082 29.3262 24.75 29.3262C 25.418 29.3262 25.9219 29.5137 26.2617 29.8887C 26.6133 30.2637 26.7891 30.7324 26.7891 31.2949C 26.7891 31.834 26.6133 32.2852 26.2617 32.6484C 25.9219 33.0117 25.418 33.1934 24.75 33.1934C 24.082 33.1934 23.5781 33.0117 23.2383 32.6484C 22.9102 32.2852 22.7461 31.834 22.7461 31.2949ZM 36.5625 18.6211L 39.0059 18.6211C 40.541 18.5977 41.748 18.1934 42.627 17.4082C 43.5059 16.623 43.9453 15.5625 43.9453 14.2266C 43.9453 11.2266 42.4512 9.72656 39.4629 9.72656C 38.0566 9.72656 36.9316 10.1309 36.0879 10.9395C 35.2559 11.7363 34.8398 12.7969 34.8398 14.1211L 31.5879 14.1211C 31.5879 12.0938 32.3262 10.4121 33.8027 9.07617C 35.291 7.72852 37.1777 7.05469 39.4629 7.05469C 41.877 7.05469 43.7695 7.69336 45.1406 8.9707C 46.5117 10.248 47.1973 12.0234 47.1973 14.2969C 47.1973 15.4102 46.834 16.4883 46.1074 17.5312C 45.3926 18.5742 44.4141 19.3535 43.1719 19.8691C 44.5781 20.3145 45.6621 21.0527 46.4238 22.084C 47.1973 23.1152 47.584 24.375 47.584 25.8633C 47.584 28.1602 46.834 29.9824 45.334 31.3301C 43.834 32.6777 41.8828 33.3516 39.4805 33.3516C 37.0781 33.3516 35.1211 32.7012 33.6094 31.4004C 32.1094 30.0996 31.3594 28.3828 31.3594 26.25L 34.6289 26.25C 34.6289 27.5977 35.0684 28.6758 35.9473 29.4844C 36.8262 30.293 38.0039 30.6973 39.4805 30.6973C 41.0508 30.6973 42.252 30.2871 43.084 29.4668C 43.916 28.6465 44.332 27.4688 44.332 25.9336C 44.332 24.4453 43.875 23.3027 42.9609 22.5059C 42.0469 21.709 40.7285 21.2988 39.0059 21.2754L 36.5625 21.2754L 36.5625 18.6211ZM 68.0977 22.084C 68.0977 25.8926 67.4473 28.7227 66.1465 30.5742C 64.8457 32.4258 62.8125 33.3516 60.0469 33.3516C 57.3164 33.3516 55.2949 32.4492 53.9824 30.6445C 52.6699 28.8281 51.9902 26.1211 51.9434 22.5234L 51.9434 18.1816C 51.9434 14.4199 52.5938 11.625 53.8945 9.79688C 55.1953 7.96875 57.2344 7.05469 60.0117 7.05469C 62.7656 7.05469 64.793 7.93945 66.0938 9.70898C 67.3945 11.4668 68.0625 14.1855 68.0977 17.8652L 68.0977 22.084ZM 64.8457 17.6367C 64.8457 14.8828 64.459 12.8789 63.6855 11.625C 62.9121 10.3594 61.6875 9.72656 60.0117 9.72656C 58.3477 9.72656 57.1348 10.3535 56.373 11.6074C 55.6113 12.8613 55.2188 14.7891 55.1953 17.3906L 55.1953 22.5938C 55.1953 25.3594 55.5938 27.4043 56.3906 28.7285C 57.1992 30.041 58.418 30.6973 60.0469 30.6973C 61.6523 30.6973 62.8418 30.0762 63.6152 28.834C 64.4004 27.5918 64.8105 25.6348 64.8457 22.9629L 64.8457 17.6367Z"/>
<path id="path10_fill" d="M 17.6484 14.0859C 17.6484 15.3633 17.3086 16.5 16.6289 17.4961C 15.9609 18.4922 15.0527 19.2715 13.9043 19.834C 15.2402 20.4082 16.2949 21.2461 17.0684 22.3477C 17.8535 23.4492 18.2461 24.6973 18.2461 26.0918C 18.2461 28.3066 17.4961 30.0703 15.9961 31.3828C 14.5078 32.6953 12.5449 33.3516 10.1074 33.3516C 7.64648 33.3516 5.67188 32.6953 4.18359 31.3828C 2.70703 30.0586 1.96875 28.2949 1.96875 26.0918C 1.96875 24.709 2.34375 23.4609 3.09375 22.3477C 3.85547 21.2344 4.9043 20.3906 6.24023 19.8164C 5.10352 19.2539 4.20703 18.4746 3.55078 17.4785C 2.89453 16.4824 2.56641 15.3516 2.56641 14.0859C 2.56641 11.9297 3.25781 10.2188 4.64062 8.95312C 6.02344 7.6875 7.8457 7.05469 10.1074 7.05469C 12.3574 7.05469 14.1738 7.6875 15.5566 8.95312C 16.9512 10.2188 17.6484 11.9297 17.6484 14.0859ZM 14.9941 26.0215C 14.9941 24.5918 14.5371 23.4258 13.623 22.5234C 12.7207 21.6211 11.5371 21.1699 10.0723 21.1699C 8.60742 21.1699 7.42969 21.6152 6.53906 22.5059C 5.66016 23.3965 5.2207 24.5684 5.2207 26.0215C 5.2207 27.4746 5.64844 28.6172 6.50391 29.4492C 7.37109 30.2812 8.57227 30.6973 10.1074 30.6973C 11.6309 30.6973 12.8262 30.2812 13.6934 29.4492C 14.5605 28.6055 14.9941 27.4629 14.9941 26.0215ZM 10.1074 9.72656C 8.83008 9.72656 7.79297 10.125 6.99609 10.9219C 6.21094 11.707 5.81836 12.7793 5.81836 14.1387C 5.81836 15.4395 6.20508 16.4941 6.97852 17.3027C 7.76367 18.0996 8.80664 18.498 10.1074 18.498C 11.4082 18.498 12.4453 18.0996 13.2188 17.3027C 14.0039 16.4941 14.3965 15.4395 14.3965 14.1387C 14.3965 12.8379 13.9922 11.7773 13.1836 10.957C 12.375 10.1367 11.3496 9.72656 10.1074 9.72656ZM 33.0293 33L 29.7598 33L 29.7598 11.3262L 23.2031 13.7344L 23.2031 10.7812L 32.5195 7.2832L 33.0293 7.2832L 33.0293 33ZM 42.9609 31.2949C 42.9609 30.7324 43.125 30.2637 43.4531 29.8887C 43.793 29.5137 44.2969 29.3262 44.9648 29.3262C 45.6328 29.3262 46.1367 29.5137 46.4766 29.8887C 46.8281 30.2637 47.0039 30.7324 47.0039 31.2949C 47.0039 31.834 46.8281 32.2852 46.4766 32.6484C 46.1367 33.0117 45.6328 33.1934 44.9648 33.1934C 44.2969 33.1934 43.793 33.0117 43.4531 32.6484C 43.125 32.2852 42.9609 31.834 42.9609 31.2949ZM 68.8184 33L 52.0488 33L 52.0488 30.6621L 60.9082 20.8184C 62.2207 19.3301 63.123 18.123 63.6152 17.1973C 64.1191 16.2598 64.3711 15.293 64.3711 14.2969C 64.3711 12.9609 63.9668 11.8652 63.1582 11.0098C 62.3496 10.1543 61.2715 9.72656 59.9238 9.72656C 58.3066 9.72656 57.0469 10.1895 56.1445 11.1152C 55.2539 12.0293 54.8086 13.3066 54.8086 14.9473L 51.5566 14.9473C 51.5566 12.5918 52.3125 10.6875 53.8242 9.23438C 55.3477 7.78125 57.3809 7.05469 59.9238 7.05469C 62.3027 7.05469 64.1836 7.68164 65.5664 8.93555C 66.9492 10.1777 67.6406 11.8359 67.6406 13.9102C 67.6406 16.4297 66.0352 19.4297 62.8242 22.9102L 55.9688 30.3457L 68.8184 30.3457L 68.8184 33ZM 88.3125 22.084C 88.3125 25.8926 87.6621 28.7227 86.3613 30.5742C 85.0605 32.4258 83.0273 33.3516 80.2617 33.3516C 77.5312 33.3516 75.5098 32.4492 74.1973 30.6445C 72.8848 28.8281 72.2051 26.1211 72.1582 22.5234L 72.1582 18.1816C 72.1582 14.4199 72.8086 11.625 74.1094 9.79688C 75.4102 7.96875 77.4492 7.05469 80.2266 7.05469C 82.9805 7.05469 85.0078 7.93945 86.3086 9.70898C 87.6094 11.4668 88.2773 14.1855 88.3125 17.8652L 88.3125 22.084ZM 85.0605 17.6367C 85.0605 14.8828 84.6738 12.8789 83.9004 11.625C 83.127 10.3594 81.9023 9.72656 80.2266 9.72656C 78.5625 9.72656 77.3496 10.3535 76.5879 11.6074C 75.8262 12.8613 75.4336 14.7891 75.4102 17.3906L 75.4102 22.5938C 75.4102 25.3594 75.8086 27.4043 76.6055 28.7285C 77.4141 30.041 78.6328 30.6973 80.2617 30.6973C 81.8672 30.6973 83.0566 30.0762 83.8301 28.834C 84.6152 27.5918 85.0254 25.6348 85.0605 22.9629L 85.0605 17.6367Z"/>
<path id="path11_fill" d="M 4.88672 5.66602L 6.75 6.93164C 5.66016 8.41992 5.09766 10.0254 5.0625 11.748L 5.0625 14.1387L 1.82812 14.1387L 1.82812 12.0996C 1.82812 10.9043 2.10938 9.7207 2.67188 8.54883C 3.24609 7.37695 3.98438 6.41602 4.88672 5.66602ZM 10.4238 5.66602L 12.2871 6.93164C 11.1973 8.41992 10.6348 10.0254 10.5996 11.748L 10.5996 14.1387L 7.36523 14.1387L 7.36523 12.0996C 7.36523 10.9043 7.64648 9.7207 8.20898 8.54883C 8.7832 7.37695 9.52148 6.41602 10.4238 5.66602ZM 25.541 33L 22.2715 33L 22.2715 11.3262L 15.7148 13.7344L 15.7148 10.7812L 25.0312 7.2832L 25.541 7.2832L 25.541 33ZM 49.1133 35.6543L 33.0117 35.6543L 33.0117 33L 49.1133 33L 49.1133 35.6543ZM 61.998 33L 58.7285 33L 58.7285 11.3262L 52.1719 13.7344L 52.1719 10.7812L 61.4883 7.2832L 61.998 7.2832L 61.998 33ZM 87.5742 22.084C 87.5742 25.8926 86.9238 28.7227 85.623 30.5742C 84.3223 32.4258 82.2891 33.3516 79.5234 33.3516C 76.793 33.3516 74.7715 32.4492 73.459 30.6445C 72.1465 28.8281 71.4668 26.1211 71.4199 22.5234L 71.4199 18.1816C 71.4199 14.4199 72.0703 11.625 73.3711 9.79688C 74.6719 7.96875 76.7109 7.05469 79.4883 7.05469C 82.2422 7.05469 84.2695 7.93945 85.5703 9.70898C 86.8711 11.4668 87.5391 14.1855 87.5742 17.8652L 87.5742 22.084ZM 84.3223 17.6367C 84.3223 14.8828 83.9355 12.8789 83.1621 11.625C 82.3887 10.3594 81.1641 9.72656 79.4883 9.72656C 77.8242 9.72656 76.6113 10.3535 75.8496 11.6074C 75.0879 12.8613 74.6953 14.7891 74.6719 17.3906L 74.6719 22.5938C 74.6719 25.3594 75.0703 27.4043 75.8672 28.7285C 76.6758 30.041 77.8945 30.6973 79.5234 30.6973C 81.1289 30.6973 82.3184 30.0762 83.0918 28.834C 83.877 27.5918 84.2871 25.6348 84.3223 22.9629L 84.3223 17.6367ZM 92.1445 31.2949C 92.1445 30.7324 92.3086 30.2637 92.6367 29.8887C 92.9766 29.5137 93.4805 29.3262 94.1484 29.3262C 94.8164 29.3262 95.3203 29.5137 95.6602 29.8887C 96.0117 30.2637 96.1875 30.7324 96.1875 31.2949C 96.1875 31.834 96.0117 32.2852 95.6602 32.6484C 95.3203 33.0117 94.8164 33.1934 94.1484 33.1934C 93.4805 33.1934 92.9766 33.0117 92.6367 32.6484C 92.3086 32.2852 92.1445 31.834 92.1445 31.2949ZM 117.281 22.084C 117.281 25.8926 116.631 28.7227 115.33 30.5742C 114.029 32.4258 111.996 33.3516 109.23 33.3516C 106.5 33.3516 104.479 32.4492 103.166 30.6445C 101.854 28.8281 101.174 26.1211 101.127 22.5234L 101.127 18.1816C 101.127 14.4199 101.777 11.625 103.078 9.79688C 104.379 7.96875 106.418 7.05469 109.195 7.05469C 111.949 7.05469 113.977 7.93945 115.277 9.70898C 116.578 11.4668 117.246 14.1855 117.281 17.8652L 117.281 22.084ZM 114.029 17.6367C 114.029 14.8828 113.643 12.8789 112.869 11.625C 112.096 10.3594 110.871 9.72656 109.195 9.72656C 107.531 9.72656 106.318 10.3535 105.557 11.6074C 104.795 12.8613 104.402 14.7891 104.379 17.3906L 104.379 22.5938C 104.379 25.3594 104.777 27.4043 105.574 28.7285C 106.383 30.041 107.602 30.6973 109.23 30.6973C 110.836 30.6973 112.025 30.0762 112.799 28.834C 113.584 27.5918 113.994 25.6348 114.029 22.9629L 114.029 17.6367ZM 137.496 22.084C 137.496 25.8926 136.846 28.7227 135.545 30.5742C 134.244 32.4258 132.211 33.3516 129.445 33.3516C 126.715 33.3516 124.693 32.4492 123.381 30.6445C 122.068 28.8281 121.389 26.1211 121.342 22.5234L 121.342 18.1816C 121.342 14.4199 121.992 11.625 123.293 9.79688C 124.594 7.96875 126.633 7.05469 129.41 7.05469C 132.164 7.05469 134.191 7.93945 135.492 9.70898C 136.793 11.4668 137.461 14.1855 137.496 17.8652L 137.496 22.084ZM 134.244 17.6367C 134.244 14.8828 133.857 12.8789 133.084 11.625C 132.311 10.3594 131.086 9.72656 129.41 9.72656C 127.746 9.72656 126.533 10.3535 125.771 11.6074C 125.01 12.8613 124.617 14.7891 124.594 17.3906L 124.594 22.5938C 124.594 25.3594 124.992 27.4043 125.789 28.7285C 126.598 30.041 127.816 30.6973 129.445 30.6973C 131.051 30.6973 132.24 30.0762 133.014 28.834C 133.799 27.5918 134.209 25.6348 134.244 22.9629L 134.244 17.6367ZM 142.436 14.6133L 140.59 13.3477C 141.68 11.8242 142.242 10.2188 142.277 8.53125L 142.277 6L 145.494 6L 145.494 8.28516C 145.482 9.45703 145.189 10.6289 144.615 11.8008C 144.053 12.9609 143.326 13.8984 142.436 14.6133ZM 147.832 14.6133L 145.986 13.3477C 147.076 11.8242 147.639 10.2188 147.674 8.53125L 147.674 6L 150.891 6L 150.891 8.28516C 150.879 9.45703 150.586 10.6289 150.012 11.8008C 149.449 12.9609 148.723 13.8984 147.832 14.6133Z"/>
<path id="path12_fill" d="M 4.88672 5.66602L 6.75 6.93164C 5.66016 8.41992 5.09766 10.0254 5.0625 11.748L 5.0625 14.1387L 1.82812 14.1387L 1.82812 12.0996C 1.82812 10.9043 2.10938 9.7207 2.67188 8.54883C 3.24609 7.37695 3.98438 6.41602 4.88672 5.66602ZM 10.4238 5.66602L 12.2871 6.93164C 11.1973 8.41992 10.6348 10.0254 10.5996 11.748L 10.5996 14.1387L 7.36523 14.1387L 7.36523 12.0996C 7.36523 10.9043 7.64648 9.7207 8.20898 8.54883C 8.7832 7.37695 9.52148 6.41602 10.4238 5.66602ZM 31.623 33L 14.8535 33L 14.8535 30.6621L 23.7129 20.8184C 25.0254 19.3301 25.9277 18.123 26.4199 17.1973C 26.9238 16.2598 27.1758 15.293 27.1758 14.2969C 27.1758 12.9609 26.7715 11.8652 25.9629 11.0098C 25.1543 10.1543 24.0762 9.72656 22.7285 9.72656C 21.1113 9.72656 19.8516 10.1895 18.9492 11.1152C 18.0586 12.0293 17.6133 13.3066 17.6133 14.9473L 14.3613 14.9473C 14.3613 12.5918 15.1172 10.6875 16.6289 9.23438C 18.1523 7.78125 20.1855 7.05469 22.7285 7.05469C 25.1074 7.05469 26.9883 7.68164 28.3711 8.93555C 29.7539 10.1777 30.4453 11.8359 30.4453 13.9102C 30.4453 16.4297 28.8398 19.4297 25.6289 22.9102L 18.7734 30.3457L 31.623 30.3457L 31.623 33ZM 49.1133 35.6543L 33.0117 35.6543L 33.0117 33L 49.1133 33L 49.1133 35.6543ZM 52.8047 20.168L 54.1055 7.40625L 67.2188 7.40625L 67.2188 10.4121L 56.8652 10.4121L 56.0918 17.3906C 57.3457 16.6523 58.7695 16.2832 60.3633 16.2832C 62.6953 16.2832 64.5469 17.0566 65.918 18.6035C 67.2891 20.1387 67.9746 22.2188 67.9746 24.8438C 67.9746 27.4805 67.2598 29.5605 65.8301 31.084C 64.4121 32.5957 62.4258 33.3516 59.8711 33.3516C 57.6094 33.3516 55.7637 32.7246 54.334 31.4707C 52.9043 30.2168 52.0898 28.4824 51.8906 26.2676L 54.9668 26.2676C 55.166 27.7324 55.6875 28.8398 56.5312 29.5898C 57.375 30.3281 58.4883 30.6973 59.8711 30.6973C 61.3828 30.6973 62.5664 30.1816 63.4219 29.1504C 64.2891 28.1191 64.7227 26.6953 64.7227 24.8789C 64.7227 23.168 64.2539 21.7969 63.3164 20.7656C 62.3906 19.7227 61.1543 19.2012 59.6074 19.2012C 58.1895 19.2012 57.0762 19.5117 56.2676 20.1328L 55.4062 20.8359L 52.8047 20.168ZM 71.9297 31.2949C 71.9297 30.7324 72.0938 30.2637 72.4219 29.8887C 72.7617 29.5137 73.2656 29.3262 73.9336 29.3262C 74.6016 29.3262 75.1055 29.5137 75.4453 29.8887C 75.7969 30.2637 75.9727 30.7324 75.9727 31.2949C 75.9727 31.834 75.7969 32.2852 75.4453 32.6484C 75.1055 33.0117 74.6016 33.1934 73.9336 33.1934C 73.2656 33.1934 72.7617 33.0117 72.4219 32.6484C 72.0938 32.2852 71.9297 31.834 71.9297 31.2949ZM 97.0664 22.084C 97.0664 25.8926 96.416 28.7227 95.1152 30.5742C 93.8145 32.4258 91.7812 33.3516 89.0156 33.3516C 86.2852 33.3516 84.2637 32.4492 82.9512 30.6445C 81.6387 28.8281 80.959 26.1211 80.9121 22.5234L 80.9121 18.1816C 80.9121 14.4199 81.5625 11.625 82.8633 9.79688C 84.1641 7.96875 86.2031 7.05469 88.9805 7.05469C 91.7344 7.05469 93.7617 7.93945 95.0625 9.70898C 96.3633 11.4668 97.0312 14.1855 97.0664 17.8652L 97.0664 22.084ZM 93.8145 17.6367C 93.8145 14.8828 93.4277 12.8789 92.6543 11.625C 91.8809 10.3594 90.6562 9.72656 88.9805 9.72656C 87.3164 9.72656 86.1035 10.3535 85.3418 11.6074C 84.5801 12.8613 84.1875 14.7891 84.1641 17.3906L 84.1641 22.5938C 84.1641 25.3594 84.5625 27.4043 85.3594 28.7285C 86.168 30.041 87.3867 30.6973 89.0156 30.6973C 90.6211 30.6973 91.8105 30.0762 92.584 28.834C 93.3691 27.5918 93.7793 25.6348 93.8145 22.9629L 93.8145 17.6367ZM 117.281 22.084C 117.281 25.8926 116.631 28.7227 115.33 30.5742C 114.029 32.4258 111.996 33.3516 109.23 33.3516C 106.5 33.3516 104.479 32.4492 103.166 30.6445C 101.854 28.8281 101.174 26.1211 101.127 22.5234L 101.127 18.1816C 101.127 14.4199 101.777 11.625 103.078 9.79688C 104.379 7.96875 106.418 7.05469 109.195 7.05469C 111.949 7.05469 113.977 7.93945 115.277 9.70898C 116.578 11.4668 117.246 14.1855 117.281 17.8652L 117.281 22.084ZM 114.029 17.6367C 114.029 14.8828 113.643 12.8789 112.869 11.625C 112.096 10.3594 110.871 9.72656 109.195 9.72656C 107.531 9.72656 106.318 10.3535 105.557 11.6074C 104.795 12.8613 104.402 14.7891 104.379 17.3906L 104.379 22.5938C 104.379 25.3594 104.777 27.4043 105.574 28.7285C 106.383 30.041 107.602 30.6973 109.23 30.6973C 110.836 30.6973 112.025 30.0762 112.799 28.834C 113.584 27.5918 113.994 25.6348 114.029 22.9629L 114.029 17.6367ZM 122.221 14.6133L 120.375 13.3477C 121.465 11.8242 122.027 10.2188 122.062 8.53125L 122.062 6L 125.279 6L 125.279 8.28516C 125.268 9.45703 124.975 10.6289 124.4 11.8008C 123.838 12.9609 123.111 13.8984 122.221 14.6133ZM 127.617 14.6133L 125.771 13.3477C 126.861 11.8242 127.424 10.2188 127.459 8.53125L 127.459 6L 130.676 6L 130.676 8.28516C 130.664 9.45703 130.371 10.6289 129.797 11.8008C 129.234 12.9609 128.508 13.8984 127.617 14.6133Z"/>
<path id="path13_fill" d="M 4.88672 5.66602L 6.75 6.93164C 5.66016 8.41992 5.09766 10.0254 5.0625 11.748L 5.0625 14.1387L 1.82812 14.1387L 1.82812 12.0996C 1.82812 10.9043 2.10938 9.7207 2.67188 8.54883C 3.24609 7.37695 3.98438 6.41602 4.88672 5.66602ZM 10.4238 5.66602L 12.2871 6.93164C 11.1973 8.41992 10.6348 10.0254 10.5996 11.748L 10.5996 14.1387L 7.36523 14.1387L 7.36523 12.0996C 7.36523 10.9043 7.64648 9.7207 8.20898 8.54883C 8.7832 7.37695 9.52148 6.41602 10.4238 5.66602ZM 19.582 18.6211L 22.0254 18.6211C 23.5605 18.5977 24.7676 18.1934 25.6465 17.4082C 26.5254 16.623 26.9648 15.5625 26.9648 14.2266C 26.9648 11.2266 25.4707 9.72656 22.4824 9.72656C 21.0762 9.72656 19.9512 10.1309 19.1074 10.9395C 18.2754 11.7363 17.8594 12.7969 17.8594 14.1211L 14.6074 14.1211C 14.6074 12.0938 15.3457 10.4121 16.8223 9.07617C 18.3105 7.72852 20.1973 7.05469 22.4824 7.05469C 24.8965 7.05469 26.7891 7.69336 28.1602 8.9707C 29.5312 10.248 30.2168 12.0234 30.2168 14.2969C 30.2168 15.4102 29.8535 16.4883 29.127 17.5312C 28.4121 18.5742 27.4336 19.3535 26.1914 19.8691C 27.5977 20.3145 28.6816 21.0527 29.4434 22.084C 30.2168 23.1152 30.6035 24.375 30.6035 25.8633C 30.6035 28.1602 29.8535 29.9824 28.3535 31.3301C 26.8535 32.6777 24.9023 33.3516 22.5 33.3516C 20.0977 33.3516 18.1406 32.7012 16.6289 31.4004C 15.1289 30.0996 14.3789 28.3828 14.3789 26.25L 17.6484 26.25C 17.6484 27.5977 18.0879 28.6758 18.9668 29.4844C 19.8457 30.293 21.0234 30.6973 22.5 30.6973C 24.0703 30.6973 25.2715 30.2871 26.1035 29.4668C 26.9355 28.6465 27.3516 27.4688 27.3516 25.9336C 27.3516 24.4453 26.8945 23.3027 25.9805 22.5059C 25.0664 21.709 23.748 21.2988 22.0254 21.2754L 19.582 21.2754L 19.582 18.6211ZM 49.1133 35.6543L 33.0117 35.6543L 33.0117 33L 49.1133 33L 49.1133 35.6543ZM 68.0801 33L 51.3105 33L 51.3105 30.6621L 60.1699 20.8184C 61.4824 19.3301 62.3848 18.123 62.877 17.1973C 63.3809 16.2598 63.6328 15.293 63.6328 14.2969C 63.6328 12.9609 63.2285 11.8652 62.4199 11.0098C 61.6113 10.1543 60.5332 9.72656 59.1855 9.72656C 57.5684 9.72656 56.3086 10.1895 55.4062 11.1152C 54.5156 12.0293 54.0703 13.3066 54.0703 14.9473L 50.8184 14.9473C 50.8184 12.5918 51.5742 10.6875 53.0859 9.23438C 54.6094 7.78125 56.6426 7.05469 59.1855 7.05469C 61.5645 7.05469 63.4453 7.68164 64.8281 8.93555C 66.2109 10.1777 66.9023 11.8359 66.9023 13.9102C 66.9023 16.4297 65.2969 19.4297 62.0859 22.9102L 55.2305 30.3457L 68.0801 30.3457L 68.0801 33ZM 71.9297 31.2949C 71.9297 30.7324 72.0938 30.2637 72.4219 29.8887C 72.7617 29.5137 73.2656 29.3262 73.9336 29.3262C 74.6016 29.3262 75.1055 29.5137 75.4453 29.8887C 75.7969 30.2637 75.9727 30.7324 75.9727 31.2949C 75.9727 31.834 75.7969 32.2852 75.4453 32.6484C 75.1055 33.0117 74.6016 33.1934 73.9336 33.1934C 73.2656 33.1934 72.7617 33.0117 72.4219 32.6484C 72.0938 32.2852 71.9297 31.834 71.9297 31.2949ZM 85.7461 18.6211L 88.1895 18.6211C 89.7246 18.5977 90.9316 18.1934 91.8105 17.4082C 92.6895 16.623 93.1289 15.5625 93.1289 14.2266C 93.1289 11.2266 91.6348 9.72656 88.6465 9.72656C 87.2402 9.72656 86.1152 10.1309 85.2715 10.9395C 84.4395 11.7363 84.0234 12.7969 84.0234 14.1211L 80.7715 14.1211C 80.7715 12.0938 81.5098 10.4121 82.9863 9.07617C 84.4746 7.72852 86.3613 7.05469 88.6465 7.05469C 91.0605 7.05469 92.9531 7.69336 94.3242 8.9707C 95.6953 10.248 96.3809 12.0234 96.3809 14.2969C 96.3809 15.4102 96.0176 16.4883 95.291 17.5312C 94.5762 18.5742 93.5977 19.3535 92.3555 19.8691C 93.7617 20.3145 94.8457 21.0527 95.6074 22.084C 96.3809 23.1152 96.7676 24.375 96.7676 25.8633C 96.7676 28.1602 96.0176 29.9824 94.5176 31.3301C 93.0176 32.6777 91.0664 33.3516 88.6641 33.3516C 86.2617 33.3516 84.3047 32.7012 82.793 31.4004C 81.293 30.0996 80.543 28.3828 80.543 26.25L 83.8125 26.25C 83.8125 27.5977 84.252 28.6758 85.1309 29.4844C 86.0098 30.293 87.1875 30.6973 88.6641 30.6973C 90.2344 30.6973 91.4355 30.2871 92.2676 29.4668C 93.0996 28.6465 93.5156 27.4688 93.5156 25.9336C 93.5156 24.4453 93.0586 23.3027 92.1445 22.5059C 91.2305 21.709 89.9121 21.2988 88.1895 21.2754L 85.7461 21.2754L 85.7461 18.6211ZM 117.281 22.084C 117.281 25.8926 116.631 28.7227 115.33 30.5742C 114.029 32.4258 111.996 33.3516 109.23 33.3516C 106.5 33.3516 104.479 32.4492 103.166 30.6445C 101.854 28.8281 101.174 26.1211 101.127 22.5234L 101.127 18.1816C 101.127 14.4199 101.777 11.625 103.078 9.79688C 104.379 7.96875 106.418 7.05469 109.195 7.05469C 111.949 7.05469 113.977 7.93945 115.277 9.70898C 116.578 11.4668 117.246 14.1855 117.281 17.8652L 117.281 22.084ZM 114.029 17.6367C 114.029 14.8828 113.643 12.8789 112.869 11.625C 112.096 10.3594 110.871 9.72656 109.195 9.72656C 107.531 9.72656 106.318 10.3535 105.557 11.6074C 104.795 12.8613 104.402 14.7891 104.379 17.3906L 104.379 22.5938C 104.379 25.3594 104.777 27.4043 105.574 28.7285C 106.383 30.041 107.602 30.6973 109.23 30.6973C 110.836 30.6973 112.025 30.0762 112.799 28.834C 113.584 27.5918 113.994 25.6348 114.029 22.9629L 114.029 17.6367ZM 122.221 14.6133L 120.375 13.3477C 121.465 11.8242 122.027 10.2188 122.062 8.53125L 122.062 6L 125.279 6L 125.279 8.28516C 125.268 9.45703 124.975 10.6289 124.4 11.8008C 123.838 12.9609 123.111 13.8984 122.221 14.6133ZM 127.617 14.6133L 125.771 13.3477C 126.861 11.8242 127.424 10.2188 127.459 8.53125L 127.459 6L 130.676 6L 130.676 8.28516C 130.664 9.45703 130.371 10.6289 129.797 11.8008C 129.234 12.9609 128.508 13.8984 127.617 14.6133Z"/>
<path id="path14_fill" d="M 4.88672 5.66602L 6.75 6.93164C 5.66016 8.41992 5.09766 10.0254 5.0625 11.748L 5.0625 14.1387L 1.82812 14.1387L 1.82812 12.0996C 1.82812 10.9043 2.10938 9.7207 2.67188 8.54883C 3.24609 7.37695 3.98438 6.41602 4.88672 5.66602ZM 10.4238 5.66602L 12.2871 6.93164C 11.1973 8.41992 10.6348 10.0254 10.5996 11.748L 10.5996 14.1387L 7.36523 14.1387L 7.36523 12.0996C 7.36523 10.9043 7.64648 9.7207 8.20898 8.54883C 8.7832 7.37695 9.52148 6.41602 10.4238 5.66602ZM 28.582 24.4043L 32.1328 24.4043L 32.1328 27.0586L 28.582 27.0586L 28.582 33L 25.3125 33L 25.3125 27.0586L 13.6582 27.0586L 13.6582 25.1426L 25.1191 7.40625L 28.582 7.40625L 28.582 24.4043ZM 17.3496 24.4043L 25.3125 24.4043L 25.3125 11.8535L 24.9258 12.5566L 17.3496 24.4043ZM 49.1133 35.6543L 33.0117 35.6543L 33.0117 33L 49.1133 33L 49.1133 35.6543ZM 66.832 14.0859C 66.832 15.3633 66.4922 16.5 65.8125 17.4961C 65.1445 18.4922 64.2363 19.2715 63.0879 19.834C 64.4238 20.4082 65.4785 21.2461 66.252 22.3477C 67.0371 23.4492 67.4297 24.6973 67.4297 26.0918C 67.4297 28.3066 66.6797 30.0703 65.1797 31.3828C 63.6914 32.6953 61.7285 33.3516 59.291 33.3516C 56.8301 33.3516 54.8555 32.6953 53.3672 31.3828C 51.8906 30.0586 51.1523 28.2949 51.1523 26.0918C 51.1523 24.709 51.5273 23.4609 52.2773 22.3477C 53.0391 21.2344 54.0879 20.3906 55.4238 19.8164C 54.2871 19.2539 53.3906 18.4746 52.7344 17.4785C 52.0781 16.4824 51.75 15.3516 51.75 14.0859C 51.75 11.9297 52.4414 10.2188 53.8242 8.95312C 55.207 7.6875 57.0293 7.05469 59.291 7.05469C 61.541 7.05469 63.3574 7.6875 64.7402 8.95312C 66.1348 10.2188 66.832 11.9297 66.832 14.0859ZM 64.1777 26.0215C 64.1777 24.5918 63.7207 23.4258 62.8066 22.5234C 61.9043 21.6211 60.7207 21.1699 59.2559 21.1699C 57.791 21.1699 56.6133 21.6152 55.7227 22.5059C 54.8438 23.3965 54.4043 24.5684 54.4043 26.0215C 54.4043 27.4746 54.832 28.6172 55.6875 29.4492C 56.5547 30.2812 57.7559 30.6973 59.291 30.6973C 60.8145 30.6973 62.0098 30.2812 62.877 29.4492C 63.7441 28.6055 64.1777 27.4629 64.1777 26.0215ZM 59.291 9.72656C 58.0137 9.72656 56.9766 10.125 56.1797 10.9219C 55.3945 11.707 55.002 12.7793 55.002 14.1387C 55.002 15.4395 55.3887 16.4941 56.1621 17.3027C 56.9473 18.0996 57.9902 18.498 59.291 18.498C 60.5918 18.498 61.6289 18.0996 62.4023 17.3027C 63.1875 16.4941 63.5801 15.4395 63.5801 14.1387C 63.5801 12.8379 63.1758 11.7773 62.3672 10.957C 61.5586 10.1367 60.5332 9.72656 59.291 9.72656ZM 82.2129 33L 78.9434 33L 78.9434 11.3262L 72.3867 13.7344L 72.3867 10.7812L 81.7031 7.2832L 82.2129 7.2832L 82.2129 33ZM 92.1445 31.2949C 92.1445 30.7324 92.3086 30.2637 92.6367 29.8887C 92.9766 29.5137 93.4805 29.3262 94.1484 29.3262C 94.8164 29.3262 95.3203 29.5137 95.6602 29.8887C 96.0117 30.2637 96.1875 30.7324 96.1875 31.2949C 96.1875 31.834 96.0117 32.2852 95.6602 32.6484C 95.3203 33.0117 94.8164 33.1934 94.1484 33.1934C 93.4805 33.1934 92.9766 33.0117 92.6367 32.6484C 92.3086 32.2852 92.1445 31.834 92.1445 31.2949ZM 118.002 33L 101.232 33L 101.232 30.6621L 110.092 20.8184C 111.404 19.3301 112.307 18.123 112.799 17.1973C 113.303 16.2598 113.555 15.293 113.555 14.2969C 113.555 12.9609 113.15 11.8652 112.342 11.0098C 111.533 10.1543 110.455 9.72656 109.107 9.72656C 107.49 9.72656 106.23 10.1895 105.328 11.1152C 104.438 12.0293 103.992 13.3066 103.992 14.9473L 100.74 14.9473C 100.74 12.5918 101.496 10.6875 103.008 9.23438C 104.531 7.78125 106.564 7.05469 109.107 7.05469C 111.486 7.05469 113.367 7.68164 114.75 8.93555C 116.133 10.1777 116.824 11.8359 116.824 13.9102C 116.824 16.4297 115.219 19.4297 112.008 22.9102L 105.152 30.3457L 118.002 30.3457L 118.002 33ZM 137.496 22.084C 137.496 25.8926 136.846 28.7227 135.545 30.5742C 134.244 32.4258 132.211 33.3516 129.445 33.3516C 126.715 33.3516 124.693 32.4492 123.381 30.6445C 122.068 28.8281 121.389 26.1211 121.342 22.5234L 121.342 18.1816C 121.342 14.4199 121.992 11.625 123.293 9.79688C 124.594 7.96875 126.633 7.05469 129.41 7.05469C 132.164 7.05469 134.191 7.93945 135.492 9.70898C 136.793 11.4668 137.461 14.1855 137.496 17.8652L 137.496 22.084ZM 134.244 17.6367C 134.244 14.8828 133.857 12.8789 133.084 11.625C 132.311 10.3594 131.086 9.72656 129.41 9.72656C 127.746 9.72656 126.533 10.3535 125.771 11.6074C 125.01 12.8613 124.617 14.7891 124.594 17.3906L 124.594 22.5938C 124.594 25.3594 124.992 27.4043 125.789 28.7285C 126.598 30.041 127.816 30.6973 129.445 30.6973C 131.051 30.6973 132.24 30.0762 133.014 28.834C 133.799 27.5918 134.209 25.6348 134.244 22.9629L 134.244 17.6367ZM 142.436 14.6133L 140.59 13.3477C 141.68 11.8242 142.242 10.2188 142.277 8.53125L 142.277 6L 145.494 6L 145.494 8.28516C 145.482 9.45703 145.189 10.6289 144.615 11.8008C 144.053 12.9609 143.326 13.8984 142.436 14.6133ZM 147.832 14.6133L 145.986 13.3477C 147.076 11.8242 147.639 10.2188 147.674 8.53125L 147.674 6L 150.891 6L 150.891 8.28516C 150.879 9.45703 150.586 10.6289 150.012 11.8008C 149.449 12.9609 148.723 13.8984 147.832 14.6133Z"/>
</defs>
</svg>
