<svg width="700" height="1474" viewBox="0 0 700 1474" version="1.1" xmlns="http://www.w3.org/2000/svg" xmlns:xlink="http://www.w3.org/1999/xlink" xmlns:figma="http://www.figma.com/figma/ns">
<title>array_swaps</title>
<desc>Created using Figma</desc>
<g id="Canvas" transform="translate(790 329)" figma:type="canvas">
<g id="Rectangle" figma:type="rounded-rectangle">
<use xlink:href="#path0_fill" transform="translate(-590 -251)" fill="#C4C4C4"/>
</g>
<g id="1" figma:type="text">
<use xlink:href="#path1_fill" transform="translate(-550 -222)"/>
</g>
<g id="Rectangle" figma:type="rounded-rectangle">
<use xlink:href="#path0_fill" transform="translate(-490 -251)" fill="#6FCF97"/>
</g>
<g id="2" figma:type="text">
<use xlink:href="#path2_fill" transform="translate(-450 -222)" fill="#F2F2F2"/>
</g>
<g id="Rectangle" figma:type="rounded-rectangle">
<use xlink:href="#path0_fill" transform="translate(-390 -251)" fill="#C4C4C4"/>
</g>
<g id="3" figma:type="text">
<use xlink:href="#path3_fill" transform="translate(-350 -222)"/>
</g>
<g id="Rectangle" figma:type="rounded-rectangle">
<use xlink:href="#path0_fill" transform="translate(-290 -251)" fill="#C4C4C4"/>
</g>
<g id="4" figma:type="text">
<use xlink:href="#path4_fill" transform="translate(-250 -222)"/>
</g>
<g id="Rectangle" figma:type="rounded-rectangle">
<use xlink:href="#path0_fill" transform="translate(-190 -251)" fill="#6FCF97"/>
</g>
<g id="5" figma:type="text">
<use xlink:href="#path5_fill" transform="translate(-150 -222)" fill="#F2F2F2"/>
</g>
<g id="Rectangle" figma:type="rounded-rectangle">
<use xlink:href="#path0_fill" transform="translate(-590 27)" fill="#C4C4C4"/>
</g>
<g id="1" figma:type="text">
<use xlink:href="#path1_fill" transform="translate(-550 56)"/>
</g>
<g id="Rectangle" figma:type="rounded-rectangle">
<use xlink:href="#path0_fill" transform="translate(-490 27)" fill="#EB5757"/>
</g>
<g id="2" figma:type="text">
<use xlink:href="#path2_fill" transform="translate(-450 56)" fill="#F2F2F2"/>
</g>
<g id="Rectangle" figma:type="rounded-rectangle">
<use xlink:href="#path0_fill" transform="translate(-790 27)" fill="#6FCF97"/>
</g>
<g id="2" figma:type="text">
<use xlink:href="#path2_fill" transform="translate(-750 56)" fill="#F2F2F2"/>
</g>
<g id="Rectangle" figma:type="rounded-rectangle">
<use xlink:href="#path0_fill" transform="translate(-779 333)" fill="#C4C4C4"/>
</g>
<g id="2" figma:type="text">
<use xlink:href="#path6_fill" transform="translate(-739 362)" fill="#333333"/>
</g>
<g id="Rectangle" figma:type="rounded-rectangle">
<use xlink:href="#path0_fill" transform="translate(-769 678)" fill="#EB5757"/>
</g>
<g id="2" figma:type="text">
<use xlink:href="#path2_fill" transform="translate(-729 707)" fill="#F2F2F2"/>
</g>
<g id="Line" figma:type="line">
<use xlink:href="#path7_stroke" transform="matrix(6.12323e-17 1 -1 6.12323e-17 -440 143)" fill="#EB5757"/>
</g>
<g id="Line 2" figma:type="line">
<use xlink:href="#path8_stroke" transform="matrix(-1 1.22465e-16 -1.22465e-16 -1 -440 180)" fill="#EB5757"/>
</g>
<g id="Arrow 2" figma:type="vector">
<use xlink:href="#path9_stroke" transform="matrix(6.12323e-17 -1 1 6.12323e-17 -729 180)" fill="#EB5757"/>
</g>
<g id="Rectangle" figma:type="rounded-rectangle">
<use xlink:href="#path0_fill" transform="translate(-390 27)" fill="#C4C4C4"/>
</g>
<g id="3" figma:type="text">
<use xlink:href="#path3_fill" transform="translate(-350 56)"/>
</g>
<g id="Rectangle" figma:type="rounded-rectangle">
<use xlink:href="#path0_fill" transform="translate(-290 27)" fill="#C4C4C4"/>
</g>
<g id="4" figma:type="text">
<use xlink:href="#path4_fill" transform="translate(-250 56)"/>
</g>
<g id="Rectangle" figma:type="rounded-rectangle">
<use xlink:href="#path0_fill" transform="translate(-190 27)" fill="#C4C4C4"/>
</g>
<g id="5" figma:type="text">
<use xlink:href="#path10_fill" transform="translate(-150 56)" fill="#333333"/>
</g>
<g id="Swap elements 2 and 5" figma:type="text">
<use xlink:href="#path11_fill" transform="translate(-536 -335)"/>
</g>
<g id="Arrow" figma:type="vector">
<use xlink:href="#path12_stroke" transform="matrix(6.12323e-17 1 -1 6.12323e-17 -340 -135)"/>
</g>
<g id="Copy 2 to another location" figma:type="text">
<use xlink:href="#path13_fill" transform="translate(-540 -36)" fill="#EB5757"/>
</g>
<g id="Rectangle" figma:type="rounded-rectangle">
<use xlink:href="#path0_fill" transform="translate(-590 333)" fill="#C4C4C4"/>
</g>
<g id="1" figma:type="text">
<use xlink:href="#path1_fill" transform="translate(-550 362)"/>
</g>
<g id="Rectangle" figma:type="rounded-rectangle">
<use xlink:href="#path0_fill" transform="translate(-490 333)" fill="#6FCF97"/>
</g>
<g id="5" figma:type="text">
<use xlink:href="#path5_fill" transform="translate(-450 362)" fill="#F2F2F2"/>
</g>
<g id="Rectangle" figma:type="rounded-rectangle">
<use xlink:href="#path0_fill" transform="translate(-390 333)" fill="#C4C4C4"/>
</g>
<g id="3" figma:type="text">
<use xlink:href="#path3_fill" transform="translate(-350 362)"/>
</g>
<g id="Rectangle" figma:type="rounded-rectangle">
<use xlink:href="#path0_fill" transform="translate(-290 333)" fill="#C4C4C4"/>
</g>
<g id="4" figma:type="text">
<use xlink:href="#path4_fill" transform="translate(-250 362)"/>
</g>
<g id="Rectangle" figma:type="rounded-rectangle">
<use xlink:href="#path0_fill" transform="translate(-190 333)" fill="#EB5757"/>
</g>
<g id="5" figma:type="text">
<use xlink:href="#path5_fill" transform="translate(-150 362)" fill="#F2F2F2"/>
</g>
<g id="Arrow" figma:type="vector">
<use xlink:href="#path12_stroke" transform="matrix(6.12323e-17 1 -1 6.12323e-17 -340 171)"/>
</g>
<g id="Replace 2 with 5" figma:type="text">
<use xlink:href="#path14_fill" transform="translate(-481 270)" fill="#EB5757"/>
</g>
<g id="Line 3" figma:type="line">
<use xlink:href="#path15_stroke" transform="matrix(6.12323e-17 1 -1 6.12323e-17 -150 450)" fill="#EB5757"/>
</g>
<g id="Line 4" figma:type="line">
<use xlink:href="#path16_stroke" transform="matrix(-1 1.22465e-16 -1.22465e-16 -1 -150 496)" fill="#EB5757"/>
</g>
<g id="Arrow 3" figma:type="vector">
<use xlink:href="#path17_stroke" transform="matrix(6.12323e-17 -1 1 6.12323e-17 -450 496)" fill="#EB5757"/>
</g>
<g id="Rectangle" figma:type="rounded-rectangle">
<use xlink:href="#path0_fill" transform="translate(-590 678)" fill="#C4C4C4"/>
</g>
<g id="1" figma:type="text">
<use xlink:href="#path1_fill" transform="translate(-550 707)"/>
</g>
<g id="Rectangle" figma:type="rounded-rectangle">
<use xlink:href="#path0_fill" transform="translate(-490 678)" fill="#C4C4C4"/>
</g>
<g id="5" figma:type="text">
<use xlink:href="#path10_fill" transform="translate(-450 707)" fill="#333333"/>
</g>
<g id="Rectangle" figma:type="rounded-rectangle">
<use xlink:href="#path0_fill" transform="translate(-390 678)" fill="#C4C4C4"/>
</g>
<g id="3" figma:type="text">
<use xlink:href="#path3_fill" transform="translate(-350 707)"/>
</g>
<g id="Rectangle" figma:type="rounded-rectangle">
<use xlink:href="#path0_fill" transform="translate(-290 678)" fill="#C4C4C4"/>
</g>
<g id="4" figma:type="text">
<use xlink:href="#path4_fill" transform="translate(-250 707)"/>
</g>
<g id="Rectangle" figma:type="rounded-rectangle">
<use xlink:href="#path0_fill" transform="translate(-190 678)" fill="#6FCF97"/>
</g>
<g id="2" figma:type="text">
<use xlink:href="#path2_fill" transform="translate(-150 707)" fill="#F2F2F2"/>
</g>
<g id="Arrow" figma:type="vector">
<use xlink:href="#path12_stroke" transform="matrix(6.12323e-17 1 -1 6.12323e-17 -340 516)"/>
</g>
<g id="Replace 5 with 2" figma:type="text">
<use xlink:href="#path18_fill" transform="translate(-481 615)" fill="#EB5757"/>
</g>
<g id="Rectangle" figma:type="rounded-rectangle">
<use xlink:href="#path0_fill" transform="translate(-590 1045)" fill="#C4C4C4"/>
</g>
<g id="1" figma:type="text">
<use xlink:href="#path1_fill" transform="translate(-550 1074)"/>
</g>
<g id="Rectangle" figma:type="rounded-rectangle">
<use xlink:href="#path0_fill" transform="translate(-490 1045)" fill="#6FCF97"/>
</g>
<g id="5" figma:type="text">
<use xlink:href="#path5_fill" transform="translate(-450 1074)" fill="#F2F2F2"/>
</g>
<g id="Rectangle" figma:type="rounded-rectangle">
<use xlink:href="#path0_fill" transform="translate(-390 1045)" fill="#C4C4C4"/>
</g>
<g id="3" figma:type="text">
<use xlink:href="#path3_fill" transform="translate(-350 1074)"/>
</g>
<g id="Rectangle" figma:type="rounded-rectangle">
<use xlink:href="#path0_fill" transform="translate(-290 1045)" fill="#C4C4C4"/>
</g>
<g id="4" figma:type="text">
<use xlink:href="#path4_fill" transform="translate(-250 1074)"/>
</g>
<g id="Rectangle" figma:type="rounded-rectangle">
<use xlink:href="#path0_fill" transform="translate(-190 1045)" fill="#6FCF97"/>
</g>
<g id="2" figma:type="text">
<use xlink:href="#path2_fill" transform="translate(-150 1074)" fill="#F2F2F2"/>
</g>
<g id="Arrow" figma:type="vector">
<use xlink:href="#path12_stroke" transform="matrix(6.12323e-17 1 -1 6.12323e-17 -340 883)"/>
</g>
<g id="Swap Done!" figma:type="text">
<use xlink:href="#path19_fill" transform="translate(-424 984)"/>
</g>
<g id="Line 5" figma:type="line">
<use xlink:href="#path20_stroke" transform="matrix(6.12323e-17 1 -1 6.12323e-17 -719 796)" fill="#EB5757"/>
</g>
<g id="Line 6" figma:type="line">
<use xlink:href="#path21_stroke" transform="translate(-719 850)" fill="#EB5757"/>
</g>
<g id="Arrow 4" figma:type="vector">
<use xlink:href="#path22_stroke" transform="matrix(6.12323e-17 -1 1 6.12323e-17 -140 850)" fill="#EB5757"/>
</g>
</g>
<defs>
<path id="path0_fill" d="M 0 0L 100 0L 100 100L 0 100L 0 0Z"/>
<path id="path1_fill" d="M 12.8145 33L 9.54492 33L 9.54492 11.3262L 2.98828 13.7344L 2.98828 10.7812L 12.3047 7.2832L 12.8145 7.2832L 12.8145 33Z"/>
<path id="path2_fill" d="M 18.8965 33L 2.12695 33L 2.12695 30.6621L 10.9863 20.8184C 12.2988 19.3301 13.2012 18.123 13.6934 17.1973C 14.1973 16.2598 14.4492 15.293 14.4492 14.2969C 14.4492 12.9609 14.0449 11.8652 13.2363 11.0098C 12.4277 10.1543 11.3496 9.72656 10.002 9.72656C 8.38477 9.72656 7.125 10.1895 6.22266 11.1152C 5.33203 12.0293 4.88672 13.3066 4.88672 14.9473L 1.63477 14.9473C 1.63477 12.5918 2.39062 10.6875 3.90234 9.23438C 5.42578 7.78125 7.45898 7.05469 10.002 7.05469C 12.3809 7.05469 14.2617 7.68164 15.6445 8.93555C 17.0273 10.1777 17.7188 11.8359 17.7188 13.9102C 17.7188 16.4297 16.1133 19.4297 12.9023 22.9102L 6.04688 30.3457L 18.8965 30.3457L 18.8965 33Z"/>
<path id="path3_fill" d="M 6.85547 18.6211L 9.29883 18.6211C 10.834 18.5977 12.041 18.1934 12.9199 17.4082C 13.7988 16.623 14.2383 15.5625 14.2383 14.2266C 14.2383 11.2266 12.7441 9.72656 9.75586 9.72656C 8.34961 9.72656 7.22461 10.1309 6.38086 10.9395C 5.54883 11.7363 5.13281 12.7969 5.13281 14.1211L 1.88086 14.1211C 1.88086 12.0937 2.61914 10.4121 4.0957 9.07617C 5.58398 7.72852 7.4707 7.05469 9.75586 7.05469C 12.1699 7.05469 14.0625 7.69336 15.4336 8.9707C 16.8047 10.248 17.4902 12.0234 17.4902 14.2969C 17.4902 15.4102 17.127 16.4883 16.4004 17.5312C 15.6855 18.5742 14.707 19.3535 13.4648 19.8691C 14.8711 20.3145 15.9551 21.0527 16.7168 22.084C 17.4902 23.1152 17.877 24.375 17.877 25.8633C 17.877 28.1602 17.127 29.9824 15.627 31.3301C 14.127 32.6777 12.1758 33.3516 9.77344 33.3516C 7.37109 33.3516 5.41406 32.7012 3.90234 31.4004C 2.40234 30.0996 1.65234 28.3828 1.65234 26.25L 4.92188 26.25C 4.92188 27.5977 5.36133 28.6758 6.24023 29.4844C 7.11914 30.293 8.29688 30.6973 9.77344 30.6973C 11.3437 30.6973 12.5449 30.2871 13.377 29.4668C 14.209 28.6465 14.625 27.4688 14.625 25.9336C 14.625 24.4453 14.168 23.3027 13.2539 22.5059C 12.3398 21.709 11.0215 21.2988 9.29883 21.2754L 6.85547 21.2754L 6.85547 18.6211Z"/>
<path id="path4_fill" d="M 15.8555 24.4043L 19.4062 24.4043L 19.4062 27.0586L 15.8555 27.0586L 15.8555 33L 12.5859 33L 12.5859 27.0586L 0.931641 27.0586L 0.931641 25.1426L 12.3926 7.40625L 15.8555 7.40625L 15.8555 24.4043ZM 4.62305 24.4043L 12.5859 24.4043L 12.5859 11.8535L 12.1992 12.5566L 4.62305 24.4043Z"/>
<path id="path5_fill" d="M 3.62109 20.168L 4.92188 7.40625L 18.0352 7.40625L 18.0352 10.4121L 7.68164 10.4121L 6.9082 17.3906C 8.16211 16.6523 9.58594 16.2832 11.1797 16.2832C 13.5117 16.2832 15.3633 17.0566 16.7344 18.6035C 18.1055 20.1387 18.791 22.2188 18.791 24.8438C 18.791 27.4805 18.0762 29.5605 16.6465 31.084C 15.2285 32.5957 13.2422 33.3516 10.6875 33.3516C 8.42578 33.3516 6.58008 32.7246 5.15039 31.4707C 3.7207 30.2168 2.90625 28.4824 2.70703 26.2676L 5.7832 26.2676C 5.98242 27.7324 6.50391 28.8398 7.34766 29.5898C 8.19141 30.3281 9.30469 30.6973 10.6875 30.6973C 12.1992 30.6973 13.3828 30.1816 14.2383 29.1504C 15.1055 28.1191 15.5391 26.6953 15.5391 24.8789C 15.5391 23.168 15.0703 21.7969 14.1328 20.7656C 13.207 19.7227 11.9707 19.2012 10.4238 19.2012C 9.00586 19.2012 7.89258 19.5117 7.08398 20.1328L 6.22266 20.8359L 3.62109 20.168Z"/>
<path id="path6_fill" d="M 18.8965 33L 2.12695 33L 2.12695 30.6621L 10.9863 20.8184C 12.2988 19.3301 13.2012 18.123 13.6934 17.1973C 14.1973 16.2598 14.4492 15.293 14.4492 14.2969C 14.4492 12.9609 14.0449 11.8652 13.2363 11.0098C 12.4277 10.1543 11.3496 9.72656 10.002 9.72656C 8.38477 9.72656 7.125 10.1895 6.22266 11.1152C 5.33203 12.0293 4.88672 13.3066 4.88672 14.9473L 1.63477 14.9473C 1.63477 12.5918 2.39062 10.6875 3.90234 9.23438C 5.42578 7.78125 7.45898 7.05469 10.002 7.05469C 12.3809 7.05469 14.2617 7.68164 15.6445 8.93555C 17.0273 10.1777 17.7188 11.8359 17.7188 13.9102C 17.7188 16.4297 16.1133 19.4297 12.9023 22.9102L 6.04688 30.3457L 18.8965 30.3457L 18.8965 33Z"/>
<path id="path7_stroke" d="M 0 0L 37 0L 37 -3L 0 -3L 0 0Z"/>
<path id="path8_stroke" d="M 0 0L 289 0L 289 -3L 0 -3L 0 0Z"/>
<path id="path9_stroke" d="M 38.0607 1.06066C 38.6464 0.474874 38.6464 -0.474874 38.0607 -1.06066L 28.5147 -10.6066C 27.9289 -11.1924 26.9792 -11.1924 26.3934 -10.6066C 25.8076 -10.0208 25.8076 -9.07107 26.3934 -8.48528L 34.8787 0L 26.3934 8.48528C 25.8076 9.07107 25.8076 10.0208 26.3934 10.6066C 26.9792 11.1924 27.9289 11.1924 28.5147 10.6066L 38.0607 1.06066ZM 0 1.5L 37 1.5L 37 -1.5L 0 -1.5L 0 1.5Z"/>
<path id="path10_fill" d="M 3.62109 20.168L 4.92188 7.40625L 18.0352 7.40625L 18.0352 10.4121L 7.68164 10.4121L 6.9082 17.3906C 8.16211 16.6523 9.58594 16.2832 11.1797 16.2832C 13.5117 16.2832 15.3633 17.0566 16.7344 18.6035C 18.1055 20.1387 18.791 22.2188 18.791 24.8438C 18.791 27.4805 18.0762 29.5605 16.6465 31.084C 15.2285 32.5957 13.2422 33.3516 10.6875 33.3516C 8.42578 33.3516 6.58008 32.7246 5.15039 31.4707C 3.7207 30.2168 2.90625 28.4824 2.70703 26.2676L 5.7832 26.2676C 5.98242 27.7324 6.50391 28.8398 7.34766 29.5898C 8.19141 30.3281 9.30469 30.6973 10.6875 30.6973C 12.1992 30.6973 13.3828 30.1816 14.2383 29.1504C 15.1055 28.1191 15.5391 26.6953 15.5391 24.8789C 15.5391 23.168 15.0703 21.7969 14.1328 20.7656C 13.207 19.7227 11.9707 19.2012 10.4238 19.2012C 9.00586 19.2012 7.89258 19.5117 7.08398 20.1328L 6.22266 20.8359L 3.62109 20.168Z"/>
<path id="path11_fill" d="M 10.5117 21.5918C 7.61719 20.7598 5.50781 19.7402 4.18359 18.5332C 2.87109 17.3145 2.21484 15.8145 2.21484 14.0332C 2.21484 12.0176 3.01758 10.3535 4.62305 9.04102C 6.24023 7.7168 8.33789 7.05469 10.916 7.05469C 12.6738 7.05469 14.2383 7.39453 15.6094 8.07422C 16.9922 8.75391 18.0586 9.69141 18.8086 10.8867C 19.5703 12.082 19.9512 13.3887 19.9512 14.8066L 16.5586 14.8066C 16.5586 13.2598 16.0664 12.0469 15.082 11.168C 14.0977 10.2773 12.709 9.83203 10.916 9.83203C 9.25195 9.83203 7.95117 10.2012 7.01367 10.9395C 6.08789 11.666 5.625 12.6797 5.625 13.9805C 5.625 15.0234 6.06445 15.9082 6.94336 16.6348C 7.83398 17.3496 9.33984 18.0059 11.4609 18.6035C 13.5937 19.2012 15.2578 19.8633 16.4531 20.5898C 17.6602 21.3047 18.5508 22.1426 19.125 23.1035C 19.7109 24.0645 20.0039 25.1953 20.0039 26.4961C 20.0039 28.5703 19.1953 30.2344 17.5781 31.4883C 15.9609 32.7305 13.7988 33.3516 11.0918 33.3516C 9.33398 33.3516 7.69336 33.0176 6.16992 32.3496C 4.64648 31.6699 3.46875 30.7441 2.63672 29.5723C 1.81641 28.4004 1.40625 27.0703 1.40625 25.582L 4.79883 25.582C 4.79883 27.1289 5.36719 28.3535 6.50391 29.2559C 7.65234 30.1465 9.18164 30.5918 11.0918 30.5918C 12.873 30.5918 14.2383 30.2285 15.1875 29.502C 16.1367 28.7754 16.6113 27.7852 16.6113 26.5312C 16.6113 25.2773 16.1719 24.3105 15.293 23.6309C 14.4141 22.9395 12.8203 22.2598 10.5117 21.5918ZM 40.6758 28.5176L 44.332 13.9805L 47.584 13.9805L 42.0469 33L 39.4102 33L 34.7871 18.5859L 30.2871 33L 27.6504 33L 22.1309 13.9805L 25.3652 13.9805L 29.1094 28.2188L 33.5391 13.9805L 36.1582 13.9805L 40.6758 28.5176ZM 62.6484 33C 62.4609 32.625 62.3086 31.957 62.1914 30.9961C 60.6797 32.5664 58.875 33.3516 56.7773 33.3516C 54.9023 33.3516 53.3613 32.8242 52.1543 31.7695C 50.959 30.7031 50.3613 29.3555 50.3613 27.7266C 50.3613 25.7461 51.1113 24.2109 52.6113 23.1211C 54.123 22.0195 56.2441 21.4688 58.9746 21.4688L 62.1387 21.4688L 62.1387 19.9746C 62.1387 18.8379 61.7988 17.9355 61.1191 17.2676C 60.4395 16.5879 59.4375 16.248 58.1133 16.248C 56.9531 16.248 55.9805 16.541 55.1953 17.127C 54.4102 17.7129 54.0176 18.4219 54.0176 19.2539L 50.748 19.2539C 50.748 18.3047 51.082 17.3906 51.75 16.5117C 52.4297 15.6211 53.3437 14.918 54.4922 14.4023C 55.6523 13.8867 56.9238 13.6289 58.3066 13.6289C 60.498 13.6289 62.2148 14.1797 63.457 15.2812C 64.6992 16.3711 65.3437 17.877 65.3906 19.7988L 65.3906 28.5527C 65.3906 30.2988 65.6133 31.6875 66.0586 32.7188L 66.0586 33L 62.6484 33ZM 57.252 30.5215C 58.2715 30.5215 59.2383 30.2578 60.1523 29.7305C 61.0664 29.2031 61.7285 28.5176 62.1387 27.6738L 62.1387 23.7715L 59.5898 23.7715C 55.6055 23.7715 53.6133 24.9375 53.6133 27.2695C 53.6133 28.2891 53.9531 29.0859 54.6328 29.6602C 55.3125 30.2344 56.1855 30.5215 57.252 30.5215ZM 86.5547 23.7012C 86.5547 26.5957 85.8926 28.9277 84.5684 30.6973C 83.2441 32.4668 81.4512 33.3516 79.1895 33.3516C 76.8809 33.3516 75.0645 32.6191 73.7402 31.1543L 73.7402 40.3125L 70.4883 40.3125L 70.4883 13.9805L 73.459 13.9805L 73.6172 16.0898C 74.9414 14.4492 76.7812 13.6289 79.1367 13.6289C 81.4219 13.6289 83.2266 14.4902 84.5508 16.2129C 85.8867 17.9355 86.5547 20.332 86.5547 23.4023L 86.5547 23.7012ZM 83.3027 23.332C 83.3027 21.1875 82.8457 19.4941 81.9316 18.252C 81.0176 17.0098 79.7637 16.3887 78.1699 16.3887C 76.2012 16.3887 74.7246 17.2617 73.7402 19.0078L 73.7402 28.0957C 74.7129 29.8301 76.2012 30.6973 78.2051 30.6973C 79.7637 30.6973 81 30.082 81.9141 28.8516C 82.8398 27.6094 83.3027 25.7695 83.3027 23.332ZM 107.525 33.3516C 104.947 33.3516 102.85 32.5078 101.232 30.8203C 99.6152 29.1211 98.8066 26.8535 98.8066 24.0176L 98.8066 23.4199C 98.8066 21.5332 99.1641 19.8516 99.8789 18.375C 100.605 16.8867 101.613 15.7266 102.902 14.8945C 104.203 14.0508 105.609 13.6289 107.121 13.6289C 109.594 13.6289 111.516 14.4434 112.887 16.0723C 114.258 17.7012 114.943 20.0332 114.943 23.0684L 114.943 24.4219L 102.059 24.4219C 102.105 26.2969 102.65 27.8145 103.693 28.9746C 104.748 30.123 106.084 30.6973 107.701 30.6973C 108.85 30.6973 109.822 30.4629 110.619 29.9941C 111.416 29.5254 112.113 28.9043 112.711 28.1309L 114.697 29.6777C 113.104 32.127 110.713 33.3516 107.525 33.3516ZM 107.121 16.3008C 105.809 16.3008 104.707 16.7812 103.816 17.7422C 102.926 18.6914 102.375 20.0273 102.164 21.75L 111.691 21.75L 111.691 21.5039C 111.598 19.8516 111.152 18.5742 110.355 17.6719C 109.559 16.7578 108.48 16.3008 107.121 16.3008ZM 122.256 33L 119.004 33L 119.004 6L 122.256 6L 122.256 33ZM 135.369 33.3516C 132.791 33.3516 130.693 32.5078 129.076 30.8203C 127.459 29.1211 126.65 26.8535 126.65 24.0176L 126.65 23.4199C 126.65 21.5332 127.008 19.8516 127.723 18.375C 128.449 16.8867 129.457 15.7266 130.746 14.8945C 132.047 14.0508 133.453 13.6289 134.965 13.6289C 137.438 13.6289 139.359 14.4434 140.73 16.0723C 142.102 17.7012 142.787 20.0332 142.787 23.0684L 142.787 24.4219L 129.902 24.4219C 129.949 26.2969 130.494 27.8145 131.537 28.9746C 132.592 30.123 133.928 30.6973 135.545 30.6973C 136.693 30.6973 137.666 30.4629 138.463 29.9941C 139.26 29.5254 139.957 28.9043 140.555 28.1309L 142.541 29.6777C 140.947 32.127 138.557 33.3516 135.369 33.3516ZM 134.965 16.3008C 133.652 16.3008 132.551 16.7812 131.66 17.7422C 130.77 18.6914 130.219 20.0273 130.008 21.75L 139.535 21.75L 139.535 21.5039C 139.441 19.8516 138.996 18.5742 138.199 17.6719C 137.402 16.7578 136.324 16.3008 134.965 16.3008ZM 149.625 13.9805L 149.713 16.0898C 151.107 14.4492 152.988 13.6289 155.355 13.6289C 158.016 13.6289 159.826 14.6484 160.787 16.6875C 161.42 15.7734 162.24 15.0352 163.248 14.4727C 164.268 13.9102 165.469 13.6289 166.852 13.6289C 171.023 13.6289 173.145 15.8379 173.215 20.2559L 173.215 33L 169.963 33L 169.963 20.4492C 169.963 19.0898 169.652 18.0762 169.031 17.4082C 168.41 16.7285 167.367 16.3887 165.902 16.3887C 164.695 16.3887 163.693 16.752 162.896 17.4785C 162.1 18.1934 161.637 19.1602 161.508 20.3789L 161.508 33L 158.238 33L 158.238 20.5371C 158.238 17.7715 156.885 16.3887 154.178 16.3887C 152.045 16.3887 150.586 17.2969 149.801 19.1133L 149.801 33L 146.549 33L 146.549 13.9805L 149.625 13.9805ZM 186.029 33.3516C 183.451 33.3516 181.354 32.5078 179.736 30.8203C 178.119 29.1211 177.311 26.8535 177.311 24.0176L 177.311 23.4199C 177.311 21.5332 177.668 19.8516 178.383 18.375C 179.109 16.8867 180.117 15.7266 181.406 14.8945C 182.707 14.0508 184.113 13.6289 185.625 13.6289C 188.098 13.6289 190.02 14.4434 191.391 16.0723C 192.762 17.7012 193.447 20.0332 193.447 23.0684L 193.447 24.4219L 180.562 24.4219C 180.609 26.2969 181.154 27.8145 182.197 28.9746C 183.252 30.123 184.588 30.6973 186.205 30.6973C 187.354 30.6973 188.326 30.4629 189.123 29.9941C 189.92 29.5254 190.617 28.9043 191.215 28.1309L 193.201 29.6777C 191.607 32.127 189.217 33.3516 186.029 33.3516ZM 185.625 16.3008C 184.313 16.3008 183.211 16.7812 182.32 17.7422C 181.43 18.6914 180.879 20.0273 180.668 21.75L 190.195 21.75L 190.195 21.5039C 190.102 19.8516 189.656 18.5742 188.859 17.6719C 188.063 16.7578 186.984 16.3008 185.625 16.3008ZM 200.303 13.9805L 200.408 16.3711C 201.861 14.543 203.76 13.6289 206.104 13.6289C 210.123 13.6289 212.15 15.8965 212.186 20.4316L 212.186 33L 208.934 33L 208.934 20.4141C 208.922 19.043 208.605 18.0293 207.984 17.373C 207.375 16.7168 206.42 16.3887 205.119 16.3887C 204.064 16.3887 203.139 16.6699 202.342 17.2324C 201.545 17.7949 200.924 18.5332 200.479 19.4473L 200.479 33L 197.227 33L 197.227 13.9805L 200.303 13.9805ZM 221.502 9.375L 221.502 13.9805L 225.053 13.9805L 225.053 16.4941L 221.502 16.4941L 221.502 28.2891C 221.502 29.0508 221.66 29.625 221.977 30.0117C 222.293 30.3867 222.832 30.5742 223.594 30.5742C 223.969 30.5742 224.484 30.5039 225.141 30.3633L 225.141 33C 224.285 33.2344 223.453 33.3516 222.645 33.3516C 221.191 33.3516 220.096 32.9121 219.357 32.0332C 218.619 31.1543 218.25 29.9062 218.25 28.2891L 218.25 16.4941L 214.787 16.4941L 214.787 13.9805L 218.25 13.9805L 218.25 9.375L 221.502 9.375ZM 239.941 27.9551C 239.941 27.0762 239.607 26.3965 238.939 25.916C 238.283 25.4238 237.129 25.002 235.477 24.6504C 233.836 24.2988 232.529 23.877 231.557 23.3848C 230.596 22.8926 229.881 22.3066 229.412 21.627C 228.955 20.9473 228.727 20.1387 228.727 19.2012C 228.727 17.6426 229.383 16.3242 230.695 15.2461C 232.02 14.168 233.707 13.6289 235.758 13.6289C 237.914 13.6289 239.66 14.1855 240.996 15.2988C 242.344 16.4121 243.018 17.8359 243.018 19.5703L 239.748 19.5703C 239.748 18.6797 239.367 17.9121 238.605 17.2676C 237.855 16.623 236.906 16.3008 235.758 16.3008C 234.574 16.3008 233.648 16.5586 232.98 17.0742C 232.312 17.5898 231.979 18.2637 231.979 19.0957C 231.979 19.8809 232.289 20.4727 232.91 20.8711C 233.531 21.2695 234.65 21.6504 236.268 22.0137C 237.896 22.377 239.215 22.8105 240.223 23.3145C 241.23 23.8184 241.975 24.4277 242.455 25.1426C 242.947 25.8457 243.193 26.707 243.193 27.7266C 243.193 29.4258 242.514 30.791 241.154 31.8223C 239.795 32.8418 238.031 33.3516 235.863 33.3516C 234.34 33.3516 232.992 33.082 231.82 32.543C 230.648 32.0039 229.729 31.2539 229.061 30.293C 228.404 29.3203 228.076 28.2715 228.076 27.1465L 231.328 27.1465C 231.387 28.2363 231.82 29.1035 232.629 29.748C 233.449 30.3809 234.527 30.6973 235.863 30.6973C 237.094 30.6973 238.078 30.4512 238.816 29.959C 239.566 29.4551 239.941 28.7871 239.941 27.9551ZM 272.795 33L 256.025 33L 256.025 30.6621L 264.885 20.8184C 266.197 19.3301 267.1 18.123 267.592 17.1973C 268.096 16.2598 268.348 15.293 268.348 14.2969C 268.348 12.9609 267.943 11.8652 267.135 11.0098C 266.326 10.1543 265.248 9.72656 263.9 9.72656C 262.283 9.72656 261.023 10.1895 260.121 11.1152C 259.23 12.0293 258.785 13.3066 258.785 14.9473L 255.533 14.9473C 255.533 12.5918 256.289 10.6875 257.801 9.23438C 259.324 7.78125 261.357 7.05469 263.9 7.05469C 266.279 7.05469 268.16 7.68164 269.543 8.93555C 270.926 10.1777 271.617 11.8359 271.617 13.9102C 271.617 16.4297 270.012 19.4297 266.801 22.9102L 259.945 30.3457L 272.795 30.3457L 272.795 33ZM 297.246 33C 297.059 32.625 296.906 31.957 296.789 30.9961C 295.277 32.5664 293.473 33.3516 291.375 33.3516C 289.5 33.3516 287.959 32.8242 286.752 31.7695C 285.557 30.7031 284.959 29.3555 284.959 27.7266C 284.959 25.7461 285.709 24.2109 287.209 23.1211C 288.721 22.0195 290.842 21.4688 293.572 21.4688L 296.736 21.4688L 296.736 19.9746C 296.736 18.8379 296.396 17.9355 295.717 17.2676C 295.037 16.5879 294.035 16.248 292.711 16.248C 291.551 16.248 290.578 16.541 289.793 17.127C 289.008 17.7129 288.615 18.4219 288.615 19.2539L 285.346 19.2539C 285.346 18.3047 285.68 17.3906 286.348 16.5117C 287.027 15.6211 287.941 14.918 289.09 14.4023C 290.25 13.8867 291.521 13.6289 292.904 13.6289C 295.096 13.6289 296.812 14.1797 298.055 15.2812C 299.297 16.3711 299.941 17.877 299.988 19.7988L 299.988 28.5527C 299.988 30.2988 300.211 31.6875 300.656 32.7188L 300.656 33L 297.246 33ZM 291.85 30.5215C 292.869 30.5215 293.836 30.2578 294.75 29.7305C 295.664 29.2031 296.326 28.5176 296.736 27.6738L 296.736 23.7715L 294.188 23.7715C 290.203 23.7715 288.211 24.9375 288.211 27.2695C 288.211 28.2891 288.551 29.0859 289.23 29.6602C 289.91 30.2344 290.783 30.5215 291.85 30.5215ZM 308.162 13.9805L 308.268 16.3711C 309.721 14.543 311.619 13.6289 313.963 13.6289C 317.982 13.6289 320.01 15.8965 320.045 20.4316L 320.045 33L 316.793 33L 316.793 20.4141C 316.781 19.043 316.465 18.0293 315.844 17.373C 315.234 16.7168 314.279 16.3887 312.979 16.3887C 311.924 16.3887 310.998 16.6699 310.201 17.2324C 309.404 17.7949 308.783 18.5332 308.338 19.4473L 308.338 33L 305.086 33L 305.086 13.9805L 308.162 13.9805ZM 324.158 23.332C 324.158 20.4141 324.85 18.0703 326.232 16.3008C 327.615 14.5195 329.426 13.6289 331.664 13.6289C 333.891 13.6289 335.654 14.3906 336.955 15.9141L 336.955 6L 340.207 6L 340.207 33L 337.219 33L 337.061 30.9609C 335.76 32.5547 333.949 33.3516 331.629 33.3516C 329.426 33.3516 327.627 32.4492 326.232 30.6445C 324.85 28.8398 324.158 26.4844 324.158 23.5781L 324.158 23.332ZM 327.41 23.7012C 327.41 25.8574 327.855 27.5449 328.746 28.7637C 329.637 29.9824 330.867 30.5918 332.438 30.5918C 334.5 30.5918 336.006 29.666 336.955 27.8145L 336.955 19.0781C 335.982 17.2852 334.488 16.3887 332.473 16.3887C 330.879 16.3887 329.637 17.0039 328.746 18.2344C 327.855 19.4648 327.41 21.2871 327.41 23.7012ZM 355.359 20.168L 356.66 7.40625L 369.773 7.40625L 369.773 10.4121L 359.42 10.4121L 358.646 17.3906C 359.9 16.6523 361.324 16.2832 362.918 16.2832C 365.25 16.2832 367.102 17.0566 368.473 18.6035C 369.844 20.1387 370.529 22.2188 370.529 24.8438C 370.529 27.4805 369.814 29.5605 368.385 31.084C 366.967 32.5957 364.98 33.3516 362.426 33.3516C 360.164 33.3516 358.318 32.7246 356.889 31.4707C 355.459 30.2168 354.645 28.4824 354.445 26.2676L 357.521 26.2676C 357.721 27.7324 358.242 28.8398 359.086 29.5898C 359.93 30.3281 361.043 30.6973 362.426 30.6973C 363.938 30.6973 365.121 30.1816 365.977 29.1504C 366.844 28.1191 367.277 26.6953 367.277 24.8789C 367.277 23.168 366.809 21.7969 365.871 20.7656C 364.945 19.7227 363.709 19.2012 362.162 19.2012C 360.744 19.2012 359.631 19.5117 358.822 20.1328L 357.961 20.8359L 355.359 20.168Z"/>
<path id="path12_stroke" d="M 83.3536 0.353553C 83.5488 0.158291 83.5488 -0.158291 83.3536 -0.353553L 80.1716 -3.53553C 79.9763 -3.7308 79.6597 -3.7308 79.4645 -3.53553C 79.2692 -3.34027 79.2692 -3.02369 79.4645 -2.82843L 82.2929 0L 79.4645 2.82843C 79.2692 3.02369 79.2692 3.34027 79.4645 3.53553C 79.6597 3.7308 79.9763 3.7308 80.1716 3.53553L 83.3536 0.353553ZM 0 0.5L 83 0.5L 83 -0.5L 0 -0.5L 0 0.5Z"/>
<path id="path13_fill" d="M 21.7969 24.8789C 21.4805 27.5859 20.4785 29.6777 18.791 31.1543C 17.1152 32.6191 14.8828 33.3516 12.0938 33.3516C 9.07031 33.3516 6.64453 32.2676 4.81641 30.0996C 3 27.9316 2.0918 25.0312 2.0918 21.3984L 2.0918 18.9375C 2.0918 16.5586 2.51367 14.4668 3.35742 12.6621C 4.21289 10.8574 5.41992 9.47461 6.97852 8.51367C 8.53711 7.54101 10.3418 7.05469 12.3926 7.05469C 15.1113 7.05469 17.291 7.81641 18.9316 9.33984C 20.5723 10.8516 21.5273 12.9492 21.7969 15.6328L 18.4043 15.6328C 18.1113 13.5938 17.4727 12.1172 16.4883 11.2031C 15.5156 10.2891 14.1504 9.83203 12.3926 9.83203C 10.2363 9.83203 8.54297 10.6289 7.3125 12.2227C 6.09375 13.8164 5.48438 16.084 5.48438 19.0254L 5.48438 21.5039C 5.48438 24.2812 6.06445 26.4902 7.22461 28.1309C 8.38477 29.7715 10.0078 30.5918 12.0938 30.5918C 13.9688 30.5918 15.4043 30.1699 16.4004 29.3262C 17.4082 28.4707 18.0762 26.9883 18.4043 24.8789L 21.7969 24.8789ZM 25.0488 23.3145C 25.0488 21.4512 25.4121 19.7754 26.1387 18.2871C 26.877 16.7988 27.8965 15.6504 29.1973 14.8418C 30.5098 14.0332 32.0039 13.6289 33.6797 13.6289C 36.2695 13.6289 38.3613 14.5254 39.9551 16.3184C 41.5605 18.1113 42.3633 20.4961 42.3633 23.4727L 42.3633 23.7012C 42.3633 25.5527 42.0059 27.2168 41.291 28.6934C 40.5879 30.1582 39.5742 31.3008 38.25 32.1211C 36.9375 32.9414 35.4258 33.3516 33.7148 33.3516C 31.1367 33.3516 29.0449 32.4551 27.4395 30.6621C 25.8457 28.8691 25.0488 26.4961 25.0488 23.543L 25.0488 23.3145ZM 28.3184 23.7012C 28.3184 25.8105 28.8047 27.5039 29.7773 28.7812C 30.7617 30.0586 32.0742 30.6973 33.7148 30.6973C 35.3672 30.6973 36.6797 30.0527 37.6523 28.7637C 38.625 27.4629 39.1113 25.6465 39.1113 23.3145C 39.1113 21.2285 38.6133 19.541 37.6172 18.252C 36.6328 16.9512 35.3203 16.3008 33.6797 16.3008C 32.0742 16.3008 30.7793 16.9395 29.7949 18.2168C 28.8105 19.4941 28.3184 21.3223 28.3184 23.7012ZM 62.5078 23.7012C 62.5078 26.5957 61.8457 28.9277 60.5215 30.6973C 59.1973 32.4668 57.4043 33.3516 55.1426 33.3516C 52.834 33.3516 51.0176 32.6191 49.6934 31.1543L 49.6934 40.3125L 46.4414 40.3125L 46.4414 13.9805L 49.4121 13.9805L 49.5703 16.0898C 50.8945 14.4492 52.7344 13.6289 55.0898 13.6289C 57.375 13.6289 59.1797 14.4902 60.5039 16.2129C 61.8398 17.9355 62.5078 20.332 62.5078 23.4023L 62.5078 23.7012ZM 59.2559 23.332C 59.2559 21.1875 58.7988 19.4941 57.8848 18.252C 56.9707 17.0098 55.7168 16.3887 54.123 16.3887C 52.1543 16.3887 50.6777 17.2617 49.6934 19.0078L 49.6934 28.0957C 50.666 29.8301 52.1543 30.6973 54.1582 30.6973C 55.7168 30.6973 56.9531 30.082 57.8672 28.8516C 58.793 27.6094 59.2559 25.7695 59.2559 23.332ZM 72.668 28.2363L 77.0977 13.9805L 80.5781 13.9805L 72.9316 35.9355C 71.748 39.0996 69.8672 40.6816 67.2891 40.6816L 66.6738 40.6289L 65.4609 40.4004L 65.4609 37.7637L 66.3398 37.834C 67.4414 37.834 68.2969 37.6113 68.9062 37.166C 69.5273 36.7207 70.0371 35.9062 70.4355 34.7227L 71.1562 32.7891L 64.3711 13.9805L 67.9219 13.9805L 72.668 28.2363ZM 108.861 33L 92.0918 33L 92.0918 30.6621L 100.951 20.8184C 102.264 19.3301 103.166 18.123 103.658 17.1973C 104.162 16.2598 104.414 15.293 104.414 14.2969C 104.414 12.9609 104.01 11.8652 103.201 11.0098C 102.393 10.1543 101.314 9.72656 99.9668 9.72656C 98.3496 9.72656 97.0898 10.1895 96.1875 11.1152C 95.2969 12.0293 94.8516 13.3066 94.8516 14.9473L 91.5996 14.9473C 91.5996 12.5918 92.3555 10.6875 93.8672 9.23438C 95.3906 7.78125 97.4238 7.05469 99.9668 7.05469C 102.346 7.05469 104.227 7.68164 105.609 8.93555C 106.992 10.1777 107.684 11.8359 107.684 13.9102C 107.684 16.4297 106.078 19.4297 102.867 22.9102L 96.0117 30.3457L 108.861 30.3457L 108.861 33ZM 125.982 9.375L 125.982 13.9805L 129.533 13.9805L 129.533 16.4941L 125.982 16.4941L 125.982 28.2891C 125.982 29.0508 126.141 29.625 126.457 30.0117C 126.773 30.3867 127.312 30.5742 128.074 30.5742C 128.449 30.5742 128.965 30.5039 129.621 30.3633L 129.621 33C 128.766 33.2344 127.934 33.3516 127.125 33.3516C 125.672 33.3516 124.576 32.9121 123.838 32.0332C 123.1 31.1543 122.73 29.9062 122.73 28.2891L 122.73 16.4941L 119.268 16.4941L 119.268 13.9805L 122.73 13.9805L 122.73 9.375L 125.982 9.375ZM 132.135 23.3145C 132.135 21.4512 132.498 19.7754 133.225 18.2871C 133.963 16.7988 134.982 15.6504 136.283 14.8418C 137.596 14.0332 139.09 13.6289 140.766 13.6289C 143.355 13.6289 145.447 14.5254 147.041 16.3184C 148.646 18.1113 149.449 20.4961 149.449 23.4727L 149.449 23.7012C 149.449 25.5527 149.092 27.2168 148.377 28.6934C 147.674 30.1582 146.66 31.3008 145.336 32.1211C 144.023 32.9414 142.512 33.3516 140.801 33.3516C 138.223 33.3516 136.131 32.4551 134.525 30.6621C 132.932 28.8691 132.135 26.4961 132.135 23.543L 132.135 23.3145ZM 135.404 23.7012C 135.404 25.8105 135.891 27.5039 136.863 28.7812C 137.848 30.0586 139.16 30.6973 140.801 30.6973C 142.453 30.6973 143.766 30.0527 144.738 28.7637C 145.711 27.4629 146.197 25.6465 146.197 23.3145C 146.197 21.2285 145.699 19.541 144.703 18.252C 143.719 16.9512 142.406 16.3008 140.766 16.3008C 139.16 16.3008 137.865 16.9395 136.881 18.2168C 135.896 19.4941 135.404 21.3223 135.404 23.7012ZM 174.199 33C 174.012 32.625 173.859 31.957 173.742 30.9961C 172.23 32.5664 170.426 33.3516 168.328 33.3516C 166.453 33.3516 164.912 32.8242 163.705 31.7695C 162.51 30.7031 161.912 29.3555 161.912 27.7266C 161.912 25.7461 162.662 24.2109 164.162 23.1211C 165.674 22.0195 167.795 21.4688 170.525 21.4688L 173.689 21.4688L 173.689 19.9746C 173.689 18.8379 173.35 17.9355 172.67 17.2676C 171.99 16.5879 170.988 16.248 169.664 16.248C 168.504 16.248 167.531 16.541 166.746 17.127C 165.961 17.7129 165.568 18.4219 165.568 19.2539L 162.299 19.2539C 162.299 18.3047 162.633 17.3906 163.301 16.5117C 163.98 15.6211 164.895 14.918 166.043 14.4023C 167.203 13.8867 168.475 13.6289 169.857 13.6289C 172.049 13.6289 173.766 14.1797 175.008 15.2812C 176.25 16.3711 176.895 17.877 176.941 19.7988L 176.941 28.5527C 176.941 30.2988 177.164 31.6875 177.609 32.7188L 177.609 33L 174.199 33ZM 168.803 30.5215C 169.822 30.5215 170.789 30.2578 171.703 29.7305C 172.617 29.2031 173.279 28.5176 173.689 27.6738L 173.689 23.7715L 171.141 23.7715C 167.156 23.7715 165.164 24.9375 165.164 27.2695C 165.164 28.2891 165.504 29.0859 166.184 29.6602C 166.863 30.2344 167.736 30.5215 168.803 30.5215ZM 185.115 13.9805L 185.221 16.3711C 186.674 14.543 188.572 13.6289 190.916 13.6289C 194.936 13.6289 196.963 15.8965 196.998 20.4316L 196.998 33L 193.746 33L 193.746 20.4141C 193.734 19.043 193.418 18.0293 192.797 17.373C 192.187 16.7168 191.232 16.3887 189.932 16.3887C 188.877 16.3887 187.951 16.6699 187.154 17.2324C 186.357 17.7949 185.736 18.5332 185.291 19.4473L 185.291 33L 182.039 33L 182.039 13.9805L 185.115 13.9805ZM 201.041 23.3145C 201.041 21.4512 201.404 19.7754 202.131 18.2871C 202.869 16.7988 203.889 15.6504 205.189 14.8418C 206.502 14.0332 207.996 13.6289 209.672 13.6289C 212.262 13.6289 214.354 14.5254 215.947 16.3184C 217.553 18.1113 218.355 20.4961 218.355 23.4727L 218.355 23.7012C 218.355 25.5527 217.998 27.2168 217.283 28.6934C 216.58 30.1582 215.566 31.3008 214.242 32.1211C 212.93 32.9414 211.418 33.3516 209.707 33.3516C 207.129 33.3516 205.037 32.4551 203.432 30.6621C 201.838 28.8691 201.041 26.4961 201.041 23.543L 201.041 23.3145ZM 204.311 23.7012C 204.311 25.8105 204.797 27.5039 205.77 28.7812C 206.754 30.0586 208.066 30.6973 209.707 30.6973C 211.359 30.6973 212.672 30.0527 213.645 28.7637C 214.617 27.4629 215.104 25.6465 215.104 23.3145C 215.104 21.2285 214.605 19.541 213.609 18.252C 212.625 16.9512 211.312 16.3008 209.672 16.3008C 208.066 16.3008 206.771 16.9395 205.787 18.2168C 204.803 19.4941 204.311 21.3223 204.311 23.7012ZM 226.846 9.375L 226.846 13.9805L 230.396 13.9805L 230.396 16.4941L 226.846 16.4941L 226.846 28.2891C 226.846 29.0508 227.004 29.625 227.32 30.0117C 227.637 30.3867 228.176 30.5742 228.938 30.5742C 229.312 30.5742 229.828 30.5039 230.484 30.3633L 230.484 33C 229.629 33.2344 228.797 33.3516 227.988 33.3516C 226.535 33.3516 225.439 32.9121 224.701 32.0332C 223.963 31.1543 223.594 29.9062 223.594 28.2891L 223.594 16.4941L 220.131 16.4941L 220.131 13.9805L 223.594 13.9805L 223.594 9.375L 226.846 9.375ZM 237.463 16.2832C 238.904 14.5137 240.779 13.6289 243.088 13.6289C 247.107 13.6289 249.135 15.8965 249.17 20.4316L 249.17 33L 245.918 33L 245.918 20.4141C 245.906 19.043 245.59 18.0293 244.969 17.373C 244.359 16.7168 243.404 16.3887 242.104 16.3887C 241.049 16.3887 240.123 16.6699 239.326 17.2324C 238.529 17.7949 237.908 18.5332 237.463 19.4473L 237.463 33L 234.211 33L 234.211 6L 237.463 6L 237.463 16.2832ZM 261.932 33.3516C 259.354 33.3516 257.256 32.5078 255.639 30.8203C 254.021 29.1211 253.213 26.8535 253.213 24.0176L 253.213 23.4199C 253.213 21.5332 253.57 19.8516 254.285 18.375C 255.012 16.8867 256.02 15.7266 257.309 14.8945C 258.609 14.0508 260.016 13.6289 261.527 13.6289C 264 13.6289 265.922 14.4434 267.293 16.0723C 268.664 17.7012 269.35 20.0332 269.35 23.0684L 269.35 24.4219L 256.465 24.4219C 256.512 26.2969 257.057 27.8145 258.1 28.9746C 259.154 30.123 260.49 30.6973 262.107 30.6973C 263.256 30.6973 264.229 30.4629 265.025 29.9941C 265.822 29.5254 266.52 28.9043 267.117 28.1309L 269.104 29.6777C 267.51 32.127 265.119 33.3516 261.932 33.3516ZM 261.527 16.3008C 260.215 16.3008 259.113 16.7812 258.223 17.7422C 257.332 18.6914 256.781 20.0273 256.57 21.75L 266.098 21.75L 266.098 21.5039C 266.004 19.8516 265.559 18.5742 264.762 17.6719C 263.965 16.7578 262.887 16.3008 261.527 16.3008ZM 282.322 16.8984C 281.83 16.8164 281.297 16.7754 280.723 16.7754C 278.59 16.7754 277.143 17.6836 276.381 19.5L 276.381 33L 273.129 33L 273.129 13.9805L 276.293 13.9805L 276.346 16.1777C 277.412 14.4785 278.924 13.6289 280.881 13.6289C 281.514 13.6289 281.994 13.7109 282.322 13.875L 282.322 16.8984ZM 297.791 33L 294.539 33L 294.539 6L 297.791 6L 297.791 33ZM 302.15 23.3145C 302.15 21.4512 302.514 19.7754 303.24 18.2871C 303.979 16.7988 304.998 15.6504 306.299 14.8418C 307.611 14.0332 309.105 13.6289 310.781 13.6289C 313.371 13.6289 315.463 14.5254 317.057 16.3184C 318.662 18.1113 319.465 20.4961 319.465 23.4727L 319.465 23.7012C 319.465 25.5527 319.107 27.2168 318.393 28.6934C 317.689 30.1582 316.676 31.3008 315.352 32.1211C 314.039 32.9414 312.527 33.3516 310.816 33.3516C 308.238 33.3516 306.146 32.4551 304.541 30.6621C 302.947 28.8691 302.15 26.4961 302.15 23.543L 302.15 23.3145ZM 305.42 23.7012C 305.42 25.8105 305.906 27.5039 306.879 28.7812C 307.863 30.0586 309.176 30.6973 310.816 30.6973C 312.469 30.6973 313.781 30.0527 314.754 28.7637C 315.727 27.4629 316.213 25.6465 316.213 23.3145C 316.213 21.2285 315.715 19.541 314.719 18.252C 313.734 16.9512 312.422 16.3008 310.781 16.3008C 309.176 16.3008 307.881 16.9395 306.896 18.2168C 305.912 19.4941 305.42 21.3223 305.42 23.7012ZM 331.172 30.6973C 332.332 30.6973 333.346 30.3457 334.213 29.6426C 335.08 28.9395 335.561 28.0605 335.654 27.0059L 338.73 27.0059C 338.672 28.0957 338.297 29.1328 337.605 30.1172C 336.914 31.1016 335.988 31.8867 334.828 32.4727C 333.68 33.0586 332.461 33.3516 331.172 33.3516C 328.582 33.3516 326.52 32.4902 324.984 30.7676C 323.461 29.0332 322.699 26.666 322.699 23.666L 322.699 23.1211C 322.699 21.2695 323.039 19.623 323.719 18.1816C 324.398 16.7402 325.371 15.6211 326.637 14.8242C 327.914 14.0273 329.42 13.6289 331.154 13.6289C 333.287 13.6289 335.057 14.2676 336.463 15.5449C 337.881 16.8223 338.637 18.4805 338.73 20.5195L 335.654 20.5195C 335.561 19.2891 335.092 18.2813 334.248 17.4961C 333.416 16.6992 332.385 16.3008 331.154 16.3008C 329.502 16.3008 328.219 16.8984 327.305 18.0938C 326.402 19.2773 325.951 20.9941 325.951 23.2441L 325.951 23.8594C 325.951 26.0508 326.402 27.7383 327.305 28.9219C 328.207 30.1055 329.496 30.6973 331.172 30.6973ZM 354.129 33C 353.941 32.625 353.789 31.957 353.672 30.9961C 352.16 32.5664 350.355 33.3516 348.258 33.3516C 346.383 33.3516 344.842 32.8242 343.635 31.7695C 342.439 30.7031 341.842 29.3555 341.842 27.7266C 341.842 25.7461 342.592 24.2109 344.092 23.1211C 345.604 22.0195 347.725 21.4688 350.455 21.4688L 353.619 21.4688L 353.619 19.9746C 353.619 18.8379 353.279 17.9355 352.6 17.2676C 351.92 16.5879 350.918 16.248 349.594 16.248C 348.434 16.248 347.461 16.541 346.676 17.127C 345.891 17.7129 345.498 18.4219 345.498 19.2539L 342.229 19.2539C 342.229 18.3047 342.562 17.3906 343.23 16.5117C 343.91 15.6211 344.824 14.918 345.973 14.4023C 347.133 13.8867 348.404 13.6289 349.787 13.6289C 351.979 13.6289 353.695 14.1797 354.938 15.2812C 356.18 16.3711 356.824 17.877 356.871 19.7988L 356.871 28.5527C 356.871 30.2988 357.094 31.6875 357.539 32.7188L 357.539 33L 354.129 33ZM 348.732 30.5215C 349.752 30.5215 350.719 30.2578 351.633 29.7305C 352.547 29.2031 353.209 28.5176 353.619 27.6738L 353.619 23.7715L 351.07 23.7715C 347.086 23.7715 345.094 24.9375 345.094 27.2695C 345.094 28.2891 345.434 29.0859 346.113 29.6602C 346.793 30.2344 347.666 30.5215 348.732 30.5215ZM 366.381 9.375L 366.381 13.9805L 369.932 13.9805L 369.932 16.4941L 366.381 16.4941L 366.381 28.2891C 366.381 29.0508 366.539 29.625 366.855 30.0117C 367.172 30.3867 367.711 30.5742 368.473 30.5742C 368.848 30.5742 369.363 30.5039 370.02 30.3633L 370.02 33C 369.164 33.2344 368.332 33.3516 367.523 33.3516C 366.07 33.3516 364.975 32.9121 364.236 32.0332C 363.498 31.1543 363.129 29.9062 363.129 28.2891L 363.129 16.4941L 359.666 16.4941L 359.666 13.9805L 363.129 13.9805L 363.129 9.375L 366.381 9.375ZM 377.279 33L 374.027 33L 374.027 13.9805L 377.279 13.9805L 377.279 33ZM 373.764 8.93555C 373.764 8.4082 373.922 7.96289 374.238 7.59961C 374.566 7.23633 375.047 7.05469 375.68 7.05469C 376.312 7.05469 376.793 7.23633 377.121 7.59961C 377.449 7.96289 377.613 8.4082 377.613 8.93555C 377.613 9.46289 377.449 9.90234 377.121 10.2539C 376.793 10.6055 376.312 10.7812 375.68 10.7812C 375.047 10.7812 374.566 10.6055 374.238 10.2539C 373.922 9.90234 373.764 9.46289 373.764 8.93555ZM 381.639 23.3145C 381.639 21.4512 382.002 19.7754 382.729 18.2871C 383.467 16.7988 384.486 15.6504 385.787 14.8418C 387.1 14.0332 388.594 13.6289 390.27 13.6289C 392.859 13.6289 394.951 14.5254 396.545 16.3184C 398.15 18.1113 398.953 20.4961 398.953 23.4727L 398.953 23.7012C 398.953 25.5527 398.596 27.2168 397.881 28.6934C 397.178 30.1582 396.164 31.3008 394.84 32.1211C 393.527 32.9414 392.016 33.3516 390.305 33.3516C 387.727 33.3516 385.635 32.4551 384.029 30.6621C 382.436 28.8691 381.639 26.4961 381.639 23.543L 381.639 23.3145ZM 384.908 23.7012C 384.908 25.8105 385.395 27.5039 386.367 28.7812C 387.352 30.0586 388.664 30.6973 390.305 30.6973C 391.957 30.6973 393.27 30.0527 394.242 28.7637C 395.215 27.4629 395.701 25.6465 395.701 23.3145C 395.701 21.2285 395.203 19.541 394.207 18.252C 393.223 16.9512 391.91 16.3008 390.27 16.3008C 388.664 16.3008 387.369 16.9395 386.385 18.2168C 385.4 19.4941 384.908 21.3223 384.908 23.7012ZM 406.107 13.9805L 406.213 16.3711C 407.666 14.543 409.564 13.6289 411.908 13.6289C 415.928 13.6289 417.955 15.8965 417.99 20.4316L 417.99 33L 414.738 33L 414.738 20.4141C 414.727 19.043 414.41 18.0293 413.789 17.373C 413.18 16.7168 412.225 16.3887 410.924 16.3887C 409.869 16.3887 408.943 16.6699 408.146 17.2324C 407.35 17.7949 406.729 18.5332 406.283 19.4473L 406.283 33L 403.031 33L 403.031 13.9805L 406.107 13.9805Z"/>
<path id="path14_fill" d="M 12.3574 22.6465L 6.3457 22.6465L 6.3457 33L 2.95312 33L 2.95312 7.40625L 11.4258 7.40625C 14.3086 7.40625 16.5234 8.0625 18.0703 9.375C 19.6289 10.6875 20.4082 12.5977 20.4082 15.1055C 20.4082 16.6992 19.9746 18.0879 19.1074 19.2715C 18.252 20.4551 17.0566 21.3398 15.5215 21.9258L 21.5332 32.7891L 21.5332 33L 17.9121 33L 12.3574 22.6465ZM 6.3457 19.8867L 11.5312 19.8867C 13.207 19.8867 14.5371 19.4531 15.5215 18.5859C 16.5176 17.7188 17.0156 16.5586 17.0156 15.1055C 17.0156 13.5234 16.541 12.3105 15.5918 11.4668C 14.6543 10.623 13.2949 10.1953 11.5137 10.1836L 6.3457 10.1836L 6.3457 19.8867ZM 32.5371 33.3516C 29.959 33.3516 27.8613 32.5078 26.2441 30.8203C 24.627 29.1211 23.8184 26.8535 23.8184 24.0176L 23.8184 23.4199C 23.8184 21.5332 24.1758 19.8516 24.8906 18.375C 25.6172 16.8867 26.625 15.7266 27.9141 14.8945C 29.2148 14.0508 30.6211 13.6289 32.1328 13.6289C 34.6055 13.6289 36.5273 14.4434 37.8984 16.0723C 39.2695 17.7012 39.9551 20.0332 39.9551 23.0684L 39.9551 24.4219L 27.0703 24.4219C 27.1172 26.2969 27.6621 27.8145 28.7051 28.9746C 29.7598 30.123 31.0957 30.6973 32.7129 30.6973C 33.8613 30.6973 34.834 30.4629 35.6309 29.9941C 36.4277 29.5254 37.125 28.9043 37.7227 28.1309L 39.709 29.6777C 38.1152 32.127 35.7246 33.3516 32.5371 33.3516ZM 32.1328 16.3008C 30.8203 16.3008 29.7187 16.7812 28.8281 17.7422C 27.9375 18.6914 27.3867 20.0273 27.1758 21.75L 36.7031 21.75L 36.7031 21.5039C 36.6094 19.8516 36.1641 18.5742 35.3672 17.6719C 34.5703 16.7578 33.4922 16.3008 32.1328 16.3008ZM 59.8008 23.7012C 59.8008 26.5957 59.1387 28.9277 57.8145 30.6973C 56.4902 32.4668 54.6973 33.3516 52.4355 33.3516C 50.127 33.3516 48.3105 32.6191 46.9863 31.1543L 46.9863 40.3125L 43.7344 40.3125L 43.7344 13.9805L 46.7051 13.9805L 46.8633 16.0898C 48.1875 14.4492 50.0273 13.6289 52.3828 13.6289C 54.668 13.6289 56.4727 14.4902 57.7969 16.2129C 59.1328 17.9355 59.8008 20.332 59.8008 23.4023L 59.8008 23.7012ZM 56.5488 23.332C 56.5488 21.1875 56.0918 19.4941 55.1777 18.252C 54.2637 17.0098 53.0098 16.3887 51.416 16.3887C 49.4473 16.3887 47.9707 17.2617 46.9863 19.0078L 46.9863 28.0957C 47.959 29.8301 49.4473 30.6973 51.4512 30.6973C 53.0098 30.6973 54.2461 30.082 55.1602 28.8516C 56.0859 27.6094 56.5488 25.7695 56.5488 23.332ZM 67.4824 33L 64.2305 33L 64.2305 6L 67.4824 6L 67.4824 33ZM 84.4453 33C 84.2578 32.625 84.1055 31.957 83.9883 30.9961C 82.4766 32.5664 80.6719 33.3516 78.5742 33.3516C 76.6992 33.3516 75.1582 32.8242 73.9512 31.7695C 72.7559 30.7031 72.1582 29.3555 72.1582 27.7266C 72.1582 25.7461 72.9082 24.2109 74.4082 23.1211C 75.9199 22.0195 78.041 21.4688 80.7715 21.4688L 83.9355 21.4688L 83.9355 19.9746C 83.9355 18.8379 83.5957 17.9355 82.916 17.2676C 82.2363 16.5879 81.2344 16.248 79.9102 16.248C 78.75 16.248 77.7773 16.541 76.9922 17.127C 76.207 17.7129 75.8145 18.4219 75.8145 19.2539L 72.5449 19.2539C 72.5449 18.3047 72.8789 17.3906 73.5469 16.5117C 74.2266 15.6211 75.1406 14.918 76.2891 14.4023C 77.4492 13.8867 78.7207 13.6289 80.1035 13.6289C 82.2949 13.6289 84.0117 14.1797 85.2539 15.2812C 86.4961 16.3711 87.1406 17.877 87.1875 19.7988L 87.1875 28.5527C 87.1875 30.2988 87.4102 31.6875 87.8555 32.7188L 87.8555 33L 84.4453 33ZM 79.0488 30.5215C 80.0684 30.5215 81.0352 30.2578 81.9492 29.7305C 82.8633 29.2031 83.5254 28.5176 83.9355 27.6738L 83.9355 23.7715L 81.3867 23.7715C 77.4023 23.7715 75.4102 24.9375 75.4102 27.2695C 75.4102 28.2891 75.75 29.0859 76.4297 29.6602C 77.1094 30.2344 77.9824 30.5215 79.0488 30.5215ZM 99.9141 30.6973C 101.074 30.6973 102.088 30.3457 102.955 29.6426C 103.822 28.9395 104.303 28.0605 104.396 27.0059L 107.473 27.0059C 107.414 28.0957 107.039 29.1328 106.348 30.1172C 105.656 31.1016 104.73 31.8867 103.57 32.4727C 102.422 33.0586 101.203 33.3516 99.9141 33.3516C 97.3242 33.3516 95.2617 32.4902 93.7266 30.7676C 92.2031 29.0332 91.4414 26.666 91.4414 23.666L 91.4414 23.1211C 91.4414 21.2695 91.7813 19.623 92.4609 18.1816C 93.1406 16.7402 94.1133 15.6211 95.3789 14.8242C 96.6562 14.0273 98.1621 13.6289 99.8965 13.6289C 102.029 13.6289 103.799 14.2676 105.205 15.5449C 106.623 16.8223 107.379 18.4805 107.473 20.5195L 104.396 20.5195C 104.303 19.2891 103.834 18.2813 102.99 17.4961C 102.158 16.6992 101.127 16.3008 99.8965 16.3008C 98.2441 16.3008 96.9609 16.8984 96.0469 18.0938C 95.1445 19.2773 94.6934 20.9941 94.6934 23.2441L 94.6934 23.8594C 94.6934 26.0508 95.1445 27.7383 96.0469 28.9219C 96.9492 30.1055 98.2383 30.6973 99.9141 30.6973ZM 119.021 33.3516C 116.443 33.3516 114.346 32.5078 112.729 30.8203C 111.111 29.1211 110.303 26.8535 110.303 24.0176L 110.303 23.4199C 110.303 21.5332 110.66 19.8516 111.375 18.375C 112.102 16.8867 113.109 15.7266 114.398 14.8945C 115.699 14.0508 117.105 13.6289 118.617 13.6289C 121.09 13.6289 123.012 14.4434 124.383 16.0723C 125.754 17.7012 126.439 20.0332 126.439 23.0684L 126.439 24.4219L 113.555 24.4219C 113.602 26.2969 114.146 27.8145 115.189 28.9746C 116.244 30.123 117.58 30.6973 119.197 30.6973C 120.346 30.6973 121.318 30.4629 122.115 29.9941C 122.912 29.5254 123.609 28.9043 124.207 28.1309L 126.193 29.6777C 124.6 32.127 122.209 33.3516 119.021 33.3516ZM 118.617 16.3008C 117.305 16.3008 116.203 16.7812 115.312 17.7422C 114.422 18.6914 113.871 20.0273 113.66 21.75L 123.188 21.75L 123.188 21.5039C 123.094 19.8516 122.648 18.5742 121.852 17.6719C 121.055 16.7578 119.977 16.3008 118.617 16.3008ZM 155.584 33L 138.814 33L 138.814 30.6621L 147.674 20.8184C 148.986 19.3301 149.889 18.123 150.381 17.1973C 150.885 16.2598 151.137 15.293 151.137 14.2969C 151.137 12.9609 150.732 11.8652 149.924 11.0098C 149.115 10.1543 148.037 9.72656 146.689 9.72656C 145.072 9.72656 143.813 10.1895 142.91 11.1152C 142.02 12.0293 141.574 13.3066 141.574 14.9473L 138.322 14.9473C 138.322 12.5918 139.078 10.6875 140.59 9.23438C 142.113 7.78125 144.146 7.05469 146.689 7.05469C 149.068 7.05469 150.949 7.68164 152.332 8.93555C 153.715 10.1777 154.406 11.8359 154.406 13.9102C 154.406 16.4297 152.801 19.4297 149.59 22.9102L 142.734 30.3457L 155.584 30.3457L 155.584 33ZM 185.133 28.5176L 188.789 13.9805L 192.041 13.9805L 186.504 33L 183.867 33L 179.244 18.5859L 174.744 33L 172.107 33L 166.588 13.9805L 169.822 13.9805L 173.566 28.2188L 177.996 13.9805L 180.615 13.9805L 185.133 28.5176ZM 198.896 33L 195.645 33L 195.645 13.9805L 198.896 13.9805L 198.896 33ZM 195.381 8.93555C 195.381 8.4082 195.539 7.96289 195.855 7.59961C 196.184 7.23633 196.664 7.05469 197.297 7.05469C 197.93 7.05469 198.41 7.23633 198.738 7.59961C 199.066 7.96289 199.23 8.4082 199.23 8.93555C 199.23 9.46289 199.066 9.90234 198.738 10.2539C 198.41 10.6055 197.93 10.7812 197.297 10.7812C 196.664 10.7812 196.184 10.6055 195.855 10.2539C 195.539 9.90234 195.381 9.46289 195.381 8.93555ZM 208.529 9.375L 208.529 13.9805L 212.08 13.9805L 212.08 16.4941L 208.529 16.4941L 208.529 28.2891C 208.529 29.0508 208.688 29.625 209.004 30.0117C 209.32 30.3867 209.859 30.5742 210.621 30.5742C 210.996 30.5742 211.512 30.5039 212.168 30.3633L 212.168 33C 211.312 33.2344 210.48 33.3516 209.672 33.3516C 208.219 33.3516 207.123 32.9121 206.385 32.0332C 205.646 31.1543 205.277 29.9062 205.277 28.2891L 205.277 16.4941L 201.814 16.4941L 201.814 13.9805L 205.277 13.9805L 205.277 9.375L 208.529 9.375ZM 219.146 16.2832C 220.588 14.5137 222.463 13.6289 224.771 13.6289C 228.791 13.6289 230.818 15.8965 230.854 20.4316L 230.854 33L 227.602 33L 227.602 20.4141C 227.59 19.043 227.273 18.0293 226.652 17.373C 226.043 16.7168 225.088 16.3887 223.787 16.3887C 222.732 16.3887 221.807 16.6699 221.01 17.2324C 220.213 17.7949 219.592 18.5332 219.146 19.4473L 219.146 33L 215.895 33L 215.895 6L 219.146 6L 219.146 16.2832ZM 245.812 20.168L 247.113 7.40625L 260.227 7.40625L 260.227 10.4121L 249.873 10.4121L 249.1 17.3906C 250.354 16.6523 251.777 16.2832 253.371 16.2832C 255.703 16.2832 257.555 17.0566 258.926 18.6035C 260.297 20.1387 260.982 22.2188 260.982 24.8438C 260.982 27.4805 260.268 29.5605 258.838 31.084C 257.42 32.5957 255.434 33.3516 252.879 33.3516C 250.617 33.3516 248.771 32.7246 247.342 31.4707C 245.912 30.2168 245.098 28.4824 244.898 26.2676L 247.975 26.2676C 248.174 27.7324 248.695 28.8398 249.539 29.5898C 250.383 30.3281 251.496 30.6973 252.879 30.6973C 254.391 30.6973 255.574 30.1816 256.43 29.1504C 257.297 28.1191 257.73 26.6953 257.73 24.8789C 257.73 23.168 257.262 21.7969 256.324 20.7656C 255.398 19.7227 254.162 19.2012 252.615 19.2012C 251.197 19.2012 250.084 19.5117 249.275 20.1328L 248.414 20.8359L 245.812 20.168Z"/>
<path id="path15_stroke" d="M 0 0L 46 0L 46 -3L 0 -3L 0 0Z"/>
<path id="path16_stroke" d="M 0 0L 300 0L 300 -3L 0 -3L 0 0Z"/>
<path id="path17_stroke" d="M 47.0607 1.06066C 47.6464 0.474874 47.6464 -0.474874 47.0607 -1.06066L 37.5147 -10.6066C 36.9289 -11.1924 35.9792 -11.1924 35.3934 -10.6066C 34.8076 -10.0208 34.8076 -9.07107 35.3934 -8.48528L 43.8787 0L 35.3934 8.48528C 34.8076 9.07107 34.8076 10.0208 35.3934 10.6066C 35.9792 11.1924 36.9289 11.1924 37.5147 10.6066L 47.0607 1.06066ZM 0 1.5L 46 1.5L 46 -1.5L 0 -1.5L 0 1.5Z"/>
<path id="path18_fill" d="M 12.3574 22.6465L 6.3457 22.6465L 6.3457 33L 2.95312 33L 2.95312 7.40625L 11.4258 7.40625C 14.3086 7.40625 16.5234 8.0625 18.0703 9.375C 19.6289 10.6875 20.4082 12.5977 20.4082 15.1055C 20.4082 16.6992 19.9746 18.0879 19.1074 19.2715C 18.252 20.4551 17.0566 21.3398 15.5215 21.9258L 21.5332 32.7891L 21.5332 33L 17.9121 33L 12.3574 22.6465ZM 6.3457 19.8867L 11.5312 19.8867C 13.207 19.8867 14.5371 19.4531 15.5215 18.5859C 16.5176 17.7188 17.0156 16.5586 17.0156 15.1055C 17.0156 13.5234 16.541 12.3105 15.5918 11.4668C 14.6543 10.623 13.2949 10.1953 11.5137 10.1836L 6.3457 10.1836L 6.3457 19.8867ZM 32.5371 33.3516C 29.959 33.3516 27.8613 32.5078 26.2441 30.8203C 24.627 29.1211 23.8184 26.8535 23.8184 24.0176L 23.8184 23.4199C 23.8184 21.5332 24.1758 19.8516 24.8906 18.375C 25.6172 16.8867 26.625 15.7266 27.9141 14.8945C 29.2148 14.0508 30.6211 13.6289 32.1328 13.6289C 34.6055 13.6289 36.5273 14.4434 37.8984 16.0723C 39.2695 17.7012 39.9551 20.0332 39.9551 23.0684L 39.9551 24.4219L 27.0703 24.4219C 27.1172 26.2969 27.6621 27.8145 28.7051 28.9746C 29.7598 30.123 31.0957 30.6973 32.7129 30.6973C 33.8613 30.6973 34.834 30.4629 35.6309 29.9941C 36.4277 29.5254 37.125 28.9043 37.7227 28.1309L 39.709 29.6777C 38.1152 32.127 35.7246 33.3516 32.5371 33.3516ZM 32.1328 16.3008C 30.8203 16.3008 29.7187 16.7812 28.8281 17.7422C 27.9375 18.6914 27.3867 20.0273 27.1758 21.75L 36.7031 21.75L 36.7031 21.5039C 36.6094 19.8516 36.1641 18.5742 35.3672 17.6719C 34.5703 16.7578 33.4922 16.3008 32.1328 16.3008ZM 59.8008 23.7012C 59.8008 26.5957 59.1387 28.9277 57.8145 30.6973C 56.4902 32.4668 54.6973 33.3516 52.4355 33.3516C 50.127 33.3516 48.3105 32.6191 46.9863 31.1543L 46.9863 40.3125L 43.7344 40.3125L 43.7344 13.9805L 46.7051 13.9805L 46.8633 16.0898C 48.1875 14.4492 50.0273 13.6289 52.3828 13.6289C 54.668 13.6289 56.4727 14.4902 57.7969 16.2129C 59.1328 17.9355 59.8008 20.332 59.8008 23.4023L 59.8008 23.7012ZM 56.5488 23.332C 56.5488 21.1875 56.0918 19.4941 55.1777 18.252C 54.2637 17.0098 53.0098 16.3887 51.416 16.3887C 49.4473 16.3887 47.9707 17.2617 46.9863 19.0078L 46.9863 28.0957C 47.959 29.8301 49.4473 30.6973 51.4512 30.6973C 53.0098 30.6973 54.2461 30.082 55.1602 28.8516C 56.0859 27.6094 56.5488 25.7695 56.5488 23.332ZM 67.4824 33L 64.2305 33L 64.2305 6L 67.4824 6L 67.4824 33ZM 84.4453 33C 84.2578 32.625 84.1055 31.957 83.9883 30.9961C 82.4766 32.5664 80.6719 33.3516 78.5742 33.3516C 76.6992 33.3516 75.1582 32.8242 73.9512 31.7695C 72.7559 30.7031 72.1582 29.3555 72.1582 27.7266C 72.1582 25.7461 72.9082 24.2109 74.4082 23.1211C 75.9199 22.0195 78.041 21.4688 80.7715 21.4688L 83.9355 21.4688L 83.9355 19.9746C 83.9355 18.8379 83.5957 17.9355 82.916 17.2676C 82.2363 16.5879 81.2344 16.248 79.9102 16.248C 78.75 16.248 77.7773 16.541 76.9922 17.127C 76.207 17.7129 75.8145 18.4219 75.8145 19.2539L 72.5449 19.2539C 72.5449 18.3047 72.8789 17.3906 73.5469 16.5117C 74.2266 15.6211 75.1406 14.918 76.2891 14.4023C 77.4492 13.8867 78.7207 13.6289 80.1035 13.6289C 82.2949 13.6289 84.0117 14.1797 85.2539 15.2812C 86.4961 16.3711 87.1406 17.877 87.1875 19.7988L 87.1875 28.5527C 87.1875 30.2988 87.4102 31.6875 87.8555 32.7188L 87.8555 33L 84.4453 33ZM 79.0488 30.5215C 80.0684 30.5215 81.0352 30.2578 81.9492 29.7305C 82.8633 29.2031 83.5254 28.5176 83.9355 27.6738L 83.9355 23.7715L 81.3867 23.7715C 77.4023 23.7715 75.4102 24.9375 75.4102 27.2695C 75.4102 28.2891 75.75 29.0859 76.4297 29.6602C 77.1094 30.2344 77.9824 30.5215 79.0488 30.5215ZM 99.9141 30.6973C 101.074 30.6973 102.088 30.3457 102.955 29.6426C 103.822 28.9395 104.303 28.0605 104.396 27.0059L 107.473 27.0059C 107.414 28.0957 107.039 29.1328 106.348 30.1172C 105.656 31.1016 104.73 31.8867 103.57 32.4727C 102.422 33.0586 101.203 33.3516 99.9141 33.3516C 97.3242 33.3516 95.2617 32.4902 93.7266 30.7676C 92.2031 29.0332 91.4414 26.666 91.4414 23.666L 91.4414 23.1211C 91.4414 21.2695 91.7813 19.623 92.4609 18.1816C 93.1406 16.7402 94.1133 15.6211 95.3789 14.8242C 96.6562 14.0273 98.1621 13.6289 99.8965 13.6289C 102.029 13.6289 103.799 14.2676 105.205 15.5449C 106.623 16.8223 107.379 18.4805 107.473 20.5195L 104.396 20.5195C 104.303 19.2891 103.834 18.2813 102.99 17.4961C 102.158 16.6992 101.127 16.3008 99.8965 16.3008C 98.2441 16.3008 96.9609 16.8984 96.0469 18.0938C 95.1445 19.2773 94.6934 20.9941 94.6934 23.2441L 94.6934 23.8594C 94.6934 26.0508 95.1445 27.7383 96.0469 28.9219C 96.9492 30.1055 98.2383 30.6973 99.9141 30.6973ZM 119.021 33.3516C 116.443 33.3516 114.346 32.5078 112.729 30.8203C 111.111 29.1211 110.303 26.8535 110.303 24.0176L 110.303 23.4199C 110.303 21.5332 110.66 19.8516 111.375 18.375C 112.102 16.8867 113.109 15.7266 114.398 14.8945C 115.699 14.0508 117.105 13.6289 118.617 13.6289C 121.09 13.6289 123.012 14.4434 124.383 16.0723C 125.754 17.7012 126.439 20.0332 126.439 23.0684L 126.439 24.4219L 113.555 24.4219C 113.602 26.2969 114.146 27.8145 115.189 28.9746C 116.244 30.123 117.58 30.6973 119.197 30.6973C 120.346 30.6973 121.318 30.4629 122.115 29.9941C 122.912 29.5254 123.609 28.9043 124.207 28.1309L 126.193 29.6777C 124.6 32.127 122.209 33.3516 119.021 33.3516ZM 118.617 16.3008C 117.305 16.3008 116.203 16.7812 115.312 17.7422C 114.422 18.6914 113.871 20.0273 113.66 21.75L 123.188 21.75L 123.188 21.5039C 123.094 19.8516 122.648 18.5742 121.852 17.6719C 121.055 16.7578 119.977 16.3008 118.617 16.3008ZM 140.309 20.168L 141.609 7.40625L 154.723 7.40625L 154.723 10.4121L 144.369 10.4121L 143.596 17.3906C 144.85 16.6523 146.273 16.2832 147.867 16.2832C 150.199 16.2832 152.051 17.0566 153.422 18.6035C 154.793 20.1387 155.479 22.2188 155.479 24.8438C 155.479 27.4805 154.764 29.5605 153.334 31.084C 151.916 32.5957 149.93 33.3516 147.375 33.3516C 145.113 33.3516 143.268 32.7246 141.838 31.4707C 140.408 30.2168 139.594 28.4824 139.395 26.2676L 142.471 26.2676C 142.67 27.7324 143.191 28.8398 144.035 29.5898C 144.879 30.3281 145.992 30.6973 147.375 30.6973C 148.887 30.6973 150.07 30.1816 150.926 29.1504C 151.793 28.1191 152.227 26.6953 152.227 24.8789C 152.227 23.168 151.758 21.7969 150.82 20.7656C 149.895 19.7227 148.658 19.2012 147.111 19.2012C 145.693 19.2012 144.58 19.5117 143.771 20.1328L 142.91 20.8359L 140.309 20.168ZM 185.133 28.5176L 188.789 13.9805L 192.041 13.9805L 186.504 33L 183.867 33L 179.244 18.5859L 174.744 33L 172.107 33L 166.588 13.9805L 169.822 13.9805L 173.566 28.2188L 177.996 13.9805L 180.615 13.9805L 185.133 28.5176ZM 198.896 33L 195.645 33L 195.645 13.9805L 198.896 13.9805L 198.896 33ZM 195.381 8.93555C 195.381 8.4082 195.539 7.96289 195.855 7.59961C 196.184 7.23633 196.664 7.05469 197.297 7.05469C 197.93 7.05469 198.41 7.23633 198.738 7.59961C 199.066 7.96289 199.23 8.4082 199.23 8.93555C 199.23 9.46289 199.066 9.90234 198.738 10.2539C 198.41 10.6055 197.93 10.7812 197.297 10.7812C 196.664 10.7812 196.184 10.6055 195.855 10.2539C 195.539 9.90234 195.381 9.46289 195.381 8.93555ZM 208.529 9.375L 208.529 13.9805L 212.08 13.9805L 212.08 16.4941L 208.529 16.4941L 208.529 28.2891C 208.529 29.0508 208.688 29.625 209.004 30.0117C 209.32 30.3867 209.859 30.5742 210.621 30.5742C 210.996 30.5742 211.512 30.5039 212.168 30.3633L 212.168 33C 211.312 33.2344 210.48 33.3516 209.672 33.3516C 208.219 33.3516 207.123 32.9121 206.385 32.0332C 205.646 31.1543 205.277 29.9062 205.277 28.2891L 205.277 16.4941L 201.814 16.4941L 201.814 13.9805L 205.277 13.9805L 205.277 9.375L 208.529 9.375ZM 219.146 16.2832C 220.588 14.5137 222.463 13.6289 224.771 13.6289C 228.791 13.6289 230.818 15.8965 230.854 20.4316L 230.854 33L 227.602 33L 227.602 20.4141C 227.59 19.043 227.273 18.0293 226.652 17.373C 226.043 16.7168 225.088 16.3887 223.787 16.3887C 222.732 16.3887 221.807 16.6699 221.01 17.2324C 220.213 17.7949 219.592 18.5332 219.146 19.4473L 219.146 33L 215.895 33L 215.895 6L 219.146 6L 219.146 16.2832ZM 261.088 33L 244.318 33L 244.318 30.6621L 253.178 20.8184C 254.49 19.3301 255.393 18.123 255.885 17.1973C 256.389 16.2598 256.641 15.293 256.641 14.2969C 256.641 12.9609 256.236 11.8652 255.428 11.0098C 254.619 10.1543 253.541 9.72656 252.193 9.72656C 250.576 9.72656 249.316 10.1895 248.414 11.1152C 247.523 12.0293 247.078 13.3066 247.078 14.9473L 243.826 14.9473C 243.826 12.5918 244.582 10.6875 246.094 9.23438C 247.617 7.78125 249.65 7.05469 252.193 7.05469C 254.572 7.05469 256.453 7.68164 257.836 8.93555C 259.219 10.1777 259.91 11.8359 259.91 13.9102C 259.91 16.4297 258.305 19.4297 255.094 22.9102L 248.238 30.3457L 261.088 30.3457L 261.088 33Z"/>
<path id="path19_fill" d="M 10.5117 21.5918C 7.61719 20.7598 5.50781 19.7402 4.18359 18.5332C 2.87109 17.3145 2.21484 15.8145 2.21484 14.0332C 2.21484 12.0176 3.01758 10.3535 4.62305 9.04102C 6.24023 7.7168 8.33789 7.05469 10.916 7.05469C 12.6738 7.05469 14.2383 7.39453 15.6094 8.07422C 16.9922 8.75391 18.0586 9.69141 18.8086 10.8867C 19.5703 12.082 19.9512 13.3887 19.9512 14.8066L 16.5586 14.8066C 16.5586 13.2598 16.0664 12.0469 15.082 11.168C 14.0977 10.2773 12.709 9.83203 10.916 9.83203C 9.25195 9.83203 7.95117 10.2012 7.01367 10.9395C 6.08789 11.666 5.625 12.6797 5.625 13.9805C 5.625 15.0234 6.06445 15.9082 6.94336 16.6348C 7.83398 17.3496 9.33984 18.0059 11.4609 18.6035C 13.5937 19.2012 15.2578 19.8633 16.4531 20.5898C 17.6602 21.3047 18.5508 22.1426 19.125 23.1035C 19.7109 24.0645 20.0039 25.1953 20.0039 26.4961C 20.0039 28.5703 19.1953 30.2344 17.5781 31.4883C 15.9609 32.7305 13.7988 33.3516 11.0918 33.3516C 9.33398 33.3516 7.69336 33.0176 6.16992 32.3496C 4.64648 31.6699 3.46875 30.7441 2.63672 29.5723C 1.81641 28.4004 1.40625 27.0703 1.40625 25.582L 4.79883 25.582C 4.79883 27.1289 5.36719 28.3535 6.50391 29.2559C 7.65234 30.1465 9.18164 30.5918 11.0918 30.5918C 12.873 30.5918 14.2383 30.2285 15.1875 29.502C 16.1367 28.7754 16.6113 27.7852 16.6113 26.5312C 16.6113 25.2773 16.1719 24.3105 15.293 23.6309C 14.4141 22.9395 12.8203 22.2598 10.5117 21.5918ZM 40.6758 28.5176L 44.332 13.9805L 47.584 13.9805L 42.0469 33L 39.4102 33L 34.7871 18.5859L 30.2871 33L 27.6504 33L 22.1309 13.9805L 25.3652 13.9805L 29.1094 28.2188L 33.5391 13.9805L 36.1582 13.9805L 40.6758 28.5176ZM 62.6484 33C 62.4609 32.625 62.3086 31.957 62.1914 30.9961C 60.6797 32.5664 58.875 33.3516 56.7773 33.3516C 54.9023 33.3516 53.3613 32.8242 52.1543 31.7695C 50.959 30.7031 50.3613 29.3555 50.3613 27.7266C 50.3613 25.7461 51.1113 24.2109 52.6113 23.1211C 54.123 22.0195 56.2441 21.4688 58.9746 21.4688L 62.1387 21.4688L 62.1387 19.9746C 62.1387 18.8379 61.7988 17.9355 61.1191 17.2676C 60.4395 16.5879 59.4375 16.248 58.1133 16.248C 56.9531 16.248 55.9805 16.541 55.1953 17.127C 54.4102 17.7129 54.0176 18.4219 54.0176 19.2539L 50.748 19.2539C 50.748 18.3047 51.082 17.3906 51.75 16.5117C 52.4297 15.6211 53.3437 14.918 54.4922 14.4023C 55.6523 13.8867 56.9238 13.6289 58.3066 13.6289C 60.498 13.6289 62.2148 14.1797 63.457 15.2812C 64.6992 16.3711 65.3437 17.877 65.3906 19.7988L 65.3906 28.5527C 65.3906 30.2988 65.6133 31.6875 66.0586 32.7188L 66.0586 33L 62.6484 33ZM 57.252 30.5215C 58.2715 30.5215 59.2383 30.2578 60.1523 29.7305C 61.0664 29.2031 61.7285 28.5176 62.1387 27.6738L 62.1387 23.7715L 59.5898 23.7715C 55.6055 23.7715 53.6133 24.9375 53.6133 27.2695C 53.6133 28.2891 53.9531 29.0859 54.6328 29.6602C 55.3125 30.2344 56.1855 30.5215 57.252 30.5215ZM 86.5547 23.7012C 86.5547 26.5957 85.8926 28.9277 84.5684 30.6973C 83.2441 32.4668 81.4512 33.3516 79.1895 33.3516C 76.8809 33.3516 75.0645 32.6191 73.7402 31.1543L 73.7402 40.3125L 70.4883 40.3125L 70.4883 13.9805L 73.459 13.9805L 73.6172 16.0898C 74.9414 14.4492 76.7812 13.6289 79.1367 13.6289C 81.4219 13.6289 83.2266 14.4902 84.5508 16.2129C 85.8867 17.9355 86.5547 20.332 86.5547 23.4023L 86.5547 23.7012ZM 83.3027 23.332C 83.3027 21.1875 82.8457 19.4941 81.9316 18.252C 81.0176 17.0098 79.7637 16.3887 78.1699 16.3887C 76.2012 16.3887 74.7246 17.2617 73.7402 19.0078L 73.7402 28.0957C 74.7129 29.8301 76.2012 30.6973 78.2051 30.6973C 79.7637 30.6973 81 30.082 81.9141 28.8516C 82.8398 27.6094 83.3027 25.7695 83.3027 23.332ZM 100.143 33L 100.143 7.40625L 107.367 7.40625C 109.594 7.40625 111.563 7.89844 113.273 8.88281C 114.984 9.86719 116.303 11.2676 117.229 13.084C 118.166 14.9004 118.641 16.9863 118.652 19.3418L 118.652 20.9766C 118.652 23.3906 118.184 25.5059 117.246 27.3223C 116.32 29.1387 114.99 30.5332 113.256 31.5059C 111.533 32.4785 109.523 32.9766 107.227 33L 100.143 33ZM 103.518 10.1836L 103.518 30.2402L 107.068 30.2402C 109.67 30.2402 111.691 29.4316 113.133 27.8145C 114.586 26.1973 115.312 23.8945 115.312 20.9062L 115.312 19.4121C 115.312 16.5059 114.627 14.25 113.256 12.6445C 111.896 11.0273 109.963 10.207 107.455 10.1836L 103.518 10.1836ZM 122.396 23.3145C 122.396 21.4512 122.76 19.7754 123.486 18.2871C 124.225 16.7988 125.244 15.6504 126.545 14.8418C 127.857 14.0332 129.352 13.6289 131.027 13.6289C 133.617 13.6289 135.709 14.5254 137.303 16.3184C 138.908 18.1113 139.711 20.4961 139.711 23.4727L 139.711 23.7012C 139.711 25.5527 139.354 27.2168 138.639 28.6934C 137.936 30.1582 136.922 31.3008 135.598 32.1211C 134.285 32.9414 132.773 33.3516 131.062 33.3516C 128.484 33.3516 126.393 32.4551 124.787 30.6621C 123.193 28.8691 122.396 26.4961 122.396 23.543L 122.396 23.3145ZM 125.666 23.7012C 125.666 25.8105 126.152 27.5039 127.125 28.7812C 128.109 30.0586 129.422 30.6973 131.062 30.6973C 132.715 30.6973 134.027 30.0527 135 28.7637C 135.973 27.4629 136.459 25.6465 136.459 23.3145C 136.459 21.2285 135.961 19.541 134.965 18.252C 133.98 16.9512 132.668 16.3008 131.027 16.3008C 129.422 16.3008 128.127 16.9395 127.143 18.2168C 126.158 19.4941 125.666 21.3223 125.666 23.7012ZM 146.865 13.9805L 146.971 16.3711C 148.424 14.543 150.322 13.6289 152.666 13.6289C 156.686 13.6289 158.713 15.8965 158.748 20.4316L 158.748 33L 155.496 33L 155.496 20.4141C 155.484 19.043 155.168 18.0293 154.547 17.373C 153.937 16.7168 152.982 16.3887 151.682 16.3887C 150.627 16.3887 149.701 16.6699 148.904 17.2324C 148.107 17.7949 147.486 18.5332 147.041 19.4473L 147.041 33L 143.789 33L 143.789 13.9805L 146.865 13.9805ZM 171.545 33.3516C 168.967 33.3516 166.869 32.5078 165.252 30.8203C 163.635 29.1211 162.826 26.8535 162.826 24.0176L 162.826 23.4199C 162.826 21.5332 163.184 19.8516 163.898 18.375C 164.625 16.8867 165.633 15.7266 166.922 14.8945C 168.223 14.0508 169.629 13.6289 171.141 13.6289C 173.613 13.6289 175.535 14.4434 176.906 16.0723C 178.277 17.7012 178.963 20.0332 178.963 23.0684L 178.963 24.4219L 166.078 24.4219C 166.125 26.2969 166.67 27.8145 167.713 28.9746C 168.768 30.123 170.104 30.6973 171.721 30.6973C 172.869 30.6973 173.842 30.4629 174.639 29.9941C 175.436 29.5254 176.133 28.9043 176.73 28.1309L 178.717 29.6777C 177.123 32.127 174.732 33.3516 171.545 33.3516ZM 171.141 16.3008C 169.828 16.3008 168.727 16.7812 167.836 17.7422C 166.945 18.6914 166.395 20.0273 166.184 21.75L 175.711 21.75L 175.711 21.5039C 175.617 19.8516 175.172 18.5742 174.375 17.6719C 173.578 16.7578 172.5 16.3008 171.141 16.3008ZM 186.381 25.7754L 183.445 25.7754L 183.217 7.40625L 186.627 7.40625L 186.381 25.7754ZM 183.094 31.3652C 183.094 30.8379 183.252 30.3984 183.568 30.0469C 183.896 29.6836 184.377 29.502 185.01 29.502C 185.643 29.502 186.123 29.6836 186.451 30.0469C 186.779 30.3984 186.943 30.8379 186.943 31.3652C 186.943 31.8926 186.779 32.332 186.451 32.6836C 186.123 33.0234 185.643 33.1934 185.01 33.1934C 184.377 33.1934 183.896 33.0234 183.568 32.6836C 183.252 32.332 183.094 31.8926 183.094 31.3652Z"/>
<path id="path20_stroke" d="M 0 0L 54 0L 54 -3L 0 -3L 0 0Z"/>
<path id="path21_stroke" d="M 0 0L 579 0L 579 -3L 0 -3L 0 0Z"/>
<path id="path22_stroke" d="M 55.0607 1.06066C 55.6464 0.474874 55.6464 -0.474874 55.0607 -1.06066L 45.5147 -10.6066C 44.9289 -11.1924 43.9792 -11.1924 43.3934 -10.6066C 42.8076 -10.0208 42.8076 -9.07107 43.3934 -8.48528L 51.8787 0L 43.3934 8.48528C 42.8076 9.07107 42.8076 10.0208 43.3934 10.6066C 43.9792 11.1924 44.9289 11.1924 45.5147 10.6066L 55.0607 1.06066ZM 0 1.5L 54 1.5L 54 -1.5L 0 -1.5L 0 1.5Z"/>
</defs>
</svg>
