<svg width="937" height="940" viewBox="0 0 937 940" version="1.1" xmlns="http://www.w3.org/2000/svg" xmlns:xlink="http://www.w3.org/1999/xlink" xmlns:figma="http://www.figma.com/figma/ns">
<title>parent_process</title>
<desc>Created using Figma</desc>
<g id="Canvas" transform="translate(775 452)" figma:type="canvas">
<g id="Rectangle" style="mix-blend-mode:normal;" figma:type="rounded-rectangle">
<use xlink:href="#path0_fill" transform="translate(-775 -452)" fill="#C4C4C4" style="mix-blend-mode:normal;"/>
</g>
<g id="Process 1 (Parent)" style="mix-blend-mode:normal;" figma:type="text">
<use xlink:href="#path1_fill" transform="translate(-699.5 -396)" style="mix-blend-mode:normal;"/>
</g>
<g id="a = 10 b = 10 c = 20" style="mix-blend-mode:normal;" figma:type="text">
<use xlink:href="#path2_fill" transform="translate(-700 -300)" style="mix-blend-mode:normal;"/>
</g>
<g id="Rectangle" style="mix-blend-mode:normal;" figma:type="rounded-rectangle">
<use xlink:href="#path0_fill" transform="translate(-775 138)" fill="#C4C4C4" style="mix-blend-mode:normal;"/>
</g>
<g id="Process 1 (Parent)" style="mix-blend-mode:normal;" figma:type="text">
<use xlink:href="#path1_fill" transform="translate(-699.5 194)" style="mix-blend-mode:normal;"/>
</g>
<g id="a = 10 b = 10 c = 30" style="mix-blend-mode:normal;" figma:type="text">
<use xlink:href="#path3_fill" transform="translate(-700 290)" style="mix-blend-mode:normal;"/>
</g>
<g id="Rectangle" style="mix-blend-mode:normal;" figma:type="rounded-rectangle">
<use xlink:href="#path0_fill" transform="translate(-188 138)" fill="#C4C4C4" style="mix-blend-mode:normal;"/>
</g>
<g id="Process 2 (Child)" style="mix-blend-mode:normal;" figma:type="text">
<use xlink:href="#path4_fill" transform="translate(-112.5 194)" style="mix-blend-mode:normal;"/>
</g>
<g id="a = 20 b = 10 c = 30" style="mix-blend-mode:normal;" figma:type="text">
<use xlink:href="#path5_fill" transform="translate(-113 290)" style="mix-blend-mode:normal;"/>
</g>
<g id="Rectangle" style="mix-blend-mode:normal;" figma:type="rounded-rectangle">
<use xlink:href="#path0_fill" transform="translate(-188 -452)" fill="#C4C4C4" style="mix-blend-mode:normal;"/>
</g>
<g id="Process 2 (Child)" style="mix-blend-mode:normal;" figma:type="text">
<use xlink:href="#path4_fill" transform="translate(-112.5 -396)" style="mix-blend-mode:normal;"/>
</g>
<g id="a = 10 b = 10 c = 20" style="mix-blend-mode:normal;" figma:type="text">
<use xlink:href="#path2_fill" transform="translate(-113 -300)" style="mix-blend-mode:normal;"/>
</g>
<g id="Arrow" style="mix-blend-mode:normal;" figma:type="vector">
<use xlink:href="#path6_stroke" transform="translate(-379 -300)" style="mix-blend-mode:normal;"/>
</g>
<g id="fork" style="mix-blend-mode:normal;" figma:type="text">
<use xlink:href="#path7_fill" transform="translate(-328 -347)" style="mix-blend-mode:normal;"/>
</g>
<g id="Arrow 2" style="mix-blend-mode:normal;" figma:type="vector">
<use xlink:href="#path8_stroke" transform="matrix(6.24669e-17 1 -1 5.89806e-17 -623 -68)" style="mix-blend-mode:normal;"/>
</g>
<g id="Arrow 2" style="mix-blend-mode:normal;" figma:type="vector">
<use xlink:href="#path8_stroke" transform="matrix(6.24669e-17 1 -1 5.89806e-17 -13 -53.5)" style="mix-blend-mode:normal;"/>
</g>
<g id="c += 10" style="mix-blend-mode:normal;" figma:type="text">
<use xlink:href="#path9_fill" transform="translate(-746 3.5)" style="mix-blend-mode:normal;"/>
</g>
<g id="a += 10" style="mix-blend-mode:normal;" figma:type="text">
<use xlink:href="#path10_fill" transform="translate(-172 3.5)" style="mix-blend-mode:normal;"/>
</g>
</g>
<defs>
<path id="path0_fill" d="M 0 0L 350 0L 350 350L 0 350L 0 0Z"/>
<path id="path1_fill" d="M 4.23047 15.3203L 4.23047 22L 1.98047 22L 1.98047 4.9375L 8.27344 4.9375C 10.1406 4.9375 11.6016 5.41406 12.6562 6.36719C 13.7188 7.32031 14.25 8.58203 14.25 10.1523C 14.25 11.8086 13.7305 13.0859 12.6914 13.9844C 11.6602 14.875 10.1797 15.3203 8.25 15.3203L 4.23047 15.3203ZM 4.23047 13.4805L 8.27344 13.4805C 9.47656 13.4805 10.3984 13.1992 11.0391 12.6367C 11.6797 12.0664 12 11.2461 12 10.1758C 12 9.16016 11.6797 8.34766 11.0391 7.73828C 10.3984 7.12891 9.51953 6.8125 8.40234 6.78906L 4.23047 6.78906L 4.23047 13.4805ZM 22.9102 11.2656C 22.582 11.2109 22.2266 11.1836 21.8438 11.1836C 20.4219 11.1836 19.457 11.7891 18.9492 13L 18.9492 22L 16.7812 22L 16.7812 9.32031L 18.8906 9.32031L 18.9258 10.7852C 19.6367 9.65234 20.6445 9.08594 21.9492 9.08594C 22.3711 9.08594 22.6914 9.14062 22.9102 9.25L 22.9102 11.2656ZM 24.1055 15.543C 24.1055 14.3008 24.3477 13.1836 24.832 12.1914C 25.3242 11.1992 26.0039 10.4336 26.8711 9.89453C 27.7461 9.35547 28.7422 9.08594 29.8594 9.08594C 31.5859 9.08594 32.9805 9.68359 34.043 10.8789C 35.1133 12.0742 35.6484 13.6641 35.6484 15.6484L 35.6484 15.8008C 35.6484 17.0352 35.4102 18.1445 34.9336 19.1289C 34.4648 20.1055 33.7891 20.8672 32.9062 21.4141C 32.0312 21.9609 31.0234 22.2344 29.8828 22.2344C 28.1641 22.2344 26.7695 21.6367 25.6992 20.4414C 24.6367 19.2461 24.1055 17.6641 24.1055 15.6953L 24.1055 15.543ZM 26.2852 15.8008C 26.2852 17.207 26.6094 18.3359 27.2578 19.1875C 27.9141 20.0391 28.7891 20.4648 29.8828 20.4648C 30.9844 20.4648 31.8594 20.0352 32.5078 19.1758C 33.1562 18.3086 33.4805 17.0977 33.4805 15.543C 33.4805 14.1523 33.1484 13.0273 32.4844 12.168C 31.8281 11.3008 30.9531 10.8672 29.8594 10.8672C 28.7891 10.8672 27.9258 11.293 27.2695 12.1445C 26.6133 12.9961 26.2852 14.2148 26.2852 15.8008ZM 43.4531 20.4648C 44.2266 20.4648 44.9023 20.2305 45.4805 19.7617C 46.0586 19.293 46.3789 18.707 46.4414 18.0039L 48.4922 18.0039C 48.4531 18.7305 48.2031 19.4219 47.7422 20.0781C 47.2812 20.7344 46.6641 21.2578 45.8906 21.6484C 45.125 22.0391 44.3125 22.2344 43.4531 22.2344C 41.7266 22.2344 40.3516 21.6602 39.3281 20.5117C 38.3125 19.3555 37.8047 17.7773 37.8047 15.7773L 37.8047 15.4141C 37.8047 14.1797 38.0312 13.082 38.4844 12.1211C 38.9375 11.1602 39.5859 10.4141 40.4297 9.88281C 41.2812 9.35156 42.2852 9.08594 43.4414 9.08594C 44.8633 9.08594 46.043 9.51172 46.9805 10.3633C 47.9258 11.2148 48.4297 12.3203 48.4922 13.6797L 46.4414 13.6797C 46.3789 12.8594 46.0664 12.1875 45.5039 11.6641C 44.9492 11.1328 44.2617 10.8672 43.4414 10.8672C 42.3398 10.8672 41.4844 11.2656 40.875 12.0625C 40.2734 12.8516 39.9727 13.9961 39.9727 15.4961L 39.9727 15.9062C 39.9727 17.3672 40.2734 18.4922 40.875 19.2812C 41.4766 20.0703 42.3359 20.4648 43.4531 20.4648ZM 56.1914 22.2344C 54.4727 22.2344 53.0742 21.6719 51.9961 20.5469C 50.918 19.4141 50.3789 17.9023 50.3789 16.0117L 50.3789 15.6133C 50.3789 14.3555 50.6172 13.2344 51.0938 12.25C 51.5781 11.2578 52.25 10.4844 53.1094 9.92969C 53.9766 9.36719 54.9141 9.08594 55.9219 9.08594C 57.5703 9.08594 58.8516 9.62891 59.7656 10.7148C 60.6797 11.8008 61.1367 13.3555 61.1367 15.3789L 61.1367 16.2812L 52.5469 16.2812C 52.5781 17.5312 52.9414 18.543 53.6367 19.3164C 54.3398 20.082 55.2305 20.4648 56.3086 20.4648C 57.0742 20.4648 57.7227 20.3086 58.2539 19.9961C 58.7852 19.6836 59.25 19.2695 59.6484 18.7539L 60.9727 19.7852C 59.9102 21.418 58.3164 22.2344 56.1914 22.2344ZM 55.9219 10.8672C 55.0469 10.8672 54.3125 11.1875 53.7188 11.8281C 53.125 12.4609 52.7578 13.3516 52.6172 14.5L 58.9688 14.5L 58.9688 14.3359C 58.9062 13.2344 58.6094 12.3828 58.0781 11.7812C 57.5469 11.1719 56.8281 10.8672 55.9219 10.8672ZM 71.0391 18.6367C 71.0391 18.0508 70.8164 17.5977 70.3711 17.2773C 69.9336 16.9492 69.1641 16.668 68.0625 16.4336C 66.9688 16.1992 66.0977 15.918 65.4492 15.5898C 64.8086 15.2617 64.332 14.8711 64.0195 14.418C 63.7148 13.9648 63.5625 13.4258 63.5625 12.8008C 63.5625 11.7617 64 10.8828 64.875 10.1641C 65.7578 9.44531 66.8828 9.08594 68.25 9.08594C 69.6875 9.08594 70.8516 9.45703 71.7422 10.1992C 72.6406 10.9414 73.0898 11.8906 73.0898 13.0469L 70.9102 13.0469C 70.9102 12.4531 70.6562 11.9414 70.1484 11.5117C 69.6484 11.082 69.0156 10.8672 68.25 10.8672C 67.4609 10.8672 66.8438 11.0391 66.3984 11.3828C 65.9531 11.7266 65.7305 12.1758 65.7305 12.7305C 65.7305 13.2539 65.9375 13.6484 66.3516 13.9141C 66.7656 14.1797 67.5117 14.4336 68.5898 14.6758C 69.6758 14.918 70.5547 15.207 71.2266 15.543C 71.8984 15.8789 72.3945 16.2852 72.7148 16.7617C 73.043 17.2305 73.207 17.8047 73.207 18.4844C 73.207 19.6172 72.7539 20.5273 71.8477 21.2148C 70.9414 21.8945 69.7656 22.2344 68.3203 22.2344C 67.3047 22.2344 66.4062 22.0547 65.625 21.6953C 64.8438 21.3359 64.2305 20.8359 63.7852 20.1953C 63.3477 19.5469 63.1289 18.8477 63.1289 18.0977L 65.2969 18.0977C 65.3359 18.8242 65.625 19.4023 66.1641 19.832C 66.7109 20.2539 67.4297 20.4648 68.3203 20.4648C 69.1406 20.4648 69.7969 20.3008 70.2891 19.9727C 70.7891 19.6367 71.0391 19.1914 71.0391 18.6367ZM 83.4141 18.6367C 83.4141 18.0508 83.1914 17.5977 82.7461 17.2773C 82.3086 16.9492 81.5391 16.668 80.4375 16.4336C 79.3438 16.1992 78.4727 15.918 77.8242 15.5898C 77.1836 15.2617 76.707 14.8711 76.3945 14.418C 76.0898 13.9648 75.9375 13.4258 75.9375 12.8008C 75.9375 11.7617 76.375 10.8828 77.25 10.1641C 78.1328 9.44531 79.2578 9.08594 80.625 9.08594C 82.0625 9.08594 83.2266 9.45703 84.1172 10.1992C 85.0156 10.9414 85.4648 11.8906 85.4648 13.0469L 83.2852 13.0469C 83.2852 12.4531 83.0312 11.9414 82.5234 11.5117C 82.0234 11.082 81.3906 10.8672 80.625 10.8672C 79.8359 10.8672 79.2188 11.0391 78.7734 11.3828C 78.3281 11.7266 78.1055 12.1758 78.1055 12.7305C 78.1055 13.2539 78.3125 13.6484 78.7266 13.9141C 79.1406 14.1797 79.8867 14.4336 80.9648 14.6758C 82.0508 14.918 82.9297 15.207 83.6016 15.543C 84.2734 15.8789 84.7695 16.2852 85.0898 16.7617C 85.418 17.2305 85.582 17.8047 85.582 18.4844C 85.582 19.6172 85.1289 20.5273 84.2227 21.2148C 83.3164 21.8945 82.1406 22.2344 80.6953 22.2344C 79.6797 22.2344 78.7812 22.0547 78 21.6953C 77.2188 21.3359 76.6055 20.8359 76.1602 20.1953C 75.7227 19.5469 75.5039 18.8477 75.5039 18.0977L 77.6719 18.0977C 77.7109 18.8242 78 19.4023 78.5391 19.832C 79.0859 20.2539 79.8047 20.4648 80.6953 20.4648C 81.5156 20.4648 82.1719 20.3008 82.6641 19.9727C 83.1641 19.6367 83.4141 19.1914 83.4141 18.6367ZM 101.262 22L 99.082 22L 99.082 7.55078L 94.7109 9.15625L 94.7109 7.1875L 100.922 4.85547L 101.262 4.85547L 101.262 22ZM 113.707 15.0742C 113.707 13.3086 113.941 11.6133 114.41 9.98828C 114.887 8.36328 115.594 6.88672 116.531 5.55859C 117.469 4.23047 118.441 3.29297 119.449 2.74609L 119.895 4.17578C 118.754 5.05078 117.816 6.38672 117.082 8.18359C 116.355 9.98047 115.957 11.9922 115.887 14.2188L 115.875 15.2148C 115.875 18.2305 116.426 20.8477 117.527 23.0664C 118.191 24.3945 118.98 25.4336 119.895 26.1836L 119.449 27.5078C 118.41 26.9297 117.418 25.9609 116.473 24.6016C 114.629 21.9453 113.707 18.7695 113.707 15.0742ZM 124.582 15.3203L 124.582 22L 122.332 22L 122.332 4.9375L 128.625 4.9375C 130.492 4.9375 131.953 5.41406 133.008 6.36719C 134.07 7.32031 134.602 8.58203 134.602 10.1523C 134.602 11.8086 134.082 13.0859 133.043 13.9844C 132.012 14.875 130.531 15.3203 128.602 15.3203L 124.582 15.3203ZM 124.582 13.4805L 128.625 13.4805C 129.828 13.4805 130.75 13.1992 131.391 12.6367C 132.031 12.0664 132.352 11.2461 132.352 10.1758C 132.352 9.16016 132.031 8.34766 131.391 7.73828C 130.75 7.12891 129.871 6.8125 128.754 6.78906L 124.582 6.78906L 124.582 13.4805ZM 144.844 22C 144.719 21.75 144.617 21.3047 144.539 20.6641C 143.531 21.7109 142.328 22.2344 140.93 22.2344C 139.68 22.2344 138.652 21.8828 137.848 21.1797C 137.051 20.4688 136.652 19.5703 136.652 18.4844C 136.652 17.1641 137.152 16.1406 138.152 15.4141C 139.16 14.6797 140.574 14.3125 142.395 14.3125L 144.504 14.3125L 144.504 13.3164C 144.504 12.5586 144.277 11.957 143.824 11.5117C 143.371 11.0586 142.703 10.832 141.82 10.832C 141.047 10.832 140.398 11.0273 139.875 11.418C 139.352 11.8086 139.09 12.2812 139.09 12.8359L 136.91 12.8359C 136.91 12.2031 137.133 11.5938 137.578 11.0078C 138.031 10.4141 138.641 9.94531 139.406 9.60156C 140.18 9.25781 141.027 9.08594 141.949 9.08594C 143.41 9.08594 144.555 9.45312 145.383 10.1875C 146.211 10.9141 146.641 11.918 146.672 13.1992L 146.672 19.0352C 146.672 20.1992 146.82 21.125 147.117 21.8125L 147.117 22L 144.844 22ZM 141.246 20.3477C 141.926 20.3477 142.57 20.1719 143.18 19.8203C 143.789 19.4688 144.23 19.0117 144.504 18.4492L 144.504 15.8477L 142.805 15.8477C 140.148 15.8477 138.82 16.625 138.82 18.1797C 138.82 18.8594 139.047 19.3906 139.5 19.7734C 139.953 20.1562 140.535 20.3477 141.246 20.3477ZM 156.199 11.2656C 155.871 11.2109 155.516 11.1836 155.133 11.1836C 153.711 11.1836 152.746 11.7891 152.238 13L 152.238 22L 150.07 22L 150.07 9.32031L 152.18 9.32031L 152.215 10.7852C 152.926 9.65234 153.934 9.08594 155.238 9.08594C 155.66 9.08594 155.98 9.14062 156.199 9.25L 156.199 11.2656ZM 163.254 22.2344C 161.535 22.2344 160.137 21.6719 159.059 20.5469C 157.98 19.4141 157.441 17.9023 157.441 16.0117L 157.441 15.6133C 157.441 14.3555 157.68 13.2344 158.156 12.25C 158.641 11.2578 159.312 10.4844 160.172 9.92969C 161.039 9.36719 161.977 9.08594 162.984 9.08594C 164.633 9.08594 165.914 9.62891 166.828 10.7148C 167.742 11.8008 168.199 13.3555 168.199 15.3789L 168.199 16.2812L 159.609 16.2812C 159.641 17.5312 160.004 18.543 160.699 19.3164C 161.402 20.082 162.293 20.4648 163.371 20.4648C 164.137 20.4648 164.785 20.3086 165.316 19.9961C 165.848 19.6836 166.312 19.2695 166.711 18.7539L 168.035 19.7852C 166.973 21.418 165.379 22.2344 163.254 22.2344ZM 162.984 10.8672C 162.109 10.8672 161.375 11.1875 160.781 11.8281C 160.188 12.4609 159.82 13.3516 159.68 14.5L 166.031 14.5L 166.031 14.3359C 165.969 13.2344 165.672 12.3828 165.141 11.7812C 164.609 11.1719 163.891 10.8672 162.984 10.8672ZM 172.77 9.32031L 172.84 10.9141C 173.809 9.69531 175.074 9.08594 176.637 9.08594C 179.316 9.08594 180.668 10.5977 180.691 13.6211L 180.691 22L 178.523 22L 178.523 13.6094C 178.516 12.6953 178.305 12.0195 177.891 11.582C 177.484 11.1445 176.848 10.9258 175.98 10.9258C 175.277 10.9258 174.66 11.1133 174.129 11.4883C 173.598 11.8633 173.184 12.3555 172.887 12.9648L 172.887 22L 170.719 22L 170.719 9.32031L 172.77 9.32031ZM 186.902 6.25L 186.902 9.32031L 189.27 9.32031L 189.27 10.9961L 186.902 10.9961L 186.902 18.8594C 186.902 19.3672 187.008 19.75 187.219 20.0078C 187.43 20.2578 187.789 20.3828 188.297 20.3828C 188.547 20.3828 188.891 20.3359 189.328 20.2422L 189.328 22C 188.758 22.1562 188.203 22.2344 187.664 22.2344C 186.695 22.2344 185.965 21.9414 185.473 21.3555C 184.98 20.7695 184.734 19.9375 184.734 18.8594L 184.734 10.9961L 182.426 10.9961L 182.426 9.32031L 184.734 9.32031L 184.734 6.25L 186.902 6.25ZM 196.816 15.1914C 196.816 16.9336 196.586 18.6055 196.125 20.207C 195.672 21.8008 194.973 23.2734 194.027 24.625C 193.09 25.9766 192.105 26.9375 191.074 27.5078L 190.617 26.1836C 191.82 25.2617 192.785 23.832 193.512 21.8945C 194.246 19.9492 194.621 17.793 194.637 15.4258L 194.637 15.0508C 194.637 13.4102 194.465 11.8867 194.121 10.4805C 193.777 9.06641 193.297 7.80078 192.68 6.68359C 192.07 5.56641 191.383 4.69531 190.617 4.07031L 191.074 2.74609C 192.105 3.31641 193.086 4.26953 194.016 5.60547C 194.953 6.94141 195.652 8.41406 196.113 10.0234C 196.582 11.6328 196.816 13.3555 196.816 15.1914Z"/>
<path id="path2_fill" d="M 9.46875 22C 9.34375 21.75 9.24219 21.3047 9.16406 20.6641C 8.15625 21.7109 6.95312 22.2344 5.55469 22.2344C 4.30469 22.2344 3.27734 21.8828 2.47266 21.1797C 1.67578 20.4688 1.27734 19.5703 1.27734 18.4844C 1.27734 17.1641 1.77734 16.1406 2.77734 15.4141C 3.78516 14.6797 5.19922 14.3125 7.01953 14.3125L 9.12891 14.3125L 9.12891 13.3164C 9.12891 12.5586 8.90234 11.957 8.44922 11.5117C 7.99609 11.0586 7.32812 10.832 6.44531 10.832C 5.67188 10.832 5.02344 11.0273 4.5 11.418C 3.97656 11.8086 3.71484 12.2812 3.71484 12.8359L 1.53516 12.8359C 1.53516 12.2031 1.75781 11.5938 2.20312 11.0078C 2.65625 10.4141 3.26562 9.94531 4.03125 9.60156C 4.80469 9.25781 5.65234 9.08594 6.57422 9.08594C 8.03516 9.08594 9.17969 9.45312 10.0078 10.1875C 10.8359 10.9141 11.2656 11.918 11.2969 13.1992L 11.2969 19.0352C 11.2969 20.1992 11.4453 21.125 11.7422 21.8125L 11.7422 22L 9.46875 22ZM 5.87109 20.3477C 6.55078 20.3477 7.19531 20.1719 7.80469 19.8203C 8.41406 19.4688 8.85547 19.0117 9.12891 18.4492L 9.12891 15.8477L 7.42969 15.8477C 4.77344 15.8477 3.44531 16.625 3.44531 18.1797C 3.44531 18.8594 3.67188 19.3906 4.125 19.7734C 4.57812 20.1562 5.16016 20.3477 5.87109 20.3477ZM 30.5625 12.4609L 20.7891 12.4609L 20.7891 10.5742L 30.5625 10.5742L 30.5625 12.4609ZM 30.5625 17.3242L 20.7891 17.3242L 20.7891 15.4492L 30.5625 15.4492L 30.5625 17.3242ZM 46.6758 22L 44.4961 22L 44.4961 7.55078L 40.125 9.15625L 40.125 7.1875L 46.3359 4.85547L 46.6758 4.85547L 46.6758 22ZM 63.7266 14.7227C 63.7266 17.2617 63.293 19.1484 62.4258 20.3828C 61.5586 21.6172 60.2031 22.2344 58.3594 22.2344C 56.5391 22.2344 55.1914 21.6328 54.3164 20.4297C 53.4414 19.2188 52.9883 17.4141 52.957 15.0156L 52.957 12.1211C 52.957 9.61328 53.3906 7.75 54.2578 6.53125C 55.125 5.3125 56.4844 4.70312 58.3359 4.70312C 60.1719 4.70312 61.5234 5.29297 62.3906 6.47266C 63.2578 7.64453 63.7031 9.45703 63.7266 11.9102L 63.7266 14.7227ZM 61.5586 11.7578C 61.5586 9.92188 61.3008 8.58594 60.7852 7.75C 60.2695 6.90625 59.4531 6.48438 58.3359 6.48438C 57.2266 6.48438 56.418 6.90234 55.9102 7.73828C 55.4023 8.57422 55.1406 9.85938 55.125 11.5938L 55.125 15.0625C 55.125 16.9062 55.3906 18.2695 55.9219 19.1523C 56.4609 20.0273 57.2734 20.4648 58.3594 20.4648C 59.4297 20.4648 60.2227 20.0508 60.7383 19.2227C 61.2617 18.3945 61.5352 17.0898 61.5586 15.3086L 61.5586 11.7578ZM 12.375 72.8008C 12.375 74.7383 11.9297 76.2969 11.0391 77.4766C 10.1484 78.6484 8.95312 79.2344 7.45312 79.2344C 5.85156 79.2344 4.61328 78.668 3.73828 77.5352L 3.63281 79L 1.64062 79L 1.64062 61L 3.80859 61L 3.80859 67.7148C 4.68359 66.6289 5.89062 66.0859 7.42969 66.0859C 8.96875 66.0859 10.1758 66.668 11.0508 67.832C 11.9336 68.9961 12.375 70.5898 12.375 72.6133L 12.375 72.8008ZM 10.207 72.5547C 10.207 71.0781 9.92188 69.9375 9.35156 69.1328C 8.78125 68.3281 7.96094 67.9258 6.89062 67.9258C 5.46094 67.9258 4.43359 68.5898 3.80859 69.918L 3.80859 75.4023C 4.47266 76.7305 5.50781 77.3945 6.91406 77.3945C 7.95312 77.3945 8.76172 76.9922 9.33984 76.1875C 9.91797 75.3828 10.207 74.1719 10.207 72.5547ZM 30.9844 69.4609L 21.2109 69.4609L 21.2109 67.5742L 30.9844 67.5742L 30.9844 69.4609ZM 30.9844 74.3242L 21.2109 74.3242L 21.2109 72.4492L 30.9844 72.4492L 30.9844 74.3242ZM 47.0977 79L 44.918 79L 44.918 64.5508L 40.5469 66.1562L 40.5469 64.1875L 46.7578 61.8555L 47.0977 61.8555L 47.0977 79ZM 64.1484 71.7227C 64.1484 74.2617 63.7148 76.1484 62.8477 77.3828C 61.9805 78.6172 60.625 79.2344 58.7812 79.2344C 56.9609 79.2344 55.6133 78.6328 54.7383 77.4297C 53.8633 76.2188 53.4102 74.4141 53.3789 72.0156L 53.3789 69.1211C 53.3789 66.6133 53.8125 64.75 54.6797 63.5312C 55.5469 62.3125 56.9062 61.7031 58.7578 61.7031C 60.5938 61.7031 61.9453 62.293 62.8125 63.4727C 63.6797 64.6445 64.125 66.457 64.1484 68.9102L 64.1484 71.7227ZM 61.9805 68.7578C 61.9805 66.9219 61.7227 65.5859 61.207 64.75C 60.6914 63.9062 59.875 63.4844 58.7578 63.4844C 57.6484 63.4844 56.8398 63.9023 56.332 64.7383C 55.8242 65.5742 55.5625 66.8594 55.5469 68.5938L 55.5469 72.0625C 55.5469 73.9062 55.8125 75.2695 56.3438 76.1523C 56.8828 77.0273 57.6953 77.4648 58.7812 77.4648C 59.8516 77.4648 60.6445 77.0508 61.1602 76.2227C 61.6836 75.3945 61.957 74.0898 61.9805 72.3086L 61.9805 68.7578ZM 6.72656 133.465C 7.5 133.465 8.17578 133.23 8.75391 132.762C 9.33203 132.293 9.65234 131.707 9.71484 131.004L 11.7656 131.004C 11.7266 131.73 11.4766 132.422 11.0156 133.078C 10.5547 133.734 9.9375 134.258 9.16406 134.648C 8.39844 135.039 7.58594 135.234 6.72656 135.234C 5 135.234 3.625 134.66 2.60156 133.512C 1.58594 132.355 1.07812 130.777 1.07812 128.777L 1.07812 128.414C 1.07812 127.18 1.30469 126.082 1.75781 125.121C 2.21094 124.16 2.85938 123.414 3.70312 122.883C 4.55469 122.352 5.55859 122.086 6.71484 122.086C 8.13672 122.086 9.31641 122.512 10.2539 123.363C 11.1992 124.215 11.7031 125.32 11.7656 126.68L 9.71484 126.68C 9.65234 125.859 9.33984 125.188 8.77734 124.664C 8.22266 124.133 7.53516 123.867 6.71484 123.867C 5.61328 123.867 4.75781 124.266 4.14844 125.062C 3.54688 125.852 3.24609 126.996 3.24609 128.496L 3.24609 128.906C 3.24609 130.367 3.54688 131.492 4.14844 132.281C 4.75 133.07 5.60938 133.465 6.72656 133.465ZM 30.0703 125.461L 20.2969 125.461L 20.2969 123.574L 30.0703 123.574L 30.0703 125.461ZM 30.0703 130.324L 20.2969 130.324L 20.2969 128.449L 30.0703 128.449L 30.0703 130.324ZM 50.2383 135L 39.0586 135L 39.0586 133.441L 44.9648 126.879C 45.8398 125.887 46.4414 125.082 46.7695 124.465C 47.1055 123.84 47.2734 123.195 47.2734 122.531C 47.2734 121.641 47.0039 120.91 46.4648 120.34C 45.9258 119.77 45.207 119.484 44.3086 119.484C 43.2305 119.484 42.3906 119.793 41.7891 120.41C 41.1953 121.02 40.8984 121.871 40.8984 122.965L 38.7305 122.965C 38.7305 121.395 39.2344 120.125 40.2422 119.156C 41.2578 118.188 42.6133 117.703 44.3086 117.703C 45.8945 117.703 47.1484 118.121 48.0703 118.957C 48.9922 119.785 49.4531 120.891 49.4531 122.273C 49.4531 123.953 48.3828 125.953 46.2422 128.273L 41.6719 133.23L 50.2383 133.23L 50.2383 135ZM 63.2344 127.723C 63.2344 130.262 62.8008 132.148 61.9336 133.383C 61.0664 134.617 59.7109 135.234 57.8672 135.234C 56.0469 135.234 54.6992 134.633 53.8242 133.43C 52.9492 132.219 52.4961 130.414 52.4648 128.016L 52.4648 125.121C 52.4648 122.613 52.8984 120.75 53.7656 119.531C 54.6328 118.312 55.9922 117.703 57.8438 117.703C 59.6797 117.703 61.0312 118.293 61.8984 119.473C 62.7656 120.645 63.2109 122.457 63.2344 124.91L 63.2344 127.723ZM 61.0664 124.758C 61.0664 122.922 60.8086 121.586 60.293 120.75C 59.7773 119.906 58.9609 119.484 57.8438 119.484C 56.7344 119.484 55.9258 119.902 55.418 120.738C 54.9102 121.574 54.6484 122.859 54.6328 124.594L 54.6328 128.062C 54.6328 129.906 54.8984 131.27 55.4297 132.152C 55.9688 133.027 56.7812 133.465 57.8672 133.465C 58.9375 133.465 59.7305 133.051 60.2461 132.223C 60.7695 131.395 61.043 130.09 61.0664 128.309L 61.0664 124.758Z"/>
<path id="path3_fill" d="M 9.46875 22C 9.34375 21.75 9.24219 21.3047 9.16406 20.6641C 8.15625 21.7109 6.95312 22.2344 5.55469 22.2344C 4.30469 22.2344 3.27734 21.8828 2.47266 21.1797C 1.67578 20.4688 1.27734 19.5703 1.27734 18.4844C 1.27734 17.1641 1.77734 16.1406 2.77734 15.4141C 3.78516 14.6797 5.19922 14.3125 7.01953 14.3125L 9.12891 14.3125L 9.12891 13.3164C 9.12891 12.5586 8.90234 11.957 8.44922 11.5117C 7.99609 11.0586 7.32812 10.832 6.44531 10.832C 5.67188 10.832 5.02344 11.0273 4.5 11.418C 3.97656 11.8086 3.71484 12.2812 3.71484 12.8359L 1.53516 12.8359C 1.53516 12.2031 1.75781 11.5938 2.20312 11.0078C 2.65625 10.4141 3.26562 9.94531 4.03125 9.60156C 4.80469 9.25781 5.65234 9.08594 6.57422 9.08594C 8.03516 9.08594 9.17969 9.45312 10.0078 10.1875C 10.8359 10.9141 11.2656 11.918 11.2969 13.1992L 11.2969 19.0352C 11.2969 20.1992 11.4453 21.125 11.7422 21.8125L 11.7422 22L 9.46875 22ZM 5.87109 20.3477C 6.55078 20.3477 7.19531 20.1719 7.80469 19.8203C 8.41406 19.4688 8.85547 19.0117 9.12891 18.4492L 9.12891 15.8477L 7.42969 15.8477C 4.77344 15.8477 3.44531 16.625 3.44531 18.1797C 3.44531 18.8594 3.67188 19.3906 4.125 19.7734C 4.57812 20.1562 5.16016 20.3477 5.87109 20.3477ZM 30.5625 12.4609L 20.7891 12.4609L 20.7891 10.5742L 30.5625 10.5742L 30.5625 12.4609ZM 30.5625 17.3242L 20.7891 17.3242L 20.7891 15.4492L 30.5625 15.4492L 30.5625 17.3242ZM 46.6758 22L 44.4961 22L 44.4961 7.55078L 40.125 9.15625L 40.125 7.1875L 46.3359 4.85547L 46.6758 4.85547L 46.6758 22ZM 63.7266 14.7227C 63.7266 17.2617 63.293 19.1484 62.4258 20.3828C 61.5586 21.6172 60.2031 22.2344 58.3594 22.2344C 56.5391 22.2344 55.1914 21.6328 54.3164 20.4297C 53.4414 19.2188 52.9883 17.4141 52.957 15.0156L 52.957 12.1211C 52.957 9.61328 53.3906 7.75 54.2578 6.53125C 55.125 5.3125 56.4844 4.70312 58.3359 4.70312C 60.1719 4.70312 61.5234 5.29297 62.3906 6.47266C 63.2578 7.64453 63.7031 9.45703 63.7266 11.9102L 63.7266 14.7227ZM 61.5586 11.7578C 61.5586 9.92188 61.3008 8.58594 60.7852 7.75C 60.2695 6.90625 59.4531 6.48438 58.3359 6.48438C 57.2266 6.48438 56.418 6.90234 55.9102 7.73828C 55.4023 8.57422 55.1406 9.85938 55.125 11.5938L 55.125 15.0625C 55.125 16.9062 55.3906 18.2695 55.9219 19.1523C 56.4609 20.0273 57.2734 20.4648 58.3594 20.4648C 59.4297 20.4648 60.2227 20.0508 60.7383 19.2227C 61.2617 18.3945 61.5352 17.0898 61.5586 15.3086L 61.5586 11.7578ZM 12.375 72.8008C 12.375 74.7383 11.9297 76.2969 11.0391 77.4766C 10.1484 78.6484 8.95312 79.2344 7.45312 79.2344C 5.85156 79.2344 4.61328 78.668 3.73828 77.5352L 3.63281 79L 1.64062 79L 1.64062 61L 3.80859 61L 3.80859 67.7148C 4.68359 66.6289 5.89062 66.0859 7.42969 66.0859C 8.96875 66.0859 10.1758 66.668 11.0508 67.832C 11.9336 68.9961 12.375 70.5898 12.375 72.6133L 12.375 72.8008ZM 10.207 72.5547C 10.207 71.0781 9.92188 69.9375 9.35156 69.1328C 8.78125 68.3281 7.96094 67.9258 6.89062 67.9258C 5.46094 67.9258 4.43359 68.5898 3.80859 69.918L 3.80859 75.4023C 4.47266 76.7305 5.50781 77.3945 6.91406 77.3945C 7.95312 77.3945 8.76172 76.9922 9.33984 76.1875C 9.91797 75.3828 10.207 74.1719 10.207 72.5547ZM 30.9844 69.4609L 21.2109 69.4609L 21.2109 67.5742L 30.9844 67.5742L 30.9844 69.4609ZM 30.9844 74.3242L 21.2109 74.3242L 21.2109 72.4492L 30.9844 72.4492L 30.9844 74.3242ZM 47.0977 79L 44.918 79L 44.918 64.5508L 40.5469 66.1562L 40.5469 64.1875L 46.7578 61.8555L 47.0977 61.8555L 47.0977 79ZM 64.1484 71.7227C 64.1484 74.2617 63.7148 76.1484 62.8477 77.3828C 61.9805 78.6172 60.625 79.2344 58.7812 79.2344C 56.9609 79.2344 55.6133 78.6328 54.7383 77.4297C 53.8633 76.2188 53.4102 74.4141 53.3789 72.0156L 53.3789 69.1211C 53.3789 66.6133 53.8125 64.75 54.6797 63.5312C 55.5469 62.3125 56.9062 61.7031 58.7578 61.7031C 60.5938 61.7031 61.9453 62.293 62.8125 63.4727C 63.6797 64.6445 64.125 66.457 64.1484 68.9102L 64.1484 71.7227ZM 61.9805 68.7578C 61.9805 66.9219 61.7227 65.5859 61.207 64.75C 60.6914 63.9062 59.875 63.4844 58.7578 63.4844C 57.6484 63.4844 56.8398 63.9023 56.332 64.7383C 55.8242 65.5742 55.5625 66.8594 55.5469 68.5938L 55.5469 72.0625C 55.5469 73.9062 55.8125 75.2695 56.3438 76.1523C 56.8828 77.0273 57.6953 77.4648 58.7812 77.4648C 59.8516 77.4648 60.6445 77.0508 61.1602 76.2227C 61.6836 75.3945 61.957 74.0898 61.9805 72.3086L 61.9805 68.7578ZM 6.72656 133.465C 7.5 133.465 8.17578 133.23 8.75391 132.762C 9.33203 132.293 9.65234 131.707 9.71484 131.004L 11.7656 131.004C 11.7266 131.73 11.4766 132.422 11.0156 133.078C 10.5547 133.734 9.9375 134.258 9.16406 134.648C 8.39844 135.039 7.58594 135.234 6.72656 135.234C 5 135.234 3.625 134.66 2.60156 133.512C 1.58594 132.355 1.07812 130.777 1.07812 128.777L 1.07812 128.414C 1.07812 127.18 1.30469 126.082 1.75781 125.121C 2.21094 124.16 2.85938 123.414 3.70312 122.883C 4.55469 122.352 5.55859 122.086 6.71484 122.086C 8.13672 122.086 9.31641 122.512 10.2539 123.363C 11.1992 124.215 11.7031 125.32 11.7656 126.68L 9.71484 126.68C 9.65234 125.859 9.33984 125.188 8.77734 124.664C 8.22266 124.133 7.53516 123.867 6.71484 123.867C 5.61328 123.867 4.75781 124.266 4.14844 125.062C 3.54688 125.852 3.24609 126.996 3.24609 128.496L 3.24609 128.906C 3.24609 130.367 3.54688 131.492 4.14844 132.281C 4.75 133.07 5.60938 133.465 6.72656 133.465ZM 30.0703 125.461L 20.2969 125.461L 20.2969 123.574L 30.0703 123.574L 30.0703 125.461ZM 30.0703 130.324L 20.2969 130.324L 20.2969 128.449L 30.0703 128.449L 30.0703 130.324ZM 42.2109 125.414L 43.8398 125.414C 44.8633 125.398 45.668 125.129 46.2539 124.605C 46.8398 124.082 47.1328 123.375 47.1328 122.484C 47.1328 120.484 46.1367 119.484 44.1445 119.484C 43.207 119.484 42.457 119.754 41.8945 120.293C 41.3398 120.824 41.0625 121.531 41.0625 122.414L 38.8945 122.414C 38.8945 121.062 39.3867 119.941 40.3711 119.051C 41.3633 118.152 42.6211 117.703 44.1445 117.703C 45.7539 117.703 47.0156 118.129 47.9297 118.98C 48.8438 119.832 49.3008 121.016 49.3008 122.531C 49.3008 123.273 49.0586 123.992 48.5742 124.688C 48.0977 125.383 47.4453 125.902 46.6172 126.246C 47.5547 126.543 48.2773 127.035 48.7852 127.723C 49.3008 128.41 49.5586 129.25 49.5586 130.242C 49.5586 131.773 49.0586 132.988 48.0586 133.887C 47.0586 134.785 45.7578 135.234 44.1562 135.234C 42.5547 135.234 41.25 134.801 40.2422 133.934C 39.2422 133.066 38.7422 131.922 38.7422 130.5L 40.9219 130.5C 40.9219 131.398 41.2148 132.117 41.8008 132.656C 42.3867 133.195 43.1719 133.465 44.1562 133.465C 45.2031 133.465 46.0039 133.191 46.5586 132.645C 47.1133 132.098 47.3906 131.312 47.3906 130.289C 47.3906 129.297 47.0859 128.535 46.4766 128.004C 45.8672 127.473 44.9883 127.199 43.8398 127.184L 42.2109 127.184L 42.2109 125.414ZM 63.2344 127.723C 63.2344 130.262 62.8008 132.148 61.9336 133.383C 61.0664 134.617 59.7109 135.234 57.8672 135.234C 56.0469 135.234 54.6992 134.633 53.8242 133.43C 52.9492 132.219 52.4961 130.414 52.4648 128.016L 52.4648 125.121C 52.4648 122.613 52.8984 120.75 53.7656 119.531C 54.6328 118.312 55.9922 117.703 57.8438 117.703C 59.6797 117.703 61.0312 118.293 61.8984 119.473C 62.7656 120.645 63.2109 122.457 63.2344 124.91L 63.2344 127.723ZM 61.0664 124.758C 61.0664 122.922 60.8086 121.586 60.293 120.75C 59.7773 119.906 58.9609 119.484 57.8438 119.484C 56.7344 119.484 55.9258 119.902 55.418 120.738C 54.9102 121.574 54.6484 122.859 54.6328 124.594L 54.6328 128.062C 54.6328 129.906 54.8984 131.27 55.4297 132.152C 55.9688 133.027 56.7812 133.465 57.8672 133.465C 58.9375 133.465 59.7305 133.051 60.2461 132.223C 60.7695 131.395 61.043 130.09 61.0664 128.309L 61.0664 124.758Z"/>
<path id="path4_fill" d="M 4.23047 15.3203L 4.23047 22L 1.98047 22L 1.98047 4.9375L 8.27344 4.9375C 10.1406 4.9375 11.6016 5.41406 12.6562 6.36719C 13.7188 7.32031 14.25 8.58203 14.25 10.1523C 14.25 11.8086 13.7305 13.0859 12.6914 13.9844C 11.6602 14.875 10.1797 15.3203 8.25 15.3203L 4.23047 15.3203ZM 4.23047 13.4805L 8.27344 13.4805C 9.47656 13.4805 10.3984 13.1992 11.0391 12.6367C 11.6797 12.0664 12 11.2461 12 10.1758C 12 9.16016 11.6797 8.34766 11.0391 7.73828C 10.3984 7.12891 9.51953 6.8125 8.40234 6.78906L 4.23047 6.78906L 4.23047 13.4805ZM 22.9102 11.2656C 22.582 11.2109 22.2266 11.1836 21.8438 11.1836C 20.4219 11.1836 19.457 11.7891 18.9492 13L 18.9492 22L 16.7812 22L 16.7812 9.32031L 18.8906 9.32031L 18.9258 10.7852C 19.6367 9.65234 20.6445 9.08594 21.9492 9.08594C 22.3711 9.08594 22.6914 9.14062 22.9102 9.25L 22.9102 11.2656ZM 24.1055 15.543C 24.1055 14.3008 24.3477 13.1836 24.832 12.1914C 25.3242 11.1992 26.0039 10.4336 26.8711 9.89453C 27.7461 9.35547 28.7422 9.08594 29.8594 9.08594C 31.5859 9.08594 32.9805 9.68359 34.043 10.8789C 35.1133 12.0742 35.6484 13.6641 35.6484 15.6484L 35.6484 15.8008C 35.6484 17.0352 35.4102 18.1445 34.9336 19.1289C 34.4648 20.1055 33.7891 20.8672 32.9062 21.4141C 32.0312 21.9609 31.0234 22.2344 29.8828 22.2344C 28.1641 22.2344 26.7695 21.6367 25.6992 20.4414C 24.6367 19.2461 24.1055 17.6641 24.1055 15.6953L 24.1055 15.543ZM 26.2852 15.8008C 26.2852 17.207 26.6094 18.3359 27.2578 19.1875C 27.9141 20.0391 28.7891 20.4648 29.8828 20.4648C 30.9844 20.4648 31.8594 20.0352 32.5078 19.1758C 33.1562 18.3086 33.4805 17.0977 33.4805 15.543C 33.4805 14.1523 33.1484 13.0273 32.4844 12.168C 31.8281 11.3008 30.9531 10.8672 29.8594 10.8672C 28.7891 10.8672 27.9258 11.293 27.2695 12.1445C 26.6133 12.9961 26.2852 14.2148 26.2852 15.8008ZM 43.4531 20.4648C 44.2266 20.4648 44.9023 20.2305 45.4805 19.7617C 46.0586 19.293 46.3789 18.707 46.4414 18.0039L 48.4922 18.0039C 48.4531 18.7305 48.2031 19.4219 47.7422 20.0781C 47.2812 20.7344 46.6641 21.2578 45.8906 21.6484C 45.125 22.0391 44.3125 22.2344 43.4531 22.2344C 41.7266 22.2344 40.3516 21.6602 39.3281 20.5117C 38.3125 19.3555 37.8047 17.7773 37.8047 15.7773L 37.8047 15.4141C 37.8047 14.1797 38.0312 13.082 38.4844 12.1211C 38.9375 11.1602 39.5859 10.4141 40.4297 9.88281C 41.2812 9.35156 42.2852 9.08594 43.4414 9.08594C 44.8633 9.08594 46.043 9.51172 46.9805 10.3633C 47.9258 11.2148 48.4297 12.3203 48.4922 13.6797L 46.4414 13.6797C 46.3789 12.8594 46.0664 12.1875 45.5039 11.6641C 44.9492 11.1328 44.2617 10.8672 43.4414 10.8672C 42.3398 10.8672 41.4844 11.2656 40.875 12.0625C 40.2734 12.8516 39.9727 13.9961 39.9727 15.4961L 39.9727 15.9062C 39.9727 17.3672 40.2734 18.4922 40.875 19.2812C 41.4766 20.0703 42.3359 20.4648 43.4531 20.4648ZM 56.1914 22.2344C 54.4727 22.2344 53.0742 21.6719 51.9961 20.5469C 50.918 19.4141 50.3789 17.9023 50.3789 16.0117L 50.3789 15.6133C 50.3789 14.3555 50.6172 13.2344 51.0938 12.25C 51.5781 11.2578 52.25 10.4844 53.1094 9.92969C 53.9766 9.36719 54.9141 9.08594 55.9219 9.08594C 57.5703 9.08594 58.8516 9.62891 59.7656 10.7148C 60.6797 11.8008 61.1367 13.3555 61.1367 15.3789L 61.1367 16.2812L 52.5469 16.2812C 52.5781 17.5312 52.9414 18.543 53.6367 19.3164C 54.3398 20.082 55.2305 20.4648 56.3086 20.4648C 57.0742 20.4648 57.7227 20.3086 58.2539 19.9961C 58.7852 19.6836 59.25 19.2695 59.6484 18.7539L 60.9727 19.7852C 59.9102 21.418 58.3164 22.2344 56.1914 22.2344ZM 55.9219 10.8672C 55.0469 10.8672 54.3125 11.1875 53.7188 11.8281C 53.125 12.4609 52.7578 13.3516 52.6172 14.5L 58.9688 14.5L 58.9688 14.3359C 58.9062 13.2344 58.6094 12.3828 58.0781 11.7812C 57.5469 11.1719 56.8281 10.8672 55.9219 10.8672ZM 71.0391 18.6367C 71.0391 18.0508 70.8164 17.5977 70.3711 17.2773C 69.9336 16.9492 69.1641 16.668 68.0625 16.4336C 66.9688 16.1992 66.0977 15.918 65.4492 15.5898C 64.8086 15.2617 64.332 14.8711 64.0195 14.418C 63.7148 13.9648 63.5625 13.4258 63.5625 12.8008C 63.5625 11.7617 64 10.8828 64.875 10.1641C 65.7578 9.44531 66.8828 9.08594 68.25 9.08594C 69.6875 9.08594 70.8516 9.45703 71.7422 10.1992C 72.6406 10.9414 73.0898 11.8906 73.0898 13.0469L 70.9102 13.0469C 70.9102 12.4531 70.6562 11.9414 70.1484 11.5117C 69.6484 11.082 69.0156 10.8672 68.25 10.8672C 67.4609 10.8672 66.8438 11.0391 66.3984 11.3828C 65.9531 11.7266 65.7305 12.1758 65.7305 12.7305C 65.7305 13.2539 65.9375 13.6484 66.3516 13.9141C 66.7656 14.1797 67.5117 14.4336 68.5898 14.6758C 69.6758 14.918 70.5547 15.207 71.2266 15.543C 71.8984 15.8789 72.3945 16.2852 72.7148 16.7617C 73.043 17.2305 73.207 17.8047 73.207 18.4844C 73.207 19.6172 72.7539 20.5273 71.8477 21.2148C 70.9414 21.8945 69.7656 22.2344 68.3203 22.2344C 67.3047 22.2344 66.4062 22.0547 65.625 21.6953C 64.8438 21.3359 64.2305 20.8359 63.7852 20.1953C 63.3477 19.5469 63.1289 18.8477 63.1289 18.0977L 65.2969 18.0977C 65.3359 18.8242 65.625 19.4023 66.1641 19.832C 66.7109 20.2539 67.4297 20.4648 68.3203 20.4648C 69.1406 20.4648 69.7969 20.3008 70.2891 19.9727C 70.7891 19.6367 71.0391 19.1914 71.0391 18.6367ZM 83.4141 18.6367C 83.4141 18.0508 83.1914 17.5977 82.7461 17.2773C 82.3086 16.9492 81.5391 16.668 80.4375 16.4336C 79.3438 16.1992 78.4727 15.918 77.8242 15.5898C 77.1836 15.2617 76.707 14.8711 76.3945 14.418C 76.0898 13.9648 75.9375 13.4258 75.9375 12.8008C 75.9375 11.7617 76.375 10.8828 77.25 10.1641C 78.1328 9.44531 79.2578 9.08594 80.625 9.08594C 82.0625 9.08594 83.2266 9.45703 84.1172 10.1992C 85.0156 10.9414 85.4648 11.8906 85.4648 13.0469L 83.2852 13.0469C 83.2852 12.4531 83.0312 11.9414 82.5234 11.5117C 82.0234 11.082 81.3906 10.8672 80.625 10.8672C 79.8359 10.8672 79.2188 11.0391 78.7734 11.3828C 78.3281 11.7266 78.1055 12.1758 78.1055 12.7305C 78.1055 13.2539 78.3125 13.6484 78.7266 13.9141C 79.1406 14.1797 79.8867 14.4336 80.9648 14.6758C 82.0508 14.918 82.9297 15.207 83.6016 15.543C 84.2734 15.8789 84.7695 16.2852 85.0898 16.7617C 85.418 17.2305 85.582 17.8047 85.582 18.4844C 85.582 19.6172 85.1289 20.5273 84.2227 21.2148C 83.3164 21.8945 82.1406 22.2344 80.6953 22.2344C 79.6797 22.2344 78.7812 22.0547 78 21.6953C 77.2188 21.3359 76.6055 20.8359 76.1602 20.1953C 75.7227 19.5469 75.5039 18.8477 75.5039 18.0977L 77.6719 18.0977C 77.7109 18.8242 78 19.4023 78.5391 19.832C 79.0859 20.2539 79.8047 20.4648 80.6953 20.4648C 81.5156 20.4648 82.1719 20.3008 82.6641 19.9727C 83.1641 19.6367 83.4141 19.1914 83.4141 18.6367ZM 105.316 22L 94.1367 22L 94.1367 20.4414L 100.043 13.8789C 100.918 12.8867 101.52 12.082 101.848 11.4648C 102.184 10.8398 102.352 10.1953 102.352 9.53125C 102.352 8.64062 102.082 7.91016 101.543 7.33984C 101.004 6.76953 100.285 6.48438 99.3867 6.48438C 98.3086 6.48438 97.4688 6.79297 96.8672 7.41016C 96.2734 8.01953 95.9766 8.87109 95.9766 9.96484L 93.8086 9.96484C 93.8086 8.39453 94.3125 7.125 95.3203 6.15625C 96.3359 5.1875 97.6914 4.70312 99.3867 4.70312C 100.973 4.70312 102.227 5.12109 103.148 5.95703C 104.07 6.78516 104.531 7.89062 104.531 9.27344C 104.531 10.9531 103.461 12.9531 101.32 15.2734L 96.75 20.2305L 105.316 20.2305L 105.316 22ZM 113.707 15.0742C 113.707 13.3086 113.941 11.6133 114.41 9.98828C 114.887 8.36328 115.594 6.88672 116.531 5.55859C 117.469 4.23047 118.441 3.29297 119.449 2.74609L 119.895 4.17578C 118.754 5.05078 117.816 6.38672 117.082 8.18359C 116.355 9.98047 115.957 11.9922 115.887 14.2188L 115.875 15.2148C 115.875 18.2305 116.426 20.8477 117.527 23.0664C 118.191 24.3945 118.98 25.4336 119.895 26.1836L 119.449 27.5078C 118.41 26.9297 117.418 25.9609 116.473 24.6016C 114.629 21.9453 113.707 18.7695 113.707 15.0742ZM 134.883 16.5859C 134.672 18.3906 134.004 19.7852 132.879 20.7695C 131.762 21.7461 130.273 22.2344 128.414 22.2344C 126.398 22.2344 124.781 21.5117 123.562 20.0664C 122.352 18.6211 121.746 16.6875 121.746 14.2656L 121.746 12.625C 121.746 11.0391 122.027 9.64453 122.59 8.44141C 123.16 7.23828 123.965 6.31641 125.004 5.67578C 126.043 5.02734 127.246 4.70312 128.613 4.70312C 130.426 4.70312 131.879 5.21094 132.973 6.22656C 134.066 7.23438 134.703 8.63281 134.883 10.4219L 132.621 10.4219C 132.426 9.0625 132 8.07812 131.344 7.46875C 130.695 6.85938 129.785 6.55469 128.613 6.55469C 127.176 6.55469 126.047 7.08594 125.227 8.14844C 124.414 9.21094 124.008 10.7227 124.008 12.6836L 124.008 14.3359C 124.008 16.1875 124.395 17.6602 125.168 18.7539C 125.941 19.8477 127.023 20.3945 128.414 20.3945C 129.664 20.3945 130.621 20.1133 131.285 19.5508C 131.957 18.9805 132.402 17.9922 132.621 16.5859L 134.883 16.5859ZM 139.793 10.8555C 140.754 9.67578 142.004 9.08594 143.543 9.08594C 146.223 9.08594 147.574 10.5977 147.598 13.6211L 147.598 22L 145.43 22L 145.43 13.6094C 145.422 12.6953 145.211 12.0195 144.797 11.582C 144.391 11.1445 143.754 10.9258 142.887 10.9258C 142.184 10.9258 141.566 11.1133 141.035 11.4883C 140.504 11.8633 140.09 12.3555 139.793 12.9648L 139.793 22L 137.625 22L 137.625 4L 139.793 4L 139.793 10.8555ZM 153.199 22L 151.031 22L 151.031 9.32031L 153.199 9.32031L 153.199 22ZM 150.855 5.95703C 150.855 5.60547 150.961 5.30859 151.172 5.06641C 151.391 4.82422 151.711 4.70312 152.133 4.70312C 152.555 4.70312 152.875 4.82422 153.094 5.06641C 153.312 5.30859 153.422 5.60547 153.422 5.95703C 153.422 6.30859 153.312 6.60156 153.094 6.83594C 152.875 7.07031 152.555 7.1875 152.133 7.1875C 151.711 7.1875 151.391 7.07031 151.172 6.83594C 150.961 6.60156 150.855 6.30859 150.855 5.95703ZM 159.035 22L 156.867 22L 156.867 4L 159.035 4L 159.035 22ZM 161.988 15.5547C 161.988 13.6094 162.449 12.0469 163.371 10.8672C 164.293 9.67969 165.5 9.08594 166.992 9.08594C 168.477 9.08594 169.652 9.59375 170.52 10.6094L 170.52 4L 172.688 4L 172.688 22L 170.695 22L 170.59 20.6406C 169.723 21.7031 168.516 22.2344 166.969 22.2344C 165.5 22.2344 164.301 21.6328 163.371 20.4297C 162.449 19.2266 161.988 17.6562 161.988 15.7188L 161.988 15.5547ZM 164.156 15.8008C 164.156 17.2383 164.453 18.3633 165.047 19.1758C 165.641 19.9883 166.461 20.3945 167.508 20.3945C 168.883 20.3945 169.887 19.7773 170.52 18.543L 170.52 12.7188C 169.871 11.5234 168.875 10.9258 167.531 10.9258C 166.469 10.9258 165.641 11.3359 165.047 12.1562C 164.453 12.9766 164.156 14.1914 164.156 15.8008ZM 181.066 15.1914C 181.066 16.9336 180.836 18.6055 180.375 20.207C 179.922 21.8008 179.223 23.2734 178.277 24.625C 177.34 25.9766 176.355 26.9375 175.324 27.5078L 174.867 26.1836C 176.07 25.2617 177.035 23.832 177.762 21.8945C 178.496 19.9492 178.871 17.793 178.887 15.4258L 178.887 15.0508C 178.887 13.4102 178.715 11.8867 178.371 10.4805C 178.027 9.06641 177.547 7.80078 176.93 6.68359C 176.32 5.56641 175.633 4.69531 174.867 4.07031L 175.324 2.74609C 176.355 3.31641 177.336 4.26953 178.266 5.60547C 179.203 6.94141 179.902 8.41406 180.363 10.0234C 180.832 11.6328 181.066 13.3555 181.066 15.1914Z"/>
<path id="path5_fill" d="M 9.46875 22C 9.34375 21.75 9.24219 21.3047 9.16406 20.6641C 8.15625 21.7109 6.95312 22.2344 5.55469 22.2344C 4.30469 22.2344 3.27734 21.8828 2.47266 21.1797C 1.67578 20.4688 1.27734 19.5703 1.27734 18.4844C 1.27734 17.1641 1.77734 16.1406 2.77734 15.4141C 3.78516 14.6797 5.19922 14.3125 7.01953 14.3125L 9.12891 14.3125L 9.12891 13.3164C 9.12891 12.5586 8.90234 11.957 8.44922 11.5117C 7.99609 11.0586 7.32812 10.832 6.44531 10.832C 5.67188 10.832 5.02344 11.0273 4.5 11.418C 3.97656 11.8086 3.71484 12.2812 3.71484 12.8359L 1.53516 12.8359C 1.53516 12.2031 1.75781 11.5938 2.20312 11.0078C 2.65625 10.4141 3.26562 9.94531 4.03125 9.60156C 4.80469 9.25781 5.65234 9.08594 6.57422 9.08594C 8.03516 9.08594 9.17969 9.45312 10.0078 10.1875C 10.8359 10.9141 11.2656 11.918 11.2969 13.1992L 11.2969 19.0352C 11.2969 20.1992 11.4453 21.125 11.7422 21.8125L 11.7422 22L 9.46875 22ZM 5.87109 20.3477C 6.55078 20.3477 7.19531 20.1719 7.80469 19.8203C 8.41406 19.4688 8.85547 19.0117 9.12891 18.4492L 9.12891 15.8477L 7.42969 15.8477C 4.77344 15.8477 3.44531 16.625 3.44531 18.1797C 3.44531 18.8594 3.67188 19.3906 4.125 19.7734C 4.57812 20.1562 5.16016 20.3477 5.87109 20.3477ZM 30.5625 12.4609L 20.7891 12.4609L 20.7891 10.5742L 30.5625 10.5742L 30.5625 12.4609ZM 30.5625 17.3242L 20.7891 17.3242L 20.7891 15.4492L 30.5625 15.4492L 30.5625 17.3242ZM 50.7305 22L 39.5508 22L 39.5508 20.4414L 45.457 13.8789C 46.332 12.8867 46.9336 12.082 47.2617 11.4648C 47.5977 10.8398 47.7656 10.1953 47.7656 9.53125C 47.7656 8.64062 47.4961 7.91016 46.957 7.33984C 46.418 6.76953 45.6992 6.48438 44.8008 6.48438C 43.7227 6.48438 42.8828 6.79297 42.2812 7.41016C 41.6875 8.01953 41.3906 8.87109 41.3906 9.96484L 39.2227 9.96484C 39.2227 8.39453 39.7266 7.125 40.7344 6.15625C 41.75 5.1875 43.1055 4.70312 44.8008 4.70312C 46.3867 4.70312 47.6406 5.12109 48.5625 5.95703C 49.4844 6.78516 49.9453 7.89062 49.9453 9.27344C 49.9453 10.9531 48.875 12.9531 46.7344 15.2734L 42.1641 20.2305L 50.7305 20.2305L 50.7305 22ZM 63.7266 14.7227C 63.7266 17.2617 63.293 19.1484 62.4258 20.3828C 61.5586 21.6172 60.2031 22.2344 58.3594 22.2344C 56.5391 22.2344 55.1914 21.6328 54.3164 20.4297C 53.4414 19.2188 52.9883 17.4141 52.957 15.0156L 52.957 12.1211C 52.957 9.61328 53.3906 7.75 54.2578 6.53125C 55.125 5.3125 56.4844 4.70312 58.3359 4.70312C 60.1719 4.70312 61.5234 5.29297 62.3906 6.47266C 63.2578 7.64453 63.7031 9.45703 63.7266 11.9102L 63.7266 14.7227ZM 61.5586 11.7578C 61.5586 9.92188 61.3008 8.58594 60.7852 7.75C 60.2695 6.90625 59.4531 6.48438 58.3359 6.48438C 57.2266 6.48438 56.418 6.90234 55.9102 7.73828C 55.4023 8.57422 55.1406 9.85938 55.125 11.5938L 55.125 15.0625C 55.125 16.9062 55.3906 18.2695 55.9219 19.1523C 56.4609 20.0273 57.2734 20.4648 58.3594 20.4648C 59.4297 20.4648 60.2227 20.0508 60.7383 19.2227C 61.2617 18.3945 61.5352 17.0898 61.5586 15.3086L 61.5586 11.7578ZM 12.375 72.8008C 12.375 74.7383 11.9297 76.2969 11.0391 77.4766C 10.1484 78.6484 8.95312 79.2344 7.45312 79.2344C 5.85156 79.2344 4.61328 78.668 3.73828 77.5352L 3.63281 79L 1.64062 79L 1.64062 61L 3.80859 61L 3.80859 67.7148C 4.68359 66.6289 5.89062 66.0859 7.42969 66.0859C 8.96875 66.0859 10.1758 66.668 11.0508 67.832C 11.9336 68.9961 12.375 70.5898 12.375 72.6133L 12.375 72.8008ZM 10.207 72.5547C 10.207 71.0781 9.92188 69.9375 9.35156 69.1328C 8.78125 68.3281 7.96094 67.9258 6.89062 67.9258C 5.46094 67.9258 4.43359 68.5898 3.80859 69.918L 3.80859 75.4023C 4.47266 76.7305 5.50781 77.3945 6.91406 77.3945C 7.95312 77.3945 8.76172 76.9922 9.33984 76.1875C 9.91797 75.3828 10.207 74.1719 10.207 72.5547ZM 30.9844 69.4609L 21.2109 69.4609L 21.2109 67.5742L 30.9844 67.5742L 30.9844 69.4609ZM 30.9844 74.3242L 21.2109 74.3242L 21.2109 72.4492L 30.9844 72.4492L 30.9844 74.3242ZM 47.0977 79L 44.918 79L 44.918 64.5508L 40.5469 66.1562L 40.5469 64.1875L 46.7578 61.8555L 47.0977 61.8555L 47.0977 79ZM 64.1484 71.7227C 64.1484 74.2617 63.7148 76.1484 62.8477 77.3828C 61.9805 78.6172 60.625 79.2344 58.7812 79.2344C 56.9609 79.2344 55.6133 78.6328 54.7383 77.4297C 53.8633 76.2188 53.4102 74.4141 53.3789 72.0156L 53.3789 69.1211C 53.3789 66.6133 53.8125 64.75 54.6797 63.5312C 55.5469 62.3125 56.9062 61.7031 58.7578 61.7031C 60.5938 61.7031 61.9453 62.293 62.8125 63.4727C 63.6797 64.6445 64.125 66.457 64.1484 68.9102L 64.1484 71.7227ZM 61.9805 68.7578C 61.9805 66.9219 61.7227 65.5859 61.207 64.75C 60.6914 63.9062 59.875 63.4844 58.7578 63.4844C 57.6484 63.4844 56.8398 63.9023 56.332 64.7383C 55.8242 65.5742 55.5625 66.8594 55.5469 68.5938L 55.5469 72.0625C 55.5469 73.9062 55.8125 75.2695 56.3438 76.1523C 56.8828 77.0273 57.6953 77.4648 58.7812 77.4648C 59.8516 77.4648 60.6445 77.0508 61.1602 76.2227C 61.6836 75.3945 61.957 74.0898 61.9805 72.3086L 61.9805 68.7578ZM 6.72656 133.465C 7.5 133.465 8.17578 133.23 8.75391 132.762C 9.33203 132.293 9.65234 131.707 9.71484 131.004L 11.7656 131.004C 11.7266 131.73 11.4766 132.422 11.0156 133.078C 10.5547 133.734 9.9375 134.258 9.16406 134.648C 8.39844 135.039 7.58594 135.234 6.72656 135.234C 5 135.234 3.625 134.66 2.60156 133.512C 1.58594 132.355 1.07812 130.777 1.07812 128.777L 1.07812 128.414C 1.07812 127.18 1.30469 126.082 1.75781 125.121C 2.21094 124.16 2.85938 123.414 3.70312 122.883C 4.55469 122.352 5.55859 122.086 6.71484 122.086C 8.13672 122.086 9.31641 122.512 10.2539 123.363C 11.1992 124.215 11.7031 125.32 11.7656 126.68L 9.71484 126.68C 9.65234 125.859 9.33984 125.188 8.77734 124.664C 8.22266 124.133 7.53516 123.867 6.71484 123.867C 5.61328 123.867 4.75781 124.266 4.14844 125.062C 3.54688 125.852 3.24609 126.996 3.24609 128.496L 3.24609 128.906C 3.24609 130.367 3.54688 131.492 4.14844 132.281C 4.75 133.07 5.60938 133.465 6.72656 133.465ZM 30.0703 125.461L 20.2969 125.461L 20.2969 123.574L 30.0703 123.574L 30.0703 125.461ZM 30.0703 130.324L 20.2969 130.324L 20.2969 128.449L 30.0703 128.449L 30.0703 130.324ZM 42.2109 125.414L 43.8398 125.414C 44.8633 125.398 45.668 125.129 46.2539 124.605C 46.8398 124.082 47.1328 123.375 47.1328 122.484C 47.1328 120.484 46.1367 119.484 44.1445 119.484C 43.207 119.484 42.457 119.754 41.8945 120.293C 41.3398 120.824 41.0625 121.531 41.0625 122.414L 38.8945 122.414C 38.8945 121.062 39.3867 119.941 40.3711 119.051C 41.3633 118.152 42.6211 117.703 44.1445 117.703C 45.7539 117.703 47.0156 118.129 47.9297 118.98C 48.8438 119.832 49.3008 121.016 49.3008 122.531C 49.3008 123.273 49.0586 123.992 48.5742 124.688C 48.0977 125.383 47.4453 125.902 46.6172 126.246C 47.5547 126.543 48.2773 127.035 48.7852 127.723C 49.3008 128.41 49.5586 129.25 49.5586 130.242C 49.5586 131.773 49.0586 132.988 48.0586 133.887C 47.0586 134.785 45.7578 135.234 44.1562 135.234C 42.5547 135.234 41.25 134.801 40.2422 133.934C 39.2422 133.066 38.7422 131.922 38.7422 130.5L 40.9219 130.5C 40.9219 131.398 41.2148 132.117 41.8008 132.656C 42.3867 133.195 43.1719 133.465 44.1562 133.465C 45.2031 133.465 46.0039 133.191 46.5586 132.645C 47.1133 132.098 47.3906 131.312 47.3906 130.289C 47.3906 129.297 47.0859 128.535 46.4766 128.004C 45.8672 127.473 44.9883 127.199 43.8398 127.184L 42.2109 127.184L 42.2109 125.414ZM 63.2344 127.723C 63.2344 130.262 62.8008 132.148 61.9336 133.383C 61.0664 134.617 59.7109 135.234 57.8672 135.234C 56.0469 135.234 54.6992 134.633 53.8242 133.43C 52.9492 132.219 52.4961 130.414 52.4648 128.016L 52.4648 125.121C 52.4648 122.613 52.8984 120.75 53.7656 119.531C 54.6328 118.312 55.9922 117.703 57.8438 117.703C 59.6797 117.703 61.0312 118.293 61.8984 119.473C 62.7656 120.645 63.2109 122.457 63.2344 124.91L 63.2344 127.723ZM 61.0664 124.758C 61.0664 122.922 60.8086 121.586 60.293 120.75C 59.7773 119.906 58.9609 119.484 57.8438 119.484C 56.7344 119.484 55.9258 119.902 55.418 120.738C 54.9102 121.574 54.6484 122.859 54.6328 124.594L 54.6328 128.062C 54.6328 129.906 54.8984 131.27 55.4297 132.152C 55.9688 133.027 56.7812 133.465 57.8672 133.465C 58.9375 133.465 59.7305 133.051 60.2461 132.223C 60.7695 131.395 61.043 130.09 61.0664 128.309L 61.0664 124.758Z"/>
<path id="path6_stroke" d="M 152.354 0.353553C 152.549 0.158291 152.549 -0.158291 152.354 -0.353553L 149.172 -3.53553C 148.976 -3.7308 148.66 -3.7308 148.464 -3.53553C 148.269 -3.34027 148.269 -3.02369 148.464 -2.82843L 151.293 0L 148.464 2.82843C 148.269 3.02369 148.269 3.34027 148.464 3.53553C 148.66 3.7308 148.976 3.7308 149.172 3.53553L 152.354 0.353553ZM 0 0.5L 152 0.5L 152 -0.5L 0 -0.5L 0 0.5Z"/>
<path id="path7_fill" d="M 2.70703 22L 2.70703 10.9961L 0.703125 10.9961L 0.703125 9.32031L 2.70703 9.32031L 2.70703 8.01953C 2.70703 6.66016 3.07031 5.60937 3.79688 4.86719C 4.52344 4.125 5.55078 3.75391 6.87891 3.75391C 7.37891 3.75391 7.875 3.82031 8.36719 3.95312L 8.25 5.71094C 7.88281 5.64062 7.49219 5.60547 7.07812 5.60547C 6.375 5.60547 5.83203 5.8125 5.44922 6.22656C 5.06641 6.63281 4.875 7.21875 4.875 7.98438L 4.875 9.32031L 7.58203 9.32031L 7.58203 10.9961L 4.875 10.9961L 4.875 22L 2.70703 22ZM 9.41016 15.543C 9.41016 14.3008 9.65234 13.1836 10.1367 12.1914C 10.6289 11.1992 11.3086 10.4336 12.1758 9.89453C 13.0508 9.35547 14.0469 9.08594 15.1641 9.08594C 16.8906 9.08594 18.2852 9.68359 19.3477 10.8789C 20.418 12.0742 20.9531 13.6641 20.9531 15.6484L 20.9531 15.8008C 20.9531 17.0352 20.7148 18.1445 20.2383 19.1289C 19.7695 20.1055 19.0938 20.8672 18.2109 21.4141C 17.3359 21.9609 16.3281 22.2344 15.1875 22.2344C 13.4688 22.2344 12.0742 21.6367 11.0039 20.4414C 9.94141 19.2461 9.41016 17.6641 9.41016 15.6953L 9.41016 15.543ZM 11.5898 15.8008C 11.5898 17.207 11.9141 18.3359 12.5625 19.1875C 13.2188 20.0391 14.0938 20.4648 15.1875 20.4648C 16.2891 20.4648 17.1641 20.0352 17.8125 19.1758C 18.4609 18.3086 18.7852 17.0977 18.7852 15.543C 18.7852 14.1523 18.4531 13.0273 17.7891 12.168C 17.1328 11.3008 16.2578 10.8672 15.1641 10.8672C 14.0938 10.8672 13.2305 11.293 12.5742 12.1445C 11.918 12.9961 11.5898 14.2148 11.5898 15.8008ZM 29.8008 11.2656C 29.4727 11.2109 29.1172 11.1836 28.7344 11.1836C 27.3125 11.1836 26.3477 11.7891 25.8398 13L 25.8398 22L 23.6719 22L 23.6719 9.32031L 25.7812 9.32031L 25.8164 10.7852C 26.5273 9.65234 27.5352 9.08594 28.8398 9.08594C 29.2617 9.08594 29.582 9.14062 29.8008 9.25L 29.8008 11.2656ZM 35.3438 16.1289L 33.9844 17.5469L 33.9844 22L 31.8164 22L 31.8164 4L 33.9844 4L 33.9844 14.8867L 35.1445 13.4922L 39.0938 9.32031L 41.7305 9.32031L 36.7969 14.6172L 42.3047 22L 39.7617 22L 35.3438 16.1289Z"/>
<path id="path8_stroke" d="M 172.354 0.353553C 172.549 0.158291 172.549 -0.158291 172.354 -0.353553L 169.172 -3.53553C 168.976 -3.7308 168.66 -3.7308 168.464 -3.53553C 168.269 -3.34027 168.269 -3.02369 168.464 -2.82843L 171.293 0L 168.464 2.82843C 168.269 3.02369 168.269 3.34027 168.464 3.53553C 168.66 3.7308 168.976 3.7308 169.172 3.53553L 172.354 0.353553ZM 0 0.5L 172 0.5L 172 -0.5L 0 -0.5L 0 0.5Z"/>
<path id="path9_fill" d="M 6.72656 20.4648C 7.5 20.4648 8.17578 20.2305 8.75391 19.7617C 9.33203 19.293 9.65234 18.707 9.71484 18.0039L 11.7656 18.0039C 11.7266 18.7305 11.4766 19.4219 11.0156 20.0781C 10.5547 20.7344 9.9375 21.2578 9.16406 21.6484C 8.39844 22.0391 7.58594 22.2344 6.72656 22.2344C 5 22.2344 3.625 21.6602 2.60156 20.5117C 1.58594 19.3555 1.07812 17.7773 1.07812 15.7773L 1.07812 15.4141C 1.07812 14.1797 1.30469 13.082 1.75781 12.1211C 2.21094 11.1602 2.85938 10.4141 3.70312 9.88281C 4.55469 9.35156 5.55859 9.08594 6.71484 9.08594C 8.13672 9.08594 9.31641 9.51172 10.2539 10.3633C 11.1992 11.2148 11.7031 12.3203 11.7656 13.6797L 9.71484 13.6797C 9.65234 12.8594 9.33984 12.1875 8.77734 11.6641C 8.22266 11.1328 7.53516 10.8672 6.71484 10.8672C 5.61328 10.8672 4.75781 11.2656 4.14844 12.0625C 3.54688 12.8516 3.24609 13.9961 3.24609 15.4961L 3.24609 15.9062C 3.24609 17.3672 3.54688 18.4922 4.14844 19.2812C 4.75 20.0703 5.60938 20.4648 6.72656 20.4648ZM 26.3672 12.8477L 31.125 12.8477L 31.125 14.8984L 26.3672 14.8984L 26.3672 20.2891L 24.1875 20.2891L 24.1875 14.8984L 19.4297 14.8984L 19.4297 12.8477L 24.1875 12.8477L 24.1875 7.86719L 26.3672 7.86719L 26.3672 12.8477ZM 43.6875 12.4609L 33.9141 12.4609L 33.9141 10.5742L 43.6875 10.5742L 43.6875 12.4609ZM 43.6875 17.3242L 33.9141 17.3242L 33.9141 15.4492L 43.6875 15.4492L 43.6875 17.3242ZM 59.8008 22L 57.6211 22L 57.6211 7.55078L 53.25 9.15625L 53.25 7.1875L 59.4609 4.85547L 59.8008 4.85547L 59.8008 22ZM 76.8516 14.7227C 76.8516 17.2617 76.418 19.1484 75.5508 20.3828C 74.6836 21.6172 73.3281 22.2344 71.4844 22.2344C 69.6641 22.2344 68.3164 21.6328 67.4414 20.4297C 66.5664 19.2188 66.1133 17.4141 66.082 15.0156L 66.082 12.1211C 66.082 9.61328 66.5156 7.75 67.3828 6.53125C 68.25 5.3125 69.6094 4.70312 71.4609 4.70312C 73.2969 4.70312 74.6484 5.29297 75.5156 6.47266C 76.3828 7.64453 76.8281 9.45703 76.8516 11.9102L 76.8516 14.7227ZM 74.6836 11.7578C 74.6836 9.92188 74.4258 8.58594 73.9102 7.75C 73.3945 6.90625 72.5781 6.48438 71.4609 6.48438C 70.3516 6.48438 69.543 6.90234 69.0352 7.73828C 68.5273 8.57422 68.2656 9.85938 68.25 11.5938L 68.25 15.0625C 68.25 16.9062 68.5156 18.2695 69.0469 19.1523C 69.5859 20.0273 70.3984 20.4648 71.4844 20.4648C 72.5547 20.4648 73.3477 20.0508 73.8633 19.2227C 74.3867 18.3945 74.6602 17.0898 74.6836 15.3086L 74.6836 11.7578Z"/>
<path id="path10_fill" d="M 9.46875 22C 9.34375 21.75 9.24219 21.3047 9.16406 20.6641C 8.15625 21.7109 6.95312 22.2344 5.55469 22.2344C 4.30469 22.2344 3.27734 21.8828 2.47266 21.1797C 1.67578 20.4688 1.27734 19.5703 1.27734 18.4844C 1.27734 17.1641 1.77734 16.1406 2.77734 15.4141C 3.78516 14.6797 5.19922 14.3125 7.01953 14.3125L 9.12891 14.3125L 9.12891 13.3164C 9.12891 12.5586 8.90234 11.957 8.44922 11.5117C 7.99609 11.0586 7.32812 10.832 6.44531 10.832C 5.67188 10.832 5.02344 11.0273 4.5 11.418C 3.97656 11.8086 3.71484 12.2812 3.71484 12.8359L 1.53516 12.8359C 1.53516 12.2031 1.75781 11.5938 2.20312 11.0078C 2.65625 10.4141 3.26562 9.94531 4.03125 9.60156C 4.80469 9.25781 5.65234 9.08594 6.57422 9.08594C 8.03516 9.08594 9.17969 9.45312 10.0078 10.1875C 10.8359 10.9141 11.2656 11.918 11.2969 13.1992L 11.2969 19.0352C 11.2969 20.1992 11.4453 21.125 11.7422 21.8125L 11.7422 22L 9.46875 22ZM 5.87109 20.3477C 6.55078 20.3477 7.19531 20.1719 7.80469 19.8203C 8.41406 19.4688 8.85547 19.0117 9.12891 18.4492L 9.12891 15.8477L 7.42969 15.8477C 4.77344 15.8477 3.44531 16.625 3.44531 18.1797C 3.44531 18.8594 3.67188 19.3906 4.125 19.7734C 4.57812 20.1562 5.16016 20.3477 5.87109 20.3477ZM 26.8594 12.8477L 31.6172 12.8477L 31.6172 14.8984L 26.8594 14.8984L 26.8594 20.2891L 24.6797 20.2891L 24.6797 14.8984L 19.9219 14.8984L 19.9219 12.8477L 24.6797 12.8477L 24.6797 7.86719L 26.8594 7.86719L 26.8594 12.8477ZM 44.1797 12.4609L 34.4062 12.4609L 34.4062 10.5742L 44.1797 10.5742L 44.1797 12.4609ZM 44.1797 17.3242L 34.4062 17.3242L 34.4062 15.4492L 44.1797 15.4492L 44.1797 17.3242ZM 60.293 22L 58.1133 22L 58.1133 7.55078L 53.7422 9.15625L 53.7422 7.1875L 59.9531 4.85547L 60.293 4.85547L 60.293 22ZM 77.3438 14.7227C 77.3438 17.2617 76.9102 19.1484 76.043 20.3828C 75.1758 21.6172 73.8203 22.2344 71.9766 22.2344C 70.1562 22.2344 68.8086 21.6328 67.9336 20.4297C 67.0586 19.2188 66.6055 17.4141 66.5742 15.0156L 66.5742 12.1211C 66.5742 9.61328 67.0078 7.75 67.875 6.53125C 68.7422 5.3125 70.1016 4.70312 71.9531 4.70312C 73.7891 4.70312 75.1406 5.29297 76.0078 6.47266C 76.875 7.64453 77.3203 9.45703 77.3438 11.9102L 77.3438 14.7227ZM 75.1758 11.7578C 75.1758 9.92188 74.918 8.58594 74.4023 7.75C 73.8867 6.90625 73.0703 6.48438 71.9531 6.48438C 70.8438 6.48438 70.0352 6.90234 69.5273 7.73828C 69.0195 8.57422 68.7578 9.85938 68.7422 11.5938L 68.7422 15.0625C 68.7422 16.9062 69.0078 18.2695 69.5391 19.1523C 70.0781 20.0273 70.8906 20.4648 71.9766 20.4648C 73.0469 20.4648 73.8398 20.0508 74.3555 19.2227C 74.8789 18.3945 75.1523 17.0898 75.1758 15.3086L 75.1758 11.7578Z"/>
</defs>
</svg>
