<svg width="303" height="233" viewBox="0 0 303 233" fill="none" xmlns="http://www.w3.org/2000/svg">
<g clip-path="url(#clip0)">
<path d="M135.054 118.491C141.935 118.491 147.513 112.919 147.513 106.045C147.513 99.1708 141.935 93.5983 135.054 93.5983C128.173 93.5983 122.595 99.1708 122.595 106.045C122.595 112.919 128.173 118.491 135.054 118.491Z" stroke="#FF5A5A"/>
<path d="M132.672 104.656L133.07 100.757H137.077V101.675H133.913L133.677 103.807C134.06 103.582 134.495 103.469 134.982 103.469C135.694 103.469 136.26 103.705 136.679 104.178C137.098 104.647 137.307 105.283 137.307 106.085C137.307 106.89 137.089 107.526 136.652 107.991C136.219 108.453 135.612 108.684 134.831 108.684C134.14 108.684 133.576 108.493 133.14 108.11C132.703 107.726 132.454 107.197 132.393 106.52H133.333C133.394 106.967 133.553 107.306 133.811 107.535C134.069 107.761 134.409 107.873 134.831 107.873C135.293 107.873 135.655 107.716 135.916 107.401C136.181 107.086 136.314 106.65 136.314 106.095C136.314 105.573 136.171 105.154 135.884 104.839C135.601 104.52 135.224 104.361 134.751 104.361C134.318 104.361 133.977 104.456 133.73 104.645L133.467 104.86L132.672 104.656Z" fill="black"/>
<path d="M90.2023 153.342C97.0832 153.342 102.661 147.769 102.661 140.895C102.661 134.021 97.0832 128.449 90.2023 128.449C83.3215 128.449 77.7434 134.021 77.7434 140.895C77.7434 147.769 83.3215 153.342 90.2023 153.342Z" stroke="black"/>
<path d="M91.1718 139.99C90.9641 140.237 90.7153 140.436 90.4252 140.586C90.1388 140.736 89.8237 140.812 89.4799 140.812C89.0288 140.812 88.6349 140.701 88.2983 140.479C87.9653 140.257 87.7075 139.945 87.5249 139.544C87.3422 139.139 87.2509 138.694 87.2509 138.207C87.2509 137.684 87.3494 137.213 87.5463 136.794C87.7469 136.375 88.0297 136.055 88.395 135.833C88.7602 135.611 89.1863 135.5 89.6733 135.5C90.4467 135.5 91.0555 135.79 91.4995 136.37C91.9471 136.946 92.1709 137.734 92.1709 138.733V139.023C92.1709 140.545 91.8701 141.657 91.2685 142.358C90.6669 143.057 89.7592 143.415 88.5454 143.433H88.352V142.595H88.5615C89.3815 142.581 90.0117 142.367 90.4521 141.956C90.8925 141.54 91.1324 140.885 91.1718 139.99ZM89.6411 139.99C89.9741 139.99 90.2802 139.888 90.5595 139.684C90.8424 139.48 91.0483 139.227 91.1772 138.926V138.529C91.1772 137.877 91.0358 137.347 90.7529 136.939C90.47 136.531 90.1119 136.327 89.6787 136.327C89.2418 136.327 88.8909 136.495 88.6259 136.832C88.361 137.165 88.2285 137.605 88.2285 138.153C88.2285 138.686 88.3556 139.127 88.6098 139.474C88.8676 139.818 89.2114 139.99 89.6411 139.99Z" fill="black"/>
<path d="M179.906 153.342C186.787 153.342 192.365 147.769 192.365 140.895C192.365 134.021 186.787 128.449 179.906 128.449C173.025 128.449 167.447 134.021 167.447 140.895C167.447 147.769 173.025 153.342 179.906 153.342Z" stroke="black"/>
<path d="M177.916 143.851H176.917V137.229L174.913 137.964V137.062L177.76 135.993H177.916V143.851ZM184.092 143.851H183.093V137.229L181.09 137.964V137.062L183.937 135.993H184.092V143.851Z" fill="black"/>
<path d="M60.301 193.171C67.1818 193.171 72.7599 187.598 72.7599 180.724C72.7599 173.85 67.1818 168.278 60.301 168.278C53.4201 168.278 47.8421 173.85 47.8421 180.724C47.8421 187.598 53.4201 193.171 60.301 193.171Z" stroke="black"/>
<path d="M57.9155 184.502H56.9165V177.88L54.9131 178.615V177.713L57.7598 176.644H57.9155V184.502ZM64.7261 176.676V177.52H64.5435C63.77 177.534 63.1541 177.763 62.6958 178.207C62.2375 178.651 61.9725 179.276 61.9009 180.082C62.3127 179.609 62.8748 179.373 63.5874 179.373C64.2677 179.373 64.8102 179.613 65.2148 180.092C65.623 180.572 65.8271 181.192 65.8271 181.951C65.8271 182.757 65.6069 183.401 65.1665 183.884C64.7297 184.368 64.1424 184.61 63.4048 184.61C62.6564 184.61 62.0495 184.323 61.584 183.75C61.1185 183.174 60.8857 182.432 60.8857 181.527V181.145C60.8857 179.706 61.1919 178.606 61.8042 177.847C62.4201 177.085 63.335 176.694 64.5488 176.676H64.7261ZM63.4209 180.2C63.0807 180.2 62.7674 180.302 62.481 180.506C62.1945 180.71 61.9958 180.966 61.8848 181.274V181.639C61.8848 182.284 62.0298 182.803 62.3198 183.197C62.6099 183.591 62.9715 183.788 63.4048 183.788C63.8524 183.788 64.2033 183.623 64.4575 183.294C64.7153 182.964 64.8442 182.533 64.8442 181.999C64.8442 181.462 64.7135 181.029 64.4521 180.699C64.1943 180.366 63.8506 180.2 63.4209 180.2Z" fill="black"/>
<path d="M110.137 193.171C117.017 193.171 122.595 187.598 122.595 180.724C122.595 173.85 117.017 168.278 110.137 168.278C103.256 168.278 97.6776 173.85 97.6776 180.724C97.6776 187.598 103.256 193.171 110.137 193.171Z" stroke="black"/>
<path d="M108.774 184.502H103.65V183.788L106.357 180.78C106.758 180.325 107.034 179.956 107.184 179.674C107.338 179.387 107.415 179.092 107.415 178.787C107.415 178.379 107.292 178.044 107.044 177.783C106.797 177.521 106.468 177.391 106.056 177.391C105.562 177.391 105.177 177.532 104.901 177.815C104.629 178.094 104.493 178.485 104.493 178.986H103.5C103.5 178.266 103.73 177.684 104.192 177.24C104.658 176.796 105.279 176.574 106.056 176.574C106.783 176.574 107.358 176.766 107.78 177.149C108.203 177.529 108.414 178.035 108.414 178.669C108.414 179.439 107.924 180.356 106.942 181.419L104.848 183.691H108.774V184.502ZM110.283 180.581L110.681 176.682H114.688V177.6H111.524L111.288 179.733C111.671 179.507 112.106 179.394 112.593 179.394C113.305 179.394 113.871 179.631 114.29 180.103C114.709 180.572 114.918 181.208 114.918 182.01C114.918 182.816 114.7 183.451 114.263 183.917C113.83 184.379 113.223 184.61 112.442 184.61C111.751 184.61 111.187 184.418 110.75 184.035C110.314 183.652 110.065 183.122 110.004 182.445H110.944C111.005 182.893 111.164 183.231 111.422 183.46C111.68 183.686 112.02 183.799 112.442 183.799C112.904 183.799 113.266 183.641 113.527 183.326C113.792 183.011 113.925 182.576 113.925 182.021C113.925 181.498 113.782 181.079 113.495 180.764C113.212 180.445 112.834 180.286 112.362 180.286C111.929 180.286 111.588 180.381 111.341 180.57L111.078 180.785L110.283 180.581Z" fill="black"/>
<path d="M30.3997 233C37.2805 233 42.8586 227.427 42.8586 220.553C42.8586 213.679 37.2805 208.107 30.3997 208.107C23.5188 208.107 17.9408 213.679 17.9408 220.553C17.9408 227.427 23.5188 233 30.3997 233Z" stroke="black"/>
<path d="M29.7739 223.17H24.6499V222.456L27.3569 219.448C27.758 218.993 28.0337 218.624 28.1841 218.342C28.3381 218.055 28.415 217.76 28.415 217.455C28.415 217.047 28.2915 216.712 28.0444 216.451C27.7974 216.19 27.4679 216.059 27.0562 216.059C26.562 216.059 26.1771 216.2 25.9014 216.483C25.6292 216.762 25.4932 217.153 25.4932 217.654H24.4995C24.4995 216.934 24.7305 216.353 25.1924 215.908C25.6579 215.464 26.2791 215.242 27.0562 215.242C27.783 215.242 28.3577 215.434 28.7803 215.817C29.2028 216.197 29.4141 216.703 29.4141 217.337C29.4141 218.107 28.9235 219.024 27.9424 220.087L25.8477 222.359H29.7739V223.17ZM34.6348 219.733C34.4271 219.98 34.1782 220.179 33.8882 220.329C33.6017 220.479 33.2866 220.554 32.9429 220.554C32.4917 220.554 32.0978 220.443 31.7612 220.221C31.4282 219.999 31.1704 219.688 30.9878 219.287C30.8052 218.882 30.7139 218.436 30.7139 217.95C30.7139 217.427 30.8123 216.956 31.0093 216.537C31.2098 216.118 31.4927 215.797 31.8579 215.575C32.2231 215.353 32.6493 215.242 33.1362 215.242C33.9097 215.242 34.5184 215.533 34.9624 216.113C35.41 216.689 35.6338 217.477 35.6338 218.476V218.766C35.6338 220.288 35.333 221.4 34.7314 222.101C34.1299 222.8 33.2222 223.158 32.0083 223.176H31.8149V222.338H32.0244C32.8444 222.323 33.4746 222.11 33.915 221.699C34.3555 221.283 34.5954 220.628 34.6348 219.733ZM33.104 219.733C33.437 219.733 33.7432 219.631 34.0225 219.427C34.3053 219.222 34.5112 218.97 34.6401 218.669V218.272C34.6401 217.62 34.4987 217.09 34.2158 216.682C33.9329 216.274 33.5749 216.07 33.1416 216.07C32.7048 216.07 32.3538 216.238 32.0889 216.575C31.8239 216.908 31.6914 217.348 31.6914 217.896C31.6914 218.429 31.8185 218.87 32.0728 219.217C32.3306 219.561 32.6743 219.733 33.104 219.733Z" fill="black"/>
<path d="M65.2845 233C72.1654 233 77.7434 227.427 77.7434 220.553C77.7434 213.679 72.1654 208.107 65.2845 208.107C58.4037 208.107 52.8257 213.679 52.8257 220.553C52.8257 227.427 58.4037 233 65.2845 233Z" stroke="black"/>
<path d="M62.8447 220.374H63.9297V221.185H62.8447V223H61.8457V221.185H58.2847V220.599L61.7866 215.18H62.8447V220.374ZM59.4126 220.374H61.8457V216.539L61.7275 216.753L59.4126 220.374ZM65.2832 219.079L65.6807 215.18H69.6875V216.098H66.5239L66.2876 218.23C66.6707 218.005 67.1058 217.892 67.5928 217.892C68.3053 217.892 68.8711 218.128 69.29 218.601C69.709 219.07 69.9185 219.706 69.9185 220.508C69.9185 221.313 69.7 221.949 69.2632 222.415C68.8299 222.876 68.223 223.107 67.4424 223.107C66.7513 223.107 66.1873 222.916 65.7505 222.533C65.3136 222.15 65.0648 221.62 65.0039 220.943H65.9438C66.0047 221.39 66.1641 221.729 66.4219 221.958C66.6797 222.184 67.0199 222.296 67.4424 222.296C67.9043 222.296 68.266 222.139 68.5273 221.824C68.7923 221.509 68.9248 221.074 68.9248 220.519C68.9248 219.996 68.7816 219.577 68.4951 219.262C68.2122 218.943 67.8345 218.784 67.3618 218.784C66.9285 218.784 66.5884 218.879 66.3413 219.068L66.0781 219.283L65.2832 219.079Z" fill="black"/>
<path d="M102.163 233C109.044 233 114.622 227.427 114.622 220.553C114.622 213.679 109.044 208.107 102.163 208.107C95.282 208.107 89.7039 213.679 89.7039 220.553C89.7039 227.427 95.282 233 102.163 233Z" stroke="black"/>
<path d="M97.7789 218.692H98.5255C98.9946 218.685 99.3634 218.561 99.632 218.321C99.9005 218.081 100.035 217.757 100.035 217.349C100.035 216.432 99.5783 215.974 98.6652 215.974C98.2355 215.974 97.8917 216.098 97.6339 216.345C97.3797 216.588 97.2526 216.912 97.2526 217.317H96.2589C96.2589 216.697 96.4845 216.184 96.9357 215.775C97.3904 215.364 97.9669 215.158 98.6652 215.158C99.4028 215.158 99.9811 215.353 100.4 215.743C100.819 216.133 101.028 216.676 101.028 217.371C101.028 217.711 100.917 218.04 100.695 218.359C100.477 218.678 100.178 218.916 99.7985 219.073C100.228 219.209 100.559 219.435 100.792 219.75C101.028 220.065 101.147 220.45 101.147 220.905C101.147 221.607 100.917 222.163 100.459 222.575C100.001 222.987 99.4046 223.193 98.6705 223.193C97.9365 223.193 97.3385 222.994 96.8766 222.597C96.4183 222.199 96.1891 221.675 96.1891 221.023H97.1881C97.1881 221.435 97.3224 221.764 97.591 222.011C97.8595 222.258 98.2194 222.382 98.6705 222.382C99.1504 222.382 99.5174 222.257 99.7716 222.006C100.026 221.755 100.153 221.395 100.153 220.926C100.153 220.472 100.013 220.122 99.734 219.879C99.4547 219.635 99.0519 219.51 98.5255 219.503H97.7789V218.692ZM103.956 218.692H104.702C105.171 218.685 105.54 218.561 105.809 218.321C106.077 218.081 106.212 217.757 106.212 217.349C106.212 216.432 105.755 215.974 104.842 215.974C104.412 215.974 104.068 216.098 103.811 216.345C103.556 216.588 103.429 216.912 103.429 217.317H102.436C102.436 216.697 102.661 216.184 103.112 215.775C103.567 215.364 104.144 215.158 104.842 215.158C105.58 215.158 106.158 215.353 106.577 215.743C106.996 216.133 107.205 216.676 107.205 217.371C107.205 217.711 107.094 218.04 106.872 218.359C106.654 218.678 106.355 218.916 105.975 219.073C106.405 219.209 106.736 219.435 106.969 219.75C107.205 220.065 107.323 220.45 107.323 220.905C107.323 221.607 107.094 222.163 106.636 222.575C106.178 222.987 105.581 223.193 104.847 223.193C104.113 223.193 103.515 222.994 103.053 222.597C102.595 222.199 102.366 221.675 102.366 221.023H103.365C103.365 221.435 103.499 221.764 103.768 222.011C104.036 222.258 104.396 222.382 104.847 222.382C105.327 222.382 105.694 222.257 105.948 222.006C106.203 221.755 106.33 221.395 106.33 220.926C106.33 220.472 106.19 220.122 105.911 219.879C105.631 219.635 105.229 219.51 104.702 219.503H103.956V218.692Z" fill="black"/>
<path d="M159.972 193.171C166.853 193.171 172.431 187.598 172.431 180.724C172.431 173.85 166.853 168.278 159.972 168.278C153.091 168.278 147.513 173.85 147.513 180.724C147.513 187.598 153.091 193.171 159.972 193.171Z" stroke="black"/>
<path d="M159.774 184.502H154.65V183.788L157.357 180.78C157.758 180.325 158.034 179.956 158.184 179.674C158.338 179.387 158.415 179.092 158.415 178.787C158.415 178.379 158.292 178.044 158.044 177.783C157.797 177.521 157.468 177.391 157.056 177.391C156.562 177.391 156.177 177.532 155.901 177.815C155.629 178.094 155.493 178.485 155.493 178.986H154.5C154.5 178.266 154.73 177.684 155.192 177.24C155.658 176.796 156.279 176.574 157.056 176.574C157.783 176.574 158.358 176.766 158.78 177.149C159.203 177.529 159.414 178.035 159.414 178.669C159.414 179.439 158.924 180.356 157.942 181.419L155.848 183.691H159.774V184.502ZM162.271 180.109H163.018C163.487 180.101 163.856 179.978 164.125 179.738C164.393 179.498 164.527 179.174 164.527 178.766C164.527 177.849 164.071 177.391 163.158 177.391C162.728 177.391 162.384 177.514 162.126 177.761C161.872 178.005 161.745 178.329 161.745 178.734H160.751C160.751 178.114 160.977 177.6 161.428 177.192C161.883 176.78 162.459 176.574 163.158 176.574C163.895 176.574 164.474 176.77 164.893 177.16C165.312 177.55 165.521 178.093 165.521 178.787C165.521 179.127 165.41 179.457 165.188 179.776C164.97 180.094 164.671 180.332 164.291 180.49C164.721 180.626 165.052 180.852 165.285 181.167C165.521 181.482 165.639 181.867 165.639 182.321C165.639 183.023 165.41 183.58 164.952 183.992C164.493 184.404 163.897 184.61 163.163 184.61C162.429 184.61 161.831 184.411 161.369 184.013C160.911 183.616 160.682 183.091 160.682 182.44H161.681C161.681 182.851 161.815 183.181 162.083 183.428C162.352 183.675 162.712 183.799 163.163 183.799C163.643 183.799 164.01 183.673 164.264 183.423C164.518 183.172 164.646 182.812 164.646 182.343C164.646 181.888 164.506 181.539 164.227 181.296C163.947 181.052 163.544 180.927 163.018 180.92H162.271V180.109Z" fill="black"/>
<path d="M209.808 193.171C216.688 193.171 222.266 187.598 222.266 180.724C222.266 173.85 216.688 168.278 209.808 168.278C202.927 168.278 197.349 173.85 197.349 180.724C197.349 187.598 202.927 193.171 209.808 193.171Z" stroke="black"/>
<path d="M205.095 180.109H205.841C206.31 180.101 206.679 179.978 206.948 179.738C207.216 179.498 207.351 179.174 207.351 178.766C207.351 177.849 206.894 177.391 205.981 177.391C205.551 177.391 205.208 177.514 204.95 177.761C204.695 178.005 204.568 178.329 204.568 178.734H203.575C203.575 178.114 203.8 177.6 204.251 177.192C204.706 176.78 205.283 176.574 205.981 176.574C206.719 176.574 207.297 176.77 207.716 177.16C208.135 177.55 208.344 178.093 208.344 178.787C208.344 179.127 208.233 179.457 208.011 179.776C207.793 180.094 207.494 180.332 207.114 180.49C207.544 180.626 207.875 180.852 208.108 181.167C208.344 181.482 208.462 181.867 208.462 182.321C208.462 183.023 208.233 183.58 207.775 183.992C207.317 184.404 206.72 184.61 205.986 184.61C205.252 184.61 204.654 184.411 204.192 184.013C203.734 183.616 203.505 183.091 203.505 182.44H204.504C204.504 182.851 204.638 183.181 204.907 183.428C205.175 183.675 205.535 183.799 205.986 183.799C206.466 183.799 206.833 183.673 207.087 183.423C207.342 183.172 207.469 182.812 207.469 182.343C207.469 181.888 207.329 181.539 207.05 181.296C206.771 181.052 206.368 180.927 205.841 180.92H205.095V180.109ZM210.283 180.581L210.681 176.682H214.688V177.6H211.524L211.288 179.733C211.671 179.507 212.106 179.394 212.593 179.394C213.305 179.394 213.871 179.631 214.29 180.103C214.709 180.572 214.918 181.208 214.918 182.01C214.918 182.816 214.7 183.451 214.263 183.917C213.83 184.379 213.223 184.61 212.442 184.61C211.751 184.61 211.187 184.418 210.75 184.035C210.314 183.652 210.065 183.122 210.004 182.445H210.944C211.005 182.893 211.164 183.231 211.422 183.46C211.68 183.686 212.02 183.799 212.442 183.799C212.904 183.799 213.266 183.641 213.527 183.326C213.792 183.011 213.925 182.576 213.925 182.021C213.925 181.498 213.782 181.079 213.495 180.764C213.212 180.445 212.834 180.286 212.362 180.286C211.929 180.286 211.588 180.381 211.341 180.57L211.078 180.785L210.283 180.581Z" fill="black"/>
<path d="M126.084 115.006L101.166 132.929" stroke="black" stroke-linecap="square"/>
<path d="M133.336 221.569C133.336 221.397 133.386 221.254 133.486 221.139C133.59 221.024 133.744 220.967 133.948 220.967C134.152 220.967 134.306 221.024 134.41 221.139C134.518 221.254 134.571 221.397 134.571 221.569C134.571 221.733 134.518 221.871 134.41 221.982C134.306 222.093 134.152 222.149 133.948 222.149C133.744 222.149 133.59 222.093 133.486 221.982C133.386 221.871 133.336 221.733 133.336 221.569ZM138.965 221.569C138.965 221.397 139.015 221.254 139.115 221.139C139.219 221.024 139.373 220.967 139.577 220.967C139.781 220.967 139.935 221.024 140.039 221.139C140.146 221.254 140.2 221.397 140.2 221.569C140.2 221.733 140.146 221.871 140.039 221.982C139.935 222.093 139.781 222.149 139.577 222.149C139.373 222.149 139.219 222.093 139.115 221.982C139.015 221.871 138.965 221.733 138.965 221.569ZM144.594 221.569C144.594 221.397 144.644 221.254 144.744 221.139C144.848 221.024 145.002 220.967 145.206 220.967C145.41 220.967 145.564 221.024 145.668 221.139C145.775 221.254 145.829 221.397 145.829 221.569C145.829 221.733 145.775 221.871 145.668 221.982C145.564 222.093 145.41 222.149 145.206 222.149C145.002 222.149 144.848 222.093 144.744 221.982C144.644 221.871 144.594 221.733 144.594 221.569ZM150.223 221.569C150.223 221.397 150.273 221.254 150.373 221.139C150.477 221.024 150.631 220.967 150.835 220.967C151.039 220.967 151.193 221.024 151.297 221.139C151.404 221.254 151.458 221.397 151.458 221.569C151.458 221.733 151.404 221.871 151.297 221.982C151.193 222.093 151.039 222.149 150.835 222.149C150.631 222.149 150.477 222.093 150.373 221.982C150.273 221.871 150.223 221.733 150.223 221.569ZM155.852 221.569C155.852 221.397 155.902 221.254 156.002 221.139C156.106 221.024 156.26 220.967 156.464 220.967C156.668 220.967 156.822 221.024 156.926 221.139C157.033 221.254 157.087 221.397 157.087 221.569C157.087 221.733 157.033 221.871 156.926 221.982C156.822 222.093 156.668 222.149 156.464 222.149C156.26 222.149 156.106 222.093 156.002 221.982C155.902 221.871 155.852 221.733 155.852 221.569ZM161.48 221.569C161.48 221.397 161.531 221.254 161.631 221.139C161.735 221.024 161.889 220.967 162.093 220.967C162.297 220.967 162.451 221.024 162.555 221.139C162.662 221.254 162.716 221.397 162.716 221.569C162.716 221.733 162.662 221.871 162.555 221.982C162.451 222.093 162.297 222.149 162.093 222.149C161.889 222.149 161.735 222.093 161.631 221.982C161.531 221.871 161.48 221.733 161.48 221.569ZM167.109 221.569C167.109 221.397 167.16 221.254 167.26 221.139C167.364 221.024 167.518 220.967 167.722 220.967C167.926 220.967 168.08 221.024 168.184 221.139C168.291 221.254 168.345 221.397 168.345 221.569C168.345 221.733 168.291 221.871 168.184 221.982C168.08 222.093 167.926 222.149 167.722 222.149C167.518 222.149 167.364 222.093 167.26 221.982C167.16 221.871 167.109 221.733 167.109 221.569ZM172.738 221.569C172.738 221.397 172.788 221.254 172.889 221.139C172.993 221.024 173.146 220.967 173.351 220.967C173.555 220.967 173.709 221.024 173.812 221.139C173.92 221.254 173.974 221.397 173.974 221.569C173.974 221.733 173.92 221.871 173.812 221.982C173.709 222.093 173.555 222.149 173.351 222.149C173.146 222.149 172.993 222.093 172.889 221.982C172.788 221.871 172.738 221.733 172.738 221.569ZM133.336 234.569C133.336 234.397 133.386 234.254 133.486 234.139C133.59 234.024 133.744 233.967 133.948 233.967C134.152 233.967 134.306 234.024 134.41 234.139C134.518 234.254 134.571 234.397 134.571 234.569C134.571 234.733 134.518 234.871 134.41 234.982C134.306 235.093 134.152 235.149 133.948 235.149C133.744 235.149 133.59 235.093 133.486 234.982C133.386 234.871 133.336 234.733 133.336 234.569Z" fill="black"/>
<path d="M81.2319 149.857L66.2812 168.776" stroke="black" stroke-linecap="square"/>
<path d="M97.1793 150.853L107.146 168.776" stroke="black" stroke-linecap="square"/>
<path d="M172.929 150.853L163.959 167.78" stroke="black" stroke-linecap="square"/>
<path d="M188.877 148.861L203.827 168.776" stroke="black" stroke-linecap="square"/>
<path d="M62.2944 192.673L65.2845 207.609" stroke="black" stroke-linecap="square"/>
<path d="M145.021 114.011L170.936 131.934" stroke="black" stroke-linecap="square"/>
<path d="M108.143 193.669L104.156 207.609" stroke="black" stroke-linecap="square"/>
<path d="M118.11 190.682L129.074 210.596" stroke="black" stroke-linecap="square"/>
<path d="M154.988 192.673L146.018 209.6" stroke="black" stroke-linecap="square"/>
<path d="M164.956 191.677L171.933 208.605" stroke="black" stroke-linecap="square"/>
<path d="M53.324 191.677L37.3766 210.596" stroke="black" stroke-linecap="square"/>
<path d="M282.859 142.432H277.735V141.717L280.442 138.709C280.844 138.255 281.119 137.886 281.27 137.603C281.424 137.317 281.501 137.021 281.501 136.717C281.501 136.309 281.377 135.974 281.13 135.712C280.883 135.451 280.553 135.32 280.142 135.32C279.648 135.32 279.263 135.462 278.987 135.745C278.715 136.024 278.579 136.414 278.579 136.916H277.585C277.585 136.196 277.816 135.614 278.278 135.17C278.743 134.726 279.365 134.504 280.142 134.504C280.869 134.504 281.443 134.695 281.866 135.079C282.288 135.458 282.5 135.965 282.5 136.599C282.5 137.368 282.009 138.285 281.028 139.349L278.933 141.621H282.859V142.432Z" fill="black"/>
<path d="M279.18 177.867H279.927C280.396 177.86 280.765 177.736 281.033 177.497C281.302 177.257 281.436 176.933 281.436 176.524C281.436 175.608 280.98 175.149 280.066 175.149C279.637 175.149 279.293 175.273 279.035 175.52C278.781 175.763 278.654 176.088 278.654 176.492H277.66C277.66 175.873 277.886 175.359 278.337 174.951C278.792 174.539 279.368 174.333 280.066 174.333C280.804 174.333 281.382 174.528 281.801 174.918C282.22 175.309 282.43 175.851 282.43 176.546C282.43 176.886 282.319 177.215 282.097 177.534C281.878 177.853 281.579 178.091 281.2 178.248C281.629 178.385 281.961 178.61 282.193 178.925C282.43 179.24 282.548 179.625 282.548 180.08C282.548 180.782 282.319 181.339 281.86 181.75C281.402 182.162 280.806 182.368 280.072 182.368C279.338 182.368 278.74 182.169 278.278 181.772C277.82 181.374 277.59 180.85 277.59 180.198H278.589C278.589 180.61 278.724 180.939 278.992 181.186C279.261 181.434 279.621 181.557 280.072 181.557C280.552 181.557 280.919 181.432 281.173 181.181C281.427 180.93 281.554 180.571 281.554 180.102C281.554 179.647 281.415 179.298 281.135 179.054C280.856 178.811 280.453 178.685 279.927 178.678H279.18V177.867Z" fill="black"/>
<path d="M281.93 220.459H283.015V221.27H281.93V223.085H280.931V221.27H277.37V220.685L280.872 215.265H281.93V220.459ZM278.498 220.459H280.931V216.624L280.813 216.839L278.498 220.459Z" fill="black"/>
<path d="M260.712 97.6826C260.562 97.6576 260.399 97.6451 260.224 97.6451C259.572 97.6451 259.13 97.9226 258.897 98.4776V102.603H257.903V96.791H258.87L258.886 97.4624C259.212 96.9432 259.674 96.6836 260.272 96.6836C260.465 96.6836 260.612 96.7087 260.712 96.7588V97.6826ZM261.26 99.6431C261.26 99.0738 261.371 98.5617 261.593 98.107C261.819 97.6522 262.13 97.3013 262.528 97.0542C262.929 96.8072 263.385 96.6836 263.897 96.6836C264.689 96.6836 265.328 96.9576 265.815 97.5054C266.305 98.0533 266.551 98.7819 266.551 99.6914V99.7613C266.551 100.327 266.442 100.835 266.223 101.287C266.008 101.734 265.699 102.083 265.294 102.334C264.893 102.585 264.431 102.71 263.908 102.71C263.12 102.71 262.481 102.436 261.991 101.888C261.504 101.34 261.26 100.615 261.26 99.7129V99.6431ZM262.259 99.7613C262.259 100.406 262.408 100.923 262.705 101.314C263.006 101.704 263.407 101.899 263.908 101.899C264.413 101.899 264.814 101.702 265.111 101.308C265.408 100.911 265.557 100.356 265.557 99.6431C265.557 99.0057 265.405 98.4901 265.101 98.0962C264.8 97.6988 264.399 97.5 263.897 97.5C263.407 97.5 263.011 97.6952 262.71 98.0855C262.41 98.4758 262.259 99.0344 262.259 99.7613ZM267.534 99.6431C267.534 99.0738 267.645 98.5617 267.867 98.107C268.092 97.6522 268.404 97.3013 268.801 97.0542C269.202 96.8072 269.659 96.6836 270.171 96.6836C270.962 96.6836 271.601 96.9576 272.088 97.5054C272.579 98.0533 272.824 98.7819 272.824 99.6914V99.7613C272.824 100.327 272.715 100.835 272.497 101.287C272.282 101.734 271.972 102.083 271.567 102.334C271.166 102.585 270.704 102.71 270.182 102.71C269.394 102.71 268.755 102.436 268.264 101.888C267.777 101.34 267.534 100.615 267.534 99.7129V99.6431ZM268.533 99.7613C268.533 100.406 268.681 100.923 268.978 101.314C269.279 101.704 269.68 101.899 270.182 101.899C270.686 101.899 271.088 101.702 271.385 101.308C271.682 100.911 271.831 100.356 271.831 99.6431C271.831 99.0057 271.678 98.4901 271.374 98.0962C271.073 97.6988 270.672 97.5 270.171 97.5C269.68 97.5 269.285 97.6952 268.984 98.0855C268.683 98.4758 268.533 99.0344 268.533 99.7613ZM275.418 95.3838V96.791H276.503V97.5591H275.418V101.163C275.418 101.396 275.467 101.571 275.563 101.689C275.66 101.804 275.825 101.861 276.058 101.861C276.172 101.861 276.33 101.84 276.53 101.797V102.603C276.269 102.674 276.015 102.71 275.768 102.71C275.324 102.71 274.989 102.576 274.763 102.307C274.538 102.039 274.425 101.657 274.425 101.163V97.5591H273.367V96.791H274.425V95.3838H275.418Z" fill="black"/>
<path d="M296.375 33.8547H268.523V61.7081H296.375V33.8547Z" fill="white"/>
<path d="M295.877 34.3526H269.021V61.2103H295.877V34.3526Z" stroke="#979797"/>
<path d="M279.345 49.1412C279.345 48.9693 279.395 48.8261 279.495 48.7115C279.599 48.5969 279.753 48.5396 279.957 48.5396C280.161 48.5396 280.315 48.5969 280.419 48.7115C280.526 48.8261 280.58 48.9693 280.58 49.1412C280.58 49.3059 280.526 49.4438 280.419 49.5548C280.315 49.6658 280.161 49.7213 279.957 49.7213C279.753 49.7213 279.599 49.6658 279.495 49.5548C279.395 49.4438 279.345 49.3059 279.345 49.1412ZM281.692 49.1412C281.692 48.9693 281.742 48.8261 281.842 48.7115C281.946 48.5969 282.1 48.5396 282.304 48.5396C282.508 48.5396 282.662 48.5969 282.766 48.7115C282.873 48.8261 282.927 48.9693 282.927 49.1412C282.927 49.3059 282.873 49.4438 282.766 49.5548C282.662 49.6658 282.508 49.7213 282.304 49.7213C282.1 49.7213 281.946 49.6658 281.842 49.5548C281.742 49.4438 281.692 49.3059 281.692 49.1412ZM283.921 49.1412C283.921 48.9693 283.971 48.8261 284.071 48.7115C284.175 48.5969 284.329 48.5396 284.533 48.5396C284.737 48.5396 284.891 48.5969 284.995 48.7115C285.102 48.8261 285.156 48.9693 285.156 49.1412C285.156 49.3059 285.102 49.4438 284.995 49.5548C284.891 49.6658 284.737 49.7213 284.533 49.7213C284.329 49.7213 284.175 49.6658 284.071 49.5548C283.971 49.4438 283.921 49.3059 283.921 49.1412Z" fill="black"/>
<path d="M269.523 33.8547H241.671V61.7081H269.523V33.8547Z" fill="white"/>
<path d="M269.025 34.3526H242.169V61.2103H269.025V34.3526Z" stroke="#979797"/>
<path d="M252.122 44.2745H252.868C253.337 44.2674 253.706 44.1438 253.975 43.9039C254.243 43.664 254.377 43.34 254.377 42.9318C254.377 42.0151 253.921 41.5568 253.008 41.5568C252.578 41.5568 252.234 41.6803 251.977 41.9274C251.722 42.1709 251.595 42.4949 251.595 42.8995H250.602C250.602 42.2801 250.827 41.7662 251.278 41.358C251.733 40.9462 252.31 40.7404 253.008 40.7404C253.745 40.7404 254.324 40.9355 254.743 41.3258C255.162 41.7161 255.371 42.2586 255.371 42.9532C255.371 43.2934 255.26 43.6228 255.038 43.9415C254.82 44.2602 254.521 44.4983 254.141 44.6559C254.571 44.792 254.902 45.0175 255.135 45.3326C255.371 45.6477 255.489 46.0327 255.489 46.4874C255.489 47.1892 255.26 47.7461 254.802 48.1578C254.343 48.5696 253.747 48.7755 253.013 48.7755C252.279 48.7755 251.681 48.5768 251.219 48.1793C250.761 47.7819 250.532 47.2573 250.532 46.6056H251.531C251.531 47.0174 251.665 47.3468 251.934 47.5939C252.202 47.8409 252.562 47.9645 253.013 47.9645C253.493 47.9645 253.86 47.8392 254.114 47.5885C254.368 47.3378 254.496 46.978 254.496 46.5089C254.496 46.0542 254.356 45.705 254.077 45.4615C253.797 45.2181 253.395 45.0927 252.868 45.0856H252.122V44.2745ZM258.298 44.2745H259.045C259.514 44.2674 259.883 44.1438 260.151 43.9039C260.42 43.664 260.554 43.34 260.554 42.9318C260.554 42.0151 260.098 41.5568 259.185 41.5568C258.755 41.5568 258.411 41.6803 258.153 41.9274C257.899 42.1709 257.772 42.4949 257.772 42.8995H256.778C256.778 42.2801 257.004 41.7662 257.455 41.358C257.91 40.9462 258.486 40.7404 259.185 40.7404C259.922 40.7404 260.5 40.9355 260.919 41.3258C261.338 41.7161 261.548 42.2586 261.548 42.9532C261.548 43.2934 261.437 43.6228 261.215 43.9415C260.996 44.2602 260.697 44.4983 260.318 44.6559C260.748 44.792 261.079 45.0175 261.312 45.3326C261.548 45.6477 261.666 46.0327 261.666 46.4874C261.666 47.1892 261.437 47.7461 260.979 48.1578C260.52 48.5696 259.924 48.7755 259.19 48.7755C258.456 48.7755 257.858 48.5768 257.396 48.1793C256.938 47.7819 256.708 47.2573 256.708 46.6056H257.708C257.708 47.0174 257.842 47.3468 258.11 47.5939C258.379 47.8409 258.739 47.9645 259.19 47.9645C259.67 47.9645 260.037 47.8392 260.291 47.5885C260.545 47.3378 260.672 46.978 260.672 46.5089C260.672 46.0542 260.533 45.705 260.253 45.4615C259.974 45.2181 259.571 45.0927 259.045 45.0856H258.298V44.2745Z" fill="black"/>
<path d="M242.671 33.8547H214.818V61.7081H242.671V33.8547Z" fill="white"/>
<path d="M242.172 34.3526H215.317V61.2103H242.172V34.3526Z" stroke="#979797"/>
<path d="M226.757 47.0331H227.842V47.8441H226.757V49.6596H225.758V47.8441H222.197V47.2587L225.699 41.8393H226.757V47.0331ZM223.325 47.0331H225.758V43.1982L225.64 43.413L223.325 47.0331ZM229.196 45.7387L229.593 41.8393H233.6V42.7577H230.437L230.2 44.89C230.583 44.6645 231.019 44.5517 231.506 44.5517C232.218 44.5517 232.784 44.788 233.203 45.2607C233.622 45.7297 233.831 46.3653 233.831 47.1674C233.831 47.9731 233.613 48.6086 233.176 49.0741C232.743 49.536 232.136 49.767 231.355 49.767C230.664 49.767 230.1 49.5754 229.663 49.1923C229.226 48.8092 228.978 48.2792 228.917 47.6024H229.857C229.917 48.05 230.077 48.3884 230.335 48.6176C230.592 48.8432 230.933 48.956 231.355 48.956C231.817 48.956 232.179 48.7984 232.44 48.4833C232.705 48.1682 232.838 47.7331 232.838 47.1781C232.838 46.6553 232.694 46.2364 232.408 45.9213C232.125 45.6026 231.747 45.4433 231.275 45.4433C230.841 45.4433 230.501 45.5382 230.254 45.7279L229.991 45.9428L229.196 45.7387Z" fill="black"/>
<path d="M215.818 33.8547H187.966V61.7081H215.818V33.8547Z" fill="white"/>
<path d="M215.32 34.3526H188.464V61.2103H215.32V34.3526Z" stroke="#979797"/>
<path d="M200.573 49.6596H195.449V48.9452L198.156 45.9374C198.557 45.4827 198.832 45.1138 198.983 44.831C199.137 44.5445 199.214 44.2491 199.214 43.9447C199.214 43.5365 199.09 43.2017 198.843 42.9403C198.596 42.6789 198.267 42.5482 197.855 42.5482C197.361 42.5482 196.976 42.6897 196.7 42.9726C196.428 43.2519 196.292 43.6422 196.292 44.1435H195.298C195.298 43.4237 195.529 42.8419 195.991 42.3979C196.457 41.9538 197.078 41.7318 197.855 41.7318C198.582 41.7318 199.156 41.9234 199.579 42.3065C200.001 42.6861 200.213 43.1928 200.213 43.8266C200.213 44.5964 199.722 45.5131 198.741 46.5766L196.646 48.8485H200.573V49.6596ZM205.433 46.2221C205.226 46.4691 204.977 46.6679 204.687 46.8183C204.4 46.9687 204.085 47.0439 203.742 47.0439C203.29 47.0439 202.896 46.9329 202.56 46.7108C202.227 46.4888 201.969 46.1773 201.786 45.7763C201.604 45.3717 201.512 44.9259 201.512 44.4389C201.512 43.9161 201.611 43.4452 201.808 43.0263C202.008 42.6073 202.291 42.2869 202.657 42.0648C203.022 41.8428 203.448 41.7318 203.935 41.7318C204.708 41.7318 205.317 42.0219 205.761 42.602C206.209 43.1785 206.432 43.9662 206.432 44.9652V45.2553C206.432 46.7771 206.132 47.8889 205.53 48.5907C204.929 49.289 204.021 49.647 202.807 49.6649H202.614V48.8271H202.823C203.643 48.8127 204.273 48.5997 204.714 48.1879C205.154 47.7725 205.394 47.1173 205.433 46.2221ZM203.903 46.2221C204.236 46.2221 204.542 46.12 204.821 45.9159C205.104 45.7118 205.31 45.4594 205.439 45.1586V44.7611C205.439 44.1094 205.297 43.5795 205.014 43.1713C204.732 42.7631 204.373 42.559 203.94 42.559C203.503 42.559 203.152 42.7273 202.887 43.0639C202.623 43.3969 202.49 43.8373 202.49 44.3852C202.49 44.9187 202.617 45.3591 202.871 45.7065C203.129 46.0502 203.473 46.2221 203.903 46.2221Z" fill="black"/>
<path d="M188.966 33.8547H161.114V61.7081H188.966V33.8547Z" fill="white"/>
<path d="M188.468 34.3526H161.612V61.2103H188.468V34.3526Z" stroke="#979797"/>
<path d="M170.779 45.266H171.526C171.995 45.2589 172.364 45.1353 172.632 44.8954C172.901 44.6555 173.035 44.3315 173.035 43.9232C173.035 43.0066 172.579 42.5482 171.666 42.5482C171.236 42.5482 170.892 42.6718 170.634 42.9189C170.38 43.1623 170.253 43.4864 170.253 43.891H169.259C169.259 43.2716 169.485 42.7577 169.936 42.3495C170.391 41.9377 170.967 41.7318 171.666 41.7318C172.403 41.7318 172.981 41.927 173.4 42.3173C173.819 42.7076 174.029 43.2501 174.029 43.9447C174.029 44.2849 173.918 44.6143 173.696 44.933C173.477 45.2517 173.178 45.4898 172.799 45.6474C173.229 45.7834 173.56 46.009 173.792 46.3241C174.029 46.6392 174.147 47.0242 174.147 47.4789C174.147 48.1807 173.918 48.7375 173.459 49.1493C173.001 49.5611 172.405 49.767 171.671 49.767C170.937 49.767 170.339 49.5683 169.877 49.1708C169.419 48.7733 169.189 48.2488 169.189 47.5971H170.188C170.188 48.0089 170.323 48.3383 170.591 48.5854C170.86 48.8324 171.22 48.956 171.671 48.956C172.151 48.956 172.518 48.8306 172.772 48.58C173.026 48.3293 173.153 47.9695 173.153 47.5004C173.153 47.0456 173.014 46.6965 172.734 46.453C172.455 46.2095 172.052 46.0842 171.526 46.0771H170.779V45.266ZM175.968 45.7387L176.365 41.8393H180.372V42.7577H177.208L176.972 44.89C177.355 44.6645 177.79 44.5517 178.277 44.5517C178.99 44.5517 179.556 44.788 179.975 45.2607C180.394 45.7297 180.603 46.3653 180.603 47.1674C180.603 47.9731 180.385 48.6086 179.948 49.0741C179.514 49.536 178.908 49.767 178.127 49.767C177.436 49.767 176.872 49.5754 176.435 49.1923C175.998 48.8092 175.749 48.2792 175.688 47.6024H176.628C176.689 48.05 176.849 48.3884 177.106 48.6176C177.364 48.8432 177.704 48.956 178.127 48.956C178.589 48.956 178.951 48.7984 179.212 48.4833C179.477 48.1682 179.609 47.7331 179.609 47.1781C179.609 46.6553 179.466 46.2364 179.18 45.9213C178.897 45.6026 178.519 45.4433 178.046 45.4433C177.613 45.4433 177.273 45.5382 177.026 45.7279L176.763 45.9428L175.968 45.7387Z" fill="black"/>
<path d="M162.114 33.8547H134.261V61.7081H162.114V33.8547Z" fill="white"/>
<path d="M161.615 34.3526H134.76V61.2103H161.615V34.3526Z" stroke="#979797"/>
<path d="M147.344 49.6596H142.22V48.9452L144.927 45.9374C145.328 45.4827 145.604 45.1138 145.755 44.831C145.909 44.5445 145.985 44.2491 145.985 43.9447C145.985 43.5365 145.862 43.2017 145.615 42.9403C145.368 42.6789 145.038 42.5482 144.627 42.5482C144.132 42.5482 143.748 42.6897 143.472 42.9726C143.2 43.2519 143.064 43.6422 143.064 44.1435H142.07C142.07 43.4237 142.301 42.8419 142.763 42.3979C143.228 41.9538 143.85 41.7318 144.627 41.7318C145.353 41.7318 145.928 41.9234 146.351 42.3065C146.773 42.6861 146.985 43.1928 146.985 43.8266C146.985 44.5964 146.494 45.5131 145.513 46.5766L143.418 48.8485H147.344V49.6596ZM149.842 45.266H150.589C151.058 45.2589 151.426 45.1353 151.695 44.8954C151.964 44.6555 152.098 44.3315 152.098 43.9232C152.098 43.0066 151.641 42.5482 150.728 42.5482C150.298 42.5482 149.955 42.6718 149.697 42.9189C149.443 43.1623 149.316 43.4864 149.316 43.891H148.322C148.322 43.2716 148.548 42.7577 148.999 42.3495C149.453 41.9377 150.03 41.7318 150.728 41.7318C151.466 41.7318 152.044 41.927 152.463 42.3173C152.882 42.7076 153.091 43.2501 153.091 43.9447C153.091 44.2849 152.98 44.6143 152.758 44.933C152.54 45.2517 152.241 45.4898 151.861 45.6474C152.291 45.7834 152.622 46.009 152.855 46.3241C153.091 46.6392 153.21 47.0242 153.21 47.4789C153.21 48.1807 152.98 48.7375 152.522 49.1493C152.064 49.5611 151.468 49.767 150.734 49.767C149.999 49.767 149.402 49.5683 148.94 49.1708C148.481 48.7733 148.252 48.2488 148.252 47.5971H149.251C149.251 48.0089 149.385 48.3383 149.654 48.5854C149.923 48.8324 150.282 48.956 150.734 48.956C151.213 48.956 151.58 48.8306 151.835 48.58C152.089 48.3293 152.216 47.9695 152.216 47.5004C152.216 47.0456 152.076 46.6965 151.797 46.453C151.518 46.2095 151.115 46.0842 150.589 46.0771H149.842V45.266Z" fill="black"/>
<path d="M135.261 33.8547H107.409V61.7081H135.261V33.8547Z" fill="white"/>
<path d="M134.763 34.3526H107.908V61.2103H134.763V34.3526Z" stroke="#979797"/>
<path d="M121.774 49.6596H116.65V48.9452L119.357 45.9374C119.758 45.4827 120.034 45.1138 120.184 44.831C120.338 44.5445 120.415 44.2491 120.415 43.9447C120.415 43.5365 120.292 43.2017 120.044 42.9403C119.797 42.6789 119.468 42.5482 119.056 42.5482C118.562 42.5482 118.177 42.6897 117.901 42.9726C117.629 43.2519 117.493 43.6422 117.493 44.1435H116.5C116.5 43.4237 116.73 42.8419 117.192 42.3979C117.658 41.9538 118.279 41.7318 119.056 41.7318C119.783 41.7318 120.358 41.9234 120.78 42.3065C121.203 42.6861 121.414 43.1928 121.414 43.8266C121.414 44.5964 120.924 45.5131 119.942 46.5766L117.848 48.8485H121.774V49.6596ZM123.283 45.7387L123.681 41.8393H127.688V42.7577H124.524L124.288 44.89C124.671 44.6645 125.106 44.5517 125.593 44.5517C126.305 44.5517 126.871 44.788 127.29 45.2607C127.709 45.7297 127.918 46.3653 127.918 47.1674C127.918 47.9731 127.7 48.6086 127.263 49.0741C126.83 49.536 126.223 49.767 125.442 49.767C124.751 49.767 124.187 49.5754 123.75 49.1923C123.314 48.8092 123.065 48.2792 123.004 47.6024H123.944C124.005 48.05 124.164 48.3884 124.422 48.6176C124.68 48.8432 125.02 48.956 125.442 48.956C125.904 48.956 126.266 48.7984 126.527 48.4833C126.792 48.1682 126.925 47.7331 126.925 47.1781C126.925 46.6553 126.782 46.2364 126.495 45.9213C126.212 45.6026 125.834 45.4433 125.362 45.4433C124.929 45.4433 124.588 45.5382 124.341 45.7279L124.078 45.9428L123.283 45.7387Z" fill="black"/>
<path d="M108.409 33.8547H80.5569V61.7081H108.409V33.8547Z" fill="white"/>
<path d="M107.911 34.3526H81.0553V61.2103H107.911V34.3526Z" stroke="#979797"/>
<path d="M91.2578 49.6596H90.2588V43.037L88.2554 43.7729V42.8705L91.1021 41.8017H91.2578V49.6596ZM98.0684 41.8339V42.6772H97.8857C97.1123 42.6915 96.4964 42.9206 96.0381 43.3647C95.5798 43.8087 95.3148 44.4335 95.2432 45.2392C95.6549 44.7665 96.2171 44.5302 96.9297 44.5302C97.61 44.5302 98.1525 44.7701 98.5571 45.2499C98.9653 45.7297 99.1694 46.3492 99.1694 47.1083C99.1694 47.914 98.9492 48.5585 98.5088 49.0419C98.0719 49.5253 97.4847 49.767 96.7471 49.767C95.9987 49.767 95.3918 49.4805 94.9263 48.9076C94.4608 48.3311 94.228 47.5899 94.228 46.684V46.3026C94.228 44.8632 94.5342 43.7639 95.1465 43.0048C95.7624 42.2421 96.6772 41.8518 97.8911 41.8339H98.0684ZM96.7632 45.3573C96.423 45.3573 96.1097 45.4594 95.8232 45.6635C95.5368 45.8676 95.3381 46.1236 95.2271 46.4315V46.7968C95.2271 47.4413 95.3721 47.9605 95.6621 48.3544C95.9521 48.7483 96.3138 48.9452 96.7471 48.9452C97.1947 48.9452 97.5456 48.7805 97.7998 48.4511C98.0576 48.1217 98.1865 47.6902 98.1865 47.1566C98.1865 46.6195 98.0558 46.1863 97.7944 45.8568C97.5366 45.5238 97.1929 45.3573 96.7632 45.3573Z" fill="black"/>
<path d="M81.5569 33.8547H53.7046V61.7081H81.5569V33.8547Z" fill="white"/>
<path d="M81.0585 34.3526H54.2029V61.2103H81.0585V34.3526Z" stroke="#979797"/>
<path d="M65.1437 49.6596H64.1447V43.037L62.1413 43.7729V42.8705L64.9879 41.8017H65.1437V49.6596ZM71.3205 49.6596H70.3214V43.037L68.318 43.7729V42.8705L71.1647 41.8017H71.3205V49.6596Z" fill="black"/>
<path d="M54.7046 33.8547H26.8523V61.7081H54.7046V33.8547Z" fill="white"/>
<path d="M54.2062 34.3526H27.3506V61.2103H54.2062V34.3526Z" stroke="#979797"/>
<path d="M41.3371 46.2247C41.1294 46.4718 40.8806 46.6705 40.5905 46.8209C40.3041 46.9713 39.989 47.0465 39.6452 47.0465C39.1941 47.0465 38.8002 46.9355 38.4636 46.7135C38.1306 46.4915 37.8728 46.1799 37.6902 45.7789C37.5075 45.3743 37.4162 44.9285 37.4162 44.4415C37.4162 43.9187 37.5147 43.4478 37.7116 43.0289C37.9122 42.61 38.195 42.2895 38.5603 42.0675C38.9255 41.8455 39.3516 41.7345 39.8386 41.7345C40.612 41.7345 41.2208 42.0245 41.6648 42.6046C42.1124 43.1811 42.3362 43.9688 42.3362 44.9679V45.2579C42.3362 46.7797 42.0354 47.8915 41.4338 48.5934C40.8322 49.2916 39.9245 49.6497 38.7107 49.6676H38.5173V48.8297H38.7268C39.5468 48.8154 40.177 48.6023 40.6174 48.1905C41.0578 47.7752 41.2977 47.1199 41.3371 46.2247ZM39.8064 46.2247C40.1394 46.2247 40.4455 46.1227 40.7248 45.9185C41.0077 45.7144 41.2136 45.462 41.3425 45.1612V44.7638C41.3425 44.1121 41.2011 43.5821 40.9182 43.1739C40.6353 42.7657 40.2772 42.5616 39.844 42.5616C39.4071 42.5616 39.0562 42.7299 38.7912 43.0665C38.5263 43.3995 38.3938 43.8399 38.3938 44.3878C38.3938 44.9213 38.5209 45.3617 38.7751 45.7091C39.0329 46.0528 39.3767 46.2247 39.8064 46.2247Z" fill="black"/>
<path d="M27.8523 33.8547H0V61.7081H27.8523V33.8547Z" fill="white"/>
<path d="M27.3539 34.3526H0.498352V61.2103H27.3539V34.3526Z" stroke="#979797"/>
<path d="M11.1064 46.7302L11.5039 42.8307H15.5107V43.7492H12.3472L12.1108 45.8815C12.494 45.6559 12.929 45.5432 13.416 45.5432C14.1286 45.5432 14.6943 45.7795 15.1133 46.2521C15.5322 46.7212 15.7417 47.3568 15.7417 48.1589C15.7417 48.9645 15.5233 49.6001 15.0864 50.0656C14.6532 50.5275 14.0462 50.7585 13.2656 50.7585C12.5745 50.7585 12.0106 50.5669 11.5737 50.1838C11.1369 49.8006 10.888 49.2707 10.8271 48.5939H11.7671C11.828 49.0415 11.9873 49.3799 12.2451 49.6091C12.5029 49.8347 12.8431 49.9474 13.2656 49.9474C13.7275 49.9474 14.0892 49.7899 14.3506 49.4748C14.6156 49.1597 14.748 48.7246 14.748 48.1696C14.748 47.6468 14.6048 47.2279 14.3184 46.9128C14.0355 46.5941 13.6577 46.4348 13.1851 46.4348C12.7518 46.4348 12.4116 46.5296 12.1646 46.7194L11.9014 46.9343L11.1064 46.7302Z" fill="black"/>
<path fill-rule="evenodd" clip-rule="evenodd" d="M13.4556 21.3542C13.072 21.8584 12.7086 22.2013 12.3654 22.3828C11.9111 22.6147 11.3711 22.7307 10.7452 22.7307H5.30942C4.73403 22.7307 4.26213 22.8971 3.89368 23.2299C3.52523 23.5627 3.31578 23.9761 3.2653 24.4703C3.23502 24.7829 3.17446 24.9896 3.08361 25.0905C2.96247 25.2216 2.81106 25.2871 2.62936 25.2871C2.43756 25.2871 2.28363 25.2216 2.16754 25.0905C2.05145 24.9594 1.99341 24.7678 1.99341 24.5157C1.99341 23.719 2.24577 23.0534 2.75049 22.5189C3.44701 21.8029 4.29493 21.445 5.29428 21.445H10.7452C11.3004 21.445 11.7673 21.2786 12.1458 20.9458C12.5244 20.613 12.7338 20.1894 12.7742 19.6751C12.8045 19.3928 12.8752 19.1961 12.9862 19.0852C13.0972 18.9743 13.2537 18.9188 13.4556 18.9188C13.6474 18.9188 13.7988 18.9743 13.9098 19.0852C14.0209 19.1961 14.0915 19.3928 14.1218 19.6751C14.1622 20.1995 14.3716 20.6256 14.7502 20.9533C15.1287 21.2811 15.5956 21.445 16.1508 21.445H21.6018C22.5506 21.445 23.3405 21.7475 23.9714 22.3526C24.6023 22.9576 24.9178 23.6837 24.9178 24.5308C24.9178 24.7728 24.8572 24.9594 24.7361 25.0905C24.6149 25.2216 24.4635 25.2871 24.2818 25.2871C24.1001 25.2871 23.9487 25.2216 23.8276 25.0905C23.7266 24.9997 23.661 24.793 23.6307 24.4703C23.5802 23.9661 23.3683 23.5501 22.9948 23.2223C22.6213 22.8946 22.1569 22.7307 21.6018 22.7307H16.1508C15.5148 22.7307 15.0025 22.6299 14.6139 22.4282C14.2253 22.2265 13.8392 21.8685 13.4556 21.3542Z" fill="#FF5A5A"/>
<path fill-rule="evenodd" clip-rule="evenodd" d="M54.0911 21.3466C53.7075 21.8508 53.3441 22.1937 53.0009 22.3752C52.5466 22.6072 52.0066 22.7231 51.3808 22.7231L35.2107 22.7307C34.6354 22.7307 34.1634 22.8971 33.795 23.2299C33.4266 23.5627 33.2171 23.9761 33.1666 24.4703C33.1363 24.7829 33.0758 24.9896 32.9849 25.0905C32.8638 25.2216 32.7124 25.2871 32.5307 25.2871C32.3389 25.2871 32.1849 25.2216 32.0689 25.0905C31.9528 24.9594 31.8947 24.7678 31.8947 24.5157C31.8947 23.719 32.1471 23.0534 32.6518 22.5189C33.3483 21.8029 34.1962 21.4449 35.1956 21.4449L51.3808 21.4374C51.9359 21.4374 52.4028 21.271 52.7813 20.9382C53.1599 20.6054 53.3693 20.1819 53.4097 19.6676C53.44 19.3852 53.5107 19.1886 53.6217 19.0776C53.7327 18.9667 53.8892 18.9112 54.0911 18.9112C54.2829 18.9112 54.4343 18.9667 54.5453 19.0776C54.6564 19.1886 54.727 19.3852 54.7573 19.6676C54.7977 20.192 55.0072 20.618 55.3857 20.9458C55.7642 21.2735 56.2311 21.4374 56.7863 21.4374L75.5279 21.4449C76.4768 21.4449 77.2667 21.7475 77.8976 22.3525C78.5285 22.9576 78.8439 23.6837 78.8439 24.5308C78.8439 24.7728 78.7833 24.9594 78.6622 25.0905C78.5411 25.2216 78.3897 25.2871 78.208 25.2871C78.0263 25.2871 77.8748 25.2216 77.7537 25.0905C77.6528 24.9997 77.5872 24.793 77.5569 24.4703C77.5064 23.9661 77.2944 23.5501 76.9209 23.2223C76.5474 22.8946 76.0831 22.7307 75.5279 22.7307L56.7863 22.7231C56.1503 22.7231 55.6381 22.6223 55.2494 22.4206" fill="black"/>
<path fill-rule="evenodd" clip-rule="evenodd" d="M134.948 21.3542C134.564 21.8584 134.201 22.2013 133.858 22.3828C133.403 22.6148 132.863 22.7307 132.237 22.7307L87.0397 22.7307C86.4643 22.7307 85.9924 22.8971 85.6239 23.2299C85.2555 23.5627 85.046 23.9761 84.9956 24.4703C84.9653 24.7829 84.9047 24.9896 84.8139 25.0905C84.6927 25.2216 84.5413 25.2871 84.3596 25.2871C84.1678 25.2871 84.0139 25.2216 83.8978 25.0905C83.7817 24.9594 83.7237 24.7678 83.7237 24.5157C83.7237 23.719 83.976 23.0534 84.4808 22.519C85.1773 21.803 86.0252 21.445 87.0245 21.445L132.237 21.445C132.793 21.445 133.259 21.2786 133.638 20.9458C134.017 20.613 134.226 20.1895 134.266 19.6751C134.297 19.3928 134.367 19.1961 134.478 19.0852C134.589 18.9743 134.746 18.9188 134.948 18.9188C135.14 18.9188 135.291 18.9743 135.402 19.0852C135.513 19.1961 135.584 19.3928 135.614 19.6751C135.654 20.1995 135.864 20.6256 136.242 20.9534C136.621 21.2811 137.088 21.445 137.643 21.445L183.422 21.6492C184.371 21.6492 185.161 21.9517 185.792 22.5568C186.423 23.1618 186.738 23.8879 186.738 24.735C186.738 24.977 186.678 25.1636 186.557 25.2947C186.436 25.4258 186.284 25.4913 186.103 25.4913C185.921 25.4913 185.769 25.4258 185.648 25.2947C185.547 25.2039 185.482 24.9972 185.451 24.6745C185.401 24.1703 185.189 23.7543 184.815 23.4265C184.442 23.0988 183.978 22.9349 183.422 22.9349L137.643 22.7307C137.007 22.7307 136.495 22.6299 136.106 22.4282" fill="black"/>
<path fill-rule="evenodd" clip-rule="evenodd" d="M241.596 21.3542C241.212 21.8584 240.849 22.2013 240.506 22.3828C240.051 22.6148 239.511 22.7307 238.885 22.7307L193.688 22.7307C193.112 22.7307 192.64 22.8971 192.272 23.2299C191.904 23.5627 191.694 23.9761 191.644 24.4703C191.613 24.7829 191.553 24.9896 191.462 25.0905C191.341 25.2216 191.189 25.2871 191.008 25.2871C190.816 25.2871 190.662 25.2216 190.546 25.0905C190.43 24.9594 190.372 24.7678 190.372 24.5157C190.372 23.719 190.624 23.0534 191.129 22.519C191.825 21.803 192.673 21.445 193.673 21.445L238.885 21.445C239.441 21.445 239.908 21.2786 240.286 20.9458C240.665 20.613 240.874 20.1895 240.914 19.6751C240.945 19.3928 241.015 19.1961 241.126 19.0852C241.237 18.9743 241.394 18.9188 241.596 18.9188C241.788 18.9188 241.939 18.9743 242.05 19.0852C242.161 19.1961 242.232 19.3928 242.262 19.6751C242.302 20.1995 242.512 20.6256 242.89 20.9533C243.269 21.2811 243.736 21.445 244.291 21.445L294.06 21.3542C295.009 21.3542 294.616 22.64 294.06 22.64L244.291 22.7307C243.655 22.7307 243.143 22.6299 242.754 22.4282" fill="black"/>
<path d="M295.821 20.9299C295.821 20.758 295.871 20.6148 295.972 20.5002C296.075 20.3856 296.229 20.3283 296.434 20.3283C296.638 20.3283 296.792 20.3856 296.895 20.5002C297.003 20.6148 297.057 20.758 297.057 20.9299C297.057 21.0946 297.003 21.2324 296.895 21.3434C296.792 21.4544 296.638 21.5099 296.434 21.5099C296.229 21.5099 296.075 21.4544 295.972 21.3434C295.871 21.2324 295.821 21.0946 295.821 20.9299ZM298.168 20.9299C298.168 20.758 298.219 20.6148 298.319 20.5002C298.423 20.3856 298.577 20.3283 298.781 20.3283C298.985 20.3283 299.139 20.3856 299.243 20.5002C299.35 20.6148 299.404 20.758 299.404 20.9299C299.404 21.0946 299.35 21.2324 299.243 21.3434C299.139 21.4544 298.985 21.5099 298.781 21.5099C298.577 21.5099 298.423 21.4544 298.319 21.3434C298.219 21.2324 298.168 21.0946 298.168 20.9299ZM300.397 20.9299C300.397 20.758 300.448 20.6148 300.548 20.5002C300.652 20.3856 300.806 20.3283 301.01 20.3283C301.214 20.3283 301.368 20.3856 301.472 20.5002C301.579 20.6148 301.633 20.758 301.633 20.9299C301.633 21.0946 301.579 21.2324 301.472 21.3434C301.368 21.4544 301.214 21.5099 301.01 21.5099C300.806 21.5099 300.652 21.4544 300.548 21.3434C300.448 21.2324 300.397 21.0946 300.397 20.9299Z" fill="black"/>
<path d="M3.56104 5.08008C3.41064 5.05501 3.24772 5.04248 3.07227 5.04248C2.42057 5.04248 1.97835 5.31999 1.74561 5.875V10H0.751953V4.18848H1.71875L1.73486 4.85986C2.06071 4.34066 2.52262 4.08105 3.12061 4.08105C3.31396 4.08105 3.46077 4.10612 3.56104 4.15625V5.08008ZM4.10889 7.04053C4.10889 6.47119 4.21989 5.95915 4.44189 5.50439C4.66748 5.04964 4.979 4.69873 5.37646 4.45166C5.77751 4.20459 6.23405 4.08105 6.74609 4.08105C7.53743 4.08105 8.1766 4.35498 8.66357 4.90283C9.15413 5.45068 9.39941 6.17936 9.39941 7.08887V7.15869C9.39941 7.72445 9.2902 8.23291 9.07178 8.68408C8.85693 9.13167 8.5472 9.48079 8.14258 9.73145C7.74154 9.9821 7.27962 10.1074 6.75684 10.1074C5.96908 10.1074 5.32992 9.8335 4.83936 9.28564C4.35238 8.73779 4.10889 8.0127 4.10889 7.11035V7.04053ZM5.10791 7.15869C5.10791 7.80322 5.25651 8.32064 5.55371 8.71094C5.85449 9.10124 6.25553 9.29639 6.75684 9.29639C7.26172 9.29639 7.66276 9.09945 7.95996 8.70557C8.25716 8.30811 8.40576 7.75309 8.40576 7.04053C8.40576 6.40316 8.25358 5.88753 7.94922 5.49365C7.64844 5.09619 7.2474 4.89746 6.74609 4.89746C6.25553 4.89746 5.85986 5.09261 5.55908 5.48291C5.2583 5.87321 5.10791 6.4318 5.10791 7.15869ZM10.3823 7.04053C10.3823 6.47119 10.4933 5.95915 10.7153 5.50439C10.9409 5.04964 11.2524 4.69873 11.6499 4.45166C12.0509 4.20459 12.5075 4.08105 13.0195 4.08105C13.8109 4.08105 14.45 4.35498 14.937 4.90283C15.4276 5.45068 15.6729 6.17936 15.6729 7.08887V7.15869C15.6729 7.72445 15.5636 8.23291 15.3452 8.68408C15.1304 9.13167 14.8206 9.48079 14.416 9.73145C14.015 9.9821 13.5531 10.1074 13.0303 10.1074C12.2425 10.1074 11.6034 9.8335 11.1128 9.28564C10.6258 8.73779 10.3823 8.0127 10.3823 7.11035V7.04053ZM11.3813 7.15869C11.3813 7.80322 11.5299 8.32064 11.8271 8.71094C12.1279 9.10124 12.529 9.29639 13.0303 9.29639C13.5352 9.29639 13.9362 9.09945 14.2334 8.70557C14.5306 8.30811 14.6792 7.75309 14.6792 7.04053C14.6792 6.40316 14.527 5.88753 14.2227 5.49365C13.9219 5.09619 13.5208 4.89746 13.0195 4.89746C12.529 4.89746 12.1333 5.09261 11.8325 5.48291C11.5317 5.87321 11.3813 6.4318 11.3813 7.15869ZM18.2671 2.78125V4.18848H19.3521V4.95654H18.2671V8.56055C18.2671 8.79329 18.3154 8.96875 18.4121 9.08691C18.5088 9.2015 18.6735 9.25879 18.9062 9.25879C19.0208 9.25879 19.1784 9.2373 19.3789 9.19434V10C19.1175 10.0716 18.8633 10.1074 18.6162 10.1074C18.1722 10.1074 17.8374 9.97314 17.6118 9.70459C17.3862 9.43604 17.2734 9.05469 17.2734 8.56055V4.95654H16.2153V4.18848H17.2734V2.78125H18.2671Z" fill="black"/>
<path d="M35.7197 10H34.726V1.75H35.7197V10ZM39.7265 10.1074C38.9388 10.1074 38.2978 9.84961 37.8037 9.33398C37.3095 8.81478 37.0625 8.12191 37.0625 7.25537V7.07275C37.0625 6.49626 37.1717 5.98242 37.3901 5.53125C37.6121 5.0765 37.9201 4.72201 38.3139 4.46777C38.7114 4.20996 39.1411 4.08105 39.603 4.08105C40.3585 4.08105 40.9458 4.32992 41.3647 4.82764C41.7837 5.32536 41.9931 6.03792 41.9931 6.96533V7.37891H38.0561C38.0704 7.95182 38.2369 8.41553 38.5556 8.77002C38.8779 9.12093 39.2861 9.29639 39.7802 9.29639C40.1312 9.29639 40.4284 9.22477 40.6718 9.08154C40.9153 8.93831 41.1284 8.74854 41.311 8.51221L41.9179 8.98486C41.431 9.73324 40.7005 10.1074 39.7265 10.1074ZM39.603 4.89746C39.202 4.89746 38.8654 5.04427 38.5932 5.33789C38.3211 5.62793 38.1528 6.03613 38.0883 6.5625H40.9995V6.4873C40.9708 5.98242 40.8348 5.59212 40.5913 5.31641C40.3478 5.03711 40.0184 4.89746 39.603 4.89746ZM44.9902 8.65186L46.4297 4.18848H47.4448L45.3608 10H44.6035L42.498 4.18848H43.5132L44.9902 8.65186ZM50.7373 10.1074C49.9495 10.1074 49.3086 9.84961 48.8144 9.33398C48.3203 8.81478 48.0732 8.12191 48.0732 7.25537V7.07275C48.0732 6.49626 48.1824 5.98242 48.4008 5.53125C48.6229 5.0765 48.9308 4.72201 49.3247 4.46777C49.7221 4.20996 50.1518 4.08105 50.6137 4.08105C51.3693 4.08105 51.9565 4.32992 52.3755 4.82764C52.7944 5.32536 53.0039 6.03792 53.0039 6.96533V7.37891H49.0669C49.0812 7.95182 49.2477 8.41553 49.5664 8.77002C49.8886 9.12093 50.2968 9.29639 50.791 9.29639C51.1419 9.29639 51.4391 9.22477 51.6826 9.08154C51.9261 8.93831 52.1391 8.74854 52.3217 8.51221L52.9287 8.98486C52.4417 9.73324 51.7112 10.1074 50.7373 10.1074ZM50.6137 4.89746C50.2127 4.89746 49.8761 5.04427 49.604 5.33789C49.3318 5.62793 49.1635 6.03613 49.0991 6.5625H52.0102V6.4873C51.9816 5.98242 51.8455 5.59212 51.602 5.31641C51.3585 5.03711 51.0291 4.89746 50.6137 4.89746ZM55.2383 10H54.2446V1.75H55.2383V10ZM64.584 10H59.4599V9.28564L62.167 6.27783C62.568 5.82308 62.8437 5.45426 62.9941 5.17139C63.1481 4.88493 63.2251 4.58952 63.2251 4.28516C63.2251 3.87695 63.1015 3.54215 62.8545 3.28076C62.6074 3.01937 62.278 2.88867 61.8662 2.88867C61.372 2.88867 60.9871 3.03011 60.7114 3.31299C60.4393 3.59229 60.3032 3.98258 60.3032 4.48389H59.3095C59.3095 3.76416 59.5405 3.18229 60.0024 2.73828C60.4679 2.29427 61.0892 2.07227 61.8662 2.07227C62.5931 2.07227 63.1678 2.26383 63.5903 2.64697C64.0128 3.02653 64.2241 3.5332 64.2241 4.16699C64.2241 4.93685 63.7335 5.85352 62.7524 6.91699L60.6577 9.18896H64.584V10Z" fill="black"/>
<path d="M110.473 10H109.479V1.75H110.473V10ZM114.48 10.1074C113.692 10.1074 113.051 9.84961 112.557 9.33398C112.063 8.81478 111.816 8.12191 111.816 7.25537V7.07275C111.816 6.49626 111.925 5.98242 112.143 5.53125C112.365 5.0765 112.673 4.72201 113.067 4.46777C113.465 4.20996 113.894 4.08105 114.356 4.08105C115.112 4.08105 115.699 4.32992 116.118 4.82764C116.537 5.32536 116.746 6.03792 116.746 6.96533V7.37891H112.809C112.824 7.95182 112.99 8.41553 113.309 8.77002C113.631 9.12093 114.039 9.29639 114.534 9.29639C114.884 9.29639 115.182 9.22477 115.425 9.08154C115.669 8.93831 115.882 8.74854 116.064 8.51221L116.671 8.98486C116.184 9.73324 115.454 10.1074 114.48 10.1074ZM114.356 4.89746C113.955 4.89746 113.619 5.04427 113.347 5.33789C113.074 5.62793 112.906 6.03613 112.842 6.5625H115.753V6.4873C115.724 5.98242 115.588 5.59212 115.345 5.31641C115.101 5.03711 114.772 4.89746 114.356 4.89746ZM119.743 8.65186L121.183 4.18848H122.198L120.114 10H119.357L117.251 4.18848H118.266L119.743 8.65186ZM125.491 10.1074C124.703 10.1074 124.062 9.84961 123.568 9.33398C123.074 8.81478 122.827 8.12191 122.827 7.25537V7.07275C122.827 6.49626 122.936 5.98242 123.154 5.53125C123.376 5.0765 123.684 4.72201 124.078 4.46777C124.475 4.20996 124.905 4.08105 125.367 4.08105C126.123 4.08105 126.71 4.32992 127.129 4.82764C127.548 5.32536 127.757 6.03792 127.757 6.96533V7.37891H123.82C123.834 7.95182 124.001 8.41553 124.32 8.77002C124.642 9.12093 125.05 9.29639 125.544 9.29639C125.895 9.29639 126.192 9.22477 126.436 9.08154C126.679 8.93831 126.892 8.74854 127.075 8.51221L127.682 8.98486C127.195 9.73324 126.465 10.1074 125.491 10.1074ZM125.367 4.89746C124.966 4.89746 124.629 5.04427 124.357 5.33789C124.085 5.62793 123.917 6.03613 123.852 6.5625H126.764V6.4873C126.735 5.98242 126.599 5.59212 126.355 5.31641C126.112 5.03711 125.782 4.89746 125.367 4.89746ZM129.992 10H128.998V1.75H129.992V10ZM135.658 5.60645H136.405C136.874 5.59928 137.243 5.47575 137.511 5.23584C137.78 4.99593 137.914 4.67188 137.914 4.26367C137.914 3.34701 137.457 2.88867 136.544 2.88867C136.115 2.88867 135.771 3.01221 135.513 3.25928C135.259 3.50277 135.132 3.82682 135.132 4.23145H134.138C134.138 3.61198 134.364 3.09814 134.815 2.68994C135.27 2.27816 135.846 2.07227 136.544 2.07227C137.282 2.07227 137.86 2.26742 138.279 2.65771C138.698 3.04801 138.908 3.59049 138.908 4.28516C138.908 4.62533 138.797 4.95475 138.575 5.27344C138.356 5.59212 138.057 5.83024 137.678 5.98779C138.107 6.12386 138.438 6.34945 138.671 6.66455C138.908 6.97965 139.026 7.36458 139.026 7.81934C139.026 8.52116 138.797 9.07796 138.338 9.48975C137.88 9.90153 137.284 10.1074 136.55 10.1074C135.816 10.1074 135.218 9.90869 134.756 9.51123C134.297 9.11377 134.068 8.58919 134.068 7.9375H135.067C135.067 8.34928 135.202 8.67871 135.47 8.92578C135.739 9.17285 136.098 9.29639 136.55 9.29639C137.029 9.29639 137.396 9.17106 137.651 8.92041C137.905 8.66976 138.032 8.3099 138.032 7.84082C138.032 7.38607 137.892 7.03695 137.613 6.79346C137.334 6.54997 136.931 6.42464 136.405 6.41748H135.658V5.60645Z" fill="black"/>
<path d="M220.111 10H219.117V1.75H220.111V10ZM224.118 10.1074C223.33 10.1074 222.689 9.84961 222.195 9.33398C221.701 8.81478 221.454 8.12191 221.454 7.25537V7.07275C221.454 6.49626 221.563 5.98242 221.782 5.53125C222.004 5.0765 222.312 4.72201 222.705 4.46777C223.103 4.20996 223.533 4.08105 223.994 4.08105C224.75 4.08105 225.337 4.32992 225.756 4.82764C226.175 5.32536 226.385 6.03792 226.385 6.96533V7.37891H222.448C222.462 7.95182 222.628 8.41553 222.947 8.77002C223.269 9.12093 223.678 9.29639 224.172 9.29639C224.523 9.29639 224.82 9.22477 225.063 9.08154C225.307 8.93831 225.52 8.74854 225.702 8.51221L226.309 8.98486C225.822 9.73324 225.092 10.1074 224.118 10.1074ZM223.994 4.89746C223.593 4.89746 223.257 5.04427 222.985 5.33789C222.713 5.62793 222.544 6.03613 222.48 6.5625H225.391V6.4873C225.362 5.98242 225.226 5.59212 224.983 5.31641C224.739 5.03711 224.41 4.89746 223.994 4.89746ZM229.382 8.65186L230.821 4.18848H231.836L229.752 10H228.995L226.889 4.18848H227.905L229.382 8.65186ZM235.129 10.1074C234.341 10.1074 233.7 9.84961 233.206 9.33398C232.712 8.81478 232.465 8.12191 232.465 7.25537V7.07275C232.465 6.49626 232.574 5.98242 232.792 5.53125C233.014 5.0765 233.322 4.72201 233.716 4.46777C234.114 4.20996 234.543 4.08105 235.005 4.08105C235.761 4.08105 236.348 4.32992 236.767 4.82764C237.186 5.32536 237.395 6.03792 237.395 6.96533V7.37891H233.458C233.473 7.95182 233.639 8.41553 233.958 8.77002C234.28 9.12093 234.688 9.29639 235.182 9.29639C235.533 9.29639 235.831 9.22477 236.074 9.08154C236.318 8.93831 236.531 8.74854 236.713 8.51221L237.32 8.98486C236.833 9.73324 236.103 10.1074 235.129 10.1074ZM235.005 4.89746C234.604 4.89746 234.268 5.04427 233.995 5.33789C233.723 5.62793 233.555 6.03613 233.491 6.5625H236.402V6.4873C236.373 5.98242 236.237 5.59212 235.993 5.31641C235.75 5.03711 235.421 4.89746 235.005 4.89746ZM239.63 10H238.636V1.75H239.63V10ZM248.046 7.37354H249.131V8.18457H248.046V10H247.047V8.18457H243.486V7.59912L246.988 2.17969H248.046V7.37354ZM244.614 7.37354H247.047V3.53857L246.929 3.75342L244.614 7.37354Z" fill="black"/>
</g>
<defs>
<clipPath id="clip0">
<rect width="303" height="233" fill="white"/>
</clipPath>
</defs>
</svg>
