<svg width="482" height="244" viewBox="0 0 482 244" fill="none" xmlns="http://www.w3.org/2000/svg">
<g clip-path="url(#clip0)">
<path d="M217.436 125.192C225.949 125.192 232.851 119.41 232.851 112.278C232.851 105.146 225.949 99.3644 217.436 99.3644C208.922 99.3644 202.02 105.146 202.02 112.278C202.02 119.41 208.922 125.192 217.436 125.192Z" stroke="black"/>
<path d="M214.226 110.609L214.623 106.71H218.63V107.628H215.466L215.23 109.76C215.613 109.535 216.048 109.422 216.535 109.422C217.248 109.422 217.814 109.658 218.233 110.131C218.651 110.6 218.861 111.236 218.861 112.038C218.861 112.843 218.643 113.479 218.206 113.944C217.772 114.406 217.165 114.637 216.385 114.637C215.694 114.637 215.13 114.446 214.693 114.063C214.256 113.68 214.007 113.15 213.946 112.473H214.886C214.947 112.92 215.107 113.259 215.364 113.488C215.622 113.714 215.962 113.826 216.385 113.826C216.847 113.826 217.208 113.669 217.47 113.354C217.735 113.039 217.867 112.604 217.867 112.049C217.867 111.526 217.724 111.107 217.438 110.792C217.155 110.473 216.777 110.314 216.304 110.314C215.871 110.314 215.531 110.409 215.284 110.598L215.021 110.813L214.226 110.609Z" fill="black"/>
<path d="M161.939 161.351C170.453 161.351 177.355 155.569 177.355 148.437C177.355 141.305 170.453 135.523 161.939 135.523C153.425 135.523 146.524 141.305 146.524 148.437C146.524 155.569 153.425 161.351 161.939 161.351Z" stroke="#5B951B"/>
<path d="M162.458 149.758C162.25 150.005 162.001 150.204 161.711 150.354C161.425 150.505 161.11 150.58 160.766 150.58C160.315 150.58 159.921 150.469 159.584 150.247C159.251 150.025 158.994 149.713 158.811 149.312C158.628 148.908 158.537 148.462 158.537 147.975C158.537 147.452 158.636 146.981 158.833 146.562C159.033 146.143 159.316 145.823 159.681 145.601C160.046 145.379 160.472 145.268 160.959 145.268C161.733 145.268 162.342 145.558 162.786 146.138C163.233 146.714 163.457 147.502 163.457 148.501V148.791C163.457 150.313 163.156 151.425 162.555 152.127C161.953 152.825 161.045 153.183 159.832 153.201H159.638V152.363H159.848C160.668 152.349 161.298 152.136 161.738 151.724C162.179 151.308 162.419 150.653 162.458 149.758ZM160.927 149.758C161.26 149.758 161.566 149.656 161.846 149.452C162.129 149.248 162.334 148.995 162.463 148.695V148.297C162.463 147.645 162.322 147.115 162.039 146.707C161.756 146.299 161.398 146.095 160.965 146.095C160.528 146.095 160.177 146.263 159.912 146.6C159.647 146.933 159.515 147.373 159.515 147.921C159.515 148.455 159.642 148.895 159.896 149.242C160.154 149.586 160.498 149.758 160.927 149.758Z" fill="black"/>
<path d="M272.932 161.351C281.446 161.351 288.348 155.569 288.348 148.437C288.348 141.305 281.446 135.523 272.932 135.523C264.418 135.523 257.516 141.305 257.516 148.437C257.516 155.569 264.418 161.351 272.932 161.351Z" stroke="black"/>
<path d="M270.916 153.195H269.917V146.573L267.913 147.309V146.406L270.76 145.338H270.916V153.195ZM277.092 153.195H276.093V146.573L274.09 147.309V146.406L276.937 145.338H277.092V153.195Z" fill="black"/>
<path d="M124.942 202.675C133.456 202.675 140.357 196.894 140.357 189.762C140.357 182.629 133.456 176.848 124.942 176.848C116.428 176.848 109.526 182.629 109.526 189.762C109.526 196.894 116.428 202.675 124.942 202.675Z" stroke="#4A90E2"/>
<path d="M119.916 193.517H118.917V186.895L116.913 187.631V186.728L119.76 185.659H119.916V193.517ZM126.726 185.692V186.535H126.543C125.77 186.549 125.154 186.778 124.696 187.222C124.237 187.666 123.972 188.291 123.901 189.097C124.313 188.624 124.875 188.388 125.587 188.388C126.268 188.388 126.81 188.628 127.215 189.108C127.623 189.587 127.827 190.207 127.827 190.966C127.827 191.772 127.607 192.416 127.167 192.9C126.73 193.383 126.142 193.625 125.405 193.625C124.656 193.625 124.049 193.338 123.584 192.765C123.118 192.189 122.886 191.448 122.886 190.542V190.16C122.886 188.721 123.192 187.622 123.804 186.863C124.42 186.1 125.335 185.71 126.549 185.692H126.726ZM125.421 189.215C125.081 189.215 124.767 189.317 124.481 189.521C124.194 189.725 123.996 189.981 123.885 190.289V190.655C123.885 191.299 124.03 191.818 124.32 192.212C124.61 192.606 124.972 192.803 125.405 192.803C125.852 192.803 126.203 192.638 126.458 192.309C126.715 191.979 126.844 191.548 126.844 191.014C126.844 190.477 126.714 190.044 126.452 189.715C126.194 189.382 125.851 189.215 125.421 189.215Z" fill="black"/>
<path d="M186.604 202.675C195.118 202.675 202.02 196.894 202.02 189.762C202.02 182.629 195.118 176.848 186.604 176.848C178.09 176.848 171.189 182.629 171.189 189.762C171.189 196.894 178.09 202.675 186.604 202.675Z" stroke="black"/>
<path d="M183.774 193.517H178.65V192.803L181.357 189.795C181.758 189.34 182.034 188.972 182.184 188.689C182.338 188.402 182.415 188.107 182.415 187.802C182.415 187.394 182.292 187.059 182.044 186.798C181.797 186.537 181.468 186.406 181.056 186.406C180.562 186.406 180.177 186.547 179.901 186.83C179.629 187.11 179.493 187.5 179.493 188.001H178.5C178.5 187.281 178.73 186.7 179.192 186.256C179.658 185.812 180.279 185.59 181.056 185.59C181.783 185.59 182.358 185.781 182.78 186.164C183.203 186.544 183.414 187.051 183.414 187.684C183.414 188.454 182.924 189.371 181.942 190.434L179.848 192.706H183.774V193.517ZM185.283 189.596L185.681 185.697H189.688V186.615H186.524L186.288 188.748C186.671 188.522 187.106 188.409 187.593 188.409C188.305 188.409 188.871 188.646 189.29 189.118C189.709 189.587 189.918 190.223 189.918 191.025C189.918 191.831 189.7 192.466 189.263 192.932C188.83 193.394 188.223 193.625 187.442 193.625C186.751 193.625 186.187 193.433 185.75 193.05C185.314 192.667 185.065 192.137 185.004 191.46H185.944C186.005 191.908 186.164 192.246 186.422 192.475C186.68 192.701 187.02 192.814 187.442 192.814C187.904 192.814 188.266 192.656 188.527 192.341C188.792 192.026 188.925 191.591 188.925 191.036C188.925 190.513 188.782 190.094 188.495 189.779C188.212 189.46 187.834 189.301 187.362 189.301C186.929 189.301 186.588 189.396 186.341 189.586L186.078 189.801L185.283 189.596Z" fill="black"/>
<path d="M87.9442 244C96.4581 244 103.36 238.218 103.36 231.086C103.36 223.954 96.4581 218.172 87.9442 218.172C79.4304 218.172 72.5286 223.954 72.5286 231.086C72.5286 238.218 79.4304 244 87.9442 244Z" stroke="#9013FE"/>
<path d="M87.4018 235.858H82.2777V235.144L84.9848 232.136C85.3858 231.681 85.6615 231.312 85.8119 231.029C85.9659 230.743 86.0429 230.447 86.0429 230.143C86.0429 229.735 85.9193 229.4 85.6723 229.139C85.4252 228.877 85.0958 228.747 84.684 228.747C84.1898 228.747 83.8049 228.888 83.5292 229.171C83.2571 229.45 83.121 229.84 83.121 230.342H82.1273C82.1273 229.622 82.3583 229.04 82.8202 228.596C83.2857 228.152 83.907 227.93 84.684 227.93C85.4109 227.93 85.9856 228.122 86.4081 228.505C86.8306 228.884 87.0419 229.391 87.0419 230.025C87.0419 230.795 86.5513 231.711 85.5702 232.775L83.4755 235.047H87.4018V235.858ZM92.2626 232.42C92.0549 232.667 91.8061 232.866 91.516 233.017C91.2296 233.167 90.9145 233.242 90.5707 233.242C90.1195 233.242 89.7257 233.131 89.3891 232.909C89.0561 232.687 88.7982 232.376 88.6156 231.975C88.433 231.57 88.3417 231.124 88.3417 230.637C88.3417 230.114 88.4402 229.644 88.6371 229.225C88.8376 228.806 89.1205 228.485 89.4857 228.263C89.851 228.041 90.2771 227.93 90.7641 227.93C91.5375 227.93 92.1462 228.22 92.5902 228.8C93.0378 229.377 93.2616 230.165 93.2616 231.164V231.454C93.2616 232.975 92.9608 234.087 92.3593 234.789C91.7577 235.487 90.85 235.845 89.6361 235.863H89.4428V235.025H89.6523C90.4722 235.011 91.1024 234.798 91.5429 234.386C91.9833 233.971 92.2232 233.316 92.2626 232.42ZM90.7318 232.42C91.0648 232.42 91.371 232.318 91.6503 232.114C91.9332 231.91 92.1391 231.658 92.268 231.357V230.959C92.268 230.308 92.1265 229.778 91.8437 229.37C91.5608 228.961 91.2027 228.757 90.7694 228.757C90.3326 228.757 89.9817 228.926 89.7167 229.262C89.4517 229.595 89.3192 230.036 89.3192 230.583C89.3192 231.117 89.4464 231.557 89.7006 231.905C89.9584 232.249 90.3022 232.42 90.7318 232.42Z" fill="black"/>
<path d="M131.108 244C139.622 244 146.524 238.218 146.524 231.086C146.524 223.954 139.622 218.172 131.108 218.172C122.594 218.172 115.692 223.954 115.692 231.086C115.692 238.218 122.594 244 131.108 244Z" stroke="black"/>
<path d="M128.636 233.231H129.721V234.042H128.636V235.858H127.637V234.042H124.076V233.457L127.578 228.038H128.636V233.231ZM125.204 233.231H127.637V229.396L127.519 229.611L125.204 233.231ZM131.075 231.937L131.472 228.038H135.479V228.956H132.316L132.079 231.088C132.462 230.863 132.897 230.75 133.384 230.75C134.097 230.75 134.663 230.986 135.082 231.459C135.501 231.928 135.71 232.564 135.71 233.366C135.71 234.171 135.492 234.807 135.055 235.272C134.622 235.734 134.015 235.965 133.234 235.965C132.543 235.965 131.979 235.774 131.542 235.391C131.105 235.007 130.856 234.478 130.796 233.801H131.735C131.796 234.248 131.956 234.587 132.214 234.816C132.471 235.041 132.811 235.154 133.234 235.154C133.696 235.154 134.058 234.997 134.319 234.682C134.584 234.367 134.716 233.931 134.716 233.376C134.716 232.854 134.573 232.435 134.287 232.12C134.004 231.801 133.626 231.642 133.153 231.642C132.72 231.642 132.38 231.736 132.133 231.926L131.87 232.141L131.075 231.937Z" fill="black"/>
<path d="M176.738 244C185.252 244 192.154 238.218 192.154 231.086C192.154 223.954 185.252 218.172 176.738 218.172C168.224 218.172 161.323 223.954 161.323 231.086C161.323 238.218 168.224 244 176.738 244Z" stroke="black"/>
<path d="M172.095 231.126H172.841C173.31 231.118 173.679 230.995 173.948 230.755C174.216 230.515 174.351 230.191 174.351 229.783C174.351 228.866 173.894 228.408 172.981 228.408C172.551 228.408 172.208 228.531 171.95 228.778C171.695 229.022 171.568 229.346 171.568 229.751H170.575C170.575 229.131 170.8 228.617 171.251 228.209C171.706 227.797 172.283 227.591 172.981 227.591C173.719 227.591 174.297 227.787 174.716 228.177C175.135 228.567 175.344 229.11 175.344 229.804C175.344 230.144 175.233 230.474 175.011 230.793C174.793 231.111 174.494 231.349 174.114 231.507C174.544 231.643 174.875 231.869 175.108 232.184C175.344 232.499 175.462 232.884 175.462 233.338C175.462 234.04 175.233 234.597 174.775 235.009C174.317 235.421 173.72 235.627 172.986 235.627C172.252 235.627 171.654 235.428 171.192 235.03C170.734 234.633 170.505 234.108 170.505 233.457H171.504C171.504 233.868 171.638 234.198 171.907 234.445C172.175 234.692 172.535 234.816 172.986 234.816C173.466 234.816 173.833 234.69 174.087 234.44C174.342 234.189 174.469 233.829 174.469 233.36C174.469 232.905 174.329 232.556 174.05 232.313C173.771 232.069 173.368 231.944 172.841 231.937H172.095V231.126ZM178.271 231.126H179.018C179.487 231.118 179.856 230.995 180.125 230.755C180.393 230.515 180.527 230.191 180.527 229.783C180.527 228.866 180.071 228.408 179.158 228.408C178.728 228.408 178.384 228.531 178.126 228.778C177.872 229.022 177.745 229.346 177.745 229.751H176.751C176.751 229.131 176.977 228.617 177.428 228.209C177.883 227.797 178.459 227.591 179.158 227.591C179.895 227.591 180.474 227.787 180.893 228.177C181.312 228.567 181.521 229.11 181.521 229.804C181.521 230.144 181.41 230.474 181.188 230.793C180.97 231.111 180.671 231.349 180.291 231.507C180.721 231.643 181.052 231.869 181.285 232.184C181.521 232.499 181.639 232.884 181.639 233.338C181.639 234.04 181.41 234.597 180.952 235.009C180.493 235.421 179.897 235.627 179.163 235.627C178.429 235.627 177.831 235.428 177.369 235.03C176.911 234.633 176.682 234.108 176.682 233.457H177.681C177.681 233.868 177.815 234.198 178.083 234.445C178.352 234.692 178.712 234.816 179.163 234.816C179.643 234.816 180.01 234.69 180.264 234.44C180.518 234.189 180.646 233.829 180.646 233.36C180.646 232.905 180.506 232.556 180.227 232.313C179.947 232.069 179.544 231.944 179.018 231.937H178.271V231.126Z" fill="black"/>
<path d="M248.267 202.675C256.781 202.675 263.683 196.894 263.683 189.762C263.683 182.629 256.781 176.848 248.267 176.848C239.753 176.848 232.851 182.629 232.851 189.762C232.851 196.894 239.753 202.675 248.267 202.675Z" stroke="black"/>
<path d="M245.774 193.517H240.65V192.803L243.357 189.795C243.758 189.34 244.034 188.972 244.184 188.689C244.338 188.402 244.415 188.107 244.415 187.802C244.415 187.394 244.292 187.059 244.044 186.798C243.797 186.537 243.468 186.406 243.056 186.406C242.562 186.406 242.177 186.547 241.901 186.83C241.629 187.11 241.493 187.5 241.493 188.001H240.5C240.5 187.281 240.73 186.7 241.192 186.256C241.658 185.812 242.279 185.59 243.056 185.59C243.783 185.59 244.358 185.781 244.78 186.164C245.203 186.544 245.414 187.051 245.414 187.684C245.414 188.454 244.924 189.371 243.942 190.434L241.848 192.706H245.774V193.517ZM248.271 189.124H249.018C249.487 189.117 249.856 188.993 250.125 188.753C250.393 188.513 250.527 188.189 250.527 187.781C250.527 186.864 250.071 186.406 249.158 186.406C248.728 186.406 248.384 186.53 248.126 186.777C247.872 187.02 247.745 187.344 247.745 187.749H246.751C246.751 187.129 246.977 186.615 247.428 186.207C247.883 185.795 248.459 185.59 249.158 185.59C249.895 185.59 250.474 185.785 250.893 186.175C251.312 186.565 251.521 187.108 251.521 187.802C251.521 188.143 251.41 188.472 251.188 188.791C250.97 189.109 250.671 189.348 250.291 189.505C250.721 189.641 251.052 189.867 251.285 190.182C251.521 190.497 251.639 190.882 251.639 191.337C251.639 192.038 251.41 192.595 250.952 193.007C250.493 193.419 249.897 193.625 249.163 193.625C248.429 193.625 247.831 193.426 247.369 193.029C246.911 192.631 246.682 192.106 246.682 191.455H247.681C247.681 191.867 247.815 192.196 248.083 192.443C248.352 192.69 248.712 192.814 249.163 192.814C249.643 192.814 250.01 192.688 250.264 192.438C250.518 192.187 250.646 191.827 250.646 191.358C250.646 190.903 250.506 190.554 250.227 190.311C249.947 190.067 249.544 189.942 249.018 189.935H248.271V189.124Z" fill="black"/>
<path d="M309.929 202.675C318.443 202.675 325.345 196.894 325.345 189.762C325.345 182.629 318.443 176.848 309.929 176.848C301.416 176.848 294.514 182.629 294.514 189.762C294.514 196.894 301.416 202.675 309.929 202.675Z" stroke="black"/>
<path d="M304.095 189.124H304.841C305.31 189.117 305.679 188.993 305.948 188.753C306.216 188.513 306.351 188.189 306.351 187.781C306.351 186.864 305.894 186.406 304.981 186.406C304.551 186.406 304.208 186.53 303.95 186.777C303.695 187.02 303.568 187.344 303.568 187.749H302.575C302.575 187.129 302.8 186.615 303.251 186.207C303.706 185.795 304.283 185.59 304.981 185.59C305.719 185.59 306.297 185.785 306.716 186.175C307.135 186.565 307.344 187.108 307.344 187.802C307.344 188.143 307.233 188.472 307.011 188.791C306.793 189.109 306.494 189.348 306.114 189.505C306.544 189.641 306.875 189.867 307.108 190.182C307.344 190.497 307.462 190.882 307.462 191.337C307.462 192.038 307.233 192.595 306.775 193.007C306.317 193.419 305.72 193.625 304.986 193.625C304.252 193.625 303.654 193.426 303.192 193.029C302.734 192.631 302.505 192.106 302.505 191.455H303.504C303.504 191.867 303.638 192.196 303.907 192.443C304.175 192.69 304.535 192.814 304.986 192.814C305.466 192.814 305.833 192.688 306.087 192.438C306.342 192.187 306.469 191.827 306.469 191.358C306.469 190.903 306.329 190.554 306.05 190.311C305.771 190.067 305.368 189.942 304.841 189.935H304.095V189.124ZM309.283 189.596L309.681 185.697H313.688V186.615H310.524L310.288 188.748C310.671 188.522 311.106 188.409 311.593 188.409C312.305 188.409 312.871 188.646 313.29 189.118C313.709 189.587 313.918 190.223 313.918 191.025C313.918 191.831 313.7 192.466 313.263 192.932C312.83 193.394 312.223 193.625 311.442 193.625C310.751 193.625 310.187 193.433 309.75 193.05C309.314 192.667 309.065 192.137 309.004 191.46H309.944C310.005 191.908 310.164 192.246 310.422 192.475C310.68 192.701 311.02 192.814 311.442 192.814C311.904 192.814 312.266 192.656 312.527 192.341C312.792 192.026 312.925 191.591 312.925 191.036C312.925 190.513 312.782 190.094 312.495 189.779C312.212 189.46 311.834 189.301 311.362 189.301C310.929 189.301 310.588 189.396 310.341 189.586L310.078 189.801L309.283 189.596Z" fill="black"/>
<path d="M206.336 121.576L175.505 140.172" stroke="black" stroke-linecap="square"/>
<path d="M215.126 231.784C215.126 231.612 215.176 231.469 215.276 231.354C215.38 231.239 215.534 231.182 215.738 231.182C215.942 231.182 216.096 231.239 216.2 231.354C216.308 231.469 216.361 231.612 216.361 231.784C216.361 231.948 216.308 232.086 216.2 232.197C216.096 232.308 215.942 232.364 215.738 232.364C215.534 232.364 215.38 232.308 215.276 232.197C215.176 232.086 215.126 231.948 215.126 231.784ZM220.755 231.784C220.755 231.612 220.805 231.469 220.905 231.354C221.009 231.239 221.163 231.182 221.367 231.182C221.571 231.182 221.725 231.239 221.829 231.354C221.936 231.469 221.99 231.612 221.99 231.784C221.99 231.948 221.936 232.086 221.829 232.197C221.725 232.308 221.571 232.364 221.367 232.364C221.163 232.364 221.009 232.308 220.905 232.197C220.805 232.086 220.755 231.948 220.755 231.784ZM226.384 231.784C226.384 231.612 226.434 231.469 226.534 231.354C226.638 231.239 226.792 231.182 226.996 231.182C227.2 231.182 227.354 231.239 227.458 231.354C227.565 231.469 227.619 231.612 227.619 231.784C227.619 231.948 227.565 232.086 227.458 232.197C227.354 232.308 227.2 232.364 226.996 232.364C226.792 232.364 226.638 232.308 226.534 232.197C226.434 232.086 226.384 231.948 226.384 231.784ZM232.013 231.784C232.013 231.612 232.063 231.469 232.163 231.354C232.267 231.239 232.421 231.182 232.625 231.182C232.829 231.182 232.983 231.239 233.087 231.354C233.194 231.469 233.248 231.612 233.248 231.784C233.248 231.948 233.194 232.086 233.087 232.197C232.983 232.308 232.829 232.364 232.625 232.364C232.421 232.364 232.267 232.308 232.163 232.197C232.063 232.086 232.013 231.948 232.013 231.784ZM237.642 231.784C237.642 231.612 237.692 231.469 237.792 231.354C237.896 231.239 238.05 231.182 238.254 231.182C238.458 231.182 238.612 231.239 238.716 231.354C238.823 231.469 238.877 231.612 238.877 231.784C238.877 231.948 238.823 232.086 238.716 232.197C238.612 232.308 238.458 232.364 238.254 232.364C238.05 232.364 237.896 232.308 237.792 232.197C237.692 232.086 237.642 231.948 237.642 231.784ZM243.27 231.784C243.27 231.612 243.321 231.469 243.421 231.354C243.525 231.239 243.679 231.182 243.883 231.182C244.087 231.182 244.241 231.239 244.345 231.354C244.452 231.469 244.506 231.612 244.506 231.784C244.506 231.948 244.452 232.086 244.345 232.197C244.241 232.308 244.087 232.364 243.883 232.364C243.679 232.364 243.525 232.308 243.421 232.197C243.321 232.086 243.27 231.948 243.27 231.784ZM248.899 231.784C248.899 231.612 248.949 231.469 249.05 231.354C249.154 231.239 249.308 231.182 249.512 231.182C249.716 231.182 249.87 231.239 249.974 231.354C250.081 231.469 250.135 231.612 250.135 231.784C250.135 231.948 250.081 232.086 249.974 232.197C249.87 232.308 249.716 232.364 249.512 232.364C249.308 232.364 249.154 232.308 249.05 232.197C248.949 232.086 248.899 231.948 248.899 231.784ZM254.528 231.784C254.528 231.612 254.578 231.469 254.679 231.354C254.782 231.239 254.936 231.182 255.141 231.182C255.345 231.182 255.499 231.239 255.602 231.354C255.71 231.469 255.764 231.612 255.764 231.784C255.764 231.948 255.71 232.086 255.602 232.197C255.499 232.308 255.345 232.364 255.141 232.364C254.936 232.364 254.782 232.308 254.679 232.197C254.578 232.086 254.528 231.948 254.528 231.784ZM260.157 231.784C260.157 231.612 260.207 231.469 260.308 231.354C260.411 231.239 260.565 231.182 260.769 231.182C260.974 231.182 261.128 231.239 261.231 231.354C261.339 231.469 261.393 231.612 261.393 231.784C261.393 231.948 261.339 232.086 261.231 232.197C261.128 232.308 260.974 232.364 260.769 232.364C260.565 232.364 260.411 232.308 260.308 232.197C260.207 232.086 260.157 231.948 260.157 231.784Z" fill="black"/>
<path d="M150.84 157.735L132.341 177.364" stroke="black" stroke-linecap="square"/>
<path d="M170.572 158.768L182.905 177.364" stroke="black" stroke-linecap="square"/>
<path d="M264.299 158.768L253.2 176.331" stroke="black" stroke-linecap="square"/>
<path d="M284.031 156.702L302.53 177.364" stroke="black" stroke-linecap="square"/>
<path d="M127.408 202.159L131.108 217.656" stroke="black" stroke-linecap="square"/>
<path d="M229.768 120.543L261.833 139.139" stroke="black" stroke-linecap="square"/>
<path d="M184.138 203.192L179.205 217.656" stroke="black" stroke-linecap="square"/>
<path d="M196.47 200.093L210.036 220.755" stroke="black" stroke-linecap="square"/>
<path d="M242.101 202.159L231.001 219.722" stroke="black" stroke-linecap="square"/>
<path d="M254.433 201.126L263.066 218.689" stroke="black" stroke-linecap="square"/>
<path d="M116.309 201.126L96.577 220.755" stroke="black" stroke-linecap="square"/>
<path d="M398.948 149.656H393.824V148.941L396.531 145.934C396.932 145.479 397.208 145.11 397.358 144.827C397.512 144.541 397.589 144.245 397.589 143.941C397.589 143.533 397.465 143.198 397.218 142.936C396.971 142.675 396.642 142.544 396.23 142.544C395.736 142.544 395.351 142.686 395.075 142.969C394.803 143.248 394.667 143.638 394.667 144.14H393.673C393.673 143.42 393.904 142.838 394.366 142.394C394.832 141.95 395.453 141.728 396.23 141.728C396.957 141.728 397.532 141.92 397.954 142.303C398.377 142.682 398.588 143.189 398.588 143.823C398.588 144.593 398.097 145.509 397.116 146.573L395.022 148.845H398.948V149.656Z" fill="black"/>
<path d="M395.269 186.587H396.015C396.484 186.579 396.853 186.456 397.122 186.216C397.39 185.976 397.525 185.652 397.525 185.244C397.525 184.327 397.068 183.869 396.155 183.869C395.725 183.869 395.381 183.992 395.124 184.239C394.869 184.483 394.742 184.807 394.742 185.212H393.749C393.749 184.592 393.974 184.078 394.425 183.67C394.88 183.258 395.457 183.052 396.155 183.052C396.893 183.052 397.471 183.248 397.89 183.638C398.309 184.028 398.518 184.571 398.518 185.265C398.518 185.605 398.407 185.935 398.185 186.254C397.967 186.572 397.668 186.81 397.288 186.968C397.718 187.104 398.049 187.33 398.282 187.645C398.518 187.96 398.636 188.345 398.636 188.799C398.636 189.501 398.407 190.058 397.949 190.47C397.49 190.882 396.894 191.088 396.16 191.088C395.426 191.088 394.828 190.889 394.366 190.491C393.908 190.094 393.679 189.569 393.679 188.918H394.678C394.678 189.329 394.812 189.659 395.081 189.906C395.349 190.153 395.709 190.277 396.16 190.277C396.64 190.277 397.007 190.151 397.261 189.901C397.516 189.65 397.643 189.29 397.643 188.821C397.643 188.366 397.503 188.017 397.224 187.774C396.944 187.53 396.542 187.405 396.015 187.398H395.269V186.587Z" fill="black"/>
<path d="M398.019 230.711H399.104V231.522H398.019V233.338H397.02V231.522H393.459V230.937L396.961 225.517H398.019V230.711ZM394.587 230.711H397.02V226.876L396.901 227.091L394.587 230.711Z" fill="black"/>
<path d="M372.07 103.411C371.92 103.386 371.757 103.374 371.581 103.374C370.929 103.374 370.487 103.651 370.255 104.206V108.331H369.261V102.52H370.228L370.244 103.191C370.57 102.672 371.032 102.412 371.63 102.412C371.823 102.412 371.97 102.437 372.07 102.488V103.411ZM372.618 105.372C372.618 104.802 372.729 104.29 372.951 103.836C373.176 103.381 373.488 103.03 373.885 102.783C374.286 102.536 374.743 102.412 375.255 102.412C376.046 102.412 376.686 102.686 377.172 103.234C377.663 103.782 377.908 104.511 377.908 105.42V105.49C377.908 106.056 377.799 106.564 377.581 107.015C377.366 107.463 377.056 107.812 376.651 108.063C376.25 108.313 375.789 108.439 375.266 108.439C374.478 108.439 373.839 108.165 373.348 107.617C372.861 107.069 372.618 106.344 372.618 105.442V105.372ZM373.617 105.49C373.617 106.134 373.765 106.652 374.063 107.042C374.363 107.433 374.764 107.628 375.266 107.628C375.771 107.628 376.172 107.431 376.469 107.037C376.766 106.639 376.915 106.084 376.915 105.372C376.915 104.734 376.762 104.219 376.458 103.825C376.157 103.427 375.756 103.229 375.255 103.229C374.764 103.229 374.369 103.424 374.068 103.814C373.767 104.204 373.617 104.763 373.617 105.49ZM378.891 105.372C378.891 104.802 379.002 104.29 379.224 103.836C379.45 103.381 379.761 103.03 380.159 102.783C380.56 102.536 381.016 102.412 381.528 102.412C382.32 102.412 382.959 102.686 383.446 103.234C383.936 103.782 384.182 104.511 384.182 105.42V105.49C384.182 106.056 384.073 106.564 383.854 107.015C383.639 107.463 383.33 107.812 382.925 108.063C382.524 108.313 382.062 108.439 381.539 108.439C380.751 108.439 380.112 108.165 379.622 107.617C379.135 107.069 378.891 106.344 378.891 105.442V105.372ZM379.89 105.49C379.89 106.134 380.039 106.652 380.336 107.042C380.637 107.433 381.038 107.628 381.539 107.628C382.044 107.628 382.445 107.431 382.742 107.037C383.04 106.639 383.188 106.084 383.188 105.372C383.188 104.734 383.036 104.219 382.732 103.825C382.431 103.427 382.03 103.229 381.528 103.229C381.038 103.229 380.642 103.424 380.341 103.814C380.041 104.204 379.89 104.763 379.89 105.49ZM386.776 101.113V102.52H387.861V103.288H386.776V106.892C386.776 107.125 386.824 107.3 386.921 107.418C387.018 107.533 387.182 107.59 387.415 107.59C387.53 107.59 387.687 107.569 387.888 107.526V108.331C387.626 108.403 387.372 108.439 387.125 108.439C386.681 108.439 386.346 108.304 386.121 108.036C385.895 107.767 385.782 107.386 385.782 106.892V103.288H384.724V102.52H385.782V101.113H386.776Z" fill="black"/>
<path d="M415.844 37.3777H381.382V66.2769H415.844V37.3777Z" fill="white"/>
<path d="M415.227 37.8942H381.998V65.7603H415.227V37.8942Z" stroke="#979797"/>
<path d="M394.583 52.8822C394.583 52.7103 394.633 52.5671 394.733 52.4525C394.837 52.3379 394.991 52.2807 395.195 52.2807C395.399 52.2807 395.553 52.3379 395.657 52.4525C395.765 52.5671 395.818 52.7103 395.818 52.8822C395.818 53.0469 395.765 53.1848 395.657 53.2958C395.553 53.4068 395.399 53.4623 395.195 53.4623C394.991 53.4623 394.837 53.4068 394.733 53.2958C394.633 53.1848 394.583 53.0469 394.583 52.8822ZM396.93 52.8822C396.93 52.7103 396.98 52.5671 397.08 52.4525C397.184 52.3379 397.338 52.2807 397.542 52.2807C397.746 52.2807 397.9 52.3379 398.004 52.4525C398.112 52.5671 398.165 52.7103 398.165 52.8822C398.165 53.0469 398.112 53.1848 398.004 53.2958C397.9 53.4068 397.746 53.4623 397.542 53.4623C397.338 53.4623 397.184 53.4068 397.08 53.2958C396.98 53.1848 396.93 53.0469 396.93 52.8822ZM399.159 52.8822C399.159 52.7103 399.209 52.5671 399.309 52.4525C399.413 52.3379 399.567 52.2807 399.771 52.2807C399.975 52.2807 400.129 52.3379 400.233 52.4525C400.341 52.5671 400.394 52.7103 400.394 52.8822C400.394 53.0469 400.341 53.1848 400.233 53.2958C400.129 53.4068 399.975 53.4623 399.771 53.4623C399.567 53.4623 399.413 53.4068 399.309 53.2958C399.209 53.1848 399.159 53.0469 399.159 52.8822Z" fill="black"/>
<path d="M382.546 37.3777H348.084V66.2769H382.546V37.3777Z" fill="white"/>
<path d="M381.929 37.8942H348.7V65.7603H381.929V37.8942Z" stroke="#979797"/>
<path d="M358.885 49.0097H359.632C360.101 49.0025 360.47 48.879 360.738 48.6391C361.007 48.3991 361.141 48.0751 361.141 47.6669C361.141 46.7502 360.684 46.2919 359.771 46.2919C359.342 46.2919 358.998 46.4154 358.74 46.6625C358.486 46.906 358.359 47.23 358.359 47.6347H357.365C357.365 47.0152 357.591 46.5014 358.042 46.0932C358.497 45.6814 359.073 45.4755 359.771 45.4755C360.509 45.4755 361.087 45.6706 361.506 46.0609C361.925 46.4512 362.135 46.9937 362.135 47.6884C362.135 48.0285 362.024 48.358 361.802 48.6767C361.583 48.9953 361.284 49.2335 360.905 49.391C361.334 49.5271 361.666 49.7527 361.898 50.0678C362.135 50.3829 362.253 50.7678 362.253 51.2225C362.253 51.9244 362.024 52.4812 361.565 52.893C361.107 53.3047 360.511 53.5106 359.777 53.5106C359.043 53.5106 358.445 53.3119 357.983 52.9144C357.524 52.517 357.295 51.9924 357.295 51.3407H358.294C358.294 51.7525 358.429 52.0819 358.697 52.329C358.966 52.5761 359.326 52.6996 359.777 52.6996C360.257 52.6996 360.624 52.5743 360.878 52.3236C361.132 52.073 361.259 51.7131 361.259 51.244C361.259 50.7893 361.12 50.4402 360.84 50.1967C360.561 49.9532 360.158 49.8279 359.632 49.8207H358.885V49.0097ZM365.062 49.0097H365.809C366.278 49.0025 366.646 48.879 366.915 48.6391C367.184 48.3991 367.318 48.0751 367.318 47.6669C367.318 46.7502 366.861 46.2919 365.948 46.2919C365.518 46.2919 365.175 46.4154 364.917 46.6625C364.663 46.906 364.536 47.23 364.536 47.6347H363.542C363.542 47.0152 363.767 46.5014 364.219 46.0932C364.673 45.6814 365.25 45.4755 365.948 45.4755C366.686 45.4755 367.264 45.6706 367.683 46.0609C368.102 46.4512 368.311 46.9937 368.311 47.6884C368.311 48.0285 368.2 48.358 367.978 48.6767C367.76 48.9953 367.461 49.2335 367.081 49.391C367.511 49.5271 367.842 49.7527 368.075 50.0678C368.311 50.3829 368.43 50.7678 368.43 51.2225C368.43 51.9244 368.2 52.4812 367.742 52.893C367.284 53.3047 366.688 53.5106 365.954 53.5106C365.219 53.5106 364.621 53.3119 364.16 52.9144C363.701 52.517 363.472 51.9924 363.472 51.3407H364.471C364.471 51.7525 364.605 52.0819 364.874 52.329C365.142 52.5761 365.502 52.6996 365.954 52.6996C366.433 52.6996 366.8 52.5743 367.055 52.3236C367.309 52.073 367.436 51.7131 367.436 51.244C367.436 50.7893 367.296 50.4402 367.017 50.1967C366.738 49.9532 366.335 49.8279 365.809 49.8207H365.062V49.0097Z" fill="black"/>
<path d="M349.462 37.3777H315V66.2769H349.462V37.3777Z" fill="white"/>
<path d="M348.846 37.8942H315.617V65.7603H348.846V37.8942Z" stroke="#979797"/>
<path d="M332.251 50.7767H333.336V51.5878H332.251V53.4032H331.252V51.5878H327.691V51.0023L331.193 45.5829H332.251V50.7767ZM328.819 50.7767H331.252V46.9418L331.134 47.1566L328.819 50.7767ZM334.69 49.4823L335.087 45.5829H339.094V46.5014H335.93L335.694 48.6337C336.077 48.4081 336.512 48.2953 336.999 48.2953C337.712 48.2953 338.278 48.5316 338.696 49.0043C339.115 49.4734 339.325 50.1089 339.325 50.911C339.325 51.7167 339.106 52.3523 338.67 52.8178C338.236 53.2797 337.629 53.5106 336.849 53.5106C336.158 53.5106 335.594 53.3191 335.157 52.9359C334.72 52.5528 334.471 52.0228 334.41 51.3461H335.35C335.411 51.7937 335.57 52.1321 335.828 52.3612C336.086 52.5868 336.426 52.6996 336.849 52.6996C337.311 52.6996 337.672 52.542 337.934 52.2269C338.199 51.9118 338.331 51.4768 338.331 50.9218C338.331 50.399 338.188 49.98 337.902 49.6649C337.619 49.3462 337.241 49.1869 336.768 49.1869C336.335 49.1869 335.995 49.2818 335.748 49.4716L335.485 49.6864L334.69 49.4823Z" fill="black"/>
<path d="M283.295 37.3777H248.833V66.2769H283.295V37.3777Z" fill="white"/>
<path d="M282.678 37.8942H249.449V65.7603H282.678V37.8942Z" stroke="#979797"/>
<path d="M264.095 48.8375H264.841C265.31 48.8303 265.679 48.7068 265.948 48.4669C266.216 48.227 266.351 47.9029 266.351 47.4947C266.351 46.5781 265.894 46.1197 264.981 46.1197C264.551 46.1197 264.208 46.2433 263.95 46.4903C263.695 46.7338 263.568 47.0579 263.568 47.4625H262.575C262.575 46.843 262.8 46.3292 263.251 45.921C263.706 45.5092 264.283 45.3033 264.981 45.3033C265.719 45.3033 266.297 45.4985 266.716 45.8888C267.135 46.2791 267.344 46.8216 267.344 47.5162C267.344 47.8564 267.233 48.1858 267.011 48.5045C266.793 48.8232 266.494 49.0613 266.114 49.2189C266.544 49.3549 266.875 49.5805 267.108 49.8956C267.344 50.2107 267.462 50.5956 267.462 51.0504C267.462 51.7522 267.233 52.309 266.775 52.7208C266.317 53.1326 265.72 53.3385 264.986 53.3385C264.252 53.3385 263.654 53.1398 263.192 52.7423C262.734 52.3448 262.505 51.8203 262.505 51.1686H263.504C263.504 51.5803 263.638 51.9098 263.907 52.1568C264.175 52.4039 264.535 52.5275 264.986 52.5275C265.466 52.5275 265.833 52.4021 266.087 52.1515C266.342 51.9008 266.469 51.541 266.469 51.0719C266.469 50.6171 266.329 50.268 266.05 50.0245C265.771 49.781 265.368 49.6557 264.841 49.6485H264.095V48.8375ZM269.283 49.3102L269.681 45.4108H273.688V46.3292H270.524L270.288 48.4615C270.671 48.2359 271.106 48.1232 271.593 48.1232C272.305 48.1232 272.871 48.3595 273.29 48.8321C273.709 49.3012 273.918 49.9368 273.918 50.7389C273.918 51.5445 273.7 52.1801 273.263 52.6456C272.83 53.1075 272.223 53.3385 271.442 53.3385C270.751 53.3385 270.187 53.1469 269.75 52.7638C269.314 52.3806 269.065 51.8507 269.004 51.1739H269.944C270.005 51.6215 270.164 51.9599 270.422 52.1891C270.68 52.4147 271.02 52.5275 271.442 52.5275C271.904 52.5275 272.266 52.3699 272.527 52.0548C272.792 51.7397 272.925 51.3046 272.925 50.7496C272.925 50.2268 272.782 49.8079 272.495 49.4928C272.212 49.1741 271.834 49.0148 271.362 49.0148C270.929 49.0148 270.588 49.1096 270.341 49.2994L270.078 49.5143L269.283 49.3102Z" fill="black"/>
<path d="M316.379 37.3777H281.916V66.2769H316.379V37.3777Z" fill="white"/>
<path d="M315.762 37.8942H282.533V65.7603H315.762V37.8942Z" stroke="#9012FE"/>
<path d="M300.097 53.4032H294.973V52.6889L297.68 49.681C298.081 49.2263 298.356 48.8575 298.507 48.5746C298.661 48.2881 298.738 47.9927 298.738 47.6884C298.738 47.2802 298.614 46.9454 298.367 46.684C298.12 46.4226 297.791 46.2919 297.379 46.2919C296.885 46.2919 296.5 46.4333 296.224 46.7162C295.952 46.9955 295.816 47.3858 295.816 47.8871H294.822C294.822 47.1674 295.053 46.5855 295.515 46.1415C295.981 45.6975 296.602 45.4755 297.379 45.4755C298.106 45.4755 298.68 45.667 299.103 46.0502C299.526 46.4297 299.737 46.9364 299.737 47.5702C299.737 48.3401 299.246 49.2567 298.265 50.3202L296.17 52.5922H300.097V53.4032ZM304.957 49.9657C304.75 50.2128 304.501 50.4115 304.211 50.5619C303.924 50.7123 303.609 50.7875 303.266 50.7875C302.814 50.7875 302.421 50.6765 302.084 50.4545C301.751 50.2325 301.493 49.921 301.311 49.5199C301.128 49.1153 301.037 48.6695 301.037 48.1825C301.037 47.6597 301.135 47.1889 301.332 46.7699C301.533 46.351 301.815 46.0305 302.181 45.8085C302.546 45.5865 302.972 45.4755 303.459 45.4755C304.232 45.4755 304.841 45.7655 305.285 46.3456C305.733 46.9221 305.957 47.7099 305.957 48.7089V48.9989C305.957 50.5207 305.656 51.6325 305.054 52.3344C304.453 53.0326 303.545 53.3907 302.331 53.4086H302.138V52.5707H302.347C303.167 52.5564 303.797 52.3433 304.238 51.9315C304.678 51.5162 304.918 50.8609 304.957 49.9657ZM303.427 49.9657C303.76 49.9657 304.066 49.8637 304.345 49.6596C304.628 49.4555 304.834 49.203 304.963 48.9022V48.5048C304.963 47.8531 304.821 47.3231 304.539 46.9149C304.256 46.5067 303.898 46.3026 303.464 46.3026C303.027 46.3026 302.677 46.4709 302.412 46.8075C302.147 47.1405 302.014 47.5809 302.014 48.1288C302.014 48.6623 302.141 49.1028 302.395 49.4501C302.653 49.7938 302.997 49.9657 303.427 49.9657Z" fill="black"/>
<path d="M250.211 37.3777H215.749V66.2769H250.211V37.3777Z" fill="white"/>
<path d="M249.594 37.8942H216.365V65.7603H249.594V37.8942Z" stroke="#979797"/>
<path d="M232.774 53.2311H227.65V52.5167L230.357 49.5089C230.758 49.0541 231.034 48.6853 231.184 48.4025C231.338 48.116 231.415 47.8206 231.415 47.5162C231.415 47.108 231.292 46.7732 231.044 46.5118C230.797 46.2504 230.468 46.1197 230.056 46.1197C229.562 46.1197 229.177 46.2612 228.901 46.5441C228.629 46.8233 228.493 47.2136 228.493 47.715H227.5C227.5 46.9952 227.73 46.4134 228.192 45.9693C228.658 45.5253 229.279 45.3033 230.056 45.3033C230.783 45.3033 231.358 45.4949 231.78 45.878C232.203 46.2576 232.414 46.7643 232.414 47.3981C232.414 48.1679 231.924 49.0846 230.942 50.1481L228.848 52.42H232.774V53.2311ZM235.271 48.8375H236.018C236.487 48.8303 236.856 48.7068 237.125 48.4669C237.393 48.227 237.527 47.9029 237.527 47.4947C237.527 46.5781 237.071 46.1197 236.158 46.1197C235.728 46.1197 235.384 46.2433 235.126 46.4903C234.872 46.7338 234.745 47.0579 234.745 47.4625H233.751C233.751 46.843 233.977 46.3292 234.428 45.921C234.883 45.5092 235.459 45.3033 236.158 45.3033C236.895 45.3033 237.474 45.4985 237.893 45.8888C238.312 46.2791 238.521 46.8216 238.521 47.5162C238.521 47.8564 238.41 48.1858 238.188 48.5045C237.97 48.8232 237.671 49.0613 237.291 49.2189C237.721 49.3549 238.052 49.5805 238.285 49.8956C238.521 50.2107 238.639 50.5956 238.639 51.0504C238.639 51.7522 238.41 52.309 237.952 52.7208C237.493 53.1326 236.897 53.3385 236.163 53.3385C235.429 53.3385 234.831 53.1398 234.369 52.7423C233.911 52.3448 233.682 51.8203 233.682 51.1686H234.681C234.681 51.5803 234.815 51.9098 235.083 52.1568C235.352 52.4039 235.712 52.5275 236.163 52.5275C236.643 52.5275 237.01 52.4021 237.264 52.1515C237.518 51.9008 237.646 51.541 237.646 51.0719C237.646 50.6171 237.506 50.268 237.227 50.0245C236.947 49.781 236.544 49.6557 236.018 49.6485H235.271V48.8375Z" fill="black"/>
<path d="M217.127 37.3777H182.665V66.2769H217.127V37.3777Z" fill="white"/>
<path d="M216.511 37.8942H183.282V65.7603H216.511V37.8942Z" stroke="#979797"/>
<path d="M200.774 53.2311H195.65V52.5167L198.357 49.5089C198.758 49.0541 199.034 48.6853 199.184 48.4025C199.338 48.116 199.415 47.8206 199.415 47.5162C199.415 47.108 199.292 46.7732 199.044 46.5118C198.797 46.2504 198.468 46.1197 198.056 46.1197C197.562 46.1197 197.177 46.2612 196.901 46.5441C196.629 46.8233 196.493 47.2136 196.493 47.715H195.5C195.5 46.9952 195.73 46.4134 196.192 45.9693C196.658 45.5253 197.279 45.3033 198.056 45.3033C198.783 45.3033 199.358 45.4949 199.78 45.878C200.203 46.2576 200.414 46.7643 200.414 47.3981C200.414 48.1679 199.924 49.0846 198.942 50.1481L196.848 52.42H200.774V53.2311ZM202.283 49.3102L202.681 45.4108H206.688V46.3292H203.524L203.288 48.4615C203.671 48.2359 204.106 48.1232 204.593 48.1232C205.305 48.1232 205.871 48.3595 206.29 48.8321C206.709 49.3012 206.918 49.9368 206.918 50.7389C206.918 51.5445 206.7 52.1801 206.263 52.6456C205.83 53.1075 205.223 53.3385 204.442 53.3385C203.751 53.3385 203.187 53.1469 202.75 52.7638C202.314 52.3806 202.065 51.8507 202.004 51.1739H202.944C203.005 51.6215 203.164 51.9599 203.422 52.1891C203.68 52.4147 204.02 52.5275 204.442 52.5275C204.904 52.5275 205.266 52.3699 205.527 52.0548C205.792 51.7397 205.925 51.3046 205.925 50.7496C205.925 50.2268 205.782 49.8079 205.495 49.4928C205.212 49.1741 204.834 49.0148 204.362 49.0148C203.929 49.0148 203.588 49.1096 203.341 49.2994L203.078 49.5143L202.283 49.3102Z" fill="black"/>
<path d="M150.96 37.3777H116.498V66.2769H150.96V37.3777Z" fill="white"/>
<path d="M150.343 37.8942H117.114V65.7603H150.343V37.8942Z" stroke="#979797"/>
<path d="M132.524 53.5217H131.525V46.8992L129.521 47.635V46.7327L132.368 45.6638H132.524V53.5217ZM138.701 53.5217H137.702V46.8992L135.698 47.635V46.7327L138.545 45.6638H138.701V53.5217Z" fill="black"/>
<path d="M184.044 37.3777H149.581V66.2769H184.044V37.3777Z" fill="white"/>
<path d="M183.427 37.8942H150.198V65.7603H183.427V37.8942Z" stroke="#4990E2"/>
<path d="M165.916 53.2311H164.917V46.6085L162.913 47.3443V46.442L165.76 45.3732H165.916V53.2311ZM172.726 45.4054V46.2486H172.543C171.77 46.263 171.154 46.4921 170.696 46.9361C170.237 47.3802 169.972 48.005 169.901 48.8107C170.313 48.338 170.875 48.1017 171.587 48.1017C172.268 48.1017 172.81 48.3416 173.215 48.8214C173.623 49.3012 173.827 49.9207 173.827 50.6798C173.827 51.4855 173.607 52.13 173.167 52.6134C172.73 53.0968 172.142 53.3385 171.405 53.3385C170.656 53.3385 170.049 53.052 169.584 52.4791C169.118 51.9026 168.886 51.1614 168.886 50.2555V49.8741C168.886 48.4347 169.192 47.3354 169.804 46.5763C170.42 45.8136 171.335 45.4233 172.549 45.4054H172.726ZM171.421 48.9288C171.081 48.9288 170.767 49.0309 170.481 49.235C170.194 49.4391 169.996 49.6951 169.885 50.003V50.3683C169.885 51.0128 170.03 51.532 170.32 51.9259C170.61 52.3198 170.972 52.5167 171.405 52.5167C171.852 52.5167 172.203 52.352 172.458 52.0226C172.715 51.6931 172.844 51.2617 172.844 50.7281C172.844 50.191 172.714 49.7578 172.452 49.4283C172.194 49.0953 171.851 48.9288 171.421 48.9288Z" fill="black"/>
<path d="M84.7923 37.3777H50.33V66.2769H84.7923V37.3777Z" fill="white"/>
<path d="M84.1757 37.8942H50.9467V65.7603H84.1757V37.8942Z" stroke="black"/>
<path d="M63.8429 49.4823L64.2404 45.5829H68.2472V46.5014H65.0836L64.8473 48.6337C65.2304 48.4081 65.6655 48.2953 66.1525 48.2953C66.865 48.2953 67.4308 48.5316 67.8497 49.0043C68.2687 49.4734 68.4782 50.109 68.4782 50.911C68.4782 51.7167 68.2597 52.3523 67.8229 52.8178C67.3896 53.2797 66.7827 53.5107 66.0021 53.5107C65.311 53.5107 64.747 53.3191 64.3102 52.9359C63.8733 52.5528 63.6245 52.0229 63.5636 51.3461H64.5036C64.5644 51.7937 64.7238 52.1321 64.9816 52.3612C65.2394 52.5868 65.5796 52.6996 66.0021 52.6996C66.464 52.6996 66.8257 52.5421 67.0871 52.227C67.352 51.9119 67.4845 51.4768 67.4845 50.9218C67.4845 50.399 67.3413 49.9801 67.0548 49.6649C66.7719 49.3463 66.3942 49.1869 65.9215 49.1869C65.4883 49.1869 65.1481 49.2818 64.901 49.4716L64.6378 49.6864L63.8429 49.4823Z" fill="black"/>
<path d="M117.876 37.3777H83.4138V66.2769H117.876V37.3777Z" fill="white"/>
<path d="M117.259 37.8942H84.0304V65.7603H117.259V37.8942Z" stroke="#5B951B"/>
<path d="M100.278 49.9657C100.071 50.2128 99.8217 50.4115 99.5316 50.5619C99.2452 50.7123 98.9301 50.7875 98.5863 50.7875C98.1352 50.7875 97.7413 50.6765 97.4047 50.4545C97.0717 50.2325 96.8139 49.921 96.6313 49.5199C96.4486 49.1153 96.3573 48.6695 96.3573 48.1825C96.3573 47.6597 96.4558 47.1889 96.6527 46.7699C96.8533 46.351 97.1361 46.0305 97.5014 45.8085C97.8666 45.5865 98.2927 45.4755 98.7797 45.4755C99.5531 45.4755 100.162 45.7655 100.606 46.3456C101.053 46.9221 101.277 47.7099 101.277 48.7089V48.9989C101.277 50.5207 100.976 51.6325 100.375 52.3344C99.7733 53.0326 98.8656 53.3907 97.6518 53.4086H97.4584V52.5707H97.6679C98.4879 52.5564 99.1181 52.3433 99.5585 51.9315C99.9989 51.5162 100.239 50.8609 100.278 49.9657ZM98.7475 49.9657C99.0805 49.9657 99.3866 49.8637 99.6659 49.6596C99.9488 49.4555 100.155 49.203 100.284 48.9022V48.5048C100.284 47.8531 100.142 47.3231 99.8593 46.9149C99.5764 46.5067 99.2183 46.3026 98.7851 46.3026C98.3482 46.3026 97.9973 46.4709 97.7323 46.8075C97.4674 47.1405 97.3349 47.5809 97.3349 48.1288C97.3349 48.6623 97.462 49.1028 97.7162 49.4501C97.974 49.7938 98.3178 49.9657 98.7475 49.9657Z" fill="black"/>
<path d="M3.01416 27.7486H1.98291V19.9283H3.01416V27.7486ZM5.68896 21.9371L5.72119 22.6675C6.1652 22.1089 6.74528 21.8297 7.46143 21.8297C8.68962 21.8297 9.30908 22.5225 9.31982 23.9083V27.7486H8.32617V23.9029C8.32259 23.4839 8.22591 23.1742 8.03613 22.9737C7.84993 22.7732 7.55811 22.6729 7.16064 22.6729C6.83838 22.6729 6.5555 22.7589 6.31201 22.9307C6.06852 23.1026 5.87874 23.3282 5.74268 23.6075V27.7486H4.74902V21.9371H5.68896ZM10.5767 24.7945C10.5767 23.9029 10.7879 23.1867 11.2104 22.6461C11.633 22.1018 12.1862 21.8297 12.8701 21.8297C13.5505 21.8297 14.0894 22.0624 14.4868 22.5279V19.4986H15.4805V27.7486H14.5674L14.519 27.1255C14.1216 27.6125 13.5684 27.856 12.8594 27.856C12.1862 27.856 11.6366 27.5803 11.2104 27.0289C10.7879 26.4774 10.5767 25.7577 10.5767 24.8697V24.7945ZM11.5703 24.9073C11.5703 25.5661 11.7064 26.0818 11.9785 26.4542C12.2507 26.8266 12.6266 27.0128 13.1064 27.0128C13.7367 27.0128 14.1968 26.7299 14.4868 26.1641V23.4947C14.1896 22.9468 13.7331 22.6729 13.1172 22.6729C12.6302 22.6729 12.2507 22.8609 11.9785 23.2369C11.7064 23.6129 11.5703 24.1697 11.5703 24.9073ZM19.439 27.856C18.6512 27.856 18.0103 27.5982 17.5161 27.0826C17.022 26.5634 16.7749 25.8705 16.7749 25.004V24.8214C16.7749 24.2449 16.8841 23.731 17.1025 23.2798C17.3245 22.8251 17.6325 22.4706 18.0264 22.2164C18.4238 21.9586 18.8535 21.8297 19.3154 21.8297C20.071 21.8297 20.6582 22.0785 21.0771 22.5762C21.4961 23.074 21.7056 23.7865 21.7056 24.7139V25.1275H17.7686C17.7829 25.7004 17.9494 26.1641 18.2681 26.5186C18.5903 26.8695 18.9985 27.045 19.4927 27.045C19.8436 27.045 20.1408 26.9734 20.3843 26.8301C20.6278 26.6869 20.8408 26.4971 21.0234 26.2608L21.6304 26.7335C21.1434 27.4818 20.4129 27.856 19.439 27.856ZM19.3154 22.6461C18.9144 22.6461 18.5778 22.7929 18.3057 23.0865C18.0335 23.3765 17.8652 23.7847 17.8008 24.3111H20.7119V24.2359C20.6833 23.731 20.5472 23.3407 20.3037 23.065C20.0602 22.7857 19.7308 22.6461 19.3154 22.6461ZM24.8101 24.0587L26.0991 21.9371H27.2593L25.3579 24.8106L27.3184 27.7486H26.1689L24.8262 25.5733L23.4834 27.7486H22.3286L24.2891 24.8106L22.3877 21.9371H23.5371L24.8101 24.0587ZM28.2852 27.2276C28.2852 27.0557 28.3353 26.9125 28.4355 26.7979C28.5394 26.6833 28.6934 26.626 28.8975 26.626C29.1016 26.626 29.2555 26.6833 29.3594 26.7979C29.4668 26.9125 29.5205 27.0557 29.5205 27.2276C29.5205 27.3923 29.4668 27.5302 29.3594 27.6412C29.2555 27.7522 29.1016 27.8077 28.8975 27.8077C28.6934 27.8077 28.5394 27.7522 28.4355 27.6412C28.3353 27.5302 28.2852 27.3923 28.2852 27.2276ZM28.2905 22.4849C28.2905 22.313 28.3407 22.1698 28.4409 22.0552C28.5448 21.9407 28.6987 21.8834 28.9028 21.8834C29.1069 21.8834 29.2609 21.9407 29.3647 22.0552C29.4722 22.1698 29.5259 22.313 29.5259 22.4849C29.5259 22.6496 29.4722 22.7875 29.3647 22.8985C29.2609 23.0095 29.1069 23.065 28.9028 23.065C28.6987 23.065 28.5448 23.0095 28.4409 22.8985C28.3407 22.7875 28.2905 22.6496 28.2905 22.4849Z" fill="black"/>
<path d="M68.9848 24.1881C68.9848 25.3678 68.7407 26.2702 68.2524 26.8952C67.7641 27.5202 67.0493 27.8327 66.1079 27.8327C65.1782 27.8327 64.4673 27.526 63.9751 26.9128C63.4829 26.2995 63.2309 25.4206 63.2192 24.276V22.7057C63.2192 21.5143 63.4653 20.61 63.9575 19.9928C64.4536 19.3756 65.1665 19.067 66.0962 19.067C67.0258 19.067 67.7368 19.3737 68.229 19.987C68.7212 20.5963 68.9731 21.4733 68.9848 22.6178V24.1881ZM67.2915 22.4655C67.2915 21.7585 67.1938 21.2448 66.9985 20.9245C66.8071 20.6003 66.5063 20.4381 66.0962 20.4381C65.6977 20.4381 65.4028 20.5924 65.2114 20.901C65.0239 21.2057 64.9243 21.6842 64.9126 22.3366V24.4108C64.9126 25.1061 65.0063 25.6237 65.1938 25.9635C65.3852 26.2995 65.6899 26.4674 66.1079 26.4674C66.5219 26.4674 66.8208 26.3053 67.0044 25.9811C67.188 25.6569 67.2837 25.1608 67.2915 24.4928V22.4655Z" fill="black"/>
<path d="M135.686 27.7155H129.838V26.5553L132.598 23.6139C132.977 23.1999 133.256 22.8385 133.436 22.5299C133.619 22.2213 133.711 21.9284 133.711 21.651C133.711 21.2721 133.616 20.9753 133.424 20.7604C133.233 20.5417 132.959 20.4323 132.604 20.4323C132.221 20.4323 131.918 20.5651 131.696 20.8307C131.477 21.0924 131.368 21.4381 131.368 21.8678H129.668C129.668 21.3483 129.791 20.8737 130.037 20.444C130.287 20.0143 130.639 19.6784 131.092 19.4362C131.545 19.1901 132.059 19.067 132.633 19.067C133.512 19.067 134.194 19.278 134.678 19.6999C135.166 20.1217 135.41 20.7174 135.41 21.487C135.41 21.9088 135.301 22.3385 135.082 22.776C134.864 23.2135 134.489 23.7233 133.957 24.3053L132.018 26.3503H135.686V27.7155Z" fill="black"/>
<path d="M201.444 24.5045H202.41V25.8698H201.444V27.7155H199.75V25.8698H196.252L196.176 24.8034L199.733 19.1842H201.444V24.5045ZM197.863 24.5045H199.75V21.4928L199.639 21.6862L197.863 24.5045Z" fill="black"/>
<path d="M227.517 23.5202L228.009 19.1842H232.79V20.5963H229.398L229.187 22.4303C229.589 22.2155 230.017 22.1081 230.47 22.1081C231.283 22.1081 231.919 22.36 232.38 22.8639C232.841 23.3678 233.072 24.0729 233.072 24.9792C233.072 25.5299 232.955 26.0241 232.72 26.4616C232.49 26.8952 232.158 27.2331 231.724 27.4753C231.29 27.7135 230.779 27.8327 230.189 27.8327C229.673 27.8327 229.195 27.7292 228.753 27.5221C228.312 27.3112 227.962 27.0163 227.705 26.6374C227.451 26.2585 227.316 25.8268 227.3 25.3424H228.976C229.011 25.6979 229.134 25.9753 229.345 26.1745C229.56 26.3698 229.839 26.4674 230.183 26.4674C230.566 26.4674 230.861 26.3307 231.068 26.0573C231.275 25.7799 231.378 25.3893 231.378 24.8854C231.378 24.401 231.259 24.0299 231.021 23.7721C230.783 23.5143 230.445 23.3854 230.007 23.3854C229.605 23.3854 229.279 23.4909 229.029 23.7018L228.865 23.8542L227.517 23.5202Z" fill="black"/>
<path d="M266.39 19.0963V20.4909H266.226C265.46 20.5026 264.843 20.7018 264.374 21.0885C263.909 21.4753 263.63 22.0124 263.536 22.6999C263.989 22.2389 264.562 22.0085 265.253 22.0085C265.995 22.0085 266.585 22.2741 267.023 22.8053C267.46 23.3366 267.679 24.0358 267.679 24.903C267.679 25.4577 267.558 25.9596 267.316 26.4088C267.077 26.8581 266.738 27.2077 266.296 27.4577C265.859 27.7077 265.363 27.8327 264.808 27.8327C263.909 27.8327 263.183 27.5202 262.628 26.8952C262.077 26.2702 261.802 25.4362 261.802 24.3932V23.7838C261.802 22.8581 261.976 22.0417 262.323 21.3346C262.675 20.6237 263.177 20.0749 263.829 19.6881C264.486 19.2975 265.245 19.1003 266.109 19.0963H266.39ZM264.738 23.3678C264.464 23.3678 264.216 23.4401 263.993 23.5846C263.771 23.7253 263.607 23.9128 263.501 24.1471V24.6628C263.501 25.2292 263.613 25.6725 263.835 25.9928C264.058 26.3092 264.37 26.4674 264.773 26.4674C265.136 26.4674 265.429 26.3249 265.652 26.0397C265.878 25.7506 265.991 25.3776 265.991 24.9206C265.991 24.4557 265.878 24.0807 265.652 23.7956C265.425 23.5104 265.12 23.3678 264.738 23.3678Z" fill="black"/>
<path d="M333.952 21.4518C333.952 21.8659 333.849 22.2331 333.642 22.5534C333.435 22.8737 333.149 23.1295 332.786 23.321C333.2 23.5202 333.528 23.7956 333.771 24.1471C334.013 24.4948 334.134 24.9049 334.134 25.3776C334.134 26.1354 333.876 26.735 333.36 27.1764C332.845 27.6139 332.144 27.8327 331.257 27.8327C330.37 27.8327 329.667 27.612 329.147 27.1706C328.628 26.7292 328.368 26.1315 328.368 25.3776C328.368 24.9049 328.489 24.4928 328.731 24.1413C328.974 23.7897 329.3 23.5163 329.71 23.321C329.347 23.1295 329.062 22.8737 328.855 22.5534C328.651 22.2331 328.55 21.8659 328.55 21.4518C328.55 20.7253 328.792 20.1471 329.276 19.7174C329.761 19.2838 330.419 19.067 331.251 19.067C332.079 19.067 332.735 19.2819 333.22 19.7116C333.708 20.1374 333.952 20.7174 333.952 21.4518ZM332.435 25.2545C332.435 24.8835 332.327 24.5866 332.112 24.3639C331.897 24.1413 331.608 24.0299 331.245 24.0299C330.886 24.0299 330.599 24.1413 330.384 24.3639C330.169 24.5827 330.062 24.8795 330.062 25.2545C330.062 25.6178 330.167 25.9108 330.378 26.1335C330.589 26.3561 330.882 26.4674 331.257 26.4674C331.624 26.4674 331.911 26.36 332.118 26.1452C332.329 25.9303 332.435 25.6335 332.435 25.2545ZM332.259 21.5338C332.259 21.2018 332.171 20.9362 331.995 20.737C331.819 20.5338 331.571 20.4323 331.251 20.4323C330.935 20.4323 330.689 20.5299 330.513 20.7253C330.337 20.9206 330.249 21.1901 330.249 21.5338C330.249 21.8737 330.337 22.1471 330.513 22.3542C330.689 22.5612 330.937 22.6647 331.257 22.6647C331.577 22.6647 331.823 22.5612 331.995 22.3542C332.171 22.1471 332.259 21.8737 332.259 21.5338Z" fill="black"/>
<path d="M365.65 24.3053C365.209 24.7389 364.693 24.9557 364.104 24.9557C363.35 24.9557 362.746 24.6979 362.293 24.1823C361.84 23.6628 361.613 22.9635 361.613 22.0846C361.613 21.526 361.734 21.0143 361.977 20.5495C362.223 20.0807 362.564 19.7174 363.002 19.4596C363.439 19.1979 363.932 19.067 364.479 19.067C365.041 19.067 365.541 19.2077 365.979 19.4889C366.416 19.7702 366.756 20.1745 366.998 20.7018C367.24 21.2292 367.363 21.8327 367.367 22.5124V23.1393C367.367 24.5612 367.014 25.6784 366.307 26.4909C365.6 27.3034 364.598 27.737 363.301 27.7917L362.885 27.7975V26.3854L363.26 26.3795C364.732 26.3131 365.529 25.6217 365.65 24.3053ZM364.52 23.6608C364.793 23.6608 365.027 23.5905 365.223 23.4499C365.422 23.3092 365.572 23.1393 365.674 22.9401V22.2428C365.674 21.6686 365.564 21.2233 365.346 20.9069C365.127 20.5905 364.834 20.4323 364.467 20.4323C364.127 20.4323 363.848 20.5885 363.629 20.901C363.41 21.2096 363.301 21.5983 363.301 22.067C363.301 22.5319 363.406 22.9147 363.617 23.2155C363.832 23.5124 364.133 23.6608 364.52 23.6608Z" fill="black"/>
<path d="M299.661 20.1335L296.363 27.7155H294.575L297.88 20.5553H293.638V19.1842H299.661V20.1335Z" fill="#9013FE"/>
<path d="M166.092 22.6999H166.994C167.424 22.6999 167.742 22.5924 167.949 22.3776C168.156 22.1628 168.26 21.8776 168.26 21.5221C168.26 21.1784 168.156 20.9108 167.949 20.7194C167.746 20.528 167.465 20.4323 167.106 20.4323C166.781 20.4323 166.51 20.5221 166.291 20.7018C166.072 20.8776 165.963 21.1081 165.963 21.3932H164.27C164.27 20.9479 164.389 20.5495 164.627 20.1979C164.869 19.8424 165.205 19.5651 165.635 19.3659C166.068 19.1667 166.545 19.067 167.065 19.067C167.967 19.067 168.674 19.2838 169.186 19.7174C169.697 20.1471 169.953 20.7409 169.953 21.4987C169.953 21.8893 169.834 22.2487 169.596 22.5768C169.358 22.9049 169.045 23.1569 168.658 23.3327C169.139 23.5045 169.496 23.7624 169.731 24.1061C169.969 24.4499 170.088 24.8561 170.088 25.3249C170.088 26.0827 169.811 26.6901 169.256 27.1471C168.705 27.6042 167.975 27.8327 167.065 27.8327C166.213 27.8327 165.516 27.6081 164.973 27.1588C164.434 26.7096 164.164 26.1159 164.164 25.3776H165.858C165.858 25.6979 165.977 25.9596 166.215 26.1628C166.457 26.3659 166.754 26.4674 167.106 26.4674C167.508 26.4674 167.822 26.362 168.049 26.151C168.279 25.9362 168.395 25.653 168.395 25.3014C168.395 24.4499 167.926 24.0241 166.988 24.0241H166.092V22.6999Z" fill="#4A90E2"/>
<path d="M101.887 28.7486H100.194V22.2213L98.1721 22.8482V21.4713L101.705 20.2056H101.887V28.7486Z" fill="#5F9821"/>
<path d="M100.893 17.232C100.893 12.3822 93.4394 12.8413 84.2445 12.8413C75.0495 12.8413 67.5956 12.3822 67.5956 17.232" stroke="black"/>
<path d="M221.005 12.2292H215.158V11.0691L217.917 8.12766C218.296 7.71359 218.576 7.35226 218.755 7.04367C218.939 6.73508 219.031 6.44211 219.031 6.16476C219.031 5.78586 218.935 5.48898 218.744 5.27414C218.552 5.05539 218.279 4.94601 217.923 4.94601C217.541 4.94601 217.238 5.07883 217.015 5.34445C216.796 5.60617 216.687 5.95187 216.687 6.38156H214.988C214.988 5.86203 215.111 5.38742 215.357 4.95773C215.607 4.52805 215.958 4.19211 216.412 3.94992C216.865 3.70383 217.378 3.58078 217.953 3.58078C218.832 3.58078 219.513 3.79172 219.998 4.21359C220.486 4.63547 220.73 5.23117 220.73 6.0007C220.73 6.42258 220.621 6.85226 220.402 7.28976C220.183 7.72726 219.808 8.23703 219.277 8.81906L217.337 10.864H221.005V12.2292ZM223.466 6.5925L221.626 6.07101L221.972 5.01047L223.794 5.74289L223.677 3.69797H224.826L224.708 5.78391L226.484 5.0632L226.83 6.13547L224.955 6.65695L226.185 8.21555L225.253 8.87766L224.187 7.16672L223.132 8.81906L222.201 8.18625L223.466 6.5925ZM237.71 7.45383H239.826V8.98312H237.71V11.3737H236.099V8.98312H233.978V7.45383H236.099V5.16281H237.71V7.45383ZM244.888 12.2292H243.195V5.70187L241.173 6.32883V4.95187L244.707 3.68625H244.888V12.2292Z" fill="black"/>
<path d="M229.191 7.43625H230.005C230.517 7.42844 230.919 7.29367 231.212 7.03195C231.505 6.77023 231.652 6.41672 231.652 5.97141C231.652 4.97141 231.154 4.47141 230.158 4.47141C229.689 4.47141 229.314 4.60617 229.033 4.8757C228.755 5.14133 228.617 5.49484 228.617 5.93625H227.533C227.533 5.26047 227.779 4.69992 228.271 4.25461C228.767 3.80539 229.396 3.58078 230.158 3.58078C230.962 3.58078 231.593 3.79367 232.05 4.21945C232.507 4.64523 232.736 5.23703 232.736 5.99484C232.736 6.36594 232.615 6.72531 232.373 7.07297C232.134 7.42062 231.808 7.68039 231.394 7.85226C231.863 8.0007 232.224 8.2468 232.478 8.59055C232.736 8.9343 232.865 9.35422 232.865 9.85031C232.865 10.6159 232.615 11.2234 232.115 11.6726C231.615 12.1218 230.964 12.3464 230.164 12.3464C229.363 12.3464 228.71 12.1296 228.207 11.696C227.707 11.2624 227.457 10.6902 227.457 9.97922H228.546C228.546 10.4284 228.693 10.7878 228.986 11.0573C229.279 11.3269 229.671 11.4616 230.164 11.4616C230.687 11.4616 231.087 11.3249 231.365 11.0515C231.642 10.778 231.781 10.3855 231.781 9.87375C231.781 9.37766 231.628 8.9968 231.324 8.73117C231.019 8.46555 230.58 8.32883 230.005 8.32101H229.191V7.43625Z" fill="#4990E2"/>
<path d="M167.308 17.232C167.308 12.3822 144.084 12.8413 134.889 12.8413C125.694 12.8413 107.06 12.3822 107.06 17.232" stroke="black"/>
<path d="M125.579 12.2292H119.732V11.0691L122.491 8.12766C122.87 7.71359 123.15 7.35226 123.329 7.04367C123.513 6.73508 123.605 6.44211 123.605 6.16476C123.605 5.78586 123.509 5.48898 123.318 5.27414C123.126 5.05539 122.853 4.94601 122.497 4.94601C122.115 4.94601 121.812 5.07883 121.589 5.34445C121.37 5.60617 121.261 5.95187 121.261 6.38156H119.562C119.562 5.86203 119.685 5.38742 119.931 4.95773C120.181 4.52805 120.532 4.19211 120.986 3.94992C121.439 3.70383 121.952 3.58078 122.527 3.58078C123.406 3.58078 124.087 3.79172 124.572 4.21359C125.06 4.63547 125.304 5.23117 125.304 6.0007C125.304 6.42258 125.195 6.85226 124.976 7.28976C124.757 7.72726 124.382 8.23703 123.851 8.81906L121.911 10.864H125.579V12.2292ZM128.04 6.5925L126.2 6.07101L126.546 5.01047L128.368 5.74289L128.251 3.69797H129.4L129.282 5.78391L131.058 5.0632L131.404 6.13547L129.529 6.65695L130.759 8.21555L129.827 8.87766L128.761 7.16672L127.706 8.81906L126.775 8.18625L128.04 6.5925ZM142.437 7.45383H144.552V8.98312H142.437V11.3737H140.825V8.98312H138.704V7.45383H140.825V5.16281H142.437V7.45383ZM149.615 12.2292H147.921V5.70187L145.9 6.32883V4.95187L149.433 3.68625H149.615V12.2292Z" fill="black"/>
<path d="M136.173 12.2292H134.48V5.70187L132.458 6.32883V4.95187L135.991 3.68625H136.173V12.2292Z" fill="#5F9821"/>
<path d="M295.815 17.232C295.815 12.3822 240.483 12.8413 231.288 12.8413C222.093 12.8413 176.122 12.3822 176.122 17.232" stroke="black"/>
<path d="M80.0156 12.2292H74.1679V11.0691L76.9277 8.12766C77.3066 7.71359 77.5859 7.35226 77.7656 7.04367C77.9492 6.73508 78.041 6.44211 78.041 6.16476C78.041 5.78586 77.9453 5.48898 77.7538 5.27414C77.5624 5.05539 77.289 4.94601 76.9335 4.94601C76.5507 4.94601 76.248 5.07883 76.0253 5.34445C75.8066 5.60617 75.6972 5.95187 75.6972 6.38156H73.998C73.998 5.86203 74.121 5.38742 74.3671 4.95773C74.6171 4.52805 74.9687 4.19211 75.4218 3.94992C75.8749 3.70383 76.3886 3.58078 76.9628 3.58078C77.8417 3.58078 78.5234 3.79172 79.0078 4.21359C79.496 4.63547 79.7402 5.23117 79.7402 6.0007C79.7402 6.42258 79.6308 6.85226 79.412 7.28976C79.1933 7.72726 78.8183 8.23703 78.287 8.81906L76.3476 10.864H80.0156V12.2292ZM82.4765 6.5925L80.6367 6.07101L80.9824 5.01047L82.8046 5.74289L82.6874 3.69797H83.8359L83.7187 5.78391L85.4941 5.0632L85.8398 6.13547L83.9648 6.65695L85.1953 8.21555L84.2636 8.87766L83.1972 7.16672L82.1425 8.81906L81.2109 8.18625L82.4765 6.5925ZM92.2382 8.70187C92.2382 9.88156 91.9941 10.7839 91.5058 11.4089C91.0175 12.0339 90.3027 12.3464 89.3613 12.3464C88.4316 12.3464 87.7206 12.0398 87.2285 11.4265C86.7363 10.8132 86.4843 9.9343 86.4726 8.78976V7.21945C86.4726 6.02805 86.7187 5.12375 87.2109 4.50656C87.707 3.88937 88.4199 3.58078 89.3495 3.58078C90.2792 3.58078 90.9902 3.88742 91.4824 4.5007C91.9745 5.11008 92.2265 5.98703 92.2382 7.13156V8.70187ZM90.5449 6.97922C90.5449 6.27219 90.4472 5.75851 90.2519 5.4382C90.0605 5.11398 89.7597 4.95187 89.3495 4.95187C88.9511 4.95187 88.6562 5.10617 88.4648 5.41476C88.2773 5.71945 88.1777 6.19797 88.166 6.85031V8.92453C88.166 9.61984 88.2597 10.1374 88.4472 10.4773C88.6386 10.8132 88.9433 10.9812 89.3613 10.9812C89.7753 10.9812 90.0742 10.8191 90.2578 10.4948C90.4413 10.1706 90.537 9.67453 90.5449 9.00656V6.97922ZM96.873 7.45383H98.9882V8.98312H96.873V11.3737H95.2617V8.98312H93.1406V7.45383H95.2617V5.16281H96.873V7.45383ZM104.051 12.2292H102.357V5.70187L100.336 6.32883V4.95187L103.869 3.68625H104.051V12.2292Z" fill="black"/>
</g>
<defs>
<clipPath id="clip0">
<rect width="482" height="244" fill="white"/>
</clipPath>
</defs>
</svg>
