<svg width="878" height="1075" viewBox="0 0 878 1075" version="1.1" xmlns="http://www.w3.org/2000/svg" xmlns:xlink="http://www.w3.org/1999/xlink" xmlns:figma="http://www.figma.com/figma/ns">
<title>linked_list_insert_top</title>
<desc>Created using Figma</desc>
<g id="Canvas" transform="translate(1029 523)" figma:type="canvas">
<g id="Rectangle" figma:type="rounded-rectangle">
<use xlink:href="#path0_fill" transform="translate(-1029 -336)" fill="#C4C4C4"/>
</g>
<g id="price_1" figma:type="text">
<use xlink:href="#path1_fill" transform="translate(-1006 -288)"/>
</g>
<g id="Rectangle" figma:type="rounded-rectangle">
<use xlink:href="#path0_fill" transform="translate(-1029 -147)" fill="#C4C4C4"/>
</g>
<g id="price_2" figma:type="text">
<use xlink:href="#path2_fill" transform="translate(-1006 -99)"/>
</g>
<g id="Rectangle" figma:type="rounded-rectangle">
<use xlink:href="#path0_fill" transform="translate(-1029 46)" fill="#C4C4C4"/>
</g>
<g id="price_3" figma:type="text">
<use xlink:href="#path3_fill" transform="translate(-1006 94)"/>
</g>
<g id="Rectangle" figma:type="rounded-rectangle">
<use xlink:href="#path0_fill" transform="translate(-1029 230)" fill="#C4C4C4"/>
</g>
<g id="price_4" figma:type="text">
<use xlink:href="#path4_fill" transform="translate(-1006 278)"/>
</g>
<g id="Rectangle" figma:type="rounded-rectangle">
<use xlink:href="#path0_fill" transform="translate(-1029 426)" fill="#C4C4C4"/>
</g>
<g id="price_5" figma:type="text">
<use xlink:href="#path5_fill" transform="translate(-1006 474)"/>
</g>
<g id="Arrow 2" figma:type="vector">
<use xlink:href="#path6_stroke" transform="matrix(6.12323e-17 1 -1 6.12323e-17 -967 -191)"/>
</g>
<g id="Arrow 2" figma:type="vector">
<use xlink:href="#path6_stroke" transform="matrix(6.12323e-17 1 -1 6.12323e-17 -967 -1)"/>
</g>
<g id="Arrow 2" figma:type="vector">
<use xlink:href="#path6_stroke" transform="matrix(6.12323e-17 1 -1 6.12323e-17 -967 189)"/>
</g>
<g id="Arrow 2" figma:type="vector">
<use xlink:href="#path6_stroke" transform="matrix(6.12323e-17 1 -1 6.12323e-17 -967 378)"/>
</g>
<g id="Rectangle" figma:type="rounded-rectangle">
<use xlink:href="#path0_fill" transform="translate(-1029 -336)" fill="#C4C4C4"/>
</g>
<g id="price_1" figma:type="text">
<use xlink:href="#path1_fill" transform="translate(-1006 -288)"/>
</g>
<g id="Rectangle" figma:type="rounded-rectangle">
<use xlink:href="#path0_fill" transform="translate(-1029 -147)" fill="#C4C4C4"/>
</g>
<g id="price_2" figma:type="text">
<use xlink:href="#path2_fill" transform="translate(-1006 -99)"/>
</g>
<g id="Rectangle" figma:type="rounded-rectangle">
<use xlink:href="#path0_fill" transform="translate(-1029 46)" fill="#C4C4C4"/>
</g>
<g id="price_3" figma:type="text">
<use xlink:href="#path3_fill" transform="translate(-1006 94)"/>
</g>
<g id="Rectangle" figma:type="rounded-rectangle">
<use xlink:href="#path0_fill" transform="translate(-1029 230)" fill="#C4C4C4"/>
</g>
<g id="price_4" figma:type="text">
<use xlink:href="#path4_fill" transform="translate(-1006 278)"/>
</g>
<g id="Rectangle" figma:type="rounded-rectangle">
<use xlink:href="#path0_fill" transform="translate(-1029 426)" fill="#C4C4C4"/>
</g>
<g id="price_5" figma:type="text">
<use xlink:href="#path5_fill" transform="translate(-1006 474)"/>
</g>
<g id="Arrow 2" figma:type="vector">
<use xlink:href="#path6_stroke" transform="matrix(6.12323e-17 1 -1 6.12323e-17 -967 -191)"/>
</g>
<g id="Arrow 2" figma:type="vector">
<use xlink:href="#path6_stroke" transform="matrix(6.12323e-17 1 -1 6.12323e-17 -967 -1)"/>
</g>
<g id="Arrow 2" figma:type="vector">
<use xlink:href="#path6_stroke" transform="matrix(6.12323e-17 1 -1 6.12323e-17 -967 189)"/>
</g>
<g id="Arrow 2" figma:type="vector">
<use xlink:href="#path6_stroke" transform="matrix(6.12323e-17 1 -1 6.12323e-17 -967 378)"/>
</g>
<g id="Rectangle" figma:type="rounded-rectangle">
<use xlink:href="#path0_fill" transform="translate(-513 -335)" fill="#C4C4C4"/>
</g>
<g id="price_1" figma:type="text">
<use xlink:href="#path1_fill" transform="translate(-490 -287)"/>
</g>
<g id="Rectangle" figma:type="rounded-rectangle">
<use xlink:href="#path0_fill" transform="translate(-513 -146)" fill="#C4C4C4"/>
</g>
<g id="price_2" figma:type="text">
<use xlink:href="#path2_fill" transform="translate(-490 -98)"/>
</g>
<g id="Rectangle" figma:type="rounded-rectangle">
<use xlink:href="#path0_fill" transform="translate(-513 47)" fill="#C4C4C4"/>
</g>
<g id="price_3" figma:type="text">
<use xlink:href="#path3_fill" transform="translate(-490 95)"/>
</g>
<g id="Rectangle" figma:type="rounded-rectangle">
<use xlink:href="#path0_fill" transform="translate(-513 231)" fill="#C4C4C4"/>
</g>
<g id="price_4" figma:type="text">
<use xlink:href="#path4_fill" transform="translate(-490 279)"/>
</g>
<g id="Rectangle" figma:type="rounded-rectangle">
<use xlink:href="#path0_fill" transform="translate(-513 427)" fill="#C4C4C4"/>
</g>
<g id="price_5" figma:type="text">
<use xlink:href="#path5_fill" transform="translate(-490 475)"/>
</g>
<g id="Arrow 2" figma:type="vector">
<use xlink:href="#path6_stroke" transform="matrix(6.12323e-17 1 -1 6.12323e-17 -451 -190)"/>
</g>
<g id="Arrow 2" figma:type="vector">
<use xlink:href="#path6_stroke" transform="matrix(6.12323e-17 1 -1 6.12323e-17 -451 0)"/>
</g>
<g id="Arrow 2" figma:type="vector">
<use xlink:href="#path6_stroke" transform="matrix(6.12323e-17 1 -1 6.12323e-17 -451 190)"/>
</g>
<g id="Arrow 2" figma:type="vector">
<use xlink:href="#path6_stroke" transform="matrix(6.12323e-17 1 -1 6.12323e-17 -451 379)"/>
</g>
<g id="Rectangle" figma:type="rounded-rectangle">
<use xlink:href="#path0_fill" transform="translate(-513 -335)" fill="#C4C4C4"/>
</g>
<g id="price_1" figma:type="text">
<use xlink:href="#path1_fill" transform="translate(-490 -287)"/>
</g>
<g id="Rectangle" figma:type="rounded-rectangle">
<use xlink:href="#path0_fill" transform="translate(-513 -146)" fill="#C4C4C4"/>
</g>
<g id="price_2" figma:type="text">
<use xlink:href="#path2_fill" transform="translate(-490 -98)"/>
</g>
<g id="Rectangle" figma:type="rounded-rectangle">
<use xlink:href="#path0_fill" transform="translate(-513 47)" fill="#C4C4C4"/>
</g>
<g id="price_3" figma:type="text">
<use xlink:href="#path3_fill" transform="translate(-490 95)"/>
</g>
<g id="Rectangle" figma:type="rounded-rectangle">
<use xlink:href="#path0_fill" transform="translate(-513 231)" fill="#C4C4C4"/>
</g>
<g id="price_4" figma:type="text">
<use xlink:href="#path4_fill" transform="translate(-490 279)"/>
</g>
<g id="Rectangle" figma:type="rounded-rectangle">
<use xlink:href="#path0_fill" transform="translate(-513 427)" fill="#C4C4C4"/>
</g>
<g id="price_5" figma:type="text">
<use xlink:href="#path5_fill" transform="translate(-490 475)"/>
</g>
<g id="Arrow 2" figma:type="vector">
<use xlink:href="#path6_stroke" transform="matrix(6.12323e-17 1 -1 6.12323e-17 -451 -190)"/>
</g>
<g id="Rectangle" figma:type="rounded-rectangle">
<use xlink:href="#path0_fill" transform="translate(-513 -523)" fill="#C4C4C4"/>
</g>
<g id="price_1" figma:type="text">
<use xlink:href="#path1_fill" transform="translate(-490 -475)"/>
</g>
<g id="Arrow 2" figma:type="vector">
<use xlink:href="#path6_stroke" transform="matrix(6.12323e-17 1 -1 6.12323e-17 -451 -378)" fill="#EB5757"/>
</g>
<g id="Rectangle" figma:type="rounded-rectangle">
<use xlink:href="#path0_fill" transform="translate(-513 -523)" fill="#EB5757"/>
</g>
<g id="price_6" figma:type="text">
<use xlink:href="#path7_fill" transform="translate(-490 -475)" fill="#F2F2F2"/>
</g>
<g id="Arrow 2" figma:type="vector">
<use xlink:href="#path6_stroke" transform="matrix(6.12323e-17 1 -1 6.12323e-17 -451 -378)" fill="#EB5757"/>
</g>
<g id="Arrow 2" figma:type="vector">
<use xlink:href="#path6_stroke" transform="matrix(6.12323e-17 1 -1 6.12323e-17 -451 0)"/>
</g>
<g id="Arrow 2" figma:type="vector">
<use xlink:href="#path6_stroke" transform="matrix(6.12323e-17 1 -1 6.12323e-17 -451 190)"/>
</g>
<g id="Arrow 2" figma:type="vector">
<use xlink:href="#path6_stroke" transform="matrix(6.12323e-17 1 -1 6.12323e-17 -451 379)"/>
</g>
<g id="Linked List" figma:type="text">
<use xlink:href="#path8_fill" transform="translate(-1025 -416)"/>
</g>
<g id="Arrow" figma:type="vector">
<use xlink:href="#path9_stroke" transform="translate(-840 109)"/>
</g>
<g id="price_1.insert(0,5)" figma:type="text">
<use xlink:href="#path10_fill" transform="translate(-830 44)"/>
</g>
<g id="Insert the value 6 into position 0" figma:type="text">
<use xlink:href="#path11_fill" transform="translate(-830 -85)"/>
</g>
<g id="Insert a new node at position 0" figma:type="text">
<use xlink:href="#path12_fill" transform="translate(-342 -489)" fill="#EB5757"/>
</g>
</g>
<defs>
<path id="path0_fill" d="M 0 0L 125 0L 125 125L 0 125L 0 0Z"/>
<path id="path1_fill" d="M 12.3516 15.8008C 12.3516 17.7305 11.9102 19.2852 11.0273 20.4648C 10.1445 21.6445 8.94922 22.2344 7.44141 22.2344C 5.90234 22.2344 4.69141 21.7461 3.80859 20.7695L 3.80859 26.875L 1.64062 26.875L 1.64062 9.32031L 3.62109 9.32031L 3.72656 10.7266C 4.60938 9.63281 5.83594 9.08594 7.40625 9.08594C 8.92969 9.08594 10.1328 9.66016 11.0156 10.8086C 11.9062 11.957 12.3516 13.5547 12.3516 15.6016L 12.3516 15.8008ZM 10.1836 15.5547C 10.1836 14.125 9.87891 12.9961 9.26953 12.168C 8.66016 11.3398 7.82422 10.9258 6.76172 10.9258C 5.44922 10.9258 4.46484 11.5078 3.80859 12.6719L 3.80859 18.7305C 4.45703 19.8867 5.44922 20.4648 6.78516 20.4648C 7.82422 20.4648 8.64844 20.0547 9.25781 19.2344C 9.875 18.4063 10.1836 17.1797 10.1836 15.5547ZM 21.2461 11.2656C 20.918 11.2109 20.5625 11.1836 20.1797 11.1836C 18.7578 11.1836 17.793 11.7891 17.2852 13L 17.2852 22L 15.1172 22L 15.1172 9.32031L 17.2266 9.32031L 17.2617 10.7852C 17.9727 9.65234 18.9805 9.08594 20.2852 9.08594C 20.707 9.08594 21.0273 9.14062 21.2461 9.25L 21.2461 11.2656ZM 25.6055 22L 23.4375 22L 23.4375 9.32031L 25.6055 9.32031L 25.6055 22ZM 23.2617 5.95703C 23.2617 5.60547 23.3672 5.30859 23.5781 5.06641C 23.7969 4.82422 24.1172 4.70312 24.5391 4.70312C 24.9609 4.70312 25.2813 4.82422 25.5 5.06641C 25.7187 5.30859 25.8281 5.60547 25.8281 5.95703C 25.8281 6.30859 25.7187 6.60156 25.5 6.83594C 25.2813 7.07031 24.9609 7.1875 24.5391 7.1875C 24.1172 7.1875 23.7969 7.07031 23.5781 6.83594C 23.3672 6.60156 23.2617 6.30859 23.2617 5.95703ZM 34.1719 20.4648C 34.9453 20.4648 35.6211 20.2305 36.1992 19.7617C 36.7773 19.293 37.0977 18.707 37.1602 18.0039L 39.2109 18.0039C 39.1719 18.7305 38.9219 19.4219 38.4609 20.0781C 38 20.7344 37.3828 21.2578 36.6094 21.6484C 35.8438 22.0391 35.0312 22.2344 34.1719 22.2344C 32.4453 22.2344 31.0703 21.6602 30.0469 20.5117C 29.0312 19.3555 28.5234 17.7773 28.5234 15.7773L 28.5234 15.4141C 28.5234 14.1797 28.75 13.082 29.2031 12.1211C 29.6563 11.1602 30.3047 10.4141 31.1484 9.88281C 32 9.35156 33.0039 9.08594 34.1602 9.08594C 35.582 9.08594 36.7617 9.51172 37.6992 10.3633C 38.6445 11.2148 39.1484 12.3203 39.2109 13.6797L 37.1602 13.6797C 37.0977 12.8594 36.7852 12.1875 36.2227 11.6641C 35.668 11.1328 34.9805 10.8672 34.1602 10.8672C 33.0586 10.8672 32.2031 11.2656 31.5938 12.0625C 30.9922 12.8516 30.6914 13.9961 30.6914 15.4961L 30.6914 15.9062C 30.6914 17.3672 30.9922 18.4922 31.5938 19.2812C 32.1953 20.0703 33.0547 20.4648 34.1719 20.4648ZM 46.9102 22.2344C 45.1914 22.2344 43.793 21.6719 42.7148 20.5469C 41.6367 19.4141 41.0977 17.9023 41.0977 16.0117L 41.0977 15.6133C 41.0977 14.3555 41.3359 13.2344 41.8125 12.25C 42.2969 11.2578 42.9688 10.4844 43.8281 9.92969C 44.6953 9.36719 45.6328 9.08594 46.6406 9.08594C 48.2891 9.08594 49.5703 9.62891 50.4844 10.7148C 51.3984 11.8008 51.8555 13.3555 51.8555 15.3789L 51.8555 16.2812L 43.2656 16.2812C 43.2969 17.5312 43.6602 18.543 44.3555 19.3164C 45.0586 20.082 45.9492 20.4648 47.0273 20.4648C 47.793 20.4648 48.4414 20.3086 48.9727 19.9961C 49.5039 19.6836 49.9688 19.2695 50.3672 18.7539L 51.6914 19.7852C 50.6289 21.418 49.0352 22.2344 46.9102 22.2344ZM 46.6406 10.8672C 45.7656 10.8672 45.0312 11.1875 44.4375 11.8281C 43.8438 12.4609 43.4766 13.3516 43.3359 14.5L 49.6875 14.5L 49.6875 14.3359C 49.625 13.2344 49.3281 12.3828 48.7969 11.7812C 48.2656 11.1719 47.5469 10.8672 46.6406 10.8672ZM 63.5156 23.7695L 52.7812 23.7695L 52.7812 22L 63.5156 22L 63.5156 23.7695ZM 72.1055 22L 69.9258 22L 69.9258 7.55078L 65.5547 9.15625L 65.5547 7.1875L 71.7656 4.85547L 72.1055 4.85547L 72.1055 22Z"/>
<path id="path2_fill" d="M 12.3516 15.8008C 12.3516 17.7305 11.9102 19.2852 11.0273 20.4648C 10.1445 21.6445 8.94922 22.2344 7.44141 22.2344C 5.90234 22.2344 4.69141 21.7461 3.80859 20.7695L 3.80859 26.875L 1.64062 26.875L 1.64062 9.32031L 3.62109 9.32031L 3.72656 10.7266C 4.60938 9.63281 5.83594 9.08594 7.40625 9.08594C 8.92969 9.08594 10.1328 9.66016 11.0156 10.8086C 11.9062 11.957 12.3516 13.5547 12.3516 15.6016L 12.3516 15.8008ZM 10.1836 15.5547C 10.1836 14.125 9.87891 12.9961 9.26953 12.168C 8.66016 11.3398 7.82422 10.9258 6.76172 10.9258C 5.44922 10.9258 4.46484 11.5078 3.80859 12.6719L 3.80859 18.7305C 4.45703 19.8867 5.44922 20.4648 6.78516 20.4648C 7.82422 20.4648 8.64844 20.0547 9.25781 19.2344C 9.875 18.4063 10.1836 17.1797 10.1836 15.5547ZM 21.2461 11.2656C 20.918 11.2109 20.5625 11.1836 20.1797 11.1836C 18.7578 11.1836 17.793 11.7891 17.2852 13L 17.2852 22L 15.1172 22L 15.1172 9.32031L 17.2266 9.32031L 17.2617 10.7852C 17.9727 9.65234 18.9805 9.08594 20.2852 9.08594C 20.707 9.08594 21.0273 9.14062 21.2461 9.25L 21.2461 11.2656ZM 25.6055 22L 23.4375 22L 23.4375 9.32031L 25.6055 9.32031L 25.6055 22ZM 23.2617 5.95703C 23.2617 5.60547 23.3672 5.30859 23.5781 5.06641C 23.7969 4.82422 24.1172 4.70312 24.5391 4.70312C 24.9609 4.70312 25.2813 4.82422 25.5 5.06641C 25.7187 5.30859 25.8281 5.60547 25.8281 5.95703C 25.8281 6.30859 25.7187 6.60156 25.5 6.83594C 25.2813 7.07031 24.9609 7.1875 24.5391 7.1875C 24.1172 7.1875 23.7969 7.07031 23.5781 6.83594C 23.3672 6.60156 23.2617 6.30859 23.2617 5.95703ZM 34.1719 20.4648C 34.9453 20.4648 35.6211 20.2305 36.1992 19.7617C 36.7773 19.293 37.0977 18.707 37.1602 18.0039L 39.2109 18.0039C 39.1719 18.7305 38.9219 19.4219 38.4609 20.0781C 38 20.7344 37.3828 21.2578 36.6094 21.6484C 35.8438 22.0391 35.0312 22.2344 34.1719 22.2344C 32.4453 22.2344 31.0703 21.6602 30.0469 20.5117C 29.0312 19.3555 28.5234 17.7773 28.5234 15.7773L 28.5234 15.4141C 28.5234 14.1797 28.75 13.082 29.2031 12.1211C 29.6563 11.1602 30.3047 10.4141 31.1484 9.88281C 32 9.35156 33.0039 9.08594 34.1602 9.08594C 35.582 9.08594 36.7617 9.51172 37.6992 10.3633C 38.6445 11.2148 39.1484 12.3203 39.2109 13.6797L 37.1602 13.6797C 37.0977 12.8594 36.7852 12.1875 36.2227 11.6641C 35.668 11.1328 34.9805 10.8672 34.1602 10.8672C 33.0586 10.8672 32.2031 11.2656 31.5938 12.0625C 30.9922 12.8516 30.6914 13.9961 30.6914 15.4961L 30.6914 15.9062C 30.6914 17.3672 30.9922 18.4922 31.5938 19.2812C 32.1953 20.0703 33.0547 20.4648 34.1719 20.4648ZM 46.9102 22.2344C 45.1914 22.2344 43.793 21.6719 42.7148 20.5469C 41.6367 19.4141 41.0977 17.9023 41.0977 16.0117L 41.0977 15.6133C 41.0977 14.3555 41.3359 13.2344 41.8125 12.25C 42.2969 11.2578 42.9688 10.4844 43.8281 9.92969C 44.6953 9.36719 45.6328 9.08594 46.6406 9.08594C 48.2891 9.08594 49.5703 9.62891 50.4844 10.7148C 51.3984 11.8008 51.8555 13.3555 51.8555 15.3789L 51.8555 16.2812L 43.2656 16.2812C 43.2969 17.5312 43.6602 18.543 44.3555 19.3164C 45.0586 20.082 45.9492 20.4648 47.0273 20.4648C 47.793 20.4648 48.4414 20.3086 48.9727 19.9961C 49.5039 19.6836 49.9688 19.2695 50.3672 18.7539L 51.6914 19.7852C 50.6289 21.418 49.0352 22.2344 46.9102 22.2344ZM 46.6406 10.8672C 45.7656 10.8672 45.0312 11.1875 44.4375 11.8281C 43.8438 12.4609 43.4766 13.3516 43.3359 14.5L 49.6875 14.5L 49.6875 14.3359C 49.625 13.2344 49.3281 12.3828 48.7969 11.7812C 48.2656 11.1719 47.5469 10.8672 46.6406 10.8672ZM 63.5156 23.7695L 52.7812 23.7695L 52.7812 22L 63.5156 22L 63.5156 23.7695ZM 76.1602 22L 64.9805 22L 64.9805 20.4414L 70.8867 13.8789C 71.7617 12.8867 72.3633 12.082 72.6914 11.4648C 73.0273 10.8398 73.1953 10.1953 73.1953 9.53125C 73.1953 8.64062 72.9258 7.91016 72.3867 7.33984C 71.8477 6.76953 71.1289 6.48438 70.2305 6.48438C 69.1523 6.48438 68.3125 6.79297 67.7109 7.41016C 67.1172 8.01953 66.8203 8.87109 66.8203 9.96484L 64.6523 9.96484C 64.6523 8.39453 65.1562 7.125 66.1641 6.15625C 67.1797 5.1875 68.5352 4.70312 70.2305 4.70312C 71.8164 4.70312 73.0703 5.12109 73.9922 5.95703C 74.9141 6.78516 75.375 7.89062 75.375 9.27344C 75.375 10.9531 74.3047 12.9531 72.1641 15.2734L 67.5938 20.2305L 76.1602 20.2305L 76.1602 22Z"/>
<path id="path3_fill" d="M 12.3516 15.8008C 12.3516 17.7305 11.9102 19.2852 11.0273 20.4648C 10.1445 21.6445 8.94922 22.2344 7.44141 22.2344C 5.90234 22.2344 4.69141 21.7461 3.80859 20.7695L 3.80859 26.875L 1.64062 26.875L 1.64062 9.32031L 3.62109 9.32031L 3.72656 10.7266C 4.60938 9.63281 5.83594 9.08594 7.40625 9.08594C 8.92969 9.08594 10.1328 9.66016 11.0156 10.8086C 11.9062 11.957 12.3516 13.5547 12.3516 15.6016L 12.3516 15.8008ZM 10.1836 15.5547C 10.1836 14.125 9.87891 12.9961 9.26953 12.168C 8.66016 11.3398 7.82422 10.9258 6.76172 10.9258C 5.44922 10.9258 4.46484 11.5078 3.80859 12.6719L 3.80859 18.7305C 4.45703 19.8867 5.44922 20.4648 6.78516 20.4648C 7.82422 20.4648 8.64844 20.0547 9.25781 19.2344C 9.875 18.4063 10.1836 17.1797 10.1836 15.5547ZM 21.2461 11.2656C 20.918 11.2109 20.5625 11.1836 20.1797 11.1836C 18.7578 11.1836 17.793 11.7891 17.2852 13L 17.2852 22L 15.1172 22L 15.1172 9.32031L 17.2266 9.32031L 17.2617 10.7852C 17.9727 9.65234 18.9805 9.08594 20.2852 9.08594C 20.707 9.08594 21.0273 9.14062 21.2461 9.25L 21.2461 11.2656ZM 25.6055 22L 23.4375 22L 23.4375 9.32031L 25.6055 9.32031L 25.6055 22ZM 23.2617 5.95703C 23.2617 5.60547 23.3672 5.30859 23.5781 5.06641C 23.7969 4.82422 24.1172 4.70312 24.5391 4.70312C 24.9609 4.70312 25.2813 4.82422 25.5 5.06641C 25.7187 5.30859 25.8281 5.60547 25.8281 5.95703C 25.8281 6.30859 25.7187 6.60156 25.5 6.83594C 25.2813 7.07031 24.9609 7.1875 24.5391 7.1875C 24.1172 7.1875 23.7969 7.07031 23.5781 6.83594C 23.3672 6.60156 23.2617 6.30859 23.2617 5.95703ZM 34.1719 20.4648C 34.9453 20.4648 35.6211 20.2305 36.1992 19.7617C 36.7773 19.293 37.0977 18.707 37.1602 18.0039L 39.2109 18.0039C 39.1719 18.7305 38.9219 19.4219 38.4609 20.0781C 38 20.7344 37.3828 21.2578 36.6094 21.6484C 35.8438 22.0391 35.0312 22.2344 34.1719 22.2344C 32.4453 22.2344 31.0703 21.6602 30.0469 20.5117C 29.0312 19.3555 28.5234 17.7773 28.5234 15.7773L 28.5234 15.4141C 28.5234 14.1797 28.75 13.082 29.2031 12.1211C 29.6563 11.1602 30.3047 10.4141 31.1484 9.88281C 32 9.35156 33.0039 9.08594 34.1602 9.08594C 35.582 9.08594 36.7617 9.51172 37.6992 10.3633C 38.6445 11.2148 39.1484 12.3203 39.2109 13.6797L 37.1602 13.6797C 37.0977 12.8594 36.7852 12.1875 36.2227 11.6641C 35.668 11.1328 34.9805 10.8672 34.1602 10.8672C 33.0586 10.8672 32.2031 11.2656 31.5938 12.0625C 30.9922 12.8516 30.6914 13.9961 30.6914 15.4961L 30.6914 15.9062C 30.6914 17.3672 30.9922 18.4922 31.5938 19.2812C 32.1953 20.0703 33.0547 20.4648 34.1719 20.4648ZM 46.9102 22.2344C 45.1914 22.2344 43.793 21.6719 42.7148 20.5469C 41.6367 19.4141 41.0977 17.9023 41.0977 16.0117L 41.0977 15.6133C 41.0977 14.3555 41.3359 13.2344 41.8125 12.25C 42.2969 11.2578 42.9688 10.4844 43.8281 9.92969C 44.6953 9.36719 45.6328 9.08594 46.6406 9.08594C 48.2891 9.08594 49.5703 9.62891 50.4844 10.7148C 51.3984 11.8008 51.8555 13.3555 51.8555 15.3789L 51.8555 16.2812L 43.2656 16.2812C 43.2969 17.5312 43.6602 18.543 44.3555 19.3164C 45.0586 20.082 45.9492 20.4648 47.0273 20.4648C 47.793 20.4648 48.4414 20.3086 48.9727 19.9961C 49.5039 19.6836 49.9688 19.2695 50.3672 18.7539L 51.6914 19.7852C 50.6289 21.418 49.0352 22.2344 46.9102 22.2344ZM 46.6406 10.8672C 45.7656 10.8672 45.0312 11.1875 44.4375 11.8281C 43.8438 12.4609 43.4766 13.3516 43.3359 14.5L 49.6875 14.5L 49.6875 14.3359C 49.625 13.2344 49.3281 12.3828 48.7969 11.7812C 48.2656 11.1719 47.5469 10.8672 46.6406 10.8672ZM 63.5156 23.7695L 52.7812 23.7695L 52.7812 22L 63.5156 22L 63.5156 23.7695ZM 68.1328 12.4141L 69.7617 12.4141C 70.7852 12.3984 71.5898 12.1289 72.1758 11.6055C 72.7617 11.082 73.0547 10.375 73.0547 9.48438C 73.0547 7.48438 72.0586 6.48438 70.0664 6.48438C 69.1289 6.48438 68.3789 6.75391 67.8164 7.29297C 67.2617 7.82422 66.9844 8.53125 66.9844 9.41406L 64.8164 9.41406C 64.8164 8.0625 65.3086 6.94141 66.293 6.05078C 67.2852 5.15234 68.543 4.70312 70.0664 4.70312C 71.6758 4.70312 72.9375 5.12891 73.8516 5.98047C 74.7656 6.83203 75.2227 8.01562 75.2227 9.53125C 75.2227 10.2734 74.9805 10.9922 74.4961 11.6875C 74.0195 12.3828 73.3672 12.9023 72.5391 13.2461C 73.4766 13.543 74.1992 14.0352 74.707 14.7227C 75.2227 15.4102 75.4805 16.25 75.4805 17.2422C 75.4805 18.7734 74.9805 19.9883 73.9805 20.8867C 72.9805 21.7852 71.6797 22.2344 70.0781 22.2344C 68.4766 22.2344 67.1719 21.8008 66.1641 20.9336C 65.1641 20.0664 64.6641 18.9219 64.6641 17.5L 66.8438 17.5C 66.8438 18.3984 67.1367 19.1172 67.7227 19.6562C 68.3086 20.1953 69.0938 20.4648 70.0781 20.4648C 71.125 20.4648 71.9258 20.1914 72.4805 19.6445C 73.0352 19.0977 73.3125 18.3125 73.3125 17.2891C 73.3125 16.2969 73.0078 15.5352 72.3984 15.0039C 71.7891 14.4727 70.9102 14.1992 69.7617 14.1836L 68.1328 14.1836L 68.1328 12.4141Z"/>
<path id="path4_fill" d="M 12.3516 15.8008C 12.3516 17.7305 11.9102 19.2852 11.0273 20.4648C 10.1445 21.6445 8.94922 22.2344 7.44141 22.2344C 5.90234 22.2344 4.69141 21.7461 3.80859 20.7695L 3.80859 26.875L 1.64062 26.875L 1.64062 9.32031L 3.62109 9.32031L 3.72656 10.7266C 4.60938 9.63281 5.83594 9.08594 7.40625 9.08594C 8.92969 9.08594 10.1328 9.66016 11.0156 10.8086C 11.9062 11.957 12.3516 13.5547 12.3516 15.6016L 12.3516 15.8008ZM 10.1836 15.5547C 10.1836 14.125 9.87891 12.9961 9.26953 12.168C 8.66016 11.3398 7.82422 10.9258 6.76172 10.9258C 5.44922 10.9258 4.46484 11.5078 3.80859 12.6719L 3.80859 18.7305C 4.45703 19.8867 5.44922 20.4648 6.78516 20.4648C 7.82422 20.4648 8.64844 20.0547 9.25781 19.2344C 9.875 18.4063 10.1836 17.1797 10.1836 15.5547ZM 21.2461 11.2656C 20.918 11.2109 20.5625 11.1836 20.1797 11.1836C 18.7578 11.1836 17.793 11.7891 17.2852 13L 17.2852 22L 15.1172 22L 15.1172 9.32031L 17.2266 9.32031L 17.2617 10.7852C 17.9727 9.65234 18.9805 9.08594 20.2852 9.08594C 20.707 9.08594 21.0273 9.14062 21.2461 9.25L 21.2461 11.2656ZM 25.6055 22L 23.4375 22L 23.4375 9.32031L 25.6055 9.32031L 25.6055 22ZM 23.2617 5.95703C 23.2617 5.60547 23.3672 5.30859 23.5781 5.06641C 23.7969 4.82422 24.1172 4.70312 24.5391 4.70312C 24.9609 4.70312 25.2813 4.82422 25.5 5.06641C 25.7187 5.30859 25.8281 5.60547 25.8281 5.95703C 25.8281 6.30859 25.7187 6.60156 25.5 6.83594C 25.2813 7.07031 24.9609 7.1875 24.5391 7.1875C 24.1172 7.1875 23.7969 7.07031 23.5781 6.83594C 23.3672 6.60156 23.2617 6.30859 23.2617 5.95703ZM 34.1719 20.4648C 34.9453 20.4648 35.6211 20.2305 36.1992 19.7617C 36.7773 19.293 37.0977 18.707 37.1602 18.0039L 39.2109 18.0039C 39.1719 18.7305 38.9219 19.4219 38.4609 20.0781C 38 20.7344 37.3828 21.2578 36.6094 21.6484C 35.8438 22.0391 35.0312 22.2344 34.1719 22.2344C 32.4453 22.2344 31.0703 21.6602 30.0469 20.5117C 29.0312 19.3555 28.5234 17.7773 28.5234 15.7773L 28.5234 15.4141C 28.5234 14.1797 28.75 13.082 29.2031 12.1211C 29.6563 11.1602 30.3047 10.4141 31.1484 9.88281C 32 9.35156 33.0039 9.08594 34.1602 9.08594C 35.582 9.08594 36.7617 9.51172 37.6992 10.3633C 38.6445 11.2148 39.1484 12.3203 39.2109 13.6797L 37.1602 13.6797C 37.0977 12.8594 36.7852 12.1875 36.2227 11.6641C 35.668 11.1328 34.9805 10.8672 34.1602 10.8672C 33.0586 10.8672 32.2031 11.2656 31.5938 12.0625C 30.9922 12.8516 30.6914 13.9961 30.6914 15.4961L 30.6914 15.9062C 30.6914 17.3672 30.9922 18.4922 31.5938 19.2812C 32.1953 20.0703 33.0547 20.4648 34.1719 20.4648ZM 46.9102 22.2344C 45.1914 22.2344 43.793 21.6719 42.7148 20.5469C 41.6367 19.4141 41.0977 17.9023 41.0977 16.0117L 41.0977 15.6133C 41.0977 14.3555 41.3359 13.2344 41.8125 12.25C 42.2969 11.2578 42.9688 10.4844 43.8281 9.92969C 44.6953 9.36719 45.6328 9.08594 46.6406 9.08594C 48.2891 9.08594 49.5703 9.62891 50.4844 10.7148C 51.3984 11.8008 51.8555 13.3555 51.8555 15.3789L 51.8555 16.2812L 43.2656 16.2812C 43.2969 17.5312 43.6602 18.543 44.3555 19.3164C 45.0586 20.082 45.9492 20.4648 47.0273 20.4648C 47.793 20.4648 48.4414 20.3086 48.9727 19.9961C 49.5039 19.6836 49.9688 19.2695 50.3672 18.7539L 51.6914 19.7852C 50.6289 21.418 49.0352 22.2344 46.9102 22.2344ZM 46.6406 10.8672C 45.7656 10.8672 45.0312 11.1875 44.4375 11.8281C 43.8438 12.4609 43.4766 13.3516 43.3359 14.5L 49.6875 14.5L 49.6875 14.3359C 49.625 13.2344 49.3281 12.3828 48.7969 11.7812C 48.2656 11.1719 47.5469 10.8672 46.6406 10.8672ZM 63.5156 23.7695L 52.7812 23.7695L 52.7812 22L 63.5156 22L 63.5156 23.7695ZM 74.1328 16.2695L 76.5 16.2695L 76.5 18.0391L 74.1328 18.0391L 74.1328 22L 71.9531 22L 71.9531 18.0391L 64.1836 18.0391L 64.1836 16.7617L 71.8242 4.9375L 74.1328 4.9375L 74.1328 16.2695ZM 66.6445 16.2695L 71.9531 16.2695L 71.9531 7.90234L 71.6953 8.37109L 66.6445 16.2695Z"/>
<path id="path5_fill" d="M 12.3516 15.8008C 12.3516 17.7305 11.9102 19.2852 11.0273 20.4648C 10.1445 21.6445 8.94922 22.2344 7.44141 22.2344C 5.90234 22.2344 4.69141 21.7461 3.80859 20.7695L 3.80859 26.875L 1.64062 26.875L 1.64062 9.32031L 3.62109 9.32031L 3.72656 10.7266C 4.60938 9.63281 5.83594 9.08594 7.40625 9.08594C 8.92969 9.08594 10.1328 9.66016 11.0156 10.8086C 11.9062 11.957 12.3516 13.5547 12.3516 15.6016L 12.3516 15.8008ZM 10.1836 15.5547C 10.1836 14.125 9.87891 12.9961 9.26953 12.168C 8.66016 11.3398 7.82422 10.9258 6.76172 10.9258C 5.44922 10.9258 4.46484 11.5078 3.80859 12.6719L 3.80859 18.7305C 4.45703 19.8867 5.44922 20.4648 6.78516 20.4648C 7.82422 20.4648 8.64844 20.0547 9.25781 19.2344C 9.875 18.4063 10.1836 17.1797 10.1836 15.5547ZM 21.2461 11.2656C 20.918 11.2109 20.5625 11.1836 20.1797 11.1836C 18.7578 11.1836 17.793 11.7891 17.2852 13L 17.2852 22L 15.1172 22L 15.1172 9.32031L 17.2266 9.32031L 17.2617 10.7852C 17.9727 9.65234 18.9805 9.08594 20.2852 9.08594C 20.707 9.08594 21.0273 9.14062 21.2461 9.25L 21.2461 11.2656ZM 25.6055 22L 23.4375 22L 23.4375 9.32031L 25.6055 9.32031L 25.6055 22ZM 23.2617 5.95703C 23.2617 5.60547 23.3672 5.30859 23.5781 5.06641C 23.7969 4.82422 24.1172 4.70312 24.5391 4.70312C 24.9609 4.70312 25.2813 4.82422 25.5 5.06641C 25.7187 5.30859 25.8281 5.60547 25.8281 5.95703C 25.8281 6.30859 25.7187 6.60156 25.5 6.83594C 25.2813 7.07031 24.9609 7.1875 24.5391 7.1875C 24.1172 7.1875 23.7969 7.07031 23.5781 6.83594C 23.3672 6.60156 23.2617 6.30859 23.2617 5.95703ZM 34.1719 20.4648C 34.9453 20.4648 35.6211 20.2305 36.1992 19.7617C 36.7773 19.293 37.0977 18.707 37.1602 18.0039L 39.2109 18.0039C 39.1719 18.7305 38.9219 19.4219 38.4609 20.0781C 38 20.7344 37.3828 21.2578 36.6094 21.6484C 35.8438 22.0391 35.0312 22.2344 34.1719 22.2344C 32.4453 22.2344 31.0703 21.6602 30.0469 20.5117C 29.0312 19.3555 28.5234 17.7773 28.5234 15.7773L 28.5234 15.4141C 28.5234 14.1797 28.75 13.082 29.2031 12.1211C 29.6563 11.1602 30.3047 10.4141 31.1484 9.88281C 32 9.35156 33.0039 9.08594 34.1602 9.08594C 35.582 9.08594 36.7617 9.51172 37.6992 10.3633C 38.6445 11.2148 39.1484 12.3203 39.2109 13.6797L 37.1602 13.6797C 37.0977 12.8594 36.7852 12.1875 36.2227 11.6641C 35.668 11.1328 34.9805 10.8672 34.1602 10.8672C 33.0586 10.8672 32.2031 11.2656 31.5938 12.0625C 30.9922 12.8516 30.6914 13.9961 30.6914 15.4961L 30.6914 15.9062C 30.6914 17.3672 30.9922 18.4922 31.5938 19.2812C 32.1953 20.0703 33.0547 20.4648 34.1719 20.4648ZM 46.9102 22.2344C 45.1914 22.2344 43.793 21.6719 42.7148 20.5469C 41.6367 19.4141 41.0977 17.9023 41.0977 16.0117L 41.0977 15.6133C 41.0977 14.3555 41.3359 13.2344 41.8125 12.25C 42.2969 11.2578 42.9688 10.4844 43.8281 9.92969C 44.6953 9.36719 45.6328 9.08594 46.6406 9.08594C 48.2891 9.08594 49.5703 9.62891 50.4844 10.7148C 51.3984 11.8008 51.8555 13.3555 51.8555 15.3789L 51.8555 16.2812L 43.2656 16.2812C 43.2969 17.5312 43.6602 18.543 44.3555 19.3164C 45.0586 20.082 45.9492 20.4648 47.0273 20.4648C 47.793 20.4648 48.4414 20.3086 48.9727 19.9961C 49.5039 19.6836 49.9688 19.2695 50.3672 18.7539L 51.6914 19.7852C 50.6289 21.418 49.0352 22.2344 46.9102 22.2344ZM 46.6406 10.8672C 45.7656 10.8672 45.0312 11.1875 44.4375 11.8281C 43.8438 12.4609 43.4766 13.3516 43.3359 14.5L 49.6875 14.5L 49.6875 14.3359C 49.625 13.2344 49.3281 12.3828 48.7969 11.7812C 48.2656 11.1719 47.5469 10.8672 46.6406 10.8672ZM 63.5156 23.7695L 52.7812 23.7695L 52.7812 22L 63.5156 22L 63.5156 23.7695ZM 65.9766 13.4453L 66.8438 4.9375L 75.5859 4.9375L 75.5859 6.94141L 68.6836 6.94141L 68.168 11.5938C 69.0039 11.1016 69.9531 10.8555 71.0156 10.8555C 72.5703 10.8555 73.8047 11.3711 74.7188 12.4023C 75.6328 13.4258 76.0898 14.8125 76.0898 16.5625C 76.0898 18.3203 75.6133 19.707 74.6602 20.7227C 73.7148 21.7305 72.3906 22.2344 70.6875 22.2344C 69.1797 22.2344 67.9492 21.8164 66.9961 20.9805C 66.043 20.1445 65.5 18.9883 65.3672 17.5117L 67.418 17.5117C 67.5508 18.4883 67.8984 19.2266 68.4609 19.7266C 69.0234 20.2188 69.7656 20.4648 70.6875 20.4648C 71.6953 20.4648 72.4844 20.1211 73.0547 19.4336C 73.6328 18.7461 73.9219 17.7969 73.9219 16.5859C 73.9219 15.4453 73.6094 14.5313 72.9844 13.8438C 72.3672 13.1484 71.543 12.8008 70.5117 12.8008C 69.5664 12.8008 68.8242 13.0078 68.2852 13.4219L 67.7109 13.8906L 65.9766 13.4453Z"/>
<path id="path6_stroke" d="M 25.3536 0.353553C 25.5488 0.158291 25.5488 -0.158291 25.3536 -0.353553L 22.1716 -3.53553C 21.9763 -3.7308 21.6597 -3.7308 21.4645 -3.53553C 21.2692 -3.34027 21.2692 -3.02369 21.4645 -2.82843L 24.2929 0L 21.4645 2.82843C 21.2692 3.02369 21.2692 3.34027 21.4645 3.53553C 21.6597 3.7308 21.9763 3.7308 22.1716 3.53553L 25.3536 0.353553ZM 0 0.5L 25 0.5L 25 -0.5L 0 -0.5L 0 0.5Z"/>
<path id="path7_fill" d="M 12.3516 15.8008C 12.3516 17.7305 11.9102 19.2852 11.0273 20.4648C 10.1445 21.6445 8.94922 22.2344 7.44141 22.2344C 5.90234 22.2344 4.69141 21.7461 3.80859 20.7695L 3.80859 26.875L 1.64062 26.875L 1.64062 9.32031L 3.62109 9.32031L 3.72656 10.7266C 4.60938 9.63281 5.83594 9.08594 7.40625 9.08594C 8.92969 9.08594 10.1328 9.66016 11.0156 10.8086C 11.9062 11.957 12.3516 13.5547 12.3516 15.6016L 12.3516 15.8008ZM 10.1836 15.5547C 10.1836 14.125 9.87891 12.9961 9.26953 12.168C 8.66016 11.3398 7.82422 10.9258 6.76172 10.9258C 5.44922 10.9258 4.46484 11.5078 3.80859 12.6719L 3.80859 18.7305C 4.45703 19.8867 5.44922 20.4648 6.78516 20.4648C 7.82422 20.4648 8.64844 20.0547 9.25781 19.2344C 9.875 18.4062 10.1836 17.1797 10.1836 15.5547ZM 21.2461 11.2656C 20.918 11.2109 20.5625 11.1836 20.1797 11.1836C 18.7578 11.1836 17.793 11.7891 17.2852 13L 17.2852 22L 15.1172 22L 15.1172 9.32031L 17.2266 9.32031L 17.2617 10.7852C 17.9727 9.65234 18.9805 9.08594 20.2852 9.08594C 20.707 9.08594 21.0273 9.14062 21.2461 9.25L 21.2461 11.2656ZM 25.6055 22L 23.4375 22L 23.4375 9.32031L 25.6055 9.32031L 25.6055 22ZM 23.2617 5.95703C 23.2617 5.60547 23.3672 5.30859 23.5781 5.06641C 23.7969 4.82422 24.1172 4.70312 24.5391 4.70312C 24.9609 4.70312 25.2812 4.82422 25.5 5.06641C 25.7188 5.30859 25.8281 5.60547 25.8281 5.95703C 25.8281 6.30859 25.7188 6.60156 25.5 6.83594C 25.2812 7.07031 24.9609 7.1875 24.5391 7.1875C 24.1172 7.1875 23.7969 7.07031 23.5781 6.83594C 23.3672 6.60156 23.2617 6.30859 23.2617 5.95703ZM 34.1719 20.4648C 34.9453 20.4648 35.6211 20.2305 36.1992 19.7617C 36.7773 19.293 37.0977 18.707 37.1602 18.0039L 39.2109 18.0039C 39.1719 18.7305 38.9219 19.4219 38.4609 20.0781C 38 20.7344 37.3828 21.2578 36.6094 21.6484C 35.8438 22.0391 35.0312 22.2344 34.1719 22.2344C 32.4453 22.2344 31.0703 21.6602 30.0469 20.5117C 29.0312 19.3555 28.5234 17.7773 28.5234 15.7773L 28.5234 15.4141C 28.5234 14.1797 28.75 13.082 29.2031 12.1211C 29.6562 11.1602 30.3047 10.4141 31.1484 9.88281C 32 9.35156 33.0039 9.08594 34.1602 9.08594C 35.582 9.08594 36.7617 9.51172 37.6992 10.3633C 38.6445 11.2148 39.1484 12.3203 39.2109 13.6797L 37.1602 13.6797C 37.0977 12.8594 36.7852 12.1875 36.2227 11.6641C 35.668 11.1328 34.9805 10.8672 34.1602 10.8672C 33.0586 10.8672 32.2031 11.2656 31.5938 12.0625C 30.9922 12.8516 30.6914 13.9961 30.6914 15.4961L 30.6914 15.9062C 30.6914 17.3672 30.9922 18.4922 31.5938 19.2812C 32.1953 20.0703 33.0547 20.4648 34.1719 20.4648ZM 46.9102 22.2344C 45.1914 22.2344 43.793 21.6719 42.7148 20.5469C 41.6367 19.4141 41.0977 17.9023 41.0977 16.0117L 41.0977 15.6133C 41.0977 14.3555 41.3359 13.2344 41.8125 12.25C 42.2969 11.2578 42.9688 10.4844 43.8281 9.92969C 44.6953 9.36719 45.6328 9.08594 46.6406 9.08594C 48.2891 9.08594 49.5703 9.62891 50.4844 10.7148C 51.3984 11.8008 51.8555 13.3555 51.8555 15.3789L 51.8555 16.2812L 43.2656 16.2812C 43.2969 17.5312 43.6602 18.543 44.3555 19.3164C 45.0586 20.082 45.9492 20.4648 47.0273 20.4648C 47.793 20.4648 48.4414 20.3086 48.9727 19.9961C 49.5039 19.6836 49.9688 19.2695 50.3672 18.7539L 51.6914 19.7852C 50.6289 21.418 49.0352 22.2344 46.9102 22.2344ZM 46.6406 10.8672C 45.7656 10.8672 45.0312 11.1875 44.4375 11.8281C 43.8438 12.4609 43.4766 13.3516 43.3359 14.5L 49.6875 14.5L 49.6875 14.3359C 49.625 13.2344 49.3281 12.3828 48.7969 11.7812C 48.2656 11.1719 47.5469 10.8672 46.6406 10.8672ZM 63.5156 23.7695L 52.7812 23.7695L 52.7812 22L 63.5156 22L 63.5156 23.7695ZM 73.4883 4.92578L 73.4883 6.76562L 73.0898 6.76562C 71.4023 6.79688 70.0586 7.29687 69.0586 8.26562C 68.0586 9.23438 67.4805 10.5977 67.3242 12.3555C 68.2227 11.3242 69.4492 10.8086 71.0039 10.8086C 72.4883 10.8086 73.6719 11.332 74.5547 12.3789C 75.4453 13.4258 75.8906 14.7773 75.8906 16.4336C 75.8906 18.1914 75.4102 19.5977 74.4492 20.6523C 73.4961 21.707 72.2148 22.2344 70.6055 22.2344C 68.9727 22.2344 67.6484 21.6094 66.6328 20.3594C 65.6172 19.1016 65.1094 17.4844 65.1094 15.5078L 65.1094 14.6758C 65.1094 11.5352 65.7773 9.13672 67.1133 7.48047C 68.457 5.81641 70.4531 4.96484 73.1016 4.92578L 73.4883 4.92578ZM 70.6406 12.6133C 69.8984 12.6133 69.2148 12.8359 68.5898 13.2812C 67.9648 13.7266 67.5312 14.2852 67.2891 14.957L 67.2891 15.7539C 67.2891 17.1602 67.6055 18.293 68.2383 19.1523C 68.8711 20.0117 69.6602 20.4414 70.6055 20.4414C 71.582 20.4414 72.3477 20.082 72.9023 19.3633C 73.4648 18.6445 73.7461 17.7031 73.7461 16.5391C 73.7461 15.3672 73.4609 14.4219 72.8906 13.7031C 72.3281 12.9766 71.5781 12.6133 70.6406 12.6133Z"/>
<path id="path8_fill" d="M 4.24219 20.1602L 12.3281 20.1602L 12.3281 22L 1.98047 22L 1.98047 4.9375L 4.24219 4.9375L 4.24219 20.1602ZM 16.9102 22L 14.7422 22L 14.7422 9.32031L 16.9102 9.32031L 16.9102 22ZM 14.5664 5.95703C 14.5664 5.60547 14.6719 5.30859 14.8828 5.06641C 15.1016 4.82422 15.4219 4.70312 15.8438 4.70312C 16.2656 4.70312 16.5859 4.82422 16.8047 5.06641C 17.0234 5.30859 17.1328 5.60547 17.1328 5.95703C 17.1328 6.30859 17.0234 6.60156 16.8047 6.83594C 16.5859 7.07031 16.2656 7.1875 15.8438 7.1875C 15.4219 7.1875 15.1016 7.07031 14.8828 6.83594C 14.6719 6.60156 14.5664 6.30859 14.5664 5.95703ZM 22.4414 9.32031L 22.5117 10.9141C 23.4805 9.69531 24.7461 9.08594 26.3086 9.08594C 28.9883 9.08594 30.3398 10.5977 30.3633 13.6211L 30.3633 22L 28.1953 22L 28.1953 13.6094C 28.1875 12.6953 27.9766 12.0195 27.5625 11.582C 27.1562 11.1445 26.5195 10.9258 25.6523 10.9258C 24.9492 10.9258 24.332 11.1133 23.8008 11.4883C 23.2695 11.8633 22.8555 12.3555 22.5586 12.9648L 22.5586 22L 20.3906 22L 20.3906 9.32031L 22.4414 9.32031ZM 37.1719 16.1289L 35.8125 17.5469L 35.8125 22L 33.6445 22L 33.6445 4L 35.8125 4L 35.8125 14.8867L 36.9727 13.4922L 40.9219 9.32031L 43.5586 9.32031L 38.625 14.6172L 44.1328 22L 41.5898 22L 37.1719 16.1289ZM 50.8242 22.2344C 49.1055 22.2344 47.707 21.6719 46.6289 20.5469C 45.5508 19.4141 45.0117 17.9023 45.0117 16.0117L 45.0117 15.6133C 45.0117 14.3555 45.25 13.2344 45.7266 12.25C 46.2109 11.2578 46.8828 10.4844 47.7422 9.92969C 48.6094 9.36719 49.5469 9.08594 50.5547 9.08594C 52.2031 9.08594 53.4844 9.62891 54.3984 10.7148C 55.3125 11.8008 55.7695 13.3555 55.7695 15.3789L 55.7695 16.2812L 47.1797 16.2812C 47.2109 17.5312 47.5742 18.543 48.2695 19.3164C 48.9727 20.082 49.8633 20.4648 50.9414 20.4648C 51.707 20.4648 52.3555 20.3086 52.8867 19.9961C 53.418 19.6836 53.8828 19.2695 54.2812 18.7539L 55.6055 19.7852C 54.543 21.418 52.9492 22.2344 50.8242 22.2344ZM 50.5547 10.8672C 49.6797 10.8672 48.9453 11.1875 48.3516 11.8281C 47.7578 12.4609 47.3906 13.3516 47.25 14.5L 53.6016 14.5L 53.6016 14.3359C 53.5391 13.2344 53.2422 12.3828 52.7109 11.7812C 52.1797 11.1719 51.4609 10.8672 50.5547 10.8672ZM 57.7617 15.5547C 57.7617 13.6094 58.2227 12.0469 59.1445 10.8672C 60.0664 9.67969 61.2734 9.08594 62.7656 9.08594C 64.25 9.08594 65.4258 9.59375 66.293 10.6094L 66.293 4L 68.4609 4L 68.4609 22L 66.4688 22L 66.3633 20.6406C 65.4961 21.7031 64.2891 22.2344 62.7422 22.2344C 61.2734 22.2344 60.0742 21.6328 59.1445 20.4297C 58.2227 19.2266 57.7617 17.6563 57.7617 15.7188L 57.7617 15.5547ZM 59.9297 15.8008C 59.9297 17.2383 60.2266 18.3633 60.8203 19.1758C 61.4141 19.9883 62.2344 20.3945 63.2812 20.3945C 64.6562 20.3945 65.6602 19.7773 66.293 18.543L 66.293 12.7188C 65.6445 11.5234 64.6484 10.9258 63.3047 10.9258C 62.2422 10.9258 61.4141 11.3359 60.8203 12.1562C 60.2266 12.9766 59.9297 14.1914 59.9297 15.8008ZM 80.3906 20.1602L 88.4766 20.1602L 88.4766 22L 78.1289 22L 78.1289 4.9375L 80.3906 4.9375L 80.3906 20.1602ZM 93.0586 22L 90.8906 22L 90.8906 9.32031L 93.0586 9.32031L 93.0586 22ZM 90.7148 5.95703C 90.7148 5.60547 90.8203 5.30859 91.0312 5.06641C 91.25 4.82422 91.5703 4.70312 91.9922 4.70312C 92.4141 4.70312 92.7344 4.82422 92.9531 5.06641C 93.1719 5.30859 93.2812 5.60547 93.2812 5.95703C 93.2812 6.30859 93.1719 6.60156 92.9531 6.83594C 92.7344 7.07031 92.4141 7.1875 91.9922 7.1875C 91.5703 7.1875 91.25 7.07031 91.0312 6.83594C 90.8203 6.60156 90.7148 6.30859 90.7148 5.95703ZM 103.922 18.6367C 103.922 18.0508 103.699 17.5977 103.254 17.2773C 102.816 16.9492 102.047 16.668 100.945 16.4336C 99.8516 16.1992 98.9805 15.918 98.332 15.5898C 97.6914 15.2617 97.2148 14.8711 96.9023 14.418C 96.5977 13.9648 96.4453 13.4258 96.4453 12.8008C 96.4453 11.7617 96.8828 10.8828 97.7578 10.1641C 98.6406 9.44531 99.7656 9.08594 101.133 9.08594C 102.57 9.08594 103.734 9.45703 104.625 10.1992C 105.523 10.9414 105.973 11.8906 105.973 13.0469L 103.793 13.0469C 103.793 12.4531 103.539 11.9414 103.031 11.5117C 102.531 11.082 101.898 10.8672 101.133 10.8672C 100.344 10.8672 99.7266 11.0391 99.2812 11.3828C 98.8359 11.7266 98.6133 12.1758 98.6133 12.7305C 98.6133 13.2539 98.8203 13.6484 99.2344 13.9141C 99.6484 14.1797 100.395 14.4336 101.473 14.6758C 102.559 14.918 103.438 15.207 104.109 15.543C 104.781 15.8789 105.277 16.2852 105.598 16.7617C 105.926 17.2305 106.09 17.8047 106.09 18.4844C 106.09 19.6172 105.637 20.5273 104.73 21.2148C 103.824 21.8945 102.648 22.2344 101.203 22.2344C 100.188 22.2344 99.2891 22.0547 98.5078 21.6953C 97.7266 21.3359 97.1133 20.8359 96.668 20.1953C 96.2305 19.5469 96.0117 18.8477 96.0117 18.0977L 98.1797 18.0977C 98.2188 18.8242 98.5078 19.4023 99.0469 19.832C 99.5937 20.2539 100.312 20.4648 101.203 20.4648C 102.023 20.4648 102.68 20.3008 103.172 19.9727C 103.672 19.6367 103.922 19.1914 103.922 18.6367ZM 111.855 6.25L 111.855 9.32031L 114.223 9.32031L 114.223 10.9961L 111.855 10.9961L 111.855 18.8594C 111.855 19.3672 111.961 19.75 112.172 20.0078C 112.383 20.2578 112.742 20.3828 113.25 20.3828C 113.5 20.3828 113.844 20.3359 114.281 20.2422L 114.281 22C 113.711 22.1562 113.156 22.2344 112.617 22.2344C 111.648 22.2344 110.918 21.9414 110.426 21.3555C 109.934 20.7695 109.688 19.9375 109.688 18.8594L 109.688 10.9961L 107.379 10.9961L 107.379 9.32031L 109.688 9.32031L 109.688 6.25L 111.855 6.25Z"/>
<path id="path9_stroke" d="M 200.354 0.353553C 200.549 0.158291 200.549 -0.158291 200.354 -0.353553L 197.172 -3.53553C 196.976 -3.7308 196.66 -3.7308 196.464 -3.53553C 196.269 -3.34027 196.269 -3.02369 196.464 -2.82843L 199.293 0L 196.464 2.82843C 196.269 3.02369 196.269 3.34027 196.464 3.53553C 196.66 3.7308 196.976 3.7308 197.172 3.53553L 200.354 0.353553ZM 0 0.5L 200 0.5L 200 -0.5L 0 -0.5L 0 0.5Z"/>
<path id="path10_fill" d="M 12.3516 15.8008C 12.3516 17.7305 11.9102 19.2852 11.0273 20.4648C 10.1445 21.6445 8.94922 22.2344 7.44141 22.2344C 5.90234 22.2344 4.69141 21.7461 3.80859 20.7695L 3.80859 26.875L 1.64062 26.875L 1.64062 9.32031L 3.62109 9.32031L 3.72656 10.7266C 4.60938 9.63281 5.83594 9.08594 7.40625 9.08594C 8.92969 9.08594 10.1328 9.66016 11.0156 10.8086C 11.9062 11.957 12.3516 13.5547 12.3516 15.6016L 12.3516 15.8008ZM 10.1836 15.5547C 10.1836 14.125 9.87891 12.9961 9.26953 12.168C 8.66016 11.3398 7.82422 10.9258 6.76172 10.9258C 5.44922 10.9258 4.46484 11.5078 3.80859 12.6719L 3.80859 18.7305C 4.45703 19.8867 5.44922 20.4648 6.78516 20.4648C 7.82422 20.4648 8.64844 20.0547 9.25781 19.2344C 9.875 18.4062 10.1836 17.1797 10.1836 15.5547ZM 21.2461 11.2656C 20.918 11.2109 20.5625 11.1836 20.1797 11.1836C 18.7578 11.1836 17.793 11.7891 17.2852 13L 17.2852 22L 15.1172 22L 15.1172 9.32031L 17.2266 9.32031L 17.2617 10.7852C 17.9727 9.65234 18.9805 9.08594 20.2852 9.08594C 20.707 9.08594 21.0273 9.14062 21.2461 9.25L 21.2461 11.2656ZM 25.6055 22L 23.4375 22L 23.4375 9.32031L 25.6055 9.32031L 25.6055 22ZM 23.2617 5.95703C 23.2617 5.60547 23.3672 5.30859 23.5781 5.06641C 23.7969 4.82422 24.1172 4.70312 24.5391 4.70312C 24.9609 4.70312 25.2812 4.82422 25.5 5.06641C 25.7188 5.30859 25.8281 5.60547 25.8281 5.95703C 25.8281 6.30859 25.7188 6.60156 25.5 6.83594C 25.2812 7.07031 24.9609 7.1875 24.5391 7.1875C 24.1172 7.1875 23.7969 7.07031 23.5781 6.83594C 23.3672 6.60156 23.2617 6.30859 23.2617 5.95703ZM 34.1719 20.4648C 34.9453 20.4648 35.6211 20.2305 36.1992 19.7617C 36.7773 19.293 37.0977 18.707 37.1602 18.0039L 39.2109 18.0039C 39.1719 18.7305 38.9219 19.4219 38.4609 20.0781C 38 20.7344 37.3828 21.2578 36.6094 21.6484C 35.8438 22.0391 35.0312 22.2344 34.1719 22.2344C 32.4453 22.2344 31.0703 21.6602 30.0469 20.5117C 29.0312 19.3555 28.5234 17.7773 28.5234 15.7773L 28.5234 15.4141C 28.5234 14.1797 28.75 13.082 29.2031 12.1211C 29.6562 11.1602 30.3047 10.4141 31.1484 9.88281C 32 9.35156 33.0039 9.08594 34.1602 9.08594C 35.582 9.08594 36.7617 9.51172 37.6992 10.3633C 38.6445 11.2148 39.1484 12.3203 39.2109 13.6797L 37.1602 13.6797C 37.0977 12.8594 36.7852 12.1875 36.2227 11.6641C 35.668 11.1328 34.9805 10.8672 34.1602 10.8672C 33.0586 10.8672 32.2031 11.2656 31.5938 12.0625C 30.9922 12.8516 30.6914 13.9961 30.6914 15.4961L 30.6914 15.9062C 30.6914 17.3672 30.9922 18.4922 31.5938 19.2812C 32.1953 20.0703 33.0547 20.4648 34.1719 20.4648ZM 46.9102 22.2344C 45.1914 22.2344 43.793 21.6719 42.7148 20.5469C 41.6367 19.4141 41.0977 17.9023 41.0977 16.0117L 41.0977 15.6133C 41.0977 14.3555 41.3359 13.2344 41.8125 12.25C 42.2969 11.2578 42.9688 10.4844 43.8281 9.92969C 44.6953 9.36719 45.6328 9.08594 46.6406 9.08594C 48.2891 9.08594 49.5703 9.62891 50.4844 10.7148C 51.3984 11.8008 51.8555 13.3555 51.8555 15.3789L 51.8555 16.2812L 43.2656 16.2812C 43.2969 17.5312 43.6602 18.543 44.3555 19.3164C 45.0586 20.082 45.9492 20.4648 47.0273 20.4648C 47.793 20.4648 48.4414 20.3086 48.9727 19.9961C 49.5039 19.6836 49.9688 19.2695 50.3672 18.7539L 51.6914 19.7852C 50.6289 21.418 49.0352 22.2344 46.9102 22.2344ZM 46.6406 10.8672C 45.7656 10.8672 45.0312 11.1875 44.4375 11.8281C 43.8438 12.4609 43.4766 13.3516 43.3359 14.5L 49.6875 14.5L 49.6875 14.3359C 49.625 13.2344 49.3281 12.3828 48.7969 11.7812C 48.2656 11.1719 47.5469 10.8672 46.6406 10.8672ZM 63.5156 23.7695L 52.7812 23.7695L 52.7812 22L 63.5156 22L 63.5156 23.7695ZM 72.1055 22L 69.9258 22L 69.9258 7.55078L 65.5547 9.15625L 65.5547 7.1875L 71.7656 4.85547L 72.1055 4.85547L 72.1055 22ZM 78.7266 20.8633C 78.7266 20.4883 78.8359 20.1758 79.0547 19.9258C 79.2812 19.6758 79.6172 19.5508 80.0625 19.5508C 80.5078 19.5508 80.8438 19.6758 81.0703 19.9258C 81.3047 20.1758 81.4219 20.4883 81.4219 20.8633C 81.4219 21.2227 81.3047 21.5234 81.0703 21.7656C 80.8438 22.0078 80.5078 22.1289 80.0625 22.1289C 79.6172 22.1289 79.2812 22.0078 79.0547 21.7656C 78.8359 21.5234 78.7266 21.2227 78.7266 20.8633ZM 87.3633 22L 85.1953 22L 85.1953 9.32031L 87.3633 9.32031L 87.3633 22ZM 85.0195 5.95703C 85.0195 5.60547 85.125 5.30859 85.3359 5.06641C 85.5547 4.82422 85.875 4.70312 86.2969 4.70312C 86.7188 4.70312 87.0391 4.82422 87.2578 5.06641C 87.4766 5.30859 87.5859 5.60547 87.5859 5.95703C 87.5859 6.30859 87.4766 6.60156 87.2578 6.83594C 87.0391 7.07031 86.7188 7.1875 86.2969 7.1875C 85.875 7.1875 85.5547 7.07031 85.3359 6.83594C 85.125 6.60156 85.0195 6.30859 85.0195 5.95703ZM 92.8945 9.32031L 92.9648 10.9141C 93.9336 9.69531 95.1992 9.08594 96.7617 9.08594C 99.4414 9.08594 100.793 10.5977 100.816 13.6211L 100.816 22L 98.6484 22L 98.6484 13.6094C 98.6406 12.6953 98.4297 12.0195 98.0156 11.582C 97.6094 11.1445 96.9727 10.9258 96.1055 10.9258C 95.4023 10.9258 94.7852 11.1133 94.2539 11.4883C 93.7227 11.8633 93.3086 12.3555 93.0117 12.9648L 93.0117 22L 90.8438 22L 90.8438 9.32031L 92.8945 9.32031ZM 111.469 18.6367C 111.469 18.0508 111.246 17.5977 110.801 17.2773C 110.363 16.9492 109.594 16.668 108.492 16.4336C 107.398 16.1992 106.527 15.918 105.879 15.5898C 105.238 15.2617 104.762 14.8711 104.449 14.418C 104.145 13.9648 103.992 13.4258 103.992 12.8008C 103.992 11.7617 104.43 10.8828 105.305 10.1641C 106.188 9.44531 107.312 9.08594 108.68 9.08594C 110.117 9.08594 111.281 9.45703 112.172 10.1992C 113.07 10.9414 113.52 11.8906 113.52 13.0469L 111.34 13.0469C 111.34 12.4531 111.086 11.9414 110.578 11.5117C 110.078 11.082 109.445 10.8672 108.68 10.8672C 107.891 10.8672 107.273 11.0391 106.828 11.3828C 106.383 11.7266 106.16 12.1758 106.16 12.7305C 106.16 13.2539 106.367 13.6484 106.781 13.9141C 107.195 14.1797 107.941 14.4336 109.02 14.6758C 110.105 14.918 110.984 15.207 111.656 15.543C 112.328 15.8789 112.824 16.2852 113.145 16.7617C 113.473 17.2305 113.637 17.8047 113.637 18.4844C 113.637 19.6172 113.184 20.5273 112.277 21.2148C 111.371 21.8945 110.195 22.2344 108.75 22.2344C 107.734 22.2344 106.836 22.0547 106.055 21.6953C 105.273 21.3359 104.66 20.8359 104.215 20.1953C 103.777 19.5469 103.559 18.8477 103.559 18.0977L 105.727 18.0977C 105.766 18.8242 106.055 19.4023 106.594 19.832C 107.141 20.2539 107.859 20.4648 108.75 20.4648C 109.57 20.4648 110.227 20.3008 110.719 19.9727C 111.219 19.6367 111.469 19.1914 111.469 18.6367ZM 121.723 22.2344C 120.004 22.2344 118.605 21.6719 117.527 20.5469C 116.449 19.4141 115.91 17.9023 115.91 16.0117L 115.91 15.6133C 115.91 14.3555 116.148 13.2344 116.625 12.25C 117.109 11.2578 117.781 10.4844 118.641 9.92969C 119.508 9.36719 120.445 9.08594 121.453 9.08594C 123.102 9.08594 124.383 9.62891 125.297 10.7148C 126.211 11.8008 126.668 13.3555 126.668 15.3789L 126.668 16.2812L 118.078 16.2812C 118.109 17.5312 118.473 18.543 119.168 19.3164C 119.871 20.082 120.762 20.4648 121.84 20.4648C 122.605 20.4648 123.254 20.3086 123.785 19.9961C 124.316 19.6836 124.781 19.2695 125.18 18.7539L 126.504 19.7852C 125.441 21.418 123.848 22.2344 121.723 22.2344ZM 121.453 10.8672C 120.578 10.8672 119.844 11.1875 119.25 11.8281C 118.656 12.4609 118.289 13.3516 118.148 14.5L 124.5 14.5L 124.5 14.3359C 124.438 13.2344 124.141 12.3828 123.609 11.7812C 123.078 11.1719 122.359 10.8672 121.453 10.8672ZM 135.316 11.2656C 134.988 11.2109 134.633 11.1836 134.25 11.1836C 132.828 11.1836 131.863 11.7891 131.355 13L 131.355 22L 129.188 22L 129.188 9.32031L 131.297 9.32031L 131.332 10.7852C 132.043 9.65234 133.051 9.08594 134.355 9.08594C 134.777 9.08594 135.098 9.14062 135.316 9.25L 135.316 11.2656ZM 140.848 6.25L 140.848 9.32031L 143.215 9.32031L 143.215 10.9961L 140.848 10.9961L 140.848 18.8594C 140.848 19.3672 140.953 19.75 141.164 20.0078C 141.375 20.2578 141.734 20.3828 142.242 20.3828C 142.492 20.3828 142.836 20.3359 143.273 20.2422L 143.273 22C 142.703 22.1562 142.148 22.2344 141.609 22.2344C 140.641 22.2344 139.91 21.9414 139.418 21.3555C 138.926 20.7695 138.68 19.9375 138.68 18.8594L 138.68 10.9961L 136.371 10.9961L 136.371 9.32031L 138.68 9.32031L 138.68 6.25L 140.848 6.25ZM 145.676 15.0742C 145.676 13.3086 145.91 11.6133 146.379 9.98828C 146.855 8.36328 147.562 6.88672 148.5 5.55859C 149.438 4.23047 150.41 3.29297 151.418 2.74609L 151.863 4.17578C 150.723 5.05078 149.785 6.38672 149.051 8.18359C 148.324 9.98047 147.926 11.9922 147.855 14.2188L 147.844 15.2148C 147.844 18.2305 148.395 20.8477 149.496 23.0664C 150.16 24.3945 150.949 25.4336 151.863 26.1836L 151.418 27.5078C 150.379 26.9297 149.387 25.9609 148.441 24.6016C 146.598 21.9453 145.676 18.7695 145.676 15.0742ZM 164.438 14.7227C 164.438 17.2617 164.004 19.1484 163.137 20.3828C 162.27 21.6172 160.914 22.2344 159.07 22.2344C 157.25 22.2344 155.902 21.6328 155.027 20.4297C 154.152 19.2188 153.699 17.4141 153.668 15.0156L 153.668 12.1211C 153.668 9.61328 154.102 7.75 154.969 6.53125C 155.836 5.3125 157.195 4.70312 159.047 4.70312C 160.883 4.70312 162.234 5.29297 163.102 6.47266C 163.969 7.64453 164.414 9.45703 164.438 11.9102L 164.438 14.7227ZM 162.27 11.7578C 162.27 9.92188 162.012 8.58594 161.496 7.75C 160.98 6.90625 160.164 6.48438 159.047 6.48438C 157.938 6.48438 157.129 6.90234 156.621 7.73828C 156.113 8.57422 155.852 9.85938 155.836 11.5938L 155.836 15.0625C 155.836 16.9062 156.102 18.2695 156.633 19.1523C 157.172 20.0273 157.984 20.4648 159.07 20.4648C 160.141 20.4648 160.934 20.0508 161.449 19.2227C 161.973 18.3945 162.246 17.0898 162.27 15.3086L 162.27 11.7578ZM 167.367 25.3984L 166.137 24.5547C 166.871 23.5312 167.254 22.4766 167.285 21.3906L 167.285 19.4336L 169.406 19.4336L 169.406 21.1328C 169.406 21.9219 169.211 22.7109 168.82 23.5C 168.438 24.2891 167.953 24.9219 167.367 25.3984ZM 172.922 13.4453L 173.789 4.9375L 182.531 4.9375L 182.531 6.94141L 175.629 6.94141L 175.113 11.5938C 175.949 11.1016 176.898 10.8555 177.961 10.8555C 179.516 10.8555 180.75 11.3711 181.664 12.4023C 182.578 13.4258 183.035 14.8125 183.035 16.5625C 183.035 18.3203 182.559 19.707 181.605 20.7227C 180.66 21.7305 179.336 22.2344 177.633 22.2344C 176.125 22.2344 174.895 21.8164 173.941 20.9805C 172.988 20.1445 172.445 18.9883 172.312 17.5117L 174.363 17.5117C 174.496 18.4883 174.844 19.2266 175.406 19.7266C 175.969 20.2188 176.711 20.4648 177.633 20.4648C 178.641 20.4648 179.43 20.1211 180 19.4336C 180.578 18.7461 180.867 17.7969 180.867 16.5859C 180.867 15.4453 180.555 14.5312 179.93 13.8438C 179.312 13.1484 178.488 12.8008 177.457 12.8008C 176.512 12.8008 175.77 13.0078 175.23 13.4219L 174.656 13.8906L 172.922 13.4453ZM 190.629 15.1914C 190.629 16.9336 190.398 18.6055 189.938 20.207C 189.484 21.8008 188.785 23.2734 187.84 24.625C 186.902 25.9766 185.918 26.9375 184.887 27.5078L 184.43 26.1836C 185.633 25.2617 186.598 23.832 187.324 21.8945C 188.059 19.9492 188.434 17.793 188.449 15.4258L 188.449 15.0508C 188.449 13.4102 188.277 11.8867 187.934 10.4805C 187.59 9.06641 187.109 7.80078 186.492 6.68359C 185.883 5.56641 185.195 4.69531 184.43 4.07031L 184.887 2.74609C 185.918 3.31641 186.898 4.26953 187.828 5.60547C 188.766 6.94141 189.465 8.41406 189.926 10.0234C 190.395 11.6328 190.629 13.3555 190.629 15.1914Z"/>
<path id="path11_fill" d="M 4.39453 22L 2.14453 22L 2.14453 4.9375L 4.39453 4.9375L 4.39453 22ZM 10.2305 9.32031L 10.3008 10.9141C 11.2695 9.69531 12.5352 9.08594 14.0977 9.08594C 16.7773 9.08594 18.1289 10.5977 18.1523 13.6211L 18.1523 22L 15.9844 22L 15.9844 13.6094C 15.9766 12.6953 15.7656 12.0195 15.3516 11.582C 14.9453 11.1445 14.3086 10.9258 13.4414 10.9258C 12.7383 10.9258 12.1211 11.1133 11.5898 11.4883C 11.0586 11.8633 10.6445 12.3555 10.3477 12.9648L 10.3477 22L 8.17969 22L 8.17969 9.32031L 10.2305 9.32031ZM 28.8047 18.6367C 28.8047 18.0508 28.582 17.5977 28.1367 17.2773C 27.6992 16.9492 26.9297 16.668 25.8281 16.4336C 24.7344 16.1992 23.8633 15.918 23.2148 15.5898C 22.5742 15.2617 22.0977 14.8711 21.7852 14.418C 21.4805 13.9648 21.3281 13.4258 21.3281 12.8008C 21.3281 11.7617 21.7656 10.8828 22.6406 10.1641C 23.5234 9.44531 24.6484 9.08594 26.0156 9.08594C 27.4531 9.08594 28.6172 9.45703 29.5078 10.1992C 30.4062 10.9414 30.8555 11.8906 30.8555 13.0469L 28.6758 13.0469C 28.6758 12.4531 28.4219 11.9414 27.9141 11.5117C 27.4141 11.082 26.7812 10.8672 26.0156 10.8672C 25.2266 10.8672 24.6094 11.0391 24.1641 11.3828C 23.7188 11.7266 23.4961 12.1758 23.4961 12.7305C 23.4961 13.2539 23.7031 13.6484 24.1172 13.9141C 24.5312 14.1797 25.2773 14.4336 26.3555 14.6758C 27.4414 14.918 28.3203 15.207 28.9922 15.543C 29.6641 15.8789 30.1602 16.2852 30.4805 16.7617C 30.8086 17.2305 30.9727 17.8047 30.9727 18.4844C 30.9727 19.6172 30.5195 20.5273 29.6133 21.2148C 28.707 21.8945 27.5312 22.2344 26.0859 22.2344C 25.0703 22.2344 24.1719 22.0547 23.3906 21.6953C 22.6094 21.3359 21.9961 20.8359 21.5508 20.1953C 21.1133 19.5469 20.8945 18.8477 20.8945 18.0977L 23.0625 18.0977C 23.1016 18.8242 23.3906 19.4023 23.9297 19.832C 24.4766 20.2539 25.1953 20.4648 26.0859 20.4648C 26.9062 20.4648 27.5625 20.3008 28.0547 19.9727C 28.5547 19.6367 28.8047 19.1914 28.8047 18.6367ZM 39.0586 22.2344C 37.3398 22.2344 35.9414 21.6719 34.8633 20.5469C 33.7852 19.4141 33.2461 17.9023 33.2461 16.0117L 33.2461 15.6133C 33.2461 14.3555 33.4844 13.2344 33.9609 12.25C 34.4453 11.2578 35.1172 10.4844 35.9766 9.92969C 36.8438 9.36719 37.7812 9.08594 38.7891 9.08594C 40.4375 9.08594 41.7188 9.62891 42.6328 10.7148C 43.5469 11.8008 44.0039 13.3555 44.0039 15.3789L 44.0039 16.2812L 35.4141 16.2812C 35.4453 17.5312 35.8086 18.543 36.5039 19.3164C 37.207 20.082 38.0977 20.4648 39.1758 20.4648C 39.9414 20.4648 40.5898 20.3086 41.1211 19.9961C 41.6523 19.6836 42.1172 19.2695 42.5156 18.7539L 43.8398 19.7852C 42.7773 21.418 41.1836 22.2344 39.0586 22.2344ZM 38.7891 10.8672C 37.9141 10.8672 37.1797 11.1875 36.5859 11.8281C 35.9922 12.4609 35.625 13.3516 35.4844 14.5L 41.8359 14.5L 41.8359 14.3359C 41.7734 13.2344 41.4766 12.3828 40.9453 11.7812C 40.4141 11.1719 39.6953 10.8672 38.7891 10.8672ZM 52.6523 11.2656C 52.3242 11.2109 51.9688 11.1836 51.5859 11.1836C 50.1641 11.1836 49.1992 11.7891 48.6914 13L 48.6914 22L 46.5234 22L 46.5234 9.32031L 48.6328 9.32031L 48.668 10.7852C 49.3789 9.65234 50.3867 9.08594 51.6914 9.08594C 52.1133 9.08594 52.4336 9.14062 52.6523 9.25L 52.6523 11.2656ZM 58.1836 6.25L 58.1836 9.32031L 60.5508 9.32031L 60.5508 10.9961L 58.1836 10.9961L 58.1836 18.8594C 58.1836 19.3672 58.2891 19.75 58.5 20.0078C 58.7109 20.2578 59.0703 20.3828 59.5781 20.3828C 59.8281 20.3828 60.1719 20.3359 60.6094 20.2422L 60.6094 22C 60.0391 22.1562 59.4844 22.2344 58.9453 22.2344C 57.9766 22.2344 57.2461 21.9414 56.7539 21.3555C 56.2617 20.7695 56.0156 19.9375 56.0156 18.8594L 56.0156 10.9961L 53.707 10.9961L 53.707 9.32031L 56.0156 9.32031L 56.0156 6.25L 58.1836 6.25ZM 71.9883 6.25L 71.9883 9.32031L 74.3555 9.32031L 74.3555 10.9961L 71.9883 10.9961L 71.9883 18.8594C 71.9883 19.3672 72.0938 19.75 72.3047 20.0078C 72.5156 20.2578 72.875 20.3828 73.3828 20.3828C 73.6328 20.3828 73.9766 20.3359 74.4141 20.2422L 74.4141 22C 73.8438 22.1562 73.2891 22.2344 72.75 22.2344C 71.7812 22.2344 71.0508 21.9414 70.5586 21.3555C 70.0664 20.7695 69.8203 19.9375 69.8203 18.8594L 69.8203 10.9961L 67.5117 10.9961L 67.5117 9.32031L 69.8203 9.32031L 69.8203 6.25L 71.9883 6.25ZM 79.0664 10.8555C 80.0273 9.67578 81.2773 9.08594 82.8164 9.08594C 85.4961 9.08594 86.8477 10.5977 86.8711 13.6211L 86.8711 22L 84.7031 22L 84.7031 13.6094C 84.6953 12.6953 84.4844 12.0195 84.0703 11.582C 83.6641 11.1445 83.0273 10.9258 82.1602 10.9258C 81.457 10.9258 80.8398 11.1133 80.3086 11.4883C 79.7773 11.8633 79.3633 12.3555 79.0664 12.9648L 79.0664 22L 76.8984 22L 76.8984 4L 79.0664 4L 79.0664 10.8555ZM 95.3789 22.2344C 93.6602 22.2344 92.2617 21.6719 91.1836 20.5469C 90.1055 19.4141 89.5664 17.9023 89.5664 16.0117L 89.5664 15.6133C 89.5664 14.3555 89.8047 13.2344 90.2812 12.25C 90.7656 11.2578 91.4375 10.4844 92.2969 9.92969C 93.1641 9.36719 94.1016 9.08594 95.1094 9.08594C 96.7578 9.08594 98.0391 9.62891 98.9531 10.7148C 99.8672 11.8008 100.324 13.3555 100.324 15.3789L 100.324 16.2812L 91.7344 16.2812C 91.7656 17.5312 92.1289 18.543 92.8242 19.3164C 93.5273 20.082 94.418 20.4648 95.4961 20.4648C 96.2617 20.4648 96.9102 20.3086 97.4414 19.9961C 97.9727 19.6836 98.4375 19.2695 98.8359 18.7539L 100.16 19.7852C 99.0977 21.418 97.5039 22.2344 95.3789 22.2344ZM 95.1094 10.8672C 94.2344 10.8672 93.5 11.1875 92.9062 11.8281C 92.3125 12.4609 91.9453 13.3516 91.8047 14.5L 98.1562 14.5L 98.1562 14.3359C 98.0938 13.2344 97.7969 12.3828 97.2656 11.7812C 96.7344 11.1719 96.0156 10.8672 95.1094 10.8672ZM 112.98 19.0586L 116.121 9.32031L 118.336 9.32031L 113.789 22L 112.137 22L 107.543 9.32031L 109.758 9.32031L 112.98 19.0586ZM 128.062 22C 127.938 21.75 127.836 21.3047 127.758 20.6641C 126.75 21.7109 125.547 22.2344 124.148 22.2344C 122.898 22.2344 121.871 21.8828 121.066 21.1797C 120.27 20.4688 119.871 19.5703 119.871 18.4844C 119.871 17.1641 120.371 16.1406 121.371 15.4141C 122.379 14.6797 123.793 14.3125 125.613 14.3125L 127.723 14.3125L 127.723 13.3164C 127.723 12.5586 127.496 11.957 127.043 11.5117C 126.59 11.0586 125.922 10.832 125.039 10.832C 124.266 10.832 123.617 11.0273 123.094 11.418C 122.57 11.8086 122.309 12.2812 122.309 12.8359L 120.129 12.8359C 120.129 12.2031 120.352 11.5938 120.797 11.0078C 121.25 10.4141 121.859 9.94531 122.625 9.60156C 123.398 9.25781 124.246 9.08594 125.168 9.08594C 126.629 9.08594 127.773 9.45312 128.602 10.1875C 129.43 10.9141 129.859 11.918 129.891 13.1992L 129.891 19.0352C 129.891 20.1992 130.039 21.125 130.336 21.8125L 130.336 22L 128.062 22ZM 124.465 20.3477C 125.145 20.3477 125.789 20.1719 126.398 19.8203C 127.008 19.4688 127.449 19.0117 127.723 18.4492L 127.723 15.8477L 126.023 15.8477C 123.367 15.8477 122.039 16.625 122.039 18.1797C 122.039 18.8594 122.266 19.3906 122.719 19.7734C 123.172 20.1562 123.754 20.3477 124.465 20.3477ZM 135.645 22L 133.477 22L 133.477 4L 135.645 4L 135.645 22ZM 146.953 20.7461C 146.109 21.7383 144.871 22.2344 143.238 22.2344C 141.887 22.2344 140.855 21.8438 140.145 21.0625C 139.441 20.2734 139.086 19.1094 139.078 17.5703L 139.078 9.32031L 141.246 9.32031L 141.246 17.5117C 141.246 19.4336 142.027 20.3945 143.59 20.3945C 145.246 20.3945 146.348 19.7773 146.895 18.543L 146.895 9.32031L 149.062 9.32031L 149.062 22L 147 22L 146.953 20.7461ZM 157.629 22.2344C 155.91 22.2344 154.512 21.6719 153.434 20.5469C 152.355 19.4141 151.816 17.9023 151.816 16.0117L 151.816 15.6133C 151.816 14.3555 152.055 13.2344 152.531 12.25C 153.016 11.2578 153.688 10.4844 154.547 9.92969C 155.414 9.36719 156.352 9.08594 157.359 9.08594C 159.008 9.08594 160.289 9.62891 161.203 10.7148C 162.117 11.8008 162.574 13.3555 162.574 15.3789L 162.574 16.2812L 153.984 16.2812C 154.016 17.5312 154.379 18.543 155.074 19.3164C 155.777 20.082 156.668 20.4648 157.746 20.4648C 158.512 20.4648 159.16 20.3086 159.691 19.9961C 160.223 19.6836 160.688 19.2695 161.086 18.7539L 162.41 19.7852C 161.348 21.418 159.754 22.2344 157.629 22.2344ZM 157.359 10.8672C 156.484 10.8672 155.75 11.1875 155.156 11.8281C 154.562 12.4609 154.195 13.3516 154.055 14.5L 160.406 14.5L 160.406 14.3359C 160.344 13.2344 160.047 12.3828 159.516 11.7812C 158.984 11.1719 158.266 10.8672 157.359 10.8672ZM 179.332 4.92578L 179.332 6.76562L 178.934 6.76562C 177.246 6.79688 175.902 7.29687 174.902 8.26562C 173.902 9.23438 173.324 10.5977 173.168 12.3555C 174.066 11.3242 175.293 10.8086 176.848 10.8086C 178.332 10.8086 179.516 11.332 180.398 12.3789C 181.289 13.4258 181.734 14.7773 181.734 16.4336C 181.734 18.1914 181.254 19.5977 180.293 20.6523C 179.34 21.707 178.059 22.2344 176.449 22.2344C 174.816 22.2344 173.492 21.6094 172.477 20.3594C 171.461 19.1016 170.953 17.4844 170.953 15.5078L 170.953 14.6758C 170.953 11.5352 171.621 9.13672 172.957 7.48047C 174.301 5.81641 176.297 4.96484 178.945 4.92578L 179.332 4.92578ZM 176.484 12.6133C 175.742 12.6133 175.059 12.8359 174.434 13.2812C 173.809 13.7266 173.375 14.2852 173.133 14.957L 173.133 15.7539C 173.133 17.1602 173.449 18.293 174.082 19.1523C 174.715 20.0117 175.504 20.4414 176.449 20.4414C 177.426 20.4414 178.191 20.082 178.746 19.3633C 179.309 18.6445 179.59 17.7031 179.59 16.5391C 179.59 15.3672 179.305 14.4219 178.734 13.7031C 178.172 12.9766 177.422 12.6133 176.484 12.6133ZM 192.832 22L 190.664 22L 190.664 9.32031L 192.832 9.32031L 192.832 22ZM 190.488 5.95703C 190.488 5.60547 190.594 5.30859 190.805 5.06641C 191.023 4.82422 191.344 4.70312 191.766 4.70312C 192.188 4.70312 192.508 4.82422 192.727 5.06641C 192.945 5.30859 193.055 5.60547 193.055 5.95703C 193.055 6.30859 192.945 6.60156 192.727 6.83594C 192.508 7.07031 192.188 7.1875 191.766 7.1875C 191.344 7.1875 191.023 7.07031 190.805 6.83594C 190.594 6.60156 190.488 6.30859 190.488 5.95703ZM 198.363 9.32031L 198.434 10.9141C 199.402 9.69531 200.668 9.08594 202.23 9.08594C 204.91 9.08594 206.262 10.5977 206.285 13.6211L 206.285 22L 204.117 22L 204.117 13.6094C 204.109 12.6953 203.898 12.0195 203.484 11.582C 203.078 11.1445 202.441 10.9258 201.574 10.9258C 200.871 10.9258 200.254 11.1133 199.723 11.4883C 199.191 11.8633 198.777 12.3555 198.48 12.9648L 198.48 22L 196.312 22L 196.312 9.32031L 198.363 9.32031ZM 212.496 6.25L 212.496 9.32031L 214.863 9.32031L 214.863 10.9961L 212.496 10.9961L 212.496 18.8594C 212.496 19.3672 212.602 19.75 212.812 20.0078C 213.023 20.2578 213.383 20.3828 213.891 20.3828C 214.141 20.3828 214.484 20.3359 214.922 20.2422L 214.922 22C 214.352 22.1562 213.797 22.2344 213.258 22.2344C 212.289 22.2344 211.559 21.9414 211.066 21.3555C 210.574 20.7695 210.328 19.9375 210.328 18.8594L 210.328 10.9961L 208.02 10.9961L 208.02 9.32031L 210.328 9.32031L 210.328 6.25L 212.496 6.25ZM 216.598 15.543C 216.598 14.3008 216.84 13.1836 217.324 12.1914C 217.816 11.1992 218.496 10.4336 219.363 9.89453C 220.238 9.35547 221.234 9.08594 222.352 9.08594C 224.078 9.08594 225.473 9.68359 226.535 10.8789C 227.605 12.0742 228.141 13.6641 228.141 15.6484L 228.141 15.8008C 228.141 17.0352 227.902 18.1445 227.426 19.1289C 226.957 20.1055 226.281 20.8672 225.398 21.4141C 224.523 21.9609 223.516 22.2344 222.375 22.2344C 220.656 22.2344 219.262 21.6367 218.191 20.4414C 217.129 19.2461 216.598 17.6641 216.598 15.6953L 216.598 15.543ZM 218.777 15.8008C 218.777 17.207 219.102 18.3359 219.75 19.1875C 220.406 20.0391 221.281 20.4648 222.375 20.4648C 223.477 20.4648 224.352 20.0352 225 19.1758C 225.648 18.3086 225.973 17.0977 225.973 15.543C 225.973 14.1523 225.641 13.0273 224.977 12.168C 224.32 11.3008 223.445 10.8672 222.352 10.8672C 221.281 10.8672 220.418 11.293 219.762 12.1445C 219.105 12.9961 218.777 14.2148 218.777 15.8008ZM 12.3516 43.8008C 12.3516 45.7305 11.9102 47.2852 11.0273 48.4648C 10.1445 49.6445 8.94922 50.2344 7.44141 50.2344C 5.90234 50.2344 4.69141 49.7461 3.80859 48.7695L 3.80859 54.875L 1.64062 54.875L 1.64062 37.3203L 3.62109 37.3203L 3.72656 38.7266C 4.60938 37.6328 5.83594 37.0859 7.40625 37.0859C 8.92969 37.0859 10.1328 37.6602 11.0156 38.8086C 11.9062 39.957 12.3516 41.5547 12.3516 43.6016L 12.3516 43.8008ZM 10.1836 43.5547C 10.1836 42.125 9.87891 40.9961 9.26953 40.168C 8.66016 39.3398 7.82422 38.9258 6.76172 38.9258C 5.44922 38.9258 4.46484 39.5078 3.80859 40.6719L 3.80859 46.7305C 4.45703 47.8867 5.44922 48.4648 6.78516 48.4648C 7.82422 48.4648 8.64844 48.0547 9.25781 47.2344C 9.875 46.4062 10.1836 45.1797 10.1836 43.5547ZM 14.543 43.543C 14.543 42.3008 14.7852 41.1836 15.2695 40.1914C 15.7617 39.1992 16.4414 38.4336 17.3086 37.8945C 18.1836 37.3555 19.1797 37.0859 20.2969 37.0859C 22.0234 37.0859 23.418 37.6836 24.4805 38.8789C 25.5508 40.0742 26.0859 41.6641 26.0859 43.6484L 26.0859 43.8008C 26.0859 45.0352 25.8477 46.1445 25.3711 47.1289C 24.9023 48.1055 24.2266 48.8672 23.3438 49.4141C 22.4688 49.9609 21.4609 50.2344 20.3203 50.2344C 18.6016 50.2344 17.207 49.6367 16.1367 48.4414C 15.0742 47.2461 14.543 45.6641 14.543 43.6953L 14.543 43.543ZM 16.7227 43.8008C 16.7227 45.207 17.0469 46.3359 17.6953 47.1875C 18.3516 48.0391 19.2266 48.4648 20.3203 48.4648C 21.4219 48.4648 22.2969 48.0352 22.9453 47.1758C 23.5938 46.3086 23.918 45.0977 23.918 43.543C 23.918 42.1523 23.5859 41.0273 22.9219 40.168C 22.2656 39.3008 21.3906 38.8672 20.2969 38.8672C 19.2266 38.8672 18.3633 39.293 17.707 40.1445C 17.0508 40.9961 16.7227 42.2148 16.7227 43.8008ZM 36.1875 46.6367C 36.1875 46.0508 35.9648 45.5977 35.5195 45.2773C 35.082 44.9492 34.3125 44.668 33.2109 44.4336C 32.1172 44.1992 31.2461 43.918 30.5977 43.5898C 29.957 43.2617 29.4805 42.8711 29.168 42.418C 28.8633 41.9648 28.7109 41.4258 28.7109 40.8008C 28.7109 39.7617 29.1484 38.8828 30.0234 38.1641C 30.9062 37.4453 32.0312 37.0859 33.3984 37.0859C 34.8359 37.0859 36 37.457 36.8906 38.1992C 37.7891 38.9414 38.2383 39.8906 38.2383 41.0469L 36.0586 41.0469C 36.0586 40.4531 35.8047 39.9414 35.2969 39.5117C 34.7969 39.082 34.1641 38.8672 33.3984 38.8672C 32.6094 38.8672 31.9922 39.0391 31.5469 39.3828C 31.1016 39.7266 30.8789 40.1758 30.8789 40.7305C 30.8789 41.2539 31.0859 41.6484 31.5 41.9141C 31.9141 42.1797 32.6602 42.4336 33.7383 42.6758C 34.8242 42.918 35.7031 43.207 36.375 43.543C 37.0469 43.8789 37.543 44.2852 37.8633 44.7617C 38.1914 45.2305 38.3555 45.8047 38.3555 46.4844C 38.3555 47.6172 37.9023 48.5273 36.9961 49.2148C 36.0898 49.8945 34.9141 50.2344 33.4688 50.2344C 32.4531 50.2344 31.5547 50.0547 30.7734 49.6953C 29.9922 49.3359 29.3789 48.8359 28.9336 48.1953C 28.4961 47.5469 28.2773 46.8477 28.2773 46.0977L 30.4453 46.0977C 30.4844 46.8242 30.7734 47.4023 31.3125 47.832C 31.8594 48.2539 32.5781 48.4648 33.4688 48.4648C 34.2891 48.4648 34.9453 48.3008 35.4375 47.9727C 35.9375 47.6367 36.1875 47.1914 36.1875 46.6367ZM 43.5352 50L 41.3672 50L 41.3672 37.3203L 43.5352 37.3203L 43.5352 50ZM 41.1914 33.957C 41.1914 33.6055 41.2969 33.3086 41.5078 33.0664C 41.7266 32.8242 42.0469 32.7031 42.4688 32.7031C 42.8906 32.7031 43.2109 32.8242 43.4297 33.0664C 43.6484 33.3086 43.7578 33.6055 43.7578 33.957C 43.7578 34.3086 43.6484 34.6016 43.4297 34.8359C 43.2109 35.0703 42.8906 35.1875 42.4688 35.1875C 42.0469 35.1875 41.7266 35.0703 41.5078 34.8359C 41.2969 34.6016 41.1914 34.3086 41.1914 33.957ZM 49.957 34.25L 49.957 37.3203L 52.3242 37.3203L 52.3242 38.9961L 49.957 38.9961L 49.957 46.8594C 49.957 47.3672 50.0625 47.75 50.2734 48.0078C 50.4844 48.2578 50.8438 48.3828 51.3516 48.3828C 51.6016 48.3828 51.9453 48.3359 52.3828 48.2422L 52.3828 50C 51.8125 50.1562 51.2578 50.2344 50.7188 50.2344C 49.75 50.2344 49.0195 49.9414 48.5273 49.3555C 48.0352 48.7695 47.7891 47.9375 47.7891 46.8594L 47.7891 38.9961L 45.4805 38.9961L 45.4805 37.3203L 47.7891 37.3203L 47.7891 34.25L 49.957 34.25ZM 57.2227 50L 55.0547 50L 55.0547 37.3203L 57.2227 37.3203L 57.2227 50ZM 54.8789 33.957C 54.8789 33.6055 54.9844 33.3086 55.1953 33.0664C 55.4141 32.8242 55.7344 32.7031 56.1562 32.7031C 56.5781 32.7031 56.8984 32.8242 57.1172 33.0664C 57.3359 33.3086 57.4453 33.6055 57.4453 33.957C 57.4453 34.3086 57.3359 34.6016 57.1172 34.8359C 56.8984 35.0703 56.5781 35.1875 56.1562 35.1875C 55.7344 35.1875 55.4141 35.0703 55.1953 34.8359C 54.9844 34.6016 54.8789 34.3086 54.8789 33.957ZM 60.1289 43.543C 60.1289 42.3008 60.3711 41.1836 60.8555 40.1914C 61.3477 39.1992 62.0273 38.4336 62.8945 37.8945C 63.7695 37.3555 64.7656 37.0859 65.8828 37.0859C 67.6094 37.0859 69.0039 37.6836 70.0664 38.8789C 71.1367 40.0742 71.6719 41.6641 71.6719 43.6484L 71.6719 43.8008C 71.6719 45.0352 71.4336 46.1445 70.957 47.1289C 70.4883 48.1055 69.8125 48.8672 68.9297 49.4141C 68.0547 49.9609 67.0469 50.2344 65.9062 50.2344C 64.1875 50.2344 62.793 49.6367 61.7227 48.4414C 60.6602 47.2461 60.1289 45.6641 60.1289 43.6953L 60.1289 43.543ZM 62.3086 43.8008C 62.3086 45.207 62.6328 46.3359 63.2812 47.1875C 63.9375 48.0391 64.8125 48.4648 65.9062 48.4648C 67.0078 48.4648 67.8828 48.0352 68.5312 47.1758C 69.1797 46.3086 69.5039 45.0977 69.5039 43.543C 69.5039 42.1523 69.1719 41.0273 68.5078 40.168C 67.8516 39.3008 66.9766 38.8672 65.8828 38.8672C 64.8125 38.8672 63.9492 39.293 63.293 40.1445C 62.6367 40.9961 62.3086 42.2148 62.3086 43.8008ZM 76.4414 37.3203L 76.5117 38.9141C 77.4805 37.6953 78.7461 37.0859 80.3086 37.0859C 82.9883 37.0859 84.3398 38.5977 84.3633 41.6211L 84.3633 50L 82.1953 50L 82.1953 41.6094C 82.1875 40.6953 81.9766 40.0195 81.5625 39.582C 81.1562 39.1445 80.5195 38.9258 79.6523 38.9258C 78.9492 38.9258 78.332 39.1133 77.8008 39.4883C 77.2695 39.8633 76.8555 40.3555 76.5586 40.9648L 76.5586 50L 74.3906 50L 74.3906 37.3203L 76.4414 37.3203ZM 104.062 42.7227C 104.062 45.2617 103.629 47.1484 102.762 48.3828C 101.895 49.6172 100.539 50.2344 98.6953 50.2344C 96.875 50.2344 95.5273 49.6328 94.6523 48.4297C 93.7773 47.2188 93.3242 45.4141 93.293 43.0156L 93.293 40.1211C 93.293 37.6133 93.7266 35.75 94.5938 34.5312C 95.4609 33.3125 96.8203 32.7031 98.6719 32.7031C 100.508 32.7031 101.859 33.293 102.727 34.4727C 103.594 35.6445 104.039 37.457 104.062 39.9102L 104.062 42.7227ZM 101.895 39.7578C 101.895 37.9219 101.637 36.5859 101.121 35.75C 100.605 34.9062 99.7891 34.4844 98.6719 34.4844C 97.5625 34.4844 96.7539 34.9023 96.2461 35.7383C 95.7383 36.5742 95.4766 37.8594 95.4609 39.5938L 95.4609 43.0625C 95.4609 44.9062 95.7266 46.2695 96.2578 47.1523C 96.7969 48.0273 97.6094 48.4648 98.6953 48.4648C 99.7656 48.4648 100.559 48.0508 101.074 47.2227C 101.598 46.3945 101.871 45.0898 101.895 43.3086L 101.895 39.7578Z"/>
<path id="path12_fill" d="M 4.39453 22L 2.14453 22L 2.14453 4.9375L 4.39453 4.9375L 4.39453 22ZM 10.2305 9.32031L 10.3008 10.9141C 11.2695 9.69531 12.5352 9.08594 14.0977 9.08594C 16.7773 9.08594 18.1289 10.5977 18.1523 13.6211L 18.1523 22L 15.9844 22L 15.9844 13.6094C 15.9766 12.6953 15.7656 12.0195 15.3516 11.582C 14.9453 11.1445 14.3086 10.9258 13.4414 10.9258C 12.7383 10.9258 12.1211 11.1133 11.5898 11.4883C 11.0586 11.8633 10.6445 12.3555 10.3477 12.9648L 10.3477 22L 8.17969 22L 8.17969 9.32031L 10.2305 9.32031ZM 28.8047 18.6367C 28.8047 18.0508 28.582 17.5977 28.1367 17.2773C 27.6992 16.9492 26.9297 16.668 25.8281 16.4336C 24.7344 16.1992 23.8633 15.918 23.2148 15.5898C 22.5742 15.2617 22.0977 14.8711 21.7852 14.418C 21.4805 13.9648 21.3281 13.4258 21.3281 12.8008C 21.3281 11.7617 21.7656 10.8828 22.6406 10.1641C 23.5234 9.44531 24.6484 9.08594 26.0156 9.08594C 27.4531 9.08594 28.6172 9.45703 29.5078 10.1992C 30.4062 10.9414 30.8555 11.8906 30.8555 13.0469L 28.6758 13.0469C 28.6758 12.4531 28.4219 11.9414 27.9141 11.5117C 27.4141 11.082 26.7812 10.8672 26.0156 10.8672C 25.2266 10.8672 24.6094 11.0391 24.1641 11.3828C 23.7188 11.7266 23.4961 12.1758 23.4961 12.7305C 23.4961 13.2539 23.7031 13.6484 24.1172 13.9141C 24.5312 14.1797 25.2773 14.4336 26.3555 14.6758C 27.4414 14.918 28.3203 15.207 28.9922 15.543C 29.6641 15.8789 30.1602 16.2852 30.4805 16.7617C 30.8086 17.2305 30.9727 17.8047 30.9727 18.4844C 30.9727 19.6172 30.5195 20.5273 29.6133 21.2148C 28.707 21.8945 27.5312 22.2344 26.0859 22.2344C 25.0703 22.2344 24.1719 22.0547 23.3906 21.6953C 22.6094 21.3359 21.9961 20.8359 21.5508 20.1953C 21.1133 19.5469 20.8945 18.8477 20.8945 18.0977L 23.0625 18.0977C 23.1016 18.8242 23.3906 19.4023 23.9297 19.832C 24.4766 20.2539 25.1953 20.4648 26.0859 20.4648C 26.9062 20.4648 27.5625 20.3008 28.0547 19.9727C 28.5547 19.6367 28.8047 19.1914 28.8047 18.6367ZM 39.0586 22.2344C 37.3398 22.2344 35.9414 21.6719 34.8633 20.5469C 33.7852 19.4141 33.2461 17.9023 33.2461 16.0117L 33.2461 15.6133C 33.2461 14.3555 33.4844 13.2344 33.9609 12.25C 34.4453 11.2578 35.1172 10.4844 35.9766 9.92969C 36.8438 9.36719 37.7812 9.08594 38.7891 9.08594C 40.4375 9.08594 41.7188 9.62891 42.6328 10.7148C 43.5469 11.8008 44.0039 13.3555 44.0039 15.3789L 44.0039 16.2812L 35.4141 16.2812C 35.4453 17.5312 35.8086 18.543 36.5039 19.3164C 37.207 20.082 38.0977 20.4648 39.1758 20.4648C 39.9414 20.4648 40.5898 20.3086 41.1211 19.9961C 41.6523 19.6836 42.1172 19.2695 42.5156 18.7539L 43.8398 19.7852C 42.7773 21.418 41.1836 22.2344 39.0586 22.2344ZM 38.7891 10.8672C 37.9141 10.8672 37.1797 11.1875 36.5859 11.8281C 35.9922 12.4609 35.625 13.3516 35.4844 14.5L 41.8359 14.5L 41.8359 14.3359C 41.7734 13.2344 41.4766 12.3828 40.9453 11.7812C 40.4141 11.1719 39.6953 10.8672 38.7891 10.8672ZM 52.6523 11.2656C 52.3242 11.2109 51.9688 11.1836 51.5859 11.1836C 50.1641 11.1836 49.1992 11.7891 48.6914 13L 48.6914 22L 46.5234 22L 46.5234 9.32031L 48.6328 9.32031L 48.668 10.7852C 49.3789 9.65234 50.3867 9.08594 51.6914 9.08594C 52.1133 9.08594 52.4336 9.14062 52.6523 9.25L 52.6523 11.2656ZM 58.1836 6.25L 58.1836 9.32031L 60.5508 9.32031L 60.5508 10.9961L 58.1836 10.9961L 58.1836 18.8594C 58.1836 19.3672 58.2891 19.75 58.5 20.0078C 58.7109 20.2578 59.0703 20.3828 59.5781 20.3828C 59.8281 20.3828 60.1719 20.3359 60.6094 20.2422L 60.6094 22C 60.0391 22.1562 59.4844 22.2344 58.9453 22.2344C 57.9766 22.2344 57.2461 21.9414 56.7539 21.3555C 56.2617 20.7695 56.0156 19.9375 56.0156 18.8594L 56.0156 10.9961L 53.707 10.9961L 53.707 9.32031L 56.0156 9.32031L 56.0156 6.25L 58.1836 6.25ZM 76.875 22C 76.75 21.75 76.6484 21.3047 76.5703 20.6641C 75.5625 21.7109 74.3594 22.2344 72.9609 22.2344C 71.7109 22.2344 70.6836 21.8828 69.8789 21.1797C 69.082 20.4688 68.6836 19.5703 68.6836 18.4844C 68.6836 17.1641 69.1836 16.1406 70.1836 15.4141C 71.1914 14.6797 72.6055 14.3125 74.4258 14.3125L 76.5352 14.3125L 76.5352 13.3164C 76.5352 12.5586 76.3086 11.957 75.8555 11.5117C 75.4023 11.0586 74.7344 10.832 73.8516 10.832C 73.0781 10.832 72.4297 11.0273 71.9062 11.418C 71.3828 11.8086 71.1211 12.2812 71.1211 12.8359L 68.9414 12.8359C 68.9414 12.2031 69.1641 11.5938 69.6094 11.0078C 70.0625 10.4141 70.6719 9.94531 71.4375 9.60156C 72.2109 9.25781 73.0586 9.08594 73.9805 9.08594C 75.4414 9.08594 76.5859 9.45312 77.4141 10.1875C 78.2422 10.9141 78.6719 11.918 78.7031 13.1992L 78.7031 19.0352C 78.7031 20.1992 78.8516 21.125 79.1484 21.8125L 79.1484 22L 76.875 22ZM 73.2773 20.3477C 73.957 20.3477 74.6016 20.1719 75.2109 19.8203C 75.8203 19.4688 76.2617 19.0117 76.5352 18.4492L 76.5352 15.8477L 74.8359 15.8477C 72.1797 15.8477 70.8516 16.625 70.8516 18.1797C 70.8516 18.8594 71.0781 19.3906 71.5312 19.7734C 71.9844 20.1562 72.5664 20.3477 73.2773 20.3477ZM 90.1055 9.32031L 90.1758 10.9141C 91.1445 9.69531 92.4102 9.08594 93.9727 9.08594C 96.6523 9.08594 98.0039 10.5977 98.0273 13.6211L 98.0273 22L 95.8594 22L 95.8594 13.6094C 95.8516 12.6953 95.6406 12.0195 95.2266 11.582C 94.8203 11.1445 94.1836 10.9258 93.3164 10.9258C 92.6133 10.9258 91.9961 11.1133 91.4648 11.4883C 90.9336 11.8633 90.5195 12.3555 90.2227 12.9648L 90.2227 22L 88.0547 22L 88.0547 9.32031L 90.1055 9.32031ZM 106.559 22.2344C 104.84 22.2344 103.441 21.6719 102.363 20.5469C 101.285 19.4141 100.746 17.9023 100.746 16.0117L 100.746 15.6133C 100.746 14.3555 100.984 13.2344 101.461 12.25C 101.945 11.2578 102.617 10.4844 103.477 9.92969C 104.344 9.36719 105.281 9.08594 106.289 9.08594C 107.938 9.08594 109.219 9.62891 110.133 10.7148C 111.047 11.8008 111.504 13.3555 111.504 15.3789L 111.504 16.2812L 102.914 16.2812C 102.945 17.5312 103.309 18.543 104.004 19.3164C 104.707 20.082 105.598 20.4648 106.676 20.4648C 107.441 20.4648 108.09 20.3086 108.621 19.9961C 109.152 19.6836 109.617 19.2695 110.016 18.7539L 111.34 19.7852C 110.277 21.418 108.684 22.2344 106.559 22.2344ZM 106.289 10.8672C 105.414 10.8672 104.68 11.1875 104.086 11.8281C 103.492 12.4609 103.125 13.3516 102.984 14.5L 109.336 14.5L 109.336 14.3359C 109.273 13.2344 108.977 12.3828 108.445 11.7812C 107.914 11.1719 107.195 10.8672 106.289 10.8672ZM 125.25 19.0117L 127.688 9.32031L 129.855 9.32031L 126.164 22L 124.406 22L 121.324 12.3906L 118.324 22L 116.566 22L 112.887 9.32031L 115.043 9.32031L 117.539 18.8125L 120.492 9.32031L 122.238 9.32031L 125.25 19.0117ZM 3.69141 37.3203L 3.76172 38.9141C 4.73047 37.6953 5.99609 37.0859 7.55859 37.0859C 10.2383 37.0859 11.5898 38.5977 11.6133 41.6211L 11.6133 50L 9.44531 50L 9.44531 41.6094C 9.4375 40.6953 9.22656 40.0195 8.8125 39.582C 8.40625 39.1445 7.76953 38.9258 6.90234 38.9258C 6.19922 38.9258 5.58203 39.1133 5.05078 39.4883C 4.51953 39.8633 4.10547 40.3555 3.80859 40.9648L 3.80859 50L 1.64062 50L 1.64062 37.3203L 3.69141 37.3203ZM 14.3086 43.543C 14.3086 42.3008 14.5508 41.1836 15.0352 40.1914C 15.5273 39.1992 16.207 38.4336 17.0742 37.8945C 17.9492 37.3555 18.9453 37.0859 20.0625 37.0859C 21.7891 37.0859 23.1836 37.6836 24.2461 38.8789C 25.3164 40.0742 25.8516 41.6641 25.8516 43.6484L 25.8516 43.8008C 25.8516 45.0352 25.6133 46.1445 25.1367 47.1289C 24.668 48.1055 23.9922 48.8672 23.1094 49.4141C 22.2344 49.9609 21.2266 50.2344 20.0859 50.2344C 18.3672 50.2344 16.9727 49.6367 15.9023 48.4414C 14.8398 47.2461 14.3086 45.6641 14.3086 43.6953L 14.3086 43.543ZM 16.4883 43.8008C 16.4883 45.207 16.8125 46.3359 17.4609 47.1875C 18.1172 48.0391 18.9922 48.4648 20.0859 48.4648C 21.1875 48.4648 22.0625 48.0352 22.7109 47.1758C 23.3594 46.3086 23.6836 45.0977 23.6836 43.543C 23.6836 42.1523 23.3516 41.0273 22.6875 40.168C 22.0312 39.3008 21.1562 38.8672 20.0625 38.8672C 18.9922 38.8672 18.1289 39.293 17.4727 40.1445C 16.8164 40.9961 16.4883 42.2148 16.4883 43.8008ZM 28.043 43.5547C 28.043 41.6094 28.5039 40.0469 29.4258 38.8672C 30.3477 37.6797 31.5547 37.0859 33.0469 37.0859C 34.5312 37.0859 35.707 37.5938 36.5742 38.6094L 36.5742 32L 38.7422 32L 38.7422 50L 36.75 50L 36.6445 48.6406C 35.7773 49.7031 34.5703 50.2344 33.0234 50.2344C 31.5547 50.2344 30.3555 49.6328 29.4258 48.4297C 28.5039 47.2266 28.043 45.6562 28.043 43.7188L 28.043 43.5547ZM 30.2109 43.8008C 30.2109 45.2383 30.5078 46.3633 31.1016 47.1758C 31.6953 47.9883 32.5156 48.3945 33.5625 48.3945C 34.9375 48.3945 35.9414 47.7773 36.5742 46.543L 36.5742 40.7188C 35.9258 39.5234 34.9297 38.9258 33.5859 38.9258C 32.5234 38.9258 31.6953 39.3359 31.1016 40.1562C 30.5078 40.9766 30.2109 42.1914 30.2109 43.8008ZM 47.3789 50.2344C 45.6602 50.2344 44.2617 49.6719 43.1836 48.5469C 42.1055 47.4141 41.5664 45.9023 41.5664 44.0117L 41.5664 43.6133C 41.5664 42.3555 41.8047 41.2344 42.2812 40.25C 42.7656 39.2578 43.4375 38.4844 44.2969 37.9297C 45.1641 37.3672 46.1016 37.0859 47.1094 37.0859C 48.7578 37.0859 50.0391 37.6289 50.9531 38.7148C 51.8672 39.8008 52.3242 41.3555 52.3242 43.3789L 52.3242 44.2812L 43.7344 44.2812C 43.7656 45.5312 44.1289 46.543 44.8242 47.3164C 45.5273 48.082 46.418 48.4648 47.4961 48.4648C 48.2617 48.4648 48.9102 48.3086 49.4414 47.9961C 49.9727 47.6836 50.4375 47.2695 50.8359 46.7539L 52.1602 47.7852C 51.0977 49.418 49.5039 50.2344 47.3789 50.2344ZM 47.1094 38.8672C 46.2344 38.8672 45.5 39.1875 44.9062 39.8281C 44.3125 40.4609 43.9453 41.3516 43.8047 42.5L 50.1562 42.5L 50.1562 42.3359C 50.0938 41.2344 49.7969 40.3828 49.2656 39.7812C 48.7344 39.1719 48.0156 38.8672 47.1094 38.8672ZM 68.625 50C 68.5 49.75 68.3984 49.3047 68.3203 48.6641C 67.3125 49.7109 66.1094 50.2344 64.7109 50.2344C 63.4609 50.2344 62.4336 49.8828 61.6289 49.1797C 60.832 48.4688 60.4336 47.5703 60.4336 46.4844C 60.4336 45.1641 60.9336 44.1406 61.9336 43.4141C 62.9414 42.6797 64.3555 42.3125 66.1758 42.3125L 68.2852 42.3125L 68.2852 41.3164C 68.2852 40.5586 68.0586 39.957 67.6055 39.5117C 67.1523 39.0586 66.4844 38.832 65.6016 38.832C 64.8281 38.832 64.1797 39.0273 63.6562 39.418C 63.1328 39.8086 62.8711 40.2812 62.8711 40.8359L 60.6914 40.8359C 60.6914 40.2031 60.9141 39.5938 61.3594 39.0078C 61.8125 38.4141 62.4219 37.9453 63.1875 37.6016C 63.9609 37.2578 64.8086 37.0859 65.7305 37.0859C 67.1914 37.0859 68.3359 37.4531 69.1641 38.1875C 69.9922 38.9141 70.4219 39.918 70.4531 41.1992L 70.4531 47.0352C 70.4531 48.1992 70.6016 49.125 70.8984 49.8125L 70.8984 50L 68.625 50ZM 65.0273 48.3477C 65.707 48.3477 66.3516 48.1719 66.9609 47.8203C 67.5703 47.4688 68.0117 47.0117 68.2852 46.4492L 68.2852 43.8477L 66.5859 43.8477C 63.9297 43.8477 62.6016 44.625 62.6016 46.1797C 62.6016 46.8594 62.8281 47.3906 63.2812 47.7734C 63.7344 48.1562 64.3164 48.3477 65.0273 48.3477ZM 76.793 34.25L 76.793 37.3203L 79.1602 37.3203L 79.1602 38.9961L 76.793 38.9961L 76.793 46.8594C 76.793 47.3672 76.8984 47.75 77.1094 48.0078C 77.3203 48.2578 77.6797 48.3828 78.1875 48.3828C 78.4375 48.3828 78.7812 48.3359 79.2188 48.2422L 79.2188 50C 78.6484 50.1562 78.0938 50.2344 77.5547 50.2344C 76.5859 50.2344 75.8555 49.9414 75.3633 49.3555C 74.8711 48.7695 74.625 47.9375 74.625 46.8594L 74.625 38.9961L 72.3164 38.9961L 72.3164 37.3203L 74.625 37.3203L 74.625 34.25L 76.793 34.25ZM 98.3672 43.8008C 98.3672 45.7305 97.9258 47.2852 97.043 48.4648C 96.1602 49.6445 94.9648 50.2344 93.457 50.2344C 91.918 50.2344 90.707 49.7461 89.8242 48.7695L 89.8242 54.875L 87.6562 54.875L 87.6562 37.3203L 89.6367 37.3203L 89.7422 38.7266C 90.625 37.6328 91.8516 37.0859 93.4219 37.0859C 94.9453 37.0859 96.1484 37.6602 97.0312 38.8086C 97.9219 39.957 98.3672 41.5547 98.3672 43.6016L 98.3672 43.8008ZM 96.1992 43.5547C 96.1992 42.125 95.8945 40.9961 95.2852 40.168C 94.6758 39.3398 93.8398 38.9258 92.7773 38.9258C 91.4648 38.9258 90.4805 39.5078 89.8242 40.6719L 89.8242 46.7305C 90.4727 47.8867 91.4648 48.4648 92.8008 48.4648C 93.8398 48.4648 94.6641 48.0547 95.2734 47.2344C 95.8906 46.4062 96.1992 45.1797 96.1992 43.5547ZM 100.559 43.543C 100.559 42.3008 100.801 41.1836 101.285 40.1914C 101.777 39.1992 102.457 38.4336 103.324 37.8945C 104.199 37.3555 105.195 37.0859 106.312 37.0859C 108.039 37.0859 109.434 37.6836 110.496 38.8789C 111.566 40.0742 112.102 41.6641 112.102 43.6484L 112.102 43.8008C 112.102 45.0352 111.863 46.1445 111.387 47.1289C 110.918 48.1055 110.242 48.8672 109.359 49.4141C 108.484 49.9609 107.477 50.2344 106.336 50.2344C 104.617 50.2344 103.223 49.6367 102.152 48.4414C 101.09 47.2461 100.559 45.6641 100.559 43.6953L 100.559 43.543ZM 102.738 43.8008C 102.738 45.207 103.062 46.3359 103.711 47.1875C 104.367 48.0391 105.242 48.4648 106.336 48.4648C 107.438 48.4648 108.312 48.0352 108.961 47.1758C 109.609 46.3086 109.934 45.0977 109.934 43.543C 109.934 42.1523 109.602 41.0273 108.938 40.168C 108.281 39.3008 107.406 38.8672 106.312 38.8672C 105.242 38.8672 104.379 39.293 103.723 40.1445C 103.066 40.9961 102.738 42.2148 102.738 43.8008ZM 122.203 46.6367C 122.203 46.0508 121.98 45.5977 121.535 45.2773C 121.098 44.9492 120.328 44.668 119.227 44.4336C 118.133 44.1992 117.262 43.918 116.613 43.5898C 115.973 43.2617 115.496 42.8711 115.184 42.418C 114.879 41.9648 114.727 41.4258 114.727 40.8008C 114.727 39.7617 115.164 38.8828 116.039 38.1641C 116.922 37.4453 118.047 37.0859 119.414 37.0859C 120.852 37.0859 122.016 37.457 122.906 38.1992C 123.805 38.9414 124.254 39.8906 124.254 41.0469L 122.074 41.0469C 122.074 40.4531 121.82 39.9414 121.312 39.5117C 120.812 39.082 120.18 38.8672 119.414 38.8672C 118.625 38.8672 118.008 39.0391 117.562 39.3828C 117.117 39.7266 116.895 40.1758 116.895 40.7305C 116.895 41.2539 117.102 41.6484 117.516 41.9141C 117.93 42.1797 118.676 42.4336 119.754 42.6758C 120.84 42.918 121.719 43.207 122.391 43.543C 123.062 43.8789 123.559 44.2852 123.879 44.7617C 124.207 45.2305 124.371 45.8047 124.371 46.4844C 124.371 47.6172 123.918 48.5273 123.012 49.2148C 122.105 49.8945 120.93 50.2344 119.484 50.2344C 118.469 50.2344 117.57 50.0547 116.789 49.6953C 116.008 49.3359 115.395 48.8359 114.949 48.1953C 114.512 47.5469 114.293 46.8477 114.293 46.0977L 116.461 46.0977C 116.5 46.8242 116.789 47.4023 117.328 47.832C 117.875 48.2539 118.594 48.4648 119.484 48.4648C 120.305 48.4648 120.961 48.3008 121.453 47.9727C 121.953 47.6367 122.203 47.1914 122.203 46.6367ZM 129.551 50L 127.383 50L 127.383 37.3203L 129.551 37.3203L 129.551 50ZM 127.207 33.957C 127.207 33.6055 127.312 33.3086 127.523 33.0664C 127.742 32.8242 128.062 32.7031 128.484 32.7031C 128.906 32.7031 129.227 32.8242 129.445 33.0664C 129.664 33.3086 129.773 33.6055 129.773 33.957C 129.773 34.3086 129.664 34.6016 129.445 34.8359C 129.227 35.0703 128.906 35.1875 128.484 35.1875C 128.062 35.1875 127.742 35.0703 127.523 34.8359C 127.312 34.6016 127.207 34.3086 127.207 33.957ZM 135.973 34.25L 135.973 37.3203L 138.34 37.3203L 138.34 38.9961L 135.973 38.9961L 135.973 46.8594C 135.973 47.3672 136.078 47.75 136.289 48.0078C 136.5 48.2578 136.859 48.3828 137.367 48.3828C 137.617 48.3828 137.961 48.3359 138.398 48.2422L 138.398 50C 137.828 50.1562 137.273 50.2344 136.734 50.2344C 135.766 50.2344 135.035 49.9414 134.543 49.3555C 134.051 48.7695 133.805 47.9375 133.805 46.8594L 133.805 38.9961L 131.496 38.9961L 131.496 37.3203L 133.805 37.3203L 133.805 34.25L 135.973 34.25ZM 143.238 50L 141.07 50L 141.07 37.3203L 143.238 37.3203L 143.238 50ZM 140.895 33.957C 140.895 33.6055 141 33.3086 141.211 33.0664C 141.43 32.8242 141.75 32.7031 142.172 32.7031C 142.594 32.7031 142.914 32.8242 143.133 33.0664C 143.352 33.3086 143.461 33.6055 143.461 33.957C 143.461 34.3086 143.352 34.6016 143.133 34.8359C 142.914 35.0703 142.594 35.1875 142.172 35.1875C 141.75 35.1875 141.43 35.0703 141.211 34.8359C 141 34.6016 140.895 34.3086 140.895 33.957ZM 146.145 43.543C 146.145 42.3008 146.387 41.1836 146.871 40.1914C 147.363 39.1992 148.043 38.4336 148.91 37.8945C 149.785 37.3555 150.781 37.0859 151.898 37.0859C 153.625 37.0859 155.02 37.6836 156.082 38.8789C 157.152 40.0742 157.688 41.6641 157.688 43.6484L 157.688 43.8008C 157.688 45.0352 157.449 46.1445 156.973 47.1289C 156.504 48.1055 155.828 48.8672 154.945 49.4141C 154.07 49.9609 153.062 50.2344 151.922 50.2344C 150.203 50.2344 148.809 49.6367 147.738 48.4414C 146.676 47.2461 146.145 45.6641 146.145 43.6953L 146.145 43.543ZM 148.324 43.8008C 148.324 45.207 148.648 46.3359 149.297 47.1875C 149.953 48.0391 150.828 48.4648 151.922 48.4648C 153.023 48.4648 153.898 48.0352 154.547 47.1758C 155.195 46.3086 155.52 45.0977 155.52 43.543C 155.52 42.1523 155.188 41.0273 154.523 40.168C 153.867 39.3008 152.992 38.8672 151.898 38.8672C 150.828 38.8672 149.965 39.293 149.309 40.1445C 148.652 40.9961 148.324 42.2148 148.324 43.8008ZM 162.457 37.3203L 162.527 38.9141C 163.496 37.6953 164.762 37.0859 166.324 37.0859C 169.004 37.0859 170.355 38.5977 170.379 41.6211L 170.379 50L 168.211 50L 168.211 41.6094C 168.203 40.6953 167.992 40.0195 167.578 39.582C 167.172 39.1445 166.535 38.9258 165.668 38.9258C 164.965 38.9258 164.348 39.1133 163.816 39.4883C 163.285 39.8633 162.871 40.3555 162.574 40.9648L 162.574 50L 160.406 50L 160.406 37.3203L 162.457 37.3203ZM 190.078 42.7227C 190.078 45.2617 189.645 47.1484 188.777 48.3828C 187.91 49.6172 186.555 50.2344 184.711 50.2344C 182.891 50.2344 181.543 49.6328 180.668 48.4297C 179.793 47.2188 179.34 45.4141 179.309 43.0156L 179.309 40.1211C 179.309 37.6133 179.742 35.75 180.609 34.5312C 181.477 33.3125 182.836 32.7031 184.688 32.7031C 186.523 32.7031 187.875 33.293 188.742 34.4727C 189.609 35.6445 190.055 37.457 190.078 39.9102L 190.078 42.7227ZM 187.91 39.7578C 187.91 37.9219 187.652 36.5859 187.137 35.75C 186.621 34.9062 185.805 34.4844 184.688 34.4844C 183.578 34.4844 182.77 34.9023 182.262 35.7383C 181.754 36.5742 181.492 37.8594 181.477 39.5938L 181.477 43.0625C 181.477 44.9062 181.742 46.2695 182.273 47.1523C 182.812 48.0273 183.625 48.4648 184.711 48.4648C 185.781 48.4648 186.574 48.0508 187.09 47.2227C 187.613 46.3945 187.887 45.0898 187.91 43.3086L 187.91 39.7578Z"/>
</defs>
</svg>
