<svg width="904" height="963" viewBox="0 0 904 963" version="1.1" xmlns="http://www.w3.org/2000/svg" xmlns:xlink="http://www.w3.org/1999/xlink" xmlns:figma="http://www.figma.com/figma/ns">
<title>linked_list_insert</title>
<desc>Created using Figma</desc>
<g id="Canvas" transform="translate(1029 412)" figma:type="canvas">
<g id="Rectangle" figma:type="rounded-rectangle">
<use xlink:href="#path0_fill" transform="translate(-1029 -336)" fill="#C4C4C4"/>
</g>
<g id="price_1" figma:type="text">
<use xlink:href="#path1_fill" transform="translate(-1006 -288)"/>
</g>
<g id="Rectangle" figma:type="rounded-rectangle">
<use xlink:href="#path0_fill" transform="translate(-250 -147)" fill="#C4C4C4"/>
</g>
<g id="price_6" figma:type="text">
<use xlink:href="#path2_fill" transform="translate(-227 -99)"/>
</g>
<g id="Rectangle" figma:type="rounded-rectangle">
<use xlink:href="#path0_fill" transform="translate(-1029 -147)" fill="#C4C4C4"/>
</g>
<g id="price_2" figma:type="text">
<use xlink:href="#path3_fill" transform="translate(-1006 -99)"/>
</g>
<g id="Rectangle" figma:type="rounded-rectangle">
<use xlink:href="#path0_fill" transform="translate(-1029 46)" fill="#C4C4C4"/>
</g>
<g id="price_3" figma:type="text">
<use xlink:href="#path4_fill" transform="translate(-1006 94)"/>
</g>
<g id="Rectangle" figma:type="rounded-rectangle">
<use xlink:href="#path0_fill" transform="translate(-1029 230)" fill="#C4C4C4"/>
</g>
<g id="price_4" figma:type="text">
<use xlink:href="#path5_fill" transform="translate(-1006 278)"/>
</g>
<g id="Rectangle" figma:type="rounded-rectangle">
<use xlink:href="#path0_fill" transform="translate(-1029 426)" fill="#C4C4C4"/>
</g>
<g id="price_5" figma:type="text">
<use xlink:href="#path6_fill" transform="translate(-1006 474)"/>
</g>
<g id="Arrow 2" figma:type="vector">
<use xlink:href="#path7_stroke" transform="matrix(6.12323e-17 1 -1 6.12323e-17 -967 -191)"/>
</g>
<g id="Arrow 2" figma:type="vector">
<use xlink:href="#path7_stroke" transform="matrix(6.12323e-17 1 -1 6.12323e-17 -967 -1)"/>
</g>
<g id="Arrow 2" figma:type="vector">
<use xlink:href="#path7_stroke" transform="matrix(6.12323e-17 1 -1 6.12323e-17 -967 189)"/>
</g>
<g id="Arrow 2" figma:type="vector">
<use xlink:href="#path7_stroke" transform="matrix(6.12323e-17 1 -1 6.12323e-17 -967 378)"/>
</g>
<g id="Rectangle" figma:type="rounded-rectangle">
<use xlink:href="#path0_fill" transform="translate(-542 -336)" fill="#C4C4C4"/>
</g>
<g id="price_1" figma:type="text">
<use xlink:href="#path1_fill" transform="translate(-519 -288)"/>
</g>
<g id="Rectangle" figma:type="rounded-rectangle">
<use xlink:href="#path0_fill" transform="translate(-542 -147)" fill="#C4C4C4"/>
</g>
<g id="price_2" figma:type="text">
<use xlink:href="#path3_fill" transform="translate(-519 -99)"/>
</g>
<g id="Rectangle" figma:type="rounded-rectangle">
<use xlink:href="#path0_fill" transform="translate(-542 46)" fill="#C4C4C4"/>
</g>
<g id="price_3" figma:type="text">
<use xlink:href="#path4_fill" transform="translate(-519 94)"/>
</g>
<g id="Rectangle" figma:type="rounded-rectangle">
<use xlink:href="#path0_fill" transform="translate(-542 230)" fill="#C4C4C4"/>
</g>
<g id="price_4" figma:type="text">
<use xlink:href="#path5_fill" transform="translate(-519 278)"/>
</g>
<g id="Rectangle" figma:type="rounded-rectangle">
<use xlink:href="#path0_fill" transform="translate(-542 426)" fill="#C4C4C4"/>
</g>
<g id="price_5" figma:type="text">
<use xlink:href="#path6_fill" transform="translate(-519 474)"/>
</g>
<g id="Arrow 2" figma:type="vector">
<use xlink:href="#path7_stroke" transform="matrix(6.12323e-17 1 -1 6.12323e-17 -480 -191)"/>
</g>
<g id="Arrow 2" figma:type="vector">
<use xlink:href="#path7_stroke" transform="matrix(6.12323e-17 1 -1 6.12323e-17 -480 189)"/>
</g>
<g id="Arrow 2" figma:type="vector">
<use xlink:href="#path7_stroke" transform="matrix(6.12323e-17 1 -1 6.12323e-17 -480 378)"/>
</g>
<g id="Linked List" figma:type="text">
<use xlink:href="#path8_fill" transform="translate(-1025 -416)"/>
</g>
<g id="Arrow" figma:type="vector">
<use xlink:href="#path9_stroke" transform="translate(-840 109)"/>
</g>
<g id="price_1.insert(2,6)" figma:type="text">
<use xlink:href="#path10_fill" transform="translate(-830 44)"/>
</g>
<g id="Arrow 3" figma:type="vector">
<use xlink:href="#path11_stroke" transform="translate(-372 -85)"/>
</g>
<g id="Arrow 4" figma:type="vector">
<use xlink:href="#path12_stroke" transform="matrix(-0.89735 0.44132 -0.44132 -0.89735 -250 -1)"/>
</g>
<g id="Insert a new value (6) in the second position after price_1" figma:type="text">
<use xlink:href="#path13_fill" transform="translate(-830 -85)"/>
</g>
</g>
<defs>
<path id="path0_fill" d="M 0 0L 125 0L 125 125L 0 125L 0 0Z"/>
<path id="path1_fill" d="M 12.3516 15.8008C 12.3516 17.7305 11.9102 19.2852 11.0273 20.4648C 10.1445 21.6445 8.94922 22.2344 7.44141 22.2344C 5.90234 22.2344 4.69141 21.7461 3.80859 20.7695L 3.80859 26.875L 1.64062 26.875L 1.64062 9.32031L 3.62109 9.32031L 3.72656 10.7266C 4.60938 9.63281 5.83594 9.08594 7.40625 9.08594C 8.92969 9.08594 10.1328 9.66016 11.0156 10.8086C 11.9062 11.957 12.3516 13.5547 12.3516 15.6016L 12.3516 15.8008ZM 10.1836 15.5547C 10.1836 14.125 9.87891 12.9961 9.26953 12.168C 8.66016 11.3398 7.82422 10.9258 6.76172 10.9258C 5.44922 10.9258 4.46484 11.5078 3.80859 12.6719L 3.80859 18.7305C 4.45703 19.8867 5.44922 20.4648 6.78516 20.4648C 7.82422 20.4648 8.64844 20.0547 9.25781 19.2344C 9.875 18.4063 10.1836 17.1797 10.1836 15.5547ZM 21.2461 11.2656C 20.918 11.2109 20.5625 11.1836 20.1797 11.1836C 18.7578 11.1836 17.793 11.7891 17.2852 13L 17.2852 22L 15.1172 22L 15.1172 9.32031L 17.2266 9.32031L 17.2617 10.7852C 17.9727 9.65234 18.9805 9.08594 20.2852 9.08594C 20.707 9.08594 21.0273 9.14062 21.2461 9.25L 21.2461 11.2656ZM 25.6055 22L 23.4375 22L 23.4375 9.32031L 25.6055 9.32031L 25.6055 22ZM 23.2617 5.95703C 23.2617 5.60547 23.3672 5.30859 23.5781 5.06641C 23.7969 4.82422 24.1172 4.70312 24.5391 4.70312C 24.9609 4.70312 25.2813 4.82422 25.5 5.06641C 25.7187 5.30859 25.8281 5.60547 25.8281 5.95703C 25.8281 6.30859 25.7187 6.60156 25.5 6.83594C 25.2813 7.07031 24.9609 7.1875 24.5391 7.1875C 24.1172 7.1875 23.7969 7.07031 23.5781 6.83594C 23.3672 6.60156 23.2617 6.30859 23.2617 5.95703ZM 34.1719 20.4648C 34.9453 20.4648 35.6211 20.2305 36.1992 19.7617C 36.7773 19.293 37.0977 18.707 37.1602 18.0039L 39.2109 18.0039C 39.1719 18.7305 38.9219 19.4219 38.4609 20.0781C 38 20.7344 37.3828 21.2578 36.6094 21.6484C 35.8438 22.0391 35.0312 22.2344 34.1719 22.2344C 32.4453 22.2344 31.0703 21.6602 30.0469 20.5117C 29.0312 19.3555 28.5234 17.7773 28.5234 15.7773L 28.5234 15.4141C 28.5234 14.1797 28.75 13.082 29.2031 12.1211C 29.6563 11.1602 30.3047 10.4141 31.1484 9.88281C 32 9.35156 33.0039 9.08594 34.1602 9.08594C 35.582 9.08594 36.7617 9.51172 37.6992 10.3633C 38.6445 11.2148 39.1484 12.3203 39.2109 13.6797L 37.1602 13.6797C 37.0977 12.8594 36.7852 12.1875 36.2227 11.6641C 35.668 11.1328 34.9805 10.8672 34.1602 10.8672C 33.0586 10.8672 32.2031 11.2656 31.5938 12.0625C 30.9922 12.8516 30.6914 13.9961 30.6914 15.4961L 30.6914 15.9062C 30.6914 17.3672 30.9922 18.4922 31.5938 19.2812C 32.1953 20.0703 33.0547 20.4648 34.1719 20.4648ZM 46.9102 22.2344C 45.1914 22.2344 43.793 21.6719 42.7148 20.5469C 41.6367 19.4141 41.0977 17.9023 41.0977 16.0117L 41.0977 15.6133C 41.0977 14.3555 41.3359 13.2344 41.8125 12.25C 42.2969 11.2578 42.9688 10.4844 43.8281 9.92969C 44.6953 9.36719 45.6328 9.08594 46.6406 9.08594C 48.2891 9.08594 49.5703 9.62891 50.4844 10.7148C 51.3984 11.8008 51.8555 13.3555 51.8555 15.3789L 51.8555 16.2812L 43.2656 16.2812C 43.2969 17.5312 43.6602 18.543 44.3555 19.3164C 45.0586 20.082 45.9492 20.4648 47.0273 20.4648C 47.793 20.4648 48.4414 20.3086 48.9727 19.9961C 49.5039 19.6836 49.9688 19.2695 50.3672 18.7539L 51.6914 19.7852C 50.6289 21.418 49.0352 22.2344 46.9102 22.2344ZM 46.6406 10.8672C 45.7656 10.8672 45.0312 11.1875 44.4375 11.8281C 43.8438 12.4609 43.4766 13.3516 43.3359 14.5L 49.6875 14.5L 49.6875 14.3359C 49.625 13.2344 49.3281 12.3828 48.7969 11.7812C 48.2656 11.1719 47.5469 10.8672 46.6406 10.8672ZM 63.5156 23.7695L 52.7812 23.7695L 52.7812 22L 63.5156 22L 63.5156 23.7695ZM 72.1055 22L 69.9258 22L 69.9258 7.55078L 65.5547 9.15625L 65.5547 7.1875L 71.7656 4.85547L 72.1055 4.85547L 72.1055 22Z"/>
<path id="path2_fill" d="M 12.3516 15.8008C 12.3516 17.7305 11.9102 19.2852 11.0273 20.4648C 10.1445 21.6445 8.94922 22.2344 7.44141 22.2344C 5.90234 22.2344 4.69141 21.7461 3.80859 20.7695L 3.80859 26.875L 1.64062 26.875L 1.64062 9.32031L 3.62109 9.32031L 3.72656 10.7266C 4.60938 9.63281 5.83594 9.08594 7.40625 9.08594C 8.92969 9.08594 10.1328 9.66016 11.0156 10.8086C 11.9062 11.957 12.3516 13.5547 12.3516 15.6016L 12.3516 15.8008ZM 10.1836 15.5547C 10.1836 14.125 9.87891 12.9961 9.26953 12.168C 8.66016 11.3398 7.82422 10.9258 6.76172 10.9258C 5.44922 10.9258 4.46484 11.5078 3.80859 12.6719L 3.80859 18.7305C 4.45703 19.8867 5.44922 20.4648 6.78516 20.4648C 7.82422 20.4648 8.64844 20.0547 9.25781 19.2344C 9.875 18.4063 10.1836 17.1797 10.1836 15.5547ZM 21.2461 11.2656C 20.918 11.2109 20.5625 11.1836 20.1797 11.1836C 18.7578 11.1836 17.793 11.7891 17.2852 13L 17.2852 22L 15.1172 22L 15.1172 9.32031L 17.2266 9.32031L 17.2617 10.7852C 17.9727 9.65234 18.9805 9.08594 20.2852 9.08594C 20.707 9.08594 21.0273 9.14062 21.2461 9.25L 21.2461 11.2656ZM 25.6055 22L 23.4375 22L 23.4375 9.32031L 25.6055 9.32031L 25.6055 22ZM 23.2617 5.95703C 23.2617 5.60547 23.3672 5.30859 23.5781 5.06641C 23.7969 4.82422 24.1172 4.70312 24.5391 4.70312C 24.9609 4.70312 25.2813 4.82422 25.5 5.06641C 25.7187 5.30859 25.8281 5.60547 25.8281 5.95703C 25.8281 6.30859 25.7187 6.60156 25.5 6.83594C 25.2813 7.07031 24.9609 7.1875 24.5391 7.1875C 24.1172 7.1875 23.7969 7.07031 23.5781 6.83594C 23.3672 6.60156 23.2617 6.30859 23.2617 5.95703ZM 34.1719 20.4648C 34.9453 20.4648 35.6211 20.2305 36.1992 19.7617C 36.7773 19.293 37.0977 18.707 37.1602 18.0039L 39.2109 18.0039C 39.1719 18.7305 38.9219 19.4219 38.4609 20.0781C 38 20.7344 37.3828 21.2578 36.6094 21.6484C 35.8438 22.0391 35.0312 22.2344 34.1719 22.2344C 32.4453 22.2344 31.0703 21.6602 30.0469 20.5117C 29.0312 19.3555 28.5234 17.7773 28.5234 15.7773L 28.5234 15.4141C 28.5234 14.1797 28.75 13.082 29.2031 12.1211C 29.6563 11.1602 30.3047 10.4141 31.1484 9.88281C 32 9.35156 33.0039 9.08594 34.1602 9.08594C 35.582 9.08594 36.7617 9.51172 37.6992 10.3633C 38.6445 11.2148 39.1484 12.3203 39.2109 13.6797L 37.1602 13.6797C 37.0977 12.8594 36.7852 12.1875 36.2227 11.6641C 35.668 11.1328 34.9805 10.8672 34.1602 10.8672C 33.0586 10.8672 32.2031 11.2656 31.5938 12.0625C 30.9922 12.8516 30.6914 13.9961 30.6914 15.4961L 30.6914 15.9062C 30.6914 17.3672 30.9922 18.4922 31.5938 19.2812C 32.1953 20.0703 33.0547 20.4648 34.1719 20.4648ZM 46.9102 22.2344C 45.1914 22.2344 43.793 21.6719 42.7148 20.5469C 41.6367 19.4141 41.0977 17.9023 41.0977 16.0117L 41.0977 15.6133C 41.0977 14.3555 41.3359 13.2344 41.8125 12.25C 42.2969 11.2578 42.9688 10.4844 43.8281 9.92969C 44.6953 9.36719 45.6328 9.08594 46.6406 9.08594C 48.2891 9.08594 49.5703 9.62891 50.4844 10.7148C 51.3984 11.8008 51.8555 13.3555 51.8555 15.3789L 51.8555 16.2812L 43.2656 16.2812C 43.2969 17.5312 43.6602 18.543 44.3555 19.3164C 45.0586 20.082 45.9492 20.4648 47.0273 20.4648C 47.793 20.4648 48.4414 20.3086 48.9727 19.9961C 49.5039 19.6836 49.9688 19.2695 50.3672 18.7539L 51.6914 19.7852C 50.6289 21.418 49.0352 22.2344 46.9102 22.2344ZM 46.6406 10.8672C 45.7656 10.8672 45.0312 11.1875 44.4375 11.8281C 43.8438 12.4609 43.4766 13.3516 43.3359 14.5L 49.6875 14.5L 49.6875 14.3359C 49.625 13.2344 49.3281 12.3828 48.7969 11.7812C 48.2656 11.1719 47.5469 10.8672 46.6406 10.8672ZM 63.5156 23.7695L 52.7812 23.7695L 52.7812 22L 63.5156 22L 63.5156 23.7695ZM 73.4883 4.92578L 73.4883 6.76562L 73.0898 6.76562C 71.4023 6.79687 70.0586 7.29688 69.0586 8.26562C 68.0586 9.23437 67.4805 10.5977 67.3242 12.3555C 68.2227 11.3242 69.4492 10.8086 71.0039 10.8086C 72.4883 10.8086 73.6719 11.332 74.5547 12.3789C 75.4453 13.4258 75.8906 14.7773 75.8906 16.4336C 75.8906 18.1914 75.4102 19.5977 74.4492 20.6523C 73.4961 21.707 72.2148 22.2344 70.6055 22.2344C 68.9727 22.2344 67.6484 21.6094 66.6328 20.3594C 65.6172 19.1016 65.1094 17.4844 65.1094 15.5078L 65.1094 14.6758C 65.1094 11.5352 65.7773 9.13672 67.1133 7.48047C 68.457 5.81641 70.4531 4.96484 73.1016 4.92578L 73.4883 4.92578ZM 70.6406 12.6133C 69.8984 12.6133 69.2148 12.8359 68.5898 13.2812C 67.9648 13.7266 67.5312 14.2852 67.2891 14.957L 67.2891 15.7539C 67.2891 17.1602 67.6055 18.293 68.2383 19.1523C 68.8711 20.0117 69.6602 20.4414 70.6055 20.4414C 71.582 20.4414 72.3477 20.082 72.9023 19.3633C 73.4648 18.6445 73.7461 17.7031 73.7461 16.5391C 73.7461 15.3672 73.4609 14.4219 72.8906 13.7031C 72.3281 12.9766 71.5781 12.6133 70.6406 12.6133Z"/>
<path id="path3_fill" d="M 12.3516 15.8008C 12.3516 17.7305 11.9102 19.2852 11.0273 20.4648C 10.1445 21.6445 8.94922 22.2344 7.44141 22.2344C 5.90234 22.2344 4.69141 21.7461 3.80859 20.7695L 3.80859 26.875L 1.64062 26.875L 1.64062 9.32031L 3.62109 9.32031L 3.72656 10.7266C 4.60938 9.63281 5.83594 9.08594 7.40625 9.08594C 8.92969 9.08594 10.1328 9.66016 11.0156 10.8086C 11.9062 11.957 12.3516 13.5547 12.3516 15.6016L 12.3516 15.8008ZM 10.1836 15.5547C 10.1836 14.125 9.87891 12.9961 9.26953 12.168C 8.66016 11.3398 7.82422 10.9258 6.76172 10.9258C 5.44922 10.9258 4.46484 11.5078 3.80859 12.6719L 3.80859 18.7305C 4.45703 19.8867 5.44922 20.4648 6.78516 20.4648C 7.82422 20.4648 8.64844 20.0547 9.25781 19.2344C 9.875 18.4063 10.1836 17.1797 10.1836 15.5547ZM 21.2461 11.2656C 20.918 11.2109 20.5625 11.1836 20.1797 11.1836C 18.7578 11.1836 17.793 11.7891 17.2852 13L 17.2852 22L 15.1172 22L 15.1172 9.32031L 17.2266 9.32031L 17.2617 10.7852C 17.9727 9.65234 18.9805 9.08594 20.2852 9.08594C 20.707 9.08594 21.0273 9.14062 21.2461 9.25L 21.2461 11.2656ZM 25.6055 22L 23.4375 22L 23.4375 9.32031L 25.6055 9.32031L 25.6055 22ZM 23.2617 5.95703C 23.2617 5.60547 23.3672 5.30859 23.5781 5.06641C 23.7969 4.82422 24.1172 4.70312 24.5391 4.70312C 24.9609 4.70312 25.2813 4.82422 25.5 5.06641C 25.7187 5.30859 25.8281 5.60547 25.8281 5.95703C 25.8281 6.30859 25.7187 6.60156 25.5 6.83594C 25.2813 7.07031 24.9609 7.1875 24.5391 7.1875C 24.1172 7.1875 23.7969 7.07031 23.5781 6.83594C 23.3672 6.60156 23.2617 6.30859 23.2617 5.95703ZM 34.1719 20.4648C 34.9453 20.4648 35.6211 20.2305 36.1992 19.7617C 36.7773 19.293 37.0977 18.707 37.1602 18.0039L 39.2109 18.0039C 39.1719 18.7305 38.9219 19.4219 38.4609 20.0781C 38 20.7344 37.3828 21.2578 36.6094 21.6484C 35.8438 22.0391 35.0312 22.2344 34.1719 22.2344C 32.4453 22.2344 31.0703 21.6602 30.0469 20.5117C 29.0312 19.3555 28.5234 17.7773 28.5234 15.7773L 28.5234 15.4141C 28.5234 14.1797 28.75 13.082 29.2031 12.1211C 29.6563 11.1602 30.3047 10.4141 31.1484 9.88281C 32 9.35156 33.0039 9.08594 34.1602 9.08594C 35.582 9.08594 36.7617 9.51172 37.6992 10.3633C 38.6445 11.2148 39.1484 12.3203 39.2109 13.6797L 37.1602 13.6797C 37.0977 12.8594 36.7852 12.1875 36.2227 11.6641C 35.668 11.1328 34.9805 10.8672 34.1602 10.8672C 33.0586 10.8672 32.2031 11.2656 31.5938 12.0625C 30.9922 12.8516 30.6914 13.9961 30.6914 15.4961L 30.6914 15.9062C 30.6914 17.3672 30.9922 18.4922 31.5938 19.2812C 32.1953 20.0703 33.0547 20.4648 34.1719 20.4648ZM 46.9102 22.2344C 45.1914 22.2344 43.793 21.6719 42.7148 20.5469C 41.6367 19.4141 41.0977 17.9023 41.0977 16.0117L 41.0977 15.6133C 41.0977 14.3555 41.3359 13.2344 41.8125 12.25C 42.2969 11.2578 42.9688 10.4844 43.8281 9.92969C 44.6953 9.36719 45.6328 9.08594 46.6406 9.08594C 48.2891 9.08594 49.5703 9.62891 50.4844 10.7148C 51.3984 11.8008 51.8555 13.3555 51.8555 15.3789L 51.8555 16.2812L 43.2656 16.2812C 43.2969 17.5312 43.6602 18.543 44.3555 19.3164C 45.0586 20.082 45.9492 20.4648 47.0273 20.4648C 47.793 20.4648 48.4414 20.3086 48.9727 19.9961C 49.5039 19.6836 49.9688 19.2695 50.3672 18.7539L 51.6914 19.7852C 50.6289 21.418 49.0352 22.2344 46.9102 22.2344ZM 46.6406 10.8672C 45.7656 10.8672 45.0312 11.1875 44.4375 11.8281C 43.8438 12.4609 43.4766 13.3516 43.3359 14.5L 49.6875 14.5L 49.6875 14.3359C 49.625 13.2344 49.3281 12.3828 48.7969 11.7812C 48.2656 11.1719 47.5469 10.8672 46.6406 10.8672ZM 63.5156 23.7695L 52.7812 23.7695L 52.7812 22L 63.5156 22L 63.5156 23.7695ZM 76.1602 22L 64.9805 22L 64.9805 20.4414L 70.8867 13.8789C 71.7617 12.8867 72.3633 12.082 72.6914 11.4648C 73.0273 10.8398 73.1953 10.1953 73.1953 9.53125C 73.1953 8.64062 72.9258 7.91016 72.3867 7.33984C 71.8477 6.76953 71.1289 6.48438 70.2305 6.48438C 69.1523 6.48438 68.3125 6.79297 67.7109 7.41016C 67.1172 8.01953 66.8203 8.87109 66.8203 9.96484L 64.6523 9.96484C 64.6523 8.39453 65.1562 7.125 66.1641 6.15625C 67.1797 5.1875 68.5352 4.70312 70.2305 4.70312C 71.8164 4.70312 73.0703 5.12109 73.9922 5.95703C 74.9141 6.78516 75.375 7.89062 75.375 9.27344C 75.375 10.9531 74.3047 12.9531 72.1641 15.2734L 67.5938 20.2305L 76.1602 20.2305L 76.1602 22Z"/>
<path id="path4_fill" d="M 12.3516 15.8008C 12.3516 17.7305 11.9102 19.2852 11.0273 20.4648C 10.1445 21.6445 8.94922 22.2344 7.44141 22.2344C 5.90234 22.2344 4.69141 21.7461 3.80859 20.7695L 3.80859 26.875L 1.64062 26.875L 1.64062 9.32031L 3.62109 9.32031L 3.72656 10.7266C 4.60938 9.63281 5.83594 9.08594 7.40625 9.08594C 8.92969 9.08594 10.1328 9.66016 11.0156 10.8086C 11.9062 11.957 12.3516 13.5547 12.3516 15.6016L 12.3516 15.8008ZM 10.1836 15.5547C 10.1836 14.125 9.87891 12.9961 9.26953 12.168C 8.66016 11.3398 7.82422 10.9258 6.76172 10.9258C 5.44922 10.9258 4.46484 11.5078 3.80859 12.6719L 3.80859 18.7305C 4.45703 19.8867 5.44922 20.4648 6.78516 20.4648C 7.82422 20.4648 8.64844 20.0547 9.25781 19.2344C 9.875 18.4063 10.1836 17.1797 10.1836 15.5547ZM 21.2461 11.2656C 20.918 11.2109 20.5625 11.1836 20.1797 11.1836C 18.7578 11.1836 17.793 11.7891 17.2852 13L 17.2852 22L 15.1172 22L 15.1172 9.32031L 17.2266 9.32031L 17.2617 10.7852C 17.9727 9.65234 18.9805 9.08594 20.2852 9.08594C 20.707 9.08594 21.0273 9.14062 21.2461 9.25L 21.2461 11.2656ZM 25.6055 22L 23.4375 22L 23.4375 9.32031L 25.6055 9.32031L 25.6055 22ZM 23.2617 5.95703C 23.2617 5.60547 23.3672 5.30859 23.5781 5.06641C 23.7969 4.82422 24.1172 4.70312 24.5391 4.70312C 24.9609 4.70312 25.2813 4.82422 25.5 5.06641C 25.7187 5.30859 25.8281 5.60547 25.8281 5.95703C 25.8281 6.30859 25.7187 6.60156 25.5 6.83594C 25.2813 7.07031 24.9609 7.1875 24.5391 7.1875C 24.1172 7.1875 23.7969 7.07031 23.5781 6.83594C 23.3672 6.60156 23.2617 6.30859 23.2617 5.95703ZM 34.1719 20.4648C 34.9453 20.4648 35.6211 20.2305 36.1992 19.7617C 36.7773 19.293 37.0977 18.707 37.1602 18.0039L 39.2109 18.0039C 39.1719 18.7305 38.9219 19.4219 38.4609 20.0781C 38 20.7344 37.3828 21.2578 36.6094 21.6484C 35.8438 22.0391 35.0312 22.2344 34.1719 22.2344C 32.4453 22.2344 31.0703 21.6602 30.0469 20.5117C 29.0312 19.3555 28.5234 17.7773 28.5234 15.7773L 28.5234 15.4141C 28.5234 14.1797 28.75 13.082 29.2031 12.1211C 29.6563 11.1602 30.3047 10.4141 31.1484 9.88281C 32 9.35156 33.0039 9.08594 34.1602 9.08594C 35.582 9.08594 36.7617 9.51172 37.6992 10.3633C 38.6445 11.2148 39.1484 12.3203 39.2109 13.6797L 37.1602 13.6797C 37.0977 12.8594 36.7852 12.1875 36.2227 11.6641C 35.668 11.1328 34.9805 10.8672 34.1602 10.8672C 33.0586 10.8672 32.2031 11.2656 31.5938 12.0625C 30.9922 12.8516 30.6914 13.9961 30.6914 15.4961L 30.6914 15.9062C 30.6914 17.3672 30.9922 18.4922 31.5938 19.2812C 32.1953 20.0703 33.0547 20.4648 34.1719 20.4648ZM 46.9102 22.2344C 45.1914 22.2344 43.793 21.6719 42.7148 20.5469C 41.6367 19.4141 41.0977 17.9023 41.0977 16.0117L 41.0977 15.6133C 41.0977 14.3555 41.3359 13.2344 41.8125 12.25C 42.2969 11.2578 42.9688 10.4844 43.8281 9.92969C 44.6953 9.36719 45.6328 9.08594 46.6406 9.08594C 48.2891 9.08594 49.5703 9.62891 50.4844 10.7148C 51.3984 11.8008 51.8555 13.3555 51.8555 15.3789L 51.8555 16.2812L 43.2656 16.2812C 43.2969 17.5312 43.6602 18.543 44.3555 19.3164C 45.0586 20.082 45.9492 20.4648 47.0273 20.4648C 47.793 20.4648 48.4414 20.3086 48.9727 19.9961C 49.5039 19.6836 49.9688 19.2695 50.3672 18.7539L 51.6914 19.7852C 50.6289 21.418 49.0352 22.2344 46.9102 22.2344ZM 46.6406 10.8672C 45.7656 10.8672 45.0312 11.1875 44.4375 11.8281C 43.8438 12.4609 43.4766 13.3516 43.3359 14.5L 49.6875 14.5L 49.6875 14.3359C 49.625 13.2344 49.3281 12.3828 48.7969 11.7812C 48.2656 11.1719 47.5469 10.8672 46.6406 10.8672ZM 63.5156 23.7695L 52.7812 23.7695L 52.7812 22L 63.5156 22L 63.5156 23.7695ZM 68.1328 12.4141L 69.7617 12.4141C 70.7852 12.3984 71.5898 12.1289 72.1758 11.6055C 72.7617 11.082 73.0547 10.375 73.0547 9.48438C 73.0547 7.48438 72.0586 6.48438 70.0664 6.48438C 69.1289 6.48438 68.3789 6.75391 67.8164 7.29297C 67.2617 7.82422 66.9844 8.53125 66.9844 9.41406L 64.8164 9.41406C 64.8164 8.0625 65.3086 6.94141 66.293 6.05078C 67.2852 5.15234 68.543 4.70312 70.0664 4.70312C 71.6758 4.70312 72.9375 5.12891 73.8516 5.98047C 74.7656 6.83203 75.2227 8.01562 75.2227 9.53125C 75.2227 10.2734 74.9805 10.9922 74.4961 11.6875C 74.0195 12.3828 73.3672 12.9023 72.5391 13.2461C 73.4766 13.543 74.1992 14.0352 74.707 14.7227C 75.2227 15.4102 75.4805 16.25 75.4805 17.2422C 75.4805 18.7734 74.9805 19.9883 73.9805 20.8867C 72.9805 21.7852 71.6797 22.2344 70.0781 22.2344C 68.4766 22.2344 67.1719 21.8008 66.1641 20.9336C 65.1641 20.0664 64.6641 18.9219 64.6641 17.5L 66.8438 17.5C 66.8438 18.3984 67.1367 19.1172 67.7227 19.6562C 68.3086 20.1953 69.0938 20.4648 70.0781 20.4648C 71.125 20.4648 71.9258 20.1914 72.4805 19.6445C 73.0352 19.0977 73.3125 18.3125 73.3125 17.2891C 73.3125 16.2969 73.0078 15.5352 72.3984 15.0039C 71.7891 14.4727 70.9102 14.1992 69.7617 14.1836L 68.1328 14.1836L 68.1328 12.4141Z"/>
<path id="path5_fill" d="M 12.3516 15.8008C 12.3516 17.7305 11.9102 19.2852 11.0273 20.4648C 10.1445 21.6445 8.94922 22.2344 7.44141 22.2344C 5.90234 22.2344 4.69141 21.7461 3.80859 20.7695L 3.80859 26.875L 1.64062 26.875L 1.64062 9.32031L 3.62109 9.32031L 3.72656 10.7266C 4.60938 9.63281 5.83594 9.08594 7.40625 9.08594C 8.92969 9.08594 10.1328 9.66016 11.0156 10.8086C 11.9062 11.957 12.3516 13.5547 12.3516 15.6016L 12.3516 15.8008ZM 10.1836 15.5547C 10.1836 14.125 9.87891 12.9961 9.26953 12.168C 8.66016 11.3398 7.82422 10.9258 6.76172 10.9258C 5.44922 10.9258 4.46484 11.5078 3.80859 12.6719L 3.80859 18.7305C 4.45703 19.8867 5.44922 20.4648 6.78516 20.4648C 7.82422 20.4648 8.64844 20.0547 9.25781 19.2344C 9.875 18.4063 10.1836 17.1797 10.1836 15.5547ZM 21.2461 11.2656C 20.918 11.2109 20.5625 11.1836 20.1797 11.1836C 18.7578 11.1836 17.793 11.7891 17.2852 13L 17.2852 22L 15.1172 22L 15.1172 9.32031L 17.2266 9.32031L 17.2617 10.7852C 17.9727 9.65234 18.9805 9.08594 20.2852 9.08594C 20.707 9.08594 21.0273 9.14062 21.2461 9.25L 21.2461 11.2656ZM 25.6055 22L 23.4375 22L 23.4375 9.32031L 25.6055 9.32031L 25.6055 22ZM 23.2617 5.95703C 23.2617 5.60547 23.3672 5.30859 23.5781 5.06641C 23.7969 4.82422 24.1172 4.70312 24.5391 4.70312C 24.9609 4.70312 25.2813 4.82422 25.5 5.06641C 25.7187 5.30859 25.8281 5.60547 25.8281 5.95703C 25.8281 6.30859 25.7187 6.60156 25.5 6.83594C 25.2813 7.07031 24.9609 7.1875 24.5391 7.1875C 24.1172 7.1875 23.7969 7.07031 23.5781 6.83594C 23.3672 6.60156 23.2617 6.30859 23.2617 5.95703ZM 34.1719 20.4648C 34.9453 20.4648 35.6211 20.2305 36.1992 19.7617C 36.7773 19.293 37.0977 18.707 37.1602 18.0039L 39.2109 18.0039C 39.1719 18.7305 38.9219 19.4219 38.4609 20.0781C 38 20.7344 37.3828 21.2578 36.6094 21.6484C 35.8438 22.0391 35.0312 22.2344 34.1719 22.2344C 32.4453 22.2344 31.0703 21.6602 30.0469 20.5117C 29.0312 19.3555 28.5234 17.7773 28.5234 15.7773L 28.5234 15.4141C 28.5234 14.1797 28.75 13.082 29.2031 12.1211C 29.6563 11.1602 30.3047 10.4141 31.1484 9.88281C 32 9.35156 33.0039 9.08594 34.1602 9.08594C 35.582 9.08594 36.7617 9.51172 37.6992 10.3633C 38.6445 11.2148 39.1484 12.3203 39.2109 13.6797L 37.1602 13.6797C 37.0977 12.8594 36.7852 12.1875 36.2227 11.6641C 35.668 11.1328 34.9805 10.8672 34.1602 10.8672C 33.0586 10.8672 32.2031 11.2656 31.5938 12.0625C 30.9922 12.8516 30.6914 13.9961 30.6914 15.4961L 30.6914 15.9062C 30.6914 17.3672 30.9922 18.4922 31.5938 19.2812C 32.1953 20.0703 33.0547 20.4648 34.1719 20.4648ZM 46.9102 22.2344C 45.1914 22.2344 43.793 21.6719 42.7148 20.5469C 41.6367 19.4141 41.0977 17.9023 41.0977 16.0117L 41.0977 15.6133C 41.0977 14.3555 41.3359 13.2344 41.8125 12.25C 42.2969 11.2578 42.9688 10.4844 43.8281 9.92969C 44.6953 9.36719 45.6328 9.08594 46.6406 9.08594C 48.2891 9.08594 49.5703 9.62891 50.4844 10.7148C 51.3984 11.8008 51.8555 13.3555 51.8555 15.3789L 51.8555 16.2812L 43.2656 16.2812C 43.2969 17.5312 43.6602 18.543 44.3555 19.3164C 45.0586 20.082 45.9492 20.4648 47.0273 20.4648C 47.793 20.4648 48.4414 20.3086 48.9727 19.9961C 49.5039 19.6836 49.9688 19.2695 50.3672 18.7539L 51.6914 19.7852C 50.6289 21.418 49.0352 22.2344 46.9102 22.2344ZM 46.6406 10.8672C 45.7656 10.8672 45.0312 11.1875 44.4375 11.8281C 43.8438 12.4609 43.4766 13.3516 43.3359 14.5L 49.6875 14.5L 49.6875 14.3359C 49.625 13.2344 49.3281 12.3828 48.7969 11.7812C 48.2656 11.1719 47.5469 10.8672 46.6406 10.8672ZM 63.5156 23.7695L 52.7812 23.7695L 52.7812 22L 63.5156 22L 63.5156 23.7695ZM 74.1328 16.2695L 76.5 16.2695L 76.5 18.0391L 74.1328 18.0391L 74.1328 22L 71.9531 22L 71.9531 18.0391L 64.1836 18.0391L 64.1836 16.7617L 71.8242 4.9375L 74.1328 4.9375L 74.1328 16.2695ZM 66.6445 16.2695L 71.9531 16.2695L 71.9531 7.90234L 71.6953 8.37109L 66.6445 16.2695Z"/>
<path id="path6_fill" d="M 12.3516 15.8008C 12.3516 17.7305 11.9102 19.2852 11.0273 20.4648C 10.1445 21.6445 8.94922 22.2344 7.44141 22.2344C 5.90234 22.2344 4.69141 21.7461 3.80859 20.7695L 3.80859 26.875L 1.64062 26.875L 1.64062 9.32031L 3.62109 9.32031L 3.72656 10.7266C 4.60938 9.63281 5.83594 9.08594 7.40625 9.08594C 8.92969 9.08594 10.1328 9.66016 11.0156 10.8086C 11.9062 11.957 12.3516 13.5547 12.3516 15.6016L 12.3516 15.8008ZM 10.1836 15.5547C 10.1836 14.125 9.87891 12.9961 9.26953 12.168C 8.66016 11.3398 7.82422 10.9258 6.76172 10.9258C 5.44922 10.9258 4.46484 11.5078 3.80859 12.6719L 3.80859 18.7305C 4.45703 19.8867 5.44922 20.4648 6.78516 20.4648C 7.82422 20.4648 8.64844 20.0547 9.25781 19.2344C 9.875 18.4063 10.1836 17.1797 10.1836 15.5547ZM 21.2461 11.2656C 20.918 11.2109 20.5625 11.1836 20.1797 11.1836C 18.7578 11.1836 17.793 11.7891 17.2852 13L 17.2852 22L 15.1172 22L 15.1172 9.32031L 17.2266 9.32031L 17.2617 10.7852C 17.9727 9.65234 18.9805 9.08594 20.2852 9.08594C 20.707 9.08594 21.0273 9.14062 21.2461 9.25L 21.2461 11.2656ZM 25.6055 22L 23.4375 22L 23.4375 9.32031L 25.6055 9.32031L 25.6055 22ZM 23.2617 5.95703C 23.2617 5.60547 23.3672 5.30859 23.5781 5.06641C 23.7969 4.82422 24.1172 4.70312 24.5391 4.70312C 24.9609 4.70312 25.2813 4.82422 25.5 5.06641C 25.7187 5.30859 25.8281 5.60547 25.8281 5.95703C 25.8281 6.30859 25.7187 6.60156 25.5 6.83594C 25.2813 7.07031 24.9609 7.1875 24.5391 7.1875C 24.1172 7.1875 23.7969 7.07031 23.5781 6.83594C 23.3672 6.60156 23.2617 6.30859 23.2617 5.95703ZM 34.1719 20.4648C 34.9453 20.4648 35.6211 20.2305 36.1992 19.7617C 36.7773 19.293 37.0977 18.707 37.1602 18.0039L 39.2109 18.0039C 39.1719 18.7305 38.9219 19.4219 38.4609 20.0781C 38 20.7344 37.3828 21.2578 36.6094 21.6484C 35.8438 22.0391 35.0312 22.2344 34.1719 22.2344C 32.4453 22.2344 31.0703 21.6602 30.0469 20.5117C 29.0312 19.3555 28.5234 17.7773 28.5234 15.7773L 28.5234 15.4141C 28.5234 14.1797 28.75 13.082 29.2031 12.1211C 29.6563 11.1602 30.3047 10.4141 31.1484 9.88281C 32 9.35156 33.0039 9.08594 34.1602 9.08594C 35.582 9.08594 36.7617 9.51172 37.6992 10.3633C 38.6445 11.2148 39.1484 12.3203 39.2109 13.6797L 37.1602 13.6797C 37.0977 12.8594 36.7852 12.1875 36.2227 11.6641C 35.668 11.1328 34.9805 10.8672 34.1602 10.8672C 33.0586 10.8672 32.2031 11.2656 31.5938 12.0625C 30.9922 12.8516 30.6914 13.9961 30.6914 15.4961L 30.6914 15.9062C 30.6914 17.3672 30.9922 18.4922 31.5938 19.2812C 32.1953 20.0703 33.0547 20.4648 34.1719 20.4648ZM 46.9102 22.2344C 45.1914 22.2344 43.793 21.6719 42.7148 20.5469C 41.6367 19.4141 41.0977 17.9023 41.0977 16.0117L 41.0977 15.6133C 41.0977 14.3555 41.3359 13.2344 41.8125 12.25C 42.2969 11.2578 42.9688 10.4844 43.8281 9.92969C 44.6953 9.36719 45.6328 9.08594 46.6406 9.08594C 48.2891 9.08594 49.5703 9.62891 50.4844 10.7148C 51.3984 11.8008 51.8555 13.3555 51.8555 15.3789L 51.8555 16.2812L 43.2656 16.2812C 43.2969 17.5312 43.6602 18.543 44.3555 19.3164C 45.0586 20.082 45.9492 20.4648 47.0273 20.4648C 47.793 20.4648 48.4414 20.3086 48.9727 19.9961C 49.5039 19.6836 49.9688 19.2695 50.3672 18.7539L 51.6914 19.7852C 50.6289 21.418 49.0352 22.2344 46.9102 22.2344ZM 46.6406 10.8672C 45.7656 10.8672 45.0312 11.1875 44.4375 11.8281C 43.8438 12.4609 43.4766 13.3516 43.3359 14.5L 49.6875 14.5L 49.6875 14.3359C 49.625 13.2344 49.3281 12.3828 48.7969 11.7812C 48.2656 11.1719 47.5469 10.8672 46.6406 10.8672ZM 63.5156 23.7695L 52.7812 23.7695L 52.7812 22L 63.5156 22L 63.5156 23.7695ZM 65.9766 13.4453L 66.8438 4.9375L 75.5859 4.9375L 75.5859 6.94141L 68.6836 6.94141L 68.168 11.5938C 69.0039 11.1016 69.9531 10.8555 71.0156 10.8555C 72.5703 10.8555 73.8047 11.3711 74.7188 12.4023C 75.6328 13.4258 76.0898 14.8125 76.0898 16.5625C 76.0898 18.3203 75.6133 19.707 74.6602 20.7227C 73.7148 21.7305 72.3906 22.2344 70.6875 22.2344C 69.1797 22.2344 67.9492 21.8164 66.9961 20.9805C 66.043 20.1445 65.5 18.9883 65.3672 17.5117L 67.418 17.5117C 67.5508 18.4883 67.8984 19.2266 68.4609 19.7266C 69.0234 20.2188 69.7656 20.4648 70.6875 20.4648C 71.6953 20.4648 72.4844 20.1211 73.0547 19.4336C 73.6328 18.7461 73.9219 17.7969 73.9219 16.5859C 73.9219 15.4453 73.6094 14.5313 72.9844 13.8438C 72.3672 13.1484 71.543 12.8008 70.5117 12.8008C 69.5664 12.8008 68.8242 13.0078 68.2852 13.4219L 67.7109 13.8906L 65.9766 13.4453Z"/>
<path id="path7_stroke" d="M 25.3536 0.353553C 25.5488 0.158291 25.5488 -0.158291 25.3536 -0.353553L 22.1716 -3.53553C 21.9763 -3.7308 21.6597 -3.7308 21.4645 -3.53553C 21.2692 -3.34027 21.2692 -3.02369 21.4645 -2.82843L 24.2929 0L 21.4645 2.82843C 21.2692 3.02369 21.2692 3.34027 21.4645 3.53553C 21.6597 3.7308 21.9763 3.7308 22.1716 3.53553L 25.3536 0.353553ZM 0 0.5L 25 0.5L 25 -0.5L 0 -0.5L 0 0.5Z"/>
<path id="path8_fill" d="M 4.24219 20.1602L 12.3281 20.1602L 12.3281 22L 1.98047 22L 1.98047 4.9375L 4.24219 4.9375L 4.24219 20.1602ZM 16.9102 22L 14.7422 22L 14.7422 9.32031L 16.9102 9.32031L 16.9102 22ZM 14.5664 5.95703C 14.5664 5.60547 14.6719 5.30859 14.8828 5.06641C 15.1016 4.82422 15.4219 4.70312 15.8438 4.70312C 16.2656 4.70312 16.5859 4.82422 16.8047 5.06641C 17.0234 5.30859 17.1328 5.60547 17.1328 5.95703C 17.1328 6.30859 17.0234 6.60156 16.8047 6.83594C 16.5859 7.07031 16.2656 7.1875 15.8438 7.1875C 15.4219 7.1875 15.1016 7.07031 14.8828 6.83594C 14.6719 6.60156 14.5664 6.30859 14.5664 5.95703ZM 22.4414 9.32031L 22.5117 10.9141C 23.4805 9.69531 24.7461 9.08594 26.3086 9.08594C 28.9883 9.08594 30.3398 10.5977 30.3633 13.6211L 30.3633 22L 28.1953 22L 28.1953 13.6094C 28.1875 12.6953 27.9766 12.0195 27.5625 11.582C 27.1562 11.1445 26.5195 10.9258 25.6523 10.9258C 24.9492 10.9258 24.332 11.1133 23.8008 11.4883C 23.2695 11.8633 22.8555 12.3555 22.5586 12.9648L 22.5586 22L 20.3906 22L 20.3906 9.32031L 22.4414 9.32031ZM 37.1719 16.1289L 35.8125 17.5469L 35.8125 22L 33.6445 22L 33.6445 4L 35.8125 4L 35.8125 14.8867L 36.9727 13.4922L 40.9219 9.32031L 43.5586 9.32031L 38.625 14.6172L 44.1328 22L 41.5898 22L 37.1719 16.1289ZM 50.8242 22.2344C 49.1055 22.2344 47.707 21.6719 46.6289 20.5469C 45.5508 19.4141 45.0117 17.9023 45.0117 16.0117L 45.0117 15.6133C 45.0117 14.3555 45.25 13.2344 45.7266 12.25C 46.2109 11.2578 46.8828 10.4844 47.7422 9.92969C 48.6094 9.36719 49.5469 9.08594 50.5547 9.08594C 52.2031 9.08594 53.4844 9.62891 54.3984 10.7148C 55.3125 11.8008 55.7695 13.3555 55.7695 15.3789L 55.7695 16.2812L 47.1797 16.2812C 47.2109 17.5312 47.5742 18.543 48.2695 19.3164C 48.9727 20.082 49.8633 20.4648 50.9414 20.4648C 51.707 20.4648 52.3555 20.3086 52.8867 19.9961C 53.418 19.6836 53.8828 19.2695 54.2812 18.7539L 55.6055 19.7852C 54.543 21.418 52.9492 22.2344 50.8242 22.2344ZM 50.5547 10.8672C 49.6797 10.8672 48.9453 11.1875 48.3516 11.8281C 47.7578 12.4609 47.3906 13.3516 47.25 14.5L 53.6016 14.5L 53.6016 14.3359C 53.5391 13.2344 53.2422 12.3828 52.7109 11.7812C 52.1797 11.1719 51.4609 10.8672 50.5547 10.8672ZM 57.7617 15.5547C 57.7617 13.6094 58.2227 12.0469 59.1445 10.8672C 60.0664 9.67969 61.2734 9.08594 62.7656 9.08594C 64.25 9.08594 65.4258 9.59375 66.293 10.6094L 66.293 4L 68.4609 4L 68.4609 22L 66.4688 22L 66.3633 20.6406C 65.4961 21.7031 64.2891 22.2344 62.7422 22.2344C 61.2734 22.2344 60.0742 21.6328 59.1445 20.4297C 58.2227 19.2266 57.7617 17.6563 57.7617 15.7188L 57.7617 15.5547ZM 59.9297 15.8008C 59.9297 17.2383 60.2266 18.3633 60.8203 19.1758C 61.4141 19.9883 62.2344 20.3945 63.2812 20.3945C 64.6562 20.3945 65.6602 19.7773 66.293 18.543L 66.293 12.7188C 65.6445 11.5234 64.6484 10.9258 63.3047 10.9258C 62.2422 10.9258 61.4141 11.3359 60.8203 12.1562C 60.2266 12.9766 59.9297 14.1914 59.9297 15.8008ZM 80.3906 20.1602L 88.4766 20.1602L 88.4766 22L 78.1289 22L 78.1289 4.9375L 80.3906 4.9375L 80.3906 20.1602ZM 93.0586 22L 90.8906 22L 90.8906 9.32031L 93.0586 9.32031L 93.0586 22ZM 90.7148 5.95703C 90.7148 5.60547 90.8203 5.30859 91.0312 5.06641C 91.25 4.82422 91.5703 4.70312 91.9922 4.70312C 92.4141 4.70312 92.7344 4.82422 92.9531 5.06641C 93.1719 5.30859 93.2812 5.60547 93.2812 5.95703C 93.2812 6.30859 93.1719 6.60156 92.9531 6.83594C 92.7344 7.07031 92.4141 7.1875 91.9922 7.1875C 91.5703 7.1875 91.25 7.07031 91.0312 6.83594C 90.8203 6.60156 90.7148 6.30859 90.7148 5.95703ZM 103.922 18.6367C 103.922 18.0508 103.699 17.5977 103.254 17.2773C 102.816 16.9492 102.047 16.668 100.945 16.4336C 99.8516 16.1992 98.9805 15.918 98.332 15.5898C 97.6914 15.2617 97.2148 14.8711 96.9023 14.418C 96.5977 13.9648 96.4453 13.4258 96.4453 12.8008C 96.4453 11.7617 96.8828 10.8828 97.7578 10.1641C 98.6406 9.44531 99.7656 9.08594 101.133 9.08594C 102.57 9.08594 103.734 9.45703 104.625 10.1992C 105.523 10.9414 105.973 11.8906 105.973 13.0469L 103.793 13.0469C 103.793 12.4531 103.539 11.9414 103.031 11.5117C 102.531 11.082 101.898 10.8672 101.133 10.8672C 100.344 10.8672 99.7266 11.0391 99.2812 11.3828C 98.8359 11.7266 98.6133 12.1758 98.6133 12.7305C 98.6133 13.2539 98.8203 13.6484 99.2344 13.9141C 99.6484 14.1797 100.395 14.4336 101.473 14.6758C 102.559 14.918 103.438 15.207 104.109 15.543C 104.781 15.8789 105.277 16.2852 105.598 16.7617C 105.926 17.2305 106.09 17.8047 106.09 18.4844C 106.09 19.6172 105.637 20.5273 104.73 21.2148C 103.824 21.8945 102.648 22.2344 101.203 22.2344C 100.188 22.2344 99.2891 22.0547 98.5078 21.6953C 97.7266 21.3359 97.1133 20.8359 96.668 20.1953C 96.2305 19.5469 96.0117 18.8477 96.0117 18.0977L 98.1797 18.0977C 98.2188 18.8242 98.5078 19.4023 99.0469 19.832C 99.5937 20.2539 100.312 20.4648 101.203 20.4648C 102.023 20.4648 102.68 20.3008 103.172 19.9727C 103.672 19.6367 103.922 19.1914 103.922 18.6367ZM 111.855 6.25L 111.855 9.32031L 114.223 9.32031L 114.223 10.9961L 111.855 10.9961L 111.855 18.8594C 111.855 19.3672 111.961 19.75 112.172 20.0078C 112.383 20.2578 112.742 20.3828 113.25 20.3828C 113.5 20.3828 113.844 20.3359 114.281 20.2422L 114.281 22C 113.711 22.1562 113.156 22.2344 112.617 22.2344C 111.648 22.2344 110.918 21.9414 110.426 21.3555C 109.934 20.7695 109.688 19.9375 109.688 18.8594L 109.688 10.9961L 107.379 10.9961L 107.379 9.32031L 109.688 9.32031L 109.688 6.25L 111.855 6.25Z"/>
<path id="path9_stroke" d="M 200.354 0.353553C 200.549 0.158291 200.549 -0.158291 200.354 -0.353553L 197.172 -3.53553C 196.976 -3.7308 196.66 -3.7308 196.464 -3.53553C 196.269 -3.34027 196.269 -3.02369 196.464 -2.82843L 199.293 0L 196.464 2.82843C 196.269 3.02369 196.269 3.34027 196.464 3.53553C 196.66 3.7308 196.976 3.7308 197.172 3.53553L 200.354 0.353553ZM 0 0.5L 200 0.5L 200 -0.5L 0 -0.5L 0 0.5Z"/>
<path id="path10_fill" d="M 12.3516 15.8008C 12.3516 17.7305 11.9102 19.2852 11.0273 20.4648C 10.1445 21.6445 8.94922 22.2344 7.44141 22.2344C 5.90234 22.2344 4.69141 21.7461 3.80859 20.7695L 3.80859 26.875L 1.64062 26.875L 1.64062 9.32031L 3.62109 9.32031L 3.72656 10.7266C 4.60938 9.63281 5.83594 9.08594 7.40625 9.08594C 8.92969 9.08594 10.1328 9.66016 11.0156 10.8086C 11.9062 11.957 12.3516 13.5547 12.3516 15.6016L 12.3516 15.8008ZM 10.1836 15.5547C 10.1836 14.125 9.87891 12.9961 9.26953 12.168C 8.66016 11.3398 7.82422 10.9258 6.76172 10.9258C 5.44922 10.9258 4.46484 11.5078 3.80859 12.6719L 3.80859 18.7305C 4.45703 19.8867 5.44922 20.4648 6.78516 20.4648C 7.82422 20.4648 8.64844 20.0547 9.25781 19.2344C 9.875 18.4062 10.1836 17.1797 10.1836 15.5547ZM 21.2461 11.2656C 20.918 11.2109 20.5625 11.1836 20.1797 11.1836C 18.7578 11.1836 17.793 11.7891 17.2852 13L 17.2852 22L 15.1172 22L 15.1172 9.32031L 17.2266 9.32031L 17.2617 10.7852C 17.9727 9.65234 18.9805 9.08594 20.2852 9.08594C 20.707 9.08594 21.0273 9.14062 21.2461 9.25L 21.2461 11.2656ZM 25.6055 22L 23.4375 22L 23.4375 9.32031L 25.6055 9.32031L 25.6055 22ZM 23.2617 5.95703C 23.2617 5.60547 23.3672 5.30859 23.5781 5.06641C 23.7969 4.82422 24.1172 4.70312 24.5391 4.70312C 24.9609 4.70312 25.2812 4.82422 25.5 5.06641C 25.7188 5.30859 25.8281 5.60547 25.8281 5.95703C 25.8281 6.30859 25.7188 6.60156 25.5 6.83594C 25.2812 7.07031 24.9609 7.1875 24.5391 7.1875C 24.1172 7.1875 23.7969 7.07031 23.5781 6.83594C 23.3672 6.60156 23.2617 6.30859 23.2617 5.95703ZM 34.1719 20.4648C 34.9453 20.4648 35.6211 20.2305 36.1992 19.7617C 36.7773 19.293 37.0977 18.707 37.1602 18.0039L 39.2109 18.0039C 39.1719 18.7305 38.9219 19.4219 38.4609 20.0781C 38 20.7344 37.3828 21.2578 36.6094 21.6484C 35.8438 22.0391 35.0312 22.2344 34.1719 22.2344C 32.4453 22.2344 31.0703 21.6602 30.0469 20.5117C 29.0312 19.3555 28.5234 17.7773 28.5234 15.7773L 28.5234 15.4141C 28.5234 14.1797 28.75 13.082 29.2031 12.1211C 29.6562 11.1602 30.3047 10.4141 31.1484 9.88281C 32 9.35156 33.0039 9.08594 34.1602 9.08594C 35.582 9.08594 36.7617 9.51172 37.6992 10.3633C 38.6445 11.2148 39.1484 12.3203 39.2109 13.6797L 37.1602 13.6797C 37.0977 12.8594 36.7852 12.1875 36.2227 11.6641C 35.668 11.1328 34.9805 10.8672 34.1602 10.8672C 33.0586 10.8672 32.2031 11.2656 31.5938 12.0625C 30.9922 12.8516 30.6914 13.9961 30.6914 15.4961L 30.6914 15.9062C 30.6914 17.3672 30.9922 18.4922 31.5938 19.2812C 32.1953 20.0703 33.0547 20.4648 34.1719 20.4648ZM 46.9102 22.2344C 45.1914 22.2344 43.793 21.6719 42.7148 20.5469C 41.6367 19.4141 41.0977 17.9023 41.0977 16.0117L 41.0977 15.6133C 41.0977 14.3555 41.3359 13.2344 41.8125 12.25C 42.2969 11.2578 42.9688 10.4844 43.8281 9.92969C 44.6953 9.36719 45.6328 9.08594 46.6406 9.08594C 48.2891 9.08594 49.5703 9.62891 50.4844 10.7148C 51.3984 11.8008 51.8555 13.3555 51.8555 15.3789L 51.8555 16.2812L 43.2656 16.2812C 43.2969 17.5312 43.6602 18.543 44.3555 19.3164C 45.0586 20.082 45.9492 20.4648 47.0273 20.4648C 47.793 20.4648 48.4414 20.3086 48.9727 19.9961C 49.5039 19.6836 49.9688 19.2695 50.3672 18.7539L 51.6914 19.7852C 50.6289 21.418 49.0352 22.2344 46.9102 22.2344ZM 46.6406 10.8672C 45.7656 10.8672 45.0312 11.1875 44.4375 11.8281C 43.8438 12.4609 43.4766 13.3516 43.3359 14.5L 49.6875 14.5L 49.6875 14.3359C 49.625 13.2344 49.3281 12.3828 48.7969 11.7812C 48.2656 11.1719 47.5469 10.8672 46.6406 10.8672ZM 63.5156 23.7695L 52.7812 23.7695L 52.7812 22L 63.5156 22L 63.5156 23.7695ZM 72.1055 22L 69.9258 22L 69.9258 7.55078L 65.5547 9.15625L 65.5547 7.1875L 71.7656 4.85547L 72.1055 4.85547L 72.1055 22ZM 78.7266 20.8633C 78.7266 20.4883 78.8359 20.1758 79.0547 19.9258C 79.2812 19.6758 79.6172 19.5508 80.0625 19.5508C 80.5078 19.5508 80.8438 19.6758 81.0703 19.9258C 81.3047 20.1758 81.4219 20.4883 81.4219 20.8633C 81.4219 21.2227 81.3047 21.5234 81.0703 21.7656C 80.8438 22.0078 80.5078 22.1289 80.0625 22.1289C 79.6172 22.1289 79.2812 22.0078 79.0547 21.7656C 78.8359 21.5234 78.7266 21.2227 78.7266 20.8633ZM 87.3633 22L 85.1953 22L 85.1953 9.32031L 87.3633 9.32031L 87.3633 22ZM 85.0195 5.95703C 85.0195 5.60547 85.125 5.30859 85.3359 5.06641C 85.5547 4.82422 85.875 4.70312 86.2969 4.70312C 86.7188 4.70312 87.0391 4.82422 87.2578 5.06641C 87.4766 5.30859 87.5859 5.60547 87.5859 5.95703C 87.5859 6.30859 87.4766 6.60156 87.2578 6.83594C 87.0391 7.07031 86.7188 7.1875 86.2969 7.1875C 85.875 7.1875 85.5547 7.07031 85.3359 6.83594C 85.125 6.60156 85.0195 6.30859 85.0195 5.95703ZM 92.8945 9.32031L 92.9648 10.9141C 93.9336 9.69531 95.1992 9.08594 96.7617 9.08594C 99.4414 9.08594 100.793 10.5977 100.816 13.6211L 100.816 22L 98.6484 22L 98.6484 13.6094C 98.6406 12.6953 98.4297 12.0195 98.0156 11.582C 97.6094 11.1445 96.9727 10.9258 96.1055 10.9258C 95.4023 10.9258 94.7852 11.1133 94.2539 11.4883C 93.7227 11.8633 93.3086 12.3555 93.0117 12.9648L 93.0117 22L 90.8438 22L 90.8438 9.32031L 92.8945 9.32031ZM 111.469 18.6367C 111.469 18.0508 111.246 17.5977 110.801 17.2773C 110.363 16.9492 109.594 16.668 108.492 16.4336C 107.398 16.1992 106.527 15.918 105.879 15.5898C 105.238 15.2617 104.762 14.8711 104.449 14.418C 104.145 13.9648 103.992 13.4258 103.992 12.8008C 103.992 11.7617 104.43 10.8828 105.305 10.1641C 106.188 9.44531 107.312 9.08594 108.68 9.08594C 110.117 9.08594 111.281 9.45703 112.172 10.1992C 113.07 10.9414 113.52 11.8906 113.52 13.0469L 111.34 13.0469C 111.34 12.4531 111.086 11.9414 110.578 11.5117C 110.078 11.082 109.445 10.8672 108.68 10.8672C 107.891 10.8672 107.273 11.0391 106.828 11.3828C 106.383 11.7266 106.16 12.1758 106.16 12.7305C 106.16 13.2539 106.367 13.6484 106.781 13.9141C 107.195 14.1797 107.941 14.4336 109.02 14.6758C 110.105 14.918 110.984 15.207 111.656 15.543C 112.328 15.8789 112.824 16.2852 113.145 16.7617C 113.473 17.2305 113.637 17.8047 113.637 18.4844C 113.637 19.6172 113.184 20.5273 112.277 21.2148C 111.371 21.8945 110.195 22.2344 108.75 22.2344C 107.734 22.2344 106.836 22.0547 106.055 21.6953C 105.273 21.3359 104.66 20.8359 104.215 20.1953C 103.777 19.5469 103.559 18.8477 103.559 18.0977L 105.727 18.0977C 105.766 18.8242 106.055 19.4023 106.594 19.832C 107.141 20.2539 107.859 20.4648 108.75 20.4648C 109.57 20.4648 110.227 20.3008 110.719 19.9727C 111.219 19.6367 111.469 19.1914 111.469 18.6367ZM 121.723 22.2344C 120.004 22.2344 118.605 21.6719 117.527 20.5469C 116.449 19.4141 115.91 17.9023 115.91 16.0117L 115.91 15.6133C 115.91 14.3555 116.148 13.2344 116.625 12.25C 117.109 11.2578 117.781 10.4844 118.641 9.92969C 119.508 9.36719 120.445 9.08594 121.453 9.08594C 123.102 9.08594 124.383 9.62891 125.297 10.7148C 126.211 11.8008 126.668 13.3555 126.668 15.3789L 126.668 16.2812L 118.078 16.2812C 118.109 17.5312 118.473 18.543 119.168 19.3164C 119.871 20.082 120.762 20.4648 121.84 20.4648C 122.605 20.4648 123.254 20.3086 123.785 19.9961C 124.316 19.6836 124.781 19.2695 125.18 18.7539L 126.504 19.7852C 125.441 21.418 123.848 22.2344 121.723 22.2344ZM 121.453 10.8672C 120.578 10.8672 119.844 11.1875 119.25 11.8281C 118.656 12.4609 118.289 13.3516 118.148 14.5L 124.5 14.5L 124.5 14.3359C 124.438 13.2344 124.141 12.3828 123.609 11.7812C 123.078 11.1719 122.359 10.8672 121.453 10.8672ZM 135.316 11.2656C 134.988 11.2109 134.633 11.1836 134.25 11.1836C 132.828 11.1836 131.863 11.7891 131.355 13L 131.355 22L 129.188 22L 129.188 9.32031L 131.297 9.32031L 131.332 10.7852C 132.043 9.65234 133.051 9.08594 134.355 9.08594C 134.777 9.08594 135.098 9.14062 135.316 9.25L 135.316 11.2656ZM 140.848 6.25L 140.848 9.32031L 143.215 9.32031L 143.215 10.9961L 140.848 10.9961L 140.848 18.8594C 140.848 19.3672 140.953 19.75 141.164 20.0078C 141.375 20.2578 141.734 20.3828 142.242 20.3828C 142.492 20.3828 142.836 20.3359 143.273 20.2422L 143.273 22C 142.703 22.1562 142.148 22.2344 141.609 22.2344C 140.641 22.2344 139.91 21.9414 139.418 21.3555C 138.926 20.7695 138.68 19.9375 138.68 18.8594L 138.68 10.9961L 136.371 10.9961L 136.371 9.32031L 138.68 9.32031L 138.68 6.25L 140.848 6.25ZM 145.676 15.0742C 145.676 13.3086 145.91 11.6133 146.379 9.98828C 146.855 8.36328 147.562 6.88672 148.5 5.55859C 149.438 4.23047 150.41 3.29297 151.418 2.74609L 151.863 4.17578C 150.723 5.05078 149.785 6.38672 149.051 8.18359C 148.324 9.98047 147.926 11.9922 147.855 14.2188L 147.844 15.2148C 147.844 18.2305 148.395 20.8477 149.496 23.0664C 150.16 24.3945 150.949 25.4336 151.863 26.1836L 151.418 27.5078C 150.379 26.9297 149.387 25.9609 148.441 24.6016C 146.598 21.9453 145.676 18.7695 145.676 15.0742ZM 164.918 22L 153.738 22L 153.738 20.4414L 159.645 13.8789C 160.52 12.8867 161.121 12.082 161.449 11.4648C 161.785 10.8398 161.953 10.1953 161.953 9.53125C 161.953 8.64062 161.684 7.91016 161.145 7.33984C 160.605 6.76953 159.887 6.48438 158.988 6.48438C 157.91 6.48438 157.07 6.79297 156.469 7.41016C 155.875 8.01953 155.578 8.87109 155.578 9.96484L 153.41 9.96484C 153.41 8.39453 153.914 7.125 154.922 6.15625C 155.938 5.1875 157.293 4.70312 158.988 4.70312C 160.574 4.70312 161.828 5.12109 162.75 5.95703C 163.672 6.78516 164.133 7.89062 164.133 9.27344C 164.133 10.9531 163.062 12.9531 160.922 15.2734L 156.352 20.2305L 164.918 20.2305L 164.918 22ZM 167.367 25.3984L 166.137 24.5547C 166.871 23.5312 167.254 22.4766 167.285 21.3906L 167.285 19.4336L 169.406 19.4336L 169.406 21.1328C 169.406 21.9219 169.211 22.7109 168.82 23.5C 168.438 24.2891 167.953 24.9219 167.367 25.3984ZM 180.434 4.92578L 180.434 6.76562L 180.035 6.76562C 178.348 6.79688 177.004 7.29687 176.004 8.26562C 175.004 9.23438 174.426 10.5977 174.27 12.3555C 175.168 11.3242 176.395 10.8086 177.949 10.8086C 179.434 10.8086 180.617 11.332 181.5 12.3789C 182.391 13.4258 182.836 14.7773 182.836 16.4336C 182.836 18.1914 182.355 19.5977 181.395 20.6523C 180.441 21.707 179.16 22.2344 177.551 22.2344C 175.918 22.2344 174.594 21.6094 173.578 20.3594C 172.562 19.1016 172.055 17.4844 172.055 15.5078L 172.055 14.6758C 172.055 11.5352 172.723 9.13672 174.059 7.48047C 175.402 5.81641 177.398 4.96484 180.047 4.92578L 180.434 4.92578ZM 177.586 12.6133C 176.844 12.6133 176.16 12.8359 175.535 13.2812C 174.91 13.7266 174.477 14.2852 174.234 14.957L 174.234 15.7539C 174.234 17.1602 174.551 18.293 175.184 19.1523C 175.816 20.0117 176.605 20.4414 177.551 20.4414C 178.527 20.4414 179.293 20.082 179.848 19.3633C 180.41 18.6445 180.691 17.7031 180.691 16.5391C 180.691 15.3672 180.406 14.4219 179.836 13.7031C 179.273 12.9766 178.523 12.6133 177.586 12.6133ZM 190.629 15.1914C 190.629 16.9336 190.398 18.6055 189.938 20.207C 189.484 21.8008 188.785 23.2734 187.84 24.625C 186.902 25.9766 185.918 26.9375 184.887 27.5078L 184.43 26.1836C 185.633 25.2617 186.598 23.832 187.324 21.8945C 188.059 19.9492 188.434 17.793 188.449 15.4258L 188.449 15.0508C 188.449 13.4102 188.277 11.8867 187.934 10.4805C 187.59 9.06641 187.109 7.80078 186.492 6.68359C 185.883 5.56641 185.195 4.69531 184.43 4.07031L 184.887 2.74609C 185.918 3.31641 186.898 4.26953 187.828 5.60547C 188.766 6.94141 189.465 8.41406 189.926 10.0234C 190.395 11.6328 190.629 13.3555 190.629 15.1914Z"/>
<path id="path11_stroke" d="M 83.3536 0.353553C 83.5488 0.158291 83.5488 -0.158291 83.3536 -0.353553L 80.1716 -3.53553C 79.9763 -3.7308 79.6597 -3.7308 79.4645 -3.53553C 79.2692 -3.34027 79.2692 -3.02369 79.4645 -2.82843L 82.2929 0L 79.4645 2.82843C 79.2692 3.02369 79.2692 3.34027 79.4645 3.53553C 79.6597 3.7308 79.9763 3.7308 80.1716 3.53553L 83.3536 0.353553ZM 0 0.5L 83 0.5L 83 -0.5L 0 -0.5L 0 0.5Z"/>
<path id="path12_stroke" d="M 136.309 0.353553C 136.505 0.158291 136.505 -0.158291 136.309 -0.353553L 133.127 -3.53553C 132.932 -3.7308 132.616 -3.7308 132.42 -3.53553C 132.225 -3.34027 132.225 -3.02369 132.42 -2.82843L 135.249 0L 132.42 2.82843C 132.225 3.02369 132.225 3.34027 132.42 3.53553C 132.616 3.7308 132.932 3.7308 133.127 3.53553L 136.309 0.353553ZM 0 0.5L 135.956 0.5L 135.956 -0.5L 0 -0.5L 0 0.5Z"/>
<path id="path13_fill" d="M 4.39453 22L 2.14453 22L 2.14453 4.9375L 4.39453 4.9375L 4.39453 22ZM 10.2305 9.32031L 10.3008 10.9141C 11.2695 9.69531 12.5352 9.08594 14.0977 9.08594C 16.7773 9.08594 18.1289 10.5977 18.1523 13.6211L 18.1523 22L 15.9844 22L 15.9844 13.6094C 15.9766 12.6953 15.7656 12.0195 15.3516 11.582C 14.9453 11.1445 14.3086 10.9258 13.4414 10.9258C 12.7383 10.9258 12.1211 11.1133 11.5898 11.4883C 11.0586 11.8633 10.6445 12.3555 10.3477 12.9648L 10.3477 22L 8.17969 22L 8.17969 9.32031L 10.2305 9.32031ZM 28.8047 18.6367C 28.8047 18.0508 28.582 17.5977 28.1367 17.2773C 27.6992 16.9492 26.9297 16.668 25.8281 16.4336C 24.7344 16.1992 23.8633 15.918 23.2148 15.5898C 22.5742 15.2617 22.0977 14.8711 21.7852 14.418C 21.4805 13.9648 21.3281 13.4258 21.3281 12.8008C 21.3281 11.7617 21.7656 10.8828 22.6406 10.1641C 23.5234 9.44531 24.6484 9.08594 26.0156 9.08594C 27.4531 9.08594 28.6172 9.45703 29.5078 10.1992C 30.4062 10.9414 30.8555 11.8906 30.8555 13.0469L 28.6758 13.0469C 28.6758 12.4531 28.4219 11.9414 27.9141 11.5117C 27.4141 11.082 26.7812 10.8672 26.0156 10.8672C 25.2266 10.8672 24.6094 11.0391 24.1641 11.3828C 23.7188 11.7266 23.4961 12.1758 23.4961 12.7305C 23.4961 13.2539 23.7031 13.6484 24.1172 13.9141C 24.5312 14.1797 25.2773 14.4336 26.3555 14.6758C 27.4414 14.918 28.3203 15.207 28.9922 15.543C 29.6641 15.8789 30.1602 16.2852 30.4805 16.7617C 30.8086 17.2305 30.9727 17.8047 30.9727 18.4844C 30.9727 19.6172 30.5195 20.5273 29.6133 21.2148C 28.707 21.8945 27.5312 22.2344 26.0859 22.2344C 25.0703 22.2344 24.1719 22.0547 23.3906 21.6953C 22.6094 21.3359 21.9961 20.8359 21.5508 20.1953C 21.1133 19.5469 20.8945 18.8477 20.8945 18.0977L 23.0625 18.0977C 23.1016 18.8242 23.3906 19.4023 23.9297 19.832C 24.4766 20.2539 25.1953 20.4648 26.0859 20.4648C 26.9062 20.4648 27.5625 20.3008 28.0547 19.9727C 28.5547 19.6367 28.8047 19.1914 28.8047 18.6367ZM 39.0586 22.2344C 37.3398 22.2344 35.9414 21.6719 34.8633 20.5469C 33.7852 19.4141 33.2461 17.9023 33.2461 16.0117L 33.2461 15.6133C 33.2461 14.3555 33.4844 13.2344 33.9609 12.25C 34.4453 11.2578 35.1172 10.4844 35.9766 9.92969C 36.8438 9.36719 37.7812 9.08594 38.7891 9.08594C 40.4375 9.08594 41.7188 9.62891 42.6328 10.7148C 43.5469 11.8008 44.0039 13.3555 44.0039 15.3789L 44.0039 16.2812L 35.4141 16.2812C 35.4453 17.5312 35.8086 18.543 36.5039 19.3164C 37.207 20.082 38.0977 20.4648 39.1758 20.4648C 39.9414 20.4648 40.5898 20.3086 41.1211 19.9961C 41.6523 19.6836 42.1172 19.2695 42.5156 18.7539L 43.8398 19.7852C 42.7773 21.418 41.1836 22.2344 39.0586 22.2344ZM 38.7891 10.8672C 37.9141 10.8672 37.1797 11.1875 36.5859 11.8281C 35.9922 12.4609 35.625 13.3516 35.4844 14.5L 41.8359 14.5L 41.8359 14.3359C 41.7734 13.2344 41.4766 12.3828 40.9453 11.7812C 40.4141 11.1719 39.6953 10.8672 38.7891 10.8672ZM 52.6523 11.2656C 52.3242 11.2109 51.9688 11.1836 51.5859 11.1836C 50.1641 11.1836 49.1992 11.7891 48.6914 13L 48.6914 22L 46.5234 22L 46.5234 9.32031L 48.6328 9.32031L 48.668 10.7852C 49.3789 9.65234 50.3867 9.08594 51.6914 9.08594C 52.1133 9.08594 52.4336 9.14062 52.6523 9.25L 52.6523 11.2656ZM 58.1836 6.25L 58.1836 9.32031L 60.5508 9.32031L 60.5508 10.9961L 58.1836 10.9961L 58.1836 18.8594C 58.1836 19.3672 58.2891 19.75 58.5 20.0078C 58.7109 20.2578 59.0703 20.3828 59.5781 20.3828C 59.8281 20.3828 60.1719 20.3359 60.6094 20.2422L 60.6094 22C 60.0391 22.1562 59.4844 22.2344 58.9453 22.2344C 57.9766 22.2344 57.2461 21.9414 56.7539 21.3555C 56.2617 20.7695 56.0156 19.9375 56.0156 18.8594L 56.0156 10.9961L 53.707 10.9961L 53.707 9.32031L 56.0156 9.32031L 56.0156 6.25L 58.1836 6.25ZM 76.875 22C 76.75 21.75 76.6484 21.3047 76.5703 20.6641C 75.5625 21.7109 74.3594 22.2344 72.9609 22.2344C 71.7109 22.2344 70.6836 21.8828 69.8789 21.1797C 69.082 20.4688 68.6836 19.5703 68.6836 18.4844C 68.6836 17.1641 69.1836 16.1406 70.1836 15.4141C 71.1914 14.6797 72.6055 14.3125 74.4258 14.3125L 76.5352 14.3125L 76.5352 13.3164C 76.5352 12.5586 76.3086 11.957 75.8555 11.5117C 75.4023 11.0586 74.7344 10.832 73.8516 10.832C 73.0781 10.832 72.4297 11.0273 71.9062 11.418C 71.3828 11.8086 71.1211 12.2812 71.1211 12.8359L 68.9414 12.8359C 68.9414 12.2031 69.1641 11.5938 69.6094 11.0078C 70.0625 10.4141 70.6719 9.94531 71.4375 9.60156C 72.2109 9.25781 73.0586 9.08594 73.9805 9.08594C 75.4414 9.08594 76.5859 9.45312 77.4141 10.1875C 78.2422 10.9141 78.6719 11.918 78.7031 13.1992L 78.7031 19.0352C 78.7031 20.1992 78.8516 21.125 79.1484 21.8125L 79.1484 22L 76.875 22ZM 73.2773 20.3477C 73.957 20.3477 74.6016 20.1719 75.2109 19.8203C 75.8203 19.4688 76.2617 19.0117 76.5352 18.4492L 76.5352 15.8477L 74.8359 15.8477C 72.1797 15.8477 70.8516 16.625 70.8516 18.1797C 70.8516 18.8594 71.0781 19.3906 71.5312 19.7734C 71.9844 20.1562 72.5664 20.3477 73.2773 20.3477ZM 90.1055 9.32031L 90.1758 10.9141C 91.1445 9.69531 92.4102 9.08594 93.9727 9.08594C 96.6523 9.08594 98.0039 10.5977 98.0273 13.6211L 98.0273 22L 95.8594 22L 95.8594 13.6094C 95.8516 12.6953 95.6406 12.0195 95.2266 11.582C 94.8203 11.1445 94.1836 10.9258 93.3164 10.9258C 92.6133 10.9258 91.9961 11.1133 91.4648 11.4883C 90.9336 11.8633 90.5195 12.3555 90.2227 12.9648L 90.2227 22L 88.0547 22L 88.0547 9.32031L 90.1055 9.32031ZM 106.559 22.2344C 104.84 22.2344 103.441 21.6719 102.363 20.5469C 101.285 19.4141 100.746 17.9023 100.746 16.0117L 100.746 15.6133C 100.746 14.3555 100.984 13.2344 101.461 12.25C 101.945 11.2578 102.617 10.4844 103.477 9.92969C 104.344 9.36719 105.281 9.08594 106.289 9.08594C 107.938 9.08594 109.219 9.62891 110.133 10.7148C 111.047 11.8008 111.504 13.3555 111.504 15.3789L 111.504 16.2812L 102.914 16.2812C 102.945 17.5312 103.309 18.543 104.004 19.3164C 104.707 20.082 105.598 20.4648 106.676 20.4648C 107.441 20.4648 108.09 20.3086 108.621 19.9961C 109.152 19.6836 109.617 19.2695 110.016 18.7539L 111.34 19.7852C 110.277 21.418 108.684 22.2344 106.559 22.2344ZM 106.289 10.8672C 105.414 10.8672 104.68 11.1875 104.086 11.8281C 103.492 12.4609 103.125 13.3516 102.984 14.5L 109.336 14.5L 109.336 14.3359C 109.273 13.2344 108.977 12.3828 108.445 11.7812C 107.914 11.1719 107.195 10.8672 106.289 10.8672ZM 125.25 19.0117L 127.688 9.32031L 129.855 9.32031L 126.164 22L 124.406 22L 121.324 12.3906L 118.324 22L 116.566 22L 112.887 9.32031L 115.043 9.32031L 117.539 18.8125L 120.492 9.32031L 122.238 9.32031L 125.25 19.0117ZM 142.207 19.0586L 145.348 9.32031L 147.562 9.32031L 143.016 22L 141.363 22L 136.77 9.32031L 138.984 9.32031L 142.207 19.0586ZM 157.289 22C 157.164 21.75 157.062 21.3047 156.984 20.6641C 155.977 21.7109 154.773 22.2344 153.375 22.2344C 152.125 22.2344 151.098 21.8828 150.293 21.1797C 149.496 20.4688 149.098 19.5703 149.098 18.4844C 149.098 17.1641 149.598 16.1406 150.598 15.4141C 151.605 14.6797 153.02 14.3125 154.84 14.3125L 156.949 14.3125L 156.949 13.3164C 156.949 12.5586 156.723 11.957 156.27 11.5117C 155.816 11.0586 155.148 10.832 154.266 10.832C 153.492 10.832 152.844 11.0273 152.32 11.418C 151.797 11.8086 151.535 12.2812 151.535 12.8359L 149.355 12.8359C 149.355 12.2031 149.578 11.5938 150.023 11.0078C 150.477 10.4141 151.086 9.94531 151.852 9.60156C 152.625 9.25781 153.473 9.08594 154.395 9.08594C 155.855 9.08594 157 9.45312 157.828 10.1875C 158.656 10.9141 159.086 11.918 159.117 13.1992L 159.117 19.0352C 159.117 20.1992 159.266 21.125 159.562 21.8125L 159.562 22L 157.289 22ZM 153.691 20.3477C 154.371 20.3477 155.016 20.1719 155.625 19.8203C 156.234 19.4688 156.676 19.0117 156.949 18.4492L 156.949 15.8477L 155.25 15.8477C 152.594 15.8477 151.266 16.625 151.266 18.1797C 151.266 18.8594 151.492 19.3906 151.945 19.7734C 152.398 20.1562 152.98 20.3477 153.691 20.3477ZM 164.871 22L 162.703 22L 162.703 4L 164.871 4L 164.871 22ZM 176.18 20.7461C 175.336 21.7383 174.098 22.2344 172.465 22.2344C 171.113 22.2344 170.082 21.8438 169.371 21.0625C 168.668 20.2734 168.312 19.1094 168.305 17.5703L 168.305 9.32031L 170.473 9.32031L 170.473 17.5117C 170.473 19.4336 171.254 20.3945 172.816 20.3945C 174.473 20.3945 175.574 19.7773 176.121 18.543L 176.121 9.32031L 178.289 9.32031L 178.289 22L 176.227 22L 176.18 20.7461ZM 186.855 22.2344C 185.137 22.2344 183.738 21.6719 182.66 20.5469C 181.582 19.4141 181.043 17.9023 181.043 16.0117L 181.043 15.6133C 181.043 14.3555 181.281 13.2344 181.758 12.25C 182.242 11.2578 182.914 10.4844 183.773 9.92969C 184.641 9.36719 185.578 9.08594 186.586 9.08594C 188.234 9.08594 189.516 9.62891 190.43 10.7148C 191.344 11.8008 191.801 13.3555 191.801 15.3789L 191.801 16.2812L 183.211 16.2812C 183.242 17.5312 183.605 18.543 184.301 19.3164C 185.004 20.082 185.895 20.4648 186.973 20.4648C 187.738 20.4648 188.387 20.3086 188.918 19.9961C 189.449 19.6836 189.914 19.2695 190.312 18.7539L 191.637 19.7852C 190.574 21.418 188.98 22.2344 186.855 22.2344ZM 186.586 10.8672C 185.711 10.8672 184.977 11.1875 184.383 11.8281C 183.789 12.4609 183.422 13.3516 183.281 14.5L 189.633 14.5L 189.633 14.3359C 189.57 13.2344 189.273 12.3828 188.742 11.7812C 188.211 11.1719 187.492 10.8672 186.586 10.8672ZM 200.191 15.0742C 200.191 13.3086 200.426 11.6133 200.895 9.98828C 201.371 8.36328 202.078 6.88672 203.016 5.55859C 203.953 4.23047 204.926 3.29297 205.934 2.74609L 206.379 4.17578C 205.238 5.05078 204.301 6.38672 203.566 8.18359C 202.84 9.98047 202.441 11.9922 202.371 14.2188L 202.359 15.2148C 202.359 18.2305 202.91 20.8477 204.012 23.0664C 204.676 24.3945 205.465 25.4336 206.379 26.1836L 205.934 27.5078C 204.895 26.9297 203.902 25.9609 202.957 24.6016C 201.113 21.9453 200.191 18.7695 200.191 15.0742ZM 216.762 4.92578L 216.762 6.76562L 216.363 6.76562C 214.676 6.79688 213.332 7.29687 212.332 8.26562C 211.332 9.23438 210.754 10.5977 210.598 12.3555C 211.496 11.3242 212.723 10.8086 214.277 10.8086C 215.762 10.8086 216.945 11.332 217.828 12.3789C 218.719 13.4258 219.164 14.7773 219.164 16.4336C 219.164 18.1914 218.684 19.5977 217.723 20.6523C 216.77 21.707 215.488 22.2344 213.879 22.2344C 212.246 22.2344 210.922 21.6094 209.906 20.3594C 208.891 19.1016 208.383 17.4844 208.383 15.5078L 208.383 14.6758C 208.383 11.5352 209.051 9.13672 210.387 7.48047C 211.73 5.81641 213.727 4.96484 216.375 4.92578L 216.762 4.92578ZM 213.914 12.6133C 213.172 12.6133 212.488 12.8359 211.863 13.2812C 211.238 13.7266 210.805 14.2852 210.562 14.957L 210.562 15.7539C 210.562 17.1602 210.879 18.293 211.512 19.1523C 212.145 20.0117 212.934 20.4414 213.879 20.4414C 214.855 20.4414 215.621 20.082 216.176 19.3633C 216.738 18.6445 217.02 17.7031 217.02 16.5391C 217.02 15.3672 216.734 14.4219 216.164 13.7031C 215.602 12.9766 214.852 12.6133 213.914 12.6133ZM 226.957 15.1914C 226.957 16.9336 226.727 18.6055 226.266 20.207C 225.812 21.8008 225.113 23.2734 224.168 24.625C 223.23 25.9766 222.246 26.9375 221.215 27.5078L 220.758 26.1836C 221.961 25.2617 222.926 23.832 223.652 21.8945C 224.387 19.9492 224.762 17.793 224.777 15.4258L 224.777 15.0508C 224.777 13.4102 224.605 11.8867 224.262 10.4805C 223.918 9.06641 223.438 7.80078 222.82 6.68359C 222.211 5.56641 221.523 4.69531 220.758 4.07031L 221.215 2.74609C 222.246 3.31641 223.227 4.26953 224.156 5.60547C 225.094 6.94141 225.793 8.41406 226.254 10.0234C 226.723 11.6328 226.957 13.3555 226.957 15.1914ZM 3.99609 50L 1.82812 50L 1.82812 37.3203L 3.99609 37.3203L 3.99609 50ZM 1.65234 33.957C 1.65234 33.6055 1.75781 33.3086 1.96875 33.0664C 2.1875 32.8242 2.50781 32.7031 2.92969 32.7031C 3.35156 32.7031 3.67188 32.8242 3.89062 33.0664C 4.10938 33.3086 4.21875 33.6055 4.21875 33.957C 4.21875 34.3086 4.10938 34.6016 3.89062 34.8359C 3.67188 35.0703 3.35156 35.1875 2.92969 35.1875C 2.50781 35.1875 2.1875 35.0703 1.96875 34.8359C 1.75781 34.6016 1.65234 34.3086 1.65234 33.957ZM 9.52734 37.3203L 9.59766 38.9141C 10.5664 37.6953 11.832 37.0859 13.3945 37.0859C 16.0742 37.0859 17.4258 38.5977 17.4492 41.6211L 17.4492 50L 15.2812 50L 15.2812 41.6094C 15.2734 40.6953 15.0625 40.0195 14.6484 39.582C 14.2422 39.1445 13.6055 38.9258 12.7383 38.9258C 12.0352 38.9258 11.418 39.1133 10.8867 39.4883C 10.3555 39.8633 9.94141 40.3555 9.64453 40.9648L 9.64453 50L 7.47656 50L 7.47656 37.3203L 9.52734 37.3203ZM 29.6133 34.25L 29.6133 37.3203L 31.9805 37.3203L 31.9805 38.9961L 29.6133 38.9961L 29.6133 46.8594C 29.6133 47.3672 29.7188 47.75 29.9297 48.0078C 30.1406 48.2578 30.5 48.3828 31.0078 48.3828C 31.2578 48.3828 31.6016 48.3359 32.0391 48.2422L 32.0391 50C 31.4688 50.1562 30.9141 50.2344 30.375 50.2344C 29.4062 50.2344 28.6758 49.9414 28.1836 49.3555C 27.6914 48.7695 27.4453 47.9375 27.4453 46.8594L 27.4453 38.9961L 25.1367 38.9961L 25.1367 37.3203L 27.4453 37.3203L 27.4453 34.25L 29.6133 34.25ZM 36.6914 38.8555C 37.6523 37.6758 38.9023 37.0859 40.4414 37.0859C 43.1211 37.0859 44.4727 38.5977 44.4961 41.6211L 44.4961 50L 42.3281 50L 42.3281 41.6094C 42.3203 40.6953 42.1094 40.0195 41.6953 39.582C 41.2891 39.1445 40.6523 38.9258 39.7852 38.9258C 39.082 38.9258 38.4648 39.1133 37.9336 39.4883C 37.4023 39.8633 36.9883 40.3555 36.6914 40.9648L 36.6914 50L 34.5234 50L 34.5234 32L 36.6914 32L 36.6914 38.8555ZM 53.0039 50.2344C 51.2852 50.2344 49.8867 49.6719 48.8086 48.5469C 47.7305 47.4141 47.1914 45.9023 47.1914 44.0117L 47.1914 43.6133C 47.1914 42.3555 47.4297 41.2344 47.9062 40.25C 48.3906 39.2578 49.0625 38.4844 49.9219 37.9297C 50.7891 37.3672 51.7266 37.0859 52.7344 37.0859C 54.3828 37.0859 55.6641 37.6289 56.5781 38.7148C 57.4922 39.8008 57.9492 41.3555 57.9492 43.3789L 57.9492 44.2812L 49.3594 44.2812C 49.3906 45.5312 49.7539 46.543 50.4492 47.3164C 51.1523 48.082 52.043 48.4648 53.1211 48.4648C 53.8867 48.4648 54.5352 48.3086 55.0664 47.9961C 55.5977 47.6836 56.0625 47.2695 56.4609 46.7539L 57.7852 47.7852C 56.7227 49.418 55.1289 50.2344 53.0039 50.2344ZM 52.7344 38.8672C 51.8594 38.8672 51.125 39.1875 50.5312 39.8281C 49.9375 40.4609 49.5703 41.3516 49.4297 42.5L 55.7812 42.5L 55.7812 42.3359C 55.7188 41.2344 55.4219 40.3828 54.8906 39.7812C 54.3594 39.1719 53.6406 38.8672 52.7344 38.8672ZM 73.8047 46.6367C 73.8047 46.0508 73.582 45.5977 73.1367 45.2773C 72.6992 44.9492 71.9297 44.668 70.8281 44.4336C 69.7344 44.1992 68.8633 43.918 68.2148 43.5898C 67.5742 43.2617 67.0977 42.8711 66.7852 42.418C 66.4805 41.9648 66.3281 41.4258 66.3281 40.8008C 66.3281 39.7617 66.7656 38.8828 67.6406 38.1641C 68.5234 37.4453 69.6484 37.0859 71.0156 37.0859C 72.4531 37.0859 73.6172 37.457 74.5078 38.1992C 75.4062 38.9414 75.8555 39.8906 75.8555 41.0469L 73.6758 41.0469C 73.6758 40.4531 73.4219 39.9414 72.9141 39.5117C 72.4141 39.082 71.7812 38.8672 71.0156 38.8672C 70.2266 38.8672 69.6094 39.0391 69.1641 39.3828C 68.7188 39.7266 68.4961 40.1758 68.4961 40.7305C 68.4961 41.2539 68.7031 41.6484 69.1172 41.9141C 69.5312 42.1797 70.2773 42.4336 71.3555 42.6758C 72.4414 42.918 73.3203 43.207 73.9922 43.543C 74.6641 43.8789 75.1602 44.2852 75.4805 44.7617C 75.8086 45.2305 75.9727 45.8047 75.9727 46.4844C 75.9727 47.6172 75.5195 48.5273 74.6133 49.2148C 73.707 49.8945 72.5312 50.2344 71.0859 50.2344C 70.0703 50.2344 69.1719 50.0547 68.3906 49.6953C 67.6094 49.3359 66.9961 48.8359 66.5508 48.1953C 66.1133 47.5469 65.8945 46.8477 65.8945 46.0977L 68.0625 46.0977C 68.1016 46.8242 68.3906 47.4023 68.9297 47.832C 69.4766 48.2539 70.1953 48.4648 71.0859 48.4648C 71.9062 48.4648 72.5625 48.3008 73.0547 47.9727C 73.5547 47.6367 73.8047 47.1914 73.8047 46.6367ZM 84.0586 50.2344C 82.3398 50.2344 80.9414 49.6719 79.8633 48.5469C 78.7852 47.4141 78.2461 45.9023 78.2461 44.0117L 78.2461 43.6133C 78.2461 42.3555 78.4844 41.2344 78.9609 40.25C 79.4453 39.2578 80.1172 38.4844 80.9766 37.9297C 81.8438 37.3672 82.7812 37.0859 83.7891 37.0859C 85.4375 37.0859 86.7188 37.6289 87.6328 38.7148C 88.5469 39.8008 89.0039 41.3555 89.0039 43.3789L 89.0039 44.2812L 80.4141 44.2812C 80.4453 45.5312 80.8086 46.543 81.5039 47.3164C 82.207 48.082 83.0977 48.4648 84.1758 48.4648C 84.9414 48.4648 85.5898 48.3086 86.1211 47.9961C 86.6523 47.6836 87.1172 47.2695 87.5156 46.7539L 88.8398 47.7852C 87.7773 49.418 86.1836 50.2344 84.0586 50.2344ZM 83.7891 38.8672C 82.9141 38.8672 82.1797 39.1875 81.5859 39.8281C 80.9922 40.4609 80.625 41.3516 80.4844 42.5L 86.8359 42.5L 86.8359 42.3359C 86.7734 41.2344 86.4766 40.3828 85.9453 39.7812C 85.4141 39.1719 84.6953 38.8672 83.7891 38.8672ZM 96.6094 48.4648C 97.3828 48.4648 98.0586 48.2305 98.6367 47.7617C 99.2148 47.293 99.5352 46.707 99.5977 46.0039L 101.648 46.0039C 101.609 46.7305 101.359 47.4219 100.898 48.0781C 100.438 48.7344 99.8203 49.2578 99.0469 49.6484C 98.2812 50.0391 97.4688 50.2344 96.6094 50.2344C 94.8828 50.2344 93.5078 49.6602 92.4844 48.5117C 91.4688 47.3555 90.9609 45.7773 90.9609 43.7773L 90.9609 43.4141C 90.9609 42.1797 91.1875 41.082 91.6406 40.1211C 92.0938 39.1602 92.7422 38.4141 93.5859 37.8828C 94.4375 37.3516 95.4414 37.0859 96.5977 37.0859C 98.0195 37.0859 99.1992 37.5117 100.137 38.3633C 101.082 39.2148 101.586 40.3203 101.648 41.6797L 99.5977 41.6797C 99.5352 40.8594 99.2227 40.1875 98.6602 39.6641C 98.1055 39.1328 97.418 38.8672 96.5977 38.8672C 95.4961 38.8672 94.6406 39.2656 94.0312 40.0625C 93.4297 40.8516 93.1289 41.9961 93.1289 43.4961L 93.1289 43.9062C 93.1289 45.3672 93.4297 46.4922 94.0312 47.2812C 94.6328 48.0703 95.4922 48.4648 96.6094 48.4648ZM 103.512 43.543C 103.512 42.3008 103.754 41.1836 104.238 40.1914C 104.73 39.1992 105.41 38.4336 106.277 37.8945C 107.152 37.3555 108.148 37.0859 109.266 37.0859C 110.992 37.0859 112.387 37.6836 113.449 38.8789C 114.52 40.0742 115.055 41.6641 115.055 43.6484L 115.055 43.8008C 115.055 45.0352 114.816 46.1445 114.34 47.1289C 113.871 48.1055 113.195 48.8672 112.312 49.4141C 111.438 49.9609 110.43 50.2344 109.289 50.2344C 107.57 50.2344 106.176 49.6367 105.105 48.4414C 104.043 47.2461 103.512 45.6641 103.512 43.6953L 103.512 43.543ZM 105.691 43.8008C 105.691 45.207 106.016 46.3359 106.664 47.1875C 107.32 48.0391 108.195 48.4648 109.289 48.4648C 110.391 48.4648 111.266 48.0352 111.914 47.1758C 112.562 46.3086 112.887 45.0977 112.887 43.543C 112.887 42.1523 112.555 41.0273 111.891 40.168C 111.234 39.3008 110.359 38.8672 109.266 38.8672C 108.195 38.8672 107.332 39.293 106.676 40.1445C 106.02 40.9961 105.691 42.2148 105.691 43.8008ZM 119.824 37.3203L 119.895 38.9141C 120.863 37.6953 122.129 37.0859 123.691 37.0859C 126.371 37.0859 127.723 38.5977 127.746 41.6211L 127.746 50L 125.578 50L 125.578 41.6094C 125.57 40.6953 125.359 40.0195 124.945 39.582C 124.539 39.1445 123.902 38.9258 123.035 38.9258C 122.332 38.9258 121.715 39.1133 121.184 39.4883C 120.652 39.8633 120.238 40.3555 119.941 40.9648L 119.941 50L 117.773 50L 117.773 37.3203L 119.824 37.3203ZM 130.488 43.5547C 130.488 41.6094 130.949 40.0469 131.871 38.8672C 132.793 37.6797 134 37.0859 135.492 37.0859C 136.977 37.0859 138.152 37.5938 139.02 38.6094L 139.02 32L 141.188 32L 141.188 50L 139.195 50L 139.09 48.6406C 138.223 49.7031 137.016 50.2344 135.469 50.2344C 134 50.2344 132.801 49.6328 131.871 48.4297C 130.949 47.2266 130.488 45.6562 130.488 43.7188L 130.488 43.5547ZM 132.656 43.8008C 132.656 45.2383 132.953 46.3633 133.547 47.1758C 134.141 47.9883 134.961 48.3945 136.008 48.3945C 137.383 48.3945 138.387 47.7773 139.02 46.543L 139.02 40.7188C 138.371 39.5234 137.375 38.9258 136.031 38.9258C 134.969 38.9258 134.141 39.3359 133.547 40.1562C 132.953 40.9766 132.656 42.1914 132.656 43.8008ZM 161.227 43.8008C 161.227 45.7305 160.785 47.2852 159.902 48.4648C 159.02 49.6445 157.824 50.2344 156.316 50.2344C 154.777 50.2344 153.566 49.7461 152.684 48.7695L 152.684 54.875L 150.516 54.875L 150.516 37.3203L 152.496 37.3203L 152.602 38.7266C 153.484 37.6328 154.711 37.0859 156.281 37.0859C 157.805 37.0859 159.008 37.6602 159.891 38.8086C 160.781 39.957 161.227 41.5547 161.227 43.6016L 161.227 43.8008ZM 159.059 43.5547C 159.059 42.125 158.754 40.9961 158.145 40.168C 157.535 39.3398 156.699 38.9258 155.637 38.9258C 154.324 38.9258 153.34 39.5078 152.684 40.6719L 152.684 46.7305C 153.332 47.8867 154.324 48.4648 155.66 48.4648C 156.699 48.4648 157.523 48.0547 158.133 47.2344C 158.75 46.4062 159.059 45.1797 159.059 43.5547ZM 163.418 43.543C 163.418 42.3008 163.66 41.1836 164.145 40.1914C 164.637 39.1992 165.316 38.4336 166.184 37.8945C 167.059 37.3555 168.055 37.0859 169.172 37.0859C 170.898 37.0859 172.293 37.6836 173.355 38.8789C 174.426 40.0742 174.961 41.6641 174.961 43.6484L 174.961 43.8008C 174.961 45.0352 174.723 46.1445 174.246 47.1289C 173.777 48.1055 173.102 48.8672 172.219 49.4141C 171.344 49.9609 170.336 50.2344 169.195 50.2344C 167.477 50.2344 166.082 49.6367 165.012 48.4414C 163.949 47.2461 163.418 45.6641 163.418 43.6953L 163.418 43.543ZM 165.598 43.8008C 165.598 45.207 165.922 46.3359 166.57 47.1875C 167.227 48.0391 168.102 48.4648 169.195 48.4648C 170.297 48.4648 171.172 48.0352 171.82 47.1758C 172.469 46.3086 172.793 45.0977 172.793 43.543C 172.793 42.1523 172.461 41.0273 171.797 40.168C 171.141 39.3008 170.266 38.8672 169.172 38.8672C 168.102 38.8672 167.238 39.293 166.582 40.1445C 165.926 40.9961 165.598 42.2148 165.598 43.8008ZM 185.062 46.6367C 185.062 46.0508 184.84 45.5977 184.395 45.2773C 183.957 44.9492 183.188 44.668 182.086 44.4336C 180.992 44.1992 180.121 43.918 179.473 43.5898C 178.832 43.2617 178.355 42.8711 178.043 42.418C 177.738 41.9648 177.586 41.4258 177.586 40.8008C 177.586 39.7617 178.023 38.8828 178.898 38.1641C 179.781 37.4453 180.906 37.0859 182.273 37.0859C 183.711 37.0859 184.875 37.457 185.766 38.1992C 186.664 38.9414 187.113 39.8906 187.113 41.0469L 184.934 41.0469C 184.934 40.4531 184.68 39.9414 184.172 39.5117C 183.672 39.082 183.039 38.8672 182.273 38.8672C 181.484 38.8672 180.867 39.0391 180.422 39.3828C 179.977 39.7266 179.754 40.1758 179.754 40.7305C 179.754 41.2539 179.961 41.6484 180.375 41.9141C 180.789 42.1797 181.535 42.4336 182.613 42.6758C 183.699 42.918 184.578 43.207 185.25 43.543C 185.922 43.8789 186.418 44.2852 186.738 44.7617C 187.066 45.2305 187.23 45.8047 187.23 46.4844C 187.23 47.6172 186.777 48.5273 185.871 49.2148C 184.965 49.8945 183.789 50.2344 182.344 50.2344C 181.328 50.2344 180.43 50.0547 179.648 49.6953C 178.867 49.3359 178.254 48.8359 177.809 48.1953C 177.371 47.5469 177.152 46.8477 177.152 46.0977L 179.32 46.0977C 179.359 46.8242 179.648 47.4023 180.188 47.832C 180.734 48.2539 181.453 48.4648 182.344 48.4648C 183.164 48.4648 183.82 48.3008 184.312 47.9727C 184.812 47.6367 185.062 47.1914 185.062 46.6367ZM 192.41 50L 190.242 50L 190.242 37.3203L 192.41 37.3203L 192.41 50ZM 190.066 33.957C 190.066 33.6055 190.172 33.3086 190.383 33.0664C 190.602 32.8242 190.922 32.7031 191.344 32.7031C 191.766 32.7031 192.086 32.8242 192.305 33.0664C 192.523 33.3086 192.633 33.6055 192.633 33.957C 192.633 34.3086 192.523 34.6016 192.305 34.8359C 192.086 35.0703 191.766 35.1875 191.344 35.1875C 190.922 35.1875 190.602 35.0703 190.383 34.8359C 190.172 34.6016 190.066 34.3086 190.066 33.957ZM 198.832 34.25L 198.832 37.3203L 201.199 37.3203L 201.199 38.9961L 198.832 38.9961L 198.832 46.8594C 198.832 47.3672 198.938 47.75 199.148 48.0078C 199.359 48.2578 199.719 48.3828 200.227 48.3828C 200.477 48.3828 200.82 48.3359 201.258 48.2422L 201.258 50C 200.688 50.1562 200.133 50.2344 199.594 50.2344C 198.625 50.2344 197.895 49.9414 197.402 49.3555C 196.91 48.7695 196.664 47.9375 196.664 46.8594L 196.664 38.9961L 194.355 38.9961L 194.355 37.3203L 196.664 37.3203L 196.664 34.25L 198.832 34.25ZM 206.098 50L 203.93 50L 203.93 37.3203L 206.098 37.3203L 206.098 50ZM 203.754 33.957C 203.754 33.6055 203.859 33.3086 204.07 33.0664C 204.289 32.8242 204.609 32.7031 205.031 32.7031C 205.453 32.7031 205.773 32.8242 205.992 33.0664C 206.211 33.3086 206.32 33.6055 206.32 33.957C 206.32 34.3086 206.211 34.6016 205.992 34.8359C 205.773 35.0703 205.453 35.1875 205.031 35.1875C 204.609 35.1875 204.289 35.0703 204.07 34.8359C 203.859 34.6016 203.754 34.3086 203.754 33.957ZM 209.004 43.543C 209.004 42.3008 209.246 41.1836 209.73 40.1914C 210.223 39.1992 210.902 38.4336 211.77 37.8945C 212.645 37.3555 213.641 37.0859 214.758 37.0859C 216.484 37.0859 217.879 37.6836 218.941 38.8789C 220.012 40.0742 220.547 41.6641 220.547 43.6484L 220.547 43.8008C 220.547 45.0352 220.309 46.1445 219.832 47.1289C 219.363 48.1055 218.688 48.8672 217.805 49.4141C 216.93 49.9609 215.922 50.2344 214.781 50.2344C 213.062 50.2344 211.668 49.6367 210.598 48.4414C 209.535 47.2461 209.004 45.6641 209.004 43.6953L 209.004 43.543ZM 211.184 43.8008C 211.184 45.207 211.508 46.3359 212.156 47.1875C 212.812 48.0391 213.688 48.4648 214.781 48.4648C 215.883 48.4648 216.758 48.0352 217.406 47.1758C 218.055 46.3086 218.379 45.0977 218.379 43.543C 218.379 42.1523 218.047 41.0273 217.383 40.168C 216.727 39.3008 215.852 38.8672 214.758 38.8672C 213.688 38.8672 212.824 39.293 212.168 40.1445C 211.512 40.9961 211.184 42.2148 211.184 43.8008ZM 225.316 37.3203L 225.387 38.9141C 226.355 37.6953 227.621 37.0859 229.184 37.0859C 231.863 37.0859 233.215 38.5977 233.238 41.6211L 233.238 50L 231.07 50L 231.07 41.6094C 231.062 40.6953 230.852 40.0195 230.438 39.582C 230.031 39.1445 229.395 38.9258 228.527 38.9258C 227.824 38.9258 227.207 39.1133 226.676 39.4883C 226.145 39.8633 225.73 40.3555 225.434 40.9648L 225.434 50L 223.266 50L 223.266 37.3203L 225.316 37.3203ZM 9.46875 79C 9.34375 78.75 9.24219 78.3047 9.16406 77.6641C 8.15625 78.7109 6.95312 79.2344 5.55469 79.2344C 4.30469 79.2344 3.27734 78.8828 2.47266 78.1797C 1.67578 77.4688 1.27734 76.5703 1.27734 75.4844C 1.27734 74.1641 1.77734 73.1406 2.77734 72.4141C 3.78516 71.6797 5.19922 71.3125 7.01953 71.3125L 9.12891 71.3125L 9.12891 70.3164C 9.12891 69.5586 8.90234 68.957 8.44922 68.5117C 7.99609 68.0586 7.32812 67.832 6.44531 67.832C 5.67188 67.832 5.02344 68.0273 4.5 68.418C 3.97656 68.8086 3.71484 69.2812 3.71484 69.8359L 1.53516 69.8359C 1.53516 69.2031 1.75781 68.5938 2.20312 68.0078C 2.65625 67.4141 3.26562 66.9453 4.03125 66.6016C 4.80469 66.2578 5.65234 66.0859 6.57422 66.0859C 8.03516 66.0859 9.17969 66.4531 10.0078 67.1875C 10.8359 67.9141 11.2656 68.918 11.2969 70.1992L 11.2969 76.0352C 11.2969 77.1992 11.4453 78.125 11.7422 78.8125L 11.7422 79L 9.46875 79ZM 5.87109 77.3477C 6.55078 77.3477 7.19531 77.1719 7.80469 76.8203C 8.41406 76.4688 8.85547 76.0117 9.12891 75.4492L 9.12891 72.8477L 7.42969 72.8477C 4.77344 72.8477 3.44531 73.625 3.44531 75.1797C 3.44531 75.8594 3.67188 76.3906 4.125 76.7734C 4.57812 77.1562 5.16016 77.3477 5.87109 77.3477ZM 15.7617 79L 15.7617 67.9961L 13.7578 67.9961L 13.7578 66.3203L 15.7617 66.3203L 15.7617 65.0195C 15.7617 63.6602 16.125 62.6094 16.8516 61.8672C 17.5781 61.125 18.6055 60.7539 19.9336 60.7539C 20.4336 60.7539 20.9297 60.8203 21.4219 60.9531L 21.3047 62.7109C 20.9375 62.6406 20.5469 62.6055 20.1328 62.6055C 19.4297 62.6055 18.8867 62.8125 18.5039 63.2266C 18.1211 63.6328 17.9297 64.2188 17.9297 64.9844L 17.9297 66.3203L 20.6367 66.3203L 20.6367 67.9961L 17.9297 67.9961L 17.9297 79L 15.7617 79ZM 25.9805 63.25L 25.9805 66.3203L 28.3477 66.3203L 28.3477 67.9961L 25.9805 67.9961L 25.9805 75.8594C 25.9805 76.3672 26.0859 76.75 26.2969 77.0078C 26.5078 77.2578 26.8672 77.3828 27.375 77.3828C 27.625 77.3828 27.9688 77.3359 28.4062 77.2422L 28.4062 79C 27.8359 79.1562 27.2812 79.2344 26.7422 79.2344C 25.7734 79.2344 25.043 78.9414 24.5508 78.3555C 24.0586 77.7695 23.8125 76.9375 23.8125 75.8594L 23.8125 67.9961L 21.5039 67.9961L 21.5039 66.3203L 23.8125 66.3203L 23.8125 63.25L 25.9805 63.25ZM 36.1523 79.2344C 34.4336 79.2344 33.0352 78.6719 31.957 77.5469C 30.8789 76.4141 30.3398 74.9023 30.3398 73.0117L 30.3398 72.6133C 30.3398 71.3555 30.5781 70.2344 31.0547 69.25C 31.5391 68.2578 32.2109 67.4844 33.0703 66.9297C 33.9375 66.3672 34.875 66.0859 35.8828 66.0859C 37.5312 66.0859 38.8125 66.6289 39.7266 67.7148C 40.6406 68.8008 41.0977 70.3555 41.0977 72.3789L 41.0977 73.2812L 32.5078 73.2812C 32.5391 74.5312 32.9023 75.543 33.5977 76.3164C 34.3008 77.082 35.1914 77.4648 36.2695 77.4648C 37.0352 77.4648 37.6836 77.3086 38.2148 76.9961C 38.7461 76.6836 39.2109 76.2695 39.6094 75.7539L 40.9336 76.7852C 39.8711 78.418 38.2773 79.2344 36.1523 79.2344ZM 35.8828 67.8672C 35.0078 67.8672 34.2734 68.1875 33.6797 68.8281C 33.0859 69.4609 32.7188 70.3516 32.5781 71.5L 38.9297 71.5L 38.9297 71.3359C 38.8672 70.2344 38.5703 69.3828 38.0391 68.7812C 37.5078 68.1719 36.7891 67.8672 35.8828 67.8672ZM 49.7461 68.2656C 49.418 68.2109 49.0625 68.1836 48.6797 68.1836C 47.2578 68.1836 46.293 68.7891 45.7852 70L 45.7852 79L 43.6172 79L 43.6172 66.3203L 45.7266 66.3203L 45.7617 67.7852C 46.4727 66.6523 47.4805 66.0859 48.7852 66.0859C 49.207 66.0859 49.5273 66.1406 49.7461 66.25L 49.7461 68.2656ZM 68.4141 72.8008C 68.4141 74.7305 67.9727 76.2852 67.0898 77.4648C 66.207 78.6445 65.0117 79.2344 63.5039 79.2344C 61.9648 79.2344 60.7539 78.7461 59.8711 77.7695L 59.8711 83.875L 57.7031 83.875L 57.7031 66.3203L 59.6836 66.3203L 59.7891 67.7266C 60.6719 66.6328 61.8984 66.0859 63.4688 66.0859C 64.9922 66.0859 66.1953 66.6602 67.0781 67.8086C 67.9688 68.957 68.4141 70.5547 68.4141 72.6016L 68.4141 72.8008ZM 66.2461 72.5547C 66.2461 71.125 65.9414 69.9961 65.332 69.168C 64.7227 68.3398 63.8867 67.9258 62.8242 67.9258C 61.5117 67.9258 60.5273 68.5078 59.8711 69.6719L 59.8711 75.7305C 60.5195 76.8867 61.5117 77.4648 62.8477 77.4648C 63.8867 77.4648 64.7109 77.0547 65.3203 76.2344C 65.9375 75.4062 66.2461 74.1797 66.2461 72.5547ZM 77.3086 68.2656C 76.9805 68.2109 76.625 68.1836 76.2422 68.1836C 74.8203 68.1836 73.8555 68.7891 73.3477 70L 73.3477 79L 71.1797 79L 71.1797 66.3203L 73.2891 66.3203L 73.3242 67.7852C 74.0352 66.6523 75.043 66.0859 76.3477 66.0859C 76.7695 66.0859 77.0898 66.1406 77.3086 66.25L 77.3086 68.2656ZM 81.668 79L 79.5 79L 79.5 66.3203L 81.668 66.3203L 81.668 79ZM 79.3242 62.957C 79.3242 62.6055 79.4297 62.3086 79.6406 62.0664C 79.8594 61.8242 80.1797 61.7031 80.6016 61.7031C 81.0234 61.7031 81.3438 61.8242 81.5625 62.0664C 81.7812 62.3086 81.8906 62.6055 81.8906 62.957C 81.8906 63.3086 81.7812 63.6016 81.5625 63.8359C 81.3438 64.0703 81.0234 64.1875 80.6016 64.1875C 80.1797 64.1875 79.8594 64.0703 79.6406 63.8359C 79.4297 63.6016 79.3242 63.3086 79.3242 62.957ZM 90.2344 77.4648C 91.0078 77.4648 91.6836 77.2305 92.2617 76.7617C 92.8398 76.293 93.1602 75.707 93.2227 75.0039L 95.2734 75.0039C 95.2344 75.7305 94.9844 76.4219 94.5234 77.0781C 94.0625 77.7344 93.4453 78.2578 92.6719 78.6484C 91.9062 79.0391 91.0938 79.2344 90.2344 79.2344C 88.5078 79.2344 87.1328 78.6602 86.1094 77.5117C 85.0938 76.3555 84.5859 74.7773 84.5859 72.7773L 84.5859 72.4141C 84.5859 71.1797 84.8125 70.082 85.2656 69.1211C 85.7188 68.1602 86.3672 67.4141 87.2109 66.8828C 88.0625 66.3516 89.0664 66.0859 90.2227 66.0859C 91.6445 66.0859 92.8242 66.5117 93.7617 67.3633C 94.707 68.2148 95.2109 69.3203 95.2734 70.6797L 93.2227 70.6797C 93.1602 69.8594 92.8477 69.1875 92.2852 68.6641C 91.7305 68.1328 91.043 67.8672 90.2227 67.8672C 89.1211 67.8672 88.2656 68.2656 87.6562 69.0625C 87.0547 69.8516 86.7539 70.9961 86.7539 72.4961L 86.7539 72.9062C 86.7539 74.3672 87.0547 75.4922 87.6562 76.2812C 88.2578 77.0703 89.1172 77.4648 90.2344 77.4648ZM 102.973 79.2344C 101.254 79.2344 99.8555 78.6719 98.7773 77.5469C 97.6992 76.4141 97.1602 74.9023 97.1602 73.0117L 97.1602 72.6133C 97.1602 71.3555 97.3984 70.2344 97.875 69.25C 98.3594 68.2578 99.0312 67.4844 99.8906 66.9297C 100.758 66.3672 101.695 66.0859 102.703 66.0859C 104.352 66.0859 105.633 66.6289 106.547 67.7148C 107.461 68.8008 107.918 70.3555 107.918 72.3789L 107.918 73.2812L 99.3281 73.2812C 99.3594 74.5312 99.7227 75.543 100.418 76.3164C 101.121 77.082 102.012 77.4648 103.09 77.4648C 103.855 77.4648 104.504 77.3086 105.035 76.9961C 105.566 76.6836 106.031 76.2695 106.43 75.7539L 107.754 76.7852C 106.691 78.418 105.098 79.2344 102.973 79.2344ZM 102.703 67.8672C 101.828 67.8672 101.094 68.1875 100.5 68.8281C 99.9062 69.4609 99.5391 70.3516 99.3984 71.5L 105.75 71.5L 105.75 71.3359C 105.688 70.2344 105.391 69.3828 104.859 68.7812C 104.328 68.1719 103.609 67.8672 102.703 67.8672ZM 119.578 80.7695L 108.844 80.7695L 108.844 79L 119.578 79L 119.578 80.7695ZM 128.168 79L 125.988 79L 125.988 64.5508L 121.617 66.1562L 121.617 64.1875L 127.828 61.8555L 128.168 61.8555L 128.168 79Z"/>
</defs>
</svg>
