<svg width="514" height="302" viewBox="0 0 514 302" version="1.1" xmlns="http://www.w3.org/2000/svg" xmlns:xlink="http://www.w3.org/1999/xlink" xmlns:figma="http://www.figma.com/figma/ns">
<title>hash_table_array</title>
<desc>Created using Figma</desc>
<g id="Canvas" transform="translate(466 483)" figma:type="canvas">
<g id="&#226;&#128;&#156;xmen&#226;&#128;&#157;" figma:type="text">
<use xlink:href="#path0_fill" transform="translate(-467 -457)"/>
</g>
<g id="Arrow" figma:type="vector">
<use xlink:href="#path1_stroke" transform="matrix(6.12323e-17 1 -1 6.12323e-17 -430 -415)"/>
</g>
<g id="????" figma:type="text">
<use xlink:href="#path2_fill" transform="translate(-453 -339)"/>
</g>
<g id="Arrow 2" figma:type="vector">
<use xlink:href="#path1_stroke" transform="matrix(6.12323e-17 1 -1 6.12323e-17 -430 -295)"/>
</g>
<g id="1" figma:type="text">
<use xlink:href="#path3_fill" transform="translate(-437 -203)"/>
</g>
<g id="Hash Table" figma:type="text">
<use xlink:href="#path4_fill" transform="translate(-147 -487)"/>
</g>
<g id="Rectangle" figma:type="rounded-rectangle">
<use xlink:href="#path5_fill" transform="translate(-247 -429)" fill="#C4C4C4"/>
</g>
<g id="0" figma:type="text">
<use xlink:href="#path6_fill" transform="translate(-229 -418)"/>
</g>
<g id="Rectangle" figma:type="rounded-rectangle">
<use xlink:href="#path5_fill" transform="translate(-197 -429)" fill="#C4C4C4"/>
</g>
<g id="1" figma:type="text">
<use xlink:href="#path3_fill" transform="translate(-179 -418)"/>
</g>
<g id="Rectangle" figma:type="rounded-rectangle">
<use xlink:href="#path5_fill" transform="translate(-197 -429)" fill="#6FCF97"/>
</g>
<g id="1" figma:type="text">
<use xlink:href="#path3_fill" transform="translate(-179 -418)" fill="#F2F2F2"/>
</g>
<g id="Rectangle" figma:type="rounded-rectangle">
<use xlink:href="#path5_fill" transform="translate(-147 -429)" fill="#C4C4C4"/>
</g>
<g id="1" figma:type="text">
<use xlink:href="#path3_fill" transform="translate(-129 -418)"/>
</g>
<g id="Rectangle" figma:type="rounded-rectangle">
<use xlink:href="#path5_fill" transform="translate(-147 -429)" fill="#C4C4C4"/>
</g>
<g id="2" figma:type="text">
<use xlink:href="#path7_fill" transform="translate(-129 -418)"/>
</g>
<g id="Rectangle" figma:type="rounded-rectangle">
<use xlink:href="#path5_fill" transform="translate(-97 -429)" fill="#C4C4C4"/>
</g>
<g id="1" figma:type="text">
<use xlink:href="#path3_fill" transform="translate(-79 -418)"/>
</g>
<g id="Rectangle" figma:type="rounded-rectangle">
<use xlink:href="#path5_fill" transform="translate(-97 -429)" fill="#C4C4C4"/>
</g>
<g id="3" figma:type="text">
<use xlink:href="#path8_fill" transform="translate(-79 -418)"/>
</g>
<g id="Rectangle" figma:type="rounded-rectangle">
<use xlink:href="#path5_fill" transform="translate(-52 -429)" fill="#C4C4C4"/>
</g>
<g id="1" figma:type="text">
<use xlink:href="#path3_fill" transform="translate(-34 -418)"/>
</g>
<g id="Rectangle" figma:type="rounded-rectangle">
<use xlink:href="#path5_fill" transform="translate(-52 -429)" fill="#C4C4C4"/>
</g>
<g id="4" figma:type="text">
<use xlink:href="#path9_fill" transform="translate(-34 -418)"/>
</g>
<g id="Rectangle" figma:type="rounded-rectangle">
<use xlink:href="#path5_fill" transform="translate(-2 -429)" fill="#C4C4C4"/>
</g>
<g id="1" figma:type="text">
<use xlink:href="#path3_fill" transform="translate(16 -418)"/>
</g>
<g id="Rectangle" figma:type="rounded-rectangle">
<use xlink:href="#path5_fill" transform="translate(-2 -429)" fill="#C4C4C4"/>
</g>
<g id="5" figma:type="text">
<use xlink:href="#path10_fill" transform="translate(16 -418)"/>
</g>
<g id="Arrow 4" figma:type="vector">
<use xlink:href="#path11_stroke" transform="matrix(6.12323e-17 -1 1 6.12323e-17 -172 -189)"/>
</g>
<g id="Line" figma:type="line">
<use xlink:href="#path12_stroke" transform="translate(-376 -189)"/>
</g>
</g>
<defs>
<path id="path0_fill" d="M 3.25781 3.77734L 4.5 4.62109C 3.77344 5.61328 3.39844 6.68359 3.375 7.83203L 3.375 9.42578L 1.21875 9.42578L 1.21875 8.06641C 1.21875 7.26953 1.40625 6.48047 1.78125 5.69922C 2.16406 4.91797 2.65625 4.27734 3.25781 3.77734ZM 6.94922 3.77734L 8.19141 4.62109C 7.46484 5.61328 7.08984 6.68359 7.06641 7.83203L 7.06641 9.42578L 4.91016 9.42578L 4.91016 8.06641C 4.91016 7.26953 5.09766 6.48047 5.47266 5.69922C 5.85547 4.91797 6.34766 4.27734 6.94922 3.77734ZM 14.3789 13.9492L 17.1914 9.32031L 19.7227 9.32031L 15.5742 15.5898L 19.8516 22L 17.3438 22L 14.4141 17.2539L 11.4844 22L 8.96484 22L 13.2422 15.5898L 9.09375 9.32031L 11.6016 9.32031L 14.3789 13.9492ZM 24.0703 9.32031L 24.1289 10.7266C 25.0586 9.63281 26.3125 9.08594 27.8906 9.08594C 29.6641 9.08594 30.8711 9.76562 31.5117 11.125C 31.9336 10.5156 32.4805 10.0234 33.1523 9.64844C 33.832 9.27344 34.6328 9.08594 35.5547 9.08594C 38.3359 9.08594 39.75 10.5586 39.7969 13.5039L 39.7969 22L 37.6289 22L 37.6289 13.6328C 37.6289 12.7266 37.4219 12.0508 37.0078 11.6055C 36.5937 11.1523 35.8984 10.9258 34.9219 10.9258C 34.1172 10.9258 33.4492 11.168 32.918 11.6523C 32.3867 12.1289 32.0781 12.7734 31.9922 13.5859L 31.9922 22L 29.8125 22L 29.8125 13.6914C 29.8125 11.8477 28.9102 10.9258 27.1055 10.9258C 25.6836 10.9258 24.7109 11.5313 24.1875 12.7422L 24.1875 22L 22.0195 22L 22.0195 9.32031L 24.0703 9.32031ZM 48.3398 22.2344C 46.6211 22.2344 45.2227 21.6719 44.1445 20.5469C 43.0664 19.4141 42.5273 17.9023 42.5273 16.0117L 42.5273 15.6133C 42.5273 14.3555 42.7656 13.2344 43.2422 12.25C 43.7266 11.2578 44.3984 10.4844 45.2578 9.92969C 46.125 9.36719 47.0625 9.08594 48.0703 9.08594C 49.7188 9.08594 51 9.62891 51.9141 10.7148C 52.8281 11.8008 53.2852 13.3555 53.2852 15.3789L 53.2852 16.2812L 44.6953 16.2812C 44.7266 17.5312 45.0898 18.543 45.7852 19.3164C 46.4883 20.082 47.3789 20.4648 48.457 20.4648C 49.2227 20.4648 49.8711 20.3086 50.4023 19.9961C 50.9336 19.6836 51.3984 19.2695 51.7969 18.7539L 53.1211 19.7852C 52.0586 21.418 50.4648 22.2344 48.3398 22.2344ZM 48.0703 10.8672C 47.1953 10.8672 46.4609 11.1875 45.8672 11.8281C 45.2734 12.4609 44.9062 13.3516 44.7656 14.5L 51.1172 14.5L 51.1172 14.3359C 51.0547 13.2344 50.7578 12.3828 50.2266 11.7812C 49.6953 11.1719 48.9766 10.8672 48.0703 10.8672ZM 57.8555 9.32031L 57.9258 10.9141C 58.8945 9.69531 60.1602 9.08594 61.7227 9.08594C 64.4023 9.08594 65.7539 10.5977 65.7773 13.6211L 65.7773 22L 63.6094 22L 63.6094 13.6094C 63.6016 12.6953 63.3906 12.0195 62.9766 11.582C 62.5703 11.1445 61.9336 10.9258 61.0664 10.9258C 60.3633 10.9258 59.7461 11.1133 59.2148 11.4883C 58.6836 11.8633 58.2695 12.3555 57.9727 12.9648L 57.9727 22L 55.8047 22L 55.8047 9.32031L 57.8555 9.32031ZM 68.1211 9.74219L 66.8906 8.89844C 67.6172 7.88281 67.9922 6.8125 68.0156 5.6875L 68.0156 4L 70.1602 4L 70.1602 5.52344C 70.1523 6.30469 69.957 7.08594 69.5742 7.86719C 69.1992 8.64062 68.7148 9.26563 68.1211 9.74219ZM 71.7188 9.74219L 70.4883 8.89844C 71.2148 7.88281 71.5898 6.8125 71.6133 5.6875L 71.6133 4L 73.7578 4L 73.7578 5.52344C 73.75 6.30469 73.5547 7.08594 73.1719 7.86719C 72.7969 8.64062 72.3125 9.26563 71.7188 9.74219Z"/>
<path id="path1_stroke" d="M 63.3536 0.353553C 63.5488 0.158291 63.5488 -0.158291 63.3536 -0.353553L 60.1716 -3.53553C 59.9763 -3.7308 59.6597 -3.7308 59.4645 -3.53553C 59.2692 -3.34027 59.2692 -3.02369 59.4645 -2.82843L 62.2929 0L 59.4645 2.82843C 59.2692 3.02369 59.2692 3.34027 59.4645 3.53553C 59.6597 3.7308 59.9763 3.7308 60.1716 3.53553L 63.3536 0.353553ZM 0 0.5L 63 0.5L 63 -0.5L 0 -0.5L 0 0.5Z"/>
<path id="path2_fill" d="M 4.18359 17.1953C 4.19922 16.2656 4.30469 15.5312 4.5 14.9922C 4.69531 14.4531 5.09375 13.8555 5.69531 13.1992L 7.23047 11.6172C 7.88672 10.875 8.21484 10.0781 8.21484 9.22656C 8.21484 8.40625 8 7.76563 7.57031 7.30469C 7.14062 6.83594 6.51562 6.60156 5.69531 6.60156C 4.89844 6.60156 4.25781 6.8125 3.77344 7.23438C 3.28906 7.65625 3.04688 8.22266 3.04688 8.93359L 0.878906 8.93359C 0.894531 7.66797 1.34375 6.64844 2.22656 5.875C 3.11719 5.09375 4.27344 4.70312 5.69531 4.70312C 7.17188 4.70312 8.32031 5.10156 9.14062 5.89844C 9.96875 6.6875 10.3828 7.77344 10.3828 9.15625C 10.3828 10.5234 9.75 11.8711 8.48438 13.1992L 7.20703 14.4648C 6.63672 15.0977 6.35156 16.0078 6.35156 17.1953L 4.18359 17.1953ZM 4.08984 20.9102C 4.08984 20.5586 4.19531 20.2656 4.40625 20.0312C 4.625 19.7891 4.94531 19.668 5.36719 19.668C 5.78906 19.668 6.10937 19.7891 6.32812 20.0312C 6.54688 20.2656 6.65625 20.5586 6.65625 20.9102C 6.65625 21.2617 6.54688 21.5547 6.32812 21.7891C 6.10937 22.0156 5.78906 22.1289 5.36719 22.1289C 4.94531 22.1289 4.625 22.0156 4.40625 21.7891C 4.19531 21.5547 4.08984 21.2617 4.08984 20.9102ZM 15.5273 17.1953C 15.543 16.2656 15.6484 15.5312 15.8438 14.9922C 16.0391 14.4531 16.4375 13.8555 17.0391 13.1992L 18.5742 11.6172C 19.2305 10.875 19.5586 10.0781 19.5586 9.22656C 19.5586 8.40625 19.3438 7.76563 18.9141 7.30469C 18.4844 6.83594 17.8594 6.60156 17.0391 6.60156C 16.2422 6.60156 15.6016 6.8125 15.1172 7.23438C 14.6328 7.65625 14.3906 8.22266 14.3906 8.93359L 12.2227 8.93359C 12.2383 7.66797 12.6875 6.64844 13.5703 5.875C 14.4609 5.09375 15.6172 4.70312 17.0391 4.70312C 18.5156 4.70312 19.6641 5.10156 20.4844 5.89844C 21.3125 6.6875 21.7266 7.77344 21.7266 9.15625C 21.7266 10.5234 21.0938 11.8711 19.8281 13.1992L 18.5508 14.4648C 17.9805 15.0977 17.6953 16.0078 17.6953 17.1953L 15.5273 17.1953ZM 15.4336 20.9102C 15.4336 20.5586 15.5391 20.2656 15.75 20.0312C 15.9687 19.7891 16.2891 19.668 16.7109 19.668C 17.1328 19.668 17.4531 19.7891 17.6719 20.0312C 17.8906 20.2656 18 20.5586 18 20.9102C 18 21.2617 17.8906 21.5547 17.6719 21.7891C 17.4531 22.0156 17.1328 22.1289 16.7109 22.1289C 16.2891 22.1289 15.9687 22.0156 15.75 21.7891C 15.5391 21.5547 15.4336 21.2617 15.4336 20.9102ZM 26.8711 17.1953C 26.8867 16.2656 26.9922 15.5312 27.1875 14.9922C 27.3828 14.4531 27.7812 13.8555 28.3828 13.1992L 29.918 11.6172C 30.5742 10.875 30.9023 10.0781 30.9023 9.22656C 30.9023 8.40625 30.6875 7.76563 30.2578 7.30469C 29.8281 6.83594 29.2031 6.60156 28.3828 6.60156C 27.5859 6.60156 26.9453 6.8125 26.4609 7.23438C 25.9766 7.65625 25.7344 8.22266 25.7344 8.93359L 23.5664 8.93359C 23.582 7.66797 24.0312 6.64844 24.9141 5.875C 25.8047 5.09375 26.9609 4.70312 28.3828 4.70312C 29.8594 4.70312 31.0078 5.10156 31.8281 5.89844C 32.6563 6.6875 33.0703 7.77344 33.0703 9.15625C 33.0703 10.5234 32.4375 11.8711 31.1719 13.1992L 29.8945 14.4648C 29.3242 15.0977 29.0391 16.0078 29.0391 17.1953L 26.8711 17.1953ZM 26.7773 20.9102C 26.7773 20.5586 26.8828 20.2656 27.0938 20.0312C 27.3125 19.7891 27.6328 19.668 28.0547 19.668C 28.4766 19.668 28.7969 19.7891 29.0156 20.0312C 29.2344 20.2656 29.3438 20.5586 29.3438 20.9102C 29.3438 21.2617 29.2344 21.5547 29.0156 21.7891C 28.7969 22.0156 28.4766 22.1289 28.0547 22.1289C 27.6328 22.1289 27.3125 22.0156 27.0938 21.7891C 26.8828 21.5547 26.7773 21.2617 26.7773 20.9102ZM 38.2148 17.1953C 38.2305 16.2656 38.3359 15.5312 38.5312 14.9922C 38.7266 14.4531 39.125 13.8555 39.7266 13.1992L 41.2617 11.6172C 41.918 10.875 42.2461 10.0781 42.2461 9.22656C 42.2461 8.40625 42.0313 7.76563 41.6016 7.30469C 41.1719 6.83594 40.5469 6.60156 39.7266 6.60156C 38.9297 6.60156 38.2891 6.8125 37.8047 7.23438C 37.3203 7.65625 37.0781 8.22266 37.0781 8.93359L 34.9102 8.93359C 34.9258 7.66797 35.375 6.64844 36.2578 5.875C 37.1484 5.09375 38.3047 4.70312 39.7266 4.70312C 41.2031 4.70312 42.3516 5.10156 43.1719 5.89844C 44 6.6875 44.4141 7.77344 44.4141 9.15625C 44.4141 10.5234 43.7812 11.8711 42.5156 13.1992L 41.2383 14.4648C 40.668 15.0977 40.3828 16.0078 40.3828 17.1953L 38.2148 17.1953ZM 38.1211 20.9102C 38.1211 20.5586 38.2266 20.2656 38.4375 20.0312C 38.6562 19.7891 38.9766 19.668 39.3984 19.668C 39.8203 19.668 40.1406 19.7891 40.3594 20.0312C 40.5781 20.2656 40.6875 20.5586 40.6875 20.9102C 40.6875 21.2617 40.5781 21.5547 40.3594 21.7891C 40.1406 22.0156 39.8203 22.1289 39.3984 22.1289C 38.9766 22.1289 38.6562 22.0156 38.4375 21.7891C 38.2266 21.5547 38.1211 21.2617 38.1211 20.9102Z"/>
<path id="path3_fill" d="M 8.54297 22L 6.36328 22L 6.36328 7.55078L 1.99219 9.15625L 1.99219 7.1875L 8.20312 4.85547L 8.54297 4.85547L 8.54297 22Z"/>
<path id="path4_fill" d="M 15.0938 22L 12.832 22L 12.832 14.1133L 4.23047 14.1133L 4.23047 22L 1.98047 22L 1.98047 4.9375L 4.23047 4.9375L 4.23047 12.2734L 12.832 12.2734L 12.832 4.9375L 15.0938 4.9375L 15.0938 22ZM 26.5781 22C 26.4531 21.75 26.3516 21.3047 26.2734 20.6641C 25.2656 21.7109 24.0625 22.2344 22.6641 22.2344C 21.4141 22.2344 20.3867 21.8828 19.582 21.1797C 18.7852 20.4687 18.3867 19.5703 18.3867 18.4844C 18.3867 17.1641 18.8867 16.1406 19.8867 15.4141C 20.8945 14.6797 22.3086 14.3125 24.1289 14.3125L 26.2383 14.3125L 26.2383 13.3164C 26.2383 12.5586 26.0117 11.957 25.5586 11.5117C 25.1055 11.0586 24.4375 10.832 23.5547 10.832C 22.7812 10.832 22.1328 11.0273 21.6094 11.418C 21.0859 11.8086 20.8242 12.2813 20.8242 12.8359L 18.6445 12.8359C 18.6445 12.2031 18.8672 11.5938 19.3125 11.0078C 19.7656 10.4141 20.375 9.94531 21.1406 9.60156C 21.9141 9.25781 22.7617 9.08594 23.6836 9.08594C 25.1445 9.08594 26.2891 9.45313 27.1172 10.1875C 27.9453 10.9141 28.375 11.918 28.4062 13.1992L 28.4062 19.0352C 28.4062 20.1992 28.5547 21.125 28.8516 21.8125L 28.8516 22L 26.5781 22ZM 22.9805 20.3477C 23.6602 20.3477 24.3047 20.1719 24.9141 19.8203C 25.5234 19.4688 25.9648 19.0117 26.2383 18.4492L 26.2383 15.8477L 24.5391 15.8477C 21.8828 15.8477 20.5547 16.625 20.5547 18.1797C 20.5547 18.8594 20.7813 19.3906 21.2344 19.7734C 21.6875 20.1563 22.2695 20.3477 22.9805 20.3477ZM 39.1875 18.6367C 39.1875 18.0508 38.9648 17.5977 38.5195 17.2773C 38.082 16.9492 37.3125 16.668 36.2109 16.4336C 35.1172 16.1992 34.2461 15.918 33.5977 15.5898C 32.957 15.2617 32.4805 14.8711 32.168 14.418C 31.8633 13.9648 31.7109 13.4258 31.7109 12.8008C 31.7109 11.7617 32.1484 10.8828 33.0234 10.1641C 33.9063 9.44531 35.0313 9.08594 36.3984 9.08594C 37.8359 9.08594 39 9.45703 39.8906 10.1992C 40.7891 10.9414 41.2383 11.8906 41.2383 13.0469L 39.0586 13.0469C 39.0586 12.4531 38.8047 11.9414 38.2969 11.5117C 37.7969 11.082 37.1641 10.8672 36.3984 10.8672C 35.6094 10.8672 34.9922 11.0391 34.5469 11.3828C 34.1016 11.7266 33.8789 12.1758 33.8789 12.7305C 33.8789 13.2539 34.0859 13.6484 34.5 13.9141C 34.9141 14.1797 35.6602 14.4336 36.7383 14.6758C 37.8242 14.918 38.7031 15.207 39.375 15.543C 40.0469 15.8789 40.543 16.2852 40.8633 16.7617C 41.1914 17.2305 41.3555 17.8047 41.3555 18.4844C 41.3555 19.6172 40.9023 20.5273 39.9961 21.2148C 39.0898 21.8945 37.9141 22.2344 36.4688 22.2344C 35.4531 22.2344 34.5547 22.0547 33.7734 21.6953C 32.9922 21.3359 32.3789 20.8359 31.9336 20.1953C 31.4961 19.5469 31.2773 18.8477 31.2773 18.0977L 33.4453 18.0977C 33.4844 18.8242 33.7734 19.4023 34.3125 19.832C 34.8594 20.2539 35.5781 20.4648 36.4688 20.4648C 37.2891 20.4648 37.9453 20.3008 38.4375 19.9727C 38.9375 19.6367 39.1875 19.1914 39.1875 18.6367ZM 46.3477 10.8555C 47.3086 9.67578 48.5586 9.08594 50.0977 9.08594C 52.7773 9.08594 54.1289 10.5977 54.1523 13.6211L 54.1523 22L 51.9844 22L 51.9844 13.6094C 51.9766 12.6953 51.7656 12.0195 51.3516 11.582C 50.9453 11.1445 50.3086 10.9258 49.4414 10.9258C 48.7383 10.9258 48.1211 11.1133 47.5898 11.4883C 47.0586 11.8633 46.6445 12.3555 46.3477 12.9648L 46.3477 22L 44.1797 22L 44.1797 4L 46.3477 4L 46.3477 10.8555ZM 75.0117 6.78906L 69.5273 6.78906L 69.5273 22L 67.2891 22L 67.2891 6.78906L 61.8164 6.78906L 61.8164 4.9375L 75.0117 4.9375L 75.0117 6.78906ZM 83.6953 22C 83.5703 21.75 83.4688 21.3047 83.3906 20.6641C 82.3828 21.7109 81.1797 22.2344 79.7812 22.2344C 78.5313 22.2344 77.5039 21.8828 76.6992 21.1797C 75.9023 20.4687 75.5039 19.5703 75.5039 18.4844C 75.5039 17.1641 76.0039 16.1406 77.0039 15.4141C 78.0117 14.6797 79.4258 14.3125 81.2461 14.3125L 83.3555 14.3125L 83.3555 13.3164C 83.3555 12.5586 83.1289 11.957 82.6758 11.5117C 82.2227 11.0586 81.5547 10.832 80.6719 10.832C 79.8984 10.832 79.25 11.0273 78.7266 11.418C 78.2031 11.8086 77.9414 12.2813 77.9414 12.8359L 75.7617 12.8359C 75.7617 12.2031 75.9844 11.5938 76.4297 11.0078C 76.8828 10.4141 77.4922 9.94531 78.2578 9.60156C 79.0312 9.25781 79.8789 9.08594 80.8008 9.08594C 82.2617 9.08594 83.4062 9.45313 84.2344 10.1875C 85.0625 10.9141 85.4922 11.918 85.5234 13.1992L 85.5234 19.0352C 85.5234 20.1992 85.6719 21.125 85.9688 21.8125L 85.9688 22L 83.6953 22ZM 80.0977 20.3477C 80.7773 20.3477 81.4219 20.1719 82.0312 19.8203C 82.6406 19.4688 83.082 19.0117 83.3555 18.4492L 83.3555 15.8477L 81.6562 15.8477C 79 15.8477 77.6719 16.625 77.6719 18.1797C 77.6719 18.8594 77.8984 19.3906 78.3516 19.7734C 78.8047 20.1563 79.3867 20.3477 80.0977 20.3477ZM 99.6562 15.8008C 99.6562 17.7383 99.2109 19.2969 98.3203 20.4766C 97.4297 21.6484 96.2344 22.2344 94.7344 22.2344C 93.1328 22.2344 91.8945 21.668 91.0195 20.5352L 90.9141 22L 88.9219 22L 88.9219 4L 91.0898 4L 91.0898 10.7148C 91.9648 9.62891 93.1719 9.08594 94.7109 9.08594C 96.25 9.08594 97.457 9.66797 98.332 10.832C 99.2148 11.9961 99.6562 13.5898 99.6562 15.6133L 99.6562 15.8008ZM 97.4883 15.5547C 97.4883 14.0781 97.2031 12.9375 96.6328 12.1328C 96.0625 11.3281 95.2422 10.9258 94.1719 10.9258C 92.7422 10.9258 91.7148 11.5898 91.0898 12.918L 91.0898 18.4023C 91.7539 19.7305 92.7891 20.3945 94.1953 20.3945C 95.2344 20.3945 96.043 19.9922 96.6211 19.1875C 97.1992 18.3828 97.4883 17.1719 97.4883 15.5547ZM 104.754 22L 102.586 22L 102.586 4L 104.754 4L 104.754 22ZM 113.496 22.2344C 111.777 22.2344 110.379 21.6719 109.301 20.5469C 108.223 19.4141 107.684 17.9023 107.684 16.0117L 107.684 15.6133C 107.684 14.3555 107.922 13.2344 108.398 12.25C 108.883 11.2578 109.555 10.4844 110.414 9.92969C 111.281 9.36719 112.219 9.08594 113.227 9.08594C 114.875 9.08594 116.156 9.62891 117.07 10.7148C 117.984 11.8008 118.441 13.3555 118.441 15.3789L 118.441 16.2812L 109.852 16.2812C 109.883 17.5312 110.246 18.543 110.941 19.3164C 111.645 20.082 112.535 20.4648 113.613 20.4648C 114.379 20.4648 115.027 20.3086 115.559 19.9961C 116.09 19.6836 116.555 19.2695 116.953 18.7539L 118.277 19.7852C 117.215 21.418 115.621 22.2344 113.496 22.2344ZM 113.227 10.8672C 112.352 10.8672 111.617 11.1875 111.023 11.8281C 110.43 12.4609 110.062 13.3516 109.922 14.5L 116.273 14.5L 116.273 14.3359C 116.211 13.2344 115.914 12.3828 115.383 11.7812C 114.852 11.1719 114.133 10.8672 113.227 10.8672Z"/>
<path id="path5_fill" d="M 0 0L 50 0L 50 50L 0 50L 0 0Z"/>
<path id="path6_fill" d="M 12.1172 14.7227C 12.1172 17.2617 11.6836 19.1484 10.8164 20.3828C 9.94922 21.6172 8.59375 22.2344 6.75 22.2344C 4.92969 22.2344 3.58203 21.6328 2.70703 20.4297C 1.83203 19.2188 1.37891 17.4141 1.34766 15.0156L 1.34766 12.1211C 1.34766 9.61328 1.78125 7.75 2.64844 6.53125C 3.51562 5.3125 4.875 4.70312 6.72656 4.70312C 8.5625 4.70312 9.91406 5.29297 10.7812 6.47266C 11.6484 7.64453 12.0938 9.45703 12.1172 11.9102L 12.1172 14.7227ZM 9.94922 11.7578C 9.94922 9.92188 9.69141 8.58594 9.17578 7.75C 8.66016 6.90625 7.84375 6.48438 6.72656 6.48438C 5.61719 6.48438 4.80859 6.90234 4.30078 7.73828C 3.79297 8.57422 3.53125 9.85938 3.51562 11.5938L 3.51562 15.0625C 3.51562 16.9063 3.78125 18.2695 4.3125 19.1523C 4.85156 20.0273 5.66406 20.4648 6.75 20.4648C 7.82031 20.4648 8.61328 20.0508 9.12891 19.2227C 9.65234 18.3945 9.92578 17.0898 9.94922 15.3086L 9.94922 11.7578Z"/>
<path id="path7_fill" d="M 12.5977 22L 1.41797 22L 1.41797 20.4414L 7.32422 13.8789C 8.19922 12.8867 8.80078 12.082 9.12891 11.4648C 9.46484 10.8398 9.63281 10.1953 9.63281 9.53125C 9.63281 8.64062 9.36328 7.91016 8.82422 7.33984C 8.28516 6.76953 7.56641 6.48438 6.66797 6.48438C 5.58984 6.48438 4.75 6.79297 4.14844 7.41016C 3.55469 8.01953 3.25781 8.87109 3.25781 9.96484L 1.08984 9.96484C 1.08984 8.39453 1.59375 7.125 2.60156 6.15625C 3.61719 5.1875 4.97266 4.70312 6.66797 4.70312C 8.25391 4.70312 9.50781 5.12109 10.4297 5.95703C 11.3516 6.78516 11.8125 7.89062 11.8125 9.27344C 11.8125 10.9531 10.7422 12.9531 8.60156 15.2734L 4.03125 20.2305L 12.5977 20.2305L 12.5977 22Z"/>
<path id="path8_fill" d="M 4.57031 12.4141L 6.19922 12.4141C 7.22266 12.3984 8.02734 12.1289 8.61328 11.6055C 9.19922 11.082 9.49219 10.375 9.49219 9.48438C 9.49219 7.48438 8.49609 6.48438 6.50391 6.48438C 5.56641 6.48438 4.81641 6.75391 4.25391 7.29297C 3.69922 7.82422 3.42188 8.53125 3.42188 9.41406L 1.25391 9.41406C 1.25391 8.0625 1.74609 6.94141 2.73047 6.05078C 3.72266 5.15234 4.98047 4.70312 6.50391 4.70312C 8.11328 4.70312 9.375 5.12891 10.2891 5.98047C 11.2031 6.83203 11.6602 8.01562 11.6602 9.53125C 11.6602 10.2734 11.418 10.9922 10.9336 11.6875C 10.457 12.3828 9.80469 12.9023 8.97656 13.2461C 9.91406 13.543 10.6367 14.0352 11.1445 14.7227C 11.6602 15.4102 11.918 16.25 11.918 17.2422C 11.918 18.7734 11.418 19.9883 10.418 20.8867C 9.41797 21.7852 8.11719 22.2344 6.51562 22.2344C 4.91406 22.2344 3.60938 21.8008 2.60156 20.9336C 1.60156 20.0664 1.10156 18.9219 1.10156 17.5L 3.28125 17.5C 3.28125 18.3984 3.57422 19.1172 4.16016 19.6562C 4.74609 20.1953 5.53125 20.4648 6.51562 20.4648C 7.5625 20.4648 8.36328 20.1914 8.91797 19.6445C 9.47266 19.0977 9.75 18.3125 9.75 17.2891C 9.75 16.2969 9.44531 15.5352 8.83594 15.0039C 8.22656 14.4727 7.34766 14.1992 6.19922 14.1836L 4.57031 14.1836L 4.57031 12.4141Z"/>
<path id="path9_fill" d="M 10.5703 16.2695L 12.9375 16.2695L 12.9375 18.0391L 10.5703 18.0391L 10.5703 22L 8.39062 22L 8.39062 18.0391L 0.621094 18.0391L 0.621094 16.7617L 8.26172 4.9375L 10.5703 4.9375L 10.5703 16.2695ZM 3.08203 16.2695L 8.39062 16.2695L 8.39062 7.90234L 8.13281 8.37109L 3.08203 16.2695Z"/>
<path id="path10_fill" d="M 2.41406 13.4453L 3.28125 4.9375L 12.0234 4.9375L 12.0234 6.94141L 5.12109 6.94141L 4.60547 11.5938C 5.44141 11.1016 6.39062 10.8555 7.45312 10.8555C 9.00781 10.8555 10.2422 11.3711 11.1562 12.4023C 12.0703 13.4258 12.5273 14.8125 12.5273 16.5625C 12.5273 18.3203 12.0508 19.707 11.0977 20.7227C 10.1523 21.7305 8.82812 22.2344 7.125 22.2344C 5.61719 22.2344 4.38672 21.8164 3.43359 20.9805C 2.48047 20.1445 1.9375 18.9883 1.80469 17.5117L 3.85547 17.5117C 3.98828 18.4883 4.33594 19.2266 4.89844 19.7266C 5.46094 20.2188 6.20312 20.4648 7.125 20.4648C 8.13281 20.4648 8.92187 20.1211 9.49219 19.4336C 10.0703 18.7461 10.3594 17.7969 10.3594 16.5859C 10.3594 15.4453 10.0469 14.5313 9.42188 13.8438C 8.80469 13.1484 7.98047 12.8008 6.94922 12.8008C 6.00391 12.8008 5.26172 13.0078 4.72266 13.4219L 4.14844 13.8906L 2.41406 13.4453Z"/>
<path id="path11_stroke" d="M 171.354 0.353553C 171.549 0.158291 171.549 -0.158291 171.354 -0.353553L 168.172 -3.53553C 167.976 -3.7308 167.66 -3.7308 167.464 -3.53553C 167.269 -3.34027 167.269 -3.02369 167.464 -2.82843L 170.293 0L 167.464 2.82843C 167.269 3.02369 167.269 3.34027 167.464 3.53553C 167.66 3.7308 167.976 3.7308 168.172 3.53553L 171.354 0.353553ZM 0 0.5L 171 0.5L 171 -0.5L 0 -0.5L 0 0.5Z"/>
<path id="path12_stroke" d="M 0 0L 204 0L 204 -1L 0 -1L 0 0Z"/>
</defs>
</svg>
