<svg width="600" height="189" viewBox="0 0 600 189" version="1.1" xmlns="http://www.w3.org/2000/svg" xmlns:xlink="http://www.w3.org/1999/xlink" xmlns:figma="http://www.figma.com/figma/ns">
<title>hash_table_init</title>
<desc>Created using Figma</desc>
<g id="Canvas" transform="translate(628 713)" figma:type="canvas">
<g id="Hash Table" figma:type="text">
<use xlink:href="#path0_fill" transform="translate(-388 -717)"/>
</g>
<g id="Rectangle" figma:type="rounded-rectangle">
<use xlink:href="#path1_fill" transform="translate(-528 -656)" fill="#C4C4C4"/>
<mask id="mask0_outline_ins">
<use xlink:href="#path1_fill" fill="white" transform="translate(-528 -656)"/>
</mask>
<g mask="url(#mask0_outline_ins)">
<use xlink:href="#path2_stroke_2x" transform="translate(-528 -656)"/>
</g>
</g>
<g id="Rectangle" figma:type="rounded-rectangle">
<use xlink:href="#path3_fill" transform="translate(-428 -656)" fill="#C4C4C4"/>
</g>
<g id="1" figma:type="text">
<use xlink:href="#path4_fill" transform="translate(-410 -645)"/>
</g>
<g id="Rectangle" figma:type="rounded-rectangle">
<use xlink:href="#path1_fill" transform="translate(-428 -656)" fill="#C4C4C4"/>
<mask id="mask1_outline_ins">
<use xlink:href="#path1_fill" fill="white" transform="translate(-428 -656)"/>
</mask>
<g mask="url(#mask1_outline_ins)">
<use xlink:href="#path2_stroke_2x" transform="translate(-428 -656)"/>
</g>
</g>
<g id="1" figma:type="text">
<use xlink:href="#path4_fill" transform="translate(-485 -547)" fill="#333333"/>
</g>
<g id="Rectangle" figma:type="rounded-rectangle">
<use xlink:href="#path1_fill" transform="translate(-628 -656)" fill="#C4C4C4"/>
<mask id="mask2_outline_ins">
<use xlink:href="#path1_fill" fill="white" transform="translate(-628 -656)"/>
</mask>
<g mask="url(#mask2_outline_ins)">
<use xlink:href="#path2_stroke_2x" transform="translate(-628 -656)"/>
</g>
</g>
<g id="0" figma:type="text">
<use xlink:href="#path5_fill" transform="translate(-585 -547)" fill="#333333"/>
</g>
<g id="Rectangle" figma:type="rounded-rectangle">
<use xlink:href="#path1_fill" transform="translate(-328 -656)" fill="#C4C4C4"/>
<mask id="mask3_outline_ins">
<use xlink:href="#path1_fill" fill="white" transform="translate(-328 -656)"/>
</mask>
<g mask="url(#mask3_outline_ins)">
<use xlink:href="#path2_stroke_2x" transform="translate(-328 -656)"/>
</g>
</g>
<g id="Rectangle" figma:type="rounded-rectangle">
<use xlink:href="#path1_fill" transform="translate(-228 -656)" fill="#C4C4C4"/>
<mask id="mask4_outline_ins">
<use xlink:href="#path1_fill" fill="white" transform="translate(-228 -656)"/>
</mask>
<g mask="url(#mask4_outline_ins)">
<use xlink:href="#path2_stroke_2x" transform="translate(-228 -656)"/>
</g>
</g>
<g id="Rectangle" figma:type="rounded-rectangle">
<use xlink:href="#path1_fill" transform="translate(-128 -656)" fill="#C4C4C4"/>
<mask id="mask5_outline_ins">
<use xlink:href="#path1_fill" fill="white" transform="translate(-128 -656)"/>
</mask>
<g mask="url(#mask5_outline_ins)">
<use xlink:href="#path2_stroke_2x" transform="translate(-128 -656)"/>
</g>
</g>
<g id="2" figma:type="text">
<use xlink:href="#path6_fill" transform="translate(-385 -547)"/>
</g>
<g id="3" figma:type="text">
<use xlink:href="#path7_fill" transform="translate(-285 -547)"/>
</g>
<g id="4" figma:type="text">
<use xlink:href="#path8_fill" transform="translate(-185 -547)"/>
</g>
<g id="5" figma:type="text">
<use xlink:href="#path9_fill" transform="translate(-85 -547)"/>
</g>
<g id="None" figma:type="text">
<use xlink:href="#path10_fill" transform="translate(-606 -620)"/>
</g>
<g id="None" figma:type="text">
<use xlink:href="#path10_fill" transform="translate(-506 -620)"/>
</g>
<g id="None" figma:type="text">
<use xlink:href="#path10_fill" transform="translate(-406 -620)"/>
</g>
<g id="None" figma:type="text">
<use xlink:href="#path10_fill" transform="translate(-306 -620)"/>
</g>
<g id="None" figma:type="text">
<use xlink:href="#path10_fill" transform="translate(-206 -620)"/>
</g>
<g id="None" figma:type="text">
<use xlink:href="#path10_fill" transform="translate(-106 -620)"/>
</g>
</g>
<defs>
<path id="path0_fill" d="M 15.0938 22L 12.832 22L 12.832 14.1133L 4.23047 14.1133L 4.23047 22L 1.98047 22L 1.98047 4.9375L 4.23047 4.9375L 4.23047 12.2734L 12.832 12.2734L 12.832 4.9375L 15.0938 4.9375L 15.0938 22ZM 26.5781 22C 26.4531 21.75 26.3516 21.3047 26.2734 20.6641C 25.2656 21.7109 24.0625 22.2344 22.6641 22.2344C 21.4141 22.2344 20.3867 21.8828 19.582 21.1797C 18.7852 20.4687 18.3867 19.5703 18.3867 18.4844C 18.3867 17.1641 18.8867 16.1406 19.8867 15.4141C 20.8945 14.6797 22.3086 14.3125 24.1289 14.3125L 26.2383 14.3125L 26.2383 13.3164C 26.2383 12.5586 26.0117 11.957 25.5586 11.5117C 25.1055 11.0586 24.4375 10.832 23.5547 10.832C 22.7812 10.832 22.1328 11.0273 21.6094 11.418C 21.0859 11.8086 20.8242 12.2813 20.8242 12.8359L 18.6445 12.8359C 18.6445 12.2031 18.8672 11.5938 19.3125 11.0078C 19.7656 10.4141 20.375 9.94531 21.1406 9.60156C 21.9141 9.25781 22.7617 9.08594 23.6836 9.08594C 25.1445 9.08594 26.2891 9.45313 27.1172 10.1875C 27.9453 10.9141 28.375 11.918 28.4062 13.1992L 28.4062 19.0352C 28.4062 20.1992 28.5547 21.125 28.8516 21.8125L 28.8516 22L 26.5781 22ZM 22.9805 20.3477C 23.6602 20.3477 24.3047 20.1719 24.9141 19.8203C 25.5234 19.4688 25.9648 19.0117 26.2383 18.4492L 26.2383 15.8477L 24.5391 15.8477C 21.8828 15.8477 20.5547 16.625 20.5547 18.1797C 20.5547 18.8594 20.7813 19.3906 21.2344 19.7734C 21.6875 20.1563 22.2695 20.3477 22.9805 20.3477ZM 39.1875 18.6367C 39.1875 18.0508 38.9648 17.5977 38.5195 17.2773C 38.082 16.9492 37.3125 16.668 36.2109 16.4336C 35.1172 16.1992 34.2461 15.918 33.5977 15.5898C 32.957 15.2617 32.4805 14.8711 32.168 14.418C 31.8633 13.9648 31.7109 13.4258 31.7109 12.8008C 31.7109 11.7617 32.1484 10.8828 33.0234 10.1641C 33.9063 9.44531 35.0313 9.08594 36.3984 9.08594C 37.8359 9.08594 39 9.45703 39.8906 10.1992C 40.7891 10.9414 41.2383 11.8906 41.2383 13.0469L 39.0586 13.0469C 39.0586 12.4531 38.8047 11.9414 38.2969 11.5117C 37.7969 11.082 37.1641 10.8672 36.3984 10.8672C 35.6094 10.8672 34.9922 11.0391 34.5469 11.3828C 34.1016 11.7266 33.8789 12.1758 33.8789 12.7305C 33.8789 13.2539 34.0859 13.6484 34.5 13.9141C 34.9141 14.1797 35.6602 14.4336 36.7383 14.6758C 37.8242 14.918 38.7031 15.207 39.375 15.543C 40.0469 15.8789 40.543 16.2852 40.8633 16.7617C 41.1914 17.2305 41.3555 17.8047 41.3555 18.4844C 41.3555 19.6172 40.9023 20.5273 39.9961 21.2148C 39.0898 21.8945 37.9141 22.2344 36.4688 22.2344C 35.4531 22.2344 34.5547 22.0547 33.7734 21.6953C 32.9922 21.3359 32.3789 20.8359 31.9336 20.1953C 31.4961 19.5469 31.2773 18.8477 31.2773 18.0977L 33.4453 18.0977C 33.4844 18.8242 33.7734 19.4023 34.3125 19.832C 34.8594 20.2539 35.5781 20.4648 36.4688 20.4648C 37.2891 20.4648 37.9453 20.3008 38.4375 19.9727C 38.9375 19.6367 39.1875 19.1914 39.1875 18.6367ZM 46.3477 10.8555C 47.3086 9.67578 48.5586 9.08594 50.0977 9.08594C 52.7773 9.08594 54.1289 10.5977 54.1523 13.6211L 54.1523 22L 51.9844 22L 51.9844 13.6094C 51.9766 12.6953 51.7656 12.0195 51.3516 11.582C 50.9453 11.1445 50.3086 10.9258 49.4414 10.9258C 48.7383 10.9258 48.1211 11.1133 47.5898 11.4883C 47.0586 11.8633 46.6445 12.3555 46.3477 12.9648L 46.3477 22L 44.1797 22L 44.1797 4L 46.3477 4L 46.3477 10.8555ZM 75.0117 6.78906L 69.5273 6.78906L 69.5273 22L 67.2891 22L 67.2891 6.78906L 61.8164 6.78906L 61.8164 4.9375L 75.0117 4.9375L 75.0117 6.78906ZM 83.6953 22C 83.5703 21.75 83.4688 21.3047 83.3906 20.6641C 82.3828 21.7109 81.1797 22.2344 79.7812 22.2344C 78.5313 22.2344 77.5039 21.8828 76.6992 21.1797C 75.9023 20.4687 75.5039 19.5703 75.5039 18.4844C 75.5039 17.1641 76.0039 16.1406 77.0039 15.4141C 78.0117 14.6797 79.4258 14.3125 81.2461 14.3125L 83.3555 14.3125L 83.3555 13.3164C 83.3555 12.5586 83.1289 11.957 82.6758 11.5117C 82.2227 11.0586 81.5547 10.832 80.6719 10.832C 79.8984 10.832 79.25 11.0273 78.7266 11.418C 78.2031 11.8086 77.9414 12.2813 77.9414 12.8359L 75.7617 12.8359C 75.7617 12.2031 75.9844 11.5938 76.4297 11.0078C 76.8828 10.4141 77.4922 9.94531 78.2578 9.60156C 79.0312 9.25781 79.8789 9.08594 80.8008 9.08594C 82.2617 9.08594 83.4062 9.45313 84.2344 10.1875C 85.0625 10.9141 85.4922 11.918 85.5234 13.1992L 85.5234 19.0352C 85.5234 20.1992 85.6719 21.125 85.9688 21.8125L 85.9688 22L 83.6953 22ZM 80.0977 20.3477C 80.7773 20.3477 81.4219 20.1719 82.0312 19.8203C 82.6406 19.4688 83.082 19.0117 83.3555 18.4492L 83.3555 15.8477L 81.6562 15.8477C 79 15.8477 77.6719 16.625 77.6719 18.1797C 77.6719 18.8594 77.8984 19.3906 78.3516 19.7734C 78.8047 20.1563 79.3867 20.3477 80.0977 20.3477ZM 99.6562 15.8008C 99.6562 17.7383 99.2109 19.2969 98.3203 20.4766C 97.4297 21.6484 96.2344 22.2344 94.7344 22.2344C 93.1328 22.2344 91.8945 21.668 91.0195 20.5352L 90.9141 22L 88.9219 22L 88.9219 4L 91.0898 4L 91.0898 10.7148C 91.9648 9.62891 93.1719 9.08594 94.7109 9.08594C 96.25 9.08594 97.457 9.66797 98.332 10.832C 99.2148 11.9961 99.6562 13.5898 99.6562 15.6133L 99.6562 15.8008ZM 97.4883 15.5547C 97.4883 14.0781 97.2031 12.9375 96.6328 12.1328C 96.0625 11.3281 95.2422 10.9258 94.1719 10.9258C 92.7422 10.9258 91.7148 11.5898 91.0898 12.918L 91.0898 18.4023C 91.7539 19.7305 92.7891 20.3945 94.1953 20.3945C 95.2344 20.3945 96.043 19.9922 96.6211 19.1875C 97.1992 18.3828 97.4883 17.1719 97.4883 15.5547ZM 104.754 22L 102.586 22L 102.586 4L 104.754 4L 104.754 22ZM 113.496 22.2344C 111.777 22.2344 110.379 21.6719 109.301 20.5469C 108.223 19.4141 107.684 17.9023 107.684 16.0117L 107.684 15.6133C 107.684 14.3555 107.922 13.2344 108.398 12.25C 108.883 11.2578 109.555 10.4844 110.414 9.92969C 111.281 9.36719 112.219 9.08594 113.227 9.08594C 114.875 9.08594 116.156 9.62891 117.07 10.7148C 117.984 11.8008 118.441 13.3555 118.441 15.3789L 118.441 16.2812L 109.852 16.2812C 109.883 17.5312 110.246 18.543 110.941 19.3164C 111.645 20.082 112.535 20.4648 113.613 20.4648C 114.379 20.4648 115.027 20.3086 115.559 19.9961C 116.09 19.6836 116.555 19.2695 116.953 18.7539L 118.277 19.7852C 117.215 21.418 115.621 22.2344 113.496 22.2344ZM 113.227 10.8672C 112.352 10.8672 111.617 11.1875 111.023 11.8281C 110.43 12.4609 110.062 13.3516 109.922 14.5L 116.273 14.5L 116.273 14.3359C 116.211 13.2344 115.914 12.3828 115.383 11.7812C 114.852 11.1719 114.133 10.8672 113.227 10.8672Z"/>
<path id="path1_fill" d="M 0 0L 100 0L 100 100L 0 100L 0 0Z"/>
<path id="path2_stroke_2x" d="M 0 0L 0 -2L -2 -2L -2 0L 0 0ZM 100 0L 102 0L 102 -2L 100 -2L 100 0ZM 100 100L 100 102L 102 102L 102 100L 100 100ZM 0 100L -2 100L -2 102L 0 102L 0 100ZM 0 2L 100 2L 100 -2L 0 -2L 0 2ZM 98 0L 98 100L 102 100L 102 0L 98 0ZM 100 98L 0 98L 0 102L 100 102L 100 98ZM 2 100L 2 0L -2 0L -2 100L 2 100Z"/>
<path id="path3_fill" d="M 0 0L 50 0L 50 50L 0 50L 0 0Z"/>
<path id="path4_fill" d="M 8.54297 22L 6.36328 22L 6.36328 7.55078L 1.99219 9.15625L 1.99219 7.1875L 8.20312 4.85547L 8.54297 4.85547L 8.54297 22Z"/>
<path id="path5_fill" d="M 12.1172 14.7227C 12.1172 17.2617 11.6836 19.1484 10.8164 20.3828C 9.94922 21.6172 8.59375 22.2344 6.75 22.2344C 4.92969 22.2344 3.58203 21.6328 2.70703 20.4297C 1.83203 19.2188 1.37891 17.4141 1.34766 15.0156L 1.34766 12.1211C 1.34766 9.61328 1.78125 7.75 2.64844 6.53125C 3.51562 5.3125 4.875 4.70312 6.72656 4.70312C 8.5625 4.70312 9.91406 5.29297 10.7812 6.47266C 11.6484 7.64453 12.0938 9.45703 12.1172 11.9102L 12.1172 14.7227ZM 9.94922 11.7578C 9.94922 9.92188 9.69141 8.58594 9.17578 7.75C 8.66016 6.90625 7.84375 6.48438 6.72656 6.48438C 5.61719 6.48438 4.80859 6.90234 4.30078 7.73828C 3.79297 8.57422 3.53125 9.85938 3.51562 11.5938L 3.51562 15.0625C 3.51562 16.9063 3.78125 18.2695 4.3125 19.1523C 4.85156 20.0273 5.66406 20.4648 6.75 20.4648C 7.82031 20.4648 8.61328 20.0508 9.12891 19.2227C 9.65234 18.3945 9.92578 17.0898 9.94922 15.3086L 9.94922 11.7578Z"/>
<path id="path6_fill" d="M 12.5977 22L 1.41797 22L 1.41797 20.4414L 7.32422 13.8789C 8.19922 12.8867 8.80078 12.082 9.12891 11.4648C 9.46484 10.8398 9.63281 10.1953 9.63281 9.53125C 9.63281 8.64062 9.36328 7.91016 8.82422 7.33984C 8.28516 6.76953 7.56641 6.48438 6.66797 6.48438C 5.58984 6.48438 4.75 6.79297 4.14844 7.41016C 3.55469 8.01953 3.25781 8.87109 3.25781 9.96484L 1.08984 9.96484C 1.08984 8.39453 1.59375 7.125 2.60156 6.15625C 3.61719 5.1875 4.97266 4.70312 6.66797 4.70312C 8.25391 4.70312 9.50781 5.12109 10.4297 5.95703C 11.3516 6.78516 11.8125 7.89062 11.8125 9.27344C 11.8125 10.9531 10.7422 12.9531 8.60156 15.2734L 4.03125 20.2305L 12.5977 20.2305L 12.5977 22Z"/>
<path id="path7_fill" d="M 4.57031 12.4141L 6.19922 12.4141C 7.22266 12.3984 8.02734 12.1289 8.61328 11.6055C 9.19922 11.082 9.49219 10.375 9.49219 9.48438C 9.49219 7.48438 8.49609 6.48438 6.50391 6.48438C 5.56641 6.48438 4.81641 6.75391 4.25391 7.29297C 3.69922 7.82422 3.42188 8.53125 3.42188 9.41406L 1.25391 9.41406C 1.25391 8.0625 1.74609 6.94141 2.73047 6.05078C 3.72266 5.15234 4.98047 4.70312 6.50391 4.70312C 8.11328 4.70312 9.375 5.12891 10.2891 5.98047C 11.2031 6.83203 11.6602 8.01562 11.6602 9.53125C 11.6602 10.2734 11.418 10.9922 10.9336 11.6875C 10.457 12.3828 9.80469 12.9023 8.97656 13.2461C 9.91406 13.543 10.6367 14.0352 11.1445 14.7227C 11.6602 15.4102 11.918 16.25 11.918 17.2422C 11.918 18.7734 11.418 19.9883 10.418 20.8867C 9.41797 21.7852 8.11719 22.2344 6.51562 22.2344C 4.91406 22.2344 3.60938 21.8008 2.60156 20.9336C 1.60156 20.0664 1.10156 18.9219 1.10156 17.5L 3.28125 17.5C 3.28125 18.3984 3.57422 19.1172 4.16016 19.6562C 4.74609 20.1953 5.53125 20.4648 6.51562 20.4648C 7.5625 20.4648 8.36328 20.1914 8.91797 19.6445C 9.47266 19.0977 9.75 18.3125 9.75 17.2891C 9.75 16.2969 9.44531 15.5352 8.83594 15.0039C 8.22656 14.4727 7.34766 14.1992 6.19922 14.1836L 4.57031 14.1836L 4.57031 12.4141Z"/>
<path id="path8_fill" d="M 10.5703 16.2695L 12.9375 16.2695L 12.9375 18.0391L 10.5703 18.0391L 10.5703 22L 8.39062 22L 8.39062 18.0391L 0.621094 18.0391L 0.621094 16.7617L 8.26172 4.9375L 10.5703 4.9375L 10.5703 16.2695ZM 3.08203 16.2695L 8.39062 16.2695L 8.39062 7.90234L 8.13281 8.37109L 3.08203 16.2695Z"/>
<path id="path9_fill" d="M 2.41406 13.4453L 3.28125 4.9375L 12.0234 4.9375L 12.0234 6.94141L 5.12109 6.94141L 4.60547 11.5938C 5.44141 11.1016 6.39062 10.8555 7.45312 10.8555C 9.00781 10.8555 10.2422 11.3711 11.1562 12.4023C 12.0703 13.4258 12.5273 14.8125 12.5273 16.5625C 12.5273 18.3203 12.0508 19.707 11.0977 20.7227C 10.1523 21.7305 8.82812 22.2344 7.125 22.2344C 5.61719 22.2344 4.38672 21.8164 3.43359 20.9805C 2.48047 20.1445 1.9375 18.9883 1.80469 17.5117L 3.85547 17.5117C 3.98828 18.4883 4.33594 19.2266 4.89844 19.7266C 5.46094 20.2188 6.20312 20.4648 7.125 20.4648C 8.13281 20.4648 8.92187 20.1211 9.49219 19.4336C 10.0703 18.7461 10.3594 17.7969 10.3594 16.5859C 10.3594 15.4453 10.0469 14.5313 9.42188 13.8438C 8.80469 13.1484 7.98047 12.8008 6.94922 12.8008C 6.00391 12.8008 5.26172 13.0078 4.72266 13.4219L 4.14844 13.8906L 2.41406 13.4453Z"/>
<path id="path10_fill" d="M 15.0938 22L 12.832 22L 4.24219 8.85156L 4.24219 22L 1.98047 22L 1.98047 4.9375L 4.24219 4.9375L 12.8555 18.1445L 12.8555 4.9375L 15.0938 4.9375L 15.0938 22ZM 18.1758 15.543C 18.1758 14.3008 18.418 13.1836 18.9023 12.1914C 19.3945 11.1992 20.0742 10.4336 20.9414 9.89453C 21.8164 9.35547 22.8125 9.08594 23.9297 9.08594C 25.6562 9.08594 27.0508 9.68359 28.1133 10.8789C 29.1836 12.0742 29.7188 13.6641 29.7188 15.6484L 29.7188 15.8008C 29.7188 17.0352 29.4805 18.1445 29.0039 19.1289C 28.5352 20.1055 27.8594 20.8672 26.9766 21.4141C 26.1016 21.9609 25.0937 22.2344 23.9531 22.2344C 22.2344 22.2344 20.8398 21.6367 19.7695 20.4414C 18.707 19.2461 18.1758 17.6641 18.1758 15.6953L 18.1758 15.543ZM 20.3555 15.8008C 20.3555 17.207 20.6797 18.3359 21.3281 19.1875C 21.9844 20.0391 22.8594 20.4648 23.9531 20.4648C 25.0547 20.4648 25.9297 20.0352 26.5781 19.1758C 27.2266 18.3086 27.5508 17.0977 27.5508 15.543C 27.5508 14.1523 27.2188 13.0273 26.5547 12.168C 25.8984 11.3008 25.0234 10.8672 23.9297 10.8672C 22.8594 10.8672 21.9961 11.293 21.3398 12.1445C 20.6836 12.9961 20.3555 14.2148 20.3555 15.8008ZM 34.4883 9.32031L 34.5586 10.9141C 35.5273 9.69531 36.793 9.08594 38.3555 9.08594C 41.0352 9.08594 42.3867 10.5977 42.4102 13.6211L 42.4102 22L 40.2422 22L 40.2422 13.6094C 40.2344 12.6953 40.0234 12.0195 39.6094 11.582C 39.2031 11.1445 38.5664 10.9258 37.6992 10.9258C 36.9961 10.9258 36.3789 11.1133 35.8477 11.4883C 35.3164 11.8633 34.9023 12.3555 34.6055 12.9648L 34.6055 22L 32.4375 22L 32.4375 9.32031L 34.4883 9.32031ZM 50.9414 22.2344C 49.2227 22.2344 47.8242 21.6719 46.7461 20.5469C 45.668 19.4141 45.1289 17.9023 45.1289 16.0117L 45.1289 15.6133C 45.1289 14.3555 45.3672 13.2344 45.8438 12.25C 46.3281 11.2578 47 10.4844 47.8594 9.92969C 48.7266 9.36719 49.6641 9.08594 50.6719 9.08594C 52.3203 9.08594 53.6016 9.62891 54.5156 10.7148C 55.4297 11.8008 55.8867 13.3555 55.8867 15.3789L 55.8867 16.2812L 47.2969 16.2812C 47.3281 17.5312 47.6914 18.543 48.3867 19.3164C 49.0898 20.082 49.9805 20.4648 51.0586 20.4648C 51.8242 20.4648 52.4727 20.3086 53.0039 19.9961C 53.5352 19.6836 54 19.2695 54.3984 18.7539L 55.7227 19.7852C 54.6602 21.418 53.0664 22.2344 50.9414 22.2344ZM 50.6719 10.8672C 49.7969 10.8672 49.0625 11.1875 48.4688 11.8281C 47.875 12.4609 47.5078 13.3516 47.3672 14.5L 53.7188 14.5L 53.7188 14.3359C 53.6563 13.2344 53.3594 12.3828 52.8281 11.7812C 52.2969 11.1719 51.5781 10.8672 50.6719 10.8672Z"/>
</defs>
</svg>
