<svg width="963" height="265" viewBox="0 0 963 265" version="1.1" xmlns="http://www.w3.org/2000/svg" xmlns:xlink="http://www.w3.org/1999/xlink" xmlns:figma="http://www.figma.com/figma/ns">
<title>stack_operations</title>
<desc>Created using Figma</desc>
<g id="Canvas" transform="translate(358 291)" figma:type="canvas">
<g id="Elements" figma:type="text">
<use xlink:href="#path0_fill" transform="translate(-332.5 -187)"/>
</g>
<g id="Rectangle" figma:type="rounded-rectangle">
<use xlink:href="#path1_fill" transform="translate(-358 -79)" fill="#C4C4C4"/>
</g>
<g id="2" figma:type="text">
<use xlink:href="#path2_fill" transform="translate(-306 -64)"/>
</g>
<g id="Rectangle" figma:type="rounded-rectangle">
<use xlink:href="#path1_fill" transform="translate(-358 -136)" fill="#6FCF97"/>
</g>
<g id="1" figma:type="text">
<use xlink:href="#path3_fill" transform="translate(-306 -121)" fill="#F2F2F2"/>
</g>
<g id="Arrow" figma:type="vector">
<use xlink:href="#path4_stroke" transform="matrix(1 -2.67189e-24 2.67189e-24 1 -213 -79)"/>
</g>
<g id="Add New Element, 3" figma:type="text">
<use xlink:href="#path5_fill" transform="translate(-203 -142)"/>
</g>
<g id="Elements" figma:type="text">
<use xlink:href="#path0_fill" transform="translate(-33 -234)"/>
</g>
<g id="Rectangle" figma:type="rounded-rectangle">
<use xlink:href="#path1_fill" transform="translate(-56.5 -79)" fill="#C4C4C4"/>
</g>
<g id="2" figma:type="text">
<use xlink:href="#path2_fill" transform="translate(-4.5 -64)"/>
</g>
<g id="Rectangle" figma:type="rounded-rectangle">
<use xlink:href="#path1_fill" transform="translate(-56.5 -136)" fill="#C4C4C4"/>
</g>
<g id="1" figma:type="text">
<use xlink:href="#path3_fill" transform="translate(-4.5 -121)"/>
</g>
<g id="Rectangle" figma:type="rounded-rectangle">
<use xlink:href="#path1_fill" transform="translate(-57 -194)" fill="#6FCF97"/>
</g>
<g id="3" figma:type="text">
<use xlink:href="#path6_fill" transform="translate(-5 -179)" fill="#F2F2F2"/>
</g>
<g id="Arrow" figma:type="vector">
<use xlink:href="#path4_stroke" transform="matrix(1 -2.67189e-24 2.67189e-24 1 88 -79)"/>
</g>
<g id="Add New Element, 4" figma:type="text">
<use xlink:href="#path7_fill" transform="translate(99 -142)"/>
</g>
<g id="Elements" figma:type="text">
<use xlink:href="#path0_fill" transform="translate(233.5 -294)"/>
</g>
<g id="Rectangle" figma:type="rounded-rectangle">
<use xlink:href="#path1_fill" transform="translate(214 -78.5)" fill="#C4C4C4"/>
</g>
<g id="2" figma:type="text">
<use xlink:href="#path2_fill" transform="translate(266 -63.5)"/>
</g>
<g id="Rectangle" figma:type="rounded-rectangle">
<use xlink:href="#path1_fill" transform="translate(214 -135.5)" fill="#C4C4C4"/>
</g>
<g id="1" figma:type="text">
<use xlink:href="#path3_fill" transform="translate(266 -120.5)"/>
</g>
<g id="Rectangle" figma:type="rounded-rectangle">
<use xlink:href="#path1_fill" transform="translate(213.5 -193.5)" fill="#C4C4C4"/>
</g>
<g id="3" figma:type="text">
<use xlink:href="#path8_fill" transform="translate(265.5 -178.5)"/>
</g>
<g id="Rectangle" figma:type="rounded-rectangle">
<use xlink:href="#path1_fill" transform="translate(213 -249.5)" fill="#C4C4C4"/>
</g>
<g id="4" figma:type="text">
<use xlink:href="#path9_fill" transform="translate(265 -234.5)"/>
</g>
<g id="Rectangle" figma:type="rounded-rectangle">
<use xlink:href="#path1_fill" transform="translate(214 -78.5)" fill="#C4C4C4"/>
</g>
<g id="2" figma:type="text">
<use xlink:href="#path2_fill" transform="translate(266 -63.5)"/>
</g>
<g id="Rectangle" figma:type="rounded-rectangle">
<use xlink:href="#path1_fill" transform="translate(214 -135.5)" fill="#C4C4C4"/>
</g>
<g id="1" figma:type="text">
<use xlink:href="#path3_fill" transform="translate(266 -120.5)"/>
</g>
<g id="Rectangle" figma:type="rounded-rectangle">
<use xlink:href="#path1_fill" transform="translate(213.5 -193.5)" fill="#C4C4C4"/>
</g>
<g id="3" figma:type="text">
<use xlink:href="#path8_fill" transform="translate(265.5 -178.5)"/>
</g>
<g id="Rectangle" figma:type="rounded-rectangle">
<use xlink:href="#path1_fill" transform="translate(213 -249.5)" fill="#6FCF97"/>
</g>
<g id="4" figma:type="text">
<use xlink:href="#path9_fill" transform="translate(265 -234.5)" fill="#F2F2F2"/>
</g>
<g id="Elements" figma:type="text">
<use xlink:href="#path0_fill" transform="translate(509.25 -237)"/>
</g>
<g id="Rectangle" figma:type="rounded-rectangle">
<use xlink:href="#path1_fill" transform="translate(489.5 -79)" fill="#C4C4C4"/>
</g>
<g id="2" figma:type="text">
<use xlink:href="#path2_fill" transform="translate(541.5 -64)"/>
</g>
<g id="Rectangle" figma:type="rounded-rectangle">
<use xlink:href="#path1_fill" transform="translate(489.5 -136)" fill="#C4C4C4"/>
</g>
<g id="1" figma:type="text">
<use xlink:href="#path3_fill" transform="translate(541.5 -121)"/>
</g>
<g id="Rectangle" figma:type="rounded-rectangle">
<use xlink:href="#path1_fill" transform="translate(489 -194)" fill="#C4C4C4"/>
</g>
<g id="3" figma:type="text">
<use xlink:href="#path8_fill" transform="translate(541 -179)"/>
</g>
<g id="Rectangle" figma:type="rounded-rectangle">
<use xlink:href="#path1_fill" transform="translate(489.5 -79)" fill="#C4C4C4"/>
</g>
<g id="2" figma:type="text">
<use xlink:href="#path2_fill" transform="translate(541.5 -64)"/>
</g>
<g id="Rectangle" figma:type="rounded-rectangle">
<use xlink:href="#path1_fill" transform="translate(489.5 -136)" fill="#C4C4C4"/>
</g>
<g id="1" figma:type="text">
<use xlink:href="#path3_fill" transform="translate(541.5 -121)"/>
</g>
<g id="Rectangle" figma:type="rounded-rectangle">
<use xlink:href="#path1_fill" transform="translate(489 -194)" fill="#6FCF97"/>
</g>
<g id="3" figma:type="text">
<use xlink:href="#path6_fill" transform="translate(541 -179)" fill="#F2F2F2"/>
</g>
<g id="Arrow" figma:type="vector">
<use xlink:href="#path4_stroke" transform="matrix(1 -2.67189e-24 2.67189e-24 1 360 -79)"/>
</g>
<g id="Remove Element" figma:type="text">
<use xlink:href="#path10_fill" transform="translate(360 -142)"/>
</g>
</g>
<defs>
<path id="path0_fill" d="M 8.71875 11.085L 3.17285 11.085L 3.17285 15.6201L 9.61523 15.6201L 9.61523 17L 1.48535 17L 1.48535 4.20312L 9.52734 4.20312L 9.52734 5.5918L 3.17285 5.5918L 3.17285 9.70508L 8.71875 9.70508L 8.71875 11.085ZM 13.2275 17L 11.6016 17L 11.6016 3.5L 13.2275 3.5L 13.2275 17ZM 19.7842 17.1758C 18.4951 17.1758 17.4463 16.7539 16.6377 15.9102C 15.8291 15.0605 15.4248 13.9268 15.4248 12.5088L 15.4248 12.21C 15.4248 11.2666 15.6035 10.4258 15.9609 9.6875C 16.3242 8.94336 16.8281 8.36328 17.4727 7.94727C 18.123 7.52539 18.8262 7.31445 19.582 7.31445C 20.8184 7.31445 21.7793 7.72168 22.4648 8.53613C 23.1504 9.35059 23.4932 10.5166 23.4932 12.0342L 23.4932 12.7109L 17.0508 12.7109C 17.0742 13.6484 17.3467 14.4072 17.8682 14.9873C 18.3955 15.5615 19.0635 15.8486 19.8721 15.8486C 20.4463 15.8486 20.9326 15.7314 21.3311 15.4971C 21.7295 15.2627 22.0781 14.9521 22.377 14.5654L 23.3701 15.3389C 22.5732 16.5635 21.3779 17.1758 19.7842 17.1758ZM 19.582 8.65039C 18.9258 8.65039 18.375 8.89062 17.9297 9.37109C 17.4844 9.8457 17.209 10.5137 17.1035 11.375L 21.8672 11.375L 21.8672 11.252C 21.8203 10.4258 21.5977 9.78711 21.1992 9.33594C 20.8008 8.87891 20.2617 8.65039 19.582 8.65039ZM 26.9121 7.49023L 26.9561 8.54492C 27.6533 7.72461 28.5938 7.31445 29.7773 7.31445C 31.1074 7.31445 32.0127 7.82422 32.4932 8.84375C 32.8096 8.38672 33.2197 8.01758 33.7236 7.73633C 34.2334 7.45508 34.834 7.31445 35.5254 7.31445C 37.6113 7.31445 38.6719 8.41895 38.707 10.6279L 38.707 17L 37.0811 17L 37.0811 10.7246C 37.0811 10.0449 36.9258 9.53809 36.6152 9.2041C 36.3047 8.86426 35.7832 8.69434 35.0508 8.69434C 34.4473 8.69434 33.9463 8.87598 33.5479 9.23926C 33.1494 9.59668 32.918 10.0801 32.8535 10.6895L 32.8535 17L 31.2188 17L 31.2188 10.7686C 31.2188 9.38574 30.542 8.69434 29.1885 8.69434C 28.1221 8.69434 27.3926 9.14844 27 10.0566L 27 17L 25.374 17L 25.374 7.49023L 26.9121 7.49023ZM 45.1143 17.1758C 43.8252 17.1758 42.7764 16.7539 41.9678 15.9102C 41.1592 15.0605 40.7549 13.9268 40.7549 12.5088L 40.7549 12.21C 40.7549 11.2666 40.9336 10.4258 41.291 9.6875C 41.6543 8.94336 42.1582 8.36328 42.8027 7.94727C 43.4531 7.52539 44.1562 7.31445 44.9121 7.31445C 46.1484 7.31445 47.1094 7.72168 47.7949 8.53613C 48.4805 9.35059 48.8232 10.5166 48.8232 12.0342L 48.8232 12.7109L 42.3809 12.7109C 42.4043 13.6484 42.6768 14.4072 43.1982 14.9873C 43.7256 15.5615 44.3936 15.8486 45.2021 15.8486C 45.7764 15.8486 46.2627 15.7314 46.6611 15.4971C 47.0596 15.2627 47.4082 14.9521 47.707 14.5654L 48.7002 15.3389C 47.9033 16.5635 46.708 17.1758 45.1143 17.1758ZM 44.9121 8.65039C 44.2559 8.65039 43.7051 8.89062 43.2598 9.37109C 42.8145 9.8457 42.5391 10.5137 42.4336 11.375L 47.1973 11.375L 47.1973 11.252C 47.1504 10.4258 46.9277 9.78711 46.5293 9.33594C 46.1309 8.87891 45.5918 8.65039 44.9121 8.65039ZM 52.251 7.49023L 52.3037 8.68555C 53.0303 7.77148 53.9795 7.31445 55.1514 7.31445C 57.1611 7.31445 58.1748 8.44824 58.1924 10.7158L 58.1924 17L 56.5664 17L 56.5664 10.707C 56.5605 10.0215 56.4023 9.51465 56.0918 9.18652C 55.7871 8.8584 55.3096 8.69434 54.6592 8.69434C 54.1318 8.69434 53.6689 8.83496 53.2705 9.11621C 52.8721 9.39746 52.5615 9.7666 52.3389 10.2236L 52.3389 17L 50.7129 17L 50.7129 7.49023L 52.251 7.49023ZM 62.8506 5.1875L 62.8506 7.49023L 64.626 7.49023L 64.626 8.74707L 62.8506 8.74707L 62.8506 14.6445C 62.8506 15.0254 62.9297 15.3125 63.0879 15.5059C 63.2461 15.6934 63.5156 15.7871 63.8965 15.7871C 64.084 15.7871 64.3418 15.752 64.6699 15.6816L 64.6699 17C 64.2422 17.1172 63.8262 17.1758 63.4219 17.1758C 62.6953 17.1758 62.1475 16.9561 61.7783 16.5166C 61.4092 16.0771 61.2246 15.4531 61.2246 14.6445L 61.2246 8.74707L 59.4932 8.74707L 59.4932 7.49023L 61.2246 7.49023L 61.2246 5.1875L 62.8506 5.1875ZM 72.0703 14.4775C 72.0703 14.0381 71.9033 13.6982 71.5693 13.458C 71.2412 13.2119 70.6641 13.001 69.8379 12.8252C 69.0176 12.6494 68.3643 12.4385 67.8779 12.1924C 67.3975 11.9463 67.04 11.6533 66.8057 11.3135C 66.5771 10.9736 66.4629 10.5693 66.4629 10.1006C 66.4629 9.32129 66.791 8.66211 67.4473 8.12305C 68.1094 7.58398 68.9531 7.31445 69.9785 7.31445C 71.0566 7.31445 71.9297 7.59277 72.5977 8.14941C 73.2715 8.70605 73.6084 9.41797 73.6084 10.2852L 71.9736 10.2852C 71.9736 9.83984 71.7832 9.45605 71.4023 9.13379C 71.0273 8.81152 70.5527 8.65039 69.9785 8.65039C 69.3867 8.65039 68.9238 8.7793 68.5898 9.03711C 68.2559 9.29492 68.0889 9.63184 68.0889 10.0479C 68.0889 10.4404 68.2441 10.7363 68.5547 10.9355C 68.8652 11.1348 69.4248 11.3252 70.2334 11.5068C 71.0479 11.6885 71.707 11.9053 72.2109 12.1572C 72.7148 12.4092 73.0869 12.7139 73.3271 13.0713C 73.5732 13.4229 73.6963 13.8535 73.6963 14.3633C 73.6963 15.2129 73.3564 15.8955 72.6768 16.4111C 71.9971 16.9209 71.1152 17.1758 70.0312 17.1758C 69.2695 17.1758 68.5957 17.041 68.0098 16.7715C 67.4238 16.502 66.9639 16.127 66.6299 15.6465C 66.3018 15.1602 66.1377 14.6357 66.1377 14.0732L 67.7637 14.0732C 67.793 14.6182 68.0098 15.0518 68.4141 15.374C 68.8242 15.6904 69.3633 15.8486 70.0312 15.8486C 70.6465 15.8486 71.1387 15.7256 71.5078 15.4795C 71.8828 15.2275 72.0703 14.8936 72.0703 14.4775Z"/>
<path id="path1_fill" d="M 0 0L 115 0L 115 52L 0 52L 0 0Z"/>
<path id="path2_fill" d="M 9.44824 17L 1.06348 17L 1.06348 15.8311L 5.49316 10.9092C 6.14941 10.165 6.60059 9.56152 6.84668 9.09863C 7.09863 8.62988 7.22461 8.14648 7.22461 7.64844C 7.22461 6.98047 7.02246 6.43262 6.61816 6.00488C 6.21387 5.57715 5.6748 5.36328 5.00098 5.36328C 4.19238 5.36328 3.5625 5.59473 3.11133 6.05762C 2.66602 6.51465 2.44336 7.15332 2.44336 7.97363L 0.817383 7.97363C 0.817383 6.7959 1.19531 5.84375 1.95117 5.11719C 2.71289 4.39063 3.72949 4.02734 5.00098 4.02734C 6.19043 4.02734 7.13086 4.34082 7.82227 4.96777C 8.51367 5.58887 8.85938 6.41797 8.85938 7.45508C 8.85938 8.71484 8.05664 10.2148 6.45117 11.9551L 3.02344 15.6729L 9.44824 15.6729L 9.44824 17Z"/>
<path id="path3_fill" d="M 6.40723 17L 4.77246 17L 4.77246 6.16309L 1.49414 7.36719L 1.49414 5.89062L 6.15234 4.1416L 6.40723 4.1416L 6.40723 17Z"/>
<path id="path4_stroke" d="M 105.354 0.353553C 105.549 0.158291 105.549 -0.158291 105.354 -0.353553L 102.172 -3.53553C 101.976 -3.7308 101.66 -3.7308 101.464 -3.53553C 101.269 -3.34027 101.269 -3.02369 101.464 -2.82843L 104.293 0L 101.464 2.82843C 101.269 3.02369 101.269 3.34027 101.464 3.53553C 101.66 3.7308 101.976 3.7308 102.172 3.53553L 105.354 0.353553ZM 0 0.5L 105 0.5L 105 -0.5L 0 -0.5L 0 0.5Z"/>
<path id="path5_fill" d="M 8.55176 13.6602L 3.19043 13.6602L 1.98633 17L 0.246094 17L 5.13281 4.20312L 6.60938 4.20312L 11.5049 17L 9.77344 17L 8.55176 13.6602ZM 3.7002 12.2715L 8.05078 12.2715L 5.87109 6.28613L 3.7002 12.2715ZM 12.5771 12.166C 12.5771 10.707 12.9229 9.53516 13.6143 8.65039C 14.3057 7.75977 15.2109 7.31445 16.3301 7.31445C 17.4434 7.31445 18.3252 7.69531 18.9756 8.45703L 18.9756 3.5L 20.6016 3.5L 20.6016 17L 19.1074 17L 19.0283 15.9805C 18.3779 16.7773 17.4727 17.1758 16.3125 17.1758C 15.2109 17.1758 14.3115 16.7246 13.6143 15.8223C 12.9229 14.9199 12.5771 13.7422 12.5771 12.2891L 12.5771 12.166ZM 14.2031 12.3506C 14.2031 13.4287 14.4258 14.2725 14.8711 14.8818C 15.3164 15.4912 15.9316 15.7959 16.7168 15.7959C 17.748 15.7959 18.501 15.333 18.9756 14.4072L 18.9756 10.0391C 18.4893 9.14258 17.7422 8.69434 16.7344 8.69434C 15.9375 8.69434 15.3164 9.00195 14.8711 9.61719C 14.4258 10.2324 14.2031 11.1436 14.2031 12.3506ZM 22.7373 12.166C 22.7373 10.707 23.083 9.53516 23.7744 8.65039C 24.4658 7.75977 25.3711 7.31445 26.4902 7.31445C 27.6035 7.31445 28.4854 7.69531 29.1357 8.45703L 29.1357 3.5L 30.7617 3.5L 30.7617 17L 29.2676 17L 29.1885 15.9805C 28.5381 16.7773 27.6328 17.1758 26.4727 17.1758C 25.3711 17.1758 24.4717 16.7246 23.7744 15.8223C 23.083 14.9199 22.7373 13.7422 22.7373 12.2891L 22.7373 12.166ZM 24.3633 12.3506C 24.3633 13.4287 24.5859 14.2725 25.0312 14.8818C 25.4766 15.4912 26.0918 15.7959 26.877 15.7959C 27.9082 15.7959 28.6611 15.333 29.1357 14.4072L 29.1357 10.0391C 28.6494 9.14258 27.9023 8.69434 26.8945 8.69434C 26.0977 8.69434 25.4766 9.00195 25.0312 9.61719C 24.5859 10.2324 24.3633 11.1436 24.3633 12.3506ZM 47.8477 17L 46.1514 17L 39.709 7.13867L 39.709 17L 38.0127 17L 38.0127 4.20312L 39.709 4.20312L 46.1689 14.1084L 46.1689 4.20312L 47.8477 4.20312L 47.8477 17ZM 54.5361 17.1758C 53.2471 17.1758 52.1982 16.7539 51.3896 15.9102C 50.5811 15.0605 50.1768 13.9268 50.1768 12.5088L 50.1768 12.21C 50.1768 11.2666 50.3555 10.4258 50.7129 9.6875C 51.0762 8.94336 51.5801 8.36328 52.2246 7.94727C 52.875 7.52539 53.5781 7.31445 54.334 7.31445C 55.5703 7.31445 56.5312 7.72168 57.2168 8.53613C 57.9023 9.35059 58.2451 10.5166 58.2451 12.0342L 58.2451 12.7109L 51.8027 12.7109C 51.8262 13.6484 52.0986 14.4072 52.6201 14.9873C 53.1475 15.5615 53.8154 15.8486 54.624 15.8486C 55.1982 15.8486 55.6846 15.7314 56.083 15.4971C 56.4814 15.2627 56.8301 14.9521 57.1289 14.5654L 58.1221 15.3389C 57.3252 16.5635 56.1299 17.1758 54.5361 17.1758ZM 54.334 8.65039C 53.6777 8.65039 53.127 8.89062 52.6816 9.37109C 52.2363 9.8457 51.9609 10.5137 51.8555 11.375L 56.6191 11.375L 56.6191 11.252C 56.5723 10.4258 56.3496 9.78711 55.9512 9.33594C 55.5527 8.87891 55.0137 8.65039 54.334 8.65039ZM 68.5547 14.7588L 70.3828 7.49023L 72.0088 7.49023L 69.2402 17L 67.9219 17L 65.6104 9.79297L 63.3604 17L 62.042 17L 59.2822 7.49023L 60.8994 7.49023L 62.7715 14.6094L 64.9863 7.49023L 66.2959 7.49023L 68.5547 14.7588ZM 8.71875 32.085L 3.17285 32.085L 3.17285 36.6201L 9.61523 36.6201L 9.61523 38L 1.48535 38L 1.48535 25.2031L 9.52734 25.2031L 9.52734 26.5918L 3.17285 26.5918L 3.17285 30.7051L 8.71875 30.7051L 8.71875 32.085ZM 13.2275 38L 11.6016 38L 11.6016 24.5L 13.2275 24.5L 13.2275 38ZM 19.7842 38.1758C 18.4951 38.1758 17.4463 37.7539 16.6377 36.9102C 15.8291 36.0605 15.4248 34.9268 15.4248 33.5088L 15.4248 33.21C 15.4248 32.2666 15.6035 31.4258 15.9609 30.6875C 16.3242 29.9434 16.8281 29.3633 17.4727 28.9473C 18.123 28.5254 18.8262 28.3145 19.582 28.3145C 20.8184 28.3145 21.7793 28.7217 22.4648 29.5361C 23.1504 30.3506 23.4932 31.5166 23.4932 33.0342L 23.4932 33.7109L 17.0508 33.7109C 17.0742 34.6484 17.3467 35.4072 17.8682 35.9873C 18.3955 36.5615 19.0635 36.8486 19.8721 36.8486C 20.4463 36.8486 20.9326 36.7314 21.3311 36.4971C 21.7295 36.2627 22.0781 35.9521 22.377 35.5654L 23.3701 36.3389C 22.5732 37.5635 21.3779 38.1758 19.7842 38.1758ZM 19.582 29.6504C 18.9258 29.6504 18.375 29.8906 17.9297 30.3711C 17.4844 30.8457 17.209 31.5137 17.1035 32.375L 21.8672 32.375L 21.8672 32.252C 21.8203 31.4258 21.5977 30.7871 21.1992 30.3359C 20.8008 29.8789 20.2617 29.6504 19.582 29.6504ZM 26.9121 28.4902L 26.9561 29.5449C 27.6533 28.7246 28.5938 28.3145 29.7773 28.3145C 31.1074 28.3145 32.0127 28.8242 32.4932 29.8438C 32.8096 29.3867 33.2197 29.0176 33.7236 28.7363C 34.2334 28.4551 34.834 28.3145 35.5254 28.3145C 37.6113 28.3145 38.6719 29.4189 38.707 31.6279L 38.707 38L 37.0811 38L 37.0811 31.7246C 37.0811 31.0449 36.9258 30.5381 36.6152 30.2041C 36.3047 29.8643 35.7832 29.6943 35.0508 29.6943C 34.4473 29.6943 33.9463 29.876 33.5479 30.2393C 33.1494 30.5967 32.918 31.0801 32.8535 31.6895L 32.8535 38L 31.2188 38L 31.2188 31.7686C 31.2188 30.3857 30.542 29.6943 29.1885 29.6943C 28.1221 29.6943 27.3926 30.1484 27 31.0566L 27 38L 25.374 38L 25.374 28.4902L 26.9121 28.4902ZM 45.1143 38.1758C 43.8252 38.1758 42.7764 37.7539 41.9678 36.9102C 41.1592 36.0605 40.7549 34.9268 40.7549 33.5088L 40.7549 33.21C 40.7549 32.2666 40.9336 31.4258 41.291 30.6875C 41.6543 29.9434 42.1582 29.3633 42.8027 28.9473C 43.4531 28.5254 44.1562 28.3145 44.9121 28.3145C 46.1484 28.3145 47.1094 28.7217 47.7949 29.5361C 48.4805 30.3506 48.8232 31.5166 48.8232 33.0342L 48.8232 33.7109L 42.3809 33.7109C 42.4043 34.6484 42.6768 35.4072 43.1982 35.9873C 43.7256 36.5615 44.3936 36.8486 45.2021 36.8486C 45.7764 36.8486 46.2627 36.7314 46.6611 36.4971C 47.0596 36.2627 47.4082 35.9521 47.707 35.5654L 48.7002 36.3389C 47.9033 37.5635 46.708 38.1758 45.1143 38.1758ZM 44.9121 29.6504C 44.2559 29.6504 43.7051 29.8906 43.2598 30.3711C 42.8145 30.8457 42.5391 31.5137 42.4336 32.375L 47.1973 32.375L 47.1973 32.252C 47.1504 31.4258 46.9277 30.7871 46.5293 30.3359C 46.1309 29.8789 45.5918 29.6504 44.9121 29.6504ZM 52.251 28.4902L 52.3037 29.6855C 53.0303 28.7715 53.9795 28.3145 55.1514 28.3145C 57.1611 28.3145 58.1748 29.4482 58.1924 31.7158L 58.1924 38L 56.5664 38L 56.5664 31.707C 56.5605 31.0215 56.4023 30.5146 56.0918 30.1865C 55.7871 29.8584 55.3096 29.6943 54.6592 29.6943C 54.1318 29.6943 53.6689 29.835 53.2705 30.1162C 52.8721 30.3975 52.5615 30.7666 52.3389 31.2236L 52.3389 38L 50.7129 38L 50.7129 28.4902L 52.251 28.4902ZM 62.8506 26.1875L 62.8506 28.4902L 64.626 28.4902L 64.626 29.7471L 62.8506 29.7471L 62.8506 35.6445C 62.8506 36.0254 62.9297 36.3125 63.0879 36.5059C 63.2461 36.6934 63.5156 36.7871 63.8965 36.7871C 64.084 36.7871 64.3418 36.752 64.6699 36.6816L 64.6699 38C 64.2422 38.1172 63.8262 38.1758 63.4219 38.1758C 62.6953 38.1758 62.1475 37.9561 61.7783 37.5166C 61.4092 37.0771 61.2246 36.4531 61.2246 35.6445L 61.2246 29.7471L 59.4932 29.7471L 59.4932 28.4902L 61.2246 28.4902L 61.2246 26.1875L 62.8506 26.1875ZM 66.4805 40.5488L 65.5576 39.916C 66.1084 39.1484 66.3955 38.3574 66.4189 37.543L 66.4189 36.0752L 68.0098 36.0752L 68.0098 37.3496C 68.0098 37.9414 67.8633 38.5332 67.5703 39.125C 67.2832 39.7168 66.9199 40.1914 66.4805 40.5488ZM 76.7285 30.8105L 77.9502 30.8105C 78.7178 30.7988 79.3213 30.5967 79.7607 30.2041C 80.2002 29.8115 80.4199 29.2812 80.4199 28.6133C 80.4199 27.1133 79.6729 26.3633 78.1787 26.3633C 77.4756 26.3633 76.9131 26.5654 76.4912 26.9697C 76.0752 27.3682 75.8672 27.8984 75.8672 28.5605L 74.2412 28.5605C 74.2412 27.5469 74.6104 26.7061 75.3486 26.0381C 76.0928 25.3643 77.0361 25.0273 78.1787 25.0273C 79.3857 25.0273 80.332 25.3467 81.0176 25.9854C 81.7031 26.624 82.0459 27.5117 82.0459 28.6484C 82.0459 29.2051 81.8643 29.7441 81.501 30.2656C 81.1436 30.7871 80.6543 31.1768 80.0332 31.4346C 80.7363 31.6572 81.2783 32.0264 81.6592 32.542C 82.0459 33.0576 82.2393 33.6875 82.2393 34.4316C 82.2393 35.5801 81.8643 36.4912 81.1143 37.165C 80.3643 37.8389 79.3887 38.1758 78.1875 38.1758C 76.9863 38.1758 76.0078 37.8506 75.252 37.2002C 74.502 36.5498 74.127 35.6914 74.127 34.625L 75.7617 34.625C 75.7617 35.2988 75.9814 35.8379 76.4209 36.2422C 76.8604 36.6465 77.4492 36.8486 78.1875 36.8486C 78.9727 36.8486 79.5732 36.6436 79.9893 36.2334C 80.4053 35.8232 80.6133 35.2344 80.6133 34.4668C 80.6133 33.7227 80.3848 33.1514 79.9277 32.7529C 79.4707 32.3545 78.8115 32.1494 77.9502 32.1377L 76.7285 32.1377L 76.7285 30.8105Z"/>
<path id="path6_fill" d="M 3.42773 9.81055L 4.64941 9.81055C 5.41699 9.79883 6.02051 9.59668 6.45996 9.2041C 6.89941 8.81152 7.11914 8.28125 7.11914 7.61328C 7.11914 6.11328 6.37207 5.36328 4.87793 5.36328C 4.1748 5.36328 3.6123 5.56543 3.19043 5.96973C 2.77441 6.36816 2.56641 6.89844 2.56641 7.56055L 0.94043 7.56055C 0.94043 6.54688 1.30957 5.70605 2.04785 5.03809C 2.79199 4.36426 3.73535 4.02734 4.87793 4.02734C 6.08496 4.02734 7.03125 4.34668 7.7168 4.98535C 8.40234 5.62402 8.74512 6.51172 8.74512 7.64844C 8.74512 8.20508 8.56348 8.74414 8.2002 9.26562C 7.84277 9.78711 7.35352 10.1768 6.73242 10.4346C 7.43555 10.6572 7.97754 11.0264 8.3584 11.542C 8.74512 12.0576 8.93848 12.6875 8.93848 13.4316C 8.93848 14.5801 8.56348 15.4912 7.81348 16.165C 7.06348 16.8389 6.08789 17.1758 4.88672 17.1758C 3.68555 17.1758 2.70703 16.8506 1.95117 16.2002C 1.20117 15.5498 0.826172 14.6914 0.826172 13.625L 2.46094 13.625C 2.46094 14.2988 2.68066 14.8379 3.12012 15.2422C 3.55957 15.6465 4.14844 15.8486 4.88672 15.8486C 5.67188 15.8486 6.27246 15.6436 6.68848 15.2334C 7.10449 14.8232 7.3125 14.2344 7.3125 13.4668C 7.3125 12.7227 7.08398 12.1514 6.62695 11.7529C 6.16992 11.3545 5.51074 11.1494 4.64941 11.1377L 3.42773 11.1377L 3.42773 9.81055Z"/>
<path id="path7_fill" d="M 8.55176 13.6602L 3.19043 13.6602L 1.98633 17L 0.246094 17L 5.13281 4.20312L 6.60938 4.20312L 11.5049 17L 9.77344 17L 8.55176 13.6602ZM 3.7002 12.2715L 8.05078 12.2715L 5.87109 6.28613L 3.7002 12.2715ZM 12.5771 12.166C 12.5771 10.707 12.9229 9.53516 13.6143 8.65039C 14.3057 7.75977 15.2109 7.31445 16.3301 7.31445C 17.4434 7.31445 18.3252 7.69531 18.9756 8.45703L 18.9756 3.5L 20.6016 3.5L 20.6016 17L 19.1074 17L 19.0283 15.9805C 18.3779 16.7773 17.4727 17.1758 16.3125 17.1758C 15.2109 17.1758 14.3115 16.7246 13.6143 15.8223C 12.9229 14.9199 12.5771 13.7422 12.5771 12.2891L 12.5771 12.166ZM 14.2031 12.3506C 14.2031 13.4287 14.4258 14.2725 14.8711 14.8818C 15.3164 15.4912 15.9316 15.7959 16.7168 15.7959C 17.748 15.7959 18.501 15.333 18.9756 14.4072L 18.9756 10.0391C 18.4893 9.14258 17.7422 8.69434 16.7344 8.69434C 15.9375 8.69434 15.3164 9.00195 14.8711 9.61719C 14.4258 10.2324 14.2031 11.1436 14.2031 12.3506ZM 22.7373 12.166C 22.7373 10.707 23.083 9.53516 23.7744 8.65039C 24.4658 7.75977 25.3711 7.31445 26.4902 7.31445C 27.6035 7.31445 28.4854 7.69531 29.1357 8.45703L 29.1357 3.5L 30.7617 3.5L 30.7617 17L 29.2676 17L 29.1885 15.9805C 28.5381 16.7773 27.6328 17.1758 26.4727 17.1758C 25.3711 17.1758 24.4717 16.7246 23.7744 15.8223C 23.083 14.9199 22.7373 13.7422 22.7373 12.2891L 22.7373 12.166ZM 24.3633 12.3506C 24.3633 13.4287 24.5859 14.2725 25.0312 14.8818C 25.4766 15.4912 26.0918 15.7959 26.877 15.7959C 27.9082 15.7959 28.6611 15.333 29.1357 14.4072L 29.1357 10.0391C 28.6494 9.14258 27.9023 8.69434 26.8945 8.69434C 26.0977 8.69434 25.4766 9.00195 25.0312 9.61719C 24.5859 10.2324 24.3633 11.1436 24.3633 12.3506ZM 47.8477 17L 46.1514 17L 39.709 7.13867L 39.709 17L 38.0127 17L 38.0127 4.20312L 39.709 4.20312L 46.1689 14.1084L 46.1689 4.20312L 47.8477 4.20312L 47.8477 17ZM 54.5361 17.1758C 53.2471 17.1758 52.1982 16.7539 51.3896 15.9102C 50.5811 15.0605 50.1768 13.9268 50.1768 12.5088L 50.1768 12.21C 50.1768 11.2666 50.3555 10.4258 50.7129 9.6875C 51.0762 8.94336 51.5801 8.36328 52.2246 7.94727C 52.875 7.52539 53.5781 7.31445 54.334 7.31445C 55.5703 7.31445 56.5312 7.72168 57.2168 8.53613C 57.9023 9.35059 58.2451 10.5166 58.2451 12.0342L 58.2451 12.7109L 51.8027 12.7109C 51.8262 13.6484 52.0986 14.4072 52.6201 14.9873C 53.1475 15.5615 53.8154 15.8486 54.624 15.8486C 55.1982 15.8486 55.6846 15.7314 56.083 15.4971C 56.4814 15.2627 56.8301 14.9521 57.1289 14.5654L 58.1221 15.3389C 57.3252 16.5635 56.1299 17.1758 54.5361 17.1758ZM 54.334 8.65039C 53.6777 8.65039 53.127 8.89062 52.6816 9.37109C 52.2363 9.8457 51.9609 10.5137 51.8555 11.375L 56.6191 11.375L 56.6191 11.252C 56.5723 10.4258 56.3496 9.78711 55.9512 9.33594C 55.5527 8.87891 55.0137 8.65039 54.334 8.65039ZM 68.5547 14.7588L 70.3828 7.49023L 72.0088 7.49023L 69.2402 17L 67.9219 17L 65.6104 9.79297L 63.3604 17L 62.042 17L 59.2822 7.49023L 60.8994 7.49023L 62.7715 14.6094L 64.9863 7.49023L 66.2959 7.49023L 68.5547 14.7588ZM 8.71875 32.085L 3.17285 32.085L 3.17285 36.6201L 9.61523 36.6201L 9.61523 38L 1.48535 38L 1.48535 25.2031L 9.52734 25.2031L 9.52734 26.5918L 3.17285 26.5918L 3.17285 30.7051L 8.71875 30.7051L 8.71875 32.085ZM 13.2275 38L 11.6016 38L 11.6016 24.5L 13.2275 24.5L 13.2275 38ZM 19.7842 38.1758C 18.4951 38.1758 17.4463 37.7539 16.6377 36.9102C 15.8291 36.0605 15.4248 34.9268 15.4248 33.5088L 15.4248 33.21C 15.4248 32.2666 15.6035 31.4258 15.9609 30.6875C 16.3242 29.9434 16.8281 29.3633 17.4727 28.9473C 18.123 28.5254 18.8262 28.3145 19.582 28.3145C 20.8184 28.3145 21.7793 28.7217 22.4648 29.5361C 23.1504 30.3506 23.4932 31.5166 23.4932 33.0342L 23.4932 33.7109L 17.0508 33.7109C 17.0742 34.6484 17.3467 35.4072 17.8682 35.9873C 18.3955 36.5615 19.0635 36.8486 19.8721 36.8486C 20.4463 36.8486 20.9326 36.7314 21.3311 36.4971C 21.7295 36.2627 22.0781 35.9521 22.377 35.5654L 23.3701 36.3389C 22.5732 37.5635 21.3779 38.1758 19.7842 38.1758ZM 19.582 29.6504C 18.9258 29.6504 18.375 29.8906 17.9297 30.3711C 17.4844 30.8457 17.209 31.5137 17.1035 32.375L 21.8672 32.375L 21.8672 32.252C 21.8203 31.4258 21.5977 30.7871 21.1992 30.3359C 20.8008 29.8789 20.2617 29.6504 19.582 29.6504ZM 26.9121 28.4902L 26.9561 29.5449C 27.6533 28.7246 28.5938 28.3145 29.7773 28.3145C 31.1074 28.3145 32.0127 28.8242 32.4932 29.8438C 32.8096 29.3867 33.2197 29.0176 33.7236 28.7363C 34.2334 28.4551 34.834 28.3145 35.5254 28.3145C 37.6113 28.3145 38.6719 29.4189 38.707 31.6279L 38.707 38L 37.0811 38L 37.0811 31.7246C 37.0811 31.0449 36.9258 30.5381 36.6152 30.2041C 36.3047 29.8643 35.7832 29.6943 35.0508 29.6943C 34.4473 29.6943 33.9463 29.876 33.5479 30.2393C 33.1494 30.5967 32.918 31.0801 32.8535 31.6895L 32.8535 38L 31.2188 38L 31.2188 31.7686C 31.2188 30.3857 30.542 29.6943 29.1885 29.6943C 28.1221 29.6943 27.3926 30.1484 27 31.0566L 27 38L 25.374 38L 25.374 28.4902L 26.9121 28.4902ZM 45.1143 38.1758C 43.8252 38.1758 42.7764 37.7539 41.9678 36.9102C 41.1592 36.0605 40.7549 34.9268 40.7549 33.5088L 40.7549 33.21C 40.7549 32.2666 40.9336 31.4258 41.291 30.6875C 41.6543 29.9434 42.1582 29.3633 42.8027 28.9473C 43.4531 28.5254 44.1562 28.3145 44.9121 28.3145C 46.1484 28.3145 47.1094 28.7217 47.7949 29.5361C 48.4805 30.3506 48.8232 31.5166 48.8232 33.0342L 48.8232 33.7109L 42.3809 33.7109C 42.4043 34.6484 42.6768 35.4072 43.1982 35.9873C 43.7256 36.5615 44.3936 36.8486 45.2021 36.8486C 45.7764 36.8486 46.2627 36.7314 46.6611 36.4971C 47.0596 36.2627 47.4082 35.9521 47.707 35.5654L 48.7002 36.3389C 47.9033 37.5635 46.708 38.1758 45.1143 38.1758ZM 44.9121 29.6504C 44.2559 29.6504 43.7051 29.8906 43.2598 30.3711C 42.8145 30.8457 42.5391 31.5137 42.4336 32.375L 47.1973 32.375L 47.1973 32.252C 47.1504 31.4258 46.9277 30.7871 46.5293 30.3359C 46.1309 29.8789 45.5918 29.6504 44.9121 29.6504ZM 52.251 28.4902L 52.3037 29.6855C 53.0303 28.7715 53.9795 28.3145 55.1514 28.3145C 57.1611 28.3145 58.1748 29.4482 58.1924 31.7158L 58.1924 38L 56.5664 38L 56.5664 31.707C 56.5605 31.0215 56.4023 30.5146 56.0918 30.1865C 55.7871 29.8584 55.3096 29.6943 54.6592 29.6943C 54.1318 29.6943 53.6689 29.835 53.2705 30.1162C 52.8721 30.3975 52.5615 30.7666 52.3389 31.2236L 52.3389 38L 50.7129 38L 50.7129 28.4902L 52.251 28.4902ZM 62.8506 26.1875L 62.8506 28.4902L 64.626 28.4902L 64.626 29.7471L 62.8506 29.7471L 62.8506 35.6445C 62.8506 36.0254 62.9297 36.3125 63.0879 36.5059C 63.2461 36.6934 63.5156 36.7871 63.8965 36.7871C 64.084 36.7871 64.3418 36.752 64.6699 36.6816L 64.6699 38C 64.2422 38.1172 63.8262 38.1758 63.4219 38.1758C 62.6953 38.1758 62.1475 37.9561 61.7783 37.5166C 61.4092 37.0771 61.2246 36.4531 61.2246 35.6445L 61.2246 29.7471L 59.4932 29.7471L 59.4932 28.4902L 61.2246 28.4902L 61.2246 26.1875L 62.8506 26.1875ZM 66.4805 40.5488L 65.5576 39.916C 66.1084 39.1484 66.3955 38.3574 66.4189 37.543L 66.4189 36.0752L 68.0098 36.0752L 68.0098 37.3496C 68.0098 37.9414 67.8633 38.5332 67.5703 39.125C 67.2832 39.7168 66.9199 40.1914 66.4805 40.5488ZM 81.2285 33.7021L 83.0039 33.7021L 83.0039 35.0293L 81.2285 35.0293L 81.2285 38L 79.5938 38L 79.5938 35.0293L 73.7666 35.0293L 73.7666 34.0713L 79.4971 25.2031L 81.2285 25.2031L 81.2285 33.7021ZM 75.6123 33.7021L 79.5938 33.7021L 79.5938 27.4268L 79.4004 27.7783L 75.6123 33.7021Z"/>
<path id="path8_fill" d="M 3.42773 9.81055L 4.64941 9.81055C 5.41699 9.79883 6.02051 9.59668 6.45996 9.2041C 6.89941 8.81152 7.11914 8.28125 7.11914 7.61328C 7.11914 6.11328 6.37207 5.36328 4.87793 5.36328C 4.1748 5.36328 3.6123 5.56543 3.19043 5.96973C 2.77441 6.36816 2.56641 6.89844 2.56641 7.56055L 0.94043 7.56055C 0.94043 6.54687 1.30957 5.70605 2.04785 5.03809C 2.79199 4.36426 3.73535 4.02734 4.87793 4.02734C 6.08496 4.02734 7.03125 4.34668 7.7168 4.98535C 8.40234 5.62402 8.74512 6.51172 8.74512 7.64844C 8.74512 8.20508 8.56348 8.74414 8.2002 9.26562C 7.84277 9.78711 7.35352 10.1768 6.73242 10.4346C 7.43555 10.6572 7.97754 11.0264 8.3584 11.542C 8.74512 12.0576 8.93848 12.6875 8.93848 13.4316C 8.93848 14.5801 8.56348 15.4912 7.81348 16.165C 7.06348 16.8389 6.08789 17.1758 4.88672 17.1758C 3.68555 17.1758 2.70703 16.8506 1.95117 16.2002C 1.20117 15.5498 0.826172 14.6914 0.826172 13.625L 2.46094 13.625C 2.46094 14.2988 2.68066 14.8379 3.12012 15.2422C 3.55957 15.6465 4.14844 15.8486 4.88672 15.8486C 5.67187 15.8486 6.27246 15.6436 6.68848 15.2334C 7.10449 14.8232 7.3125 14.2344 7.3125 13.4668C 7.3125 12.7227 7.08398 12.1514 6.62695 11.7529C 6.16992 11.3545 5.51074 11.1494 4.64941 11.1377L 3.42773 11.1377L 3.42773 9.81055Z"/>
<path id="path9_fill" d="M 7.92773 12.7021L 9.70312 12.7021L 9.70312 14.0293L 7.92773 14.0293L 7.92773 17L 6.29297 17L 6.29297 14.0293L 0.46582 14.0293L 0.46582 13.0713L 6.19629 4.20312L 7.92773 4.20312L 7.92773 12.7021ZM 2.31152 12.7021L 6.29297 12.7021L 6.29297 6.42676L 6.09961 6.77832L 2.31152 12.7021Z"/>
<path id="path10_fill" d="M 6.17871 11.8232L 3.17285 11.8232L 3.17285 17L 1.47656 17L 1.47656 4.20312L 5.71289 4.20312C 7.1543 4.20312 8.26172 4.53125 9.03516 5.1875C 9.81445 5.84375 10.2041 6.79883 10.2041 8.05273C 10.2041 8.84961 9.98731 9.54395 9.55371 10.1357C 9.12598 10.7275 8.52832 11.1699 7.76074 11.4629L 10.7666 16.8945L 10.7666 17L 8.95605 17L 6.17871 11.8232ZM 3.17285 10.4434L 5.76562 10.4434C 6.60352 10.4434 7.26855 10.2266 7.76074 9.79297C 8.25879 9.35938 8.50781 8.7793 8.50781 8.05273C 8.50781 7.26172 8.27051 6.65527 7.7959 6.2334C 7.32715 5.81152 6.64746 5.59766 5.75684 5.5918L 3.17285 5.5918L 3.17285 10.4434ZM 16.2686 17.1758C 14.9795 17.1758 13.9307 16.7539 13.1221 15.9102C 12.3135 15.0605 11.9092 13.9268 11.9092 12.5088L 11.9092 12.21C 11.9092 11.2666 12.0879 10.4258 12.4453 9.6875C 12.8086 8.94336 13.3125 8.36328 13.957 7.94727C 14.6074 7.52539 15.3105 7.31445 16.0664 7.31445C 17.3027 7.31445 18.2637 7.72168 18.9492 8.53613C 19.6348 9.35059 19.9775 10.5166 19.9775 12.0342L 19.9775 12.7109L 13.5352 12.7109C 13.5586 13.6484 13.8311 14.4072 14.3525 14.9873C 14.8799 15.5615 15.5479 15.8486 16.3564 15.8486C 16.9307 15.8486 17.417 15.7314 17.8154 15.4971C 18.2139 15.2627 18.5625 14.9521 18.8613 14.5654L 19.8545 15.3389C 19.0576 16.5635 17.8623 17.1758 16.2686 17.1758ZM 16.0664 8.65039C 15.4102 8.65039 14.8594 8.89062 14.4141 9.37109C 13.9688 9.8457 13.6934 10.5137 13.5879 11.375L 18.3516 11.375L 18.3516 11.252C 18.3047 10.4258 18.082 9.78711 17.6836 9.33594C 17.2852 8.87891 16.7461 8.65039 16.0664 8.65039ZM 23.3965 7.49023L 23.4404 8.54492C 24.1377 7.72461 25.0781 7.31445 26.2617 7.31445C 27.5918 7.31445 28.4971 7.82422 28.9775 8.84375C 29.2939 8.38672 29.7041 8.01758 30.208 7.73633C 30.7178 7.45508 31.3184 7.31445 32.0098 7.31445C 34.0957 7.31445 35.1562 8.41895 35.1914 10.6279L 35.1914 17L 33.5654 17L 33.5654 10.7246C 33.5654 10.0449 33.4102 9.53809 33.0996 9.2041C 32.7891 8.86426 32.2676 8.69434 31.5352 8.69434C 30.9316 8.69434 30.4307 8.87598 30.0322 9.23926C 29.6338 9.59668 29.4023 10.0801 29.3379 10.6895L 29.3379 17L 27.7031 17L 27.7031 10.7686C 27.7031 9.38574 27.0264 8.69434 25.6729 8.69434C 24.6064 8.69434 23.877 9.14844 23.4844 10.0566L 23.4844 17L 21.8584 17L 21.8584 7.49023L 23.3965 7.49023ZM 37.2217 12.1572C 37.2217 11.2256 37.4033 10.3877 37.7666 9.64355C 38.1357 8.89941 38.6455 8.3252 39.2959 7.9209C 39.9521 7.5166 40.6992 7.31445 41.5371 7.31445C 42.832 7.31445 43.8779 7.7627 44.6748 8.65918C 45.4775 9.55566 45.8789 10.748 45.8789 12.2363L 45.8789 12.3506C 45.8789 13.2764 45.7002 14.1084 45.3428 14.8467C 44.9912 15.5791 44.4844 16.1504 43.8223 16.5605C 43.166 16.9707 42.4102 17.1758 41.5547 17.1758C 40.2656 17.1758 39.2197 16.7275 38.417 15.8311C 37.6201 14.9346 37.2217 13.748 37.2217 12.2715L 37.2217 12.1572ZM 38.8564 12.3506C 38.8564 13.4053 39.0996 14.252 39.5859 14.8906C 40.0781 15.5293 40.7344 15.8486 41.5547 15.8486C 42.3809 15.8486 43.0371 15.5264 43.5234 14.8818C 44.0098 14.2314 44.2529 13.3232 44.2529 12.1572C 44.2529 11.1143 44.0039 10.2705 43.5059 9.62598C 43.0137 8.97559 42.3574 8.65039 41.5371 8.65039C 40.7344 8.65039 40.0869 8.96973 39.5947 9.6084C 39.1025 10.2471 38.8564 11.1611 38.8564 12.3506ZM 50.915 14.7939L 53.2705 7.49023L 54.9316 7.49023L 51.5215 17L 50.2822 17L 46.8369 7.49023L 48.498 7.49023L 50.915 14.7939ZM 60.3193 17.1758C 59.0303 17.1758 57.9814 16.7539 57.1729 15.9102C 56.3643 15.0605 55.96 13.9268 55.96 12.5088L 55.96 12.21C 55.96 11.2666 56.1387 10.4258 56.4961 9.6875C 56.8594 8.94336 57.3633 8.36328 58.0078 7.94727C 58.6582 7.52539 59.3613 7.31445 60.1172 7.31445C 61.3535 7.31445 62.3145 7.72168 63 8.53613C 63.6855 9.35059 64.0283 10.5166 64.0283 12.0342L 64.0283 12.7109L 57.5859 12.7109C 57.6094 13.6484 57.8818 14.4072 58.4033 14.9873C 58.9307 15.5615 59.5986 15.8486 60.4072 15.8486C 60.9814 15.8486 61.4678 15.7314 61.8662 15.4971C 62.2646 15.2627 62.6133 14.9521 62.9121 14.5654L 63.9053 15.3389C 63.1084 16.5635 61.9131 17.1758 60.3193 17.1758ZM 60.1172 8.65039C 59.4609 8.65039 58.9102 8.89062 58.4648 9.37109C 58.0195 9.8457 57.7441 10.5137 57.6387 11.375L 62.4023 11.375L 62.4023 11.252C 62.3555 10.4258 62.1328 9.78711 61.7344 9.33594C 61.3359 8.87891 60.7969 8.65039 60.1172 8.65039ZM 8.71875 32.085L 3.17285 32.085L 3.17285 36.6201L 9.61523 36.6201L 9.61523 38L 1.48535 38L 1.48535 25.2031L 9.52734 25.2031L 9.52734 26.5918L 3.17285 26.5918L 3.17285 30.7051L 8.71875 30.7051L 8.71875 32.085ZM 13.2275 38L 11.6016 38L 11.6016 24.5L 13.2275 24.5L 13.2275 38ZM 19.7842 38.1758C 18.4951 38.1758 17.4463 37.7539 16.6377 36.9102C 15.8291 36.0605 15.4248 34.9268 15.4248 33.5088L 15.4248 33.21C 15.4248 32.2666 15.6035 31.4258 15.9609 30.6875C 16.3242 29.9434 16.8281 29.3633 17.4727 28.9473C 18.123 28.5254 18.8262 28.3145 19.582 28.3145C 20.8184 28.3145 21.7793 28.7217 22.4648 29.5361C 23.1504 30.3506 23.4932 31.5166 23.4932 33.0342L 23.4932 33.7109L 17.0508 33.7109C 17.0742 34.6484 17.3467 35.4072 17.8682 35.9873C 18.3955 36.5615 19.0635 36.8486 19.8721 36.8486C 20.4463 36.8486 20.9326 36.7314 21.3311 36.4971C 21.7295 36.2627 22.0781 35.9521 22.377 35.5654L 23.3701 36.3389C 22.5732 37.5635 21.3779 38.1758 19.7842 38.1758ZM 19.582 29.6504C 18.9258 29.6504 18.375 29.8906 17.9297 30.3711C 17.4844 30.8457 17.209 31.5137 17.1035 32.375L 21.8672 32.375L 21.8672 32.252C 21.8203 31.4258 21.5977 30.7871 21.1992 30.3359C 20.8008 29.8789 20.2617 29.6504 19.582 29.6504ZM 26.9121 28.4902L 26.9561 29.5449C 27.6533 28.7246 28.5938 28.3145 29.7773 28.3145C 31.1074 28.3145 32.0127 28.8242 32.4932 29.8438C 32.8096 29.3867 33.2197 29.0176 33.7236 28.7363C 34.2334 28.4551 34.834 28.3145 35.5254 28.3145C 37.6113 28.3145 38.6719 29.4189 38.707 31.6279L 38.707 38L 37.0811 38L 37.0811 31.7246C 37.0811 31.0449 36.9258 30.5381 36.6152 30.2041C 36.3047 29.8643 35.7832 29.6943 35.0508 29.6943C 34.4473 29.6943 33.9463 29.876 33.5479 30.2393C 33.1494 30.5967 32.918 31.0801 32.8535 31.6895L 32.8535 38L 31.2188 38L 31.2188 31.7686C 31.2188 30.3857 30.542 29.6943 29.1885 29.6943C 28.1221 29.6943 27.3926 30.1484 27 31.0566L 27 38L 25.374 38L 25.374 28.4902L 26.9121 28.4902ZM 45.1143 38.1758C 43.8252 38.1758 42.7764 37.7539 41.9678 36.9102C 41.1592 36.0605 40.7549 34.9268 40.7549 33.5088L 40.7549 33.21C 40.7549 32.2666 40.9336 31.4258 41.291 30.6875C 41.6543 29.9434 42.1582 29.3633 42.8027 28.9473C 43.4531 28.5254 44.1562 28.3145 44.9121 28.3145C 46.1484 28.3145 47.1094 28.7217 47.7949 29.5361C 48.4805 30.3506 48.8232 31.5166 48.8232 33.0342L 48.8232 33.7109L 42.3809 33.7109C 42.4043 34.6484 42.6768 35.4072 43.1982 35.9873C 43.7256 36.5615 44.3936 36.8486 45.2021 36.8486C 45.7764 36.8486 46.2627 36.7314 46.6611 36.4971C 47.0596 36.2627 47.4082 35.9521 47.707 35.5654L 48.7002 36.3389C 47.9033 37.5635 46.708 38.1758 45.1143 38.1758ZM 44.9121 29.6504C 44.2559 29.6504 43.7051 29.8906 43.2598 30.3711C 42.8145 30.8457 42.5391 31.5137 42.4336 32.375L 47.1973 32.375L 47.1973 32.252C 47.1504 31.4258 46.9277 30.7871 46.5293 30.3359C 46.1309 29.8789 45.5918 29.6504 44.9121 29.6504ZM 52.251 28.4902L 52.3037 29.6855C 53.0303 28.7715 53.9795 28.3145 55.1514 28.3145C 57.1611 28.3145 58.1748 29.4482 58.1924 31.7158L 58.1924 38L 56.5664 38L 56.5664 31.707C 56.5605 31.0215 56.4023 30.5146 56.0918 30.1865C 55.7871 29.8584 55.3096 29.6943 54.6592 29.6943C 54.1318 29.6943 53.6689 29.835 53.2705 30.1162C 52.8721 30.3975 52.5615 30.7666 52.3389 31.2236L 52.3389 38L 50.7129 38L 50.7129 28.4902L 52.251 28.4902ZM 62.8506 26.1875L 62.8506 28.4902L 64.626 28.4902L 64.626 29.7471L 62.8506 29.7471L 62.8506 35.6445C 62.8506 36.0254 62.9297 36.3125 63.0879 36.5059C 63.2461 36.6934 63.5156 36.7871 63.8965 36.7871C 64.084 36.7871 64.3418 36.752 64.6699 36.6816L 64.6699 38C 64.2422 38.1172 63.8262 38.1758 63.4219 38.1758C 62.6953 38.1758 62.1475 37.9561 61.7783 37.5166C 61.4092 37.0771 61.2246 36.4531 61.2246 35.6445L 61.2246 29.7471L 59.4932 29.7471L 59.4932 28.4902L 61.2246 28.4902L 61.2246 26.1875L 62.8506 26.1875Z"/>
</defs>
</svg>
