<svg width="321" height="305" viewBox="0 0 321 305" fill="none" xmlns="http://www.w3.org/2000/svg">
<path d="M4 55H54V105H4V55Z" fill="#C4C4C4"/>
<path d="M31.4688 88C31.3438 87.75 31.2422 87.3047 31.1641 86.6641C30.1563 87.7109 28.9531 88.2344 27.5547 88.2344C26.3047 88.2344 25.2773 87.8828 24.4727 87.1797C23.6758 86.4687 23.2773 85.5703 23.2773 84.4844C23.2773 83.1641 23.7773 82.1406 24.7773 81.4141C25.7852 80.6797 27.1992 80.3125 29.0195 80.3125H31.1289V79.3164C31.1289 78.5586 30.9023 77.957 30.4492 77.5117C29.9961 77.0586 29.3281 76.832 28.4453 76.832C27.6719 76.832 27.0234 77.0273 26.5 77.418C25.9766 77.8086 25.7148 78.2813 25.7148 78.8359H23.5352C23.5352 78.2031 23.7578 77.5938 24.2031 77.0078C24.6563 76.4141 25.2656 75.9453 26.0313 75.6016C26.8047 75.2578 27.6523 75.0859 28.5742 75.0859C30.0352 75.0859 31.1797 75.4531 32.0078 76.1875C32.8359 76.9141 33.2656 77.918 33.2969 79.1992V85.0352C33.2969 86.1992 33.4453 87.125 33.7422 87.8125V88H31.4688ZM27.8711 86.3477C28.5508 86.3477 29.1953 86.1719 29.8047 85.8203C30.4141 85.4688 30.8555 85.0117 31.1289 84.4492V81.8477H29.4297C26.7734 81.8477 25.4453 82.625 25.4453 84.1797C25.4453 84.8594 25.6719 85.3906 26.125 85.7734C26.5781 86.1563 27.1602 86.3477 27.8711 86.3477Z" fill="black"/>
<path d="M4 105H54V155H4V105Z" fill="#C4C4C4"/>
<path d="M34.375 131.801C34.375 133.738 33.9297 135.297 33.0391 136.477C32.1484 137.648 30.9531 138.234 29.4531 138.234C27.8516 138.234 26.6133 137.668 25.7383 136.535L25.6328 138H23.6406V120H25.8086V126.715C26.6836 125.629 27.8906 125.086 29.4297 125.086C30.9688 125.086 32.1758 125.668 33.0508 126.832C33.9336 127.996 34.375 129.59 34.375 131.613V131.801ZM32.207 131.555C32.207 130.078 31.9219 128.938 31.3516 128.133C30.7813 127.328 29.9609 126.926 28.8906 126.926C27.4609 126.926 26.4336 127.59 25.8086 128.918V134.402C26.4727 135.73 27.5078 136.395 28.9141 136.395C29.9531 136.395 30.7617 135.992 31.3398 135.188C31.918 134.383 32.207 133.172 32.207 131.555Z" fill="black"/>
<path d="M4 155H54V205H4V155Z" fill="#C4C4C4"/>
<path d="M28.7266 186.465C29.5 186.465 30.1758 186.23 30.7539 185.762C31.332 185.293 31.6523 184.707 31.7148 184.004H33.7656C33.7266 184.73 33.4766 185.422 33.0156 186.078C32.5547 186.734 31.9375 187.258 31.1641 187.648C30.3984 188.039 29.5859 188.234 28.7266 188.234C27 188.234 25.625 187.66 24.6016 186.512C23.5859 185.355 23.0781 183.777 23.0781 181.777V181.414C23.0781 180.18 23.3047 179.082 23.7578 178.121C24.2109 177.16 24.8594 176.414 25.7031 175.883C26.5547 175.352 27.5586 175.086 28.7148 175.086C30.1367 175.086 31.3164 175.512 32.2539 176.363C33.1992 177.215 33.7031 178.32 33.7656 179.68H31.7148C31.6523 178.859 31.3398 178.187 30.7773 177.664C30.2227 177.133 29.5352 176.867 28.7148 176.867C27.6133 176.867 26.7578 177.266 26.1484 178.062C25.5469 178.852 25.2461 179.996 25.2461 181.496V181.906C25.2461 183.367 25.5469 184.492 26.1484 185.281C26.75 186.07 27.6094 186.465 28.7266 186.465Z" fill="black"/>
<path d="M265 55H315V105H265V55Z" fill="#C4C4C4"/>
<path d="M295.117 80.7227C295.117 83.2617 294.684 85.1484 293.816 86.3828C292.949 87.6172 291.594 88.2344 289.75 88.2344C287.93 88.2344 286.582 87.6328 285.707 86.4297C284.832 85.2188 284.379 83.4141 284.348 81.0156V78.1211C284.348 75.6133 284.781 73.75 285.648 72.5313C286.516 71.3125 287.875 70.7031 289.727 70.7031C291.562 70.7031 292.914 71.293 293.781 72.4727C294.648 73.6445 295.094 75.457 295.117 77.9102V80.7227ZM292.949 77.7578C292.949 75.9219 292.691 74.5859 292.176 73.75C291.66 72.9063 290.844 72.4844 289.727 72.4844C288.617 72.4844 287.809 72.9023 287.301 73.7383C286.793 74.5742 286.531 75.8594 286.516 77.5938V81.0625C286.516 82.9063 286.781 84.2695 287.312 85.1523C287.852 86.0273 288.664 86.4648 289.75 86.4648C290.82 86.4648 291.613 86.0508 292.129 85.2227C292.652 84.3945 292.926 83.0898 292.949 81.3086V77.7578Z" fill="black"/>
<path d="M265 105H315V155H265V105Z" fill="#C4C4C4"/>
<path d="M291.543 138H289.363V123.551L284.992 125.156V123.187L291.203 120.855H291.543V138Z" fill="black"/>
<path d="M265 155H315V205H265V155Z" fill="#C4C4C4"/>
<path d="M295.598 188H284.418V186.441L290.324 179.879C291.199 178.887 291.801 178.082 292.129 177.465C292.465 176.84 292.633 176.195 292.633 175.531C292.633 174.641 292.363 173.91 291.824 173.34C291.285 172.77 290.566 172.484 289.668 172.484C288.59 172.484 287.75 172.793 287.148 173.41C286.555 174.02 286.258 174.871 286.258 175.965H284.09C284.09 174.395 284.594 173.125 285.602 172.156C286.617 171.188 287.973 170.703 289.668 170.703C291.254 170.703 292.508 171.121 293.43 171.957C294.352 172.785 294.813 173.891 294.813 175.273C294.813 176.953 293.742 178.953 291.602 181.273L287.031 186.231H295.598V188Z" fill="black"/>
<path d="M4 205H54V255H4V205Z" fill="#C4C4C4"/>
<path d="M23.1133 231.555C23.1133 229.609 23.5742 228.047 24.4961 226.867C25.418 225.68 26.625 225.086 28.1172 225.086C29.6016 225.086 30.7773 225.594 31.6445 226.609V220H33.8125V238H31.8203L31.7148 236.641C30.8477 237.703 29.6406 238.234 28.0938 238.234C26.625 238.234 25.4258 237.633 24.4961 236.43C23.5742 235.227 23.1133 233.656 23.1133 231.719V231.555ZM25.2813 231.801C25.2813 233.238 25.5781 234.363 26.1719 235.176C26.7656 235.988 27.5859 236.395 28.6328 236.395C30.0078 236.395 31.0117 235.777 31.6445 234.543V228.719C30.9961 227.523 30 226.926 28.6563 226.926C27.5938 226.926 26.7656 227.336 26.1719 228.156C25.5781 228.977 25.2813 230.191 25.2813 231.801Z" fill="black"/>
<path d="M4 255H54V305H4V255Z" fill="#C4C4C4"/>
<path d="M28.9023 288.234C27.1836 288.234 25.7852 287.672 24.707 286.547C23.6289 285.414 23.0898 283.902 23.0898 282.012V281.613C23.0898 280.355 23.3281 279.234 23.8047 278.25C24.2891 277.258 24.9609 276.484 25.8203 275.93C26.6875 275.367 27.625 275.086 28.6328 275.086C30.2813 275.086 31.5625 275.629 32.4766 276.715C33.3906 277.801 33.8477 279.355 33.8477 281.379V282.281H25.2578C25.2891 283.531 25.6523 284.543 26.3477 285.316C27.0508 286.082 27.9414 286.465 29.0195 286.465C29.7852 286.465 30.4336 286.309 30.9648 285.996C31.4961 285.684 31.9609 285.269 32.3594 284.754L33.6836 285.785C32.6211 287.418 31.0273 288.234 28.9023 288.234ZM28.6328 276.867C27.7578 276.867 27.0234 277.187 26.4297 277.828C25.8359 278.461 25.4688 279.352 25.3281 280.5H31.6797V280.336C31.6172 279.234 31.3203 278.383 30.7891 277.781C30.2578 277.172 29.5391 276.867 28.6328 276.867Z" fill="black"/>
<path d="M276.402 13.5469H269.254L267.648 18H265.328L271.844 0.9375H273.812L280.34 18H278.031L276.402 13.5469ZM269.934 11.6953H275.734L272.828 3.71484L269.934 11.6953ZM288.426 7.2656C288.098 7.2109 287.742 7.1836 287.359 7.1836C285.937 7.1836 284.973 7.7891 284.465 9V18H282.297V5.32031H284.406L284.441 6.7852C285.152 5.65234 286.16 5.08594 287.465 5.08594C287.887 5.08594 288.207 5.14062 288.426 5.25V7.2656ZM296.559 7.2656C296.23 7.2109 295.875 7.1836 295.492 7.1836C294.07 7.1836 293.106 7.7891 292.598 9V18H290.43V5.32031H292.539L292.574 6.7852C293.285 5.65234 294.293 5.08594 295.598 5.08594C296.02 5.08594 296.34 5.14062 296.559 5.25V7.2656ZM305.922 18C305.797 17.75 305.695 17.3047 305.617 16.6641C304.609 17.7109 303.406 18.2344 302.008 18.2344C300.758 18.2344 299.731 17.8828 298.926 17.1797C298.129 16.4687 297.73 15.5703 297.73 14.4844C297.73 13.1641 298.23 12.1406 299.23 11.4141C300.238 10.6797 301.652 10.3125 303.473 10.3125H305.582V9.3164C305.582 8.5586 305.356 7.957 304.902 7.5117C304.449 7.0586 303.781 6.832 302.898 6.832C302.125 6.832 301.477 7.0273 300.953 7.418C300.43 7.8086 300.168 8.2813 300.168 8.8359H297.988C297.988 8.2031 298.211 7.5938 298.656 7.0078C299.109 6.4141 299.719 5.94531 300.484 5.60156C301.258 5.25781 302.106 5.08594 303.027 5.08594C304.488 5.08594 305.633 5.45313 306.461 6.1875C307.289 6.9141 307.719 7.918 307.75 9.1992V15.0352C307.75 16.1992 307.898 17.125 308.195 17.8125V18H305.922ZM302.324 16.3477C303.004 16.3477 303.648 16.1719 304.258 15.8203C304.867 15.4688 305.309 15.0117 305.582 14.4492V11.8477H303.883C301.227 11.8477 299.898 12.625 299.898 14.1797C299.898 14.8594 300.125 15.3906 300.578 15.7734C301.031 16.1563 301.613 16.3477 302.324 16.3477ZM315.109 14.8242L318.062 5.32031H320.383L315.285 19.957C314.496 22.0664 313.242 23.1211 311.523 23.1211L311.113 23.0859L310.305 22.9336V21.1758L310.891 21.2227C311.625 21.2227 312.195 21.0742 312.602 20.7773C313.016 20.4805 313.356 19.9375 313.621 19.1484L314.102 17.8594L309.578 5.32031H311.945L315.109 14.8242Z" fill="black"/>
<path d="M7.62891 15.0117L12.5039 0.9375H14.9648L8.63672 18H6.64453L0.328125 0.9375H2.77734L7.62891 15.0117ZM24.2109 18C24.0859 17.75 23.9844 17.3047 23.9062 16.6641C22.8984 17.7109 21.6953 18.2344 20.2969 18.2344C19.0469 18.2344 18.0195 17.8828 17.2148 17.1797C16.418 16.4687 16.0195 15.5703 16.0195 14.4844C16.0195 13.1641 16.5195 12.1406 17.5195 11.4141C18.5273 10.6797 19.9414 10.3125 21.7617 10.3125H23.8711V9.3164C23.8711 8.5586 23.6445 7.957 23.1914 7.5117C22.7383 7.0586 22.0703 6.832 21.1875 6.832C20.4141 6.832 19.7656 7.0273 19.2422 7.418C18.7188 7.8086 18.457 8.2813 18.457 8.8359H16.2773C16.2773 8.2031 16.5 7.5938 16.9453 7.0078C17.3984 6.4141 18.0078 5.94531 18.7734 5.60156C19.5469 5.25781 20.3945 5.08594 21.3164 5.08594C22.7773 5.08594 23.9219 5.45313 24.75 6.1875C25.5781 6.9141 26.0078 7.918 26.0391 9.1992V15.0352C26.0391 16.1992 26.1875 17.125 26.4844 17.8125V18H24.2109ZM20.6133 16.3477C21.293 16.3477 21.9375 16.1719 22.5469 15.8203C23.1562 15.4688 23.5977 15.0117 23.8711 14.4492V11.8477H22.1719C19.5156 11.8477 18.1875 12.625 18.1875 14.1797C18.1875 14.8594 18.4141 15.3906 18.8672 15.7734C19.3203 16.1563 19.9023 16.3477 20.6133 16.3477ZM31.793 18H29.625V0H31.793V18ZM43.1016 16.7461C42.2578 17.7383 41.0195 18.2344 39.3867 18.2344C38.0352 18.2344 37.0039 17.8438 36.293 17.0625C35.5898 16.2734 35.2344 15.1094 35.2266 13.5703V5.32031H37.3945V13.5117C37.3945 15.4336 38.1758 16.3945 39.7383 16.3945C41.3945 16.3945 42.4961 15.7773 43.043 14.543V5.32031H45.2109V18H43.1484L43.1016 16.7461ZM53.7773 18.2344C52.0586 18.2344 50.6602 17.6719 49.582 16.5469C48.5039 15.4141 47.9648 13.9023 47.9648 12.0117V11.6133C47.9648 10.3555 48.2031 9.2344 48.6797 8.25C49.1641 7.2578 49.8359 6.4844 50.6953 5.92969C51.5625 5.36719 52.5 5.08594 53.5078 5.08594C55.1563 5.08594 56.4375 5.62891 57.3516 6.7148C58.2656 7.8008 58.7227 9.3555 58.7227 11.3789V12.2812H50.1328C50.1641 13.5312 50.5273 14.543 51.2227 15.3164C51.9258 16.082 52.8164 16.4648 53.8945 16.4648C54.6602 16.4648 55.3086 16.3086 55.8398 15.9961C56.3711 15.6836 56.8359 15.2695 57.2344 14.7539L58.5586 15.7852C57.4961 17.418 55.9023 18.2344 53.7773 18.2344ZM53.5078 6.8672C52.6328 6.8672 51.8984 7.1875 51.3047 7.8281C50.7109 8.4609 50.3438 9.3516 50.2031 10.5H56.5547V10.3359C56.4922 9.2344 56.1953 8.3828 55.6641 7.7812C55.1328 7.1719 54.4141 6.8672 53.5078 6.8672ZM68.625 14.6367C68.625 14.0508 68.4023 13.5977 67.957 13.2773C67.5195 12.9492 66.75 12.668 65.6484 12.4336C64.5547 12.1992 63.6836 11.918 63.0352 11.5898C62.3945 11.2617 61.918 10.8711 61.6055 10.418C61.3008 9.9648 61.1484 9.4258 61.1484 8.8008C61.1484 7.7617 61.5859 6.8828 62.4609 6.1641C63.3438 5.44531 64.4688 5.08594 65.8359 5.08594C67.2734 5.08594 68.4375 5.45703 69.3281 6.1992C70.2266 6.9414 70.6758 7.8906 70.6758 9.0469H68.4961C68.4961 8.4531 68.2422 7.9414 67.7344 7.5117C67.2344 7.082 66.6016 6.8672 65.8359 6.8672C65.0469 6.8672 64.4297 7.0391 63.9844 7.3828C63.5391 7.7266 63.3164 8.1758 63.3164 8.7305C63.3164 9.2539 63.5234 9.6484 63.9375 9.9141C64.3516 10.1797 65.0977 10.4336 66.1758 10.6758C67.2617 10.918 68.1406 11.207 68.8125 11.543C69.4844 11.8789 69.9805 12.2852 70.3008 12.7617C70.6289 13.2305 70.793 13.8047 70.793 14.4844C70.793 15.6172 70.3398 16.5273 69.4336 17.2148C68.5273 17.8945 67.3516 18.2344 65.9062 18.2344C64.8906 18.2344 63.9922 18.0547 63.2109 17.6953C62.4297 17.3359 61.8164 16.8359 61.3711 16.1953C60.9336 15.5469 60.7148 14.8477 60.7148 14.0977H62.8828C62.9219 14.8242 63.2109 15.4023 63.75 15.832C64.2969 16.2539 65.0156 16.4648 65.9062 16.4648C66.7266 16.4648 67.3828 16.3008 67.875 15.9727C68.375 15.6367 68.625 15.1914 68.625 14.6367Z" fill="black"/>
<path d="M264.845 78.8361C265.052 78.6505 265.052 78.3495 264.845 78.1639L261.48 75.1392C261.273 74.9536 260.939 74.9536 260.732 75.1392C260.525 75.3248 260.525 75.6258 260.732 75.8114L263.723 78.5L260.732 81.1886C260.525 81.3742 260.525 81.6752 260.732 81.8608C260.939 82.0464 261.273 82.0464 261.48 81.8608L264.845 78.8361ZM72 78.9753H264.471V78.0247H72V78.9753Z" fill="black"/>
<path d="M264.845 128.836C265.052 128.65 265.052 128.35 264.845 128.164L261.48 125.139C261.273 124.954 260.939 124.954 260.732 125.139C260.525 125.325 260.525 125.626 260.732 125.811L263.723 128.5L260.732 131.189C260.525 131.374 260.525 131.675 260.732 131.861C260.939 132.046 261.273 132.046 261.48 131.861L264.845 128.836ZM72 128.975H264.471V128.025H72V128.975Z" fill="black"/>
<path d="M254.354 180.354C254.549 180.158 254.549 179.842 254.354 179.646L251.172 176.464C250.976 176.269 250.66 176.269 250.464 176.464C250.269 176.66 250.269 176.976 250.464 177.172L253.293 180L250.464 182.828C250.269 183.024 250.269 183.34 250.464 183.536C250.66 183.731 250.976 183.731 251.172 183.536L254.354 180.354ZM72 180.5H254V179.5H72V180.5Z" fill="black"/>
<path d="M264.463 74.2848C264.797 74.2801 265.018 74.5425 264.956 74.8708L263.961 80.2097C263.9 80.5371 263.58 80.8063 263.247 80.81C262.914 80.8138 262.693 80.5514 262.754 80.224L263.639 75.4778L258.812 75.536C258.479 75.5398 258.258 75.2774 258.319 74.95C258.38 74.6226 258.7 74.3535 259.033 74.3497L264.463 74.2848ZM74.2177 234.075L169.111 154.269L264.005 74.4631L264.702 75.2919L74.9147 234.904L74.2177 234.075Z" fill="black"/>
<path d="M264.463 126.883C264.797 126.879 265.018 127.141 264.956 127.469L263.961 132.808C263.9 133.135 263.58 133.405 263.247 133.408C262.914 133.412 262.693 133.15 262.754 132.822L263.639 128.076L258.812 128.134C258.479 128.138 258.258 127.876 258.319 127.548C258.38 127.221 258.7 126.952 259.033 126.948L264.463 126.883ZM74.2177 286.673L169.111 206.867L264.005 127.062L264.702 127.89L74.9147 287.502L74.2177 286.673Z" fill="black"/>
</svg>
