<svg width="503" height="305" viewBox="0 0 503 305" version="1.1" xmlns="http://www.w3.org/2000/svg" xmlns:xlink="http://www.w3.org/1999/xlink" xmlns:figma="http://www.figma.com/figma/ns">
<title>hash_table_list</title>
<desc>Created using Figma</desc>
<g id="Canvas" transform="translate(537 795)" figma:type="canvas">
<g id="Rectangle" figma:type="rounded-rectangle">
<use xlink:href="#path0_fill" transform="translate(-526 -740)" fill="#C4C4C4"/>
</g>
<g id="a" figma:type="text">
<use xlink:href="#path1_fill" transform="translate(-508 -729)"/>
</g>
<g id="Rectangle" figma:type="rounded-rectangle">
<use xlink:href="#path0_fill" transform="translate(-526 -690)" fill="#C4C4C4"/>
</g>
<g id="b" figma:type="text">
<use xlink:href="#path2_fill" transform="translate(-508 -679)"/>
</g>
<g id="Rectangle" figma:type="rounded-rectangle">
<use xlink:href="#path0_fill" transform="translate(-526 -640)" fill="#C4C4C4"/>
</g>
<g id="c" figma:type="text">
<use xlink:href="#path3_fill" transform="translate(-508 -629)"/>
</g>
<g id="Rectangle" figma:type="rounded-rectangle">
<use xlink:href="#path0_fill" transform="translate(-265 -740)" fill="#C4C4C4"/>
</g>
<g id="0" figma:type="text">
<use xlink:href="#path4_fill" transform="translate(-247 -729)"/>
</g>
<g id="Rectangle" figma:type="rounded-rectangle">
<use xlink:href="#path0_fill" transform="translate(-265 -690)" fill="#C4C4C4"/>
</g>
<g id="1" figma:type="text">
<use xlink:href="#path5_fill" transform="translate(-247 -679)"/>
</g>
<g id="Rectangle" figma:type="rounded-rectangle">
<use xlink:href="#path0_fill" transform="translate(-265 -640)" fill="#C4C4C4"/>
</g>
<g id="2" figma:type="text">
<use xlink:href="#path6_fill" transform="translate(-247 -629)"/>
</g>
<g id="Rectangle" figma:type="rounded-rectangle">
<use xlink:href="#path0_fill" transform="translate(-526 -590)" fill="#C4C4C4"/>
</g>
<g id="d" figma:type="text">
<use xlink:href="#path7_fill" transform="translate(-508 -579)"/>
</g>
<g id="Rectangle" figma:type="rounded-rectangle">
<use xlink:href="#path0_fill" transform="translate(-526 -540)" fill="#C4C4C4"/>
</g>
<g id="e" figma:type="text">
<use xlink:href="#path8_fill" transform="translate(-508 -529)"/>
</g>
<g id="Array" figma:type="text">
<use xlink:href="#path9_fill" transform="translate(-265 -799)"/>
</g>
<g id="Values" figma:type="text">
<use xlink:href="#path10_fill" transform="translate(-537 -799)"/>
</g>
<g id="Arrow" figma:type="vector">
<use xlink:href="#path11_stroke" transform="matrix(0.888492 -0.458892 0.458892 0.888492 -458 -515)"/>
</g>
<g id="Arrow 2" figma:type="vector">
<use xlink:href="#path12_stroke" transform="translate(-458 -715)"/>
</g>
<g id="Arrow 3" figma:type="vector">
<use xlink:href="#path12_stroke" transform="translate(-458 -665)"/>
</g>
<g id="Arrow 4" figma:type="vector">
<use xlink:href="#path12_stroke" transform="translate(-458 -615)"/>
</g>
<g id="Arrow 5" figma:type="vector">
<use xlink:href="#path13_stroke" transform="matrix(0.968236 -0.250039 0.250039 0.968236 -458 -562)"/>
</g>
<g id="Arrow 6" figma:type="vector">
<use xlink:href="#path14_stroke" transform="translate(-196 -715)"/>
</g>
<g id="[a]" figma:type="text">
<use xlink:href="#path15_fill" transform="translate(-94 -728)"/>
</g>
<g id="Arrow 7" figma:type="vector">
<use xlink:href="#path14_stroke" transform="translate(-196 -665)"/>
</g>
<g id="[b]" figma:type="text">
<use xlink:href="#path16_fill" transform="translate(-94 -679)"/>
</g>
<g id="Arrow 7" figma:type="vector">
<use xlink:href="#path14_stroke" transform="translate(-196 -615)"/>
</g>
<g id="[c,d,e]" figma:type="text">
<use xlink:href="#path17_fill" transform="translate(-94 -629)"/>
</g>
</g>
<defs>
<path id="path0_fill" d="M 0 0L 50 0L 50 50L 0 50L 0 0Z"/>
<path id="path1_fill" d="M 9.46875 22C 9.34375 21.75 9.24219 21.3047 9.16406 20.6641C 8.15625 21.7109 6.95312 22.2344 5.55469 22.2344C 4.30469 22.2344 3.27734 21.8828 2.47266 21.1797C 1.67578 20.4687 1.27734 19.5703 1.27734 18.4844C 1.27734 17.1641 1.77734 16.1406 2.77734 15.4141C 3.78516 14.6797 5.19922 14.3125 7.01953 14.3125L 9.12891 14.3125L 9.12891 13.3164C 9.12891 12.5586 8.90234 11.957 8.44922 11.5117C 7.99609 11.0586 7.32812 10.832 6.44531 10.832C 5.67188 10.832 5.02344 11.0273 4.5 11.418C 3.97656 11.8086 3.71484 12.2813 3.71484 12.8359L 1.53516 12.8359C 1.53516 12.2031 1.75781 11.5938 2.20312 11.0078C 2.65625 10.4141 3.26562 9.94531 4.03125 9.60156C 4.80469 9.25781 5.65234 9.08594 6.57422 9.08594C 8.03516 9.08594 9.17969 9.45313 10.0078 10.1875C 10.8359 10.9141 11.2656 11.918 11.2969 13.1992L 11.2969 19.0352C 11.2969 20.1992 11.4453 21.125 11.7422 21.8125L 11.7422 22L 9.46875 22ZM 5.87109 20.3477C 6.55078 20.3477 7.19531 20.1719 7.80469 19.8203C 8.41406 19.4688 8.85547 19.0117 9.12891 18.4492L 9.12891 15.8477L 7.42969 15.8477C 4.77344 15.8477 3.44531 16.625 3.44531 18.1797C 3.44531 18.8594 3.67188 19.3906 4.125 19.7734C 4.57812 20.1563 5.16016 20.3477 5.87109 20.3477Z"/>
<path id="path2_fill" d="M 12.375 15.8008C 12.375 17.7383 11.9297 19.2969 11.0391 20.4766C 10.1484 21.6484 8.95312 22.2344 7.45312 22.2344C 5.85156 22.2344 4.61328 21.668 3.73828 20.5352L 3.63281 22L 1.64062 22L 1.64062 4L 3.80859 4L 3.80859 10.7148C 4.68359 9.62891 5.89062 9.08594 7.42969 9.08594C 8.96875 9.08594 10.1758 9.66797 11.0508 10.832C 11.9336 11.9961 12.375 13.5898 12.375 15.6133L 12.375 15.8008ZM 10.207 15.5547C 10.207 14.0781 9.92188 12.9375 9.35156 12.1328C 8.78125 11.3281 7.96094 10.9258 6.89062 10.9258C 5.46094 10.9258 4.43359 11.5898 3.80859 12.918L 3.80859 18.4023C 4.47266 19.7305 5.50781 20.3945 6.91406 20.3945C 7.95313 20.3945 8.76172 19.9922 9.33984 19.1875C 9.91797 18.3828 10.207 17.1719 10.207 15.5547Z"/>
<path id="path3_fill" d="M 6.72656 20.4648C 7.5 20.4648 8.17578 20.2305 8.75391 19.7617C 9.33203 19.293 9.65234 18.707 9.71484 18.0039L 11.7656 18.0039C 11.7266 18.7305 11.4766 19.4219 11.0156 20.0781C 10.5547 20.7344 9.9375 21.2578 9.16406 21.6484C 8.39844 22.0391 7.58594 22.2344 6.72656 22.2344C 5 22.2344 3.625 21.6602 2.60156 20.5117C 1.58594 19.3555 1.07812 17.7773 1.07812 15.7773L 1.07812 15.4141C 1.07812 14.1797 1.30469 13.082 1.75781 12.1211C 2.21094 11.1602 2.85938 10.4141 3.70312 9.88281C 4.55469 9.35156 5.55859 9.08594 6.71484 9.08594C 8.13672 9.08594 9.31641 9.51172 10.2539 10.3633C 11.1992 11.2148 11.7031 12.3203 11.7656 13.6797L 9.71484 13.6797C 9.65234 12.8594 9.33984 12.1875 8.77734 11.6641C 8.22266 11.1328 7.53516 10.8672 6.71484 10.8672C 5.61328 10.8672 4.75781 11.2656 4.14844 12.0625C 3.54687 12.8516 3.24609 13.9961 3.24609 15.4961L 3.24609 15.9062C 3.24609 17.3672 3.54687 18.4922 4.14844 19.2812C 4.75 20.0703 5.60937 20.4648 6.72656 20.4648Z"/>
<path id="path4_fill" d="M 12.1172 14.7227C 12.1172 17.2617 11.6836 19.1484 10.8164 20.3828C 9.94922 21.6172 8.59375 22.2344 6.75 22.2344C 4.92969 22.2344 3.58203 21.6328 2.70703 20.4297C 1.83203 19.2188 1.37891 17.4141 1.34766 15.0156L 1.34766 12.1211C 1.34766 9.61328 1.78125 7.75 2.64844 6.53125C 3.51562 5.3125 4.875 4.70312 6.72656 4.70312C 8.5625 4.70312 9.91406 5.29297 10.7812 6.47266C 11.6484 7.64453 12.0938 9.45703 12.1172 11.9102L 12.1172 14.7227ZM 9.94922 11.7578C 9.94922 9.92188 9.69141 8.58594 9.17578 7.75C 8.66016 6.90625 7.84375 6.48438 6.72656 6.48438C 5.61719 6.48438 4.80859 6.90234 4.30078 7.73828C 3.79297 8.57422 3.53125 9.85938 3.51562 11.5938L 3.51562 15.0625C 3.51562 16.9063 3.78125 18.2695 4.3125 19.1523C 4.85156 20.0273 5.66406 20.4648 6.75 20.4648C 7.82031 20.4648 8.61328 20.0508 9.12891 19.2227C 9.65234 18.3945 9.92578 17.0898 9.94922 15.3086L 9.94922 11.7578Z"/>
<path id="path5_fill" d="M 8.54297 22L 6.36328 22L 6.36328 7.55078L 1.99219 9.15625L 1.99219 7.1875L 8.20312 4.85547L 8.54297 4.85547L 8.54297 22Z"/>
<path id="path6_fill" d="M 12.5977 22L 1.41797 22L 1.41797 20.4414L 7.32422 13.8789C 8.19922 12.8867 8.80078 12.082 9.12891 11.4648C 9.46484 10.8398 9.63281 10.1953 9.63281 9.53125C 9.63281 8.64062 9.36328 7.91016 8.82422 7.33984C 8.28516 6.76953 7.56641 6.48438 6.66797 6.48438C 5.58984 6.48438 4.75 6.79297 4.14844 7.41016C 3.55469 8.01953 3.25781 8.87109 3.25781 9.96484L 1.08984 9.96484C 1.08984 8.39453 1.59375 7.125 2.60156 6.15625C 3.61719 5.1875 4.97266 4.70312 6.66797 4.70312C 8.25391 4.70312 9.50781 5.12109 10.4297 5.95703C 11.3516 6.78516 11.8125 7.89062 11.8125 9.27344C 11.8125 10.9531 10.7422 12.9531 8.60156 15.2734L 4.03125 20.2305L 12.5977 20.2305L 12.5977 22Z"/>
<path id="path7_fill" d="M 1.11328 15.5547C 1.11328 13.6094 1.57422 12.0469 2.49609 10.8672C 3.41797 9.67969 4.625 9.08594 6.11719 9.08594C 7.60156 9.08594 8.77734 9.59375 9.64453 10.6094L 9.64453 4L 11.8125 4L 11.8125 22L 9.82031 22L 9.71484 20.6406C 8.84766 21.7031 7.64062 22.2344 6.09375 22.2344C 4.625 22.2344 3.42578 21.6328 2.49609 20.4297C 1.57422 19.2266 1.11328 17.6563 1.11328 15.7188L 1.11328 15.5547ZM 3.28125 15.8008C 3.28125 17.2383 3.57813 18.3633 4.17188 19.1758C 4.76562 19.9883 5.58594 20.3945 6.63281 20.3945C 8.00781 20.3945 9.01172 19.7773 9.64453 18.543L 9.64453 12.7188C 8.99609 11.5234 8 10.9258 6.65625 10.9258C 5.59375 10.9258 4.76562 11.3359 4.17188 12.1562C 3.57813 12.9766 3.28125 14.1914 3.28125 15.8008Z"/>
<path id="path8_fill" d="M 6.90234 22.2344C 5.18359 22.2344 3.78516 21.6719 2.70703 20.5469C 1.62891 19.4141 1.08984 17.9023 1.08984 16.0117L 1.08984 15.6133C 1.08984 14.3555 1.32813 13.2344 1.80469 12.25C 2.28906 11.2578 2.96094 10.4844 3.82031 9.92969C 4.6875 9.36719 5.625 9.08594 6.63281 9.08594C 8.28125 9.08594 9.5625 9.62891 10.4766 10.7148C 11.3906 11.8008 11.8477 13.3555 11.8477 15.3789L 11.8477 16.2812L 3.25781 16.2812C 3.28906 17.5312 3.65234 18.543 4.34766 19.3164C 5.05078 20.082 5.94141 20.4648 7.01953 20.4648C 7.78516 20.4648 8.43359 20.3086 8.96484 19.9961C 9.49609 19.6836 9.96094 19.2695 10.3594 18.7539L 11.6836 19.7852C 10.6211 21.418 9.02734 22.2344 6.90234 22.2344ZM 6.63281 10.8672C 5.75781 10.8672 5.02344 11.1875 4.42969 11.8281C 3.83594 12.4609 3.46875 13.3516 3.32812 14.5L 9.67969 14.5L 9.67969 14.3359C 9.61719 13.2344 9.32031 12.3828 8.78906 11.7812C 8.25781 11.1719 7.53906 10.8672 6.63281 10.8672Z"/>
<path id="path9_fill" d="M 11.4023 17.5469L 4.25391 17.5469L 2.64844 22L 0.328125 22L 6.84375 4.9375L 8.8125 4.9375L 15.3398 22L 13.0312 22L 11.4023 17.5469ZM 4.93359 15.6953L 10.7344 15.6953L 7.82812 7.71484L 4.93359 15.6953ZM 23.4258 11.2656C 23.0977 11.2109 22.7422 11.1836 22.3594 11.1836C 20.9375 11.1836 19.9727 11.7891 19.4648 13L 19.4648 22L 17.2969 22L 17.2969 9.32031L 19.4062 9.32031L 19.4414 10.7852C 20.1523 9.65234 21.1602 9.08594 22.4648 9.08594C 22.8867 9.08594 23.207 9.14062 23.4258 9.25L 23.4258 11.2656ZM 31.5586 11.2656C 31.2305 11.2109 30.875 11.1836 30.4922 11.1836C 29.0703 11.1836 28.1055 11.7891 27.5977 13L 27.5977 22L 25.4297 22L 25.4297 9.32031L 27.5391 9.32031L 27.5742 10.7852C 28.2852 9.65234 29.293 9.08594 30.5977 9.08594C 31.0195 9.08594 31.3398 9.14062 31.5586 9.25L 31.5586 11.2656ZM 40.9219 22C 40.7969 21.75 40.6953 21.3047 40.6172 20.6641C 39.6094 21.7109 38.4062 22.2344 37.0078 22.2344C 35.7578 22.2344 34.7305 21.8828 33.9258 21.1797C 33.1289 20.4687 32.7305 19.5703 32.7305 18.4844C 32.7305 17.1641 33.2305 16.1406 34.2305 15.4141C 35.2383 14.6797 36.6523 14.3125 38.4727 14.3125L 40.582 14.3125L 40.582 13.3164C 40.582 12.5586 40.3555 11.957 39.9023 11.5117C 39.4492 11.0586 38.7812 10.832 37.8984 10.832C 37.125 10.832 36.4766 11.0273 35.9531 11.418C 35.4297 11.8086 35.168 12.2813 35.168 12.8359L 32.9883 12.8359C 32.9883 12.2031 33.2109 11.5938 33.6562 11.0078C 34.1094 10.4141 34.7187 9.94531 35.4844 9.60156C 36.2578 9.25781 37.1055 9.08594 38.0273 9.08594C 39.4883 9.08594 40.6328 9.45313 41.4609 10.1875C 42.2891 10.9141 42.7187 11.918 42.75 13.1992L 42.75 19.0352C 42.75 20.1992 42.8984 21.125 43.1953 21.8125L 43.1953 22L 40.9219 22ZM 37.3242 20.3477C 38.0039 20.3477 38.6484 20.1719 39.2578 19.8203C 39.8672 19.4688 40.3086 19.0117 40.582 18.4492L 40.582 15.8477L 38.8828 15.8477C 36.2266 15.8477 34.8984 16.625 34.8984 18.1797C 34.8984 18.8594 35.125 19.3906 35.5781 19.7734C 36.0312 20.1563 36.6133 20.3477 37.3242 20.3477ZM 50.1094 18.8242L 53.0625 9.32031L 55.3828 9.32031L 50.2852 23.957C 49.4961 26.0664 48.2422 27.1211 46.5234 27.1211L 46.1133 27.0859L 45.3047 26.9336L 45.3047 25.1758L 45.8906 25.2227C 46.625 25.2227 47.1953 25.0742 47.6016 24.7773C 48.0156 24.4805 48.3555 23.9375 48.6211 23.1484L 49.1016 21.8594L 44.5781 9.32031L 46.9453 9.32031L 50.1094 18.8242Z"/>
<path id="path10_fill" d="M 7.62891 19.0117L 12.5039 4.9375L 14.9648 4.9375L 8.63672 22L 6.64453 22L 0.328125 4.9375L 2.77734 4.9375L 7.62891 19.0117ZM 24.2109 22C 24.0859 21.75 23.9844 21.3047 23.9062 20.6641C 22.8984 21.7109 21.6953 22.2344 20.2969 22.2344C 19.0469 22.2344 18.0195 21.8828 17.2148 21.1797C 16.418 20.4687 16.0195 19.5703 16.0195 18.4844C 16.0195 17.1641 16.5195 16.1406 17.5195 15.4141C 18.5273 14.6797 19.9414 14.3125 21.7617 14.3125L 23.8711 14.3125L 23.8711 13.3164C 23.8711 12.5586 23.6445 11.957 23.1914 11.5117C 22.7383 11.0586 22.0703 10.832 21.1875 10.832C 20.4141 10.832 19.7656 11.0273 19.2422 11.418C 18.7188 11.8086 18.457 12.2813 18.457 12.8359L 16.2773 12.8359C 16.2773 12.2031 16.5 11.5938 16.9453 11.0078C 17.3984 10.4141 18.0078 9.94531 18.7734 9.60156C 19.5469 9.25781 20.3945 9.08594 21.3164 9.08594C 22.7773 9.08594 23.9219 9.45313 24.75 10.1875C 25.5781 10.9141 26.0078 11.918 26.0391 13.1992L 26.0391 19.0352C 26.0391 20.1992 26.1875 21.125 26.4844 21.8125L 26.4844 22L 24.2109 22ZM 20.6133 20.3477C 21.293 20.3477 21.9375 20.1719 22.5469 19.8203C 23.1562 19.4688 23.5977 19.0117 23.8711 18.4492L 23.8711 15.8477L 22.1719 15.8477C 19.5156 15.8477 18.1875 16.625 18.1875 18.1797C 18.1875 18.8594 18.4141 19.3906 18.8672 19.7734C 19.3203 20.1563 19.9023 20.3477 20.6133 20.3477ZM 31.793 22L 29.625 22L 29.625 4L 31.793 4L 31.793 22ZM 43.1016 20.7461C 42.2578 21.7383 41.0195 22.2344 39.3867 22.2344C 38.0352 22.2344 37.0039 21.8438 36.293 21.0625C 35.5898 20.2734 35.2344 19.1094 35.2266 17.5703L 35.2266 9.32031L 37.3945 9.32031L 37.3945 17.5117C 37.3945 19.4336 38.1758 20.3945 39.7383 20.3945C 41.3945 20.3945 42.4961 19.7773 43.043 18.543L 43.043 9.32031L 45.2109 9.32031L 45.2109 22L 43.1484 22L 43.1016 20.7461ZM 53.7773 22.2344C 52.0586 22.2344 50.6602 21.6719 49.582 20.5469C 48.5039 19.4141 47.9648 17.9023 47.9648 16.0117L 47.9648 15.6133C 47.9648 14.3555 48.2031 13.2344 48.6797 12.25C 49.1641 11.2578 49.8359 10.4844 50.6953 9.92969C 51.5625 9.36719 52.5 9.08594 53.5078 9.08594C 55.1563 9.08594 56.4375 9.62891 57.3516 10.7148C 58.2656 11.8008 58.7227 13.3555 58.7227 15.3789L 58.7227 16.2812L 50.1328 16.2812C 50.1641 17.5312 50.5273 18.543 51.2227 19.3164C 51.9258 20.082 52.8164 20.4648 53.8945 20.4648C 54.6602 20.4648 55.3086 20.3086 55.8398 19.9961C 56.3711 19.6836 56.8359 19.2695 57.2344 18.7539L 58.5586 19.7852C 57.4961 21.418 55.9023 22.2344 53.7773 22.2344ZM 53.5078 10.8672C 52.6328 10.8672 51.8984 11.1875 51.3047 11.8281C 50.7109 12.4609 50.3438 13.3516 50.2031 14.5L 56.5547 14.5L 56.5547 14.3359C 56.4922 13.2344 56.1953 12.3828 55.6641 11.7812C 55.1328 11.1719 54.4141 10.8672 53.5078 10.8672ZM 68.625 18.6367C 68.625 18.0508 68.4023 17.5977 67.957 17.2773C 67.5195 16.9492 66.75 16.668 65.6484 16.4336C 64.5547 16.1992 63.6836 15.918 63.0352 15.5898C 62.3945 15.2617 61.918 14.8711 61.6055 14.418C 61.3008 13.9648 61.1484 13.4258 61.1484 12.8008C 61.1484 11.7617 61.5859 10.8828 62.4609 10.1641C 63.3438 9.44531 64.4688 9.08594 65.8359 9.08594C 67.2734 9.08594 68.4375 9.45703 69.3281 10.1992C 70.2266 10.9414 70.6758 11.8906 70.6758 13.0469L 68.4961 13.0469C 68.4961 12.4531 68.2422 11.9414 67.7344 11.5117C 67.2344 11.082 66.6016 10.8672 65.8359 10.8672C 65.0469 10.8672 64.4297 11.0391 63.9844 11.3828C 63.5391 11.7266 63.3164 12.1758 63.3164 12.7305C 63.3164 13.2539 63.5234 13.6484 63.9375 13.9141C 64.3516 14.1797 65.0977 14.4336 66.1758 14.6758C 67.2617 14.918 68.1406 15.207 68.8125 15.543C 69.4844 15.8789 69.9805 16.2852 70.3008 16.7617C 70.6289 17.2305 70.793 17.8047 70.793 18.4844C 70.793 19.6172 70.3398 20.5273 69.4336 21.2148C 68.5273 21.8945 67.3516 22.2344 65.9062 22.2344C 64.8906 22.2344 63.9922 22.0547 63.2109 21.6953C 62.4297 21.3359 61.8164 20.8359 61.3711 20.1953C 60.9336 19.5469 60.7148 18.8477 60.7148 18.0977L 62.8828 18.0977C 62.9219 18.8242 63.2109 19.4023 63.75 19.832C 64.2969 20.2539 65.0156 20.4648 65.9062 20.4648C 66.7266 20.4648 67.3828 20.3008 67.875 19.9727C 68.375 19.6367 68.625 19.1914 68.625 18.6367Z"/>
<path id="path11_stroke" d="M 205.195 0.353553C 205.39 0.158291 205.39 -0.158291 205.195 -0.353553L 202.013 -3.53553C 201.818 -3.7308 201.501 -3.7308 201.306 -3.53553C 201.111 -3.34027 201.111 -3.02369 201.306 -2.82843L 204.134 0L 201.306 2.82843C 201.111 3.02369 201.111 3.34027 201.306 3.53553C 201.501 3.7308 201.818 3.7308 202.013 3.53553L 205.195 0.353553ZM 0 0.5L 204.841 0.5L 204.841 -0.5L 0 -0.5L 0 0.5Z"/>
<path id="path12_stroke" d="M 182.354 0.353553C 182.549 0.158291 182.549 -0.158291 182.354 -0.353553L 179.172 -3.53553C 178.976 -3.7308 178.66 -3.7308 178.464 -3.53553C 178.269 -3.34027 178.269 -3.02369 178.464 -2.82843L 181.293 0L 178.464 2.82843C 178.269 3.02369 178.269 3.34027 178.464 3.53553C 178.66 3.7308 178.976 3.7308 179.172 3.53553L 182.354 0.353553ZM 0 0.5L 182 0.5L 182 -0.5L 0 -0.5L 0 0.5Z"/>
<path id="path13_stroke" d="M 188.324 0.353553C 188.52 0.158291 188.52 -0.158291 188.324 -0.353553L 185.142 -3.53553C 184.947 -3.7308 184.63 -3.7308 184.435 -3.53553C 184.24 -3.34027 184.24 -3.02369 184.435 -2.82843L 187.264 0L 184.435 2.82843C 184.24 3.02369 184.24 3.34027 184.435 3.53553C 184.63 3.7308 184.947 3.7308 185.142 3.53553L 188.324 0.353553ZM 0 0.5L 187.971 0.5L 187.971 -0.5L 0 -0.5L 0 0.5Z"/>
<path id="path14_stroke" d="M 80.3536 0.353553C 80.5488 0.158291 80.5488 -0.158291 80.3536 -0.353553L 77.1716 -3.53553C 76.9763 -3.7308 76.6597 -3.7308 76.4645 -3.53553C 76.2692 -3.34027 76.2692 -3.02369 76.4645 -2.82843L 79.2929 0L 76.4645 2.82843C 76.2692 3.02369 76.2692 3.34027 76.4645 3.53553C 76.6597 3.7308 76.9763 3.7308 77.1716 3.53553L 80.3536 0.353553ZM 0 0.5L 80 0.5L 80 -0.5L 0 -0.5L 0 0.5Z"/>
<path id="path15_fill" d="M 6.12891 4.28125L 3.89062 4.28125L 3.89062 23.875L 6.12891 23.875L 6.12891 25.6562L 1.71094 25.6562L 1.71094 2.5L 6.12891 2.5L 6.12891 4.28125ZM 15.8438 22C 15.7187 21.75 15.6172 21.3047 15.5391 20.6641C 14.5312 21.7109 13.3281 22.2344 11.9297 22.2344C 10.6797 22.2344 9.65234 21.8828 8.84766 21.1797C 8.05078 20.4687 7.65234 19.5703 7.65234 18.4844C 7.65234 17.1641 8.15234 16.1406 9.15234 15.4141C 10.1602 14.6797 11.5742 14.3125 13.3945 14.3125L 15.5039 14.3125L 15.5039 13.3164C 15.5039 12.5586 15.2773 11.957 14.8242 11.5117C 14.3711 11.0586 13.7031 10.832 12.8203 10.832C 12.0469 10.832 11.3984 11.0273 10.875 11.418C 10.3516 11.8086 10.0898 12.2813 10.0898 12.8359L 7.91016 12.8359C 7.91016 12.2031 8.13281 11.5938 8.57812 11.0078C 9.03125 10.4141 9.64062 9.94531 10.4062 9.60156C 11.1797 9.25781 12.0273 9.08594 12.9492 9.08594C 14.4102 9.08594 15.5547 9.45313 16.3828 10.1875C 17.2109 10.9141 17.6406 11.918 17.6719 13.1992L 17.6719 19.0352C 17.6719 20.1992 17.8203 21.125 18.1172 21.8125L 18.1172 22L 15.8438 22ZM 12.2461 20.3477C 12.9258 20.3477 13.5703 20.1719 14.1797 19.8203C 14.7891 19.4688 15.2305 19.0117 15.5039 18.4492L 15.5039 15.8477L 13.8047 15.8477C 11.1484 15.8477 9.82031 16.625 9.82031 18.1797C 9.82031 18.8594 10.0469 19.3906 10.5 19.7734C 10.9531 20.1563 11.5352 20.3477 12.2461 20.3477ZM 19.5352 2.5L 23.9648 2.5L 23.9648 25.6562L 19.5352 25.6562L 19.5352 23.875L 21.7969 23.875L 21.7969 4.28125L 19.5352 4.28125L 19.5352 2.5Z"/>
<path id="path16_fill" d="M 6.12891 4.28125L 3.89062 4.28125L 3.89062 23.875L 6.12891 23.875L 6.12891 25.6562L 1.71094 25.6562L 1.71094 2.5L 6.12891 2.5L 6.12891 4.28125ZM 18.75 15.8008C 18.75 17.7383 18.3047 19.2969 17.4141 20.4766C 16.5234 21.6484 15.3281 22.2344 13.8281 22.2344C 12.2266 22.2344 10.9883 21.668 10.1133 20.5352L 10.0078 22L 8.01562 22L 8.01562 4L 10.1836 4L 10.1836 10.7148C 11.0586 9.62891 12.2656 9.08594 13.8047 9.08594C 15.3437 9.08594 16.5508 9.66797 17.4258 10.832C 18.3086 11.9961 18.75 13.5898 18.75 15.6133L 18.75 15.8008ZM 16.582 15.5547C 16.582 14.0781 16.2969 12.9375 15.7266 12.1328C 15.1562 11.3281 14.3359 10.9258 13.2656 10.9258C 11.8359 10.9258 10.8086 11.5898 10.1836 12.918L 10.1836 18.4023C 10.8477 19.7305 11.8828 20.3945 13.2891 20.3945C 14.3281 20.3945 15.1367 19.9922 15.7148 19.1875C 16.293 18.3828 16.582 17.1719 16.582 15.5547ZM 19.957 2.5L 24.3867 2.5L 24.3867 25.6562L 19.957 25.6562L 19.957 23.875L 22.2188 23.875L 22.2188 4.28125L 19.957 4.28125L 19.957 2.5Z"/>
<path id="path17_fill" d="M 6.12891 4.28125L 3.89062 4.28125L 3.89062 23.875L 6.12891 23.875L 6.12891 25.6562L 1.71094 25.6562L 1.71094 2.5L 6.12891 2.5L 6.12891 4.28125ZM 13.1016 20.4648C 13.875 20.4648 14.5508 20.2305 15.1289 19.7617C 15.707 19.293 16.0273 18.707 16.0898 18.0039L 18.1406 18.0039C 18.1016 18.7305 17.8516 19.4219 17.3906 20.0781C 16.9297 20.7344 16.3125 21.2578 15.5391 21.6484C 14.7734 22.0391 13.9609 22.2344 13.1016 22.2344C 11.375 22.2344 10 21.6602 8.97656 20.5117C 7.96094 19.3555 7.45312 17.7773 7.45312 15.7773L 7.45312 15.4141C 7.45312 14.1797 7.67969 13.082 8.13281 12.1211C 8.58594 11.1602 9.23438 10.4141 10.0781 9.88281C 10.9297 9.35156 11.9336 9.08594 13.0898 9.08594C 14.5117 9.08594 15.6914 9.51172 16.6289 10.3633C 17.5742 11.2148 18.0781 12.3203 18.1406 13.6797L 16.0898 13.6797C 16.0273 12.8594 15.7148 12.1875 15.1523 11.6641C 14.5977 11.1328 13.9102 10.8672 13.0898 10.8672C 11.9883 10.8672 11.1328 11.2656 10.5234 12.0625C 9.92187 12.8516 9.62109 13.9961 9.62109 15.4961L 9.62109 15.9062C 9.62109 17.3672 9.92187 18.4922 10.5234 19.2812C 11.125 20.0703 11.9844 20.4648 13.1016 20.4648ZM 20.5078 25.3984L 19.2773 24.5547C 20.0117 23.5313 20.3945 22.4766 20.4258 21.3906L 20.4258 19.4336L 22.5469 19.4336L 22.5469 21.1328C 22.5469 21.9219 22.3516 22.7109 21.9609 23.5C 21.5781 24.2891 21.0938 24.9219 20.5078 25.3984ZM 24.7617 15.5547C 24.7617 13.6094 25.2227 12.0469 26.1445 10.8672C 27.0664 9.67969 28.2734 9.08594 29.7656 9.08594C 31.25 9.08594 32.4258 9.59375 33.293 10.6094L 33.293 4L 35.4609 4L 35.4609 22L 33.4688 22L 33.3633 20.6406C 32.4961 21.7031 31.2891 22.2344 29.7422 22.2344C 28.2734 22.2344 27.0742 21.6328 26.1445 20.4297C 25.2227 19.2266 24.7617 17.6563 24.7617 15.7188L 24.7617 15.5547ZM 26.9297 15.8008C 26.9297 17.2383 27.2266 18.3633 27.8203 19.1758C 28.4141 19.9883 29.2344 20.3945 30.2812 20.3945C 31.6562 20.3945 32.6602 19.7773 33.293 18.543L 33.293 12.7188C 32.6445 11.5234 31.6484 10.9258 30.3047 10.9258C 29.2422 10.9258 28.4141 11.3359 27.8203 12.1562C 27.2266 12.9766 26.9297 14.1914 26.9297 15.8008ZM 38.7656 25.3984L 37.5352 24.5547C 38.2695 23.5313 38.6523 22.4766 38.6836 21.3906L 38.6836 19.4336L 40.8047 19.4336L 40.8047 21.1328C 40.8047 21.9219 40.6094 22.7109 40.2188 23.5C 39.8359 24.2891 39.3516 24.9219 38.7656 25.3984ZM 48.8086 22.2344C 47.0898 22.2344 45.6914 21.6719 44.6133 20.5469C 43.5352 19.4141 42.9961 17.9023 42.9961 16.0117L 42.9961 15.6133C 42.9961 14.3555 43.2344 13.2344 43.7109 12.25C 44.1953 11.2578 44.8672 10.4844 45.7266 9.92969C 46.5938 9.36719 47.5312 9.08594 48.5391 9.08594C 50.1875 9.08594 51.4688 9.62891 52.3828 10.7148C 53.2969 11.8008 53.7539 13.3555 53.7539 15.3789L 53.7539 16.2812L 45.1641 16.2812C 45.1953 17.5312 45.5586 18.543 46.2539 19.3164C 46.957 20.082 47.8477 20.4648 48.9258 20.4648C 49.6914 20.4648 50.3398 20.3086 50.8711 19.9961C 51.4023 19.6836 51.8672 19.2695 52.2656 18.7539L 53.5898 19.7852C 52.5273 21.418 50.9336 22.2344 48.8086 22.2344ZM 48.5391 10.8672C 47.6641 10.8672 46.9297 11.1875 46.3359 11.8281C 45.7422 12.4609 45.375 13.3516 45.2344 14.5L 51.5859 14.5L 51.5859 14.3359C 51.5234 13.2344 51.2266 12.3828 50.6953 11.7812C 50.1641 11.1719 49.4453 10.8672 48.5391 10.8672ZM 54.7383 2.5L 59.168 2.5L 59.168 25.6562L 54.7383 25.6562L 54.7383 23.875L 57 23.875L 57 4.28125L 54.7383 4.28125L 54.7383 2.5Z"/>
</defs>
</svg>
