<svg width="500" height="1087" viewBox="0 0 500 1087" version="1.1" xmlns="http://www.w3.org/2000/svg" xmlns:xlink="http://www.w3.org/1999/xlink" xmlns:figma="http://www.figma.com/figma/ns">
<title>processes_threads</title>
<desc>Created using Figma</desc>
<g id="Canvas" transform="translate(780 397)" figma:type="canvas">
<g id="Rectangle" style="mix-blend-mode:normal;" figma:type="rounded-rectangle">
<use xlink:href="#path0_fill" transform="translate(-780 -397)" fill="#C4C4C4" style="mix-blend-mode:normal;"/>
</g>
<g id="Thread 4" style="mix-blend-mode:normal;" figma:type="text">
<use xlink:href="#path1_fill" transform="translate(-463.5 -184)" style="mix-blend-mode:normal;"/>
</g>
<g id="Thread 1" style="mix-blend-mode:normal;" figma:type="text">
<use xlink:href="#path2_fill" transform="translate(-729 -303)" style="mix-blend-mode:normal;"/>
</g>
<g id="Process 1" style="mix-blend-mode:normal;" figma:type="text">
<use xlink:href="#path3_fill" transform="translate(-583.5 -368)" style="mix-blend-mode:normal;"/>
</g>
<g id="Thread 2" style="mix-blend-mode:normal;" figma:type="text">
<use xlink:href="#path4_fill" transform="translate(-463 -303.5)" style="mix-blend-mode:normal;"/>
</g>
<g id="Thread 3" style="mix-blend-mode:normal;" figma:type="text">
<use xlink:href="#path5_fill" transform="translate(-725 -184)" style="mix-blend-mode:normal;"/>
</g>
<g id="Rectangle" style="mix-blend-mode:normal;" figma:type="rounded-rectangle">
<use xlink:href="#path0_fill" transform="translate(-780 0)" fill="#C4C4C4" style="mix-blend-mode:normal;"/>
</g>
<g id="Thread 1" style="mix-blend-mode:normal;" figma:type="text">
<use xlink:href="#path2_fill" transform="translate(-729 94)" style="mix-blend-mode:normal;"/>
</g>
<g id="Process 2" style="mix-blend-mode:normal;" figma:type="text">
<use xlink:href="#path6_fill" transform="translate(-583.5 29)" style="mix-blend-mode:normal;"/>
</g>
<g id="Rectangle" style="mix-blend-mode:normal;" figma:type="rounded-rectangle">
<use xlink:href="#path0_fill" transform="translate(-780 390)" fill="#C4C4C4" style="mix-blend-mode:normal;"/>
</g>
<g id="Thread 1" style="mix-blend-mode:normal;" figma:type="text">
<use xlink:href="#path2_fill" transform="translate(-729 484)" style="mix-blend-mode:normal;"/>
</g>
<g id="Thread 2" style="mix-blend-mode:normal;" figma:type="text">
<use xlink:href="#path4_fill" transform="translate(-463.5 484)" style="mix-blend-mode:normal;"/>
</g>
<g id="Process 3" style="mix-blend-mode:normal;" figma:type="text">
<use xlink:href="#path7_fill" transform="translate(-582.5 419)" style="mix-blend-mode:normal;"/>
</g>
</g>
<defs>
<path id="path0_fill" d="M 0 0L 500 0L 500 300L 0 300L 0 0Z"/>
<path id="path1_fill" d="M 13.7695 6.78906L 8.28516 6.78906L 8.28516 22L 6.04688 22L 6.04688 6.78906L 0.574219 6.78906L 0.574219 4.9375L 13.7695 4.9375L 13.7695 6.78906ZM 18.1289 10.8555C 19.0898 9.67578 20.3398 9.08594 21.8789 9.08594C 24.5586 9.08594 25.9102 10.5977 25.9336 13.6211L 25.9336 22L 23.7656 22L 23.7656 13.6094C 23.7578 12.6953 23.5469 12.0195 23.1328 11.582C 22.7266 11.1445 22.0898 10.9258 21.2227 10.9258C 20.5195 10.9258 19.9023 11.1133 19.3711 11.4883C 18.8398 11.8633 18.4258 12.3555 18.1289 12.9648L 18.1289 22L 15.9609 22L 15.9609 4L 18.1289 4L 18.1289 10.8555ZM 35.3086 11.2656C 34.9805 11.2109 34.625 11.1836 34.2422 11.1836C 32.8203 11.1836 31.8555 11.7891 31.3477 13L 31.3477 22L 29.1797 22L 29.1797 9.32031L 31.2891 9.32031L 31.3242 10.7852C 32.0352 9.65234 33.043 9.08594 34.3477 9.08594C 34.7695 9.08594 35.0898 9.14062 35.3086 9.25L 35.3086 11.2656ZM 42.3633 22.2344C 40.6445 22.2344 39.2461 21.6719 38.168 20.5469C 37.0898 19.4141 36.5508 17.9023 36.5508 16.0117L 36.5508 15.6133C 36.5508 14.3555 36.7891 13.2344 37.2656 12.25C 37.75 11.2578 38.4219 10.4844 39.2812 9.92969C 40.1484 9.36719 41.0859 9.08594 42.0938 9.08594C 43.7422 9.08594 45.0234 9.62891 45.9375 10.7148C 46.8516 11.8008 47.3086 13.3555 47.3086 15.3789L 47.3086 16.2812L 38.7188 16.2812C 38.75 17.5312 39.1133 18.543 39.8086 19.3164C 40.5117 20.082 41.4023 20.4648 42.4805 20.4648C 43.2461 20.4648 43.8945 20.3086 44.4258 19.9961C 44.957 19.6836 45.4219 19.2695 45.8203 18.7539L 47.1445 19.7852C 46.082 21.418 44.4883 22.2344 42.3633 22.2344ZM 42.0938 10.8672C 41.2188 10.8672 40.4844 11.1875 39.8906 11.8281C 39.2969 12.4609 38.9297 13.3516 38.7891 14.5L 45.1406 14.5L 45.1406 14.3359C 45.0781 13.2344 44.7812 12.3828 44.25 11.7812C 43.7188 11.1719 43 10.8672 42.0938 10.8672ZM 57.6562 22C 57.5312 21.75 57.4297 21.3047 57.3516 20.6641C 56.3438 21.7109 55.1406 22.2344 53.7422 22.2344C 52.4922 22.2344 51.4648 21.8828 50.6602 21.1797C 49.8633 20.4688 49.4648 19.5703 49.4648 18.4844C 49.4648 17.1641 49.9648 16.1406 50.9648 15.4141C 51.9727 14.6797 53.3867 14.3125 55.207 14.3125L 57.3164 14.3125L 57.3164 13.3164C 57.3164 12.5586 57.0898 11.957 56.6367 11.5117C 56.1836 11.0586 55.5156 10.832 54.6328 10.832C 53.8594 10.832 53.2109 11.0273 52.6875 11.418C 52.1641 11.8086 51.9023 12.2812 51.9023 12.8359L 49.7227 12.8359C 49.7227 12.2031 49.9453 11.5938 50.3906 11.0078C 50.8438 10.4141 51.4531 9.94531 52.2188 9.60156C 52.9922 9.25781 53.8398 9.08594 54.7617 9.08594C 56.2227 9.08594 57.3672 9.45312 58.1953 10.1875C 59.0234 10.9141 59.4531 11.918 59.4844 13.1992L 59.4844 19.0352C 59.4844 20.1992 59.6328 21.125 59.9297 21.8125L 59.9297 22L 57.6562 22ZM 54.0586 20.3477C 54.7383 20.3477 55.3828 20.1719 55.9922 19.8203C 56.6016 19.4688 57.043 19.0117 57.3164 18.4492L 57.3164 15.8477L 55.6172 15.8477C 52.9609 15.8477 51.6328 16.625 51.6328 18.1797C 51.6328 18.8594 51.8594 19.3906 52.3125 19.7734C 52.7656 20.1562 53.3477 20.3477 54.0586 20.3477ZM 62.3555 15.5547C 62.3555 13.6094 62.8164 12.0469 63.7383 10.8672C 64.6602 9.67969 65.8672 9.08594 67.3594 9.08594C 68.8438 9.08594 70.0195 9.59375 70.8867 10.6094L 70.8867 4L 73.0547 4L 73.0547 22L 71.0625 22L 70.957 20.6406C 70.0898 21.7031 68.8828 22.2344 67.3359 22.2344C 65.8672 22.2344 64.668 21.6328 63.7383 20.4297C 62.8164 19.2266 62.3555 17.6562 62.3555 15.7188L 62.3555 15.5547ZM 64.5234 15.8008C 64.5234 17.2383 64.8203 18.3633 65.4141 19.1758C 66.0078 19.9883 66.8281 20.3945 67.875 20.3945C 69.25 20.3945 70.2539 19.7773 70.8867 18.543L 70.8867 12.7188C 70.2383 11.5234 69.2422 10.9258 67.8984 10.9258C 66.8359 10.9258 66.0078 11.3359 65.4141 12.1562C 64.8203 12.9766 64.5234 14.1914 64.5234 15.8008ZM 91.3125 16.2695L 93.6797 16.2695L 93.6797 18.0391L 91.3125 18.0391L 91.3125 22L 89.1328 22L 89.1328 18.0391L 81.3633 18.0391L 81.3633 16.7617L 89.0039 4.9375L 91.3125 4.9375L 91.3125 16.2695ZM 83.8242 16.2695L 89.1328 16.2695L 89.1328 7.90234L 88.875 8.37109L 83.8242 16.2695Z"/>
<path id="path2_fill" d="M 13.7695 6.78906L 8.28516 6.78906L 8.28516 22L 6.04688 22L 6.04688 6.78906L 0.574219 6.78906L 0.574219 4.9375L 13.7695 4.9375L 13.7695 6.78906ZM 18.1289 10.8555C 19.0898 9.67578 20.3398 9.08594 21.8789 9.08594C 24.5586 9.08594 25.9102 10.5977 25.9336 13.6211L 25.9336 22L 23.7656 22L 23.7656 13.6094C 23.7578 12.6953 23.5469 12.0195 23.1328 11.582C 22.7266 11.1445 22.0898 10.9258 21.2227 10.9258C 20.5195 10.9258 19.9023 11.1133 19.3711 11.4883C 18.8398 11.8633 18.4258 12.3555 18.1289 12.9648L 18.1289 22L 15.9609 22L 15.9609 4L 18.1289 4L 18.1289 10.8555ZM 35.3086 11.2656C 34.9805 11.2109 34.625 11.1836 34.2422 11.1836C 32.8203 11.1836 31.8555 11.7891 31.3477 13L 31.3477 22L 29.1797 22L 29.1797 9.32031L 31.2891 9.32031L 31.3242 10.7852C 32.0352 9.65234 33.043 9.08594 34.3477 9.08594C 34.7695 9.08594 35.0898 9.14062 35.3086 9.25L 35.3086 11.2656ZM 42.3633 22.2344C 40.6445 22.2344 39.2461 21.6719 38.168 20.5469C 37.0898 19.4141 36.5508 17.9023 36.5508 16.0117L 36.5508 15.6133C 36.5508 14.3555 36.7891 13.2344 37.2656 12.25C 37.75 11.2578 38.4219 10.4844 39.2812 9.92969C 40.1484 9.36719 41.0859 9.08594 42.0938 9.08594C 43.7422 9.08594 45.0234 9.62891 45.9375 10.7148C 46.8516 11.8008 47.3086 13.3555 47.3086 15.3789L 47.3086 16.2812L 38.7188 16.2812C 38.75 17.5312 39.1133 18.543 39.8086 19.3164C 40.5117 20.082 41.4023 20.4648 42.4805 20.4648C 43.2461 20.4648 43.8945 20.3086 44.4258 19.9961C 44.957 19.6836 45.4219 19.2695 45.8203 18.7539L 47.1445 19.7852C 46.082 21.418 44.4883 22.2344 42.3633 22.2344ZM 42.0938 10.8672C 41.2188 10.8672 40.4844 11.1875 39.8906 11.8281C 39.2969 12.4609 38.9297 13.3516 38.7891 14.5L 45.1406 14.5L 45.1406 14.3359C 45.0781 13.2344 44.7812 12.3828 44.25 11.7812C 43.7188 11.1719 43 10.8672 42.0938 10.8672ZM 57.6562 22C 57.5312 21.75 57.4297 21.3047 57.3516 20.6641C 56.3438 21.7109 55.1406 22.2344 53.7422 22.2344C 52.4922 22.2344 51.4648 21.8828 50.6602 21.1797C 49.8633 20.4688 49.4648 19.5703 49.4648 18.4844C 49.4648 17.1641 49.9648 16.1406 50.9648 15.4141C 51.9727 14.6797 53.3867 14.3125 55.207 14.3125L 57.3164 14.3125L 57.3164 13.3164C 57.3164 12.5586 57.0898 11.957 56.6367 11.5117C 56.1836 11.0586 55.5156 10.832 54.6328 10.832C 53.8594 10.832 53.2109 11.0273 52.6875 11.418C 52.1641 11.8086 51.9023 12.2812 51.9023 12.8359L 49.7227 12.8359C 49.7227 12.2031 49.9453 11.5938 50.3906 11.0078C 50.8438 10.4141 51.4531 9.94531 52.2188 9.60156C 52.9922 9.25781 53.8398 9.08594 54.7617 9.08594C 56.2227 9.08594 57.3672 9.45312 58.1953 10.1875C 59.0234 10.9141 59.4531 11.918 59.4844 13.1992L 59.4844 19.0352C 59.4844 20.1992 59.6328 21.125 59.9297 21.8125L 59.9297 22L 57.6562 22ZM 54.0586 20.3477C 54.7383 20.3477 55.3828 20.1719 55.9922 19.8203C 56.6016 19.4688 57.043 19.0117 57.3164 18.4492L 57.3164 15.8477L 55.6172 15.8477C 52.9609 15.8477 51.6328 16.625 51.6328 18.1797C 51.6328 18.8594 51.8594 19.3906 52.3125 19.7734C 52.7656 20.1562 53.3477 20.3477 54.0586 20.3477ZM 62.3555 15.5547C 62.3555 13.6094 62.8164 12.0469 63.7383 10.8672C 64.6602 9.67969 65.8672 9.08594 67.3594 9.08594C 68.8438 9.08594 70.0195 9.59375 70.8867 10.6094L 70.8867 4L 73.0547 4L 73.0547 22L 71.0625 22L 70.957 20.6406C 70.0898 21.7031 68.8828 22.2344 67.3359 22.2344C 65.8672 22.2344 64.668 21.6328 63.7383 20.4297C 62.8164 19.2266 62.3555 17.6562 62.3555 15.7188L 62.3555 15.5547ZM 64.5234 15.8008C 64.5234 17.2383 64.8203 18.3633 65.4141 19.1758C 66.0078 19.9883 66.8281 20.3945 67.875 20.3945C 69.25 20.3945 70.2539 19.7773 70.8867 18.543L 70.8867 12.7188C 70.2383 11.5234 69.2422 10.9258 67.8984 10.9258C 66.8359 10.9258 66.0078 11.3359 65.4141 12.1562C 64.8203 12.9766 64.5234 14.1914 64.5234 15.8008ZM 89.2852 22L 87.1055 22L 87.1055 7.55078L 82.7344 9.15625L 82.7344 7.1875L 88.9453 4.85547L 89.2852 4.85547L 89.2852 22Z"/>
<path id="path3_fill" d="M 4.23047 15.3203L 4.23047 22L 1.98047 22L 1.98047 4.9375L 8.27344 4.9375C 10.1406 4.9375 11.6016 5.41406 12.6562 6.36719C 13.7188 7.32031 14.25 8.58203 14.25 10.1523C 14.25 11.8086 13.7305 13.0859 12.6914 13.9844C 11.6602 14.875 10.1797 15.3203 8.25 15.3203L 4.23047 15.3203ZM 4.23047 13.4805L 8.27344 13.4805C 9.47656 13.4805 10.3984 13.1992 11.0391 12.6367C 11.6797 12.0664 12 11.2461 12 10.1758C 12 9.16016 11.6797 8.34766 11.0391 7.73828C 10.3984 7.12891 9.51953 6.8125 8.40234 6.78906L 4.23047 6.78906L 4.23047 13.4805ZM 22.9102 11.2656C 22.582 11.2109 22.2266 11.1836 21.8438 11.1836C 20.4219 11.1836 19.457 11.7891 18.9492 13L 18.9492 22L 16.7812 22L 16.7812 9.32031L 18.8906 9.32031L 18.9258 10.7852C 19.6367 9.65234 20.6445 9.08594 21.9492 9.08594C 22.3711 9.08594 22.6914 9.14062 22.9102 9.25L 22.9102 11.2656ZM 24.1055 15.543C 24.1055 14.3008 24.3477 13.1836 24.832 12.1914C 25.3242 11.1992 26.0039 10.4336 26.8711 9.89453C 27.7461 9.35547 28.7422 9.08594 29.8594 9.08594C 31.5859 9.08594 32.9805 9.68359 34.043 10.8789C 35.1133 12.0742 35.6484 13.6641 35.6484 15.6484L 35.6484 15.8008C 35.6484 17.0352 35.4102 18.1445 34.9336 19.1289C 34.4648 20.1055 33.7891 20.8672 32.9062 21.4141C 32.0312 21.9609 31.0234 22.2344 29.8828 22.2344C 28.1641 22.2344 26.7695 21.6367 25.6992 20.4414C 24.6367 19.2461 24.1055 17.6641 24.1055 15.6953L 24.1055 15.543ZM 26.2852 15.8008C 26.2852 17.207 26.6094 18.3359 27.2578 19.1875C 27.9141 20.0391 28.7891 20.4648 29.8828 20.4648C 30.9844 20.4648 31.8594 20.0352 32.5078 19.1758C 33.1562 18.3086 33.4805 17.0977 33.4805 15.543C 33.4805 14.1523 33.1484 13.0273 32.4844 12.168C 31.8281 11.3008 30.9531 10.8672 29.8594 10.8672C 28.7891 10.8672 27.9258 11.293 27.2695 12.1445C 26.6133 12.9961 26.2852 14.2148 26.2852 15.8008ZM 43.4531 20.4648C 44.2266 20.4648 44.9023 20.2305 45.4805 19.7617C 46.0586 19.293 46.3789 18.707 46.4414 18.0039L 48.4922 18.0039C 48.4531 18.7305 48.2031 19.4219 47.7422 20.0781C 47.2812 20.7344 46.6641 21.2578 45.8906 21.6484C 45.125 22.0391 44.3125 22.2344 43.4531 22.2344C 41.7266 22.2344 40.3516 21.6602 39.3281 20.5117C 38.3125 19.3555 37.8047 17.7773 37.8047 15.7773L 37.8047 15.4141C 37.8047 14.1797 38.0312 13.082 38.4844 12.1211C 38.9375 11.1602 39.5859 10.4141 40.4297 9.88281C 41.2812 9.35156 42.2852 9.08594 43.4414 9.08594C 44.8633 9.08594 46.043 9.51172 46.9805 10.3633C 47.9258 11.2148 48.4297 12.3203 48.4922 13.6797L 46.4414 13.6797C 46.3789 12.8594 46.0664 12.1875 45.5039 11.6641C 44.9492 11.1328 44.2617 10.8672 43.4414 10.8672C 42.3398 10.8672 41.4844 11.2656 40.875 12.0625C 40.2734 12.8516 39.9727 13.9961 39.9727 15.4961L 39.9727 15.9062C 39.9727 17.3672 40.2734 18.4922 40.875 19.2812C 41.4766 20.0703 42.3359 20.4648 43.4531 20.4648ZM 56.1914 22.2344C 54.4727 22.2344 53.0742 21.6719 51.9961 20.5469C 50.918 19.4141 50.3789 17.9023 50.3789 16.0117L 50.3789 15.6133C 50.3789 14.3555 50.6172 13.2344 51.0938 12.25C 51.5781 11.2578 52.25 10.4844 53.1094 9.92969C 53.9766 9.36719 54.9141 9.08594 55.9219 9.08594C 57.5703 9.08594 58.8516 9.62891 59.7656 10.7148C 60.6797 11.8008 61.1367 13.3555 61.1367 15.3789L 61.1367 16.2812L 52.5469 16.2812C 52.5781 17.5312 52.9414 18.543 53.6367 19.3164C 54.3398 20.082 55.2305 20.4648 56.3086 20.4648C 57.0742 20.4648 57.7227 20.3086 58.2539 19.9961C 58.7852 19.6836 59.25 19.2695 59.6484 18.7539L 60.9727 19.7852C 59.9102 21.418 58.3164 22.2344 56.1914 22.2344ZM 55.9219 10.8672C 55.0469 10.8672 54.3125 11.1875 53.7188 11.8281C 53.125 12.4609 52.7578 13.3516 52.6172 14.5L 58.9688 14.5L 58.9688 14.3359C 58.9062 13.2344 58.6094 12.3828 58.0781 11.7812C 57.5469 11.1719 56.8281 10.8672 55.9219 10.8672ZM 71.0391 18.6367C 71.0391 18.0508 70.8164 17.5977 70.3711 17.2773C 69.9336 16.9492 69.1641 16.668 68.0625 16.4336C 66.9688 16.1992 66.0977 15.918 65.4492 15.5898C 64.8086 15.2617 64.332 14.8711 64.0195 14.418C 63.7148 13.9648 63.5625 13.4258 63.5625 12.8008C 63.5625 11.7617 64 10.8828 64.875 10.1641C 65.7578 9.44531 66.8828 9.08594 68.25 9.08594C 69.6875 9.08594 70.8516 9.45703 71.7422 10.1992C 72.6406 10.9414 73.0898 11.8906 73.0898 13.0469L 70.9102 13.0469C 70.9102 12.4531 70.6562 11.9414 70.1484 11.5117C 69.6484 11.082 69.0156 10.8672 68.25 10.8672C 67.4609 10.8672 66.8438 11.0391 66.3984 11.3828C 65.9531 11.7266 65.7305 12.1758 65.7305 12.7305C 65.7305 13.2539 65.9375 13.6484 66.3516 13.9141C 66.7656 14.1797 67.5117 14.4336 68.5898 14.6758C 69.6758 14.918 70.5547 15.207 71.2266 15.543C 71.8984 15.8789 72.3945 16.2852 72.7148 16.7617C 73.043 17.2305 73.207 17.8047 73.207 18.4844C 73.207 19.6172 72.7539 20.5273 71.8477 21.2148C 70.9414 21.8945 69.7656 22.2344 68.3203 22.2344C 67.3047 22.2344 66.4062 22.0547 65.625 21.6953C 64.8438 21.3359 64.2305 20.8359 63.7852 20.1953C 63.3477 19.5469 63.1289 18.8477 63.1289 18.0977L 65.2969 18.0977C 65.3359 18.8242 65.625 19.4023 66.1641 19.832C 66.7109 20.2539 67.4297 20.4648 68.3203 20.4648C 69.1406 20.4648 69.7969 20.3008 70.2891 19.9727C 70.7891 19.6367 71.0391 19.1914 71.0391 18.6367ZM 83.4141 18.6367C 83.4141 18.0508 83.1914 17.5977 82.7461 17.2773C 82.3086 16.9492 81.5391 16.668 80.4375 16.4336C 79.3438 16.1992 78.4727 15.918 77.8242 15.5898C 77.1836 15.2617 76.707 14.8711 76.3945 14.418C 76.0898 13.9648 75.9375 13.4258 75.9375 12.8008C 75.9375 11.7617 76.375 10.8828 77.25 10.1641C 78.1328 9.44531 79.2578 9.08594 80.625 9.08594C 82.0625 9.08594 83.2266 9.45703 84.1172 10.1992C 85.0156 10.9414 85.4648 11.8906 85.4648 13.0469L 83.2852 13.0469C 83.2852 12.4531 83.0312 11.9414 82.5234 11.5117C 82.0234 11.082 81.3906 10.8672 80.625 10.8672C 79.8359 10.8672 79.2188 11.0391 78.7734 11.3828C 78.3281 11.7266 78.1055 12.1758 78.1055 12.7305C 78.1055 13.2539 78.3125 13.6484 78.7266 13.9141C 79.1406 14.1797 79.8867 14.4336 80.9648 14.6758C 82.0508 14.918 82.9297 15.207 83.6016 15.543C 84.2734 15.8789 84.7695 16.2852 85.0898 16.7617C 85.418 17.2305 85.582 17.8047 85.582 18.4844C 85.582 19.6172 85.1289 20.5273 84.2227 21.2148C 83.3164 21.8945 82.1406 22.2344 80.6953 22.2344C 79.6797 22.2344 78.7812 22.0547 78 21.6953C 77.2188 21.3359 76.6055 20.8359 76.1602 20.1953C 75.7227 19.5469 75.5039 18.8477 75.5039 18.0977L 77.6719 18.0977C 77.7109 18.8242 78 19.4023 78.5391 19.832C 79.0859 20.2539 79.8047 20.4648 80.6953 20.4648C 81.5156 20.4648 82.1719 20.3008 82.6641 19.9727C 83.1641 19.6367 83.4141 19.1914 83.4141 18.6367ZM 101.262 22L 99.082 22L 99.082 7.55078L 94.7109 9.15625L 94.7109 7.1875L 100.922 4.85547L 101.262 4.85547L 101.262 22Z"/>
<path id="path4_fill" d="M 13.7695 6.78906L 8.28516 6.78906L 8.28516 22L 6.04688 22L 6.04688 6.78906L 0.574219 6.78906L 0.574219 4.9375L 13.7695 4.9375L 13.7695 6.78906ZM 18.1289 10.8555C 19.0898 9.67578 20.3398 9.08594 21.8789 9.08594C 24.5586 9.08594 25.9102 10.5977 25.9336 13.6211L 25.9336 22L 23.7656 22L 23.7656 13.6094C 23.7578 12.6953 23.5469 12.0195 23.1328 11.582C 22.7266 11.1445 22.0898 10.9258 21.2227 10.9258C 20.5195 10.9258 19.9023 11.1133 19.3711 11.4883C 18.8398 11.8633 18.4258 12.3555 18.1289 12.9648L 18.1289 22L 15.9609 22L 15.9609 4L 18.1289 4L 18.1289 10.8555ZM 35.3086 11.2656C 34.9805 11.2109 34.625 11.1836 34.2422 11.1836C 32.8203 11.1836 31.8555 11.7891 31.3477 13L 31.3477 22L 29.1797 22L 29.1797 9.32031L 31.2891 9.32031L 31.3242 10.7852C 32.0352 9.65234 33.043 9.08594 34.3477 9.08594C 34.7695 9.08594 35.0898 9.14062 35.3086 9.25L 35.3086 11.2656ZM 42.3633 22.2344C 40.6445 22.2344 39.2461 21.6719 38.168 20.5469C 37.0898 19.4141 36.5508 17.9023 36.5508 16.0117L 36.5508 15.6133C 36.5508 14.3555 36.7891 13.2344 37.2656 12.25C 37.75 11.2578 38.4219 10.4844 39.2812 9.92969C 40.1484 9.36719 41.0859 9.08594 42.0938 9.08594C 43.7422 9.08594 45.0234 9.62891 45.9375 10.7148C 46.8516 11.8008 47.3086 13.3555 47.3086 15.3789L 47.3086 16.2812L 38.7188 16.2812C 38.75 17.5312 39.1133 18.543 39.8086 19.3164C 40.5117 20.082 41.4023 20.4648 42.4805 20.4648C 43.2461 20.4648 43.8945 20.3086 44.4258 19.9961C 44.957 19.6836 45.4219 19.2695 45.8203 18.7539L 47.1445 19.7852C 46.082 21.418 44.4883 22.2344 42.3633 22.2344ZM 42.0938 10.8672C 41.2188 10.8672 40.4844 11.1875 39.8906 11.8281C 39.2969 12.4609 38.9297 13.3516 38.7891 14.5L 45.1406 14.5L 45.1406 14.3359C 45.0781 13.2344 44.7812 12.3828 44.25 11.7812C 43.7188 11.1719 43 10.8672 42.0938 10.8672ZM 57.6562 22C 57.5312 21.75 57.4297 21.3047 57.3516 20.6641C 56.3438 21.7109 55.1406 22.2344 53.7422 22.2344C 52.4922 22.2344 51.4648 21.8828 50.6602 21.1797C 49.8633 20.4688 49.4648 19.5703 49.4648 18.4844C 49.4648 17.1641 49.9648 16.1406 50.9648 15.4141C 51.9727 14.6797 53.3867 14.3125 55.207 14.3125L 57.3164 14.3125L 57.3164 13.3164C 57.3164 12.5586 57.0898 11.957 56.6367 11.5117C 56.1836 11.0586 55.5156 10.832 54.6328 10.832C 53.8594 10.832 53.2109 11.0273 52.6875 11.418C 52.1641 11.8086 51.9023 12.2812 51.9023 12.8359L 49.7227 12.8359C 49.7227 12.2031 49.9453 11.5938 50.3906 11.0078C 50.8438 10.4141 51.4531 9.94531 52.2188 9.60156C 52.9922 9.25781 53.8398 9.08594 54.7617 9.08594C 56.2227 9.08594 57.3672 9.45312 58.1953 10.1875C 59.0234 10.9141 59.4531 11.918 59.4844 13.1992L 59.4844 19.0352C 59.4844 20.1992 59.6328 21.125 59.9297 21.8125L 59.9297 22L 57.6562 22ZM 54.0586 20.3477C 54.7383 20.3477 55.3828 20.1719 55.9922 19.8203C 56.6016 19.4688 57.043 19.0117 57.3164 18.4492L 57.3164 15.8477L 55.6172 15.8477C 52.9609 15.8477 51.6328 16.625 51.6328 18.1797C 51.6328 18.8594 51.8594 19.3906 52.3125 19.7734C 52.7656 20.1562 53.3477 20.3477 54.0586 20.3477ZM 62.3555 15.5547C 62.3555 13.6094 62.8164 12.0469 63.7383 10.8672C 64.6602 9.67969 65.8672 9.08594 67.3594 9.08594C 68.8438 9.08594 70.0195 9.59375 70.8867 10.6094L 70.8867 4L 73.0547 4L 73.0547 22L 71.0625 22L 70.957 20.6406C 70.0898 21.7031 68.8828 22.2344 67.3359 22.2344C 65.8672 22.2344 64.668 21.6328 63.7383 20.4297C 62.8164 19.2266 62.3555 17.6562 62.3555 15.7188L 62.3555 15.5547ZM 64.5234 15.8008C 64.5234 17.2383 64.8203 18.3633 65.4141 19.1758C 66.0078 19.9883 66.8281 20.3945 67.875 20.3945C 69.25 20.3945 70.2539 19.7773 70.8867 18.543L 70.8867 12.7188C 70.2383 11.5234 69.2422 10.9258 67.8984 10.9258C 66.8359 10.9258 66.0078 11.3359 65.4141 12.1562C 64.8203 12.9766 64.5234 14.1914 64.5234 15.8008ZM 93.3398 22L 82.1602 22L 82.1602 20.4414L 88.0664 13.8789C 88.9414 12.8867 89.543 12.082 89.8711 11.4648C 90.207 10.8398 90.375 10.1953 90.375 9.53125C 90.375 8.64062 90.1055 7.91016 89.5664 7.33984C 89.0273 6.76953 88.3086 6.48438 87.4102 6.48438C 86.332 6.48438 85.4922 6.79297 84.8906 7.41016C 84.2969 8.01953 84 8.87109 84 9.96484L 81.832 9.96484C 81.832 8.39453 82.3359 7.125 83.3438 6.15625C 84.3594 5.1875 85.7148 4.70312 87.4102 4.70312C 88.9961 4.70312 90.25 5.12109 91.1719 5.95703C 92.0938 6.78516 92.5547 7.89062 92.5547 9.27344C 92.5547 10.9531 91.4844 12.9531 89.3438 15.2734L 84.7734 20.2305L 93.3398 20.2305L 93.3398 22Z"/>
<path id="path5_fill" d="M 13.7695 6.78906L 8.28516 6.78906L 8.28516 22L 6.04688 22L 6.04688 6.78906L 0.574219 6.78906L 0.574219 4.9375L 13.7695 4.9375L 13.7695 6.78906ZM 18.1289 10.8555C 19.0898 9.67578 20.3398 9.08594 21.8789 9.08594C 24.5586 9.08594 25.9102 10.5977 25.9336 13.6211L 25.9336 22L 23.7656 22L 23.7656 13.6094C 23.7578 12.6953 23.5469 12.0195 23.1328 11.582C 22.7266 11.1445 22.0898 10.9258 21.2227 10.9258C 20.5195 10.9258 19.9023 11.1133 19.3711 11.4883C 18.8398 11.8633 18.4258 12.3555 18.1289 12.9648L 18.1289 22L 15.9609 22L 15.9609 4L 18.1289 4L 18.1289 10.8555ZM 35.3086 11.2656C 34.9805 11.2109 34.625 11.1836 34.2422 11.1836C 32.8203 11.1836 31.8555 11.7891 31.3477 13L 31.3477 22L 29.1797 22L 29.1797 9.32031L 31.2891 9.32031L 31.3242 10.7852C 32.0352 9.65234 33.043 9.08594 34.3477 9.08594C 34.7695 9.08594 35.0898 9.14062 35.3086 9.25L 35.3086 11.2656ZM 42.3633 22.2344C 40.6445 22.2344 39.2461 21.6719 38.168 20.5469C 37.0898 19.4141 36.5508 17.9023 36.5508 16.0117L 36.5508 15.6133C 36.5508 14.3555 36.7891 13.2344 37.2656 12.25C 37.75 11.2578 38.4219 10.4844 39.2812 9.92969C 40.1484 9.36719 41.0859 9.08594 42.0938 9.08594C 43.7422 9.08594 45.0234 9.62891 45.9375 10.7148C 46.8516 11.8008 47.3086 13.3555 47.3086 15.3789L 47.3086 16.2812L 38.7188 16.2812C 38.75 17.5312 39.1133 18.543 39.8086 19.3164C 40.5117 20.082 41.4023 20.4648 42.4805 20.4648C 43.2461 20.4648 43.8945 20.3086 44.4258 19.9961C 44.957 19.6836 45.4219 19.2695 45.8203 18.7539L 47.1445 19.7852C 46.082 21.418 44.4883 22.2344 42.3633 22.2344ZM 42.0938 10.8672C 41.2188 10.8672 40.4844 11.1875 39.8906 11.8281C 39.2969 12.4609 38.9297 13.3516 38.7891 14.5L 45.1406 14.5L 45.1406 14.3359C 45.0781 13.2344 44.7812 12.3828 44.25 11.7812C 43.7188 11.1719 43 10.8672 42.0938 10.8672ZM 57.6562 22C 57.5312 21.75 57.4297 21.3047 57.3516 20.6641C 56.3438 21.7109 55.1406 22.2344 53.7422 22.2344C 52.4922 22.2344 51.4648 21.8828 50.6602 21.1797C 49.8633 20.4688 49.4648 19.5703 49.4648 18.4844C 49.4648 17.1641 49.9648 16.1406 50.9648 15.4141C 51.9727 14.6797 53.3867 14.3125 55.207 14.3125L 57.3164 14.3125L 57.3164 13.3164C 57.3164 12.5586 57.0898 11.957 56.6367 11.5117C 56.1836 11.0586 55.5156 10.832 54.6328 10.832C 53.8594 10.832 53.2109 11.0273 52.6875 11.418C 52.1641 11.8086 51.9023 12.2812 51.9023 12.8359L 49.7227 12.8359C 49.7227 12.2031 49.9453 11.5938 50.3906 11.0078C 50.8438 10.4141 51.4531 9.94531 52.2188 9.60156C 52.9922 9.25781 53.8398 9.08594 54.7617 9.08594C 56.2227 9.08594 57.3672 9.45312 58.1953 10.1875C 59.0234 10.9141 59.4531 11.918 59.4844 13.1992L 59.4844 19.0352C 59.4844 20.1992 59.6328 21.125 59.9297 21.8125L 59.9297 22L 57.6562 22ZM 54.0586 20.3477C 54.7383 20.3477 55.3828 20.1719 55.9922 19.8203C 56.6016 19.4688 57.043 19.0117 57.3164 18.4492L 57.3164 15.8477L 55.6172 15.8477C 52.9609 15.8477 51.6328 16.625 51.6328 18.1797C 51.6328 18.8594 51.8594 19.3906 52.3125 19.7734C 52.7656 20.1562 53.3477 20.3477 54.0586 20.3477ZM 62.3555 15.5547C 62.3555 13.6094 62.8164 12.0469 63.7383 10.8672C 64.6602 9.67969 65.8672 9.08594 67.3594 9.08594C 68.8438 9.08594 70.0195 9.59375 70.8867 10.6094L 70.8867 4L 73.0547 4L 73.0547 22L 71.0625 22L 70.957 20.6406C 70.0898 21.7031 68.8828 22.2344 67.3359 22.2344C 65.8672 22.2344 64.668 21.6328 63.7383 20.4297C 62.8164 19.2266 62.3555 17.6562 62.3555 15.7188L 62.3555 15.5547ZM 64.5234 15.8008C 64.5234 17.2383 64.8203 18.3633 65.4141 19.1758C 66.0078 19.9883 66.8281 20.3945 67.875 20.3945C 69.25 20.3945 70.2539 19.7773 70.8867 18.543L 70.8867 12.7188C 70.2383 11.5234 69.2422 10.9258 67.8984 10.9258C 66.8359 10.9258 66.0078 11.3359 65.4141 12.1562C 64.8203 12.9766 64.5234 14.1914 64.5234 15.8008ZM 85.3125 12.4141L 86.9414 12.4141C 87.9648 12.3984 88.7695 12.1289 89.3555 11.6055C 89.9414 11.082 90.2344 10.375 90.2344 9.48438C 90.2344 7.48437 89.2383 6.48438 87.2461 6.48438C 86.3086 6.48438 85.5586 6.75391 84.9961 7.29297C 84.4414 7.82422 84.1641 8.53125 84.1641 9.41406L 81.9961 9.41406C 81.9961 8.0625 82.4883 6.94141 83.4727 6.05078C 84.4648 5.15234 85.7227 4.70312 87.2461 4.70312C 88.8555 4.70312 90.1172 5.12891 91.0312 5.98047C 91.9453 6.83203 92.4023 8.01562 92.4023 9.53125C 92.4023 10.2734 92.1602 10.9922 91.6758 11.6875C 91.1992 12.3828 90.5469 12.9023 89.7188 13.2461C 90.6562 13.543 91.3789 14.0352 91.8867 14.7227C 92.4023 15.4102 92.6602 16.25 92.6602 17.2422C 92.6602 18.7734 92.1602 19.9883 91.1602 20.8867C 90.1602 21.7852 88.8594 22.2344 87.2578 22.2344C 85.6562 22.2344 84.3516 21.8008 83.3438 20.9336C 82.3438 20.0664 81.8438 18.9219 81.8438 17.5L 84.0234 17.5C 84.0234 18.3984 84.3164 19.1172 84.9023 19.6562C 85.4883 20.1953 86.2734 20.4648 87.2578 20.4648C 88.3047 20.4648 89.1055 20.1914 89.6602 19.6445C 90.2148 19.0977 90.4922 18.3125 90.4922 17.2891C 90.4922 16.2969 90.1875 15.5352 89.5781 15.0039C 88.9688 14.4727 88.0898 14.1992 86.9414 14.1836L 85.3125 14.1836L 85.3125 12.4141Z"/>
<path id="path6_fill" d="M 4.23047 15.3203L 4.23047 22L 1.98047 22L 1.98047 4.9375L 8.27344 4.9375C 10.1406 4.9375 11.6016 5.41406 12.6562 6.36719C 13.7188 7.32031 14.25 8.58203 14.25 10.1523C 14.25 11.8086 13.7305 13.0859 12.6914 13.9844C 11.6602 14.875 10.1797 15.3203 8.25 15.3203L 4.23047 15.3203ZM 4.23047 13.4805L 8.27344 13.4805C 9.47656 13.4805 10.3984 13.1992 11.0391 12.6367C 11.6797 12.0664 12 11.2461 12 10.1758C 12 9.16016 11.6797 8.34766 11.0391 7.73828C 10.3984 7.12891 9.51953 6.8125 8.40234 6.78906L 4.23047 6.78906L 4.23047 13.4805ZM 22.9102 11.2656C 22.582 11.2109 22.2266 11.1836 21.8438 11.1836C 20.4219 11.1836 19.457 11.7891 18.9492 13L 18.9492 22L 16.7812 22L 16.7812 9.32031L 18.8906 9.32031L 18.9258 10.7852C 19.6367 9.65234 20.6445 9.08594 21.9492 9.08594C 22.3711 9.08594 22.6914 9.14062 22.9102 9.25L 22.9102 11.2656ZM 24.1055 15.543C 24.1055 14.3008 24.3477 13.1836 24.832 12.1914C 25.3242 11.1992 26.0039 10.4336 26.8711 9.89453C 27.7461 9.35547 28.7422 9.08594 29.8594 9.08594C 31.5859 9.08594 32.9805 9.68359 34.043 10.8789C 35.1133 12.0742 35.6484 13.6641 35.6484 15.6484L 35.6484 15.8008C 35.6484 17.0352 35.4102 18.1445 34.9336 19.1289C 34.4648 20.1055 33.7891 20.8672 32.9062 21.4141C 32.0312 21.9609 31.0234 22.2344 29.8828 22.2344C 28.1641 22.2344 26.7695 21.6367 25.6992 20.4414C 24.6367 19.2461 24.1055 17.6641 24.1055 15.6953L 24.1055 15.543ZM 26.2852 15.8008C 26.2852 17.207 26.6094 18.3359 27.2578 19.1875C 27.9141 20.0391 28.7891 20.4648 29.8828 20.4648C 30.9844 20.4648 31.8594 20.0352 32.5078 19.1758C 33.1562 18.3086 33.4805 17.0977 33.4805 15.543C 33.4805 14.1523 33.1484 13.0273 32.4844 12.168C 31.8281 11.3008 30.9531 10.8672 29.8594 10.8672C 28.7891 10.8672 27.9258 11.293 27.2695 12.1445C 26.6133 12.9961 26.2852 14.2148 26.2852 15.8008ZM 43.4531 20.4648C 44.2266 20.4648 44.9023 20.2305 45.4805 19.7617C 46.0586 19.293 46.3789 18.707 46.4414 18.0039L 48.4922 18.0039C 48.4531 18.7305 48.2031 19.4219 47.7422 20.0781C 47.2812 20.7344 46.6641 21.2578 45.8906 21.6484C 45.125 22.0391 44.3125 22.2344 43.4531 22.2344C 41.7266 22.2344 40.3516 21.6602 39.3281 20.5117C 38.3125 19.3555 37.8047 17.7773 37.8047 15.7773L 37.8047 15.4141C 37.8047 14.1797 38.0312 13.082 38.4844 12.1211C 38.9375 11.1602 39.5859 10.4141 40.4297 9.88281C 41.2812 9.35156 42.2852 9.08594 43.4414 9.08594C 44.8633 9.08594 46.043 9.51172 46.9805 10.3633C 47.9258 11.2148 48.4297 12.3203 48.4922 13.6797L 46.4414 13.6797C 46.3789 12.8594 46.0664 12.1875 45.5039 11.6641C 44.9492 11.1328 44.2617 10.8672 43.4414 10.8672C 42.3398 10.8672 41.4844 11.2656 40.875 12.0625C 40.2734 12.8516 39.9727 13.9961 39.9727 15.4961L 39.9727 15.9062C 39.9727 17.3672 40.2734 18.4922 40.875 19.2812C 41.4766 20.0703 42.3359 20.4648 43.4531 20.4648ZM 56.1914 22.2344C 54.4727 22.2344 53.0742 21.6719 51.9961 20.5469C 50.918 19.4141 50.3789 17.9023 50.3789 16.0117L 50.3789 15.6133C 50.3789 14.3555 50.6172 13.2344 51.0938 12.25C 51.5781 11.2578 52.25 10.4844 53.1094 9.92969C 53.9766 9.36719 54.9141 9.08594 55.9219 9.08594C 57.5703 9.08594 58.8516 9.62891 59.7656 10.7148C 60.6797 11.8008 61.1367 13.3555 61.1367 15.3789L 61.1367 16.2812L 52.5469 16.2812C 52.5781 17.5312 52.9414 18.543 53.6367 19.3164C 54.3398 20.082 55.2305 20.4648 56.3086 20.4648C 57.0742 20.4648 57.7227 20.3086 58.2539 19.9961C 58.7852 19.6836 59.25 19.2695 59.6484 18.7539L 60.9727 19.7852C 59.9102 21.418 58.3164 22.2344 56.1914 22.2344ZM 55.9219 10.8672C 55.0469 10.8672 54.3125 11.1875 53.7188 11.8281C 53.125 12.4609 52.7578 13.3516 52.6172 14.5L 58.9688 14.5L 58.9688 14.3359C 58.9062 13.2344 58.6094 12.3828 58.0781 11.7812C 57.5469 11.1719 56.8281 10.8672 55.9219 10.8672ZM 71.0391 18.6367C 71.0391 18.0508 70.8164 17.5977 70.3711 17.2773C 69.9336 16.9492 69.1641 16.668 68.0625 16.4336C 66.9688 16.1992 66.0977 15.918 65.4492 15.5898C 64.8086 15.2617 64.332 14.8711 64.0195 14.418C 63.7148 13.9648 63.5625 13.4258 63.5625 12.8008C 63.5625 11.7617 64 10.8828 64.875 10.1641C 65.7578 9.44531 66.8828 9.08594 68.25 9.08594C 69.6875 9.08594 70.8516 9.45703 71.7422 10.1992C 72.6406 10.9414 73.0898 11.8906 73.0898 13.0469L 70.9102 13.0469C 70.9102 12.4531 70.6562 11.9414 70.1484 11.5117C 69.6484 11.082 69.0156 10.8672 68.25 10.8672C 67.4609 10.8672 66.8438 11.0391 66.3984 11.3828C 65.9531 11.7266 65.7305 12.1758 65.7305 12.7305C 65.7305 13.2539 65.9375 13.6484 66.3516 13.9141C 66.7656 14.1797 67.5117 14.4336 68.5898 14.6758C 69.6758 14.918 70.5547 15.207 71.2266 15.543C 71.8984 15.8789 72.3945 16.2852 72.7148 16.7617C 73.043 17.2305 73.207 17.8047 73.207 18.4844C 73.207 19.6172 72.7539 20.5273 71.8477 21.2148C 70.9414 21.8945 69.7656 22.2344 68.3203 22.2344C 67.3047 22.2344 66.4062 22.0547 65.625 21.6953C 64.8438 21.3359 64.2305 20.8359 63.7852 20.1953C 63.3477 19.5469 63.1289 18.8477 63.1289 18.0977L 65.2969 18.0977C 65.3359 18.8242 65.625 19.4023 66.1641 19.832C 66.7109 20.2539 67.4297 20.4648 68.3203 20.4648C 69.1406 20.4648 69.7969 20.3008 70.2891 19.9727C 70.7891 19.6367 71.0391 19.1914 71.0391 18.6367ZM 83.4141 18.6367C 83.4141 18.0508 83.1914 17.5977 82.7461 17.2773C 82.3086 16.9492 81.5391 16.668 80.4375 16.4336C 79.3438 16.1992 78.4727 15.918 77.8242 15.5898C 77.1836 15.2617 76.707 14.8711 76.3945 14.418C 76.0898 13.9648 75.9375 13.4258 75.9375 12.8008C 75.9375 11.7617 76.375 10.8828 77.25 10.1641C 78.1328 9.44531 79.2578 9.08594 80.625 9.08594C 82.0625 9.08594 83.2266 9.45703 84.1172 10.1992C 85.0156 10.9414 85.4648 11.8906 85.4648 13.0469L 83.2852 13.0469C 83.2852 12.4531 83.0312 11.9414 82.5234 11.5117C 82.0234 11.082 81.3906 10.8672 80.625 10.8672C 79.8359 10.8672 79.2188 11.0391 78.7734 11.3828C 78.3281 11.7266 78.1055 12.1758 78.1055 12.7305C 78.1055 13.2539 78.3125 13.6484 78.7266 13.9141C 79.1406 14.1797 79.8867 14.4336 80.9648 14.6758C 82.0508 14.918 82.9297 15.207 83.6016 15.543C 84.2734 15.8789 84.7695 16.2852 85.0898 16.7617C 85.418 17.2305 85.582 17.8047 85.582 18.4844C 85.582 19.6172 85.1289 20.5273 84.2227 21.2148C 83.3164 21.8945 82.1406 22.2344 80.6953 22.2344C 79.6797 22.2344 78.7812 22.0547 78 21.6953C 77.2188 21.3359 76.6055 20.8359 76.1602 20.1953C 75.7227 19.5469 75.5039 18.8477 75.5039 18.0977L 77.6719 18.0977C 77.7109 18.8242 78 19.4023 78.5391 19.832C 79.0859 20.2539 79.8047 20.4648 80.6953 20.4648C 81.5156 20.4648 82.1719 20.3008 82.6641 19.9727C 83.1641 19.6367 83.4141 19.1914 83.4141 18.6367ZM 105.316 22L 94.1367 22L 94.1367 20.4414L 100.043 13.8789C 100.918 12.8867 101.52 12.082 101.848 11.4648C 102.184 10.8398 102.352 10.1953 102.352 9.53125C 102.352 8.64062 102.082 7.91016 101.543 7.33984C 101.004 6.76953 100.285 6.48438 99.3867 6.48438C 98.3086 6.48438 97.4688 6.79297 96.8672 7.41016C 96.2734 8.01953 95.9766 8.87109 95.9766 9.96484L 93.8086 9.96484C 93.8086 8.39453 94.3125 7.125 95.3203 6.15625C 96.3359 5.1875 97.6914 4.70312 99.3867 4.70312C 100.973 4.70312 102.227 5.12109 103.148 5.95703C 104.07 6.78516 104.531 7.89062 104.531 9.27344C 104.531 10.9531 103.461 12.9531 101.32 15.2734L 96.75 20.2305L 105.316 20.2305L 105.316 22Z"/>
<path id="path7_fill" d="M 4.23047 15.3203L 4.23047 22L 1.98047 22L 1.98047 4.9375L 8.27344 4.9375C 10.1406 4.9375 11.6016 5.41406 12.6562 6.36719C 13.7188 7.32031 14.25 8.58203 14.25 10.1523C 14.25 11.8086 13.7305 13.0859 12.6914 13.9844C 11.6602 14.875 10.1797 15.3203 8.25 15.3203L 4.23047 15.3203ZM 4.23047 13.4805L 8.27344 13.4805C 9.47656 13.4805 10.3984 13.1992 11.0391 12.6367C 11.6797 12.0664 12 11.2461 12 10.1758C 12 9.16016 11.6797 8.34766 11.0391 7.73828C 10.3984 7.12891 9.51953 6.8125 8.40234 6.78906L 4.23047 6.78906L 4.23047 13.4805ZM 22.9102 11.2656C 22.582 11.2109 22.2266 11.1836 21.8438 11.1836C 20.4219 11.1836 19.457 11.7891 18.9492 13L 18.9492 22L 16.7812 22L 16.7812 9.32031L 18.8906 9.32031L 18.9258 10.7852C 19.6367 9.65234 20.6445 9.08594 21.9492 9.08594C 22.3711 9.08594 22.6914 9.14062 22.9102 9.25L 22.9102 11.2656ZM 24.1055 15.543C 24.1055 14.3008 24.3477 13.1836 24.832 12.1914C 25.3242 11.1992 26.0039 10.4336 26.8711 9.89453C 27.7461 9.35547 28.7422 9.08594 29.8594 9.08594C 31.5859 9.08594 32.9805 9.68359 34.043 10.8789C 35.1133 12.0742 35.6484 13.6641 35.6484 15.6484L 35.6484 15.8008C 35.6484 17.0352 35.4102 18.1445 34.9336 19.1289C 34.4648 20.1055 33.7891 20.8672 32.9062 21.4141C 32.0312 21.9609 31.0234 22.2344 29.8828 22.2344C 28.1641 22.2344 26.7695 21.6367 25.6992 20.4414C 24.6367 19.2461 24.1055 17.6641 24.1055 15.6953L 24.1055 15.543ZM 26.2852 15.8008C 26.2852 17.207 26.6094 18.3359 27.2578 19.1875C 27.9141 20.0391 28.7891 20.4648 29.8828 20.4648C 30.9844 20.4648 31.8594 20.0352 32.5078 19.1758C 33.1562 18.3086 33.4805 17.0977 33.4805 15.543C 33.4805 14.1523 33.1484 13.0273 32.4844 12.168C 31.8281 11.3008 30.9531 10.8672 29.8594 10.8672C 28.7891 10.8672 27.9258 11.293 27.2695 12.1445C 26.6133 12.9961 26.2852 14.2148 26.2852 15.8008ZM 43.4531 20.4648C 44.2266 20.4648 44.9023 20.2305 45.4805 19.7617C 46.0586 19.293 46.3789 18.707 46.4414 18.0039L 48.4922 18.0039C 48.4531 18.7305 48.2031 19.4219 47.7422 20.0781C 47.2812 20.7344 46.6641 21.2578 45.8906 21.6484C 45.125 22.0391 44.3125 22.2344 43.4531 22.2344C 41.7266 22.2344 40.3516 21.6602 39.3281 20.5117C 38.3125 19.3555 37.8047 17.7773 37.8047 15.7773L 37.8047 15.4141C 37.8047 14.1797 38.0312 13.082 38.4844 12.1211C 38.9375 11.1602 39.5859 10.4141 40.4297 9.88281C 41.2812 9.35156 42.2852 9.08594 43.4414 9.08594C 44.8633 9.08594 46.043 9.51172 46.9805 10.3633C 47.9258 11.2148 48.4297 12.3203 48.4922 13.6797L 46.4414 13.6797C 46.3789 12.8594 46.0664 12.1875 45.5039 11.6641C 44.9492 11.1328 44.2617 10.8672 43.4414 10.8672C 42.3398 10.8672 41.4844 11.2656 40.875 12.0625C 40.2734 12.8516 39.9727 13.9961 39.9727 15.4961L 39.9727 15.9062C 39.9727 17.3672 40.2734 18.4922 40.875 19.2812C 41.4766 20.0703 42.3359 20.4648 43.4531 20.4648ZM 56.1914 22.2344C 54.4727 22.2344 53.0742 21.6719 51.9961 20.5469C 50.918 19.4141 50.3789 17.9023 50.3789 16.0117L 50.3789 15.6133C 50.3789 14.3555 50.6172 13.2344 51.0938 12.25C 51.5781 11.2578 52.25 10.4844 53.1094 9.92969C 53.9766 9.36719 54.9141 9.08594 55.9219 9.08594C 57.5703 9.08594 58.8516 9.62891 59.7656 10.7148C 60.6797 11.8008 61.1367 13.3555 61.1367 15.3789L 61.1367 16.2812L 52.5469 16.2812C 52.5781 17.5312 52.9414 18.543 53.6367 19.3164C 54.3398 20.082 55.2305 20.4648 56.3086 20.4648C 57.0742 20.4648 57.7227 20.3086 58.2539 19.9961C 58.7852 19.6836 59.25 19.2695 59.6484 18.7539L 60.9727 19.7852C 59.9102 21.418 58.3164 22.2344 56.1914 22.2344ZM 55.9219 10.8672C 55.0469 10.8672 54.3125 11.1875 53.7188 11.8281C 53.125 12.4609 52.7578 13.3516 52.6172 14.5L 58.9688 14.5L 58.9688 14.3359C 58.9062 13.2344 58.6094 12.3828 58.0781 11.7812C 57.5469 11.1719 56.8281 10.8672 55.9219 10.8672ZM 71.0391 18.6367C 71.0391 18.0508 70.8164 17.5977 70.3711 17.2773C 69.9336 16.9492 69.1641 16.668 68.0625 16.4336C 66.9688 16.1992 66.0977 15.918 65.4492 15.5898C 64.8086 15.2617 64.332 14.8711 64.0195 14.418C 63.7148 13.9648 63.5625 13.4258 63.5625 12.8008C 63.5625 11.7617 64 10.8828 64.875 10.1641C 65.7578 9.44531 66.8828 9.08594 68.25 9.08594C 69.6875 9.08594 70.8516 9.45703 71.7422 10.1992C 72.6406 10.9414 73.0898 11.8906 73.0898 13.0469L 70.9102 13.0469C 70.9102 12.4531 70.6562 11.9414 70.1484 11.5117C 69.6484 11.082 69.0156 10.8672 68.25 10.8672C 67.4609 10.8672 66.8438 11.0391 66.3984 11.3828C 65.9531 11.7266 65.7305 12.1758 65.7305 12.7305C 65.7305 13.2539 65.9375 13.6484 66.3516 13.9141C 66.7656 14.1797 67.5117 14.4336 68.5898 14.6758C 69.6758 14.918 70.5547 15.207 71.2266 15.543C 71.8984 15.8789 72.3945 16.2852 72.7148 16.7617C 73.043 17.2305 73.207 17.8047 73.207 18.4844C 73.207 19.6172 72.7539 20.5273 71.8477 21.2148C 70.9414 21.8945 69.7656 22.2344 68.3203 22.2344C 67.3047 22.2344 66.4062 22.0547 65.625 21.6953C 64.8438 21.3359 64.2305 20.8359 63.7852 20.1953C 63.3477 19.5469 63.1289 18.8477 63.1289 18.0977L 65.2969 18.0977C 65.3359 18.8242 65.625 19.4023 66.1641 19.832C 66.7109 20.2539 67.4297 20.4648 68.3203 20.4648C 69.1406 20.4648 69.7969 20.3008 70.2891 19.9727C 70.7891 19.6367 71.0391 19.1914 71.0391 18.6367ZM 83.4141 18.6367C 83.4141 18.0508 83.1914 17.5977 82.7461 17.2773C 82.3086 16.9492 81.5391 16.668 80.4375 16.4336C 79.3438 16.1992 78.4727 15.918 77.8242 15.5898C 77.1836 15.2617 76.707 14.8711 76.3945 14.418C 76.0898 13.9648 75.9375 13.4258 75.9375 12.8008C 75.9375 11.7617 76.375 10.8828 77.25 10.1641C 78.1328 9.44531 79.2578 9.08594 80.625 9.08594C 82.0625 9.08594 83.2266 9.45703 84.1172 10.1992C 85.0156 10.9414 85.4648 11.8906 85.4648 13.0469L 83.2852 13.0469C 83.2852 12.4531 83.0312 11.9414 82.5234 11.5117C 82.0234 11.082 81.3906 10.8672 80.625 10.8672C 79.8359 10.8672 79.2188 11.0391 78.7734 11.3828C 78.3281 11.7266 78.1055 12.1758 78.1055 12.7305C 78.1055 13.2539 78.3125 13.6484 78.7266 13.9141C 79.1406 14.1797 79.8867 14.4336 80.9648 14.6758C 82.0508 14.918 82.9297 15.207 83.6016 15.543C 84.2734 15.8789 84.7695 16.2852 85.0898 16.7617C 85.418 17.2305 85.582 17.8047 85.582 18.4844C 85.582 19.6172 85.1289 20.5273 84.2227 21.2148C 83.3164 21.8945 82.1406 22.2344 80.6953 22.2344C 79.6797 22.2344 78.7812 22.0547 78 21.6953C 77.2188 21.3359 76.6055 20.8359 76.1602 20.1953C 75.7227 19.5469 75.5039 18.8477 75.5039 18.0977L 77.6719 18.0977C 77.7109 18.8242 78 19.4023 78.5391 19.832C 79.0859 20.2539 79.8047 20.4648 80.6953 20.4648C 81.5156 20.4648 82.1719 20.3008 82.6641 19.9727C 83.1641 19.6367 83.4141 19.1914 83.4141 18.6367ZM 97.2891 12.4141L 98.918 12.4141C 99.9414 12.3984 100.746 12.1289 101.332 11.6055C 101.918 11.082 102.211 10.375 102.211 9.48438C 102.211 7.48437 101.215 6.48438 99.2227 6.48438C 98.2852 6.48438 97.5352 6.75391 96.9727 7.29297C 96.418 7.82422 96.1406 8.53125 96.1406 9.41406L 93.9727 9.41406C 93.9727 8.0625 94.4648 6.94141 95.4492 6.05078C 96.4414 5.15234 97.6992 4.70312 99.2227 4.70312C 100.832 4.70312 102.094 5.12891 103.008 5.98047C 103.922 6.83203 104.379 8.01562 104.379 9.53125C 104.379 10.2734 104.137 10.9922 103.652 11.6875C 103.176 12.3828 102.523 12.9023 101.695 13.2461C 102.633 13.543 103.355 14.0352 103.863 14.7227C 104.379 15.4102 104.637 16.25 104.637 17.2422C 104.637 18.7734 104.137 19.9883 103.137 20.8867C 102.137 21.7852 100.836 22.2344 99.2344 22.2344C 97.6328 22.2344 96.3281 21.8008 95.3203 20.9336C 94.3203 20.0664 93.8203 18.9219 93.8203 17.5L 96 17.5C 96 18.3984 96.293 19.1172 96.8789 19.6562C 97.4648 20.1953 98.25 20.4648 99.2344 20.4648C 100.281 20.4648 101.082 20.1914 101.637 19.6445C 102.191 19.0977 102.469 18.3125 102.469 17.2891C 102.469 16.2969 102.164 15.5352 101.555 15.0039C 100.945 14.4727 100.066 14.1992 98.918 14.1836L 97.2891 14.1836L 97.2891 12.4141Z"/>
</defs>
</svg>
