<svg width="416" height="320" viewBox="0 0 416 320" fill="none" xmlns="http://www.w3.org/2000/svg">
<path d="M22.8083 45.3559C35.405 45.3559 45.6167 35.2026 45.6167 22.678C45.6167 10.1533 35.405 0 22.8083 0C10.2116 0 0 10.1533 0 22.678C0 35.2026 10.2116 45.3559 22.8083 45.3559Z" transform="translate(1 79)" stroke="black"/>
<path d="M7.11914 19H5.30273V6.95898L1.66016 8.29688V6.65625L6.83594 4.71289H7.11914V19Z" transform="translate(17.422 87.383)" fill="black"/>
<path d="M0 14L66 0" transform="translate(51.8833 83.5)" stroke="black" stroke-linecap="square"/>
<path d="M1.24503 5.86941L11.1874 0.693657L2.03516e-06 -2.13867e-08" transform="translate(106.696 82.8063)" stroke="black" stroke-linecap="square"/>
<path d="M0 0L71 43" transform="translate(49.8833 123.5)" stroke="black" stroke-linecap="square"/>
<path d="M0 0L71 43" transform="translate(171 118)" stroke="black" stroke-linecap="square"/>
<path d="M3.44189e-06 5.13215L10.792 8.16085L3.10821 -5.1543e-06" transform="translate(110.091 158.339)" stroke="black" stroke-linecap="square"/>
<path d="M3.44189e-06 5.13215L10.792 8.16085L3.10821 -5.1543e-06" transform="translate(233 154)" stroke="black" stroke-linecap="square"/>
<path d="M0 0H55" transform="translate(57.8833 187.5)" stroke="black" stroke-linecap="square"/>
<path d="M-3.05176e-06 6L10.8 3L-3.05176e-06 0" transform="translate(102.083 184.5)" stroke="black" stroke-linecap="square"/>
<path d="M22.8083 45.3559C35.405 45.3559 45.6167 35.2026 45.6167 22.678C45.6167 10.1533 35.405 0 22.8083 0C10.2116 0 0 10.1533 0 22.678C0 35.2026 10.2116 45.3559 22.8083 45.3559Z" transform="translate(1.38333 165)" stroke="black"/>
<path d="M10.498 19H1.18164V17.7012L6.10352 12.2324C6.83268 11.4056 7.33398 10.735 7.60742 10.2207C7.88737 9.69987 8.02734 9.16276 8.02734 8.60938C8.02734 7.86719 7.80273 7.25846 7.35352 6.7832C6.9043 6.30794 6.30534 6.07031 5.55664 6.07031C4.6582 6.07031 3.95833 6.32747 3.45703 6.8418C2.96224 7.34961 2.71484 8.05924 2.71484 8.9707H0.908203C0.908203 7.66211 1.32812 6.60417 2.16797 5.79688C3.01432 4.98958 4.14388 4.58594 5.55664 4.58594C6.87826 4.58594 7.92318 4.93424 8.69141 5.63086C9.45964 6.32096 9.84375 7.24219 9.84375 8.39453C9.84375 9.79427 8.95182 11.4609 7.16797 13.3945L3.35938 17.5254H10.498V19Z" transform="translate(17.8053 173.383)" fill="black"/>
<path d="M22.8083 45.3559C35.405 45.3559 45.6167 35.2026 45.6167 22.678C45.6167 10.1533 35.405 0 22.8083 0C10.2116 0 0 10.1533 0 22.678C0 35.2026 10.2116 45.3559 22.8083 45.3559Z" transform="translate(1.38333 251)" stroke="black"/>
<path d="M3.80859 11.0117H5.16602C6.01888 10.9987 6.68945 10.7741 7.17773 10.3379C7.66602 9.90169 7.91016 9.3125 7.91016 8.57031C7.91016 6.90365 7.08008 6.07031 5.41992 6.07031C4.63867 6.07031 4.01367 6.29492 3.54492 6.74414C3.08268 7.18685 2.85156 7.77604 2.85156 8.51172H1.04492C1.04492 7.38542 1.45508 6.45117 2.27539 5.70898C3.10221 4.96029 4.15039 4.58594 5.41992 4.58594C6.76107 4.58594 7.8125 4.94076 8.57422 5.65039C9.33594 6.36003 9.7168 7.34635 9.7168 8.60938C9.7168 9.22786 9.51497 9.82682 9.11133 10.4062C8.71419 10.9857 8.17057 11.4186 7.48047 11.7051C8.26172 11.9525 8.86393 12.3626 9.28711 12.9355C9.7168 13.5085 9.93164 14.2083 9.93164 15.0352C9.93164 16.3112 9.51497 17.3236 8.68164 18.0723C7.84831 18.821 6.76432 19.1953 5.42969 19.1953C4.09505 19.1953 3.00781 18.834 2.16797 18.1113C1.33464 17.3887 0.917969 16.4349 0.917969 15.25H2.73438C2.73438 15.9987 2.97852 16.5977 3.4668 17.0469C3.95508 17.4961 4.60938 17.7207 5.42969 17.7207C6.30208 17.7207 6.9694 17.4928 7.43164 17.0371C7.89388 16.5814 8.125 15.9271 8.125 15.0742C8.125 14.2474 7.87109 13.6126 7.36328 13.1699C6.85547 12.7272 6.12305 12.4993 5.16602 12.4863H3.80859V11.0117Z" transform="translate(17.8053 259.383)" fill="black"/>
<path d="M0 0L60 11" transform="translate(55.8833 279.5)" stroke="black" stroke-linecap="square"/>
<path d="M1.19971e-06 5.90163L11.1639 4.89836L1.08196 1.50527e-05" transform="translate(104.719 285.602)" stroke="black" stroke-linecap="square"/>
<path d="M0 0L59 10" transform="translate(178.883 83.5)" stroke="black" stroke-linecap="square"/>
<path d="M1.16113e-06 5.91563L11.1495 4.76258L1.00266 3.72842e-06" transform="translate(226.734 88.7374)" stroke="black" stroke-linecap="square"/>
<path d="M0 54L64 0" transform="translate(173 217.5)" stroke="black" stroke-linecap="square"/>
<path d="M3.86923 9.25748L10.189 0L3.78564e-06 4.67174" transform="translate(230 215)" stroke="black" stroke-linecap="square"/>
<path d="M22.8083 45.3559C35.405 45.3559 45.6167 35.2026 45.6167 22.678C45.6167 10.1533 35.405 0 22.8083 0C10.2116 0 0 10.1533 0 22.678C0 35.2026 10.2116 45.3559 22.8083 45.3559Z" transform="translate(125.383 56)" stroke="black"/>
<path d="M8.80859 14.2246H10.7812V15.6992H8.80859V19H6.99219V15.6992H0.517578V14.6348L6.88477 4.78125H8.80859V14.2246ZM2.56836 14.2246H6.99219V7.25195L6.77734 7.64258L2.56836 14.2246Z" transform="translate(141.805 64.383)" fill="black"/>
<path d="M22.8083 45.3559C35.405 45.3559 45.6167 35.2026 45.6167 22.678C45.6167 10.1533 35.405 0 22.8083 0C10.2116 0 0 10.1533 0 22.678C0 35.2026 10.2116 45.3559 22.8083 45.3559Z" transform="translate(125.383 165)" stroke="black"/>
<path d="M2.01172 11.8711L2.73438 4.78125H10.0195V6.45117H4.26758L3.83789 10.3281C4.53451 9.91797 5.32552 9.71289 6.21094 9.71289C7.50651 9.71289 8.53516 10.1426 9.29688 11.002C10.0586 11.8548 10.4395 13.0104 10.4395 14.4688C10.4395 15.9336 10.0423 17.0892 9.24805 17.9355C8.46029 18.7754 7.35677 19.1953 5.9375 19.1953C4.68099 19.1953 3.6556 18.847 2.86133 18.1504C2.06706 17.4538 1.61458 16.4902 1.50391 15.2598H3.21289C3.32357 16.0736 3.61328 16.6888 4.08203 17.1055C4.55078 17.5156 5.16927 17.7207 5.9375 17.7207C6.77734 17.7207 7.4349 17.4342 7.91016 16.8613C8.39193 16.2884 8.63281 15.4974 8.63281 14.4883C8.63281 13.5378 8.3724 12.776 7.85156 12.2031C7.33724 11.6237 6.65039 11.334 5.79102 11.334C5.00326 11.334 4.38477 11.5065 3.93555 11.8516L3.45703 12.2422L2.01172 11.8711Z" transform="translate(141.805 173.383)" fill="black"/>
<path d="M22.8083 45.3559C35.405 45.3559 45.6167 35.2026 45.6167 22.678C45.6167 10.1533 35.405 0 22.8083 0C10.2116 0 0 10.1533 0 22.678C0 35.2026 10.2116 45.3559 22.8083 45.3559Z" transform="translate(125.383 274)" stroke="black"/>
<path d="M8.27148 4.77148V6.30469H7.93945C6.5332 6.33073 5.41341 6.7474 4.58008 7.55469C3.74674 8.36198 3.26497 9.49805 3.13477 10.9629C3.88346 10.1035 4.9056 9.67383 6.20117 9.67383C7.43815 9.67383 8.42448 10.11 9.16016 10.9824C9.90234 11.8548 10.2734 12.9811 10.2734 14.3613C10.2734 15.8262 9.87305 16.998 9.07227 17.877C8.27799 18.7559 7.21029 19.1953 5.86914 19.1953C4.50846 19.1953 3.40495 18.6745 2.55859 17.6328C1.71224 16.5846 1.28906 15.237 1.28906 13.5898V12.8965C1.28906 10.2793 1.8457 8.2806 2.95898 6.90039C4.07878 5.51367 5.74219 4.80404 7.94922 4.77148H8.27148ZM5.89844 11.1777C5.27995 11.1777 4.71029 11.3633 4.18945 11.7344C3.66862 12.1055 3.30729 12.571 3.10547 13.1309V13.7949C3.10547 14.9668 3.36914 15.9108 3.89648 16.627C4.42383 17.3431 5.08138 17.7012 5.86914 17.7012C6.68294 17.7012 7.32096 17.4017 7.7832 16.8027C8.25195 16.2038 8.48633 15.4193 8.48633 14.4492C8.48633 13.4727 8.2487 12.6849 7.77344 12.0859C7.30469 11.4805 6.67969 11.1777 5.89844 11.1777Z" transform="translate(141.805 282.383)" fill="black"/>
<path d="M0 12L57 0" transform="translate(180.883 282.5)" stroke="black" stroke-linecap="square"/>
<path d="M1.23607 5.87129L11.1864 0.710736L-1.84961e-06 1.2123e-05" transform="translate(226.697 281.789)" stroke="black" stroke-linecap="square"/>
<path d="M0 0L65 48" transform="translate(300.883 116.5)" stroke="black" stroke-linecap="square"/>
<path d="M6.7793e-06 4.8266L10.47 8.82897L3.56425 7.66602e-07" transform="translate(355.413 155.671)" stroke="black" stroke-linecap="square"/>
<path d="M22.8083 45.3559C35.405 45.3559 45.6167 35.2026 45.6167 22.678C45.6167 10.1533 35.405 0 22.8083 0C10.2116 0 0 10.1533 0 22.678C0 35.2026 10.2116 45.3559 22.8083 45.3559Z" transform="translate(247.383 251)" stroke="black"/>
<path d="M10.3613 5.79688L4.47266 19H2.57812L8.44727 6.26562H0.751953V4.78125H10.3613V5.79688Z" transform="translate(263.805 259.383)" fill="black"/>
<path d="M22.8083 45.3559C35.405 45.3559 45.6167 35.2026 45.6167 22.678C45.6167 10.1533 35.405 0 22.8083 0C10.2116 0 0 10.1533 0 22.678C0 35.2026 10.2116 45.3559 22.8083 45.3559Z" transform="translate(247.383 165)" stroke="black"/>
<path d="M9.80469 8.49219C9.80469 9.20182 9.61589 9.83333 9.23828 10.3867C8.86719 10.9401 8.36263 11.373 7.72461 11.6855C8.4668 12.0046 9.05273 12.4701 9.48242 13.082C9.91862 13.694 10.1367 14.3874 10.1367 15.1621C10.1367 16.3926 9.72005 17.3724 8.88672 18.1016C8.0599 18.8307 6.9694 19.1953 5.61523 19.1953C4.24805 19.1953 3.15104 18.8307 2.32422 18.1016C1.50391 17.3659 1.09375 16.3861 1.09375 15.1621C1.09375 14.3939 1.30208 13.7005 1.71875 13.082C2.14193 12.4635 2.72461 11.9948 3.4668 11.6758C2.83529 11.3633 2.33724 10.9303 1.97266 10.377C1.60807 9.82357 1.42578 9.19531 1.42578 8.49219C1.42578 7.29427 1.8099 6.34375 2.57812 5.64062C3.34635 4.9375 4.35872 4.58594 5.61523 4.58594C6.86523 4.58594 7.87435 4.9375 8.64258 5.64062C9.41732 6.34375 9.80469 7.29427 9.80469 8.49219ZM8.33008 15.123C8.33008 14.3288 8.07617 13.681 7.56836 13.1797C7.06706 12.6784 6.40951 12.4277 5.5957 12.4277C4.7819 12.4277 4.1276 12.6751 3.63281 13.1699C3.14453 13.6647 2.90039 14.3158 2.90039 15.123C2.90039 15.9303 3.13802 16.5651 3.61328 17.0273C4.09505 17.4896 4.76237 17.7207 5.61523 17.7207C6.46159 17.7207 7.12565 17.4896 7.60742 17.0273C8.08919 16.5586 8.33008 15.9238 8.33008 15.123ZM5.61523 6.07031C4.9056 6.07031 4.32943 6.29167 3.88672 6.73438C3.45052 7.17057 3.23242 7.76628 3.23242 8.52148C3.23242 9.24414 3.44727 9.83008 3.87695 10.2793C4.31315 10.722 4.89258 10.9434 5.61523 10.9434C6.33789 10.9434 6.91406 10.722 7.34375 10.2793C7.77995 9.83008 7.99805 9.24414 7.99805 8.52148C7.99805 7.79883 7.77344 7.20964 7.32422 6.75391C6.875 6.29818 6.30534 6.07031 5.61523 6.07031Z" transform="translate(263.805 173.383)" fill="black"/>
<path d="M22.8083 45.3559C35.405 45.3559 45.6167 35.2026 45.6167 22.678C45.6167 10.1533 35.405 0 22.8083 0C10.2116 0 0 10.1533 0 22.678C0 35.2026 10.2116 45.3559 22.8083 45.3559Z" transform="translate(247.383 79)" stroke="black"/>
<path d="M8.10547 12.75C7.72786 13.1992 7.27539 13.5605 6.74805 13.834C6.22721 14.1074 5.6543 14.2441 5.0293 14.2441C4.20898 14.2441 3.49284 14.0423 2.88086 13.6387C2.27539 13.235 1.80664 12.6686 1.47461 11.9395C1.14258 11.2038 0.976562 10.3932 0.976562 9.50781C0.976562 8.55729 1.1556 7.70117 1.51367 6.93945C1.87826 6.17773 2.39258 5.59505 3.05664 5.19141C3.7207 4.78776 4.49544 4.58594 5.38086 4.58594C6.78711 4.58594 7.89388 5.11328 8.70117 6.16797C9.51497 7.21615 9.92188 8.64844 9.92188 10.4648V10.9922C9.92188 13.7591 9.375 15.7806 8.28125 17.0566C7.1875 18.3262 5.53711 18.9772 3.33008 19.0098H2.97852V17.4863H3.35938C4.85026 17.4603 5.99609 17.0729 6.79688 16.3242C7.59766 15.569 8.03385 14.3776 8.10547 12.75ZM5.32227 12.75C5.92773 12.75 6.48438 12.5645 6.99219 12.1934C7.50651 11.8223 7.88086 11.3633 8.11523 10.8164V10.0938C8.11523 8.90885 7.85807 7.94531 7.34375 7.20312C6.82943 6.46094 6.17839 6.08984 5.39062 6.08984C4.59635 6.08984 3.95833 6.39583 3.47656 7.00781C2.99479 7.61328 2.75391 8.41406 2.75391 9.41016C2.75391 10.3802 2.98503 11.181 3.44727 11.8125C3.91602 12.4375 4.54102 12.75 5.32227 12.75Z" transform="translate(263.805 87.383)" fill="black"/>
<path d="M22.8083 45.3559C35.405 45.3559 45.6167 35.2026 45.6167 22.678C45.6167 10.1533 35.405 0 22.8083 0C10.2116 0 0 10.1533 0 22.678C0 35.2026 10.2116 45.3559 22.8083 45.3559Z" transform="translate(369.383 165)" stroke="black"/>
<path d="M7.11914 19H5.30273V6.95898L1.66016 8.29688V6.65625L6.83594 4.71289H7.11914V19ZM21.3281 12.9355C21.3281 15.0514 20.9668 16.6237 20.2441 17.6523C19.5215 18.681 18.3919 19.1953 16.8555 19.1953C15.3385 19.1953 14.2155 18.694 13.4863 17.6914C12.7572 16.6823 12.3796 15.1784 12.3535 13.1797V10.7676C12.3535 8.67773 12.7148 7.125 13.4375 6.10938C14.1602 5.09375 15.293 4.58594 16.8359 4.58594C18.3659 4.58594 19.4922 5.07747 20.2148 6.06055C20.9375 7.03711 21.3086 8.54753 21.3281 10.5918V12.9355ZM19.5215 10.4648C19.5215 8.9349 19.3066 7.82161 18.877 7.125C18.4473 6.42188 17.7669 6.07031 16.8359 6.07031C15.9115 6.07031 15.2376 6.41862 14.8145 7.11523C14.3913 7.81185 14.1732 8.88281 14.1602 10.3281V13.2188C14.1602 14.7552 14.3815 15.8913 14.8242 16.627C15.2734 17.3561 15.9505 17.7207 16.8555 17.7207C17.7474 17.7207 18.4082 17.3757 18.8379 16.6855C19.2741 15.9954 19.502 14.9082 19.5215 13.4238V10.4648Z" transform="translate(379.805 173.383)" fill="black"/>
<path d="M3.83789 10.6406H5.3418C6.05794 10.6406 6.58854 10.4616 6.93359 10.1035C7.27865 9.74544 7.45117 9.27018 7.45117 8.67773C7.45117 8.10482 7.27865 7.65885 6.93359 7.33984C6.59505 7.02083 6.1263 6.86133 5.52734 6.86133C4.98698 6.86133 4.53451 7.01107 4.16992 7.31055C3.80534 7.60352 3.62305 7.98763 3.62305 8.46289H0.800781C0.800781 7.7207 0.999349 7.05664 1.39648 6.4707C1.80013 5.87826 2.36003 5.41602 3.07617 5.08398C3.79883 4.75195 4.5931 4.58594 5.45898 4.58594C6.96289 4.58594 8.14128 4.94727 8.99414 5.66992C9.84701 6.38607 10.2734 7.37565 10.2734 8.63867C10.2734 9.28971 10.0749 9.88867 9.67773 10.4355C9.2806 10.9824 8.75977 11.4023 8.11523 11.6953C8.91602 11.9818 9.51172 12.4115 9.90234 12.9844C10.2995 13.5573 10.498 14.2344 10.498 15.0156C10.498 16.2786 10.0358 17.291 9.11133 18.0527C8.19336 18.8145 6.97591 19.1953 5.45898 19.1953C4.03971 19.1953 2.8776 18.821 1.97266 18.0723C1.07422 17.3236 0.625 16.334 0.625 15.1035H3.44727C3.44727 15.6374 3.64583 16.0736 4.04297 16.4121C4.44661 16.7507 4.94141 16.9199 5.52734 16.9199C6.19792 16.9199 6.72201 16.7441 7.09961 16.3926C7.48372 16.0345 7.67578 15.5625 7.67578 14.9766C7.67578 13.5573 6.89453 12.8477 5.33203 12.8477H3.83789V10.6406ZM22.998 13.7949H20.6641V19H17.7344V4.78125H23.0176C24.6973 4.78125 25.9928 5.1556 26.9043 5.9043C27.8158 6.65299 28.2715 7.71094 28.2715 9.07812C28.2715 10.0482 28.0599 10.8587 27.6367 11.5098C27.2201 12.1543 26.5853 12.6686 25.7324 13.0527L28.8086 18.8633V19H25.6641L22.998 13.7949ZM20.6641 11.4219H23.0273C23.763 11.4219 24.3327 11.2363 24.7363 10.8652C25.14 10.4876 25.3418 9.97005 25.3418 9.3125C25.3418 8.64193 25.1497 8.11458 24.7656 7.73047C24.388 7.34635 23.8053 7.1543 23.0176 7.1543H20.6641V11.4219ZM29.8828 13.6191C29.8828 12.571 30.0846 11.6367 30.4883 10.8164C30.8919 9.99609 31.4714 9.36133 32.2266 8.91211C32.9883 8.46289 33.8704 8.23828 34.873 8.23828C36.2988 8.23828 37.4609 8.67448 38.3594 9.54688C39.2643 10.4193 39.7689 11.6042 39.873 13.1016L39.8926 13.8242C39.8926 15.4453 39.4401 16.7474 38.5352 17.7305C37.6302 18.707 36.416 19.1953 34.8926 19.1953C33.3691 19.1953 32.1517 18.707 31.2402 17.7305C30.3353 16.7539 29.8828 15.4258 29.8828 13.7461V13.6191ZM32.7051 13.8242C32.7051 14.8268 32.8939 15.5951 33.2715 16.1289C33.6491 16.6562 34.1895 16.9199 34.8926 16.9199C35.5762 16.9199 36.11 16.6595 36.4941 16.1387C36.8783 15.6113 37.0703 14.7715 37.0703 13.6191C37.0703 12.6361 36.8783 11.8743 36.4941 11.334C36.11 10.7936 35.5697 10.5234 34.873 10.5234C34.1829 10.5234 33.6491 10.7936 33.2715 11.334C32.8939 11.8678 32.7051 12.6979 32.7051 13.8242ZM41.1914 13.6191C41.1914 12.571 41.3932 11.6367 41.7969 10.8164C42.2005 9.99609 42.7799 9.36133 43.5352 8.91211C44.2969 8.46289 45.179 8.23828 46.1816 8.23828C47.6074 8.23828 48.7695 8.67448 49.668 9.54688C50.5729 10.4193 51.0775 11.6042 51.1816 13.1016L51.2012 13.8242C51.2012 15.4453 50.7487 16.7474 49.8438 17.7305C48.9388 18.707 47.7246 19.1953 46.2012 19.1953C44.6777 19.1953 43.4603 18.707 42.5488 17.7305C41.6439 16.7539 41.1914 15.4258 41.1914 13.7461V13.6191ZM44.0137 13.8242C44.0137 14.8268 44.2025 15.5951 44.5801 16.1289C44.9577 16.6562 45.498 16.9199 46.2012 16.9199C46.8848 16.9199 47.4186 16.6595 47.8027 16.1387C48.1868 15.6113 48.3789 14.7715 48.3789 13.6191C48.3789 12.6361 48.1868 11.8743 47.8027 11.334C47.4186 10.7936 46.8783 10.5234 46.1816 10.5234C45.4915 10.5234 44.9577 10.7936 44.5801 11.334C44.2025 11.8678 44.0137 12.6979 44.0137 13.8242ZM56.3184 5.83594V8.43359H58.125V10.5039H56.3184V15.7773C56.3184 16.168 56.3932 16.4479 56.543 16.6172C56.6927 16.7865 56.9792 16.8711 57.4023 16.8711C57.7148 16.8711 57.9915 16.8483 58.2324 16.8027V18.9414C57.679 19.1107 57.1094 19.1953 56.5234 19.1953C54.5443 19.1953 53.5352 18.196 53.4961 16.1973V10.5039H51.9531V8.43359H53.4961V5.83594H56.3184ZM64.8633 19V4.78125H69.2383C70.4883 4.78125 71.6048 5.06445 72.5879 5.63086C73.5775 6.19076 74.349 6.99154 74.9023 8.0332C75.4557 9.06836 75.7324 10.2467 75.7324 11.5684V12.2227C75.7324 13.5443 75.459 14.7194 74.9121 15.748C74.3717 16.7767 73.6068 17.5742 72.6172 18.1406C71.6276 18.707 70.5111 18.9935 69.2676 19H64.8633ZM67.793 7.1543V16.6465H69.209C70.3548 16.6465 71.2305 16.2721 71.8359 15.5234C72.4414 14.7747 72.7507 13.7038 72.7637 12.3105V11.5586C72.7637 10.1133 72.4642 9.01953 71.8652 8.27734C71.2663 7.52865 70.3906 7.1543 69.2383 7.1543H67.793ZM85.6836 16.0703H80.5469L79.5703 19H76.4551L81.748 4.78125H84.4629L89.7852 19H86.6699L85.6836 16.0703ZM81.3379 13.6973H84.8926L83.1055 8.375L81.3379 13.6973ZM102.148 17.2031C101.621 17.8346 100.876 18.3262 99.9121 18.6777C98.9486 19.0228 97.8809 19.1953 96.709 19.1953C95.4785 19.1953 94.3978 18.9284 93.4668 18.3945C92.5423 17.8542 91.8262 17.0729 91.3184 16.0508C90.8171 15.0286 90.5599 13.8275 90.5469 12.4473V11.4805C90.5469 10.0612 90.7845 8.83398 91.2598 7.79883C91.7415 6.75716 92.4316 5.96289 93.3301 5.41602C94.235 4.86263 95.293 4.58594 96.5039 4.58594C98.1901 4.58594 99.5085 4.98958 100.459 5.79688C101.41 6.59766 101.973 7.76628 102.148 9.30273H99.2969C99.1667 8.48893 98.877 7.89323 98.4277 7.51562C97.985 7.13802 97.373 6.94922 96.5918 6.94922C95.5957 6.94922 94.8372 7.32357 94.3164 8.07227C93.7956 8.82096 93.5319 9.93424 93.5254 11.4121V12.3203C93.5254 13.8112 93.8086 14.9375 94.375 15.6992C94.9414 16.4609 95.7715 16.8418 96.8652 16.8418C97.9655 16.8418 98.75 16.6074 99.2188 16.1387V13.6875H96.5527V11.5293H102.148V17.2031Z" transform="translate(151.383 -4)" fill="black"/>
<path d="M0 0H56" transform="translate(179.883 187.5)" stroke="black" stroke-linecap="square"/>
<path d="M-3.05176e-06 6L10.8 3L-3.05176e-06 0" transform="translate(225.083 184.5)" stroke="black" stroke-linecap="square"/>
<path d="M0 0H52" transform="translate(302.883 189.5)" stroke="black" stroke-linecap="square"/>
<path d="M1.2207e-05 6L10.8 3L1.2207e-05 0" transform="translate(344.083 186.5)" stroke="black" stroke-linecap="square"/>
<path d="M0 49L64 0" transform="translate(302.883 210.5)" stroke="black" stroke-linecap="square"/>
<path d="M3.64747 8.94745L10.399 0L4.18359e-06 4.18341" transform="translate(356.484 210.5)" stroke="black" stroke-linecap="square"/>
</svg>
