<?xml version="1.0" encoding="UTF-8" standalone="no"?>
<svg width="322px" height="242px" viewBox="0 0 322 242" version="1.1" xmlns="http://www.w3.org/2000/svg" xmlns:xlink="http://www.w3.org/1999/xlink">
    <!-- Generator: Sketch 44.1 (41455) - http://www.bohemiancoding.com/sketch -->
    <title>S6 - Right-Left Difference Check</title>
    <desc>Created with Sketch.</desc>
    <defs></defs>
    <g id="DE4" stroke="none" stroke-width="1" fill="none" fill-rule="evenodd">
        <g id="DE4M4" transform="translate(-160.000000, -2208.000000)">
            <g id="S6---Right-Left-Difference-Check" transform="translate(160.000000, 2207.000000)">
                <g id="BST" transform="translate(130.000000, 137.000000) scale(-1, 1) translate(-130.000000, -137.000000) translate(0.000000, 31.000000)">
                    <g id="Tree-Node" transform="translate(61.000000, 177.000000)">
                        <ellipse id="Oval" stroke="#000000" cx="17.997238" cy="17.0535714" rx="16.997238" ry="17.0535714"></ellipse>
                        <text id="8" transform="translate(10.614971, 16.203297) scale(-1, 1) translate(-10.614971, -16.203297) " font-family="AndaleMono, Andale Mono" font-size="11" font-weight="normal" fill="#000000">
                            <tspan x="0.235466823" y="20.2032967">8</tspan>
                        </text>
                    </g>
                    <g id="Tree-Node" transform="translate(90.681934, 110.000000)">
                        <ellipse id="Oval" stroke="#000000" cx="16.997238" cy="17.0535714" rx="16.997238" ry="17.0535714"></ellipse>
                        <text id="7" transform="translate(15.994693, 16.203297) scale(-1, 1) translate(-15.994693, -16.203297) " font-family="AndaleMono, Andale Mono" font-size="11" font-weight="normal" fill="#000000">
                            <tspan x="11.2354668" y="20.2032967">7</tspan>
                        </text>
                    </g>
                    <g id="Tree-Node" transform="translate(0.910941, 110.000000)">
                        <ellipse id="Oval" stroke="#000000" cx="16.997238" cy="17.0535714" rx="16.997238" ry="17.0535714"></ellipse>
                        <text id="10" transform="translate(15.376960, 17.203297) scale(-1, 1) translate(-15.376960, -17.203297) " font-family="AndaleMono, Andale Mono" font-size="11" font-weight="normal" fill="#000000">
                            <tspan x="8" y="21.2032967">10</tspan>
                        </text>
                    </g>
                    <g id="Tree-Node" transform="translate(225.338422, 50.000000)">
                        <ellipse id="Oval" stroke="#000000" cx="16.997238" cy="17.0535714" rx="16.997238" ry="17.0535714"></ellipse>
                        <text id="3" transform="translate(10.614971, 16.203297) scale(-1, 1) translate(-10.614971, -16.203297) " font-family="AndaleMono, Andale Mono" font-size="11" font-weight="normal" fill="#000000">
                            <tspan x="0.235466823" y="20.2032967">3</tspan>
                        </text>
                    </g>
                    <path d="M60.259542,79.5 L28.5,113.5" id="Line" stroke="#000000" stroke-linecap="square"></path>
                    <path d="M83.2010178,80.5 L100.157761,111.5" id="Line" stroke="#000000" stroke-linecap="square"></path>
                    <g id="Tree-Node" transform="translate(55.770992, 50.000000)">
                        <ellipse id="Oval" stroke="#000000" cx="16.997238" cy="17.0535714" rx="16.997238" ry="17.0535714"></ellipse>
                        <text id="9" transform="translate(15.994693, 16.203297) scale(-1, 1) translate(-15.994693, -16.203297) " font-family="AndaleMono, Andale Mono" font-size="11" font-weight="normal" fill="#000000">
                            <tspan x="11.2354668" y="20.2032967">9</tspan>
                        </text>
                    </g>
                    <path d="M143.048346,26.5 L88.1882952,59.5" id="Line" stroke="#000000" stroke-linecap="square"></path>
                    <path d="M173.969466,23.5 L227.832061,57.5" id="Line" stroke="#000000" stroke-linecap="square"></path>
                    <g id="Tree-Node" transform="translate(140.554707, 0.000000)">
                        <ellipse id="Oval" stroke="#000000" cx="16.997238" cy="17.0535714" rx="16.997238" ry="17.0535714"></ellipse>
                        <text id="5" transform="translate(15.994693, 16.203297) scale(-1, 1) translate(-15.994693, -16.203297) " font-family="AndaleMono, Andale Mono" font-size="11" font-weight="normal" fill="#000000">
                            <tspan x="11.2354668" y="20.2032967">5</tspan>
                        </text>
                    </g>
                    <path d="M84.5,177.5 L98.5,141.5" id="Line" stroke="#000000" stroke-linecap="square"></path>
                    <path d="M107.590854,192.24198 C115.391478,182.608698 120.15621,175.049139 121.88505,169.563305 C123.61389,164.07747 123.61389,156.517912 121.88505,146.884629" id="Path-4" stroke="#CE0202"></path>
                    <path id="Path-4-decoration-1" d="M126.745622,156.984869 L121.88505,146.884629 L120.839972,158.044728" stroke="#CE0202"></path>
                    <path d="M117.806913,104.460893 C117.100272,92.9964624 115.637497,85.2888049 113.418588,81.3379203 C111.19968,77.3870357 105.894312,73.0436535 97.5024842,68.3077738" id="Path-5" stroke="#CE0202"></path>
                    <path id="Path-5-decoration-1" d="M108.382521,71.0031018 L97.5024842,68.3077738 L105.433636,76.2284321" stroke="#CE0202"></path>
                    <path d="M116.654456,70.7828275 C125.660339,68.6965561 133.131513,65.1407397 139.067977,60.1153781 C145.004442,55.0900166 149.309302,48.6771343 151.982557,40.8767312" id="Path-6" stroke="#CE0202"></path>
                    <path id="Path-6-decoration-1" d="M151.319192,52.0660094 L151.982557,40.8767312 L145.643256,50.1208244" stroke="#CE0202"></path>
                </g>
                <text id="difference:--1" font-family="CourierNewPSMT, Courier New" font-size="12" font-weight="normal" fill="#000000">
                    <tspan x="26" y="161">difference: -1</tspan>
                </text>
                <text id="difference:-+1" font-family="CourierNewPSMT, Courier New" font-size="12" font-weight="normal" fill="#000000">
                    <tspan x="222" y="97">difference: +1</tspan>
                </text>
                <text id="difference:--2" font-family="CourierNewPSMT, Courier New" font-size="12" font-weight="normal" fill="#000000">
                    <tspan x="135" y="45">difference: -2</tspan>
                </text>
                <text id="Pop-back-up-and-chec" font-family="HelveticaNeue, Helvetica Neue" font-size="12" font-weight="normal" fill="#000000">
                    <tspan x="66" y="11">Pop back up and check differences</tspan>
                </text>
            </g>
        </g>
    </g>
</svg>