<svg width="718" height="425" viewBox="0 0 718 425" fill="none" xmlns="http://www.w3.org/2000/svg">
<rect x="7" y="221" width="120" height="204" fill="#6FCF97"/>
<rect x="443" y="221" width="120" height="204" fill="#6FCF97"/>
<rect x="563" y="109" width="119" height="316" fill="#6FCF97"/>
<rect x="127" y="358" width="120" height="67" fill="#BDBDBD"/>
<path d="M417.356 300.351C417.55 300.155 417.548 299.838 417.351 299.644L414.15 296.482C413.954 296.287 413.637 296.289 413.443 296.486C413.249 296.682 413.251 296.999 413.447 297.193L416.293 300.004L413.482 302.85C413.287 303.046 413.289 303.363 413.486 303.557C413.682 303.751 413.999 303.749 414.193 303.553L417.356 300.351ZM251.003 301.5L417.003 300.5L416.997 299.5L250.997 300.5L251.003 301.5Z" fill="black"/>
<path d="M59.8008 327.648C61.7305 327.648 63.2852 328.09 64.4648 328.973C65.6445 329.855 66.2344 331.051 66.2344 332.559C66.2344 334.098 65.7461 335.309 64.7695 336.191H70.875V338.359H53.3203V336.379L54.7266 336.273C53.6328 335.391 53.0859 334.164 53.0859 332.594C53.0859 331.07 53.6602 329.867 54.8086 328.984C55.957 328.094 57.5547 327.648 59.6016 327.648H59.8008ZM59.5547 329.816C58.125 329.816 56.9961 330.121 56.168 330.73C55.3398 331.34 54.9258 332.176 54.9258 333.238C54.9258 334.551 55.5078 335.535 56.6719 336.191H62.7305C63.8867 335.543 64.4648 334.551 64.4648 333.215C64.4648 332.176 64.0547 331.352 63.2344 330.742C62.4062 330.125 61.1797 329.816 59.5547 329.816ZM66 322.527V324.695H53.3203V322.527H66ZM49.957 324.871C49.6055 324.871 49.3086 324.766 49.0664 324.555C48.8242 324.336 48.7031 324.016 48.7031 323.594C48.7031 323.172 48.8242 322.852 49.0664 322.633C49.3086 322.414 49.6055 322.305 49.957 322.305C50.3086 322.305 50.6016 322.414 50.8359 322.633C51.0703 322.852 51.1875 323.172 51.1875 323.594C51.1875 324.016 51.0703 324.336 50.8359 324.555C50.6016 324.766 50.3086 324.871 49.957 324.871ZM53.3203 316.996L54.9141 316.926C53.6953 315.957 53.0859 314.691 53.0859 313.129C53.0859 310.449 54.5977 309.098 57.6211 309.074H66V311.242H57.6094C56.6953 311.25 56.0195 311.461 55.582 311.875C55.1445 312.281 54.9258 312.918 54.9258 313.785C54.9258 314.488 55.1133 315.105 55.4883 315.637C55.8633 316.168 56.3555 316.582 56.9648 316.879H66V319.047H53.3203V316.996ZM60.1289 302.266L61.5469 303.625H66V305.793H48V303.625H58.8867L57.4922 302.465L53.3203 298.516V295.879L58.6172 300.812L66 295.305V297.848L60.1289 302.266ZM66 291.285V293.453H53.3203V291.285H66ZM49.957 293.629C49.6055 293.629 49.3086 293.523 49.0664 293.312C48.8242 293.094 48.7031 292.773 48.7031 292.352C48.7031 291.93 48.8242 291.609 49.0664 291.391C49.3086 291.172 49.6055 291.062 49.957 291.062C50.3086 291.062 50.6016 291.172 50.8359 291.391C51.0703 291.609 51.1875 291.93 51.1875 292.352C51.1875 292.773 51.0703 293.094 50.8359 293.312C50.6016 293.523 50.3086 293.629 49.957 293.629ZM66.2344 282.543C66.2344 284.262 65.6719 285.66 64.5469 286.738C63.4141 287.816 61.9023 288.355 60.0117 288.355H59.6133C58.3555 288.355 57.2344 288.117 56.25 287.641C55.2578 287.156 54.4844 286.484 53.9297 285.625C53.3672 284.758 53.0859 283.82 53.0859 282.812C53.0859 281.164 53.6289 279.883 54.7148 278.969C55.8008 278.055 57.3555 277.598 59.3789 277.598H60.2812V286.188C61.5312 286.156 62.543 285.793 63.3164 285.098C64.082 284.395 64.4648 283.504 64.4648 282.426C64.4648 281.66 64.3086 281.012 63.9961 280.48C63.6836 279.949 63.2695 279.484 62.7539 279.086L63.7852 277.762C65.418 278.824 66.2344 280.418 66.2344 282.543ZM54.8672 282.812C54.8672 283.688 55.1875 284.422 55.8281 285.016C56.4609 285.609 57.3516 285.977 58.5 286.117V279.766H58.3359C57.2344 279.828 56.3828 280.125 55.7812 280.656C55.1719 281.188 54.8672 281.906 54.8672 282.812ZM59.0742 269.207C57.3086 269.207 55.6133 268.973 53.9883 268.504C52.3633 268.027 50.8867 267.32 49.5586 266.383C48.2305 265.445 47.293 264.473 46.7461 263.465L48.1758 263.02C49.0508 264.16 50.3867 265.098 52.1836 265.832C53.9805 266.559 55.9922 266.957 58.2188 267.027L59.2148 267.039C62.2305 267.039 64.8477 266.488 67.0664 265.387C68.3945 264.723 69.4336 263.934 70.1836 263.02L71.5078 263.465C70.9297 264.504 69.9609 265.496 68.6016 266.441C65.9453 268.285 62.7695 269.207 59.0742 269.207ZM66 254.02V256.199H51.5508L53.1563 260.57H51.1875L48.8555 254.359V254.02H66ZM59.1914 242.441C60.9336 242.441 62.6055 242.672 64.207 243.133C65.8008 243.586 67.2734 244.285 68.625 245.23C69.9766 246.168 70.9375 247.152 71.5078 248.184L70.1836 248.641C69.2617 247.438 67.832 246.473 65.8945 245.746C63.9492 245.012 61.793 244.637 59.4258 244.621H59.0508C57.4102 244.621 55.8867 244.793 54.4805 245.137C53.0664 245.48 51.8008 245.961 50.6836 246.578C49.5664 247.188 48.6953 247.875 48.0703 248.641L46.7461 248.184C47.3164 247.152 48.2695 246.172 49.6055 245.242C50.9414 244.305 52.4141 243.605 54.0234 243.145C55.6328 242.676 57.3555 242.441 59.1914 242.441Z" fill="black"/>
<path d="M179.266 332.23C179.211 332.559 179.184 332.914 179.184 333.297C179.184 334.719 179.789 335.684 181 336.191H190V338.359H177.32V336.25L178.785 336.215C177.652 335.504 177.086 334.496 177.086 333.191C177.086 332.77 177.141 332.449 177.25 332.23H179.266ZM190 327.871V330.039H177.32V327.871H190ZM173.957 330.215C173.605 330.215 173.309 330.109 173.066 329.898C172.824 329.68 172.703 329.359 172.703 328.938C172.703 328.516 172.824 328.195 173.066 327.977C173.309 327.758 173.605 327.648 173.957 327.648C174.309 327.648 174.602 327.758 174.836 327.977C175.07 328.195 175.188 328.516 175.188 328.938C175.188 329.359 175.07 329.68 174.836 329.898C174.602 330.109 174.309 330.215 173.957 330.215ZM177.32 322.34L178.914 322.27C177.695 321.301 177.086 320.035 177.086 318.473C177.086 315.793 178.598 314.441 181.621 314.418H190V316.586H181.609C180.695 316.594 180.02 316.805 179.582 317.219C179.145 317.625 178.926 318.262 178.926 319.129C178.926 319.832 179.113 320.449 179.488 320.98C179.863 321.512 180.355 321.926 180.965 322.223H190V324.391H177.32V322.34ZM183.555 311.664C181.578 311.664 180.008 311.207 178.844 310.293C177.672 309.379 177.086 308.168 177.086 306.66C177.086 305.113 177.633 303.906 178.727 303.039L177.32 302.934V300.953H189.695C191.336 300.953 192.629 301.441 193.574 302.418C194.52 303.387 194.992 304.691 194.992 306.332C194.992 307.246 194.797 308.141 194.406 309.016C194.016 309.891 193.48 310.559 192.801 311.02L191.5 309.895C192.648 308.965 193.223 307.828 193.223 306.484C193.223 305.43 192.926 304.609 192.332 304.023C191.738 303.43 190.902 303.133 189.824 303.133H188.734C189.734 304 190.234 305.184 190.234 306.684C190.234 308.168 189.637 309.371 188.441 310.293C187.246 311.207 185.617 311.664 183.555 311.664ZM183.801 309.484C185.23 309.484 186.355 309.191 187.176 308.605C187.988 308.02 188.395 307.199 188.395 306.145C188.395 304.777 187.773 303.773 186.531 303.133H180.742C179.531 303.797 178.926 304.793 178.926 306.121C178.926 307.176 179.336 308 180.156 308.594C180.977 309.188 182.191 309.484 183.801 309.484ZM183.074 291.801C181.309 291.801 179.613 291.566 177.988 291.098C176.363 290.621 174.887 289.914 173.559 288.977C172.23 288.039 171.293 287.066 170.746 286.059L172.176 285.613C173.051 286.754 174.387 287.691 176.184 288.426C177.98 289.152 179.992 289.551 182.219 289.621L183.215 289.633C186.23 289.633 188.848 289.082 191.066 287.98C192.395 287.316 193.434 286.527 194.184 285.613L195.508 286.059C194.93 287.098 193.961 288.09 192.602 289.035C189.945 290.879 186.77 291.801 183.074 291.801ZM182.723 273.039C185.262 273.039 187.148 273.473 188.383 274.34C189.617 275.207 190.234 276.562 190.234 278.406C190.234 280.227 189.633 281.574 188.43 282.449C187.219 283.324 185.414 283.777 183.016 283.809H180.121C177.613 283.809 175.75 283.375 174.531 282.508C173.312 281.641 172.703 280.281 172.703 278.43C172.703 276.594 173.293 275.242 174.473 274.375C175.645 273.508 177.457 273.062 179.91 273.039H182.723ZM179.758 275.207C177.922 275.207 176.586 275.465 175.75 275.98C174.906 276.496 174.484 277.312 174.484 278.43C174.484 279.539 174.902 280.348 175.738 280.855C176.574 281.363 177.859 281.625 179.594 281.641H183.062C184.906 281.641 186.27 281.375 187.152 280.844C188.027 280.305 188.465 279.492 188.465 278.406C188.465 277.336 188.051 276.543 187.223 276.027C186.395 275.504 185.09 275.23 183.309 275.207H179.758ZM183.191 265.035C184.934 265.035 186.605 265.266 188.207 265.727C189.801 266.18 191.273 266.879 192.625 267.824C193.977 268.762 194.938 269.746 195.508 270.777L194.184 271.234C193.262 270.031 191.832 269.066 189.895 268.34C187.949 267.605 185.793 267.23 183.426 267.215H183.051C181.41 267.215 179.887 267.387 178.48 267.73C177.066 268.074 175.801 268.555 174.684 269.172C173.566 269.781 172.695 270.469 172.07 271.234L170.746 270.777C171.316 269.746 172.27 268.766 173.605 267.836C174.941 266.898 176.414 266.199 178.023 265.738C179.633 265.27 181.355 265.035 183.191 265.035Z" fill="black"/>
<path d="M495.801 327.648C497.73 327.648 499.285 328.09 500.465 328.973C501.645 329.855 502.234 331.051 502.234 332.559C502.234 334.098 501.746 335.309 500.77 336.191H506.875V338.359H489.32V336.379L490.727 336.273C489.633 335.391 489.086 334.164 489.086 332.594C489.086 331.07 489.66 329.867 490.809 328.984C491.957 328.094 493.555 327.648 495.602 327.648H495.801ZM495.555 329.816C494.125 329.816 492.996 330.121 492.168 330.73C491.34 331.34 490.926 332.176 490.926 333.238C490.926 334.551 491.508 335.535 492.672 336.191H498.73C499.887 335.543 500.465 334.551 500.465 333.215C500.465 332.176 500.055 331.352 499.234 330.742C498.406 330.125 497.18 329.816 495.555 329.816ZM502 322.527V324.695H489.32V322.527H502ZM485.957 324.871C485.605 324.871 485.309 324.766 485.066 324.555C484.824 324.336 484.703 324.016 484.703 323.594C484.703 323.172 484.824 322.852 485.066 322.633C485.309 322.414 485.605 322.305 485.957 322.305C486.309 322.305 486.602 322.414 486.836 322.633C487.07 322.852 487.188 323.172 487.188 323.594C487.188 324.016 487.07 324.336 486.836 324.555C486.602 324.766 486.309 324.871 485.957 324.871ZM489.32 316.996L490.914 316.926C489.695 315.957 489.086 314.691 489.086 313.129C489.086 310.449 490.598 309.098 493.621 309.074H502V311.242H493.609C492.695 311.25 492.02 311.461 491.582 311.875C491.145 312.281 490.926 312.918 490.926 313.785C490.926 314.488 491.113 315.105 491.488 315.637C491.863 316.168 492.355 316.582 492.965 316.879H502V319.047H489.32V316.996ZM496.129 302.266L497.547 303.625H502V305.793H484V303.625H494.887L493.492 302.465L489.32 298.516V295.879L494.617 300.812L502 295.305V297.848L496.129 302.266ZM502 291.285V293.453H489.32V291.285H502ZM485.957 293.629C485.605 293.629 485.309 293.523 485.066 293.312C484.824 293.094 484.703 292.773 484.703 292.352C484.703 291.93 484.824 291.609 485.066 291.391C485.309 291.172 485.605 291.062 485.957 291.062C486.309 291.062 486.602 291.172 486.836 291.391C487.07 291.609 487.188 291.93 487.188 292.352C487.188 292.773 487.07 293.094 486.836 293.312C486.602 293.523 486.309 293.629 485.957 293.629ZM502.234 282.543C502.234 284.262 501.672 285.66 500.547 286.738C499.414 287.816 497.902 288.355 496.012 288.355H495.613C494.355 288.355 493.234 288.117 492.25 287.641C491.258 287.156 490.484 286.484 489.93 285.625C489.367 284.758 489.086 283.82 489.086 282.812C489.086 281.164 489.629 279.883 490.715 278.969C491.801 278.055 493.355 277.598 495.379 277.598H496.281V286.188C497.531 286.156 498.543 285.793 499.316 285.098C500.082 284.395 500.465 283.504 500.465 282.426C500.465 281.66 500.309 281.012 499.996 280.48C499.684 279.949 499.27 279.484 498.754 279.086L499.785 277.762C501.418 278.824 502.234 280.418 502.234 282.543ZM490.867 282.812C490.867 283.688 491.188 284.422 491.828 285.016C492.461 285.609 493.352 285.977 494.5 286.117V279.766H494.336C493.234 279.828 492.383 280.125 491.781 280.656C491.172 281.188 490.867 281.906 490.867 282.812ZM495.074 269.207C493.309 269.207 491.613 268.973 489.988 268.504C488.363 268.027 486.887 267.32 485.559 266.383C484.23 265.445 483.293 264.473 482.746 263.465L484.176 263.02C485.051 264.16 486.387 265.098 488.184 265.832C489.98 266.559 491.992 266.957 494.219 267.027L495.215 267.039C498.23 267.039 500.848 266.488 503.066 265.387C504.395 264.723 505.434 263.934 506.184 263.02L507.508 263.465C506.93 264.504 505.961 265.496 504.602 266.441C501.945 268.285 498.77 269.207 495.074 269.207ZM502 254.02V256.199H487.551L489.156 260.57H487.188L484.855 254.359V254.02H502ZM495.191 242.441C496.934 242.441 498.605 242.672 500.207 243.133C501.801 243.586 503.273 244.285 504.625 245.23C505.977 246.168 506.938 247.152 507.508 248.184L506.184 248.641C505.262 247.438 503.832 246.473 501.895 245.746C499.949 245.012 497.793 244.637 495.426 244.621H495.051C493.41 244.621 491.887 244.793 490.48 245.137C489.066 245.48 487.801 245.961 486.684 246.578C485.566 247.188 484.695 247.875 484.07 248.641L482.746 248.184C483.316 247.152 484.27 246.172 485.605 245.242C486.941 244.305 488.414 243.605 490.023 243.145C491.633 242.676 493.355 242.441 495.191 242.441Z" fill="black"/>
<path d="M631.266 332.23C631.211 332.559 631.184 332.914 631.184 333.297C631.184 334.719 631.789 335.684 633 336.191H642V338.359H629.32V336.25L630.785 336.215C629.652 335.504 629.086 334.496 629.086 333.191C629.086 332.77 629.141 332.449 629.25 332.23H631.266ZM642 327.871V330.039H629.32V327.871H642ZM625.957 330.215C625.605 330.215 625.309 330.109 625.066 329.898C624.824 329.68 624.703 329.359 624.703 328.938C624.703 328.516 624.824 328.195 625.066 327.977C625.309 327.758 625.605 327.648 625.957 327.648C626.309 327.648 626.602 327.758 626.836 327.977C627.07 328.195 627.188 328.516 627.188 328.938C627.188 329.359 627.07 329.68 626.836 329.898C626.602 330.109 626.309 330.215 625.957 330.215ZM629.32 322.34L630.914 322.27C629.695 321.301 629.086 320.035 629.086 318.473C629.086 315.793 630.598 314.441 633.621 314.418H642V316.586H633.609C632.695 316.594 632.02 316.805 631.582 317.219C631.145 317.625 630.926 318.262 630.926 319.129C630.926 319.832 631.113 320.449 631.488 320.98C631.863 321.512 632.355 321.926 632.965 322.223H642V324.391H629.32V322.34ZM635.555 311.664C633.578 311.664 632.008 311.207 630.844 310.293C629.672 309.379 629.086 308.168 629.086 306.66C629.086 305.113 629.633 303.906 630.727 303.039L629.32 302.934V300.953H641.695C643.336 300.953 644.629 301.441 645.574 302.418C646.52 303.387 646.992 304.691 646.992 306.332C646.992 307.246 646.797 308.141 646.406 309.016C646.016 309.891 645.48 310.559 644.801 311.02L643.5 309.895C644.648 308.965 645.223 307.828 645.223 306.484C645.223 305.43 644.926 304.609 644.332 304.023C643.738 303.43 642.902 303.133 641.824 303.133H640.734C641.734 304 642.234 305.184 642.234 306.684C642.234 308.168 641.637 309.371 640.441 310.293C639.246 311.207 637.617 311.664 635.555 311.664ZM635.801 309.484C637.23 309.484 638.355 309.191 639.176 308.605C639.988 308.02 640.395 307.199 640.395 306.145C640.395 304.777 639.773 303.773 638.531 303.133H632.742C631.531 303.797 630.926 304.793 630.926 306.121C630.926 307.176 631.336 308 632.156 308.594C632.977 309.188 634.191 309.484 635.801 309.484ZM635.074 291.801C633.309 291.801 631.613 291.566 629.988 291.098C628.363 290.621 626.887 289.914 625.559 288.977C624.23 288.039 623.293 287.066 622.746 286.059L624.176 285.613C625.051 286.754 626.387 287.691 628.184 288.426C629.98 289.152 631.992 289.551 634.219 289.621L635.215 289.633C638.23 289.633 640.848 289.082 643.066 287.98C644.395 287.316 645.434 286.527 646.184 285.613L647.508 286.059C646.93 287.098 645.961 288.09 644.602 289.035C641.945 290.879 638.77 291.801 635.074 291.801ZM642 276.613V278.793H627.551L629.156 283.164H627.188L624.855 276.953V276.613H642ZM635.191 265.035C636.934 265.035 638.605 265.266 640.207 265.727C641.801 266.18 643.273 266.879 644.625 267.824C645.977 268.762 646.938 269.746 647.508 270.777L646.184 271.234C645.262 270.031 643.832 269.066 641.895 268.34C639.949 267.605 637.793 267.23 635.426 267.215H635.051C633.41 267.215 631.887 267.387 630.48 267.73C629.066 268.074 627.801 268.555 626.684 269.172C625.566 269.781 624.695 270.469 624.07 271.234L622.746 270.777C623.316 269.746 624.27 268.766 625.605 267.836C626.941 266.898 628.414 266.199 630.023 265.738C631.633 265.27 633.355 265.035 635.191 265.035Z" fill="black"/>
<path d="M8.23828 15.0977H4.23047V22H1.96875V4.9375H7.61719C9.53906 4.9375 11.0156 5.375 12.0469 6.25C13.0859 7.125 13.6055 8.39844 13.6055 10.0703C13.6055 11.1328 13.3164 12.0586 12.7383 12.8477C12.168 13.6367 11.3711 14.2266 10.3477 14.6172L14.3555 21.8594V22H11.9414L8.23828 15.0977ZM4.23047 13.2578H7.6875C8.80469 13.2578 9.69141 12.9688 10.3477 12.3906C11.0117 11.8125 11.3438 11.0391 11.3438 10.0703C11.3438 9.01562 11.0273 8.20703 10.3945 7.64453C9.76953 7.08203 8.86328 6.79688 7.67578 6.78906H4.23047V13.2578ZM21.6914 22.2344C19.9727 22.2344 18.5742 21.6719 17.4961 20.5469C16.418 19.4141 15.8789 17.9023 15.8789 16.0117V15.6133C15.8789 14.3555 16.1172 13.2344 16.5938 12.25C17.0781 11.2578 17.75 10.4844 18.6094 9.92969C19.4766 9.36719 20.4141 9.08594 21.4219 9.08594C23.0703 9.08594 24.3516 9.62891 25.2656 10.7148C26.1797 11.8008 26.6367 13.3555 26.6367 15.3789V16.2812H18.0469C18.0781 17.5312 18.4414 18.543 19.1367 19.3164C19.8398 20.082 20.7305 20.4648 21.8086 20.4648C22.5742 20.4648 23.2227 20.3086 23.7539 19.9961C24.2852 19.6836 24.75 19.2695 25.1484 18.7539L26.4727 19.7852C25.4102 21.418 23.8164 22.2344 21.6914 22.2344ZM21.4219 10.8672C20.5469 10.8672 19.8125 11.1875 19.2188 11.8281C18.625 12.4609 18.2578 13.3516 18.1172 14.5H24.4688V14.3359C24.4062 13.2344 24.1094 12.3828 23.5781 11.7812C23.0469 11.1719 22.3281 10.8672 21.4219 10.8672ZM39.8672 15.8008C39.8672 17.7305 39.4258 19.2852 38.543 20.4648C37.6602 21.6445 36.4648 22.2344 34.957 22.2344C33.418 22.2344 32.207 21.7461 31.3242 20.7695V26.875H29.1562V9.32031H31.1367L31.2422 10.7266C32.125 9.63281 33.3516 9.08594 34.9219 9.08594C36.4453 9.08594 37.6484 9.66016 38.5312 10.8086C39.4219 11.957 39.8672 13.5547 39.8672 15.6016V15.8008ZM37.6992 15.5547C37.6992 14.125 37.3945 12.9961 36.7852 12.168C36.1758 11.3398 35.3398 10.9258 34.2773 10.9258C32.9648 10.9258 31.9805 11.5078 31.3242 12.6719V18.7305C31.9727 19.8867 32.9648 20.4648 34.3008 20.4648C35.3398 20.4648 36.1641 20.0547 36.7734 19.2344C37.3906 18.4062 37.6992 17.1797 37.6992 15.5547ZM48.7617 11.2656C48.4336 11.2109 48.0781 11.1836 47.6953 11.1836C46.2734 11.1836 45.3086 11.7891 44.8008 13V22H42.6328V9.32031H44.7422L44.7773 10.7852C45.4883 9.65234 46.4961 9.08594 47.8008 9.08594C48.2227 9.08594 48.543 9.14062 48.7617 9.25V11.2656ZM55.793 22.2344C54.0742 22.2344 52.6758 21.6719 51.5977 20.5469C50.5195 19.4141 49.9805 17.9023 49.9805 16.0117V15.6133C49.9805 14.3555 50.2188 13.2344 50.6953 12.25C51.1797 11.2578 51.8516 10.4844 52.7109 9.92969C53.5781 9.36719 54.5156 9.08594 55.5234 9.08594C57.1719 9.08594 58.4531 9.62891 59.3672 10.7148C60.2812 11.8008 60.7383 13.3555 60.7383 15.3789V16.2812H52.1484C52.1797 17.5312 52.543 18.543 53.2383 19.3164C53.9414 20.082 54.832 20.4648 55.9102 20.4648C56.6758 20.4648 57.3242 20.3086 57.8555 19.9961C58.3867 19.6836 58.8516 19.2695 59.25 18.7539L60.5742 19.7852C59.5117 21.418 57.918 22.2344 55.793 22.2344ZM55.5234 10.8672C54.6484 10.8672 53.9141 11.1875 53.3203 11.8281C52.7266 12.4609 52.3594 13.3516 52.2188 14.5H58.5703V14.3359C58.5078 13.2344 58.2109 12.3828 57.6797 11.7812C57.1484 11.1719 56.4297 10.8672 55.5234 10.8672ZM70.6406 18.6367C70.6406 18.0508 70.418 17.5977 69.9727 17.2773C69.5352 16.9492 68.7656 16.668 67.6641 16.4336C66.5703 16.1992 65.6992 15.918 65.0508 15.5898C64.4102 15.2617 63.9336 14.8711 63.6211 14.418C63.3164 13.9648 63.1641 13.4258 63.1641 12.8008C63.1641 11.7617 63.6016 10.8828 64.4766 10.1641C65.3594 9.44531 66.4844 9.08594 67.8516 9.08594C69.2891 9.08594 70.4531 9.45703 71.3438 10.1992C72.2422 10.9414 72.6914 11.8906 72.6914 13.0469H70.5117C70.5117 12.4531 70.2578 11.9414 69.75 11.5117C69.25 11.082 68.6172 10.8672 67.8516 10.8672C67.0625 10.8672 66.4453 11.0391 66 11.3828C65.5547 11.7266 65.332 12.1758 65.332 12.7305C65.332 13.2539 65.5391 13.6484 65.9531 13.9141C66.3672 14.1797 67.1133 14.4336 68.1914 14.6758C69.2773 14.918 70.1562 15.207 70.8281 15.543C71.5 15.8789 71.9961 16.2852 72.3164 16.7617C72.6445 17.2305 72.8086 17.8047 72.8086 18.4844C72.8086 19.6172 72.3555 20.5273 71.4492 21.2148C70.543 21.8945 69.3672 22.2344 67.9219 22.2344C66.9062 22.2344 66.0078 22.0547 65.2266 21.6953C64.4453 21.3359 63.832 20.8359 63.3867 20.1953C62.9492 19.5469 62.7305 18.8477 62.7305 18.0977H64.8984C64.9375 18.8242 65.2266 19.4023 65.7656 19.832C66.3125 20.2539 67.0312 20.4648 67.9219 20.4648C68.7422 20.4648 69.3984 20.3008 69.8906 19.9727C70.3906 19.6367 70.6406 19.1914 70.6406 18.6367ZM80.8945 22.2344C79.1758 22.2344 77.7773 21.6719 76.6992 20.5469C75.6211 19.4141 75.082 17.9023 75.082 16.0117V15.6133C75.082 14.3555 75.3203 13.2344 75.7969 12.25C76.2812 11.2578 76.9531 10.4844 77.8125 9.92969C78.6797 9.36719 79.6172 9.08594 80.625 9.08594C82.2734 9.08594 83.5547 9.62891 84.4688 10.7148C85.3828 11.8008 85.8398 13.3555 85.8398 15.3789V16.2812H77.25C77.2812 17.5312 77.6445 18.543 78.3398 19.3164C79.043 20.082 79.9336 20.4648 81.0117 20.4648C81.7773 20.4648 82.4258 20.3086 82.957 19.9961C83.4883 19.6836 83.9531 19.2695 84.3516 18.7539L85.6758 19.7852C84.6133 21.418 83.0195 22.2344 80.8945 22.2344ZM80.625 10.8672C79.75 10.8672 79.0156 11.1875 78.4219 11.8281C77.8281 12.4609 77.4609 13.3516 77.3203 14.5H83.6719V14.3359C83.6094 13.2344 83.3125 12.3828 82.7812 11.7812C82.25 11.1719 81.5312 10.8672 80.625 10.8672ZM90.4102 9.32031L90.4805 10.9141C91.4492 9.69531 92.7148 9.08594 94.2773 9.08594C96.957 9.08594 98.3086 10.5977 98.332 13.6211V22H96.1641V13.6094C96.1562 12.6953 95.9453 12.0195 95.5312 11.582C95.125 11.1445 94.4883 10.9258 93.6211 10.9258C92.918 10.9258 92.3008 11.1133 91.7695 11.4883C91.2383 11.8633 90.8242 12.3555 90.5273 12.9648V22H88.3594V9.32031H90.4102ZM104.543 6.25V9.32031H106.91V10.9961H104.543V18.8594C104.543 19.3672 104.648 19.75 104.859 20.0078C105.07 20.2578 105.43 20.3828 105.938 20.3828C106.188 20.3828 106.531 20.3359 106.969 20.2422V22C106.398 22.1562 105.844 22.2344 105.305 22.2344C104.336 22.2344 103.605 21.9414 103.113 21.3555C102.621 20.7695 102.375 19.9375 102.375 18.8594V10.9961H100.066V9.32031H102.375V6.25H104.543ZM116.836 18.6367C116.836 18.0508 116.613 17.5977 116.168 17.2773C115.73 16.9492 114.961 16.668 113.859 16.4336C112.766 16.1992 111.895 15.918 111.246 15.5898C110.605 15.2617 110.129 14.8711 109.816 14.418C109.512 13.9648 109.359 13.4258 109.359 12.8008C109.359 11.7617 109.797 10.8828 110.672 10.1641C111.555 9.44531 112.68 9.08594 114.047 9.08594C115.484 9.08594 116.648 9.45703 117.539 10.1992C118.438 10.9414 118.887 11.8906 118.887 13.0469H116.707C116.707 12.4531 116.453 11.9414 115.945 11.5117C115.445 11.082 114.812 10.8672 114.047 10.8672C113.258 10.8672 112.641 11.0391 112.195 11.3828C111.75 11.7266 111.527 12.1758 111.527 12.7305C111.527 13.2539 111.734 13.6484 112.148 13.9141C112.562 14.1797 113.309 14.4336 114.387 14.6758C115.473 14.918 116.352 15.207 117.023 15.543C117.695 15.8789 118.191 16.2852 118.512 16.7617C118.84 17.2305 119.004 17.8047 119.004 18.4844C119.004 19.6172 118.551 20.5273 117.645 21.2148C116.738 21.8945 115.562 22.2344 114.117 22.2344C113.102 22.2344 112.203 22.0547 111.422 21.6953C110.641 21.3359 110.027 20.8359 109.582 20.1953C109.145 19.5469 108.926 18.8477 108.926 18.0977H111.094C111.133 18.8242 111.422 19.4023 111.961 19.832C112.508 20.2539 113.227 20.4648 114.117 20.4648C114.938 20.4648 115.594 20.3008 116.086 19.9727C116.586 19.6367 116.836 19.1914 116.836 18.6367ZM138.738 22H127.559V20.4414L133.465 13.8789C134.34 12.8867 134.941 12.082 135.27 11.4648C135.605 10.8398 135.773 10.1953 135.773 9.53125C135.773 8.64062 135.504 7.91016 134.965 7.33984C134.426 6.76953 133.707 6.48438 132.809 6.48438C131.73 6.48438 130.891 6.79297 130.289 7.41016C129.695 8.01953 129.398 8.87109 129.398 9.96484H127.23C127.23 8.39453 127.734 7.125 128.742 6.15625C129.758 5.1875 131.113 4.70312 132.809 4.70312C134.395 4.70312 135.648 5.12109 136.57 5.95703C137.492 6.78516 137.953 7.89062 137.953 9.27344C137.953 10.9531 136.883 12.9531 134.742 15.2734L130.172 20.2305H138.738V22Z" fill="black"/>
<path d="M554.238 15.0977H550.23V22H547.969V4.9375H553.617C555.539 4.9375 557.016 5.375 558.047 6.25C559.086 7.125 559.605 8.39844 559.605 10.0703C559.605 11.1328 559.316 12.0586 558.738 12.8477C558.168 13.6367 557.371 14.2266 556.348 14.6172L560.355 21.8594V22H557.941L554.238 15.0977ZM550.23 13.2578H553.688C554.805 13.2578 555.691 12.9688 556.348 12.3906C557.012 11.8125 557.344 11.0391 557.344 10.0703C557.344 9.01562 557.027 8.20703 556.395 7.64453C555.77 7.08203 554.863 6.79688 553.676 6.78906H550.23V13.2578ZM567.691 22.2344C565.973 22.2344 564.574 21.6719 563.496 20.5469C562.418 19.4141 561.879 17.9023 561.879 16.0117V15.6133C561.879 14.3555 562.117 13.2344 562.594 12.25C563.078 11.2578 563.75 10.4844 564.609 9.92969C565.477 9.36719 566.414 9.08594 567.422 9.08594C569.07 9.08594 570.352 9.62891 571.266 10.7148C572.18 11.8008 572.637 13.3555 572.637 15.3789V16.2812H564.047C564.078 17.5312 564.441 18.543 565.137 19.3164C565.84 20.082 566.73 20.4648 567.809 20.4648C568.574 20.4648 569.223 20.3086 569.754 19.9961C570.285 19.6836 570.75 19.2695 571.148 18.7539L572.473 19.7852C571.41 21.418 569.816 22.2344 567.691 22.2344ZM567.422 10.8672C566.547 10.8672 565.812 11.1875 565.219 11.8281C564.625 12.4609 564.258 13.3516 564.117 14.5H570.469V14.3359C570.406 13.2344 570.109 12.3828 569.578 11.7812C569.047 11.1719 568.328 10.8672 567.422 10.8672ZM585.867 15.8008C585.867 17.7305 585.426 19.2852 584.543 20.4648C583.66 21.6445 582.465 22.2344 580.957 22.2344C579.418 22.2344 578.207 21.7461 577.324 20.7695V26.875H575.156V9.32031H577.137L577.242 10.7266C578.125 9.63281 579.352 9.08594 580.922 9.08594C582.445 9.08594 583.648 9.66016 584.531 10.8086C585.422 11.957 585.867 13.5547 585.867 15.6016V15.8008ZM583.699 15.5547C583.699 14.125 583.395 12.9961 582.785 12.168C582.176 11.3398 581.34 10.9258 580.277 10.9258C578.965 10.9258 577.98 11.5078 577.324 12.6719V18.7305C577.973 19.8867 578.965 20.4648 580.301 20.4648C581.34 20.4648 582.164 20.0547 582.773 19.2344C583.391 18.4062 583.699 17.1797 583.699 15.5547ZM594.762 11.2656C594.434 11.2109 594.078 11.1836 593.695 11.1836C592.273 11.1836 591.309 11.7891 590.801 13V22H588.633V9.32031H590.742L590.777 10.7852C591.488 9.65234 592.496 9.08594 593.801 9.08594C594.223 9.08594 594.543 9.14062 594.762 9.25V11.2656ZM601.793 22.2344C600.074 22.2344 598.676 21.6719 597.598 20.5469C596.52 19.4141 595.98 17.9023 595.98 16.0117V15.6133C595.98 14.3555 596.219 13.2344 596.695 12.25C597.18 11.2578 597.852 10.4844 598.711 9.92969C599.578 9.36719 600.516 9.08594 601.523 9.08594C603.172 9.08594 604.453 9.62891 605.367 10.7148C606.281 11.8008 606.738 13.3555 606.738 15.3789V16.2812H598.148C598.18 17.5312 598.543 18.543 599.238 19.3164C599.941 20.082 600.832 20.4648 601.91 20.4648C602.676 20.4648 603.324 20.3086 603.855 19.9961C604.387 19.6836 604.852 19.2695 605.25 18.7539L606.574 19.7852C605.512 21.418 603.918 22.2344 601.793 22.2344ZM601.523 10.8672C600.648 10.8672 599.914 11.1875 599.32 11.8281C598.727 12.4609 598.359 13.3516 598.219 14.5H604.57V14.3359C604.508 13.2344 604.211 12.3828 603.68 11.7812C603.148 11.1719 602.43 10.8672 601.523 10.8672ZM616.641 18.6367C616.641 18.0508 616.418 17.5977 615.973 17.2773C615.535 16.9492 614.766 16.668 613.664 16.4336C612.57 16.1992 611.699 15.918 611.051 15.5898C610.41 15.2617 609.934 14.8711 609.621 14.418C609.316 13.9648 609.164 13.4258 609.164 12.8008C609.164 11.7617 609.602 10.8828 610.477 10.1641C611.359 9.44531 612.484 9.08594 613.852 9.08594C615.289 9.08594 616.453 9.45703 617.344 10.1992C618.242 10.9414 618.691 11.8906 618.691 13.0469H616.512C616.512 12.4531 616.258 11.9414 615.75 11.5117C615.25 11.082 614.617 10.8672 613.852 10.8672C613.062 10.8672 612.445 11.0391 612 11.3828C611.555 11.7266 611.332 12.1758 611.332 12.7305C611.332 13.2539 611.539 13.6484 611.953 13.9141C612.367 14.1797 613.113 14.4336 614.191 14.6758C615.277 14.918 616.156 15.207 616.828 15.543C617.5 15.8789 617.996 16.2852 618.316 16.7617C618.645 17.2305 618.809 17.8047 618.809 18.4844C618.809 19.6172 618.355 20.5273 617.449 21.2148C616.543 21.8945 615.367 22.2344 613.922 22.2344C612.906 22.2344 612.008 22.0547 611.227 21.6953C610.445 21.3359 609.832 20.8359 609.387 20.1953C608.949 19.5469 608.73 18.8477 608.73 18.0977H610.898C610.938 18.8242 611.227 19.4023 611.766 19.832C612.312 20.2539 613.031 20.4648 613.922 20.4648C614.742 20.4648 615.398 20.3008 615.891 19.9727C616.391 19.6367 616.641 19.1914 616.641 18.6367ZM626.895 22.2344C625.176 22.2344 623.777 21.6719 622.699 20.5469C621.621 19.4141 621.082 17.9023 621.082 16.0117V15.6133C621.082 14.3555 621.32 13.2344 621.797 12.25C622.281 11.2578 622.953 10.4844 623.812 9.92969C624.68 9.36719 625.617 9.08594 626.625 9.08594C628.273 9.08594 629.555 9.62891 630.469 10.7148C631.383 11.8008 631.84 13.3555 631.84 15.3789V16.2812H623.25C623.281 17.5312 623.645 18.543 624.34 19.3164C625.043 20.082 625.934 20.4648 627.012 20.4648C627.777 20.4648 628.426 20.3086 628.957 19.9961C629.488 19.6836 629.953 19.2695 630.352 18.7539L631.676 19.7852C630.613 21.418 629.02 22.2344 626.895 22.2344ZM626.625 10.8672C625.75 10.8672 625.016 11.1875 624.422 11.8281C623.828 12.4609 623.461 13.3516 623.32 14.5H629.672V14.3359C629.609 13.2344 629.312 12.3828 628.781 11.7812C628.25 11.1719 627.531 10.8672 626.625 10.8672ZM636.41 9.32031L636.48 10.9141C637.449 9.69531 638.715 9.08594 640.277 9.08594C642.957 9.08594 644.309 10.5977 644.332 13.6211V22H642.164V13.6094C642.156 12.6953 641.945 12.0195 641.531 11.582C641.125 11.1445 640.488 10.9258 639.621 10.9258C638.918 10.9258 638.301 11.1133 637.77 11.4883C637.238 11.8633 636.824 12.3555 636.527 12.9648V22H634.359V9.32031H636.41ZM650.543 6.25V9.32031H652.91V10.9961H650.543V18.8594C650.543 19.3672 650.648 19.75 650.859 20.0078C651.07 20.2578 651.43 20.3828 651.938 20.3828C652.188 20.3828 652.531 20.3359 652.969 20.2422V22C652.398 22.1562 651.844 22.2344 651.305 22.2344C650.336 22.2344 649.605 21.9414 649.113 21.3555C648.621 20.7695 648.375 19.9375 648.375 18.8594V10.9961H646.066V9.32031H648.375V6.25H650.543ZM662.836 18.6367C662.836 18.0508 662.613 17.5977 662.168 17.2773C661.73 16.9492 660.961 16.668 659.859 16.4336C658.766 16.1992 657.895 15.918 657.246 15.5898C656.605 15.2617 656.129 14.8711 655.816 14.418C655.512 13.9648 655.359 13.4258 655.359 12.8008C655.359 11.7617 655.797 10.8828 656.672 10.1641C657.555 9.44531 658.68 9.08594 660.047 9.08594C661.484 9.08594 662.648 9.45703 663.539 10.1992C664.438 10.9414 664.887 11.8906 664.887 13.0469H662.707C662.707 12.4531 662.453 11.9414 661.945 11.5117C661.445 11.082 660.812 10.8672 660.047 10.8672C659.258 10.8672 658.641 11.0391 658.195 11.3828C657.75 11.7266 657.527 12.1758 657.527 12.7305C657.527 13.2539 657.734 13.6484 658.148 13.9141C658.562 14.1797 659.309 14.4336 660.387 14.6758C661.473 14.918 662.352 15.207 663.023 15.543C663.695 15.8789 664.191 16.2852 664.512 16.7617C664.84 17.2305 665.004 17.8047 665.004 18.4844C665.004 19.6172 664.551 20.5273 663.645 21.2148C662.738 21.8945 661.562 22.2344 660.117 22.2344C659.102 22.2344 658.203 22.0547 657.422 21.6953C656.641 21.3359 656.027 20.8359 655.582 20.1953C655.145 19.5469 654.926 18.8477 654.926 18.0977H657.094C657.133 18.8242 657.422 19.4023 657.961 19.832C658.508 20.2539 659.227 20.4648 660.117 20.4648C660.938 20.4648 661.594 20.3008 662.086 19.9727C662.586 19.6367 662.836 19.1914 662.836 18.6367ZM676.711 12.4141H678.34C679.363 12.3984 680.168 12.1289 680.754 11.6055C681.34 11.082 681.633 10.375 681.633 9.48438C681.633 7.48437 680.637 6.48438 678.645 6.48438C677.707 6.48438 676.957 6.75391 676.395 7.29297C675.84 7.82422 675.562 8.53125 675.562 9.41406H673.395C673.395 8.0625 673.887 6.94141 674.871 6.05078C675.863 5.15234 677.121 4.70312 678.645 4.70312C680.254 4.70312 681.516 5.12891 682.43 5.98047C683.344 6.83203 683.801 8.01562 683.801 9.53125C683.801 10.2734 683.559 10.9922 683.074 11.6875C682.598 12.3828 681.945 12.9023 681.117 13.2461C682.055 13.543 682.777 14.0352 683.285 14.7227C683.801 15.4102 684.059 16.25 684.059 17.2422C684.059 18.7734 683.559 19.9883 682.559 20.8867C681.559 21.7852 680.258 22.2344 678.656 22.2344C677.055 22.2344 675.75 21.8008 674.742 20.9336C673.742 20.0664 673.242 18.9219 673.242 17.5H675.422C675.422 18.3984 675.715 19.1172 676.301 19.6562C676.887 20.1953 677.672 20.4648 678.656 20.4648C679.703 20.4648 680.504 20.1914 681.059 19.6445C681.613 19.0977 681.891 18.3125 681.891 17.2891C681.891 16.2969 681.586 15.5352 680.977 15.0039C680.367 14.4727 679.488 14.1992 678.34 14.1836H676.711V12.4141Z" fill="black"/>
</svg>
