<svg width="1032" height="1080" viewBox="0 0 1032 1080" version="1.1" xmlns="http://www.w3.org/2000/svg" xmlns:xlink="http://www.w3.org/1999/xlink" xmlns:figma="http://www.figma.com/figma/ns">
<title>binary_fingers_middle</title>
<desc>Created using Figma</desc>
<g id="Canvas" transform="translate(1667 427)" figma:type="canvas">
<g id="Group" figma:type="frame">
<g id="Rectangle" figma:type="rounded-rectangle">
<use xlink:href="#path0_fill" transform="translate(-1567 353)" fill="#6FCF97"/>
</g>
</g>
<g id="Group" figma:type="frame">
<g id="Rectangle" figma:type="rounded-rectangle">
<use xlink:href="#path1_fill" transform="translate(-1467 603)" fill="#BDBDBD"/>
</g>
</g>
<g id="ring(1)" figma:type="text">
<use xlink:href="#path2_fill" transform="matrix(6.12323e-17 -1 1 6.12323e-17 -1530 582)"/>
</g>
<g id="middle(0)" figma:type="text">
<use xlink:href="#path3_fill" transform="matrix(6.12323e-17 -1 1 6.12323e-17 -1431 582)"/>
</g>
<g id="Group" figma:type="frame">
<g id="Rectangle" figma:type="rounded-rectangle">
<use xlink:href="#path4_fill" transform="translate(-934 447)" fill="#6FCF97"/>
</g>
</g>
<g id="Group" figma:type="frame">
<g id="Rectangle" figma:type="rounded-rectangle">
<use xlink:href="#path0_fill" transform="translate(-835 345)" fill="#6FCF97"/>
</g>
</g>
<g id="Group" figma:type="frame">
<g id="Rectangle" figma:type="rounded-rectangle">
<use xlink:href="#path5_fill" transform="translate(-735 245)" fill="#6FCF97"/>
</g>
</g>
<g id="pinkie(1)" figma:type="text">
<use xlink:href="#path6_fill" transform="matrix(6.12323e-17 -1 1 6.12323e-17 -899 576)"/>
</g>
<g id="Group" figma:type="frame">
<g id="Rectangle" figma:type="rounded-rectangle">
<use xlink:href="#path4_fill" transform="translate(-934 447)" fill="#6FCF97"/>
</g>
</g>
<g id="pinkie(1)" figma:type="text">
<use xlink:href="#path6_fill" transform="matrix(6.12323e-17 -1 1 6.12323e-17 -899 576)"/>
</g>
<g id="Group" figma:type="frame">
<g id="Rectangle" figma:type="rounded-rectangle">
<use xlink:href="#path4_fill" transform="translate(-1667 451)" fill="#6FCF97"/>
</g>
</g>
<g id="pinkie(1)" figma:type="text">
<use xlink:href="#path6_fill" transform="matrix(6.12323e-17 -1 1 6.12323e-17 -1632 580)"/>
</g>
<g id="Group" figma:type="frame">
<g id="Rectangle" figma:type="rounded-rectangle">
<use xlink:href="#path4_fill" transform="translate(-1667 453)" fill="#6FCF97"/>
</g>
</g>
<g id="pinkie(1)" figma:type="text">
<use xlink:href="#path6_fill" transform="matrix(6.12323e-17 -1 1 6.12323e-17 -1632 580)"/>
</g>
<g id="ring(1)" figma:type="text">
<use xlink:href="#path2_fill" transform="matrix(6.12323e-17 -1 1 6.12323e-17 -799 574)"/>
</g>
<g id="middle(1)" figma:type="text">
<use xlink:href="#path7_fill" transform="matrix(6.12323e-17 -1 1 6.12323e-17 -699 574)"/>
</g>
<g id="Arrow" figma:type="vector">
<use xlink:href="#path8_stroke" transform="translate(-1230 529)"/>
</g>
<g id="Represents 6" figma:type="text">
<use xlink:href="#path9_fill" transform="translate(-1586 178)"/>
</g>
<g id="Group" figma:type="frame">
<g id="Rectangle" figma:type="rounded-rectangle">
<use xlink:href="#path1_fill" transform="translate(-835 -6)" fill="#BDBDBD"/>
</g>
</g>
<g id="Group" figma:type="frame">
<g id="Rectangle" figma:type="rounded-rectangle">
<use xlink:href="#path5_fill" transform="translate(-735 -356)" fill="#6FCF97"/>
</g>
</g>
<g id="ring(0)" figma:type="text">
<use xlink:href="#path10_fill" transform="matrix(6.12323e-17 -1 1 6.12323e-17 -798 -27)"/>
</g>
<g id="middle(1)" figma:type="text">
<use xlink:href="#path7_fill" transform="matrix(6.12323e-17 -1 1 6.12323e-17 -699 -27)"/>
</g>
<g id="Group" figma:type="frame">
<g id="Rectangle" figma:type="rounded-rectangle">
<use xlink:href="#path4_fill" transform="translate(-935 -158)" fill="#6FCF97"/>
</g>
</g>
<g id="pinkie(1)" figma:type="text">
<use xlink:href="#path6_fill" transform="matrix(6.12323e-17 -1 1 6.12323e-17 -900 -29)"/>
</g>
<g id="Group" figma:type="frame">
<g id="Rectangle" figma:type="rounded-rectangle">
<use xlink:href="#path4_fill" transform="translate(-935 -156)" fill="#6FCF97"/>
</g>
</g>
<g id="pinkie(1)" figma:type="text">
<use xlink:href="#path6_fill" transform="matrix(6.12323e-17 -1 1 6.12323e-17 -900 -29)"/>
</g>
<g id="Represents 5" figma:type="text">
<use xlink:href="#path11_fill" transform="translate(-854 -431)"/>
</g>
<g id="Group" figma:type="frame">
<g id="Rectangle" figma:type="rounded-rectangle">
<use xlink:href="#path1_fill" transform="translate(-1501 -6)" fill="#BDBDBD"/>
</g>
</g>
<g id="Group" figma:type="frame">
<g id="Rectangle" figma:type="rounded-rectangle">
<use xlink:href="#path1_fill" transform="translate(-1401 -6)" fill="#BDBDBD"/>
</g>
</g>
<g id="ring(0)" figma:type="text">
<use xlink:href="#path10_fill" transform="matrix(6.12323e-17 -1 1 6.12323e-17 -1464 -27)"/>
</g>
<g id="middle(0)" figma:type="text">
<use xlink:href="#path3_fill" transform="matrix(6.12323e-17 -1 1 6.12323e-17 -1365 -27)"/>
</g>
<g id="Group" figma:type="frame">
<g id="Rectangle" figma:type="rounded-rectangle">
<use xlink:href="#path4_fill" transform="translate(-1601 -158)" fill="#6FCF97"/>
</g>
</g>
<g id="pinkie(1)" figma:type="text">
<use xlink:href="#path6_fill" transform="matrix(6.12323e-17 -1 1 6.12323e-17 -1566 -29)"/>
</g>
<g id="Group" figma:type="frame">
<g id="Rectangle" figma:type="rounded-rectangle">
<use xlink:href="#path4_fill" transform="translate(-1601 -156)" fill="#6FCF97"/>
</g>
</g>
<g id="pinkie(1)" figma:type="text">
<use xlink:href="#path6_fill" transform="matrix(6.12323e-17 -1 1 6.12323e-17 -1566 -29)"/>
</g>
<g id="Arrow" figma:type="vector">
<use xlink:href="#path8_stroke" transform="translate(-1188 -78)"/>
</g>
<g id="Represents 4" figma:type="text">
<use xlink:href="#path12_fill" transform="translate(-1520 -431)"/>
</g>
<g id="Represents 7" figma:type="text">
<use xlink:href="#path13_fill" transform="translate(-824 164)"/>
</g>
</g>
<defs>
<path id="path0_fill" d="M 0 0L 100 0L 100 300L 0 300L 0 0Z"/>
<path id="path1_fill" d="M 0 0L 100 0L 100 50L 0 50L 0 0Z"/>
<path id="path2_fill" d="M 7.76953 11.2656C 7.44141 11.2109 7.08594 11.1836 6.70312 11.1836C 5.28125 11.1836 4.31641 11.7891 3.80859 13L 3.80859 22L 1.64062 22L 1.64062 9.32031L 3.75 9.32031L 3.78516 10.7852C 4.49609 9.65234 5.50391 9.08594 6.80859 9.08594C 7.23047 9.08594 7.55078 9.14062 7.76953 9.25L 7.76953 11.2656ZM 12.1289 22L 9.96094 22L 9.96094 9.32031L 12.1289 9.32031L 12.1289 22ZM 9.78516 5.95703C 9.78516 5.60547 9.89062 5.30859 10.1016 5.06641C 10.3203 4.82422 10.6406 4.70312 11.0625 4.70312C 11.4844 4.70312 11.8047 4.82422 12.0234 5.06641C 12.2422 5.30859 12.3516 5.60547 12.3516 5.95703C 12.3516 6.30859 12.2422 6.60156 12.0234 6.83594C 11.8047 7.07031 11.4844 7.1875 11.0625 7.1875C 10.6406 7.1875 10.3203 7.07031 10.1016 6.83594C 9.89062 6.60156 9.78516 6.30859 9.78516 5.95703ZM 17.6602 9.32031L 17.7305 10.9141C 18.6992 9.69531 19.9648 9.08594 21.5273 9.08594C 24.207 9.08594 25.5586 10.5977 25.582 13.6211L 25.582 22L 23.4141 22L 23.4141 13.6094C 23.4062 12.6953 23.1953 12.0195 22.7812 11.582C 22.375 11.1445 21.7383 10.9258 20.8711 10.9258C 20.168 10.9258 19.5508 11.1133 19.0195 11.4883C 18.4883 11.8633 18.0742 12.3555 17.7773 12.9648L 17.7773 22L 15.6094 22L 15.6094 9.32031L 17.6602 9.32031ZM 28.3359 15.5547C 28.3359 13.5781 28.793 12.0078 29.707 10.8438C 30.6211 9.67188 31.832 9.08594 33.3398 9.08594C 34.8867 9.08594 36.0938 9.63281 36.9609 10.7266L 37.0664 9.32031L 39.0469 9.32031L 39.0469 21.6953C 39.0469 23.3359 38.5586 24.6289 37.582 25.5742C 36.6133 26.5195 35.3086 26.9922 33.668 26.9922C 32.7539 26.9922 31.8594 26.7969 30.9844 26.4062C 30.1094 26.0156 29.4414 25.4805 28.9805 24.8008L 30.1055 23.5C 31.0352 24.6484 32.1719 25.2227 33.5156 25.2227C 34.5703 25.2227 35.3906 24.9258 35.9766 24.332C 36.5703 23.7383 36.8672 22.9023 36.8672 21.8242L 36.8672 20.7344C 36 21.7344 34.8164 22.2344 33.3164 22.2344C 31.832 22.2344 30.6289 21.6367 29.707 20.4414C 28.793 19.2461 28.3359 17.6172 28.3359 15.5547ZM 30.5156 15.8008C 30.5156 17.2305 30.8086 18.3555 31.3945 19.1758C 31.9805 19.9883 32.8008 20.3945 33.8555 20.3945C 35.2227 20.3945 36.2266 19.7734 36.8672 18.5312L 36.8672 12.7422C 36.2031 11.5313 35.207 10.9258 33.8789 10.9258C 32.8242 10.9258 32 11.3359 31.4062 12.1562C 30.8125 12.9766 30.5156 14.1914 30.5156 15.8008ZM 42.2461 15.0742C 42.2461 13.3086 42.4805 11.6133 42.9492 9.98828C 43.4258 8.36328 44.1328 6.88672 45.0703 5.55859C 46.0078 4.23047 46.9805 3.29297 47.9883 2.74609L 48.4336 4.17578C 47.293 5.05078 46.3555 6.38672 45.6211 8.18359C 44.8945 9.98047 44.4961 11.9922 44.4258 14.2188L 44.4141 15.2148C 44.4141 18.2305 44.9648 20.8477 46.0664 23.0664C 46.7305 24.3945 47.5195 25.4336 48.4336 26.1836L 47.9883 27.5078C 46.9492 26.9297 45.957 25.9609 45.0117 24.6016C 43.168 21.9453 42.2461 18.7695 42.2461 15.0742ZM 57.4336 22L 55.2539 22L 55.2539 7.55078L 50.8828 9.15625L 50.8828 7.1875L 57.0938 4.85547L 57.4336 4.85547L 57.4336 22ZM 69.0117 15.1914C 69.0117 16.9336 68.7812 18.6055 68.3203 20.207C 67.8672 21.8008 67.168 23.2734 66.2227 24.625C 65.2852 25.9766 64.3008 26.9375 63.2695 27.5078L 62.8125 26.1836C 64.0156 25.2617 64.9805 23.832 65.707 21.8945C 66.4414 19.9492 66.8164 17.793 66.832 15.4258L 66.832 15.0508C 66.832 13.4102 66.6602 11.8867 66.3164 10.4805C 65.9727 9.06641 65.4922 7.80078 64.875 6.68359C 64.2656 5.56641 63.5781 4.69531 62.8125 4.07031L 63.2695 2.74609C 64.3008 3.31641 65.2813 4.26953 66.2109 5.60547C 67.1484 6.94141 67.8477 8.41406 68.3086 10.0234C 68.7773 11.6328 69.0117 13.3555 69.0117 15.1914Z"/>
<path id="path3_fill" d="M 3.67969 9.32031L 3.73828 10.7266C 4.66797 9.63281 5.92188 9.08594 7.5 9.08594C 9.27344 9.08594 10.4805 9.76562 11.1211 11.125C 11.543 10.5156 12.0898 10.0234 12.7617 9.64844C 13.4414 9.27344 14.2422 9.08594 15.1641 9.08594C 17.9453 9.08594 19.3594 10.5586 19.4062 13.5039L 19.4062 22L 17.2383 22L 17.2383 13.6328C 17.2383 12.7266 17.0313 12.0508 16.6172 11.6055C 16.2031 11.1523 15.5078 10.9258 14.5312 10.9258C 13.7266 10.9258 13.0586 11.168 12.5273 11.6523C 11.9961 12.1289 11.6875 12.7734 11.6016 13.5859L 11.6016 22L 9.42188 22L 9.42188 13.6914C 9.42188 11.8477 8.51953 10.9258 6.71484 10.9258C 5.29297 10.9258 4.32031 11.5313 3.79688 12.7422L 3.79688 22L 1.62891 22L 1.62891 9.32031L 3.67969 9.32031ZM 25.043 22L 22.875 22L 22.875 9.32031L 25.043 9.32031L 25.043 22ZM 22.6992 5.95703C 22.6992 5.60547 22.8047 5.30859 23.0156 5.06641C 23.2344 4.82422 23.5547 4.70312 23.9766 4.70312C 24.3984 4.70312 24.7188 4.82422 24.9375 5.06641C 25.1562 5.30859 25.2656 5.60547 25.2656 5.95703C 25.2656 6.30859 25.1562 6.60156 24.9375 6.83594C 24.7188 7.07031 24.3984 7.1875 23.9766 7.1875C 23.5547 7.1875 23.2344 7.07031 23.0156 6.83594C 22.8047 6.60156 22.6992 6.30859 22.6992 5.95703ZM 27.9961 15.5547C 27.9961 13.6094 28.457 12.0469 29.3789 10.8672C 30.3008 9.67969 31.5078 9.08594 33 9.08594C 34.4844 9.08594 35.6602 9.59375 36.5273 10.6094L 36.5273 4L 38.6953 4L 38.6953 22L 36.7031 22L 36.5977 20.6406C 35.7305 21.7031 34.5234 22.2344 32.9766 22.2344C 31.5078 22.2344 30.3086 21.6328 29.3789 20.4297C 28.457 19.2266 27.9961 17.6563 27.9961 15.7188L 27.9961 15.5547ZM 30.1641 15.8008C 30.1641 17.2383 30.4609 18.3633 31.0547 19.1758C 31.6484 19.9883 32.4687 20.3945 33.5156 20.3945C 34.8906 20.3945 35.8945 19.7773 36.5273 18.543L 36.5273 12.7188C 35.8789 11.5234 34.8828 10.9258 33.5391 10.9258C 32.4766 10.9258 31.6484 11.3359 31.0547 12.1562C 30.4609 12.9766 30.1641 14.1914 30.1641 15.8008ZM 41.543 15.5547C 41.543 13.6094 42.0039 12.0469 42.9258 10.8672C 43.8477 9.67969 45.0547 9.08594 46.5469 9.08594C 48.0313 9.08594 49.207 9.59375 50.0742 10.6094L 50.0742 4L 52.2422 4L 52.2422 22L 50.25 22L 50.1445 20.6406C 49.2773 21.7031 48.0703 22.2344 46.5234 22.2344C 45.0547 22.2344 43.8555 21.6328 42.9258 20.4297C 42.0039 19.2266 41.543 17.6563 41.543 15.7188L 41.543 15.5547ZM 43.7109 15.8008C 43.7109 17.2383 44.0078 18.3633 44.6016 19.1758C 45.1953 19.9883 46.0156 20.3945 47.0625 20.3945C 48.4375 20.3945 49.4414 19.7773 50.0742 18.543L 50.0742 12.7188C 49.4258 11.5234 48.4297 10.9258 47.0859 10.9258C 46.0234 10.9258 45.1953 11.3359 44.6016 12.1562C 44.0078 12.9766 43.7109 14.1914 43.7109 15.8008ZM 57.9727 22L 55.8047 22L 55.8047 4L 57.9727 4L 57.9727 22ZM 66.7148 22.2344C 64.9961 22.2344 63.5977 21.6719 62.5195 20.5469C 61.4414 19.4141 60.9023 17.9023 60.9023 16.0117L 60.9023 15.6133C 60.9023 14.3555 61.1406 13.2344 61.6172 12.25C 62.1016 11.2578 62.7734 10.4844 63.6328 9.92969C 64.5 9.36719 65.4375 9.08594 66.4453 9.08594C 68.0938 9.08594 69.375 9.62891 70.2891 10.7148C 71.2031 11.8008 71.6602 13.3555 71.6602 15.3789L 71.6602 16.2812L 63.0703 16.2812C 63.1016 17.5312 63.4648 18.543 64.1602 19.3164C 64.8633 20.082 65.7539 20.4648 66.832 20.4648C 67.5977 20.4648 68.2461 20.3086 68.7773 19.9961C 69.3086 19.6836 69.7734 19.2695 70.1719 18.7539L 71.4961 19.7852C 70.4336 21.418 68.8398 22.2344 66.7148 22.2344ZM 66.4453 10.8672C 65.5703 10.8672 64.8359 11.1875 64.2422 11.8281C 63.6484 12.4609 63.2812 13.3516 63.1406 14.5L 69.4922 14.5L 69.4922 14.3359C 69.4297 13.2344 69.1328 12.3828 68.6016 11.7812C 68.0703 11.1719 67.3516 10.8672 66.4453 10.8672ZM 74.0977 15.0742C 74.0977 13.3086 74.332 11.6133 74.8008 9.98828C 75.2773 8.36328 75.9844 6.88672 76.9219 5.55859C 77.8594 4.23047 78.832 3.29297 79.8398 2.74609L 80.2852 4.17578C 79.1445 5.05078 78.207 6.38672 77.4727 8.18359C 76.7461 9.98047 76.3477 11.9922 76.2773 14.2188L 76.2656 15.2148C 76.2656 18.2305 76.8164 20.8477 77.918 23.0664C 78.582 24.3945 79.3711 25.4336 80.2852 26.1836L 79.8398 27.5078C 78.8008 26.9297 77.8086 25.9609 76.8633 24.6016C 75.0195 21.9453 74.0977 18.7695 74.0977 15.0742ZM 92.8594 14.7227C 92.8594 17.2617 92.4258 19.1484 91.5586 20.3828C 90.6914 21.6172 89.3359 22.2344 87.4922 22.2344C 85.6719 22.2344 84.3242 21.6328 83.4492 20.4297C 82.5742 19.2188 82.1211 17.4141 82.0898 15.0156L 82.0898 12.1211C 82.0898 9.61328 82.5234 7.75 83.3906 6.53125C 84.2578 5.3125 85.6172 4.70312 87.4688 4.70312C 89.3047 4.70312 90.6562 5.29297 91.5234 6.47266C 92.3906 7.64453 92.8359 9.45703 92.8594 11.9102L 92.8594 14.7227ZM 90.6914 11.7578C 90.6914 9.92188 90.4336 8.58594 89.918 7.75C 89.4023 6.90625 88.5859 6.48438 87.4688 6.48438C 86.3594 6.48438 85.5508 6.90234 85.043 7.73828C 84.5352 8.57422 84.2734 9.85938 84.2578 11.5938L 84.2578 15.0625C 84.2578 16.9063 84.5234 18.2695 85.0547 19.1523C 85.5938 20.0273 86.4063 20.4648 87.4922 20.4648C 88.5625 20.4648 89.3555 20.0508 89.8711 19.2227C 90.3945 18.3945 90.668 17.0898 90.6914 15.3086L 90.6914 11.7578ZM 100.863 15.1914C 100.863 16.9336 100.633 18.6055 100.172 20.207C 99.7188 21.8008 99.0195 23.2734 98.0742 24.625C 97.1367 25.9766 96.1523 26.9375 95.1211 27.5078L 94.6641 26.1836C 95.8672 25.2617 96.832 23.832 97.5586 21.8945C 98.293 19.9492 98.668 17.793 98.6836 15.4258L 98.6836 15.0508C 98.6836 13.4102 98.5117 11.8867 98.168 10.4805C 97.8242 9.06641 97.3437 7.80078 96.7266 6.68359C 96.1172 5.56641 95.4297 4.69531 94.6641 4.07031L 95.1211 2.74609C 96.1523 3.31641 97.1328 4.26953 98.0625 5.60547C 99 6.94141 99.6992 8.41406 100.16 10.0234C 100.629 11.6328 100.863 13.3555 100.863 15.1914Z"/>
<path id="path4_fill" d="M 0 0L 100 0L 100 200L 0 200L 0 0Z"/>
<path id="path5_fill" d="M 0 0L 100 0L 100 400L 0 400L 0 0Z"/>
<path id="path6_fill" d="M 12.3516 15.8008C 12.3516 17.7305 11.9102 19.2852 11.0273 20.4648C 10.1445 21.6445 8.94922 22.2344 7.44141 22.2344C 5.90234 22.2344 4.69141 21.7461 3.80859 20.7695L 3.80859 26.875L 1.64062 26.875L 1.64062 9.32031L 3.62109 9.32031L 3.72656 10.7266C 4.60938 9.63281 5.83594 9.08594 7.40625 9.08594C 8.92969 9.08594 10.1328 9.66016 11.0156 10.8086C 11.9062 11.957 12.3516 13.5547 12.3516 15.6016L 12.3516 15.8008ZM 10.1836 15.5547C 10.1836 14.125 9.87891 12.9961 9.26953 12.168C 8.66016 11.3398 7.82422 10.9258 6.76172 10.9258C 5.44922 10.9258 4.46484 11.5078 3.80859 12.6719L 3.80859 18.7305C 4.45703 19.8867 5.44922 20.4648 6.78516 20.4648C 7.82422 20.4648 8.64844 20.0547 9.25781 19.2344C 9.875 18.4063 10.1836 17.1797 10.1836 15.5547ZM 17.4727 22L 15.3047 22L 15.3047 9.32031L 17.4727 9.32031L 17.4727 22ZM 15.1289 5.95703C 15.1289 5.60547 15.2344 5.30859 15.4453 5.06641C 15.6641 4.82422 15.9844 4.70312 16.4062 4.70312C 16.8281 4.70312 17.1484 4.82422 17.3672 5.06641C 17.5859 5.30859 17.6953 5.60547 17.6953 5.95703C 17.6953 6.30859 17.5859 6.60156 17.3672 6.83594C 17.1484 7.07031 16.8281 7.1875 16.4062 7.1875C 15.9844 7.1875 15.6641 7.07031 15.4453 6.83594C 15.2344 6.60156 15.1289 6.30859 15.1289 5.95703ZM 23.0039 9.32031L 23.0742 10.9141C 24.043 9.69531 25.3086 9.08594 26.8711 9.08594C 29.5508 9.08594 30.9023 10.5977 30.9258 13.6211L 30.9258 22L 28.7578 22L 28.7578 13.6094C 28.75 12.6953 28.5391 12.0195 28.125 11.582C 27.7187 11.1445 27.082 10.9258 26.2148 10.9258C 25.5117 10.9258 24.8945 11.1133 24.3633 11.4883C 23.832 11.8633 23.418 12.3555 23.1211 12.9648L 23.1211 22L 20.9531 22L 20.9531 9.32031L 23.0039 9.32031ZM 37.7344 16.1289L 36.375 17.5469L 36.375 22L 34.207 22L 34.207 4L 36.375 4L 36.375 14.8867L 37.5352 13.4922L 41.4844 9.32031L 44.1211 9.32031L 39.1875 14.6172L 44.6953 22L 42.1523 22L 37.7344 16.1289ZM 48.7148 22L 46.5469 22L 46.5469 9.32031L 48.7148 9.32031L 48.7148 22ZM 46.3711 5.95703C 46.3711 5.60547 46.4766 5.30859 46.6875 5.06641C 46.9063 4.82422 47.2266 4.70312 47.6484 4.70312C 48.0703 4.70312 48.3906 4.82422 48.6094 5.06641C 48.8281 5.30859 48.9375 5.60547 48.9375 5.95703C 48.9375 6.30859 48.8281 6.60156 48.6094 6.83594C 48.3906 7.07031 48.0703 7.1875 47.6484 7.1875C 47.2266 7.1875 46.9063 7.07031 46.6875 6.83594C 46.4766 6.60156 46.3711 6.30859 46.3711 5.95703ZM 57.457 22.2344C 55.7383 22.2344 54.3398 21.6719 53.2617 20.5469C 52.1836 19.4141 51.6445 17.9023 51.6445 16.0117L 51.6445 15.6133C 51.6445 14.3555 51.8828 13.2344 52.3594 12.25C 52.8437 11.2578 53.5156 10.4844 54.375 9.92969C 55.2422 9.36719 56.1797 9.08594 57.1875 9.08594C 58.8359 9.08594 60.1172 9.62891 61.0312 10.7148C 61.9453 11.8008 62.4023 13.3555 62.4023 15.3789L 62.4023 16.2812L 53.8125 16.2812C 53.8437 17.5312 54.207 18.543 54.9023 19.3164C 55.6055 20.082 56.4961 20.4648 57.5742 20.4648C 58.3398 20.4648 58.9883 20.3086 59.5195 19.9961C 60.0508 19.6836 60.5156 19.2695 60.9141 18.7539L 62.2383 19.7852C 61.1758 21.418 59.582 22.2344 57.457 22.2344ZM 57.1875 10.8672C 56.3125 10.8672 55.5781 11.1875 54.9844 11.8281C 54.3906 12.4609 54.0234 13.3516 53.8828 14.5L 60.2344 14.5L 60.2344 14.3359C 60.1719 13.2344 59.875 12.3828 59.3438 11.7812C 58.8125 11.1719 58.0937 10.8672 57.1875 10.8672ZM 64.8398 15.0742C 64.8398 13.3086 65.0742 11.6133 65.543 9.98828C 66.0195 8.36328 66.7266 6.88672 67.6641 5.55859C 68.6016 4.23047 69.5742 3.29297 70.582 2.74609L 71.0273 4.17578C 69.8867 5.05078 68.9492 6.38672 68.2148 8.18359C 67.4883 9.98047 67.0898 11.9922 67.0195 14.2188L 67.0078 15.2148C 67.0078 18.2305 67.5586 20.8477 68.6602 23.0664C 69.3242 24.3945 70.1133 25.4336 71.0273 26.1836L 70.582 27.5078C 69.543 26.9297 68.5508 25.9609 67.6055 24.6016C 65.7617 21.9453 64.8398 18.7695 64.8398 15.0742ZM 80.0273 22L 77.8477 22L 77.8477 7.55078L 73.4766 9.15625L 73.4766 7.1875L 79.6875 4.85547L 80.0273 4.85547L 80.0273 22ZM 91.6055 15.1914C 91.6055 16.9336 91.375 18.6055 90.9141 20.207C 90.4609 21.8008 89.7617 23.2734 88.8164 24.625C 87.8789 25.9766 86.8945 26.9375 85.8633 27.5078L 85.4062 26.1836C 86.6094 25.2617 87.5742 23.832 88.3008 21.8945C 89.0352 19.9492 89.4102 17.793 89.4258 15.4258L 89.4258 15.0508C 89.4258 13.4102 89.2539 11.8867 88.9102 10.4805C 88.5664 9.06641 88.0859 7.80078 87.4688 6.68359C 86.8594 5.56641 86.1719 4.69531 85.4062 4.07031L 85.8633 2.74609C 86.8945 3.31641 87.875 4.26953 88.8047 5.60547C 89.7422 6.94141 90.4414 8.41406 90.9023 10.0234C 91.3711 11.6328 91.6055 13.3555 91.6055 15.1914Z"/>
<path id="path7_fill" d="M 3.67969 9.32031L 3.73828 10.7266C 4.66797 9.63281 5.92188 9.08594 7.5 9.08594C 9.27344 9.08594 10.4805 9.76562 11.1211 11.125C 11.543 10.5156 12.0898 10.0234 12.7617 9.64844C 13.4414 9.27344 14.2422 9.08594 15.1641 9.08594C 17.9453 9.08594 19.3594 10.5586 19.4062 13.5039L 19.4062 22L 17.2383 22L 17.2383 13.6328C 17.2383 12.7266 17.0313 12.0508 16.6172 11.6055C 16.2031 11.1523 15.5078 10.9258 14.5312 10.9258C 13.7266 10.9258 13.0586 11.168 12.5273 11.6523C 11.9961 12.1289 11.6875 12.7734 11.6016 13.5859L 11.6016 22L 9.42188 22L 9.42188 13.6914C 9.42188 11.8477 8.51953 10.9258 6.71484 10.9258C 5.29297 10.9258 4.32031 11.5313 3.79688 12.7422L 3.79688 22L 1.62891 22L 1.62891 9.32031L 3.67969 9.32031ZM 25.043 22L 22.875 22L 22.875 9.32031L 25.043 9.32031L 25.043 22ZM 22.6992 5.95703C 22.6992 5.60547 22.8047 5.30859 23.0156 5.06641C 23.2344 4.82422 23.5547 4.70312 23.9766 4.70312C 24.3984 4.70312 24.7188 4.82422 24.9375 5.06641C 25.1562 5.30859 25.2656 5.60547 25.2656 5.95703C 25.2656 6.30859 25.1562 6.60156 24.9375 6.83594C 24.7188 7.07031 24.3984 7.1875 23.9766 7.1875C 23.5547 7.1875 23.2344 7.07031 23.0156 6.83594C 22.8047 6.60156 22.6992 6.30859 22.6992 5.95703ZM 27.9961 15.5547C 27.9961 13.6094 28.457 12.0469 29.3789 10.8672C 30.3008 9.67969 31.5078 9.08594 33 9.08594C 34.4844 9.08594 35.6602 9.59375 36.5273 10.6094L 36.5273 4L 38.6953 4L 38.6953 22L 36.7031 22L 36.5977 20.6406C 35.7305 21.7031 34.5234 22.2344 32.9766 22.2344C 31.5078 22.2344 30.3086 21.6328 29.3789 20.4297C 28.457 19.2266 27.9961 17.6563 27.9961 15.7188L 27.9961 15.5547ZM 30.1641 15.8008C 30.1641 17.2383 30.4609 18.3633 31.0547 19.1758C 31.6484 19.9883 32.4687 20.3945 33.5156 20.3945C 34.8906 20.3945 35.8945 19.7773 36.5273 18.543L 36.5273 12.7188C 35.8789 11.5234 34.8828 10.9258 33.5391 10.9258C 32.4766 10.9258 31.6484 11.3359 31.0547 12.1562C 30.4609 12.9766 30.1641 14.1914 30.1641 15.8008ZM 41.543 15.5547C 41.543 13.6094 42.0039 12.0469 42.9258 10.8672C 43.8477 9.67969 45.0547 9.08594 46.5469 9.08594C 48.0313 9.08594 49.207 9.59375 50.0742 10.6094L 50.0742 4L 52.2422 4L 52.2422 22L 50.25 22L 50.1445 20.6406C 49.2773 21.7031 48.0703 22.2344 46.5234 22.2344C 45.0547 22.2344 43.8555 21.6328 42.9258 20.4297C 42.0039 19.2266 41.543 17.6563 41.543 15.7188L 41.543 15.5547ZM 43.7109 15.8008C 43.7109 17.2383 44.0078 18.3633 44.6016 19.1758C 45.1953 19.9883 46.0156 20.3945 47.0625 20.3945C 48.4375 20.3945 49.4414 19.7773 50.0742 18.543L 50.0742 12.7188C 49.4258 11.5234 48.4297 10.9258 47.0859 10.9258C 46.0234 10.9258 45.1953 11.3359 44.6016 12.1562C 44.0078 12.9766 43.7109 14.1914 43.7109 15.8008ZM 57.9727 22L 55.8047 22L 55.8047 4L 57.9727 4L 57.9727 22ZM 66.7148 22.2344C 64.9961 22.2344 63.5977 21.6719 62.5195 20.5469C 61.4414 19.4141 60.9023 17.9023 60.9023 16.0117L 60.9023 15.6133C 60.9023 14.3555 61.1406 13.2344 61.6172 12.25C 62.1016 11.2578 62.7734 10.4844 63.6328 9.92969C 64.5 9.36719 65.4375 9.08594 66.4453 9.08594C 68.0938 9.08594 69.375 9.62891 70.2891 10.7148C 71.2031 11.8008 71.6602 13.3555 71.6602 15.3789L 71.6602 16.2812L 63.0703 16.2812C 63.1016 17.5312 63.4648 18.543 64.1602 19.3164C 64.8633 20.082 65.7539 20.4648 66.832 20.4648C 67.5977 20.4648 68.2461 20.3086 68.7773 19.9961C 69.3086 19.6836 69.7734 19.2695 70.1719 18.7539L 71.4961 19.7852C 70.4336 21.418 68.8398 22.2344 66.7148 22.2344ZM 66.4453 10.8672C 65.5703 10.8672 64.8359 11.1875 64.2422 11.8281C 63.6484 12.4609 63.2812 13.3516 63.1406 14.5L 69.4922 14.5L 69.4922 14.3359C 69.4297 13.2344 69.1328 12.3828 68.6016 11.7812C 68.0703 11.1719 67.3516 10.8672 66.4453 10.8672ZM 74.0977 15.0742C 74.0977 13.3086 74.332 11.6133 74.8008 9.98828C 75.2773 8.36328 75.9844 6.88672 76.9219 5.55859C 77.8594 4.23047 78.832 3.29297 79.8398 2.74609L 80.2852 4.17578C 79.1445 5.05078 78.207 6.38672 77.4727 8.18359C 76.7461 9.98047 76.3477 11.9922 76.2773 14.2188L 76.2656 15.2148C 76.2656 18.2305 76.8164 20.8477 77.918 23.0664C 78.582 24.3945 79.3711 25.4336 80.2852 26.1836L 79.8398 27.5078C 78.8008 26.9297 77.8086 25.9609 76.8633 24.6016C 75.0195 21.9453 74.0977 18.7695 74.0977 15.0742ZM 89.2852 22L 87.1055 22L 87.1055 7.55078L 82.7344 9.15625L 82.7344 7.1875L 88.9453 4.85547L 89.2852 4.85547L 89.2852 22ZM 100.863 15.1914C 100.863 16.9336 100.633 18.6055 100.172 20.207C 99.7188 21.8008 99.0195 23.2734 98.0742 24.625C 97.1367 25.9766 96.1523 26.9375 95.1211 27.5078L 94.6641 26.1836C 95.8672 25.2617 96.832 23.832 97.5586 21.8945C 98.293 19.9492 98.668 17.793 98.6836 15.4258L 98.6836 15.0508C 98.6836 13.4102 98.5117 11.8867 98.168 10.4805C 97.8242 9.06641 97.3437 7.80078 96.7266 6.68359C 96.1172 5.56641 95.4297 4.69531 94.6641 4.07031L 95.1211 2.74609C 96.1523 3.31641 97.1328 4.26953 98.0625 5.60547C 99 6.94141 99.6992 8.41406 100.16 10.0234C 100.629 11.6328 100.863 13.3555 100.863 15.1914Z"/>
<path id="path8_stroke" d="M 175.354 0.353553C 175.549 0.158291 175.549 -0.158291 175.354 -0.353553L 172.172 -3.53553C 171.976 -3.7308 171.66 -3.7308 171.464 -3.53553C 171.269 -3.34027 171.269 -3.02369 171.464 -2.82843L 174.293 0L 171.464 2.82843C 171.269 3.02369 171.269 3.34027 171.464 3.53553C 171.66 3.7308 171.976 3.7308 172.172 3.53553L 175.354 0.353553ZM 0 0.5L 175 0.5L 175 -0.5L 0 -0.5L 0 0.5Z"/>
<path id="path9_fill" d="M 8.23828 15.0977L 4.23047 15.0977L 4.23047 22L 1.96875 22L 1.96875 4.9375L 7.61719 4.9375C 9.53906 4.9375 11.0156 5.375 12.0469 6.25C 13.0859 7.125 13.6055 8.39844 13.6055 10.0703C 13.6055 11.1328 13.3164 12.0586 12.7383 12.8477C 12.168 13.6367 11.3711 14.2266 10.3477 14.6172L 14.3555 21.8594L 14.3555 22L 11.9414 22L 8.23828 15.0977ZM 4.23047 13.2578L 7.6875 13.2578C 8.80469 13.2578 9.69141 12.9687 10.3477 12.3906C 11.0117 11.8125 11.3438 11.0391 11.3438 10.0703C 11.3438 9.01562 11.0273 8.20703 10.3945 7.64453C 9.76953 7.08203 8.86328 6.79687 7.67578 6.78906L 4.23047 6.78906L 4.23047 13.2578ZM 21.6914 22.2344C 19.9727 22.2344 18.5742 21.6719 17.4961 20.5469C 16.418 19.4141 15.8789 17.9023 15.8789 16.0117L 15.8789 15.6133C 15.8789 14.3555 16.1172 13.2344 16.5938 12.25C 17.0781 11.2578 17.75 10.4844 18.6094 9.92969C 19.4766 9.36719 20.4141 9.08594 21.4219 9.08594C 23.0703 9.08594 24.3516 9.62891 25.2656 10.7148C 26.1797 11.8008 26.6367 13.3555 26.6367 15.3789L 26.6367 16.2812L 18.0469 16.2812C 18.0781 17.5312 18.4414 18.543 19.1367 19.3164C 19.8398 20.082 20.7305 20.4648 21.8086 20.4648C 22.5742 20.4648 23.2227 20.3086 23.7539 19.9961C 24.2852 19.6836 24.75 19.2695 25.1484 18.7539L 26.4727 19.7852C 25.4102 21.418 23.8164 22.2344 21.6914 22.2344ZM 21.4219 10.8672C 20.5469 10.8672 19.8125 11.1875 19.2188 11.8281C 18.625 12.4609 18.2578 13.3516 18.1172 14.5L 24.4688 14.5L 24.4688 14.3359C 24.4063 13.2344 24.1094 12.3828 23.5781 11.7812C 23.0469 11.1719 22.3281 10.8672 21.4219 10.8672ZM 39.8672 15.8008C 39.8672 17.7305 39.4258 19.2852 38.543 20.4648C 37.6602 21.6445 36.4648 22.2344 34.957 22.2344C 33.418 22.2344 32.207 21.7461 31.3242 20.7695L 31.3242 26.875L 29.1562 26.875L 29.1562 9.32031L 31.1367 9.32031L 31.2422 10.7266C 32.125 9.63281 33.3516 9.08594 34.9219 9.08594C 36.4453 9.08594 37.6484 9.66016 38.5312 10.8086C 39.4219 11.957 39.8672 13.5547 39.8672 15.6016L 39.8672 15.8008ZM 37.6992 15.5547C 37.6992 14.125 37.3945 12.9961 36.7852 12.168C 36.1758 11.3398 35.3398 10.9258 34.2773 10.9258C 32.9648 10.9258 31.9805 11.5078 31.3242 12.6719L 31.3242 18.7305C 31.9727 19.8867 32.9648 20.4648 34.3008 20.4648C 35.3398 20.4648 36.1641 20.0547 36.7734 19.2344C 37.3906 18.4063 37.6992 17.1797 37.6992 15.5547ZM 48.7617 11.2656C 48.4336 11.2109 48.0781 11.1836 47.6953 11.1836C 46.2734 11.1836 45.3086 11.7891 44.8008 13L 44.8008 22L 42.6328 22L 42.6328 9.32031L 44.7422 9.32031L 44.7773 10.7852C 45.4883 9.65234 46.4961 9.08594 47.8008 9.08594C 48.2227 9.08594 48.543 9.14062 48.7617 9.25L 48.7617 11.2656ZM 55.793 22.2344C 54.0742 22.2344 52.6758 21.6719 51.5977 20.5469C 50.5195 19.4141 49.9805 17.9023 49.9805 16.0117L 49.9805 15.6133C 49.9805 14.3555 50.2188 13.2344 50.6953 12.25C 51.1797 11.2578 51.8516 10.4844 52.7109 9.92969C 53.5781 9.36719 54.5156 9.08594 55.5234 9.08594C 57.1719 9.08594 58.4531 9.62891 59.3672 10.7148C 60.2812 11.8008 60.7383 13.3555 60.7383 15.3789L 60.7383 16.2812L 52.1484 16.2812C 52.1797 17.5312 52.543 18.543 53.2383 19.3164C 53.9414 20.082 54.832 20.4648 55.9102 20.4648C 56.6758 20.4648 57.3242 20.3086 57.8555 19.9961C 58.3867 19.6836 58.8516 19.2695 59.25 18.7539L 60.5742 19.7852C 59.5117 21.418 57.918 22.2344 55.793 22.2344ZM 55.5234 10.8672C 54.6484 10.8672 53.9141 11.1875 53.3203 11.8281C 52.7266 12.4609 52.3594 13.3516 52.2188 14.5L 58.5703 14.5L 58.5703 14.3359C 58.5078 13.2344 58.2109 12.3828 57.6797 11.7812C 57.1484 11.1719 56.4297 10.8672 55.5234 10.8672ZM 70.6406 18.6367C 70.6406 18.0508 70.418 17.5977 69.9727 17.2773C 69.5352 16.9492 68.7656 16.668 67.6641 16.4336C 66.5703 16.1992 65.6992 15.918 65.0508 15.5898C 64.4102 15.2617 63.9336 14.8711 63.6211 14.418C 63.3164 13.9648 63.1641 13.4258 63.1641 12.8008C 63.1641 11.7617 63.6016 10.8828 64.4766 10.1641C 65.3594 9.44531 66.4844 9.08594 67.8516 9.08594C 69.2891 9.08594 70.4531 9.45703 71.3438 10.1992C 72.2422 10.9414 72.6914 11.8906 72.6914 13.0469L 70.5117 13.0469C 70.5117 12.4531 70.2578 11.9414 69.75 11.5117C 69.25 11.082 68.6172 10.8672 67.8516 10.8672C 67.0625 10.8672 66.4453 11.0391 66 11.3828C 65.5547 11.7266 65.332 12.1758 65.332 12.7305C 65.332 13.2539 65.5391 13.6484 65.9531 13.9141C 66.3672 14.1797 67.1133 14.4336 68.1914 14.6758C 69.2773 14.918 70.1563 15.207 70.8281 15.543C 71.5 15.8789 71.9961 16.2852 72.3164 16.7617C 72.6445 17.2305 72.8086 17.8047 72.8086 18.4844C 72.8086 19.6172 72.3555 20.5273 71.4492 21.2148C 70.543 21.8945 69.3672 22.2344 67.9219 22.2344C 66.9063 22.2344 66.0078 22.0547 65.2266 21.6953C 64.4453 21.3359 63.832 20.8359 63.3867 20.1953C 62.9492 19.5469 62.7305 18.8477 62.7305 18.0977L 64.8984 18.0977C 64.9375 18.8242 65.2266 19.4023 65.7656 19.832C 66.3125 20.2539 67.0312 20.4648 67.9219 20.4648C 68.7422 20.4648 69.3984 20.3008 69.8906 19.9727C 70.3906 19.6367 70.6406 19.1914 70.6406 18.6367ZM 80.8945 22.2344C 79.1758 22.2344 77.7773 21.6719 76.6992 20.5469C 75.6211 19.4141 75.082 17.9023 75.082 16.0117L 75.082 15.6133C 75.082 14.3555 75.3203 13.2344 75.7969 12.25C 76.2812 11.2578 76.9531 10.4844 77.8125 9.92969C 78.6797 9.36719 79.6172 9.08594 80.625 9.08594C 82.2734 9.08594 83.5547 9.62891 84.4688 10.7148C 85.3828 11.8008 85.8398 13.3555 85.8398 15.3789L 85.8398 16.2812L 77.25 16.2812C 77.2812 17.5312 77.6445 18.543 78.3398 19.3164C 79.043 20.082 79.9336 20.4648 81.0117 20.4648C 81.7773 20.4648 82.4258 20.3086 82.957 19.9961C 83.4883 19.6836 83.9531 19.2695 84.3516 18.7539L 85.6758 19.7852C 84.6133 21.418 83.0195 22.2344 80.8945 22.2344ZM 80.625 10.8672C 79.75 10.8672 79.0156 11.1875 78.4219 11.8281C 77.8281 12.4609 77.4609 13.3516 77.3203 14.5L 83.6719 14.5L 83.6719 14.3359C 83.6094 13.2344 83.3125 12.3828 82.7812 11.7812C 82.25 11.1719 81.5312 10.8672 80.625 10.8672ZM 90.4102 9.32031L 90.4805 10.9141C 91.4492 9.69531 92.7148 9.08594 94.2773 9.08594C 96.957 9.08594 98.3086 10.5977 98.332 13.6211L 98.332 22L 96.1641 22L 96.1641 13.6094C 96.1562 12.6953 95.9453 12.0195 95.5312 11.582C 95.125 11.1445 94.4883 10.9258 93.6211 10.9258C 92.918 10.9258 92.3008 11.1133 91.7695 11.4883C 91.2383 11.8633 90.8242 12.3555 90.5273 12.9648L 90.5273 22L 88.3594 22L 88.3594 9.32031L 90.4102 9.32031ZM 104.543 6.25L 104.543 9.32031L 106.91 9.32031L 106.91 10.9961L 104.543 10.9961L 104.543 18.8594C 104.543 19.3672 104.648 19.75 104.859 20.0078C 105.07 20.2578 105.43 20.3828 105.938 20.3828C 106.187 20.3828 106.531 20.3359 106.969 20.2422L 106.969 22C 106.398 22.1562 105.844 22.2344 105.305 22.2344C 104.336 22.2344 103.605 21.9414 103.113 21.3555C 102.621 20.7695 102.375 19.9375 102.375 18.8594L 102.375 10.9961L 100.066 10.9961L 100.066 9.32031L 102.375 9.32031L 102.375 6.25L 104.543 6.25ZM 116.836 18.6367C 116.836 18.0508 116.613 17.5977 116.168 17.2773C 115.73 16.9492 114.961 16.668 113.859 16.4336C 112.766 16.1992 111.895 15.918 111.246 15.5898C 110.605 15.2617 110.129 14.8711 109.816 14.418C 109.512 13.9648 109.359 13.4258 109.359 12.8008C 109.359 11.7617 109.797 10.8828 110.672 10.1641C 111.555 9.44531 112.68 9.08594 114.047 9.08594C 115.484 9.08594 116.648 9.45703 117.539 10.1992C 118.438 10.9414 118.887 11.8906 118.887 13.0469L 116.707 13.0469C 116.707 12.4531 116.453 11.9414 115.945 11.5117C 115.445 11.082 114.812 10.8672 114.047 10.8672C 113.258 10.8672 112.641 11.0391 112.195 11.3828C 111.75 11.7266 111.527 12.1758 111.527 12.7305C 111.527 13.2539 111.734 13.6484 112.148 13.9141C 112.563 14.1797 113.309 14.4336 114.387 14.6758C 115.473 14.918 116.352 15.207 117.023 15.543C 117.695 15.8789 118.191 16.2852 118.512 16.7617C 118.84 17.2305 119.004 17.8047 119.004 18.4844C 119.004 19.6172 118.551 20.5273 117.645 21.2148C 116.738 21.8945 115.562 22.2344 114.117 22.2344C 113.102 22.2344 112.203 22.0547 111.422 21.6953C 110.641 21.3359 110.027 20.8359 109.582 20.1953C 109.145 19.5469 108.926 18.8477 108.926 18.0977L 111.094 18.0977C 111.133 18.8242 111.422 19.4023 111.961 19.832C 112.508 20.2539 113.227 20.4648 114.117 20.4648C 114.938 20.4648 115.594 20.3008 116.086 19.9727C 116.586 19.6367 116.836 19.1914 116.836 18.6367ZM 136.066 4.92578L 136.066 6.76562L 135.668 6.76562C 133.98 6.79687 132.637 7.29688 131.637 8.26562C 130.637 9.23437 130.059 10.5977 129.902 12.3555C 130.801 11.3242 132.027 10.8086 133.582 10.8086C 135.066 10.8086 136.25 11.332 137.133 12.3789C 138.023 13.4258 138.469 14.7773 138.469 16.4336C 138.469 18.1914 137.988 19.5977 137.027 20.6523C 136.074 21.707 134.793 22.2344 133.184 22.2344C 131.551 22.2344 130.227 21.6094 129.211 20.3594C 128.195 19.1016 127.688 17.4844 127.688 15.5078L 127.688 14.6758C 127.688 11.5352 128.355 9.13672 129.691 7.48047C 131.035 5.81641 133.031 4.96484 135.68 4.92578L 136.066 4.92578ZM 133.219 12.6133C 132.477 12.6133 131.793 12.8359 131.168 13.2812C 130.543 13.7266 130.109 14.2852 129.867 14.957L 129.867 15.7539C 129.867 17.1602 130.184 18.293 130.816 19.1523C 131.449 20.0117 132.238 20.4414 133.184 20.4414C 134.16 20.4414 134.926 20.082 135.48 19.3633C 136.043 18.6445 136.324 17.7031 136.324 16.5391C 136.324 15.3672 136.039 14.4219 135.469 13.7031C 134.906 12.9766 134.156 12.6133 133.219 12.6133Z"/>
<path id="path10_fill" d="M 7.76953 11.2656C 7.44141 11.2109 7.08594 11.1836 6.70312 11.1836C 5.28125 11.1836 4.31641 11.7891 3.80859 13L 3.80859 22L 1.64062 22L 1.64062 9.32031L 3.75 9.32031L 3.78516 10.7852C 4.49609 9.65234 5.50391 9.08594 6.80859 9.08594C 7.23047 9.08594 7.55078 9.14062 7.76953 9.25L 7.76953 11.2656ZM 12.1289 22L 9.96094 22L 9.96094 9.32031L 12.1289 9.32031L 12.1289 22ZM 9.78516 5.95703C 9.78516 5.60547 9.89062 5.30859 10.1016 5.06641C 10.3203 4.82422 10.6406 4.70312 11.0625 4.70312C 11.4844 4.70312 11.8047 4.82422 12.0234 5.06641C 12.2422 5.30859 12.3516 5.60547 12.3516 5.95703C 12.3516 6.30859 12.2422 6.60156 12.0234 6.83594C 11.8047 7.07031 11.4844 7.1875 11.0625 7.1875C 10.6406 7.1875 10.3203 7.07031 10.1016 6.83594C 9.89062 6.60156 9.78516 6.30859 9.78516 5.95703ZM 17.6602 9.32031L 17.7305 10.9141C 18.6992 9.69531 19.9648 9.08594 21.5273 9.08594C 24.207 9.08594 25.5586 10.5977 25.582 13.6211L 25.582 22L 23.4141 22L 23.4141 13.6094C 23.4062 12.6953 23.1953 12.0195 22.7812 11.582C 22.375 11.1445 21.7383 10.9258 20.8711 10.9258C 20.168 10.9258 19.5508 11.1133 19.0195 11.4883C 18.4883 11.8633 18.0742 12.3555 17.7773 12.9648L 17.7773 22L 15.6094 22L 15.6094 9.32031L 17.6602 9.32031ZM 28.3359 15.5547C 28.3359 13.5781 28.793 12.0078 29.707 10.8438C 30.6211 9.67188 31.832 9.08594 33.3398 9.08594C 34.8867 9.08594 36.0938 9.63281 36.9609 10.7266L 37.0664 9.32031L 39.0469 9.32031L 39.0469 21.6953C 39.0469 23.3359 38.5586 24.6289 37.582 25.5742C 36.6133 26.5195 35.3086 26.9922 33.668 26.9922C 32.7539 26.9922 31.8594 26.7969 30.9844 26.4062C 30.1094 26.0156 29.4414 25.4805 28.9805 24.8008L 30.1055 23.5C 31.0352 24.6484 32.1719 25.2227 33.5156 25.2227C 34.5703 25.2227 35.3906 24.9258 35.9766 24.332C 36.5703 23.7383 36.8672 22.9023 36.8672 21.8242L 36.8672 20.7344C 36 21.7344 34.8164 22.2344 33.3164 22.2344C 31.832 22.2344 30.6289 21.6367 29.707 20.4414C 28.793 19.2461 28.3359 17.6172 28.3359 15.5547ZM 30.5156 15.8008C 30.5156 17.2305 30.8086 18.3555 31.3945 19.1758C 31.9805 19.9883 32.8008 20.3945 33.8555 20.3945C 35.2227 20.3945 36.2266 19.7734 36.8672 18.5312L 36.8672 12.7422C 36.2031 11.5313 35.207 10.9258 33.8789 10.9258C 32.8242 10.9258 32 11.3359 31.4062 12.1562C 30.8125 12.9766 30.5156 14.1914 30.5156 15.8008ZM 42.2461 15.0742C 42.2461 13.3086 42.4805 11.6133 42.9492 9.98828C 43.4258 8.36328 44.1328 6.88672 45.0703 5.55859C 46.0078 4.23047 46.9805 3.29297 47.9883 2.74609L 48.4336 4.17578C 47.293 5.05078 46.3555 6.38672 45.6211 8.18359C 44.8945 9.98047 44.4961 11.9922 44.4258 14.2188L 44.4141 15.2148C 44.4141 18.2305 44.9648 20.8477 46.0664 23.0664C 46.7305 24.3945 47.5195 25.4336 48.4336 26.1836L 47.9883 27.5078C 46.9492 26.9297 45.957 25.9609 45.0117 24.6016C 43.168 21.9453 42.2461 18.7695 42.2461 15.0742ZM 61.0078 14.7227C 61.0078 17.2617 60.5742 19.1484 59.707 20.3828C 58.8398 21.6172 57.4844 22.2344 55.6406 22.2344C 53.8203 22.2344 52.4727 21.6328 51.5977 20.4297C 50.7227 19.2188 50.2695 17.4141 50.2383 15.0156L 50.2383 12.1211C 50.2383 9.61328 50.6719 7.75 51.5391 6.53125C 52.4062 5.3125 53.7656 4.70312 55.6172 4.70312C 57.4531 4.70312 58.8047 5.29297 59.6719 6.47266C 60.5391 7.64453 60.9844 9.45703 61.0078 11.9102L 61.0078 14.7227ZM 58.8398 11.7578C 58.8398 9.92188 58.582 8.58594 58.0664 7.75C 57.5508 6.90625 56.7344 6.48438 55.6172 6.48438C 54.5078 6.48438 53.6992 6.90234 53.1914 7.73828C 52.6836 8.57422 52.4219 9.85938 52.4062 11.5938L 52.4062 15.0625C 52.4062 16.9063 52.6719 18.2695 53.2031 19.1523C 53.7422 20.0273 54.5547 20.4648 55.6406 20.4648C 56.7109 20.4648 57.5039 20.0508 58.0195 19.2227C 58.543 18.3945 58.8164 17.0898 58.8398 15.3086L 58.8398 11.7578ZM 69.0117 15.1914C 69.0117 16.9336 68.7812 18.6055 68.3203 20.207C 67.8672 21.8008 67.168 23.2734 66.2227 24.625C 65.2852 25.9766 64.3008 26.9375 63.2695 27.5078L 62.8125 26.1836C 64.0156 25.2617 64.9805 23.832 65.707 21.8945C 66.4414 19.9492 66.8164 17.793 66.832 15.4258L 66.832 15.0508C 66.832 13.4102 66.6602 11.8867 66.3164 10.4805C 65.9727 9.06641 65.4922 7.80078 64.875 6.68359C 64.2656 5.56641 63.5781 4.69531 62.8125 4.07031L 63.2695 2.74609C 64.3008 3.31641 65.2813 4.26953 66.2109 5.60547C 67.1484 6.94141 67.8477 8.41406 68.3086 10.0234C 68.7773 11.6328 69.0117 13.3555 69.0117 15.1914Z"/>
<path id="path11_fill" d="M 8.23828 15.0977L 4.23047 15.0977L 4.23047 22L 1.96875 22L 1.96875 4.9375L 7.61719 4.9375C 9.53906 4.9375 11.0156 5.375 12.0469 6.25C 13.0859 7.125 13.6055 8.39844 13.6055 10.0703C 13.6055 11.1328 13.3164 12.0586 12.7383 12.8477C 12.168 13.6367 11.3711 14.2266 10.3477 14.6172L 14.3555 21.8594L 14.3555 22L 11.9414 22L 8.23828 15.0977ZM 4.23047 13.2578L 7.6875 13.2578C 8.80469 13.2578 9.69141 12.9687 10.3477 12.3906C 11.0117 11.8125 11.3438 11.0391 11.3438 10.0703C 11.3438 9.01562 11.0273 8.20703 10.3945 7.64453C 9.76953 7.08203 8.86328 6.79687 7.67578 6.78906L 4.23047 6.78906L 4.23047 13.2578ZM 21.6914 22.2344C 19.9727 22.2344 18.5742 21.6719 17.4961 20.5469C 16.418 19.4141 15.8789 17.9023 15.8789 16.0117L 15.8789 15.6133C 15.8789 14.3555 16.1172 13.2344 16.5938 12.25C 17.0781 11.2578 17.75 10.4844 18.6094 9.92969C 19.4766 9.36719 20.4141 9.08594 21.4219 9.08594C 23.0703 9.08594 24.3516 9.62891 25.2656 10.7148C 26.1797 11.8008 26.6367 13.3555 26.6367 15.3789L 26.6367 16.2812L 18.0469 16.2812C 18.0781 17.5312 18.4414 18.543 19.1367 19.3164C 19.8398 20.082 20.7305 20.4648 21.8086 20.4648C 22.5742 20.4648 23.2227 20.3086 23.7539 19.9961C 24.2852 19.6836 24.75 19.2695 25.1484 18.7539L 26.4727 19.7852C 25.4102 21.418 23.8164 22.2344 21.6914 22.2344ZM 21.4219 10.8672C 20.5469 10.8672 19.8125 11.1875 19.2188 11.8281C 18.625 12.4609 18.2578 13.3516 18.1172 14.5L 24.4688 14.5L 24.4688 14.3359C 24.4063 13.2344 24.1094 12.3828 23.5781 11.7812C 23.0469 11.1719 22.3281 10.8672 21.4219 10.8672ZM 39.8672 15.8008C 39.8672 17.7305 39.4258 19.2852 38.543 20.4648C 37.6602 21.6445 36.4648 22.2344 34.957 22.2344C 33.418 22.2344 32.207 21.7461 31.3242 20.7695L 31.3242 26.875L 29.1562 26.875L 29.1562 9.32031L 31.1367 9.32031L 31.2422 10.7266C 32.125 9.63281 33.3516 9.08594 34.9219 9.08594C 36.4453 9.08594 37.6484 9.66016 38.5312 10.8086C 39.4219 11.957 39.8672 13.5547 39.8672 15.6016L 39.8672 15.8008ZM 37.6992 15.5547C 37.6992 14.125 37.3945 12.9961 36.7852 12.168C 36.1758 11.3398 35.3398 10.9258 34.2773 10.9258C 32.9648 10.9258 31.9805 11.5078 31.3242 12.6719L 31.3242 18.7305C 31.9727 19.8867 32.9648 20.4648 34.3008 20.4648C 35.3398 20.4648 36.1641 20.0547 36.7734 19.2344C 37.3906 18.4063 37.6992 17.1797 37.6992 15.5547ZM 48.7617 11.2656C 48.4336 11.2109 48.0781 11.1836 47.6953 11.1836C 46.2734 11.1836 45.3086 11.7891 44.8008 13L 44.8008 22L 42.6328 22L 42.6328 9.32031L 44.7422 9.32031L 44.7773 10.7852C 45.4883 9.65234 46.4961 9.08594 47.8008 9.08594C 48.2227 9.08594 48.543 9.14062 48.7617 9.25L 48.7617 11.2656ZM 55.793 22.2344C 54.0742 22.2344 52.6758 21.6719 51.5977 20.5469C 50.5195 19.4141 49.9805 17.9023 49.9805 16.0117L 49.9805 15.6133C 49.9805 14.3555 50.2188 13.2344 50.6953 12.25C 51.1797 11.2578 51.8516 10.4844 52.7109 9.92969C 53.5781 9.36719 54.5156 9.08594 55.5234 9.08594C 57.1719 9.08594 58.4531 9.62891 59.3672 10.7148C 60.2812 11.8008 60.7383 13.3555 60.7383 15.3789L 60.7383 16.2812L 52.1484 16.2812C 52.1797 17.5312 52.543 18.543 53.2383 19.3164C 53.9414 20.082 54.832 20.4648 55.9102 20.4648C 56.6758 20.4648 57.3242 20.3086 57.8555 19.9961C 58.3867 19.6836 58.8516 19.2695 59.25 18.7539L 60.5742 19.7852C 59.5117 21.418 57.918 22.2344 55.793 22.2344ZM 55.5234 10.8672C 54.6484 10.8672 53.9141 11.1875 53.3203 11.8281C 52.7266 12.4609 52.3594 13.3516 52.2188 14.5L 58.5703 14.5L 58.5703 14.3359C 58.5078 13.2344 58.2109 12.3828 57.6797 11.7812C 57.1484 11.1719 56.4297 10.8672 55.5234 10.8672ZM 70.6406 18.6367C 70.6406 18.0508 70.418 17.5977 69.9727 17.2773C 69.5352 16.9492 68.7656 16.668 67.6641 16.4336C 66.5703 16.1992 65.6992 15.918 65.0508 15.5898C 64.4102 15.2617 63.9336 14.8711 63.6211 14.418C 63.3164 13.9648 63.1641 13.4258 63.1641 12.8008C 63.1641 11.7617 63.6016 10.8828 64.4766 10.1641C 65.3594 9.44531 66.4844 9.08594 67.8516 9.08594C 69.2891 9.08594 70.4531 9.45703 71.3438 10.1992C 72.2422 10.9414 72.6914 11.8906 72.6914 13.0469L 70.5117 13.0469C 70.5117 12.4531 70.2578 11.9414 69.75 11.5117C 69.25 11.082 68.6172 10.8672 67.8516 10.8672C 67.0625 10.8672 66.4453 11.0391 66 11.3828C 65.5547 11.7266 65.332 12.1758 65.332 12.7305C 65.332 13.2539 65.5391 13.6484 65.9531 13.9141C 66.3672 14.1797 67.1133 14.4336 68.1914 14.6758C 69.2773 14.918 70.1563 15.207 70.8281 15.543C 71.5 15.8789 71.9961 16.2852 72.3164 16.7617C 72.6445 17.2305 72.8086 17.8047 72.8086 18.4844C 72.8086 19.6172 72.3555 20.5273 71.4492 21.2148C 70.543 21.8945 69.3672 22.2344 67.9219 22.2344C 66.9063 22.2344 66.0078 22.0547 65.2266 21.6953C 64.4453 21.3359 63.832 20.8359 63.3867 20.1953C 62.9492 19.5469 62.7305 18.8477 62.7305 18.0977L 64.8984 18.0977C 64.9375 18.8242 65.2266 19.4023 65.7656 19.832C 66.3125 20.2539 67.0312 20.4648 67.9219 20.4648C 68.7422 20.4648 69.3984 20.3008 69.8906 19.9727C 70.3906 19.6367 70.6406 19.1914 70.6406 18.6367ZM 80.8945 22.2344C 79.1758 22.2344 77.7773 21.6719 76.6992 20.5469C 75.6211 19.4141 75.082 17.9023 75.082 16.0117L 75.082 15.6133C 75.082 14.3555 75.3203 13.2344 75.7969 12.25C 76.2812 11.2578 76.9531 10.4844 77.8125 9.92969C 78.6797 9.36719 79.6172 9.08594 80.625 9.08594C 82.2734 9.08594 83.5547 9.62891 84.4688 10.7148C 85.3828 11.8008 85.8398 13.3555 85.8398 15.3789L 85.8398 16.2812L 77.25 16.2812C 77.2812 17.5312 77.6445 18.543 78.3398 19.3164C 79.043 20.082 79.9336 20.4648 81.0117 20.4648C 81.7773 20.4648 82.4258 20.3086 82.957 19.9961C 83.4883 19.6836 83.9531 19.2695 84.3516 18.7539L 85.6758 19.7852C 84.6133 21.418 83.0195 22.2344 80.8945 22.2344ZM 80.625 10.8672C 79.75 10.8672 79.0156 11.1875 78.4219 11.8281C 77.8281 12.4609 77.4609 13.3516 77.3203 14.5L 83.6719 14.5L 83.6719 14.3359C 83.6094 13.2344 83.3125 12.3828 82.7812 11.7812C 82.25 11.1719 81.5312 10.8672 80.625 10.8672ZM 90.4102 9.32031L 90.4805 10.9141C 91.4492 9.69531 92.7148 9.08594 94.2773 9.08594C 96.957 9.08594 98.3086 10.5977 98.332 13.6211L 98.332 22L 96.1641 22L 96.1641 13.6094C 96.1562 12.6953 95.9453 12.0195 95.5312 11.582C 95.125 11.1445 94.4883 10.9258 93.6211 10.9258C 92.918 10.9258 92.3008 11.1133 91.7695 11.4883C 91.2383 11.8633 90.8242 12.3555 90.5273 12.9648L 90.5273 22L 88.3594 22L 88.3594 9.32031L 90.4102 9.32031ZM 104.543 6.25L 104.543 9.32031L 106.91 9.32031L 106.91 10.9961L 104.543 10.9961L 104.543 18.8594C 104.543 19.3672 104.648 19.75 104.859 20.0078C 105.07 20.2578 105.43 20.3828 105.938 20.3828C 106.187 20.3828 106.531 20.3359 106.969 20.2422L 106.969 22C 106.398 22.1562 105.844 22.2344 105.305 22.2344C 104.336 22.2344 103.605 21.9414 103.113 21.3555C 102.621 20.7695 102.375 19.9375 102.375 18.8594L 102.375 10.9961L 100.066 10.9961L 100.066 9.32031L 102.375 9.32031L 102.375 6.25L 104.543 6.25ZM 116.836 18.6367C 116.836 18.0508 116.613 17.5977 116.168 17.2773C 115.73 16.9492 114.961 16.668 113.859 16.4336C 112.766 16.1992 111.895 15.918 111.246 15.5898C 110.605 15.2617 110.129 14.8711 109.816 14.418C 109.512 13.9648 109.359 13.4258 109.359 12.8008C 109.359 11.7617 109.797 10.8828 110.672 10.1641C 111.555 9.44531 112.68 9.08594 114.047 9.08594C 115.484 9.08594 116.648 9.45703 117.539 10.1992C 118.438 10.9414 118.887 11.8906 118.887 13.0469L 116.707 13.0469C 116.707 12.4531 116.453 11.9414 115.945 11.5117C 115.445 11.082 114.812 10.8672 114.047 10.8672C 113.258 10.8672 112.641 11.0391 112.195 11.3828C 111.75 11.7266 111.527 12.1758 111.527 12.7305C 111.527 13.2539 111.734 13.6484 112.148 13.9141C 112.563 14.1797 113.309 14.4336 114.387 14.6758C 115.473 14.918 116.352 15.207 117.023 15.543C 117.695 15.8789 118.191 16.2852 118.512 16.7617C 118.84 17.2305 119.004 17.8047 119.004 18.4844C 119.004 19.6172 118.551 20.5273 117.645 21.2148C 116.738 21.8945 115.562 22.2344 114.117 22.2344C 113.102 22.2344 112.203 22.0547 111.422 21.6953C 110.641 21.3359 110.027 20.8359 109.582 20.1953C 109.145 19.5469 108.926 18.8477 108.926 18.0977L 111.094 18.0977C 111.133 18.8242 111.422 19.4023 111.961 19.832C 112.508 20.2539 113.227 20.4648 114.117 20.4648C 114.938 20.4648 115.594 20.3008 116.086 19.9727C 116.586 19.6367 116.836 19.1914 116.836 18.6367ZM 128.555 13.4453L 129.422 4.9375L 138.164 4.9375L 138.164 6.94141L 131.262 6.94141L 130.746 11.5938C 131.582 11.1016 132.531 10.8555 133.594 10.8555C 135.148 10.8555 136.383 11.3711 137.297 12.4023C 138.211 13.4258 138.668 14.8125 138.668 16.5625C 138.668 18.3203 138.191 19.707 137.238 20.7227C 136.293 21.7305 134.969 22.2344 133.266 22.2344C 131.758 22.2344 130.527 21.8164 129.574 20.9805C 128.621 20.1445 128.078 18.9883 127.945 17.5117L 129.996 17.5117C 130.129 18.4883 130.477 19.2266 131.039 19.7266C 131.602 20.2188 132.344 20.4648 133.266 20.4648C 134.273 20.4648 135.062 20.1211 135.633 19.4336C 136.211 18.7461 136.5 17.7969 136.5 16.5859C 136.5 15.4453 136.187 14.5313 135.562 13.8438C 134.945 13.1484 134.121 12.8008 133.09 12.8008C 132.145 12.8008 131.402 13.0078 130.863 13.4219L 130.289 13.8906L 128.555 13.4453Z"/>
<path id="path12_fill" d="M 8.23828 15.0977L 4.23047 15.0977L 4.23047 22L 1.96875 22L 1.96875 4.9375L 7.61719 4.9375C 9.53906 4.9375 11.0156 5.375 12.0469 6.25C 13.0859 7.125 13.6055 8.39844 13.6055 10.0703C 13.6055 11.1328 13.3164 12.0586 12.7383 12.8477C 12.168 13.6367 11.3711 14.2266 10.3477 14.6172L 14.3555 21.8594L 14.3555 22L 11.9414 22L 8.23828 15.0977ZM 4.23047 13.2578L 7.6875 13.2578C 8.80469 13.2578 9.69141 12.9687 10.3477 12.3906C 11.0117 11.8125 11.3438 11.0391 11.3438 10.0703C 11.3438 9.01562 11.0273 8.20703 10.3945 7.64453C 9.76953 7.08203 8.86328 6.79687 7.67578 6.78906L 4.23047 6.78906L 4.23047 13.2578ZM 21.6914 22.2344C 19.9727 22.2344 18.5742 21.6719 17.4961 20.5469C 16.418 19.4141 15.8789 17.9023 15.8789 16.0117L 15.8789 15.6133C 15.8789 14.3555 16.1172 13.2344 16.5938 12.25C 17.0781 11.2578 17.75 10.4844 18.6094 9.92969C 19.4766 9.36719 20.4141 9.08594 21.4219 9.08594C 23.0703 9.08594 24.3516 9.62891 25.2656 10.7148C 26.1797 11.8008 26.6367 13.3555 26.6367 15.3789L 26.6367 16.2812L 18.0469 16.2812C 18.0781 17.5312 18.4414 18.543 19.1367 19.3164C 19.8398 20.082 20.7305 20.4648 21.8086 20.4648C 22.5742 20.4648 23.2227 20.3086 23.7539 19.9961C 24.2852 19.6836 24.75 19.2695 25.1484 18.7539L 26.4727 19.7852C 25.4102 21.418 23.8164 22.2344 21.6914 22.2344ZM 21.4219 10.8672C 20.5469 10.8672 19.8125 11.1875 19.2188 11.8281C 18.625 12.4609 18.2578 13.3516 18.1172 14.5L 24.4688 14.5L 24.4688 14.3359C 24.4063 13.2344 24.1094 12.3828 23.5781 11.7812C 23.0469 11.1719 22.3281 10.8672 21.4219 10.8672ZM 39.8672 15.8008C 39.8672 17.7305 39.4258 19.2852 38.543 20.4648C 37.6602 21.6445 36.4648 22.2344 34.957 22.2344C 33.418 22.2344 32.207 21.7461 31.3242 20.7695L 31.3242 26.875L 29.1562 26.875L 29.1562 9.32031L 31.1367 9.32031L 31.2422 10.7266C 32.125 9.63281 33.3516 9.08594 34.9219 9.08594C 36.4453 9.08594 37.6484 9.66016 38.5312 10.8086C 39.4219 11.957 39.8672 13.5547 39.8672 15.6016L 39.8672 15.8008ZM 37.6992 15.5547C 37.6992 14.125 37.3945 12.9961 36.7852 12.168C 36.1758 11.3398 35.3398 10.9258 34.2773 10.9258C 32.9648 10.9258 31.9805 11.5078 31.3242 12.6719L 31.3242 18.7305C 31.9727 19.8867 32.9648 20.4648 34.3008 20.4648C 35.3398 20.4648 36.1641 20.0547 36.7734 19.2344C 37.3906 18.4063 37.6992 17.1797 37.6992 15.5547ZM 48.7617 11.2656C 48.4336 11.2109 48.0781 11.1836 47.6953 11.1836C 46.2734 11.1836 45.3086 11.7891 44.8008 13L 44.8008 22L 42.6328 22L 42.6328 9.32031L 44.7422 9.32031L 44.7773 10.7852C 45.4883 9.65234 46.4961 9.08594 47.8008 9.08594C 48.2227 9.08594 48.543 9.14062 48.7617 9.25L 48.7617 11.2656ZM 55.793 22.2344C 54.0742 22.2344 52.6758 21.6719 51.5977 20.5469C 50.5195 19.4141 49.9805 17.9023 49.9805 16.0117L 49.9805 15.6133C 49.9805 14.3555 50.2188 13.2344 50.6953 12.25C 51.1797 11.2578 51.8516 10.4844 52.7109 9.92969C 53.5781 9.36719 54.5156 9.08594 55.5234 9.08594C 57.1719 9.08594 58.4531 9.62891 59.3672 10.7148C 60.2812 11.8008 60.7383 13.3555 60.7383 15.3789L 60.7383 16.2812L 52.1484 16.2812C 52.1797 17.5312 52.543 18.543 53.2383 19.3164C 53.9414 20.082 54.832 20.4648 55.9102 20.4648C 56.6758 20.4648 57.3242 20.3086 57.8555 19.9961C 58.3867 19.6836 58.8516 19.2695 59.25 18.7539L 60.5742 19.7852C 59.5117 21.418 57.918 22.2344 55.793 22.2344ZM 55.5234 10.8672C 54.6484 10.8672 53.9141 11.1875 53.3203 11.8281C 52.7266 12.4609 52.3594 13.3516 52.2188 14.5L 58.5703 14.5L 58.5703 14.3359C 58.5078 13.2344 58.2109 12.3828 57.6797 11.7812C 57.1484 11.1719 56.4297 10.8672 55.5234 10.8672ZM 70.6406 18.6367C 70.6406 18.0508 70.418 17.5977 69.9727 17.2773C 69.5352 16.9492 68.7656 16.668 67.6641 16.4336C 66.5703 16.1992 65.6992 15.918 65.0508 15.5898C 64.4102 15.2617 63.9336 14.8711 63.6211 14.418C 63.3164 13.9648 63.1641 13.4258 63.1641 12.8008C 63.1641 11.7617 63.6016 10.8828 64.4766 10.1641C 65.3594 9.44531 66.4844 9.08594 67.8516 9.08594C 69.2891 9.08594 70.4531 9.45703 71.3438 10.1992C 72.2422 10.9414 72.6914 11.8906 72.6914 13.0469L 70.5117 13.0469C 70.5117 12.4531 70.2578 11.9414 69.75 11.5117C 69.25 11.082 68.6172 10.8672 67.8516 10.8672C 67.0625 10.8672 66.4453 11.0391 66 11.3828C 65.5547 11.7266 65.332 12.1758 65.332 12.7305C 65.332 13.2539 65.5391 13.6484 65.9531 13.9141C 66.3672 14.1797 67.1133 14.4336 68.1914 14.6758C 69.2773 14.918 70.1563 15.207 70.8281 15.543C 71.5 15.8789 71.9961 16.2852 72.3164 16.7617C 72.6445 17.2305 72.8086 17.8047 72.8086 18.4844C 72.8086 19.6172 72.3555 20.5273 71.4492 21.2148C 70.543 21.8945 69.3672 22.2344 67.9219 22.2344C 66.9063 22.2344 66.0078 22.0547 65.2266 21.6953C 64.4453 21.3359 63.832 20.8359 63.3867 20.1953C 62.9492 19.5469 62.7305 18.8477 62.7305 18.0977L 64.8984 18.0977C 64.9375 18.8242 65.2266 19.4023 65.7656 19.832C 66.3125 20.2539 67.0312 20.4648 67.9219 20.4648C 68.7422 20.4648 69.3984 20.3008 69.8906 19.9727C 70.3906 19.6367 70.6406 19.1914 70.6406 18.6367ZM 80.8945 22.2344C 79.1758 22.2344 77.7773 21.6719 76.6992 20.5469C 75.6211 19.4141 75.082 17.9023 75.082 16.0117L 75.082 15.6133C 75.082 14.3555 75.3203 13.2344 75.7969 12.25C 76.2812 11.2578 76.9531 10.4844 77.8125 9.92969C 78.6797 9.36719 79.6172 9.08594 80.625 9.08594C 82.2734 9.08594 83.5547 9.62891 84.4688 10.7148C 85.3828 11.8008 85.8398 13.3555 85.8398 15.3789L 85.8398 16.2812L 77.25 16.2812C 77.2812 17.5312 77.6445 18.543 78.3398 19.3164C 79.043 20.082 79.9336 20.4648 81.0117 20.4648C 81.7773 20.4648 82.4258 20.3086 82.957 19.9961C 83.4883 19.6836 83.9531 19.2695 84.3516 18.7539L 85.6758 19.7852C 84.6133 21.418 83.0195 22.2344 80.8945 22.2344ZM 80.625 10.8672C 79.75 10.8672 79.0156 11.1875 78.4219 11.8281C 77.8281 12.4609 77.4609 13.3516 77.3203 14.5L 83.6719 14.5L 83.6719 14.3359C 83.6094 13.2344 83.3125 12.3828 82.7812 11.7812C 82.25 11.1719 81.5312 10.8672 80.625 10.8672ZM 90.4102 9.32031L 90.4805 10.9141C 91.4492 9.69531 92.7148 9.08594 94.2773 9.08594C 96.957 9.08594 98.3086 10.5977 98.332 13.6211L 98.332 22L 96.1641 22L 96.1641 13.6094C 96.1562 12.6953 95.9453 12.0195 95.5312 11.582C 95.125 11.1445 94.4883 10.9258 93.6211 10.9258C 92.918 10.9258 92.3008 11.1133 91.7695 11.4883C 91.2383 11.8633 90.8242 12.3555 90.5273 12.9648L 90.5273 22L 88.3594 22L 88.3594 9.32031L 90.4102 9.32031ZM 104.543 6.25L 104.543 9.32031L 106.91 9.32031L 106.91 10.9961L 104.543 10.9961L 104.543 18.8594C 104.543 19.3672 104.648 19.75 104.859 20.0078C 105.07 20.2578 105.43 20.3828 105.938 20.3828C 106.187 20.3828 106.531 20.3359 106.969 20.2422L 106.969 22C 106.398 22.1562 105.844 22.2344 105.305 22.2344C 104.336 22.2344 103.605 21.9414 103.113 21.3555C 102.621 20.7695 102.375 19.9375 102.375 18.8594L 102.375 10.9961L 100.066 10.9961L 100.066 9.32031L 102.375 9.32031L 102.375 6.25L 104.543 6.25ZM 116.836 18.6367C 116.836 18.0508 116.613 17.5977 116.168 17.2773C 115.73 16.9492 114.961 16.668 113.859 16.4336C 112.766 16.1992 111.895 15.918 111.246 15.5898C 110.605 15.2617 110.129 14.8711 109.816 14.418C 109.512 13.9648 109.359 13.4258 109.359 12.8008C 109.359 11.7617 109.797 10.8828 110.672 10.1641C 111.555 9.44531 112.68 9.08594 114.047 9.08594C 115.484 9.08594 116.648 9.45703 117.539 10.1992C 118.438 10.9414 118.887 11.8906 118.887 13.0469L 116.707 13.0469C 116.707 12.4531 116.453 11.9414 115.945 11.5117C 115.445 11.082 114.812 10.8672 114.047 10.8672C 113.258 10.8672 112.641 11.0391 112.195 11.3828C 111.75 11.7266 111.527 12.1758 111.527 12.7305C 111.527 13.2539 111.734 13.6484 112.148 13.9141C 112.563 14.1797 113.309 14.4336 114.387 14.6758C 115.473 14.918 116.352 15.207 117.023 15.543C 117.695 15.8789 118.191 16.2852 118.512 16.7617C 118.84 17.2305 119.004 17.8047 119.004 18.4844C 119.004 19.6172 118.551 20.5273 117.645 21.2148C 116.738 21.8945 115.562 22.2344 114.117 22.2344C 113.102 22.2344 112.203 22.0547 111.422 21.6953C 110.641 21.3359 110.027 20.8359 109.582 20.1953C 109.145 19.5469 108.926 18.8477 108.926 18.0977L 111.094 18.0977C 111.133 18.8242 111.422 19.4023 111.961 19.832C 112.508 20.2539 113.227 20.4648 114.117 20.4648C 114.938 20.4648 115.594 20.3008 116.086 19.9727C 116.586 19.6367 116.836 19.1914 116.836 18.6367ZM 136.711 16.2695L 139.078 16.2695L 139.078 18.0391L 136.711 18.0391L 136.711 22L 134.531 22L 134.531 18.0391L 126.762 18.0391L 126.762 16.7617L 134.402 4.9375L 136.711 4.9375L 136.711 16.2695ZM 129.223 16.2695L 134.531 16.2695L 134.531 7.90234L 134.273 8.37109L 129.223 16.2695Z"/>
<path id="path13_fill" d="M 8.23828 15.0977L 4.23047 15.0977L 4.23047 22L 1.96875 22L 1.96875 4.9375L 7.61719 4.9375C 9.53906 4.9375 11.0156 5.375 12.0469 6.25C 13.0859 7.125 13.6055 8.39844 13.6055 10.0703C 13.6055 11.1328 13.3164 12.0586 12.7383 12.8477C 12.168 13.6367 11.3711 14.2266 10.3477 14.6172L 14.3555 21.8594L 14.3555 22L 11.9414 22L 8.23828 15.0977ZM 4.23047 13.2578L 7.6875 13.2578C 8.80469 13.2578 9.69141 12.9687 10.3477 12.3906C 11.0117 11.8125 11.3438 11.0391 11.3438 10.0703C 11.3438 9.01562 11.0273 8.20703 10.3945 7.64453C 9.76953 7.08203 8.86328 6.79687 7.67578 6.78906L 4.23047 6.78906L 4.23047 13.2578ZM 21.6914 22.2344C 19.9727 22.2344 18.5742 21.6719 17.4961 20.5469C 16.418 19.4141 15.8789 17.9023 15.8789 16.0117L 15.8789 15.6133C 15.8789 14.3555 16.1172 13.2344 16.5938 12.25C 17.0781 11.2578 17.75 10.4844 18.6094 9.92969C 19.4766 9.36719 20.4141 9.08594 21.4219 9.08594C 23.0703 9.08594 24.3516 9.62891 25.2656 10.7148C 26.1797 11.8008 26.6367 13.3555 26.6367 15.3789L 26.6367 16.2812L 18.0469 16.2812C 18.0781 17.5312 18.4414 18.543 19.1367 19.3164C 19.8398 20.082 20.7305 20.4648 21.8086 20.4648C 22.5742 20.4648 23.2227 20.3086 23.7539 19.9961C 24.2852 19.6836 24.75 19.2695 25.1484 18.7539L 26.4727 19.7852C 25.4102 21.418 23.8164 22.2344 21.6914 22.2344ZM 21.4219 10.8672C 20.5469 10.8672 19.8125 11.1875 19.2188 11.8281C 18.625 12.4609 18.2578 13.3516 18.1172 14.5L 24.4688 14.5L 24.4688 14.3359C 24.4063 13.2344 24.1094 12.3828 23.5781 11.7812C 23.0469 11.1719 22.3281 10.8672 21.4219 10.8672ZM 39.8672 15.8008C 39.8672 17.7305 39.4258 19.2852 38.543 20.4648C 37.6602 21.6445 36.4648 22.2344 34.957 22.2344C 33.418 22.2344 32.207 21.7461 31.3242 20.7695L 31.3242 26.875L 29.1562 26.875L 29.1562 9.32031L 31.1367 9.32031L 31.2422 10.7266C 32.125 9.63281 33.3516 9.08594 34.9219 9.08594C 36.4453 9.08594 37.6484 9.66016 38.5312 10.8086C 39.4219 11.957 39.8672 13.5547 39.8672 15.6016L 39.8672 15.8008ZM 37.6992 15.5547C 37.6992 14.125 37.3945 12.9961 36.7852 12.168C 36.1758 11.3398 35.3398 10.9258 34.2773 10.9258C 32.9648 10.9258 31.9805 11.5078 31.3242 12.6719L 31.3242 18.7305C 31.9727 19.8867 32.9648 20.4648 34.3008 20.4648C 35.3398 20.4648 36.1641 20.0547 36.7734 19.2344C 37.3906 18.4063 37.6992 17.1797 37.6992 15.5547ZM 48.7617 11.2656C 48.4336 11.2109 48.0781 11.1836 47.6953 11.1836C 46.2734 11.1836 45.3086 11.7891 44.8008 13L 44.8008 22L 42.6328 22L 42.6328 9.32031L 44.7422 9.32031L 44.7773 10.7852C 45.4883 9.65234 46.4961 9.08594 47.8008 9.08594C 48.2227 9.08594 48.543 9.14062 48.7617 9.25L 48.7617 11.2656ZM 55.793 22.2344C 54.0742 22.2344 52.6758 21.6719 51.5977 20.5469C 50.5195 19.4141 49.9805 17.9023 49.9805 16.0117L 49.9805 15.6133C 49.9805 14.3555 50.2188 13.2344 50.6953 12.25C 51.1797 11.2578 51.8516 10.4844 52.7109 9.92969C 53.5781 9.36719 54.5156 9.08594 55.5234 9.08594C 57.1719 9.08594 58.4531 9.62891 59.3672 10.7148C 60.2812 11.8008 60.7383 13.3555 60.7383 15.3789L 60.7383 16.2812L 52.1484 16.2812C 52.1797 17.5312 52.543 18.543 53.2383 19.3164C 53.9414 20.082 54.832 20.4648 55.9102 20.4648C 56.6758 20.4648 57.3242 20.3086 57.8555 19.9961C 58.3867 19.6836 58.8516 19.2695 59.25 18.7539L 60.5742 19.7852C 59.5117 21.418 57.918 22.2344 55.793 22.2344ZM 55.5234 10.8672C 54.6484 10.8672 53.9141 11.1875 53.3203 11.8281C 52.7266 12.4609 52.3594 13.3516 52.2188 14.5L 58.5703 14.5L 58.5703 14.3359C 58.5078 13.2344 58.2109 12.3828 57.6797 11.7812C 57.1484 11.1719 56.4297 10.8672 55.5234 10.8672ZM 70.6406 18.6367C 70.6406 18.0508 70.418 17.5977 69.9727 17.2773C 69.5352 16.9492 68.7656 16.668 67.6641 16.4336C 66.5703 16.1992 65.6992 15.918 65.0508 15.5898C 64.4102 15.2617 63.9336 14.8711 63.6211 14.418C 63.3164 13.9648 63.1641 13.4258 63.1641 12.8008C 63.1641 11.7617 63.6016 10.8828 64.4766 10.1641C 65.3594 9.44531 66.4844 9.08594 67.8516 9.08594C 69.2891 9.08594 70.4531 9.45703 71.3438 10.1992C 72.2422 10.9414 72.6914 11.8906 72.6914 13.0469L 70.5117 13.0469C 70.5117 12.4531 70.2578 11.9414 69.75 11.5117C 69.25 11.082 68.6172 10.8672 67.8516 10.8672C 67.0625 10.8672 66.4453 11.0391 66 11.3828C 65.5547 11.7266 65.332 12.1758 65.332 12.7305C 65.332 13.2539 65.5391 13.6484 65.9531 13.9141C 66.3672 14.1797 67.1133 14.4336 68.1914 14.6758C 69.2773 14.918 70.1563 15.207 70.8281 15.543C 71.5 15.8789 71.9961 16.2852 72.3164 16.7617C 72.6445 17.2305 72.8086 17.8047 72.8086 18.4844C 72.8086 19.6172 72.3555 20.5273 71.4492 21.2148C 70.543 21.8945 69.3672 22.2344 67.9219 22.2344C 66.9063 22.2344 66.0078 22.0547 65.2266 21.6953C 64.4453 21.3359 63.832 20.8359 63.3867 20.1953C 62.9492 19.5469 62.7305 18.8477 62.7305 18.0977L 64.8984 18.0977C 64.9375 18.8242 65.2266 19.4023 65.7656 19.832C 66.3125 20.2539 67.0312 20.4648 67.9219 20.4648C 68.7422 20.4648 69.3984 20.3008 69.8906 19.9727C 70.3906 19.6367 70.6406 19.1914 70.6406 18.6367ZM 80.8945 22.2344C 79.1758 22.2344 77.7773 21.6719 76.6992 20.5469C 75.6211 19.4141 75.082 17.9023 75.082 16.0117L 75.082 15.6133C 75.082 14.3555 75.3203 13.2344 75.7969 12.25C 76.2812 11.2578 76.9531 10.4844 77.8125 9.92969C 78.6797 9.36719 79.6172 9.08594 80.625 9.08594C 82.2734 9.08594 83.5547 9.62891 84.4688 10.7148C 85.3828 11.8008 85.8398 13.3555 85.8398 15.3789L 85.8398 16.2812L 77.25 16.2812C 77.2812 17.5312 77.6445 18.543 78.3398 19.3164C 79.043 20.082 79.9336 20.4648 81.0117 20.4648C 81.7773 20.4648 82.4258 20.3086 82.957 19.9961C 83.4883 19.6836 83.9531 19.2695 84.3516 18.7539L 85.6758 19.7852C 84.6133 21.418 83.0195 22.2344 80.8945 22.2344ZM 80.625 10.8672C 79.75 10.8672 79.0156 11.1875 78.4219 11.8281C 77.8281 12.4609 77.4609 13.3516 77.3203 14.5L 83.6719 14.5L 83.6719 14.3359C 83.6094 13.2344 83.3125 12.3828 82.7812 11.7812C 82.25 11.1719 81.5312 10.8672 80.625 10.8672ZM 90.4102 9.32031L 90.4805 10.9141C 91.4492 9.69531 92.7148 9.08594 94.2773 9.08594C 96.957 9.08594 98.3086 10.5977 98.332 13.6211L 98.332 22L 96.1641 22L 96.1641 13.6094C 96.1562 12.6953 95.9453 12.0195 95.5312 11.582C 95.125 11.1445 94.4883 10.9258 93.6211 10.9258C 92.918 10.9258 92.3008 11.1133 91.7695 11.4883C 91.2383 11.8633 90.8242 12.3555 90.5273 12.9648L 90.5273 22L 88.3594 22L 88.3594 9.32031L 90.4102 9.32031ZM 104.543 6.25L 104.543 9.32031L 106.91 9.32031L 106.91 10.9961L 104.543 10.9961L 104.543 18.8594C 104.543 19.3672 104.648 19.75 104.859 20.0078C 105.07 20.2578 105.43 20.3828 105.938 20.3828C 106.187 20.3828 106.531 20.3359 106.969 20.2422L 106.969 22C 106.398 22.1562 105.844 22.2344 105.305 22.2344C 104.336 22.2344 103.605 21.9414 103.113 21.3555C 102.621 20.7695 102.375 19.9375 102.375 18.8594L 102.375 10.9961L 100.066 10.9961L 100.066 9.32031L 102.375 9.32031L 102.375 6.25L 104.543 6.25ZM 116.836 18.6367C 116.836 18.0508 116.613 17.5977 116.168 17.2773C 115.73 16.9492 114.961 16.668 113.859 16.4336C 112.766 16.1992 111.895 15.918 111.246 15.5898C 110.605 15.2617 110.129 14.8711 109.816 14.418C 109.512 13.9648 109.359 13.4258 109.359 12.8008C 109.359 11.7617 109.797 10.8828 110.672 10.1641C 111.555 9.44531 112.68 9.08594 114.047 9.08594C 115.484 9.08594 116.648 9.45703 117.539 10.1992C 118.438 10.9414 118.887 11.8906 118.887 13.0469L 116.707 13.0469C 116.707 12.4531 116.453 11.9414 115.945 11.5117C 115.445 11.082 114.812 10.8672 114.047 10.8672C 113.258 10.8672 112.641 11.0391 112.195 11.3828C 111.75 11.7266 111.527 12.1758 111.527 12.7305C 111.527 13.2539 111.734 13.6484 112.148 13.9141C 112.563 14.1797 113.309 14.4336 114.387 14.6758C 115.473 14.918 116.352 15.207 117.023 15.543C 117.695 15.8789 118.191 16.2852 118.512 16.7617C 118.84 17.2305 119.004 17.8047 119.004 18.4844C 119.004 19.6172 118.551 20.5273 117.645 21.2148C 116.738 21.8945 115.562 22.2344 114.117 22.2344C 113.102 22.2344 112.203 22.0547 111.422 21.6953C 110.641 21.3359 110.027 20.8359 109.582 20.1953C 109.145 19.5469 108.926 18.8477 108.926 18.0977L 111.094 18.0977C 111.133 18.8242 111.422 19.4023 111.961 19.832C 112.508 20.2539 113.227 20.4648 114.117 20.4648C 114.938 20.4648 115.594 20.3008 116.086 19.9727C 116.586 19.6367 116.836 19.1914 116.836 18.6367ZM 138.574 6.15625L 131.508 22L 129.234 22L 136.277 6.71875L 127.043 6.71875L 127.043 4.9375L 138.574 4.9375L 138.574 6.15625Z"/>
</defs>
</svg>
