<svg width="510" height="321" viewBox="0 0 510 321" version="1.1" xmlns="http://www.w3.org/2000/svg" xmlns:xlink="http://www.w3.org/1999/xlink" xmlns:figma="http://www.figma.com/figma/ns">
<title>binary_fingers</title>
<desc>Created using Figma</desc>
<g id="Canvas" transform="translate(289 291)" figma:type="canvas">
<g id="Group" figma:type="frame">
<g id="Rectangle" figma:type="rounded-rectangle">
<use xlink:href="#path0_fill" transform="translate(-269 -20)" fill="#C4C4C4"/>
</g>
</g>
<g id="pinkie(0)" figma:type="text">
<use xlink:href="#path1_fill" transform="matrix(6.12323e-17 -1 1 6.12323e-17 -234 -41)"/>
</g>
<g id="Group" figma:type="frame">
<g id="Rectangle" figma:type="rounded-rectangle">
<use xlink:href="#path2_fill" transform="translate(106 -170)" fill="#6FCF97"/>
</g>
</g>
<g id="pinkie(1)" figma:type="text">
<use xlink:href="#path3_fill" transform="matrix(6.12323e-17 -1 1 6.12323e-17 141 -30)"/>
</g>
<g id="Arrow" figma:type="vector">
<use xlink:href="#path4_stroke" transform="translate(-121 -73)"/>
</g>
<g id="Represents 0" figma:type="text">
<use xlink:href="#path5_fill" transform="translate(-290 -295)"/>
</g>
<g id="Represents 1" figma:type="text">
<use xlink:href="#path6_fill" transform="translate(86 -295)"/>
</g>
</g>
<defs>
<path id="path0_fill" d="M 0 0L 100 0L 100 50L 0 50L 0 0Z"/>
<path id="path1_fill" d="M 12.3516 15.8008C 12.3516 17.7305 11.9102 19.2852 11.0273 20.4648C 10.1445 21.6445 8.94922 22.2344 7.44141 22.2344C 5.90234 22.2344 4.69141 21.7461 3.80859 20.7695L 3.80859 26.875L 1.64062 26.875L 1.64062 9.32031L 3.62109 9.32031L 3.72656 10.7266C 4.60938 9.63281 5.83594 9.08594 7.40625 9.08594C 8.92969 9.08594 10.1328 9.66016 11.0156 10.8086C 11.9062 11.957 12.3516 13.5547 12.3516 15.6016L 12.3516 15.8008ZM 10.1836 15.5547C 10.1836 14.125 9.87891 12.9961 9.26953 12.168C 8.66016 11.3398 7.82422 10.9258 6.76172 10.9258C 5.44922 10.9258 4.46484 11.5078 3.80859 12.6719L 3.80859 18.7305C 4.45703 19.8867 5.44922 20.4648 6.78516 20.4648C 7.82422 20.4648 8.64844 20.0547 9.25781 19.2344C 9.875 18.4063 10.1836 17.1797 10.1836 15.5547ZM 17.4727 22L 15.3047 22L 15.3047 9.32031L 17.4727 9.32031L 17.4727 22ZM 15.1289 5.95703C 15.1289 5.60547 15.2344 5.30859 15.4453 5.06641C 15.6641 4.82422 15.9844 4.70312 16.4062 4.70312C 16.8281 4.70312 17.1484 4.82422 17.3672 5.06641C 17.5859 5.30859 17.6953 5.60547 17.6953 5.95703C 17.6953 6.30859 17.5859 6.60156 17.3672 6.83594C 17.1484 7.07031 16.8281 7.1875 16.4062 7.1875C 15.9844 7.1875 15.6641 7.07031 15.4453 6.83594C 15.2344 6.60156 15.1289 6.30859 15.1289 5.95703ZM 23.0039 9.32031L 23.0742 10.9141C 24.043 9.69531 25.3086 9.08594 26.8711 9.08594C 29.5508 9.08594 30.9023 10.5977 30.9258 13.6211L 30.9258 22L 28.7578 22L 28.7578 13.6094C 28.75 12.6953 28.5391 12.0195 28.125 11.582C 27.7187 11.1445 27.082 10.9258 26.2148 10.9258C 25.5117 10.9258 24.8945 11.1133 24.3633 11.4883C 23.832 11.8633 23.418 12.3555 23.1211 12.9648L 23.1211 22L 20.9531 22L 20.9531 9.32031L 23.0039 9.32031ZM 37.7344 16.1289L 36.375 17.5469L 36.375 22L 34.207 22L 34.207 4L 36.375 4L 36.375 14.8867L 37.5352 13.4922L 41.4844 9.32031L 44.1211 9.32031L 39.1875 14.6172L 44.6953 22L 42.1523 22L 37.7344 16.1289ZM 48.7148 22L 46.5469 22L 46.5469 9.32031L 48.7148 9.32031L 48.7148 22ZM 46.3711 5.95703C 46.3711 5.60547 46.4766 5.30859 46.6875 5.06641C 46.9063 4.82422 47.2266 4.70312 47.6484 4.70312C 48.0703 4.70312 48.3906 4.82422 48.6094 5.06641C 48.8281 5.30859 48.9375 5.60547 48.9375 5.95703C 48.9375 6.30859 48.8281 6.60156 48.6094 6.83594C 48.3906 7.07031 48.0703 7.1875 47.6484 7.1875C 47.2266 7.1875 46.9063 7.07031 46.6875 6.83594C 46.4766 6.60156 46.3711 6.30859 46.3711 5.95703ZM 57.457 22.2344C 55.7383 22.2344 54.3398 21.6719 53.2617 20.5469C 52.1836 19.4141 51.6445 17.9023 51.6445 16.0117L 51.6445 15.6133C 51.6445 14.3555 51.8828 13.2344 52.3594 12.25C 52.8437 11.2578 53.5156 10.4844 54.375 9.92969C 55.2422 9.36719 56.1797 9.08594 57.1875 9.08594C 58.8359 9.08594 60.1172 9.62891 61.0312 10.7148C 61.9453 11.8008 62.4023 13.3555 62.4023 15.3789L 62.4023 16.2812L 53.8125 16.2812C 53.8437 17.5312 54.207 18.543 54.9023 19.3164C 55.6055 20.082 56.4961 20.4648 57.5742 20.4648C 58.3398 20.4648 58.9883 20.3086 59.5195 19.9961C 60.0508 19.6836 60.5156 19.2695 60.9141 18.7539L 62.2383 19.7852C 61.1758 21.418 59.582 22.2344 57.457 22.2344ZM 57.1875 10.8672C 56.3125 10.8672 55.5781 11.1875 54.9844 11.8281C 54.3906 12.4609 54.0234 13.3516 53.8828 14.5L 60.2344 14.5L 60.2344 14.3359C 60.1719 13.2344 59.875 12.3828 59.3438 11.7812C 58.8125 11.1719 58.0937 10.8672 57.1875 10.8672ZM 64.8398 15.0742C 64.8398 13.3086 65.0742 11.6133 65.543 9.98828C 66.0195 8.36328 66.7266 6.88672 67.6641 5.55859C 68.6016 4.23047 69.5742 3.29297 70.582 2.74609L 71.0273 4.17578C 69.8867 5.05078 68.9492 6.38672 68.2148 8.18359C 67.4883 9.98047 67.0898 11.9922 67.0195 14.2188L 67.0078 15.2148C 67.0078 18.2305 67.5586 20.8477 68.6602 23.0664C 69.3242 24.3945 70.1133 25.4336 71.0273 26.1836L 70.582 27.5078C 69.543 26.9297 68.5508 25.9609 67.6055 24.6016C 65.7617 21.9453 64.8398 18.7695 64.8398 15.0742ZM 83.6016 14.7227C 83.6016 17.2617 83.168 19.1484 82.3008 20.3828C 81.4336 21.6172 80.0781 22.2344 78.2344 22.2344C 76.4141 22.2344 75.0664 21.6328 74.1914 20.4297C 73.3164 19.2188 72.8633 17.4141 72.832 15.0156L 72.832 12.1211C 72.832 9.61328 73.2656 7.75 74.1328 6.53125C 75 5.3125 76.3594 4.70312 78.2109 4.70312C 80.0469 4.70312 81.3984 5.29297 82.2656 6.47266C 83.1328 7.64453 83.5781 9.45703 83.6016 11.9102L 83.6016 14.7227ZM 81.4336 11.7578C 81.4336 9.92188 81.1758 8.58594 80.6602 7.75C 80.1445 6.90625 79.3281 6.48438 78.2109 6.48438C 77.1016 6.48438 76.293 6.90234 75.7852 7.73828C 75.2773 8.57422 75.0156 9.85938 75 11.5938L 75 15.0625C 75 16.9063 75.2656 18.2695 75.7969 19.1523C 76.3359 20.0273 77.1484 20.4648 78.2344 20.4648C 79.3047 20.4648 80.0977 20.0508 80.6133 19.2227C 81.1367 18.3945 81.4102 17.0898 81.4336 15.3086L 81.4336 11.7578ZM 91.6055 15.1914C 91.6055 16.9336 91.375 18.6055 90.9141 20.207C 90.4609 21.8008 89.7617 23.2734 88.8164 24.625C 87.8789 25.9766 86.8945 26.9375 85.8633 27.5078L 85.4062 26.1836C 86.6094 25.2617 87.5742 23.832 88.3008 21.8945C 89.0352 19.9492 89.4102 17.793 89.4258 15.4258L 89.4258 15.0508C 89.4258 13.4102 89.2539 11.8867 88.9102 10.4805C 88.5664 9.06641 88.0859 7.80078 87.4688 6.68359C 86.8594 5.56641 86.1719 4.69531 85.4062 4.07031L 85.8633 2.74609C 86.8945 3.31641 87.875 4.26953 88.8047 5.60547C 89.7422 6.94141 90.4414 8.41406 90.9023 10.0234C 91.3711 11.6328 91.6055 13.3555 91.6055 15.1914Z"/>
<path id="path2_fill" d="M 0 0L 100 0L 100 200L 0 200L 0 0Z"/>
<path id="path3_fill" d="M 12.3516 15.8008C 12.3516 17.7305 11.9102 19.2852 11.0273 20.4648C 10.1445 21.6445 8.94922 22.2344 7.44141 22.2344C 5.90234 22.2344 4.69141 21.7461 3.80859 20.7695L 3.80859 26.875L 1.64062 26.875L 1.64062 9.32031L 3.62109 9.32031L 3.72656 10.7266C 4.60938 9.63281 5.83594 9.08594 7.40625 9.08594C 8.92969 9.08594 10.1328 9.66016 11.0156 10.8086C 11.9062 11.957 12.3516 13.5547 12.3516 15.6016L 12.3516 15.8008ZM 10.1836 15.5547C 10.1836 14.125 9.87891 12.9961 9.26953 12.168C 8.66016 11.3398 7.82422 10.9258 6.76172 10.9258C 5.44922 10.9258 4.46484 11.5078 3.80859 12.6719L 3.80859 18.7305C 4.45703 19.8867 5.44922 20.4648 6.78516 20.4648C 7.82422 20.4648 8.64844 20.0547 9.25781 19.2344C 9.875 18.4063 10.1836 17.1797 10.1836 15.5547ZM 17.4727 22L 15.3047 22L 15.3047 9.32031L 17.4727 9.32031L 17.4727 22ZM 15.1289 5.95703C 15.1289 5.60547 15.2344 5.30859 15.4453 5.06641C 15.6641 4.82422 15.9844 4.70312 16.4062 4.70312C 16.8281 4.70312 17.1484 4.82422 17.3672 5.06641C 17.5859 5.30859 17.6953 5.60547 17.6953 5.95703C 17.6953 6.30859 17.5859 6.60156 17.3672 6.83594C 17.1484 7.07031 16.8281 7.1875 16.4062 7.1875C 15.9844 7.1875 15.6641 7.07031 15.4453 6.83594C 15.2344 6.60156 15.1289 6.30859 15.1289 5.95703ZM 23.0039 9.32031L 23.0742 10.9141C 24.043 9.69531 25.3086 9.08594 26.8711 9.08594C 29.5508 9.08594 30.9023 10.5977 30.9258 13.6211L 30.9258 22L 28.7578 22L 28.7578 13.6094C 28.75 12.6953 28.5391 12.0195 28.125 11.582C 27.7187 11.1445 27.082 10.9258 26.2148 10.9258C 25.5117 10.9258 24.8945 11.1133 24.3633 11.4883C 23.832 11.8633 23.418 12.3555 23.1211 12.9648L 23.1211 22L 20.9531 22L 20.9531 9.32031L 23.0039 9.32031ZM 37.7344 16.1289L 36.375 17.5469L 36.375 22L 34.207 22L 34.207 4L 36.375 4L 36.375 14.8867L 37.5352 13.4922L 41.4844 9.32031L 44.1211 9.32031L 39.1875 14.6172L 44.6953 22L 42.1523 22L 37.7344 16.1289ZM 48.7148 22L 46.5469 22L 46.5469 9.32031L 48.7148 9.32031L 48.7148 22ZM 46.3711 5.95703C 46.3711 5.60547 46.4766 5.30859 46.6875 5.06641C 46.9063 4.82422 47.2266 4.70312 47.6484 4.70312C 48.0703 4.70312 48.3906 4.82422 48.6094 5.06641C 48.8281 5.30859 48.9375 5.60547 48.9375 5.95703C 48.9375 6.30859 48.8281 6.60156 48.6094 6.83594C 48.3906 7.07031 48.0703 7.1875 47.6484 7.1875C 47.2266 7.1875 46.9063 7.07031 46.6875 6.83594C 46.4766 6.60156 46.3711 6.30859 46.3711 5.95703ZM 57.457 22.2344C 55.7383 22.2344 54.3398 21.6719 53.2617 20.5469C 52.1836 19.4141 51.6445 17.9023 51.6445 16.0117L 51.6445 15.6133C 51.6445 14.3555 51.8828 13.2344 52.3594 12.25C 52.8437 11.2578 53.5156 10.4844 54.375 9.92969C 55.2422 9.36719 56.1797 9.08594 57.1875 9.08594C 58.8359 9.08594 60.1172 9.62891 61.0312 10.7148C 61.9453 11.8008 62.4023 13.3555 62.4023 15.3789L 62.4023 16.2812L 53.8125 16.2812C 53.8437 17.5312 54.207 18.543 54.9023 19.3164C 55.6055 20.082 56.4961 20.4648 57.5742 20.4648C 58.3398 20.4648 58.9883 20.3086 59.5195 19.9961C 60.0508 19.6836 60.5156 19.2695 60.9141 18.7539L 62.2383 19.7852C 61.1758 21.418 59.582 22.2344 57.457 22.2344ZM 57.1875 10.8672C 56.3125 10.8672 55.5781 11.1875 54.9844 11.8281C 54.3906 12.4609 54.0234 13.3516 53.8828 14.5L 60.2344 14.5L 60.2344 14.3359C 60.1719 13.2344 59.875 12.3828 59.3438 11.7812C 58.8125 11.1719 58.0937 10.8672 57.1875 10.8672ZM 64.8398 15.0742C 64.8398 13.3086 65.0742 11.6133 65.543 9.98828C 66.0195 8.36328 66.7266 6.88672 67.6641 5.55859C 68.6016 4.23047 69.5742 3.29297 70.582 2.74609L 71.0273 4.17578C 69.8867 5.05078 68.9492 6.38672 68.2148 8.18359C 67.4883 9.98047 67.0898 11.9922 67.0195 14.2188L 67.0078 15.2148C 67.0078 18.2305 67.5586 20.8477 68.6602 23.0664C 69.3242 24.3945 70.1133 25.4336 71.0273 26.1836L 70.582 27.5078C 69.543 26.9297 68.5508 25.9609 67.6055 24.6016C 65.7617 21.9453 64.8398 18.7695 64.8398 15.0742ZM 80.0273 22L 77.8477 22L 77.8477 7.55078L 73.4766 9.15625L 73.4766 7.1875L 79.6875 4.85547L 80.0273 4.85547L 80.0273 22ZM 91.6055 15.1914C 91.6055 16.9336 91.375 18.6055 90.9141 20.207C 90.4609 21.8008 89.7617 23.2734 88.8164 24.625C 87.8789 25.9766 86.8945 26.9375 85.8633 27.5078L 85.4062 26.1836C 86.6094 25.2617 87.5742 23.832 88.3008 21.8945C 89.0352 19.9492 89.4102 17.793 89.4258 15.4258L 89.4258 15.0508C 89.4258 13.4102 89.2539 11.8867 88.9102 10.4805C 88.5664 9.06641 88.0859 7.80078 87.4688 6.68359C 86.8594 5.56641 86.1719 4.69531 85.4062 4.07031L 85.8633 2.74609C 86.8945 3.31641 87.875 4.26953 88.8047 5.60547C 89.7422 6.94141 90.4414 8.41406 90.9023 10.0234C 91.3711 11.6328 91.6055 13.3555 91.6055 15.1914Z"/>
<path id="path4_stroke" d="M 175.354 0.353553C 175.549 0.158291 175.549 -0.158291 175.354 -0.353553L 172.172 -3.53553C 171.976 -3.7308 171.66 -3.7308 171.464 -3.53553C 171.269 -3.34027 171.269 -3.02369 171.464 -2.82843L 174.293 0L 171.464 2.82843C 171.269 3.02369 171.269 3.34027 171.464 3.53553C 171.66 3.7308 171.976 3.7308 172.172 3.53553L 175.354 0.353553ZM 0 0.5L 175 0.5L 175 -0.5L 0 -0.5L 0 0.5Z"/>
<path id="path5_fill" d="M 8.23828 15.0977L 4.23047 15.0977L 4.23047 22L 1.96875 22L 1.96875 4.9375L 7.61719 4.9375C 9.53906 4.9375 11.0156 5.375 12.0469 6.25C 13.0859 7.125 13.6055 8.39844 13.6055 10.0703C 13.6055 11.1328 13.3164 12.0586 12.7383 12.8477C 12.168 13.6367 11.3711 14.2266 10.3477 14.6172L 14.3555 21.8594L 14.3555 22L 11.9414 22L 8.23828 15.0977ZM 4.23047 13.2578L 7.6875 13.2578C 8.80469 13.2578 9.69141 12.9688 10.3477 12.3906C 11.0117 11.8125 11.3438 11.0391 11.3438 10.0703C 11.3438 9.01562 11.0273 8.20703 10.3945 7.64453C 9.76953 7.08203 8.86328 6.79688 7.67578 6.78906L 4.23047 6.78906L 4.23047 13.2578ZM 21.6914 22.2344C 19.9727 22.2344 18.5742 21.6719 17.4961 20.5469C 16.418 19.4141 15.8789 17.9023 15.8789 16.0117L 15.8789 15.6133C 15.8789 14.3555 16.1172 13.2344 16.5938 12.25C 17.0781 11.2578 17.75 10.4844 18.6094 9.92969C 19.4766 9.36719 20.4141 9.08594 21.4219 9.08594C 23.0703 9.08594 24.3516 9.62891 25.2656 10.7148C 26.1797 11.8008 26.6367 13.3555 26.6367 15.3789L 26.6367 16.2812L 18.0469 16.2812C 18.0781 17.5312 18.4414 18.543 19.1367 19.3164C 19.8398 20.082 20.7305 20.4648 21.8086 20.4648C 22.5742 20.4648 23.2227 20.3086 23.7539 19.9961C 24.2852 19.6836 24.75 19.2695 25.1484 18.7539L 26.4727 19.7852C 25.4102 21.418 23.8164 22.2344 21.6914 22.2344ZM 21.4219 10.8672C 20.5469 10.8672 19.8125 11.1875 19.2188 11.8281C 18.625 12.4609 18.2578 13.3516 18.1172 14.5L 24.4688 14.5L 24.4688 14.3359C 24.4062 13.2344 24.1094 12.3828 23.5781 11.7812C 23.0469 11.1719 22.3281 10.8672 21.4219 10.8672ZM 39.8672 15.8008C 39.8672 17.7305 39.4258 19.2852 38.543 20.4648C 37.6602 21.6445 36.4648 22.2344 34.957 22.2344C 33.418 22.2344 32.207 21.7461 31.3242 20.7695L 31.3242 26.875L 29.1562 26.875L 29.1562 9.32031L 31.1367 9.32031L 31.2422 10.7266C 32.125 9.63281 33.3516 9.08594 34.9219 9.08594C 36.4453 9.08594 37.6484 9.66016 38.5312 10.8086C 39.4219 11.957 39.8672 13.5547 39.8672 15.6016L 39.8672 15.8008ZM 37.6992 15.5547C 37.6992 14.125 37.3945 12.9961 36.7852 12.168C 36.1758 11.3398 35.3398 10.9258 34.2773 10.9258C 32.9648 10.9258 31.9805 11.5078 31.3242 12.6719L 31.3242 18.7305C 31.9727 19.8867 32.9648 20.4648 34.3008 20.4648C 35.3398 20.4648 36.1641 20.0547 36.7734 19.2344C 37.3906 18.4062 37.6992 17.1797 37.6992 15.5547ZM 48.7617 11.2656C 48.4336 11.2109 48.0781 11.1836 47.6953 11.1836C 46.2734 11.1836 45.3086 11.7891 44.8008 13L 44.8008 22L 42.6328 22L 42.6328 9.32031L 44.7422 9.32031L 44.7773 10.7852C 45.4883 9.65234 46.4961 9.08594 47.8008 9.08594C 48.2227 9.08594 48.543 9.14062 48.7617 9.25L 48.7617 11.2656ZM 55.793 22.2344C 54.0742 22.2344 52.6758 21.6719 51.5977 20.5469C 50.5195 19.4141 49.9805 17.9023 49.9805 16.0117L 49.9805 15.6133C 49.9805 14.3555 50.2188 13.2344 50.6953 12.25C 51.1797 11.2578 51.8516 10.4844 52.7109 9.92969C 53.5781 9.36719 54.5156 9.08594 55.5234 9.08594C 57.1719 9.08594 58.4531 9.62891 59.3672 10.7148C 60.2812 11.8008 60.7383 13.3555 60.7383 15.3789L 60.7383 16.2812L 52.1484 16.2812C 52.1797 17.5312 52.543 18.543 53.2383 19.3164C 53.9414 20.082 54.832 20.4648 55.9102 20.4648C 56.6758 20.4648 57.3242 20.3086 57.8555 19.9961C 58.3867 19.6836 58.8516 19.2695 59.25 18.7539L 60.5742 19.7852C 59.5117 21.418 57.918 22.2344 55.793 22.2344ZM 55.5234 10.8672C 54.6484 10.8672 53.9141 11.1875 53.3203 11.8281C 52.7266 12.4609 52.3594 13.3516 52.2188 14.5L 58.5703 14.5L 58.5703 14.3359C 58.5078 13.2344 58.2109 12.3828 57.6797 11.7812C 57.1484 11.1719 56.4297 10.8672 55.5234 10.8672ZM 70.6406 18.6367C 70.6406 18.0508 70.418 17.5977 69.9727 17.2773C 69.5352 16.9492 68.7656 16.668 67.6641 16.4336C 66.5703 16.1992 65.6992 15.918 65.0508 15.5898C 64.4102 15.2617 63.9336 14.8711 63.6211 14.418C 63.3164 13.9648 63.1641 13.4258 63.1641 12.8008C 63.1641 11.7617 63.6016 10.8828 64.4766 10.1641C 65.3594 9.44531 66.4844 9.08594 67.8516 9.08594C 69.2891 9.08594 70.4531 9.45703 71.3438 10.1992C 72.2422 10.9414 72.6914 11.8906 72.6914 13.0469L 70.5117 13.0469C 70.5117 12.4531 70.2578 11.9414 69.75 11.5117C 69.25 11.082 68.6172 10.8672 67.8516 10.8672C 67.0625 10.8672 66.4453 11.0391 66 11.3828C 65.5547 11.7266 65.332 12.1758 65.332 12.7305C 65.332 13.2539 65.5391 13.6484 65.9531 13.9141C 66.3672 14.1797 67.1133 14.4336 68.1914 14.6758C 69.2773 14.918 70.1562 15.207 70.8281 15.543C 71.5 15.8789 71.9961 16.2852 72.3164 16.7617C 72.6445 17.2305 72.8086 17.8047 72.8086 18.4844C 72.8086 19.6172 72.3555 20.5273 71.4492 21.2148C 70.543 21.8945 69.3672 22.2344 67.9219 22.2344C 66.9062 22.2344 66.0078 22.0547 65.2266 21.6953C 64.4453 21.3359 63.832 20.8359 63.3867 20.1953C 62.9492 19.5469 62.7305 18.8477 62.7305 18.0977L 64.8984 18.0977C 64.9375 18.8242 65.2266 19.4023 65.7656 19.832C 66.3125 20.2539 67.0312 20.4648 67.9219 20.4648C 68.7422 20.4648 69.3984 20.3008 69.8906 19.9727C 70.3906 19.6367 70.6406 19.1914 70.6406 18.6367ZM 80.8945 22.2344C 79.1758 22.2344 77.7773 21.6719 76.6992 20.5469C 75.6211 19.4141 75.082 17.9023 75.082 16.0117L 75.082 15.6133C 75.082 14.3555 75.3203 13.2344 75.7969 12.25C 76.2812 11.2578 76.9531 10.4844 77.8125 9.92969C 78.6797 9.36719 79.6172 9.08594 80.625 9.08594C 82.2734 9.08594 83.5547 9.62891 84.4688 10.7148C 85.3828 11.8008 85.8398 13.3555 85.8398 15.3789L 85.8398 16.2812L 77.25 16.2812C 77.2812 17.5312 77.6445 18.543 78.3398 19.3164C 79.043 20.082 79.9336 20.4648 81.0117 20.4648C 81.7773 20.4648 82.4258 20.3086 82.957 19.9961C 83.4883 19.6836 83.9531 19.2695 84.3516 18.7539L 85.6758 19.7852C 84.6133 21.418 83.0195 22.2344 80.8945 22.2344ZM 80.625 10.8672C 79.75 10.8672 79.0156 11.1875 78.4219 11.8281C 77.8281 12.4609 77.4609 13.3516 77.3203 14.5L 83.6719 14.5L 83.6719 14.3359C 83.6094 13.2344 83.3125 12.3828 82.7812 11.7812C 82.25 11.1719 81.5312 10.8672 80.625 10.8672ZM 90.4102 9.32031L 90.4805 10.9141C 91.4492 9.69531 92.7148 9.08594 94.2773 9.08594C 96.957 9.08594 98.3086 10.5977 98.332 13.6211L 98.332 22L 96.1641 22L 96.1641 13.6094C 96.1562 12.6953 95.9453 12.0195 95.5312 11.582C 95.125 11.1445 94.4883 10.9258 93.6211 10.9258C 92.918 10.9258 92.3008 11.1133 91.7695 11.4883C 91.2383 11.8633 90.8242 12.3555 90.5273 12.9648L 90.5273 22L 88.3594 22L 88.3594 9.32031L 90.4102 9.32031ZM 104.543 6.25L 104.543 9.32031L 106.91 9.32031L 106.91 10.9961L 104.543 10.9961L 104.543 18.8594C 104.543 19.3672 104.648 19.75 104.859 20.0078C 105.07 20.2578 105.43 20.3828 105.938 20.3828C 106.188 20.3828 106.531 20.3359 106.969 20.2422L 106.969 22C 106.398 22.1562 105.844 22.2344 105.305 22.2344C 104.336 22.2344 103.605 21.9414 103.113 21.3555C 102.621 20.7695 102.375 19.9375 102.375 18.8594L 102.375 10.9961L 100.066 10.9961L 100.066 9.32031L 102.375 9.32031L 102.375 6.25L 104.543 6.25ZM 116.836 18.6367C 116.836 18.0508 116.613 17.5977 116.168 17.2773C 115.73 16.9492 114.961 16.668 113.859 16.4336C 112.766 16.1992 111.895 15.918 111.246 15.5898C 110.605 15.2617 110.129 14.8711 109.816 14.418C 109.512 13.9648 109.359 13.4258 109.359 12.8008C 109.359 11.7617 109.797 10.8828 110.672 10.1641C 111.555 9.44531 112.68 9.08594 114.047 9.08594C 115.484 9.08594 116.648 9.45703 117.539 10.1992C 118.438 10.9414 118.887 11.8906 118.887 13.0469L 116.707 13.0469C 116.707 12.4531 116.453 11.9414 115.945 11.5117C 115.445 11.082 114.812 10.8672 114.047 10.8672C 113.258 10.8672 112.641 11.0391 112.195 11.3828C 111.75 11.7266 111.527 12.1758 111.527 12.7305C 111.527 13.2539 111.734 13.6484 112.148 13.9141C 112.562 14.1797 113.309 14.4336 114.387 14.6758C 115.473 14.918 116.352 15.207 117.023 15.543C 117.695 15.8789 118.191 16.2852 118.512 16.7617C 118.84 17.2305 119.004 17.8047 119.004 18.4844C 119.004 19.6172 118.551 20.5273 117.645 21.2148C 116.738 21.8945 115.562 22.2344 114.117 22.2344C 113.102 22.2344 112.203 22.0547 111.422 21.6953C 110.641 21.3359 110.027 20.8359 109.582 20.1953C 109.145 19.5469 108.926 18.8477 108.926 18.0977L 111.094 18.0977C 111.133 18.8242 111.422 19.4023 111.961 19.832C 112.508 20.2539 113.227 20.4648 114.117 20.4648C 114.938 20.4648 115.594 20.3008 116.086 19.9727C 116.586 19.6367 116.836 19.1914 116.836 18.6367ZM 138.258 14.7227C 138.258 17.2617 137.824 19.1484 136.957 20.3828C 136.09 21.6172 134.734 22.2344 132.891 22.2344C 131.07 22.2344 129.723 21.6328 128.848 20.4297C 127.973 19.2188 127.52 17.4141 127.488 15.0156L 127.488 12.1211C 127.488 9.61328 127.922 7.75 128.789 6.53125C 129.656 5.3125 131.016 4.70312 132.867 4.70312C 134.703 4.70312 136.055 5.29297 136.922 6.47266C 137.789 7.64453 138.234 9.45703 138.258 11.9102L 138.258 14.7227ZM 136.09 11.7578C 136.09 9.92188 135.832 8.58594 135.316 7.75C 134.801 6.90625 133.984 6.48438 132.867 6.48438C 131.758 6.48438 130.949 6.90234 130.441 7.73828C 129.934 8.57422 129.672 9.85938 129.656 11.5938L 129.656 15.0625C 129.656 16.9062 129.922 18.2695 130.453 19.1523C 130.992 20.0273 131.805 20.4648 132.891 20.4648C 133.961 20.4648 134.754 20.0508 135.27 19.2227C 135.793 18.3945 136.066 17.0898 136.09 15.3086L 136.09 11.7578Z"/>
<path id="path6_fill" d="M 8.23828 15.0977L 4.23047 15.0977L 4.23047 22L 1.96875 22L 1.96875 4.9375L 7.61719 4.9375C 9.53906 4.9375 11.0156 5.375 12.0469 6.25C 13.0859 7.125 13.6055 8.39844 13.6055 10.0703C 13.6055 11.1328 13.3164 12.0586 12.7383 12.8477C 12.168 13.6367 11.3711 14.2266 10.3477 14.6172L 14.3555 21.8594L 14.3555 22L 11.9414 22L 8.23828 15.0977ZM 4.23047 13.2578L 7.6875 13.2578C 8.80469 13.2578 9.69141 12.9688 10.3477 12.3906C 11.0117 11.8125 11.3438 11.0391 11.3438 10.0703C 11.3438 9.01562 11.0273 8.20703 10.3945 7.64453C 9.76953 7.08203 8.86328 6.79688 7.67578 6.78906L 4.23047 6.78906L 4.23047 13.2578ZM 21.6914 22.2344C 19.9727 22.2344 18.5742 21.6719 17.4961 20.5469C 16.418 19.4141 15.8789 17.9023 15.8789 16.0117L 15.8789 15.6133C 15.8789 14.3555 16.1172 13.2344 16.5938 12.25C 17.0781 11.2578 17.75 10.4844 18.6094 9.92969C 19.4766 9.36719 20.4141 9.08594 21.4219 9.08594C 23.0703 9.08594 24.3516 9.62891 25.2656 10.7148C 26.1797 11.8008 26.6367 13.3555 26.6367 15.3789L 26.6367 16.2812L 18.0469 16.2812C 18.0781 17.5312 18.4414 18.543 19.1367 19.3164C 19.8398 20.082 20.7305 20.4648 21.8086 20.4648C 22.5742 20.4648 23.2227 20.3086 23.7539 19.9961C 24.2852 19.6836 24.75 19.2695 25.1484 18.7539L 26.4727 19.7852C 25.4102 21.418 23.8164 22.2344 21.6914 22.2344ZM 21.4219 10.8672C 20.5469 10.8672 19.8125 11.1875 19.2188 11.8281C 18.625 12.4609 18.2578 13.3516 18.1172 14.5L 24.4688 14.5L 24.4688 14.3359C 24.4062 13.2344 24.1094 12.3828 23.5781 11.7812C 23.0469 11.1719 22.3281 10.8672 21.4219 10.8672ZM 39.8672 15.8008C 39.8672 17.7305 39.4258 19.2852 38.543 20.4648C 37.6602 21.6445 36.4648 22.2344 34.957 22.2344C 33.418 22.2344 32.207 21.7461 31.3242 20.7695L 31.3242 26.875L 29.1562 26.875L 29.1562 9.32031L 31.1367 9.32031L 31.2422 10.7266C 32.125 9.63281 33.3516 9.08594 34.9219 9.08594C 36.4453 9.08594 37.6484 9.66016 38.5312 10.8086C 39.4219 11.957 39.8672 13.5547 39.8672 15.6016L 39.8672 15.8008ZM 37.6992 15.5547C 37.6992 14.125 37.3945 12.9961 36.7852 12.168C 36.1758 11.3398 35.3398 10.9258 34.2773 10.9258C 32.9648 10.9258 31.9805 11.5078 31.3242 12.6719L 31.3242 18.7305C 31.9727 19.8867 32.9648 20.4648 34.3008 20.4648C 35.3398 20.4648 36.1641 20.0547 36.7734 19.2344C 37.3906 18.4062 37.6992 17.1797 37.6992 15.5547ZM 48.7617 11.2656C 48.4336 11.2109 48.0781 11.1836 47.6953 11.1836C 46.2734 11.1836 45.3086 11.7891 44.8008 13L 44.8008 22L 42.6328 22L 42.6328 9.32031L 44.7422 9.32031L 44.7773 10.7852C 45.4883 9.65234 46.4961 9.08594 47.8008 9.08594C 48.2227 9.08594 48.543 9.14062 48.7617 9.25L 48.7617 11.2656ZM 55.793 22.2344C 54.0742 22.2344 52.6758 21.6719 51.5977 20.5469C 50.5195 19.4141 49.9805 17.9023 49.9805 16.0117L 49.9805 15.6133C 49.9805 14.3555 50.2188 13.2344 50.6953 12.25C 51.1797 11.2578 51.8516 10.4844 52.7109 9.92969C 53.5781 9.36719 54.5156 9.08594 55.5234 9.08594C 57.1719 9.08594 58.4531 9.62891 59.3672 10.7148C 60.2812 11.8008 60.7383 13.3555 60.7383 15.3789L 60.7383 16.2812L 52.1484 16.2812C 52.1797 17.5312 52.543 18.543 53.2383 19.3164C 53.9414 20.082 54.832 20.4648 55.9102 20.4648C 56.6758 20.4648 57.3242 20.3086 57.8555 19.9961C 58.3867 19.6836 58.8516 19.2695 59.25 18.7539L 60.5742 19.7852C 59.5117 21.418 57.918 22.2344 55.793 22.2344ZM 55.5234 10.8672C 54.6484 10.8672 53.9141 11.1875 53.3203 11.8281C 52.7266 12.4609 52.3594 13.3516 52.2188 14.5L 58.5703 14.5L 58.5703 14.3359C 58.5078 13.2344 58.2109 12.3828 57.6797 11.7812C 57.1484 11.1719 56.4297 10.8672 55.5234 10.8672ZM 70.6406 18.6367C 70.6406 18.0508 70.418 17.5977 69.9727 17.2773C 69.5352 16.9492 68.7656 16.668 67.6641 16.4336C 66.5703 16.1992 65.6992 15.918 65.0508 15.5898C 64.4102 15.2617 63.9336 14.8711 63.6211 14.418C 63.3164 13.9648 63.1641 13.4258 63.1641 12.8008C 63.1641 11.7617 63.6016 10.8828 64.4766 10.1641C 65.3594 9.44531 66.4844 9.08594 67.8516 9.08594C 69.2891 9.08594 70.4531 9.45703 71.3438 10.1992C 72.2422 10.9414 72.6914 11.8906 72.6914 13.0469L 70.5117 13.0469C 70.5117 12.4531 70.2578 11.9414 69.75 11.5117C 69.25 11.082 68.6172 10.8672 67.8516 10.8672C 67.0625 10.8672 66.4453 11.0391 66 11.3828C 65.5547 11.7266 65.332 12.1758 65.332 12.7305C 65.332 13.2539 65.5391 13.6484 65.9531 13.9141C 66.3672 14.1797 67.1133 14.4336 68.1914 14.6758C 69.2773 14.918 70.1562 15.207 70.8281 15.543C 71.5 15.8789 71.9961 16.2852 72.3164 16.7617C 72.6445 17.2305 72.8086 17.8047 72.8086 18.4844C 72.8086 19.6172 72.3555 20.5273 71.4492 21.2148C 70.543 21.8945 69.3672 22.2344 67.9219 22.2344C 66.9062 22.2344 66.0078 22.0547 65.2266 21.6953C 64.4453 21.3359 63.832 20.8359 63.3867 20.1953C 62.9492 19.5469 62.7305 18.8477 62.7305 18.0977L 64.8984 18.0977C 64.9375 18.8242 65.2266 19.4023 65.7656 19.832C 66.3125 20.2539 67.0312 20.4648 67.9219 20.4648C 68.7422 20.4648 69.3984 20.3008 69.8906 19.9727C 70.3906 19.6367 70.6406 19.1914 70.6406 18.6367ZM 80.8945 22.2344C 79.1758 22.2344 77.7773 21.6719 76.6992 20.5469C 75.6211 19.4141 75.082 17.9023 75.082 16.0117L 75.082 15.6133C 75.082 14.3555 75.3203 13.2344 75.7969 12.25C 76.2812 11.2578 76.9531 10.4844 77.8125 9.92969C 78.6797 9.36719 79.6172 9.08594 80.625 9.08594C 82.2734 9.08594 83.5547 9.62891 84.4688 10.7148C 85.3828 11.8008 85.8398 13.3555 85.8398 15.3789L 85.8398 16.2812L 77.25 16.2812C 77.2812 17.5312 77.6445 18.543 78.3398 19.3164C 79.043 20.082 79.9336 20.4648 81.0117 20.4648C 81.7773 20.4648 82.4258 20.3086 82.957 19.9961C 83.4883 19.6836 83.9531 19.2695 84.3516 18.7539L 85.6758 19.7852C 84.6133 21.418 83.0195 22.2344 80.8945 22.2344ZM 80.625 10.8672C 79.75 10.8672 79.0156 11.1875 78.4219 11.8281C 77.8281 12.4609 77.4609 13.3516 77.3203 14.5L 83.6719 14.5L 83.6719 14.3359C 83.6094 13.2344 83.3125 12.3828 82.7812 11.7812C 82.25 11.1719 81.5312 10.8672 80.625 10.8672ZM 90.4102 9.32031L 90.4805 10.9141C 91.4492 9.69531 92.7148 9.08594 94.2773 9.08594C 96.957 9.08594 98.3086 10.5977 98.332 13.6211L 98.332 22L 96.1641 22L 96.1641 13.6094C 96.1562 12.6953 95.9453 12.0195 95.5312 11.582C 95.125 11.1445 94.4883 10.9258 93.6211 10.9258C 92.918 10.9258 92.3008 11.1133 91.7695 11.4883C 91.2383 11.8633 90.8242 12.3555 90.5273 12.9648L 90.5273 22L 88.3594 22L 88.3594 9.32031L 90.4102 9.32031ZM 104.543 6.25L 104.543 9.32031L 106.91 9.32031L 106.91 10.9961L 104.543 10.9961L 104.543 18.8594C 104.543 19.3672 104.648 19.75 104.859 20.0078C 105.07 20.2578 105.43 20.3828 105.938 20.3828C 106.188 20.3828 106.531 20.3359 106.969 20.2422L 106.969 22C 106.398 22.1562 105.844 22.2344 105.305 22.2344C 104.336 22.2344 103.605 21.9414 103.113 21.3555C 102.621 20.7695 102.375 19.9375 102.375 18.8594L 102.375 10.9961L 100.066 10.9961L 100.066 9.32031L 102.375 9.32031L 102.375 6.25L 104.543 6.25ZM 116.836 18.6367C 116.836 18.0508 116.613 17.5977 116.168 17.2773C 115.73 16.9492 114.961 16.668 113.859 16.4336C 112.766 16.1992 111.895 15.918 111.246 15.5898C 110.605 15.2617 110.129 14.8711 109.816 14.418C 109.512 13.9648 109.359 13.4258 109.359 12.8008C 109.359 11.7617 109.797 10.8828 110.672 10.1641C 111.555 9.44531 112.68 9.08594 114.047 9.08594C 115.484 9.08594 116.648 9.45703 117.539 10.1992C 118.438 10.9414 118.887 11.8906 118.887 13.0469L 116.707 13.0469C 116.707 12.4531 116.453 11.9414 115.945 11.5117C 115.445 11.082 114.812 10.8672 114.047 10.8672C 113.258 10.8672 112.641 11.0391 112.195 11.3828C 111.75 11.7266 111.527 12.1758 111.527 12.7305C 111.527 13.2539 111.734 13.6484 112.148 13.9141C 112.562 14.1797 113.309 14.4336 114.387 14.6758C 115.473 14.918 116.352 15.207 117.023 15.543C 117.695 15.8789 118.191 16.2852 118.512 16.7617C 118.84 17.2305 119.004 17.8047 119.004 18.4844C 119.004 19.6172 118.551 20.5273 117.645 21.2148C 116.738 21.8945 115.562 22.2344 114.117 22.2344C 113.102 22.2344 112.203 22.0547 111.422 21.6953C 110.641 21.3359 110.027 20.8359 109.582 20.1953C 109.145 19.5469 108.926 18.8477 108.926 18.0977L 111.094 18.0977C 111.133 18.8242 111.422 19.4023 111.961 19.832C 112.508 20.2539 113.227 20.4648 114.117 20.4648C 114.938 20.4648 115.594 20.3008 116.086 19.9727C 116.586 19.6367 116.836 19.1914 116.836 18.6367ZM 134.684 22L 132.504 22L 132.504 7.55078L 128.133 9.15625L 128.133 7.1875L 134.344 4.85547L 134.684 4.85547L 134.684 22Z"/>
</defs>
</svg>
