<svg width="394" height="155" viewBox="0 0 394 155" version="1.1" xmlns="http://www.w3.org/2000/svg" xmlns:xlink="http://www.w3.org/1999/xlink" xmlns:figma="http://www.figma.com/figma/ns">
<title>hd_read</title>
<desc>Created using Figma</desc>
<g id="Canvas" transform="translate(397 219)" figma:type="canvas">
<g id="Rectangle" figma:type="rounded-rectangle">
<use xlink:href="#path0_fill" transform="translate(-253 -219)" fill="#EB5757"/>
</g>
<g id="Rectangle" figma:type="rounded-rectangle">
<use xlink:href="#path0_fill" transform="translate(-203 -219)" fill="#2D9CDB"/>
</g>
<g id="Rectangle" figma:type="rounded-rectangle">
<use xlink:href="#path0_fill" transform="translate(-153 -219)" fill="#2D9CDB"/>
</g>
<g id="Rectangle" figma:type="rounded-rectangle">
<use xlink:href="#path0_fill" transform="translate(-103 -219)" fill="#EB5757"/>
</g>
<g id="Rectangle" figma:type="rounded-rectangle">
<use xlink:href="#path0_fill" transform="translate(-53 -219)" fill="#EB5757"/>
</g>
<g id="N" figma:type="text">
<use xlink:href="#path1_fill" transform="translate(-235 -201)"/>
</g>
<g id="S" figma:type="text">
<use xlink:href="#path2_fill" transform="translate(-233 -146)"/>
</g>
<g id="Arrow" figma:type="vector">
<use xlink:href="#path3_stroke" transform="matrix(6.12323e-17 -1 1 6.12323e-17 -227 -153)"/>
</g>
<g id="Arrow" figma:type="vector">
<use xlink:href="#path3_stroke" transform="matrix(6.12323e-17 1 -1 6.12323e-17 -178 -170)"/>
</g>
<g id="N" figma:type="text">
<use xlink:href="#path1_fill" transform="translate(-184 -201)"/>
</g>
<g id="S" figma:type="text">
<use xlink:href="#path2_fill" transform="translate(-182 -146)"/>
</g>
<g id="1" figma:type="text">
<use xlink:href="#path4_fill" transform="translate(-237 -87)"/>
</g>
<g id="0" figma:type="text">
<use xlink:href="#path5_fill" transform="translate(-185 -87)"/>
</g>
<g id="Arrow" figma:type="vector">
<use xlink:href="#path3_stroke" transform="matrix(6.12323e-17 1 -1 6.12323e-17 -128 -170)"/>
</g>
<g id="N" figma:type="text">
<use xlink:href="#path1_fill" transform="translate(-134 -201)"/>
</g>
<g id="S" figma:type="text">
<use xlink:href="#path2_fill" transform="translate(-132 -146)"/>
</g>
<g id="0" figma:type="text">
<use xlink:href="#path5_fill" transform="translate(-135 -87)"/>
</g>
<g id="Arrow" figma:type="vector">
<use xlink:href="#path3_stroke" transform="matrix(6.12323e-17 -1 1 6.12323e-17 -75 -153)"/>
</g>
<g id="N" figma:type="text">
<use xlink:href="#path1_fill" transform="translate(-81 -201)"/>
</g>
<g id="S" figma:type="text">
<use xlink:href="#path2_fill" transform="translate(-79 -146)"/>
</g>
<g id="0" figma:type="text">
<use xlink:href="#path5_fill" transform="translate(-82 -87)"/>
</g>
<g id="Arrow" figma:type="vector">
<use xlink:href="#path3_stroke" transform="matrix(6.12323e-17 -1 1 6.12323e-17 -28 -153)"/>
</g>
<g id="N" figma:type="text">
<use xlink:href="#path1_fill" transform="translate(-34 -201)"/>
</g>
<g id="S" figma:type="text">
<use xlink:href="#path2_fill" transform="translate(-32 -146)"/>
</g>
<g id="0" figma:type="text">
<use xlink:href="#path5_fill" transform="translate(-35 -87)"/>
</g>
<g id="Value Read" figma:type="text">
<use xlink:href="#path6_fill" transform="translate(-397 -87)"/>
</g>
</g>
<defs>
<path id="path0_fill" d="M 0 0L 50 0L 50 100L 0 100L 0 0Z"/>
<path id="path1_fill" d="M 11.3203 17L 9.62402 17L 3.18164 7.13867L 3.18164 17L 1.48535 17L 1.48535 4.20312L 3.18164 4.20312L 9.6416 14.1084L 9.6416 4.20312L 11.3203 4.20312L 11.3203 17Z"/>
<path id="path2_fill" d="M 5.25586 11.2959C 3.80859 10.8799 2.75391 10.3701 2.0918 9.7666C 1.43555 9.15723 1.10742 8.40723 1.10742 7.5166C 1.10742 6.50879 1.50879 5.67676 2.31152 5.02051C 3.12012 4.3584 4.16895 4.02734 5.45801 4.02734C 6.33691 4.02734 7.11914 4.19727 7.80469 4.53711C 8.49609 4.87695 9.0293 5.3457 9.4043 5.94336C 9.78516 6.54102 9.97559 7.19434 9.97559 7.90332L 8.2793 7.90332C 8.2793 7.12988 8.0332 6.52344 7.54102 6.08398C 7.04883 5.63867 6.35449 5.41602 5.45801 5.41602C 4.62598 5.41602 3.97559 5.60059 3.50684 5.96973C 3.04395 6.33301 2.8125 6.83984 2.8125 7.49023C 2.8125 8.01172 3.03223 8.4541 3.47168 8.81738C 3.91699 9.1748 4.66992 9.50293 5.73047 9.80176C 6.79688 10.1006 7.62891 10.4316 8.22656 10.7949C 8.83008 11.1523 9.27539 11.5713 9.5625 12.0518C 9.85547 12.5322 10.002 13.0977 10.002 13.748C 10.002 14.7852 9.59766 15.6172 8.78906 16.2441C 7.98047 16.8652 6.89941 17.1758 5.5459 17.1758C 4.66699 17.1758 3.84668 17.0088 3.08496 16.6748C 2.32324 16.335 1.73438 15.8721 1.31836 15.2861C 0.908203 14.7002 0.703125 14.0352 0.703125 13.291L 2.39941 13.291C 2.39941 14.0645 2.68359 14.6768 3.25195 15.1279C 3.82617 15.5732 4.59082 15.7959 5.5459 15.7959C 6.43652 15.7959 7.11914 15.6143 7.59375 15.251C 8.06836 14.8877 8.30566 14.3926 8.30566 13.7656C 8.30566 13.1387 8.08594 12.6553 7.64648 12.3154C 7.20703 11.9697 6.41016 11.6299 5.25586 11.2959Z"/>
<path id="path3_stroke" d="M 17.3536 0.353553C 17.5488 0.158291 17.5488 -0.158291 17.3536 -0.353553L 14.1716 -3.53553C 13.9763 -3.7308 13.6597 -3.7308 13.4645 -3.53553C 13.2692 -3.34027 13.2692 -3.02369 13.4645 -2.82843L 16.2929 0L 13.4645 2.82843C 13.2692 3.02369 13.2692 3.34027 13.4645 3.53553C 13.6597 3.7308 13.9763 3.7308 14.1716 3.53553L 17.3536 0.353553ZM 0 0.5L 17 0.5L 17 -0.5L 0 -0.5L 0 0.5Z"/>
<path id="path4_fill" d="M 8.54297 22L 6.36328 22L 6.36328 7.55078L 1.99219 9.15625L 1.99219 7.1875L 8.20312 4.85547L 8.54297 4.85547L 8.54297 22Z"/>
<path id="path5_fill" d="M 12.1172 14.7227C 12.1172 17.2617 11.6836 19.1484 10.8164 20.3828C 9.94922 21.6172 8.59375 22.2344 6.75 22.2344C 4.92969 22.2344 3.58203 21.6328 2.70703 20.4297C 1.83203 19.2188 1.37891 17.4141 1.34766 15.0156L 1.34766 12.1211C 1.34766 9.61328 1.78125 7.75 2.64844 6.53125C 3.51562 5.3125 4.875 4.70312 6.72656 4.70312C 8.5625 4.70312 9.91406 5.29297 10.7812 6.47266C 11.6484 7.64453 12.0938 9.45703 12.1172 11.9102L 12.1172 14.7227ZM 9.94922 11.7578C 9.94922 9.92188 9.69141 8.58594 9.17578 7.75C 8.66016 6.90625 7.84375 6.48438 6.72656 6.48438C 5.61719 6.48438 4.80859 6.90234 4.30078 7.73828C 3.79297 8.57422 3.53125 9.85938 3.51562 11.5938L 3.51562 15.0625C 3.51562 16.9062 3.78125 18.2695 4.3125 19.1523C 4.85156 20.0273 5.66406 20.4648 6.75 20.4648C 7.82031 20.4648 8.61328 20.0508 9.12891 19.2227C 9.65234 18.3945 9.92578 17.0898 9.94922 15.3086L 9.94922 11.7578Z"/>
<path id="path6_fill" d="M 7.62891 19.0117L 12.5039 4.9375L 14.9648 4.9375L 8.63672 22L 6.64453 22L 0.328125 4.9375L 2.77734 4.9375L 7.62891 19.0117ZM 24.2109 22C 24.0859 21.75 23.9844 21.3047 23.9062 20.6641C 22.8984 21.7109 21.6953 22.2344 20.2969 22.2344C 19.0469 22.2344 18.0195 21.8828 17.2148 21.1797C 16.418 20.4688 16.0195 19.5703 16.0195 18.4844C 16.0195 17.1641 16.5195 16.1406 17.5195 15.4141C 18.5273 14.6797 19.9414 14.3125 21.7617 14.3125L 23.8711 14.3125L 23.8711 13.3164C 23.8711 12.5586 23.6445 11.957 23.1914 11.5117C 22.7383 11.0586 22.0703 10.832 21.1875 10.832C 20.4141 10.832 19.7656 11.0273 19.2422 11.418C 18.7188 11.8086 18.457 12.2812 18.457 12.8359L 16.2773 12.8359C 16.2773 12.2031 16.5 11.5938 16.9453 11.0078C 17.3984 10.4141 18.0078 9.94531 18.7734 9.60156C 19.5469 9.25781 20.3945 9.08594 21.3164 9.08594C 22.7773 9.08594 23.9219 9.45312 24.75 10.1875C 25.5781 10.9141 26.0078 11.918 26.0391 13.1992L 26.0391 19.0352C 26.0391 20.1992 26.1875 21.125 26.4844 21.8125L 26.4844 22L 24.2109 22ZM 20.6133 20.3477C 21.293 20.3477 21.9375 20.1719 22.5469 19.8203C 23.1562 19.4688 23.5977 19.0117 23.8711 18.4492L 23.8711 15.8477L 22.1719 15.8477C 19.5156 15.8477 18.1875 16.625 18.1875 18.1797C 18.1875 18.8594 18.4141 19.3906 18.8672 19.7734C 19.3203 20.1562 19.9023 20.3477 20.6133 20.3477ZM 31.793 22L 29.625 22L 29.625 4L 31.793 4L 31.793 22ZM 43.1016 20.7461C 42.2578 21.7383 41.0195 22.2344 39.3867 22.2344C 38.0352 22.2344 37.0039 21.8438 36.293 21.0625C 35.5898 20.2734 35.2344 19.1094 35.2266 17.5703L 35.2266 9.32031L 37.3945 9.32031L 37.3945 17.5117C 37.3945 19.4336 38.1758 20.3945 39.7383 20.3945C 41.3945 20.3945 42.4961 19.7773 43.043 18.543L 43.043 9.32031L 45.2109 9.32031L 45.2109 22L 43.1484 22L 43.1016 20.7461ZM 53.7773 22.2344C 52.0586 22.2344 50.6602 21.6719 49.582 20.5469C 48.5039 19.4141 47.9648 17.9023 47.9648 16.0117L 47.9648 15.6133C 47.9648 14.3555 48.2031 13.2344 48.6797 12.25C 49.1641 11.2578 49.8359 10.4844 50.6953 9.92969C 51.5625 9.36719 52.5 9.08594 53.5078 9.08594C 55.1562 9.08594 56.4375 9.62891 57.3516 10.7148C 58.2656 11.8008 58.7227 13.3555 58.7227 15.3789L 58.7227 16.2812L 50.1328 16.2812C 50.1641 17.5312 50.5273 18.543 51.2227 19.3164C 51.9258 20.082 52.8164 20.4648 53.8945 20.4648C 54.6602 20.4648 55.3086 20.3086 55.8398 19.9961C 56.3711 19.6836 56.8359 19.2695 57.2344 18.7539L 58.5586 19.7852C 57.4961 21.418 55.9023 22.2344 53.7773 22.2344ZM 53.5078 10.8672C 52.6328 10.8672 51.8984 11.1875 51.3047 11.8281C 50.7109 12.4609 50.3438 13.3516 50.2031 14.5L 56.5547 14.5L 56.5547 14.3359C 56.4922 13.2344 56.1953 12.3828 55.6641 11.7812C 55.1328 11.1719 54.4141 10.8672 53.5078 10.8672ZM 73.793 15.0977L 69.7852 15.0977L 69.7852 22L 67.5234 22L 67.5234 4.9375L 73.1719 4.9375C 75.0938 4.9375 76.5703 5.375 77.6016 6.25C 78.6406 7.125 79.1602 8.39844 79.1602 10.0703C 79.1602 11.1328 78.8711 12.0586 78.293 12.8477C 77.7227 13.6367 76.9258 14.2266 75.9023 14.6172L 79.9102 21.8594L 79.9102 22L 77.4961 22L 73.793 15.0977ZM 69.7852 13.2578L 73.2422 13.2578C 74.3594 13.2578 75.2461 12.9688 75.9023 12.3906C 76.5664 11.8125 76.8984 11.0391 76.8984 10.0703C 76.8984 9.01562 76.582 8.20703 75.9492 7.64453C 75.3242 7.08203 74.418 6.79688 73.2305 6.78906L 69.7852 6.78906L 69.7852 13.2578ZM 87.2461 22.2344C 85.5273 22.2344 84.1289 21.6719 83.0508 20.5469C 81.9727 19.4141 81.4336 17.9023 81.4336 16.0117L 81.4336 15.6133C 81.4336 14.3555 81.6719 13.2344 82.1484 12.25C 82.6328 11.2578 83.3047 10.4844 84.1641 9.92969C 85.0312 9.36719 85.9688 9.08594 86.9766 9.08594C 88.625 9.08594 89.9062 9.62891 90.8203 10.7148C 91.7344 11.8008 92.1914 13.3555 92.1914 15.3789L 92.1914 16.2812L 83.6016 16.2812C 83.6328 17.5312 83.9961 18.543 84.6914 19.3164C 85.3945 20.082 86.2852 20.4648 87.3633 20.4648C 88.1289 20.4648 88.7773 20.3086 89.3086 19.9961C 89.8398 19.6836 90.3047 19.2695 90.7031 18.7539L 92.0273 19.7852C 90.9648 21.418 89.3711 22.2344 87.2461 22.2344ZM 86.9766 10.8672C 86.1016 10.8672 85.3672 11.1875 84.7734 11.8281C 84.1797 12.4609 83.8125 13.3516 83.6719 14.5L 90.0234 14.5L 90.0234 14.3359C 89.9609 13.2344 89.6641 12.3828 89.1328 11.7812C 88.6016 11.1719 87.8828 10.8672 86.9766 10.8672ZM 102.539 22C 102.414 21.75 102.312 21.3047 102.234 20.6641C 101.227 21.7109 100.023 22.2344 98.625 22.2344C 97.375 22.2344 96.3477 21.8828 95.543 21.1797C 94.7461 20.4688 94.3477 19.5703 94.3477 18.4844C 94.3477 17.1641 94.8477 16.1406 95.8477 15.4141C 96.8555 14.6797 98.2695 14.3125 100.09 14.3125L 102.199 14.3125L 102.199 13.3164C 102.199 12.5586 101.973 11.957 101.52 11.5117C 101.066 11.0586 100.398 10.832 99.5156 10.832C 98.7422 10.832 98.0938 11.0273 97.5703 11.418C 97.0469 11.8086 96.7852 12.2812 96.7852 12.8359L 94.6055 12.8359C 94.6055 12.2031 94.8281 11.5938 95.2734 11.0078C 95.7266 10.4141 96.3359 9.94531 97.1016 9.60156C 97.875 9.25781 98.7227 9.08594 99.6445 9.08594C 101.105 9.08594 102.25 9.45312 103.078 10.1875C 103.906 10.9141 104.336 11.918 104.367 13.1992L 104.367 19.0352C 104.367 20.1992 104.516 21.125 104.812 21.8125L 104.812 22L 102.539 22ZM 98.9414 20.3477C 99.6211 20.3477 100.266 20.1719 100.875 19.8203C 101.484 19.4688 101.926 19.0117 102.199 18.4492L 102.199 15.8477L 100.5 15.8477C 97.8438 15.8477 96.5156 16.625 96.5156 18.1797C 96.5156 18.8594 96.7422 19.3906 97.1953 19.7734C 97.6484 20.1562 98.2305 20.3477 98.9414 20.3477ZM 107.238 15.5547C 107.238 13.6094 107.699 12.0469 108.621 10.8672C 109.543 9.67969 110.75 9.08594 112.242 9.08594C 113.727 9.08594 114.902 9.59375 115.77 10.6094L 115.77 4L 117.938 4L 117.938 22L 115.945 22L 115.84 20.6406C 114.973 21.7031 113.766 22.2344 112.219 22.2344C 110.75 22.2344 109.551 21.6328 108.621 20.4297C 107.699 19.2266 107.238 17.6562 107.238 15.7188L 107.238 15.5547ZM 109.406 15.8008C 109.406 17.2383 109.703 18.3633 110.297 19.1758C 110.891 19.9883 111.711 20.3945 112.758 20.3945C 114.133 20.3945 115.137 19.7773 115.77 18.543L 115.77 12.7188C 115.121 11.5234 114.125 10.9258 112.781 10.9258C 111.719 10.9258 110.891 11.3359 110.297 12.1562C 109.703 12.9766 109.406 14.1914 109.406 15.8008Z"/>
</defs>
</svg>
