<svg width="700" height="305" viewBox="0 0 700 305" version="1.1" xmlns="http://www.w3.org/2000/svg" xmlns:xlink="http://www.w3.org/1999/xlink" xmlns:figma="http://www.figma.com/figma/ns">
<title>hash_table_tuples</title>
<desc>Created using Figma</desc>
<g id="Canvas" transform="translate(615 795)" figma:type="canvas">
<g id="Rectangle" figma:type="rounded-rectangle">
<use xlink:href="#path0_fill" transform="translate(-615 -740)" fill="#C4C4C4"/>
</g>
<g id="a" figma:type="text">
<use xlink:href="#path1_fill" transform="translate(-597 -729)"/>
</g>
<g id="Rectangle" figma:type="rounded-rectangle">
<use xlink:href="#path0_fill" transform="translate(-615 -690)" fill="#C4C4C4"/>
</g>
<g id="b" figma:type="text">
<use xlink:href="#path2_fill" transform="translate(-597 -679)"/>
</g>
<g id="Rectangle" figma:type="rounded-rectangle">
<use xlink:href="#path0_fill" transform="translate(-615 -640)" fill="#C4C4C4"/>
</g>
<g id="c" figma:type="text">
<use xlink:href="#path3_fill" transform="translate(-597 -629)"/>
</g>
<g id="Rectangle" figma:type="rounded-rectangle">
<use xlink:href="#path0_fill" transform="translate(-265 -740)" fill="#C4C4C4"/>
</g>
<g id="0" figma:type="text">
<use xlink:href="#path4_fill" transform="translate(-247 -729)"/>
</g>
<g id="Rectangle" figma:type="rounded-rectangle">
<use xlink:href="#path0_fill" transform="translate(-265 -690)" fill="#C4C4C4"/>
</g>
<g id="1" figma:type="text">
<use xlink:href="#path5_fill" transform="translate(-247 -679)"/>
</g>
<g id="Rectangle" figma:type="rounded-rectangle">
<use xlink:href="#path0_fill" transform="translate(-265 -640)" fill="#C4C4C4"/>
</g>
<g id="2" figma:type="text">
<use xlink:href="#path6_fill" transform="translate(-247 -629)"/>
</g>
<g id="Rectangle" figma:type="rounded-rectangle">
<use xlink:href="#path0_fill" transform="translate(-615 -590)" fill="#C4C4C4"/>
</g>
<g id="d" figma:type="text">
<use xlink:href="#path7_fill" transform="translate(-597 -579)"/>
</g>
<g id="Rectangle" figma:type="rounded-rectangle">
<use xlink:href="#path0_fill" transform="translate(-615 -540)" fill="#C4C4C4"/>
</g>
<g id="e" figma:type="text">
<use xlink:href="#path8_fill" transform="translate(-597 -529)"/>
</g>
<g id="Array" figma:type="text">
<use xlink:href="#path9_fill" transform="translate(-265 -799)"/>
</g>
<g id="Keys" figma:type="text">
<use xlink:href="#path10_fill" transform="translate(-616 -799)"/>
</g>
<g id="Rectangle" figma:type="rounded-rectangle">
<use xlink:href="#path0_fill" transform="translate(-529 -740)" fill="#C4C4C4"/>
</g>
<g id="A" figma:type="text">
<use xlink:href="#path11_fill" transform="translate(-511 -729)"/>
</g>
<g id="Rectangle" figma:type="rounded-rectangle">
<use xlink:href="#path0_fill" transform="translate(-529 -690)" fill="#C4C4C4"/>
</g>
<g id="Z" figma:type="text">
<use xlink:href="#path12_fill" transform="translate(-511 -679)"/>
</g>
<g id="Rectangle" figma:type="rounded-rectangle">
<use xlink:href="#path0_fill" transform="translate(-529 -640)" fill="#C4C4C4"/>
</g>
<g id="E" figma:type="text">
<use xlink:href="#path13_fill" transform="translate(-511 -629)"/>
</g>
<g id="Rectangle" figma:type="rounded-rectangle">
<use xlink:href="#path0_fill" transform="translate(-529 -590)" fill="#C4C4C4"/>
</g>
<g id="L" figma:type="text">
<use xlink:href="#path14_fill" transform="translate(-511 -579)"/>
</g>
<g id="Rectangle" figma:type="rounded-rectangle">
<use xlink:href="#path0_fill" transform="translate(-529 -540)" fill="#C4C4C4"/>
</g>
<g id="H" figma:type="text">
<use xlink:href="#path15_fill" transform="translate(-511 -529)"/>
</g>
<g id="Values" figma:type="text">
<use xlink:href="#path16_fill" transform="translate(-530 -799)"/>
</g>
<g id="Arrow" figma:type="vector">
<use xlink:href="#path17_stroke" transform="matrix(0.888492 -0.458892 0.458892 0.888492 -458 -515)"/>
</g>
<g id="Arrow 2" figma:type="vector">
<use xlink:href="#path18_stroke" transform="translate(-458 -715)"/>
</g>
<g id="Arrow 3" figma:type="vector">
<use xlink:href="#path18_stroke" transform="translate(-458 -665)"/>
</g>
<g id="Arrow 4" figma:type="vector">
<use xlink:href="#path18_stroke" transform="translate(-458 -615)"/>
</g>
<g id="Arrow 5" figma:type="vector">
<use xlink:href="#path19_stroke" transform="matrix(0.968236 -0.250039 0.250039 0.968236 -458 -562)"/>
</g>
<g id="Arrow 6" figma:type="vector">
<use xlink:href="#path20_stroke" transform="translate(-196 -715)"/>
</g>
<g id="[(a, A)]" figma:type="text">
<use xlink:href="#path21_fill" transform="translate(-94 -728)"/>
</g>
<g id="Arrow 7" figma:type="vector">
<use xlink:href="#path20_stroke" transform="translate(-196 -665)"/>
</g>
<g id="[(b,Z)]" figma:type="text">
<use xlink:href="#path22_fill" transform="translate(-94 -679)"/>
</g>
<g id="Arrow 7" figma:type="vector">
<use xlink:href="#path20_stroke" transform="translate(-196 -615)"/>
</g>
<g id="[(c,E), (d,L), (e,H)]" figma:type="text">
<use xlink:href="#path23_fill" transform="translate(-94 -629)"/>
</g>
</g>
<defs>
<path id="path0_fill" d="M 0 0L 50 0L 50 50L 0 50L 0 0Z"/>
<path id="path1_fill" d="M 9.46875 22C 9.34375 21.75 9.24219 21.3047 9.16406 20.6641C 8.15625 21.7109 6.95312 22.2344 5.55469 22.2344C 4.30469 22.2344 3.27734 21.8828 2.47266 21.1797C 1.67578 20.4687 1.27734 19.5703 1.27734 18.4844C 1.27734 17.1641 1.77734 16.1406 2.77734 15.4141C 3.78516 14.6797 5.19922 14.3125 7.01953 14.3125L 9.12891 14.3125L 9.12891 13.3164C 9.12891 12.5586 8.90234 11.957 8.44922 11.5117C 7.99609 11.0586 7.32812 10.832 6.44531 10.832C 5.67188 10.832 5.02344 11.0273 4.5 11.418C 3.97656 11.8086 3.71484 12.2813 3.71484 12.8359L 1.53516 12.8359C 1.53516 12.2031 1.75781 11.5938 2.20312 11.0078C 2.65625 10.4141 3.26562 9.94531 4.03125 9.60156C 4.80469 9.25781 5.65234 9.08594 6.57422 9.08594C 8.03516 9.08594 9.17969 9.45313 10.0078 10.1875C 10.8359 10.9141 11.2656 11.918 11.2969 13.1992L 11.2969 19.0352C 11.2969 20.1992 11.4453 21.125 11.7422 21.8125L 11.7422 22L 9.46875 22ZM 5.87109 20.3477C 6.55078 20.3477 7.19531 20.1719 7.80469 19.8203C 8.41406 19.4688 8.85547 19.0117 9.12891 18.4492L 9.12891 15.8477L 7.42969 15.8477C 4.77344 15.8477 3.44531 16.625 3.44531 18.1797C 3.44531 18.8594 3.67188 19.3906 4.125 19.7734C 4.57812 20.1563 5.16016 20.3477 5.87109 20.3477Z"/>
<path id="path2_fill" d="M 12.375 15.8008C 12.375 17.7383 11.9297 19.2969 11.0391 20.4766C 10.1484 21.6484 8.95312 22.2344 7.45312 22.2344C 5.85156 22.2344 4.61328 21.668 3.73828 20.5352L 3.63281 22L 1.64062 22L 1.64062 4L 3.80859 4L 3.80859 10.7148C 4.68359 9.62891 5.89062 9.08594 7.42969 9.08594C 8.96875 9.08594 10.1758 9.66797 11.0508 10.832C 11.9336 11.9961 12.375 13.5898 12.375 15.6133L 12.375 15.8008ZM 10.207 15.5547C 10.207 14.0781 9.92188 12.9375 9.35156 12.1328C 8.78125 11.3281 7.96094 10.9258 6.89062 10.9258C 5.46094 10.9258 4.43359 11.5898 3.80859 12.918L 3.80859 18.4023C 4.47266 19.7305 5.50781 20.3945 6.91406 20.3945C 7.95313 20.3945 8.76172 19.9922 9.33984 19.1875C 9.91797 18.3828 10.207 17.1719 10.207 15.5547Z"/>
<path id="path3_fill" d="M 6.72656 20.4648C 7.5 20.4648 8.17578 20.2305 8.75391 19.7617C 9.33203 19.293 9.65234 18.707 9.71484 18.0039L 11.7656 18.0039C 11.7266 18.7305 11.4766 19.4219 11.0156 20.0781C 10.5547 20.7344 9.9375 21.2578 9.16406 21.6484C 8.39844 22.0391 7.58594 22.2344 6.72656 22.2344C 5 22.2344 3.625 21.6602 2.60156 20.5117C 1.58594 19.3555 1.07812 17.7773 1.07812 15.7773L 1.07812 15.4141C 1.07812 14.1797 1.30469 13.082 1.75781 12.1211C 2.21094 11.1602 2.85938 10.4141 3.70312 9.88281C 4.55469 9.35156 5.55859 9.08594 6.71484 9.08594C 8.13672 9.08594 9.31641 9.51172 10.2539 10.3633C 11.1992 11.2148 11.7031 12.3203 11.7656 13.6797L 9.71484 13.6797C 9.65234 12.8594 9.33984 12.1875 8.77734 11.6641C 8.22266 11.1328 7.53516 10.8672 6.71484 10.8672C 5.61328 10.8672 4.75781 11.2656 4.14844 12.0625C 3.54687 12.8516 3.24609 13.9961 3.24609 15.4961L 3.24609 15.9062C 3.24609 17.3672 3.54687 18.4922 4.14844 19.2812C 4.75 20.0703 5.60937 20.4648 6.72656 20.4648Z"/>
<path id="path4_fill" d="M 12.1172 14.7227C 12.1172 17.2617 11.6836 19.1484 10.8164 20.3828C 9.94922 21.6172 8.59375 22.2344 6.75 22.2344C 4.92969 22.2344 3.58203 21.6328 2.70703 20.4297C 1.83203 19.2188 1.37891 17.4141 1.34766 15.0156L 1.34766 12.1211C 1.34766 9.61328 1.78125 7.75 2.64844 6.53125C 3.51562 5.3125 4.875 4.70312 6.72656 4.70312C 8.5625 4.70312 9.91406 5.29297 10.7812 6.47266C 11.6484 7.64453 12.0938 9.45703 12.1172 11.9102L 12.1172 14.7227ZM 9.94922 11.7578C 9.94922 9.92188 9.69141 8.58594 9.17578 7.75C 8.66016 6.90625 7.84375 6.48438 6.72656 6.48438C 5.61719 6.48438 4.80859 6.90234 4.30078 7.73828C 3.79297 8.57422 3.53125 9.85938 3.51562 11.5938L 3.51562 15.0625C 3.51562 16.9063 3.78125 18.2695 4.3125 19.1523C 4.85156 20.0273 5.66406 20.4648 6.75 20.4648C 7.82031 20.4648 8.61328 20.0508 9.12891 19.2227C 9.65234 18.3945 9.92578 17.0898 9.94922 15.3086L 9.94922 11.7578Z"/>
<path id="path5_fill" d="M 8.54297 22L 6.36328 22L 6.36328 7.55078L 1.99219 9.15625L 1.99219 7.1875L 8.20312 4.85547L 8.54297 4.85547L 8.54297 22Z"/>
<path id="path6_fill" d="M 12.5977 22L 1.41797 22L 1.41797 20.4414L 7.32422 13.8789C 8.19922 12.8867 8.80078 12.082 9.12891 11.4648C 9.46484 10.8398 9.63281 10.1953 9.63281 9.53125C 9.63281 8.64062 9.36328 7.91016 8.82422 7.33984C 8.28516 6.76953 7.56641 6.48438 6.66797 6.48438C 5.58984 6.48438 4.75 6.79297 4.14844 7.41016C 3.55469 8.01953 3.25781 8.87109 3.25781 9.96484L 1.08984 9.96484C 1.08984 8.39453 1.59375 7.125 2.60156 6.15625C 3.61719 5.1875 4.97266 4.70312 6.66797 4.70312C 8.25391 4.70312 9.50781 5.12109 10.4297 5.95703C 11.3516 6.78516 11.8125 7.89062 11.8125 9.27344C 11.8125 10.9531 10.7422 12.9531 8.60156 15.2734L 4.03125 20.2305L 12.5977 20.2305L 12.5977 22Z"/>
<path id="path7_fill" d="M 1.11328 15.5547C 1.11328 13.6094 1.57422 12.0469 2.49609 10.8672C 3.41797 9.67969 4.625 9.08594 6.11719 9.08594C 7.60156 9.08594 8.77734 9.59375 9.64453 10.6094L 9.64453 4L 11.8125 4L 11.8125 22L 9.82031 22L 9.71484 20.6406C 8.84766 21.7031 7.64062 22.2344 6.09375 22.2344C 4.625 22.2344 3.42578 21.6328 2.49609 20.4297C 1.57422 19.2266 1.11328 17.6563 1.11328 15.7188L 1.11328 15.5547ZM 3.28125 15.8008C 3.28125 17.2383 3.57813 18.3633 4.17188 19.1758C 4.76562 19.9883 5.58594 20.3945 6.63281 20.3945C 8.00781 20.3945 9.01172 19.7773 9.64453 18.543L 9.64453 12.7188C 8.99609 11.5234 8 10.9258 6.65625 10.9258C 5.59375 10.9258 4.76562 11.3359 4.17188 12.1562C 3.57813 12.9766 3.28125 14.1914 3.28125 15.8008Z"/>
<path id="path8_fill" d="M 6.90234 22.2344C 5.18359 22.2344 3.78516 21.6719 2.70703 20.5469C 1.62891 19.4141 1.08984 17.9023 1.08984 16.0117L 1.08984 15.6133C 1.08984 14.3555 1.32813 13.2344 1.80469 12.25C 2.28906 11.2578 2.96094 10.4844 3.82031 9.92969C 4.6875 9.36719 5.625 9.08594 6.63281 9.08594C 8.28125 9.08594 9.5625 9.62891 10.4766 10.7148C 11.3906 11.8008 11.8477 13.3555 11.8477 15.3789L 11.8477 16.2812L 3.25781 16.2812C 3.28906 17.5312 3.65234 18.543 4.34766 19.3164C 5.05078 20.082 5.94141 20.4648 7.01953 20.4648C 7.78516 20.4648 8.43359 20.3086 8.96484 19.9961C 9.49609 19.6836 9.96094 19.2695 10.3594 18.7539L 11.6836 19.7852C 10.6211 21.418 9.02734 22.2344 6.90234 22.2344ZM 6.63281 10.8672C 5.75781 10.8672 5.02344 11.1875 4.42969 11.8281C 3.83594 12.4609 3.46875 13.3516 3.32812 14.5L 9.67969 14.5L 9.67969 14.3359C 9.61719 13.2344 9.32031 12.3828 8.78906 11.7812C 8.25781 11.1719 7.53906 10.8672 6.63281 10.8672Z"/>
<path id="path9_fill" d="M 11.4023 17.5469L 4.25391 17.5469L 2.64844 22L 0.328125 22L 6.84375 4.9375L 8.8125 4.9375L 15.3398 22L 13.0312 22L 11.4023 17.5469ZM 4.93359 15.6953L 10.7344 15.6953L 7.82812 7.71484L 4.93359 15.6953ZM 23.4258 11.2656C 23.0977 11.2109 22.7422 11.1836 22.3594 11.1836C 20.9375 11.1836 19.9727 11.7891 19.4648 13L 19.4648 22L 17.2969 22L 17.2969 9.32031L 19.4062 9.32031L 19.4414 10.7852C 20.1523 9.65234 21.1602 9.08594 22.4648 9.08594C 22.8867 9.08594 23.207 9.14062 23.4258 9.25L 23.4258 11.2656ZM 31.5586 11.2656C 31.2305 11.2109 30.875 11.1836 30.4922 11.1836C 29.0703 11.1836 28.1055 11.7891 27.5977 13L 27.5977 22L 25.4297 22L 25.4297 9.32031L 27.5391 9.32031L 27.5742 10.7852C 28.2852 9.65234 29.293 9.08594 30.5977 9.08594C 31.0195 9.08594 31.3398 9.14062 31.5586 9.25L 31.5586 11.2656ZM 40.9219 22C 40.7969 21.75 40.6953 21.3047 40.6172 20.6641C 39.6094 21.7109 38.4062 22.2344 37.0078 22.2344C 35.7578 22.2344 34.7305 21.8828 33.9258 21.1797C 33.1289 20.4687 32.7305 19.5703 32.7305 18.4844C 32.7305 17.1641 33.2305 16.1406 34.2305 15.4141C 35.2383 14.6797 36.6523 14.3125 38.4727 14.3125L 40.582 14.3125L 40.582 13.3164C 40.582 12.5586 40.3555 11.957 39.9023 11.5117C 39.4492 11.0586 38.7812 10.832 37.8984 10.832C 37.125 10.832 36.4766 11.0273 35.9531 11.418C 35.4297 11.8086 35.168 12.2813 35.168 12.8359L 32.9883 12.8359C 32.9883 12.2031 33.2109 11.5938 33.6562 11.0078C 34.1094 10.4141 34.7187 9.94531 35.4844 9.60156C 36.2578 9.25781 37.1055 9.08594 38.0273 9.08594C 39.4883 9.08594 40.6328 9.45313 41.4609 10.1875C 42.2891 10.9141 42.7187 11.918 42.75 13.1992L 42.75 19.0352C 42.75 20.1992 42.8984 21.125 43.1953 21.8125L 43.1953 22L 40.9219 22ZM 37.3242 20.3477C 38.0039 20.3477 38.6484 20.1719 39.2578 19.8203C 39.8672 19.4688 40.3086 19.0117 40.582 18.4492L 40.582 15.8477L 38.8828 15.8477C 36.2266 15.8477 34.8984 16.625 34.8984 18.1797C 34.8984 18.8594 35.125 19.3906 35.5781 19.7734C 36.0312 20.1563 36.6133 20.3477 37.3242 20.3477ZM 50.1094 18.8242L 53.0625 9.32031L 55.3828 9.32031L 50.2852 23.957C 49.4961 26.0664 48.2422 27.1211 46.5234 27.1211L 46.1133 27.0859L 45.3047 26.9336L 45.3047 25.1758L 45.8906 25.2227C 46.625 25.2227 47.1953 25.0742 47.6016 24.7773C 48.0156 24.4805 48.3555 23.9375 48.6211 23.1484L 49.1016 21.8594L 44.5781 9.32031L 46.9453 9.32031L 50.1094 18.8242Z"/>
<path id="path10_fill" d="M 6.31641 14.0664L 4.23047 16.2344L 4.23047 22L 1.98047 22L 1.98047 4.9375L 4.23047 4.9375L 4.23047 13.375L 11.8125 4.9375L 14.5312 4.9375L 7.81641 12.4727L 15.0586 22L 12.3633 22L 6.31641 14.0664ZM 21.6445 22.2344C 19.9258 22.2344 18.5273 21.6719 17.4492 20.5469C 16.3711 19.4141 15.832 17.9023 15.832 16.0117L 15.832 15.6133C 15.832 14.3555 16.0703 13.2344 16.5469 12.25C 17.0312 11.2578 17.7031 10.4844 18.5625 9.92969C 19.4297 9.36719 20.3672 9.08594 21.375 9.08594C 23.0234 9.08594 24.3047 9.62891 25.2188 10.7148C 26.1328 11.8008 26.5898 13.3555 26.5898 15.3789L 26.5898 16.2812L 18 16.2812C 18.0312 17.5312 18.3945 18.543 19.0898 19.3164C 19.793 20.082 20.6836 20.4648 21.7617 20.4648C 22.5273 20.4648 23.1758 20.3086 23.707 19.9961C 24.2383 19.6836 24.7031 19.2695 25.1016 18.7539L 26.4258 19.7852C 25.3633 21.418 23.7695 22.2344 21.6445 22.2344ZM 21.375 10.8672C 20.5 10.8672 19.7656 11.1875 19.1719 11.8281C 18.5781 12.4609 18.2109 13.3516 18.0703 14.5L 24.4219 14.5L 24.4219 14.3359C 24.3594 13.2344 24.0625 12.3828 23.5312 11.7812C 23 11.1719 22.2812 10.8672 21.375 10.8672ZM 33.0938 18.8242L 36.0469 9.32031L 38.3672 9.32031L 33.2695 23.957C 32.4805 26.0664 31.2266 27.1211 29.5078 27.1211L 29.0977 27.0859L 28.2891 26.9336L 28.2891 25.1758L 28.875 25.2227C 29.6094 25.2227 30.1797 25.0742 30.5859 24.7773C 31 24.4805 31.3398 23.9375 31.6055 23.1484L 32.0859 21.8594L 27.5625 9.32031L 29.9297 9.32031L 33.0938 18.8242ZM 47.6953 18.6367C 47.6953 18.0508 47.4727 17.5977 47.0273 17.2773C 46.5898 16.9492 45.8203 16.668 44.7188 16.4336C 43.625 16.1992 42.7539 15.918 42.1055 15.5898C 41.4648 15.2617 40.9883 14.8711 40.6758 14.418C 40.3711 13.9648 40.2188 13.4258 40.2188 12.8008C 40.2188 11.7617 40.6562 10.8828 41.5312 10.1641C 42.4141 9.44531 43.5391 9.08594 44.9062 9.08594C 46.3438 9.08594 47.5078 9.45703 48.3984 10.1992C 49.2969 10.9414 49.7461 11.8906 49.7461 13.0469L 47.5664 13.0469C 47.5664 12.4531 47.3125 11.9414 46.8047 11.5117C 46.3047 11.082 45.6719 10.8672 44.9062 10.8672C 44.1172 10.8672 43.5 11.0391 43.0547 11.3828C 42.6094 11.7266 42.3867 12.1758 42.3867 12.7305C 42.3867 13.2539 42.5937 13.6484 43.0078 13.9141C 43.4219 14.1797 44.168 14.4336 45.2461 14.6758C 46.332 14.918 47.2109 15.207 47.8828 15.543C 48.5547 15.8789 49.0508 16.2852 49.3711 16.7617C 49.6992 17.2305 49.8633 17.8047 49.8633 18.4844C 49.8633 19.6172 49.4102 20.5273 48.5039 21.2148C 47.5977 21.8945 46.4219 22.2344 44.9766 22.2344C 43.9609 22.2344 43.0625 22.0547 42.2812 21.6953C 41.5 21.3359 40.8867 20.8359 40.4414 20.1953C 40.0039 19.5469 39.7852 18.8477 39.7852 18.0977L 41.9531 18.0977C 41.9922 18.8242 42.2812 19.4023 42.8203 19.832C 43.3672 20.2539 44.0859 20.4648 44.9766 20.4648C 45.7969 20.4648 46.4531 20.3008 46.9453 19.9727C 47.4453 19.6367 47.6953 19.1914 47.6953 18.6367Z"/>
<path id="path11_fill" d="M 11.4023 17.5469L 4.25391 17.5469L 2.64844 22L 0.328125 22L 6.84375 4.9375L 8.8125 4.9375L 15.3398 22L 13.0312 22L 11.4023 17.5469ZM 4.93359 15.6953L 10.7344 15.6953L 7.82812 7.71484L 4.93359 15.6953Z"/>
<path id="path12_fill" d="M 3.66797 20.1602L 13.4297 20.1602L 13.4297 22L 1.00781 22L 1.00781 20.3125L 10.3594 6.78906L 1.16016 6.78906L 1.16016 4.9375L 13.0547 4.9375L 13.0547 6.58984L 3.66797 20.1602Z"/>
<path id="path13_fill" d="M 11.625 14.1133L 4.23047 14.1133L 4.23047 20.1602L 12.8203 20.1602L 12.8203 22L 1.98047 22L 1.98047 4.9375L 12.7031 4.9375L 12.7031 6.78906L 4.23047 6.78906L 4.23047 12.2734L 11.625 12.2734L 11.625 14.1133Z"/>
<path id="path14_fill" d="M 4.24219 20.1602L 12.3281 20.1602L 12.3281 22L 1.98047 22L 1.98047 4.9375L 4.24219 4.9375L 4.24219 20.1602Z"/>
<path id="path15_fill" d="M 15.0938 22L 12.832 22L 12.832 14.1133L 4.23047 14.1133L 4.23047 22L 1.98047 22L 1.98047 4.9375L 4.23047 4.9375L 4.23047 12.2734L 12.832 12.2734L 12.832 4.9375L 15.0938 4.9375L 15.0938 22Z"/>
<path id="path16_fill" d="M 7.62891 19.0117L 12.5039 4.9375L 14.9648 4.9375L 8.63672 22L 6.64453 22L 0.328125 4.9375L 2.77734 4.9375L 7.62891 19.0117ZM 24.2109 22C 24.0859 21.75 23.9844 21.3047 23.9062 20.6641C 22.8984 21.7109 21.6953 22.2344 20.2969 22.2344C 19.0469 22.2344 18.0195 21.8828 17.2148 21.1797C 16.418 20.4687 16.0195 19.5703 16.0195 18.4844C 16.0195 17.1641 16.5195 16.1406 17.5195 15.4141C 18.5273 14.6797 19.9414 14.3125 21.7617 14.3125L 23.8711 14.3125L 23.8711 13.3164C 23.8711 12.5586 23.6445 11.957 23.1914 11.5117C 22.7383 11.0586 22.0703 10.832 21.1875 10.832C 20.4141 10.832 19.7656 11.0273 19.2422 11.418C 18.7188 11.8086 18.457 12.2813 18.457 12.8359L 16.2773 12.8359C 16.2773 12.2031 16.5 11.5938 16.9453 11.0078C 17.3984 10.4141 18.0078 9.94531 18.7734 9.60156C 19.5469 9.25781 20.3945 9.08594 21.3164 9.08594C 22.7773 9.08594 23.9219 9.45313 24.75 10.1875C 25.5781 10.9141 26.0078 11.918 26.0391 13.1992L 26.0391 19.0352C 26.0391 20.1992 26.1875 21.125 26.4844 21.8125L 26.4844 22L 24.2109 22ZM 20.6133 20.3477C 21.293 20.3477 21.9375 20.1719 22.5469 19.8203C 23.1562 19.4688 23.5977 19.0117 23.8711 18.4492L 23.8711 15.8477L 22.1719 15.8477C 19.5156 15.8477 18.1875 16.625 18.1875 18.1797C 18.1875 18.8594 18.4141 19.3906 18.8672 19.7734C 19.3203 20.1563 19.9023 20.3477 20.6133 20.3477ZM 31.793 22L 29.625 22L 29.625 4L 31.793 4L 31.793 22ZM 43.1016 20.7461C 42.2578 21.7383 41.0195 22.2344 39.3867 22.2344C 38.0352 22.2344 37.0039 21.8438 36.293 21.0625C 35.5898 20.2734 35.2344 19.1094 35.2266 17.5703L 35.2266 9.32031L 37.3945 9.32031L 37.3945 17.5117C 37.3945 19.4336 38.1758 20.3945 39.7383 20.3945C 41.3945 20.3945 42.4961 19.7773 43.043 18.543L 43.043 9.32031L 45.2109 9.32031L 45.2109 22L 43.1484 22L 43.1016 20.7461ZM 53.7773 22.2344C 52.0586 22.2344 50.6602 21.6719 49.582 20.5469C 48.5039 19.4141 47.9648 17.9023 47.9648 16.0117L 47.9648 15.6133C 47.9648 14.3555 48.2031 13.2344 48.6797 12.25C 49.1641 11.2578 49.8359 10.4844 50.6953 9.92969C 51.5625 9.36719 52.5 9.08594 53.5078 9.08594C 55.1563 9.08594 56.4375 9.62891 57.3516 10.7148C 58.2656 11.8008 58.7227 13.3555 58.7227 15.3789L 58.7227 16.2812L 50.1328 16.2812C 50.1641 17.5312 50.5273 18.543 51.2227 19.3164C 51.9258 20.082 52.8164 20.4648 53.8945 20.4648C 54.6602 20.4648 55.3086 20.3086 55.8398 19.9961C 56.3711 19.6836 56.8359 19.2695 57.2344 18.7539L 58.5586 19.7852C 57.4961 21.418 55.9023 22.2344 53.7773 22.2344ZM 53.5078 10.8672C 52.6328 10.8672 51.8984 11.1875 51.3047 11.8281C 50.7109 12.4609 50.3438 13.3516 50.2031 14.5L 56.5547 14.5L 56.5547 14.3359C 56.4922 13.2344 56.1953 12.3828 55.6641 11.7812C 55.1328 11.1719 54.4141 10.8672 53.5078 10.8672ZM 68.625 18.6367C 68.625 18.0508 68.4023 17.5977 67.957 17.2773C 67.5195 16.9492 66.75 16.668 65.6484 16.4336C 64.5547 16.1992 63.6836 15.918 63.0352 15.5898C 62.3945 15.2617 61.918 14.8711 61.6055 14.418C 61.3008 13.9648 61.1484 13.4258 61.1484 12.8008C 61.1484 11.7617 61.5859 10.8828 62.4609 10.1641C 63.3438 9.44531 64.4688 9.08594 65.8359 9.08594C 67.2734 9.08594 68.4375 9.45703 69.3281 10.1992C 70.2266 10.9414 70.6758 11.8906 70.6758 13.0469L 68.4961 13.0469C 68.4961 12.4531 68.2422 11.9414 67.7344 11.5117C 67.2344 11.082 66.6016 10.8672 65.8359 10.8672C 65.0469 10.8672 64.4297 11.0391 63.9844 11.3828C 63.5391 11.7266 63.3164 12.1758 63.3164 12.7305C 63.3164 13.2539 63.5234 13.6484 63.9375 13.9141C 64.3516 14.1797 65.0977 14.4336 66.1758 14.6758C 67.2617 14.918 68.1406 15.207 68.8125 15.543C 69.4844 15.8789 69.9805 16.2852 70.3008 16.7617C 70.6289 17.2305 70.793 17.8047 70.793 18.4844C 70.793 19.6172 70.3398 20.5273 69.4336 21.2148C 68.5273 21.8945 67.3516 22.2344 65.9062 22.2344C 64.8906 22.2344 63.9922 22.0547 63.2109 21.6953C 62.4297 21.3359 61.8164 20.8359 61.3711 20.1953C 60.9336 19.5469 60.7148 18.8477 60.7148 18.0977L 62.8828 18.0977C 62.9219 18.8242 63.2109 19.4023 63.75 19.832C 64.2969 20.2539 65.0156 20.4648 65.9062 20.4648C 66.7266 20.4648 67.3828 20.3008 67.875 19.9727C 68.375 19.6367 68.625 19.1914 68.625 18.6367Z"/>
<path id="path17_stroke" d="M 205.195 0.353553C 205.39 0.158291 205.39 -0.158291 205.195 -0.353553L 202.013 -3.53553C 201.818 -3.7308 201.501 -3.7308 201.306 -3.53553C 201.111 -3.34027 201.111 -3.02369 201.306 -2.82843L 204.134 0L 201.306 2.82843C 201.111 3.02369 201.111 3.34027 201.306 3.53553C 201.501 3.7308 201.818 3.7308 202.013 3.53553L 205.195 0.353553ZM 0 0.5L 204.841 0.5L 204.841 -0.5L 0 -0.5L 0 0.5Z"/>
<path id="path18_stroke" d="M 182.354 0.353553C 182.549 0.158291 182.549 -0.158291 182.354 -0.353553L 179.172 -3.53553C 178.976 -3.7308 178.66 -3.7308 178.464 -3.53553C 178.269 -3.34027 178.269 -3.02369 178.464 -2.82843L 181.293 0L 178.464 2.82843C 178.269 3.02369 178.269 3.34027 178.464 3.53553C 178.66 3.7308 178.976 3.7308 179.172 3.53553L 182.354 0.353553ZM 0 0.5L 182 0.5L 182 -0.5L 0 -0.5L 0 0.5Z"/>
<path id="path19_stroke" d="M 188.324 0.353553C 188.52 0.158291 188.52 -0.158291 188.324 -0.353553L 185.142 -3.53553C 184.947 -3.7308 184.63 -3.7308 184.435 -3.53553C 184.24 -3.34027 184.24 -3.02369 184.435 -2.82843L 187.264 0L 184.435 2.82843C 184.24 3.02369 184.24 3.34027 184.435 3.53553C 184.63 3.7308 184.947 3.7308 185.142 3.53553L 188.324 0.353553ZM 0 0.5L 187.971 0.5L 187.971 -0.5L 0 -0.5L 0 0.5Z"/>
<path id="path20_stroke" d="M 80.3536 0.353553C 80.5488 0.158291 80.5488 -0.158291 80.3536 -0.353553L 77.1716 -3.53553C 76.9763 -3.7308 76.6597 -3.7308 76.4645 -3.53553C 76.2692 -3.34027 76.2692 -3.02369 76.4645 -2.82843L 79.2929 0L 76.4645 2.82843C 76.2692 3.02369 76.2692 3.34027 76.4645 3.53553C 76.6597 3.7308 76.9763 3.7308 77.1716 3.53553L 80.3536 0.353553ZM 0 0.5L 80 0.5L 80 -0.5L 0 -0.5L 0 0.5Z"/>
<path id="path21_fill" d="M 6.12891 4.28125L 3.89062 4.28125L 3.89062 23.875L 6.12891 23.875L 6.12891 25.6562L 1.71094 25.6562L 1.71094 2.5L 6.12891 2.5L 6.12891 4.28125ZM 7.93359 15.0742C 7.93359 13.3086 8.16797 11.6133 8.63672 9.98828C 9.11328 8.36328 9.82031 6.88672 10.7578 5.55859C 11.6953 4.23047 12.668 3.29297 13.6758 2.74609L 14.1211 4.17578C 12.9805 5.05078 12.043 6.38672 11.3086 8.18359C 10.582 9.98047 10.1836 11.9922 10.1133 14.2188L 10.1016 15.2148C 10.1016 18.2305 10.6523 20.8477 11.7539 23.0664C 12.418 24.3945 13.207 25.4336 14.1211 26.1836L 13.6758 27.5078C 12.6367 26.9297 11.6445 25.9609 10.6992 24.6016C 8.85547 21.9453 7.93359 18.7695 7.93359 15.0742ZM 24.0469 22C 23.9219 21.75 23.8203 21.3047 23.7422 20.6641C 22.7344 21.7109 21.5312 22.2344 20.1328 22.2344C 18.8828 22.2344 17.8555 21.8828 17.0508 21.1797C 16.2539 20.4687 15.8555 19.5703 15.8555 18.4844C 15.8555 17.1641 16.3555 16.1406 17.3555 15.4141C 18.3633 14.6797 19.7773 14.3125 21.5977 14.3125L 23.707 14.3125L 23.707 13.3164C 23.707 12.5586 23.4805 11.957 23.0273 11.5117C 22.5742 11.0586 21.9062 10.832 21.0234 10.832C 20.25 10.832 19.6016 11.0273 19.0781 11.418C 18.5547 11.8086 18.293 12.2813 18.293 12.8359L 16.1133 12.8359C 16.1133 12.2031 16.3359 11.5938 16.7812 11.0078C 17.2344 10.4141 17.8437 9.94531 18.6094 9.60156C 19.3828 9.25781 20.2305 9.08594 21.1523 9.08594C 22.6133 9.08594 23.7578 9.45313 24.5859 10.1875C 25.4141 10.9141 25.8437 11.918 25.875 13.1992L 25.875 19.0352C 25.875 20.1992 26.0234 21.125 26.3203 21.8125L 26.3203 22L 24.0469 22ZM 20.4492 20.3477C 21.1289 20.3477 21.7734 20.1719 22.3828 19.8203C 22.9922 19.4688 23.4336 19.0117 23.707 18.4492L 23.707 15.8477L 22.0078 15.8477C 19.3516 15.8477 18.0234 16.625 18.0234 18.1797C 18.0234 18.8594 18.25 19.3906 18.7031 19.7734C 19.1562 20.1563 19.7383 20.3477 20.4492 20.3477ZM 29.2031 25.3984L 27.9727 24.5547C 28.707 23.5313 29.0898 22.4766 29.1211 21.3906L 29.1211 19.4336L 31.2422 19.4336L 31.2422 21.1328C 31.2422 21.9219 31.0469 22.7109 30.6562 23.5C 30.2734 24.2891 29.7891 24.9219 29.2031 25.3984ZM 49.6992 17.5469L 42.5508 17.5469L 40.9453 22L 38.625 22L 45.1406 4.9375L 47.1094 4.9375L 53.6367 22L 51.3281 22L 49.6992 17.5469ZM 43.2305 15.6953L 49.0312 15.6953L 46.125 7.71484L 43.2305 15.6953ZM 60.5977 15.1914C 60.5977 16.9336 60.3672 18.6055 59.9062 20.207C 59.4531 21.8008 58.7539 23.2734 57.8086 24.625C 56.8711 25.9766 55.8867 26.9375 54.8555 27.5078L 54.3984 26.1836C 55.6016 25.2617 56.5664 23.832 57.293 21.8945C 58.0273 19.9492 58.4023 17.793 58.418 15.4258L 58.418 15.0508C 58.418 13.4102 58.2461 11.8867 57.9023 10.4805C 57.5586 9.06641 57.0781 7.80078 56.4609 6.68359C 55.8516 5.56641 55.1641 4.69531 54.3984 4.07031L 54.8555 2.74609C 55.8867 3.31641 56.8672 4.26953 57.7969 5.60547C 58.7344 6.94141 59.4336 8.41406 59.8945 10.0234C 60.3633 11.6328 60.5977 13.3555 60.5977 15.1914ZM 62.4023 2.5L 66.832 2.5L 66.832 25.6562L 62.4023 25.6562L 62.4023 23.875L 64.6641 23.875L 64.6641 4.28125L 62.4023 4.28125L 62.4023 2.5Z"/>
<path id="path22_fill" d="M 6.12891 4.28125L 3.89062 4.28125L 3.89062 23.875L 6.12891 23.875L 6.12891 25.6562L 1.71094 25.6562L 1.71094 2.5L 6.12891 2.5L 6.12891 4.28125ZM 7.93359 15.0742C 7.93359 13.3086 8.16797 11.6133 8.63672 9.98828C 9.11328 8.36328 9.82031 6.88672 10.7578 5.55859C 11.6953 4.23047 12.668 3.29297 13.6758 2.74609L 14.1211 4.17578C 12.9805 5.05078 12.043 6.38672 11.3086 8.18359C 10.582 9.98047 10.1836 11.9922 10.1133 14.2188L 10.1016 15.2148C 10.1016 18.2305 10.6523 20.8477 11.7539 23.0664C 12.418 24.3945 13.207 25.4336 14.1211 26.1836L 13.6758 27.5078C 12.6367 26.9297 11.6445 25.9609 10.6992 24.6016C 8.85547 21.9453 7.93359 18.7695 7.93359 15.0742ZM 26.9531 15.8008C 26.9531 17.7383 26.5078 19.2969 25.6172 20.4766C 24.7266 21.6484 23.5312 22.2344 22.0312 22.2344C 20.4297 22.2344 19.1914 21.668 18.3164 20.5352L 18.2109 22L 16.2188 22L 16.2188 4L 18.3867 4L 18.3867 10.7148C 19.2617 9.62891 20.4687 9.08594 22.0078 9.08594C 23.5469 9.08594 24.7539 9.66797 25.6289 10.832C 26.5117 11.9961 26.9531 13.5898 26.9531 15.6133L 26.9531 15.8008ZM 24.7852 15.5547C 24.7852 14.0781 24.5 12.9375 23.9297 12.1328C 23.3594 11.3281 22.5391 10.9258 21.4688 10.9258C 20.0391 10.9258 19.0117 11.5898 18.3867 12.918L 18.3867 18.4023C 19.0508 19.7305 20.0859 20.3945 21.4922 20.3945C 22.5313 20.3945 23.3398 19.9922 23.918 19.1875C 24.4961 18.3828 24.7852 17.1719 24.7852 15.5547ZM 29.625 25.3984L 28.3945 24.5547C 29.1289 23.5313 29.5117 22.4766 29.543 21.3906L 29.543 19.4336L 31.6641 19.4336L 31.6641 21.1328C 31.6641 21.9219 31.4688 22.7109 31.0781 23.5C 30.6953 24.2891 30.2109 24.9219 29.625 25.3984ZM 36.4336 20.1602L 46.1953 20.1602L 46.1953 22L 33.7734 22L 33.7734 20.3125L 43.125 6.78906L 33.9258 6.78906L 33.9258 4.9375L 45.8203 4.9375L 45.8203 6.58984L 36.4336 20.1602ZM 53.7773 15.1914C 53.7773 16.9336 53.5469 18.6055 53.0859 20.207C 52.6328 21.8008 51.9336 23.2734 50.9883 24.625C 50.0508 25.9766 49.0664 26.9375 48.0352 27.5078L 47.5781 26.1836C 48.7813 25.2617 49.7461 23.832 50.4727 21.8945C 51.207 19.9492 51.582 17.793 51.5977 15.4258L 51.5977 15.0508C 51.5977 13.4102 51.4258 11.8867 51.082 10.4805C 50.7383 9.06641 50.2578 7.80078 49.6406 6.68359C 49.0312 5.56641 48.3438 4.69531 47.5781 4.07031L 48.0352 2.74609C 49.0664 3.31641 50.0469 4.26953 50.9766 5.60547C 51.9141 6.94141 52.6133 8.41406 53.0742 10.0234C 53.543 11.6328 53.7773 13.3555 53.7773 15.1914ZM 55.582 2.5L 60.0117 2.5L 60.0117 25.6562L 55.582 25.6562L 55.582 23.875L 57.8438 23.875L 57.8438 4.28125L 55.582 4.28125L 55.582 2.5Z"/>
<path id="path23_fill" d="M 6.12891 4.28125L 3.89062 4.28125L 3.89062 23.875L 6.12891 23.875L 6.12891 25.6562L 1.71094 25.6562L 1.71094 2.5L 6.12891 2.5L 6.12891 4.28125ZM 7.93359 15.0742C 7.93359 13.3086 8.16797 11.6133 8.63672 9.98828C 9.11328 8.36328 9.82031 6.88672 10.7578 5.55859C 11.6953 4.23047 12.668 3.29297 13.6758 2.74609L 14.1211 4.17578C 12.9805 5.05078 12.043 6.38672 11.3086 8.18359C 10.582 9.98047 10.1836 11.9922 10.1133 14.2188L 10.1016 15.2148C 10.1016 18.2305 10.6523 20.8477 11.7539 23.0664C 12.418 24.3945 13.207 25.4336 14.1211 26.1836L 13.6758 27.5078C 12.6367 26.9297 11.6445 25.9609 10.6992 24.6016C 8.85547 21.9453 7.93359 18.7695 7.93359 15.0742ZM 21.3047 20.4648C 22.0781 20.4648 22.7539 20.2305 23.332 19.7617C 23.9102 19.293 24.2305 18.707 24.293 18.0039L 26.3438 18.0039C 26.3047 18.7305 26.0547 19.4219 25.5938 20.0781C 25.1328 20.7344 24.5156 21.2578 23.7422 21.6484C 22.9766 22.0391 22.1641 22.2344 21.3047 22.2344C 19.5781 22.2344 18.2031 21.6602 17.1797 20.5117C 16.1641 19.3555 15.6562 17.7773 15.6562 15.7773L 15.6562 15.4141C 15.6562 14.1797 15.8828 13.082 16.3359 12.1211C 16.7891 11.1602 17.4375 10.4141 18.2812 9.88281C 19.1328 9.35156 20.1367 9.08594 21.293 9.08594C 22.7148 9.08594 23.8945 9.51172 24.832 10.3633C 25.7773 11.2148 26.2813 12.3203 26.3438 13.6797L 24.293 13.6797C 24.2305 12.8594 23.918 12.1875 23.3555 11.6641C 22.8008 11.1328 22.1133 10.8672 21.293 10.8672C 20.1914 10.8672 19.3359 11.2656 18.7266 12.0625C 18.125 12.8516 17.8242 13.9961 17.8242 15.4961L 17.8242 15.9062C 17.8242 17.3672 18.125 18.4922 18.7266 19.2812C 19.3281 20.0703 20.1875 20.4648 21.3047 20.4648ZM 28.7109 25.3984L 27.4805 24.5547C 28.2148 23.5313 28.5977 22.4766 28.6289 21.3906L 28.6289 19.4336L 30.75 19.4336L 30.75 21.1328C 30.75 21.9219 30.5547 22.7109 30.1641 23.5C 29.7812 24.2891 29.2969 24.9219 28.7109 25.3984ZM 43.4766 14.1133L 36.082 14.1133L 36.082 20.1602L 44.6719 20.1602L 44.6719 22L 33.832 22L 33.832 4.9375L 44.5547 4.9375L 44.5547 6.78906L 36.082 6.78906L 36.082 12.2734L 43.4766 12.2734L 43.4766 14.1133ZM 52.1367 15.1914C 52.1367 16.9336 51.9062 18.6055 51.4453 20.207C 50.9922 21.8008 50.293 23.2734 49.3477 24.625C 48.4102 25.9766 47.4258 26.9375 46.3945 27.5078L 45.9375 26.1836C 47.1406 25.2617 48.1055 23.832 48.832 21.8945C 49.5664 19.9492 49.9414 17.793 49.957 15.4258L 49.957 15.0508C 49.957 13.4102 49.7852 11.8867 49.4414 10.4805C 49.0977 9.06641 48.6172 7.80078 48 6.68359C 47.3906 5.56641 46.7031 4.69531 45.9375 4.07031L 46.3945 2.74609C 47.4258 3.31641 48.4063 4.26953 49.3359 5.60547C 50.2734 6.94141 50.9727 8.41406 51.4336 10.0234C 51.9023 11.6328 52.1367 13.3555 52.1367 15.1914ZM 55.4062 25.3984L 54.1758 24.5547C 54.9102 23.5313 55.293 22.4766 55.3242 21.3906L 55.3242 19.4336L 57.4453 19.4336L 57.4453 21.1328C 57.4453 21.9219 57.25 22.7109 56.8594 23.5C 56.4766 24.2891 55.9922 24.9219 55.4062 25.3984ZM 66.0586 15.0742C 66.0586 13.3086 66.293 11.6133 66.7617 9.98828C 67.2383 8.36328 67.9453 6.88672 68.8828 5.55859C 69.8203 4.23047 70.793 3.29297 71.8008 2.74609L 72.2461 4.17578C 71.1055 5.05078 70.168 6.38672 69.4336 8.18359C 68.707 9.98047 68.3086 11.9922 68.2383 14.2188L 68.2266 15.2148C 68.2266 18.2305 68.7773 20.8477 69.8789 23.0664C 70.543 24.3945 71.332 25.4336 72.2461 26.1836L 71.8008 27.5078C 70.7617 26.9297 69.7695 25.9609 68.8242 24.6016C 66.9805 21.9453 66.0586 18.7695 66.0586 15.0742ZM 73.8164 15.5547C 73.8164 13.6094 74.2773 12.0469 75.1992 10.8672C 76.1211 9.67969 77.3281 9.08594 78.8203 9.08594C 80.3047 9.08594 81.4805 9.59375 82.3477 10.6094L 82.3477 4L 84.5156 4L 84.5156 22L 82.5234 22L 82.418 20.6406C 81.5508 21.7031 80.3438 22.2344 78.7969 22.2344C 77.3281 22.2344 76.1289 21.6328 75.1992 20.4297C 74.2773 19.2266 73.8164 17.6563 73.8164 15.7188L 73.8164 15.5547ZM 75.9844 15.8008C 75.9844 17.2383 76.2813 18.3633 76.875 19.1758C 77.4687 19.9883 78.2891 20.3945 79.3359 20.3945C 80.7109 20.3945 81.7148 19.7773 82.3477 18.543L 82.3477 12.7188C 81.6992 11.5234 80.7031 10.9258 79.3594 10.9258C 78.2969 10.9258 77.4687 11.3359 76.875 12.1562C 76.2813 12.9766 75.9844 14.1914 75.9844 15.8008ZM 87.8203 25.3984L 86.5898 24.5547C 87.3242 23.5313 87.707 22.4766 87.7383 21.3906L 87.7383 19.4336L 89.8594 19.4336L 89.8594 21.1328C 89.8594 21.9219 89.6641 22.7109 89.2734 23.5C 88.8906 24.2891 88.4062 24.9219 87.8203 25.3984ZM 95.2031 20.1602L 103.289 20.1602L 103.289 22L 92.9414 22L 92.9414 4.9375L 95.2031 4.9375L 95.2031 20.1602ZM 110.52 15.1914C 110.52 16.9336 110.289 18.6055 109.828 20.207C 109.375 21.8008 108.676 23.2734 107.73 24.625C 106.793 25.9766 105.809 26.9375 104.777 27.5078L 104.32 26.1836C 105.523 25.2617 106.488 23.832 107.215 21.8945C 107.949 19.9492 108.324 17.793 108.34 15.4258L 108.34 15.0508C 108.34 13.4102 108.168 11.8867 107.824 10.4805C 107.48 9.06641 107 7.80078 106.383 6.68359C 105.773 5.56641 105.086 4.69531 104.32 4.07031L 104.777 2.74609C 105.809 3.31641 106.789 4.26953 107.719 5.60547C 108.656 6.94141 109.355 8.41406 109.816 10.0234C 110.285 11.6328 110.52 13.3555 110.52 15.1914ZM 113.789 25.3984L 112.559 24.5547C 113.293 23.5313 113.676 22.4766 113.707 21.3906L 113.707 19.4336L 115.828 19.4336L 115.828 21.1328C 115.828 21.9219 115.633 22.7109 115.242 23.5C 114.859 24.2891 114.375 24.9219 113.789 25.3984ZM 124.441 15.0742C 124.441 13.3086 124.676 11.6133 125.145 9.98828C 125.621 8.36328 126.328 6.88672 127.266 5.55859C 128.203 4.23047 129.176 3.29297 130.184 2.74609L 130.629 4.17578C 129.488 5.05078 128.551 6.38672 127.816 8.18359C 127.09 9.98047 126.691 11.9922 126.621 14.2188L 126.609 15.2148C 126.609 18.2305 127.16 20.8477 128.262 23.0664C 128.926 24.3945 129.715 25.4336 130.629 26.1836L 130.184 27.5078C 129.145 26.9297 128.152 25.9609 127.207 24.6016C 125.363 21.9453 124.441 18.7695 124.441 15.0742ZM 137.988 22.2344C 136.27 22.2344 134.871 21.6719 133.793 20.5469C 132.715 19.4141 132.176 17.9023 132.176 16.0117L 132.176 15.6133C 132.176 14.3555 132.414 13.2344 132.891 12.25C 133.375 11.2578 134.047 10.4844 134.906 9.92969C 135.773 9.36719 136.711 9.08594 137.719 9.08594C 139.367 9.08594 140.648 9.62891 141.562 10.7148C 142.477 11.8008 142.934 13.3555 142.934 15.3789L 142.934 16.2812L 134.344 16.2812C 134.375 17.5312 134.738 18.543 135.434 19.3164C 136.137 20.082 137.027 20.4648 138.105 20.4648C 138.871 20.4648 139.52 20.3086 140.051 19.9961C 140.582 19.6836 141.047 19.2695 141.445 18.7539L 142.77 19.7852C 141.707 21.418 140.113 22.2344 137.988 22.2344ZM 137.719 10.8672C 136.844 10.8672 136.109 11.1875 135.516 11.8281C 134.922 12.4609 134.555 13.3516 134.414 14.5L 140.766 14.5L 140.766 14.3359C 140.703 13.2344 140.406 12.3828 139.875 11.7812C 139.344 11.1719 138.625 10.8672 137.719 10.8672ZM 145.383 25.3984L 144.152 24.5547C 144.887 23.5313 145.27 22.4766 145.301 21.3906L 145.301 19.4336L 147.422 19.4336L 147.422 21.1328C 147.422 21.9219 147.227 22.7109 146.836 23.5C 146.453 24.2891 145.969 24.9219 145.383 25.3984ZM 163.617 22L 161.355 22L 161.355 14.1133L 152.754 14.1133L 152.754 22L 150.504 22L 150.504 4.9375L 152.754 4.9375L 152.754 12.2734L 161.355 12.2734L 161.355 4.9375L 163.617 4.9375L 163.617 22ZM 172.277 15.1914C 172.277 16.9336 172.047 18.6055 171.586 20.207C 171.133 21.8008 170.434 23.2734 169.488 24.625C 168.551 25.9766 167.566 26.9375 166.535 27.5078L 166.078 26.1836C 167.281 25.2617 168.246 23.832 168.973 21.8945C 169.707 19.9492 170.082 17.793 170.098 15.4258L 170.098 15.0508C 170.098 13.4102 169.926 11.8867 169.582 10.4805C 169.238 9.06641 168.758 7.80078 168.141 6.68359C 167.531 5.56641 166.844 4.69531 166.078 4.07031L 166.535 2.74609C 167.566 3.31641 168.547 4.26953 169.477 5.60547C 170.414 6.94141 171.113 8.41406 171.574 10.0234C 172.043 11.6328 172.277 13.3555 172.277 15.1914ZM 174.082 2.5L 178.512 2.5L 178.512 25.6562L 174.082 25.6562L 174.082 23.875L 176.344 23.875L 176.344 4.28125L 174.082 4.28125L 174.082 2.5Z"/>
</defs>
</svg>
