<?xml version="1.0" encoding="UTF-8" standalone="no"?>
<svg width="463px" height="169px" viewBox="0 0 463 169" version="1.1" xmlns="http://www.w3.org/2000/svg" xmlns:xlink="http://www.w3.org/1999/xlink">
    <!-- Generator: Sketch 44.1 (41455) - http://www.bohemiancoding.com/sketch -->
    <title>s1_point_to_file</title>
    <desc>Created with Sketch.</desc>
    <defs>
        <rect id="path-1" x="0" y="0" width="158" height="158"></rect>
    </defs>
    <g id="DE4" stroke="none" stroke-width="1" fill="none" fill-rule="evenodd">
        <g id="DE4M5" transform="translate(-60.000000, -105.000000)">
            <g id="s1_point_to_file" transform="translate(60.000000, 102.000000)">
                <g id="File" transform="translate(341.000000, 0.000000)">
                    <rect id="Rectangle-10" stroke="#000000" stroke-linecap="square" x="1" y="21" width="120" height="150"></rect>
                    <rect id="Rectangle" stroke="#000000" stroke-linecap="square" x="1" y="121" width="120" height="10"></rect>
                    <rect id="Rectangle" stroke="#000000" stroke-linecap="square" x="1" y="131" width="120" height="10"></rect>
                    <rect id="Rectangle" stroke="#000000" stroke-linecap="square" x="1" y="141" width="120" height="10"></rect>
                    <rect id="Rectangle" stroke="#000000" stroke-linecap="square" x="1" y="151" width="120" height="10"></rect>
                    <rect id="Rectangle" stroke="#000000" stroke-linecap="square" x="1" y="21" width="120" height="10"></rect>
                    <rect id="Rectangle" stroke="#000000" stroke-linecap="square" x="1" y="31" width="120" height="10"></rect>
                    <rect id="Rectangle" stroke="#000000" stroke-linecap="square" x="1" y="41" width="120" height="10"></rect>
                    <rect id="Rectangle" stroke="#000000" stroke-linecap="square" x="1" y="51" width="120" height="10"></rect>
                    <rect id="Rectangle" stroke="#000000" stroke-linecap="square" x="1" y="71" width="120" height="10"></rect>
                    <rect id="Rectangle" stroke="#000000" stroke-linecap="square" x="1" y="81" width="120" height="10"></rect>
                    <rect id="Rectangle" stroke="#000000" stroke-linecap="square" x="1" y="91" width="120" height="10"></rect>
                    <rect id="Rectangle" stroke="#000000" stroke-linecap="square" x="1" y="101" width="120" height="10"></rect>
                    <path d="M4.7956472,26.273227 C8.26534336,25.9062046 16.781714,28.8258079 18.0359174,28.2270354 C22.9015461,25.904123 21.2817585,24.1137501 28.6348312,24.5977865 C33.9797739,24.9496322 39.0494359,27.184178 44.3511115,27.9486674 C46.1957293,28.2146571 48.1061748,27.3115155 49.9352153,27.6692529 C50.5091255,27.7815026 48.032144,28.9975047 48.5726772,28.7743529 C62.9488224,22.8393581 66.2377594,27.0552866 81.4849835,27.4714651 C95.0408456,27.8414774 103.336104,26.4140566 115.978545,26.5631064" id="Path-2" stroke="#979797"></path>
                    <path d="M5.6527276,47.1675706 C13.0322701,46.2989787 20.3991558,45.3151132 27.7913552,44.561795 C45.6172728,42.745206 12.5905546,46.3097952 34.7254392,47.7965148 C37.2767578,47.9678776 39.4586115,45.7465525 41.973472,45.2838774 C45.4299127,44.6479737 48.9810888,44.3260331 52.4897126,44.5283071 C55.3094992,44.6908693 57.9429847,46.5545638 60.7612187,46.367001 C62.5505101,46.2479177 63.6220446,43.6349158 65.4149875,43.6680872 C70.2679244,43.7578718 74.8025675,46.5540637 79.6536151,46.7165307 C89.5083405,47.0465764 99.3573069,45.8434623 109.192017,45.1342284 L112.591037,46.6935078 C113.423635,46.6334646 113.662649,45.4132941 114.198455,44.7731872" id="Path-4" stroke="#979797"></path>
                    <path d="M12.068637,66.3923357 C40.1299963,57.384748 -22.3551107,76.7288545 22.3766248,66.6482122 C24.5019626,66.1692509 25.0347829,63.2303725 27.1224852,62.6370257 C30.6062437,61.6469052 49.3728131,65.9902112 53.6124441,65.819835 C56.3669731,65.7091399 58.770826,63.8424004 61.522909,63.691826 C63.923884,63.5604618 66.2055635,65.3139284 68.5846656,65.000662 C69.9514022,64.820698 70.0950894,62.5059992 71.4698556,62.3820696 C73.0984709,62.2352567 74.2115819,64.2393289 75.8442099,64.346244 C88.7834686,65.1935907 104.789488,65.9325258 117.492667,64.5919959" id="Path-3" stroke="#979797"></path>
                    <path d="M4.7956472,86.273227 C8.26534336,85.9062046 16.781714,88.8258079 18.0359174,88.2270354 C22.9015461,85.904123 21.2817585,84.1137501 28.6348312,84.5977865 C33.9797739,84.9496322 39.0494359,87.184178 44.3511115,87.9486674 C46.1957293,88.2146571 48.1061748,87.3115155 49.9352153,87.6692529 C50.5091255,87.7815026 48.032144,88.9975047 48.5726772,88.7743529 C62.9488224,82.8393581 66.2377594,87.0552866 81.4849835,87.4714651 C95.0408456,87.8414774 103.336104,86.4140566 115.978545,86.5631064" id="Path-2" stroke="#979797"></path>
                    <path d="M12.068637,96.3923357 C40.1299963,87.384748 -22.3551107,106.728854 22.3766248,96.6482122 C24.5019626,96.1692509 25.0347829,93.2303725 27.1224852,92.6370257 C30.6062437,91.6469052 49.3728131,95.9902112 53.6124441,95.819835 C56.3669731,95.7091399 58.770826,93.8424004 61.522909,93.691826 C63.923884,93.5604618 66.2055635,95.3139284 68.5846656,95.000662 C69.9514022,94.820698 70.0950894,92.5059992 71.4698556,92.3820696 C73.0984709,92.2352567 74.2115819,94.2393289 75.8442099,94.346244 C88.7834686,95.1935907 104.789488,95.9325258 117.492667,94.5919959" id="Path-3" stroke="#7ED321" stroke-width="3"></path>
                    <path d="M5.6527276,107.167571 C13.0322701,106.298979 20.3991558,105.315113 27.7913552,104.561795 C45.6172728,102.745206 12.5905546,106.309795 34.7254392,107.796515 C37.2767578,107.967878 39.4586115,105.746552 41.973472,105.283877 C45.4299127,104.647974 48.9810888,104.326033 52.4897126,104.528307 C55.3094992,104.690869 57.9429847,106.554564 60.7612187,106.367001 C62.5505101,106.247918 63.6220446,103.634916 65.4149875,103.668087 C70.2679244,103.757872 74.8025675,106.554064 79.6536151,106.716531 C89.5083405,107.046576 99.3573069,105.843462 109.192017,105.134228 L112.591037,106.693508 C113.423635,106.633465 113.662649,105.413294 114.198455,104.773187" id="Path-4" stroke="#979797"></path>
                    <path d="M12.068637,126.392336 C40.1299963,117.384748 -22.3551107,136.728854 22.3766248,126.648212 C24.5019626,126.169251 25.0347829,123.230373 27.1224852,122.637026 C30.6062437,121.646905 49.3728131,125.990211 53.6124441,125.819835 C56.3669731,125.70914 58.770826,123.8424 61.522909,123.691826 C63.923884,123.560462 66.2055635,125.313928 68.5846656,125.000662 C69.9514022,124.820698 70.0950894,122.505999 71.4698556,122.38207 C73.0984709,122.235257 74.2115819,124.239329 75.8442099,124.346244 C88.7834686,125.193591 104.789488,125.932526 117.492667,124.591996" id="Path-3" stroke="#979797"></path>
                    <path d="M4.7956472,146.273227 C8.26534336,145.906205 16.781714,148.825808 18.0359174,148.227035 C22.9015461,145.904123 21.2817585,144.11375 28.6348312,144.597787 C33.9797739,144.949632 39.0494359,147.184178 44.3511115,147.948667 C46.1957293,148.214657 48.1061748,147.311515 49.9352153,147.669253 C50.5091255,147.781503 48.032144,148.997505 48.5726772,148.774353 C62.9488224,142.839358 66.2377594,147.055287 81.4849835,147.471465 C95.0408456,147.841477 103.336104,146.414057 115.978545,146.563106" id="Path-2" stroke="#979797"></path>
                    <path d="M5.6527276,167.167571 C13.0322701,166.298979 20.3991558,165.315113 27.7913552,164.561795 C45.6172728,162.745206 12.5905546,166.309795 34.7254392,167.796515 C37.2767578,167.967878 39.4586115,165.746552 41.973472,165.283877 C45.4299127,164.647974 48.9810888,164.326033 52.4897126,164.528307 C55.3094992,164.690869 57.9429847,166.554564 60.7612187,166.367001 C62.5505101,166.247918 63.6220446,163.634916 65.4149875,163.668087 C70.2679244,163.757872 74.8025675,166.554064 79.6536151,166.716531 C89.5083405,167.046576 99.3573069,165.843462 109.192017,165.134228 L112.591037,166.693508 C113.423635,166.633465 113.662649,165.413294 114.198455,164.773187" id="Path-4" stroke="#979797"></path>
                    <text id="amounts.csv" font-family="AndaleMono, Andale Mono" font-size="14" font-weight="normal" fill="#000000">
                        <tspan x="0" y="13">amounts.csv</tspan>
                    </text>
                </g>
                <g id="Individual-Node" transform="translate(0.000000, 7.000000)">
                    <g id="Rectangle-11">
                        <use fill="#F3F3F3" fill-rule="evenodd" xlink:href="#path-1"></use>
                        <rect stroke="#000000" stroke-width="1" x="0.5" y="0.5" width="157" height="157"></rect>
                    </g>
                    <text id="Key:-171116" font-family="AndaleMono, Andale Mono" font-size="14" font-weight="normal" fill="#000000">
                        <tspan x="11" y="62">Key: </tspan>
                        <tspan x="53.0068359" y="62" font-family="CourierNewPS-BoldMT, Courier New" font-weight="bold">171116</tspan>
                    </text>
                    <text id="Value:-:282748" font-family="AndaleMono, Andale Mono" font-size="14" font-weight="normal" fill="#000000">
                        <tspan x="11" y="89">Value: :</tspan>
                        <tspan x="78.2109375" y="89" font-family="CourierNewPS-BoldMT, Courier New" font-weight="bold">282748</tspan>
                    </text>
                    <text id="B-Tree-Index-Node" font-family="AndaleMono, Andale Mono" font-size="14" font-weight="normal" fill="#000000">
                        <tspan x="11" y="26">B-Tree Index Node</tspan>
                    </text>
                </g>
                <g id="Path-to-Row" transform="translate(56.000000, 96.000000)" stroke="#2E4B0E" stroke-width="2" stroke-linecap="square">
                    <path d="M1,11.5 L1,38.5" id="Line"></path>
                    <path d="M1.5,38 L265.507576,38" id="Line"></path>
                    <path d="M266,37.8804431 L266,1.5" id="Line"></path>
                    <path d="M266.5,1 L279.5,1" id="Line"></path>
                    <path id="Line-decoration-1" d="M268.7,4 L279.5,1 L268.7,-2"></path>
                </g>
            </g>
        </g>
    </g>
</svg>