<svg width="300" height="1828" viewBox="0 0 300 1828" version="1.1" xmlns="http://www.w3.org/2000/svg" xmlns:xlink="http://www.w3.org/1999/xlink" xmlns:figma="http://www.figma.com/figma/ns">
<title>bytecode</title>
<desc>Created using Figma</desc>
<g id="Canvas" transform="translate(784 494)" figma:type="canvas">
<g id="Rectangle" style="mix-blend-mode:normal;" figma:type="rounded-rectangle">
<use xlink:href="#path0_fill" transform="translate(-784 -494)" fill="#6FCF97" style="mix-blend-mode:normal;"/>
</g>
<g id="for i in range(5): print(i)" style="mix-blend-mode:normal;" figma:type="text">
<use xlink:href="#path1_fill" transform="translate(-718.5 -447.5)" fill="#F2F2F2" style="mix-blend-mode:normal;"/>
</g>
<g id="Rectangle" style="mix-blend-mode:normal;" figma:type="rounded-rectangle">
<use xlink:href="#path2_fill" transform="translate(-784 150.652)" fill="#6FCF97" style="mix-blend-mode:normal;"/>
</g>
<g id="Python Bytecode" style="mix-blend-mode:normal;" figma:type="text">
<use xlink:href="#path3_fill" transform="translate(-718.5 197.105)" fill="#F2F2F2" style="mix-blend-mode:normal;"/>
</g>
<g id="Rectangle" style="mix-blend-mode:normal;" figma:type="rounded-rectangle">
<use xlink:href="#path2_fill" transform="translate(-784 505.379)" fill="#BDBDBD" style="mix-blend-mode:normal;"/>
</g>
<g id="CPython VM" style="mix-blend-mode:normal;" figma:type="text">
<use xlink:href="#path4_fill" transform="translate(-718.5 551.832)" fill="#333333" style="mix-blend-mode:normal;"/>
</g>
<g id="Rectangle" style="mix-blend-mode:normal;" figma:type="rounded-rectangle">
<use xlink:href="#path2_fill" transform="translate(-784 1183.95)" fill="#BDBDBD" style="mix-blend-mode:normal;"/>
</g>
<g id="CPU" style="mix-blend-mode:normal;" figma:type="text">
<use xlink:href="#path5_fill" transform="translate(-653 1230.53)" fill="#333333" style="mix-blend-mode:normal;"/>
</g>
<g id="Arrow" style="mix-blend-mode:normal;" figma:type="vector">
<use xlink:href="#path6_stroke" transform="matrix(6.12323e-17 1 -1 6.12323e-17 -634 -314)" style="mix-blend-mode:normal;"/>
</g>
<g id="Arrow" style="mix-blend-mode:normal;" figma:type="vector">
<use xlink:href="#path6_stroke" transform="matrix(6.12323e-17 1 -1 6.12323e-17 -634 682.34)" style="mix-blend-mode:normal;"/>
</g>
<g id="Arrow" style="mix-blend-mode:normal;" figma:type="vector">
<use xlink:href="#path7_stroke" transform="matrix(6.12943e-17 1 -1 6.11704e-17 -634 3.88651)" style="mix-blend-mode:normal;"/>
</g>
<g id="Arrow" style="mix-blend-mode:normal;" figma:type="vector">
<use xlink:href="#path7_stroke" transform="matrix(6.12943e-17 1 -1 6.11704e-17 -634 343)" style="mix-blend-mode:normal;"/>
</g>
<g id="Rectangle" style="mix-blend-mode:normal;" figma:type="rounded-rectangle">
<use xlink:href="#path2_fill" transform="translate(-784 829.227)" fill="#6FCF97" style="mix-blend-mode:normal;"/>
</g>
<g id="Machine Code" style="mix-blend-mode:normal;" figma:type="text">
<use xlink:href="#path8_fill" transform="translate(-718.5 875.68)" fill="#F2F2F2" style="mix-blend-mode:normal;"/>
</g>
<g id="Arrow" style="mix-blend-mode:normal;" figma:type="vector">
<use xlink:href="#path7_stroke" transform="matrix(6.12943e-17 1 -1 6.11704e-17 -634 1021.58)" style="mix-blend-mode:normal;"/>
</g>
<g id="Rectangle 2" style="mix-blend-mode:normal;" figma:type="rounded-rectangle">
<use xlink:href="#path0_fill" transform="translate(-784 -173)" fill="#C4C4C4" style="mix-blend-mode:normal;"/>
</g>
<g id="CPython Interpreter" style="mix-blend-mode:normal;" figma:type="text">
<use xlink:href="#path9_fill" transform="translate(-738 -117.5)" style="mix-blend-mode:normal;"/>
</g>
</g>
<defs>
<path id="path0_fill" d="M 0 0L 300 0L 300 150L 0 150L 0 0Z"/>
<path id="path1_fill" d="M 2.70703 22L 2.70703 10.9961L 0.703125 10.9961L 0.703125 9.32031L 2.70703 9.32031L 2.70703 8.01953C 2.70703 6.66016 3.07031 5.60937 3.79688 4.86719C 4.52344 4.125 5.55078 3.75391 6.87891 3.75391C 7.37891 3.75391 7.875 3.82031 8.36719 3.95312L 8.25 5.71094C 7.88281 5.64062 7.49219 5.60547 7.07812 5.60547C 6.375 5.60547 5.83203 5.8125 5.44922 6.22656C 5.06641 6.63281 4.875 7.21875 4.875 7.98438L 4.875 9.32031L 7.58203 9.32031L 7.58203 10.9961L 4.875 10.9961L 4.875 22L 2.70703 22ZM 9.41016 15.543C 9.41016 14.3008 9.65234 13.1836 10.1367 12.1914C 10.6289 11.1992 11.3086 10.4336 12.1758 9.89453C 13.0508 9.35547 14.0469 9.08594 15.1641 9.08594C 16.8906 9.08594 18.2852 9.68359 19.3477 10.8789C 20.418 12.0742 20.9531 13.6641 20.9531 15.6484L 20.9531 15.8008C 20.9531 17.0352 20.7148 18.1445 20.2383 19.1289C 19.7695 20.1055 19.0938 20.8672 18.2109 21.4141C 17.3359 21.9609 16.3281 22.2344 15.1875 22.2344C 13.4688 22.2344 12.0742 21.6367 11.0039 20.4414C 9.94141 19.2461 9.41016 17.6641 9.41016 15.6953L 9.41016 15.543ZM 11.5898 15.8008C 11.5898 17.207 11.9141 18.3359 12.5625 19.1875C 13.2188 20.0391 14.0938 20.4648 15.1875 20.4648C 16.2891 20.4648 17.1641 20.0352 17.8125 19.1758C 18.4609 18.3086 18.7852 17.0977 18.7852 15.543C 18.7852 14.1523 18.4531 13.0273 17.7891 12.168C 17.1328 11.3008 16.2578 10.8672 15.1641 10.8672C 14.0938 10.8672 13.2305 11.293 12.5742 12.1445C 11.918 12.9961 11.5898 14.2148 11.5898 15.8008ZM 29.8008 11.2656C 29.4727 11.2109 29.1172 11.1836 28.7344 11.1836C 27.3125 11.1836 26.3477 11.7891 25.8398 13L 25.8398 22L 23.6719 22L 23.6719 9.32031L 25.7812 9.32031L 25.8164 10.7852C 26.5273 9.65234 27.5352 9.08594 28.8398 9.08594C 29.2617 9.08594 29.582 9.14062 29.8008 9.25L 29.8008 11.2656ZM 40.1133 22L 37.9453 22L 37.9453 9.32031L 40.1133 9.32031L 40.1133 22ZM 37.7695 5.95703C 37.7695 5.60547 37.875 5.30859 38.0859 5.06641C 38.3047 4.82422 38.625 4.70312 39.0469 4.70312C 39.4688 4.70312 39.7891 4.82422 40.0078 5.06641C 40.2266 5.30859 40.3359 5.60547 40.3359 5.95703C 40.3359 6.30859 40.2266 6.60156 40.0078 6.83594C 39.7891 7.07031 39.4688 7.1875 39.0469 7.1875C 38.625 7.1875 38.3047 7.07031 38.0859 6.83594C 37.875 6.60156 37.7695 6.30859 37.7695 5.95703ZM 51.9023 22L 49.7344 22L 49.7344 9.32031L 51.9023 9.32031L 51.9023 22ZM 49.5586 5.95703C 49.5586 5.60547 49.6641 5.30859 49.875 5.06641C 50.0938 4.82422 50.4141 4.70312 50.8359 4.70312C 51.2578 4.70312 51.5781 4.82422 51.7969 5.06641C 52.0156 5.30859 52.125 5.60547 52.125 5.95703C 52.125 6.30859 52.0156 6.60156 51.7969 6.83594C 51.5781 7.07031 51.2578 7.1875 50.8359 7.1875C 50.4141 7.1875 50.0938 7.07031 49.875 6.83594C 49.6641 6.60156 49.5586 6.30859 49.5586 5.95703ZM 57.4336 9.32031L 57.5039 10.9141C 58.4727 9.69531 59.7383 9.08594 61.3008 9.08594C 63.9805 9.08594 65.332 10.5977 65.3555 13.6211L 65.3555 22L 63.1875 22L 63.1875 13.6094C 63.1797 12.6953 62.9688 12.0195 62.5547 11.582C 62.1484 11.1445 61.5117 10.9258 60.6445 10.9258C 59.9414 10.9258 59.3242 11.1133 58.793 11.4883C 58.2617 11.8633 57.8477 12.3555 57.5508 12.9648L 57.5508 22L 55.3828 22L 55.3828 9.32031L 57.4336 9.32031ZM 80.707 11.2656C 80.3789 11.2109 80.0234 11.1836 79.6406 11.1836C 78.2188 11.1836 77.2539 11.7891 76.7461 13L 76.7461 22L 74.5781 22L 74.5781 9.32031L 76.6875 9.32031L 76.7227 10.7852C 77.4336 9.65234 78.4414 9.08594 79.7461 9.08594C 80.168 9.08594 80.4883 9.14062 80.707 9.25L 80.707 11.2656ZM 90.0703 22C 89.9453 21.75 89.8438 21.3047 89.7656 20.6641C 88.7578 21.7109 87.5547 22.2344 86.1562 22.2344C 84.9062 22.2344 83.8789 21.8828 83.0742 21.1797C 82.2773 20.4688 81.8789 19.5703 81.8789 18.4844C 81.8789 17.1641 82.3789 16.1406 83.3789 15.4141C 84.3867 14.6797 85.8008 14.3125 87.6211 14.3125L 89.7305 14.3125L 89.7305 13.3164C 89.7305 12.5586 89.5039 11.957 89.0508 11.5117C 88.5977 11.0586 87.9297 10.832 87.0469 10.832C 86.2734 10.832 85.625 11.0273 85.1016 11.418C 84.5781 11.8086 84.3164 12.2812 84.3164 12.8359L 82.1367 12.8359C 82.1367 12.2031 82.3594 11.5938 82.8047 11.0078C 83.2578 10.4141 83.8672 9.94531 84.6328 9.60156C 85.4062 9.25781 86.2539 9.08594 87.1758 9.08594C 88.6367 9.08594 89.7812 9.45312 90.6094 10.1875C 91.4375 10.9141 91.8672 11.918 91.8984 13.1992L 91.8984 19.0352C 91.8984 20.1992 92.0469 21.125 92.3438 21.8125L 92.3438 22L 90.0703 22ZM 86.4727 20.3477C 87.1523 20.3477 87.7969 20.1719 88.4062 19.8203C 89.0156 19.4688 89.457 19.0117 89.7305 18.4492L 89.7305 15.8477L 88.0312 15.8477C 85.375 15.8477 84.0469 16.625 84.0469 18.1797C 84.0469 18.8594 84.2734 19.3906 84.7266 19.7734C 85.1797 20.1562 85.7617 20.3477 86.4727 20.3477ZM 97.3477 9.32031L 97.418 10.9141C 98.3867 9.69531 99.6523 9.08594 101.215 9.08594C 103.895 9.08594 105.246 10.5977 105.27 13.6211L 105.27 22L 103.102 22L 103.102 13.6094C 103.094 12.6953 102.883 12.0195 102.469 11.582C 102.062 11.1445 101.426 10.9258 100.559 10.9258C 99.8555 10.9258 99.2383 11.1133 98.707 11.4883C 98.1758 11.8633 97.7617 12.3555 97.4648 12.9648L 97.4648 22L 95.2969 22L 95.2969 9.32031L 97.3477 9.32031ZM 108.023 15.5547C 108.023 13.5781 108.48 12.0078 109.395 10.8438C 110.309 9.67188 111.52 9.08594 113.027 9.08594C 114.574 9.08594 115.781 9.63281 116.648 10.7266L 116.754 9.32031L 118.734 9.32031L 118.734 21.6953C 118.734 23.3359 118.246 24.6289 117.27 25.5742C 116.301 26.5195 114.996 26.9922 113.355 26.9922C 112.441 26.9922 111.547 26.7969 110.672 26.4062C 109.797 26.0156 109.129 25.4805 108.668 24.8008L 109.793 23.5C 110.723 24.6484 111.859 25.2227 113.203 25.2227C 114.258 25.2227 115.078 24.9258 115.664 24.332C 116.258 23.7383 116.555 22.9023 116.555 21.8242L 116.555 20.7344C 115.688 21.7344 114.504 22.2344 113.004 22.2344C 111.52 22.2344 110.316 21.6367 109.395 20.4414C 108.48 19.2461 108.023 17.6172 108.023 15.5547ZM 110.203 15.8008C 110.203 17.2305 110.496 18.3555 111.082 19.1758C 111.668 19.9883 112.488 20.3945 113.543 20.3945C 114.91 20.3945 115.914 19.7734 116.555 18.5312L 116.555 12.7422C 115.891 11.5312 114.895 10.9258 113.566 10.9258C 112.512 10.9258 111.688 11.3359 111.094 12.1562C 110.5 12.9766 110.203 14.1914 110.203 15.8008ZM 127.277 22.2344C 125.559 22.2344 124.16 21.6719 123.082 20.5469C 122.004 19.4141 121.465 17.9023 121.465 16.0117L 121.465 15.6133C 121.465 14.3555 121.703 13.2344 122.18 12.25C 122.664 11.2578 123.336 10.4844 124.195 9.92969C 125.062 9.36719 126 9.08594 127.008 9.08594C 128.656 9.08594 129.938 9.62891 130.852 10.7148C 131.766 11.8008 132.223 13.3555 132.223 15.3789L 132.223 16.2812L 123.633 16.2812C 123.664 17.5312 124.027 18.543 124.723 19.3164C 125.426 20.082 126.316 20.4648 127.395 20.4648C 128.16 20.4648 128.809 20.3086 129.34 19.9961C 129.871 19.6836 130.336 19.2695 130.734 18.7539L 132.059 19.7852C 130.996 21.418 129.402 22.2344 127.277 22.2344ZM 127.008 10.8672C 126.133 10.8672 125.398 11.1875 124.805 11.8281C 124.211 12.4609 123.844 13.3516 123.703 14.5L 130.055 14.5L 130.055 14.3359C 129.992 13.2344 129.695 12.3828 129.164 11.7812C 128.633 11.1719 127.914 10.8672 127.008 10.8672ZM 134.66 15.0742C 134.66 13.3086 134.895 11.6133 135.363 9.98828C 135.84 8.36328 136.547 6.88672 137.484 5.55859C 138.422 4.23047 139.395 3.29297 140.402 2.74609L 140.848 4.17578C 139.707 5.05078 138.77 6.38672 138.035 8.18359C 137.309 9.98047 136.91 11.9922 136.84 14.2188L 136.828 15.2148C 136.828 18.2305 137.379 20.8477 138.48 23.0664C 139.145 24.3945 139.934 25.4336 140.848 26.1836L 140.402 27.5078C 139.363 26.9297 138.371 25.9609 137.426 24.6016C 135.582 21.9453 134.66 18.7695 134.66 15.0742ZM 143.719 13.4453L 144.586 4.9375L 153.328 4.9375L 153.328 6.94141L 146.426 6.94141L 145.91 11.5938C 146.746 11.1016 147.695 10.8555 148.758 10.8555C 150.312 10.8555 151.547 11.3711 152.461 12.4023C 153.375 13.4258 153.832 14.8125 153.832 16.5625C 153.832 18.3203 153.355 19.707 152.402 20.7227C 151.457 21.7305 150.133 22.2344 148.43 22.2344C 146.922 22.2344 145.691 21.8164 144.738 20.9805C 143.785 20.1445 143.242 18.9883 143.109 17.5117L 145.16 17.5117C 145.293 18.4883 145.641 19.2266 146.203 19.7266C 146.766 20.2188 147.508 20.4648 148.43 20.4648C 149.438 20.4648 150.227 20.1211 150.797 19.4336C 151.375 18.7461 151.664 17.7969 151.664 16.5859C 151.664 15.4453 151.352 14.5312 150.727 13.8438C 150.109 13.1484 149.285 12.8008 148.254 12.8008C 147.309 12.8008 146.566 13.0078 146.027 13.4219L 145.453 13.8906L 143.719 13.4453ZM 161.426 15.1914C 161.426 16.9336 161.195 18.6055 160.734 20.207C 160.281 21.8008 159.582 23.2734 158.637 24.625C 157.699 25.9766 156.715 26.9375 155.684 27.5078L 155.227 26.1836C 156.43 25.2617 157.395 23.832 158.121 21.8945C 158.855 19.9492 159.23 17.793 159.246 15.4258L 159.246 15.0508C 159.246 13.4102 159.074 11.8867 158.73 10.4805C 158.387 9.06641 157.906 7.80078 157.289 6.68359C 156.68 5.56641 155.992 4.69531 155.227 4.07031L 155.684 2.74609C 156.715 3.31641 157.695 4.26953 158.625 5.60547C 159.562 6.94141 160.262 8.41406 160.723 10.0234C 161.191 11.6328 161.426 13.3555 161.426 15.1914ZM 164.695 20.8633C 164.695 20.4883 164.805 20.1758 165.023 19.9258C 165.25 19.6758 165.586 19.5508 166.031 19.5508C 166.477 19.5508 166.812 19.6758 167.039 19.9258C 167.273 20.1758 167.391 20.4883 167.391 20.8633C 167.391 21.2227 167.273 21.5234 167.039 21.7656C 166.812 22.0078 166.477 22.1289 166.031 22.1289C 165.586 22.1289 165.25 22.0078 165.023 21.7656C 164.805 21.5234 164.695 21.2227 164.695 20.8633ZM 164.707 10.5156C 164.707 10.1406 164.816 9.82812 165.035 9.57812C 165.262 9.32812 165.598 9.20312 166.043 9.20312C 166.488 9.20312 166.824 9.32812 167.051 9.57812C 167.285 9.82812 167.402 10.1406 167.402 10.5156C 167.402 10.875 167.285 11.1758 167.051 11.418C 166.824 11.6602 166.488 11.7812 166.043 11.7812C 165.598 11.7812 165.262 11.6602 165.035 11.418C 164.816 11.1758 164.707 10.875 164.707 10.5156ZM 36.1641 43.8008C 36.1641 45.7305 35.7227 47.2852 34.8398 48.4648C 33.957 49.6445 32.7617 50.2344 31.2539 50.2344C 29.7148 50.2344 28.5039 49.7461 27.6211 48.7695L 27.6211 54.875L 25.4531 54.875L 25.4531 37.3203L 27.4336 37.3203L 27.5391 38.7266C 28.4219 37.6328 29.6484 37.0859 31.2188 37.0859C 32.7422 37.0859 33.9453 37.6602 34.8281 38.8086C 35.7188 39.957 36.1641 41.5547 36.1641 43.6016L 36.1641 43.8008ZM 33.9961 43.5547C 33.9961 42.125 33.6914 40.9961 33.082 40.168C 32.4727 39.3398 31.6367 38.9258 30.5742 38.9258C 29.2617 38.9258 28.2773 39.5078 27.6211 40.6719L 27.6211 46.7305C 28.2695 47.8867 29.2617 48.4648 30.5977 48.4648C 31.6367 48.4648 32.4609 48.0547 33.0703 47.2344C 33.6875 46.4062 33.9961 45.1797 33.9961 43.5547ZM 45.0586 39.2656C 44.7305 39.2109 44.375 39.1836 43.9922 39.1836C 42.5703 39.1836 41.6055 39.7891 41.0977 41L 41.0977 50L 38.9297 50L 38.9297 37.3203L 41.0391 37.3203L 41.0742 38.7852C 41.7852 37.6523 42.793 37.0859 44.0977 37.0859C 44.5195 37.0859 44.8398 37.1406 45.0586 37.25L 45.0586 39.2656ZM 49.418 50L 47.25 50L 47.25 37.3203L 49.418 37.3203L 49.418 50ZM 47.0742 33.957C 47.0742 33.6055 47.1797 33.3086 47.3906 33.0664C 47.6094 32.8242 47.9297 32.7031 48.3516 32.7031C 48.7734 32.7031 49.0938 32.8242 49.3125 33.0664C 49.5312 33.3086 49.6406 33.6055 49.6406 33.957C 49.6406 34.3086 49.5312 34.6016 49.3125 34.8359C 49.0938 35.0703 48.7734 35.1875 48.3516 35.1875C 47.9297 35.1875 47.6094 35.0703 47.3906 34.8359C 47.1797 34.6016 47.0742 34.3086 47.0742 33.957ZM 54.9492 37.3203L 55.0195 38.9141C 55.9883 37.6953 57.2539 37.0859 58.8164 37.0859C 61.4961 37.0859 62.8477 38.5977 62.8711 41.6211L 62.8711 50L 60.7031 50L 60.7031 41.6094C 60.6953 40.6953 60.4844 40.0195 60.0703 39.582C 59.6641 39.1445 59.0273 38.9258 58.1602 38.9258C 57.457 38.9258 56.8398 39.1133 56.3086 39.4883C 55.7773 39.8633 55.3633 40.3555 55.0664 40.9648L 55.0664 50L 52.8984 50L 52.8984 37.3203L 54.9492 37.3203ZM 69.082 34.25L 69.082 37.3203L 71.4492 37.3203L 71.4492 38.9961L 69.082 38.9961L 69.082 46.8594C 69.082 47.3672 69.1875 47.75 69.3984 48.0078C 69.6094 48.2578 69.9688 48.3828 70.4766 48.3828C 70.7266 48.3828 71.0703 48.3359 71.5078 48.2422L 71.5078 50C 70.9375 50.1562 70.3828 50.2344 69.8438 50.2344C 68.875 50.2344 68.1445 49.9414 67.6523 49.3555C 67.1602 48.7695 66.9141 47.9375 66.9141 46.8594L 66.9141 38.9961L 64.6055 38.9961L 64.6055 37.3203L 66.9141 37.3203L 66.9141 34.25L 69.082 34.25ZM 73.9102 43.0742C 73.9102 41.3086 74.1445 39.6133 74.6133 37.9883C 75.0898 36.3633 75.7969 34.8867 76.7344 33.5586C 77.6719 32.2305 78.6445 31.293 79.6523 30.7461L 80.0977 32.1758C 78.957 33.0508 78.0195 34.3867 77.2852 36.1836C 76.5586 37.9805 76.1602 39.9922 76.0898 42.2188L 76.0781 43.2148C 76.0781 46.2305 76.6289 48.8477 77.7305 51.0664C 78.3945 52.3945 79.1836 53.4336 80.0977 54.1836L 79.6523 55.5078C 78.6133 54.9297 77.6211 53.9609 76.6758 52.6016C 74.832 49.9453 73.9102 46.7695 73.9102 43.0742ZM 84.5508 50L 82.3828 50L 82.3828 37.3203L 84.5508 37.3203L 84.5508 50ZM 82.207 33.957C 82.207 33.6055 82.3125 33.3086 82.5234 33.0664C 82.7422 32.8242 83.0625 32.7031 83.4844 32.7031C 83.9062 32.7031 84.2266 32.8242 84.4453 33.0664C 84.6641 33.3086 84.7734 33.6055 84.7734 33.957C 84.7734 34.3086 84.6641 34.6016 84.4453 34.8359C 84.2266 35.0703 83.9062 35.1875 83.4844 35.1875C 83.0625 35.1875 82.7422 35.0703 82.5234 34.8359C 82.3125 34.6016 82.207 34.3086 82.207 33.957ZM 93.0352 43.1914C 93.0352 44.9336 92.8047 46.6055 92.3438 48.207C 91.8906 49.8008 91.1914 51.2734 90.2461 52.625C 89.3086 53.9766 88.3242 54.9375 87.293 55.5078L 86.8359 54.1836C 88.0391 53.2617 89.0039 51.832 89.7305 49.8945C 90.4648 47.9492 90.8398 45.793 90.8555 43.4258L 90.8555 43.0508C 90.8555 41.4102 90.6836 39.8867 90.3398 38.4805C 89.9961 37.0664 89.5156 35.8008 88.8984 34.6836C 88.2891 33.5664 87.6016 32.6953 86.8359 32.0703L 87.293 30.7461C 88.3242 31.3164 89.3047 32.2695 90.2344 33.6055C 91.1719 34.9414 91.8711 36.4141 92.332 38.0234C 92.8008 39.6328 93.0352 41.3555 93.0352 43.1914Z"/>
<path id="path2_fill" d="M 0 0L 300 0L 300 149.848L 0 149.848L 0 0Z"/>
<path id="path3_fill" d="M 4.23047 15.3203L 4.23047 22L 1.98047 22L 1.98047 4.9375L 8.27344 4.9375C 10.1406 4.9375 11.6016 5.41406 12.6562 6.36719C 13.7188 7.32031 14.25 8.58203 14.25 10.1523C 14.25 11.8086 13.7305 13.0859 12.6914 13.9844C 11.6602 14.875 10.1797 15.3203 8.25 15.3203L 4.23047 15.3203ZM 4.23047 13.4805L 8.27344 13.4805C 9.47656 13.4805 10.3984 13.1992 11.0391 12.6367C 11.6797 12.0664 12 11.2461 12 10.1758C 12 9.16016 11.6797 8.34766 11.0391 7.73828C 10.3984 7.12891 9.51953 6.8125 8.40234 6.78906L 4.23047 6.78906L 4.23047 13.4805ZM 21.0938 18.8242L 24.0469 9.32031L 26.3672 9.32031L 21.2695 23.957C 20.4805 26.0664 19.2266 27.1211 17.5078 27.1211L 17.0977 27.0859L 16.2891 26.9336L 16.2891 25.1758L 16.875 25.2227C 17.6094 25.2227 18.1797 25.0742 18.5859 24.7773C 19 24.4805 19.3398 23.9375 19.6055 23.1484L 20.0859 21.8594L 15.5625 9.32031L 17.9297 9.32031L 21.0938 18.8242ZM 31.2539 6.25L 31.2539 9.32031L 33.6211 9.32031L 33.6211 10.9961L 31.2539 10.9961L 31.2539 18.8594C 31.2539 19.3672 31.3594 19.75 31.5703 20.0078C 31.7812 20.2578 32.1406 20.3828 32.6484 20.3828C 32.8984 20.3828 33.2422 20.3359 33.6797 20.2422L 33.6797 22C 33.1094 22.1562 32.5547 22.2344 32.0156 22.2344C 31.0469 22.2344 30.3164 21.9414 29.8242 21.3555C 29.332 20.7695 29.0859 19.9375 29.0859 18.8594L 29.0859 10.9961L 26.7773 10.9961L 26.7773 9.32031L 29.0859 9.32031L 29.0859 6.25L 31.2539 6.25ZM 38.332 10.8555C 39.293 9.67578 40.543 9.08594 42.082 9.08594C 44.7617 9.08594 46.1133 10.5977 46.1367 13.6211L 46.1367 22L 43.9688 22L 43.9688 13.6094C 43.9609 12.6953 43.75 12.0195 43.3359 11.582C 42.9297 11.1445 42.293 10.9258 41.4258 10.9258C 40.7227 10.9258 40.1055 11.1133 39.5742 11.4883C 39.043 11.8633 38.6289 12.3555 38.332 12.9648L 38.332 22L 36.1641 22L 36.1641 4L 38.332 4L 38.332 10.8555ZM 48.8086 15.543C 48.8086 14.3008 49.0508 13.1836 49.5352 12.1914C 50.0273 11.1992 50.707 10.4336 51.5742 9.89453C 52.4492 9.35547 53.4453 9.08594 54.5625 9.08594C 56.2891 9.08594 57.6836 9.68359 58.7461 10.8789C 59.8164 12.0742 60.3516 13.6641 60.3516 15.6484L 60.3516 15.8008C 60.3516 17.0352 60.1133 18.1445 59.6367 19.1289C 59.168 20.1055 58.4922 20.8672 57.6094 21.4141C 56.7344 21.9609 55.7266 22.2344 54.5859 22.2344C 52.8672 22.2344 51.4727 21.6367 50.4023 20.4414C 49.3398 19.2461 48.8086 17.6641 48.8086 15.6953L 48.8086 15.543ZM 50.9883 15.8008C 50.9883 17.207 51.3125 18.3359 51.9609 19.1875C 52.6172 20.0391 53.4922 20.4648 54.5859 20.4648C 55.6875 20.4648 56.5625 20.0352 57.2109 19.1758C 57.8594 18.3086 58.1836 17.0977 58.1836 15.543C 58.1836 14.1523 57.8516 13.0273 57.1875 12.168C 56.5312 11.3008 55.6562 10.8672 54.5625 10.8672C 53.4922 10.8672 52.6289 11.293 51.9727 12.1445C 51.3164 12.9961 50.9883 14.2148 50.9883 15.8008ZM 65.1211 9.32031L 65.1914 10.9141C 66.1602 9.69531 67.4258 9.08594 68.9883 9.08594C 71.668 9.08594 73.0195 10.5977 73.043 13.6211L 73.043 22L 70.875 22L 70.875 13.6094C 70.8672 12.6953 70.6562 12.0195 70.2422 11.582C 69.8359 11.1445 69.1992 10.9258 68.332 10.9258C 67.6289 10.9258 67.0117 11.1133 66.4805 11.4883C 65.9492 11.8633 65.5352 12.3555 65.2383 12.9648L 65.2383 22L 63.0703 22L 63.0703 9.32031L 65.1211 9.32031ZM 1.98047 50L 1.98047 32.9375L 7.55859 32.9375C 9.41016 32.9375 10.8008 33.3203 11.7305 34.0859C 12.668 34.8516 13.1367 35.9844 13.1367 37.4844C 13.1367 38.2812 12.9102 38.9883 12.457 39.6055C 12.0039 40.2148 11.3867 40.6875 10.6055 41.0234C 11.5273 41.2812 12.2539 41.7734 12.7852 42.5C 13.3242 43.2188 13.5938 44.0781 13.5938 45.0781C 13.5938 46.6094 13.0977 47.8125 12.1055 48.6875C 11.1133 49.5625 9.71094 50 7.89844 50L 1.98047 50ZM 4.23047 42.0195L 4.23047 48.1602L 7.94531 48.1602C 8.99219 48.1602 9.81641 47.8906 10.418 47.3516C 11.0273 46.8047 11.332 46.0547 11.332 45.1016C 11.332 43.0469 10.2148 42.0195 7.98047 42.0195L 4.23047 42.0195ZM 4.23047 40.2148L 7.62891 40.2148C 8.61328 40.2148 9.39844 39.9688 9.98438 39.4766C 10.5781 38.9844 10.875 38.3164 10.875 37.4727C 10.875 36.5352 10.6016 35.8555 10.0547 35.4336C 9.50781 35.0039 8.67578 34.7891 7.55859 34.7891L 4.23047 34.7891L 4.23047 40.2148ZM 20.7422 46.8242L 23.6953 37.3203L 26.0156 37.3203L 20.918 51.957C 20.1289 54.0664 18.875 55.1211 17.1562 55.1211L 16.7461 55.0859L 15.9375 54.9336L 15.9375 53.1758L 16.5234 53.2227C 17.2578 53.2227 17.8281 53.0742 18.2344 52.7773C 18.6484 52.4805 18.9883 51.9375 19.2539 51.1484L 19.7344 49.8594L 15.2109 37.3203L 17.5781 37.3203L 20.7422 46.8242ZM 30.9023 34.25L 30.9023 37.3203L 33.2695 37.3203L 33.2695 38.9961L 30.9023 38.9961L 30.9023 46.8594C 30.9023 47.3672 31.0078 47.75 31.2188 48.0078C 31.4297 48.2578 31.7891 48.3828 32.2969 48.3828C 32.5469 48.3828 32.8906 48.3359 33.3281 48.2422L 33.3281 50C 32.7578 50.1562 32.2031 50.2344 31.6641 50.2344C 30.6953 50.2344 29.9648 49.9414 29.4727 49.3555C 28.9805 48.7695 28.7344 47.9375 28.7344 46.8594L 28.7344 38.9961L 26.4258 38.9961L 26.4258 37.3203L 28.7344 37.3203L 28.7344 34.25L 30.9023 34.25ZM 41.0742 50.2344C 39.3555 50.2344 37.957 49.6719 36.8789 48.5469C 35.8008 47.4141 35.2617 45.9023 35.2617 44.0117L 35.2617 43.6133C 35.2617 42.3555 35.5 41.2344 35.9766 40.25C 36.4609 39.2578 37.1328 38.4844 37.9922 37.9297C 38.8594 37.3672 39.7969 37.0859 40.8047 37.0859C 42.4531 37.0859 43.7344 37.6289 44.6484 38.7148C 45.5625 39.8008 46.0195 41.3555 46.0195 43.3789L 46.0195 44.2812L 37.4297 44.2812C 37.4609 45.5312 37.8242 46.543 38.5195 47.3164C 39.2227 48.082 40.1133 48.4648 41.1914 48.4648C 41.957 48.4648 42.6055 48.3086 43.1367 47.9961C 43.668 47.6836 44.1328 47.2695 44.5312 46.7539L 45.8555 47.7852C 44.793 49.418 43.1992 50.2344 41.0742 50.2344ZM 40.8047 38.8672C 39.9297 38.8672 39.1953 39.1875 38.6016 39.8281C 38.0078 40.4609 37.6406 41.3516 37.5 42.5L 43.8516 42.5L 43.8516 42.3359C 43.7891 41.2344 43.4922 40.3828 42.9609 39.7812C 42.4297 39.1719 41.7109 38.8672 40.8047 38.8672ZM 53.625 48.4648C 54.3984 48.4648 55.0742 48.2305 55.6523 47.7617C 56.2305 47.293 56.5508 46.707 56.6133 46.0039L 58.6641 46.0039C 58.625 46.7305 58.375 47.4219 57.9141 48.0781C 57.4531 48.7344 56.8359 49.2578 56.0625 49.6484C 55.2969 50.0391 54.4844 50.2344 53.625 50.2344C 51.8984 50.2344 50.5234 49.6602 49.5 48.5117C 48.4844 47.3555 47.9766 45.7773 47.9766 43.7773L 47.9766 43.4141C 47.9766 42.1797 48.2031 41.082 48.6562 40.1211C 49.1094 39.1602 49.7578 38.4141 50.6016 37.8828C 51.4531 37.3516 52.457 37.0859 53.6133 37.0859C 55.0352 37.0859 56.2148 37.5117 57.1523 38.3633C 58.0977 39.2148 58.6016 40.3203 58.6641 41.6797L 56.6133 41.6797C 56.5508 40.8594 56.2383 40.1875 55.6758 39.6641C 55.1211 39.1328 54.4336 38.8672 53.6133 38.8672C 52.5117 38.8672 51.6562 39.2656 51.0469 40.0625C 50.4453 40.8516 50.1445 41.9961 50.1445 43.4961L 50.1445 43.9062C 50.1445 45.3672 50.4453 46.4922 51.0469 47.2812C 51.6484 48.0703 52.5078 48.4648 53.625 48.4648ZM 60.5273 43.543C 60.5273 42.3008 60.7695 41.1836 61.2539 40.1914C 61.7461 39.1992 62.4258 38.4336 63.293 37.8945C 64.168 37.3555 65.1641 37.0859 66.2812 37.0859C 68.0078 37.0859 69.4023 37.6836 70.4648 38.8789C 71.5352 40.0742 72.0703 41.6641 72.0703 43.6484L 72.0703 43.8008C 72.0703 45.0352 71.832 46.1445 71.3555 47.1289C 70.8867 48.1055 70.2109 48.8672 69.3281 49.4141C 68.4531 49.9609 67.4453 50.2344 66.3047 50.2344C 64.5859 50.2344 63.1914 49.6367 62.1211 48.4414C 61.0586 47.2461 60.5273 45.6641 60.5273 43.6953L 60.5273 43.543ZM 62.707 43.8008C 62.707 45.207 63.0312 46.3359 63.6797 47.1875C 64.3359 48.0391 65.2109 48.4648 66.3047 48.4648C 67.4062 48.4648 68.2812 48.0352 68.9297 47.1758C 69.5781 46.3086 69.9023 45.0977 69.9023 43.543C 69.9023 42.1523 69.5703 41.0273 68.9062 40.168C 68.25 39.3008 67.375 38.8672 66.2812 38.8672C 65.2109 38.8672 64.3477 39.293 63.6914 40.1445C 63.0352 40.9961 62.707 42.2148 62.707 43.8008ZM 74.2617 43.5547C 74.2617 41.6094 74.7227 40.0469 75.6445 38.8672C 76.5664 37.6797 77.7734 37.0859 79.2656 37.0859C 80.75 37.0859 81.9258 37.5938 82.793 38.6094L 82.793 32L 84.9609 32L 84.9609 50L 82.9688 50L 82.8633 48.6406C 81.9961 49.7031 80.7891 50.2344 79.2422 50.2344C 77.7734 50.2344 76.5742 49.6328 75.6445 48.4297C 74.7227 47.2266 74.2617 45.6562 74.2617 43.7188L 74.2617 43.5547ZM 76.4297 43.8008C 76.4297 45.2383 76.7266 46.3633 77.3203 47.1758C 77.9141 47.9883 78.7344 48.3945 79.7812 48.3945C 81.1562 48.3945 82.1602 47.7773 82.793 46.543L 82.793 40.7188C 82.1445 39.5234 81.1484 38.9258 79.8047 38.9258C 78.7422 38.9258 77.9141 39.3359 77.3203 40.1562C 76.7266 40.9766 76.4297 42.1914 76.4297 43.8008ZM 93.5977 50.2344C 91.8789 50.2344 90.4805 49.6719 89.4023 48.5469C 88.3242 47.4141 87.7852 45.9023 87.7852 44.0117L 87.7852 43.6133C 87.7852 42.3555 88.0234 41.2344 88.5 40.25C 88.9844 39.2578 89.6562 38.4844 90.5156 37.9297C 91.3828 37.3672 92.3203 37.0859 93.3281 37.0859C 94.9766 37.0859 96.2578 37.6289 97.1719 38.7148C 98.0859 39.8008 98.543 41.3555 98.543 43.3789L 98.543 44.2812L 89.9531 44.2812C 89.9844 45.5312 90.3477 46.543 91.043 47.3164C 91.7461 48.082 92.6367 48.4648 93.7148 48.4648C 94.4805 48.4648 95.1289 48.3086 95.6602 47.9961C 96.1914 47.6836 96.6562 47.2695 97.0547 46.7539L 98.3789 47.7852C 97.3164 49.418 95.7227 50.2344 93.5977 50.2344ZM 93.3281 38.8672C 92.4531 38.8672 91.7188 39.1875 91.125 39.8281C 90.5312 40.4609 90.1641 41.3516 90.0234 42.5L 96.375 42.5L 96.375 42.3359C 96.3125 41.2344 96.0156 40.3828 95.4844 39.7812C 94.9531 39.1719 94.2344 38.8672 93.3281 38.8672Z"/>
<path id="path4_fill" d="M 14.5312 16.5859C 14.3203 18.3906 13.6523 19.7852 12.5273 20.7695C 11.4102 21.7461 9.92188 22.2344 8.0625 22.2344C 6.04688 22.2344 4.42969 21.5117 3.21094 20.0664C 2 18.6211 1.39453 16.6875 1.39453 14.2656L 1.39453 12.625C 1.39453 11.0391 1.67578 9.64453 2.23828 8.44141C 2.80859 7.23828 3.61328 6.31641 4.65234 5.67578C 5.69141 5.02734 6.89453 4.70312 8.26172 4.70312C 10.0742 4.70312 11.5273 5.21094 12.6211 6.22656C 13.7148 7.23438 14.3516 8.63281 14.5312 10.4219L 12.2695 10.4219C 12.0742 9.0625 11.6484 8.07812 10.9922 7.46875C 10.3438 6.85938 9.43359 6.55469 8.26172 6.55469C 6.82422 6.55469 5.69531 7.08594 4.875 8.14844C 4.0625 9.21094 3.65625 10.7227 3.65625 12.6836L 3.65625 14.3359C 3.65625 16.1875 4.04297 17.6602 4.81641 18.7539C 5.58984 19.8477 6.67188 20.3945 8.0625 20.3945C 9.3125 20.3945 10.2695 20.1133 10.9336 19.5508C 11.6055 18.9805 12.0508 17.9922 12.2695 16.5859L 14.5312 16.5859ZM 19.8633 15.3203L 19.8633 22L 17.6133 22L 17.6133 4.9375L 23.9062 4.9375C 25.7734 4.9375 27.2344 5.41406 28.2891 6.36719C 29.3516 7.32031 29.8828 8.58203 29.8828 10.1523C 29.8828 11.8086 29.3633 13.0859 28.3242 13.9844C 27.293 14.875 25.8125 15.3203 23.8828 15.3203L 19.8633 15.3203ZM 19.8633 13.4805L 23.9062 13.4805C 25.1094 13.4805 26.0312 13.1992 26.6719 12.6367C 27.3125 12.0664 27.6328 11.2461 27.6328 10.1758C 27.6328 9.16016 27.3125 8.34766 26.6719 7.73828C 26.0312 7.12891 25.1523 6.8125 24.0352 6.78906L 19.8633 6.78906L 19.8633 13.4805ZM 36.7266 18.8242L 39.6797 9.32031L 42 9.32031L 36.9023 23.957C 36.1133 26.0664 34.8594 27.1211 33.1406 27.1211L 32.7305 27.0859L 31.9219 26.9336L 31.9219 25.1758L 32.5078 25.2227C 33.2422 25.2227 33.8125 25.0742 34.2188 24.7773C 34.6328 24.4805 34.9727 23.9375 35.2383 23.1484L 35.7188 21.8594L 31.1953 9.32031L 33.5625 9.32031L 36.7266 18.8242ZM 46.8867 6.25L 46.8867 9.32031L 49.2539 9.32031L 49.2539 10.9961L 46.8867 10.9961L 46.8867 18.8594C 46.8867 19.3672 46.9922 19.75 47.2031 20.0078C 47.4141 20.2578 47.7734 20.3828 48.2812 20.3828C 48.5312 20.3828 48.875 20.3359 49.3125 20.2422L 49.3125 22C 48.7422 22.1562 48.1875 22.2344 47.6484 22.2344C 46.6797 22.2344 45.9492 21.9414 45.457 21.3555C 44.9648 20.7695 44.7188 19.9375 44.7188 18.8594L 44.7188 10.9961L 42.4102 10.9961L 42.4102 9.32031L 44.7188 9.32031L 44.7188 6.25L 46.8867 6.25ZM 53.9648 10.8555C 54.9258 9.67578 56.1758 9.08594 57.7148 9.08594C 60.3945 9.08594 61.7461 10.5977 61.7695 13.6211L 61.7695 22L 59.6016 22L 59.6016 13.6094C 59.5938 12.6953 59.3828 12.0195 58.9688 11.582C 58.5625 11.1445 57.9258 10.9258 57.0586 10.9258C 56.3555 10.9258 55.7383 11.1133 55.207 11.4883C 54.6758 11.8633 54.2617 12.3555 53.9648 12.9648L 53.9648 22L 51.7969 22L 51.7969 4L 53.9648 4L 53.9648 10.8555ZM 64.4414 15.543C 64.4414 14.3008 64.6836 13.1836 65.168 12.1914C 65.6602 11.1992 66.3398 10.4336 67.207 9.89453C 68.082 9.35547 69.0781 9.08594 70.1953 9.08594C 71.9219 9.08594 73.3164 9.68359 74.3789 10.8789C 75.4492 12.0742 75.9844 13.6641 75.9844 15.6484L 75.9844 15.8008C 75.9844 17.0352 75.7461 18.1445 75.2695 19.1289C 74.8008 20.1055 74.125 20.8672 73.2422 21.4141C 72.3672 21.9609 71.3594 22.2344 70.2188 22.2344C 68.5 22.2344 67.1055 21.6367 66.0352 20.4414C 64.9727 19.2461 64.4414 17.6641 64.4414 15.6953L 64.4414 15.543ZM 66.6211 15.8008C 66.6211 17.207 66.9453 18.3359 67.5938 19.1875C 68.25 20.0391 69.125 20.4648 70.2188 20.4648C 71.3203 20.4648 72.1953 20.0352 72.8438 19.1758C 73.4922 18.3086 73.8164 17.0977 73.8164 15.543C 73.8164 14.1523 73.4844 13.0273 72.8203 12.168C 72.1641 11.3008 71.2891 10.8672 70.1953 10.8672C 69.125 10.8672 68.2617 11.293 67.6055 12.1445C 66.9492 12.9961 66.6211 14.2148 66.6211 15.8008ZM 80.7539 9.32031L 80.8242 10.9141C 81.793 9.69531 83.0586 9.08594 84.6211 9.08594C 87.3008 9.08594 88.6523 10.5977 88.6758 13.6211L 88.6758 22L 86.5078 22L 86.5078 13.6094C 86.5 12.6953 86.2891 12.0195 85.875 11.582C 85.4688 11.1445 84.832 10.9258 83.9648 10.9258C 83.2617 10.9258 82.6445 11.1133 82.1133 11.4883C 81.582 11.8633 81.168 12.3555 80.8711 12.9648L 80.8711 22L 78.7031 22L 78.7031 9.32031L 80.7539 9.32031ZM 103.887 19.0117L 108.762 4.9375L 111.223 4.9375L 104.895 22L 102.902 22L 96.5859 4.9375L 99.0352 4.9375L 103.887 19.0117ZM 116.426 4.9375L 122.004 18.8594L 127.582 4.9375L 130.5 4.9375L 130.5 22L 128.25 22L 128.25 15.3555L 128.461 8.18359L 122.859 22L 121.137 22L 115.547 8.21875L 115.77 15.3555L 115.77 22L 113.52 22L 113.52 4.9375L 116.426 4.9375Z"/>
<path id="path5_fill" d="M 14.5312 16.5859C 14.3203 18.3906 13.6523 19.7852 12.5273 20.7695C 11.4102 21.7461 9.92188 22.2344 8.0625 22.2344C 6.04688 22.2344 4.42969 21.5117 3.21094 20.0664C 2 18.6211 1.39453 16.6875 1.39453 14.2656L 1.39453 12.625C 1.39453 11.0391 1.67578 9.64453 2.23828 8.44141C 2.80859 7.23828 3.61328 6.31641 4.65234 5.67578C 5.69141 5.02734 6.89453 4.70312 8.26172 4.70312C 10.0742 4.70312 11.5273 5.21094 12.6211 6.22656C 13.7148 7.23438 14.3516 8.63281 14.5312 10.4219L 12.2695 10.4219C 12.0742 9.0625 11.6484 8.07812 10.9922 7.46875C 10.3438 6.85938 9.43359 6.55469 8.26172 6.55469C 6.82422 6.55469 5.69531 7.08594 4.875 8.14844C 4.0625 9.21094 3.65625 10.7227 3.65625 12.6836L 3.65625 14.3359C 3.65625 16.1875 4.04297 17.6602 4.81641 18.7539C 5.58984 19.8477 6.67188 20.3945 8.0625 20.3945C 9.3125 20.3945 10.2695 20.1133 10.9336 19.5508C 11.6055 18.9805 12.0508 17.9922 12.2695 16.5859L 14.5312 16.5859ZM 19.8633 15.3203L 19.8633 22L 17.6133 22L 17.6133 4.9375L 23.9062 4.9375C 25.7734 4.9375 27.2344 5.41406 28.2891 6.36719C 29.3516 7.32031 29.8828 8.58203 29.8828 10.1523C 29.8828 11.8086 29.3633 13.0859 28.3242 13.9844C 27.293 14.875 25.8125 15.3203 23.8828 15.3203L 19.8633 15.3203ZM 19.8633 13.4805L 23.9062 13.4805C 25.1094 13.4805 26.0312 13.1992 26.6719 12.6367C 27.3125 12.0664 27.6328 11.2461 27.6328 10.1758C 27.6328 9.16016 27.3125 8.34766 26.6719 7.73828C 26.0312 7.12891 25.1523 6.8125 24.0352 6.78906L 19.8633 6.78906L 19.8633 13.4805ZM 44.7656 4.9375L 44.7656 16.5391C 44.7578 18.1484 44.25 19.4648 43.2422 20.4883C 42.2422 21.5117 40.8828 22.0859 39.1641 22.2109L 38.5664 22.2344C 36.6992 22.2344 35.2109 21.7305 34.1016 20.7227C 32.9922 19.7148 32.4297 18.3281 32.4141 16.5625L 32.4141 4.9375L 34.6406 4.9375L 34.6406 16.4922C 34.6406 17.7266 34.9805 18.6875 35.6602 19.375C 36.3398 20.0547 37.3086 20.3945 38.5664 20.3945C 39.8398 20.3945 40.8125 20.0547 41.4844 19.375C 42.1641 18.6953 42.5039 17.7383 42.5039 16.5039L 42.5039 4.9375L 44.7656 4.9375Z"/>
<path id="path6_stroke" d="M 120.354 0.353553C 120.549 0.158291 120.549 -0.158291 120.354 -0.353553L 117.172 -3.53553C 116.976 -3.7308 116.66 -3.7308 116.464 -3.53553C 116.269 -3.34027 116.269 -3.02369 116.464 -2.82843L 119.293 0L 116.464 2.82843C 116.269 3.02369 116.269 3.34027 116.464 3.53553C 116.66 3.7308 116.976 3.7308 117.172 3.53553L 120.354 0.353553ZM 0 0.5L 120 0.5L 120 -0.5L 0 -0.5L 0 0.5Z"/>
<path id="path7_stroke" d="M 120.232 0.353553C 120.427 0.158291 120.427 -0.158291 120.232 -0.353553L 117.05 -3.53553C 116.855 -3.7308 116.538 -3.7308 116.343 -3.53553C 116.148 -3.34027 116.148 -3.02369 116.343 -2.82843L 119.172 0L 116.343 2.82843C 116.148 3.02369 116.148 3.34027 116.343 3.53553C 116.538 3.7308 116.855 3.7308 117.05 3.53553L 120.232 0.353553ZM 0 0.5L 119.879 0.5L 119.879 -0.5L 0 -0.5L 0 0.5Z"/>
<path id="path8_fill" d="M 4.88672 4.9375L 10.4648 18.8594L 16.043 4.9375L 18.9609 4.9375L 18.9609 22L 16.7109 22L 16.7109 15.3555L 16.9219 8.18359L 11.3203 22L 9.59766 22L 4.00781 8.21875L 4.23047 15.3555L 4.23047 22L 1.98047 22L 1.98047 4.9375L 4.88672 4.9375ZM 30.4219 22C 30.2969 21.75 30.1953 21.3047 30.1172 20.6641C 29.1094 21.7109 27.9062 22.2344 26.5078 22.2344C 25.2578 22.2344 24.2305 21.8828 23.4258 21.1797C 22.6289 20.4688 22.2305 19.5703 22.2305 18.4844C 22.2305 17.1641 22.7305 16.1406 23.7305 15.4141C 24.7383 14.6797 26.1523 14.3125 27.9727 14.3125L 30.082 14.3125L 30.082 13.3164C 30.082 12.5586 29.8555 11.957 29.4023 11.5117C 28.9492 11.0586 28.2812 10.832 27.3984 10.832C 26.625 10.832 25.9766 11.0273 25.4531 11.418C 24.9297 11.8086 24.668 12.2812 24.668 12.8359L 22.4883 12.8359C 22.4883 12.2031 22.7109 11.5938 23.1562 11.0078C 23.6094 10.4141 24.2188 9.94531 24.9844 9.60156C 25.7578 9.25781 26.6055 9.08594 27.5273 9.08594C 28.9883 9.08594 30.1328 9.45312 30.9609 10.1875C 31.7891 10.9141 32.2188 11.918 32.25 13.1992L 32.25 19.0352C 32.25 20.1992 32.3984 21.125 32.6953 21.8125L 32.6953 22L 30.4219 22ZM 26.8242 20.3477C 27.5039 20.3477 28.1484 20.1719 28.7578 19.8203C 29.3672 19.4688 29.8086 19.0117 30.082 18.4492L 30.082 15.8477L 28.3828 15.8477C 25.7266 15.8477 24.3984 16.625 24.3984 18.1797C 24.3984 18.8594 24.625 19.3906 25.0781 19.7734C 25.5312 20.1562 26.1133 20.3477 26.8242 20.3477ZM 40.7344 20.4648C 41.5078 20.4648 42.1836 20.2305 42.7617 19.7617C 43.3398 19.293 43.6602 18.707 43.7227 18.0039L 45.7734 18.0039C 45.7344 18.7305 45.4844 19.4219 45.0234 20.0781C 44.5625 20.7344 43.9453 21.2578 43.1719 21.6484C 42.4062 22.0391 41.5938 22.2344 40.7344 22.2344C 39.0078 22.2344 37.6328 21.6602 36.6094 20.5117C 35.5938 19.3555 35.0859 17.7773 35.0859 15.7773L 35.0859 15.4141C 35.0859 14.1797 35.3125 13.082 35.7656 12.1211C 36.2188 11.1602 36.8672 10.4141 37.7109 9.88281C 38.5625 9.35156 39.5664 9.08594 40.7227 9.08594C 42.1445 9.08594 43.3242 9.51172 44.2617 10.3633C 45.207 11.2148 45.7109 12.3203 45.7734 13.6797L 43.7227 13.6797C 43.6602 12.8594 43.3477 12.1875 42.7852 11.6641C 42.2305 11.1328 41.543 10.8672 40.7227 10.8672C 39.6211 10.8672 38.7656 11.2656 38.1562 12.0625C 37.5547 12.8516 37.2539 13.9961 37.2539 15.4961L 37.2539 15.9062C 37.2539 17.3672 37.5547 18.4922 38.1562 19.2812C 38.7578 20.0703 39.6172 20.4648 40.7344 20.4648ZM 50.3789 10.8555C 51.3398 9.67578 52.5898 9.08594 54.1289 9.08594C 56.8086 9.08594 58.1602 10.5977 58.1836 13.6211L 58.1836 22L 56.0156 22L 56.0156 13.6094C 56.0078 12.6953 55.7969 12.0195 55.3828 11.582C 54.9766 11.1445 54.3398 10.9258 53.4727 10.9258C 52.7695 10.9258 52.1523 11.1133 51.6211 11.4883C 51.0898 11.8633 50.6758 12.3555 50.3789 12.9648L 50.3789 22L 48.2109 22L 48.2109 4L 50.3789 4L 50.3789 10.8555ZM 63.7852 22L 61.6172 22L 61.6172 9.32031L 63.7852 9.32031L 63.7852 22ZM 61.4414 5.95703C 61.4414 5.60547 61.5469 5.30859 61.7578 5.06641C 61.9766 4.82422 62.2969 4.70312 62.7188 4.70312C 63.1406 4.70312 63.4609 4.82422 63.6797 5.06641C 63.8984 5.30859 64.0078 5.60547 64.0078 5.95703C 64.0078 6.30859 63.8984 6.60156 63.6797 6.83594C 63.4609 7.07031 63.1406 7.1875 62.7188 7.1875C 62.2969 7.1875 61.9766 7.07031 61.7578 6.83594C 61.5469 6.60156 61.4414 6.30859 61.4414 5.95703ZM 69.3164 9.32031L 69.3867 10.9141C 70.3555 9.69531 71.6211 9.08594 73.1836 9.08594C 75.8633 9.08594 77.2148 10.5977 77.2383 13.6211L 77.2383 22L 75.0703 22L 75.0703 13.6094C 75.0625 12.6953 74.8516 12.0195 74.4375 11.582C 74.0312 11.1445 73.3945 10.9258 72.5273 10.9258C 71.8242 10.9258 71.207 11.1133 70.6758 11.4883C 70.1445 11.8633 69.7305 12.3555 69.4336 12.9648L 69.4336 22L 67.2656 22L 67.2656 9.32031L 69.3164 9.32031ZM 85.7695 22.2344C 84.0508 22.2344 82.6523 21.6719 81.5742 20.5469C 80.4961 19.4141 79.957 17.9023 79.957 16.0117L 79.957 15.6133C 79.957 14.3555 80.1953 13.2344 80.6719 12.25C 81.1562 11.2578 81.8281 10.4844 82.6875 9.92969C 83.5547 9.36719 84.4922 9.08594 85.5 9.08594C 87.1484 9.08594 88.4297 9.62891 89.3438 10.7148C 90.2578 11.8008 90.7148 13.3555 90.7148 15.3789L 90.7148 16.2812L 82.125 16.2812C 82.1562 17.5312 82.5195 18.543 83.2148 19.3164C 83.918 20.082 84.8086 20.4648 85.8867 20.4648C 86.6523 20.4648 87.3008 20.3086 87.832 19.9961C 88.3633 19.6836 88.8281 19.2695 89.2266 18.7539L 90.5508 19.7852C 89.4883 21.418 87.8945 22.2344 85.7695 22.2344ZM 85.5 10.8672C 84.625 10.8672 83.8906 11.1875 83.2969 11.8281C 82.7031 12.4609 82.3359 13.3516 82.1953 14.5L 88.5469 14.5L 88.5469 14.3359C 88.4844 13.2344 88.1875 12.3828 87.6562 11.7812C 87.125 11.1719 86.4062 10.8672 85.5 10.8672ZM 112.078 16.5859C 111.867 18.3906 111.199 19.7852 110.074 20.7695C 108.957 21.7461 107.469 22.2344 105.609 22.2344C 103.594 22.2344 101.977 21.5117 100.758 20.0664C 99.5469 18.6211 98.9414 16.6875 98.9414 14.2656L 98.9414 12.625C 98.9414 11.0391 99.2227 9.64453 99.7852 8.44141C 100.355 7.23828 101.16 6.31641 102.199 5.67578C 103.238 5.02734 104.441 4.70312 105.809 4.70312C 107.621 4.70312 109.074 5.21094 110.168 6.22656C 111.262 7.23438 111.898 8.63281 112.078 10.4219L 109.816 10.4219C 109.621 9.0625 109.195 8.07812 108.539 7.46875C 107.891 6.85938 106.98 6.55469 105.809 6.55469C 104.371 6.55469 103.242 7.08594 102.422 8.14844C 101.609 9.21094 101.203 10.7227 101.203 12.6836L 101.203 14.3359C 101.203 16.1875 101.59 17.6602 102.363 18.7539C 103.137 19.8477 104.219 20.3945 105.609 20.3945C 106.859 20.3945 107.816 20.1133 108.48 19.5508C 109.152 18.9805 109.598 17.9922 109.816 16.5859L 112.078 16.5859ZM 114.246 15.543C 114.246 14.3008 114.488 13.1836 114.973 12.1914C 115.465 11.1992 116.145 10.4336 117.012 9.89453C 117.887 9.35547 118.883 9.08594 120 9.08594C 121.727 9.08594 123.121 9.68359 124.184 10.8789C 125.254 12.0742 125.789 13.6641 125.789 15.6484L 125.789 15.8008C 125.789 17.0352 125.551 18.1445 125.074 19.1289C 124.605 20.1055 123.93 20.8672 123.047 21.4141C 122.172 21.9609 121.164 22.2344 120.023 22.2344C 118.305 22.2344 116.91 21.6367 115.84 20.4414C 114.777 19.2461 114.246 17.6641 114.246 15.6953L 114.246 15.543ZM 116.426 15.8008C 116.426 17.207 116.75 18.3359 117.398 19.1875C 118.055 20.0391 118.93 20.4648 120.023 20.4648C 121.125 20.4648 122 20.0352 122.648 19.1758C 123.297 18.3086 123.621 17.0977 123.621 15.543C 123.621 14.1523 123.289 13.0273 122.625 12.168C 121.969 11.3008 121.094 10.8672 120 10.8672C 118.93 10.8672 118.066 11.293 117.41 12.1445C 116.754 12.9961 116.426 14.2148 116.426 15.8008ZM 127.98 15.5547C 127.98 13.6094 128.441 12.0469 129.363 10.8672C 130.285 9.67969 131.492 9.08594 132.984 9.08594C 134.469 9.08594 135.645 9.59375 136.512 10.6094L 136.512 4L 138.68 4L 138.68 22L 136.688 22L 136.582 20.6406C 135.715 21.7031 134.508 22.2344 132.961 22.2344C 131.492 22.2344 130.293 21.6328 129.363 20.4297C 128.441 19.2266 127.98 17.6562 127.98 15.7188L 127.98 15.5547ZM 130.148 15.8008C 130.148 17.2383 130.445 18.3633 131.039 19.1758C 131.633 19.9883 132.453 20.3945 133.5 20.3945C 134.875 20.3945 135.879 19.7773 136.512 18.543L 136.512 12.7188C 135.863 11.5234 134.867 10.9258 133.523 10.9258C 132.461 10.9258 131.633 11.3359 131.039 12.1562C 130.445 12.9766 130.148 14.1914 130.148 15.8008ZM 147.316 22.2344C 145.598 22.2344 144.199 21.6719 143.121 20.5469C 142.043 19.4141 141.504 17.9023 141.504 16.0117L 141.504 15.6133C 141.504 14.3555 141.742 13.2344 142.219 12.25C 142.703 11.2578 143.375 10.4844 144.234 9.92969C 145.102 9.36719 146.039 9.08594 147.047 9.08594C 148.695 9.08594 149.977 9.62891 150.891 10.7148C 151.805 11.8008 152.262 13.3555 152.262 15.3789L 152.262 16.2812L 143.672 16.2812C 143.703 17.5312 144.066 18.543 144.762 19.3164C 145.465 20.082 146.355 20.4648 147.434 20.4648C 148.199 20.4648 148.848 20.3086 149.379 19.9961C 149.91 19.6836 150.375 19.2695 150.773 18.7539L 152.098 19.7852C 151.035 21.418 149.441 22.2344 147.316 22.2344ZM 147.047 10.8672C 146.172 10.8672 145.438 11.1875 144.844 11.8281C 144.25 12.4609 143.883 13.3516 143.742 14.5L 150.094 14.5L 150.094 14.3359C 150.031 13.2344 149.734 12.3828 149.203 11.7812C 148.672 11.1719 147.953 10.8672 147.047 10.8672Z"/>
<path id="path9_fill" d="M 14.5312 16.5859C 14.3203 18.3906 13.6523 19.7852 12.5273 20.7695C 11.4102 21.7461 9.92188 22.2344 8.0625 22.2344C 6.04688 22.2344 4.42969 21.5117 3.21094 20.0664C 2 18.6211 1.39453 16.6875 1.39453 14.2656L 1.39453 12.625C 1.39453 11.0391 1.67578 9.64453 2.23828 8.44141C 2.80859 7.23828 3.61328 6.31641 4.65234 5.67578C 5.69141 5.02734 6.89453 4.70312 8.26172 4.70312C 10.0742 4.70312 11.5273 5.21094 12.6211 6.22656C 13.7148 7.23438 14.3516 8.63281 14.5312 10.4219L 12.2695 10.4219C 12.0742 9.0625 11.6484 8.07812 10.9922 7.46875C 10.3438 6.85938 9.43359 6.55469 8.26172 6.55469C 6.82422 6.55469 5.69531 7.08594 4.875 8.14844C 4.0625 9.21094 3.65625 10.7227 3.65625 12.6836L 3.65625 14.3359C 3.65625 16.1875 4.04297 17.6602 4.81641 18.7539C 5.58984 19.8477 6.67188 20.3945 8.0625 20.3945C 9.3125 20.3945 10.2695 20.1133 10.9336 19.5508C 11.6055 18.9805 12.0508 17.9922 12.2695 16.5859L 14.5312 16.5859ZM 19.8633 15.3203L 19.8633 22L 17.6133 22L 17.6133 4.9375L 23.9062 4.9375C 25.7734 4.9375 27.2344 5.41406 28.2891 6.36719C 29.3516 7.32031 29.8828 8.58203 29.8828 10.1523C 29.8828 11.8086 29.3633 13.0859 28.3242 13.9844C 27.293 14.875 25.8125 15.3203 23.8828 15.3203L 19.8633 15.3203ZM 19.8633 13.4805L 23.9062 13.4805C 25.1094 13.4805 26.0312 13.1992 26.6719 12.6367C 27.3125 12.0664 27.6328 11.2461 27.6328 10.1758C 27.6328 9.16016 27.3125 8.34766 26.6719 7.73828C 26.0312 7.12891 25.1523 6.8125 24.0352 6.78906L 19.8633 6.78906L 19.8633 13.4805ZM 36.7266 18.8242L 39.6797 9.32031L 42 9.32031L 36.9023 23.957C 36.1133 26.0664 34.8594 27.1211 33.1406 27.1211L 32.7305 27.0859L 31.9219 26.9336L 31.9219 25.1758L 32.5078 25.2227C 33.2422 25.2227 33.8125 25.0742 34.2188 24.7773C 34.6328 24.4805 34.9727 23.9375 35.2383 23.1484L 35.7188 21.8594L 31.1953 9.32031L 33.5625 9.32031L 36.7266 18.8242ZM 46.8867 6.25L 46.8867 9.32031L 49.2539 9.32031L 49.2539 10.9961L 46.8867 10.9961L 46.8867 18.8594C 46.8867 19.3672 46.9922 19.75 47.2031 20.0078C 47.4141 20.2578 47.7734 20.3828 48.2812 20.3828C 48.5312 20.3828 48.875 20.3359 49.3125 20.2422L 49.3125 22C 48.7422 22.1562 48.1875 22.2344 47.6484 22.2344C 46.6797 22.2344 45.9492 21.9414 45.457 21.3555C 44.9648 20.7695 44.7188 19.9375 44.7188 18.8594L 44.7188 10.9961L 42.4102 10.9961L 42.4102 9.32031L 44.7188 9.32031L 44.7188 6.25L 46.8867 6.25ZM 53.9648 10.8555C 54.9258 9.67578 56.1758 9.08594 57.7148 9.08594C 60.3945 9.08594 61.7461 10.5977 61.7695 13.6211L 61.7695 22L 59.6016 22L 59.6016 13.6094C 59.5938 12.6953 59.3828 12.0195 58.9688 11.582C 58.5625 11.1445 57.9258 10.9258 57.0586 10.9258C 56.3555 10.9258 55.7383 11.1133 55.207 11.4883C 54.6758 11.8633 54.2617 12.3555 53.9648 12.9648L 53.9648 22L 51.7969 22L 51.7969 4L 53.9648 4L 53.9648 10.8555ZM 64.4414 15.543C 64.4414 14.3008 64.6836 13.1836 65.168 12.1914C 65.6602 11.1992 66.3398 10.4336 67.207 9.89453C 68.082 9.35547 69.0781 9.08594 70.1953 9.08594C 71.9219 9.08594 73.3164 9.68359 74.3789 10.8789C 75.4492 12.0742 75.9844 13.6641 75.9844 15.6484L 75.9844 15.8008C 75.9844 17.0352 75.7461 18.1445 75.2695 19.1289C 74.8008 20.1055 74.125 20.8672 73.2422 21.4141C 72.3672 21.9609 71.3594 22.2344 70.2188 22.2344C 68.5 22.2344 67.1055 21.6367 66.0352 20.4414C 64.9727 19.2461 64.4414 17.6641 64.4414 15.6953L 64.4414 15.543ZM 66.6211 15.8008C 66.6211 17.207 66.9453 18.3359 67.5938 19.1875C 68.25 20.0391 69.125 20.4648 70.2188 20.4648C 71.3203 20.4648 72.1953 20.0352 72.8438 19.1758C 73.4922 18.3086 73.8164 17.0977 73.8164 15.543C 73.8164 14.1523 73.4844 13.0273 72.8203 12.168C 72.1641 11.3008 71.2891 10.8672 70.1953 10.8672C 69.125 10.8672 68.2617 11.293 67.6055 12.1445C 66.9492 12.9961 66.6211 14.2148 66.6211 15.8008ZM 80.7539 9.32031L 80.8242 10.9141C 81.793 9.69531 83.0586 9.08594 84.6211 9.08594C 87.3008 9.08594 88.6523 10.5977 88.6758 13.6211L 88.6758 22L 86.5078 22L 86.5078 13.6094C 86.5 12.6953 86.2891 12.0195 85.875 11.582C 85.4688 11.1445 84.832 10.9258 83.9648 10.9258C 83.2617 10.9258 82.6445 11.1133 82.1133 11.4883C 81.582 11.8633 81.168 12.3555 80.8711 12.9648L 80.8711 22L 78.7031 22L 78.7031 9.32031L 80.7539 9.32031ZM 100.652 22L 98.4023 22L 98.4023 4.9375L 100.652 4.9375L 100.652 22ZM 106.488 9.32031L 106.559 10.9141C 107.527 9.69531 108.793 9.08594 110.355 9.08594C 113.035 9.08594 114.387 10.5977 114.41 13.6211L 114.41 22L 112.242 22L 112.242 13.6094C 112.234 12.6953 112.023 12.0195 111.609 11.582C 111.203 11.1445 110.566 10.9258 109.699 10.9258C 108.996 10.9258 108.379 11.1133 107.848 11.4883C 107.316 11.8633 106.902 12.3555 106.605 12.9648L 106.605 22L 104.438 22L 104.438 9.32031L 106.488 9.32031ZM 120.621 6.25L 120.621 9.32031L 122.988 9.32031L 122.988 10.9961L 120.621 10.9961L 120.621 18.8594C 120.621 19.3672 120.727 19.75 120.938 20.0078C 121.148 20.2578 121.508 20.3828 122.016 20.3828C 122.266 20.3828 122.609 20.3359 123.047 20.2422L 123.047 22C 122.477 22.1562 121.922 22.2344 121.383 22.2344C 120.414 22.2344 119.684 21.9414 119.191 21.3555C 118.699 20.7695 118.453 19.9375 118.453 18.8594L 118.453 10.9961L 116.145 10.9961L 116.145 9.32031L 118.453 9.32031L 118.453 6.25L 120.621 6.25ZM 130.793 22.2344C 129.074 22.2344 127.676 21.6719 126.598 20.5469C 125.52 19.4141 124.98 17.9023 124.98 16.0117L 124.98 15.6133C 124.98 14.3555 125.219 13.2344 125.695 12.25C 126.18 11.2578 126.852 10.4844 127.711 9.92969C 128.578 9.36719 129.516 9.08594 130.523 9.08594C 132.172 9.08594 133.453 9.62891 134.367 10.7148C 135.281 11.8008 135.738 13.3555 135.738 15.3789L 135.738 16.2812L 127.148 16.2812C 127.18 17.5312 127.543 18.543 128.238 19.3164C 128.941 20.082 129.832 20.4648 130.91 20.4648C 131.676 20.4648 132.324 20.3086 132.855 19.9961C 133.387 19.6836 133.852 19.2695 134.25 18.7539L 135.574 19.7852C 134.512 21.418 132.918 22.2344 130.793 22.2344ZM 130.523 10.8672C 129.648 10.8672 128.914 11.1875 128.32 11.8281C 127.727 12.4609 127.359 13.3516 127.219 14.5L 133.57 14.5L 133.57 14.3359C 133.508 13.2344 133.211 12.3828 132.68 11.7812C 132.148 11.1719 131.43 10.8672 130.523 10.8672ZM 144.387 11.2656C 144.059 11.2109 143.703 11.1836 143.32 11.1836C 141.898 11.1836 140.934 11.7891 140.426 13L 140.426 22L 138.258 22L 138.258 9.32031L 140.367 9.32031L 140.402 10.7852C 141.113 9.65234 142.121 9.08594 143.426 9.08594C 143.848 9.08594 144.168 9.14062 144.387 9.25L 144.387 11.2656ZM 157.102 15.8008C 157.102 17.7305 156.66 19.2852 155.777 20.4648C 154.895 21.6445 153.699 22.2344 152.191 22.2344C 150.652 22.2344 149.441 21.7461 148.559 20.7695L 148.559 26.875L 146.391 26.875L 146.391 9.32031L 148.371 9.32031L 148.477 10.7266C 149.359 9.63281 150.586 9.08594 152.156 9.08594C 153.68 9.08594 154.883 9.66016 155.766 10.8086C 156.656 11.957 157.102 13.5547 157.102 15.6016L 157.102 15.8008ZM 154.934 15.5547C 154.934 14.125 154.629 12.9961 154.02 12.168C 153.41 11.3398 152.574 10.9258 151.512 10.9258C 150.199 10.9258 149.215 11.5078 148.559 12.6719L 148.559 18.7305C 149.207 19.8867 150.199 20.4648 151.535 20.4648C 152.574 20.4648 153.398 20.0547 154.008 19.2344C 154.625 18.4062 154.934 17.1797 154.934 15.5547ZM 165.996 11.2656C 165.668 11.2109 165.312 11.1836 164.93 11.1836C 163.508 11.1836 162.543 11.7891 162.035 13L 162.035 22L 159.867 22L 159.867 9.32031L 161.977 9.32031L 162.012 10.7852C 162.723 9.65234 163.73 9.08594 165.035 9.08594C 165.457 9.08594 165.777 9.14062 165.996 9.25L 165.996 11.2656ZM 173.051 22.2344C 171.332 22.2344 169.934 21.6719 168.855 20.5469C 167.777 19.4141 167.238 17.9023 167.238 16.0117L 167.238 15.6133C 167.238 14.3555 167.477 13.2344 167.953 12.25C 168.438 11.2578 169.109 10.4844 169.969 9.92969C 170.836 9.36719 171.773 9.08594 172.781 9.08594C 174.43 9.08594 175.711 9.62891 176.625 10.7148C 177.539 11.8008 177.996 13.3555 177.996 15.3789L 177.996 16.2812L 169.406 16.2812C 169.438 17.5312 169.801 18.543 170.496 19.3164C 171.199 20.082 172.09 20.4648 173.168 20.4648C 173.934 20.4648 174.582 20.3086 175.113 19.9961C 175.645 19.6836 176.109 19.2695 176.508 18.7539L 177.832 19.7852C 176.77 21.418 175.176 22.2344 173.051 22.2344ZM 172.781 10.8672C 171.906 10.8672 171.172 11.1875 170.578 11.8281C 169.984 12.4609 169.617 13.3516 169.477 14.5L 175.828 14.5L 175.828 14.3359C 175.766 13.2344 175.469 12.3828 174.938 11.7812C 174.406 11.1719 173.688 10.8672 172.781 10.8672ZM 183.457 6.25L 183.457 9.32031L 185.824 9.32031L 185.824 10.9961L 183.457 10.9961L 183.457 18.8594C 183.457 19.3672 183.562 19.75 183.773 20.0078C 183.984 20.2578 184.344 20.3828 184.852 20.3828C 185.102 20.3828 185.445 20.3359 185.883 20.2422L 185.883 22C 185.312 22.1562 184.758 22.2344 184.219 22.2344C 183.25 22.2344 182.52 21.9414 182.027 21.3555C 181.535 20.7695 181.289 19.9375 181.289 18.8594L 181.289 10.9961L 178.98 10.9961L 178.98 9.32031L 181.289 9.32031L 181.289 6.25L 183.457 6.25ZM 193.629 22.2344C 191.91 22.2344 190.512 21.6719 189.434 20.5469C 188.355 19.4141 187.816 17.9023 187.816 16.0117L 187.816 15.6133C 187.816 14.3555 188.055 13.2344 188.531 12.25C 189.016 11.2578 189.688 10.4844 190.547 9.92969C 191.414 9.36719 192.352 9.08594 193.359 9.08594C 195.008 9.08594 196.289 9.62891 197.203 10.7148C 198.117 11.8008 198.574 13.3555 198.574 15.3789L 198.574 16.2812L 189.984 16.2812C 190.016 17.5312 190.379 18.543 191.074 19.3164C 191.777 20.082 192.668 20.4648 193.746 20.4648C 194.512 20.4648 195.16 20.3086 195.691 19.9961C 196.223 19.6836 196.688 19.2695 197.086 18.7539L 198.41 19.7852C 197.348 21.418 195.754 22.2344 193.629 22.2344ZM 193.359 10.8672C 192.484 10.8672 191.75 11.1875 191.156 11.8281C 190.562 12.4609 190.195 13.3516 190.055 14.5L 196.406 14.5L 196.406 14.3359C 196.344 13.2344 196.047 12.3828 195.516 11.7812C 194.984 11.1719 194.266 10.8672 193.359 10.8672ZM 207.223 11.2656C 206.895 11.2109 206.539 11.1836 206.156 11.1836C 204.734 11.1836 203.77 11.7891 203.262 13L 203.262 22L 201.094 22L 201.094 9.32031L 203.203 9.32031L 203.238 10.7852C 203.949 9.65234 204.957 9.08594 206.262 9.08594C 206.684 9.08594 207.004 9.14062 207.223 9.25L 207.223 11.2656Z"/>
</defs>
</svg>
